# Blender 4.5.1 LTS
# www.blender.org
mtllib lev.556pmag60.mtl
o bulletModel_0
v 1.326923 0.557692 0.307692
v 1.903846 0.557692 0.307692
v 1.326923 0.250000 0.307692
v 1.903846 0.250000 0.307692
v 1.903846 0.557692 -0.000000
v 1.326923 0.557692 -0.000000
v 1.903846 0.250000 -0.000000
v 1.326923 0.250000 -0.000000
v 1.903846 0.557692 -0.000000
v 1.903846 0.557692 0.307692
v 1.326923 0.557692 -0.000000
v 1.326923 0.557692 0.307692
v 1.326923 0.250000 -0.000000
v 1.326923 0.250000 0.307692
v 1.903846 0.250000 -0.000000
v 1.903846 0.250000 0.307692
v 1.326923 0.557692 -0.000000
v 1.326923 0.557692 0.307692
v 1.326923 0.250000 -0.000000
v 1.326923 0.250000 0.307692
v 1.903846 0.557692 0.307692
v 1.903846 0.557692 -0.000000
v 1.903846 0.250000 0.307692
v 1.903846 0.250000 -0.000000
v 0.019231 0.615385 0.365385
v 0.942308 0.615385 0.365384
v 0.019231 0.192308 0.365385
v 0.942308 0.192308 0.365384
v 0.942308 0.615385 -0.057692
v 0.019231 0.615385 -0.057692
v 0.942308 0.192308 -0.057692
v 0.019231 0.192308 -0.057692
v 0.942308 0.615385 -0.057692
v 0.942308 0.615385 0.365384
v 0.019231 0.615385 -0.057692
v 0.019231 0.615385 0.365385
v 0.019231 0.192308 -0.057692
v 0.019231 0.192308 0.365385
v 0.942308 0.192308 -0.057692
v 0.942308 0.192308 0.365384
v 0.019231 0.615385 -0.057692
v 0.019231 0.615385 0.365385
v 0.019231 0.192308 -0.057692
v 0.019231 0.192308 0.365385
v 0.942308 0.615385 0.365384
v 0.942308 0.615385 -0.057692
v 0.942308 0.192308 0.365384
v 0.942308 0.192308 -0.057692
v 0.942308 0.596154 0.346154
v 1.365385 0.596154 0.346154
v 0.942308 0.211538 0.346154
v 1.365385 0.211538 0.346154
v 1.365384 0.596154 -0.038462
v 0.942308 0.596154 -0.038462
v 1.365384 0.211538 -0.038462
v 0.942308 0.211538 -0.038462
v 1.365384 0.596154 -0.038462
v 1.365385 0.596154 0.346154
v 0.942308 0.596154 -0.038462
v 0.942308 0.596154 0.346154
v 0.942308 0.211538 -0.038462
v 0.942308 0.211538 0.346154
v 1.365384 0.211538 -0.038462
v 1.365385 0.211538 0.346154
v 0.942308 0.596154 -0.038462
v 0.942308 0.596154 0.346154
v 0.942308 0.211538 -0.038462
v 0.942308 0.211538 0.346154
v 1.365385 0.596154 0.346154
v 1.365384 0.596154 -0.038462
v 1.365385 0.211538 0.346154
v 1.365384 0.211538 -0.038462
vn -0.0000 -0.0000 1.0000
vn -0.0000 -0.0000 -1.0000
vn -0.0000 1.0000 -0.0000
vn -0.0000 -1.0000 -0.0000
vn -1.0000 -0.0000 -0.0000
vn 1.0000 -0.0000 -0.0000
vt 0.375000 0.187500
vt 0.375000 0.156250
vt 0.437500 0.187500
vt 0.437500 0.156250
vt 0.812500 0.625000
vt 0.812500 0.593750
vt 0.875000 0.625000
vt 0.875000 0.593750
vt 0.468750 0.125000
vt 0.468750 0.187500
vt 0.437500 0.125000
vt 0.843750 0.562500
vt 0.843750 0.500000
vt 0.812500 0.562500
vt 0.812500 0.500000
vt 0.875000 0.437500
vt 0.875000 0.406250
vt 0.906250 0.437500
vt 0.906250 0.406250
vt 0.562500 0.125000
vt 0.562500 0.093750
vt 0.593750 0.125000
vt 0.593750 0.093750
vt 0.812500 0.812500
vt 0.812500 0.781250
vt 0.875000 0.812500
vt 0.875000 0.781250
vt 0.250000 0.187500
vt 0.250000 0.156250
vt 0.312500 0.187500
vt 0.312500 0.156250
vt 0.843750 0.687500
vt 0.843750 0.750000
vt 0.812500 0.687500
vt 0.812500 0.750000
vt 0.343750 0.187500
vt 0.343750 0.125000
vt 0.312500 0.125000
vt 0.875000 0.500000
vt 0.875000 0.468750
vt 0.906250 0.500000
vt 0.906250 0.468750
vt 0.500000 0.125000
vt 0.500000 0.093750
vt 0.531250 0.125000
vt 0.531250 0.093750
vt 0.875000 0.375000
vt 0.875000 0.343750
vt 0.906250 0.375000
vt 0.906250 0.343750
vt 0.875000 0.312500
vt 0.875000 0.281250
vt 0.906250 0.312500
vt 0.906250 0.281250
vt 0.781250 0.093750
vt 0.781250 0.125000
vt 0.750000 0.093750
vt 0.750000 0.125000
vt 0.906250 0.250000
vt 0.906250 0.218750
vt 0.875000 0.250000
vt 0.875000 0.218750
vt 0.687500 0.125000
vt 0.687500 0.093750
vt 0.718750 0.125000
vt 0.718750 0.093750
vt 0.625000 0.125000
vt 0.625000 0.093750
vt 0.656250 0.125000
vt 0.656250 0.093750
s 0
usemtl Material_0.003
f 1/1/1 3/2/1 2/3/1
f 3/2/1 4/4/1 2/3/1
f 5/5/2 7/6/2 6/7/2
f 7/6/2 8/8/2 6/7/2
f 9/9/3 11/10/3 10/11/3
f 11/10/3 12/3/3 10/11/3
f 13/12/4 15/13/4 14/14/4
f 15/13/4 16/15/4 14/14/4
f 17/16/5 19/17/5 18/18/5
f 19/17/5 20/19/5 18/18/5
f 21/20/6 23/21/6 22/22/6
f 23/21/6 24/23/6 22/22/6
f 25/24/1 27/25/1 26/26/1
f 27/25/1 28/27/1 26/26/1
f 29/28/2 31/29/2 30/30/2
f 31/29/2 32/31/2 30/30/2
f 33/32/3 35/33/3 34/34/3
f 35/33/3 36/35/3 34/34/3
f 37/36/4 39/37/4 38/30/4
f 39/37/4 40/38/4 38/30/4
f 41/39/5 43/40/5 42/41/5
f 43/40/5 44/42/5 42/41/5
f 45/43/6 47/44/6 46/45/6
f 47/44/6 48/46/6 46/45/6
f 49/47/1 51/48/1 50/49/1
f 51/48/1 52/50/1 50/49/1
f 53/51/2 55/52/2 54/53/2
f 55/52/2 56/54/2 54/53/2
f 57/55/3 59/56/3 58/57/3
f 59/56/3 60/58/3 58/57/3
f 61/59/4 63/60/4 62/61/4
f 63/60/4 64/62/4 62/61/4
f 65/63/5 67/64/5 66/65/5
f 67/64/5 68/66/5 66/65/5
f 69/67/6 71/68/6 70/69/6
f 71/68/6 72/70/6 70/69/6
o bulletModel_2
v 1.326923 0.173077 0.307692
v 1.903846 0.173077 0.307692
v 1.326923 -0.134615 0.307692
v 1.903846 -0.134615 0.307692
v 1.903846 0.173077 -0.000000
v 1.326923 0.173077 -0.000000
v 1.903846 -0.134615 -0.000000
v 1.326923 -0.134615 -0.000000
v 1.903846 0.173077 -0.000000
v 1.903846 0.173077 0.307692
v 1.326923 0.173077 -0.000000
v 1.326923 0.173077 0.307692
v 1.326923 -0.134615 -0.000000
v 1.326923 -0.134615 0.307692
v 1.903846 -0.134615 -0.000000
v 1.903846 -0.134615 0.307692
v 1.326923 0.173077 -0.000000
v 1.326923 0.173077 0.307692
v 1.326923 -0.134615 -0.000000
v 1.326923 -0.134615 0.307692
v 1.903846 0.173077 0.307692
v 1.903846 0.173077 -0.000000
v 1.903846 -0.134615 0.307692
v 1.903846 -0.134615 -0.000000
v 0.019231 0.230769 0.365385
v 0.942308 0.230769 0.365384
v 0.019231 -0.192308 0.365385
v 0.942308 -0.192308 0.365384
v 0.942308 0.230769 -0.057692
v 0.019231 0.230769 -0.057692
v 0.942308 -0.192308 -0.057692
v 0.019231 -0.192308 -0.057692
v 0.942308 0.230769 -0.057692
v 0.942308 0.230769 0.365384
v 0.019231 0.230769 -0.057692
v 0.019231 0.230769 0.365385
v 0.019231 -0.192308 -0.057692
v 0.019231 -0.192308 0.365385
v 0.942308 -0.192308 -0.057692
v 0.942308 -0.192308 0.365384
v 0.019231 0.230769 -0.057692
v 0.019231 0.230769 0.365385
v 0.019231 -0.192308 -0.057692
v 0.019231 -0.192308 0.365385
v 0.942308 0.230769 0.365384
v 0.942308 0.230769 -0.057692
v 0.942308 -0.192308 0.365384
v 0.942308 -0.192308 -0.057692
v 0.942308 0.211538 0.346154
v 1.365385 0.211538 0.346154
v 0.942308 -0.173077 0.346154
v 1.365385 -0.173077 0.346154
v 1.365384 0.211538 -0.038462
v 0.942308 0.211538 -0.038462
v 1.365384 -0.173077 -0.038462
v 0.942308 -0.173077 -0.038462
v 1.365384 0.211538 -0.038462
v 1.365385 0.211538 0.346154
v 0.942308 0.211538 -0.038462
v 0.942308 0.211538 0.346154
v 0.942308 -0.173077 -0.038462
v 0.942308 -0.173077 0.346154
v 1.365384 -0.173077 -0.038462
v 1.365385 -0.173077 0.346154
v 0.942308 0.211538 -0.038462
v 0.942308 0.211538 0.346154
v 0.942308 -0.173077 -0.038462
v 0.942308 -0.173077 0.346154
v 1.365385 0.211538 0.346154
v 1.365384 0.211538 -0.038462
v 1.365385 -0.173077 0.346154
v 1.365384 -0.173077 -0.038462
vn -0.0000 -0.0000 1.0000
vn -0.0000 -0.0000 -1.0000
vn -0.0000 1.0000 -0.0000
vn -0.0000 -1.0000 -0.0000
vn -1.0000 -0.0000 -0.0000
vn 1.0000 -0.0000 -0.0000
vt 0.812500 0.312500
vt 0.812500 0.281250
vt 0.875000 0.312500
vt 0.875000 0.281250
vt 0.750000 0.187500
vt 0.750000 0.156250
vt 0.812500 0.187500
vt 0.812500 0.156250
vt 0.843750 0.187500
vt 0.843750 0.250000
vt 0.812500 0.250000
vt 0.843750 0.125000
vt 0.812500 0.125000
vt 0.187500 0.062500
vt 0.187500 0.031250
vt 0.218750 0.062500
vt 0.218750 0.031250
vt 0.937500 0.875000
vt 0.937500 0.843750
vt 0.968750 0.875000
vt 0.968750 0.843750
vt 0.500000 0.187500
vt 0.500000 0.156250
vt 0.562500 0.187500
vt 0.562500 0.156250
vt 0.812500 0.500000
vt 0.812500 0.468750
vt 0.875000 0.500000
vt 0.875000 0.468750
vt 0.593750 0.125000
vt 0.593750 0.187500
vt 0.562500 0.125000
vt 0.843750 0.375000
vt 0.843750 0.312500
vt 0.812500 0.375000
vt 0.875000 0.187500
vt 0.875000 0.156250
vt 0.906250 0.187500
vt 0.906250 0.156250
vt 0.812500 0.093750
vt 0.843750 0.093750
vt 0.000000 0.062500
vt 0.000000 0.031250
vt 0.031250 0.062500
vt 0.031250 0.031250
vt 0.062500 0.062500
vt 0.062500 0.031250
vt 0.093750 0.062500
vt 0.093750 0.031250
vt 0.968750 0.906250
vt 0.968750 0.937500
vt 0.937500 0.906250
vt 0.937500 0.937500
vt 0.156250 0.062500
vt 0.156250 0.031250
vt 0.125000 0.062500
vt 0.125000 0.031250
vt 0.937500 1.000000
vt 0.937500 0.968750
vt 0.968750 1.000000
vt 0.968750 0.968750
vt 0.875000 0.125000
vt 0.875000 0.093750
vt 0.906250 0.125000
vt 0.906250 0.093750
s 0
usemtl Material_0.003
f 73/71/7 75/72/7 74/73/7
f 75/72/7 76/74/7 74/73/7
f 77/75/8 79/76/8 78/77/8
f 79/76/8 80/78/8 78/77/8
f 81/79/9 83/80/9 82/77/9
f 83/80/9 84/81/9 82/77/9
f 85/79/10 87/82/10 86/77/10
f 87/82/10 88/83/10 86/77/10
f 89/84/11 91/85/11 90/86/11
f 91/85/11 92/87/11 90/86/11
f 93/88/12 95/89/12 94/90/12
f 95/89/12 96/91/12 94/90/12
f 97/92/7 99/93/7 98/94/7
f 99/93/7 100/95/7 98/94/7
f 101/96/8 103/97/8 102/98/8
f 103/97/8 104/99/8 102/98/8
f 105/100/9 107/101/9 106/102/9
f 107/101/9 108/94/9 106/102/9
f 109/103/10 111/104/10 110/105/10
f 111/104/10 112/71/10 110/105/10
f 113/106/11 115/107/11 114/108/11
f 115/107/11 116/109/11 114/108/11
f 117/83/12 119/110/12 118/82/12
f 119/110/12 120/111/12 118/82/12
f 121/112/7 123/113/7 122/114/7
f 123/113/7 124/115/7 122/114/7
f 125/116/8 127/117/8 126/118/8
f 127/117/8 128/119/8 126/118/8
f 129/120/9 131/121/9 130/122/9
f 131/121/9 132/123/9 130/122/9
f 133/124/10 135/125/10 134/126/10
f 135/125/10 136/127/10 134/126/10
f 137/128/11 139/129/11 138/130/11
f 139/129/11 140/131/11 138/130/11
f 141/132/12 143/133/12 142/134/12
f 143/133/12 144/135/12 142/134/12
o bulletModel_1
v 1.326923 0.365385 -0.000000
v 1.903846 0.365385 -0.000000
v 1.326923 0.057692 -0.000000
v 1.903846 0.057692 -0.000000
v 1.903846 0.365385 -0.307693
v 1.326923 0.365385 -0.307693
v 1.903846 0.057692 -0.307693
v 1.326923 0.057692 -0.307693
v 1.903846 0.365385 -0.307693
v 1.903846 0.365385 -0.000000
v 1.326923 0.365385 -0.307693
v 1.326923 0.365385 -0.000000
v 1.326923 0.057692 -0.307693
v 1.326923 0.057692 -0.000000
v 1.903846 0.057692 -0.307693
v 1.903846 0.057692 -0.000000
v 1.326923 0.365385 -0.307693
v 1.326923 0.365385 -0.000000
v 1.326923 0.057692 -0.307693
v 1.326923 0.057692 -0.000000
v 1.903846 0.365385 -0.000000
v 1.903846 0.365385 -0.307693
v 1.903846 0.057692 -0.000000
v 1.903846 0.057692 -0.307693
v 0.019231 0.423077 0.057692
v 0.942308 0.423077 0.057692
v 0.019231 -0.000000 0.057692
v 0.942308 -0.000000 0.057692
v 0.942308 0.423077 -0.365385
v 0.019231 0.423077 -0.365385
v 0.942308 -0.000000 -0.365385
v 0.019231 -0.000000 -0.365385
v 0.942308 0.423077 -0.365385
v 0.942308 0.423077 0.057692
v 0.019231 0.423077 -0.365385
v 0.019231 0.423077 0.057692
v 0.019231 -0.000000 -0.365385
v 0.019231 -0.000000 0.057692
v 0.942308 -0.000000 -0.365385
v 0.942308 -0.000000 0.057692
v 0.019231 0.423077 -0.365385
v 0.019231 0.423077 0.057692
v 0.019231 -0.000000 -0.365385
v 0.019231 -0.000000 0.057692
v 0.942308 0.423077 0.057692
v 0.942308 0.423077 -0.365385
v 0.942308 -0.000000 0.057692
v 0.942308 -0.000000 -0.365385
v 0.942308 0.403846 0.038461
v 1.365384 0.403846 0.038461
v 0.942308 0.019231 0.038461
v 1.365384 0.019231 0.038461
v 1.365384 0.403846 -0.346154
v 0.942308 0.403846 -0.346154
v 1.365384 0.019231 -0.346154
v 0.942308 0.019231 -0.346154
v 1.365384 0.403846 -0.346154
v 1.365384 0.403846 0.038461
v 0.942308 0.403846 -0.346154
v 0.942308 0.403846 0.038461
v 0.942308 0.019231 -0.346154
v 0.942308 0.019231 0.038461
v 1.365384 0.019231 -0.346154
v 1.365384 0.019231 0.038461
v 0.942308 0.403846 -0.346154
v 0.942308 0.403846 0.038461
v 0.942308 0.019231 -0.346154
v 0.942308 0.019231 0.038461
v 1.365384 0.403846 0.038461
v 1.365384 0.403846 -0.346154
v 1.365384 0.019231 0.038461
v 1.365384 0.019231 -0.346154
vn -0.0000 -0.0000 1.0000
vn -0.0000 -0.0000 -1.0000
vn -0.0000 1.0000 -0.0000
vn -0.0000 -1.0000 -0.0000
vn -1.0000 -0.0000 -0.0000
vn 1.0000 -0.0000 -0.0000
vt 0.000000 0.125000
vt 0.000000 0.093750
vt 0.062500 0.125000
vt 0.062500 0.093750
vt 0.125000 0.125000
vt 0.125000 0.093750
vt 0.156250 0.062500
vt 0.156250 0.125000
vt 0.125000 0.062500
vt 0.906250 0.875000
vt 0.906250 0.812500
vt 0.875000 0.875000
vt 0.875000 0.812500
vt 0.250000 0.062500
vt 0.250000 0.031250
vt 0.281250 0.062500
vt 0.281250 0.031250
vt 0.937500 0.812500
vt 0.937500 0.781250
vt 0.968750 0.812500
vt 0.968750 0.781250
vt 0.875000 0.781250
vt 0.250000 0.125000
vt 0.250000 0.093750
vt 0.312500 0.125000
vt 0.312500 0.093750
vt 0.906250 0.687500
vt 0.906250 0.750000
vt 0.875000 0.687500
vt 0.875000 0.750000
vt 0.343750 0.125000
vt 0.343750 0.062500
vt 0.312500 0.062500
vt 0.500000 0.062500
vt 0.500000 0.031250
vt 0.531250 0.062500
vt 0.531250 0.031250
vt 0.937500 0.562500
vt 0.937500 0.531250
vt 0.968750 0.562500
vt 0.968750 0.531250
vt 0.312500 0.031250
vt 0.343750 0.031250
vt 0.375000 0.062500
vt 0.375000 0.031250
vt 0.406250 0.062500
vt 0.406250 0.031250
vt 0.968750 0.593750
vt 0.968750 0.625000
vt 0.937500 0.593750
vt 0.937500 0.625000
vt 0.468750 0.062500
vt 0.468750 0.031250
vt 0.437500 0.062500
vt 0.437500 0.031250
vt 0.937500 0.687500
vt 0.937500 0.656250
vt 0.968750 0.687500
vt 0.968750 0.656250
vt 0.937500 0.750000
vt 0.937500 0.718750
vt 0.968750 0.750000
vt 0.968750 0.718750
s 0
usemtl Material_0.003
f 145/136/13 147/137/13 146/138/13
f 147/137/13 148/139/13 146/138/13
f 149/138/14 151/139/14 150/140/14
f 151/139/14 152/141/14 150/140/14
f 153/142/15 155/143/15 154/144/15
f 155/143/15 156/140/15 154/144/15
f 157/145/16 159/146/16 158/147/16
f 159/146/16 160/148/16 158/147/16
f 161/149/17 163/150/17 162/151/17
f 163/150/17 164/152/17 162/151/17
f 165/153/18 167/154/18 166/155/18
f 167/154/18 168/156/18 166/155/18
f 169/148/13 171/157/13 170/153/13
f 171/157/13 172/154/13 170/153/13
f 173/158/14 175/159/14 174/160/14
f 175/159/14 176/161/14 174/160/14
f 177/162/15 179/163/15 178/164/15
f 179/163/15 180/165/15 178/164/15
f 181/166/16 183/167/16 182/160/16
f 183/167/16 184/168/16 182/160/16
f 185/169/17 187/170/17 186/171/17
f 187/170/17 188/172/17 186/171/17
f 189/173/18 191/174/18 190/175/18
f 191/174/18 192/176/18 190/175/18
f 193/168/13 195/177/13 194/167/13
f 195/177/13 196/178/13 194/167/13
f 197/179/14 199/180/14 198/181/14
f 199/180/14 200/182/14 198/181/14
f 201/183/15 203/184/15 202/185/15
f 203/184/15 204/186/15 202/185/15
f 205/187/16 207/188/16 206/189/16
f 207/188/16 208/190/16 206/189/16
f 209/191/17 211/192/17 210/193/17
f 211/192/17 212/194/17 210/193/17
f 213/195/18 215/196/18 214/197/18
f 215/196/18 216/198/18 214/197/18
o bulletModel_9
v -0.129172 -1.785324 0.272731
v -0.128462 -1.785030 0.272731
v -0.025096 -2.036586 0.000767
v -0.024386 -2.036292 0.000767
v -0.232538 -1.533768 0.000767
v -0.233249 -1.534062 0.000767
v -0.128462 -1.785030 -0.271197
v -0.129173 -1.785324 -0.271197
v -0.232538 -1.533768 0.000767
v -0.128462 -1.785030 0.272731
v -0.233249 -1.534062 0.000767
v -0.129172 -1.785324 0.272731
v -0.129173 -1.785324 -0.271197
v -0.025096 -2.036586 0.000767
v -0.128462 -1.785030 -0.271197
v -0.024386 -2.036292 0.000767
v -0.233249 -1.534062 0.000767
v -0.129172 -1.785324 0.272731
v -0.129173 -1.785324 -0.271197
v -0.025096 -2.036586 0.000767
v -0.128462 -1.785030 0.272731
v -0.232538 -1.533768 0.000767
v -0.024386 -2.036292 0.000767
v -0.128462 -1.785030 -0.271197
vn 0.2706 -0.6533 0.7071
vn -0.2706 0.6533 -0.7071
vn -0.2706 0.6533 0.7071
vn 0.2706 -0.6533 -0.7071
vn -0.9239 -0.3827 -0.0000
vn 0.9239 0.3827 -0.0000
vt 0.000000 1.000000
vt 0.000000 0.968750
vt 0.031250 1.000000
vt 0.875000 0.625000
vt 0.875000 0.593750
vt 0.906250 0.625000
vt 0.906250 0.593750
vt 0.375000 0.125000
vt 0.375000 0.093750
vt 0.406250 0.125000
vt 0.406250 0.093750
s 0
usemtl Material_0.003
f 217/199/19 219/200/19 218/199/19
f 219/200/19 220/200/19 218/199/19
f 221/199/20 223/200/20 222/199/20
f 223/200/20 224/200/20 222/199/20
f 225/201/21 227/201/21 226/199/21
f 227/201/21 228/199/21 226/199/21
f 229/201/22 231/201/22 230/199/22
f 231/201/22 232/199/22 230/199/22
f 233/202/23 235/203/23 234/204/23
f 235/203/23 236/205/23 234/204/23
f 237/206/24 239/207/24 238/208/24
f 239/207/24 240/209/24 238/208/24
o bulletModel_29
v 0.078980 -2.287848 0.272731
v 0.079690 -2.287554 0.272731
v 0.183056 -2.539110 0.000767
v 0.183767 -2.538816 0.000767
v -0.024386 -2.036292 0.000767
v -0.025096 -2.036586 0.000767
v 0.079690 -2.287554 -0.271197
v 0.078980 -2.287848 -0.271197
v -0.024386 -2.036292 0.000767
v 0.079690 -2.287554 0.272731
v -0.025096 -2.036586 0.000767
v 0.078980 -2.287848 0.272731
v 0.078980 -2.287848 -0.271197
v 0.183056 -2.539110 0.000767
v 0.079690 -2.287554 -0.271197
v 0.183767 -2.538816 0.000767
v -0.025096 -2.036586 0.000767
v 0.078980 -2.287848 0.272731
v 0.078980 -2.287848 -0.271197
v 0.183056 -2.539110 0.000767
v 0.079690 -2.287554 0.272731
v -0.024386 -2.036292 0.000767
v 0.183767 -2.538816 0.000767
v 0.079690 -2.287554 -0.271197
vn 0.2706 -0.6533 0.7071
vn -0.2706 0.6533 -0.7071
vn -0.2706 0.6533 0.7071
vn 0.2706 -0.6533 -0.7071
vn -0.9239 -0.3827 -0.0000
vn 0.9239 0.3827 -0.0000
vt 0.000000 1.000000
vt 0.000000 0.968750
vt 0.031250 1.000000
vt 0.875000 0.562500
vt 0.875000 0.531250
vt 0.906250 0.562500
vt 0.906250 0.531250
vt 0.437500 0.125000
vt 0.437500 0.093750
vt 0.468750 0.125000
vt 0.468750 0.093750
s 0
usemtl Material_0.003
f 241/210/25 243/211/25 242/210/25
f 243/211/25 244/211/25 242/210/25
f 245/210/26 247/211/26 246/210/26
f 247/211/26 248/211/26 246/210/26
f 249/212/27 251/212/27 250/210/27
f 251/212/27 252/210/27 250/210/27
f 253/212/28 255/212/28 254/210/28
f 255/212/28 256/210/28 254/210/28
f 257/213/29 259/214/29 258/215/29
f 259/214/29 260/216/29 258/215/29
f 261/217/30 263/218/30 262/219/30
f 263/218/30 264/220/30 262/219/30
o ammoModel
v 2.169997 -2.304837 1.360588
v 2.525335 -2.157651 1.360588
v 2.690377 -3.561147 0.000767
v 3.045716 -3.413961 0.000767
v 2.004954 -0.901340 0.000767
v 1.649615 -1.048526 0.000767
v 2.525334 -2.157651 -1.359054
v 2.169996 -2.304837 -1.359054
v 2.004954 -0.901340 0.000767
v 2.525335 -2.157651 1.360588
v 1.649615 -1.048526 0.000767
v 2.169997 -2.304837 1.360588
v 2.169996 -2.304837 -1.359054
v 2.690377 -3.561147 0.000767
v 2.525334 -2.157651 -1.359054
v 3.045716 -3.413961 0.000767
v 1.649615 -1.048526 0.000767
v 2.169997 -2.304837 1.360588
v 2.169996 -2.304837 -1.359054
v 2.690377 -3.561147 0.000767
v 2.525335 -2.157651 1.360588
v 2.004954 -0.901340 0.000767
v 3.045716 -3.413961 0.000767
v 2.525334 -2.157651 -1.359054
v -0.044555 -2.486204 1.224605
v 2.087475 -1.603088 1.224605
v 0.059521 -2.737466 0.952641
v 2.191551 -1.854350 0.952641
v 1.879322 -1.100564 0.680677
v -0.252707 -1.983680 0.680677
v 1.983399 -1.351826 0.408713
v -0.148631 -2.234942 0.408713
v 1.879322 -1.100564 0.680677
v 2.087475 -1.603088 1.224605
v -0.252707 -1.983680 0.680677
v -0.044555 -2.486204 1.224605
v -0.148631 -2.234942 0.408713
v 0.059521 -2.737466 0.952641
v 1.983399 -1.351826 0.408713
v 2.191551 -1.854350 0.952641
v -0.252707 -1.983680 0.680677
v -0.044555 -2.486204 1.224605
v -0.148631 -2.234942 0.408713
v 0.059521 -2.737466 0.952641
v 2.087475 -1.603088 1.224605
v 1.879322 -1.100564 0.680677
v 2.191551 -1.854350 0.952641
v 1.983399 -1.351826 0.408713
v -0.000000 -0.000000 0.384616
v 1.923077 -0.000000 0.384615
v -0.000000 -1.923077 0.384615
v 1.923077 -1.923077 0.384615
v 1.923077 -0.000000 -0.384615
v -0.000000 -0.000000 -0.384615
v 1.923076 -1.923077 -0.384616
v -0.000001 -1.923077 -0.384615
v 1.923077 -0.000000 -0.384615
v 1.923077 -0.000000 0.384615
v -0.000000 -0.000000 -0.384615
v -0.000000 -0.000000 0.384616
v -0.000001 -1.923077 -0.384615
v -0.000000 -1.923077 0.384615
v 1.923076 -1.923077 -0.384616
v 1.923077 -1.923077 0.384615
v -0.000000 -0.000000 -0.384615
v -0.000000 -0.000000 0.384616
v -0.000001 -1.923077 -0.384615
v -0.000000 -1.923077 0.384615
v 1.923077 -0.000000 0.384615
v 1.923077 -0.000000 -0.384615
v 1.923077 -1.923077 0.384615
v 1.923076 -1.923077 -0.384616
v -0.000000 0.769230 0.385385
v 1.923077 0.769230 0.385385
v -0.000000 -0.000000 0.385385
v 1.923077 -0.000000 0.385385
v 1.923077 0.769230 0.384615
v -0.000000 0.769230 0.384616
v 1.923077 -0.000000 0.384615
v -0.000000 -0.000000 0.384616
v 1.923077 0.769230 0.384615
v 1.923077 0.769230 0.385385
v -0.000000 0.769230 0.384616
v -0.000000 0.769230 0.385385
v -0.000000 -0.000000 0.384616
v -0.000000 -0.000000 0.385385
v 1.923077 -0.000000 0.384615
v 1.923077 -0.000000 0.385385
v -0.000000 0.769230 0.384616
v -0.000000 0.769230 0.385385
v -0.000000 -0.000000 0.384616
v -0.000000 -0.000000 0.385385
v 1.923077 0.769230 0.385385
v 1.923077 0.769230 0.384615
v 1.923077 -0.000000 0.385385
v 1.923077 -0.000000 0.384615
v -0.000000 0.769230 -0.383846
v 1.923077 0.769230 -0.383846
v -0.000000 -0.000000 -0.383846
v 1.923077 -0.000000 -0.383846
v 1.923077 0.769230 -0.384615
v -0.000000 0.769230 -0.384615
v 1.923077 -0.000000 -0.384615
v -0.000000 -0.000000 -0.384615
v 1.923077 0.769230 -0.384615
v 1.923077 0.769230 -0.383846
v -0.000000 0.769230 -0.384615
v -0.000000 0.769230 -0.383846
v -0.000000 -0.000000 -0.384615
v -0.000000 -0.000000 -0.383846
v 1.923077 -0.000000 -0.384615
v 1.923077 -0.000000 -0.383846
v -0.000000 0.769230 -0.384615
v -0.000000 0.769230 -0.383846
v -0.000000 -0.000000 -0.384615
v -0.000000 -0.000000 -0.383846
v 1.923077 0.769230 -0.383846
v 1.923077 0.769230 -0.384615
v 1.923077 -0.000000 -0.383846
v 1.923077 -0.000000 -0.384615
v 1.922307 0.384615 0.384615
v 1.923077 0.384615 0.384615
v 1.922307 -0.000000 0.384615
v 1.923077 -0.000000 0.384615
v 1.923077 0.384615 -0.384615
v 1.922307 0.384615 -0.384615
v 1.923077 -0.000000 -0.384615
v 1.922307 -0.000000 -0.384615
v 1.923077 0.384615 -0.384615
v 1.923077 0.384615 0.384615
v 1.922307 0.384615 -0.384615
v 1.922307 0.384615 0.384615
v 1.922307 -0.000000 -0.384615
v 1.922307 -0.000000 0.384615
v 1.923077 -0.000000 -0.384615
v 1.923077 -0.000000 0.384615
v 1.922307 0.384615 -0.384615
v 1.922307 0.384615 0.384615
v 1.922307 -0.000000 -0.384615
v 1.922307 -0.000000 0.384615
v 1.923077 0.384615 0.384615
v 1.923077 0.384615 -0.384615
v 1.923077 -0.000000 0.384615
v 1.923077 -0.000000 -0.384615
v 0.393304 -3.040766 1.632552
v 2.169996 -2.304837 1.632552
v 1.017761 -4.548339 0.000767
v 2.794453 -3.812409 0.000767
v 1.545539 -0.797264 0.000767
v -0.231153 -1.533194 0.000767
v 2.169996 -2.304837 -1.631018
v 0.393304 -3.040766 -1.631018
v 1.545539 -0.797264 0.000767
v 2.169996 -2.304837 1.632552
v -0.231153 -1.533194 0.000767
v 0.393304 -3.040766 1.632552
v 0.393304 -3.040766 -1.631018
v 1.017761 -4.548339 0.000767
v 2.169996 -2.304837 -1.631018
v 2.794453 -3.812409 0.000767
v -0.231153 -1.533194 0.000767
v 0.393304 -3.040766 1.632552
v 0.393304 -3.040766 -1.631018
v 1.017761 -4.548339 0.000767
v 2.169996 -2.304837 1.632552
v 1.545539 -0.797264 0.000767
v 2.794453 -3.812409 0.000767
v 2.169996 -2.304837 -1.631018
v 0.475826 -3.742515 1.224606
v 2.607856 -2.859399 1.224606
v 0.683978 -4.245039 0.680677
v 2.816008 -3.361923 0.680677
v 2.503779 -2.608137 0.952641
v 0.371750 -3.491252 0.952641
v 2.711931 -3.110661 0.408713
v 0.579902 -3.993777 0.408713
v 2.503779 -2.608137 0.952641
v 2.607856 -2.859399 1.224606
v 0.371750 -3.491252 0.952641
v 0.475826 -3.742515 1.224606
v 0.579902 -3.993777 0.408713
v 0.683978 -4.245039 0.680677
v 2.711931 -3.110661 0.408713
v 2.816008 -3.361923 0.680677
v 0.371750 -3.491252 0.952641
v 0.475826 -3.742515 1.224606
v 0.579902 -3.993777 0.408713
v 0.683978 -4.245039 0.680677
v 2.607856 -2.859399 1.224606
v 2.503779 -2.608137 0.952641
v 2.816008 -3.361923 0.680677
v 2.711931 -3.110661 0.408713
v -0.148631 -2.234942 -0.407179
v 1.983398 -1.351826 -0.407179
v 0.059521 -2.737466 -0.951108
v 2.191550 -1.854350 -0.951108
v 1.879322 -1.100564 -0.679143
v -0.252708 -1.983680 -0.679143
v 2.087474 -1.603088 -1.223072
v -0.044555 -2.486204 -1.223072
v 1.879322 -1.100564 -0.679143
v 1.983398 -1.351826 -0.407179
v -0.252708 -1.983680 -0.679143
v -0.148631 -2.234942 -0.407179
v -0.044555 -2.486204 -1.223072
v 0.059521 -2.737466 -0.951108
v 2.087474 -1.603088 -1.223072
v 2.191550 -1.854350 -0.951108
v -0.252708 -1.983680 -0.679143
v -0.148631 -2.234942 -0.407179
v -0.044555 -2.486204 -1.223072
v 0.059521 -2.737466 -0.951108
v 1.983398 -1.351826 -0.407179
v 1.879322 -1.100564 -0.679143
v 2.191550 -1.854350 -0.951108
v 2.087474 -1.603088 -1.223072
v 0.579902 -3.993777 -0.407180
v 2.711931 -3.110661 -0.407180
v 0.683978 -4.245039 -0.679144
v 2.816008 -3.361923 -0.679144
v 2.503779 -2.608137 -0.951108
v 0.371749 -3.491252 -0.951108
v 2.607855 -2.859399 -1.223072
v 0.475825 -3.742514 -1.223072
v 2.503779 -2.608137 -0.951108
v 2.711931 -3.110661 -0.407180
v 0.371749 -3.491252 -0.951108
v 0.579902 -3.993777 -0.407180
v 0.475825 -3.742514 -1.223072
v 0.683978 -4.245039 -0.679144
v 2.607855 -2.859399 -1.223072
v 2.816008 -3.361923 -0.679144
v 0.371749 -3.491252 -0.951108
v 0.579902 -3.993777 -0.407180
v 0.475825 -3.742514 -1.223072
v 0.683978 -4.245039 -0.679144
v 2.711931 -3.110661 -0.407180
v 2.503779 -2.608137 -0.951108
v 2.816008 -3.361923 -0.679144
v 2.607855 -2.859399 -1.223072
vn 0.2706 -0.6533 0.7071
vn -0.2706 0.6533 -0.7071
vn -0.2706 0.6533 0.7071
vn 0.2706 -0.6533 -0.7071
vn -0.9239 -0.3827 -0.0000
vn 0.9239 0.3827 -0.0000
vn -0.0000 -0.0000 1.0000
vn -0.0000 -0.0000 -1.0000
vn -0.0000 1.0000 -0.0000
vn -0.0000 -1.0000 -0.0000
vn -1.0000 -0.0000 -0.0000
vn 1.0000 -0.0000 -0.0000
vn -0.0000 1.0000 -0.0001
vn -0.0000 -1.0000 0.0001
vn -1.0000 0.0001 -0.0000
vn 1.0000 0.0004 0.0005
vn 1.0000 -0.0004 -0.0004
vn 0.0001 1.0000 -0.0001
vn -0.0000 -1.0000 -0.0001
vn 0.0001 0.0001 1.0000
vn -0.0000 0.0001 1.0000
vn -0.0000 -0.0001 -1.0000
vn -0.0000 1.0000 0.0001
vn -0.0001 -1.0000 0.0002
vn 0.0001 -1.0000 -0.0001
vt 0.750000 0.875000
vt 0.750000 0.718750
vt 0.781250 0.875000
vt 0.781250 0.718750
vt 0.187500 0.250000
vt 0.187500 0.093750
vt 0.218750 0.250000
vt 0.218750 0.093750
vt 0.406250 0.218750
vt 0.406250 0.250000
vt 0.250000 0.218750
vt 0.250000 0.250000
vt 0.906250 0.687500
vt 0.906250 0.656250
vt 0.750000 0.687500
vt 0.750000 0.656250
vt 0.000000 0.437500
vt 0.000000 0.281250
vt 0.156250 0.437500
vt 0.156250 0.281250
vt 0.375000 0.625000
vt 0.375000 0.468750
vt 0.531250 0.625000
vt 0.531250 0.468750
vt 0.687500 0.437500
vt 0.687500 0.406250
vt 0.875000 0.437500
vt 0.875000 0.406250
vt 0.000000 0.250000
vt 0.000000 0.218750
vt 0.187500 0.218750
vt 0.625000 0.625000
vt 0.625000 0.812500
vt 0.562500 0.625000
vt 0.562500 0.812500
vt 0.437500 0.437500
vt 0.437500 0.250000
vt 0.375000 0.437500
vt 0.375000 0.250000
vt 0.062500 0.187500
vt 0.062500 0.156250
vt 0.125000 0.187500
vt 0.125000 0.156250
vt 0.000000 0.187500
vt 0.000000 0.156250
vt 0.187500 0.625000
vt 0.187500 0.468750
vt 0.343750 0.625000
vt 0.343750 0.468750
vt 0.375000 0.812500
vt 0.375000 0.656250
vt 0.531250 0.812500
vt 0.531250 0.656250
vt 0.562500 0.218750
vt 0.562500 0.375000
vt 0.500000 0.218750
vt 0.500000 0.375000
vt 0.625000 0.375000
vt 0.625000 0.218750
vt 0.625000 0.468750
vt 0.687500 0.625000
vt 0.687500 0.468750
vt 0.625000 0.656250
vt 0.687500 0.812500
vt 0.687500 0.656250
vt 0.625000 0.312500
vt 0.781250 0.375000
vt 0.781250 0.312500
vt 0.187500 0.312500
vt 0.343750 0.312500
vt 0.343750 0.250000
vt 0.000000 0.843750
vt 0.000000 1.000000
vt 0.000000 0.937500
vt 0.500000 0.437500
vt 0.656250 0.437500
vt 0.656250 0.375000
vt 0.187500 0.375000
vt 0.343750 0.375000
vt 0.000000 0.968750
vt 0.062500 1.000000
vt 0.437500 0.218750
vt 0.500000 0.250000
vt 0.750000 0.625000
vt 0.750000 0.593750
vt 0.812500 0.625000
vt 0.812500 0.593750
vt 0.187500 1.000000
vt 0.187500 0.812500
vt 0.343750 1.000000
vt 0.343750 0.812500
vt 0.000000 0.468750
vt 0.000000 0.625000
vt 0.562500 1.000000
vt 0.562500 0.843750
vt 0.375000 1.000000
vt 0.375000 0.843750
vt 0.000000 0.812500
vt 0.562500 0.937500
vt 0.750000 1.000000
vt 0.750000 0.937500
vt 0.562500 0.875000
vt 0.718750 0.625000
vt 0.718750 0.812500
vt 0.718750 0.437500
vt 0.750000 0.500000
vt 0.750000 0.437500
vt 0.781250 0.500000
vt 0.781250 0.437500
vt 0.750000 0.562500
vt 0.781250 0.562500
vt 0.750000 0.812500
vt 0.187500 0.437500
vt 0.375000 0.375000
vt 0.656250 0.125000
vt 0.656250 0.312500
vt 0.625000 0.125000
vt 0.718750 0.312500
vt 0.718750 0.125000
vt 0.687500 0.312500
vt 0.687500 0.125000
vt 0.750000 0.250000
vt 0.750000 0.187500
vt 0.781250 0.250000
vt 0.781250 0.187500
vt 0.750000 0.312500
vt 0.750000 0.968750
vt 0.937500 1.000000
vt 0.937500 0.968750
vt 0.750000 0.906250
vt 0.937500 0.937500
vt 0.937500 0.906250
vt 0.625000 0.437500
vt 0.562500 0.437500
vt 0.812500 0.875000
vt 0.812500 0.843750
vt 0.875000 0.875000
vt 0.875000 0.843750
vt 0.187500 0.187500
vt 0.187500 0.156250
s 0
usemtl Material_0.003
f 265/221/31 267/222/31 266/223/31
f 267/222/31 268/224/31 266/223/31
f 269/225/32 271/226/32 270/227/32
f 271/226/32 272/228/32 270/227/32
f 273/229/33 275/230/33 274/231/33
f 275/230/33 276/232/33 274/231/33
f 277/233/34 279/234/34 278/235/34
f 279/234/34 280/236/34 278/235/34
f 281/237/35 283/238/35 282/239/35
f 283/238/35 284/240/35 282/239/35
f 285/241/36 287/242/36 286/243/36
f 287/242/36 288/244/36 286/243/36
f 289/245/31 291/246/31 290/247/31
f 291/246/31 292/248/31 290/247/31
f 293/249/32 295/250/32 294/225/32
f 295/250/32 296/251/32 294/225/32
f 297/252/33 299/253/33 298/254/33
f 299/253/33 300/255/33 298/254/33
f 301/256/34 303/257/34 302/258/34
f 303/257/34 304/259/34 302/258/34
f 305/260/35 307/261/35 306/262/35
f 307/261/35 308/263/35 306/262/35
f 309/264/36 311/265/36 310/260/36
f 311/265/36 312/261/36 310/260/36
f 313/266/37 315/267/37 314/268/37
f 315/267/37 316/269/37 314/268/37
f 317/270/38 319/271/38 318/272/38
f 319/271/38 320/273/38 318/272/38
f 321/274/39 323/275/39 322/276/39
f 323/275/39 324/277/39 322/276/39
f 325/278/40 327/279/40 326/275/40
f 327/279/40 328/274/40 326/275/40
f 329/252/41 331/280/41 330/281/41
f 331/280/41 332/282/41 330/281/41
f 333/253/42 335/283/42 334/284/42
f 335/283/42 336/285/42 334/284/42
f 337/278/37 339/286/37 338/287/37
f 339/286/37 340/288/37 338/287/37
f 341/289/38 343/225/38 342/290/38
f 343/225/38 344/291/38 342/290/38
f 345/292/43 347/293/43 346/292/43
f 347/293/43 348/293/43 346/292/43
f 349/293/40 351/292/40 350/293/40
f 351/292/44 352/292/44 350/293/44
f 353/293/41 355/294/41 354/293/41
f 355/294/45 356/294/45 354/293/45
f 357/293/46 359/294/46 358/293/46
f 359/294/47 360/294/47 358/293/47
f 361/295/37 363/277/37 362/296/37
f 363/277/37 364/297/37 362/296/37
f 365/298/38 367/289/38 366/299/38
f 367/289/38 368/290/38 366/299/38
f 369/292/39 371/293/39 370/292/39
f 371/293/48 372/293/48 370/292/48
f 373/293/40 375/292/40 374/293/40
f 375/292/49 376/292/49 374/293/49
f 377/293/41 379/294/41 378/293/41
f 379/294/41 380/294/41 378/293/41
f 381/293/42 383/294/42 382/293/42
f 383/294/42 384/294/42 382/293/42
f 385/293/50 387/300/50 386/293/50
f 387/300/51 388/300/51 386/293/51
f 389/293/52 391/300/52 390/293/52
f 391/300/52 392/300/52 390/293/52
f 393/301/43 395/301/43 394/293/43
f 395/301/53 396/293/53 394/293/53
f 397/301/54 399/301/54 398/293/54
f 399/301/55 400/293/55 398/293/55
f 401/257/41 403/302/41 402/303/41
f 403/302/41 404/276/41 402/303/41
f 405/304/42 407/305/42 406/306/42
f 407/305/42 408/307/42 406/306/42
f 409/308/31 411/309/31 410/310/31
f 411/309/31 412/311/31 410/310/31
f 413/309/32 415/266/32 414/311/32
f 415/266/32 416/268/32 414/311/32
f 417/267/33 419/266/33 418/312/33
f 419/266/33 420/313/33 418/312/33
f 421/314/34 423/315/34 422/316/34
f 423/315/34 424/317/34 422/316/34
f 425/318/35 427/313/35 426/309/35
f 427/313/35 428/266/35 426/309/35
f 429/293/36 431/318/36 430/308/36
f 431/318/36 432/309/36 430/308/36
f 433/314/31 435/319/31 434/320/31
f 435/319/31 436/321/31 434/320/31
f 437/319/32 439/322/32 438/321/32
f 439/322/32 440/221/32 438/321/32
f 441/323/33 443/324/33 442/281/33
f 443/324/33 444/284/33 442/281/33
f 445/323/34 447/325/34 446/281/34
f 447/325/34 448/245/34 446/281/34
f 449/326/35 451/327/35 450/328/35
f 451/327/35 452/329/35 450/328/35
f 453/330/36 455/326/36 454/331/36
f 455/326/36 456/328/36 454/331/36
f 457/322/31 459/255/31 458/221/31
f 459/255/31 460/332/31 458/221/31
f 461/333/32 463/298/32 462/258/32
f 463/298/32 464/334/32 462/258/32
f 465/335/33 467/336/33 466/337/33
f 467/336/33 468/286/33 466/337/33
f 469/338/34 471/339/34 470/340/34
f 471/339/34 472/341/34 470/340/34
f 473/342/35 475/343/35 474/344/35
f 475/343/35 476/345/35 474/344/35
f 477/346/36 479/342/36 478/288/36
f 479/342/36 480/344/36 478/288/36
f 481/320/31 483/347/31 482/348/31
f 483/347/31 484/349/31 482/348/31
f 485/321/32 487/350/32 486/351/32
f 487/350/32 488/352/32 486/351/32
f 489/353/33 491/252/33 490/354/33
f 491/252/33 492/254/33 490/354/33
f 493/295/34 495/303/34 494/256/34
f 495/303/34 496/257/34 494/256/34
f 497/355/35 499/356/35 498/357/35
f 499/356/35 500/358/35 498/357/35
f 501/262/36 503/263/36 502/359/36
f 503/263/36 504/360/36 502/359/36
