# Blender 5.0.1
# www.blender.org
mtllib lev.aa12mag8.mtl
o ammoModel
v 0.000000 -0.000000 0.576923
v 2.307692 -0.000000 0.576923
v 0.000000 -6.153846 0.576923
v 2.307692 -6.153846 0.576923
v 2.307692 -0.000000 -0.576923
v -0.000000 -0.000000 -0.576923
v 2.307692 -6.153846 -0.576923
v -0.000000 -6.153846 -0.576923
v 2.307692 -0.000000 -0.576923
v 2.307692 -0.000000 0.576923
v -0.000000 -0.000000 -0.576923
v 0.000000 -0.000000 0.576923
v -0.000000 -6.153846 -0.576923
v 0.000000 -6.153846 0.576923
v 2.307692 -6.153846 -0.576923
v 2.307692 -6.153846 0.576923
v -0.000000 -0.000000 -0.576923
v 0.000000 -0.000000 0.576923
v -0.000000 -6.153846 -0.576923
v 0.000000 -6.153846 0.576923
v 2.307692 -0.000000 0.576923
v 2.307692 -0.000000 -0.576923
v 2.307692 -6.153846 0.576923
v 2.307692 -6.153846 -0.576923
v 0.000000 0.384615 0.500769
v 2.307692 0.384615 0.500769
v 0.000000 -0.000000 0.500769
v 2.307692 -0.000000 0.500769
v 2.307692 0.384615 0.500000
v 0.000000 0.384615 0.500000
v 2.307692 -0.000000 0.500000
v 0.000000 -0.000000 0.500000
v 2.307692 0.384615 0.500000
v 2.307692 0.384615 0.500769
v 0.000000 0.384615 0.500000
v 0.000000 0.384615 0.500769
v 0.000000 -0.000000 0.500000
v 0.000000 -0.000000 0.500769
v 2.307692 -0.000000 0.500000
v 2.307692 -0.000000 0.500769
v 0.000000 0.384615 0.500000
v 0.000000 0.384615 0.500769
v 0.000000 -0.000000 0.500000
v 0.000000 -0.000000 0.500769
v 2.307692 0.384615 0.500769
v 2.307692 0.384615 0.500000
v 2.307692 -0.000000 0.500769
v 2.307692 -0.000000 0.500000
v -0.000769 0.384615 0.500000
v 0.000000 0.384615 0.500000
v -0.000769 -0.000000 0.500000
v 0.000000 -0.000000 0.500000
v 0.000000 0.384615 0.115385
v -0.000769 0.384615 0.115385
v 0.000000 -0.000000 0.115385
v -0.000769 -0.000000 0.115385
v 0.000000 0.384615 0.115385
v 0.000000 0.384615 0.500000
v -0.000769 0.384615 0.115385
v -0.000769 0.384615 0.500000
v -0.000769 -0.000000 0.115385
v -0.000769 -0.000000 0.500000
v 0.000000 -0.000000 0.115385
v 0.000000 -0.000000 0.500000
v -0.000769 0.384615 0.115385
v -0.000769 0.384615 0.500000
v -0.000769 -0.000000 0.115385
v -0.000769 -0.000000 0.500000
v 0.000000 0.384615 0.500000
v 0.000000 0.384615 0.115385
v 0.000000 -0.000000 0.500000
v 0.000000 -0.000000 0.115385
v -0.000769 0.384615 -0.115385
v 0.000000 0.384615 -0.115385
v -0.000769 -0.000000 -0.115385
v 0.000000 -0.000000 -0.115385
v -0.000000 0.384615 -0.500000
v -0.000769 0.384615 -0.500000
v -0.000000 -0.000000 -0.500000
v -0.000769 -0.000000 -0.500000
v -0.000000 0.384615 -0.500000
v 0.000000 0.384615 -0.115385
v -0.000769 0.384615 -0.500000
v -0.000769 0.384615 -0.115385
v -0.000769 -0.000000 -0.500000
v -0.000769 -0.000000 -0.115385
v -0.000000 -0.000000 -0.500000
v 0.000000 -0.000000 -0.115385
v -0.000769 0.384615 -0.500000
v -0.000769 0.384615 -0.115385
v -0.000769 -0.000000 -0.500000
v -0.000769 -0.000000 -0.115385
v 0.000000 0.384615 -0.115385
v -0.000000 0.384615 -0.500000
v 0.000000 -0.000000 -0.115385
v -0.000000 -0.000000 -0.500000
v -0.000000 0.384615 -0.499231
v 2.307692 0.384615 -0.499231
v -0.000000 -0.000000 -0.499231
v 2.307692 -0.000000 -0.499231
v 2.307692 0.384615 -0.500000
v -0.000000 0.384615 -0.500000
v 2.307692 -0.000000 -0.500000
v -0.000000 -0.000000 -0.500000
v 2.307692 0.384615 -0.500000
v 2.307692 0.384615 -0.499231
v -0.000000 0.384615 -0.500000
v -0.000000 0.384615 -0.499231
v -0.000000 -0.000000 -0.500000
v -0.000000 -0.000000 -0.499231
v 2.307692 -0.000000 -0.500000
v 2.307692 -0.000000 -0.499231
v -0.000000 0.384615 -0.500000
v -0.000000 0.384615 -0.499231
v -0.000000 -0.000000 -0.500000
v -0.000000 -0.000000 -0.499231
v 2.307692 0.384615 -0.499231
v 2.307692 0.384615 -0.500000
v 2.307692 -0.000000 -0.499231
v 2.307692 -0.000000 -0.500000
vn -0.0000 -0.0000 1.0000
vn -0.0000 -0.0000 -1.0000
vn -0.0000 1.0000 -0.0000
vn -0.0000 -1.0000 -0.0000
vn -1.0000 -0.0000 -0.0000
vn 1.0000 -0.0000 -0.0000
vt 0.375000 1.000000
vt 0.375000 0.500000
vt 0.187500 1.000000
vt 0.187500 0.500000
vt 0.593750 0.812500
vt 0.593750 1.000000
vt 0.500000 0.812500
vt 0.500000 1.000000
vt 0.218750 0.500000
vt 0.218750 0.312500
vt 0.125000 0.500000
vt 0.125000 0.312500
vt 0.000000 0.500000
vt 0.000000 0.000000
vt 0.093750 0.500000
vt 0.093750 0.000000
vt 0.468750 1.000000
vt 0.468750 0.500000
vt 0.500000 0.562500
vt 0.500000 0.531250
vt 0.687500 0.562500
vt 0.687500 0.531250
vt 0.500000 0.500000
vt 0.500000 0.468750
vt 0.687500 0.500000
vt 0.687500 0.468750
vt 0.000000 0.812500
vt 0.000000 1.000000
vt 0.000000 0.968750
vt 0.031250 1.000000
vt 0.562500 0.437500
vt 0.562500 0.406250
vt 0.593750 0.437500
vt 0.593750 0.406250
vt 0.500000 0.437500
vt 0.500000 0.406250
vt 0.531250 0.437500
vt 0.531250 0.406250
vt 0.625000 0.937500
vt 0.625000 0.906250
vt 0.656250 0.937500
vt 0.656250 0.906250
vt 0.625000 1.000000
vt 0.625000 0.968750
vt 0.656250 1.000000
vt 0.656250 0.968750
vt 0.250000 0.437500
vt 0.250000 0.406250
vt 0.437500 0.437500
vt 0.437500 0.406250
vt 0.562500 0.750000
vt 0.562500 0.718750
vt 0.750000 0.750000
vt 0.750000 0.718750
s 0
usemtl Material_0
f 1/1/1 3/2/1 2/3/1
f 3/2/1 4/4/1 2/3/1
f 5/3/2 7/4/2 6/1/2
f 7/4/2 8/2/2 6/1/2
f 9/5/3 11/6/3 10/7/3
f 11/6/3 12/8/3 10/7/3
f 13/9/4 15/10/4 14/11/4
f 15/10/4 16/12/4 14/11/4
f 17/13/5 19/14/5 18/15/5
f 19/14/5 20/16/5 18/15/5
f 21/1/6 23/2/6 22/17/6
f 23/2/6 24/18/6 22/17/6
f 25/19/1 27/20/1 26/21/1
f 27/20/1 28/22/1 26/21/1
f 29/23/2 31/24/2 30/25/2
f 31/24/2 32/26/2 30/25/2
f 33/27/3 35/28/3 34/27/3
f 35/28/3 36/28/3 34/27/3
f 37/28/4 39/27/4 38/28/4
f 39/27/4 40/27/4 38/28/4
f 41/28/5 43/29/5 42/28/5
f 43/29/5 44/29/5 42/28/5
f 45/28/6 47/29/6 46/28/6
f 47/29/6 48/29/6 46/28/6
f 49/28/1 51/29/1 50/28/1
f 51/29/1 52/29/1 50/28/1
f 53/28/2 55/29/2 54/28/2
f 55/29/2 56/29/2 54/28/2
f 57/30/3 59/30/3 58/28/3
f 59/30/3 60/28/3 58/28/3
f 61/30/4 63/30/4 62/28/4
f 63/30/4 64/28/4 62/28/4
f 65/31/5 67/32/5 66/33/5
f 67/32/5 68/34/5 66/33/5
f 69/35/6 71/36/6 70/37/6
f 71/36/6 72/38/6 70/37/6
f 73/28/1 75/29/1 74/28/1
f 75/29/1 76/29/1 74/28/1
f 77/28/2 79/29/2 78/28/2
f 79/29/2 80/29/2 78/28/2
f 81/30/3 83/30/3 82/28/3
f 83/30/3 84/28/3 82/28/3
f 85/30/4 87/30/4 86/28/4
f 87/30/4 88/28/4 86/28/4
f 89/39/5 91/40/5 90/41/5
f 91/40/5 92/42/5 90/41/5
f 93/43/6 95/44/6 94/45/6
f 95/44/6 96/46/6 94/45/6
f 97/47/1 99/48/1 98/49/1
f 99/48/1 100/50/1 98/49/1
f 101/51/2 103/52/2 102/53/2
f 103/52/2 104/54/2 102/53/2
f 105/27/3 107/28/3 106/27/3
f 107/28/3 108/28/3 106/27/3
f 109/28/4 111/27/4 110/28/4
f 111/27/4 112/27/4 110/28/4
f 113/28/5 115/29/5 114/28/5
f 115/29/5 116/29/5 114/28/5
f 117/28/6 119/29/6 118/28/6
f 119/29/6 120/29/6 118/28/6
o bulletModel_0
v 0.030769 0.238465 0.489531
v 2.261539 0.238465 0.489531
v 0.030769 -0.251070 -0.000005
v 2.261539 -0.251070 -0.000005
v 2.261539 0.728001 -0.000005
v 0.030769 0.728001 -0.000005
v 2.261539 0.238465 -0.489540
v 0.030769 0.238465 -0.489540
v 2.261539 0.728001 -0.000005
v 2.261539 0.238465 0.489531
v 0.030769 0.728001 -0.000005
v 0.030769 0.238465 0.489531
v 0.030769 0.238465 -0.489540
v 0.030769 -0.251070 -0.000005
v 2.261539 0.238465 -0.489540
v 2.261539 -0.251070 -0.000005
v 0.030769 0.728001 -0.000005
v 0.030769 0.238465 0.489531
v 0.030769 0.238465 -0.489540
v 0.030769 -0.251070 -0.000005
v 2.261539 0.238465 0.489531
v 2.261539 0.728001 -0.000005
v 2.261539 -0.251070 -0.000005
v 2.261539 0.238465 -0.489540
vn -0.0000 -0.7071 0.7071
vn -0.0000 0.7071 -0.7071
vn -0.0000 0.7071 0.7071
vn -0.0000 -0.7071 -0.7071
vn -1.0000 -0.0000 -0.0000
vn 1.0000 -0.0000 -0.0000
vt 0.500000 0.812500
vt 0.500000 0.750000
vt 0.687500 0.812500
vt 0.687500 0.750000
vt 0.250000 0.500000
vt 0.250000 0.437500
vt 0.437500 0.500000
vt 0.437500 0.437500
vt 0.562500 0.562500
vt 0.562500 0.750000
vt 0.500000 0.562500
vt 0.500000 0.500000
vt 0.500000 0.312500
vt 0.437500 0.312500
vt 0.562500 0.625000
vt 0.625000 0.625000
vt 0.625000 0.562500
vt 0.562500 0.687500
vt 0.625000 0.687500
s 0
usemtl Material_0
f 121/55/7 123/56/7 122/57/7
f 123/56/7 124/58/7 122/57/7
f 125/59/8 127/60/8 126/61/8
f 127/60/8 128/62/8 126/61/8
f 129/63/9 131/64/9 130/65/9
f 131/64/9 132/56/9 130/65/9
f 133/66/10 135/67/10 134/61/10
f 135/67/10 136/68/10 134/61/10
f 137/69/11 139/63/11 138/70/11
f 139/63/11 140/71/11 138/70/11
f 141/72/12 143/69/12 142/73/12
f 143/69/12 144/70/12 142/73/12
