# Blender 4.3.2
# www.blender.org
mtllib lev.kedrmag20.mtl
o ammoModel
v -0.000000 0.000000 -0.383846
v 1.153846 0.000000 -0.383846
v -0.000000 -3.461539 -0.383846
v 1.153846 -3.461539 -0.383846
v 1.153846 0.000000 -0.384616
v -0.000000 0.000000 -0.384615
v 1.153846 -3.461539 -0.384616
v -0.000000 -3.461539 -0.384615
v 1.153846 0.000000 -0.384616
v 1.153846 0.000000 -0.383846
v -0.000000 0.000000 -0.384615
v -0.000000 0.000000 -0.383846
v -0.000000 -3.461539 -0.384615
v -0.000000 -3.461539 -0.383846
v 1.153846 -3.461539 -0.384616
v 1.153846 -3.461539 -0.383846
v -0.000000 0.000000 -0.384615
v -0.000000 0.000000 -0.383846
v -0.000000 -3.461539 -0.384615
v -0.000000 -3.461539 -0.383846
v 1.153846 0.000000 -0.383846
v 1.153846 0.000000 -0.384616
v 1.153846 -3.461539 -0.383846
v 1.153846 -3.461539 -0.384616
v -0.000769 0.000000 0.384615
v 0.000000 0.000000 0.384615
v -0.000769 -3.461539 0.384615
v 0.000000 -3.461539 0.384615
v -0.000000 0.000000 -0.384615
v -0.000769 0.000000 -0.384615
v -0.000000 -3.461539 -0.384615
v -0.000769 -3.461539 -0.384615
v -0.000000 0.000000 -0.384615
v 0.000000 0.000000 0.384615
v -0.000769 0.000000 -0.384615
v -0.000769 0.000000 0.384615
v -0.000769 -3.461539 -0.384615
v -0.000769 -3.461539 0.384615
v -0.000000 -3.461539 -0.384615
v 0.000000 -3.461539 0.384615
v -0.000769 0.000000 -0.384615
v -0.000769 0.000000 0.384615
v -0.000769 -3.461539 -0.384615
v -0.000769 -3.461539 0.384615
v 0.000000 0.000000 0.384615
v -0.000000 0.000000 -0.384615
v 0.000000 -3.461539 0.384615
v -0.000000 -3.461539 -0.384615
v 1.153077 0.000000 0.384615
v 1.153846 0.000000 0.384615
v 1.153077 -3.461539 0.384615
v 1.153846 -3.461539 0.384615
v 1.153846 0.000000 -0.384616
v 1.153077 0.000000 -0.384616
v 1.153846 -3.461539 -0.384616
v 1.153077 -3.461539 -0.384616
v 1.153846 0.000000 -0.384616
v 1.153846 0.000000 0.384615
v 1.153077 0.000000 -0.384616
v 1.153077 0.000000 0.384615
v 1.153077 -3.461539 -0.384616
v 1.153077 -3.461539 0.384615
v 1.153846 -3.461539 -0.384616
v 1.153846 -3.461539 0.384615
v 1.153077 0.000000 -0.384616
v 1.153077 0.000000 0.384615
v 1.153077 -3.461539 -0.384616
v 1.153077 -3.461539 0.384615
v 1.153846 0.000000 0.384615
v 1.153846 0.000000 -0.384616
v 1.153846 -3.461539 0.384615
v 1.153846 -3.461539 -0.384616
v 0.000000 0.000000 0.385385
v 1.153846 0.000000 0.385384
v 0.000000 -3.461539 0.385385
v 1.153846 -3.461539 0.385384
v 1.153846 0.000000 0.384615
v 0.000000 0.000000 0.384615
v 1.153846 -3.461539 0.384615
v 0.000000 -3.461539 0.384615
v 1.153846 0.000000 0.384615
v 1.153846 0.000000 0.385384
v 0.000000 0.000000 0.384615
v 0.000000 0.000000 0.385385
v 0.000000 -3.461539 0.384615
v 0.000000 -3.461539 0.385385
v 1.153846 -3.461539 0.384615
v 1.153846 -3.461539 0.385384
v 0.000000 0.000000 0.384615
v 0.000000 0.000000 0.385385
v 0.000000 -3.461539 0.384615
v 0.000000 -3.461539 0.385385
v 1.153846 0.000000 0.385384
v 1.153846 0.000000 0.384615
v 1.153846 -3.461539 0.385384
v 1.153846 -3.461539 0.384615
v 0.000000 -3.460769 0.384615
v 1.153846 -3.460769 0.384615
v 0.000000 -3.461539 0.384615
v 1.153846 -3.461539 0.384615
v 1.153846 -3.460769 -0.384616
v -0.000000 -3.460769 -0.384615
v 1.153846 -3.461539 -0.384616
v -0.000000 -3.461539 -0.384615
v 1.153846 -3.460769 -0.384616
v 1.153846 -3.460769 0.384615
v -0.000000 -3.460769 -0.384615
v 0.000000 -3.460769 0.384615
v -0.000000 -3.461539 -0.384615
v 0.000000 -3.461539 0.384615
v 1.153846 -3.461539 -0.384616
v 1.153846 -3.461539 0.384615
v -0.000000 -3.460769 -0.384615
v 0.000000 -3.460769 0.384615
v -0.000000 -3.461539 -0.384615
v 0.000000 -3.461539 0.384615
v 1.153846 -3.460769 0.384615
v 1.153846 -3.460769 -0.384616
v 1.153846 -3.461539 0.384615
v 1.153846 -3.461539 -0.384616
vn -0.0000 -0.0000 1.0000
vn -0.0000 -0.0000 -1.0000
vn -0.0000 1.0000 -0.0000
vn -0.0000 -1.0000 -0.0000
vn -1.0000 -0.0000 -0.0000
vn 1.0000 -0.0000 -0.0000
vt 0.000000 1.000000
vt 0.000000 0.718750
vt 0.093750 1.000000
vt 0.093750 0.718750
vt 0.125000 1.000000
vt 0.125000 0.718750
vt 0.218750 1.000000
vt 0.218750 0.718750
vt 0.000000 0.906250
vt 0.062500 1.000000
vt 0.187500 0.687500
vt 0.187500 0.406250
vt 0.250000 0.687500
vt 0.250000 0.406250
vt 0.125000 0.687500
vt 0.125000 0.406250
vt 0.312500 0.687500
vt 0.312500 0.406250
vt 0.375000 0.687500
vt 0.375000 0.406250
vt 0.250000 1.000000
vt 0.250000 0.718750
vt 0.343750 1.000000
vt 0.343750 0.718750
vt 0.000000 0.687500
vt 0.000000 0.406250
vt 0.093750 0.687500
vt 0.093750 0.406250
vt 0.437500 0.906250
vt 0.437500 1.000000
vt 0.375000 0.906250
vt 0.375000 1.000000
vt 0.437500 0.875000
vt 0.437500 0.781250
vt 0.375000 0.875000
vt 0.375000 0.781250
s 0
usemtl Material_0.001
f 1/1/1 3/2/1 2/3/1
f 3/2/1 4/4/1 2/3/1
f 5/5/2 7/6/2 6/7/2
f 7/6/2 8/8/2 6/7/2
f 9/9/3 11/1/3 10/9/3
f 11/1/3 12/1/3 10/9/3
f 13/1/4 15/9/4 14/1/4
f 15/9/4 16/9/4 14/1/4
f 17/1/5 19/2/5 18/1/5
f 19/2/5 20/2/5 18/1/5
f 21/1/6 23/2/6 22/1/6
f 23/2/6 24/2/6 22/1/6
f 25/1/1 27/2/1 26/1/1
f 27/2/1 28/2/1 26/1/1
f 29/1/2 31/2/2 30/1/2
f 31/2/2 32/2/2 30/1/2
f 33/10/3 35/10/3 34/1/3
f 35/10/3 36/1/3 34/1/3
f 37/10/4 39/10/4 38/1/4
f 39/10/4 40/1/4 38/1/4
f 41/11/5 43/12/5 42/13/5
f 43/12/5 44/14/5 42/13/5
f 45/15/6 47/16/6 46/11/6
f 47/16/6 48/12/6 46/11/6
f 49/1/1 51/2/1 50/1/1
f 51/2/1 52/2/1 50/1/1
f 53/1/2 55/2/2 54/1/2
f 55/2/2 56/2/2 54/1/2
f 57/10/3 59/10/3 58/1/3
f 59/10/3 60/1/3 58/1/3
f 61/10/4 63/10/4 62/1/4
f 63/10/4 64/1/4 62/1/4
f 65/17/5 67/18/5 66/19/5
f 67/18/5 68/20/5 66/19/5
f 69/13/6 71/14/6 70/17/6
f 71/14/6 72/18/6 70/17/6
f 73/21/1 75/22/1 74/23/1
f 75/22/1 76/24/1 74/23/1
f 77/25/2 79/26/2 78/27/2
f 79/26/2 80/28/2 78/27/2
f 81/9/3 83/1/3 82/9/3
f 83/1/3 84/1/3 82/9/3
f 85/1/4 87/9/4 86/1/4
f 87/9/4 88/9/4 86/1/4
f 89/1/5 91/2/5 90/1/5
f 91/2/5 92/2/5 90/1/5
f 93/1/6 95/2/6 94/1/6
f 95/2/6 96/2/6 94/1/6
f 97/1/1 99/1/1 98/3/1
f 99/1/1 100/3/1 98/3/1
f 101/1/2 103/1/2 102/3/2
f 103/1/2 104/3/2 102/3/2
f 105/29/3 107/30/3 106/31/3
f 107/30/3 108/32/3 106/31/3
f 109/33/4 111/34/4 110/35/4
f 111/34/4 112/36/4 110/35/4
f 113/1/5 115/1/5 114/10/5
f 115/1/5 116/10/5 114/10/5
f 117/1/6 119/1/6 118/10/6
f 119/1/6 120/10/6 118/10/6
o bulletModel_0
v 0.769231 0.153846 0.115384
v 1.134615 0.153846 0.115384
v 0.769231 -0.269231 0.115384
v 1.134615 -0.269231 0.115384
v 1.134615 0.153846 -0.307693
v 0.769231 0.153846 -0.307692
v 1.134615 -0.269231 -0.307693
v 0.769231 -0.269231 -0.307692
v 1.134615 0.153846 -0.307693
v 1.134615 0.153846 0.115384
v 0.769231 0.153846 -0.307692
v 0.769231 0.153846 0.115384
v 0.769231 -0.269231 -0.307692
v 0.769231 -0.269231 0.115384
v 1.134615 -0.269231 -0.307693
v 1.134615 -0.269231 0.115384
v 0.769231 0.153846 -0.307692
v 0.769231 0.153846 0.115384
v 0.769231 -0.269231 -0.307692
v 0.769231 -0.269231 0.115384
v 1.134615 0.153846 0.115384
v 1.134615 0.153846 -0.307693
v 1.134615 -0.269231 0.115384
v 1.134615 -0.269231 -0.307693
v 0.019231 0.192308 0.153846
v 0.769231 0.192308 0.153846
v 0.019231 -0.307692 0.153846
v 0.769231 -0.307692 0.153846
v 0.769231 0.192308 -0.346154
v 0.019231 0.192308 -0.346154
v 0.769231 -0.307692 -0.346154
v 0.019231 -0.307692 -0.346154
v 0.769231 0.192308 -0.346154
v 0.769231 0.192308 0.153846
v 0.019231 0.192308 -0.346154
v 0.019231 0.192308 0.153846
v 0.019231 -0.307692 -0.346154
v 0.019231 -0.307692 0.153846
v 0.769231 -0.307692 -0.346154
v 0.769231 -0.307692 0.153846
v 0.019231 0.192308 -0.346154
v 0.019231 0.192308 0.153846
v 0.019231 -0.307692 -0.346154
v 0.019231 -0.307692 0.153846
v 0.769231 0.192308 0.153846
v 0.769231 0.192308 -0.346154
v 0.769231 -0.307692 0.153846
v 0.769231 -0.307692 -0.346154
v 0.019231 0.000000 0.346154
v 0.769231 0.000000 0.346154
v 0.019231 -0.500000 0.346154
v 0.769231 -0.500000 0.346154
v 0.769231 0.000000 -0.153846
v 0.019231 0.000000 -0.153846
v 0.769231 -0.500000 -0.153846
v 0.019231 -0.500000 -0.153846
v 0.769231 0.000000 -0.153846
v 0.769231 0.000000 0.346154
v 0.019231 0.000000 -0.153846
v 0.019231 0.000000 0.346154
v 0.019231 -0.500000 -0.153846
v 0.019231 -0.500000 0.346154
v 0.769231 -0.500000 -0.153846
v 0.769231 -0.500000 0.346154
v 0.019231 0.000000 -0.153846
v 0.019231 0.000000 0.346154
v 0.019231 -0.500000 -0.153846
v 0.019231 -0.500000 0.346154
v 0.769231 0.000000 0.346154
v 0.769231 0.000000 -0.153846
v 0.769231 -0.500000 0.346154
v 0.769231 -0.500000 -0.153846
v 0.769231 -0.038462 0.307692
v 1.134615 -0.038462 0.307692
v 0.769231 -0.461538 0.307692
v 1.134615 -0.461538 0.307692
v 1.134615 -0.038462 -0.115385
v 0.769231 -0.038462 -0.115385
v 1.134615 -0.461538 -0.115385
v 0.769231 -0.461538 -0.115385
v 1.134615 -0.038462 -0.115385
v 1.134615 -0.038462 0.307692
v 0.769231 -0.038462 -0.115385
v 0.769231 -0.038462 0.307692
v 0.769231 -0.461538 -0.115385
v 0.769231 -0.461538 0.307692
v 1.134615 -0.461538 -0.115385
v 1.134615 -0.461538 0.307692
v 0.769231 -0.038462 -0.115385
v 0.769231 -0.038462 0.307692
v 0.769231 -0.461538 -0.115385
v 0.769231 -0.461538 0.307692
v 1.134615 -0.038462 0.307692
v 1.134615 -0.038462 -0.115385
v 1.134615 -0.461538 0.307692
v 1.134615 -0.461538 -0.115385
vn -0.0000 -0.0000 1.0000
vn -0.0000 -0.0000 -1.0000
vn -0.0000 1.0000 -0.0000
vn -0.0000 -1.0000 -0.0000
vn -1.0000 -0.0000 -0.0000
vn 1.0000 -0.0000 -0.0000
vt 0.375000 0.562500
vt 0.375000 0.531250
vt 0.406250 0.562500
vt 0.406250 0.531250
vt 0.437500 0.562500
vt 0.437500 0.531250
vt 0.468750 0.562500
vt 0.468750 0.531250
vt 0.531250 0.968750
vt 0.531250 1.000000
vt 0.500000 0.968750
vt 0.500000 1.000000
vt 0.531250 0.937500
vt 0.531250 0.906250
vt 0.500000 0.937500
vt 0.500000 0.906250
vt 0.437500 0.625000
vt 0.437500 0.593750
vt 0.468750 0.625000
vt 0.468750 0.593750
vt 0.437500 0.687500
vt 0.437500 0.656250
vt 0.468750 0.687500
vt 0.468750 0.656250
vt 0.375000 0.750000
vt 0.375000 0.718750
vt 0.437500 0.750000
vt 0.437500 0.718750
vt 0.375000 0.687500
vt 0.375000 0.656250
vt 0.406250 0.625000
vt 0.375000 0.625000
vt 0.468750 1.000000
vt 0.468750 0.937500
vt 0.437500 1.000000
vt 0.437500 0.937500
vt 0.500000 0.812500
vt 0.500000 0.781250
vt 0.531250 0.812500
vt 0.531250 0.781250
vt 0.500000 0.875000
vt 0.500000 0.843750
vt 0.531250 0.875000
vt 0.531250 0.843750
vt 0.437500 0.906250
vt 0.437500 0.875000
vt 0.437500 0.843750
vt 0.468750 0.750000
vt 0.468750 0.812500
vt 0.437500 0.812500
vt 0.500000 0.687500
vt 0.500000 0.656250
vt 0.531250 0.687500
vt 0.531250 0.656250
vt 0.500000 0.750000
vt 0.500000 0.718750
vt 0.531250 0.750000
vt 0.531250 0.718750
vt 0.500000 0.625000
vt 0.500000 0.593750
vt 0.531250 0.625000
vt 0.531250 0.593750
vt 0.500000 0.562500
vt 0.500000 0.531250
vt 0.531250 0.562500
vt 0.531250 0.531250
vt 0.531250 0.468750
vt 0.531250 0.500000
vt 0.500000 0.468750
vt 0.500000 0.500000
vt 0.593750 1.000000
vt 0.593750 0.968750
vt 0.562500 1.000000
vt 0.562500 0.968750
vt 0.437500 0.500000
vt 0.437500 0.468750
vt 0.468750 0.500000
vt 0.468750 0.468750
vt 0.375000 0.500000
vt 0.375000 0.468750
vt 0.406250 0.500000
vt 0.406250 0.468750
s 0
usemtl Material_0.001
f 121/37/7 123/38/7 122/39/7
f 123/38/7 124/40/7 122/39/7
f 125/41/8 127/42/8 126/43/8
f 127/42/8 128/44/8 126/43/8
f 129/45/9 131/46/9 130/47/9
f 131/46/9 132/48/9 130/47/9
f 133/49/10 135/50/10 134/51/10
f 135/50/10 136/52/10 134/51/10
f 137/53/11 139/54/11 138/55/11
f 139/54/11 140/56/11 138/55/11
f 141/57/12 143/58/12 142/59/12
f 143/58/12 144/60/12 142/59/12
f 145/61/7 147/62/7 146/63/7
f 147/62/7 148/64/7 146/63/7
f 149/65/8 151/66/8 150/57/8
f 151/66/8 152/58/8 150/57/8
f 153/39/9 155/67/9 154/37/9
f 155/67/9 156/68/9 154/37/9
f 157/69/10 159/70/10 158/71/10
f 159/70/10 160/72/10 158/71/10
f 161/73/11 163/74/11 162/75/11
f 163/74/11 164/76/11 162/75/11
f 165/77/12 167/78/12 166/79/12
f 167/78/12 168/80/12 166/79/12
f 169/72/7 171/81/7 170/51/7
f 171/81/7 172/52/7 170/51/7
f 173/82/8 175/83/8 174/77/8
f 175/83/8 176/78/8 174/77/8
f 177/84/9 179/85/9 178/63/9
f 179/85/9 180/86/9 178/63/9
f 181/84/10 183/59/10 182/63/10
f 183/59/10 184/57/10 182/63/10
f 185/87/11 187/88/11 186/89/11
f 187/88/11 188/90/11 186/89/11
f 189/91/12 191/92/12 190/93/12
f 191/92/12 192/94/12 190/93/12
f 193/95/7 195/96/7 194/97/7
f 195/96/7 196/98/7 194/97/7
f 197/99/8 199/100/8 198/101/8
f 199/100/8 200/102/8 198/101/8
f 201/103/9 203/104/9 202/105/9
f 203/104/9 204/106/9 202/105/9
f 205/107/10 207/108/10 206/109/10
f 207/108/10 208/110/10 206/109/10
f 209/111/11 211/112/11 210/113/11
f 211/112/11 212/114/11 210/113/11
f 213/115/12 215/116/12 214/117/12
f 215/116/12 216/118/12 214/117/12
