# Blender 4.4.3
# www.blender.org
mtllib lev.mp5mag15.mtl
o bulletModel_0
v 0.013869 0.631646 0.346154
v 0.763869 0.631646 0.346154
v 0.013869 0.131646 0.346154
v 0.763869 0.131646 0.346154
v 0.763869 0.631646 -0.153846
v 0.013869 0.631646 -0.153846
v 0.763869 0.131646 -0.153846
v 0.013869 0.131646 -0.153846
v 0.763869 0.631646 -0.153846
v 0.763869 0.631646 0.346154
v 0.013869 0.631646 -0.153846
v 0.013869 0.631646 0.346154
v 0.013869 0.131646 -0.153846
v 0.013869 0.131646 0.346154
v 0.763869 0.131646 -0.153846
v 0.763869 0.131646 0.346154
v 0.013869 0.631646 -0.153846
v 0.013869 0.631646 0.346154
v 0.013869 0.131646 -0.153846
v 0.013869 0.131646 0.346154
v 0.763869 0.631646 0.346154
v 0.763869 0.631646 -0.153846
v 0.763869 0.131646 0.346154
v 0.763869 0.131646 -0.153846
v 0.763869 0.593185 0.307692
v 1.148485 0.593185 0.307692
v 0.763869 0.170108 0.307692
v 1.148485 0.170108 0.307692
v 1.148484 0.593185 -0.115385
v 0.763869 0.593185 -0.115385
v 1.148484 0.170108 -0.115385
v 0.763869 0.170108 -0.115385
v 1.148484 0.593185 -0.115385
v 1.148485 0.593185 0.307692
v 0.763869 0.593185 -0.115385
v 0.763869 0.593185 0.307692
v 0.763869 0.170108 -0.115385
v 0.763869 0.170108 0.307692
v 1.148484 0.170108 -0.115385
v 1.148485 0.170108 0.307692
v 0.763869 0.593185 -0.115385
v 0.763869 0.593185 0.307692
v 0.763869 0.170108 -0.115385
v 0.763869 0.170108 0.307692
v 1.148485 0.593185 0.307692
v 1.148484 0.593185 -0.115385
v 1.148485 0.170108 0.307692
v 1.148484 0.170108 -0.115385
vn -0.0000 -0.0000 1.0000
vn -0.0000 -0.0000 -1.0000
vn -0.0000 1.0000 -0.0000
vn -0.0000 -1.0000 -0.0000
vn -1.0000 -0.0000 -0.0000
vn 1.0000 -0.0000 -0.0000
vt 0.125000 0.562500
vt 0.125000 0.531250
vt 0.187500 0.562500
vt 0.187500 0.531250
vt 0.250000 0.562500
vt 0.250000 0.531250
vt 0.468750 0.750000
vt 0.468750 0.812500
vt 0.437500 0.750000
vt 0.437500 0.812500
vt 0.281250 0.562500
vt 0.281250 0.500000
vt 0.250000 0.500000
vt 0.500000 0.875000
vt 0.500000 0.843750
vt 0.531250 0.875000
vt 0.531250 0.843750
vt 0.125000 0.500000
vt 0.125000 0.468750
vt 0.156250 0.500000
vt 0.156250 0.468750
vt 0.437500 0.562500
vt 0.437500 0.531250
vt 0.468750 0.562500
vt 0.468750 0.531250
vt 0.500000 1.000000
vt 0.500000 0.968750
vt 0.531250 1.000000
vt 0.531250 0.968750
vt 0.093750 0.468750
vt 0.093750 0.500000
vt 0.062500 0.468750
vt 0.062500 0.500000
vt 0.531250 0.937500
vt 0.531250 0.906250
vt 0.500000 0.937500
vt 0.500000 0.906250
vt 0.000000 0.500000
vt 0.000000 0.468750
vt 0.031250 0.500000
vt 0.031250 0.468750
vt 0.437500 0.625000
vt 0.437500 0.593750
vt 0.468750 0.625000
vt 0.468750 0.593750
s 0
usemtl Material_0
f 1/1/1 3/2/1 2/3/1
f 3/2/1 4/4/1 2/3/1
f 5/3/2 7/4/2 6/5/2
f 7/4/2 8/6/2 6/5/2
f 9/7/3 11/8/3 10/9/3
f 11/8/3 12/10/3 10/9/3
f 13/11/4 15/12/4 14/5/4
f 15/12/4 16/13/4 14/5/4
f 17/14/5 19/15/5 18/16/5
f 19/15/5 20/17/5 18/16/5
f 21/18/6 23/19/6 22/20/6
f 23/19/6 24/21/6 22/20/6
f 25/22/1 27/23/1 26/24/1
f 27/23/1 28/25/1 26/24/1
f 29/26/2 31/27/2 30/28/2
f 31/27/2 32/29/2 30/28/2
f 33/30/3 35/31/3 34/32/3
f 35/31/3 36/33/3 34/32/3
f 37/34/4 39/35/4 38/36/4
f 39/35/4 40/37/4 38/36/4
f 41/38/5 43/39/5 42/40/5
f 43/39/5 44/41/5 42/40/5
f 45/42/6 47/43/6 46/44/6
f 47/43/6 48/45/6 46/44/6
o bulletModel_1
v 0.763869 0.400877 0.115384
v 1.148484 0.400877 0.115384
v 0.763869 -0.022200 0.115384
v 1.148484 -0.022200 0.115384
v 1.148484 0.400877 -0.307693
v 0.763869 0.400877 -0.307692
v 1.148484 -0.022200 -0.307693
v 0.763869 -0.022200 -0.307692
v 1.148484 0.400877 -0.307693
v 1.148484 0.400877 0.115384
v 0.763869 0.400877 -0.307692
v 0.763869 0.400877 0.115384
v 0.763869 -0.022200 -0.307692
v 0.763869 -0.022200 0.115384
v 1.148484 -0.022200 -0.307693
v 1.148484 -0.022200 0.115384
v 0.763869 0.400877 -0.307692
v 0.763869 0.400877 0.115384
v 0.763869 -0.022200 -0.307692
v 0.763869 -0.022200 0.115384
v 1.148484 0.400877 0.115384
v 1.148484 0.400877 -0.307693
v 1.148484 -0.022200 0.115384
v 1.148484 -0.022200 -0.307693
v 0.013869 0.439338 0.153846
v 0.763869 0.439338 0.153846
v 0.013869 -0.060662 0.153846
v 0.763869 -0.060662 0.153846
v 0.763869 0.439338 -0.346154
v 0.013869 0.439338 -0.346154
v 0.763869 -0.060662 -0.346154
v 0.013869 -0.060662 -0.346154
v 0.763869 0.439338 -0.346154
v 0.763869 0.439338 0.153846
v 0.013869 0.439338 -0.346154
v 0.013869 0.439338 0.153846
v 0.013869 -0.060662 -0.346154
v 0.013869 -0.060662 0.153846
v 0.763869 -0.060662 -0.346154
v 0.763869 -0.060662 0.153846
v 0.013869 0.439338 -0.346154
v 0.013869 0.439338 0.153846
v 0.013869 -0.060662 -0.346154
v 0.013869 -0.060662 0.153846
v 0.763869 0.439338 0.153846
v 0.763869 0.439338 -0.346154
v 0.763869 -0.060662 0.153846
v 0.763869 -0.060662 -0.346154
vn -0.0000 -0.0000 1.0000
vn -0.0000 -0.0000 -1.0000
vn -0.0000 1.0000 -0.0000
vn -0.0000 -1.0000 -0.0000
vn -1.0000 -0.0000 -0.0000
vn 1.0000 -0.0000 -0.0000
vt 0.500000 0.750000
vt 0.500000 0.718750
vt 0.531250 0.750000
vt 0.531250 0.718750
vt 0.500000 0.687500
vt 0.500000 0.656250
vt 0.531250 0.687500
vt 0.531250 0.656250
vt 0.406250 0.468750
vt 0.406250 0.500000
vt 0.375000 0.468750
vt 0.375000 0.500000
vt 0.531250 0.625000
vt 0.531250 0.593750
vt 0.500000 0.625000
vt 0.500000 0.593750
vt 0.312500 0.500000
vt 0.312500 0.468750
vt 0.343750 0.500000
vt 0.343750 0.468750
vt 0.250000 0.500000
vt 0.250000 0.468750
vt 0.281250 0.500000
vt 0.281250 0.468750
vt 0.437500 0.750000
vt 0.437500 0.718750
vt 0.312500 0.562500
vt 0.312500 0.531250
vt 0.375000 0.562500
vt 0.375000 0.531250
vt 0.468750 0.625000
vt 0.468750 0.687500
vt 0.437500 0.625000
vt 0.437500 0.687500
vt 0.406250 0.562500
vt 0.500000 0.812500
vt 0.500000 0.781250
vt 0.531250 0.812500
vt 0.531250 0.781250
vt 0.187500 0.500000
vt 0.187500 0.468750
vt 0.218750 0.500000
vt 0.218750 0.468750
s 0
usemtl Material_0
f 49/46/7 51/47/7 50/48/7
f 51/47/7 52/49/7 50/48/7
f 53/50/8 55/51/8 54/52/8
f 55/51/8 56/53/8 54/52/8
f 57/54/9 59/55/9 58/56/9
f 59/55/9 60/57/9 58/56/9
f 61/58/10 63/59/10 62/60/10
f 63/59/10 64/61/10 62/60/10
f 65/62/11 67/63/11 66/64/11
f 67/63/11 68/65/11 66/64/11
f 69/66/12 71/67/12 70/68/12
f 71/67/12 72/69/12 70/68/12
f 73/70/7 75/71/7 74/46/7
f 75/71/7 76/47/7 74/46/7
f 77/72/8 79/73/8 78/74/8
f 79/73/8 80/75/8 78/74/8
f 81/76/9 83/77/9 82/78/9
f 83/77/9 84/79/9 82/78/9
f 85/80/10 87/55/10 86/74/10
f 87/55/10 88/57/10 86/74/10
f 89/81/11 91/82/11 90/83/11
f 91/82/11 92/84/11 90/83/11
f 93/85/12 95/86/12 94/87/12
f 95/86/12 96/88/12 94/87/12
o ammoModel
v 0.000000 0.769231 0.385385
v 0.769231 0.769231 0.385384
v 0.000000 0.384615 0.385385
v 0.769231 0.384615 0.385384
v 0.769231 0.769231 0.384615
v 0.000000 0.769231 0.384615
v 0.769231 0.384615 0.384615
v 0.000000 0.384615 0.384615
v 0.769231 0.769231 0.384615
v 0.769231 0.769231 0.385384
v 0.000000 0.769231 0.384615
v 0.000000 0.769231 0.385385
v 0.000000 0.384615 0.384615
v 0.000000 0.384615 0.385385
v 0.769231 0.384615 0.384615
v 0.769231 0.384615 0.385384
v 0.000000 0.769231 0.384615
v 0.000000 0.769231 0.385385
v 0.000000 0.384615 0.384615
v 0.000000 0.384615 0.385385
v 0.769231 0.769231 0.385384
v 0.769231 0.769231 0.384615
v 0.769231 0.384615 0.385384
v 0.769231 0.384615 0.384615
v -0.000000 0.384615 -0.383846
v 1.153846 0.384615 -0.383846
v -0.000000 -0.000000 -0.383846
v 1.153846 -0.000000 -0.383846
v 1.153846 0.384615 -0.384616
v -0.000000 0.384615 -0.384615
v 1.153846 -0.000000 -0.384616
v -0.000000 -0.000000 -0.384615
v 1.153846 0.384615 -0.384616
v 1.153846 0.384615 -0.383846
v -0.000000 0.384615 -0.384615
v -0.000000 0.384615 -0.383846
v -0.000000 -0.000000 -0.384615
v -0.000000 -0.000000 -0.383846
v 1.153846 -0.000000 -0.384616
v 1.153846 -0.000000 -0.383846
v -0.000000 0.384615 -0.384615
v -0.000000 0.384615 -0.383846
v -0.000000 -0.000000 -0.384615
v -0.000000 -0.000000 -0.383846
v 1.153846 0.384615 -0.383846
v 1.153846 0.384615 -0.384616
v 1.153846 -0.000000 -0.383846
v 1.153846 -0.000000 -0.384616
v -0.000769 0.384615 0.384615
v 0.000000 0.384615 0.384615
v -0.000769 -0.000000 0.384615
v 0.000000 -0.000000 0.384615
v -0.000000 0.384615 -0.384615
v -0.000769 0.384615 -0.384615
v -0.000000 -0.000000 -0.384615
v -0.000769 -0.000000 -0.384615
v -0.000000 0.384615 -0.384615
v 0.000000 0.384615 0.384615
v -0.000769 0.384615 -0.384615
v -0.000769 0.384615 0.384615
v -0.000769 -0.000000 -0.384615
v -0.000769 -0.000000 0.384615
v -0.000000 -0.000000 -0.384615
v 0.000000 -0.000000 0.384615
v -0.000769 0.384615 -0.384615
v -0.000769 0.384615 0.384615
v -0.000769 -0.000000 -0.384615
v -0.000769 -0.000000 0.384615
v 0.000000 0.384615 0.384615
v -0.000000 0.384615 -0.384615
v 0.000000 -0.000000 0.384615
v -0.000000 -0.000000 -0.384615
v -0.000000 0.769231 -0.383846
v 0.769231 0.769231 -0.383846
v -0.000000 0.384615 -0.383846
v 0.769231 0.384615 -0.383846
v 0.769231 0.769231 -0.384616
v -0.000000 0.769231 -0.384615
v 0.769231 0.384615 -0.384616
v -0.000000 0.384615 -0.384615
v 0.769231 0.769231 -0.384616
v 0.769231 0.769231 -0.383846
v -0.000000 0.769231 -0.384615
v -0.000000 0.769231 -0.383846
v -0.000000 0.384615 -0.384615
v -0.000000 0.384615 -0.383846
v 0.769231 0.384615 -0.384616
v 0.769231 0.384615 -0.383846
v -0.000000 0.769231 -0.384615
v -0.000000 0.769231 -0.383846
v -0.000000 0.384615 -0.384615
v -0.000000 0.384615 -0.383846
v 0.769231 0.769231 -0.383846
v 0.769231 0.769231 -0.384616
v 0.769231 0.384615 -0.383846
v 0.769231 0.384615 -0.384616
v 0.000000 0.000000 0.385385
v 1.153846 0.000000 0.385384
v 0.000000 -1.153846 0.385385
v 1.153846 -1.153846 0.385384
v 1.153846 0.000000 -0.383846
v -0.000000 0.000000 -0.383846
v 1.153846 -1.153846 -0.383846
v -0.000000 -1.153846 -0.383846
v 1.153846 0.000000 -0.383846
v 1.153846 0.000000 0.385384
v -0.000000 0.000000 -0.383846
v 0.000000 0.000000 0.385385
v -0.000000 -1.153846 -0.383846
v 0.000000 -1.153846 0.385385
v 1.153846 -1.153846 -0.383846
v 1.153846 -1.153846 0.385384
v -0.000000 0.000000 -0.383846
v 0.000000 0.000000 0.385385
v -0.000000 -1.153846 -0.383846
v 0.000000 -1.153846 0.385385
v 1.153846 0.000000 0.385384
v 1.153846 0.000000 -0.383846
v 1.153846 -1.153846 0.385384
v 1.153846 -1.153846 -0.383846
v 0.000000 0.384615 0.385385
v 1.153846 0.384615 0.385384
v 0.000000 -0.000000 0.385385
v 1.153846 -0.000000 0.385384
v 1.153846 0.384615 0.384615
v 0.000000 0.384615 0.384615
v 1.153846 -0.000000 0.384615
v 0.000000 -0.000000 0.384615
v 1.153846 0.384615 0.384615
v 1.153846 0.384615 0.385384
v 0.000000 0.384615 0.384615
v 0.000000 0.384615 0.385385
v 0.000000 -0.000000 0.384615
v 0.000000 -0.000000 0.385385
v 1.153846 -0.000000 0.384615
v 1.153846 -0.000000 0.385384
v 0.000000 0.384615 0.384615
v 0.000000 0.384615 0.385385
v 0.000000 -0.000000 0.384615
v 0.000000 -0.000000 0.385385
v 1.153846 0.384615 0.385384
v 1.153846 0.384615 0.384615
v 1.153846 -0.000000 0.385384
v 1.153846 -0.000000 0.384615
v -0.000002 -1.153848 0.376923
v 1.066013 -0.712290 0.376923
v 0.883114 -3.285877 0.376923
v 1.949129 -2.844320 0.376923
v 1.066013 -0.712290 -0.376923
v -0.000002 -1.153848 -0.376923
v 1.949129 -2.844320 -0.376923
v 0.883114 -3.285877 -0.376923
v 1.066013 -0.712290 -0.376923
v 1.066013 -0.712290 0.376923
v -0.000002 -1.153848 -0.376923
v -0.000002 -1.153848 0.376923
v 0.883114 -3.285877 -0.376923
v 0.883114 -3.285877 0.376923
v 1.949129 -2.844320 -0.376923
v 1.949129 -2.844320 0.376923
v -0.000002 -1.153848 -0.376923
v -0.000002 -1.153848 0.376923
v 0.883114 -3.285877 -0.376923
v 0.883114 -3.285877 0.376923
v 1.066013 -0.712290 0.376923
v 1.066013 -0.712290 -0.376923
v 1.949129 -2.844320 0.376923
v 1.949129 -2.844320 -0.376923
v 1.153077 0.384615 0.384615
v 1.153846 0.384615 0.384615
v 1.153077 -0.000000 0.384615
v 1.153846 -0.000000 0.384615
v 1.153846 0.384615 -0.384616
v 1.153077 0.384615 -0.384616
v 1.153846 -0.000000 -0.384616
v 1.153077 -0.000000 -0.384616
v 1.153846 0.384615 -0.384616
v 1.153846 0.384615 0.384615
v 1.153077 0.384615 -0.384616
v 1.153077 0.384615 0.384615
v 1.153077 -0.000000 -0.384616
v 1.153077 -0.000000 0.384615
v 1.153846 -0.000000 -0.384616
v 1.153846 -0.000000 0.384615
v 1.153077 0.384615 -0.384616
v 1.153077 0.384615 0.384615
v 1.153077 -0.000000 -0.384616
v 1.153077 -0.000000 0.384615
v 1.153846 0.384615 0.384615
v 1.153846 0.384615 -0.384616
v 1.153846 -0.000000 0.384615
v 1.153846 -0.000000 -0.384616
vn -0.0000 -0.0000 1.0000
vn -0.0000 -0.0000 -1.0000
vn -0.0000 1.0000 -0.0000
vn -0.0000 -1.0000 -0.0000
vn -1.0000 -0.0000 -0.0000
vn 1.0000 -0.0000 -0.0000
vn -0.3827 0.9239 -0.0000
vn 0.3827 -0.9239 -0.0000
vn -0.9239 -0.3827 -0.0000
vn 0.9239 0.3827 -0.0000
vt 0.375000 0.812500
vt 0.375000 0.781250
vt 0.437500 0.812500
vt 0.437500 0.781250
vt 0.250000 0.625000
vt 0.250000 0.593750
vt 0.312500 0.625000
vt 0.312500 0.593750
vt 0.000000 0.937500
vt 0.000000 1.000000
vt 0.000000 0.968750
vt 0.000000 0.625000
vt 0.000000 0.593750
vt 0.093750 0.625000
vt 0.093750 0.593750
vt 0.375000 1.000000
vt 0.375000 0.968750
vt 0.468750 1.000000
vt 0.468750 0.968750
vt 0.000000 0.906250
vt 0.062500 1.000000
vt 0.375000 0.625000
vt 0.375000 0.593750
vt 0.375000 0.750000
vt 0.375000 0.718750
vt 0.437500 0.750000
vt 0.437500 0.718750
vt 0.375000 0.687500
vt 0.375000 0.656250
vt 0.437500 0.687500
vt 0.437500 0.656250
vt 0.437500 0.625000
vt 0.437500 0.593750
vt 0.125000 0.812500
vt 0.125000 0.718750
vt 0.218750 0.812500
vt 0.218750 0.718750
vt 0.250000 1.000000
vt 0.250000 0.906250
vt 0.343750 1.000000
vt 0.343750 0.906250
vt 0.187500 0.593750
vt 0.187500 0.687500
vt 0.125000 0.593750
vt 0.125000 0.687500
vt 0.375000 0.875000
vt 0.312500 0.875000
vt 0.312500 0.781250
vt 0.250000 0.750000
vt 0.250000 0.656250
vt 0.312500 0.750000
vt 0.312500 0.656250
vt 0.250000 0.875000
vt 0.250000 0.781250
vt 0.375000 0.937500
vt 0.375000 0.906250
vt 0.468750 0.937500
vt 0.468750 0.906250
vt 0.375000 0.843750
vt 0.468750 0.875000
vt 0.468750 0.843750
vt 0.000000 0.812500
vt 0.093750 1.000000
vt 0.093750 0.812500
vt 0.125000 1.000000
vt 0.218750 1.000000
vt 0.250000 0.687500
vt 0.062500 0.812500
vt 0.062500 0.625000
vt 0.125000 0.625000
vt 0.062500 0.562500
vt 0.062500 0.531250
vt 0.125000 0.562500
vt 0.125000 0.531250
vt 0.000000 0.562500
vt 0.000000 0.531250
s 0
usemtl Material_0
f 97/89/13 99/90/13 98/91/13
f 99/90/13 100/92/13 98/91/13
f 101/93/14 103/94/14 102/95/14
f 103/94/14 104/96/14 102/95/14
f 105/97/15 107/98/15 106/97/15
f 107/98/15 108/98/15 106/97/15
f 109/98/16 111/97/16 110/98/16
f 111/97/16 112/97/16 110/98/16
f 113/98/17 115/99/17 114/98/17
f 115/99/17 116/99/17 114/98/17
f 117/98/18 119/99/18 118/98/18
f 119/99/18 120/99/18 118/98/18
f 121/100/13 123/101/13 122/102/13
f 123/101/13 124/103/13 122/102/13
f 125/104/14 127/105/14 126/106/14
f 127/105/14 128/107/14 126/106/14
f 129/108/15 131/98/15 130/108/15
f 131/98/15 132/98/15 130/108/15
f 133/98/16 135/108/16 134/98/16
f 135/108/16 136/108/16 134/98/16
f 137/98/17 139/99/17 138/98/17
f 139/99/17 140/99/17 138/98/17
f 141/98/18 143/99/18 142/98/18
f 143/99/18 144/99/18 142/98/18
f 145/98/13 147/99/13 146/98/13
f 147/99/13 148/99/13 146/98/13
f 149/98/14 151/99/14 150/98/14
f 151/99/14 152/99/14 150/98/14
f 153/109/15 155/109/15 154/98/15
f 155/109/15 156/98/15 154/98/15
f 157/109/16 159/109/16 158/98/16
f 159/109/16 160/98/16 158/98/16
f 161/95/17 163/96/17 162/110/17
f 163/96/17 164/111/17 162/110/17
f 165/112/18 167/113/18 166/114/18
f 167/113/18 168/115/18 166/114/18
f 169/116/13 171/117/13 170/118/13
f 171/117/13 172/119/13 170/118/13
f 173/110/14 175/111/14 174/120/14
f 175/111/14 176/121/14 174/120/14
f 177/97/15 179/98/15 178/97/15
f 179/98/15 180/98/15 178/97/15
f 181/98/16 183/97/16 182/98/16
f 183/97/16 184/97/16 182/98/16
f 185/98/17 187/99/17 186/98/17
f 187/99/17 188/99/17 186/98/17
f 189/98/18 191/99/18 190/98/18
f 191/99/18 192/99/18 190/98/18
f 193/122/13 195/123/13 194/124/13
f 195/123/13 196/125/13 194/124/13
f 197/126/14 199/127/14 198/128/14
f 199/127/14 200/129/14 198/128/14
f 201/130/15 203/131/15 202/132/15
f 203/131/15 204/133/15 202/132/15
f 205/134/16 207/90/16 206/135/16
f 207/90/16 208/136/16 206/135/16
f 209/137/17 211/138/17 210/139/17
f 211/138/17 212/140/17 210/139/17
f 213/141/18 215/142/18 214/135/18
f 215/142/18 216/136/18 214/135/18
f 217/143/13 219/144/13 218/145/13
f 219/144/13 220/146/13 218/145/13
f 221/134/14 223/147/14 222/148/14
f 223/147/14 224/149/14 222/148/14
f 225/108/15 227/98/15 226/108/15
f 227/98/15 228/98/15 226/108/15
f 229/98/16 231/108/16 230/98/16
f 231/108/16 232/108/16 230/98/16
f 233/98/17 235/99/17 234/98/17
f 235/99/17 236/99/17 234/98/17
f 237/98/18 239/99/18 238/98/18
f 239/99/18 240/99/18 238/98/18
f 241/98/13 243/150/13 242/151/13
f 243/150/13 244/152/13 242/151/13
f 245/153/14 247/122/14 246/154/14
f 247/122/14 248/124/14 246/154/14
f 249/94/19 251/155/19 250/130/19
f 251/155/19 252/131/19 250/130/19
f 253/112/20 255/117/20 254/139/20
f 255/117/20 256/140/20 254/139/20
f 257/156/21 259/157/21 258/122/21
f 259/157/21 260/158/21 258/122/21
f 261/150/22 263/100/22 262/156/22
f 263/100/22 264/157/22 262/156/22
f 265/98/13 267/99/13 266/98/13
f 267/99/13 268/99/13 266/98/13
f 269/98/14 271/99/14 270/98/14
f 271/99/14 272/99/14 270/98/14
f 273/109/15 275/109/15 274/98/15
f 275/109/15 276/98/15 274/98/15
f 277/109/16 279/109/16 278/98/16
f 279/109/16 280/98/16 278/98/16
f 281/159/17 283/160/17 282/161/17
f 283/160/17 284/162/17 282/161/17
f 285/163/18 287/164/18 286/159/18
f 287/164/18 288/160/18 286/159/18
