# Blender 5.0.1
# www.blender.org
mtllib lev.pmmag.mtl
o bulletModel_1
v 0.716700 0.353615 0.211538
v 1.101315 0.353615 0.211538
v 0.716700 -0.069462 0.211538
v 1.101315 -0.069462 0.211538
v 1.101315 0.353615 -0.211538
v 0.716700 0.353615 -0.211538
v 1.101315 -0.069462 -0.211538
v 0.716700 -0.069462 -0.211538
v 1.101315 0.353615 -0.211538
v 1.101315 0.353615 0.211538
v 0.716700 0.353615 -0.211538
v 0.716700 0.353615 0.211538
v 0.716700 -0.069462 -0.211538
v 0.716700 -0.069462 0.211538
v 1.101315 -0.069462 -0.211538
v 1.101315 -0.069462 0.211538
v 0.716700 0.353615 -0.211538
v 0.716700 0.353615 0.211538
v 0.716700 -0.069462 -0.211538
v 0.716700 -0.069462 0.211538
v 1.101315 0.353615 0.211538
v 1.101315 0.353615 -0.211538
v 1.101315 -0.069462 0.211538
v 1.101315 -0.069462 -0.211538
v 0.082085 0.392077 0.250000
v 0.851315 0.392077 0.250000
v 0.082085 -0.107923 0.250000
v 0.851315 -0.107923 0.250000
v 0.851315 0.392077 -0.250000
v 0.082085 0.392077 -0.250000
v 0.851315 -0.107923 -0.250000
v 0.082085 -0.107923 -0.250000
v 0.851315 0.392077 -0.250000
v 0.851315 0.392077 0.250000
v 0.082085 0.392077 -0.250000
v 0.082085 0.392077 0.250000
v 0.082085 -0.107923 -0.250000
v 0.082085 -0.107923 0.250000
v 0.851315 -0.107923 -0.250000
v 0.851315 -0.107923 0.250000
v 0.082085 0.392077 -0.250000
v 0.082085 0.392077 0.250000
v 0.082085 -0.107923 -0.250000
v 0.082085 -0.107923 0.250000
v 0.851315 0.392077 0.250000
v 0.851315 0.392077 -0.250000
v 0.851315 -0.107923 0.250000
v 0.851315 -0.107923 -0.250000
vn -0.0000 -0.0000 1.0000
vn -0.0000 -0.0000 -1.0000
vn -0.0000 1.0000 -0.0000
vn -0.0000 -1.0000 -0.0000
vn -1.0000 -0.0000 -0.0000
vn 1.0000 -0.0000 -0.0000
vt 0.437500 0.562500
vt 0.437500 0.531250
vt 0.468750 0.562500
vt 0.468750 0.531250
vt 0.500000 1.000000
vt 0.500000 0.968750
vt 0.531250 1.000000
vt 0.531250 0.968750
vt 0.093750 0.468750
vt 0.093750 0.500000
vt 0.062500 0.468750
vt 0.062500 0.500000
vt 0.531250 0.937500
vt 0.531250 0.906250
vt 0.500000 0.937500
vt 0.500000 0.906250
vt 0.000000 0.500000
vt 0.000000 0.468750
vt 0.031250 0.500000
vt 0.031250 0.468750
vt 0.437500 0.625000
vt 0.437500 0.593750
vt 0.468750 0.625000
vt 0.468750 0.593750
vt 0.437500 0.750000
vt 0.437500 0.718750
vt 0.500000 0.750000
vt 0.500000 0.718750
vt 0.312500 0.562500
vt 0.312500 0.531250
vt 0.375000 0.562500
vt 0.375000 0.531250
vt 0.468750 0.687500
vt 0.437500 0.687500
vt 0.406250 0.562500
vt 0.406250 0.500000
vt 0.375000 0.500000
vt 0.500000 0.875000
vt 0.500000 0.843750
vt 0.531250 0.875000
vt 0.531250 0.843750
vt 0.125000 0.500000
vt 0.125000 0.468750
vt 0.156250 0.500000
vt 0.156250 0.468750
s 0
usemtl Material_0.001
f 1/1/1 3/2/1 2/3/1
f 3/2/1 4/4/1 2/3/1
f 5/5/2 7/6/2 6/7/2
f 7/6/2 8/8/2 6/7/2
f 9/9/3 11/10/3 10/11/3
f 11/10/3 12/12/3 10/11/3
f 13/13/4 15/14/4 14/15/4
f 15/14/4 16/16/4 14/15/4
f 17/17/5 19/18/5 18/19/5
f 19/18/5 20/20/5 18/19/5
f 21/21/6 23/22/6 22/23/6
f 23/22/6 24/24/6 22/23/6
f 25/25/1 27/26/1 26/27/1
f 27/26/1 28/28/1 26/27/1
f 29/29/2 31/30/2 30/31/2
f 31/30/2 32/32/2 30/31/2
f 33/23/3 35/33/3 34/21/3
f 35/33/3 36/34/3 34/21/3
f 37/35/4 39/36/4 38/31/4
f 39/36/4 40/37/4 38/31/4
f 41/38/5 43/39/5 42/40/5
f 43/39/5 44/41/5 42/40/5
f 45/42/6 47/43/6 46/44/6
f 47/43/6 48/45/6 46/44/6
o ammoModel
v -0.000000 0.384615 -0.310769
v 0.769231 0.384615 -0.310769
v -0.000000 -0.000000 -0.310769
v 0.769231 -0.000000 -0.310769
v 0.769231 0.384615 -0.311538
v -0.000000 0.384615 -0.311538
v 0.769231 -0.000000 -0.311538
v -0.000000 -0.000000 -0.311538
v 0.769231 0.384615 -0.311538
v 0.769231 0.384615 -0.310769
v -0.000000 0.384615 -0.311538
v -0.000000 0.384615 -0.310769
v -0.000000 -0.000000 -0.311538
v -0.000000 -0.000000 -0.310769
v 0.769231 -0.000000 -0.311538
v 0.769231 -0.000000 -0.310769
v -0.000000 0.384615 -0.311538
v -0.000000 0.384615 -0.310769
v -0.000000 -0.000000 -0.311538
v -0.000000 -0.000000 -0.310769
v 0.769231 0.384615 -0.310769
v 0.769231 0.384615 -0.311538
v 0.769231 -0.000000 -0.310769
v 0.769231 -0.000000 -0.311538
v 0.000000 -0.000000 0.311538
v 1.153846 -0.000000 0.311538
v 0.000000 -3.076923 0.311538
v 1.153846 -3.076923 0.311538
v 1.153846 -0.000000 -0.303846
v -0.000000 -0.000000 -0.303846
v 1.153846 -3.076923 -0.303846
v -0.000000 -3.076923 -0.303846
v 1.153846 -0.000000 -0.303846
v 1.153846 -0.000000 0.311538
v -0.000000 -0.000000 -0.303846
v 0.000000 -0.000000 0.311538
v -0.000000 -3.076923 -0.303846
v 0.000000 -3.076923 0.311538
v 1.153846 -3.076923 -0.303846
v 1.153846 -3.076923 0.311538
v -0.000000 -0.000000 -0.303846
v 0.000000 -0.000000 0.311538
v -0.000000 -3.076923 -0.303846
v 0.000000 -3.076923 0.311538
v 1.153846 -0.000000 0.311538
v 1.153846 -0.000000 -0.303846
v 1.153846 -3.076923 0.311538
v 1.153846 -3.076923 -0.303846
v 0.000000 0.384615 0.304615
v 0.769231 0.384615 0.304615
v 0.000000 0.000000 0.304615
v 0.769231 0.000000 0.304615
v 0.769231 0.384615 0.303846
v 0.000000 0.384615 0.303846
v 0.769231 0.000000 0.303846
v 0.000000 0.000000 0.303846
v 0.769231 0.384615 0.303846
v 0.769231 0.384615 0.304615
v 0.000000 0.384615 0.303846
v 0.000000 0.384615 0.304615
v 0.000000 0.000000 0.303846
v 0.000000 0.000000 0.304615
v 0.769231 0.000000 0.303846
v 0.769231 0.000000 0.304615
v 0.000000 0.384615 0.303846
v 0.000000 0.384615 0.304615
v 0.000000 0.000000 0.303846
v 0.000000 0.000000 0.304615
v 0.769231 0.384615 0.304615
v 0.769231 0.384615 0.303846
v 0.769231 0.000000 0.304615
v 0.769231 0.000000 0.303846
v 1.153846 -3.076154 0.304231
v 1.346154 -3.076154 0.304231
v 1.153846 -3.076923 0.304231
v 1.346154 -3.076923 0.304231
v 1.346154 -3.076154 -0.307308
v 1.153846 -3.076154 -0.307308
v 1.346154 -3.076923 -0.307308
v 1.153846 -3.076923 -0.307308
v 1.346154 -3.076154 -0.307308
v 1.346154 -3.076154 0.304231
v 1.153846 -3.076154 -0.307308
v 1.153846 -3.076154 0.304231
v 1.153846 -3.076923 -0.307308
v 1.153846 -3.076923 0.304231
v 1.346154 -3.076923 -0.307308
v 1.346154 -3.076923 0.304231
v 1.153846 -3.076154 -0.307308
v 1.153846 -3.076154 0.304231
v 1.153846 -3.076923 -0.307308
v 1.153846 -3.076923 0.304231
v 1.346154 -3.076154 0.304231
v 1.346154 -3.076154 -0.307308
v 1.346154 -3.076923 0.304231
v 1.346154 -3.076923 -0.307308
vn -0.0000 -0.0000 1.0000
vn -0.0000 -0.0000 -1.0000
vn -0.0000 1.0000 -0.0000
vn -0.0000 -1.0000 -0.0000
vn -1.0000 -0.0000 -0.0000
vn 1.0000 -0.0000 -0.0000
vt 0.437500 0.812500
vt 0.437500 0.781250
vt 0.500000 0.812500
vt 0.500000 0.781250
vt 0.250000 0.562500
vt 0.250000 0.531250
vt 0.312500 0.562500
vt 0.312500 0.531250
vt 0.000000 0.937500
vt 0.000000 1.000000
vt 0.000000 0.968750
vt 0.000000 0.750000
vt 0.093750 1.000000
vt 0.093750 0.750000
vt 0.125000 1.000000
vt 0.125000 0.750000
vt 0.218750 1.000000
vt 0.218750 0.750000
vt 0.125000 0.656250
vt 0.062500 0.656250
vt 0.062500 0.750000
vt 0.187500 0.750000
vt 0.187500 0.656250
vt 0.250000 1.000000
vt 0.250000 0.750000
vt 0.312500 1.000000
vt 0.312500 0.750000
vt 0.000000 0.500000
vt 0.062500 0.500000
vt 0.187500 0.718750
vt 0.250000 0.718750
vt 0.312500 0.718750
vt 0.031250 1.000000
vt 0.500000 0.843750
vt 0.500000 0.875000
vt 0.437500 0.843750
vt 0.437500 0.875000
vt 0.187500 0.562500
vt 0.187500 0.531250
vt 0.062500 1.000000
s 0
usemtl Material_0.001
f 49/46/7 51/47/7 50/48/7
f 51/47/7 52/49/7 50/48/7
f 53/50/8 55/51/8 54/52/8
f 55/51/8 56/53/8 54/52/8
f 57/54/9 59/55/9 58/54/9
f 59/55/9 60/55/9 58/54/9
f 61/55/10 63/54/10 62/55/10
f 63/54/10 64/54/10 62/55/10
f 65/55/11 67/56/11 66/55/11
f 67/56/11 68/56/11 66/55/11
f 69/55/12 71/56/12 70/55/12
f 71/56/12 72/56/12 70/55/12
f 73/55/7 75/57/7 74/58/7
f 75/57/7 76/59/7 74/58/7
f 77/60/8 79/61/8 78/62/8
f 79/61/8 80/63/8 78/62/8
f 81/64/9 83/61/9 82/65/9
f 83/61/9 84/66/9 82/65/9
f 85/67/10 87/68/10 86/61/10
f 87/68/10 88/64/10 86/61/10
f 89/69/11 91/70/11 90/71/11
f 91/70/11 92/72/11 90/71/11
f 93/57/12 95/73/12 94/66/12
f 95/73/12 96/74/12 94/66/12
f 97/67/7 99/75/7 98/70/7
f 99/75/7 100/76/7 98/70/7
f 101/70/8 103/76/8 102/72/8
f 103/76/8 104/77/8 102/72/8
f 105/54/9 107/55/9 106/54/9
f 107/55/9 108/55/9 106/54/9
f 109/55/10 111/54/10 110/55/10
f 111/54/10 112/54/10 110/55/10
f 113/55/11 115/56/11 114/55/11
f 115/56/11 116/56/11 114/55/11
f 117/55/12 119/56/12 118/55/12
f 119/56/12 120/56/12 118/55/12
f 121/55/7 123/55/7 122/78/7
f 123/55/7 124/78/7 122/78/7
f 125/55/8 127/55/8 126/78/8
f 127/55/8 128/78/8 126/78/8
f 129/79/9 131/80/9 130/81/9
f 131/80/9 132/82/9 130/81/9
f 133/50/10 135/51/10 134/83/10
f 135/51/10 136/84/10 134/83/10
f 137/55/11 139/55/11 138/85/11
f 139/55/11 140/85/11 138/85/11
f 141/55/12 143/55/12 142/85/12
f 143/55/12 144/85/12 142/85/12
o bulletModel_3
v 0.384615 -0.769231 -0.306923
v 1.153846 -0.769231 -0.306923
v 0.384615 -1.153846 -0.306923
v 1.153846 -1.153846 -0.306923
v 1.153846 -0.769231 -0.307692
v 0.384615 -0.769231 -0.307692
v 1.153846 -1.153846 -0.307692
v 0.384615 -1.153846 -0.307692
v 1.153846 -0.769231 -0.307692
v 1.153846 -0.769231 -0.306923
v 0.384615 -0.769231 -0.307692
v 0.384615 -0.769231 -0.306923
v 0.384615 -1.153846 -0.307692
v 0.384615 -1.153846 -0.306923
v 1.153846 -1.153846 -0.307692
v 1.153846 -1.153846 -0.306923
v 0.384615 -0.769231 -0.307692
v 0.384615 -0.769231 -0.306923
v 0.384615 -1.153846 -0.307692
v 0.384615 -1.153846 -0.306923
v 1.153846 -0.769231 -0.306923
v 1.153846 -0.769231 -0.307692
v 1.153846 -1.153846 -0.306923
v 1.153846 -1.153846 -0.307692
v 0.384615 -0.769231 0.316154
v 1.153846 -0.769231 0.316154
v 0.384615 -1.153846 0.316154
v 1.153846 -1.153846 0.316154
v 1.153846 -0.769231 0.315385
v 0.384615 -0.769231 0.315385
v 1.153846 -1.153846 0.315385
v 0.384615 -1.153846 0.315385
v 1.153846 -0.769231 0.315385
v 1.153846 -0.769231 0.316154
v 0.384615 -0.769231 0.315385
v 0.384615 -0.769231 0.316154
v 0.384615 -1.153846 0.315385
v 0.384615 -1.153846 0.316154
v 1.153846 -1.153846 0.315385
v 1.153846 -1.153846 0.316154
v 0.384615 -0.769231 0.315385
v 0.384615 -0.769231 0.316154
v 0.384615 -1.153846 0.315385
v 0.384615 -1.153846 0.316154
v 1.153846 -0.769231 0.316154
v 1.153846 -0.769231 0.315385
v 1.153846 -1.153846 0.316154
v 1.153846 -1.153846 0.315385
vn -0.0000 -0.0000 1.0000
vn -0.0000 -0.0000 -1.0000
vn -0.0000 1.0000 -0.0000
vn -0.0000 -1.0000 -0.0000
vn -1.0000 -0.0000 -0.0000
vn 1.0000 -0.0000 -0.0000
vt 0.312500 0.875000
vt 0.312500 0.843750
vt 0.375000 0.875000
vt 0.375000 0.843750
vt 0.187500 0.687500
vt 0.187500 0.656250
vt 0.250000 0.687500
vt 0.250000 0.656250
vt 0.000000 0.937500
vt 0.000000 1.000000
vt 0.000000 0.968750
vt 0.375000 0.937500
vt 0.375000 0.906250
vt 0.437500 0.937500
vt 0.437500 0.906250
vt 0.125000 0.625000
vt 0.125000 0.593750
vt 0.187500 0.625000
vt 0.187500 0.593750
s 0
usemtl Material_0.001
f 145/86/13 147/87/13 146/88/13
f 147/87/13 148/89/13 146/88/13
f 149/90/14 151/91/14 150/92/14
f 151/91/14 152/93/14 150/92/14
f 153/94/15 155/95/15 154/94/15
f 155/95/15 156/95/15 154/94/15
f 157/95/16 159/94/16 158/95/16
f 159/94/16 160/94/16 158/95/16
f 161/95/17 163/96/17 162/95/17
f 163/96/17 164/96/17 162/95/17
f 165/95/18 167/96/18 166/95/18
f 167/96/18 168/96/18 166/95/18
f 169/97/13 171/98/13 170/99/13
f 171/98/13 172/100/13 170/99/13
f 173/101/14 175/102/14 174/103/14
f 175/102/14 176/104/14 174/103/14
f 177/94/15 179/95/15 178/94/15
f 179/95/15 180/95/15 178/94/15
f 181/95/16 183/94/16 182/95/16
f 183/94/16 184/94/16 182/95/16
f 185/95/17 187/96/17 186/95/17
f 187/96/17 188/96/17 186/95/17
f 189/95/18 191/96/18 190/95/18
f 191/96/18 192/96/18 190/95/18
o bulletModel_5
v 0.384615 -1.538462 -0.306923
v 1.153846 -1.538462 -0.306923
v 0.384615 -1.923077 -0.306923
v 1.153846 -1.923077 -0.306923
v 1.153846 -1.538462 -0.307692
v 0.384615 -1.538462 -0.307692
v 1.153846 -1.923077 -0.307692
v 0.384615 -1.923077 -0.307692
v 1.153846 -1.538462 -0.307692
v 1.153846 -1.538462 -0.306923
v 0.384615 -1.538462 -0.307692
v 0.384615 -1.538462 -0.306923
v 0.384615 -1.923077 -0.307692
v 0.384615 -1.923077 -0.306923
v 1.153846 -1.923077 -0.307692
v 1.153846 -1.923077 -0.306923
v 0.384615 -1.538462 -0.307692
v 0.384615 -1.538462 -0.306923
v 0.384615 -1.923077 -0.307692
v 0.384615 -1.923077 -0.306923
v 1.153846 -1.538462 -0.306923
v 1.153846 -1.538462 -0.307692
v 1.153846 -1.923077 -0.306923
v 1.153846 -1.923077 -0.307692
v 0.384615 -1.538462 0.316154
v 1.153846 -1.538462 0.316154
v 0.384615 -1.923077 0.316154
v 1.153846 -1.923077 0.316154
v 1.153846 -1.538462 0.315385
v 0.384615 -1.538462 0.315385
v 1.153846 -1.923077 0.315385
v 0.384615 -1.923077 0.315385
v 1.153846 -1.538462 0.315385
v 1.153846 -1.538462 0.316154
v 0.384615 -1.538462 0.315385
v 0.384615 -1.538462 0.316154
v 0.384615 -1.923077 0.315385
v 0.384615 -1.923077 0.316154
v 1.153846 -1.923077 0.315385
v 1.153846 -1.923077 0.316154
v 0.384615 -1.538462 0.315385
v 0.384615 -1.538462 0.316154
v 0.384615 -1.923077 0.315385
v 0.384615 -1.923077 0.316154
v 1.153846 -1.538462 0.316154
v 1.153846 -1.538462 0.315385
v 1.153846 -1.923077 0.316154
v 1.153846 -1.923077 0.315385
vn -0.0000 -0.0000 1.0000
vn -0.0000 -0.0000 -1.0000
vn -0.0000 1.0000 -0.0000
vn -0.0000 -1.0000 -0.0000
vn -1.0000 -0.0000 -0.0000
vn 1.0000 -0.0000 -0.0000
vt 0.312500 0.750000
vt 0.312500 0.718750
vt 0.375000 0.750000
vt 0.375000 0.718750
vt 0.312500 0.687500
vt 0.312500 0.656250
vt 0.375000 0.687500
vt 0.375000 0.656250
vt 0.000000 0.937500
vt 0.000000 1.000000
vt 0.000000 0.968750
vt 0.375000 0.812500
vt 0.375000 0.781250
vt 0.437500 0.812500
vt 0.437500 0.781250
vt 0.250000 0.625000
vt 0.250000 0.593750
vt 0.312500 0.625000
vt 0.312500 0.593750
s 0
usemtl Material_0.001
f 193/105/19 195/106/19 194/107/19
f 195/106/19 196/108/19 194/107/19
f 197/109/20 199/110/20 198/111/20
f 199/110/20 200/112/20 198/111/20
f 201/113/21 203/114/21 202/113/21
f 203/114/21 204/114/21 202/113/21
f 205/114/22 207/113/22 206/114/22
f 207/113/22 208/113/22 206/114/22
f 209/114/23 211/115/23 210/114/23
f 211/115/23 212/115/23 210/114/23
f 213/114/24 215/115/24 214/114/24
f 215/115/24 216/115/24 214/114/24
f 217/116/19 219/117/19 218/118/19
f 219/117/19 220/119/19 218/118/19
f 221/120/20 223/121/20 222/122/20
f 223/121/20 224/123/20 222/122/20
f 225/113/21 227/114/21 226/113/21
f 227/114/21 228/114/21 226/113/21
f 229/114/22 231/113/22 230/114/22
f 231/113/22 232/113/22 230/114/22
f 233/114/23 235/115/23 234/114/23
f 235/115/23 236/115/23 234/114/23
f 237/114/24 239/115/24 238/114/24
f 239/115/24 240/115/24 238/114/24
o bulletModel_7
v 0.384615 -2.307692 -0.306923
v 1.153846 -2.307692 -0.306923
v 0.384615 -2.692308 -0.306923
v 1.153846 -2.692308 -0.306923
v 1.153846 -2.307692 -0.307692
v 0.384615 -2.307692 -0.307692
v 1.153846 -2.692308 -0.307692
v 0.384615 -2.692308 -0.307692
v 1.153846 -2.307692 -0.307692
v 1.153846 -2.307692 -0.306923
v 0.384615 -2.307692 -0.307692
v 0.384615 -2.307692 -0.306923
v 0.384615 -2.692308 -0.307692
v 0.384615 -2.692308 -0.306923
v 1.153846 -2.692308 -0.307692
v 1.153846 -2.692308 -0.306923
v 0.384615 -2.307692 -0.307692
v 0.384615 -2.307692 -0.306923
v 0.384615 -2.692308 -0.307692
v 0.384615 -2.692308 -0.306923
v 1.153846 -2.307692 -0.306923
v 1.153846 -2.307692 -0.307692
v 1.153846 -2.692308 -0.306923
v 1.153846 -2.692308 -0.307692
v 0.384615 -2.307692 0.316154
v 1.153846 -2.307692 0.316154
v 0.384615 -2.692308 0.316154
v 1.153846 -2.692308 0.316154
v 1.153846 -2.307692 0.315385
v 0.384615 -2.307692 0.315385
v 1.153846 -2.692308 0.315385
v 0.384615 -2.692308 0.315385
v 1.153846 -2.307692 0.315385
v 1.153846 -2.307692 0.316154
v 0.384615 -2.307692 0.315385
v 0.384615 -2.307692 0.316154
v 0.384615 -2.692308 0.315385
v 0.384615 -2.692308 0.316154
v 1.153846 -2.692308 0.315385
v 1.153846 -2.692308 0.316154
v 0.384615 -2.307692 0.315385
v 0.384615 -2.307692 0.316154
v 0.384615 -2.692308 0.315385
v 0.384615 -2.692308 0.316154
v 1.153846 -2.307692 0.316154
v 1.153846 -2.307692 0.315385
v 1.153846 -2.692308 0.316154
v 1.153846 -2.692308 0.315385
vn -0.0000 -0.0000 1.0000
vn -0.0000 -0.0000 -1.0000
vn -0.0000 1.0000 -0.0000
vn -0.0000 -1.0000 -0.0000
vn -1.0000 -0.0000 -0.0000
vn 1.0000 -0.0000 -0.0000
vt 0.375000 1.000000
vt 0.375000 0.968750
vt 0.437500 1.000000
vt 0.437500 0.968750
vt 0.062500 0.625000
vt 0.062500 0.593750
vt 0.125000 0.625000
vt 0.125000 0.593750
vt 0.000000 0.937500
vt 0.000000 1.000000
vt 0.000000 0.968750
vt 0.500000 1.000000
vt 0.500000 0.968750
vt 0.062500 0.562500
vt 0.062500 0.531250
vt 0.125000 0.562500
vt 0.125000 0.531250
s 0
usemtl Material_0.001
f 241/124/25 243/125/25 242/126/25
f 243/125/25 244/127/25 242/126/25
f 245/128/26 247/129/26 246/130/26
f 247/129/26 248/131/26 246/130/26
f 249/132/27 251/133/27 250/132/27
f 251/133/27 252/133/27 250/132/27
f 253/133/28 255/132/28 254/133/28
f 255/132/28 256/132/28 254/133/28
f 257/133/29 259/134/29 258/133/29
f 259/134/29 260/134/29 258/133/29
f 261/133/30 263/134/30 262/133/30
f 263/134/30 264/134/30 262/133/30
f 265/126/25 267/127/25 266/135/25
f 267/127/25 268/136/25 266/135/25
f 269/137/26 271/138/26 270/139/26
f 271/138/26 272/140/26 270/139/26
f 273/132/27 275/133/27 274/132/27
f 275/133/27 276/133/27 274/132/27
f 277/133/28 279/132/28 278/133/28
f 279/132/28 280/132/28 278/133/28
f 281/133/29 283/134/29 282/133/29
f 283/134/29 284/134/29 282/133/29
f 285/133/30 287/134/30 286/133/30
f 287/134/30 288/134/30 286/133/30
o bulletModel_4
v 0.384615 -1.153846 0.316154
v 1.153846 -1.153846 0.316154
v 0.384615 -1.538462 0.316154
v 1.153846 -1.538462 0.316154
v 1.153846 -1.153846 0.315385
v 0.384615 -1.153846 0.315385
v 1.153846 -1.538462 0.315385
v 0.384615 -1.538462 0.315385
v 1.153846 -1.153846 0.315385
v 1.153846 -1.153846 0.316154
v 0.384615 -1.153846 0.315385
v 0.384615 -1.153846 0.316154
v 0.384615 -1.538462 0.315385
v 0.384615 -1.538462 0.316154
v 1.153846 -1.538462 0.315385
v 1.153846 -1.538462 0.316154
v 0.384615 -1.153846 0.315385
v 0.384615 -1.153846 0.316154
v 0.384615 -1.538462 0.315385
v 0.384615 -1.538462 0.316154
v 1.153846 -1.153846 0.316154
v 1.153846 -1.153846 0.315385
v 1.153846 -1.538462 0.316154
v 1.153846 -1.538462 0.315385
v 0.384615 -1.153846 -0.306923
v 1.153846 -1.153846 -0.306923
v 0.384615 -1.538462 -0.306923
v 1.153846 -1.538462 -0.306923
v 1.153846 -1.153846 -0.307692
v 0.384615 -1.153846 -0.307692
v 1.153846 -1.538462 -0.307692
v 0.384615 -1.538462 -0.307692
v 1.153846 -1.153846 -0.307692
v 1.153846 -1.153846 -0.306923
v 0.384615 -1.153846 -0.307692
v 0.384615 -1.153846 -0.306923
v 0.384615 -1.538462 -0.307692
v 0.384615 -1.538462 -0.306923
v 1.153846 -1.538462 -0.307692
v 1.153846 -1.538462 -0.306923
v 0.384615 -1.153846 -0.307692
v 0.384615 -1.153846 -0.306923
v 0.384615 -1.538462 -0.307692
v 0.384615 -1.538462 -0.306923
v 1.153846 -1.153846 -0.306923
v 1.153846 -1.153846 -0.307692
v 1.153846 -1.538462 -0.306923
v 1.153846 -1.538462 -0.307692
vn -0.0000 -0.0000 1.0000
vn -0.0000 -0.0000 -1.0000
vn -0.0000 1.0000 -0.0000
vn -0.0000 -1.0000 -0.0000
vn -1.0000 -0.0000 -0.0000
vn 1.0000 -0.0000 -0.0000
vt 0.375000 0.875000
vt 0.375000 0.843750
vt 0.437500 0.875000
vt 0.437500 0.843750
vt 0.187500 0.625000
vt 0.187500 0.593750
vt 0.250000 0.625000
vt 0.250000 0.593750
vt 0.000000 0.937500
vt 0.000000 1.000000
vt 0.000000 0.968750
vt 0.312500 0.812500
vt 0.312500 0.781250
vt 0.375000 0.812500
vt 0.375000 0.781250
vt 0.250000 0.687500
vt 0.250000 0.656250
vt 0.312500 0.687500
vt 0.312500 0.656250
s 0
usemtl Material_0.001
f 289/141/31 291/142/31 290/143/31
f 291/142/31 292/144/31 290/143/31
f 293/145/32 295/146/32 294/147/32
f 295/146/32 296/148/32 294/147/32
f 297/149/33 299/150/33 298/149/33
f 299/150/33 300/150/33 298/149/33
f 301/150/34 303/149/34 302/150/34
f 303/149/34 304/149/34 302/150/34
f 305/150/35 307/151/35 306/150/35
f 307/151/35 308/151/35 306/150/35
f 309/150/36 311/151/36 310/150/36
f 311/151/36 312/151/36 310/150/36
f 313/152/31 315/153/31 314/154/31
f 315/153/31 316/155/31 314/154/31
f 317/156/32 319/157/32 318/158/32
f 319/157/32 320/159/32 318/158/32
f 321/149/33 323/150/33 322/149/33
f 323/150/33 324/150/33 322/149/33
f 325/150/34 327/149/34 326/150/34
f 327/149/34 328/149/34 326/150/34
f 329/150/35 331/151/35 330/150/35
f 331/151/35 332/151/35 330/150/35
f 333/150/36 335/151/36 334/150/36
f 335/151/36 336/151/36 334/150/36
o bulletModel_6
v 0.384615 -1.923077 0.316154
v 1.153846 -1.923077 0.316154
v 0.384615 -2.307692 0.316154
v 1.153846 -2.307692 0.316154
v 1.153846 -1.923077 0.315385
v 0.384615 -1.923077 0.315385
v 1.153846 -2.307692 0.315385
v 0.384615 -2.307692 0.315385
v 1.153846 -1.923077 0.315385
v 1.153846 -1.923077 0.316154
v 0.384615 -1.923077 0.315385
v 0.384615 -1.923077 0.316154
v 0.384615 -2.307692 0.315385
v 0.384615 -2.307692 0.316154
v 1.153846 -2.307692 0.315385
v 1.153846 -2.307692 0.316154
v 0.384615 -1.923077 0.315385
v 0.384615 -1.923077 0.316154
v 0.384615 -2.307692 0.315385
v 0.384615 -2.307692 0.316154
v 1.153846 -1.923077 0.316154
v 1.153846 -1.923077 0.315385
v 1.153846 -2.307692 0.316154
v 1.153846 -2.307692 0.315385
v 0.384615 -1.923077 -0.306923
v 1.153846 -1.923077 -0.306923
v 0.384615 -2.307692 -0.306923
v 1.153846 -2.307692 -0.306923
v 1.153846 -1.923077 -0.307692
v 0.384615 -1.923077 -0.307692
v 1.153846 -2.307692 -0.307692
v 0.384615 -2.307692 -0.307692
v 1.153846 -1.923077 -0.307692
v 1.153846 -1.923077 -0.306923
v 0.384615 -1.923077 -0.307692
v 0.384615 -1.923077 -0.306923
v 0.384615 -2.307692 -0.307692
v 0.384615 -2.307692 -0.306923
v 1.153846 -2.307692 -0.307692
v 1.153846 -2.307692 -0.306923
v 0.384615 -1.923077 -0.307692
v 0.384615 -1.923077 -0.306923
v 0.384615 -2.307692 -0.307692
v 0.384615 -2.307692 -0.306923
v 1.153846 -1.923077 -0.306923
v 1.153846 -1.923077 -0.307692
v 1.153846 -2.307692 -0.306923
v 1.153846 -2.307692 -0.307692
vn -0.0000 -0.0000 1.0000
vn -0.0000 -0.0000 -1.0000
vn -0.0000 1.0000 -0.0000
vn -0.0000 -1.0000 -0.0000
vn -1.0000 -0.0000 -0.0000
vn 1.0000 -0.0000 -0.0000
vt 0.375000 0.750000
vt 0.375000 0.718750
vt 0.437500 0.750000
vt 0.437500 0.718750
vt 0.312500 0.625000
vt 0.312500 0.593750
vt 0.375000 0.625000
vt 0.375000 0.593750
vt 0.000000 0.937500
vt 0.000000 1.000000
vt 0.000000 0.968750
vt 0.437500 0.937500
vt 0.437500 0.906250
vt 0.500000 0.937500
vt 0.500000 0.906250
vt 0.125000 0.562500
vt 0.125000 0.531250
vt 0.187500 0.562500
vt 0.187500 0.531250
s 0
usemtl Material_0.001
f 337/160/37 339/161/37 338/162/37
f 339/161/37 340/163/37 338/162/37
f 341/164/38 343/165/38 342/166/38
f 343/165/38 344/167/38 342/166/38
f 345/168/39 347/169/39 346/168/39
f 347/169/39 348/169/39 346/168/39
f 349/169/40 351/168/40 350/169/40
f 351/168/40 352/168/40 350/169/40
f 353/169/41 355/170/41 354/169/41
f 355/170/41 356/170/41 354/169/41
f 357/169/42 359/170/42 358/169/42
f 359/170/42 360/170/42 358/169/42
f 361/171/37 363/172/37 362/173/37
f 363/172/37 364/174/37 362/173/37
f 365/175/38 367/176/38 366/177/38
f 367/176/38 368/178/38 366/177/38
f 369/168/39 371/169/39 370/168/39
f 371/169/39 372/169/39 370/168/39
f 373/169/40 375/168/40 374/169/40
f 375/168/40 376/168/40 374/169/40
f 377/169/41 379/170/41 378/169/41
f 379/170/41 380/170/41 378/169/41
f 381/169/42 383/170/42 382/169/42
f 383/170/42 384/170/42 382/169/42
o bulletModel_2
v 0.384615 -0.384615 0.316154
v 1.153846 -0.384615 0.316154
v 0.384615 -0.769231 0.316154
v 1.153846 -0.769231 0.316154
v 1.153846 -0.384615 0.315385
v 0.384615 -0.384615 0.315385
v 1.153846 -0.769231 0.315385
v 0.384615 -0.769231 0.315385
v 1.153846 -0.384615 0.315385
v 1.153846 -0.384615 0.316154
v 0.384615 -0.384615 0.315385
v 0.384615 -0.384615 0.316154
v 0.384615 -0.769231 0.315385
v 0.384615 -0.769231 0.316154
v 1.153846 -0.769231 0.315385
v 1.153846 -0.769231 0.316154
v 0.384615 -0.384615 0.315385
v 0.384615 -0.384615 0.316154
v 0.384615 -0.769231 0.315385
v 0.384615 -0.769231 0.316154
v 1.153846 -0.384615 0.316154
v 1.153846 -0.384615 0.315385
v 1.153846 -0.769231 0.316154
v 1.153846 -0.769231 0.315385
v 0.384615 -0.384615 -0.306923
v 1.153846 -0.384615 -0.306923
v 0.384615 -0.769231 -0.306923
v 1.153846 -0.769231 -0.306923
v 1.153846 -0.384615 -0.307692
v 0.384615 -0.384615 -0.307692
v 1.153846 -0.769231 -0.307692
v 0.384615 -0.769231 -0.307692
v 1.153846 -0.384615 -0.307692
v 1.153846 -0.384615 -0.306923
v 0.384615 -0.384615 -0.307692
v 0.384615 -0.384615 -0.306923
v 0.384615 -0.769231 -0.307692
v 0.384615 -0.769231 -0.306923
v 1.153846 -0.769231 -0.307692
v 1.153846 -0.769231 -0.306923
v 0.384615 -0.384615 -0.307692
v 0.384615 -0.384615 -0.306923
v 0.384615 -0.769231 -0.307692
v 0.384615 -0.769231 -0.306923
v 1.153846 -0.384615 -0.306923
v 1.153846 -0.384615 -0.307692
v 1.153846 -0.769231 -0.306923
v 1.153846 -0.769231 -0.307692
vn -0.0000 -0.0000 1.0000
vn -0.0000 -0.0000 -1.0000
vn -0.0000 1.0000 -0.0000
vn -0.0000 -1.0000 -0.0000
vn -1.0000 -0.0000 -0.0000
vn 1.0000 -0.0000 -0.0000
vt 0.375000 0.687500
vt 0.375000 0.656250
vt 0.437500 0.687500
vt 0.437500 0.656250
vt 0.375000 0.625000
vt 0.375000 0.593750
vt 0.437500 0.625000
vt 0.437500 0.593750
vt 0.000000 0.937500
vt 0.000000 1.000000
vt 0.000000 0.968750
vt 0.312500 1.000000
vt 0.312500 0.968750
vt 0.375000 1.000000
vt 0.375000 0.968750
vt 0.312500 0.937500
vt 0.312500 0.906250
vt 0.375000 0.937500
vt 0.375000 0.906250
s 0
usemtl Material_0.001
f 385/179/43 387/180/43 386/181/43
f 387/180/43 388/182/43 386/181/43
f 389/183/44 391/184/44 390/185/44
f 391/184/44 392/186/44 390/185/44
f 393/187/45 395/188/45 394/187/45
f 395/188/45 396/188/45 394/187/45
f 397/188/46 399/187/46 398/188/46
f 399/187/46 400/187/46 398/188/46
f 401/188/47 403/189/47 402/188/47
f 403/189/47 404/189/47 402/188/47
f 405/188/48 407/189/48 406/188/48
f 407/189/48 408/189/48 406/188/48
f 409/190/43 411/191/43 410/192/43
f 411/191/43 412/193/43 410/192/43
f 413/194/44 415/195/44 414/196/44
f 415/195/44 416/197/44 414/196/44
f 417/187/45 419/188/45 418/187/45
f 419/188/45 420/188/45 418/187/45
f 421/188/46 423/187/46 422/188/46
f 423/187/46 424/187/46 422/188/46
f 425/188/47 427/189/47 426/188/47
f 427/189/47 428/189/47 426/188/47
f 429/188/48 431/189/48 430/188/48
f 431/189/48 432/189/48 430/188/48
