# Blender 4.3.2
# www.blender.org
mtllib lev.pernachmag27.mtl
o ammoModel
v 0.000711 -0.000294 -0.377500
v 1.066726 -0.441852 -0.377500
v -1.176777 -2.843001 -0.377500
v -0.110762 -3.284559 -0.377500
v 1.066726 -0.441852 -0.378269
v 0.000711 -0.000294 -0.378269
v -0.110762 -3.284559 -0.378269
v -1.176777 -2.843001 -0.378269
v 1.066726 -0.441852 -0.378269
v 1.066726 -0.441852 -0.377500
v 0.000711 -0.000294 -0.378269
v 0.000711 -0.000294 -0.377500
v -1.176777 -2.843001 -0.378269
v -1.176777 -2.843001 -0.377500
v -0.110762 -3.284559 -0.378269
v -0.110762 -3.284559 -0.377500
v 0.000711 -0.000294 -0.378269
v 0.000711 -0.000294 -0.377500
v -1.176777 -2.843001 -0.378269
v -1.176777 -2.843001 -0.377500
v 1.066726 -0.441852 -0.377500
v 1.066726 -0.441852 -0.378269
v -0.110762 -3.284559 -0.377500
v -0.110762 -3.284559 -0.378269
v 0.000000 0.000000 0.387115
v 0.000711 -0.000294 0.387115
v -1.177488 -2.842706 0.387116
v -1.176777 -2.843001 0.387116
v 0.000711 -0.000294 -0.382115
v 0.000000 -0.000000 -0.382115
v -1.176777 -2.843001 -0.382115
v -1.177488 -2.842706 -0.382115
v 0.000711 -0.000294 -0.382115
v 0.000711 -0.000294 0.387115
v 0.000000 -0.000000 -0.382115
v 0.000000 0.000000 0.387115
v -1.177488 -2.842706 -0.382115
v -1.177488 -2.842706 0.387116
v -1.176777 -2.843001 -0.382115
v -1.176777 -2.843001 0.387116
v 0.000000 -0.000000 -0.382115
v 0.000000 0.000000 0.387115
v -1.177488 -2.842706 -0.382115
v -1.177488 -2.842706 0.387116
v 0.000711 -0.000294 0.387115
v 0.000711 -0.000294 -0.382115
v -1.176777 -2.843001 0.387116
v -1.176777 -2.843001 -0.382115
v -1.176777 -2.843001 0.380962
v -0.110762 -3.284559 0.380962
v -1.765521 -4.264353 0.380962
v -0.699506 -4.705911 0.380962
v -0.110762 -3.284559 -0.378269
v -1.176777 -2.843001 -0.378269
v -0.699506 -4.705911 -0.378269
v -1.765521 -4.264353 -0.378269
v -0.110762 -3.284559 -0.378269
v -0.110762 -3.284559 0.380962
v -1.176777 -2.843001 -0.378269
v -1.176777 -2.843001 0.380962
v -1.765521 -4.264353 -0.378269
v -1.765521 -4.264353 0.380962
v -0.699506 -4.705911 -0.378269
v -0.699506 -4.705911 0.380962
v -1.176777 -2.843001 -0.378269
v -1.176777 -2.843001 0.380962
v -1.765521 -4.264353 -0.378269
v -1.765521 -4.264353 0.380962
v -0.110762 -3.284559 0.380962
v -0.110762 -3.284559 -0.378269
v -0.699506 -4.705911 0.380962
v -0.699506 -4.705911 -0.378269
v 0.000711 -0.000294 0.380962
v 1.066726 -0.441852 0.380962
v -1.176777 -2.843001 0.380962
v -0.110762 -3.284559 0.380962
v 1.066726 -0.441852 0.380192
v 0.000711 -0.000294 0.380192
v -0.110762 -3.284559 0.380193
v -1.176777 -2.843001 0.380193
v 1.066726 -0.441852 0.380192
v 1.066726 -0.441852 0.380962
v 0.000711 -0.000294 0.380192
v 0.000711 -0.000294 0.380962
v -1.176777 -2.843001 0.380193
v -1.176777 -2.843001 0.380962
v -0.110762 -3.284559 0.380193
v -0.110762 -3.284559 0.380962
v 0.000711 -0.000294 0.380192
v 0.000711 -0.000294 0.380962
v -1.176777 -2.843001 0.380193
v -1.176777 -2.843001 0.380962
v 1.066726 -0.441852 0.380962
v 1.066726 -0.441852 0.380192
v -0.110762 -3.284559 0.380962
v -0.110762 -3.284559 0.380193
v -1.765523 -4.264354 0.383654
v -0.611677 -4.264354 0.383654
v -1.765523 -5.033585 0.383654
v -0.611677 -5.033585 0.383654
v -0.611677 -4.264354 -0.381730
v -1.765523 -4.264354 -0.381730
v -0.611677 -5.033585 -0.381730
v -1.765523 -5.033585 -0.381730
v -0.611677 -4.264354 -0.381730
v -0.611677 -4.264354 0.383654
v -1.765523 -4.264354 -0.381730
v -1.765523 -4.264354 0.383654
v -1.765523 -5.033585 -0.381730
v -1.765523 -5.033585 0.383654
v -0.611677 -5.033585 -0.381730
v -0.611677 -5.033585 0.383654
v -1.765523 -4.264354 -0.381730
v -1.765523 -4.264354 0.383654
v -1.765523 -5.033585 -0.381730
v -1.765523 -5.033585 0.383654
v -0.611677 -4.264354 0.383654
v -0.611677 -4.264354 -0.381730
v -0.611677 -5.033585 0.383654
v -0.611677 -5.033585 -0.381730
v -0.611676 -5.033585 0.383654
v -0.227061 -5.033585 0.383654
v -0.611676 -5.034354 0.383654
v -0.227061 -5.034354 0.383654
v -0.227061 -5.033585 -0.381731
v -0.611676 -5.033585 -0.381731
v -0.227061 -5.034354 -0.381731
v -0.611676 -5.034354 -0.381731
v -0.227061 -5.033585 -0.381731
v -0.227061 -5.033585 0.383654
v -0.611676 -5.033585 -0.381731
v -0.611676 -5.033585 0.383654
v -0.611676 -5.034354 -0.381731
v -0.611676 -5.034354 0.383654
v -0.227061 -5.034354 -0.381731
v -0.227061 -5.034354 0.383654
v -0.611676 -5.033585 -0.381731
v -0.611676 -5.033585 0.383654
v -0.611676 -5.034354 -0.381731
v -0.611676 -5.034354 0.383654
v -0.227061 -5.033585 0.383654
v -0.227061 -5.033585 -0.381731
v -0.227061 -5.034354 0.383654
v -0.227061 -5.034354 -0.381731
v 1.066015 -0.441558 0.387115
v 1.066726 -0.441852 0.387115
v -0.111473 -3.284264 0.387116
v -0.110762 -3.284559 0.387116
v 1.066726 -0.441852 -0.382116
v 1.066015 -0.441558 -0.382116
v -0.110762 -3.284559 -0.382115
v -0.111473 -3.284264 -0.382115
v 1.066726 -0.441852 -0.382116
v 1.066726 -0.441852 0.387115
v 1.066015 -0.441558 -0.382116
v 1.066015 -0.441558 0.387115
v -0.111473 -3.284264 -0.382115
v -0.111473 -3.284264 0.387116
v -0.110762 -3.284559 -0.382115
v -0.110762 -3.284559 0.387116
v 1.066015 -0.441558 -0.382116
v 1.066015 -0.441558 0.387115
v -0.111473 -3.284264 -0.382115
v -0.111473 -3.284264 0.387116
v 1.066726 -0.441852 0.387115
v 1.066726 -0.441852 -0.382116
v -0.110762 -3.284559 0.387116
v -0.110762 -3.284559 -0.382115
vn -0.0000 -0.0000 1.0000
vn -0.0000 -0.0000 -1.0000
vn 0.3827 0.9239 -0.0000
vn -0.3827 -0.9239 -0.0000
vn -0.9239 0.3827 -0.0000
vn 0.9239 -0.3827 -0.0000
vn 0.3826 0.9239 -0.0000
vn -0.3831 -0.9237 -0.0000
vn -0.0000 1.0000 -0.0000
vn -0.0000 -1.0000 -0.0000
vn -1.0000 -0.0000 -0.0000
vn 1.0000 -0.0000 -0.0000
vn 1.0000 0.0005 -0.0000
vn 1.0000 0.0003 -0.0000
vn 0.0001 -0.0000 -1.0000
vn -0.3828 -0.9238 -0.0000
vt 0.000000 1.000000
vt 0.000000 0.750000
vt 0.093750 1.000000
vt 0.093750 0.750000
vt 0.125000 1.000000
vt 0.125000 0.750000
vt 0.218750 1.000000
vt 0.218750 0.750000
vt 0.000000 0.906250
vt 0.062500 1.000000
vt 0.187500 0.750000
vt 0.187500 0.500000
vt 0.250000 0.750000
vt 0.250000 0.500000
vt 0.125000 0.500000
vt 0.375000 1.000000
vt 0.375000 0.875000
vt 0.468750 1.000000
vt 0.468750 0.875000
vt 0.375000 0.750000
vt 0.468750 0.750000
vt 0.500000 0.656250
vt 0.500000 0.750000
vt 0.437500 0.656250
vt 0.437500 0.750000
vt 0.500000 0.625000
vt 0.500000 0.531250
vt 0.437500 0.625000
vt 0.437500 0.531250
vt 0.375000 0.625000
vt 0.375000 0.500000
vt 0.437500 0.500000
vt 0.000000 0.500000
vt 0.093750 0.500000
vt 0.250000 1.000000
vt 0.343750 1.000000
vt 0.343750 0.750000
vt 0.000000 0.437500
vt 0.093750 0.437500
vt 0.500000 1.000000
vt 0.500000 0.937500
vt 0.593750 1.000000
vt 0.593750 0.937500
vt 0.562500 0.843750
vt 0.562500 0.937500
vt 0.500000 0.843750
vt 0.187500 0.406250
vt 0.125000 0.406250
vt 0.500000 0.812500
vt 0.562500 0.812500
vt 0.562500 0.750000
vt 0.187500 0.437500
vt 0.250000 0.437500
vt 0.031250 1.000000
vt 0.625000 0.468750
vt 0.625000 0.500000
vt 0.562500 0.468750
vt 0.562500 0.500000
vt 0.625000 0.437500
vt 0.625000 0.406250
vt 0.562500 0.437500
vt 0.562500 0.406250
vt 0.312500 0.750000
vt 0.312500 0.500000
s 1
usemtl Material_0
f 1/1/1 3/2/1 2/3/1
f 3/2/1 4/4/1 2/3/1
f 5/5/2 7/6/2 6/7/2
f 7/6/2 8/8/2 6/7/2
f 9/9/3 11/1/3 10/9/3
f 11/1/3 12/1/3 10/9/3
f 13/1/4 15/9/4 14/1/4
f 15/9/4 16/9/4 14/1/4
f 17/1/5 19/2/5 18/1/5
f 19/2/5 20/2/5 18/1/5
f 21/1/6 23/2/6 22/1/6
f 23/2/6 24/2/6 22/1/6
f 25/1/1 27/2/1 26/1/1
f 27/2/1 28/2/1 26/1/1
f 29/1/2 31/2/2 30/1/2
f 31/2/2 32/2/2 30/1/2
f 33/10/3 35/10/7 34/1/7
f 35/10/7 36/1/3 34/1/7
f 37/10/4 39/10/8 38/1/8
f 39/10/8 40/1/4 38/1/8
f 41/11/5 43/12/5 42/13/5
f 43/12/5 44/14/5 42/13/5
f 45/6/6 47/15/6 46/11/6
f 47/15/6 48/12/6 46/11/6
f 49/16/1 51/17/1 50/18/1
f 51/17/1 52/19/1 50/18/1
f 53/17/2 55/20/2 54/19/2
f 55/20/2 56/21/2 54/19/2
f 57/22/3 59/23/3 58/24/3
f 59/23/3 60/25/3 58/24/3
f 61/26/4 63/27/4 62/28/4
f 63/27/4 64/29/4 62/28/4
f 65/30/5 67/31/5 66/28/5
f 67/31/5 68/32/5 66/28/5
f 69/20/6 71/30/6 70/25/6
f 71/30/6 72/28/6 70/25/6
f 73/2/1 75/33/1 74/4/1
f 75/33/1 76/34/1 74/4/1
f 77/35/2 79/13/2 78/36/2
f 79/13/2 80/37/2 78/36/2
f 81/9/3 83/1/3 82/9/3
f 83/1/3 84/1/3 82/9/3
f 85/1/4 87/9/4 86/1/4
f 87/9/4 88/9/4 86/1/4
f 89/1/5 91/2/5 90/1/5
f 91/2/5 92/2/5 90/1/5
f 93/1/6 95/2/6 94/1/6
f 95/2/6 96/2/6 94/1/6
f 97/33/1 99/38/1 98/34/1
f 99/38/1 100/39/1 98/34/1
f 101/40/2 103/41/2 102/42/2
f 103/41/2 104/43/2 102/42/2
f 105/44/9 107/45/9 106/46/9
f 107/45/9 108/41/9 106/46/9
f 109/12/10 111/47/10 110/15/10
f 111/47/10 112/48/10 110/15/10
f 113/49/11 115/23/11 114/50/11
f 115/23/11 116/51/11 114/50/11
f 117/12/12 119/52/12 118/14/12
f 119/52/12 120/53/12 118/14/12
f 121/1/1 123/1/1 122/54/1
f 123/1/1 124/54/1 122/54/1
f 125/1/2 127/1/2 126/54/2
f 127/1/2 128/54/2 126/54/2
f 129/55/9 131/56/9 130/57/9
f 131/56/9 132/58/9 130/57/9
f 133/59/10 135/60/10 134/61/10
f 135/60/10 136/62/10 134/61/10
f 137/1/11 139/1/11 138/10/11
f 139/1/11 140/10/11 138/10/11
f 141/1/13 143/1/14 142/10/14
f 143/1/14 144/10/12 142/10/14
f 145/1/1 147/2/1 146/1/1
f 147/2/1 148/2/1 146/1/1
f 149/1/2 151/2/15 150/1/2
f 151/2/15 152/2/15 150/1/2
f 153/10/7 155/10/7 154/1/7
f 155/10/7 156/1/7 154/1/7
f 157/10/4 159/10/4 158/1/16
f 159/10/4 160/1/4 158/1/16
f 161/63/5 163/64/5 162/20/5
f 163/64/5 164/31/5 162/20/5
f 165/13/6 167/14/6 166/63/6
f 167/14/6 168/64/6 166/63/6
o bulletModel_0
v 0.152995 0.152856 0.137115
v 0.863672 -0.141516 0.137115
v -0.038346 -0.309084 0.137115
v 0.672330 -0.603456 0.137115
v 0.863672 -0.141516 -0.362885
v 0.152995 0.152856 -0.362885
v 0.672330 -0.603456 -0.362885
v -0.038346 -0.309084 -0.362885
v 0.863672 -0.141516 -0.362885
v 0.863672 -0.141516 0.137115
v 0.152995 0.152856 -0.362885
v 0.152995 0.152856 0.137115
v -0.038346 -0.309084 -0.362885
v -0.038346 -0.309084 0.137115
v 0.672330 -0.603456 -0.362885
v 0.672330 -0.603456 0.137115
v 0.152995 0.152856 -0.362885
v 0.152995 0.152856 0.137115
v -0.038346 -0.309084 -0.362885
v -0.038346 -0.309084 0.137115
v 0.863672 -0.141516 0.137115
v 0.863672 -0.141516 -0.362885
v 0.672330 -0.603456 0.137115
v 0.672330 -0.603456 -0.362885
v 0.724585 -0.125535 0.098654
v 1.079923 -0.272721 0.098654
v 0.562680 -0.516407 0.098654
v 0.918019 -0.663593 0.098654
v 1.079923 -0.272721 -0.324423
v 0.724585 -0.125535 -0.324423
v 0.918019 -0.663593 -0.324423
v 0.562680 -0.516407 -0.324423
v 1.079923 -0.272721 -0.324423
v 1.079923 -0.272721 0.098654
v 0.724585 -0.125535 -0.324423
v 0.724585 -0.125535 0.098654
v 0.562680 -0.516407 -0.324423
v 0.562680 -0.516407 0.098654
v 0.918019 -0.663593 -0.324423
v 0.918019 -0.663593 0.098654
v 0.724585 -0.125535 -0.324423
v 0.724585 -0.125535 0.098654
v 0.562680 -0.516407 -0.324423
v 0.562680 -0.516407 0.098654
v 1.079923 -0.272721 0.098654
v 1.079923 -0.272721 -0.324423
v 0.918019 -0.663593 0.098654
v 0.918019 -0.663593 -0.324423
vn -0.0000 -0.0000 1.0000
vn -0.0000 -0.0000 -1.0000
vn 0.3827 0.9239 -0.0000
vn -0.3827 -0.9239 -0.0000
vn -0.9239 0.3827 -0.0000
vn 0.9239 -0.3827 -0.0000
vt 0.000000 0.375000
vt 0.000000 0.343750
vt 0.062500 0.375000
vt 0.062500 0.343750
vt 0.625000 1.000000
vt 0.625000 0.968750
vt 0.687500 1.000000
vt 0.687500 0.968750
vt 0.093750 0.312500
vt 0.093750 0.375000
vt 0.062500 0.312500
vt 0.656250 0.937500
vt 0.656250 0.875000
vt 0.625000 0.937500
vt 0.625000 0.875000
vt 0.625000 0.625000
vt 0.625000 0.593750
vt 0.656250 0.625000
vt 0.656250 0.593750
vt 0.375000 0.375000
vt 0.375000 0.343750
vt 0.406250 0.375000
vt 0.406250 0.343750
vt 0.625000 0.562500
vt 0.625000 0.531250
vt 0.656250 0.562500
vt 0.656250 0.531250
vt 0.625000 0.500000
vt 0.625000 0.468750
vt 0.656250 0.500000
vt 0.656250 0.468750
vt 0.593750 0.343750
vt 0.593750 0.375000
vt 0.562500 0.343750
vt 0.562500 0.375000
vt 0.656250 0.437500
vt 0.656250 0.406250
vt 0.625000 0.437500
vt 0.625000 0.406250
vt 0.500000 0.375000
vt 0.500000 0.343750
vt 0.531250 0.375000
vt 0.531250 0.343750
vt 0.437500 0.375000
vt 0.437500 0.343750
vt 0.468750 0.375000
vt 0.468750 0.343750
s 1
usemtl Material_0
f 169/65/17 171/66/17 170/67/17
f 171/66/17 172/68/17 170/67/17
f 173/69/18 175/70/18 174/71/18
f 175/70/18 176/72/18 174/71/18
f 177/73/19 179/74/19 178/75/19
f 179/74/19 180/67/19 178/75/19
f 181/76/20 183/77/20 182/78/20
f 183/77/20 184/79/20 182/78/20
f 185/80/21 187/81/21 186/82/21
f 187/81/21 188/83/21 186/82/21
f 189/84/22 191/85/22 190/86/22
f 191/85/22 192/87/22 190/86/22
f 193/88/17 195/89/17 194/90/17
f 195/89/17 196/91/17 194/90/17
f 197/92/18 199/93/18 198/94/18
f 199/93/18 200/95/18 198/94/18
f 201/96/19 203/97/19 202/98/19
f 203/97/19 204/99/19 202/98/19
f 205/100/20 207/101/20 206/102/20
f 207/101/20 208/103/20 206/102/20
f 209/104/21 211/105/21 210/106/21
f 211/105/21 212/107/21 210/106/21
f 213/108/22 215/109/22 214/110/22
f 215/109/22 216/111/22 214/110/22
o bulletModel_1
v 0.042606 -0.113648 0.348654
v 0.753283 -0.408020 0.348654
v -0.148736 -0.575588 0.348654
v 0.561941 -0.869959 0.348654
v 0.753283 -0.408020 -0.151346
v 0.042606 -0.113648 -0.151346
v 0.561941 -0.869959 -0.151346
v -0.148736 -0.575588 -0.151346
v 0.753283 -0.408020 -0.151346
v 0.753283 -0.408020 0.348654
v 0.042606 -0.113648 -0.151346
v 0.042606 -0.113648 0.348654
v -0.148736 -0.575588 -0.151346
v -0.148736 -0.575588 0.348654
v 0.561941 -0.869959 -0.151346
v 0.561941 -0.869959 0.348654
v 0.042606 -0.113648 -0.151346
v 0.042606 -0.113648 0.348654
v -0.148736 -0.575588 -0.151346
v -0.148736 -0.575588 0.348654
v 0.753283 -0.408020 0.348654
v 0.753283 -0.408020 -0.151346
v 0.561941 -0.869959 0.348654
v 0.561941 -0.869959 -0.151346
v 0.614196 -0.392038 0.310192
v 0.969534 -0.539224 0.310192
v 0.452291 -0.782911 0.310192
v 0.807629 -0.930097 0.310192
v 0.969534 -0.539224 -0.112885
v 0.614196 -0.392038 -0.112885
v 0.807629 -0.930097 -0.112885
v 0.452291 -0.782911 -0.112885
v 0.969534 -0.539224 -0.112885
v 0.969534 -0.539224 0.310192
v 0.614196 -0.392038 -0.112885
v 0.614196 -0.392038 0.310192
v 0.452291 -0.782911 -0.112885
v 0.452291 -0.782911 0.310192
v 0.807629 -0.930097 -0.112885
v 0.807629 -0.930097 0.310192
v 0.614196 -0.392038 -0.112885
v 0.614196 -0.392038 0.310192
v 0.452291 -0.782911 -0.112885
v 0.452291 -0.782911 0.310192
v 0.969534 -0.539224 0.310192
v 0.969534 -0.539224 -0.112885
v 0.807629 -0.930097 0.310192
v 0.807629 -0.930097 -0.112885
vn -0.0000 -0.0000 1.0000
vn -0.0000 -0.0000 -1.0000
vn 0.3827 0.9239 -0.0000
vn -0.3827 -0.9239 -0.0000
vn -0.9239 0.3827 -0.0000
vn 0.9239 -0.3827 -0.0000
vt 0.125000 0.375000
vt 0.125000 0.343750
vt 0.187500 0.375000
vt 0.187500 0.343750
vt 0.625000 0.875000
vt 0.625000 0.843750
vt 0.687500 0.875000
vt 0.687500 0.843750
vt 0.218750 0.312500
vt 0.218750 0.375000
vt 0.187500 0.312500
vt 0.656250 0.812500
vt 0.656250 0.750000
vt 0.625000 0.812500
vt 0.625000 0.750000
vt 0.000000 0.312500
vt 0.000000 0.281250
vt 0.031250 0.312500
vt 0.031250 0.281250
vt 0.625000 0.375000
vt 0.625000 0.343750
vt 0.656250 0.375000
vt 0.656250 0.343750
vt 0.062500 0.312500
vt 0.062500 0.281250
vt 0.093750 0.312500
vt 0.093750 0.281250
vt 0.125000 0.312500
vt 0.125000 0.281250
vt 0.156250 0.312500
vt 0.156250 0.281250
vt 0.718750 0.843750
vt 0.718750 0.875000
vt 0.218750 0.281250
vt 0.187500 0.281250
vt 0.687500 0.937500
vt 0.687500 0.906250
vt 0.718750 0.937500
vt 0.718750 0.906250
vt 0.687500 1.000000
vt 0.687500 0.968750
vt 0.718750 1.000000
vt 0.718750 0.968750
s 1
usemtl Material_0
f 217/112/23 219/113/23 218/114/23
f 219/113/23 220/115/23 218/114/23
f 221/116/24 223/117/24 222/118/24
f 223/117/24 224/119/24 222/118/24
f 225/120/25 227/121/25 226/122/25
f 227/121/25 228/114/25 226/122/25
f 229/123/26 231/124/26 230/125/26
f 231/124/26 232/126/26 230/125/26
f 233/127/27 235/128/27 234/129/27
f 235/128/27 236/130/27 234/129/27
f 237/131/28 239/132/28 238/133/28
f 239/132/28 240/134/28 238/133/28
f 241/135/23 243/136/23 242/137/23
f 243/136/23 244/138/23 242/137/23
f 245/139/24 247/140/24 246/141/24
f 247/140/24 248/142/24 246/141/24
f 249/143/25 251/144/25 250/119/25
f 251/144/25 252/118/25 250/119/25
f 253/120/26 255/145/26 254/122/26
f 255/145/26 256/146/26 254/122/26
f 257/147/27 259/148/27 258/149/27
f 259/148/27 260/150/27 258/149/27
f 261/151/28 263/152/28 262/153/28
f 263/152/28 264/154/28 262/153/28
o bulletModel_2
v 0.540603 -0.569708 0.117885
v 0.895941 -0.716894 0.117885
v 0.378698 -0.960580 0.117885
v 0.734036 -1.107766 0.117885
v 0.895941 -0.716894 -0.305192
v 0.540603 -0.569708 -0.305192
v 0.734036 -1.107766 -0.305192
v 0.378698 -0.960580 -0.305192
v 0.895941 -0.716894 -0.305192
v 0.895941 -0.716894 0.117885
v 0.540603 -0.569708 -0.305192
v 0.540603 -0.569708 0.117885
v 0.378698 -0.960580 -0.305192
v 0.378698 -0.960580 0.117885
v 0.734036 -1.107766 -0.305192
v 0.734036 -1.107766 0.117885
v 0.540603 -0.569708 -0.305192
v 0.540603 -0.569708 0.117885
v 0.378698 -0.960580 -0.305192
v 0.378698 -0.960580 0.117885
v 0.895941 -0.716894 0.117885
v 0.895941 -0.716894 -0.305192
v 0.734036 -1.107766 0.117885
v 0.734036 -1.107766 -0.305192
v -0.030987 -0.291317 0.156346
v 0.679690 -0.585689 0.156346
v -0.222329 -0.753257 0.156346
v 0.488348 -1.047629 0.156346
v 0.679690 -0.585689 -0.343654
v -0.030987 -0.291317 -0.343654
v 0.488348 -1.047629 -0.343654
v -0.222329 -0.753257 -0.343654
v 0.679690 -0.585689 -0.343654
v 0.679690 -0.585689 0.156346
v -0.030987 -0.291317 -0.343654
v -0.030987 -0.291317 0.156346
v -0.222329 -0.753257 -0.343654
v -0.222329 -0.753257 0.156346
v 0.488348 -1.047629 -0.343654
v 0.488348 -1.047629 0.156346
v -0.030987 -0.291317 -0.343654
v -0.030987 -0.291317 0.156346
v -0.222329 -0.753257 -0.343654
v -0.222329 -0.753257 0.156346
v 0.679690 -0.585689 0.156346
v 0.679690 -0.585689 -0.343654
v 0.488348 -1.047629 0.156346
v 0.488348 -1.047629 -0.343654
vn -0.0000 -0.0000 1.0000
vn -0.0000 -0.0000 -1.0000
vn 0.3827 0.9239 -0.0000
vn -0.3827 -0.9239 -0.0000
vn -0.9239 0.3827 -0.0000
vn 0.9239 -0.3827 -0.0000
vt 0.312500 0.312500
vt 0.312500 0.281250
vt 0.343750 0.312500
vt 0.343750 0.281250
vt 0.375000 0.312500
vt 0.375000 0.281250
vt 0.406250 0.312500
vt 0.406250 0.281250
vt 0.718750 0.593750
vt 0.718750 0.625000
vt 0.687500 0.593750
vt 0.687500 0.625000
vt 0.468750 0.312500
vt 0.468750 0.281250
vt 0.437500 0.312500
vt 0.437500 0.281250
vt 0.687500 0.687500
vt 0.687500 0.656250
vt 0.718750 0.687500
vt 0.718750 0.656250
vt 0.687500 0.750000
vt 0.687500 0.718750
vt 0.718750 0.750000
vt 0.718750 0.718750
vt 0.250000 0.375000
vt 0.250000 0.343750
vt 0.312500 0.375000
vt 0.312500 0.343750
vt 0.625000 0.750000
vt 0.625000 0.718750
vt 0.343750 0.375000
vt 0.656250 0.687500
vt 0.656250 0.625000
vt 0.625000 0.687500
vt 0.625000 0.625000
vt 0.250000 0.312500
vt 0.250000 0.281250
vt 0.281250 0.312500
vt 0.281250 0.281250
vt 0.687500 0.812500
vt 0.687500 0.781250
vt 0.718750 0.812500
vt 0.718750 0.781250
s 1
usemtl Material_0
f 265/155/29 267/156/29 266/157/29
f 267/156/29 268/158/29 266/157/29
f 269/159/30 271/160/30 270/161/30
f 271/160/30 272/162/30 270/161/30
f 273/163/31 275/164/31 274/165/31
f 275/164/31 276/166/31 274/165/31
f 277/167/32 279/168/32 278/169/32
f 279/168/32 280/170/32 278/169/32
f 281/171/33 283/172/33 282/173/33
f 283/172/33 284/174/33 282/173/33
f 285/175/34 287/176/34 286/177/34
f 287/176/34 288/178/34 286/177/34
f 289/179/29 291/180/29 290/181/29
f 291/180/29 292/182/29 290/181/29
f 293/183/30 295/184/30 294/175/30
f 295/184/30 296/176/30 294/175/30
f 297/157/31 299/185/31 298/155/31
f 299/185/31 300/181/31 298/155/31
f 301/186/32 303/187/32 302/188/32
f 303/187/32 304/189/32 302/188/32
f 305/190/33 307/191/33 306/192/33
f 307/191/33 308/193/33 306/192/33
f 309/194/34 311/195/34 310/196/34
f 311/195/34 312/197/34 310/196/34
o bulletModel_4
v -0.293661 -0.710971 -0.383077
v 0.417015 -1.005343 -0.383077
v -0.440847 -1.066309 -0.383077
v 0.269829 -1.360681 -0.383077
v 0.417015 -1.005343 -0.383846
v -0.293661 -0.710971 -0.383846
v 0.269829 -1.360681 -0.383846
v -0.440847 -1.066309 -0.383846
v 0.417015 -1.005343 -0.383846
v 0.417015 -1.005343 -0.383077
v -0.293661 -0.710971 -0.383846
v -0.293661 -0.710971 -0.383077
v -0.440847 -1.066309 -0.383846
v -0.440847 -1.066309 -0.383077
v 0.269829 -1.360681 -0.383846
v 0.269829 -1.360681 -0.383077
v -0.293661 -0.710971 -0.383846
v -0.293661 -0.710971 -0.383077
v -0.440847 -1.066309 -0.383846
v -0.440847 -1.066309 -0.383077
v 0.417015 -1.005343 -0.383077
v 0.417015 -1.005343 -0.383846
v 0.269829 -1.360681 -0.383077
v 0.269829 -1.360681 -0.383846
vn -0.0000 -0.0000 1.0000
vn -0.0000 -0.0000 -1.0000
vn 0.3827 0.9239 -0.0000
vn -0.3827 -0.9239 -0.0000
vn -0.9239 0.3827 -0.0000
vn 0.9239 -0.3827 -0.0000
vt 0.312500 0.500000
vt 0.312500 0.468750
vt 0.375000 0.500000
vt 0.375000 0.468750
vt 0.500000 0.687500
vt 0.500000 0.656250
vt 0.562500 0.687500
vt 0.562500 0.656250
vt 0.000000 0.937500
vt 0.000000 1.000000
vt 0.000000 0.968750
s 0
usemtl Material_0.001
f 313/198/35 315/199/35 314/200/35
f 315/199/35 316/201/35 314/200/35
f 317/202/36 319/203/36 318/204/36
f 319/203/36 320/205/36 318/204/36
f 321/206/37 323/207/37 322/206/37
f 323/207/37 324/207/37 322/206/37
f 325/207/38 327/206/38 326/207/38
f 327/206/38 328/206/38 326/207/38
f 329/207/39 331/208/39 330/207/39
f 331/208/39 332/208/39 330/207/39
f 333/207/40 335/208/40 334/207/40
f 335/208/40 336/208/40 334/207/40
o bulletModel_6
v -0.440847 -1.066309 -0.383077
v 0.269829 -1.360681 -0.383077
v -0.588033 -1.421647 -0.383077
v 0.122643 -1.716019 -0.383077
v 0.269829 -1.360681 -0.383846
v -0.440847 -1.066309 -0.383846
v 0.122643 -1.716019 -0.383846
v -0.588033 -1.421647 -0.383846
v 0.269829 -1.360681 -0.383846
v 0.269829 -1.360681 -0.383077
v -0.440847 -1.066309 -0.383846
v -0.440847 -1.066309 -0.383077
v -0.588033 -1.421647 -0.383846
v -0.588033 -1.421647 -0.383077
v 0.122643 -1.716019 -0.383846
v 0.122643 -1.716019 -0.383077
v -0.440847 -1.066309 -0.383846
v -0.440847 -1.066309 -0.383077
v -0.588033 -1.421647 -0.383846
v -0.588033 -1.421647 -0.383077
v 0.269829 -1.360681 -0.383077
v 0.269829 -1.360681 -0.383846
v 0.122643 -1.716019 -0.383077
v 0.122643 -1.716019 -0.383846
vn -0.0000 -0.0000 1.0000
vn -0.0000 -0.0000 -1.0000
vn 0.3827 0.9239 -0.0000
vn -0.3827 -0.9239 -0.0000
vn -0.9239 0.3827 -0.0000
vn 0.9239 -0.3827 -0.0000
vt 0.375000 0.500000
vt 0.375000 0.468750
vt 0.437500 0.500000
vt 0.437500 0.468750
vt 0.500000 0.625000
vt 0.500000 0.593750
vt 0.562500 0.625000
vt 0.562500 0.593750
vt 0.000000 0.937500
vt 0.000000 1.000000
vt 0.000000 0.968750
s 0
usemtl Material_0.001
f 337/209/41 339/210/41 338/211/41
f 339/210/41 340/212/41 338/211/41
f 341/213/42 343/214/42 342/215/42
f 343/214/42 344/216/42 342/215/42
f 345/217/43 347/218/43 346/217/43
f 347/218/43 348/218/43 346/217/43
f 349/218/44 351/217/44 350/218/44
f 351/217/44 352/217/44 350/218/44
f 353/218/45 355/219/45 354/218/45
f 355/219/45 356/219/45 354/218/45
f 357/218/46 359/219/46 358/218/46
f 359/219/46 360/219/46 358/218/46
o bulletModel_10
v -0.735219 -1.776986 -0.383077
v -0.024543 -2.071358 -0.383077
v -0.882405 -2.132324 -0.383077
v -0.171728 -2.426696 -0.383077
v -0.024543 -2.071358 -0.383846
v -0.735219 -1.776986 -0.383846
v -0.171728 -2.426696 -0.383846
v -0.882405 -2.132324 -0.383846
v -0.024543 -2.071358 -0.383846
v -0.024543 -2.071358 -0.383077
v -0.735219 -1.776986 -0.383846
v -0.735219 -1.776986 -0.383077
v -0.882405 -2.132324 -0.383846
v -0.882405 -2.132324 -0.383077
v -0.171728 -2.426696 -0.383846
v -0.171728 -2.426696 -0.383077
v -0.735219 -1.776986 -0.383846
v -0.735219 -1.776986 -0.383077
v -0.882405 -2.132324 -0.383846
v -0.882405 -2.132324 -0.383077
v -0.024543 -2.071358 -0.383077
v -0.024543 -2.071358 -0.383846
v -0.171728 -2.426696 -0.383077
v -0.171728 -2.426696 -0.383846
vn -0.0000 -0.0000 1.0000
vn -0.0000 -0.0000 -1.0000
vn 0.3827 0.9239 -0.0000
vn -0.3827 -0.9239 -0.0000
vn -0.9239 0.3827 -0.0000
vn 0.9239 -0.3827 -0.0000
vt 0.437500 0.500000
vt 0.437500 0.468750
vt 0.500000 0.500000
vt 0.500000 0.468750
vt 0.500000 0.562500
vt 0.500000 0.531250
vt 0.562500 0.562500
vt 0.562500 0.531250
vt 0.000000 0.937500
vt 0.000000 1.000000
vt 0.000000 0.968750
s 0
usemtl Material_0.001
f 361/220/47 363/221/47 362/222/47
f 363/221/47 364/223/47 362/222/47
f 365/224/48 367/225/48 366/226/48
f 367/225/48 368/227/48 366/226/48
f 369/228/49 371/229/49 370/228/49
f 371/229/49 372/229/49 370/228/49
f 373/229/50 375/228/50 374/229/50
f 375/228/50 376/228/50 374/229/50
f 377/229/51 379/230/51 378/229/51
f 379/230/51 380/230/51 378/229/51
f 381/229/52 383/230/52 382/229/52
f 383/230/52 384/230/52 382/229/52
o bulletModel_8
v -0.588033 -1.421647 -0.383077
v 0.122643 -1.716019 -0.383077
v -0.735219 -1.776986 -0.383077
v -0.024543 -2.071358 -0.383077
v 0.122643 -1.716019 -0.383846
v -0.588033 -1.421647 -0.383846
v -0.024543 -2.071358 -0.383846
v -0.735219 -1.776986 -0.383846
v 0.122643 -1.716019 -0.383846
v 0.122643 -1.716019 -0.383077
v -0.588033 -1.421647 -0.383846
v -0.588033 -1.421647 -0.383077
v -0.735219 -1.776986 -0.383846
v -0.735219 -1.776986 -0.383077
v -0.024543 -2.071358 -0.383846
v -0.024543 -2.071358 -0.383077
v -0.588033 -1.421647 -0.383846
v -0.588033 -1.421647 -0.383077
v -0.735219 -1.776986 -0.383846
v -0.735219 -1.776986 -0.383077
v 0.122643 -1.716019 -0.383077
v 0.122643 -1.716019 -0.383846
v -0.024543 -2.071358 -0.383077
v -0.024543 -2.071358 -0.383846
vn -0.0000 -0.0000 1.0000
vn -0.0000 -0.0000 -1.0000
vn 0.3827 0.9239 -0.0000
vn -0.3827 -0.9239 -0.0000
vn -0.9239 0.3827 -0.0000
vn 0.9239 -0.3827 -0.0000
vt 0.500000 0.500000
vt 0.500000 0.468750
vt 0.562500 0.500000
vt 0.562500 0.468750
vt 0.000000 0.437500
vt 0.000000 0.406250
vt 0.062500 0.437500
vt 0.062500 0.406250
vt 0.000000 0.937500
vt 0.000000 1.000000
vt 0.000000 0.968750
s 0
usemtl Material_0.001
f 385/231/53 387/232/53 386/233/53
f 387/232/53 388/234/53 386/233/53
f 389/235/54 391/236/54 390/237/54
f 391/236/54 392/238/54 390/237/54
f 393/239/55 395/240/55 394/239/55
f 395/240/55 396/240/55 394/239/55
f 397/240/56 399/239/56 398/240/56
f 399/239/56 400/239/56 398/240/56
f 401/240/57 403/241/57 402/240/57
f 403/241/57 404/241/57 402/240/57
f 405/240/58 407/241/58 406/240/58
f 407/241/58 408/241/58 406/240/58
o bulletModel_14
v -1.029591 -2.487662 -0.383077
v -0.318915 -2.782034 -0.383077
v -1.176777 -2.843001 -0.383077
v -0.466100 -3.137372 -0.383077
v -0.318915 -2.782034 -0.383846
v -1.029591 -2.487662 -0.383846
v -0.466100 -3.137372 -0.383846
v -1.176777 -2.843001 -0.383846
v -0.318915 -2.782034 -0.383846
v -0.318915 -2.782034 -0.383077
v -1.029591 -2.487662 -0.383846
v -1.029591 -2.487662 -0.383077
v -1.176777 -2.843001 -0.383846
v -1.176777 -2.843001 -0.383077
v -0.466100 -3.137372 -0.383846
v -0.466100 -3.137372 -0.383077
v -1.029591 -2.487662 -0.383846
v -1.029591 -2.487662 -0.383077
v -1.176777 -2.843001 -0.383846
v -1.176777 -2.843001 -0.383077
v -0.318915 -2.782034 -0.383077
v -0.318915 -2.782034 -0.383846
v -0.466100 -3.137372 -0.383077
v -0.466100 -3.137372 -0.383846
vn -0.0000 -0.0000 1.0000
vn -0.0000 -0.0000 -1.0000
vn 0.3827 0.9239 -0.0000
vn -0.3827 -0.9239 -0.0000
vn -0.9239 0.3827 -0.0000
vn 0.9239 -0.3827 -0.0000
vt 0.062500 0.437500
vt 0.062500 0.406250
vt 0.125000 0.437500
vt 0.125000 0.406250
vt 0.562500 0.937500
vt 0.562500 0.906250
vt 0.625000 0.937500
vt 0.625000 0.906250
vt 0.000000 0.937500
vt 0.000000 1.000000
vt 0.000000 0.968750
s 0
usemtl Material_0.001
f 409/242/59 411/243/59 410/244/59
f 411/243/59 412/245/59 410/244/59
f 413/246/60 415/247/60 414/248/60
f 415/247/60 416/249/60 414/248/60
f 417/250/61 419/251/61 418/250/61
f 419/251/61 420/251/61 418/250/61
f 421/251/62 423/250/62 422/251/62
f 423/250/62 424/250/62 422/251/62
f 425/251/63 427/252/63 426/251/63
f 427/252/63 428/252/63 426/251/63
f 429/251/64 431/252/64 430/251/64
f 431/252/64 432/252/64 430/251/64
o bulletModel_12
v -0.882405 -2.132324 -0.383077
v -0.171728 -2.426696 -0.383077
v -1.029591 -2.487662 -0.383077
v -0.318915 -2.782034 -0.383077
v -0.171728 -2.426696 -0.383846
v -0.882405 -2.132324 -0.383846
v -0.318915 -2.782034 -0.383846
v -1.029591 -2.487662 -0.383846
v -0.171728 -2.426696 -0.383846
v -0.171728 -2.426696 -0.383077
v -0.882405 -2.132324 -0.383846
v -0.882405 -2.132324 -0.383077
v -1.029591 -2.487662 -0.383846
v -1.029591 -2.487662 -0.383077
v -0.318915 -2.782034 -0.383846
v -0.318915 -2.782034 -0.383077
v -0.882405 -2.132324 -0.383846
v -0.882405 -2.132324 -0.383077
v -1.029591 -2.487662 -0.383846
v -1.029591 -2.487662 -0.383077
v -0.171728 -2.426696 -0.383077
v -0.171728 -2.426696 -0.383846
v -0.318915 -2.782034 -0.383077
v -0.318915 -2.782034 -0.383846
vn -0.0000 -0.0000 1.0000
vn -0.0000 -0.0000 -1.0000
vn 0.3827 0.9239 -0.0000
vn -0.3827 -0.9239 -0.0000
vn -0.9239 0.3827 -0.0000
vn 0.9239 -0.3827 -0.0000
vt 0.562500 0.875000
vt 0.562500 0.843750
vt 0.625000 0.875000
vt 0.625000 0.843750
vt 0.187500 0.437500
vt 0.187500 0.406250
vt 0.250000 0.437500
vt 0.250000 0.406250
vt 0.000000 0.937500
vt 0.000000 1.000000
vt 0.000000 0.968750
s 0
usemtl Material_0.001
f 433/253/65 435/254/65 434/255/65
f 435/254/65 436/256/65 434/255/65
f 437/257/66 439/258/66 438/259/66
f 439/258/66 440/260/66 438/259/66
f 441/261/67 443/262/67 442/261/67
f 443/262/67 444/262/67 442/261/67
f 445/262/68 447/261/68 446/262/68
f 447/261/68 448/261/68 446/262/68
f 449/262/69 451/263/69 450/262/69
f 451/263/69 452/263/69 450/262/69
f 453/262/70 455/263/70 454/262/70
f 455/263/70 456/263/70 454/262/70
o bulletModel_13
v -1.029591 -2.487662 0.385202
v -0.318914 -2.782034 0.385202
v -1.176777 -2.843001 0.385202
v -0.466100 -3.137372 0.385202
v -0.318914 -2.782034 0.384433
v -1.029591 -2.487662 0.384433
v -0.466100 -3.137372 0.384433
v -1.176777 -2.843001 0.384433
v -0.318914 -2.782034 0.384433
v -0.318914 -2.782034 0.385202
v -1.029591 -2.487662 0.384433
v -1.029591 -2.487662 0.385202
v -1.176777 -2.843001 0.384433
v -1.176777 -2.843001 0.385202
v -0.466100 -3.137372 0.384433
v -0.466100 -3.137372 0.385202
v -1.029591 -2.487662 0.384433
v -1.029591 -2.487662 0.385202
v -1.176777 -2.843001 0.384433
v -1.176777 -2.843001 0.385202
v -0.318914 -2.782034 0.385202
v -0.318914 -2.782034 0.384433
v -0.466100 -3.137372 0.385202
v -0.466100 -3.137372 0.384433
vn -0.0000 -0.0000 1.0000
vn -0.0000 -0.0000 -1.0000
vn 0.3827 0.9239 -0.0000
vn -0.3827 -0.9239 -0.0000
vn -0.9239 0.3827 -0.0000
vn 0.9239 -0.3827 -0.0000
vt 0.250000 0.500000
vt 0.250000 0.468750
vt 0.312500 0.500000
vt 0.312500 0.468750
vt 0.500000 0.750000
vt 0.500000 0.718750
vt 0.562500 0.750000
vt 0.562500 0.718750
vt 0.000000 0.937500
vt 0.000000 1.000000
vt 0.000000 0.968750
s 0
usemtl Material_0.001
f 457/264/71 459/265/71 458/266/71
f 459/265/71 460/267/71 458/266/71
f 461/268/72 463/269/72 462/270/72
f 463/269/72 464/271/72 462/270/72
f 465/272/73 467/273/73 466/272/73
f 467/273/73 468/273/73 466/272/73
f 469/273/74 471/272/74 470/273/74
f 471/272/74 472/272/74 470/273/74
f 473/273/75 475/274/75 474/273/75
f 475/274/75 476/274/75 474/273/75
f 477/273/76 479/274/76 478/273/76
f 479/274/76 480/274/76 478/273/76
o bulletModel_11
v -0.882405 -2.132324 0.385202
v -0.171728 -2.426696 0.385202
v -1.029591 -2.487662 0.385202
v -0.318914 -2.782034 0.385202
v -0.171728 -2.426696 0.384433
v -0.882405 -2.132324 0.384433
v -0.318914 -2.782034 0.384433
v -1.029591 -2.487662 0.384433
v -0.171728 -2.426696 0.384433
v -0.171728 -2.426696 0.385202
v -0.882405 -2.132324 0.384433
v -0.882405 -2.132324 0.385202
v -1.029591 -2.487662 0.384433
v -1.029591 -2.487662 0.385202
v -0.318914 -2.782034 0.384433
v -0.318914 -2.782034 0.385202
v -0.882405 -2.132324 0.384433
v -0.882405 -2.132324 0.385202
v -1.029591 -2.487662 0.384433
v -1.029591 -2.487662 0.385202
v -0.171728 -2.426696 0.385202
v -0.171728 -2.426696 0.384433
v -0.318914 -2.782034 0.385202
v -0.318914 -2.782034 0.384433
vn -0.0000 -0.0000 1.0000
vn -0.0000 -0.0000 -1.0000
vn 0.3827 0.9239 -0.0000
vn -0.3827 -0.9239 -0.0000
vn -0.9239 0.3827 -0.0000
vn 0.9239 -0.3827 -0.0000
vt 0.562500 0.812500
vt 0.562500 0.781250
vt 0.625000 0.812500
vt 0.625000 0.781250
vt 0.250000 0.437500
vt 0.250000 0.406250
vt 0.312500 0.437500
vt 0.312500 0.406250
vt 0.000000 0.937500
vt 0.000000 1.000000
vt 0.000000 0.968750
s 0
usemtl Material_0.001
f 481/275/77 483/276/77 482/277/77
f 483/276/77 484/278/77 482/277/77
f 485/279/78 487/280/78 486/281/78
f 487/280/78 488/282/78 486/281/78
f 489/283/79 491/284/79 490/283/79
f 491/284/79 492/284/79 490/283/79
f 493/284/80 495/283/80 494/284/80
f 495/283/80 496/283/80 494/284/80
f 497/284/81 499/285/81 498/284/81
f 499/285/81 500/285/81 498/284/81
f 501/284/82 503/285/82 502/284/82
f 503/285/82 504/285/82 502/284/82
o bulletModel_9
v -0.735219 -1.776986 0.385202
v -0.024542 -2.071358 0.385202
v -0.882405 -2.132324 0.385202
v -0.171728 -2.426696 0.385202
v -0.024542 -2.071358 0.384433
v -0.735219 -1.776986 0.384433
v -0.171728 -2.426696 0.384433
v -0.882405 -2.132324 0.384433
v -0.024542 -2.071358 0.384433
v -0.024542 -2.071358 0.385202
v -0.735219 -1.776986 0.384433
v -0.735219 -1.776986 0.385202
v -0.882405 -2.132324 0.384433
v -0.882405 -2.132324 0.385202
v -0.171728 -2.426696 0.384433
v -0.171728 -2.426696 0.385202
v -0.735219 -1.776986 0.384433
v -0.735219 -1.776986 0.385202
v -0.882405 -2.132324 0.384433
v -0.882405 -2.132324 0.385202
v -0.024542 -2.071358 0.385202
v -0.024542 -2.071358 0.384433
v -0.171728 -2.426696 0.385202
v -0.171728 -2.426696 0.384433
vn -0.0000 -0.0000 1.0000
vn -0.0000 -0.0000 -1.0000
vn 0.3827 0.9239 -0.0000
vn -0.3827 -0.9239 -0.0000
vn -0.9239 0.3827 -0.0000
vn 0.9239 -0.3827 -0.0000
vt 0.562500 0.750000
vt 0.562500 0.718750
vt 0.625000 0.750000
vt 0.625000 0.718750
vt 0.312500 0.437500
vt 0.312500 0.406250
vt 0.375000 0.437500
vt 0.375000 0.406250
vt 0.000000 0.937500
vt 0.000000 1.000000
vt 0.000000 0.968750
s 0
usemtl Material_0.001
f 505/286/83 507/287/83 506/288/83
f 507/287/83 508/289/83 506/288/83
f 509/290/84 511/291/84 510/292/84
f 511/291/84 512/293/84 510/292/84
f 513/294/85 515/295/85 514/294/85
f 515/295/85 516/295/85 514/294/85
f 517/295/86 519/294/86 518/295/86
f 519/294/86 520/294/86 518/295/86
f 521/295/87 523/296/87 522/295/87
f 523/296/87 524/296/87 522/295/87
f 525/295/88 527/296/88 526/295/88
f 527/296/88 528/296/88 526/295/88
o bulletModel_7
v -0.588033 -1.421647 0.385202
v 0.122644 -1.716019 0.385202
v -0.735219 -1.776986 0.385202
v -0.024542 -2.071358 0.385202
v 0.122644 -1.716019 0.384433
v -0.588033 -1.421647 0.384433
v -0.024542 -2.071358 0.384433
v -0.735219 -1.776986 0.384433
v 0.122644 -1.716019 0.384433
v 0.122644 -1.716019 0.385202
v -0.588033 -1.421647 0.384433
v -0.588033 -1.421647 0.385202
v -0.735219 -1.776986 0.384433
v -0.735219 -1.776986 0.385202
v -0.024542 -2.071358 0.384433
v -0.024542 -2.071358 0.385202
v -0.588033 -1.421647 0.384433
v -0.588033 -1.421647 0.385202
v -0.735219 -1.776986 0.384433
v -0.735219 -1.776986 0.385202
v 0.122644 -1.716019 0.385202
v 0.122644 -1.716019 0.384433
v -0.024542 -2.071358 0.385202
v -0.024542 -2.071358 0.384433
vn -0.0000 -0.0000 1.0000
vn -0.0000 -0.0000 -1.0000
vn 0.3827 0.9239 -0.0000
vn -0.3827 -0.9239 -0.0000
vn -0.9239 0.3827 -0.0000
vn 0.9239 -0.3827 -0.0000
vt 0.562500 0.687500
vt 0.562500 0.656250
vt 0.625000 0.687500
vt 0.625000 0.656250
vt 0.375000 0.437500
vt 0.375000 0.406250
vt 0.437500 0.437500
vt 0.437500 0.406250
vt 0.000000 0.937500
vt 0.000000 1.000000
vt 0.000000 0.968750
s 0
usemtl Material_0.001
f 529/297/89 531/298/89 530/299/89
f 531/298/89 532/300/89 530/299/89
f 533/301/90 535/302/90 534/303/90
f 535/302/90 536/304/90 534/303/90
f 537/305/91 539/306/91 538/305/91
f 539/306/91 540/306/91 538/305/91
f 541/306/92 543/305/92 542/306/92
f 543/305/92 544/305/92 542/306/92
f 545/306/93 547/307/93 546/306/93
f 547/307/93 548/307/93 546/306/93
f 549/306/94 551/307/94 550/306/94
f 551/307/94 552/307/94 550/306/94
o bulletModel_5
v -0.440847 -1.066309 0.385202
v 0.269830 -1.360681 0.385202
v -0.588033 -1.421647 0.385202
v 0.122644 -1.716019 0.385202
v 0.269830 -1.360681 0.384433
v -0.440847 -1.066309 0.384433
v 0.122644 -1.716019 0.384433
v -0.588033 -1.421647 0.384433
v 0.269830 -1.360681 0.384433
v 0.269830 -1.360681 0.385202
v -0.440847 -1.066309 0.384433
v -0.440847 -1.066309 0.385202
v -0.588033 -1.421647 0.384433
v -0.588033 -1.421647 0.385202
v 0.122644 -1.716019 0.384433
v 0.122644 -1.716019 0.385202
v -0.440847 -1.066309 0.384433
v -0.440847 -1.066309 0.385202
v -0.588033 -1.421647 0.384433
v -0.588033 -1.421647 0.385202
v 0.269830 -1.360681 0.385202
v 0.269830 -1.360681 0.384433
v 0.122644 -1.716019 0.385202
v 0.122644 -1.716019 0.384433
vn -0.0000 -0.0000 1.0000
vn -0.0000 -0.0000 -1.0000
vn 0.3827 0.9239 -0.0000
vn -0.3827 -0.9239 -0.0000
vn -0.9239 0.3827 -0.0000
vn 0.9239 -0.3827 -0.0000
vt 0.562500 0.625000
vt 0.562500 0.593750
vt 0.625000 0.625000
vt 0.625000 0.593750
vt 0.437500 0.437500
vt 0.437500 0.406250
vt 0.500000 0.437500
vt 0.500000 0.406250
vt 0.000000 0.937500
vt 0.000000 1.000000
vt 0.000000 0.968750
s 0
usemtl Material_0.001
f 553/308/95 555/309/95 554/310/95
f 555/309/95 556/311/95 554/310/95
f 557/312/96 559/313/96 558/314/96
f 559/313/96 560/315/96 558/314/96
f 561/316/97 563/317/97 562/316/97
f 563/317/97 564/317/97 562/316/97
f 565/317/98 567/316/98 566/317/98
f 567/316/98 568/316/98 566/317/98
f 569/317/99 571/318/99 570/317/99
f 571/318/99 572/318/99 570/317/99
f 573/317/100 575/318/100 574/317/100
f 575/318/100 576/318/100 574/317/100
o bulletModel_3
v -0.293661 -0.710971 0.385202
v 0.417015 -1.005343 0.385202
v -0.440847 -1.066309 0.385202
v 0.269830 -1.360681 0.385202
v 0.417015 -1.005343 0.384433
v -0.293661 -0.710971 0.384433
v 0.269830 -1.360681 0.384433
v -0.440847 -1.066309 0.384433
v 0.417015 -1.005343 0.384433
v 0.417015 -1.005343 0.385202
v -0.293661 -0.710971 0.384433
v -0.293661 -0.710971 0.385202
v -0.440847 -1.066309 0.384433
v -0.440847 -1.066309 0.385202
v 0.269830 -1.360681 0.384433
v 0.269830 -1.360681 0.385202
v -0.293661 -0.710971 0.384433
v -0.293661 -0.710971 0.385202
v -0.440847 -1.066309 0.384433
v -0.440847 -1.066309 0.385202
v 0.417015 -1.005343 0.385202
v 0.417015 -1.005343 0.384433
v 0.269830 -1.360681 0.385202
v 0.269830 -1.360681 0.384433
vn -0.0000 -0.0000 1.0000
vn -0.0000 -0.0000 -1.0000
vn 0.3827 0.9239 -0.0000
vn -0.3827 -0.9239 -0.0000
vn -0.9239 0.3827 -0.0000
vn 0.9239 -0.3827 -0.0000
vt 0.562500 0.562500
vt 0.562500 0.531250
vt 0.625000 0.562500
vt 0.625000 0.531250
vt 0.500000 0.437500
vt 0.500000 0.406250
vt 0.562500 0.437500
vt 0.562500 0.406250
vt 0.000000 0.937500
vt 0.000000 1.000000
vt 0.000000 0.968750
s 0
usemtl Material_0.001
f 577/319/101 579/320/101 578/321/101
f 579/320/101 580/322/101 578/321/101
f 581/323/102 583/324/102 582/325/102
f 583/324/102 584/326/102 582/325/102
f 585/327/103 587/328/103 586/327/103
f 587/328/103 588/328/103 586/327/103
f 589/328/104 591/327/104 590/328/104
f 591/327/104 592/327/104 590/328/104
f 593/328/105 595/329/105 594/328/105
f 595/329/105 596/329/105 594/328/105
f 597/328/106 599/329/106 598/328/106
f 599/329/106 600/329/106 598/328/106
