# Blender 5.2.0 LTS
# www.blender.org
mtllib lev.promagmosin10.mtl
o ammoModel
v 2.691538 0.384615 0.346154
v 2.692307 0.384615 0.346154
v 2.691538 0.000000 0.346154
v 2.692307 0.000000 0.346154
v 2.692307 0.384615 -0.346154
v 2.691538 0.384615 -0.346154
v 2.692307 0.000000 -0.346154
v 2.691538 0.000000 -0.346154
v 2.692307 0.384615 -0.346154
v 2.692307 0.384615 0.346154
v 2.691538 0.384615 -0.346154
v 2.691538 0.384615 0.346154
v 2.691538 0.000000 -0.346154
v 2.691538 0.000000 0.346154
v 2.692307 0.000000 -0.346154
v 2.692307 0.000000 0.346154
v 2.691538 0.384615 -0.346154
v 2.691538 0.384615 0.346154
v 2.691538 0.000000 -0.346154
v 2.691538 0.000000 0.346154
v 2.692307 0.384615 0.346154
v 2.692307 0.384615 -0.346154
v 2.692307 0.000000 0.346154
v 2.692307 0.000000 -0.346154
v 0.913599 -4.010791 0.384615
v 3.400967 -2.980489 0.384615
v 1.060785 -4.366129 0.384615
v 3.548153 -3.335827 0.384615
v 3.400967 -2.980489 -0.384615
v 0.913599 -4.010791 -0.384615
v 3.548153 -3.335827 -0.384615
v 1.060785 -4.366129 -0.384615
v 3.400967 -2.980489 -0.384615
v 3.400967 -2.980489 0.384615
v 0.913599 -4.010791 -0.384615
v 0.913599 -4.010791 0.384615
v 1.060785 -4.366129 -0.384615
v 1.060785 -4.366129 0.384615
v 3.548153 -3.335827 -0.384615
v 3.548153 -3.335827 0.384615
v 0.913599 -4.010791 -0.384615
v 0.913599 -4.010791 0.384615
v 1.060785 -4.366129 -0.384615
v 1.060785 -4.366129 0.384615
v 3.400967 -2.980489 0.384615
v 3.400967 -2.980489 -0.384615
v 3.548153 -3.335827 0.384615
v 3.548153 -3.335827 -0.384615
v 0.000000 0.769231 0.346923
v 2.692307 0.769231 0.346923
v 0.000000 0.000000 0.346923
v 2.692307 0.000000 0.346923
v 2.692307 0.769231 0.346154
v 0.000000 0.769231 0.346154
v 2.692307 0.000000 0.346154
v 0.000000 0.000000 0.346154
v 2.692307 0.769231 0.346154
v 2.692307 0.769231 0.346923
v 0.000000 0.769231 0.346154
v 0.000000 0.769231 0.346923
v 0.000000 0.000000 0.346154
v 0.000000 0.000000 0.346923
v 2.692307 0.000000 0.346154
v 2.692307 0.000000 0.346923
v 0.000000 0.769231 0.346154
v 0.000000 0.769231 0.346923
v 0.000000 0.000000 0.346154
v 0.000000 0.000000 0.346923
v 2.692307 0.769231 0.346923
v 2.692307 0.769231 0.346154
v 2.692307 0.000000 0.346923
v 2.692307 0.000000 0.346154
v -0.000000 0.769231 -0.345385
v 2.692307 0.769231 -0.345385
v -0.000000 0.000000 -0.345385
v 2.692307 0.000000 -0.345385
v 2.692307 0.769231 -0.346154
v -0.000000 0.769231 -0.346154
v 2.692307 0.000000 -0.346154
v -0.000000 0.000000 -0.346154
v 2.692307 0.769231 -0.346154
v 2.692307 0.769231 -0.345385
v -0.000000 0.769231 -0.346154
v -0.000000 0.769231 -0.345385
v -0.000000 0.000000 -0.346154
v -0.000000 0.000000 -0.345385
v 2.692307 0.000000 -0.346154
v 2.692307 0.000000 -0.345385
v -0.000000 0.769231 -0.346154
v -0.000000 0.769231 -0.345385
v -0.000000 0.000000 -0.346154
v -0.000000 0.000000 -0.345385
v 2.692307 0.769231 -0.345385
v 2.692307 0.769231 -0.346154
v 2.692307 0.000000 -0.345385
v 2.692307 0.000000 -0.346154
v 0.000000 0.000000 0.346154
v 2.692307 0.000000 0.346154
v 0.000000 -2.307692 0.346154
v 2.692307 -2.307692 0.346154
v 2.692307 0.000000 -0.346154
v -0.000000 0.000000 -0.346154
v 2.692307 -2.307692 -0.346154
v -0.000000 -2.307692 -0.346154
v 2.692307 0.000000 -0.346154
v 2.692307 0.000000 0.346154
v -0.000000 0.000000 -0.346154
v 0.000000 0.000000 0.346154
v -0.000000 -2.307692 -0.346154
v 0.000000 -2.307692 0.346154
v 2.692307 -2.307692 -0.346154
v 2.692307 -2.307692 0.346154
v -0.000000 0.000000 -0.346154
v 0.000000 0.000000 0.346154
v -0.000000 -2.307692 -0.346154
v 0.000000 -2.307692 0.346154
v 2.692307 0.000000 0.346154
v 2.692307 0.000000 -0.346154
v 2.692307 -2.307692 0.346154
v 2.692307 -2.307692 -0.346154
v 0.000000 -2.307693 0.338462
v 2.487368 -1.277391 0.338461
v 0.735930 -4.084384 0.338461
v 3.223298 -3.054082 0.338461
v 2.487368 -1.277391 -0.338462
v 0.000000 -2.307693 -0.338462
v 3.223298 -3.054082 -0.338462
v 0.735930 -4.084384 -0.338462
v 2.487368 -1.277391 -0.338462
v 2.487368 -1.277391 0.338461
v 0.000000 -2.307693 -0.338462
v 0.000000 -2.307693 0.338462
v 0.735930 -4.084384 -0.338462
v 0.735930 -4.084384 0.338461
v 3.223298 -3.054082 -0.338462
v 3.223298 -3.054082 0.338461
v 0.000000 -2.307693 -0.338462
v 0.000000 -2.307693 0.338462
v 0.735930 -4.084384 -0.338462
v 0.735930 -4.084384 0.338461
v 2.487368 -1.277391 0.338461
v 2.487368 -1.277391 -0.338462
v 3.223298 -3.054082 0.338461
v 3.223298 -3.054082 -0.338462
v -0.000769 0.384615 0.346154
v 0.000000 0.384615 0.346154
v -0.000769 0.000000 0.346154
v 0.000000 0.000000 0.346154
v -0.000000 0.384615 -0.346154
v -0.000769 0.384615 -0.346154
v -0.000000 0.000000 -0.346154
v -0.000769 0.000000 -0.346154
v -0.000000 0.384615 -0.346154
v 0.000000 0.384615 0.346154
v -0.000769 0.384615 -0.346154
v -0.000769 0.384615 0.346154
v -0.000769 0.000000 -0.346154
v -0.000769 0.000000 0.346154
v -0.000000 0.000000 -0.346154
v 0.000000 0.000000 0.346154
v -0.000769 0.384615 -0.346154
v -0.000769 0.384615 0.346154
v -0.000769 0.000000 -0.346154
v -0.000769 0.000000 0.346154
v 0.000000 0.384615 0.346154
v -0.000000 0.384615 -0.346154
v 0.000000 0.000000 0.346154
v -0.000000 0.000000 -0.346154
vn -0.0000 -0.0000 1.0000
vn -0.0000 -0.0000 -1.0000
vn -0.0000 1.0000 -0.0000
vn -0.0000 -1.0000 -0.0000
vn -1.0000 -0.0000 -0.0000
vn 1.0000 -0.0000 -0.0000
vn -0.3827 0.9239 -0.0000
vn 0.3827 -0.9239 -0.0000
vn -0.9239 -0.3827 -0.0000
vn 0.9239 0.3827 -0.0000
vt 0.000000 1.000000
vt 0.000000 0.968750
vt 0.062500 1.000000
vt 0.375000 0.312500
vt 0.375000 0.281250
vt 0.437500 0.312500
vt 0.437500 0.281250
vt 0.312500 0.312500
vt 0.312500 0.281250
vt 0.500000 0.750000
vt 0.500000 0.718750
vt 0.718750 0.750000
vt 0.718750 0.718750
vt 0.500000 0.687500
vt 0.500000 0.656250
vt 0.718750 0.687500
vt 0.718750 0.656250
vt 0.062500 0.406250
vt 0.062500 0.625000
vt 0.000000 0.406250
vt 0.000000 0.625000
vt 0.125000 0.625000
vt 0.125000 0.406250
vt 0.062500 0.312500
vt 0.062500 0.281250
vt 0.125000 0.312500
vt 0.125000 0.281250
vt 0.687500 1.000000
vt 0.687500 0.968750
vt 0.750000 1.000000
vt 0.750000 0.968750
vt 0.125000 0.562500
vt 0.343750 0.625000
vt 0.343750 0.562500
vt 0.375000 0.625000
vt 0.375000 0.562500
vt 0.593750 0.625000
vt 0.593750 0.562500
vt 0.000000 0.781250
vt 0.000000 0.937500
vt 0.125000 0.500000
vt 0.343750 0.500000
vt 0.375000 0.500000
vt 0.593750 0.500000
vt 0.000000 0.812500
vt 0.218750 1.000000
vt 0.218750 0.812500
vt 0.218750 0.625000
vt 0.562500 0.781250
vt 0.562500 1.000000
vt 0.500000 0.781250
vt 0.500000 1.000000
vt 0.187500 0.500000
vt 0.187500 0.281250
vt 0.437500 0.500000
vt 0.312500 0.500000
vt 0.468750 0.812500
vt 0.468750 0.656250
vt 0.250000 0.812500
vt 0.250000 0.656250
vt 0.250000 0.281250
vt 0.250000 0.500000
vt 0.500000 0.500000
vt 0.500000 0.343750
vt 0.562500 0.500000
vt 0.562500 0.343750
vt 0.437500 0.343750
vt 0.687500 0.812500
vt 0.687500 0.781250
vt 0.750000 0.812500
vt 0.750000 0.781250
vt 0.687500 0.937500
vt 0.687500 0.906250
vt 0.750000 0.937500
vt 0.750000 0.906250
s 0
usemtl Material_0.002
f 1/1/1 3/2/1 2/1/1
f 3/2/1 4/2/1 2/1/1
f 5/1/2 7/2/2 6/1/2
f 7/2/2 8/2/2 6/1/2
f 9/3/3 11/3/3 10/1/3
f 11/3/3 12/1/3 10/1/3
f 13/3/4 15/3/4 14/1/4
f 15/3/4 16/1/4 14/1/4
f 17/4/5 19/5/5 18/6/5
f 19/5/5 20/7/5 18/6/5
f 21/8/6 23/9/6 22/4/6
f 23/9/6 24/5/6 22/4/6
f 25/10/1 27/11/1 26/12/1
f 27/11/1 28/13/1 26/12/1
f 29/14/2 31/15/2 30/16/2
f 31/15/2 32/17/2 30/16/2
f 33/18/7 35/19/7 34/20/7
f 35/19/7 36/21/7 34/20/7
f 37/22/8 39/23/8 38/19/8
f 39/23/8 40/18/8 38/19/8
f 41/24/9 43/25/9 42/26/9
f 43/25/9 44/27/9 42/26/9
f 45/28/10 47/29/10 46/30/10
f 47/29/10 48/31/10 46/30/10
f 49/22/1 51/32/1 50/33/1
f 51/32/1 52/34/1 50/33/1
f 53/35/2 55/36/2 54/37/2
f 55/36/2 56/38/2 54/37/2
f 57/39/3 59/1/3 58/39/3
f 59/1/3 60/1/3 58/39/3
f 61/1/4 63/39/4 62/1/4
f 63/39/4 64/39/4 62/1/4
f 65/1/5 67/40/5 66/1/5
f 67/40/5 68/40/5 66/1/5
f 69/1/6 71/40/6 70/1/6
f 71/40/6 72/40/6 70/1/6
f 73/32/1 75/41/1 74/34/1
f 75/41/1 76/42/1 74/34/1
f 77/36/2 79/43/2 78/38/2
f 79/43/2 80/44/2 78/38/2
f 81/39/3 83/1/3 82/39/3
f 83/1/3 84/1/3 82/39/3
f 85/1/4 87/39/4 86/1/4
f 87/39/4 88/39/4 86/1/4
f 89/1/5 91/40/5 90/1/5
f 91/40/5 92/40/5 90/1/5
f 93/1/6 95/40/6 94/1/6
f 95/40/6 96/40/6 94/1/6
f 97/1/1 99/45/1 98/46/1
f 99/45/1 100/47/1 98/46/1
f 101/45/2 103/21/2 102/47/2
f 103/21/2 104/48/2 102/47/2
f 105/49/3 107/50/3 106/51/3
f 107/50/3 108/52/3 106/51/3
f 109/53/4 111/54/4 110/41/4
f 111/54/4 112/27/4 110/41/4
f 113/43/5 115/4/5 114/55/5
f 115/4/5 116/6/5 114/55/5
f 117/56/6 119/8/6 118/43/6
f 119/8/6 120/4/6 118/43/6
f 121/57/1 123/58/1 122/59/1
f 123/58/1 124/60/1 122/59/1
f 125/59/2 127/60/2 126/57/2
f 127/60/2 128/58/2 126/57/2
f 129/61/7 131/62/7 130/54/7
f 131/62/7 132/53/7 130/54/7
f 133/56/8 135/9/8 134/62/8
f 135/9/8 136/61/8 134/62/8
f 137/63/9 139/64/9 138/65/9
f 139/64/9 140/66/9 138/65/9
f 141/55/10 143/67/10 142/63/10
f 143/67/10 144/64/10 142/63/10
f 145/1/1 147/2/1 146/1/1
f 147/2/1 148/2/1 146/1/1
f 149/1/2 151/2/2 150/1/2
f 151/2/2 152/2/2 150/1/2
f 153/3/3 155/3/3 154/1/3
f 155/3/3 156/1/3 154/1/3
f 157/3/4 159/3/4 158/1/4
f 159/3/4 160/1/4 158/1/4
f 161/68/5 163/69/5 162/70/5
f 163/69/5 164/71/5 162/70/5
f 165/72/6 167/73/6 166/74/6
f 167/73/6 168/75/6 166/74/6
o bulletModel_1
v 2.096153 0.750000 0.211538
v 2.673077 0.750000 0.211538
v 2.096153 0.326923 0.211538
v 2.673077 0.326923 0.211538
v 2.673077 0.750000 -0.211539
v 2.096153 0.750000 -0.211539
v 2.673077 0.326923 -0.211539
v 2.096153 0.326923 -0.211539
v 2.673077 0.750000 -0.211539
v 2.673077 0.750000 0.211538
v 2.096153 0.750000 -0.211539
v 2.096153 0.750000 0.211538
v 2.096153 0.326923 -0.211539
v 2.096153 0.326923 0.211538
v 2.673077 0.326923 -0.211539
v 2.673077 0.326923 0.211538
v 2.096153 0.750000 -0.211539
v 2.096153 0.750000 0.211538
v 2.096153 0.326923 -0.211539
v 2.096153 0.326923 0.211538
v 2.673077 0.750000 0.211538
v 2.673077 0.750000 -0.211539
v 2.673077 0.326923 0.211538
v 2.673077 0.326923 -0.211539
v 0.038462 0.865385 0.326923
v 1.192308 0.865385 0.326923
v 0.038462 0.211538 0.326923
v 1.192308 0.211538 0.326923
v 1.192308 0.865385 -0.326923
v 0.038462 0.865385 -0.326923
v 1.192308 0.211538 -0.326923
v 0.038462 0.211538 -0.326923
v 1.192308 0.865385 -0.326923
v 1.192308 0.865385 0.326923
v 0.038462 0.865385 -0.326923
v 0.038462 0.865385 0.326923
v 0.038462 0.211538 -0.326923
v 0.038462 0.211538 0.326923
v 1.192308 0.211538 -0.326923
v 1.192308 0.211538 0.326923
v 0.038462 0.865385 -0.326923
v 0.038462 0.865385 0.326923
v 0.038462 0.211538 -0.326923
v 0.038462 0.211538 0.326923
v 1.192308 0.865385 0.326923
v 1.192308 0.865385 -0.326923
v 1.192308 0.211538 0.326923
v 1.192308 0.211538 -0.326923
v 1.000000 0.826923 0.288461
v 2.153846 0.826923 0.288461
v 1.000000 0.250000 0.288461
v 2.153846 0.250000 0.288461
v 2.153846 0.826923 -0.288462
v 1.000000 0.826923 -0.288462
v 2.153846 0.250000 -0.288462
v 1.000000 0.250000 -0.288462
v 2.153846 0.826923 -0.288462
v 2.153846 0.826923 0.288461
v 1.000000 0.826923 -0.288462
v 1.000000 0.826923 0.288461
v 1.000000 0.250000 -0.288462
v 1.000000 0.250000 0.288461
v 2.153846 0.250000 -0.288462
v 2.153846 0.250000 0.288461
v 1.000000 0.826923 -0.288462
v 1.000000 0.826923 0.288461
v 1.000000 0.250000 -0.288462
v 1.000000 0.250000 0.288461
v 2.153846 0.826923 0.288461
v 2.153846 0.826923 -0.288462
v 2.153846 0.250000 0.288461
v 2.153846 0.250000 -0.288462
vn -0.0000 -0.0000 1.0000
vn -0.0000 -0.0000 -1.0000
vn -0.0000 1.0000 -0.0000
vn -0.0000 -1.0000 -0.0000
vn -1.0000 -0.0000 -0.0000
vn 1.0000 -0.0000 -0.0000
vt 0.687500 0.625000
vt 0.687500 0.593750
vt 0.750000 0.625000
vt 0.750000 0.593750
vt 0.437500 0.312500
vt 0.437500 0.281250
vt 0.500000 0.312500
vt 0.500000 0.281250
vt 0.718750 0.500000
vt 0.718750 0.562500
vt 0.687500 0.500000
vt 0.687500 0.562500
vt 0.531250 0.312500
vt 0.531250 0.250000
vt 0.500000 0.250000
vt 0.562500 0.312500
vt 0.562500 0.281250
vt 0.593750 0.312500
vt 0.593750 0.281250
vt 0.687500 0.468750
vt 0.718750 0.468750
vt 0.562500 1.000000
vt 0.562500 0.937500
vt 0.656250 1.000000
vt 0.656250 0.937500
vt 0.562500 0.875000
vt 0.656250 0.875000
vt 0.625000 0.781250
vt 0.625000 0.875000
vt 0.562500 0.781250
vt 0.625000 0.500000
vt 0.625000 0.406250
vt 0.562500 0.500000
vt 0.562500 0.406250
vt 0.562500 0.375000
vt 0.625000 0.375000
vt 0.625000 0.312500
vt 0.625000 0.812500
vt 0.625000 0.750000
vt 0.687500 0.812500
vt 0.687500 0.750000
vt 0.000000 0.375000
vt 0.000000 0.312500
vt 0.093750 0.375000
vt 0.093750 0.312500
vt 0.718750 0.875000
vt 0.718750 0.812500
vt 0.687500 0.531250
vt 0.625000 0.531250
vt 0.625000 0.625000
vt 0.687500 0.406250
vt 0.000000 0.250000
vt 0.062500 0.312500
vt 0.062500 0.250000
vt 0.687500 0.375000
vt 0.687500 0.312500
s 0
usemtl Material_0.002
f 169/76/11 171/77/11 170/78/11
f 171/77/11 172/79/11 170/78/11
f 173/80/12 175/81/12 174/82/12
f 175/81/12 176/83/12 174/82/12
f 177/84/13 179/85/13 178/86/13
f 179/85/13 180/87/13 178/86/13
f 181/88/14 183/89/14 182/82/14
f 183/89/14 184/90/14 182/82/14
f 185/91/15 187/92/15 186/93/15
f 187/92/15 188/94/15 186/93/15
f 189/86/16 191/95/16 190/84/16
f 191/95/16 192/96/16 190/84/16
f 193/97/11 195/98/11 194/99/11
f 195/98/11 196/100/11 194/99/11
f 197/98/12 199/101/12 198/100/12
f 199/101/12 200/102/12 198/100/12
f 201/103/13 203/104/13 202/105/13
f 203/104/13 204/101/13 202/105/13
f 205/106/14 207/107/14 206/108/14
f 207/107/14 208/109/14 206/108/14
f 209/110/15 211/91/15 210/111/15
f 211/91/15 212/112/15 210/111/15
f 213/113/16 215/114/16 214/115/16
f 215/114/16 216/116/16 214/115/16
f 217/117/11 219/118/11 218/119/11
f 219/118/11 220/120/11 218/119/11
f 221/104/12 223/113/12 222/121/12
f 223/113/12 224/122/12 222/121/12
f 225/123/13 227/76/13 226/124/13
f 227/76/13 228/125/13 226/124/13
f 229/86/14 231/126/14 230/106/14
f 231/126/14 232/107/14 230/106/14
f 233/118/15 235/127/15 234/128/15
f 235/127/15 236/129/15 234/128/15
f 237/111/16 239/112/16 238/130/16
f 239/112/16 240/131/16 238/130/16
