# Blender 4.5.2 LTS
# www.blender.org
mtllib lev.ppshmag.mtl
o bulletModel_0
v 0.442308 0.307692 0.173077
v 0.788461 0.307692 0.173077
v 0.442308 -0.038462 0.173077
v 0.788461 -0.038462 0.173077
v 0.788461 0.307692 -0.173077
v 0.442308 0.307692 -0.173077
v 0.788461 -0.038462 -0.173077
v 0.442308 -0.038462 -0.173077
v 0.788461 0.307692 -0.173077
v 0.788461 0.307692 0.173077
v 0.442308 0.307692 -0.173077
v 0.442308 0.307692 0.173077
v 0.442308 -0.038462 -0.173077
v 0.442308 -0.038462 0.173077
v 0.788461 -0.038462 -0.173077
v 0.788461 -0.038462 0.173077
v 0.442308 0.307692 -0.173077
v 0.442308 0.307692 0.173077
v 0.442308 -0.038462 -0.173077
v 0.442308 -0.038462 0.173077
v 0.788461 0.307692 0.173077
v 0.788461 0.307692 -0.173077
v 0.788461 -0.038462 0.173077
v 0.788461 -0.038462 -0.173077
v 0.788461 0.307692 0.173077
v 1.134615 0.307692 0.173077
v 0.788461 -0.038462 0.173077
v 1.134615 -0.038462 0.173077
v 1.134615 0.307692 -0.173077
v 0.788461 0.307692 -0.173077
v 1.134615 -0.038462 -0.173077
v 0.788461 -0.038462 -0.173077
v 1.134615 0.307692 -0.173077
v 1.134615 0.307692 0.173077
v 0.788461 0.307692 -0.173077
v 0.788461 0.307692 0.173077
v 0.788461 -0.038462 -0.173077
v 0.788461 -0.038462 0.173077
v 1.134615 -0.038462 -0.173077
v 1.134615 -0.038462 0.173077
v 0.788461 0.307692 -0.173077
v 0.788461 0.307692 0.173077
v 0.788461 -0.038462 -0.173077
v 0.788461 -0.038462 0.173077
v 1.134615 0.307692 0.173077
v 1.134615 0.307692 -0.173077
v 1.134615 -0.038462 0.173077
v 1.134615 -0.038462 -0.173077
v 0.019231 0.346154 0.211538
v 0.692308 0.346154 0.211538
v 0.019231 -0.076923 0.211538
v 0.692308 -0.076923 0.211538
v 0.692308 0.346154 -0.211538
v 0.019231 0.346154 -0.211538
v 0.692308 -0.076923 -0.211538
v 0.019231 -0.076923 -0.211538
v 0.692308 0.346154 -0.211538
v 0.692308 0.346154 0.211538
v 0.019231 0.346154 -0.211538
v 0.019231 0.346154 0.211538
v 0.019231 -0.076923 -0.211538
v 0.019231 -0.076923 0.211538
v 0.692308 -0.076923 -0.211538
v 0.692308 -0.076923 0.211538
v 0.019231 0.346154 -0.211538
v 0.019231 0.346154 0.211538
v 0.019231 -0.076923 -0.211538
v 0.019231 -0.076923 0.211538
v 0.692308 0.346154 0.211538
v 0.692308 0.346154 -0.211538
v 0.692308 -0.076923 0.211538
v 0.692308 -0.076923 -0.211538
vn -0.0000 -0.0000 1.0000
vn -0.0000 -0.0000 -1.0000
vn -0.0000 1.0000 -0.0000
vn -0.0000 -1.0000 -0.0000
vn -1.0000 -0.0000 -0.0000
vn 1.0000 -0.0000 -0.0000
vt 0.625000 1.000000
vt 0.625000 0.968750
vt 0.656250 1.000000
vt 0.656250 0.968750
vt 0.625000 0.937500
vt 0.625000 0.906250
vt 0.656250 0.937500
vt 0.656250 0.906250
vt 0.156250 0.343750
vt 0.156250 0.375000
vt 0.125000 0.343750
vt 0.125000 0.375000
vt 0.656250 0.875000
vt 0.656250 0.843750
vt 0.625000 0.875000
vt 0.625000 0.843750
vt 0.062500 0.375000
vt 0.062500 0.343750
vt 0.093750 0.375000
vt 0.093750 0.343750
vt 0.000000 0.375000
vt 0.000000 0.343750
vt 0.031250 0.375000
vt 0.031250 0.343750
vt 0.312500 0.437500
vt 0.312500 0.406250
vt 0.343750 0.437500
vt 0.343750 0.406250
vt 0.437500 0.437500
vt 0.437500 0.406250
vt 0.468750 0.437500
vt 0.468750 0.406250
vt 0.593750 0.531250
vt 0.593750 0.562500
vt 0.562500 0.531250
vt 0.562500 0.562500
vt 0.531250 0.437500
vt 0.531250 0.406250
vt 0.500000 0.437500
vt 0.500000 0.406250
vt 0.375000 0.437500
vt 0.375000 0.406250
vt 0.406250 0.437500
vt 0.406250 0.406250
vt 0.562500 0.812500
vt 0.562500 0.781250
vt 0.593750 0.812500
vt 0.593750 0.781250
vt 0.437500 0.500000
vt 0.437500 0.468750
vt 0.500000 0.500000
vt 0.500000 0.468750
vt 0.500000 0.562500
vt 0.500000 0.531250
vt 0.531250 0.500000
vt 0.593750 0.875000
vt 0.562500 0.875000
vt 0.562500 0.437500
vt 0.562500 0.406250
vt 0.593750 0.437500
vt 0.593750 0.406250
vt 0.562500 0.500000
vt 0.562500 0.468750
vt 0.593750 0.500000
vt 0.593750 0.468750
s 0
usemtl Material_0.003
f 1/1/1 3/2/1 2/3/1
f 3/2/1 4/4/1 2/3/1
f 5/5/2 7/6/2 6/7/2
f 7/6/2 8/8/2 6/7/2
f 9/9/3 11/10/3 10/11/3
f 11/10/3 12/12/3 10/11/3
f 13/13/4 15/14/4 14/15/4
f 15/14/4 16/16/4 14/15/4
f 17/17/5 19/18/5 18/19/5
f 19/18/5 20/20/5 18/19/5
f 21/21/6 23/22/6 22/23/6
f 23/22/6 24/24/6 22/23/6
f 25/25/1 27/26/1 26/27/1
f 27/26/1 28/28/1 26/27/1
f 29/29/2 31/30/2 30/31/2
f 31/30/2 32/32/2 30/31/2
f 33/33/3 35/34/3 34/35/3
f 35/34/3 36/36/3 34/35/3
f 37/37/4 39/38/4 38/39/4
f 39/38/4 40/40/4 38/39/4
f 41/41/5 43/42/5 42/43/5
f 43/42/5 44/44/5 42/43/5
f 45/45/6 47/46/6 46/47/6
f 47/46/6 48/48/6 46/47/6
f 49/49/1 51/50/1 50/51/1
f 51/50/1 52/52/1 50/51/1
f 53/53/2 55/54/2 54/36/2
f 55/54/2 56/35/2 54/36/2
f 57/37/3 59/55/3 58/39/3
f 59/55/3 60/51/3 58/39/3
f 61/56/4 63/47/4 62/57/4
f 63/47/4 64/45/4 62/57/4
f 65/58/5 67/59/5 66/60/5
f 67/59/5 68/61/5 66/60/5
f 69/62/6 71/63/6 70/64/6
f 71/63/6 72/65/6 70/64/6
o ammoModel
v -0.000000 0.384615 -0.268462
v 1.153846 0.384615 -0.268462
v -0.000000 0.000000 -0.268462
v 1.153846 0.000000 -0.268462
v 1.153846 0.384615 -0.269231
v -0.000000 0.384615 -0.269231
v 1.153846 0.000000 -0.269231
v -0.000000 0.000000 -0.269231
v 1.153846 0.384615 -0.269231
v 1.153846 0.384615 -0.268462
v -0.000000 0.384615 -0.269231
v -0.000000 0.384615 -0.268462
v -0.000000 0.000000 -0.269231
v -0.000000 0.000000 -0.268462
v 1.153846 0.000000 -0.269231
v 1.153846 0.000000 -0.268462
v -0.000000 0.384615 -0.269231
v -0.000000 0.384615 -0.268462
v -0.000000 0.000000 -0.269231
v -0.000000 0.000000 -0.268462
v 1.153846 0.384615 -0.268462
v 1.153846 0.384615 -0.269231
v 1.153846 0.000000 -0.268462
v 1.153846 0.000000 -0.269231
v 0.000000 0.384615 0.270000
v 1.153846 0.384615 0.270000
v 0.000000 0.000000 0.270000
v 1.153846 0.000000 0.270000
v 1.153846 0.384615 0.269231
v 0.000000 0.384615 0.269231
v 1.153846 0.000000 0.269231
v 0.000000 0.000000 0.269231
v 1.153846 0.384615 0.269231
v 1.153846 0.384615 0.270000
v 0.000000 0.384615 0.269231
v 0.000000 0.384615 0.270000
v 0.000000 0.000000 0.269231
v 0.000000 0.000000 0.270000
v 1.153846 0.000000 0.269231
v 1.153846 0.000000 0.270000
v 0.000000 0.384615 0.269231
v 0.000000 0.384615 0.270000
v 0.000000 0.000000 0.269231
v 0.000000 0.000000 0.270000
v 1.153846 0.384615 0.270000
v 1.153846 0.384615 0.269231
v 1.153846 0.000000 0.270000
v 1.153846 0.000000 0.269231
v 0.000000 0.000769 0.576923
v 1.153846 0.000769 0.576923
v 0.000000 0.000000 0.576923
v 1.153846 0.000000 0.576923
v 1.153846 0.000769 -0.576923
v -0.000000 0.000769 -0.576923
v 1.153846 0.000000 -0.576923
v -0.000000 0.000000 -0.576923
v 1.153846 0.000769 -0.576923
v 1.153846 0.000769 0.576923
v -0.000000 0.000769 -0.576923
v 0.000000 0.000769 0.576923
v -0.000000 0.000000 -0.576923
v 0.000000 0.000000 0.576923
v 1.153846 0.000000 -0.576923
v 1.153846 0.000000 0.576923
v -0.000000 0.000769 -0.576923
v 0.000000 0.000769 0.576923
v -0.000000 0.000000 -0.576923
v 0.000000 0.000000 0.576923
v 1.153846 0.000769 0.576923
v 1.153846 0.000769 -0.576923
v 1.153846 0.000000 0.576923
v 1.153846 0.000000 -0.576923
v 0.000000 -2.692308 0.383846
v 1.066015 -2.250750 0.383846
v 1.177488 -5.535014 0.383846
v 2.243502 -5.093456 0.383846
v 1.066015 -2.250750 -0.383846
v 0.000000 -2.692308 -0.383846
v 2.243502 -5.093456 -0.383846
v 1.177488 -5.535014 -0.383846
v 1.066015 -2.250750 -0.383846
v 1.066015 -2.250750 0.383846
v 0.000000 -2.692308 -0.383846
v 0.000000 -2.692308 0.383846
v 1.177488 -5.535014 -0.383846
v 1.177488 -5.535014 0.383846
v 2.243502 -5.093456 -0.383846
v 2.243502 -5.093456 0.383846
v 0.000000 -2.692308 -0.383846
v 0.000000 -2.692308 0.383846
v 1.177488 -5.535014 -0.383846
v 1.177488 -5.535014 0.383846
v 1.066015 -2.250750 0.383846
v 1.066015 -2.250750 -0.383846
v 2.243502 -5.093456 0.383846
v 2.243502 -5.093456 -0.383846
v 0.000000 0.000000 0.384615
v 1.153846 0.000000 0.384615
v 0.000000 -2.692308 0.384615
v 1.153846 -2.692308 0.384615
v 1.153846 0.000000 -0.384615
v -0.000000 0.000000 -0.384615
v 1.153846 -2.692308 -0.384615
v -0.000000 -2.692308 -0.384615
v 1.153846 0.000000 -0.384615
v 1.153846 0.000000 0.384615
v -0.000000 0.000000 -0.384615
v 0.000000 0.000000 0.384615
v -0.000000 -2.692308 -0.384615
v 0.000000 -2.692308 0.384615
v 1.153846 -2.692308 -0.384615
v 1.153846 -2.692308 0.384615
v -0.000000 0.000000 -0.384615
v 0.000000 0.000000 0.384615
v -0.000000 -2.692308 -0.384615
v 0.000000 -2.692308 0.384615
v 1.153846 0.000000 0.384615
v 1.153846 0.000000 -0.384615
v 1.153846 -2.692308 0.384615
v 1.153846 -2.692308 -0.384615
v 0.000000 0.000000 0.577692
v 1.153846 0.000000 0.577692
v 0.000000 -1.153846 0.577692
v 1.153846 -1.153846 0.577692
v 1.153846 0.000000 0.576923
v 0.000000 0.000000 0.576923
v 1.153846 -1.153846 0.576923
v 0.000000 -1.153846 0.576923
v 1.153846 0.000000 0.576923
v 1.153846 0.000000 0.577692
v 0.000000 0.000000 0.576923
v 0.000000 0.000000 0.577692
v 0.000000 -1.153846 0.576923
v 0.000000 -1.153846 0.577692
v 1.153846 -1.153846 0.576923
v 1.153846 -1.153846 0.577692
v 0.000000 0.000000 0.576923
v 0.000000 0.000000 0.577692
v 0.000000 -1.153846 0.576923
v 0.000000 -1.153846 0.577692
v 1.153846 0.000000 0.577692
v 1.153846 0.000000 0.576923
v 1.153846 -1.153846 0.577692
v 1.153846 -1.153846 0.576923
v -0.000000 0.000000 -0.576154
v 1.153846 0.000000 -0.576154
v -0.000000 -1.153846 -0.576154
v 1.153846 -1.153846 -0.576154
v 1.153846 0.000000 -0.576923
v -0.000000 0.000000 -0.576923
v 1.153846 -1.153846 -0.576923
v -0.000000 -1.153846 -0.576923
v 1.153846 0.000000 -0.576923
v 1.153846 0.000000 -0.576154
v -0.000000 0.000000 -0.576923
v -0.000000 0.000000 -0.576154
v -0.000000 -1.153846 -0.576923
v -0.000000 -1.153846 -0.576154
v 1.153846 -1.153846 -0.576923
v 1.153846 -1.153846 -0.576154
v -0.000000 0.000000 -0.576923
v -0.000000 0.000000 -0.576154
v -0.000000 -1.153846 -0.576923
v -0.000000 -1.153846 -0.576154
v 1.153846 0.000000 -0.576154
v 1.153846 0.000000 -0.576923
v 1.153846 -1.153846 -0.576154
v 1.153846 -1.153846 -0.576923
v 1.153077 0.000000 0.576923
v 1.153846 0.000000 0.576923
v 1.153077 -1.153846 0.576923
v 1.153846 -1.153846 0.576923
v 1.153846 0.000000 -0.576923
v 1.153077 0.000000 -0.576923
v 1.153846 -1.153846 -0.576923
v 1.153077 -1.153846 -0.576923
v 1.153846 0.000000 -0.576923
v 1.153846 0.000000 0.576923
v 1.153077 0.000000 -0.576923
v 1.153077 0.000000 0.576923
v 1.153077 -1.153846 -0.576923
v 1.153077 -1.153846 0.576923
v 1.153846 -1.153846 -0.576923
v 1.153846 -1.153846 0.576923
v 1.153077 0.000000 -0.576923
v 1.153077 0.000000 0.576923
v 1.153077 -1.153846 -0.576923
v 1.153077 -1.153846 0.576923
v 1.153846 0.000000 0.576923
v 1.153846 0.000000 -0.576923
v 1.153846 -1.153846 0.576923
v 1.153846 -1.153846 -0.576923
v -0.000769 0.000000 0.576923
v 0.000000 0.000000 0.576923
v -0.000769 -1.153846 0.576923
v 0.000000 -1.153846 0.576923
v -0.000000 0.000000 -0.576923
v -0.000769 0.000000 -0.576923
v -0.000000 -1.153846 -0.576923
v -0.000769 -1.153846 -0.576923
v -0.000000 0.000000 -0.576923
v 0.000000 0.000000 0.576923
v -0.000769 0.000000 -0.576923
v -0.000769 0.000000 0.576923
v -0.000769 -1.153846 -0.576923
v -0.000769 -1.153846 0.576923
v -0.000000 -1.153846 -0.576923
v 0.000000 -1.153846 0.576923
v -0.000769 0.000000 -0.576923
v -0.000769 0.000000 0.576923
v -0.000769 -1.153846 -0.576923
v -0.000769 -1.153846 0.576923
v 0.000000 0.000000 0.576923
v -0.000000 0.000000 -0.576923
v 0.000000 -1.153846 0.576923
v -0.000000 -1.153846 -0.576923
v 0.000000 -1.153077 0.576923
v 1.153846 -1.153077 0.576923
v 0.000000 -1.153846 0.576923
v 1.153846 -1.153846 0.576923
v 1.153846 -1.153077 -0.576923
v -0.000000 -1.153077 -0.576923
v 1.153846 -1.153846 -0.576923
v -0.000000 -1.153846 -0.576923
v 1.153846 -1.153077 -0.576923
v 1.153846 -1.153077 0.576923
v -0.000000 -1.153077 -0.576923
v 0.000000 -1.153077 0.576923
v -0.000000 -1.153846 -0.576923
v 0.000000 -1.153846 0.576923
v 1.153846 -1.153846 -0.576923
v 1.153846 -1.153846 0.576923
v -0.000000 -1.153077 -0.576923
v 0.000000 -1.153077 0.576923
v -0.000000 -1.153846 -0.576923
v 0.000000 -1.153846 0.576923
v 1.153846 -1.153077 0.576923
v 1.153846 -1.153077 -0.576923
v 1.153846 -1.153846 0.576923
v 1.153846 -1.153846 -0.576923
vn -0.0000 -0.0000 1.0000
vn -0.0000 -0.0000 -1.0000
vn -0.0000 1.0000 -0.0000
vn -0.0000 -1.0000 -0.0000
vn -1.0000 -0.0000 -0.0000
vn 1.0000 -0.0000 -0.0000
vn -0.3827 0.9239 -0.0000
vn 0.3827 -0.9239 -0.0000
vn -0.9239 -0.3827 -0.0000
vn 0.9239 0.3827 -0.0000
vt 0.500000 0.687500
vt 0.500000 0.656250
vt 0.593750 0.687500
vt 0.593750 0.656250
vt 0.500000 0.625000
vt 0.500000 0.593750
vt 0.593750 0.625000
vt 0.593750 0.593750
vt 0.000000 0.906250
vt 0.000000 1.000000
vt 0.000000 0.968750
vt 0.500000 0.750000
vt 0.500000 0.718750
vt 0.593750 0.750000
vt 0.593750 0.718750
vt 0.312500 0.500000
vt 0.312500 0.468750
vt 0.406250 0.500000
vt 0.406250 0.468750
vt 0.375000 0.875000
vt 0.375000 0.781250
vt 0.468750 0.875000
vt 0.468750 0.781250
vt 0.375000 0.625000
vt 0.375000 0.531250
vt 0.468750 0.625000
vt 0.468750 0.531250
vt 0.093750 0.406250
vt 0.093750 0.500000
vt 0.000000 0.406250
vt 0.000000 0.500000
vt 0.593750 1.000000
vt 0.593750 0.906250
vt 0.500000 1.000000
vt 0.500000 0.906250
vt 0.375000 0.750000
vt 0.375000 0.656250
vt 0.468750 0.750000
vt 0.468750 0.656250
vt 0.375000 1.000000
vt 0.375000 0.906250
vt 0.468750 1.000000
vt 0.468750 0.906250
vt 0.218750 1.000000
vt 0.218750 0.750000
vt 0.125000 1.000000
vt 0.125000 0.750000
vt 0.250000 0.406250
vt 0.250000 0.500000
vt 0.187500 0.406250
vt 0.187500 0.500000
vt 0.312500 0.406250
vt 0.187500 0.750000
vt 0.250000 0.750000
vt 0.125000 0.500000
vt 0.343750 1.000000
vt 0.343750 0.781250
vt 0.250000 1.000000
vt 0.250000 0.781250
vt 0.125000 0.406250
vt 0.562500 0.875000
vt 0.562500 0.781250
vt 0.500000 0.875000
vt 0.500000 0.781250
vt 0.312500 0.750000
vt 0.312500 0.531250
vt 0.250000 0.531250
s 0
usemtl Material_0.004
f 73/66/7 75/67/7 74/68/7
f 75/67/7 76/69/7 74/68/7
f 77/70/8 79/71/8 78/72/8
f 79/71/8 80/73/8 78/72/8
f 81/74/9 83/75/9 82/74/9
f 83/75/9 84/75/9 82/74/9
f 85/75/10 87/74/10 86/75/10
f 87/74/10 88/74/10 86/75/10
f 89/75/11 91/76/11 90/75/11
f 91/76/11 92/76/11 90/75/11
f 93/75/12 95/76/12 94/75/12
f 95/76/12 96/76/12 94/75/12
f 97/77/7 99/78/7 98/79/7
f 99/78/7 100/80/7 98/79/7
f 101/81/8 103/82/8 102/83/8
f 103/82/8 104/84/8 102/83/8
f 105/74/9 107/75/9 106/74/9
f 107/75/9 108/75/9 106/74/9
f 109/75/10 111/74/10 110/75/10
f 111/74/10 112/74/10 110/75/10
f 113/75/11 115/76/11 114/75/11
f 115/76/11 116/76/11 114/75/11
f 117/75/12 119/76/12 118/75/12
f 119/76/12 120/76/12 118/75/12
f 121/85/7 123/86/7 122/87/7
f 123/86/7 124/88/7 122/87/7
f 125/89/8 127/90/8 126/91/8
f 127/90/8 128/92/8 126/91/8
f 129/93/9 131/94/9 130/95/9
f 131/94/9 132/96/9 130/95/9
f 133/97/10 135/98/10 134/99/10
f 135/98/10 136/100/10 134/99/10
f 137/101/11 139/102/11 138/103/11
f 139/102/11 140/104/11 138/103/11
f 141/105/12 143/106/12 142/107/12
f 143/106/12 144/108/12 142/107/12
f 145/109/7 147/110/7 146/111/7
f 147/110/7 148/112/7 146/111/7
f 149/111/8 151/112/8 150/109/8
f 151/112/8 152/110/8 150/109/8
f 153/113/13 155/114/13 154/115/13
f 155/114/13 156/116/13 154/115/13
f 157/81/14 159/117/14 158/114/14
f 159/117/14 160/113/14 158/114/14
f 161/118/15 163/116/15 162/119/15
f 163/116/15 164/114/15 162/119/15
f 165/112/16 167/120/16 166/118/16
f 167/120/16 168/116/16 166/118/16
f 169/121/7 171/122/7 170/123/7
f 171/122/7 172/124/7 170/123/7
f 173/123/8 175/124/8 174/121/8
f 175/124/8 176/122/8 174/121/8
f 177/115/9 179/116/9 178/125/9
f 179/116/9 180/120/9 178/125/9
f 181/126/10 183/127/10 182/128/10
f 183/127/10 184/129/10 182/128/10
f 185/130/11 187/131/11 186/101/11
f 187/131/11 188/90/11 186/101/11
f 189/119/12 191/132/12 190/130/12
f 191/132/12 192/131/12 190/130/12
f 193/85/7 195/86/7 194/87/7
f 195/86/7 196/88/7 194/87/7
f 197/89/8 199/90/8 198/91/8
f 199/90/8 200/92/8 198/91/8
f 201/93/9 203/94/9 202/95/9
f 203/94/9 204/96/9 202/95/9
f 205/97/10 207/98/10 206/99/10
f 207/98/10 208/100/10 206/99/10
f 209/101/11 211/102/11 210/103/11
f 211/102/11 212/104/11 210/103/11
f 213/105/12 215/106/12 214/107/12
f 215/106/12 216/108/12 214/107/12
f 217/85/7 219/86/7 218/87/7
f 219/86/7 220/88/7 218/87/7
f 221/89/8 223/90/8 222/91/8
f 223/90/8 224/92/8 222/91/8
f 225/93/9 227/94/9 226/95/9
f 227/94/9 228/96/9 226/95/9
f 229/97/10 231/98/10 230/99/10
f 231/98/10 232/100/10 230/99/10
f 233/101/11 235/102/11 234/103/11
f 235/102/11 236/104/11 234/103/11
f 237/105/12 239/106/12 238/107/12
f 239/106/12 240/108/12 238/107/12
f 241/105/7 243/106/7 242/107/7
f 243/106/7 244/108/7 242/107/7
f 245/105/8 247/106/8 246/107/8
f 247/106/8 248/108/8 246/107/8
f 249/105/9 251/106/9 250/107/9
f 251/106/9 252/108/9 250/107/9
f 253/105/10 255/106/10 254/107/10
f 255/106/10 256/108/10 254/107/10
f 257/105/11 259/106/11 258/107/11
f 259/106/11 260/108/11 258/107/11
f 261/105/12 263/106/12 262/107/12
f 263/106/12 264/108/12 262/107/12
f 265/101/7 267/102/7 266/103/7
f 267/102/7 268/104/7 266/103/7
f 269/101/8 271/102/8 270/103/8
f 271/102/8 272/104/8 270/103/8
f 273/101/9 275/102/9 274/103/9
f 275/102/9 276/104/9 274/103/9
f 277/101/10 279/102/10 278/103/10
f 279/102/10 280/104/10 278/103/10
f 281/101/11 283/102/11 282/103/11
f 283/102/11 284/104/11 282/103/11
f 285/101/12 287/102/12 286/103/12
f 287/102/12 288/104/12 286/103/12
f 289/85/7 291/86/7 290/87/7
f 291/86/7 292/88/7 290/87/7
f 293/89/8 295/90/8 294/91/8
f 295/90/8 296/92/8 294/91/8
f 297/93/9 299/94/9 298/95/9
f 299/94/9 300/96/9 298/95/9
f 301/97/10 303/98/10 302/99/10
f 303/98/10 304/100/10 302/99/10
f 305/101/11 307/102/11 306/103/11
f 307/102/11 308/104/11 306/103/11
f 309/105/12 311/106/12 310/107/12
f 311/106/12 312/108/12 310/107/12
