# Blender 4.4.3
# www.blender.org
mtllib lev.545mag.mtl
o ammoModel
v 1.922308 0.384615 0.384615
v 1.923077 0.384615 0.384615
v 1.922308 0.000000 0.384615
v 1.923077 0.000000 0.384615
v 1.923077 0.384615 -0.384616
v 1.922307 0.384615 -0.384616
v 1.923077 0.000000 -0.384616
v 1.922307 0.000000 -0.384616
v 1.923077 0.384615 -0.384616
v 1.923077 0.384615 0.384615
v 1.922307 0.384615 -0.384616
v 1.922308 0.384615 0.384615
v 1.922307 0.000000 -0.384616
v 1.922308 0.000000 0.384615
v 1.923077 0.000000 -0.384616
v 1.923077 0.000000 0.384615
v 1.922307 0.384615 -0.384616
v 1.922308 0.384615 0.384615
v 1.922307 0.000000 -0.384616
v 1.922308 0.000000 0.384615
v 1.923077 0.384615 0.384615
v 1.923077 0.384615 -0.384616
v 1.923077 0.000000 0.384615
v 1.923077 0.000000 -0.384616
v -0.000000 0.769231 -0.383846
v 1.923077 0.769231 -0.383847
v -0.000000 0.000000 -0.383846
v 1.923077 0.000000 -0.383847
v 1.923077 0.769231 -0.384616
v -0.000000 0.769231 -0.384615
v 1.923077 0.000000 -0.384616
v -0.000000 0.000000 -0.384615
v 1.923077 0.769231 -0.384616
v 1.923077 0.769231 -0.383847
v -0.000000 0.769231 -0.384615
v -0.000000 0.769231 -0.383846
v -0.000000 0.000000 -0.384615
v -0.000000 0.000000 -0.383846
v 1.923077 0.000000 -0.384616
v 1.923077 0.000000 -0.383847
v -0.000000 0.769231 -0.384615
v -0.000000 0.769231 -0.383846
v -0.000000 0.000000 -0.384615
v -0.000000 0.000000 -0.383846
v 1.923077 0.769231 -0.383847
v 1.923077 0.769231 -0.384616
v 1.923077 0.000000 -0.383847
v 1.923077 0.000000 -0.384616
v -0.000002 -1.538463 0.383846
v 1.776690 -0.802533 0.383846
v 1.177486 -4.381170 0.383846
v 2.954177 -3.645240 0.383846
v 1.776689 -0.802533 -0.383846
v -0.000002 -1.538463 -0.383846
v 2.954177 -3.645240 -0.383847
v 1.177486 -4.381170 -0.383846
v 1.776689 -0.802533 -0.383846
v 1.776690 -0.802533 0.383846
v -0.000002 -1.538463 -0.383846
v -0.000002 -1.538463 0.383846
v 1.177486 -4.381170 -0.383846
v 1.177486 -4.381170 0.383846
v 2.954177 -3.645240 -0.383847
v 2.954177 -3.645240 0.383846
v -0.000002 -1.538463 -0.383846
v -0.000002 -1.538463 0.383846
v 1.177486 -4.381170 -0.383846
v 1.177486 -4.381170 0.383846
v 1.776690 -0.802533 0.383846
v 1.776689 -0.802533 -0.383846
v 2.954177 -3.645240 0.383846
v 2.954177 -3.645240 -0.383847
v 0.000000 -0.000000 0.384615
v 1.923077 -0.000000 0.384615
v 0.000000 -1.538462 0.384615
v 1.923077 -1.538462 0.384615
v 1.923077 -0.000000 -0.384616
v 0.000000 -0.000000 -0.384615
v 1.923077 -1.538462 -0.384616
v 0.000000 -1.538462 -0.384615
v 1.923077 -0.000000 -0.384616
v 1.923077 -0.000000 0.384615
v 0.000000 -0.000000 -0.384615
v 0.000000 -0.000000 0.384615
v 0.000000 -1.538462 -0.384615
v 0.000000 -1.538462 0.384615
v 1.923077 -1.538462 -0.384616
v 1.923077 -1.538462 0.384615
v 0.000000 -0.000000 -0.384615
v 0.000000 -0.000000 0.384615
v 0.000000 -1.538462 -0.384615
v 0.000000 -1.538462 0.384615
v 1.923077 -0.000000 0.384615
v 1.923077 -0.000000 -0.384616
v 1.923077 -1.538462 0.384615
v 1.923077 -1.538462 -0.384616
v 0.000000 0.769231 0.385385
v 1.923077 0.769231 0.385384
v 0.000000 -0.000000 0.385385
v 1.923077 -0.000000 0.385384
v 1.923077 0.769231 0.384615
v 0.000000 0.769231 0.384615
v 1.923077 -0.000000 0.384615
v 0.000000 -0.000000 0.384615
v 1.923077 0.769231 0.384615
v 1.923077 0.769231 0.385384
v 0.000000 0.769231 0.384615
v 0.000000 0.769231 0.385385
v 0.000000 -0.000000 0.384615
v 0.000000 -0.000000 0.385385
v 1.923077 -0.000000 0.384615
v 1.923077 -0.000000 0.385384
v 0.000000 0.769231 0.384615
v 0.000000 0.769231 0.385385
v 0.000000 -0.000000 0.384615
v 0.000000 -0.000000 0.385385
v 1.923077 0.769231 0.385384
v 1.923077 0.769231 0.384615
v 1.923077 -0.000000 0.385384
v 1.923077 -0.000000 0.384615
v -0.000769 0.769231 0.384615
v 0.000000 0.769231 0.384615
v -0.000769 0.000000 0.384615
v 0.000000 0.000000 0.384615
v -0.000000 0.769231 -0.384615
v -0.000769 0.769231 -0.384615
v -0.000000 0.000000 -0.384615
v -0.000769 0.000000 -0.384615
v -0.000000 0.769231 -0.384615
v 0.000000 0.769231 0.384615
v -0.000769 0.769231 -0.384615
v -0.000769 0.769231 0.384615
v -0.000769 0.000000 -0.384615
v -0.000769 0.000000 0.384615
v -0.000000 0.000000 -0.384615
v 0.000000 0.000000 0.384615
v -0.000769 0.769231 -0.384615
v -0.000769 0.769231 0.384615
v -0.000769 0.000000 -0.384615
v -0.000769 0.000000 0.384615
v 0.000000 0.769231 0.384615
v -0.000000 0.769231 -0.384615
v 0.000000 0.000000 0.384615
v -0.000000 0.000000 -0.384615
vn -0.0000 -0.0000 1.0000
vn -0.0000 -0.0000 -1.0000
vn -0.0000 1.0000 -0.0000
vn -0.0000 -1.0000 -0.0000
vn -1.0000 -0.0000 -0.0000
vn 1.0000 -0.0000 -0.0000
vn -0.3827 0.9239 -0.0000
vn 0.3827 -0.9239 -0.0000
vn -0.9239 -0.3827 -0.0000
vn 0.9239 0.3827 -0.0000
vt 0.000000 1.000000
vt 0.000000 0.937500
vt 0.062500 1.000000
vt 0.500000 0.906250
vt 0.500000 0.875000
vt 0.562500 0.906250
vt 0.562500 0.875000
vt 0.437500 0.531250
vt 0.437500 0.500000
vt 0.500000 0.531250
vt 0.500000 0.500000
vt 0.468750 0.625000
vt 0.468750 0.562500
vt 0.312500 0.625000
vt 0.312500 0.562500
vt 0.000000 0.843750
vt 0.000000 0.750000
vt 0.156250 1.000000
vt 0.156250 0.750000
vt 0.187500 1.000000
vt 0.187500 0.750000
vt 0.343750 1.000000
vt 0.343750 0.750000
vt 0.125000 0.468750
vt 0.125000 0.625000
vt 0.062500 0.468750
vt 0.062500 0.625000
vt 0.187500 0.625000
vt 0.187500 0.468750
vt 0.375000 1.000000
vt 0.375000 0.750000
vt 0.437500 1.000000
vt 0.437500 0.750000
vt 0.000000 0.625000
vt 0.000000 0.375000
vt 0.062500 0.375000
vt 0.156250 0.625000
vt 0.343750 0.625000
vt 0.250000 0.468750
vt 0.250000 0.625000
vt 0.312500 0.468750
vt 0.312500 0.437500
vt 0.375000 0.562500
vt 0.375000 0.437500
vt 0.437500 0.937500
vt 0.437500 0.812500
vt 0.500000 0.937500
vt 0.500000 0.812500
vt 0.375000 0.687500
vt 0.375000 0.625000
vt 0.531250 0.687500
vt 0.531250 0.625000
vt 0.375000 0.500000
vt 0.437500 0.562500
vt 0.500000 0.750000
s 0
usemtl Material_0
f 1/1/1 3/2/1 2/1/1
f 3/2/1 4/2/1 2/1/1
f 5/1/2 7/2/2 6/1/2
f 7/2/2 8/2/2 6/1/2
f 9/3/3 11/3/3 10/1/3
f 11/3/3 12/1/3 10/1/3
f 13/3/4 15/3/4 14/1/4
f 15/3/4 16/1/4 14/1/4
f 17/4/5 19/5/5 18/6/5
f 19/5/5 20/7/5 18/6/5
f 21/8/6 23/9/6 22/10/6
f 23/9/6 24/11/6 22/10/6
f 25/12/1 27/13/1 26/14/1
f 27/13/1 28/15/1 26/14/1
f 29/14/2 31/15/2 30/12/2
f 31/15/2 32/13/2 30/12/2
f 33/16/3 35/1/3 34/16/3
f 35/1/3 36/1/3 34/16/3
f 37/1/4 39/16/4 38/1/4
f 39/16/4 40/16/4 38/1/4
f 41/1/5 43/2/5 42/1/5
f 43/2/5 44/2/5 42/1/5
f 45/1/6 47/2/6 46/1/6
f 47/2/6 48/2/6 46/1/6
f 49/1/1 51/17/1 50/18/1
f 51/17/1 52/19/1 50/18/1
f 53/20/2 55/21/2 54/22/2
f 55/21/2 56/23/2 54/22/2
f 57/24/7 59/25/7 58/26/7
f 59/25/7 60/27/7 58/26/7
f 61/28/8 63/29/8 62/25/8
f 63/29/8 64/24/8 62/25/8
f 65/30/9 67/31/9 66/32/9
f 67/31/9 68/33/9 66/32/9
f 69/34/10 71/35/10 70/27/10
f 71/35/10 72/36/10 70/27/10
f 73/17/1 75/34/1 74/19/1
f 75/34/1 76/37/1 74/19/1
f 77/21/2 79/28/2 78/23/2
f 79/28/2 80/38/2 78/23/2
f 81/39/3 83/40/3 82/29/3
f 83/40/3 84/28/3 82/29/3
f 85/14/4 87/41/4 86/40/4
f 87/41/4 88/39/4 86/40/4
f 89/15/5 91/42/5 90/43/5
f 91/42/5 92/44/5 90/43/5
f 93/45/6 95/46/6 94/47/6
f 95/46/6 96/48/6 94/47/6
f 97/49/1 99/50/1 98/51/1
f 99/50/1 100/52/1 98/51/1
f 101/51/2 103/52/2 102/49/2
f 103/52/2 104/50/2 102/49/2
f 105/16/3 107/1/3 106/16/3
f 107/1/3 108/1/3 106/16/3
f 109/1/4 111/16/4 110/1/4
f 111/16/4 112/16/4 110/1/4
f 113/1/5 115/2/5 114/1/5
f 115/2/5 116/2/5 114/1/5
f 117/1/6 119/2/6 118/1/6
f 119/2/6 120/2/6 118/1/6
f 121/1/1 123/2/1 122/1/1
f 123/2/1 124/2/1 122/1/1
f 125/1/2 127/2/2 126/1/2
f 127/2/2 128/2/2 126/1/2
f 129/3/3 131/3/3 130/1/3
f 131/3/3 132/1/3 130/1/3
f 133/3/4 135/3/4 134/1/4
f 135/3/4 136/1/4 134/1/4
f 137/43/5 139/53/5 138/54/5
f 139/53/5 140/9/5 138/54/5
f 141/46/6 143/33/6 142/48/6
f 143/33/6 144/55/6 142/48/6
o bulletModel_0
v 0.019231 0.730769 0.365385
v 0.942308 0.730769 0.365384
v 0.019231 0.307692 0.365385
v 0.942308 0.307692 0.365384
v 0.942308 0.730769 -0.057692
v 0.019231 0.730769 -0.057692
v 0.942308 0.307692 -0.057692
v 0.019231 0.307692 -0.057692
v 0.942308 0.730769 -0.057692
v 0.942308 0.730769 0.365384
v 0.019231 0.730769 -0.057692
v 0.019231 0.730769 0.365385
v 0.019231 0.307692 -0.057692
v 0.019231 0.307692 0.365385
v 0.942308 0.307692 -0.057692
v 0.942308 0.307692 0.365384
v 0.019231 0.730769 -0.057692
v 0.019231 0.730769 0.365385
v 0.019231 0.307692 -0.057692
v 0.019231 0.307692 0.365385
v 0.942308 0.730769 0.365384
v 0.942308 0.730769 -0.057692
v 0.942308 0.307692 0.365384
v 0.942308 0.307692 -0.057692
v 1.326923 0.673077 0.307692
v 1.903846 0.673077 0.307692
v 1.326923 0.365385 0.307692
v 1.903846 0.365385 0.307692
v 1.903846 0.673077 -0.000000
v 1.326923 0.673077 -0.000000
v 1.903846 0.365385 -0.000000
v 1.326923 0.365385 -0.000000
v 1.903846 0.673077 -0.000000
v 1.903846 0.673077 0.307692
v 1.326923 0.673077 -0.000000
v 1.326923 0.673077 0.307692
v 1.326923 0.365385 -0.000000
v 1.326923 0.365385 0.307692
v 1.903846 0.365385 -0.000000
v 1.903846 0.365385 0.307692
v 1.326923 0.673077 -0.000000
v 1.326923 0.673077 0.307692
v 1.326923 0.365385 -0.000000
v 1.326923 0.365385 0.307692
v 1.903846 0.673077 0.307692
v 1.903846 0.673077 -0.000000
v 1.903846 0.365385 0.307692
v 1.903846 0.365385 -0.000000
v 0.942308 0.711538 0.346154
v 1.365385 0.711538 0.346154
v 0.942308 0.326923 0.346154
v 1.365385 0.326923 0.346154
v 1.365384 0.711538 -0.038462
v 0.942308 0.711538 -0.038462
v 1.365384 0.326923 -0.038462
v 0.942308 0.326923 -0.038462
v 1.365384 0.711538 -0.038462
v 1.365385 0.711538 0.346154
v 0.942308 0.711538 -0.038462
v 0.942308 0.711538 0.346154
v 0.942308 0.326923 -0.038462
v 0.942308 0.326923 0.346154
v 1.365384 0.326923 -0.038462
v 1.365385 0.326923 0.346154
v 0.942308 0.711538 -0.038462
v 0.942308 0.711538 0.346154
v 0.942308 0.326923 -0.038462
v 0.942308 0.326923 0.346154
v 1.365385 0.711538 0.346154
v 1.365384 0.711538 -0.038462
v 1.365385 0.326923 0.346154
v 1.365384 0.326923 -0.038462
vn -0.0000 -0.0000 1.0000
vn -0.0000 -0.0000 -1.0000
vn -0.0000 1.0000 -0.0000
vn -0.0000 -1.0000 -0.0000
vn -1.0000 -0.0000 -0.0000
vn 1.0000 -0.0000 -0.0000
vt 0.500000 0.875000
vt 0.500000 0.843750
vt 0.562500 0.875000
vt 0.562500 0.843750
vt 0.500000 0.812500
vt 0.500000 0.781250
vt 0.562500 0.812500
vt 0.562500 0.781250
vt 0.406250 0.437500
vt 0.406250 0.500000
vt 0.375000 0.437500
vt 0.375000 0.500000
vt 0.531250 0.625000
vt 0.531250 0.562500
vt 0.500000 0.625000
vt 0.500000 0.562500
vt 0.375000 0.406250
vt 0.406250 0.406250
vt 0.562500 0.687500
vt 0.562500 0.656250
vt 0.593750 0.687500
vt 0.593750 0.656250
vt 0.437500 0.500000
vt 0.437500 0.468750
vt 0.500000 0.500000
vt 0.500000 0.468750
vt 0.500000 0.531250
vt 0.562500 0.562500
vt 0.562500 0.531250
vt 0.531250 0.437500
vt 0.531250 0.500000
vt 0.500000 0.437500
vt 0.093750 0.437500
vt 0.093750 0.375000
vt 0.062500 0.437500
vt 0.062500 0.375000
vt 0.437500 0.437500
vt 0.437500 0.406250
vt 0.468750 0.437500
vt 0.468750 0.406250
vt 0.562500 0.625000
vt 0.562500 0.593750
vt 0.593750 0.625000
vt 0.593750 0.593750
vt 0.500000 0.406250
vt 0.531250 0.406250
vt 0.562500 0.437500
vt 0.562500 0.406250
vt 0.593750 0.437500
vt 0.593750 0.406250
vt 0.031250 0.343750
vt 0.031250 0.375000
vt 0.000000 0.343750
vt 0.000000 0.375000
vt 0.656250 1.000000
vt 0.656250 0.968750
vt 0.625000 1.000000
vt 0.625000 0.968750
vt 0.562500 0.500000
vt 0.562500 0.468750
vt 0.593750 0.500000
vt 0.593750 0.468750
vt 0.593750 0.562500
vt 0.593750 0.531250
s 0
usemtl Material_0
f 145/56/11 147/57/11 146/58/11
f 147/57/11 148/59/11 146/58/11
f 149/60/12 151/61/12 150/62/12
f 151/61/12 152/63/12 150/62/12
f 153/64/13 155/65/13 154/66/13
f 155/65/13 156/67/13 154/66/13
f 157/68/14 159/69/14 158/70/14
f 159/69/14 160/71/14 158/70/14
f 161/66/15 163/72/15 162/64/15
f 163/72/15 164/73/15 162/64/15
f 165/74/16 167/75/16 166/76/16
f 167/75/16 168/77/16 166/76/16
f 169/78/11 171/79/11 170/80/11
f 171/79/11 172/81/11 170/80/11
f 173/71/12 175/82/12 174/83/12
f 175/82/12 176/84/12 174/83/12
f 177/85/13 179/86/13 178/87/13
f 179/86/13 180/80/13 178/87/13
f 181/88/14 183/89/14 182/90/14
f 183/89/14 184/91/14 182/90/14
f 185/92/15 187/93/15 186/94/15
f 187/93/15 188/95/15 186/94/15
f 189/96/16 191/97/16 190/98/16
f 191/97/16 192/99/16 190/98/16
f 193/87/11 195/100/11 194/85/11
f 195/100/11 196/101/11 194/85/11
f 197/102/12 199/103/12 198/104/12
f 199/103/12 200/105/12 198/104/12
f 201/106/13 203/107/13 202/108/13
f 203/107/13 204/109/13 202/108/13
f 205/110/14 207/111/14 206/112/14
f 207/111/14 208/113/14 206/112/14
f 209/114/15 211/115/15 210/116/15
f 211/115/15 212/117/15 210/116/15
f 213/83/16 215/84/16 214/118/16
f 215/84/16 216/119/16 214/118/16
o bulletModel_1
v 0.019231 0.538462 0.057692
v 0.942308 0.538462 0.057692
v 0.019231 0.115385 0.057692
v 0.942308 0.115385 0.057692
v 0.942308 0.538462 -0.365385
v 0.019231 0.538462 -0.365385
v 0.942308 0.115385 -0.365385
v 0.019231 0.115385 -0.365385
v 0.942308 0.538462 -0.365385
v 0.942308 0.538462 0.057692
v 0.019231 0.538462 -0.365385
v 0.019231 0.538462 0.057692
v 0.019231 0.115385 -0.365385
v 0.019231 0.115385 0.057692
v 0.942308 0.115385 -0.365385
v 0.942308 0.115385 0.057692
v 0.019231 0.538462 -0.365385
v 0.019231 0.538462 0.057692
v 0.019231 0.115385 -0.365385
v 0.019231 0.115385 0.057692
v 0.942308 0.538462 0.057692
v 0.942308 0.538462 -0.365385
v 0.942308 0.115385 0.057692
v 0.942308 0.115385 -0.365385
v 1.326923 0.480769 -0.000000
v 1.903846 0.480769 -0.000000
v 1.326923 0.173077 -0.000000
v 1.903846 0.173077 -0.000000
v 1.903846 0.480769 -0.307693
v 1.326923 0.480769 -0.307693
v 1.903846 0.173077 -0.307693
v 1.326923 0.173077 -0.307693
v 1.903846 0.480769 -0.307693
v 1.903846 0.480769 -0.000000
v 1.326923 0.480769 -0.307693
v 1.326923 0.480769 -0.000000
v 1.326923 0.173077 -0.307693
v 1.326923 0.173077 -0.000000
v 1.903846 0.173077 -0.307693
v 1.903846 0.173077 -0.000000
v 1.326923 0.480769 -0.307693
v 1.326923 0.480769 -0.000000
v 1.326923 0.173077 -0.307693
v 1.326923 0.173077 -0.000000
v 1.903846 0.480769 -0.000000
v 1.903846 0.480769 -0.307693
v 1.903846 0.173077 -0.000000
v 1.903846 0.173077 -0.307693
v 0.942308 0.519231 0.038461
v 1.365384 0.519231 0.038461
v 0.942308 0.134615 0.038461
v 1.365384 0.134615 0.038461
v 1.365384 0.519231 -0.346154
v 0.942308 0.519231 -0.346154
v 1.365384 0.134615 -0.346154
v 0.942308 0.134615 -0.346154
v 1.365384 0.519231 -0.346154
v 1.365384 0.519231 0.038461
v 0.942308 0.519231 -0.346154
v 0.942308 0.519231 0.038461
v 0.942308 0.134615 -0.346154
v 0.942308 0.134615 0.038461
v 1.365384 0.134615 -0.346154
v 1.365384 0.134615 0.038461
v 0.942308 0.519231 -0.346154
v 0.942308 0.519231 0.038461
v 0.942308 0.134615 -0.346154
v 0.942308 0.134615 0.038461
v 1.365384 0.519231 0.038461
v 1.365384 0.519231 -0.346154
v 1.365384 0.134615 0.038461
v 1.365384 0.134615 -0.346154
vn -0.0000 -0.0000 1.0000
vn -0.0000 -0.0000 -1.0000
vn -0.0000 1.0000 -0.0000
vn -0.0000 -1.0000 -0.0000
vn -1.0000 -0.0000 -0.0000
vn 1.0000 -0.0000 -0.0000
vt 0.562500 0.812500
vt 0.562500 0.781250
vt 0.625000 0.812500
vt 0.625000 0.781250
vt 0.250000 0.437500
vt 0.250000 0.406250
vt 0.312500 0.437500
vt 0.312500 0.406250
vt 0.593750 0.687500
vt 0.593750 0.750000
vt 0.562500 0.687500
vt 0.562500 0.750000
vt 0.343750 0.437500
vt 0.343750 0.375000
vt 0.312500 0.375000
vt 0.625000 0.687500
vt 0.625000 0.656250
vt 0.656250 0.687500
vt 0.656250 0.656250
vt 0.312500 0.343750
vt 0.343750 0.343750
vt 0.562500 0.937500
vt 0.562500 0.906250
vt 0.625000 0.937500
vt 0.625000 0.906250
vt 0.125000 0.437500
vt 0.125000 0.406250
vt 0.187500 0.437500
vt 0.187500 0.406250
vt 0.593750 0.812500
vt 0.593750 0.875000
vt 0.562500 0.875000
vt 0.218750 0.437500
vt 0.218750 0.375000
vt 0.187500 0.375000
vt 0.656250 0.937500
vt 0.656250 0.906250
vt 0.062500 0.375000
vt 0.062500 0.343750
vt 0.093750 0.375000
vt 0.093750 0.343750
vt 0.625000 0.875000
vt 0.625000 0.843750
vt 0.656250 0.875000
vt 0.656250 0.843750
vt 0.656250 0.812500
vt 0.656250 0.781250
vt 0.281250 0.343750
vt 0.281250 0.375000
vt 0.250000 0.343750
vt 0.250000 0.375000
vt 0.656250 0.750000
vt 0.656250 0.718750
vt 0.625000 0.750000
vt 0.625000 0.718750
vt 0.187500 0.343750
vt 0.218750 0.343750
vt 0.125000 0.375000
vt 0.125000 0.343750
vt 0.156250 0.375000
vt 0.156250 0.343750
s 0
usemtl Material_0
f 217/120/17 219/121/17 218/122/17
f 219/121/17 220/123/17 218/122/17
f 221/124/18 223/125/18 222/126/18
f 223/125/18 224/127/18 222/126/18
f 225/128/19 227/129/19 226/130/19
f 227/129/19 228/131/19 226/130/19
f 229/132/20 231/133/20 230/126/20
f 231/133/20 232/134/20 230/126/20
f 233/135/21 235/136/21 234/137/21
f 235/136/21 236/138/21 234/137/21
f 237/134/22 239/139/22 238/133/22
f 239/139/22 240/140/22 238/133/22
f 241/141/17 243/142/17 242/143/17
f 243/142/17 244/144/17 242/143/17
f 245/145/18 247/146/18 246/147/18
f 247/146/18 248/148/18 246/147/18
f 249/149/19 251/150/19 250/120/19
f 251/150/19 252/151/19 250/120/19
f 253/152/20 255/153/20 254/147/20
f 255/153/20 256/154/20 254/147/20
f 257/143/21 259/144/21 258/155/21
f 259/144/21 260/156/21 258/155/21
f 261/157/22 263/158/22 262/159/22
f 263/158/22 264/160/22 262/159/22
f 265/161/17 267/162/17 266/163/17
f 267/162/17 268/164/17 266/163/17
f 269/122/18 271/123/18 270/165/18
f 271/123/18 272/166/18 270/165/18
f 273/167/19 275/168/19 274/169/19
f 275/168/19 276/170/19 274/169/19
f 277/171/20 279/172/20 278/173/20
f 279/172/20 280/174/20 278/173/20
f 281/154/21 283/175/21 282/153/21
f 283/175/21 284/176/21 282/153/21
f 285/177/22 287/178/22 286/179/22
f 287/178/22 288/180/22 286/179/22
