# Blender 4.2.0
# www.blender.org
mtllib lev.ak308mag.mtl
o ammoModel
v 2.300000 0.000000 0.384615
v 2.307692 0.000000 0.384615
v 2.300000 -3.846154 0.384615
v 2.307692 -3.846154 0.384615
v 2.307692 0.000000 -0.384615
v 2.300000 0.000000 -0.384615
v 2.307692 -3.846154 -0.384615
v 2.300000 -3.846154 -0.384615
v 2.307692 0.000000 -0.384615
v 2.307692 0.000000 0.384615
v 2.300000 0.000000 -0.384615
v 2.300000 0.000000 0.384615
v 2.300000 -3.846154 -0.384615
v 2.300000 -3.846154 0.384615
v 2.307692 -3.846154 -0.384615
v 2.307692 -3.846154 0.384615
v 2.300000 0.000000 -0.384615
v 2.300000 0.000000 0.384615
v 2.300000 -3.846154 -0.384615
v 2.300000 -3.846154 0.384615
v 2.307692 0.000000 0.384615
v 2.307692 0.000000 -0.384615
v 2.307692 -3.846154 0.384615
v 2.307692 -3.846154 -0.384615
v -0.002943 -3.839047 0.383846
v 1.960229 -3.025874 0.383846
v 0.336827 -4.659327 0.383846
v 2.300000 -3.846154 0.383846
v 1.960229 -3.025874 -0.383846
v -0.002943 -3.839047 -0.383846
v 2.300000 -3.846154 -0.383846
v 0.336827 -4.659327 -0.383846
v 1.960229 -3.025874 -0.383846
v 1.960229 -3.025874 0.383846
v -0.002943 -3.839047 -0.383846
v -0.002943 -3.839047 0.383846
v 0.336827 -4.659327 -0.383846
v 0.336827 -4.659327 0.383846
v 2.300000 -3.846154 -0.383846
v 2.300000 -3.846154 0.383846
v -0.002943 -3.839047 -0.383846
v -0.002943 -3.839047 0.383846
v 0.336827 -4.659327 -0.383846
v 0.336827 -4.659327 0.383846
v 1.960229 -3.025874 0.383846
v 1.960229 -3.025874 -0.383846
v 2.300000 -3.846154 0.383846
v 2.300000 -3.846154 -0.383846
v -0.000000 0.000000 -0.376923
v 2.307692 0.000000 -0.376923
v -0.000000 -3.846154 -0.376923
v 2.307692 -3.846154 -0.376923
v 2.307692 0.000000 -0.384615
v -0.000000 0.000000 -0.384615
v 2.307692 -3.846154 -0.384615
v -0.000000 -3.846154 -0.384615
v 2.307692 0.000000 -0.384615
v 2.307692 0.000000 -0.376923
v -0.000000 0.000000 -0.384615
v -0.000000 0.000000 -0.376923
v -0.000000 -3.846154 -0.384615
v -0.000000 -3.846154 -0.376923
v 2.307692 -3.846154 -0.384615
v 2.307692 -3.846154 -0.376923
v -0.000000 0.000000 -0.384615
v -0.000000 0.000000 -0.376923
v -0.000000 -3.846154 -0.384615
v -0.000000 -3.846154 -0.376923
v 2.307692 0.000000 -0.376923
v 2.307692 0.000000 -0.384615
v 2.307692 -3.846154 -0.376923
v 2.307692 -3.846154 -0.384615
v -0.007692 0.000000 0.384615
v 0.000000 0.000000 0.384615
v -0.007692 -3.846154 0.384615
v 0.000000 -3.846154 0.384615
v -0.000000 0.000000 -0.384615
v -0.007692 0.000000 -0.384615
v -0.000000 -3.846154 -0.384615
v -0.007692 -3.846154 -0.384615
v -0.000000 0.000000 -0.384615
v 0.000000 0.000000 0.384615
v -0.007692 0.000000 -0.384615
v -0.007692 0.000000 0.384615
v -0.007692 -3.846154 -0.384615
v -0.007692 -3.846154 0.384615
v -0.000000 -3.846154 -0.384615
v 0.000000 -3.846154 0.384615
v -0.007692 0.000000 -0.384615
v -0.007692 0.000000 0.384615
v -0.007692 -3.846154 -0.384615
v -0.007692 -3.846154 0.384615
v 0.000000 0.000000 0.384615
v -0.000000 0.000000 -0.384615
v 0.000000 -3.846154 0.384615
v -0.000000 -3.846154 -0.384615
v 0.000000 0.000000 0.392308
v 2.307692 0.000000 0.392308
v 0.000000 -3.846154 0.392308
v 2.307692 -3.846154 0.392308
v 2.307692 0.000000 0.384615
v 0.000000 0.000000 0.384615
v 2.307692 -3.846154 0.384615
v 0.000000 -3.846154 0.384615
v 2.307692 0.000000 0.384615
v 2.307692 0.000000 0.392308
v 0.000000 0.000000 0.384615
v 0.000000 0.000000 0.392308
v 0.000000 -3.846154 0.384615
v 0.000000 -3.846154 0.392308
v 2.307692 -3.846154 0.384615
v 2.307692 -3.846154 0.392308
v 0.000000 0.000000 0.384615
v 0.000000 0.000000 0.392308
v 0.000000 -3.846154 0.384615
v 0.000000 -3.846154 0.392308
v 2.307692 0.000000 0.392308
v 2.307692 0.000000 0.384615
v 2.307692 -3.846154 0.392308
v 2.307692 -3.846154 0.384615
vn -0.0000 -0.0000 1.0000
vn -0.0000 -0.0000 -1.0000
vn -0.0000 1.0000 -0.0000
vn -0.0000 -1.0000 -0.0000
vn -1.0000 -0.0000 -0.0000
vn 1.0000 -0.0000 -0.0000
vn -0.3827 0.9239 -0.0000
vn 0.3827 -0.9239 -0.0000
vn -0.9239 -0.3827 -0.0000
vn 0.9239 0.3827 -0.0000
vt 0.562500 1.000000
vt 0.562500 0.687500
vt 0.593750 1.000000
vt 0.593750 0.687500
vt 0.250000 0.437500
vt 0.250000 0.125000
vt 0.281250 0.437500
vt 0.281250 0.125000
vt 0.375000 0.281250
vt 0.375000 0.312500
vt 0.312500 0.281250
vt 0.312500 0.312500
vt 0.750000 0.687500
vt 0.750000 0.656250
vt 0.687500 0.687500
vt 0.687500 0.656250
vt 0.187500 0.687500
vt 0.187500 0.375000
vt 0.250000 0.687500
vt 0.250000 0.375000
vt 0.125000 0.687500
vt 0.125000 0.375000
vt 0.250000 0.625000
vt 0.437500 0.687500
vt 0.437500 0.625000
vt 0.375000 1.000000
vt 0.375000 0.937500
vt 0.562500 0.937500
vt 0.437500 0.750000
vt 0.437500 0.937500
vt 0.375000 0.750000
vt 0.312500 0.625000
vt 0.312500 0.437500
vt 0.625000 0.812500
vt 0.625000 0.750000
vt 0.687500 0.812500
vt 0.687500 0.750000
vt 0.375000 0.687500
vt 0.000000 1.000000
vt 0.000000 0.687500
vt 0.187500 1.000000
vt 0.218750 0.187500
vt 0.218750 0.375000
vt 0.187500 0.187500
vt 0.656250 0.562500
vt 0.656250 0.375000
vt 0.625000 0.562500
vt 0.625000 0.375000
vt 0.343750 1.000000
vt 0.343750 0.687500
vt 0.343750 0.625000
vt 0.343750 0.312500
vt 0.437500 0.968750
vt 0.437500 1.000000
vt 0.375000 0.968750
vt 0.750000 0.750000
vt 0.750000 0.718750
vt 0.687500 0.718750
vt 0.062500 0.687500
vt 0.062500 0.375000
vt 0.000000 0.375000
vt 0.656250 0.187500
vt 0.625000 0.187500
vt 0.031250 0.312500
vt 0.031250 0.125000
vt 0.000000 0.312500
vt 0.000000 0.125000
vt 0.500000 0.937500
vt 0.500000 0.625000
vt 0.531250 0.937500
vt 0.531250 0.625000
s 0
usemtl Material_0.002
f 1/1/1 3/2/1 2/3/1
f 3/2/1 4/4/1 2/3/1
f 5/5/2 7/6/2 6/7/2
f 7/6/2 8/8/2 6/7/2
f 9/9/3 11/10/3 10/11/3
f 11/10/3 12/12/3 10/11/3
f 13/13/4 15/14/4 14/15/4
f 15/14/4 16/16/4 14/15/4
f 17/17/5 19/18/5 18/19/5
f 19/18/5 20/20/5 18/19/5
f 21/21/6 23/22/6 22/17/6
f 23/22/6 24/18/6 22/17/6
f 25/19/1 27/23/1 26/24/1
f 27/23/1 28/25/1 26/24/1
f 29/26/2 31/27/2 30/1/2
f 31/27/2 32/28/2 30/1/2
f 33/29/7 35/30/7 34/31/7
f 35/30/7 36/27/7 34/31/7
f 37/32/8 39/33/8 38/23/8
f 39/33/8 40/5/8 38/23/8
f 41/34/9 43/35/9 42/36/9
f 43/35/9 44/37/9 42/36/9
f 45/31/10 47/38/10 46/29/10
f 47/38/10 48/24/10 46/29/10
f 49/39/1 51/40/1 50/41/1
f 51/40/1 52/17/1 50/41/1
f 53/41/2 55/17/2 54/26/2
f 55/17/2 56/38/2 54/26/2
f 57/42/3 59/43/3 58/44/3
f 59/43/3 60/18/3 58/44/3
f 61/45/4 63/46/4 62/47/4
f 63/46/4 64/48/4 62/47/4
f 65/49/5 67/50/5 66/26/5
f 67/50/5 68/38/5 66/26/5
f 69/32/6 71/12/6 70/51/6
f 71/12/6 72/52/6 70/51/6
f 73/49/1 75/50/1 74/26/1
f 75/50/1 76/38/1 74/26/1
f 77/49/2 79/50/2 78/26/2
f 79/50/2 80/38/2 78/26/2
f 81/53/3 83/54/3 82/55/3
f 83/54/3 84/26/3 82/55/3
f 85/56/4 87/57/4 86/37/4
f 87/57/4 88/58/4 86/37/4
f 89/59/5 91/60/5 90/21/5
f 91/60/5 92/22/5 90/21/5
f 93/40/6 95/61/6 94/59/6
f 95/61/6 96/60/6 94/59/6
f 97/39/1 99/40/1 98/41/1
f 99/40/1 100/17/1 98/41/1
f 101/41/2 103/17/2 102/26/2
f 103/17/2 104/38/2 102/26/2
f 105/62/3 107/46/3 106/63/3
f 107/46/3 108/48/3 106/63/3
f 109/64/4 111/65/4 110/66/4
f 111/65/4 112/67/4 110/66/4
f 113/49/5 115/50/5 114/26/5
f 115/50/5 116/38/5 114/26/5
f 117/68/6 119/69/6 118/70/6
f 119/69/6 120/71/6 118/70/6
o bulletModel_0
v 1.923077 -0.403846 0.134615
v 2.269231 -0.403846 0.134615
v 1.923077 -0.788462 0.134615
v 2.269231 -0.788462 0.134615
v 2.269231 -0.403846 -0.250000
v 1.923077 -0.403846 -0.250000
v 2.269231 -0.788462 -0.250000
v 1.923077 -0.788462 -0.250000
v 2.269231 -0.403846 -0.250000
v 2.269231 -0.403846 0.134615
v 1.923077 -0.403846 -0.250000
v 1.923077 -0.403846 0.134615
v 1.923077 -0.788462 -0.250000
v 1.923077 -0.788462 0.134615
v 2.269231 -0.788462 -0.250000
v 2.269231 -0.788462 0.134615
v 1.923077 -0.403846 -0.250000
v 1.923077 -0.403846 0.134615
v 1.923077 -0.788462 -0.250000
v 1.923077 -0.788462 0.134615
v 2.269231 -0.403846 0.134615
v 2.269231 -0.403846 -0.250000
v 2.269231 -0.788462 0.134615
v 2.269231 -0.788462 -0.250000
v 0.038462 0.076923 0.365385
v 1.538461 0.076923 0.365385
v 0.038462 -0.500000 0.365385
v 1.538461 -0.500000 0.365385
v 1.538461 0.076923 -0.211539
v 0.038462 0.076923 -0.211538
v 1.538461 -0.500000 -0.211539
v 0.038462 -0.500000 -0.211538
v 1.538461 0.076923 -0.211539
v 1.538461 0.076923 0.365385
v 0.038462 0.076923 -0.211538
v 0.038462 0.076923 0.365385
v 0.038462 -0.500000 -0.211538
v 0.038462 -0.500000 0.365385
v 1.538461 -0.500000 -0.211539
v 1.538461 -0.500000 0.365385
v 0.038462 0.076923 -0.211538
v 0.038462 0.076923 0.365385
v 0.038462 -0.500000 -0.211538
v 0.038462 -0.500000 0.365385
v 1.538461 0.076923 0.365385
v 1.538461 0.076923 -0.211539
v 1.538461 -0.500000 0.365385
v 1.538461 -0.500000 -0.211539
v 1.538461 0.019231 0.307692
v 1.923077 0.019231 0.307692
v 1.538461 -0.442308 0.307692
v 1.923077 -0.442308 0.307692
v 1.923077 0.019231 -0.153846
v 1.538461 0.019231 -0.153846
v 1.923077 -0.442308 -0.153846
v 1.538461 -0.442308 -0.153846
v 1.923077 0.019231 -0.153846
v 1.923077 0.019231 0.307692
v 1.538461 0.019231 -0.153846
v 1.538461 0.019231 0.307692
v 1.538461 -0.442308 -0.153846
v 1.538461 -0.442308 0.307692
v 1.923077 -0.442308 -0.153846
v 1.923077 -0.442308 0.307692
v 1.538461 0.019231 -0.153846
v 1.538461 0.019231 0.307692
v 1.538461 -0.442308 -0.153846
v 1.538461 -0.442308 0.307692
v 1.923077 0.019231 0.307692
v 1.923077 0.019231 -0.153846
v 1.923077 -0.442308 0.307692
v 1.923077 -0.442308 -0.153846
v 1.923077 -0.019231 0.269231
v 2.269231 -0.019231 0.269231
v 1.923077 -0.403846 0.269231
v 2.269231 -0.403846 0.269231
v 2.269231 -0.019231 -0.115385
v 1.923077 -0.019231 -0.115385
v 2.269231 -0.403846 -0.115385
v 1.923077 -0.403846 -0.115385
v 2.269231 -0.019231 -0.115385
v 2.269231 -0.019231 0.269231
v 1.923077 -0.019231 -0.115385
v 1.923077 -0.019231 0.269231
v 1.923077 -0.403846 -0.115385
v 1.923077 -0.403846 0.269231
v 2.269231 -0.403846 -0.115385
v 2.269231 -0.403846 0.269231
v 1.923077 -0.019231 -0.115385
v 1.923077 -0.019231 0.269231
v 1.923077 -0.403846 -0.115385
v 1.923077 -0.403846 0.269231
v 2.269231 -0.019231 0.269231
v 2.269231 -0.019231 -0.115385
v 2.269231 -0.403846 0.269231
v 2.269231 -0.403846 -0.115385
v 0.038462 -0.307692 0.230769
v 1.538461 -0.307692 0.230769
v 0.038462 -0.884615 0.230769
v 1.538461 -0.884615 0.230769
v 1.538461 -0.307692 -0.346154
v 0.038462 -0.307692 -0.346154
v 1.538461 -0.884615 -0.346154
v 0.038462 -0.884615 -0.346154
v 1.538461 -0.307692 -0.346154
v 1.538461 -0.307692 0.230769
v 0.038462 -0.307692 -0.346154
v 0.038462 -0.307692 0.230769
v 0.038462 -0.884615 -0.346154
v 0.038462 -0.884615 0.230769
v 1.538461 -0.884615 -0.346154
v 1.538461 -0.884615 0.230769
v 0.038462 -0.307692 -0.346154
v 0.038462 -0.307692 0.230769
v 0.038462 -0.884615 -0.346154
v 0.038462 -0.884615 0.230769
v 1.538461 -0.307692 0.230769
v 1.538461 -0.307692 -0.346154
v 1.538461 -0.884615 0.230769
v 1.538461 -0.884615 -0.346154
v 1.538461 -0.365385 0.173077
v 1.923077 -0.365385 0.173077
v 1.538461 -0.826923 0.173077
v 1.923077 -0.826923 0.173077
v 1.923077 -0.365385 -0.288462
v 1.538461 -0.365385 -0.288462
v 1.923077 -0.826923 -0.288462
v 1.538461 -0.826923 -0.288462
v 1.923077 -0.365385 -0.288462
v 1.923077 -0.365385 0.173077
v 1.538461 -0.365385 -0.288462
v 1.538461 -0.365385 0.173077
v 1.538461 -0.826923 -0.288462
v 1.538461 -0.826923 0.173077
v 1.923077 -0.826923 -0.288462
v 1.923077 -0.826923 0.173077
v 1.538461 -0.365385 -0.288462
v 1.538461 -0.365385 0.173077
v 1.538461 -0.826923 -0.288462
v 1.538461 -0.826923 0.173077
v 1.923077 -0.365385 0.173077
v 1.923077 -0.365385 -0.288462
v 1.923077 -0.826923 0.173077
v 1.923077 -0.826923 -0.288462
vn -0.0000 -0.0000 1.0000
vn -0.0000 -0.0000 -1.0000
vn -0.0000 1.0000 -0.0000
vn -0.0000 -1.0000 -0.0000
vn -1.0000 -0.0000 -0.0000
vn 1.0000 -0.0000 -0.0000
vt 0.687500 0.625000
vt 0.687500 0.593750
vt 0.718750 0.625000
vt 0.718750 0.593750
vt 0.687500 0.562500
vt 0.687500 0.531250
vt 0.718750 0.562500
vt 0.718750 0.531250
vt 0.531250 0.281250
vt 0.531250 0.312500
vt 0.500000 0.281250
vt 0.500000 0.312500
vt 0.718750 0.500000
vt 0.718750 0.468750
vt 0.687500 0.500000
vt 0.687500 0.468750
vt 0.437500 0.312500
vt 0.437500 0.281250
vt 0.468750 0.312500
vt 0.468750 0.281250
vt 0.375000 0.312500
vt 0.375000 0.281250
vt 0.406250 0.312500
vt 0.406250 0.281250
vt 0.562500 0.687500
vt 0.562500 0.625000
vt 0.687500 0.687500
vt 0.562500 0.562500
vt 0.625000 0.437500
vt 0.625000 0.562500
vt 0.562500 0.437500
vt 0.625000 0.312500
vt 0.562500 0.312500
vt 0.062500 0.312500
vt 0.062500 0.250000
vt 0.125000 0.312500
vt 0.125000 0.250000
vt 0.625000 0.750000
vt 0.625000 0.687500
vt 0.687500 0.750000
vt 0.687500 0.437500
vt 0.687500 0.406250
vt 0.718750 0.437500
vt 0.718750 0.406250
vt 0.687500 0.312500
vt 0.687500 0.281250
vt 0.718750 0.312500
vt 0.718750 0.281250
vt 0.781250 0.968750
vt 0.781250 1.000000
vt 0.750000 0.968750
vt 0.750000 1.000000
vt 0.093750 0.250000
vt 0.093750 0.218750
vt 0.062500 0.218750
vt 0.687500 0.375000
vt 0.687500 0.343750
vt 0.718750 0.375000
vt 0.718750 0.343750
vt 0.562500 0.281250
vt 0.593750 0.312500
vt 0.593750 0.281250
vt 0.125000 0.218750
vt 0.156250 0.250000
vt 0.156250 0.218750
vt 0.750000 0.812500
vt 0.750000 0.781250
vt 0.781250 0.812500
vt 0.781250 0.781250
vt 0.781250 0.718750
vt 0.781250 0.750000
vt 0.750000 0.718750
vt 0.750000 0.750000
vt 0.343750 0.250000
vt 0.343750 0.218750
vt 0.312500 0.250000
vt 0.312500 0.218750
vt 0.750000 0.875000
vt 0.750000 0.843750
vt 0.781250 0.875000
vt 0.781250 0.843750
vt 0.750000 0.937500
vt 0.750000 0.906250
vt 0.781250 0.937500
vt 0.781250 0.906250
vt 0.000000 0.375000
vt 0.000000 0.312500
vt 0.125000 0.375000
vt 0.625000 1.000000
vt 0.625000 0.937500
vt 0.687500 0.812500
vt 0.687500 0.937500
vt 0.625000 0.812500
vt 0.187500 0.375000
vt 0.187500 0.250000
vt 0.687500 0.875000
vt 0.375000 0.250000
vt 0.375000 0.218750
vt 0.406250 0.250000
vt 0.406250 0.218750
vt 0.437500 0.250000
vt 0.437500 0.218750
vt 0.468750 0.250000
vt 0.468750 0.218750
vt 0.781250 0.531250
vt 0.781250 0.562500
vt 0.750000 0.531250
vt 0.750000 0.562500
vt 0.531250 0.250000
vt 0.531250 0.218750
vt 0.500000 0.250000
vt 0.500000 0.218750
vt 0.750000 0.625000
vt 0.750000 0.593750
vt 0.781250 0.625000
vt 0.781250 0.593750
vt 0.750000 0.687500
vt 0.750000 0.656250
vt 0.781250 0.687500
vt 0.781250 0.656250
s 0
usemtl Material_0.002
f 121/72/11 123/73/11 122/74/11
f 123/73/11 124/75/11 122/74/11
f 125/76/12 127/77/12 126/78/12
f 127/77/12 128/79/12 126/78/12
f 129/80/13 131/81/13 130/82/13
f 131/81/13 132/83/13 130/82/13
f 133/84/14 135/85/14 134/86/14
f 135/85/14 136/87/14 134/86/14
f 137/88/15 139/89/15 138/90/15
f 139/89/15 140/91/15 138/90/15
f 141/92/16 143/93/16 142/94/16
f 143/93/16 144/95/16 142/94/16
f 145/96/11 147/97/11 146/98/11
f 147/97/11 148/72/11 146/98/11
f 149/97/12 151/99/12 150/72/12
f 151/99/12 152/76/12 150/72/12
f 153/100/13 155/101/13 154/102/13
f 155/101/13 156/99/13 154/102/13
f 157/100/14 159/103/14 158/102/14
f 159/103/14 160/104/14 158/102/14
f 161/105/15 163/106/15 162/107/15
f 163/106/15 164/108/15 162/107/15
f 165/109/16 167/110/16 166/111/16
f 167/110/16 168/98/16 166/111/16
f 169/112/11 171/113/11 170/114/11
f 171/113/11 172/115/11 170/114/11
f 173/116/12 175/117/12 174/118/12
f 175/117/12 176/119/12 174/118/12
f 177/120/13 179/121/13 178/122/13
f 179/121/13 180/123/13 178/122/13
f 181/124/14 183/125/14 182/106/14
f 183/125/14 184/126/14 182/106/14
f 185/127/15 187/128/15 186/129/15
f 187/128/15 188/130/15 186/129/15
f 189/104/16 191/131/16 190/132/16
f 191/131/16 192/133/16 190/132/16
f 193/108/11 195/134/11 194/135/11
f 195/134/11 196/136/11 194/135/11
f 197/137/12 199/138/12 198/139/12
f 199/138/12 200/140/12 198/139/12
f 201/141/13 203/142/13 202/143/13
f 203/142/13 204/144/13 202/143/13
f 205/145/14 207/146/14 206/147/14
f 207/146/14 208/148/14 206/147/14
f 209/149/15 211/150/15 210/151/15
f 211/150/15 212/152/15 210/151/15
f 213/153/16 215/154/16 214/155/16
f 215/154/16 216/156/16 214/155/16
f 217/157/11 219/158/11 218/159/11
f 219/158/11 220/107/11 218/159/11
f 221/160/12 223/161/12 222/123/12
f 223/161/12 224/153/12 222/123/12
f 225/162/13 227/163/13 226/164/13
f 227/163/13 228/161/13 226/164/13
f 229/165/14 231/166/14 230/159/14
f 231/166/14 232/108/14 230/159/14
f 233/167/15 235/162/15 234/149/15
f 235/162/15 236/137/15 234/149/15
f 237/163/16 239/167/16 238/153/16
f 239/167/16 240/149/16 238/153/16
f 241/168/11 243/169/11 242/170/11
f 243/169/11 244/171/11 242/170/11
f 245/172/12 247/173/12 246/174/12
f 247/173/12 248/175/12 246/174/12
f 249/176/13 251/177/13 250/178/13
f 251/177/13 252/179/13 250/178/13
f 253/180/14 255/181/14 254/182/14
f 255/181/14 256/183/14 254/182/14
f 257/184/15 259/185/15 258/186/15
f 259/185/15 260/187/15 258/186/15
f 261/188/16 263/189/16 262/190/16
f 263/189/16 264/191/16 262/190/16
