# Blender 5.0.1
# www.blender.org
mtllib lev.pmdrum.mtl
o bulletModel_1
v 0.082085 0.392077 0.250000
v 0.851315 0.392077 0.250000
v 0.082085 -0.107923 0.250000
v 0.851315 -0.107923 0.250000
v 0.851315 0.392077 -0.250000
v 0.082085 0.392077 -0.250000
v 0.851315 -0.107923 -0.250000
v 0.082085 -0.107923 -0.250000
v 0.851315 0.392077 -0.250000
v 0.851315 0.392077 0.250000
v 0.082085 0.392077 -0.250000
v 0.082085 0.392077 0.250000
v 0.082085 -0.107923 -0.250000
v 0.082085 -0.107923 0.250000
v 0.851315 -0.107923 -0.250000
v 0.851315 -0.107923 0.250000
v 0.082085 0.392077 -0.250000
v 0.082085 0.392077 0.250000
v 0.082085 -0.107923 -0.250000
v 0.082085 -0.107923 0.250000
v 0.851315 0.392077 0.250000
v 0.851315 0.392077 -0.250000
v 0.851315 -0.107923 0.250000
v 0.851315 -0.107923 -0.250000
v 0.716700 0.353615 0.211538
v 1.101315 0.353615 0.211538
v 0.716700 -0.069462 0.211538
v 1.101315 -0.069462 0.211538
v 1.101315 0.353615 -0.211538
v 0.716700 0.353615 -0.211538
v 1.101315 -0.069462 -0.211538
v 0.716700 -0.069462 -0.211538
v 1.101315 0.353615 -0.211538
v 1.101315 0.353615 0.211538
v 0.716700 0.353615 -0.211538
v 0.716700 0.353615 0.211538
v 0.716700 -0.069462 -0.211538
v 0.716700 -0.069462 0.211538
v 1.101315 -0.069462 -0.211538
v 1.101315 -0.069462 0.211538
v 0.716700 0.353615 -0.211538
v 0.716700 0.353615 0.211538
v 0.716700 -0.069462 -0.211538
v 0.716700 -0.069462 0.211538
v 1.101315 0.353615 0.211538
v 1.101315 0.353615 -0.211538
v 1.101315 -0.069462 0.211538
v 1.101315 -0.069462 -0.211538
vn -0.0000 -0.0000 1.0000
vn -0.0000 -0.0000 -1.0000
vn -0.0000 1.0000 -0.0000
vn -0.0000 -1.0000 -0.0000
vn -1.0000 -0.0000 -0.0000
vn 1.0000 -0.0000 -0.0000
vt 0.125000 0.375000
vt 0.125000 0.343750
vt 0.187500 0.375000
vt 0.187500 0.343750
vt 0.250000 0.375000
vt 0.250000 0.343750
vt 0.281250 0.312500
vt 0.281250 0.375000
vt 0.250000 0.312500
vt 0.656250 0.750000
vt 0.656250 0.687500
vt 0.625000 0.750000
vt 0.625000 0.687500
vt 0.750000 0.625000
vt 0.750000 0.593750
vt 0.781250 0.625000
vt 0.781250 0.593750
vt 0.375000 0.250000
vt 0.375000 0.218750
vt 0.406250 0.250000
vt 0.406250 0.218750
vt 0.750000 0.812500
vt 0.750000 0.781250
vt 0.781250 0.812500
vt 0.781250 0.781250
vt 0.750000 0.750000
vt 0.750000 0.718750
vt 0.781250 0.750000
vt 0.781250 0.718750
vt 0.343750 0.218750
vt 0.343750 0.250000
vt 0.312500 0.218750
vt 0.312500 0.250000
vt 0.781250 0.687500
vt 0.781250 0.656250
vt 0.750000 0.687500
vt 0.750000 0.656250
vt 0.250000 0.250000
vt 0.250000 0.218750
vt 0.281250 0.250000
vt 0.281250 0.218750
vt 0.187500 0.250000
vt 0.187500 0.218750
vt 0.218750 0.250000
vt 0.218750 0.218750
s 0
usemtl Material_0
f 1/1/1 3/2/1 2/3/1
f 3/2/1 4/4/1 2/3/1
f 5/3/2 7/4/2 6/5/2
f 7/4/2 8/6/2 6/5/2
f 9/7/3 11/8/3 10/9/3
f 11/8/3 12/5/3 10/9/3
f 13/10/4 15/11/4 14/12/4
f 15/11/4 16/13/4 14/12/4
f 17/14/5 19/15/5 18/16/5
f 19/15/5 20/17/5 18/16/5
f 21/18/6 23/19/6 22/20/6
f 23/19/6 24/21/6 22/20/6
f 25/22/1 27/23/1 26/24/1
f 27/23/1 28/25/1 26/24/1
f 29/26/2 31/27/2 30/28/2
f 31/27/2 32/29/2 30/28/2
f 33/30/3 35/31/3 34/32/3
f 35/31/3 36/33/3 34/32/3
f 37/34/4 39/35/4 38/36/4
f 39/35/4 40/37/4 38/36/4
f 41/38/5 43/39/5 42/40/5
f 43/39/5 44/41/5 42/40/5
f 45/42/6 47/43/6 46/44/6
f 47/43/6 48/45/6 46/44/6
o ammoModel
v 0.000000 0.000000 0.311538
v 1.153846 0.000000 0.311538
v 0.000000 -3.076923 0.311538
v 1.153846 -3.076923 0.311538
v 1.153846 0.000000 -0.303846
v -0.000000 0.000000 -0.303846
v 1.153846 -3.076923 -0.303846
v -0.000000 -3.076923 -0.303846
v 1.153846 0.000000 -0.303846
v 1.153846 0.000000 0.311538
v -0.000000 0.000000 -0.303846
v 0.000000 0.000000 0.311538
v -0.000000 -3.076923 -0.303846
v 0.000000 -3.076923 0.311538
v 1.153846 -3.076923 -0.303846
v 1.153846 -3.076923 0.311538
v -0.000000 0.000000 -0.303846
v 0.000000 0.000000 0.311538
v -0.000000 -3.076923 -0.303846
v 0.000000 -3.076923 0.311538
v 1.153846 0.000000 0.311538
v 1.153846 0.000000 -0.303846
v 1.153846 -3.076923 0.311538
v 1.153846 -3.076923 -0.303846
v 0.000000 0.384615 0.304615
v 0.769231 0.384615 0.304615
v 0.000000 0.000000 0.304615
v 0.769231 0.000000 0.304615
v 0.769231 0.384615 0.303846
v 0.000000 0.384615 0.303846
v 0.769231 0.000000 0.303846
v 0.000000 0.000000 0.303846
v 0.769231 0.384615 0.303846
v 0.769231 0.384615 0.304615
v 0.000000 0.384615 0.303846
v 0.000000 0.384615 0.304615
v 0.000000 0.000000 0.303846
v 0.000000 0.000000 0.304615
v 0.769231 0.000000 0.303846
v 0.769231 0.000000 0.304615
v 0.000000 0.384615 0.303846
v 0.000000 0.384615 0.304615
v 0.000000 0.000000 0.303846
v 0.000000 0.000000 0.304615
v 0.769231 0.384615 0.304615
v 0.769231 0.384615 0.303846
v 0.769231 0.000000 0.304615
v 0.769231 0.000000 0.303846
v -0.000000 0.384615 -0.310769
v 0.769231 0.384615 -0.310769
v -0.000000 0.000000 -0.310769
v 0.769231 0.000000 -0.310769
v 0.769231 0.384615 -0.311538
v -0.000000 0.384615 -0.311538
v 0.769231 0.000000 -0.311538
v -0.000000 0.000000 -0.311538
v 0.769231 0.384615 -0.311538
v 0.769231 0.384615 -0.310769
v -0.000000 0.384615 -0.311538
v -0.000000 0.384615 -0.310769
v -0.000000 0.000000 -0.311538
v -0.000000 0.000000 -0.310769
v 0.769231 0.000000 -0.311538
v 0.769231 0.000000 -0.310769
v -0.000000 0.384615 -0.311538
v -0.000000 0.384615 -0.310769
v -0.000000 0.000000 -0.311538
v -0.000000 0.000000 -0.310769
v 0.769231 0.384615 -0.310769
v 0.769231 0.384615 -0.311538
v 0.769231 0.000000 -0.310769
v 0.769231 0.000000 -0.311538
v 0.192308 -3.076923 1.811538
v 1.346154 -3.076923 1.811538
v 0.192308 -6.538462 1.811538
v 1.346154 -6.538462 1.811538
v 1.346153 -3.076923 -1.650000
v 0.192307 -3.076923 -1.650000
v 1.346153 -6.538462 -1.650000
v 0.192307 -6.538462 -1.650000
v 1.346153 -3.076923 -1.650000
v 1.346154 -3.076923 1.811538
v 0.192307 -3.076923 -1.650000
v 0.192308 -3.076923 1.811538
v 0.192307 -6.538462 -1.650000
v 0.192308 -6.538462 1.811538
v 1.346153 -6.538462 -1.650000
v 1.346154 -6.538462 1.811538
v 0.192307 -3.076923 -1.650000
v 0.192308 -3.076923 1.811538
v 0.192307 -6.538462 -1.650000
v 0.192308 -6.538462 1.811538
v 1.346154 -3.076923 1.811538
v 1.346153 -3.076923 -1.650000
v 1.346154 -6.538462 1.811538
v 1.346153 -6.538462 -1.650000
vn -0.0000 -0.0000 1.0000
vn -0.0000 -0.0000 -1.0000
vn -0.0000 1.0000 -0.0000
vn -0.0000 -1.0000 -0.0000
vn -1.0000 -0.0000 -0.0000
vn 1.0000 -0.0000 -0.0000
vt 0.437500 0.750000
vt 0.437500 0.500000
vt 0.531250 0.750000
vt 0.531250 0.500000
vt 0.437500 0.250000
vt 0.531250 0.250000
vt 0.062500 0.281250
vt 0.062500 0.375000
vt 0.000000 0.281250
vt 0.000000 0.375000
vt 0.125000 0.375000
vt 0.125000 0.281250
vt 0.562500 0.500000
vt 0.562500 0.250000
vt 0.625000 0.500000
vt 0.625000 0.250000
vt 0.562500 0.750000
vt 0.625000 0.750000
vt 0.312500 0.375000
vt 0.312500 0.343750
vt 0.375000 0.375000
vt 0.375000 0.343750
vt 0.625000 0.687500
vt 0.625000 0.656250
vt 0.687500 0.687500
vt 0.687500 0.656250
vt 0.000000 0.937500
vt 0.000000 1.000000
vt 0.000000 0.968750
vt 0.437500 0.375000
vt 0.437500 0.343750
vt 0.625000 0.625000
vt 0.625000 0.593750
vt 0.687500 0.625000
vt 0.687500 0.593750
vt 0.312500 1.000000
vt 0.312500 0.718750
vt 0.406250 1.000000
vt 0.406250 0.718750
vt 0.312500 0.687500
vt 0.312500 0.406250
vt 0.406250 0.687500
vt 0.406250 0.406250
vt 0.718750 0.906250
vt 0.718750 1.000000
vt 0.437500 0.906250
vt 0.437500 1.000000
vt 0.718750 0.875000
vt 0.718750 0.781250
vt 0.437500 0.875000
vt 0.437500 0.781250
vt 0.000000 0.687500
vt 0.000000 0.406250
vt 0.281250 0.687500
vt 0.281250 0.406250
vt 0.000000 0.718750
vt 0.281250 1.000000
vt 0.281250 0.718750
s 0
usemtl Material_0
f 49/46/7 51/47/7 50/48/7
f 51/47/7 52/49/7 50/48/7
f 53/47/8 55/50/8 54/49/8
f 55/50/8 56/51/8 54/49/8
f 57/52/9 59/53/9 58/54/9
f 59/53/9 60/55/9 58/54/9
f 61/56/10 63/57/10 62/53/10
f 63/57/10 64/52/10 62/53/10
f 65/58/11 67/59/11 66/60/11
f 67/59/11 68/61/11 66/60/11
f 69/62/12 71/58/12 70/63/12
f 71/58/12 72/60/12 70/63/12
f 73/64/7 75/65/7 74/66/7
f 75/65/7 76/67/7 74/66/7
f 77/68/8 79/69/8 78/70/8
f 79/69/8 80/71/8 78/70/8
f 81/72/9 83/73/9 82/72/9
f 83/73/9 84/73/9 82/72/9
f 85/73/10 87/72/10 86/73/10
f 87/72/10 88/72/10 86/73/10
f 89/73/11 91/74/11 90/73/11
f 91/74/11 92/74/11 90/73/11
f 93/73/12 95/74/12 94/73/12
f 95/74/12 96/74/12 94/73/12
f 97/66/7 99/67/7 98/75/7
f 99/67/7 100/76/7 98/75/7
f 101/77/8 103/78/8 102/79/8
f 103/78/8 104/80/8 102/79/8
f 105/72/9 107/73/9 106/72/9
f 107/73/9 108/73/9 106/72/9
f 109/73/10 111/72/10 110/73/10
f 111/72/10 112/72/10 110/73/10
f 113/73/11 115/74/11 114/73/11
f 115/74/11 116/74/11 114/73/11
f 117/73/12 119/74/12 118/73/12
f 119/74/12 120/74/12 118/73/12
f 121/81/7 123/82/7 122/83/7
f 123/82/7 124/84/7 122/83/7
f 125/85/8 127/86/8 126/87/8
f 127/86/8 128/88/8 126/87/8
f 129/89/9 131/90/9 130/91/9
f 131/90/9 132/92/9 130/91/9
f 133/93/10 135/94/10 134/95/10
f 135/94/10 136/96/10 134/95/10
f 137/97/11 139/98/11 138/99/11
f 139/98/11 140/100/11 138/99/11
f 141/73/12 143/101/12 142/102/12
f 143/101/12 144/103/12 142/102/12
o bulletModel_2
v 0.384615 -0.384615 -0.306923
v 1.153846 -0.384615 -0.306923
v 0.384615 -0.769231 -0.306923
v 1.153846 -0.769231 -0.306923
v 1.153846 -0.384615 -0.307692
v 0.384615 -0.384615 -0.307692
v 1.153846 -0.769231 -0.307692
v 0.384615 -0.769231 -0.307692
v 1.153846 -0.384615 -0.307692
v 1.153846 -0.384615 -0.306923
v 0.384615 -0.384615 -0.307692
v 0.384615 -0.384615 -0.306923
v 0.384615 -0.769231 -0.307692
v 0.384615 -0.769231 -0.306923
v 1.153846 -0.769231 -0.307692
v 1.153846 -0.769231 -0.306923
v 0.384615 -0.384615 -0.307692
v 0.384615 -0.384615 -0.306923
v 0.384615 -0.769231 -0.307692
v 0.384615 -0.769231 -0.306923
v 1.153846 -0.384615 -0.306923
v 1.153846 -0.384615 -0.307692
v 1.153846 -0.769231 -0.306923
v 1.153846 -0.769231 -0.307692
v 0.384615 -0.384615 0.316154
v 1.153846 -0.384615 0.316154
v 0.384615 -0.769231 0.316154
v 1.153846 -0.769231 0.316154
v 1.153846 -0.384615 0.315385
v 0.384615 -0.384615 0.315385
v 1.153846 -0.769231 0.315385
v 0.384615 -0.769231 0.315385
v 1.153846 -0.384615 0.315385
v 1.153846 -0.384615 0.316154
v 0.384615 -0.384615 0.315385
v 0.384615 -0.384615 0.316154
v 0.384615 -0.769231 0.315385
v 0.384615 -0.769231 0.316154
v 1.153846 -0.769231 0.315385
v 1.153846 -0.769231 0.316154
v 0.384615 -0.384615 0.315385
v 0.384615 -0.384615 0.316154
v 0.384615 -0.769231 0.315385
v 0.384615 -0.769231 0.316154
v 1.153846 -0.384615 0.316154
v 1.153846 -0.384615 0.315385
v 1.153846 -0.769231 0.316154
v 1.153846 -0.769231 0.315385
vn -0.0000 -0.0000 1.0000
vn -0.0000 -0.0000 -1.0000
vn -0.0000 1.0000 -0.0000
vn -0.0000 -1.0000 -0.0000
vn -1.0000 -0.0000 -0.0000
vn 1.0000 -0.0000 -0.0000
vt 0.625000 0.562500
vt 0.625000 0.531250
vt 0.687500 0.562500
vt 0.687500 0.531250
vt 0.625000 0.500000
vt 0.625000 0.468750
vt 0.687500 0.500000
vt 0.687500 0.468750
vt 0.000000 0.937500
vt 0.000000 1.000000
vt 0.000000 0.968750
vt 0.000000 0.250000
vt 0.000000 0.218750
vt 0.062500 0.250000
vt 0.062500 0.218750
vt 0.750000 1.000000
vt 0.750000 0.968750
vt 0.812500 1.000000
vt 0.812500 0.968750
s 0
usemtl Material_0
f 145/104/13 147/105/13 146/106/13
f 147/105/13 148/107/13 146/106/13
f 149/108/14 151/109/14 150/110/14
f 151/109/14 152/111/14 150/110/14
f 153/112/15 155/113/15 154/112/15
f 155/113/15 156/113/15 154/112/15
f 157/113/16 159/112/16 158/113/16
f 159/112/16 160/112/16 158/113/16
f 161/113/17 163/114/17 162/113/17
f 163/114/17 164/114/17 162/113/17
f 165/113/18 167/114/18 166/113/18
f 167/114/18 168/114/18 166/113/18
f 169/115/13 171/116/13 170/117/13
f 171/116/13 172/118/13 170/117/13
f 173/119/14 175/120/14 174/121/14
f 175/120/14 176/122/14 174/121/14
f 177/112/15 179/113/15 178/112/15
f 179/113/15 180/113/15 178/112/15
f 181/113/16 183/112/16 182/113/16
f 183/112/16 184/112/16 182/113/16
f 185/113/17 187/114/17 186/113/17
f 187/114/17 188/114/17 186/113/17
f 189/113/18 191/114/18 190/113/18
f 191/114/18 192/114/18 190/113/18
o bulletModel_3
v 0.384615 -0.769231 -0.306923
v 1.153846 -0.769231 -0.306923
v 0.384615 -1.153846 -0.306923
v 1.153846 -1.153846 -0.306923
v 1.153846 -0.769231 -0.307692
v 0.384615 -0.769231 -0.307692
v 1.153846 -1.153846 -0.307692
v 0.384615 -1.153846 -0.307692
v 1.153846 -0.769231 -0.307692
v 1.153846 -0.769231 -0.306923
v 0.384615 -0.769231 -0.307692
v 0.384615 -0.769231 -0.306923
v 0.384615 -1.153846 -0.307692
v 0.384615 -1.153846 -0.306923
v 1.153846 -1.153846 -0.307692
v 1.153846 -1.153846 -0.306923
v 0.384615 -0.769231 -0.307692
v 0.384615 -0.769231 -0.306923
v 0.384615 -1.153846 -0.307692
v 0.384615 -1.153846 -0.306923
v 1.153846 -0.769231 -0.306923
v 1.153846 -0.769231 -0.307692
v 1.153846 -1.153846 -0.306923
v 1.153846 -1.153846 -0.307692
v 0.384615 -0.769231 0.316154
v 1.153846 -0.769231 0.316154
v 0.384615 -1.153846 0.316154
v 1.153846 -1.153846 0.316154
v 1.153846 -0.769231 0.315385
v 0.384615 -0.769231 0.315385
v 1.153846 -1.153846 0.315385
v 0.384615 -1.153846 0.315385
v 1.153846 -0.769231 0.315385
v 1.153846 -0.769231 0.316154
v 0.384615 -0.769231 0.315385
v 0.384615 -0.769231 0.316154
v 0.384615 -1.153846 0.315385
v 0.384615 -1.153846 0.316154
v 1.153846 -1.153846 0.315385
v 1.153846 -1.153846 0.316154
v 0.384615 -0.769231 0.315385
v 0.384615 -0.769231 0.316154
v 0.384615 -1.153846 0.315385
v 0.384615 -1.153846 0.316154
v 1.153846 -0.769231 0.316154
v 1.153846 -0.769231 0.315385
v 1.153846 -1.153846 0.316154
v 1.153846 -1.153846 0.315385
vn -0.0000 -0.0000 1.0000
vn -0.0000 -0.0000 -1.0000
vn -0.0000 1.0000 -0.0000
vn -0.0000 -1.0000 -0.0000
vn -1.0000 -0.0000 -0.0000
vn 1.0000 -0.0000 -0.0000
vt 0.625000 0.437500
vt 0.625000 0.406250
vt 0.687500 0.437500
vt 0.687500 0.406250
vt 0.625000 0.375000
vt 0.625000 0.343750
vt 0.687500 0.375000
vt 0.687500 0.343750
vt 0.000000 0.937500
vt 0.000000 1.000000
vt 0.000000 0.968750
vt 0.375000 0.312500
vt 0.375000 0.281250
vt 0.437500 0.312500
vt 0.437500 0.281250
vt 0.687500 0.625000
vt 0.687500 0.593750
vt 0.750000 0.625000
vt 0.750000 0.593750
s 0
usemtl Material_0
f 193/123/19 195/124/19 194/125/19
f 195/124/19 196/126/19 194/125/19
f 197/127/20 199/128/20 198/129/20
f 199/128/20 200/130/20 198/129/20
f 201/131/21 203/132/21 202/131/21
f 203/132/21 204/132/21 202/131/21
f 205/132/22 207/131/22 206/132/22
f 207/131/22 208/131/22 206/132/22
f 209/132/23 211/133/23 210/132/23
f 211/133/23 212/133/23 210/132/23
f 213/132/24 215/133/24 214/132/24
f 215/133/24 216/133/24 214/132/24
f 217/134/19 219/135/19 218/136/19
f 219/135/19 220/137/19 218/136/19
f 221/138/20 223/139/20 222/140/20
f 223/139/20 224/141/20 222/140/20
f 225/131/21 227/132/21 226/131/21
f 227/132/21 228/132/21 226/131/21
f 229/132/22 231/131/22 230/132/22
f 231/131/22 232/131/22 230/132/22
f 233/132/23 235/133/23 234/132/23
f 235/133/23 236/133/23 234/132/23
f 237/132/24 239/133/24 238/132/24
f 239/133/24 240/133/24 238/132/24
o bulletModel_4
v 0.384615 -1.153846 -0.306923
v 1.153846 -1.153846 -0.306923
v 0.384615 -1.538462 -0.306923
v 1.153846 -1.538462 -0.306923
v 1.153846 -1.153846 -0.307692
v 0.384615 -1.153846 -0.307692
v 1.153846 -1.538462 -0.307692
v 0.384615 -1.538462 -0.307692
v 1.153846 -1.153846 -0.307692
v 1.153846 -1.153846 -0.306923
v 0.384615 -1.153846 -0.307692
v 0.384615 -1.153846 -0.306923
v 0.384615 -1.538462 -0.307692
v 0.384615 -1.538462 -0.306923
v 1.153846 -1.538462 -0.307692
v 1.153846 -1.538462 -0.306923
v 0.384615 -1.153846 -0.307692
v 0.384615 -1.153846 -0.306923
v 0.384615 -1.538462 -0.307692
v 0.384615 -1.538462 -0.306923
v 1.153846 -1.153846 -0.306923
v 1.153846 -1.153846 -0.307692
v 1.153846 -1.538462 -0.306923
v 1.153846 -1.538462 -0.307692
v 0.384615 -1.153846 0.316154
v 1.153846 -1.153846 0.316154
v 0.384615 -1.538462 0.316154
v 1.153846 -1.538462 0.316154
v 1.153846 -1.153846 0.315385
v 0.384615 -1.153846 0.315385
v 1.153846 -1.538462 0.315385
v 0.384615 -1.538462 0.315385
v 1.153846 -1.153846 0.315385
v 1.153846 -1.153846 0.316154
v 0.384615 -1.153846 0.315385
v 0.384615 -1.153846 0.316154
v 0.384615 -1.538462 0.315385
v 0.384615 -1.538462 0.316154
v 1.153846 -1.538462 0.315385
v 1.153846 -1.538462 0.316154
v 0.384615 -1.153846 0.315385
v 0.384615 -1.153846 0.316154
v 0.384615 -1.538462 0.315385
v 0.384615 -1.538462 0.316154
v 1.153846 -1.153846 0.316154
v 1.153846 -1.153846 0.315385
v 1.153846 -1.538462 0.316154
v 1.153846 -1.538462 0.315385
vn -0.0000 -0.0000 1.0000
vn -0.0000 -0.0000 -1.0000
vn -0.0000 1.0000 -0.0000
vn -0.0000 -1.0000 -0.0000
vn -1.0000 -0.0000 -0.0000
vn 1.0000 -0.0000 -0.0000
vt 0.125000 0.312500
vt 0.125000 0.281250
vt 0.187500 0.312500
vt 0.187500 0.281250
vt 0.250000 0.312500
vt 0.250000 0.281250
vt 0.000000 0.937500
vt 0.000000 1.000000
vt 0.000000 0.968750
vt 0.687500 0.562500
vt 0.687500 0.531250
vt 0.750000 0.562500
vt 0.750000 0.531250
vt 0.687500 0.500000
vt 0.687500 0.468750
vt 0.750000 0.500000
vt 0.750000 0.468750
s 0
usemtl Material_0
f 241/142/25 243/143/25 242/144/25
f 243/143/25 244/145/25 242/144/25
f 245/144/26 247/145/26 246/146/26
f 247/145/26 248/147/26 246/146/26
f 249/148/27 251/149/27 250/148/27
f 251/149/27 252/149/27 250/148/27
f 253/149/28 255/148/28 254/149/28
f 255/148/28 256/148/28 254/149/28
f 257/149/29 259/150/29 258/149/29
f 259/150/29 260/150/29 258/149/29
f 261/149/30 263/150/30 262/149/30
f 263/150/30 264/150/30 262/149/30
f 265/151/25 267/152/25 266/153/25
f 267/152/25 268/154/25 266/153/25
f 269/155/26 271/156/26 270/157/26
f 271/156/26 272/158/26 270/157/26
f 273/148/27 275/149/27 274/148/27
f 275/149/27 276/149/27 274/148/27
f 277/149/28 279/148/28 278/149/28
f 279/148/28 280/148/28 278/149/28
f 281/149/29 283/150/29 282/149/29
f 283/150/29 284/150/29 282/149/29
f 285/149/30 287/150/30 286/149/30
f 287/150/30 288/150/30 286/149/30
o bulletModel_5
v 0.384615 -1.538462 -0.306923
v 1.153846 -1.538462 -0.306923
v 0.384615 -1.923077 -0.306923
v 1.153846 -1.923077 -0.306923
v 1.153846 -1.538462 -0.307692
v 0.384615 -1.538462 -0.307692
v 1.153846 -1.923077 -0.307692
v 0.384615 -1.923077 -0.307692
v 1.153846 -1.538462 -0.307692
v 1.153846 -1.538462 -0.306923
v 0.384615 -1.538462 -0.307692
v 0.384615 -1.538462 -0.306923
v 0.384615 -1.923077 -0.307692
v 0.384615 -1.923077 -0.306923
v 1.153846 -1.923077 -0.307692
v 1.153846 -1.923077 -0.306923
v 0.384615 -1.538462 -0.307692
v 0.384615 -1.538462 -0.306923
v 0.384615 -1.923077 -0.307692
v 0.384615 -1.923077 -0.306923
v 1.153846 -1.538462 -0.306923
v 1.153846 -1.538462 -0.307692
v 1.153846 -1.923077 -0.306923
v 1.153846 -1.923077 -0.307692
v 0.384615 -1.538462 0.316154
v 1.153846 -1.538462 0.316154
v 0.384615 -1.923077 0.316154
v 1.153846 -1.923077 0.316154
v 1.153846 -1.538462 0.315385
v 0.384615 -1.538462 0.315385
v 1.153846 -1.923077 0.315385
v 0.384615 -1.923077 0.315385
v 1.153846 -1.538462 0.315385
v 1.153846 -1.538462 0.316154
v 0.384615 -1.538462 0.315385
v 0.384615 -1.538462 0.316154
v 0.384615 -1.923077 0.315385
v 0.384615 -1.923077 0.316154
v 1.153846 -1.923077 0.315385
v 1.153846 -1.923077 0.316154
v 0.384615 -1.538462 0.315385
v 0.384615 -1.538462 0.316154
v 0.384615 -1.923077 0.315385
v 0.384615 -1.923077 0.316154
v 1.153846 -1.538462 0.316154
v 1.153846 -1.538462 0.315385
v 1.153846 -1.923077 0.316154
v 1.153846 -1.923077 0.315385
vn -0.0000 -0.0000 1.0000
vn -0.0000 -0.0000 -1.0000
vn -0.0000 1.0000 -0.0000
vn -0.0000 -1.0000 -0.0000
vn -1.0000 -0.0000 -0.0000
vn 1.0000 -0.0000 -0.0000
vt 0.250000 0.312500
vt 0.250000 0.281250
vt 0.312500 0.312500
vt 0.312500 0.281250
vt 0.687500 0.750000
vt 0.687500 0.718750
vt 0.750000 0.750000
vt 0.750000 0.718750
vt 0.000000 0.937500
vt 0.000000 1.000000
vt 0.000000 0.968750
vt 0.687500 0.437500
vt 0.687500 0.406250
vt 0.750000 0.437500
vt 0.750000 0.406250
vt 0.625000 0.312500
vt 0.625000 0.281250
vt 0.687500 0.312500
vt 0.687500 0.281250
s 0
usemtl Material_0
f 289/159/31 291/160/31 290/161/31
f 291/160/31 292/162/31 290/161/31
f 293/163/32 295/164/32 294/165/32
f 295/164/32 296/166/32 294/165/32
f 297/167/33 299/168/33 298/167/33
f 299/168/33 300/168/33 298/167/33
f 301/168/34 303/167/34 302/168/34
f 303/167/34 304/167/34 302/168/34
f 305/168/35 307/169/35 306/168/35
f 307/169/35 308/169/35 306/168/35
f 309/168/36 311/169/36 310/168/36
f 311/169/36 312/169/36 310/168/36
f 313/170/31 315/171/31 314/172/31
f 315/171/31 316/173/31 314/172/31
f 317/174/32 319/175/32 318/176/32
f 319/175/32 320/177/32 318/176/32
f 321/167/33 323/168/33 322/167/33
f 323/168/33 324/168/33 322/167/33
f 325/168/34 327/167/34 326/168/34
f 327/167/34 328/167/34 326/168/34
f 329/168/35 331/169/35 330/168/35
f 331/169/35 332/169/35 330/168/35
f 333/168/36 335/169/36 334/168/36
f 335/169/36 336/169/36 334/168/36
o bulletModel_7
v 0.384615 -2.307692 -0.306923
v 1.153846 -2.307692 -0.306923
v 0.384615 -2.692308 -0.306923
v 1.153846 -2.692308 -0.306923
v 1.153846 -2.307692 -0.307692
v 0.384615 -2.307692 -0.307692
v 1.153846 -2.692308 -0.307692
v 0.384615 -2.692308 -0.307692
v 1.153846 -2.307692 -0.307692
v 1.153846 -2.307692 -0.306923
v 0.384615 -2.307692 -0.307692
v 0.384615 -2.307692 -0.306923
v 0.384615 -2.692308 -0.307692
v 0.384615 -2.692308 -0.306923
v 1.153846 -2.692308 -0.307692
v 1.153846 -2.692308 -0.306923
v 0.384615 -2.307692 -0.307692
v 0.384615 -2.307692 -0.306923
v 0.384615 -2.692308 -0.307692
v 0.384615 -2.692308 -0.306923
v 1.153846 -2.307692 -0.306923
v 1.153846 -2.307692 -0.307692
v 1.153846 -2.692308 -0.306923
v 1.153846 -2.692308 -0.307692
v 0.384615 -2.307692 0.316154
v 1.153846 -2.307692 0.316154
v 0.384615 -2.692308 0.316154
v 1.153846 -2.692308 0.316154
v 1.153846 -2.307692 0.315385
v 0.384615 -2.307692 0.315385
v 1.153846 -2.692308 0.315385
v 0.384615 -2.692308 0.315385
v 1.153846 -2.307692 0.315385
v 1.153846 -2.307692 0.316154
v 0.384615 -2.307692 0.315385
v 0.384615 -2.307692 0.316154
v 0.384615 -2.692308 0.315385
v 0.384615 -2.692308 0.316154
v 1.153846 -2.692308 0.315385
v 1.153846 -2.692308 0.316154
v 0.384615 -2.307692 0.315385
v 0.384615 -2.307692 0.316154
v 0.384615 -2.692308 0.315385
v 0.384615 -2.692308 0.316154
v 1.153846 -2.307692 0.316154
v 1.153846 -2.307692 0.315385
v 1.153846 -2.692308 0.316154
v 1.153846 -2.692308 0.315385
vn -0.0000 -0.0000 1.0000
vn -0.0000 -0.0000 -1.0000
vn -0.0000 1.0000 -0.0000
vn -0.0000 -1.0000 -0.0000
vn -1.0000 -0.0000 -0.0000
vn 1.0000 -0.0000 -0.0000
vt 0.312500 0.312500
vt 0.312500 0.281250
vt 0.375000 0.312500
vt 0.375000 0.281250
vt 0.687500 0.687500
vt 0.687500 0.656250
vt 0.750000 0.687500
vt 0.750000 0.656250
vt 0.000000 0.937500
vt 0.000000 1.000000
vt 0.000000 0.968750
vt 0.062500 0.250000
vt 0.062500 0.218750
vt 0.125000 0.250000
vt 0.125000 0.218750
vt 0.750000 0.937500
vt 0.750000 0.906250
vt 0.812500 0.937500
vt 0.812500 0.906250
s 0
usemtl Material_0
f 337/178/37 339/179/37 338/180/37
f 339/179/37 340/181/37 338/180/37
f 341/182/38 343/183/38 342/184/38
f 343/183/38 344/185/38 342/184/38
f 345/186/39 347/187/39 346/186/39
f 347/187/39 348/187/39 346/186/39
f 349/187/40 351/186/40 350/187/40
f 351/186/40 352/186/40 350/187/40
f 353/187/41 355/188/41 354/187/41
f 355/188/41 356/188/41 354/187/41
f 357/187/42 359/188/42 358/187/42
f 359/188/42 360/188/42 358/187/42
f 361/189/37 363/190/37 362/191/37
f 363/190/37 364/192/37 362/191/37
f 365/193/38 367/194/38 366/195/38
f 367/194/38 368/196/38 366/195/38
f 369/186/39 371/187/39 370/186/39
f 371/187/39 372/187/39 370/186/39
f 373/187/40 375/186/40 374/187/40
f 375/186/40 376/186/40 374/187/40
f 377/187/41 379/188/41 378/187/41
f 379/188/41 380/188/41 378/187/41
f 381/187/42 383/188/42 382/187/42
f 383/188/42 384/188/42 382/187/42
o bulletModel_6
v 0.384615 -1.923077 -0.306923
v 1.153846 -1.923077 -0.306923
v 0.384615 -2.307692 -0.306923
v 1.153846 -2.307692 -0.306923
v 1.153846 -1.923077 -0.307692
v 0.384615 -1.923077 -0.307692
v 1.153846 -2.307692 -0.307692
v 0.384615 -2.307692 -0.307692
v 1.153846 -1.923077 -0.307692
v 1.153846 -1.923077 -0.306923
v 0.384615 -1.923077 -0.307692
v 0.384615 -1.923077 -0.306923
v 0.384615 -2.307692 -0.307692
v 0.384615 -2.307692 -0.306923
v 1.153846 -2.307692 -0.307692
v 1.153846 -2.307692 -0.306923
v 0.384615 -1.923077 -0.307692
v 0.384615 -1.923077 -0.306923
v 0.384615 -2.307692 -0.307692
v 0.384615 -2.307692 -0.306923
v 1.153846 -1.923077 -0.306923
v 1.153846 -1.923077 -0.307692
v 1.153846 -2.307692 -0.306923
v 1.153846 -2.307692 -0.307692
v 0.384615 -1.923077 0.316154
v 1.153846 -1.923077 0.316154
v 0.384615 -2.307692 0.316154
v 1.153846 -2.307692 0.316154
v 1.153846 -1.923077 0.315385
v 0.384615 -1.923077 0.315385
v 1.153846 -2.307692 0.315385
v 0.384615 -2.307692 0.315385
v 1.153846 -1.923077 0.315385
v 1.153846 -1.923077 0.316154
v 0.384615 -1.923077 0.315385
v 0.384615 -1.923077 0.316154
v 0.384615 -2.307692 0.315385
v 0.384615 -2.307692 0.316154
v 1.153846 -2.307692 0.315385
v 1.153846 -2.307692 0.316154
v 0.384615 -1.923077 0.315385
v 0.384615 -1.923077 0.316154
v 0.384615 -2.307692 0.315385
v 0.384615 -2.307692 0.316154
v 1.153846 -1.923077 0.316154
v 1.153846 -1.923077 0.315385
v 1.153846 -2.307692 0.316154
v 1.153846 -2.307692 0.315385
vn -0.0000 -0.0000 1.0000
vn -0.0000 -0.0000 -1.0000
vn -0.0000 1.0000 -0.0000
vn -0.0000 -1.0000 -0.0000
vn -1.0000 -0.0000 -0.0000
vn 1.0000 -0.0000 -0.0000
vt 0.125000 0.250000
vt 0.125000 0.218750
vt 0.187500 0.250000
vt 0.187500 0.218750
vt 0.750000 0.875000
vt 0.750000 0.843750
vt 0.812500 0.875000
vt 0.812500 0.843750
vt 0.000000 0.937500
vt 0.000000 1.000000
vt 0.000000 0.968750
vt 0.687500 0.375000
vt 0.687500 0.343750
vt 0.750000 0.375000
vt 0.750000 0.343750
vt 0.687500 0.312500
vt 0.687500 0.281250
vt 0.750000 0.312500
vt 0.750000 0.281250
s 0
usemtl Material_0
f 385/197/43 387/198/43 386/199/43
f 387/198/43 388/200/43 386/199/43
f 389/201/44 391/202/44 390/203/44
f 391/202/44 392/204/44 390/203/44
f 393/205/45 395/206/45 394/205/45
f 395/206/45 396/206/45 394/205/45
f 397/206/46 399/205/46 398/206/46
f 399/205/46 400/205/46 398/206/46
f 401/206/47 403/207/47 402/206/47
f 403/207/47 404/207/47 402/206/47
f 405/206/48 407/207/48 406/206/48
f 407/207/48 408/207/48 406/206/48
f 409/208/43 411/209/43 410/210/43
f 411/209/43 412/211/43 410/210/43
f 413/212/44 415/213/44 414/214/44
f 415/213/44 416/215/44 414/214/44
f 417/205/45 419/206/45 418/205/45
f 419/206/45 420/206/45 418/205/45
f 421/206/46 423/205/46 422/206/46
f 423/205/46 424/205/46 422/206/46
f 425/206/47 427/207/47 426/206/47
f 427/207/47 428/207/47 426/206/47
f 429/206/48 431/207/48 430/206/48
f 431/207/48 432/207/48 430/206/48
