# Blender 5.0.1
# www.blender.org
mtllib lev.76239mag75.mtl
o ammoModel
v 1.922308 0.384615 0.384615
v 1.923077 0.384615 0.384615
v 1.922308 0.000000 0.384615
v 1.923077 0.000000 0.384615
v 1.923077 0.384615 -0.384615
v 1.922308 0.384615 -0.384615
v 1.923077 0.000000 -0.384615
v 1.922308 0.000000 -0.384615
v 1.923077 0.384615 -0.384615
v 1.923077 0.384615 0.384615
v 1.922308 0.384615 -0.384615
v 1.922308 0.384615 0.384615
v 1.922308 0.000000 -0.384615
v 1.922308 0.000000 0.384615
v 1.923077 0.000000 -0.384615
v 1.923077 0.000000 0.384615
v 1.922308 0.384615 -0.384615
v 1.922308 0.384615 0.384615
v 1.922308 0.000000 -0.384615
v 1.922308 0.000000 0.384615
v 1.923077 0.384615 0.384615
v 1.923077 0.384615 -0.384615
v 1.923077 0.000000 0.384615
v 1.923077 0.000000 -0.384615
v -0.000000 0.769231 -0.383846
v 1.923077 0.769231 -0.383846
v -0.000000 0.000000 -0.383846
v 1.923077 0.000000 -0.383846
v 1.923077 0.769231 -0.384615
v -0.000000 0.769231 -0.384615
v 1.923077 0.000000 -0.384615
v -0.000000 0.000000 -0.384615
v 1.923077 0.769231 -0.384615
v 1.923077 0.769231 -0.383846
v -0.000000 0.769231 -0.384615
v -0.000000 0.769231 -0.383846
v -0.000000 0.000000 -0.384615
v -0.000000 0.000000 -0.383846
v 1.923077 0.000000 -0.384615
v 1.923077 0.000000 -0.383846
v -0.000000 0.769231 -0.384615
v -0.000000 0.769231 -0.383846
v -0.000000 0.000000 -0.384615
v -0.000000 0.000000 -0.383846
v 1.923077 0.769231 -0.383846
v 1.923077 0.769231 -0.384615
v 1.923077 0.000000 -0.383846
v 1.923077 0.000000 -0.384615
v 0.000000 0.769231 0.385385
v 1.923077 0.769231 0.385385
v 0.000000 0.000000 0.385385
v 1.923077 0.000000 0.385385
v 1.923077 0.769231 0.384615
v 0.000000 0.769231 0.384615
v 1.923077 0.000000 0.384615
v 0.000000 0.000000 0.384615
v 1.923077 0.769231 0.384615
v 1.923077 0.769231 0.385385
v 0.000000 0.769231 0.384615
v 0.000000 0.769231 0.385385
v 0.000000 0.000000 0.384615
v 0.000000 0.000000 0.385385
v 1.923077 0.000000 0.384615
v 1.923077 0.000000 0.385385
v 0.000000 0.769231 0.384615
v 0.000000 0.769231 0.385385
v 0.000000 0.000000 0.384615
v 0.000000 0.000000 0.385385
v 1.923077 0.769231 0.385385
v 1.923077 0.769231 0.384615
v 1.923077 0.000000 0.385385
v 1.923077 0.000000 0.384615
v 0.000000 -0.769231 1.731538
v 1.776691 -0.033301 1.731538
v 1.324674 -3.967275 1.731538
v 3.101365 -3.231345 1.731538
v 1.776691 -0.033301 -1.730000
v 0.000000 -0.769231 -1.730000
v 3.101365 -3.231345 -1.730000
v 1.324674 -3.967275 -1.730000
v 1.776691 -0.033301 -1.730000
v 1.776691 -0.033301 1.731538
v 0.000000 -0.769231 -1.730000
v 0.000000 -0.769231 1.731538
v 1.324674 -3.967275 -1.730000
v 1.324674 -3.967275 1.731538
v 3.101365 -3.231345 -1.730000
v 3.101365 -3.231345 1.731538
v 0.000000 -0.769231 -1.730000
v 0.000000 -0.769231 1.731538
v 1.324674 -3.967275 -1.730000
v 1.324674 -3.967275 1.731538
v 1.776691 -0.033301 1.731538
v 1.776691 -0.033301 -1.730000
v 3.101365 -3.231345 1.731538
v 3.101365 -3.231345 -1.730000
v 0.000000 0.000000 0.384615
v 1.923077 0.000000 0.384615
v 0.000000 -0.769231 0.384615
v 1.923077 -0.769231 0.384615
v 1.923077 0.000000 -0.384615
v -0.000000 0.000000 -0.384615
v 1.923077 -0.769231 -0.384615
v -0.000000 -0.769231 -0.384615
v 1.923077 0.000000 -0.384615
v 1.923077 0.000000 0.384615
v -0.000000 0.000000 -0.384615
v 0.000000 0.000000 0.384615
v -0.000000 -0.769231 -0.384615
v 0.000000 -0.769231 0.384615
v 1.923077 -0.769231 -0.384615
v 1.923077 -0.769231 0.384615
v -0.000000 0.000000 -0.384615
v 0.000000 0.000000 0.384615
v -0.000000 -0.769231 -0.384615
v 0.000000 -0.769231 0.384615
v 1.923077 0.000000 0.384615
v 1.923077 0.000000 -0.384615
v 1.923077 -0.769231 0.384615
v 1.923077 -0.769231 -0.384615
v -0.000769 0.769231 0.384615
v 0.000000 0.769231 0.384615
v -0.000769 0.000000 0.384615
v 0.000000 0.000000 0.384615
v -0.000000 0.769231 -0.384615
v -0.000769 0.769231 -0.384615
v -0.000000 0.000000 -0.384615
v -0.000769 0.000000 -0.384615
v -0.000000 0.769231 -0.384615
v 0.000000 0.769231 0.384615
v -0.000769 0.769231 -0.384615
v -0.000769 0.769231 0.384615
v -0.000769 0.000000 -0.384615
v -0.000769 0.000000 0.384615
v -0.000000 0.000000 -0.384615
v 0.000000 0.000000 0.384615
v -0.000769 0.769231 -0.384615
v -0.000769 0.769231 0.384615
v -0.000769 0.000000 -0.384615
v -0.000769 0.000000 0.384615
v 0.000000 0.769231 0.384615
v -0.000000 0.769231 -0.384615
v 0.000000 0.000000 0.384615
v -0.000000 0.000000 -0.384615
vn -0.0000 -0.0000 1.0000
vn -0.0000 -0.0000 -1.0000
vn -0.0000 1.0000 -0.0000
vn -0.0000 -1.0000 -0.0000
vn -1.0000 -0.0000 -0.0000
vn 1.0000 -0.0000 -0.0000
vn -0.3827 0.9239 -0.0000
vn 0.3827 -0.9239 -0.0000
vn -0.9239 -0.3827 -0.0000
vn 0.9239 0.3827 -0.0000
vt 0.000000 1.000000
vt 0.000000 0.968750
vt 0.062500 1.000000
vt 0.812500 0.562500
vt 0.812500 0.531250
vt 0.875000 0.562500
vt 0.875000 0.531250
vt 0.812500 0.625000
vt 0.812500 0.593750
vt 0.875000 0.625000
vt 0.875000 0.593750
vt 0.000000 0.375000
vt 0.000000 0.312500
vt 0.156250 0.375000
vt 0.156250 0.312500
vt 0.187500 0.375000
vt 0.187500 0.312500
vt 0.343750 0.375000
vt 0.343750 0.312500
vt 0.000000 0.843750
vt 0.000000 0.937500
vt 0.375000 0.375000
vt 0.375000 0.312500
vt 0.531250 0.375000
vt 0.531250 0.312500
vt 0.562500 0.375000
vt 0.562500 0.312500
vt 0.718750 0.375000
vt 0.718750 0.312500
vt 0.312500 1.000000
vt 0.312500 0.718750
vt 0.468750 1.000000
vt 0.468750 0.718750
vt 0.312500 0.687500
vt 0.312500 0.406250
vt 0.468750 0.687500
vt 0.468750 0.406250
vt 0.781250 0.843750
vt 0.781250 1.000000
vt 0.500000 0.843750
vt 0.500000 1.000000
vt 0.781250 0.812500
vt 0.781250 0.656250
vt 0.500000 0.812500
vt 0.500000 0.656250
vt 0.000000 0.687500
vt 0.000000 0.406250
vt 0.281250 0.687500
vt 0.281250 0.406250
vt 0.000000 0.718750
vt 0.281250 1.000000
vt 0.281250 0.718750
vt 0.000000 0.250000
vt 0.156250 0.250000
vt 0.187500 0.250000
vt 0.343750 0.250000
vt 0.437500 0.156250
vt 0.437500 0.312500
vt 0.375000 0.156250
vt 0.750000 0.625000
vt 0.750000 0.468750
vt 0.687500 0.625000
vt 0.687500 0.468750
vt 0.687500 0.437500
vt 0.687500 0.375000
vt 0.750000 0.437500
vt 0.750000 0.375000
vt 0.562500 0.250000
vt 0.625000 0.312500
vt 0.625000 0.250000
vt 0.687500 0.312500
vt 0.687500 0.250000
vt 0.750000 0.312500
vt 0.750000 0.250000
s 0
usemtl Material_0.003
f 1/1/1 3/2/1 2/1/1
f 3/2/1 4/2/1 2/1/1
f 5/1/2 7/2/2 6/1/2
f 7/2/2 8/2/2 6/1/2
f 9/3/3 11/3/3 10/1/3
f 11/3/3 12/1/3 10/1/3
f 13/3/4 15/3/4 14/1/4
f 15/3/4 16/1/4 14/1/4
f 17/4/5 19/5/5 18/6/5
f 19/5/5 20/7/5 18/6/5
f 21/8/6 23/9/6 22/10/6
f 23/9/6 24/11/6 22/10/6
f 25/12/1 27/13/1 26/14/1
f 27/13/1 28/15/1 26/14/1
f 29/16/2 31/17/2 30/18/2
f 31/17/2 32/19/2 30/18/2
f 33/20/3 35/1/3 34/20/3
f 35/1/3 36/1/3 34/20/3
f 37/1/4 39/20/4 38/1/4
f 39/20/4 40/20/4 38/1/4
f 41/1/5 43/21/5 42/1/5
f 43/21/5 44/21/5 42/1/5
f 45/1/6 47/21/6 46/1/6
f 47/21/6 48/21/6 46/1/6
f 49/22/1 51/23/1 50/24/1
f 51/23/1 52/25/1 50/24/1
f 53/26/2 55/27/2 54/28/2
f 55/27/2 56/29/2 54/28/2
f 57/20/3 59/1/3 58/20/3
f 59/1/3 60/1/3 58/20/3
f 61/1/4 63/20/4 62/1/4
f 63/20/4 64/20/4 62/1/4
f 65/1/5 67/21/5 66/1/5
f 67/21/5 68/21/5 66/1/5
f 69/1/6 71/21/6 70/1/6
f 71/21/6 72/21/6 70/1/6
f 73/30/1 75/31/1 74/32/1
f 75/31/1 76/33/1 74/32/1
f 77/34/2 79/35/2 78/36/2
f 79/35/2 80/37/2 78/36/2
f 81/38/7 83/39/7 82/40/7
f 83/39/7 84/41/7 82/40/7
f 85/42/8 87/43/8 86/44/8
f 87/43/8 88/45/8 86/44/8
f 89/46/9 91/47/9 90/48/9
f 91/47/9 92/49/9 90/48/9
f 93/1/10 95/50/10 94/51/10
f 95/50/10 96/52/10 94/51/10
f 97/13/1 99/53/1 98/15/1
f 99/53/1 100/54/1 98/15/1
f 101/17/2 103/55/2 102/19/2
f 103/55/2 104/56/2 102/19/2
f 105/57/3 107/58/3 106/59/3
f 107/58/3 108/23/3 106/59/3
f 109/60/4 111/61/4 110/62/4
f 111/61/4 112/63/4 110/62/4
f 113/64/5 115/65/5 114/66/5
f 115/65/5 116/67/5 114/66/5
f 117/27/6 119/68/6 118/69/6
f 119/68/6 120/70/6 118/69/6
f 121/1/1 123/21/1 122/1/1
f 123/21/1 124/21/1 122/1/1
f 125/1/2 127/21/2 126/1/2
f 127/21/2 128/21/2 126/1/2
f 129/3/3 131/3/3 130/1/3
f 131/3/3 132/1/3 130/1/3
f 133/3/4 135/3/4 134/1/4
f 135/3/4 136/1/4 134/1/4
f 137/71/5 139/72/5 138/73/5
f 139/72/5 140/74/5 138/73/5
f 141/69/6 143/70/6 142/71/6
f 143/70/6 144/72/6 142/71/6
o bulletModel_0
v 0.019231 0.807692 0.365385
v 0.942308 0.807692 0.365385
v 0.019231 0.384615 0.365385
v 0.942308 0.384615 0.365385
v 0.942308 0.807692 -0.057692
v 0.019231 0.807692 -0.057692
v 0.942308 0.384615 -0.057692
v 0.019231 0.384615 -0.057692
v 0.942308 0.807692 -0.057692
v 0.942308 0.807692 0.365385
v 0.019231 0.807692 -0.057692
v 0.019231 0.807692 0.365385
v 0.019231 0.384615 -0.057692
v 0.019231 0.384615 0.365385
v 0.942308 0.384615 -0.057692
v 0.942308 0.384615 0.365385
v 0.019231 0.807692 -0.057692
v 0.019231 0.807692 0.365385
v 0.019231 0.384615 -0.057692
v 0.019231 0.384615 0.365385
v 0.942308 0.807692 0.365385
v 0.942308 0.807692 -0.057692
v 0.942308 0.384615 0.365385
v 0.942308 0.384615 -0.057692
v 1.176923 0.765385 0.323077
v 1.784615 0.765385 0.323077
v 1.176923 0.426923 0.323077
v 1.784615 0.426923 0.323077
v 1.784615 0.765385 -0.015385
v 1.176923 0.765385 -0.015385
v 1.784615 0.426923 -0.015385
v 1.176923 0.426923 -0.015385
v 1.784615 0.765385 -0.015385
v 1.784615 0.765385 0.323077
v 1.176923 0.765385 -0.015385
v 1.176923 0.765385 0.323077
v 1.176923 0.426923 -0.015385
v 1.176923 0.426923 0.323077
v 1.784615 0.426923 -0.015385
v 1.784615 0.426923 0.323077
v 1.176923 0.765385 -0.015385
v 1.176923 0.765385 0.323077
v 1.176923 0.426923 -0.015385
v 1.176923 0.426923 0.323077
v 1.784615 0.765385 0.323077
v 1.784615 0.765385 -0.015385
v 1.784615 0.426923 0.323077
v 1.784615 0.426923 -0.015385
v 0.942308 0.788462 0.346154
v 1.365384 0.788462 0.346154
v 0.942308 0.403846 0.346154
v 1.365384 0.403846 0.346154
v 1.365384 0.788462 -0.038462
v 0.942308 0.788462 -0.038462
v 1.365384 0.403846 -0.038462
v 0.942308 0.403846 -0.038462
v 1.365384 0.788462 -0.038462
v 1.365384 0.788462 0.346154
v 0.942308 0.788462 -0.038462
v 0.942308 0.788462 0.346154
v 0.942308 0.403846 -0.038462
v 0.942308 0.403846 0.346154
v 1.365384 0.403846 -0.038462
v 1.365384 0.403846 0.346154
v 0.942308 0.788462 -0.038462
v 0.942308 0.788462 0.346154
v 0.942308 0.403846 -0.038462
v 0.942308 0.403846 0.346154
v 1.365384 0.788462 0.346154
v 1.365384 0.788462 -0.038462
v 1.365384 0.403846 0.346154
v 1.365384 0.403846 -0.038462
vn -0.0000 -0.0000 1.0000
vn -0.0000 -0.0000 -1.0000
vn -0.0000 1.0000 -0.0000
vn -0.0000 -1.0000 -0.0000
vn -1.0000 -0.0000 -0.0000
vn 1.0000 -0.0000 -0.0000
vt 0.125000 0.250000
vt 0.125000 0.218750
vt 0.187500 0.250000
vt 0.187500 0.218750
vt 0.250000 0.250000
vt 0.250000 0.218750
vt 0.281250 0.187500
vt 0.281250 0.250000
vt 0.250000 0.187500
vt 0.343750 0.250000
vt 0.343750 0.187500
vt 0.312500 0.250000
vt 0.312500 0.187500
vt 0.562500 0.187500
vt 0.562500 0.156250
vt 0.593750 0.187500
vt 0.593750 0.156250
vt 0.812500 0.500000
vt 0.812500 0.468750
vt 0.843750 0.500000
vt 0.843750 0.468750
vt 0.750000 0.625000
vt 0.750000 0.593750
vt 0.812500 0.625000
vt 0.812500 0.593750
vt 0.750000 0.562500
vt 0.750000 0.531250
vt 0.812500 0.562500
vt 0.812500 0.531250
vt 0.781250 0.437500
vt 0.781250 0.500000
vt 0.750000 0.437500
vt 0.750000 0.500000
vt 0.593750 0.250000
vt 0.562500 0.250000
vt 0.625000 0.187500
vt 0.625000 0.156250
vt 0.656250 0.187500
vt 0.656250 0.156250
vt 0.812500 0.437500
vt 0.812500 0.406250
vt 0.843750 0.437500
vt 0.843750 0.406250
vt 0.687500 0.187500
vt 0.687500 0.156250
vt 0.718750 0.187500
vt 0.718750 0.156250
vt 0.750000 0.187500
vt 0.750000 0.156250
vt 0.781250 0.187500
vt 0.781250 0.156250
vt 0.843750 0.218750
vt 0.843750 0.250000
vt 0.812500 0.218750
vt 0.812500 0.250000
vt 0.843750 0.187500
vt 0.843750 0.156250
vt 0.812500 0.187500
vt 0.812500 0.156250
vt 0.812500 0.312500
vt 0.812500 0.281250
vt 0.843750 0.312500
vt 0.843750 0.281250
vt 0.812500 0.375000
vt 0.812500 0.343750
vt 0.843750 0.375000
vt 0.843750 0.343750
s 0
usemtl Material_0.003
f 145/75/11 147/76/11 146/77/11
f 147/76/11 148/78/11 146/77/11
f 149/77/12 151/78/12 150/79/12
f 151/78/12 152/80/12 150/79/12
f 153/81/13 155/82/13 154/83/13
f 155/82/13 156/79/13 154/83/13
f 157/84/14 159/85/14 158/86/14
f 159/85/14 160/87/14 158/86/14
f 161/88/15 163/89/15 162/90/15
f 163/89/15 164/91/15 162/90/15
f 165/92/16 167/93/16 166/94/16
f 167/93/16 168/95/16 166/94/16
f 169/96/11 171/97/11 170/98/11
f 171/97/11 172/99/11 170/98/11
f 173/100/12 175/101/12 174/102/12
f 175/101/12 176/103/12 174/102/12
f 177/104/13 179/105/13 178/106/13
f 179/105/13 180/107/13 178/106/13
f 181/108/14 183/90/14 182/109/14
f 183/90/14 184/88/14 182/109/14
f 185/110/15 187/111/15 186/112/15
f 187/111/15 188/113/15 186/112/15
f 189/114/16 191/115/16 190/116/16
f 191/115/16 192/117/16 190/116/16
f 193/118/11 195/119/11 194/120/11
f 195/119/11 196/121/11 194/120/11
f 197/122/12 199/123/12 198/124/12
f 199/123/12 200/125/12 198/124/12
f 201/126/13 203/127/13 202/128/13
f 203/127/13 204/129/13 202/128/13
f 205/130/14 207/131/14 206/132/14
f 207/131/14 208/133/14 206/132/14
f 209/134/15 211/135/15 210/136/15
f 211/135/15 212/137/15 210/136/15
f 213/138/16 215/139/16 214/140/16
f 215/139/16 216/141/16 214/140/16
o bulletModel_2
v 0.019231 0.423077 0.365385
v 0.942308 0.423077 0.365385
v 0.019231 0.000000 0.365385
v 0.942308 0.000000 0.365385
v 0.942308 0.423077 -0.057692
v 0.019231 0.423077 -0.057692
v 0.942308 0.000000 -0.057692
v 0.019231 0.000000 -0.057692
v 0.942308 0.423077 -0.057692
v 0.942308 0.423077 0.365385
v 0.019231 0.423077 -0.057692
v 0.019231 0.423077 0.365385
v 0.019231 0.000000 -0.057692
v 0.019231 0.000000 0.365385
v 0.942308 0.000000 -0.057692
v 0.942308 0.000000 0.365385
v 0.019231 0.423077 -0.057692
v 0.019231 0.423077 0.365385
v 0.019231 0.000000 -0.057692
v 0.019231 0.000000 0.365385
v 0.942308 0.423077 0.365385
v 0.942308 0.423077 -0.057692
v 0.942308 0.000000 0.365385
v 0.942308 0.000000 -0.057692
v 0.942308 0.403846 0.346154
v 1.365384 0.403846 0.346154
v 0.942308 0.019231 0.346154
v 1.365384 0.019231 0.346154
v 1.365384 0.403846 -0.038462
v 0.942308 0.403846 -0.038462
v 1.365384 0.019231 -0.038462
v 0.942308 0.019231 -0.038462
v 1.365384 0.403846 -0.038462
v 1.365384 0.403846 0.346154
v 0.942308 0.403846 -0.038462
v 0.942308 0.403846 0.346154
v 0.942308 0.019231 -0.038462
v 0.942308 0.019231 0.346154
v 1.365384 0.019231 -0.038462
v 1.365384 0.019231 0.346154
v 0.942308 0.403846 -0.038462
v 0.942308 0.403846 0.346154
v 0.942308 0.019231 -0.038462
v 0.942308 0.019231 0.346154
v 1.365384 0.403846 0.346154
v 1.365384 0.403846 -0.038462
v 1.365384 0.019231 0.346154
v 1.365384 0.019231 -0.038462
v 1.176923 0.380769 0.323077
v 1.784615 0.380769 0.323077
v 1.176923 0.042308 0.323077
v 1.784615 0.042308 0.323077
v 1.784615 0.380769 -0.015385
v 1.176923 0.380769 -0.015385
v 1.784615 0.042308 -0.015385
v 1.176923 0.042308 -0.015385
v 1.784615 0.380769 -0.015385
v 1.784615 0.380769 0.323077
v 1.176923 0.380769 -0.015385
v 1.176923 0.380769 0.323077
v 1.176923 0.042308 -0.015385
v 1.176923 0.042308 0.323077
v 1.784615 0.042308 -0.015385
v 1.784615 0.042308 0.323077
v 1.176923 0.380769 -0.015385
v 1.176923 0.380769 0.323077
v 1.176923 0.042308 -0.015385
v 1.176923 0.042308 0.323077
v 1.784615 0.380769 0.323077
v 1.784615 0.380769 -0.015385
v 1.784615 0.042308 0.323077
v 1.784615 0.042308 -0.015385
vn -0.0000 -0.0000 1.0000
vn -0.0000 -0.0000 -1.0000
vn -0.0000 1.0000 -0.0000
vn -0.0000 -1.0000 -0.0000
vn -1.0000 -0.0000 -0.0000
vn 1.0000 -0.0000 -0.0000
vt 0.750000 0.437500
vt 0.750000 0.406250
vt 0.812500 0.437500
vt 0.812500 0.406250
vt 0.625000 0.250000
vt 0.625000 0.218750
vt 0.687500 0.250000
vt 0.687500 0.218750
vt 0.781250 0.312500
vt 0.781250 0.375000
vt 0.750000 0.312500
vt 0.750000 0.375000
vt 0.718750 0.250000
vt 0.718750 0.187500
vt 0.687500 0.187500
vt 0.875000 1.000000
vt 0.875000 0.968750
vt 0.906250 1.000000
vt 0.906250 0.968750
vt 0.000000 0.125000
vt 0.000000 0.093750
vt 0.031250 0.125000
vt 0.031250 0.093750
vt 0.875000 0.937500
vt 0.875000 0.906250
vt 0.906250 0.937500
vt 0.906250 0.906250
vt 0.875000 0.875000
vt 0.875000 0.843750
vt 0.906250 0.875000
vt 0.906250 0.843750
vt 0.218750 0.093750
vt 0.218750 0.125000
vt 0.187500 0.093750
vt 0.187500 0.125000
vt 0.906250 0.812500
vt 0.906250 0.781250
vt 0.875000 0.812500
vt 0.875000 0.781250
vt 0.125000 0.125000
vt 0.125000 0.093750
vt 0.156250 0.125000
vt 0.156250 0.093750
vt 0.062500 0.125000
vt 0.062500 0.093750
vt 0.093750 0.125000
vt 0.093750 0.093750
vt 0.750000 0.281250
vt 0.812500 0.312500
vt 0.812500 0.281250
vt 0.750000 0.250000
vt 0.750000 0.218750
vt 0.812500 0.250000
vt 0.812500 0.218750
vt 0.843750 0.937500
vt 0.843750 1.000000
vt 0.812500 0.937500
vt 0.812500 1.000000
vt 0.843750 0.875000
vt 0.812500 0.875000
vt 0.875000 0.750000
vt 0.875000 0.718750
vt 0.906250 0.750000
vt 0.906250 0.718750
vt 0.250000 0.125000
vt 0.250000 0.093750
vt 0.281250 0.125000
vt 0.281250 0.093750
s 0
usemtl Material_0.003
f 217/142/17 219/143/17 218/144/17
f 219/143/17 220/145/17 218/144/17
f 221/146/18 223/147/18 222/148/18
f 223/147/18 224/149/18 222/148/18
f 225/150/19 227/151/19 226/152/19
f 227/151/19 228/153/19 226/152/19
f 229/154/20 231/155/20 230/148/20
f 231/155/20 232/156/20 230/148/20
f 233/157/21 235/158/21 234/159/21
f 235/158/21 236/160/21 234/159/21
f 237/161/22 239/162/22 238/163/22
f 239/162/22 240/164/22 238/163/22
f 241/165/17 243/166/17 242/167/17
f 243/166/17 244/168/17 242/167/17
f 245/169/18 247/170/18 246/171/18
f 247/170/18 248/172/18 246/171/18
f 249/173/19 251/174/19 250/175/19
f 251/174/19 252/176/19 250/175/19
f 253/177/20 255/178/20 254/179/20
f 255/178/20 256/180/20 254/179/20
f 257/181/21 259/182/21 258/183/21
f 259/182/21 260/184/21 258/183/21
f 261/185/22 263/186/22 262/187/22
f 263/186/22 264/188/22 262/187/22
f 265/152/17 267/189/17 266/190/17
f 267/189/17 268/191/17 266/190/17
f 269/192/18 271/193/18 270/194/18
f 271/193/18 272/195/18 270/194/18
f 273/196/19 275/197/19 274/198/19
f 275/197/19 276/199/19 274/198/19
f 277/196/20 279/200/20 278/198/20
f 279/200/20 280/201/20 278/198/20
f 281/202/21 283/203/21 282/204/21
f 283/203/21 284/205/21 282/204/21
f 285/206/22 287/207/22 286/208/22
f 287/207/22 288/209/22 286/208/22
o bulletModel_1
v 1.176923 0.573077 0.015385
v 1.784615 0.573077 0.015385
v 1.176923 0.234615 0.015385
v 1.784615 0.234615 0.015385
v 1.784615 0.573077 -0.323077
v 1.176923 0.573077 -0.323077
v 1.784615 0.234615 -0.323077
v 1.176923 0.234615 -0.323077
v 1.784615 0.573077 -0.323077
v 1.784615 0.573077 0.015385
v 1.176923 0.573077 -0.323077
v 1.176923 0.573077 0.015385
v 1.176923 0.234615 -0.323077
v 1.176923 0.234615 0.015385
v 1.784615 0.234615 -0.323077
v 1.784615 0.234615 0.015385
v 1.176923 0.573077 -0.323077
v 1.176923 0.573077 0.015385
v 1.176923 0.234615 -0.323077
v 1.176923 0.234615 0.015385
v 1.784615 0.573077 0.015385
v 1.784615 0.573077 -0.323077
v 1.784615 0.234615 0.015385
v 1.784615 0.234615 -0.323077
v 0.942308 0.596154 0.038462
v 1.365384 0.596154 0.038461
v 0.942308 0.211538 0.038462
v 1.365384 0.211538 0.038461
v 1.365384 0.596154 -0.346154
v 0.942308 0.596154 -0.346154
v 1.365384 0.211538 -0.346154
v 0.942308 0.211538 -0.346154
v 1.365384 0.596154 -0.346154
v 1.365384 0.596154 0.038461
v 0.942308 0.596154 -0.346154
v 0.942308 0.596154 0.038462
v 0.942308 0.211538 -0.346154
v 0.942308 0.211538 0.038462
v 1.365384 0.211538 -0.346154
v 1.365384 0.211538 0.038461
v 0.942308 0.596154 -0.346154
v 0.942308 0.596154 0.038462
v 0.942308 0.211538 -0.346154
v 0.942308 0.211538 0.038462
v 1.365384 0.596154 0.038461
v 1.365384 0.596154 -0.346154
v 1.365384 0.211538 0.038461
v 1.365384 0.211538 -0.346154
v 0.019231 0.615385 0.057692
v 0.942308 0.615385 0.057692
v 0.019231 0.192308 0.057692
v 0.942308 0.192308 0.057692
v 0.942308 0.615385 -0.365385
v 0.019231 0.615385 -0.365385
v 0.942308 0.192308 -0.365385
v 0.019231 0.192308 -0.365385
v 0.942308 0.615385 -0.365385
v 0.942308 0.615385 0.057692
v 0.019231 0.615385 -0.365385
v 0.019231 0.615385 0.057692
v 0.019231 0.192308 -0.365385
v 0.019231 0.192308 0.057692
v 0.942308 0.192308 -0.365385
v 0.942308 0.192308 0.057692
v 0.019231 0.615385 -0.365385
v 0.019231 0.615385 0.057692
v 0.019231 0.192308 -0.365385
v 0.019231 0.192308 0.057692
v 0.942308 0.615385 0.057692
v 0.942308 0.615385 -0.365385
v 0.942308 0.192308 0.057692
v 0.942308 0.192308 -0.365385
vn -0.0000 -0.0000 1.0000
vn -0.0000 -0.0000 -1.0000
vn -0.0000 1.0000 -0.0000
vn -0.0000 -1.0000 -0.0000
vn -1.0000 -0.0000 -0.0000
vn 1.0000 -0.0000 -0.0000
vt 0.125000 0.187500
vt 0.125000 0.156250
vt 0.187500 0.187500
vt 0.187500 0.156250
vt 0.812500 0.875000
vt 0.812500 0.843750
vt 0.875000 0.875000
vt 0.875000 0.843750
vt 0.218750 0.125000
vt 0.218750 0.187500
vt 0.187500 0.125000
vt 0.843750 0.812500
vt 0.843750 0.750000
vt 0.812500 0.812500
vt 0.812500 0.750000
vt 0.875000 0.687500
vt 0.875000 0.656250
vt 0.906250 0.687500
vt 0.906250 0.656250
vt 0.312500 0.125000
vt 0.312500 0.093750
vt 0.343750 0.125000
vt 0.343750 0.093750
vt 0.875000 0.625000
vt 0.875000 0.593750
vt 0.906250 0.625000
vt 0.906250 0.593750
vt 0.875000 0.562500
vt 0.875000 0.531250
vt 0.906250 0.562500
vt 0.906250 0.531250
vt 0.531250 0.093750
vt 0.531250 0.125000
vt 0.500000 0.093750
vt 0.500000 0.125000
vt 0.906250 0.500000
vt 0.906250 0.468750
vt 0.875000 0.500000
vt 0.875000 0.468750
vt 0.437500 0.125000
vt 0.437500 0.093750
vt 0.468750 0.125000
vt 0.468750 0.093750
vt 0.375000 0.125000
vt 0.375000 0.093750
vt 0.406250 0.125000
vt 0.406250 0.093750
vt 0.250000 0.187500
vt 0.250000 0.156250
vt 0.312500 0.187500
vt 0.312500 0.156250
vt 0.812500 0.718750
vt 0.875000 0.750000
vt 0.875000 0.718750
vt 0.343750 0.187500
vt 0.843750 0.687500
vt 0.843750 0.625000
vt 0.812500 0.687500
vt 0.812500 0.625000
vt 0.875000 0.437500
vt 0.875000 0.406250
vt 0.906250 0.437500
vt 0.906250 0.406250
vt 0.562500 0.125000
vt 0.562500 0.093750
vt 0.593750 0.125000
vt 0.593750 0.093750
s 0
usemtl Material_0.003
f 289/210/23 291/211/23 290/212/23
f 291/211/23 292/213/23 290/212/23
f 293/214/24 295/215/24 294/216/24
f 295/215/24 296/217/24 294/216/24
f 297/218/25 299/219/25 298/220/25
f 299/219/25 300/212/25 298/220/25
f 301/221/26 303/222/26 302/223/26
f 303/222/26 304/224/26 302/223/26
f 305/225/27 307/226/27 306/227/27
f 307/226/27 308/228/27 306/227/27
f 309/229/28 311/230/28 310/231/28
f 311/230/28 312/232/28 310/231/28
f 313/233/23 315/234/23 314/235/23
f 315/234/23 316/236/23 314/235/23
f 317/237/24 319/238/24 318/239/24
f 319/238/24 320/240/24 318/239/24
f 321/241/25 323/242/25 322/243/25
f 323/242/25 324/244/25 322/243/25
f 325/245/26 327/246/26 326/247/26
f 327/246/26 328/248/26 326/247/26
f 329/249/27 331/250/27 330/251/27
f 331/250/27 332/252/27 330/251/27
f 333/253/28 335/254/28 334/255/28
f 335/254/28 336/256/28 334/255/28
f 337/257/23 339/258/23 338/259/23
f 339/258/23 340/260/23 338/259/23
f 341/224/24 343/261/24 342/262/24
f 343/261/24 344/263/24 342/262/24
f 345/231/25 347/264/25 346/229/25
f 347/264/25 348/259/25 346/229/25
f 349/265/26 351/266/26 350/267/26
f 351/266/26 352/268/26 350/267/26
f 353/269/27 355/270/27 354/271/27
f 355/270/27 356/272/27 354/271/27
f 357/273/28 359/274/28 358/275/28
f 359/274/28 360/276/28 358/275/28
