# Blender 4.4.3
# www.blender.org
mtllib lev.9x39magsr30.mtl
o ammoModel
v 0.000000 0.000000 0.384615
v 1.762478 0.730042 0.384615
v 1.913418 -4.619398 0.384615
v 3.675896 -3.889355 0.384615
v 1.762478 0.730042 -0.384616
v -0.000000 -0.000000 -0.384615
v 3.675896 -3.889355 -0.384616
v 1.913418 -4.619398 -0.384616
v 1.762478 0.730042 -0.384616
v 1.762478 0.730042 0.384615
v -0.000000 -0.000000 -0.384615
v 0.000000 0.000000 0.384615
v 1.913418 -4.619398 -0.384616
v 1.913418 -4.619398 0.384615
v 3.675896 -3.889355 -0.384616
v 3.675896 -3.889355 0.384615
v -0.000000 -0.000000 -0.384615
v 0.000000 0.000000 0.384615
v 1.913418 -4.619398 -0.384616
v 1.913418 -4.619398 0.384615
v 1.762478 0.730042 0.384615
v 1.762478 0.730042 -0.384616
v 3.675896 -3.889355 0.384615
v 3.675896 -3.889355 -0.384616
v 1.614581 1.085086 0.384615
v 1.615292 1.085381 0.384615
v 1.761767 0.729748 0.384615
v 1.762478 0.730042 0.384615
v 1.615292 1.085381 -0.384616
v 1.614581 1.085086 -0.384616
v 1.762478 0.730042 -0.384616
v 1.761767 0.729748 -0.384616
v 1.615292 1.085381 -0.384616
v 1.615292 1.085381 0.384615
v 1.614581 1.085086 -0.384616
v 1.614581 1.085086 0.384615
v 1.761767 0.729748 -0.384616
v 1.761767 0.729748 0.384615
v 1.762478 0.730042 -0.384616
v 1.762478 0.730042 0.384615
v 1.614581 1.085086 -0.384616
v 1.614581 1.085086 0.384615
v 1.761767 0.729748 -0.384616
v 1.761767 0.729748 0.384615
v 1.615292 1.085381 0.384615
v 1.615292 1.085381 -0.384616
v 1.762478 0.730042 0.384615
v 1.762478 0.730042 -0.384616
v -0.294372 0.710676 0.385385
v 1.468106 1.440719 0.385385
v -0.000000 -0.000000 0.385385
v 1.762478 0.730042 0.385385
v 1.468106 1.440719 0.384615
v -0.294372 0.710676 0.384615
v 1.762478 0.730042 0.384615
v -0.000000 -0.000000 0.384615
v 1.468106 1.440719 0.384615
v 1.468106 1.440719 0.385385
v -0.294372 0.710676 0.384615
v -0.294372 0.710676 0.385385
v -0.000000 -0.000000 0.384615
v -0.000000 -0.000000 0.385385
v 1.762478 0.730042 0.384615
v 1.762478 0.730042 0.385385
v -0.294372 0.710676 0.384615
v -0.294372 0.710676 0.385385
v -0.000000 -0.000000 0.384615
v -0.000000 -0.000000 0.385385
v 1.468106 1.440719 0.385385
v 1.468106 1.440719 0.384615
v 1.762478 0.730042 0.385385
v 1.762478 0.730042 0.384615
v -0.147897 0.355044 0.384615
v -0.147186 0.355338 0.384615
v -0.000711 -0.000295 0.384615
v -0.000000 -0.000000 0.384615
v -0.147186 0.355338 -0.384615
v -0.147897 0.355044 -0.384615
v -0.000000 -0.000000 -0.384615
v -0.000711 -0.000295 -0.384615
v -0.147186 0.355338 -0.384615
v -0.147186 0.355338 0.384615
v -0.147897 0.355044 -0.384615
v -0.147897 0.355044 0.384615
v -0.000711 -0.000295 -0.384615
v -0.000711 -0.000295 0.384615
v -0.000000 -0.000000 -0.384615
v -0.000000 -0.000000 0.384615
v -0.147897 0.355044 -0.384615
v -0.147897 0.355044 0.384615
v -0.000711 -0.000295 -0.384615
v -0.000711 -0.000295 0.384615
v -0.147186 0.355338 0.384615
v -0.147186 0.355338 -0.384615
v -0.000000 -0.000000 0.384615
v -0.000000 -0.000000 -0.384615
v -0.294372 0.710676 -0.383846
v 1.468106 1.440719 -0.383846
v -0.000000 -0.000000 -0.383846
v 1.762478 0.730042 -0.383846
v 1.468106 1.440719 -0.384616
v -0.294372 0.710676 -0.384615
v 1.762478 0.730042 -0.384616
v -0.000000 -0.000000 -0.384615
v 1.468106 1.440719 -0.384616
v 1.468106 1.440719 -0.383846
v -0.294372 0.710676 -0.384615
v -0.294372 0.710676 -0.383846
v -0.000000 -0.000000 -0.384615
v -0.000000 -0.000000 -0.383846
v 1.762478 0.730042 -0.384616
v 1.762478 0.730042 -0.383846
v -0.294372 0.710676 -0.384615
v -0.294372 0.710676 -0.383846
v -0.000000 -0.000000 -0.384615
v -0.000000 -0.000000 -0.383846
v 1.468106 1.440719 -0.383846
v 1.468106 1.440719 -0.384616
v 1.762478 0.730042 -0.383846
v 1.762478 0.730042 -0.384616
vn -0.0000 -0.0000 1.0000
vn -0.0000 -0.0000 -1.0000
vn -0.3827 0.9239 -0.0000
vn 0.3827 -0.9239 -0.0000
vn -0.9239 -0.3827 -0.0000
vn 0.9239 0.3827 -0.0000
vt 0.156250 1.000000
vt 0.156250 0.593750
vt 0.000000 1.000000
vt 0.000000 0.593750
vt 0.187500 1.000000
vt 0.187500 0.593750
vt 0.343750 1.000000
vt 0.343750 0.593750
vt 0.500000 0.843750
vt 0.500000 1.000000
vt 0.437500 0.843750
vt 0.437500 1.000000
vt 0.125000 0.562500
vt 0.125000 0.406250
vt 0.062500 0.562500
vt 0.062500 0.406250
vt 0.000000 0.562500
vt 0.000000 0.156250
vt 0.062500 0.156250
vt 0.375000 1.000000
vt 0.375000 0.593750
vt 0.437500 0.593750
vt 0.000000 0.968750
vt 0.062500 1.000000
vt 0.500000 0.562500
vt 0.500000 0.531250
vt 0.562500 0.562500
vt 0.562500 0.531250
vt 0.437500 0.500000
vt 0.437500 0.468750
vt 0.500000 0.500000
vt 0.500000 0.468750
vt 0.437500 0.750000
vt 0.437500 0.687500
vt 0.593750 0.750000
vt 0.593750 0.687500
vt 0.000000 0.843750
vt 0.000000 0.937500
vt 0.437500 0.562500
vt 0.500000 0.593750
vt 0.437500 0.656250
vt 0.437500 0.625000
vt 0.500000 0.656250
vt 0.500000 0.625000
vt 0.437500 0.812500
vt 0.593750 0.812500
s 0
usemtl Material_0.002
f 1/1/1 3/2/1 2/3/1
f 3/2/1 4/4/1 2/3/1
f 5/5/2 7/6/2 6/7/2
f 7/6/2 8/8/2 6/7/2
f 9/9/3 11/10/3 10/11/3
f 11/10/3 12/12/3 10/11/3
f 13/13/4 15/14/4 14/15/4
f 15/14/4 16/16/4 14/15/4
f 17/17/5 19/18/5 18/15/5
f 19/18/5 20/19/5 18/15/5
f 21/20/6 23/21/6 22/12/6
f 23/21/6 24/22/6 22/12/6
f 25/3/1 27/23/1 26/3/1
f 27/23/1 28/23/1 26/3/1
f 29/3/2 31/23/2 30/3/2
f 31/23/2 32/23/2 30/3/2
f 33/24/3 35/24/3 34/3/3
f 35/24/3 36/3/3 34/3/3
f 37/24/4 39/24/4 38/3/4
f 39/24/4 40/3/4 38/3/4
f 41/25/5 43/26/5 42/27/5
f 43/26/5 44/28/5 42/27/5
f 45/29/6 47/30/6 46/31/6
f 47/30/6 48/32/6 46/31/6
f 49/33/1 51/34/1 50/35/1
f 51/34/1 52/36/1 50/35/1
f 53/35/2 55/36/2 54/33/2
f 55/36/2 56/34/2 54/33/2
f 57/37/3 59/3/3 58/37/3
f 59/3/3 60/3/3 58/37/3
f 61/3/4 63/37/4 62/3/4
f 63/37/4 64/37/4 62/3/4
f 65/3/5 67/38/5 66/3/5
f 67/38/5 68/38/5 66/3/5
f 69/3/6 71/38/6 70/3/6
f 71/38/6 72/38/6 70/3/6
f 73/3/1 75/38/1 74/3/1
f 75/38/1 76/38/1 74/3/1
f 77/3/2 79/38/2 78/3/2
f 79/38/2 80/38/2 78/3/2
f 81/24/3 83/24/3 82/3/3
f 83/24/3 84/3/3 82/3/3
f 85/24/4 87/24/4 86/3/4
f 87/24/4 88/3/4 86/3/4
f 89/22/5 91/39/5 90/40/5
f 91/39/5 92/25/5 90/40/5
f 93/41/6 95/42/6 94/43/6
f 95/42/6 96/44/6 94/43/6
f 97/33/1 99/34/1 98/35/1
f 99/34/1 100/36/1 98/35/1
f 101/45/2 103/33/2 102/46/2
f 103/33/2 104/35/2 102/46/2
f 105/37/3 107/3/3 106/37/3
f 107/3/3 108/3/3 106/37/3
f 109/3/4 111/37/4 110/3/4
f 111/37/4 112/37/4 110/3/4
f 113/3/5 115/38/5 114/3/5
f 115/38/5 116/38/5 114/3/5
f 117/3/6 119/38/6 118/3/6
f 119/38/6 120/38/6 118/3/6
o bulletModel_0
v 0.805144 1.136886 0.038461
v 1.462520 1.409180 0.038461
v 0.952330 0.781548 0.038461
v 1.609705 1.053842 0.038461
v 1.462520 1.409180 -0.346154
v 0.805144 1.136886 -0.346154
v 1.609705 1.053842 -0.346154
v 0.952330 0.781548 -0.346154
v 1.462520 1.409180 -0.346154
v 1.462520 1.409180 0.038461
v 0.805144 1.136886 -0.346154
v 0.805144 1.136886 0.038461
v 0.952330 0.781548 -0.346154
v 0.952330 0.781548 0.038461
v 1.609705 1.053842 -0.346154
v 1.609705 1.053842 0.038461
v 0.805144 1.136886 -0.346154
v 0.805144 1.136886 0.038461
v 0.952330 0.781548 -0.346154
v 0.952330 0.781548 0.038461
v 1.462520 1.409180 0.038461
v 1.462520 1.409180 -0.346154
v 1.609705 1.053842 0.038461
v 1.609705 1.053842 -0.346154
v -0.232697 0.727814 0.057692
v 1.028754 1.250324 0.057692
v -0.070793 0.336942 0.057692
v 1.190658 0.859452 0.057692
v 1.028754 1.250324 -0.365385
v -0.232697 0.727814 -0.365385
v 1.190658 0.859452 -0.365385
v -0.070793 0.336942 -0.365385
v 1.028754 1.250324 -0.365385
v 1.028754 1.250324 0.057692
v -0.232697 0.727814 -0.365385
v -0.232697 0.727814 0.057692
v -0.070793 0.336942 -0.365385
v -0.070793 0.336942 0.057692
v 1.190658 0.859452 -0.365385
v 1.190658 0.859452 0.057692
v -0.232697 0.727814 -0.365385
v -0.232697 0.727814 0.057692
v -0.070793 0.336942 -0.365385
v -0.070793 0.336942 0.057692
v 1.028754 1.250324 0.057692
v 1.028754 1.250324 -0.365385
v 1.190658 0.859452 0.057692
v 1.190658 0.859452 -0.365385
vn -0.0000 -0.0000 1.0000
vn -0.0000 -0.0000 -1.0000
vn -0.3827 0.9239 -0.0000
vn 0.3827 -0.9239 -0.0000
vn -0.9239 -0.3827 -0.0000
vn 0.9239 0.3827 -0.0000
vt 0.500000 0.500000
vt 0.500000 0.468750
vt 0.562500 0.500000
vt 0.562500 0.468750
vt 0.250000 0.437500
vt 0.250000 0.406250
vt 0.312500 0.437500
vt 0.312500 0.406250
vt 0.343750 0.375000
vt 0.343750 0.437500
vt 0.312500 0.375000
vt 0.593750 0.687500
vt 0.593750 0.625000
vt 0.562500 0.687500
vt 0.562500 0.625000
vt 0.125000 0.375000
vt 0.125000 0.343750
vt 0.156250 0.375000
vt 0.156250 0.343750
vt 0.625000 0.937500
vt 0.625000 0.906250
vt 0.656250 0.937500
vt 0.656250 0.906250
vt 0.500000 1.000000
vt 0.500000 0.968750
vt 0.625000 1.000000
vt 0.625000 0.968750
vt 0.500000 0.937500
vt 0.500000 0.906250
vt 0.156250 0.500000
vt 0.125000 0.500000
vt 0.218750 0.500000
vt 0.218750 0.375000
vt 0.187500 0.500000
vt 0.187500 0.375000
vt 0.562500 0.437500
vt 0.562500 0.406250
vt 0.593750 0.437500
vt 0.593750 0.406250
vt 0.593750 0.500000
vt 0.593750 0.468750
s 0
usemtl Material_0.002
f 121/47/7 123/48/7 122/49/7
f 123/48/7 124/50/7 122/49/7
f 125/51/8 127/52/8 126/53/8
f 127/52/8 128/54/8 126/53/8
f 129/55/9 131/56/9 130/57/9
f 131/56/9 132/53/9 130/57/9
f 133/58/10 135/59/10 134/60/10
f 135/59/10 136/61/10 134/60/10
f 137/62/11 139/63/11 138/64/11
f 139/63/11 140/65/11 138/64/11
f 141/66/12 143/67/12 142/68/12
f 143/67/12 144/69/12 142/68/12
f 145/70/7 147/71/7 146/72/7
f 147/71/7 148/73/7 146/72/7
f 149/74/8 151/75/8 150/66/8
f 151/75/8 152/67/8 150/66/8
f 153/64/9 155/76/9 154/62/9
f 155/76/9 156/77/9 154/62/9
f 157/78/10 159/79/10 158/80/10
f 159/79/10 160/81/10 158/80/10
f 161/82/11 163/83/11 162/84/11
f 163/83/11 164/85/11 162/84/11
f 165/49/12 167/50/12 166/86/12
f 167/50/12 168/87/12 166/86/12
o bulletModel_1
v 0.878737 0.959217 0.365385
v 1.536113 1.231511 0.365385
v 1.025923 0.603879 0.365385
v 1.683298 0.876173 0.365384
v 1.536113 1.231511 -0.019231
v 0.878737 0.959217 -0.019231
v 1.683298 0.876173 -0.019231
v 1.025923 0.603879 -0.019231
v 1.536113 1.231511 -0.019231
v 1.536113 1.231511 0.365385
v 0.878737 0.959217 -0.019231
v 0.878737 0.959217 0.365385
v 1.025923 0.603879 -0.019231
v 1.025923 0.603879 0.365385
v 1.683298 0.876173 -0.019231
v 1.683298 0.876173 0.365384
v 0.878737 0.959217 -0.019231
v 0.878737 0.959217 0.365385
v 1.025923 0.603879 -0.019231
v 1.025923 0.603879 0.365385
v 1.536113 1.231511 0.365385
v 1.536113 1.231511 -0.019231
v 1.683298 0.876173 0.365384
v 1.683298 0.876173 -0.019231
v -0.159104 0.550144 0.384615
v 1.102347 1.072655 0.384615
v 0.002800 0.159272 0.384615
v 1.264251 0.681783 0.384615
v 1.102347 1.072655 -0.038462
v -0.159104 0.550144 -0.038462
v 1.264251 0.681783 -0.038462
v 0.002800 0.159272 -0.038462
v 1.102347 1.072655 -0.038462
v 1.102347 1.072655 0.384615
v -0.159104 0.550144 -0.038462
v -0.159104 0.550144 0.384615
v 0.002800 0.159272 -0.038462
v 0.002800 0.159272 0.384615
v 1.264251 0.681783 -0.038462
v 1.264251 0.681783 0.384615
v -0.159104 0.550144 -0.038462
v -0.159104 0.550144 0.384615
v 0.002800 0.159272 -0.038462
v 0.002800 0.159272 0.384615
v 1.102347 1.072655 0.384615
v 1.102347 1.072655 -0.038462
v 1.264251 0.681783 0.384615
v 1.264251 0.681783 -0.038462
vn -0.0000 -0.0000 1.0000
vn -0.0000 -0.0000 -1.0000
vn -0.3827 0.9239 -0.0000
vn 0.3827 -0.9239 -0.0000
vn -0.9239 -0.3827 -0.0000
vn 0.9239 0.3827 -0.0000
vt 0.562500 0.625000
vt 0.562500 0.593750
vt 0.625000 0.625000
vt 0.625000 0.593750
vt 0.437500 0.437500
vt 0.437500 0.406250
vt 0.500000 0.437500
vt 0.500000 0.406250
vt 0.593750 0.500000
vt 0.593750 0.562500
vt 0.562500 0.500000
vt 0.562500 0.562500
vt 0.531250 0.437500
vt 0.531250 0.375000
vt 0.500000 0.375000
vt 0.187500 0.375000
vt 0.187500 0.343750
vt 0.218750 0.375000
vt 0.218750 0.343750
vt 0.625000 0.875000
vt 0.625000 0.843750
vt 0.656250 0.875000
vt 0.656250 0.843750
vt 0.500000 0.875000
vt 0.500000 0.843750
vt 0.250000 0.500000
vt 0.250000 0.468750
vt 0.375000 0.500000
vt 0.375000 0.468750
vt 0.531250 0.562500
vt 0.531250 0.687500
vt 0.500000 0.562500
vt 0.500000 0.687500
vt 0.406250 0.500000
vt 0.406250 0.375000
vt 0.375000 0.375000
vt 0.062500 0.375000
vt 0.062500 0.343750
vt 0.093750 0.375000
vt 0.093750 0.343750
vt 0.625000 1.000000
vt 0.625000 0.968750
vt 0.656250 1.000000
vt 0.656250 0.968750
s 0
usemtl Material_0.002
f 169/88/13 171/89/13 170/90/13
f 171/89/13 172/91/13 170/90/13
f 173/92/14 175/93/14 174/94/14
f 175/93/14 176/95/14 174/94/14
f 177/96/15 179/97/15 178/98/15
f 179/97/15 180/99/15 178/98/15
f 181/100/16 183/101/16 182/94/16
f 183/101/16 184/102/16 182/94/16
f 185/103/17 187/104/17 186/105/17
f 187/104/17 188/106/17 186/105/17
f 189/107/18 191/108/18 190/109/18
f 191/108/18 192/110/18 190/109/18
f 193/111/13 195/112/13 194/107/13
f 195/112/13 196/108/13 194/107/13
f 197/113/14 199/114/14 198/115/14
f 199/114/14 200/116/14 198/115/14
f 201/117/15 203/118/15 202/119/15
f 203/118/15 204/120/15 202/119/15
f 205/121/16 207/122/16 206/115/16
f 207/122/16 208/123/16 206/115/16
f 209/124/17 211/125/17 210/126/17
f 211/125/17 212/127/17 210/126/17
f 213/128/18 215/129/18 214/130/18
f 215/129/18 216/131/18 214/130/18
