# Blender 5.0.1
# www.blender.org
mtllib lev.76239mag.mtl
o ammoModel
v 1.922308 0.384615 0.391538
v 1.923077 0.384615 0.391538
v 1.922308 0.000000 0.391538
v 1.923077 0.000000 0.391538
v 1.923077 0.384615 -0.385385
v 1.922307 0.384615 -0.385385
v 1.923077 0.000000 -0.385385
v 1.922307 0.000000 -0.385385
v 1.923077 0.384615 -0.385385
v 1.923077 0.384615 0.391538
v 1.922307 0.384615 -0.385385
v 1.922308 0.384615 0.391538
v 1.922307 0.000000 -0.385385
v 1.922308 0.000000 0.391538
v 1.923077 0.000000 -0.385385
v 1.923077 0.000000 0.391538
v 1.922307 0.384615 -0.385385
v 1.922308 0.384615 0.391538
v 1.922307 0.000000 -0.385385
v 1.922308 0.000000 0.391538
v 1.923077 0.384615 0.391538
v 1.923077 0.384615 -0.385385
v 1.923077 0.000000 0.391538
v 1.923077 0.000000 -0.385385
v -0.000002 -1.538463 0.384615
v 1.776690 -0.802533 0.384615
v 0.588742 -2.959816 0.384615
v 2.365433 -2.223886 0.384615
v 1.776689 -0.802533 -0.384616
v -0.000002 -1.538463 -0.384615
v 2.365433 -2.223886 -0.384616
v 0.588742 -2.959816 -0.384615
v 1.776689 -0.802533 -0.384616
v 1.776690 -0.802533 0.384615
v -0.000002 -1.538463 -0.384615
v -0.000002 -1.538463 0.384615
v 0.588742 -2.959816 -0.384615
v 0.588742 -2.959816 0.384615
v 2.365433 -2.223886 -0.384616
v 2.365433 -2.223886 0.384615
v -0.000002 -1.538463 -0.384615
v -0.000002 -1.538463 0.384615
v 0.588742 -2.959816 -0.384615
v 0.588742 -2.959816 0.384615
v 1.776690 -0.802533 0.384615
v 1.776689 -0.802533 -0.384616
v 2.365433 -2.223886 0.384615
v 2.365433 -2.223886 -0.384616
v 0.000000 0.769231 0.391538
v 1.923077 0.769231 0.391538
v 0.000000 0.000000 0.391538
v 1.923077 0.000000 0.391538
v 1.923077 0.769231 0.390769
v 0.000000 0.769231 0.390769
v 1.923077 0.000000 0.390769
v 0.000000 0.000000 0.390769
v 1.923077 0.769231 0.390769
v 1.923077 0.769231 0.391538
v 0.000000 0.769231 0.390769
v 0.000000 0.769231 0.391538
v 0.000000 0.000000 0.390769
v 0.000000 0.000000 0.391538
v 1.923077 0.000000 0.390769
v 1.923077 0.000000 0.391538
v 0.000000 0.769231 0.390769
v 0.000000 0.769231 0.391538
v 0.000000 0.000000 0.390769
v 0.000000 0.000000 0.391538
v 1.923077 0.769231 0.391538
v 1.923077 0.769231 0.390769
v 1.923077 0.000000 0.391538
v 1.923077 0.000000 0.390769
v -0.000000 0.769231 -0.384615
v 1.923077 0.769231 -0.384616
v -0.000000 0.000000 -0.384615
v 1.923077 0.000000 -0.384616
v 1.923077 0.769231 -0.385385
v -0.000000 0.769231 -0.385385
v 1.923077 0.000000 -0.385385
v -0.000000 0.000000 -0.385385
v 1.923077 0.769231 -0.385385
v 1.923077 0.769231 -0.384616
v -0.000000 0.769231 -0.385385
v -0.000000 0.769231 -0.384615
v -0.000000 0.000000 -0.385385
v -0.000000 0.000000 -0.384615
v 1.923077 0.000000 -0.385385
v 1.923077 0.000000 -0.384616
v -0.000000 0.769231 -0.385385
v -0.000000 0.769231 -0.384615
v -0.000000 0.000000 -0.385385
v -0.000000 0.000000 -0.384615
v 1.923077 0.769231 -0.384616
v 1.923077 0.769231 -0.385385
v 1.923077 0.000000 -0.384616
v 1.923077 0.000000 -0.385385
v -0.000769 0.769231 0.391538
v 0.000000 0.769231 0.391538
v -0.000769 0.000000 0.391538
v 0.000000 0.000000 0.391538
v -0.000000 0.769231 -0.383846
v -0.000769 0.769231 -0.383846
v -0.000000 0.000000 -0.383846
v -0.000769 0.000000 -0.383846
v -0.000000 0.769231 -0.383846
v 0.000000 0.769231 0.391538
v -0.000769 0.769231 -0.383846
v -0.000769 0.769231 0.391538
v -0.000769 0.000000 -0.383846
v -0.000769 0.000000 0.391538
v -0.000000 0.000000 -0.383846
v 0.000000 0.000000 0.391538
v -0.000769 0.769231 -0.383846
v -0.000769 0.769231 0.391538
v -0.000769 0.000000 -0.383846
v -0.000769 0.000000 0.391538
v 0.000000 0.769231 0.391538
v -0.000000 0.769231 -0.383846
v 0.000000 0.000000 0.391538
v -0.000000 0.000000 -0.383846
v 0.000000 0.000000 0.391538
v 1.923077 0.000000 0.391538
v 0.000000 -1.538462 0.391538
v 1.923077 -1.538462 0.391538
v 1.923077 0.000000 -0.385385
v -0.000000 0.000000 -0.385385
v 1.923077 -1.538462 -0.385385
v -0.000000 -1.538462 -0.385385
v 1.923077 0.000000 -0.385385
v 1.923077 0.000000 0.391538
v -0.000000 0.000000 -0.385385
v 0.000000 0.000000 0.391538
v -0.000000 -1.538462 -0.385385
v 0.000000 -1.538462 0.391538
v 1.923077 -1.538462 -0.385385
v 1.923077 -1.538462 0.391538
v -0.000000 0.000000 -0.385385
v 0.000000 0.000000 0.391538
v -0.000000 -1.538462 -0.385385
v 0.000000 -1.538462 0.391538
v 1.923077 0.000000 0.391538
v 1.923077 0.000000 -0.385385
v 1.923077 -1.538462 0.391538
v 1.923077 -1.538462 -0.385385
v 0.588743 -2.959813 0.383846
v 1.948564 -1.599992 0.383846
v 2.220528 -4.591598 0.383846
v 3.580349 -3.231777 0.383845
v 1.948563 -1.599992 -0.383847
v 0.588743 -2.959813 -0.383846
v 3.580349 -3.231777 -0.383847
v 2.220528 -4.591598 -0.383847
v 1.948563 -1.599992 -0.383847
v 1.948564 -1.599992 0.383846
v 0.588743 -2.959813 -0.383846
v 0.588743 -2.959813 0.383846
v 2.220528 -4.591598 -0.383847
v 2.220528 -4.591598 0.383846
v 3.580349 -3.231777 -0.383847
v 3.580349 -3.231777 0.383845
v 0.588743 -2.959813 -0.383846
v 0.588743 -2.959813 0.383846
v 2.220528 -4.591598 -0.383847
v 2.220528 -4.591598 0.383846
v 1.948564 -1.599992 0.383846
v 1.948563 -1.599992 -0.383847
v 3.580349 -3.231777 0.383845
v 3.580349 -3.231777 -0.383847
vn -0.0000 -0.0000 1.0000
vn -0.0000 -0.0000 -1.0000
vn -0.0000 1.0000 -0.0000
vn -0.0000 -1.0000 -0.0000
vn -1.0000 -0.0000 -0.0000
vn 1.0000 -0.0000 -0.0000
vn -0.3827 0.9239 -0.0000
vn 0.3827 -0.9239 -0.0000
vn -0.9239 -0.3827 -0.0000
vn 0.9239 0.3827 -0.0000
vn -0.7071 0.7071 -0.0000
vn 0.7071 -0.7071 -0.0000
vn -0.7071 -0.7071 -0.0000
vn 0.7071 0.7071 -0.0000
vt 0.500000 0.375000
vt 0.500000 0.343750
vt 0.531250 0.375000
vt 0.531250 0.343750
vt 0.625000 0.500000
vt 0.625000 0.468750
vt 0.656250 0.500000
vt 0.656250 0.468750
vt 0.250000 0.406250
vt 0.250000 0.437500
vt 0.187500 0.406250
vt 0.187500 0.437500
vt 0.625000 0.812500
vt 0.625000 0.781250
vt 0.562500 0.812500
vt 0.562500 0.781250
vt 0.500000 0.500000
vt 0.500000 0.468750
vt 0.562500 0.500000
vt 0.562500 0.468750
vt 0.500000 0.562500
vt 0.500000 0.531250
vt 0.562500 0.562500
vt 0.562500 0.531250
vt 0.187500 1.000000
vt 0.187500 0.875000
vt 0.343750 1.000000
vt 0.343750 0.875000
vt 0.187500 0.750000
vt 0.343750 0.750000
vt 0.437500 0.656250
vt 0.437500 0.812500
vt 0.375000 0.656250
vt 0.375000 0.812500
vt 0.312500 0.625000
vt 0.312500 0.468750
vt 0.250000 0.625000
vt 0.250000 0.468750
vt 0.062500 0.500000
vt 0.062500 0.375000
vt 0.125000 0.500000
vt 0.125000 0.375000
vt 0.000000 0.500000
vt 0.000000 0.375000
vt 0.312500 0.562500
vt 0.468750 0.625000
vt 0.468750 0.562500
vt 0.437500 1.000000
vt 0.437500 0.937500
vt 0.593750 1.000000
vt 0.593750 0.937500
vt 0.000000 0.843750
vt 0.000000 1.000000
vt 0.000000 0.937500
vt 0.437500 0.875000
vt 0.593750 0.875000
vt 0.593750 0.812500
vt 0.062500 1.000000
vt 0.500000 0.625000
vt 0.562500 0.625000
vt 0.500000 0.687500
vt 0.562500 0.687500
vt 0.187500 0.625000
vt 0.343750 0.625000
vt 0.000000 0.625000
vt 0.156250 0.625000
vt 0.156250 0.500000
vt 0.500000 0.656250
vt 0.500000 0.812500
vt 0.375000 0.562500
vt 0.375000 0.406250
vt 0.312500 0.406250
vt 0.187500 0.500000
vt 0.187500 0.375000
vt 0.000000 0.812500
vt 0.156250 1.000000
vt 0.156250 0.812500
vt 0.437500 0.406250
vt 0.437500 0.562500
vt 0.500000 0.406250
vt 0.375000 1.000000
s 0
usemtl Material_0.002
f 1/1/1 3/2/1 2/3/1
f 3/2/1 4/4/1 2/3/1
f 5/5/2 7/6/2 6/7/2
f 7/6/2 8/8/2 6/7/2
f 9/9/3 11/10/3 10/11/3
f 11/10/3 12/12/3 10/11/3
f 13/13/4 15/14/4 14/15/4
f 15/14/4 16/16/4 14/15/4
f 17/17/5 19/18/5 18/19/5
f 19/18/5 20/20/5 18/19/5
f 21/21/6 23/22/6 22/23/6
f 23/22/6 24/24/6 22/23/6
f 25/25/1 27/26/1 26/27/1
f 27/26/1 28/28/1 26/27/1
f 29/26/2 31/29/2 30/28/2
f 31/29/2 32/30/2 30/28/2
f 33/31/7 35/32/7 34/33/7
f 35/32/7 36/34/7 34/33/7
f 37/35/8 39/36/8 38/37/8
f 39/36/8 40/38/8 38/37/8
f 41/39/9 43/40/9 42/41/9
f 43/40/9 44/42/9 42/41/9
f 45/43/10 47/44/10 46/39/10
f 47/44/10 48/40/10 46/39/10
f 49/35/1 51/45/1 50/46/1
f 51/45/1 52/47/1 50/46/1
f 53/48/2 55/49/2 54/50/2
f 55/49/2 56/51/2 54/50/2
f 57/52/3 59/53/3 58/52/3
f 59/53/3 60/53/3 58/52/3
f 61/53/4 63/52/4 62/53/4
f 63/52/4 64/52/4 62/53/4
f 65/53/5 67/54/5 66/53/5
f 67/54/5 68/54/5 66/53/5
f 69/53/6 71/54/6 70/53/6
f 71/54/6 72/54/6 70/53/6
f 73/49/1 75/55/1 74/51/1
f 75/55/1 76/56/1 74/51/1
f 77/55/2 79/32/2 78/56/2
f 79/32/2 80/57/2 78/56/2
f 81/52/3 83/53/3 82/52/3
f 83/53/3 84/53/3 82/52/3
f 85/53/4 87/52/4 86/53/4
f 87/52/4 88/52/4 86/53/4
f 89/53/5 91/54/5 90/53/5
f 91/54/5 92/54/5 90/53/5
f 93/53/6 95/54/6 94/53/6
f 95/54/6 96/54/6 94/53/6
f 97/53/1 99/54/1 98/53/1
f 99/54/1 100/54/1 98/53/1
f 101/53/2 103/54/2 102/53/2
f 103/54/2 104/54/2 102/53/2
f 105/58/3 107/58/3 106/53/3
f 107/58/3 108/53/3 106/53/3
f 109/58/4 111/58/4 110/53/4
f 111/58/4 112/53/4 110/53/4
f 113/59/5 115/21/5 114/60/5
f 115/21/5 116/23/5 114/60/5
f 117/61/6 119/59/6 118/62/6
f 119/59/6 120/60/6 118/62/6
f 121/29/1 123/63/1 122/30/1
f 123/63/1 124/64/1 122/30/1
f 125/65/2 127/43/2 126/66/2
f 127/43/2 128/67/2 126/66/2
f 129/68/3 131/69/3 130/31/3
f 131/69/3 132/32/3 130/31/3
f 133/70/4 135/71/4 134/45/4
f 135/71/4 136/72/4 134/45/4
f 137/69/5 139/61/5 138/15/5
f 139/61/5 140/62/5 138/15/5
f 141/41/6 143/42/6 142/73/6
f 143/42/6 144/74/6 142/73/6
f 145/53/1 147/75/1 146/76/1
f 147/75/1 148/77/1 146/76/1
f 149/75/2 151/65/2 150/77/2
f 151/65/2 152/66/2 150/77/2
f 153/78/11 155/79/11 154/71/11
f 155/79/11 156/70/11 154/71/11
f 157/21/12 159/80/12 158/79/12
f 159/80/12 160/78/12 158/79/12
f 161/63/13 163/12/13 162/37/13
f 163/12/13 164/10/13 162/37/13
f 165/81/14 167/34/14 166/48/14
f 167/34/14 168/32/14 166/48/14
o bulletModel_0
v 0.019231 0.807692 0.365385
v 0.942308 0.807692 0.365385
v 0.019231 0.384615 0.365385
v 0.942308 0.384615 0.365385
v 0.942308 0.807692 -0.057692
v 0.019231 0.807692 -0.057692
v 0.942308 0.384615 -0.057692
v 0.019231 0.384615 -0.057692
v 0.942308 0.807692 -0.057692
v 0.942308 0.807692 0.365385
v 0.019231 0.807692 -0.057692
v 0.019231 0.807692 0.365385
v 0.019231 0.384615 -0.057692
v 0.019231 0.384615 0.365385
v 0.942308 0.384615 -0.057692
v 0.942308 0.384615 0.365385
v 0.019231 0.807692 -0.057692
v 0.019231 0.807692 0.365385
v 0.019231 0.384615 -0.057692
v 0.019231 0.384615 0.365385
v 0.942308 0.807692 0.365385
v 0.942308 0.807692 -0.057692
v 0.942308 0.384615 0.365385
v 0.942308 0.384615 -0.057692
v 0.942308 0.788462 0.346154
v 1.365384 0.788462 0.346154
v 0.942308 0.403846 0.346154
v 1.365384 0.403846 0.346154
v 1.365384 0.788462 -0.038462
v 0.942308 0.788462 -0.038462
v 1.365384 0.403846 -0.038462
v 0.942308 0.403846 -0.038462
v 1.365384 0.788462 -0.038462
v 1.365384 0.788462 0.346154
v 0.942308 0.788462 -0.038462
v 0.942308 0.788462 0.346154
v 0.942308 0.403846 -0.038462
v 0.942308 0.403846 0.346154
v 1.365384 0.403846 -0.038462
v 1.365384 0.403846 0.346154
v 0.942308 0.788462 -0.038462
v 0.942308 0.788462 0.346154
v 0.942308 0.403846 -0.038462
v 0.942308 0.403846 0.346154
v 1.365384 0.788462 0.346154
v 1.365384 0.788462 -0.038462
v 1.365384 0.403846 0.346154
v 1.365384 0.403846 -0.038462
v 1.211538 0.761538 0.319231
v 1.788461 0.761538 0.319231
v 1.211538 0.423077 0.319231
v 1.788461 0.423077 0.319231
v 1.788461 0.761538 -0.019231
v 1.211538 0.761538 -0.019231
v 1.788461 0.423077 -0.019231
v 1.211538 0.423077 -0.019231
v 1.788461 0.761538 -0.019231
v 1.788461 0.761538 0.319231
v 1.211538 0.761538 -0.019231
v 1.211538 0.761538 0.319231
v 1.211538 0.423077 -0.019231
v 1.211538 0.423077 0.319231
v 1.788461 0.423077 -0.019231
v 1.788461 0.423077 0.319231
v 1.211538 0.761538 -0.019231
v 1.211538 0.761538 0.319231
v 1.211538 0.423077 -0.019231
v 1.211538 0.423077 0.319231
v 1.788461 0.761538 0.319231
v 1.788461 0.761538 -0.019231
v 1.788461 0.423077 0.319231
v 1.788461 0.423077 -0.019231
vn -0.0000 -0.0000 1.0000
vn -0.0000 -0.0000 -1.0000
vn -0.0000 1.0000 -0.0000
vn -0.0000 -1.0000 -0.0000
vn -1.0000 -0.0000 -0.0000
vn 1.0000 -0.0000 -0.0000
vt 0.562500 0.562500
vt 0.562500 0.531250
vt 0.625000 0.562500
vt 0.625000 0.531250
vt 0.500000 0.437500
vt 0.500000 0.406250
vt 0.562500 0.437500
vt 0.562500 0.406250
vt 0.593750 0.437500
vt 0.593750 0.500000
vt 0.562500 0.500000
vt 0.593750 0.375000
vt 0.562500 0.375000
vt 0.562500 0.312500
vt 0.562500 0.281250
vt 0.593750 0.312500
vt 0.593750 0.281250
vt 0.687500 0.500000
vt 0.687500 0.468750
vt 0.718750 0.500000
vt 0.718750 0.468750
vt 0.312500 0.312500
vt 0.312500 0.281250
vt 0.343750 0.312500
vt 0.343750 0.281250
vt 0.375000 0.312500
vt 0.375000 0.281250
vt 0.406250 0.312500
vt 0.406250 0.281250
vt 0.718750 0.593750
vt 0.718750 0.625000
vt 0.687500 0.593750
vt 0.687500 0.625000
vt 0.468750 0.312500
vt 0.468750 0.281250
vt 0.437500 0.312500
vt 0.437500 0.281250
vt 0.687500 0.687500
vt 0.687500 0.656250
vt 0.718750 0.687500
vt 0.718750 0.656250
vt 0.687500 0.750000
vt 0.687500 0.718750
vt 0.718750 0.750000
vt 0.718750 0.718750
vt 0.250000 0.437500
vt 0.250000 0.406250
vt 0.312500 0.437500
vt 0.312500 0.406250
vt 0.562500 0.750000
vt 0.562500 0.718750
vt 0.625000 0.750000
vt 0.625000 0.718750
vt 0.593750 0.625000
vt 0.593750 0.687500
vt 0.562500 0.625000
vt 0.562500 0.687500
vt 0.593750 0.562500
vt 0.500000 0.312500
vt 0.500000 0.281250
vt 0.531250 0.312500
vt 0.531250 0.281250
vt 0.687500 0.562500
vt 0.687500 0.531250
vt 0.718750 0.562500
vt 0.718750 0.531250
s 0
usemtl Material_0.002
f 169/82/15 171/83/15 170/84/15
f 171/83/15 172/85/15 170/84/15
f 173/86/16 175/87/16 174/88/16
f 175/87/16 176/89/16 174/88/16
f 177/90/17 179/91/17 178/88/17
f 179/91/17 180/92/17 178/88/17
f 181/90/18 183/93/18 182/88/18
f 183/93/18 184/94/18 182/88/18
f 185/95/19 187/96/19 186/97/19
f 187/96/19 188/98/19 186/97/19
f 189/99/20 191/100/20 190/101/20
f 191/100/20 192/102/20 190/101/20
f 193/103/15 195/104/15 194/105/15
f 195/104/15 196/106/15 194/105/15
f 197/107/16 199/108/16 198/109/16
f 199/108/16 200/110/16 198/109/16
f 201/111/17 203/112/17 202/113/17
f 203/112/17 204/114/17 202/113/17
f 205/115/18 207/116/18 206/117/18
f 207/116/18 208/118/18 206/117/18
f 209/119/19 211/120/19 210/121/19
f 211/120/19 212/122/19 210/121/19
f 213/123/20 215/124/20 214/125/20
f 215/124/20 216/126/20 214/125/20
f 217/127/15 219/128/15 218/129/15
f 219/128/15 220/130/15 218/129/15
f 221/131/16 223/132/16 222/133/16
f 223/132/16 224/134/16 222/133/16
f 225/135/17 227/136/17 226/137/17
f 227/136/17 228/138/17 226/137/17
f 229/135/18 231/139/18 230/137/18
f 231/139/18 232/82/18 230/137/18
f 233/140/19 235/141/19 234/142/19
f 235/141/19 236/143/19 234/142/19
f 237/144/20 239/145/20 238/146/20
f 239/145/20 240/147/20 238/146/20
o bulletModel_2
v 0.019231 0.423077 0.365385
v 0.942308 0.423077 0.365385
v 0.019231 0.000000 0.365385
v 0.942308 0.000000 0.365385
v 0.942308 0.423077 -0.057692
v 0.019231 0.423077 -0.057692
v 0.942308 0.000000 -0.057692
v 0.019231 0.000000 -0.057692
v 0.942308 0.423077 -0.057692
v 0.942308 0.423077 0.365385
v 0.019231 0.423077 -0.057692
v 0.019231 0.423077 0.365385
v 0.019231 0.000000 -0.057692
v 0.019231 0.000000 0.365385
v 0.942308 0.000000 -0.057692
v 0.942308 0.000000 0.365385
v 0.019231 0.423077 -0.057692
v 0.019231 0.423077 0.365385
v 0.019231 0.000000 -0.057692
v 0.019231 0.000000 0.365385
v 0.942308 0.423077 0.365385
v 0.942308 0.423077 -0.057692
v 0.942308 0.000000 0.365385
v 0.942308 0.000000 -0.057692
v 0.942308 0.403846 0.346154
v 1.365384 0.403846 0.346154
v 0.942308 0.019231 0.346154
v 1.365384 0.019231 0.346154
v 1.365384 0.403846 -0.038462
v 0.942308 0.403846 -0.038462
v 1.365384 0.019231 -0.038462
v 0.942308 0.019231 -0.038462
v 1.365384 0.403846 -0.038462
v 1.365384 0.403846 0.346154
v 0.942308 0.403846 -0.038462
v 0.942308 0.403846 0.346154
v 0.942308 0.019231 -0.038462
v 0.942308 0.019231 0.346154
v 1.365384 0.019231 -0.038462
v 1.365384 0.019231 0.346154
v 0.942308 0.403846 -0.038462
v 0.942308 0.403846 0.346154
v 0.942308 0.019231 -0.038462
v 0.942308 0.019231 0.346154
v 1.365384 0.403846 0.346154
v 1.365384 0.403846 -0.038462
v 1.365384 0.019231 0.346154
v 1.365384 0.019231 -0.038462
v 1.211538 0.376923 0.319231
v 1.788461 0.376923 0.319231
v 1.211538 0.038462 0.319231
v 1.788461 0.038462 0.319231
v 1.788461 0.376923 -0.019231
v 1.211538 0.376923 -0.019231
v 1.788461 0.038462 -0.019231
v 1.211538 0.038462 -0.019231
v 1.788461 0.376923 -0.019231
v 1.788461 0.376923 0.319231
v 1.211538 0.376923 -0.019231
v 1.211538 0.376923 0.319231
v 1.211538 0.038462 -0.019231
v 1.211538 0.038462 0.319231
v 1.788461 0.038462 -0.019231
v 1.788461 0.038462 0.319231
v 1.211538 0.376923 -0.019231
v 1.211538 0.376923 0.319231
v 1.211538 0.038462 -0.019231
v 1.211538 0.038462 0.319231
v 1.788461 0.376923 0.319231
v 1.788461 0.376923 -0.019231
v 1.788461 0.038462 0.319231
v 1.788461 0.038462 -0.019231
vn -0.0000 -0.0000 1.0000
vn -0.0000 -0.0000 -1.0000
vn -0.0000 1.0000 -0.0000
vn -0.0000 -1.0000 -0.0000
vn -1.0000 -0.0000 -0.0000
vn 1.0000 -0.0000 -0.0000
vt 0.000000 0.375000
vt 0.000000 0.343750
vt 0.062500 0.375000
vt 0.062500 0.343750
vt 0.625000 1.000000
vt 0.625000 0.968750
vt 0.687500 1.000000
vt 0.687500 0.968750
vt 0.093750 0.312500
vt 0.093750 0.375000
vt 0.062500 0.312500
vt 0.656250 0.937500
vt 0.656250 0.875000
vt 0.625000 0.937500
vt 0.625000 0.875000
vt 0.625000 0.312500
vt 0.625000 0.281250
vt 0.656250 0.312500
vt 0.656250 0.281250
vt 0.687500 0.437500
vt 0.687500 0.406250
vt 0.718750 0.437500
vt 0.718750 0.406250
vt 0.687500 0.312500
vt 0.687500 0.281250
vt 0.718750 0.312500
vt 0.718750 0.281250
vt 0.750000 1.000000
vt 0.750000 0.968750
vt 0.781250 1.000000
vt 0.781250 0.968750
vt 0.093750 0.218750
vt 0.093750 0.250000
vt 0.062500 0.218750
vt 0.062500 0.250000
vt 0.781250 0.937500
vt 0.781250 0.906250
vt 0.750000 0.937500
vt 0.750000 0.906250
vt 0.000000 0.250000
vt 0.000000 0.218750
vt 0.031250 0.250000
vt 0.031250 0.218750
vt 0.687500 0.375000
vt 0.687500 0.343750
vt 0.718750 0.375000
vt 0.718750 0.343750
vt 0.125000 0.375000
vt 0.125000 0.343750
vt 0.187500 0.375000
vt 0.187500 0.343750
vt 0.625000 0.843750
vt 0.687500 0.875000
vt 0.687500 0.843750
vt 0.218750 0.312500
vt 0.218750 0.375000
vt 0.187500 0.312500
vt 0.656250 0.812500
vt 0.656250 0.750000
vt 0.625000 0.812500
vt 0.625000 0.750000
vt 0.750000 0.875000
vt 0.750000 0.843750
vt 0.781250 0.875000
vt 0.781250 0.843750
vt 0.125000 0.250000
vt 0.125000 0.218750
vt 0.156250 0.250000
vt 0.156250 0.218750
s 0
usemtl Material_0.002
f 241/148/21 243/149/21 242/150/21
f 243/149/21 244/151/21 242/150/21
f 245/152/22 247/153/22 246/154/22
f 247/153/22 248/155/22 246/154/22
f 249/156/23 251/157/23 250/158/23
f 251/157/23 252/150/23 250/158/23
f 253/159/24 255/160/24 254/161/24
f 255/160/24 256/162/24 254/161/24
f 257/163/25 259/164/25 258/165/25
f 259/164/25 260/166/25 258/165/25
f 261/167/26 263/168/26 262/169/26
f 263/168/26 264/170/26 262/169/26
f 265/171/21 267/172/21 266/173/21
f 267/172/21 268/174/21 266/173/21
f 269/175/22 271/176/22 270/177/22
f 271/176/22 272/178/22 270/177/22
f 273/179/23 275/180/23 274/181/23
f 275/180/23 276/182/23 274/181/23
f 277/183/24 279/184/24 278/185/24
f 279/184/24 280/186/24 278/185/24
f 281/187/25 283/188/25 282/189/25
f 283/188/25 284/190/25 282/189/25
f 285/191/26 287/192/26 286/193/26
f 287/192/26 288/194/26 286/193/26
f 289/195/21 291/196/21 290/197/21
f 291/196/21 292/198/21 290/197/21
f 293/162/22 295/199/22 294/200/22
f 295/199/22 296/201/22 294/200/22
f 297/202/23 299/203/23 298/204/23
f 299/203/23 300/197/23 298/204/23
f 301/205/24 303/206/24 302/207/24
f 303/206/24 304/208/24 302/207/24
f 305/209/25 307/210/25 306/211/25
f 307/210/25 308/212/25 306/211/25
f 309/213/26 311/214/26 310/215/26
f 311/214/26 312/216/26 310/215/26
o bulletModel_1
v 0.019231 0.615385 0.057692
v 0.942308 0.615385 0.057692
v 0.019231 0.192308 0.057692
v 0.942308 0.192308 0.057692
v 0.942308 0.615385 -0.365385
v 0.019231 0.615385 -0.365385
v 0.942308 0.192308 -0.365385
v 0.019231 0.192308 -0.365385
v 0.942308 0.615385 -0.365385
v 0.942308 0.615385 0.057692
v 0.019231 0.615385 -0.365385
v 0.019231 0.615385 0.057692
v 0.019231 0.192308 -0.365385
v 0.019231 0.192308 0.057692
v 0.942308 0.192308 -0.365385
v 0.942308 0.192308 0.057692
v 0.019231 0.615385 -0.365385
v 0.019231 0.615385 0.057692
v 0.019231 0.192308 -0.365385
v 0.019231 0.192308 0.057692
v 0.942308 0.615385 0.057692
v 0.942308 0.615385 -0.365385
v 0.942308 0.192308 0.057692
v 0.942308 0.192308 -0.365385
v 0.942308 0.596154 0.038462
v 1.365384 0.596154 0.038461
v 0.942308 0.211538 0.038462
v 1.365384 0.211538 0.038461
v 1.365384 0.596154 -0.346154
v 0.942308 0.596154 -0.346154
v 1.365384 0.211538 -0.346154
v 0.942308 0.211538 -0.346154
v 1.365384 0.596154 -0.346154
v 1.365384 0.596154 0.038461
v 0.942308 0.596154 -0.346154
v 0.942308 0.596154 0.038462
v 0.942308 0.211538 -0.346154
v 0.942308 0.211538 0.038462
v 1.365384 0.211538 -0.346154
v 1.365384 0.211538 0.038461
v 0.942308 0.596154 -0.346154
v 0.942308 0.596154 0.038462
v 0.942308 0.211538 -0.346154
v 0.942308 0.211538 0.038462
v 1.365384 0.596154 0.038461
v 1.365384 0.596154 -0.346154
v 1.365384 0.211538 0.038461
v 1.365384 0.211538 -0.346154
v 1.211538 0.569231 0.011538
v 1.788461 0.569231 0.011538
v 1.211538 0.230769 0.011538
v 1.788461 0.230769 0.011538
v 1.788461 0.569231 -0.326923
v 1.211538 0.569231 -0.326923
v 1.788461 0.230769 -0.326923
v 1.211538 0.230769 -0.326923
v 1.788461 0.569231 -0.326923
v 1.788461 0.569231 0.011538
v 1.211538 0.569231 -0.326923
v 1.211538 0.569231 0.011538
v 1.211538 0.230769 -0.326923
v 1.211538 0.230769 0.011538
v 1.788461 0.230769 -0.326923
v 1.788461 0.230769 0.011538
v 1.211538 0.569231 -0.326923
v 1.211538 0.569231 0.011538
v 1.211538 0.230769 -0.326923
v 1.211538 0.230769 0.011538
v 1.788461 0.569231 0.011538
v 1.788461 0.569231 -0.326923
v 1.788461 0.230769 0.011538
v 1.788461 0.230769 -0.326923
vn -0.0000 -0.0000 1.0000
vn -0.0000 -0.0000 -1.0000
vn -0.0000 1.0000 -0.0000
vn -0.0000 -1.0000 -0.0000
vn -1.0000 -0.0000 -0.0000
vn 1.0000 -0.0000 -0.0000
vt 0.250000 0.375000
vt 0.250000 0.343750
vt 0.312500 0.375000
vt 0.312500 0.343750
vt 0.625000 0.750000
vt 0.625000 0.718750
vt 0.687500 0.750000
vt 0.687500 0.718750
vt 0.343750 0.312500
vt 0.343750 0.375000
vt 0.312500 0.312500
vt 0.656250 0.687500
vt 0.656250 0.625000
vt 0.625000 0.687500
vt 0.625000 0.625000
vt 0.750000 0.812500
vt 0.750000 0.781250
vt 0.781250 0.812500
vt 0.781250 0.781250
vt 0.187500 0.250000
vt 0.187500 0.218750
vt 0.218750 0.250000
vt 0.218750 0.218750
vt 0.750000 0.750000
vt 0.750000 0.718750
vt 0.781250 0.750000
vt 0.781250 0.718750
vt 0.750000 0.687500
vt 0.750000 0.656250
vt 0.781250 0.687500
vt 0.781250 0.656250
vt 0.406250 0.218750
vt 0.406250 0.250000
vt 0.375000 0.218750
vt 0.375000 0.250000
vt 0.781250 0.625000
vt 0.781250 0.593750
vt 0.750000 0.625000
vt 0.750000 0.593750
vt 0.312500 0.250000
vt 0.312500 0.218750
vt 0.343750 0.250000
vt 0.343750 0.218750
vt 0.250000 0.250000
vt 0.250000 0.218750
vt 0.281250 0.250000
vt 0.281250 0.218750
vt 0.375000 0.375000
vt 0.375000 0.343750
vt 0.437500 0.375000
vt 0.437500 0.343750
vt 0.625000 0.593750
vt 0.687500 0.625000
vt 0.687500 0.593750
vt 0.468750 0.312500
vt 0.468750 0.375000
vt 0.437500 0.312500
vt 0.656250 0.562500
vt 0.656250 0.500000
vt 0.625000 0.562500
vt 0.625000 0.500000
vt 0.750000 0.562500
vt 0.750000 0.531250
vt 0.781250 0.562500
vt 0.781250 0.531250
vt 0.437500 0.250000
vt 0.437500 0.218750
vt 0.468750 0.250000
vt 0.468750 0.218750
s 0
usemtl Material_0.002
f 313/217/27 315/218/27 314/219/27
f 315/218/27 316/220/27 314/219/27
f 317/221/28 319/222/28 318/223/28
f 319/222/28 320/224/28 318/223/28
f 321/225/29 323/226/29 322/227/29
f 323/226/29 324/219/29 322/227/29
f 325/228/30 327/229/30 326/230/30
f 327/229/30 328/231/30 326/230/30
f 329/232/31 331/233/31 330/234/31
f 331/233/31 332/235/31 330/234/31
f 333/236/32 335/237/32 334/238/32
f 335/237/32 336/239/32 334/238/32
f 337/240/27 339/241/27 338/242/27
f 339/241/27 340/243/27 338/242/27
f 341/244/28 343/245/28 342/246/28
f 343/245/28 344/247/28 342/246/28
f 345/248/29 347/249/29 346/250/29
f 347/249/29 348/251/29 346/250/29
f 349/252/30 351/253/30 350/254/30
f 351/253/30 352/255/30 350/254/30
f 353/256/31 355/257/31 354/258/31
f 355/257/31 356/259/31 354/258/31
f 357/260/32 359/261/32 358/262/32
f 359/261/32 360/263/32 358/262/32
f 361/264/27 363/265/27 362/266/27
f 363/265/27 364/267/27 362/266/27
f 365/231/28 367/268/28 366/269/28
f 367/268/28 368/270/28 366/269/28
f 369/271/29 371/272/29 370/273/29
f 371/272/29 372/266/29 370/273/29
f 373/274/30 375/275/30 374/276/30
f 375/275/30 376/277/30 374/276/30
f 377/278/31 379/279/31 378/280/31
f 379/279/31 380/281/31 378/280/31
f 381/282/32 383/283/32 382/284/32
f 383/283/32 384/285/32 382/284/32
