# Blender 5.0.1
# www.blender.org
mtllib Untitled.mtl
o bulletModel_1
v 0.082085 0.392077 0.250000
v 0.851315 0.392077 0.250000
v 0.082085 -0.107923 0.250000
v 0.851315 -0.107923 0.250000
v 0.851315 0.392077 -0.250000
v 0.082085 0.392077 -0.250000
v 0.851315 -0.107923 -0.250000
v 0.082085 -0.107923 -0.250000
v 0.851315 0.392077 -0.250000
v 0.851315 0.392077 0.250000
v 0.082085 0.392077 -0.250000
v 0.082085 0.392077 0.250000
v 0.082085 -0.107923 -0.250000
v 0.082085 -0.107923 0.250000
v 0.851315 -0.107923 -0.250000
v 0.851315 -0.107923 0.250000
v 0.082085 0.392077 -0.250000
v 0.082085 0.392077 0.250000
v 0.082085 -0.107923 -0.250000
v 0.082085 -0.107923 0.250000
v 0.851315 0.392077 0.250000
v 0.851315 0.392077 -0.250000
v 0.851315 -0.107923 0.250000
v 0.851315 -0.107923 -0.250000
v 0.716700 0.353615 0.211538
v 1.101315 0.353615 0.211538
v 0.716700 -0.069462 0.211538
v 1.101315 -0.069462 0.211538
v 1.101315 0.353615 -0.211538
v 0.716700 0.353615 -0.211538
v 1.101315 -0.069462 -0.211538
v 0.716700 -0.069462 -0.211538
v 1.101315 0.353615 -0.211538
v 1.101315 0.353615 0.211538
v 0.716700 0.353615 -0.211538
v 0.716700 0.353615 0.211538
v 0.716700 -0.069462 -0.211538
v 0.716700 -0.069462 0.211538
v 1.101315 -0.069462 -0.211538
v 1.101315 -0.069462 0.211538
v 0.716700 0.353615 -0.211538
v 0.716700 0.353615 0.211538
v 0.716700 -0.069462 -0.211538
v 0.716700 -0.069462 0.211538
v 1.101315 0.353615 0.211538
v 1.101315 0.353615 -0.211538
v 1.101315 -0.069462 0.211538
v 1.101315 -0.069462 -0.211538
vn -0.0000 -0.0000 1.0000
vn -0.0000 -0.0000 -1.0000
vn -0.0000 1.0000 -0.0000
vn -0.0000 -1.0000 -0.0000
vn -1.0000 -0.0000 -0.0000
vn 1.0000 -0.0000 -0.0000
vt 0.000000 0.250000
vt 0.000000 0.187500
vt 0.125000 0.250000
vt 0.125000 0.187500
vt 0.750000 1.000000
vt 0.750000 0.937500
vt 0.875000 1.000000
vt 0.875000 0.937500
vt 0.187500 0.125000
vt 0.187500 0.250000
vt 0.125000 0.125000
vt 0.812500 0.875000
vt 0.812500 0.750000
vt 0.750000 0.875000
vt 0.750000 0.750000
vt 0.875000 0.125000
vt 0.875000 0.062500
vt 0.937500 0.125000
vt 0.937500 0.062500
vt 0.875000 0.250000
vt 0.875000 0.187500
vt 0.937500 0.250000
vt 0.937500 0.187500
vt 0.500000 0.125000
vt 0.500000 0.062500
vt 0.562500 0.125000
vt 0.562500 0.062500
vt 0.625000 0.125000
vt 0.625000 0.062500
vt 0.687500 0.125000
vt 0.687500 0.062500
vt 0.937500 0.312500
vt 0.937500 0.375000
vt 0.875000 0.312500
vt 0.875000 0.375000
vt 0.812500 0.125000
vt 0.812500 0.062500
vt 0.750000 0.125000
vt 0.750000 0.062500
vt 0.875000 0.500000
vt 0.875000 0.437500
vt 0.937500 0.500000
vt 0.937500 0.437500
vt 0.875000 0.625000
vt 0.875000 0.562500
vt 0.937500 0.625000
vt 0.937500 0.562500
s 0
usemtl Material_0
f 1/1/1 3/2/1 2/3/1
f 3/2/1 4/4/1 2/3/1
f 5/5/2 7/6/2 6/7/2
f 7/6/2 8/8/2 6/7/2
f 9/9/3 11/10/3 10/11/3
f 11/10/3 12/3/3 10/11/3
f 13/12/4 15/13/4 14/14/4
f 15/13/4 16/15/4 14/14/4
f 17/16/5 19/17/5 18/18/5
f 19/17/5 20/19/5 18/18/5
f 21/20/6 23/21/6 22/22/6
f 23/21/6 24/23/6 22/22/6
f 25/24/1 27/25/1 26/26/1
f 27/25/1 28/27/1 26/26/1
f 29/28/2 31/29/2 30/30/2
f 31/29/2 32/31/2 30/30/2
f 33/32/3 35/33/3 34/34/3
f 35/33/3 36/35/3 34/34/3
f 37/36/4 39/37/4 38/38/4
f 39/37/4 40/39/4 38/38/4
f 41/40/5 43/41/5 42/42/5
f 43/41/5 44/43/5 42/42/5
f 45/44/6 47/45/6 46/46/6
f 47/45/6 48/47/6 46/46/6
o ammoModel
v -0.000000 0.384615 -0.310769
v 0.769231 0.384615 -0.310769
v -0.000000 -0.000000 -0.310769
v 0.769231 -0.000000 -0.310769
v 0.769231 0.384615 -0.311538
v -0.000000 0.384615 -0.311538
v 0.769231 -0.000000 -0.311538
v -0.000000 -0.000000 -0.311538
v 0.769231 0.384615 -0.311538
v 0.769231 0.384615 -0.310769
v -0.000000 0.384615 -0.311538
v -0.000000 0.384615 -0.310769
v -0.000000 -0.000000 -0.311538
v -0.000000 -0.000000 -0.310769
v 0.769231 -0.000000 -0.311538
v 0.769231 -0.000000 -0.310769
v -0.000000 0.384615 -0.311538
v -0.000000 0.384615 -0.310769
v -0.000000 -0.000000 -0.311538
v -0.000000 -0.000000 -0.310769
v 0.769231 0.384615 -0.310769
v 0.769231 0.384615 -0.311538
v 0.769231 -0.000000 -0.310769
v 0.769231 -0.000000 -0.311538
v 0.000000 -0.000000 0.311538
v 1.153846 -0.000000 0.311538
v 0.000000 -1.153846 0.311538
v 1.153846 -1.153846 0.311538
v 1.153846 -0.000000 -0.303846
v -0.000000 -0.000000 -0.303846
v 1.153846 -1.153846 -0.303846
v -0.000000 -1.153846 -0.303846
v 1.153846 -0.000000 -0.303846
v 1.153846 -0.000000 0.311538
v -0.000000 -0.000000 -0.303846
v 0.000000 -0.000000 0.311538
v -0.000000 -1.153846 -0.303846
v 0.000000 -1.153846 0.311538
v 1.153846 -1.153846 -0.303846
v 1.153846 -1.153846 0.311538
v -0.000000 -0.000000 -0.303846
v 0.000000 -0.000000 0.311538
v -0.000000 -1.153846 -0.303846
v 0.000000 -1.153846 0.311538
v 1.153846 -0.000000 0.311538
v 1.153846 -0.000000 -0.303846
v 1.153846 -1.153846 0.311538
v 1.153846 -1.153846 -0.303846
v 0.000000 -1.153846 0.465385
v 1.153846 -1.153846 0.465385
v 0.000000 -3.076923 0.465385
v 1.153846 -3.076923 0.465385
v 1.153846 -1.153846 -0.457692
v -0.000000 -1.153846 -0.457692
v 1.153846 -3.076923 -0.457692
v -0.000000 -3.076923 -0.457692
v 1.153846 -1.153846 -0.457692
v 1.153846 -1.153846 0.465385
v -0.000000 -1.153846 -0.457692
v 0.000000 -1.153846 0.465385
v -0.000000 -3.076923 -0.457692
v 0.000000 -3.076923 0.465385
v 1.153846 -3.076923 -0.457692
v 1.153846 -3.076923 0.465385
v -0.000000 -1.153846 -0.457692
v 0.000000 -1.153846 0.465385
v -0.000000 -3.076923 -0.457692
v 0.000000 -3.076923 0.465385
v 1.153846 -1.153846 0.465385
v 1.153846 -1.153846 -0.457692
v 1.153846 -3.076923 0.465385
v 1.153846 -3.076923 -0.457692
v 0.000000 0.384615 0.304615
v 0.769231 0.384615 0.304615
v 0.000000 0.000000 0.304615
v 0.769231 0.000000 0.304615
v 0.769231 0.384615 0.303846
v 0.000000 0.384615 0.303846
v 0.769231 0.000000 0.303846
v 0.000000 0.000000 0.303846
v 0.769231 0.384615 0.303846
v 0.769231 0.384615 0.304615
v 0.000000 0.384615 0.303846
v 0.000000 0.384615 0.304615
v 0.000000 0.000000 0.303846
v 0.000000 0.000000 0.304615
v 0.769231 0.000000 0.303846
v 0.769231 0.000000 0.304615
v 0.000000 0.384615 0.303846
v 0.000000 0.384615 0.304615
v 0.000000 0.000000 0.303846
v 0.000000 0.000000 0.304615
v 0.769231 0.384615 0.304615
v 0.769231 0.384615 0.303846
v 0.769231 0.000000 0.304615
v 0.769231 0.000000 0.303846
v 1.153846 -3.076154 0.458077
v 1.346154 -3.076154 0.458077
v 1.153846 -3.076923 0.458077
v 1.346154 -3.076923 0.458077
v 1.346154 -3.076154 -0.461154
v 1.153846 -3.076154 -0.461154
v 1.346154 -3.076923 -0.461154
v 1.153846 -3.076923 -0.461154
v 1.346154 -3.076154 -0.461154
v 1.346154 -3.076154 0.458077
v 1.153846 -3.076154 -0.461154
v 1.153846 -3.076154 0.458077
v 1.153846 -3.076923 -0.461154
v 1.153846 -3.076923 0.458077
v 1.346154 -3.076923 -0.461154
v 1.346154 -3.076923 0.458077
v 1.153846 -3.076154 -0.461154
v 1.153846 -3.076154 0.458077
v 1.153846 -3.076923 -0.461154
v 1.153846 -3.076923 0.458077
v 1.346154 -3.076154 0.458077
v 1.346154 -3.076154 -0.461154
v 1.346154 -3.076923 0.458077
v 1.346154 -3.076923 -0.461154
vn -0.0000 -0.0000 1.0000
vn -0.0000 -0.0000 -1.0000
vn -0.0000 1.0000 -0.0000
vn -0.0000 -1.0000 -0.0000
vn -1.0000 -0.0000 -0.0000
vn 1.0000 -0.0000 -0.0000
vt 0.500000 0.250000
vt 0.500000 0.187500
vt 0.625000 0.250000
vt 0.625000 0.187500
vt 0.750000 0.500000
vt 0.750000 0.437500
vt 0.875000 0.500000
vt 0.875000 0.437500
vt 0.000000 0.875000
vt 0.000000 1.000000
vt 0.000000 0.937500
vt 0.250000 0.625000
vt 0.250000 0.437500
vt 0.437500 0.625000
vt 0.437500 0.437500
vt 0.500000 1.000000
vt 0.500000 0.812500
vt 0.687500 1.000000
vt 0.687500 0.812500
vt 0.375000 0.187500
vt 0.375000 0.375000
vt 0.250000 0.187500
vt 0.250000 0.375000
vt 0.750000 0.750000
vt 0.750000 0.562500
vt 0.625000 0.750000
vt 0.625000 0.562500
vt 0.500000 0.500000
vt 0.500000 0.312500
vt 0.625000 0.500000
vt 0.625000 0.312500
vt 0.500000 0.750000
vt 0.500000 0.562500
vt 0.000000 0.687500
vt 0.187500 1.000000
vt 0.187500 0.687500
vt 0.250000 1.000000
vt 0.250000 0.687500
vt 0.437500 1.000000
vt 0.437500 0.687500
vt 0.500000 0.375000
vt 0.750000 0.312500
vt 0.125000 0.625000
vt 0.125000 0.312500
vt 0.250000 0.312500
vt 0.000000 0.625000
vt 0.000000 0.312500
vt 0.750000 0.687500
vt 0.875000 0.750000
vt 0.875000 0.687500
vt 0.750000 0.625000
vt 0.875000 0.625000
vt 0.875000 0.562500
vt 0.062500 1.000000
vt 0.750000 0.187500
vt 0.750000 0.250000
vt 0.875000 0.375000
vt 0.875000 0.312500
vt 0.750000 0.375000
vt 0.125000 1.000000
s 0
usemtl Material_0
f 49/48/7 51/49/7 50/50/7
f 51/49/7 52/51/7 50/50/7
f 53/52/8 55/53/8 54/54/8
f 55/53/8 56/55/8 54/54/8
f 57/56/9 59/57/9 58/56/9
f 59/57/9 60/57/9 58/56/9
f 61/57/10 63/56/10 62/57/10
f 63/56/10 64/56/10 62/57/10
f 65/57/11 67/58/11 66/57/11
f 67/58/11 68/58/11 66/57/11
f 69/57/12 71/58/12 70/57/12
f 71/58/12 72/58/12 70/57/12
f 73/59/7 75/60/7 74/61/7
f 75/60/7 76/62/7 74/61/7
f 77/63/8 79/64/8 78/65/8
f 79/64/8 80/66/8 78/65/8
f 81/67/9 83/68/9 82/69/9
f 83/68/9 84/70/9 82/69/9
f 85/71/10 87/72/10 86/73/10
f 87/72/10 88/74/10 86/73/10
f 89/75/11 91/76/11 90/77/11
f 91/76/11 92/78/11 90/77/11
f 93/79/12 95/80/12 94/73/12
f 95/80/12 96/74/12 94/73/12
f 97/57/7 99/81/7 98/82/7
f 99/81/7 100/83/7 98/82/7
f 101/84/8 103/85/8 102/86/8
f 103/85/8 104/87/8 102/86/8
f 105/49/9 107/88/9 106/67/9
f 107/88/9 108/68/9 106/67/9
f 109/52/10 111/89/10 110/77/10
f 111/89/10 112/78/10 110/77/10
f 113/90/11 115/91/11 114/59/11
f 115/91/11 116/92/11 114/59/11
f 117/93/12 119/94/12 118/90/12
f 119/94/12 120/91/12 118/90/12
f 121/71/7 123/95/7 122/96/7
f 123/95/7 124/97/7 122/96/7
f 125/98/8 127/72/8 126/99/8
f 127/72/8 128/100/8 126/99/8
f 129/56/9 131/57/9 130/56/9
f 131/57/9 132/57/9 130/56/9
f 133/57/10 135/56/10 134/57/10
f 135/56/10 136/56/10 134/57/10
f 137/57/11 139/58/11 138/57/11
f 139/58/11 140/58/11 138/57/11
f 141/57/12 143/58/12 142/57/12
f 143/58/12 144/58/12 142/57/12
f 145/57/7 147/57/7 146/101/7
f 147/57/7 148/101/7 146/101/7
f 149/57/8 151/57/8 150/101/8
f 151/57/8 152/101/8 150/101/8
f 153/102/9 155/103/9 154/51/9
f 155/103/9 156/50/9 154/51/9
f 157/104/10 159/105/10 158/106/10
f 159/105/10 160/89/10 158/106/10
f 161/57/11 163/57/11 162/107/11
f 163/57/11 164/107/11 162/107/11
f 165/57/12 167/57/12 166/107/12
f 167/57/12 168/107/12 166/107/12
o bulletModel_2
v 0.384615 -0.384615 -0.306923
v 1.153846 -0.384615 -0.306923
v 0.384615 -0.769231 -0.306923
v 1.153846 -0.769231 -0.306923
v 1.153846 -0.384615 -0.307692
v 0.384615 -0.384615 -0.307692
v 1.153846 -0.769231 -0.307692
v 0.384615 -0.769231 -0.307692
v 1.153846 -0.384615 -0.307692
v 1.153846 -0.384615 -0.306923
v 0.384615 -0.384615 -0.307692
v 0.384615 -0.384615 -0.306923
v 0.384615 -0.769231 -0.307692
v 0.384615 -0.769231 -0.306923
v 1.153846 -0.769231 -0.307692
v 1.153846 -0.769231 -0.306923
v 0.384615 -0.384615 -0.307692
v 0.384615 -0.384615 -0.306923
v 0.384615 -0.769231 -0.307692
v 0.384615 -0.769231 -0.306923
v 1.153846 -0.384615 -0.306923
v 1.153846 -0.384615 -0.307692
v 1.153846 -0.769231 -0.306923
v 1.153846 -0.769231 -0.307692
v 0.384615 -0.384615 0.316154
v 1.153846 -0.384615 0.316154
v 0.384615 -0.769231 0.316154
v 1.153846 -0.769231 0.316154
v 1.153846 -0.384615 0.315385
v 0.384615 -0.384615 0.315385
v 1.153846 -0.769231 0.315385
v 0.384615 -0.769231 0.315385
v 1.153846 -0.384615 0.315385
v 1.153846 -0.384615 0.316154
v 0.384615 -0.384615 0.315385
v 0.384615 -0.384615 0.316154
v 0.384615 -0.769231 0.315385
v 0.384615 -0.769231 0.316154
v 1.153846 -0.769231 0.315385
v 1.153846 -0.769231 0.316154
v 0.384615 -0.384615 0.315385
v 0.384615 -0.384615 0.316154
v 0.384615 -0.769231 0.315385
v 0.384615 -0.769231 0.316154
v 1.153846 -0.384615 0.316154
v 1.153846 -0.384615 0.315385
v 1.153846 -0.769231 0.316154
v 1.153846 -0.769231 0.315385
vn -0.0000 -0.0000 1.0000
vn -0.0000 -0.0000 -1.0000
vn -0.0000 1.0000 -0.0000
vn -0.0000 -1.0000 -0.0000
vn -1.0000 -0.0000 -0.0000
vn 1.0000 -0.0000 -0.0000
vt 0.750000 0.250000
vt 0.750000 0.187500
vt 0.875000 0.250000
vt 0.875000 0.187500
vt 0.000000 0.125000
vt 0.000000 0.062500
vt 0.125000 0.125000
vt 0.125000 0.062500
vt 0.000000 0.875000
vt 0.000000 1.000000
vt 0.000000 0.937500
vt 0.875000 0.750000
vt 0.875000 0.687500
vt 1.000000 0.750000
vt 1.000000 0.687500
vt 0.375000 0.125000
vt 0.375000 0.062500
vt 0.500000 0.125000
vt 0.500000 0.062500
s 0
usemtl Material_0
f 169/108/13 171/109/13 170/110/13
f 171/109/13 172/111/13 170/110/13
f 173/112/14 175/113/14 174/114/14
f 175/113/14 176/115/14 174/114/14
f 177/116/15 179/117/15 178/116/15
f 179/117/15 180/117/15 178/116/15
f 181/117/16 183/116/16 182/117/16
f 183/116/16 184/116/16 182/117/16
f 185/117/17 187/118/17 186/117/17
f 187/118/17 188/118/17 186/117/17
f 189/117/18 191/118/18 190/117/18
f 191/118/18 192/118/18 190/117/18
f 193/119/13 195/120/13 194/121/13
f 195/120/13 196/122/13 194/121/13
f 197/123/14 199/124/14 198/125/14
f 199/124/14 200/126/14 198/125/14
f 201/116/15 203/117/15 202/116/15
f 203/117/15 204/117/15 202/116/15
f 205/117/16 207/116/16 206/117/16
f 207/116/16 208/116/16 206/117/16
f 209/117/17 211/118/17 210/117/17
f 211/118/17 212/118/17 210/117/17
f 213/117/18 215/118/18 214/117/18
f 215/118/18 216/118/18 214/117/18
o bulletModel_3
v 0.384615 -0.769231 0.316154
v 1.153846 -0.769231 0.316154
v 0.384615 -1.153846 0.316154
v 1.153846 -1.153846 0.316154
v 1.153846 -0.769231 0.315385
v 0.384615 -0.769231 0.315385
v 1.153846 -1.153846 0.315385
v 0.384615 -1.153846 0.315385
v 1.153846 -0.769231 0.315385
v 1.153846 -0.769231 0.316154
v 0.384615 -0.769231 0.315385
v 0.384615 -0.769231 0.316154
v 0.384615 -1.153846 0.315385
v 0.384615 -1.153846 0.316154
v 1.153846 -1.153846 0.315385
v 1.153846 -1.153846 0.316154
v 0.384615 -0.769231 0.315385
v 0.384615 -0.769231 0.316154
v 0.384615 -1.153846 0.315385
v 0.384615 -1.153846 0.316154
v 1.153846 -0.769231 0.316154
v 1.153846 -0.769231 0.315385
v 1.153846 -1.153846 0.316154
v 1.153846 -1.153846 0.315385
v 0.384615 -0.769231 -0.306923
v 1.153846 -0.769231 -0.306923
v 0.384615 -1.153846 -0.306923
v 1.153846 -1.153846 -0.306923
v 1.153846 -0.769231 -0.307692
v 0.384615 -0.769231 -0.307692
v 1.153846 -1.153846 -0.307692
v 0.384615 -1.153846 -0.307692
v 1.153846 -0.769231 -0.307692
v 1.153846 -0.769231 -0.306923
v 0.384615 -0.769231 -0.307692
v 0.384615 -0.769231 -0.306923
v 0.384615 -1.153846 -0.307692
v 0.384615 -1.153846 -0.306923
v 1.153846 -1.153846 -0.307692
v 1.153846 -1.153846 -0.306923
v 0.384615 -0.769231 -0.307692
v 0.384615 -0.769231 -0.306923
v 0.384615 -1.153846 -0.307692
v 0.384615 -1.153846 -0.306923
v 1.153846 -0.769231 -0.306923
v 1.153846 -0.769231 -0.307692
v 1.153846 -1.153846 -0.306923
v 1.153846 -1.153846 -0.307692
vn -0.0000 -0.0000 1.0000
vn -0.0000 -0.0000 -1.0000
vn -0.0000 1.0000 -0.0000
vn -0.0000 -1.0000 -0.0000
vn -1.0000 -0.0000 -0.0000
vn 1.0000 -0.0000 -0.0000
vt 0.875000 0.875000
vt 0.875000 0.812500
vt 1.000000 0.875000
vt 1.000000 0.812500
vt 0.250000 0.125000
vt 0.250000 0.062500
vt 0.375000 0.125000
vt 0.375000 0.062500
vt 0.000000 0.875000
vt 0.000000 1.000000
vt 0.000000 0.937500
vt 0.875000 1.000000
vt 0.875000 0.937500
vt 1.000000 1.000000
vt 1.000000 0.937500
vt 0.125000 0.125000
vt 0.125000 0.062500
s 0
usemtl Material_0
f 217/127/19 219/128/19 218/129/19
f 219/128/19 220/130/19 218/129/19
f 221/131/20 223/132/20 222/133/20
f 223/132/20 224/134/20 222/133/20
f 225/135/21 227/136/21 226/135/21
f 227/136/21 228/136/21 226/135/21
f 229/136/22 231/135/22 230/136/22
f 231/135/22 232/135/22 230/136/22
f 233/136/23 235/137/23 234/136/23
f 235/137/23 236/137/23 234/136/23
f 237/136/24 239/137/24 238/136/24
f 239/137/24 240/137/24 238/136/24
f 241/138/19 243/139/19 242/140/19
f 243/139/19 244/141/19 242/140/19
f 245/142/20 247/143/20 246/131/20
f 247/143/20 248/132/20 246/131/20
f 249/135/21 251/136/21 250/135/21
f 251/136/21 252/136/21 250/135/21
f 253/136/22 255/135/22 254/136/22
f 255/135/22 256/135/22 254/136/22
f 257/136/23 259/137/23 258/136/23
f 259/137/23 260/137/23 258/136/23
f 261/136/24 263/137/24 262/136/24
f 263/137/24 264/137/24 262/136/24
