# Blender 4.1.1
# www.blender.org
mtllib 545_shell.mtl
o shellModel
v -0.253676 -0.323842 -0.323842
v 1.159453 -0.323842 -0.323842
v -0.253676 0.323842 -0.323842
v 1.159453 0.323842 -0.323842
v 1.159453 -0.323842 0.323842
v -0.253676 -0.323842 0.323842
v 1.159453 0.323842 0.323842
v -0.253676 0.323842 0.323842
v 1.159453 -0.294402 -0.294402
v 1.807137 -0.294402 -0.294402
v 1.159453 0.294402 -0.294402
v 1.807137 0.294402 -0.294402
v 1.807137 -0.294402 0.294402
v 1.159453 -0.294402 0.294402
v 1.807137 0.294402 0.294402
v 1.159453 0.294402 0.294402
vn 1.0000 -0.0000 -0.0000
vn -0.0000 -0.0000 -1.0000
vn -1.0000 -0.0000 -0.0000
vn -0.0000 -0.0000 1.0000
vn -0.0000 -1.0000 -0.0000
vn -0.0000 1.0000 -0.0000
vt 0.375000 0.937500
vt 0.437500 0.937500
vt 0.437500 1.000000
vt 0.375000 1.000000
vt 0.000000 0.937500
vt 0.125000 0.937500
vt 0.125000 1.000000
vt 0.000000 1.000000
vt 0.125000 0.562500
vt 0.187500 0.562500
vt 0.187500 0.625000
vt 0.125000 0.625000
vt 0.000000 0.812500
vt 0.125000 0.812500
vt 0.125000 0.875000
vt 0.000000 0.875000
vt 0.187500 1.000000
vt 0.187500 0.875000
vt 0.187500 0.750000
vt 0.125000 0.750000
vt 0.000000 0.687500
vt 0.062500 0.687500
vt 0.062500 0.750000
vt 0.000000 0.750000
vt 0.250000 0.937500
vt 0.312500 0.937500
vt 0.312500 1.000000
vt 0.250000 1.000000
vt 0.125000 0.687500
vt 0.187500 0.687500
vt 0.250000 0.812500
vt 0.312500 0.812500
vt 0.312500 0.875000
vt 0.250000 0.875000
vt 0.312500 0.750000
vt 0.250000 0.750000
vt 0.250000 0.687500
vt 0.312500 0.687500
vt 0.062500 0.562500
vt 0.000000 0.562500
vt 0.000000 0.625000
vt 0.062500 0.625000
s 0
usemtl m_4ee03134-7672-dc65-818b-906aec9df6d5
f 4/1/1 7/2/1 5/3/1 2/4/1
f 3/5/2 4/6/2 2/7/2 1/8/2
f 8/9/3 3/10/3 1/11/3 6/12/3
f 7/13/4 8/14/4 6/15/4 5/16/4
f 6/17/5 1/7/5 2/15/5 5/18/5
f 7/19/6 4/20/6 3/15/6 8/18/6
f 12/21/1 15/22/1 13/23/1 10/24/1
f 11/25/2 12/26/2 10/27/2 9/28/2
f 16/29/3 11/30/3 9/19/3 14/20/3
f 15/31/4 16/32/4 14/33/4 13/34/4
f 14/35/5 9/36/5 10/37/5 13/38/5
f 15/39/6 12/40/6 11/41/6 16/42/6
