# Blender 4.5.2 LTS
# www.blender.org
mtllib lev.50bmg_shell.mtl
o shellModel
v 1.142916 0.345769 0.345769
v 1.834454 0.345769 0.345769
v 1.142916 -0.345769 0.345769
v 1.834454 -0.345769 0.345769
v 1.834454 0.345769 -0.345769
v 1.142916 0.345769 -0.345769
v 1.834454 -0.345769 -0.345769
v 1.142916 -0.345769 -0.345769
v 1.834454 0.345769 -0.345769
v 1.834454 0.345769 0.345769
v 1.142916 0.345769 -0.345769
v 1.142916 0.345769 0.345769
v 1.142916 -0.345769 -0.345769
v 1.142916 -0.345769 0.345769
v 1.834454 -0.345769 -0.345769
v 1.834454 -0.345769 0.345769
v 1.142916 0.345769 -0.345769
v 1.142916 0.345769 0.345769
v 1.142916 -0.345769 -0.345769
v 1.142916 -0.345769 0.345769
v 1.834454 0.345769 0.345769
v 1.834454 0.345769 -0.345769
v 1.834454 -0.345769 0.345769
v 1.834454 -0.345769 -0.345769
v -1.260178 0.414923 0.414923
v 1.160204 0.414923 0.414923
v -1.260178 -0.414923 0.414923
v 1.160204 -0.414923 0.414923
v 1.160204 0.414923 -0.414923
v -1.260178 0.414923 -0.414923
v 1.160204 -0.414923 -0.414923
v -1.260178 -0.414923 -0.414923
v 1.160204 0.414923 -0.414923
v 1.160204 0.414923 0.414923
v -1.260178 0.414923 -0.414923
v -1.260178 0.414923 0.414923
v -1.260178 -0.414923 -0.414923
v -1.260178 -0.414923 0.414923
v 1.160204 -0.414923 -0.414923
v 1.160204 -0.414923 0.414923
v -1.260178 0.414923 -0.414923
v -1.260178 0.414923 0.414923
v -1.260178 -0.414923 -0.414923
v -1.260178 -0.414923 0.414923
v 1.160204 0.414923 0.414923
v 1.160204 0.414923 -0.414923
v 1.160204 -0.414923 0.414923
v 1.160204 -0.414923 -0.414923
vn -0.0000 -0.0000 1.0000
vn -0.0000 -0.0000 -1.0000
vn -0.0000 1.0000 -0.0000
vn -0.0000 -1.0000 -0.0000
vn -1.0000 -0.0000 -0.0000
vn 1.0000 -0.0000 -0.0000
vt 0.375000 0.625000
vt 0.375000 0.500000
vt 0.500000 0.625000
vt 0.500000 0.500000
vt 0.500000 0.875000
vt 0.500000 0.750000
vt 0.625000 0.875000
vt 0.625000 0.750000
vt 0.375000 0.375000
vt 0.250000 0.375000
vt 0.250000 0.500000
vt 0.625000 0.625000
vt 0.500000 1.000000
vt 0.625000 1.000000
vt 0.375000 0.750000
vt 0.000000 1.000000
vt 0.000000 0.875000
vt 0.437500 1.000000
vt 0.437500 0.875000
vt 0.000000 0.750000
vt 0.437500 0.750000
vt 0.125000 0.312500
vt 0.125000 0.750000
vt 0.000000 0.312500
vt 0.250000 0.750000
vt 0.250000 0.312500
vt 0.250000 0.625000
s 0
usemtl Material_0.002
f 1/1/1 3/2/1 2/3/1
f 3/2/1 4/4/1 2/3/1
f 5/5/2 7/6/2 6/7/2
f 7/6/2 8/8/2 6/7/2
f 9/9/3 11/2/3 10/10/3
f 11/2/3 12/11/3 10/10/3
f 13/8/4 15/12/4 14/6/4
f 15/12/4 16/3/4 14/6/4
f 17/13/5 19/5/5 18/14/5
f 19/5/5 20/7/5 18/14/5
f 21/15/6 23/1/6 22/6/6
f 23/1/6 24/3/6 22/6/6
f 25/16/1 27/17/1 26/18/1
f 27/17/1 28/19/1 26/18/1
f 29/17/2 31/20/2 30/19/2
f 31/20/2 32/21/2 30/19/2
f 33/22/3 35/23/3 34/24/3
f 35/23/3 36/20/3 34/24/3
f 37/25/4 39/26/4 38/23/4
f 39/26/4 40/22/4 38/23/4
f 41/27/5 43/11/5 42/1/5
f 43/11/5 44/2/5 42/1/5
f 45/25/6 47/27/6 46/15/6
f 47/27/6 48/1/6 46/15/6
