# Blender 4.2.3 LTS
# www.blender.org
mtllib lev.12g_shell.mtl
o shellModel
v 1.115385 0.346154 -0.346154
v -1.115384 0.346154 -0.346154
v 1.115385 -0.346154 -0.346154
v -1.115384 -0.346154 -0.346154
v -1.115385 0.346154 0.346154
v 1.115384 0.346154 0.346154
v -1.115385 -0.346154 0.346154
v 1.115384 -0.346154 0.346154
v -1.115385 0.346154 0.346154
v -1.115384 0.346154 -0.346154
v 1.115384 0.346154 0.346154
v 1.115385 0.346154 -0.346154
v 1.115384 -0.346154 0.346154
v 1.115385 -0.346154 -0.346154
v -1.115385 -0.346154 0.346154
v -1.115384 -0.346154 -0.346154
v 1.115384 0.346154 0.346154
v 1.115385 0.346154 -0.346154
v 1.115384 -0.346154 0.346154
v 1.115385 -0.346154 -0.346154
v -1.115384 0.346154 -0.346154
v -1.115385 0.346154 0.346154
v -1.115384 -0.346154 -0.346154
v -1.115385 -0.346154 0.346154
vn -0.0000 -0.0000 -1.0000
vn -0.0000 -0.0000 1.0000
vn -0.0000 1.0000 -0.0000
vn -0.0000 -1.0000 -0.0000
vn 1.0000 -0.0000 -0.0000
vn -1.0000 -0.0000 -0.0000
vt 0.687500 0.281250
vt 0.687500 0.250000
vt 0.781250 0.281250
vt 0.781250 0.250000
vt 0.250000 0.250000
vt 0.250000 0.218750
vt 0.343750 0.250000
vt 0.343750 0.218750
vt 0.093750 0.156250
vt 0.093750 0.250000
vt 0.062500 0.156250
vt 0.062500 0.250000
vt 0.125000 0.250000
vt 0.125000 0.156250
vt 0.812500 0.343750
vt 0.812500 0.312500
vt 0.843750 0.343750
vt 0.843750 0.312500
vt 0.656250 0.187500
vt 0.656250 0.156250
vt 0.687500 0.187500
vt 0.687500 0.156250
s 0
usemtl Material_0
f 1/1/1 3/2/1 2/3/1
f 3/2/1 4/4/1 2/3/1
f 5/5/2 7/6/2 6/7/2
f 7/6/2 8/8/2 6/7/2
f 9/9/3 11/10/3 10/11/3
f 11/10/3 12/12/3 10/11/3
f 13/13/4 15/14/4 14/10/4
f 15/14/4 16/9/4 14/10/4
f 17/15/5 19/16/5 18/17/5
f 19/16/5 20/18/5 18/17/5
f 21/19/6 23/20/6 22/21/6
f 23/20/6 24/22/6 22/21/6
