# Blender 4.2.0
# www.blender.org
mtllib lev.76254_shell.mtl
o shellModel
v -0.281879 0.473308 0.371875
v 1.030621 0.473308 0.371875
v -0.281879 -0.270442 0.371875
v 1.030621 -0.270442 0.371875
v 1.030620 0.473308 -0.371875
v -0.281880 0.473308 -0.371875
v 1.030620 -0.270442 -0.371875
v -0.281880 -0.270442 -0.371875
v 1.030620 0.473308 -0.371875
v 1.030621 0.473308 0.371875
v -0.281880 0.473308 -0.371875
v -0.281879 0.473308 0.371875
v -0.281880 -0.270442 -0.371875
v -0.281879 -0.270442 0.371875
v 1.030620 -0.270442 -0.371875
v 1.030621 -0.270442 0.371875
v -0.281880 0.473308 -0.371875
v -0.281879 0.473308 0.371875
v -0.281880 -0.270442 -0.371875
v -0.281879 -0.270442 0.371875
v 1.030621 0.473308 0.371875
v 1.030620 0.473308 -0.371875
v 1.030621 -0.270442 0.371875
v 1.030620 -0.270442 -0.371875
v 0.811871 0.429558 0.328125
v 1.686870 0.429558 0.328125
v 0.811871 -0.226692 0.328125
v 1.686870 -0.226692 0.328125
v 1.686870 0.429558 -0.328125
v 0.811870 0.429558 -0.328125
v 1.686870 -0.226692 -0.328125
v 0.811870 -0.226692 -0.328125
v 1.686870 0.429558 -0.328125
v 1.686870 0.429558 0.328125
v 0.811870 0.429558 -0.328125
v 0.811871 0.429558 0.328125
v 0.811870 -0.226692 -0.328125
v 0.811871 -0.226692 0.328125
v 1.686870 -0.226692 -0.328125
v 1.686870 -0.226692 0.328125
v 0.811870 0.429558 -0.328125
v 0.811871 0.429558 0.328125
v 0.811870 -0.226692 -0.328125
v 0.811871 -0.226692 0.328125
v 1.686870 0.429558 0.328125
v 1.686870 0.429558 -0.328125
v 1.686870 -0.226692 0.328125
v 1.686870 -0.226692 -0.328125
vn -0.0000 -0.0000 1.0000
vn -0.0000 -0.0000 -1.0000
vn -0.0000 1.0000 -0.0000
vn -0.0000 -1.0000 -0.0000
vn -1.0000 -0.0000 -0.0000
vn 1.0000 -0.0000 -0.0000
vt 0.000000 1.000000
vt 0.000000 0.875000
vt 0.187500 1.000000
vt 0.187500 0.875000
vt 0.000000 0.750000
vt 0.187500 0.750000
vt 0.125000 0.562500
vt 0.125000 0.750000
vt 0.000000 0.562500
vt 0.375000 1.000000
vt 0.375000 0.812500
vt 0.250000 1.000000
vt 0.250000 0.812500
vt 0.375000 0.625000
vt 0.375000 0.500000
vt 0.500000 0.625000
vt 0.500000 0.500000
vt 0.375000 0.750000
vt 0.500000 0.750000
vt 0.250000 0.750000
vt 0.250000 0.625000
vt 0.125000 0.625000
vt 0.125000 0.500000
vt 0.250000 0.500000
vt 0.500000 0.875000
vt 0.375000 0.875000
vt 0.500000 1.000000
s 0
usemtl Material_0
f 1/1/1 3/2/1 2/3/1
f 3/2/1 4/4/1 2/3/1
f 5/2/2 7/5/2 6/4/2
f 7/5/2 8/6/2 6/4/2
f 9/7/3 11/8/3 10/9/3
f 11/8/3 12/5/3 10/9/3
f 13/10/4 15/11/4 14/12/4
f 15/11/4 16/13/4 14/12/4
f 17/14/5 19/15/5 18/16/5
f 19/15/5 20/17/5 18/16/5
f 21/18/6 23/14/6 22/19/6
f 23/14/6 24/16/6 22/19/6
f 25/20/1 27/21/1 26/18/1
f 27/21/1 28/14/1 26/18/1
f 29/22/2 31/23/2 30/21/2
f 31/23/2 32/24/2 30/21/2
f 33/19/3 35/25/3 34/18/3
f 35/25/3 36/26/3 34/18/3
f 37/14/4 39/15/4 38/21/4
f 39/15/4 40/24/4 38/21/4
f 41/10/5 43/26/5 42/27/5
f 43/26/5 44/25/5 42/27/5
f 45/8/6 47/22/6 46/20/6
f 47/22/6 48/21/6 46/20/6
