# Blender 4.3.2
# www.blender.org
mtllib lev.pernachstock.mtl
o attachmentModel
v -0.000769 1.153846 0.576923
v 0.000000 1.153846 0.576923
v -0.000769 -0.384615 0.576923
v 0.000000 -0.384615 0.576923
v -0.000000 1.153846 -0.576923
v -0.000769 1.153846 -0.576923
v -0.000000 -0.384615 -0.576923
v -0.000769 -0.384615 -0.576923
v -0.000000 1.153846 -0.576923
v 0.000000 1.153846 0.576923
v -0.000769 1.153846 -0.576923
v -0.000769 1.153846 0.576923
v -0.000769 -0.384615 -0.576923
v -0.000769 -0.384615 0.576923
v -0.000000 -0.384615 -0.576923
v 0.000000 -0.384615 0.576923
v -0.000769 1.153846 -0.576923
v -0.000769 1.153846 0.576923
v -0.000769 -0.384615 -0.576923
v -0.000769 -0.384615 0.576923
v 0.000000 1.153846 0.576923
v -0.000000 1.153846 -0.576923
v 0.000000 -0.384615 0.576923
v -0.000000 -0.384615 -0.576923
v -4.615384 1.538462 -0.576153
v -0.000000 1.538462 -0.576154
v -4.615384 -0.384615 -0.576153
v -0.000000 -0.384615 -0.576154
v -0.000000 1.538462 -0.576923
v -4.615384 1.538462 -0.576922
v -0.000000 -0.384615 -0.576923
v -4.615384 -0.384615 -0.576922
v -0.000000 1.538462 -0.576923
v -0.000000 1.538462 -0.576154
v -4.615384 1.538462 -0.576922
v -4.615384 1.538462 -0.576153
v -4.615384 -0.384615 -0.576922
v -4.615384 -0.384615 -0.576153
v -0.000000 -0.384615 -0.576923
v -0.000000 -0.384615 -0.576154
v -4.615384 1.538462 -0.576922
v -4.615384 1.538462 -0.576153
v -4.615384 -0.384615 -0.576922
v -4.615384 -0.384615 -0.576153
v -0.000000 1.538462 -0.576154
v -0.000000 1.538462 -0.576923
v -0.000000 -0.384615 -0.576154
v -0.000000 -0.384615 -0.576923
v -4.615384 1.538462 0.577693
v 0.000000 1.538462 0.577692
v -4.615384 -0.384615 0.577693
v 0.000000 -0.384615 0.577692
v 0.000000 1.538462 0.576923
v -4.615384 1.538462 0.576924
v 0.000000 -0.384615 0.576923
v -4.615384 -0.384615 0.576924
v 0.000000 1.538462 0.576923
v 0.000000 1.538462 0.577692
v -4.615384 1.538462 0.576924
v -4.615384 1.538462 0.577693
v -4.615384 -0.384615 0.576924
v -4.615384 -0.384615 0.577693
v 0.000000 -0.384615 0.576923
v 0.000000 -0.384615 0.577692
v -4.615384 1.538462 0.576924
v -4.615384 1.538462 0.577693
v -4.615384 -0.384615 0.576924
v -4.615384 -0.384615 0.577693
v 0.000000 1.538462 0.577692
v 0.000000 1.538462 0.576923
v 0.000000 -0.384615 0.577692
v 0.000000 -0.384615 0.576923
v -8.461537 2.692308 -0.576921
v -3.846153 2.692308 -0.576922
v -8.461537 0.000000 -0.576921
v -3.846153 0.000000 -0.576922
v -3.846153 2.692308 -0.577691
v -8.461537 2.692308 -0.577690
v -3.846153 0.000000 -0.577691
v -8.461537 0.000000 -0.577690
v -3.846153 2.692308 -0.577691
v -3.846153 2.692308 -0.576922
v -8.461537 2.692308 -0.577690
v -8.461537 2.692308 -0.576921
v -8.461537 0.000000 -0.577690
v -8.461537 0.000000 -0.576921
v -3.846153 0.000000 -0.577691
v -3.846153 0.000000 -0.576922
v -8.461537 2.692308 -0.577690
v -8.461537 2.692308 -0.576921
v -8.461537 0.000000 -0.577690
v -8.461537 0.000000 -0.576921
v -3.846153 2.692308 -0.576922
v -3.846153 2.692308 -0.577691
v -3.846153 0.000000 -0.576922
v -3.846153 0.000000 -0.577691
v -8.461537 2.692308 0.578463
v -3.846153 2.692308 0.578462
v -8.461537 0.000000 0.578463
v -3.846153 0.000000 0.578462
v -3.846153 2.692308 0.577693
v -8.461537 2.692308 0.577694
v -3.846153 0.000000 0.577693
v -8.461537 0.000000 0.577694
v -3.846153 2.692308 0.577693
v -3.846153 2.692308 0.578462
v -8.461537 2.692308 0.577694
v -8.461537 2.692308 0.578463
v -8.461537 0.000000 0.577694
v -8.461537 0.000000 0.578463
v -3.846153 0.000000 0.577693
v -3.846153 0.000000 0.578462
v -8.461537 2.692308 0.577694
v -8.461537 2.692308 0.578463
v -8.461537 0.000000 0.577694
v -8.461537 0.000000 0.578463
v -3.846153 2.692308 0.578462
v -3.846153 2.692308 0.577693
v -3.846153 0.000000 0.578462
v -3.846153 0.000000 0.577693
v -8.462306 2.692308 0.576925
v -8.461537 2.692308 0.576925
v -8.462306 0.000000 0.576925
v -8.461537 0.000000 0.576925
v -8.461537 2.692308 -0.576921
v -8.462306 2.692308 -0.576921
v -8.461537 0.000000 -0.576921
v -8.462306 0.000000 -0.576921
v -8.461537 2.692308 -0.576921
v -8.461537 2.692308 0.576925
v -8.462306 2.692308 -0.576921
v -8.462306 2.692308 0.576925
v -8.462306 0.000000 -0.576921
v -8.462306 0.000000 0.576925
v -8.461537 0.000000 -0.576921
v -8.461537 0.000000 0.576925
v -8.462306 2.692308 -0.576921
v -8.462306 2.692308 0.576925
v -8.462306 0.000000 -0.576921
v -8.462306 0.000000 0.576925
v -8.461537 2.692308 0.576925
v -8.461537 2.692308 -0.576921
v -8.461537 0.000000 0.576925
v -8.461537 0.000000 -0.576921
v 0.000000 1.153846 0.384615
v 0.384615 1.153846 0.384615
v 0.000000 0.384615 0.384615
v 0.384615 0.384615 0.384615
v 0.384615 1.153846 -0.384615
v -0.000000 1.153846 -0.384615
v 0.384615 0.384615 -0.384615
v -0.000000 0.384615 -0.384615
v 0.384615 1.153846 -0.384615
v 0.384615 1.153846 0.384615
v -0.000000 1.153846 -0.384615
v 0.000000 1.153846 0.384615
v -0.000000 0.384615 -0.384615
v 0.000000 0.384615 0.384615
v 0.384615 0.384615 -0.384615
v 0.384615 0.384615 0.384615
v -0.000000 1.153846 -0.384615
v 0.000000 1.153846 0.384615
v -0.000000 0.384615 -0.384615
v 0.000000 0.384615 0.384615
v 0.384615 1.153846 0.384615
v 0.384615 1.153846 -0.384615
v 0.384615 0.384615 0.384615
v 0.384615 0.384615 -0.384615
vn -0.0000 -0.0000 1.0000
vn -0.0000 -0.0000 -1.0000
vn -0.0000 1.0000 -0.0000
vn -0.0000 -1.0000 -0.0000
vn -1.0000 -0.0000 -0.0000
vn 1.0000 -0.0000 -0.0000
vt 0.000000 1.000000
vt 0.000000 0.875000
vt 0.093750 1.000000
vt 0.250000 0.375000
vt 0.250000 0.250000
vt 0.343750 0.375000
vt 0.343750 0.250000
vt 0.250000 0.500000
vt 0.343750 0.500000
vt 0.375000 0.750000
vt 0.375000 0.593750
vt 0.750000 0.750000
vt 0.750000 0.593750
vt 0.375000 0.562500
vt 0.375000 0.406250
vt 0.750000 0.562500
vt 0.750000 0.406250
vt 0.000000 0.625000
vt 0.000000 0.843750
vt 0.000000 0.781250
vt 0.375000 1.000000
vt 0.375000 0.781250
vt 0.000000 0.750000
vt 0.000000 0.531250
vt 0.375000 0.531250
vt 0.750000 1.000000
vt 0.750000 0.781250
vt 0.125000 0.500000
vt 0.125000 0.281250
vt 0.218750 0.500000
vt 0.218750 0.281250
vt 0.000000 0.500000
vt 0.000000 0.281250
vt 0.093750 0.500000
vt 0.093750 0.281250
vt 0.000000 0.062500
vt 0.000000 0.000000
vt 0.031250 0.062500
vt 0.031250 0.000000
vt 0.062500 0.062500
vt 0.062500 0.000000
vt 0.062500 0.031250
vt 0.000000 0.031250
s 0
usemtl Material_0.001
f 1/1/1 3/2/1 2/1/1
f 3/2/1 4/2/1 2/1/1
f 5/1/2 7/2/2 6/1/2
f 7/2/2 8/2/2 6/1/2
f 9/3/3 11/3/3 10/1/3
f 11/3/3 12/1/3 10/1/3
f 13/3/4 15/3/4 14/1/4
f 15/3/4 16/1/4 14/1/4
f 17/4/5 19/5/5 18/6/5
f 19/5/5 20/7/5 18/6/5
f 21/8/6 23/4/6 22/9/6
f 23/4/6 24/6/6 22/9/6
f 25/10/1 27/11/1 26/12/1
f 27/11/1 28/13/1 26/12/1
f 29/14/2 31/15/2 30/16/2
f 31/15/2 32/17/2 30/16/2
f 33/18/3 35/1/3 34/18/3
f 35/1/3 36/1/3 34/18/3
f 37/1/4 39/18/4 38/1/4
f 39/18/4 40/18/4 38/1/4
f 41/1/5 43/19/5 42/1/5
f 43/19/5 44/19/5 42/1/5
f 45/1/6 47/19/6 46/1/6
f 47/19/6 48/19/6 46/1/6
f 49/10/1 51/11/1 50/12/1
f 51/11/1 52/13/1 50/12/1
f 53/14/2 55/15/2 54/16/2
f 55/15/2 56/17/2 54/16/2
f 57/18/3 59/1/3 58/18/3
f 59/1/3 60/1/3 58/18/3
f 61/1/4 63/18/4 62/1/4
f 63/18/4 64/18/4 62/1/4
f 65/1/5 67/19/5 66/1/5
f 67/19/5 68/19/5 66/1/5
f 69/1/6 71/19/6 70/1/6
f 71/19/6 72/19/6 70/1/6
f 73/1/1 75/20/1 74/21/1
f 75/20/1 76/22/1 74/21/1
f 77/23/2 79/24/2 78/10/2
f 79/24/2 80/25/2 78/10/2
f 81/18/3 83/1/3 82/18/3
f 83/1/3 84/1/3 82/18/3
f 85/1/4 87/18/4 86/1/4
f 87/18/4 88/18/4 86/1/4
f 89/1/5 91/20/5 90/1/5
f 91/20/5 92/20/5 90/1/5
f 93/1/6 95/20/6 94/1/6
f 95/20/6 96/20/6 94/1/6
f 97/1/1 99/20/1 98/21/1
f 99/20/1 100/22/1 98/21/1
f 101/21/2 103/22/2 102/26/2
f 103/22/2 104/27/2 102/26/2
f 105/18/3 107/1/3 106/18/3
f 107/1/3 108/1/3 106/18/3
f 109/1/4 111/18/4 110/1/4
f 111/18/4 112/18/4 110/1/4
f 113/1/5 115/20/5 114/1/5
f 115/20/5 116/20/5 114/1/5
f 117/1/6 119/20/6 118/1/6
f 119/20/6 120/20/6 118/1/6
f 121/1/1 123/20/1 122/1/1
f 123/20/1 124/20/1 122/1/1
f 125/1/2 127/20/2 126/1/2
f 127/20/2 128/20/2 126/1/2
f 129/3/3 131/3/3 130/1/3
f 131/3/3 132/1/3 130/1/3
f 133/3/4 135/3/4 134/1/4
f 135/3/4 136/1/4 134/1/4
f 137/28/5 139/29/5 138/30/5
f 139/29/5 140/31/5 138/30/5
f 141/32/6 143/33/6 142/34/6
f 143/33/6 144/35/6 142/34/6
f 145/36/1 147/37/1 146/38/1
f 147/37/1 148/39/1 146/38/1
f 149/38/2 151/39/2 150/40/2
f 151/39/2 152/41/2 150/40/2
f 153/40/3 155/42/3 154/36/3
f 155/42/3 156/43/3 154/36/3
f 157/43/4 159/37/4 158/42/4
f 159/37/4 160/41/4 158/42/4
f 161/36/5 163/37/5 162/40/5
f 163/37/5 164/41/5 162/40/5
f 165/36/6 167/37/6 166/40/6
f 167/37/6 168/41/6 166/40/6
