# Blender 5.0.1
# www.blender.org
mtllib lev.6p69stock.mtl
o attachmentModel
v 0.576923 0.576923 3.846154
v 0.576923 0.576923 0.769231
v 0.576923 -0.576923 3.846154
v 0.576923 -0.576923 0.769231
v -0.576923 0.576923 0.769231
v -0.576923 0.576923 3.846154
v -0.576923 -0.576923 0.769231
v -0.576923 -0.576923 3.846154
v -0.576923 0.576923 0.769231
v 0.576923 0.576923 0.769231
v -0.576923 0.576923 3.846154
v 0.576923 0.576923 3.846154
v -0.576923 -0.576923 3.846154
v 0.576923 -0.576923 3.846154
v -0.576923 -0.576923 0.769231
v 0.576923 -0.576923 0.769231
v -0.576923 0.576923 3.846154
v 0.576923 0.576923 3.846154
v -0.576923 -0.576923 3.846154
v 0.576923 -0.576923 3.846154
v 0.576923 0.576923 0.769231
v -0.576923 0.576923 0.769231
v 0.576923 -0.576923 0.769231
v -0.576923 -0.576923 0.769231
v 0.543928 -0.000000 0.769231
v 0.543928 -0.000000 0.000000
v -0.000000 -0.543928 0.769231
v -0.000000 -0.543928 0.000000
v 0.000000 0.543928 0.000000
v 0.000000 0.543928 0.769231
v -0.543928 0.000000 0.000000
v -0.543928 0.000000 0.769231
v 0.000000 0.543928 0.000000
v 0.543928 -0.000000 0.000000
v 0.000000 0.543928 0.769231
v 0.543928 -0.000000 0.769231
v -0.543928 0.000000 0.769231
v -0.000000 -0.543928 0.769231
v -0.543928 0.000000 0.000000
v -0.000000 -0.543928 0.000000
v 0.000000 0.543928 0.769231
v 0.543928 -0.000000 0.769231
v -0.543928 0.000000 0.769231
v -0.000000 -0.543928 0.769231
v 0.543928 -0.000000 0.000000
v 0.000000 0.543928 0.000000
v -0.000000 -0.543928 0.000000
v -0.543928 0.000000 0.000000
v 0.576923 1.346154 3.846154
v 0.576923 1.346154 1.538462
v 0.576923 0.576923 3.846154
v 0.576923 0.576923 1.538462
v -0.576923 1.346154 1.538462
v -0.576923 1.346154 3.846154
v -0.576923 0.576923 1.538462
v -0.576923 0.576923 3.846154
v -0.576923 1.346154 1.538462
v 0.576923 1.346154 1.538462
v -0.576923 1.346154 3.846154
v 0.576923 1.346154 3.846154
v -0.576923 0.576923 3.846154
v 0.576923 0.576923 3.846154
v -0.576923 0.576923 1.538462
v 0.576923 0.576923 1.538462
v -0.576923 1.346154 3.846154
v 0.576923 1.346154 3.846154
v -0.576923 0.576923 3.846154
v 0.576923 0.576923 3.846154
v 0.576923 1.346154 1.538462
v -0.576923 1.346154 1.538462
v 0.576923 0.576923 1.538462
v -0.576923 0.576923 1.538462
v 0.570000 1.890081 5.928545
v 0.570000 2.434010 5.384616
v 0.570000 0.802225 4.840688
v 0.570000 1.346153 4.296760
v -0.576154 2.434010 5.384616
v -0.576154 1.890081 5.928545
v -0.576154 1.346153 4.296760
v -0.576154 0.802225 4.840688
v -0.576154 2.434010 5.384616
v 0.570000 2.434010 5.384616
v -0.576154 1.890081 5.928545
v 0.570000 1.890081 5.928545
v -0.576154 0.802225 4.840688
v 0.570000 0.802225 4.840688
v -0.576154 1.346153 4.296760
v 0.570000 1.346153 4.296760
v -0.576154 1.890081 5.928545
v 0.570000 1.890081 5.928545
v -0.576154 0.802225 4.840688
v 0.570000 0.802225 4.840688
v 0.570000 2.434010 5.384616
v -0.576154 2.434010 5.384616
v 0.570000 1.346153 4.296760
v -0.576154 1.346153 4.296760
v 0.576923 1.346154 5.384615
v 0.576923 1.346154 3.846154
v 0.576923 -0.576923 5.384615
v 0.576923 -0.576923 3.846154
v -0.576923 1.346154 3.846154
v -0.576923 1.346154 5.384615
v -0.576923 -0.576923 3.846154
v -0.576923 -0.576923 5.384615
v -0.576923 1.346154 3.846154
v 0.576923 1.346154 3.846154
v -0.576923 1.346154 5.384615
v 0.576923 1.346154 5.384615
v -0.576923 -0.576923 5.384615
v 0.576923 -0.576923 5.384615
v -0.576923 -0.576923 3.846154
v 0.576923 -0.576923 3.846154
v -0.576923 1.346154 5.384615
v 0.576923 1.346154 5.384615
v -0.576923 -0.576923 5.384615
v 0.576923 -0.576923 5.384615
v 0.576923 1.346154 3.846154
v -0.576923 1.346154 3.846154
v 0.576923 -0.576923 3.846154
v -0.576923 -0.576923 3.846154
v 0.384615 -0.576923 5.384615
v 0.384615 -0.576923 3.846154
v 0.384615 -2.115385 5.384615
v 0.384615 -2.115385 3.846154
v -0.384615 -0.576923 3.846154
v -0.384615 -0.576923 5.384615
v -0.384615 -2.115385 3.846154
v -0.384615 -2.115385 5.384615
v -0.384615 -0.576923 3.846154
v 0.384615 -0.576923 3.846154
v -0.384615 -0.576923 5.384615
v 0.384615 -0.576923 5.384615
v -0.384615 -2.115385 5.384615
v 0.384615 -2.115385 5.384615
v -0.384615 -2.115385 3.846154
v 0.384615 -2.115385 3.846154
v -0.384615 -0.576923 5.384615
v 0.384615 -0.576923 5.384615
v -0.384615 -2.115385 5.384615
v 0.384615 -2.115385 5.384615
v 0.384615 -0.576923 3.846154
v -0.384615 -0.576923 3.846154
v 0.384615 -2.115385 3.846154
v -0.384615 -2.115385 3.846154
v 0.570000 0.802225 2.082390
v 0.570000 1.346154 1.538462
v 0.570000 0.032997 1.313161
v 0.570000 0.576925 0.769233
v -0.576154 1.346154 1.538462
v -0.576154 0.802225 2.082390
v -0.576154 0.576925 0.769233
v -0.576154 0.032997 1.313161
v -0.576154 1.346154 1.538462
v 0.570000 1.346154 1.538462
v -0.576154 0.802225 2.082390
v 0.570000 0.802225 2.082390
v -0.576154 0.032997 1.313161
v 0.570000 0.032997 1.313161
v -0.576154 0.576925 0.769233
v 0.570000 0.576925 0.769233
v -0.576154 0.802225 2.082390
v 0.570000 0.802225 2.082390
v -0.576154 0.032997 1.313161
v 0.570000 0.032997 1.313161
v 0.570000 1.346154 1.538462
v -0.576154 1.346154 1.538462
v 0.570000 0.576925 0.769233
v -0.576154 0.576925 0.769233
vn 1.0000 -0.0000 -0.0000
vn -1.0000 -0.0000 -0.0000
vn -0.0000 1.0000 -0.0000
vn -0.0000 -1.0000 -0.0000
vn -0.0000 -0.0000 1.0000
vn -0.0000 -0.0000 -1.0000
vn 0.7071 -0.7071 -0.0000
vn -0.7071 0.7071 -0.0000
vn 0.7071 0.7071 -0.0000
vn -0.7071 -0.7071 -0.0000
vn -0.0000 0.7071 0.7071
vn -0.0000 -0.7071 -0.7071
vn -0.0000 -0.7071 0.7071
vn -0.0000 0.7071 -0.7071
vt 0.000000 1.000000
vt 0.000000 0.906250
vt 0.250000 1.000000
vt 0.250000 0.906250
vt 0.000000 0.875000
vt 0.000000 0.781250
vt 0.250000 0.875000
vt 0.250000 0.781250
vt 0.093750 0.500000
vt 0.093750 0.750000
vt 0.000000 0.500000
vt 0.000000 0.750000
vt 0.343750 1.000000
vt 0.343750 0.750000
vt 0.250000 0.750000
vt 0.125000 0.437500
vt 0.125000 0.343750
vt 0.218750 0.437500
vt 0.218750 0.343750
vt 0.500000 0.500000
vt 0.500000 0.406250
vt 0.593750 0.500000
vt 0.593750 0.406250
vt 0.687500 0.562500
vt 0.687500 0.500000
vt 0.750000 0.562500
vt 0.750000 0.500000
vt 0.562500 0.312500
vt 0.562500 0.250000
vt 0.625000 0.312500
vt 0.625000 0.250000
vt 0.750000 0.375000
vt 0.750000 0.437500
vt 0.687500 0.375000
vt 0.687500 0.437500
vt 0.687500 0.312500
vt 0.687500 0.250000
vt 0.687500 0.625000
vt 0.750000 0.625000
vt 0.500000 1.000000
vt 0.500000 0.937500
vt 0.687500 1.000000
vt 0.687500 0.937500
vt 0.500000 0.875000
vt 0.687500 0.875000
vt 0.468750 0.812500
vt 0.468750 1.000000
vt 0.375000 0.812500
vt 0.375000 1.000000
vt 0.468750 0.625000
vt 0.375000 0.625000
vt 0.000000 0.312500
vt 0.000000 0.250000
vt 0.093750 0.312500
vt 0.093750 0.250000
vt 0.562500 0.375000
vt 0.656250 0.375000
vt 0.656250 0.312500
vt 0.625000 0.750000
vt 0.625000 0.625000
vt 0.687500 0.750000
vt 0.375000 0.375000
vt 0.375000 0.250000
vt 0.437500 0.375000
vt 0.437500 0.250000
vt 0.781250 0.937500
vt 0.781250 1.000000
vt 0.781250 0.875000
vt 0.500000 0.750000
vt 0.500000 0.625000
vt 0.593750 0.750000
vt 0.593750 0.625000
vt 0.593750 0.875000
vt 0.125000 0.750000
vt 0.125000 0.593750
vt 0.250000 0.593750
vt 0.375000 0.750000
vt 0.375000 0.593750
vt 0.468750 0.375000
vt 0.468750 0.500000
vt 0.375000 0.500000
vt 0.000000 0.343750
vt 0.093750 0.343750
vt 0.250000 0.562500
vt 0.250000 0.406250
vt 0.343750 0.562500
vt 0.343750 0.406250
vt 0.125000 0.562500
vt 0.250000 0.437500
vt 0.500000 0.250000
vt 0.500000 0.375000
vt 0.625000 0.500000
vt 0.625000 0.375000
vt 0.125000 0.312500
vt 0.125000 0.218750
vt 0.187500 0.312500
vt 0.187500 0.218750
vt 0.250000 0.312500
vt 0.250000 0.218750
vt 0.781250 0.687500
vt 0.781250 0.750000
vt 0.687500 0.687500
vt 0.781250 0.625000
vt 0.250000 0.375000
vt 0.250000 0.281250
vt 0.343750 0.375000
vt 0.343750 0.281250
vt 0.625000 0.875000
vt 0.625000 0.781250
vt 0.718750 0.875000
vt 0.718750 0.781250
s 0
usemtl Material_0.001
f 1/1/1 3/2/1 2/3/1
f 3/2/1 4/4/1 2/3/1
f 5/5/2 7/6/2 6/7/2
f 7/6/2 8/8/2 6/7/2
f 9/9/3 11/10/3 10/11/3
f 11/10/3 12/12/3 10/11/3
f 13/13/4 15/14/4 14/3/4
f 15/14/4 16/15/4 14/3/4
f 17/16/5 19/17/5 18/18/5
f 19/17/5 20/19/5 18/18/5
f 21/20/6 23/21/6 22/22/6
f 23/21/6 24/23/6 22/22/6
f 25/24/7 27/25/7 26/26/7
f 27/25/7 28/27/7 26/26/7
f 29/28/8 31/29/8 30/30/8
f 31/29/8 32/31/8 30/30/8
f 33/32/9 35/33/9 34/34/9
f 35/33/9 36/35/9 34/34/9
f 37/36/10 39/37/10 38/30/10
f 39/37/10 40/31/10 38/30/10
f 41/25/5 43/35/5 42/27/5
f 43/35/5 44/33/5 42/27/5
f 45/38/6 47/24/6 46/39/6
f 47/24/6 48/26/6 46/39/6
f 49/40/1 51/41/1 50/42/1
f 51/41/1 52/43/1 50/42/1
f 53/41/2 55/44/2 54/43/2
f 55/44/2 56/45/2 54/43/2
f 57/46/3 59/47/3 58/48/3
f 59/47/3 60/49/3 58/48/3
f 61/46/4 63/50/4 62/48/4
f 63/50/4 64/51/4 62/48/4
f 65/52/5 67/53/5 66/54/5
f 67/53/5 68/55/5 66/54/5
f 69/56/6 71/28/6 70/57/6
f 71/28/6 72/58/6 70/57/6
f 73/59/1 75/60/1 74/61/1
f 75/60/1 76/38/1 74/61/1
f 77/62/2 79/63/2 78/64/2
f 79/63/2 80/65/2 78/64/2
f 81/66/11 83/67/11 82/43/11
f 83/67/11 84/42/11 82/43/11
f 85/66/12 87/68/12 86/43/12
f 87/68/12 88/45/12 86/43/12
f 89/69/13 91/70/13 90/71/13
f 91/70/13 92/72/13 90/71/13
f 93/44/14 95/69/14 94/73/14
f 95/69/14 96/71/14 94/73/14
f 97/74/1 99/75/1 98/15/1
f 99/75/1 100/76/1 98/15/1
f 101/15/2 103/76/2 102/77/2
f 103/76/2 104/78/2 102/77/2
f 105/79/3 107/80/3 106/62/3
f 107/80/3 108/81/3 106/62/3
f 109/72/4 111/22/4 110/70/4
f 111/22/4 112/20/4 110/70/4
f 113/11/5 115/82/5 114/9/5
f 115/82/5 116/83/5 114/9/5
f 117/84/6 119/85/6 118/86/6
f 119/85/6 120/87/6 118/86/6
f 121/51/1 123/81/1 122/70/1
f 123/81/1 124/20/1 122/70/1
f 125/88/2 127/16/2 126/84/2
f 127/16/2 128/89/2 126/84/2
f 129/29/3 131/56/3 130/90/3
f 131/56/3 132/91/3 130/90/3
f 133/25/4 135/34/4 134/92/4
f 135/34/4 136/93/4 134/92/4
f 137/64/5 139/65/5 138/91/5
f 139/65/5 140/90/5 138/91/5
f 141/60/6 143/92/6 142/38/6
f 143/92/6 144/25/6 142/38/6
f 145/94/1 147/95/1 146/96/1
f 147/95/1 148/97/1 146/96/1
f 149/96/2 151/97/2 150/98/2
f 151/97/2 152/99/2 150/98/2
f 153/100/11 155/101/11 154/102/11
f 155/101/11 156/61/11 154/102/11
f 157/100/12 159/103/12 158/102/12
f 159/103/12 160/38/12 158/102/12
f 161/104/13 163/105/13 162/106/13
f 163/105/13 164/107/13 162/106/13
f 165/108/14 167/109/14 166/110/14
f 167/109/14 168/111/14 166/110/14
