# Blender 4.4.3
# www.blender.org
mtllib lev.scarstock.mtl
o attachmentModel
v 0.576923 0.192308 5.000000
v 0.576923 0.192308 3.461539
v 0.576923 -1.346154 5.000000
v 0.576923 -1.346154 3.461539
v -0.576923 0.192308 3.461539
v -0.576923 0.192308 5.000000
v -0.576923 -1.346154 3.461539
v -0.576923 -1.346154 5.000000
v -0.576923 0.192308 3.461539
v 0.576923 0.192308 3.461539
v -0.576923 0.192308 5.000000
v 0.576923 0.192308 5.000000
v -0.576923 -1.346154 5.000000
v 0.576923 -1.346154 5.000000
v -0.576923 -1.346154 3.461539
v 0.576923 -1.346154 3.461539
v -0.576923 0.192308 5.000000
v 0.576923 0.192308 5.000000
v -0.576923 -1.346154 5.000000
v 0.576923 -1.346154 5.000000
v 0.576923 0.192308 3.461539
v -0.576923 0.192308 3.461539
v 0.576923 -1.346154 3.461539
v -0.576923 -1.346154 3.461539
v 0.769231 1.538462 0.384615
v 0.769231 1.538462 0.000000
v 0.769231 -1.538462 0.384615
v 0.769231 -1.538462 0.000000
v -0.769231 1.538462 0.000000
v -0.769231 1.538462 0.384615
v -0.769231 -1.538462 0.000000
v -0.769231 -1.538462 0.384615
v -0.769231 1.538462 0.000000
v 0.769231 1.538462 0.000000
v -0.769231 1.538462 0.384615
v 0.769231 1.538462 0.384615
v -0.769231 -1.538462 0.384615
v 0.769231 -1.538462 0.384615
v -0.769231 -1.538462 0.000000
v 0.769231 -1.538462 0.000000
v -0.769231 1.538462 0.384615
v 0.769231 1.538462 0.384615
v -0.769231 -1.538462 0.384615
v 0.769231 -1.538462 0.384615
v 0.769231 1.538462 0.000000
v -0.769231 1.538462 0.000000
v 0.769231 -1.538462 0.000000
v -0.769231 -1.538462 0.000000
v 0.769231 0.192308 3.461539
v 0.769231 0.192308 0.384615
v 0.769231 -1.346154 3.461539
v 0.769231 -1.346154 0.384615
v -0.769231 0.192308 0.384615
v -0.769231 0.192308 3.461539
v -0.769231 -1.346154 0.384615
v -0.769231 -1.346154 3.461539
v -0.769231 0.192308 0.384615
v 0.769231 0.192308 0.384615
v -0.769231 0.192308 3.461539
v 0.769231 0.192308 3.461539
v -0.769231 -1.346154 3.461539
v 0.769231 -1.346154 3.461539
v -0.769231 -1.346154 0.384615
v 0.769231 -1.346154 0.384615
v -0.769231 0.192308 3.461539
v 0.769231 0.192308 3.461539
v -0.769231 -1.346154 3.461539
v 0.769231 -1.346154 3.461539
v 0.769231 0.192308 0.384615
v -0.769231 0.192308 0.384615
v 0.769231 -1.346154 0.384615
v -0.769231 -1.346154 0.384615
v 0.768462 0.073961 3.920231
v 0.768462 1.538462 0.384616
v 0.768462 -1.329625 3.338847
v 0.768462 0.134875 -0.196769
v -0.768462 1.538462 0.384616
v -0.768462 0.073961 3.920231
v -0.768462 0.134875 -0.196769
v -0.768462 -1.329625 3.338847
v -0.768462 1.538462 0.384616
v 0.768462 1.538462 0.384616
v -0.768462 0.073961 3.920231
v 0.768462 0.073961 3.920231
v -0.768462 -1.329625 3.338847
v 0.768462 -1.329625 3.338847
v -0.768462 0.134875 -0.196769
v 0.768462 0.134875 -0.196769
v -0.768462 0.073961 3.920231
v 0.768462 0.073961 3.920231
v -0.768462 -1.329625 3.338847
v 0.768462 -1.329625 3.338847
v 0.768462 1.538462 0.384616
v -0.768462 1.538462 0.384616
v 0.768462 0.134875 -0.196769
v -0.768462 0.134875 -0.196769
v 0.961538 0.769231 0.384615
v 0.961538 0.769231 -0.384615
v 0.961538 -0.769231 0.384615
v 0.961538 -0.769231 -0.384615
v 0.192308 0.769231 -0.384615
v 0.192308 0.769231 0.384615
v 0.192308 -0.769231 -0.384615
v 0.192308 -0.769231 0.384615
v 0.192308 0.769231 -0.384615
v 0.961538 0.769231 -0.384615
v 0.192308 0.769231 0.384615
v 0.961538 0.769231 0.384615
v 0.192308 -0.769231 0.384615
v 0.961538 -0.769231 0.384615
v 0.192308 -0.769231 -0.384615
v 0.961538 -0.769231 -0.384615
v 0.192308 0.769231 0.384615
v 0.961538 0.769231 0.384615
v 0.192308 -0.769231 0.384615
v 0.961538 -0.769231 0.384615
v 0.961538 0.769231 -0.384615
v 0.192308 0.769231 -0.384615
v 0.961538 -0.769231 -0.384615
v 0.192308 -0.769231 -0.384615
v 0.576923 0.384615 5.769231
v 0.576923 0.384615 5.000000
v 0.576923 -3.076923 5.769231
v 0.576923 -3.076923 5.000000
v -0.576923 0.384615 5.000000
v -0.576923 0.384615 5.769231
v -0.576923 -3.076923 5.000000
v -0.576923 -3.076923 5.769231
v -0.576923 0.384615 5.000000
v 0.576923 0.384615 5.000000
v -0.576923 0.384615 5.769231
v 0.576923 0.384615 5.769231
v -0.576923 -3.076923 5.769231
v 0.576923 -3.076923 5.769231
v -0.576923 -3.076923 5.000000
v 0.576923 -3.076923 5.000000
v -0.576923 0.384615 5.769231
v 0.576923 0.384615 5.769231
v -0.576923 -3.076923 5.769231
v 0.576923 -3.076923 5.769231
v 0.576923 0.384615 5.000000
v -0.576923 0.384615 5.000000
v 0.576923 -3.076923 5.000000
v -0.576923 -3.076923 5.000000
v 0.576154 -1.005859 4.974747
v 0.576154 -1.300231 4.264071
v 0.576154 -2.782551 5.710677
v 0.576154 -3.076923 5.000000
v -0.576154 -1.300231 4.264071
v -0.576154 -1.005859 4.974747
v -0.576154 -3.076923 5.000000
v -0.576154 -2.782551 5.710677
v -0.576154 -1.300231 4.264071
v 0.576154 -1.300231 4.264071
v -0.576154 -1.005859 4.974747
v 0.576154 -1.005859 4.974747
v -0.576154 -2.782551 5.710677
v 0.576154 -2.782551 5.710677
v -0.576154 -3.076923 5.000000
v 0.576154 -3.076923 5.000000
v -0.576154 -1.005859 4.974747
v 0.576154 -1.005859 4.974747
v -0.576154 -2.782551 5.710677
v 0.576154 -2.782551 5.710677
v 0.576154 -1.300231 4.264071
v -0.576154 -1.300231 4.264071
v 0.576154 -3.076923 5.000000
v -0.576154 -3.076923 5.000000
vn 1.0000 -0.0000 -0.0000
vn -1.0000 -0.0000 -0.0000
vn -0.0000 1.0000 -0.0000
vn -0.0000 -1.0000 -0.0000
vn -0.0000 -0.0000 1.0000
vn -0.0000 -0.0000 -1.0000
vn -0.0000 0.9239 0.3827
vn -0.0000 -0.9239 -0.3827
vn -0.0000 -0.3827 0.9239
vn -0.0000 0.3827 -0.9239
vn -0.0000 0.9239 -0.3827
vn -0.0000 -0.9239 0.3827
vn -0.0000 0.3827 0.9239
vn -0.0000 -0.3827 -0.9239
vt 0.312500 0.812500
vt 0.312500 0.750000
vt 0.375000 0.812500
vt 0.375000 0.750000
vt 0.312500 0.687500
vt 0.375000 0.687500
vt 0.171875 0.562500
vt 0.171875 0.625000
vt 0.125000 0.562500
vt 0.125000 0.625000
vt 0.421875 0.843750
vt 0.421875 0.781250
vt 0.375000 0.843750
vt 0.375000 0.781250
vt 0.375000 0.906250
vt 0.421875 0.906250
vt 0.062500 0.656250
vt 0.062500 0.593750
vt 0.109375 0.656250
vt 0.109375 0.593750
vt 0.062500 0.468750
vt 0.078125 0.593750
vt 0.078125 0.468750
vt 0.093750 0.593750
vt 0.093750 0.468750
vt 0.109375 0.468750
vt 0.468750 0.671875
vt 0.468750 0.687500
vt 0.406250 0.671875
vt 0.406250 0.687500
vt 0.468750 0.656250
vt 0.468750 0.640625
vt 0.406250 0.656250
vt 0.406250 0.640625
vt 0.156250 1.000000
vt 0.156250 0.875000
vt 0.218750 1.000000
vt 0.218750 0.875000
vt 0.125000 0.875000
vt 0.125000 0.750000
vt 0.187500 0.875000
vt 0.187500 0.750000
vt 0.187500 0.812500
vt 0.312500 0.875000
vt 0.281250 0.875000
vt 0.281250 1.000000
vt 0.187500 0.625000
vt 0.375000 0.875000
vt 0.281250 0.937500
vt 0.343750 0.937500
vt 0.343750 0.875000
vt 0.000000 1.000000
vt 0.000000 0.937500
vt 0.156250 0.937500
vt 0.000000 0.875000
vt 0.062500 0.718750
vt 0.062500 0.875000
vt 0.000000 0.718750
vt 0.125000 0.718750
vt 0.125000 0.656250
vt 0.343750 1.000000
vt 0.187500 0.593750
vt 0.187500 0.531250
vt 0.218750 0.593750
vt 0.218750 0.531250
vt 0.406250 0.781250
vt 0.406250 0.718750
vt 0.437500 0.781250
vt 0.437500 0.718750
vt 0.343750 0.906250
vt 0.406250 0.593750
vt 0.406250 0.562500
vt 0.375000 0.593750
vt 0.375000 0.562500
vt 0.250000 0.593750
vt 0.250000 0.531250
vt 0.406250 1.000000
vt 0.406250 0.937500
vt 0.437500 1.000000
vt 0.437500 0.937500
vt 0.000000 0.578125
vt 0.031250 0.718750
vt 0.031250 0.578125
vt 0.062500 0.578125
vt 0.453125 0.906250
vt 0.453125 0.937500
vt 0.406250 0.906250
vt 0.296875 0.593750
vt 0.296875 0.562500
vt 0.250000 0.562500
vt 0.250000 0.750000
vt 0.250000 0.609375
vt 0.296875 0.750000
vt 0.296875 0.609375
vt 0.187500 0.609375
vt 0.234375 0.750000
vt 0.234375 0.609375
vt 0.375000 0.703125
vt 0.406250 0.703125
vt 0.375000 0.609375
vt 0.406250 0.609375
vt 0.453125 0.687500
vt 0.453125 0.718750
vt 0.359375 0.593750
vt 0.359375 0.562500
vt 0.312500 0.593750
vt 0.312500 0.562500
vt 0.343750 0.921875
vt 0.390625 1.000000
vt 0.390625 0.921875
vt 0.312500 0.609375
vt 0.359375 0.687500
vt 0.359375 0.609375
s 0
usemtl Material_0.001
f 1/1/1 3/2/1 2/3/1
f 3/2/1 4/4/1 2/3/1
f 5/2/2 7/5/2 6/4/2
f 7/5/2 8/6/2 6/4/2
f 9/7/3 11/8/3 10/9/3
f 11/8/3 12/10/3 10/9/3
f 13/11/4 15/12/4 14/13/4
f 15/12/4 16/14/4 14/13/4
f 17/15/5 19/13/5 18/16/5
f 19/13/5 20/11/5 18/16/5
f 21/17/6 23/18/6 22/19/6
f 23/18/6 24/20/6 22/19/6
f 25/18/1 27/21/1 26/22/1
f 27/21/1 28/23/1 26/22/1
f 29/24/2 31/25/2 30/20/2
f 31/25/2 32/26/2 30/20/2
f 33/27/3 35/28/3 34/29/3
f 35/28/3 36/30/3 34/29/3
f 37/31/4 39/32/4 38/33/4
f 39/32/4 40/34/4 38/33/4
f 41/35/5 43/36/5 42/37/5
f 43/36/5 44/38/5 42/37/5
f 45/39/6 47/40/6 46/41/6
f 47/40/6 48/42/6 46/41/6
f 49/41/1 51/43/1 50/44/1
f 51/43/1 52/1/1 50/44/1
f 53/43/2 55/42/2 54/1/2
f 55/42/2 56/2/2 54/1/2
f 57/45/3 59/46/3 58/38/3
f 59/46/3 60/37/3 58/38/3
f 61/42/4 63/47/4 62/40/4
f 63/47/4 64/10/4 62/40/4
f 65/44/5 67/1/5 66/48/5
f 67/1/5 68/3/5 66/48/5
f 69/49/6 71/45/6 70/50/6
f 71/45/6 72/51/6 70/50/6
f 73/52/1 75/53/1 74/35/1
f 75/53/1 76/54/1 74/35/1
f 77/53/2 79/55/2 78/54/2
f 79/55/2 80/36/2 78/54/2
f 81/56/7 83/57/7 82/58/7
f 83/57/7 84/55/7 82/58/7
f 85/39/8 87/59/8 86/57/8
f 87/59/8 88/56/8 86/57/8
f 89/56/9 91/17/9 90/59/9
f 91/17/9 92/60/9 90/59/9
f 93/46/10 95/49/10 94/61/10
f 95/49/10 96/50/10 94/61/10
f 97/62/1 99/63/1 98/64/1
f 99/63/1 100/65/1 98/64/1
f 101/66/2 103/67/2 102/68/2
f 103/67/2 104/69/2 102/68/2
f 105/48/3 107/15/3 106/51/3
f 107/15/3 108/70/3 106/51/3
f 109/71/4 111/72/4 110/73/4
f 111/72/4 112/74/4 110/73/4
f 113/64/5 115/65/5 114/75/5
f 115/65/5 116/76/5 114/75/5
f 117/77/6 119/78/6 118/79/6
f 119/78/6 120/80/6 118/79/6
f 121/58/1 123/81/1 122/82/1
f 123/81/1 124/83/1 122/82/1
f 125/82/2 127/83/2 126/56/2
f 127/83/2 128/84/2 126/56/2
f 129/85/3 131/86/3 130/87/3
f 131/86/3 132/78/3 130/87/3
f 133/88/4 135/89/4 134/75/4
f 135/89/4 136/90/4 134/75/4
f 137/91/5 139/92/5 138/93/5
f 139/92/5 140/94/5 138/93/5
f 141/42/6 143/95/6 142/96/6
f 143/95/6 144/97/6 142/96/6
f 145/14/1 147/98/1 146/66/1
f 147/98/1 148/99/1 146/66/1
f 149/6/2 151/100/2 150/30/2
f 151/100/2 152/101/2 150/30/2
f 153/102/11 155/103/11 154/30/11
f 155/103/11 156/67/11 154/30/11
f 157/104/12 159/105/12 158/106/12
f 159/105/12 160/107/12 158/106/12
f 161/61/13 163/108/13 162/109/13
f 163/108/13 164/110/13 162/109/13
f 165/5/14 167/111/14 166/112/14
f 167/111/14 168/113/14 166/112/14
