# Blender 4.2.2 LTS
# www.blender.org
mtllib lev.prs3stock.mtl
o attachmentModel
v -0.576154 -0.576923 6.153846
v -0.576154 -0.576923 3.461539
v -0.576154 -1.730769 6.153846
v -0.576154 -1.730769 3.461539
v -0.576923 -0.576923 3.461539
v -0.576923 -0.576923 6.153846
v -0.576923 -1.730769 3.461539
v -0.576923 -1.730769 6.153846
v -0.576923 -0.576923 3.461539
v -0.576154 -0.576923 3.461539
v -0.576923 -0.576923 6.153846
v -0.576154 -0.576923 6.153846
v -0.576923 -1.730769 6.153846
v -0.576154 -1.730769 6.153846
v -0.576923 -1.730769 3.461539
v -0.576154 -1.730769 3.461539
v -0.576923 -0.576923 6.153846
v -0.576154 -0.576923 6.153846
v -0.576923 -1.730769 6.153846
v -0.576154 -1.730769 6.153846
v -0.576154 -0.576923 3.461539
v -0.576923 -0.576923 3.461539
v -0.576154 -1.730769 3.461539
v -0.576923 -1.730769 3.461539
v 0.576923 0.576923 7.692307
v 0.576923 0.576923 0.769231
v 0.576923 -0.576923 7.692307
v 0.576923 -0.576923 0.769231
v -0.576923 0.576923 0.769231
v -0.576923 0.576923 7.692307
v -0.576923 -0.576923 0.769231
v -0.576923 -0.576923 7.692307
v -0.576923 0.576923 0.769231
v 0.576923 0.576923 0.769231
v -0.576923 0.576923 7.692307
v 0.576923 0.576923 7.692307
v -0.576923 -0.576923 7.692307
v 0.576923 -0.576923 7.692307
v -0.576923 -0.576923 0.769231
v 0.576923 -0.576923 0.769231
v -0.576923 0.576923 7.692307
v 0.576923 0.576923 7.692307
v -0.576923 -0.576923 7.692307
v 0.576923 -0.576923 7.692307
v 0.576923 0.576923 0.769231
v -0.576923 0.576923 0.769231
v 0.576923 -0.576923 0.769231
v -0.576923 -0.576923 0.769231
v -0.000000 0.543928 0.769231
v -0.000000 0.543928 0.000000
v 0.543928 0.000000 0.769231
v 0.543928 0.000000 0.000000
v -0.543928 -0.000000 0.000000
v -0.543928 -0.000000 0.769231
v 0.000000 -0.543928 0.000000
v 0.000000 -0.543928 0.769231
v -0.543928 -0.000000 0.000000
v -0.000000 0.543928 0.000000
v -0.543928 -0.000000 0.769231
v -0.000000 0.543928 0.769231
v 0.000000 -0.543928 0.769231
v 0.543928 0.000000 0.769231
v 0.000000 -0.543928 0.000000
v 0.543928 0.000000 0.000000
v -0.543928 -0.000000 0.769231
v -0.000000 0.543928 0.769231
v 0.000000 -0.543928 0.769231
v 0.543928 0.000000 0.769231
v -0.000000 0.543928 0.000000
v -0.543928 -0.000000 0.000000
v 0.543928 0.000000 0.000000
v 0.000000 -0.543928 0.000000
v 0.576923 -0.576923 7.692307
v 0.576923 -0.576923 6.923077
v 0.576923 -2.500000 7.692307
v 0.576923 -2.500000 6.923077
v -0.576923 -0.576923 6.923077
v -0.576923 -0.576923 7.692307
v -0.576923 -2.500000 6.923077
v -0.576923 -2.500000 7.692307
v -0.576923 -0.576923 6.923077
v 0.576923 -0.576923 6.923077
v -0.576923 -0.576923 7.692307
v 0.576923 -0.576923 7.692307
v -0.576923 -2.500000 7.692307
v 0.576923 -2.500000 7.692307
v -0.576923 -2.500000 6.923077
v 0.576923 -2.500000 6.923077
v -0.576923 -0.576923 7.692307
v 0.576923 -0.576923 7.692307
v -0.576923 -2.500000 7.692307
v 0.576923 -2.500000 7.692307
v 0.576923 -0.576923 6.923077
v -0.576923 -0.576923 6.923077
v 0.576923 -2.500000 6.923077
v -0.576923 -2.500000 6.923077
v 0.384615 -0.576923 3.461539
v 0.384615 -0.576923 0.384615
v 0.384615 -0.961538 3.461539
v 0.384615 -0.961538 0.384615
v -0.384615 -0.576923 0.384615
v -0.384615 -0.576923 3.461539
v -0.384615 -0.961538 0.384615
v -0.384615 -0.961538 3.461539
v -0.384615 -0.576923 0.384615
v 0.384615 -0.576923 0.384615
v -0.384615 -0.576923 3.461539
v 0.384615 -0.576923 3.461539
v -0.384615 -0.961538 3.461539
v 0.384615 -0.961538 3.461539
v -0.384615 -0.961538 0.384615
v 0.384615 -0.961538 0.384615
v -0.384615 -0.576923 3.461539
v 0.384615 -0.576923 3.461539
v -0.384615 -0.961538 3.461539
v 0.384615 -0.961538 3.461539
v 0.384615 -0.576923 0.384615
v -0.384615 -0.576923 0.384615
v 0.384615 -0.961538 0.384615
v -0.384615 -0.961538 0.384615
v 0.384615 -0.576923 6.923077
v 0.384615 -0.576923 3.461539
v 0.384615 -2.500000 6.923077
v 0.384615 -2.500000 3.461539
v -0.384615 -0.576923 3.461539
v -0.384615 -0.576923 6.923077
v -0.384615 -2.500000 3.461539
v -0.384615 -2.500000 6.923077
v -0.384615 -0.576923 3.461539
v 0.384615 -0.576923 3.461539
v -0.384615 -0.576923 6.923077
v 0.384615 -0.576923 6.923077
v -0.384615 -2.500000 6.923077
v 0.384615 -2.500000 6.923077
v -0.384615 -2.500000 3.461539
v 0.384615 -2.500000 3.461539
v -0.384615 -0.576923 6.923077
v 0.384615 -0.576923 6.923077
v -0.384615 -2.500000 6.923077
v 0.384615 -2.500000 6.923077
v 0.384615 -0.576923 3.461539
v -0.384615 -0.576923 3.461539
v 0.384615 -2.500000 3.461539
v -0.384615 -2.500000 3.461539
v 0.376923 -0.073598 3.289099
v 0.376923 -0.367970 2.578423
v 0.376923 -2.205628 4.172215
v 0.376923 -2.500000 3.461539
v -0.376923 -0.367970 2.578423
v -0.376923 -0.073598 3.289099
v -0.376923 -2.500000 3.461539
v -0.376923 -2.205628 4.172215
v -0.376923 -0.367970 2.578423
v 0.376923 -0.367970 2.578423
v -0.376923 -0.073598 3.289099
v 0.376923 -0.073598 3.289099
v -0.376923 -2.205628 4.172215
v 0.376923 -2.205628 4.172215
v -0.376923 -2.500000 3.461539
v 0.376923 -2.500000 3.461539
v -0.376923 -0.073598 3.289099
v 0.376923 -0.073598 3.289099
v -0.376923 -2.205628 4.172215
v 0.376923 -2.205628 4.172215
v 0.376923 -0.367970 2.578423
v -0.376923 -0.367970 2.578423
v 0.376923 -2.500000 3.461539
v -0.376923 -2.500000 3.461539
v 0.576923 -1.730769 5.192307
v 0.576923 -1.730769 4.038462
v 0.576923 -2.115385 5.192307
v 0.576923 -2.115385 4.038462
v -0.576923 -1.730769 4.038462
v -0.576923 -1.730769 5.192307
v -0.576923 -2.115385 4.038462
v -0.576923 -2.115385 5.192307
v -0.576923 -1.730769 4.038462
v 0.576923 -1.730769 4.038462
v -0.576923 -1.730769 5.192307
v 0.576923 -1.730769 5.192307
v -0.576923 -2.115385 5.192307
v 0.576923 -2.115385 5.192307
v -0.576923 -2.115385 4.038462
v 0.576923 -2.115385 4.038462
v -0.576923 -1.730769 5.192307
v 0.576923 -1.730769 5.192307
v -0.576923 -2.115385 5.192307
v 0.576923 -2.115385 5.192307
v 0.576923 -1.730769 4.038462
v -0.576923 -1.730769 4.038462
v 0.576923 -2.115385 4.038462
v -0.576923 -2.115385 4.038462
v 0.576923 -0.769231 6.538462
v 0.576923 -0.769231 6.153846
v 0.576923 -1.923077 6.538462
v 0.576923 -1.923077 6.153846
v -0.576923 -0.769231 6.153846
v -0.576923 -0.769231 6.538462
v -0.576923 -1.923077 6.153846
v -0.576923 -1.923077 6.538462
v -0.576923 -0.769231 6.153846
v 0.576923 -0.769231 6.153846
v -0.576923 -0.769231 6.538462
v 0.576923 -0.769231 6.538462
v -0.576923 -1.923077 6.538462
v 0.576923 -1.923077 6.538462
v -0.576923 -1.923077 6.153846
v 0.576923 -1.923077 6.153846
v -0.576923 -0.769231 6.538462
v 0.576923 -0.769231 6.538462
v -0.576923 -1.923077 6.538462
v 0.576923 -1.923077 6.538462
v 0.576923 -0.769231 6.153846
v -0.576923 -0.769231 6.153846
v 0.576923 -1.923077 6.153846
v -0.576923 -1.923077 6.153846
v 0.577692 -0.576923 6.153846
v 0.577692 -0.576923 3.461539
v 0.577692 -1.730769 6.153846
v 0.577692 -1.730769 3.461539
v 0.576923 -0.576923 3.461539
v 0.576923 -0.576923 6.153846
v 0.576923 -1.730769 3.461539
v 0.576923 -1.730769 6.153846
v 0.576923 -0.576923 3.461539
v 0.577692 -0.576923 3.461539
v 0.576923 -0.576923 6.153846
v 0.577692 -0.576923 6.153846
v 0.576923 -1.730769 6.153846
v 0.577692 -1.730769 6.153846
v 0.576923 -1.730769 3.461539
v 0.577692 -1.730769 3.461539
v 0.576923 -0.576923 6.153846
v 0.577692 -0.576923 6.153846
v 0.576923 -1.730769 6.153846
v 0.577692 -1.730769 6.153846
v 0.577692 -0.576923 3.461539
v 0.576923 -0.576923 3.461539
v 0.577692 -1.730769 3.461539
v 0.576923 -1.730769 3.461539
vn 1.0000 -0.0000 -0.0000
vn -1.0000 -0.0000 -0.0000
vn -0.0000 1.0000 -0.0000
vn -0.0000 -1.0000 -0.0000
vn -0.0000 -0.0000 1.0000
vn -0.0000 -0.0000 -1.0000
vn 0.7071 0.7071 -0.0000
vn -0.7071 -0.7071 -0.0000
vn -0.7071 0.7071 -0.0000
vn 0.7071 -0.7071 -0.0000
vn -0.0000 0.9239 -0.3827
vn -0.0000 -0.9239 0.3827
vn -0.0000 0.3827 0.9239
vn -0.0000 -0.3827 -0.9239
vt 0.281250 0.875000
vt 0.281250 0.828125
vt 0.390625 0.875000
vt 0.390625 0.828125
vt 0.000000 0.890625
vt 0.000000 1.000000
vt 0.000000 0.953125
vt 0.281250 1.000000
vt 0.281250 0.953125
vt 0.000000 0.937500
vt 0.281250 0.937500
vt 0.281250 0.890625
vt 0.046875 0.593750
vt 0.046875 0.875000
vt 0.000000 0.593750
vt 0.000000 0.875000
vt 0.109375 0.875000
vt 0.109375 0.593750
vt 0.062500 0.875000
vt 0.062500 0.593750
vt 0.406250 0.843750
vt 0.406250 0.796875
vt 0.453125 0.843750
vt 0.453125 0.796875
vt 0.406250 0.906250
vt 0.406250 0.859375
vt 0.453125 0.906250
vt 0.453125 0.859375
vt 0.281250 0.593750
vt 0.281250 0.562500
vt 0.312500 0.593750
vt 0.312500 0.562500
vt 0.156250 0.562500
vt 0.156250 0.531250
vt 0.187500 0.562500
vt 0.187500 0.531250
vt 0.218750 0.531250
vt 0.218750 0.562500
vt 0.312500 0.531250
vt 0.281250 0.531250
vt 0.093750 0.562500
vt 0.093750 0.531250
vt 0.125000 0.562500
vt 0.125000 0.531250
vt 0.093750 0.593750
vt 0.125000 0.593750
vt 0.000000 0.515625
vt 0.031250 0.593750
vt 0.031250 0.515625
vt 0.406250 1.000000
vt 0.406250 0.921875
vt 0.437500 1.000000
vt 0.437500 0.921875
vt 0.484375 0.937500
vt 0.484375 0.968750
vt 0.437500 0.937500
vt 0.437500 0.968750
vt 0.484375 0.906250
vt 0.437500 0.906250
vt 0.312500 0.750000
vt 0.312500 0.671875
vt 0.359375 0.750000
vt 0.359375 0.671875
vt 0.218750 0.687500
vt 0.218750 0.609375
vt 0.265625 0.687500
vt 0.265625 0.609375
vt 0.406250 0.593750
vt 0.406250 0.578125
vt 0.531250 0.593750
vt 0.531250 0.578125
vt 0.437500 0.984375
vt 0.562500 1.000000
vt 0.562500 0.984375
vt 0.187500 0.687500
vt 0.156250 0.687500
vt 0.250000 0.531250
vt 0.250000 0.515625
vt 0.281250 0.515625
vt 0.468750 0.781250
vt 0.468750 0.765625
vt 0.500000 0.781250
vt 0.500000 0.765625
vt 0.125000 0.875000
vt 0.125000 0.796875
vt 0.265625 0.875000
vt 0.265625 0.796875
vt 0.125000 0.781250
vt 0.125000 0.703125
vt 0.265625 0.781250
vt 0.265625 0.703125
vt 0.312500 0.609375
vt 0.281250 0.609375
vt 0.281250 0.750000
vt 0.156250 0.546875
vt 0.125000 0.687500
vt 0.125000 0.546875
vt 0.062500 0.515625
vt 0.093750 0.515625
vt 0.343750 0.656250
vt 0.343750 0.562500
vt 0.375000 0.656250
vt 0.375000 0.562500
vt 0.406250 0.656250
vt 0.406250 0.562500
vt 0.343750 0.531250
vt 0.375000 0.531250
vt 0.375000 0.750000
vt 0.406250 0.750000
vt 0.312500 0.656250
vt 0.437500 0.562500
vt 0.437500 0.546875
vt 0.484375 0.562500
vt 0.484375 0.546875
vt 0.468750 0.906250
vt 0.468750 0.890625
vt 0.515625 0.906250
vt 0.515625 0.890625
vt 0.265625 0.546875
vt 0.265625 0.593750
vt 0.218750 0.546875
vt 0.218750 0.593750
vt 0.453125 0.781250
vt 0.453125 0.734375
vt 0.406250 0.781250
vt 0.406250 0.734375
vt 0.140625 0.531250
vt 0.140625 0.515625
vt 0.375000 0.546875
vt 0.421875 0.562500
vt 0.421875 0.546875
vt 0.468750 0.875000
vt 0.468750 0.828125
vt 0.484375 0.875000
vt 0.484375 0.828125
vt 0.156250 0.484375
vt 0.171875 0.531250
vt 0.171875 0.484375
vt 0.234375 0.515625
vt 0.234375 0.531250
vt 0.187500 0.515625
vt 0.515625 0.812500
vt 0.515625 0.796875
vt 0.468750 0.812500
vt 0.468750 0.796875
vt 0.406250 0.609375
vt 0.453125 0.656250
vt 0.453125 0.609375
vt 0.406250 0.718750
vt 0.406250 0.671875
vt 0.453125 0.718750
vt 0.453125 0.671875
vt 0.390625 0.937500
vt 0.390625 0.890625
s 0
usemtl Material_0
f 1/1/1 3/2/1 2/3/1
f 3/2/1 4/4/1 2/3/1
f 5/1/2 7/2/2 6/3/2
f 7/2/2 8/4/2 6/3/2
f 9/5/3 11/6/3 10/5/3
f 11/6/3 12/6/3 10/5/3
f 13/6/4 15/5/4 14/6/4
f 15/5/4 16/5/4 14/6/4
f 17/6/5 19/7/5 18/6/5
f 19/7/5 20/7/5 18/6/5
f 21/6/6 23/7/6 22/6/6
f 23/7/6 24/7/6 22/6/6
f 25/6/1 27/7/1 26/8/1
f 27/7/1 28/9/1 26/8/1
f 29/10/2 31/5/2 30/11/2
f 31/5/2 32/12/2 30/11/2
f 33/13/3 35/14/3 34/15/3
f 35/14/3 36/16/3 34/15/3
f 37/17/4 39/18/4 38/19/4
f 39/18/4 40/20/4 38/19/4
f 41/21/5 43/22/5 42/23/5
f 43/22/5 44/24/5 42/23/5
f 45/25/6 47/26/6 46/27/6
f 47/26/6 48/28/6 46/27/6
f 49/29/7 51/30/7 50/31/7
f 51/30/7 52/32/7 50/31/7
f 53/33/8 55/34/8 54/35/8
f 55/34/8 56/36/8 54/35/8
f 57/37/9 59/38/9 58/36/9
f 59/38/9 60/35/9 58/36/9
f 61/32/10 63/39/10 62/30/10
f 63/39/10 64/40/10 62/30/10
f 65/41/5 67/42/5 66/43/5
f 67/42/5 68/44/5 66/43/5
f 69/45/6 71/41/6 70/46/6
f 71/41/6 72/43/6 70/46/6
f 73/15/1 75/47/1 74/48/1
f 75/47/1 76/49/1 74/48/1
f 77/50/2 79/51/2 78/52/2
f 79/51/2 80/53/2 78/52/2
f 81/54/3 83/55/3 82/56/3
f 83/55/3 84/57/3 82/56/3
f 85/54/4 87/58/4 86/56/4
f 87/58/4 88/59/4 86/56/4
f 89/60/5 91/61/5 90/62/5
f 91/61/5 92/63/5 90/62/5
f 93/64/6 95/65/6 94/66/6
f 95/65/6 96/67/6 94/66/6
f 97/68/1 99/69/1 98/70/1
f 99/69/1 100/71/1 98/70/1
f 101/52/2 103/72/2 102/73/2
f 103/72/2 104/74/2 102/73/2
f 105/35/3 107/75/3 106/33/3
f 107/75/3 108/76/3 106/33/3
f 109/64/4 111/38/4 110/75/4
f 111/38/4 112/35/4 110/75/4
f 113/77/5 115/78/5 114/40/5
f 115/78/5 116/79/5 114/40/5
f 117/80/6 119/81/6 118/82/6
f 119/81/6 120/83/6 118/82/6
f 121/84/1 123/85/1 122/86/1
f 123/85/1 124/87/1 122/86/1
f 125/88/2 127/89/2 126/90/2
f 127/89/2 128/91/2 126/90/2
f 129/92/3 131/60/3 130/93/3
f 131/60/3 132/94/3 130/93/3
f 133/76/4 135/95/4 134/96/4
f 135/95/4 136/97/4 134/96/4
f 137/20/5 139/98/5 138/45/5
f 139/98/5 140/99/5 138/45/5
f 141/48/6 143/49/6 142/20/6
f 143/49/6 144/98/6 142/20/6
f 145/100/1 147/101/1 146/102/1
f 147/101/1 148/103/1 146/102/1
f 149/102/2 151/103/2 150/104/2
f 151/103/2 152/105/2 150/104/2
f 153/106/11 155/101/11 154/39/11
f 155/101/11 156/32/11 154/39/11
f 157/103/12 159/107/12 158/101/12
f 159/107/12 160/106/12 158/101/12
f 161/108/13 163/102/13 162/109/13
f 163/102/13 164/104/13 162/109/13
f 165/110/14 167/32/14 166/100/14
f 167/32/14 168/101/14 166/100/14
f 169/111/1 171/112/1 170/113/1
f 171/112/1 172/114/1 170/113/1
f 173/115/2 175/116/2 174/117/2
f 175/116/2 176/118/2 174/117/2
f 177/119/3 179/120/3 178/121/3
f 179/120/3 180/122/3 178/121/3
f 181/123/4 183/124/4 182/125/4
f 183/124/4 184/126/4 182/125/4
f 185/42/5 187/99/5 186/127/5
f 187/99/5 188/128/5 186/127/5
f 189/103/6 191/129/6 190/130/6
f 191/129/6 192/131/6 190/130/6
f 193/132/1 195/133/1 194/134/1
f 195/133/1 196/135/1 194/134/1
f 197/34/2 199/136/2 198/137/2
f 199/136/2 200/138/2 198/137/2
f 201/139/3 203/140/3 202/141/3
f 203/140/3 204/36/3 202/141/3
f 205/142/4 207/143/4 206/144/4
f 207/143/4 208/145/4 206/144/4
f 209/104/5 211/146/5 210/147/5
f 211/146/5 212/148/5 210/147/5
f 213/149/6 215/150/6 214/151/6
f 215/150/6 216/152/6 214/151/6
f 217/11/1 219/12/1 218/153/1
f 219/12/1 220/154/1 218/153/1
f 221/11/2 223/12/2 222/153/2
f 223/12/2 224/154/2 222/153/2
f 225/5/3 227/6/3 226/5/3
f 227/6/3 228/6/3 226/5/3
f 229/6/4 231/5/4 230/6/4
f 231/5/4 232/5/4 230/6/4
f 233/6/5 235/7/5 234/6/5
f 235/7/5 236/7/5 234/6/5
f 237/6/6 239/7/6 238/6/6
f 239/7/6 240/7/6 238/6/6
