# Blender 4.4.0
# www.blender.org
mtllib lev.afg.mtl
o attachmentModel
v -1.538461 0.000000 0.576923
v 3.076923 0.000000 0.576923
v -1.538461 -0.384615 0.576923
v 3.076923 -0.384615 0.576923
v 3.076923 0.000000 -0.576923
v -1.538461 0.000000 -0.576923
v 3.076923 -0.384615 -0.576923
v -1.538461 -0.384615 -0.576923
v 3.076923 0.000000 -0.576923
v 3.076923 0.000000 0.576923
v -1.538461 0.000000 -0.576923
v -1.538461 0.000000 0.576923
v -1.538461 -0.384615 -0.576923
v -1.538461 -0.384615 0.576923
v 3.076923 -0.384615 -0.576923
v 3.076923 -0.384615 0.576923
v -1.538461 0.000000 -0.576923
v -1.538461 0.000000 0.576923
v -1.538461 -0.384615 -0.576923
v -1.538461 -0.384615 0.576923
v 3.076923 0.000000 0.576923
v 3.076923 0.000000 -0.576923
v 3.076923 -0.384615 0.576923
v 3.076923 -0.384615 -0.576923
v 1.153846 0.383846 -0.776154
v 3.076923 0.383846 -0.776154
v 1.153846 -0.000769 -0.776154
v 3.076923 -0.000769 -0.776154
v 3.076923 0.383846 -0.776923
v 1.153846 0.383846 -0.776923
v 3.076923 -0.000769 -0.776923
v 1.153846 -0.000769 -0.776923
v 3.076923 0.383846 -0.776923
v 3.076923 0.383846 -0.776154
v 1.153846 0.383846 -0.776923
v 1.153846 0.383846 -0.776154
v 1.153846 -0.000769 -0.776923
v 1.153846 -0.000769 -0.776154
v 3.076923 -0.000769 -0.776923
v 3.076923 -0.000769 -0.776154
v 1.153846 0.383846 -0.776923
v 1.153846 0.383846 -0.776154
v 1.153846 -0.000769 -0.776923
v 1.153846 -0.000769 -0.776154
v 3.076923 0.383846 -0.776154
v 3.076923 0.383846 -0.776923
v 3.076923 -0.000769 -0.776154
v 3.076923 -0.000769 -0.776923
v 1.153846 0.000000 -0.576923
v 3.076923 0.000000 -0.576923
v 1.153846 -0.000769 -0.576923
v 3.076923 -0.000769 -0.576923
v 3.076923 0.000000 -0.776923
v 1.153846 0.000000 -0.776923
v 3.076923 -0.000769 -0.776923
v 1.153846 -0.000769 -0.776923
v 3.076923 0.000000 -0.776923
v 3.076923 0.000000 -0.576923
v 1.153846 0.000000 -0.776923
v 1.153846 0.000000 -0.576923
v 1.153846 -0.000769 -0.776923
v 1.153846 -0.000769 -0.576923
v 3.076923 -0.000769 -0.776923
v 3.076923 -0.000769 -0.576923
v 1.153846 0.000000 -0.776923
v 1.153846 0.000000 -0.576923
v 1.153846 -0.000769 -0.776923
v 1.153846 -0.000769 -0.576923
v 3.076923 0.000000 -0.576923
v 3.076923 0.000000 -0.776923
v 3.076923 -0.000769 -0.576923
v 3.076923 -0.000769 -0.776923
v 3.076154 -0.384615 0.384615
v 3.076923 -0.384615 0.384615
v 3.076154 -0.769231 0.384615
v 3.076923 -0.769231 0.384615
v 3.076923 -0.384615 -0.384615
v 3.076154 -0.384615 -0.384615
v 3.076923 -0.769231 -0.384615
v 3.076154 -0.769231 -0.384615
v 3.076923 -0.384615 -0.384615
v 3.076923 -0.384615 0.384615
v 3.076154 -0.384615 -0.384615
v 3.076154 -0.384615 0.384615
v 3.076154 -0.769231 -0.384615
v 3.076154 -0.769231 0.384615
v 3.076923 -0.769231 -0.384615
v 3.076923 -0.769231 0.384615
v 3.076154 -0.384615 -0.384615
v 3.076154 -0.384615 0.384615
v 3.076154 -0.769231 -0.384615
v 3.076154 -0.769231 0.384615
v 3.076923 -0.384615 0.384615
v 3.076923 -0.384615 -0.384615
v 3.076923 -0.769231 0.384615
v 3.076923 -0.769231 -0.384615
v 1.379148 0.159309 0.384615
v 1.923077 -0.384619 0.384615
v -0.252637 -1.472476 0.384615
v 0.291291 -2.016404 0.384615
v 1.923077 -0.384619 -0.384615
v 1.379148 0.159309 -0.384615
v 0.291291 -2.016404 -0.384615
v -0.252637 -1.472476 -0.384615
v 1.923077 -0.384619 -0.384615
v 1.923077 -0.384619 0.384615
v 1.379148 0.159309 -0.384615
v 1.379148 0.159309 0.384615
v -0.252637 -1.472476 -0.384615
v -0.252637 -1.472476 0.384615
v 0.291291 -2.016404 -0.384615
v 0.291291 -2.016404 0.384615
v 1.379148 0.159309 -0.384615
v 1.379148 0.159309 0.384615
v -0.252637 -1.472476 -0.384615
v -0.252637 -1.472476 0.384615
v 1.923077 -0.384619 0.384615
v 1.923077 -0.384619 -0.384615
v 0.291291 -2.016404 0.384615
v 0.291291 -2.016404 -0.384615
v -0.796565 0.159310 0.384615
v 0.291292 -0.928547 0.384615
v -1.340493 -0.384619 0.384615
v -0.252637 -1.472476 0.384615
v 0.291292 -0.928547 -0.384615
v -0.796565 0.159310 -0.384615
v -0.252637 -1.472476 -0.384615
v -1.340493 -0.384619 -0.384615
v 0.291292 -0.928547 -0.384615
v 0.291292 -0.928547 0.384615
v -0.796565 0.159310 -0.384615
v -0.796565 0.159310 0.384615
v -1.340493 -0.384619 -0.384615
v -1.340493 -0.384619 0.384615
v -0.252637 -1.472476 -0.384615
v -0.252637 -1.472476 0.384615
v -0.796565 0.159310 -0.384615
v -0.796565 0.159310 0.384615
v -1.340493 -0.384619 -0.384615
v -1.340493 -0.384619 0.384615
v 0.291292 -0.928547 0.384615
v 0.291292 -0.928547 -0.384615
v -0.252637 -1.472476 0.384615
v -0.252637 -1.472476 -0.384615
v 1.153846 0.383846 0.777692
v 3.076923 0.383846 0.777692
v 1.153846 -0.000769 0.777692
v 3.076923 -0.000769 0.777692
v 3.076923 0.383846 0.776923
v 1.153846 0.383846 0.776923
v 3.076923 -0.000769 0.776923
v 1.153846 -0.000769 0.776923
v 3.076923 0.383846 0.776923
v 3.076923 0.383846 0.777692
v 1.153846 0.383846 0.776923
v 1.153846 0.383846 0.777692
v 1.153846 -0.000769 0.776923
v 1.153846 -0.000769 0.777692
v 3.076923 -0.000769 0.776923
v 3.076923 -0.000769 0.777692
v 1.153846 0.383846 0.776923
v 1.153846 0.383846 0.777692
v 1.153846 -0.000769 0.776923
v 1.153846 -0.000769 0.777692
v 3.076923 0.383846 0.777692
v 3.076923 0.383846 0.776923
v 3.076923 -0.000769 0.777692
v 3.076923 -0.000769 0.776923
v 1.153846 0.000000 0.776923
v 3.076923 0.000000 0.776923
v 1.153846 -0.000769 0.776923
v 3.076923 -0.000769 0.776923
v 3.076923 0.000000 0.576923
v 1.153846 0.000000 0.576923
v 3.076923 -0.000769 0.576923
v 1.153846 -0.000769 0.576923
v 3.076923 0.000000 0.576923
v 3.076923 0.000000 0.776923
v 1.153846 0.000000 0.576923
v 1.153846 0.000000 0.776923
v 1.153846 -0.000769 0.576923
v 1.153846 -0.000769 0.776923
v 3.076923 -0.000769 0.576923
v 3.076923 -0.000769 0.776923
v 1.153846 0.000000 0.576923
v 1.153846 0.000000 0.776923
v 1.153846 -0.000769 0.576923
v 1.153846 -0.000769 0.776923
v 3.076923 0.000000 0.776923
v 3.076923 0.000000 0.576923
v 3.076923 -0.000769 0.776923
v 3.076923 -0.000769 0.576923
vn -0.0000 -0.0000 1.0000
vn -0.0000 -0.0000 -1.0000
vn -0.0000 1.0000 -0.0000
vn -0.0000 -1.0000 -0.0000
vn -1.0000 -0.0000 -0.0000
vn 1.0000 -0.0000 -0.0000
vn 0.7071 0.7071 -0.0000
vn -0.7071 -0.7071 -0.0000
vn -0.7071 0.7071 -0.0000
vn 0.7071 -0.7071 -0.0000
vt 0.250000 1.000000
vt 0.250000 0.968750
vt 0.625000 1.000000
vt 0.625000 0.968750
vt 0.250000 0.937500
vt 0.250000 0.906250
vt 0.625000 0.937500
vt 0.625000 0.906250
vt 0.093750 0.625000
vt 0.093750 1.000000
vt 0.000000 0.625000
vt 0.000000 1.000000
vt 0.218750 1.000000
vt 0.218750 0.625000
vt 0.125000 1.000000
vt 0.125000 0.625000
vt 0.500000 0.750000
vt 0.500000 0.718750
vt 0.593750 0.750000
vt 0.593750 0.718750
vt 0.250000 0.500000
vt 0.250000 0.468750
vt 0.343750 0.500000
vt 0.343750 0.468750
vt 0.375000 0.625000
vt 0.375000 0.593750
vt 0.531250 0.625000
vt 0.531250 0.593750
vt 0.000000 0.562500
vt 0.000000 0.531250
vt 0.156250 0.562500
vt 0.156250 0.531250
vt 0.000000 0.843750
vt 0.000000 0.968750
vt 0.156250 1.000000
vt 0.218750 0.406250
vt 0.218750 0.562500
vt 0.187500 0.406250
vt 0.187500 0.562500
vt 0.406250 0.562500
vt 0.406250 0.406250
vt 0.375000 0.562500
vt 0.375000 0.406250
vt 0.031250 1.000000
vt 0.125000 0.437500
vt 0.125000 0.406250
vt 0.156250 0.437500
vt 0.156250 0.406250
vt 0.250000 0.437500
vt 0.250000 0.406250
vt 0.281250 0.437500
vt 0.281250 0.406250
vt 0.562500 0.468750
vt 0.562500 0.500000
vt 0.500000 0.468750
vt 0.500000 0.500000
vt 0.062500 0.437500
vt 0.062500 0.406250
vt 0.500000 0.562500
vt 0.500000 0.531250
vt 0.562500 0.562500
vt 0.562500 0.531250
vt 0.500000 0.687500
vt 0.500000 0.656250
vt 0.562500 0.687500
vt 0.562500 0.656250
vt 0.312500 0.875000
vt 0.312500 0.687500
vt 0.375000 0.875000
vt 0.375000 0.687500
vt 0.312500 0.500000
vt 0.375000 0.500000
vt 0.437500 0.687500
vt 0.437500 0.750000
vt 0.500000 0.625000
vt 0.437500 0.625000
vt 0.250000 0.687500
vt 0.250000 0.875000
vt 0.125000 0.562500
vt 0.250000 0.625000
vt 0.250000 0.562500
vt 0.437500 0.875000
vt 0.375000 0.750000
vt 0.125000 0.500000
vt 0.187500 0.500000
vt 0.187500 0.437500
vt 0.062500 0.500000
s 0
usemtl Material_0.001
f 1/1/1 3/2/1 2/3/1
f 3/2/1 4/4/1 2/3/1
f 5/5/2 7/6/2 6/7/2
f 7/6/2 8/8/2 6/7/2
f 9/9/3 11/10/3 10/11/3
f 11/10/3 12/12/3 10/11/3
f 13/13/4 15/14/4 14/15/4
f 15/14/4 16/16/4 14/15/4
f 17/17/5 19/18/5 18/19/5
f 19/18/5 20/20/5 18/19/5
f 21/21/6 23/22/6 22/23/6
f 23/22/6 24/24/6 22/23/6
f 25/25/1 27/26/1 26/27/1
f 27/26/1 28/28/1 26/27/1
f 29/29/2 31/30/2 30/31/2
f 31/30/2 32/32/2 30/31/2
f 33/33/3 35/12/3 34/33/3
f 35/12/3 36/12/3 34/33/3
f 37/12/4 39/33/4 38/12/4
f 39/33/4 40/33/4 38/12/4
f 41/12/5 43/34/5 42/12/5
f 43/34/5 44/34/5 42/12/5
f 45/12/6 47/34/6 46/12/6
f 47/34/6 48/34/6 46/12/6
f 49/12/1 51/12/1 50/35/1
f 51/12/1 52/35/1 50/35/1
f 53/12/2 55/12/2 54/35/2
f 55/12/2 56/35/2 54/35/2
f 57/36/3 59/37/3 58/38/3
f 59/37/3 60/39/3 58/38/3
f 61/40/4 63/41/4 62/42/4
f 63/41/4 64/43/4 62/42/4
f 65/12/5 67/12/5 66/44/5
f 67/12/5 68/44/5 66/44/5
f 69/12/6 71/12/6 70/44/6
f 71/12/6 72/44/6 70/44/6
f 73/45/1 75/46/1 74/47/1
f 75/46/1 76/48/1 74/47/1
f 77/49/2 79/50/2 78/51/2
f 79/50/2 80/52/2 78/51/2
f 81/53/3 83/54/3 82/55/3
f 83/54/3 84/56/3 82/55/3
f 85/45/4 87/46/4 86/57/4
f 87/46/4 88/58/4 86/57/4
f 89/59/5 91/60/5 90/61/5
f 91/60/5 92/62/5 90/61/5
f 93/63/6 95/64/6 94/65/6
f 95/64/6 96/66/6 94/65/6
f 97/67/1 99/68/1 98/69/1
f 99/68/1 100/70/1 98/69/1
f 101/68/2 103/71/2 102/70/2
f 103/71/2 104/72/2 102/70/2
f 105/63/7 107/17/7 106/73/7
f 107/17/7 108/74/7 106/73/7
f 109/63/8 111/75/8 110/73/8
f 111/75/8 112/76/8 110/73/8
f 113/77/9 115/21/9 114/68/9
f 115/21/9 116/71/9 114/68/9
f 117/78/10 119/77/10 118/67/10
f 119/77/10 120/68/10 118/67/10
f 121/11/1 123/29/1 122/16/1
f 123/29/1 124/79/1 122/16/1
f 125/16/2 127/79/2 126/80/2
f 127/79/2 128/81/2 126/80/2
f 129/74/7 131/82/7 130/83/7
f 131/82/7 132/69/7 130/83/7
f 133/74/8 135/76/8 134/83/8
f 135/76/8 136/25/8 134/83/8
f 137/84/9 139/45/9 138/85/9
f 139/45/9 140/86/9 138/85/9
f 141/87/10 143/57/10 142/84/10
f 143/57/10 144/45/10 142/84/10
f 145/31/1 147/32/1 146/29/1
f 147/32/1 148/30/1 146/29/1
f 149/27/2 151/28/2 150/25/2
f 151/28/2 152/26/2 150/25/2
f 153/33/3 155/12/3 154/33/3
f 155/12/3 156/12/3 154/33/3
f 157/12/4 159/33/4 158/12/4
f 159/33/4 160/33/4 158/12/4
f 161/12/5 163/34/5 162/12/5
f 163/34/5 164/34/5 162/12/5
f 165/12/6 167/34/6 166/12/6
f 167/34/6 168/34/6 166/12/6
f 169/35/1 171/35/1 170/12/1
f 171/35/1 172/12/1 170/12/1
f 173/35/2 175/35/2 174/12/2
f 175/35/2 176/12/2 174/12/2
f 177/38/3 179/39/3 178/36/3
f 179/39/3 180/37/3 178/36/3
f 181/42/4 183/43/4 182/40/4
f 183/43/4 184/41/4 182/40/4
f 185/44/5 187/44/5 186/12/5
f 187/44/5 188/12/5 186/12/5
f 189/44/6 191/44/6 190/12/6
f 191/44/6 192/12/6 190/12/6
