# Blender 4.4.0
# www.blender.org
mtllib lev.rk6.mtl
o attachmentModel
v -0.769231 0.000000 0.769231
v 1.153846 0.000000 0.769231
v -0.769231 -0.769231 0.769231
v 1.153846 -0.769231 0.769231
v 1.153846 0.000000 -0.769231
v -0.769231 0.000000 -0.769231
v 1.153846 -0.769231 -0.769231
v -0.769231 -0.769231 -0.769231
v 1.153846 0.000000 -0.769231
v 1.153846 0.000000 0.769231
v -0.769231 0.000000 -0.769231
v -0.769231 0.000000 0.769231
v -0.769231 -0.769231 -0.769231
v -0.769231 -0.769231 0.769231
v 1.153846 -0.769231 -0.769231
v 1.153846 -0.769231 0.769231
v -0.769231 0.000000 -0.769231
v -0.769231 0.000000 0.769231
v -0.769231 -0.769231 -0.769231
v -0.769231 -0.769231 0.769231
v 1.153846 0.000000 0.769231
v 1.153846 0.000000 -0.769231
v 1.153846 -0.769231 0.769231
v 1.153846 -0.769231 -0.769231
v -0.576923 -1.153846 -0.768462
v 0.576923 -1.153846 -0.768462
v -0.576923 -2.692308 -0.768462
v 0.576923 -2.692308 -0.768462
v 0.576923 -1.153846 -0.769231
v -0.576923 -1.153846 -0.769231
v 0.576923 -2.692308 -0.769231
v -0.576923 -2.692308 -0.769231
v 0.576923 -1.153846 -0.769231
v 0.576923 -1.153846 -0.768462
v -0.576923 -1.153846 -0.769231
v -0.576923 -1.153846 -0.768462
v -0.576923 -2.692308 -0.769231
v -0.576923 -2.692308 -0.768462
v 0.576923 -2.692308 -0.769231
v 0.576923 -2.692308 -0.768462
v -0.576923 -1.153846 -0.769231
v -0.576923 -1.153846 -0.768462
v -0.576923 -2.692308 -0.769231
v -0.576923 -2.692308 -0.768462
v 0.576923 -1.153846 -0.768462
v 0.576923 -1.153846 -0.769231
v 0.576923 -2.692308 -0.768462
v 0.576923 -2.692308 -0.769231
v -0.576923 -1.153846 0.385384
v 0.576923 -1.153846 0.385384
v -0.576923 -2.692308 0.385384
v 0.576923 -2.692308 0.385384
v 0.576923 -1.153846 0.384615
v -0.576923 -1.153846 0.384615
v 0.576923 -2.692308 0.384615
v -0.576923 -2.692308 0.384615
v 0.576923 -1.153846 0.384615
v 0.576923 -1.153846 0.385384
v -0.576923 -1.153846 0.384615
v -0.576923 -1.153846 0.385384
v -0.576923 -2.692308 0.384615
v -0.576923 -2.692308 0.385384
v 0.576923 -2.692308 0.384615
v 0.576923 -2.692308 0.385384
v -0.576923 -1.153846 0.384615
v -0.576923 -1.153846 0.385384
v -0.576923 -2.692308 0.384615
v -0.576923 -2.692308 0.385384
v 0.576923 -1.153846 0.385384
v 0.576923 -1.153846 0.384615
v 0.576923 -2.692308 0.385384
v 0.576923 -2.692308 0.384615
v 0.576154 -1.153846 0.384615
v 0.576923 -1.153846 0.384615
v 0.576154 -2.692308 0.384615
v 0.576923 -2.692308 0.384615
v 0.576923 -1.153846 -0.769231
v 0.576154 -1.153846 -0.769231
v 0.576923 -2.692308 -0.769231
v 0.576154 -2.692308 -0.769231
v 0.576923 -1.153846 -0.769231
v 0.576923 -1.153846 0.384615
v 0.576154 -1.153846 -0.769231
v 0.576154 -1.153846 0.384615
v 0.576154 -2.692308 -0.769231
v 0.576154 -2.692308 0.384615
v 0.576923 -2.692308 -0.769231
v 0.576923 -2.692308 0.384615
v 0.576154 -1.153846 -0.769231
v 0.576154 -1.153846 0.384615
v 0.576154 -2.692308 -0.769231
v 0.576154 -2.692308 0.384615
v 0.576923 -1.153846 0.384615
v 0.576923 -1.153846 -0.769231
v 0.576923 -2.692308 0.384615
v 0.576923 -2.692308 -0.769231
v -0.577692 -1.153846 0.384615
v -0.576923 -1.153846 0.384615
v -0.577692 -1.923077 0.384615
v -0.576923 -1.923077 0.384615
v -0.576923 -1.153846 -0.769231
v -0.577692 -1.153846 -0.769231
v -0.576923 -1.923077 -0.769231
v -0.577692 -1.923077 -0.769231
v -0.576923 -1.153846 -0.769231
v -0.576923 -1.153846 0.384615
v -0.577692 -1.153846 -0.769231
v -0.577692 -1.153846 0.384615
v -0.577692 -1.923077 -0.769231
v -0.577692 -1.923077 0.384615
v -0.576923 -1.923077 -0.769231
v -0.576923 -1.923077 0.384615
v -0.577692 -1.153846 -0.769231
v -0.577692 -1.153846 0.384615
v -0.577692 -1.923077 -0.769231
v -0.577692 -1.923077 0.384615
v -0.576923 -1.153846 0.384615
v -0.576923 -1.153846 -0.769231
v -0.576923 -1.923077 0.384615
v -0.576923 -1.923077 -0.769231
v -0.577692 -1.153077 -0.576923
v 0.576923 -1.153077 -0.576923
v -0.577692 -1.153846 -0.576923
v 0.576923 -1.153846 -0.576923
v 0.576923 -1.153077 -0.769231
v -0.577692 -1.153077 -0.769231
v 0.576923 -1.153846 -0.769231
v -0.577692 -1.153846 -0.769231
v 0.576923 -1.153077 -0.769231
v 0.576923 -1.153077 -0.576923
v -0.577692 -1.153077 -0.769231
v -0.577692 -1.153077 -0.576923
v -0.577692 -1.153846 -0.769231
v -0.577692 -1.153846 -0.576923
v 0.576923 -1.153846 -0.769231
v 0.576923 -1.153846 -0.576923
v -0.577692 -1.153077 -0.769231
v -0.577692 -1.153077 -0.576923
v -0.577692 -1.153846 -0.769231
v -0.577692 -1.153846 -0.576923
v 0.576923 -1.153077 -0.576923
v 0.576923 -1.153077 -0.769231
v 0.576923 -1.153846 -0.576923
v 0.576923 -1.153846 -0.769231
v -0.769230 -0.769231 0.576923
v 0.769231 -0.769231 0.576923
v -0.769230 -1.153846 0.576923
v 0.769231 -1.153846 0.576923
v 0.769231 -0.769231 -0.576923
v -0.769230 -0.769231 -0.576923
v 0.769231 -1.153846 -0.576923
v -0.769230 -1.153846 -0.576923
v 0.769231 -0.769231 -0.576923
v 0.769231 -0.769231 0.576923
v -0.769230 -0.769231 -0.576923
v -0.769230 -0.769231 0.576923
v -0.769230 -1.153846 -0.576923
v -0.769230 -1.153846 0.576923
v 0.769231 -1.153846 -0.576923
v 0.769231 -1.153846 0.576923
v -0.769230 -0.769231 -0.576923
v -0.769230 -0.769231 0.576923
v -0.769230 -1.153846 -0.576923
v -0.769230 -1.153846 0.576923
v 0.769231 -0.769231 0.576923
v 0.769231 -0.769231 -0.576923
v 0.769231 -1.153846 0.576923
v 0.769231 -1.153846 -0.576923
vn -0.0000 -0.0000 1.0000
vn -0.0000 -0.0000 -1.0000
vn -0.0000 1.0000 -0.0000
vn -0.0000 -1.0000 -0.0000
vn -1.0000 -0.0000 -0.0000
vn 1.0000 -0.0000 -0.0000
vt 0.375000 0.875000
vt 0.375000 0.812500
vt 0.531250 0.875000
vt 0.531250 0.812500
vt 0.375000 0.750000
vt 0.531250 0.750000
vt 0.125000 0.843750
vt 0.125000 1.000000
vt 0.000000 0.843750
vt 0.000000 1.000000
vt 0.250000 1.000000
vt 0.250000 0.843750
vt 0.375000 0.687500
vt 0.500000 0.750000
vt 0.500000 0.687500
vt 0.250000 0.625000
vt 0.250000 0.562500
vt 0.375000 0.625000
vt 0.375000 0.562500
vt 0.000000 0.812500
vt 0.000000 0.687500
vt 0.093750 0.812500
vt 0.093750 0.687500
vt 0.125000 0.812500
vt 0.125000 0.687500
vt 0.218750 0.812500
vt 0.218750 0.687500
vt 0.000000 0.906250
vt 0.000000 0.875000
vt 0.250000 0.875000
vt 0.343750 1.000000
vt 0.343750 0.875000
vt 0.250000 0.750000
vt 0.343750 0.750000
vt 0.093750 1.000000
vt 0.000000 0.562500
vt 0.093750 0.562500
vt 0.343750 0.625000
vt 0.000000 0.937500
vt 0.468750 0.625000
vt 0.468750 0.562500
vt 0.468750 0.687500
vt 0.281250 0.468750
vt 0.281250 0.562500
vt 0.250000 0.468750
vt 0.343750 0.562500
vt 0.343750 0.468750
vt 0.312500 0.562500
vt 0.312500 0.468750
vt 0.031250 1.000000
vt 0.000000 0.531250
vt 0.125000 0.562500
vt 0.125000 0.531250
vt 0.250000 0.531250
vt 0.218750 0.562500
vt 0.468750 1.000000
vt 0.468750 0.875000
vt 0.375000 1.000000
vt 0.000000 0.500000
vt 0.000000 0.468750
vt 0.093750 0.500000
vt 0.093750 0.468750
vt 0.375000 0.531250
vt 0.468750 0.531250
s 0
usemtl Material_0.003
f 1/1/1 3/2/1 2/3/1
f 3/2/1 4/4/1 2/3/1
f 5/2/2 7/5/2 6/4/2
f 7/5/2 8/6/2 6/4/2
f 9/7/3 11/8/3 10/9/3
f 11/8/3 12/10/3 10/9/3
f 13/11/4 15/12/4 14/8/4
f 15/12/4 16/7/4 14/8/4
f 17/5/5 19/13/5 18/14/5
f 19/13/5 20/15/5 18/14/5
f 21/16/6 23/17/6 22/18/6
f 23/17/6 24/19/6 22/18/6
f 25/20/1 27/21/1 26/22/1
f 27/21/1 28/23/1 26/22/1
f 29/24/2 31/25/2 30/26/2
f 31/25/2 32/27/2 30/26/2
f 33/28/3 35/10/3 34/28/3
f 35/10/3 36/10/3 34/28/3
f 37/10/4 39/28/4 38/10/4
f 39/28/4 40/28/4 38/10/4
f 41/10/5 43/29/5 42/10/5
f 43/29/5 44/29/5 42/10/5
f 45/10/6 47/29/6 46/10/6
f 47/29/6 48/29/6 46/10/6
f 49/11/1 51/30/1 50/31/1
f 51/30/1 52/32/1 50/31/1
f 53/30/2 55/33/2 54/32/2
f 55/33/2 56/34/2 54/32/2
f 57/28/3 59/10/3 58/28/3
f 59/10/3 60/10/3 58/28/3
f 61/10/4 63/28/4 62/10/4
f 63/28/4 64/28/4 62/10/4
f 65/10/5 67/29/5 66/10/5
f 67/29/5 68/29/5 66/10/5
f 69/10/6 71/29/6 70/10/6
f 71/29/6 72/29/6 70/10/6
f 73/10/1 75/29/1 74/10/1
f 75/29/1 76/29/1 74/10/1
f 77/10/2 79/29/2 78/10/2
f 79/29/2 80/29/2 78/10/2
f 81/35/3 83/35/3 82/10/3
f 83/35/3 84/10/3 82/10/3
f 85/35/4 87/35/4 86/10/4
f 87/35/4 88/10/4 86/10/4
f 89/21/5 91/36/5 90/23/5
f 91/36/5 92/37/5 90/23/5
f 93/33/6 95/16/6 94/34/6
f 95/16/6 96/38/6 94/34/6
f 97/10/1 99/39/1 98/10/1
f 99/39/1 100/39/1 98/10/1
f 101/10/2 103/39/2 102/10/2
f 103/39/2 104/39/2 102/10/2
f 105/35/3 107/35/3 106/10/3
f 107/35/3 108/10/3 106/10/3
f 109/35/4 111/35/4 110/10/4
f 111/35/4 112/10/4 110/10/4
f 113/18/5 115/19/5 114/40/5
f 115/19/5 116/41/5 114/40/5
f 117/13/6 119/18/6 118/42/6
f 119/18/6 120/40/6 118/42/6
f 121/10/1 123/10/1 122/35/1
f 123/10/1 124/35/1 122/35/1
f 125/10/2 127/10/2 126/35/2
f 127/10/2 128/35/2 126/35/2
f 129/43/3 131/44/3 130/45/3
f 131/44/3 132/17/3 130/45/3
f 133/46/4 135/47/4 134/48/4
f 135/47/4 136/49/4 134/48/4
f 137/10/5 139/10/5 138/50/5
f 139/10/5 140/50/5 138/50/5
f 141/10/6 143/10/6 142/50/6
f 143/10/6 144/50/6 142/50/6
f 145/36/1 147/51/1 146/52/1
f 147/51/1 148/53/1 146/52/1
f 149/52/2 151/53/2 150/17/2
f 151/53/2 152/54/2 150/17/2
f 153/55/3 155/27/3 154/52/3
f 155/27/3 156/25/3 154/52/3
f 157/56/4 159/57/4 158/58/4
f 159/57/4 160/1/4 158/58/4
f 161/59/5 163/60/5 162/61/5
f 163/60/5 164/62/5 162/61/5
f 165/19/6 167/63/6 166/41/6
f 167/63/6 168/64/6 166/41/6
