# Blender 5.0.1
# www.blender.org
mtllib lev.m16stock.mtl
o attachmentModel
v 0.576923 0.576923 5.769231
v 0.576923 0.576923 0.000000
v 0.576923 -0.576923 5.769231
v 0.576923 -0.576923 0.000000
v -0.576923 0.576923 0.000000
v -0.576923 0.576923 5.769231
v -0.576923 -0.576923 0.000000
v -0.576923 -0.576923 5.769231
v -0.576923 0.576923 0.000000
v 0.576923 0.576923 0.000000
v -0.576923 0.576923 5.769231
v 0.576923 0.576923 5.769231
v -0.576923 -0.576923 5.769231
v 0.576923 -0.576923 5.769231
v -0.576923 -0.576923 0.000000
v 0.576923 -0.576923 0.000000
v -0.576923 0.576923 5.769231
v 0.576923 0.576923 5.769231
v -0.576923 -0.576923 5.769231
v 0.576923 -0.576923 5.769231
v 0.576923 0.576923 0.000000
v -0.576923 0.576923 0.000000
v 0.576923 -0.576923 0.000000
v -0.576923 -0.576923 0.000000
v 0.576923 -0.576923 5.769231
v 0.576923 -0.576923 3.076923
v 0.576923 -1.730769 5.769231
v 0.576923 -1.730769 3.076923
v -0.576923 -0.576923 3.076923
v -0.576923 -0.576923 5.769231
v -0.576923 -1.730769 3.076923
v -0.576923 -1.730769 5.769231
v -0.576923 -0.576923 3.076923
v 0.576923 -0.576923 3.076923
v -0.576923 -0.576923 5.769231
v 0.576923 -0.576923 5.769231
v -0.576923 -1.730769 5.769231
v 0.576923 -1.730769 5.769231
v -0.576923 -1.730769 3.076923
v 0.576923 -1.730769 3.076923
v -0.576923 -0.576923 5.769231
v 0.576923 -0.576923 5.769231
v -0.576923 -1.730769 5.769231
v 0.576923 -1.730769 5.769231
v 0.576923 -0.576923 3.076923
v -0.576923 -0.576923 3.076923
v 0.576923 -1.730769 3.076923
v -0.576923 -1.730769 3.076923
v 0.576923 0.576923 6.538462
v 0.576923 0.576923 5.769231
v 0.576923 -2.884615 6.538462
v 0.576923 -2.884615 5.769231
v -0.576923 0.576923 5.769231
v -0.576923 0.576923 6.538462
v -0.576923 -2.884615 5.769231
v -0.576923 -2.884615 6.538462
v -0.576923 0.576923 5.769231
v 0.576923 0.576923 5.769231
v -0.576923 0.576923 6.538462
v 0.576923 0.576923 6.538462
v -0.576923 -2.884615 6.538462
v 0.576923 -2.884615 6.538462
v -0.576923 -2.884615 5.769231
v 0.576923 -2.884615 5.769231
v -0.576923 0.576923 6.538462
v 0.576923 0.576923 6.538462
v -0.576923 -2.884615 6.538462
v 0.576923 -2.884615 6.538462
v 0.576923 0.576923 5.769231
v -0.576923 0.576923 5.769231
v 0.576923 -2.884615 5.769231
v -0.576923 -2.884615 5.769231
v 0.576154 -1.818604 6.210786
v 0.576154 0.536371 0.525373
v 0.576154 -2.884619 5.769228
v 0.576154 -0.529644 0.083816
v -0.576154 0.536371 0.525373
v -0.576154 -1.818604 6.210786
v -0.576154 -0.529644 0.083816
v -0.576154 -2.884619 5.769228
v -0.576154 0.536371 0.525373
v 0.576154 0.536371 0.525373
v -0.576154 -1.818604 6.210786
v 0.576154 -1.818604 6.210786
v -0.576154 -2.884619 5.769228
v 0.576154 -2.884619 5.769228
v -0.576154 -0.529644 0.083816
v 0.576154 -0.529644 0.083816
v -0.576154 -1.818604 6.210786
v 0.576154 -1.818604 6.210786
v -0.576154 -2.884619 5.769228
v 0.576154 -2.884619 5.769228
v 0.576154 0.536371 0.525373
v -0.576154 0.536371 0.525373
v 0.576154 -0.529644 0.083816
v -0.576154 -0.529644 0.083816
vn 1.0000 -0.0000 -0.0000
vn -1.0000 -0.0000 -0.0000
vn -0.0000 1.0000 -0.0000
vn -0.0000 -1.0000 -0.0000
vn -0.0000 -0.0000 1.0000
vn -0.0000 -0.0000 -1.0000
vn -0.0000 0.9239 0.3827
vn -0.0000 -0.9239 -0.3827
vn -0.0000 -0.3827 0.9239
vn -0.0000 0.3827 -0.9239
vt 0.359375 0.812500
vt 0.359375 0.765625
vt 0.125000 0.812500
vt 0.125000 0.765625
vt 0.171875 0.515625
vt 0.171875 0.750000
vt 0.125000 0.515625
vt 0.125000 0.750000
vt 0.234375 0.750000
vt 0.234375 0.515625
vt 0.187500 0.750000
vt 0.187500 0.515625
vt 0.375000 0.812500
vt 0.375000 0.765625
vt 0.421875 0.812500
vt 0.421875 0.765625
vt 0.375000 0.875000
vt 0.375000 0.828125
vt 0.421875 0.875000
vt 0.421875 0.828125
vt 0.250000 1.000000
vt 0.250000 0.953125
vt 0.359375 1.000000
vt 0.359375 0.953125
vt 0.250000 0.937500
vt 0.250000 0.890625
vt 0.359375 0.937500
vt 0.359375 0.890625
vt 0.046875 0.515625
vt 0.046875 0.625000
vt 0.000000 0.515625
vt 0.000000 0.625000
vt 0.421875 1.000000
vt 0.421875 0.890625
vt 0.375000 1.000000
vt 0.375000 0.890625
vt 0.375000 0.687500
vt 0.375000 0.640625
vt 0.421875 0.687500
vt 0.421875 0.640625
vt 0.375000 0.750000
vt 0.375000 0.703125
vt 0.421875 0.750000
vt 0.421875 0.703125
vt 0.062500 0.625000
vt 0.062500 0.484375
vt 0.093750 0.625000
vt 0.093750 0.484375
vt 0.125000 0.625000
vt 0.125000 0.484375
vt 0.359375 0.562500
vt 0.359375 0.593750
vt 0.312500 0.562500
vt 0.312500 0.593750
vt 0.484375 1.000000
vt 0.484375 0.968750
vt 0.437500 1.000000
vt 0.437500 0.968750
vt 0.312500 0.750000
vt 0.312500 0.609375
vt 0.359375 0.750000
vt 0.359375 0.609375
vt 0.250000 0.750000
vt 0.250000 0.609375
vt 0.296875 0.750000
vt 0.296875 0.609375
vt 0.000000 0.937500
vt 0.000000 0.890625
vt 0.046875 0.875000
vt 0.000000 0.875000
vt 0.109375 0.875000
vt 0.109375 0.625000
vt 0.062500 0.875000
vt 0.250000 0.593750
vt 0.250000 0.546875
vt 0.296875 0.593750
vt 0.296875 0.546875
vt 0.375000 0.625000
vt 0.375000 0.578125
vt 0.421875 0.625000
vt 0.421875 0.578125
s 0
usemtl Material_0
f 1/1/1 3/2/1 2/3/1
f 3/2/1 4/4/1 2/3/1
f 5/3/2 7/4/2 6/1/2
f 7/4/2 8/2/2 6/1/2
f 9/5/3 11/6/3 10/7/3
f 11/6/3 12/8/3 10/7/3
f 13/9/4 15/10/4 14/11/4
f 15/10/4 16/12/4 14/11/4
f 17/13/5 19/14/5 18/15/5
f 19/14/5 20/16/5 18/15/5
f 21/17/6 23/18/6 22/19/6
f 23/18/6 24/20/6 22/19/6
f 25/21/1 27/22/1 26/23/1
f 27/22/1 28/24/1 26/23/1
f 29/25/2 31/26/2 30/27/2
f 31/26/2 32/28/2 30/27/2
f 33/29/3 35/30/3 34/31/3
f 35/30/3 36/32/3 34/31/3
f 37/33/4 39/34/4 38/35/4
f 39/34/4 40/36/4 38/35/4
f 41/37/5 43/38/5 42/39/5
f 43/38/5 44/40/5 42/39/5
f 45/41/6 47/42/6 46/43/6
f 47/42/6 48/44/6 46/43/6
f 49/45/1 51/46/1 50/47/1
f 51/46/1 52/48/1 50/47/1
f 53/47/2 55/48/2 54/49/2
f 55/48/2 56/50/2 54/49/2
f 57/51/3 59/52/3 58/53/3
f 59/52/3 60/54/3 58/53/3
f 61/55/4 63/56/4 62/57/4
f 63/56/4 64/58/4 62/57/4
f 65/59/5 67/60/5 66/61/5
f 67/60/5 68/62/5 66/61/5
f 69/63/6 71/64/6 70/65/6
f 71/64/6 72/66/6 70/65/6
f 73/25/1 75/26/1 74/67/1
f 75/26/1 76/68/1 74/67/1
f 77/67/2 79/68/2 78/25/2
f 79/68/2 80/26/2 78/25/2
f 81/30/7 83/69/7 82/32/7
f 83/69/7 84/70/7 82/32/7
f 85/71/8 87/72/8 86/73/8
f 87/72/8 88/45/8 86/73/8
f 89/74/9 91/75/9 90/76/9
f 91/75/9 92/77/9 90/76/9
f 93/78/10 95/79/10 94/80/10
f 95/79/10 96/81/10 94/80/10
