# Blender 4.2.1 LTS
# www.blender.org
mtllib lev.pbs1.mtl
o attachmentModel
v 1.153846 0.576923 0.576923
v 6.153846 0.576923 0.576922
v 1.153846 -0.576923 0.576923
v 6.153846 -0.576923 0.576922
v 6.153846 0.576923 -0.576924
v 1.153846 0.576923 -0.576923
v 6.153846 -0.576923 -0.576924
v 1.153846 -0.576923 -0.576923
v 6.153846 0.576923 -0.576924
v 6.153846 0.576923 0.576922
v 1.153846 0.576923 -0.576923
v 1.153846 0.576923 0.576923
v 1.153846 -0.576923 -0.576923
v 1.153846 -0.576923 0.576923
v 6.153846 -0.576923 -0.576924
v 6.153846 -0.576923 0.576922
v 1.153846 0.576923 -0.576923
v 1.153846 0.576923 0.576923
v 1.153846 -0.576923 -0.576923
v 1.153846 -0.576923 0.576923
v 6.153846 0.576923 0.576922
v 6.153846 0.576923 -0.576924
v 6.153846 -0.576923 0.576922
v 6.153846 -0.576923 -0.576924
v 0.000000 -0.000000 0.815892
v 1.153846 -0.000000 0.815892
v -0.000000 -0.815892 -0.000000
v 1.153846 -0.815892 -0.000000
v 1.153846 0.815892 -0.000000
v 0.000000 0.815892 0.000000
v 1.153846 0.000000 -0.815893
v -0.000000 0.000000 -0.815892
v 1.153846 0.815892 -0.000000
v 1.153846 -0.000000 0.815892
v 0.000000 0.815892 0.000000
v 0.000000 -0.000000 0.815892
v -0.000000 0.000000 -0.815892
v -0.000000 -0.815892 -0.000000
v 1.153846 0.000000 -0.815893
v 1.153846 -0.815892 -0.000000
v 0.000000 0.815892 0.000000
v 0.000000 -0.000000 0.815892
v -0.000000 0.000000 -0.815892
v -0.000000 -0.815892 -0.000000
v 1.153846 -0.000000 0.815892
v 1.153846 0.815892 -0.000000
v 1.153846 -0.815892 -0.000000
v 1.153846 0.000000 -0.815893
v 5.903845 0.384615 0.384614
v 6.288461 0.384615 0.384614
v 5.903845 -0.384615 0.384614
v 6.288461 -0.384615 0.384614
v 6.288461 0.384615 -0.384617
v 5.903845 0.384615 -0.384617
v 6.288461 -0.384615 -0.384617
v 5.903845 -0.384615 -0.384617
v 6.288461 0.384615 -0.384617
v 6.288461 0.384615 0.384614
v 5.903845 0.384615 -0.384617
v 5.903845 0.384615 0.384614
v 5.903845 -0.384615 -0.384617
v 5.903845 -0.384615 0.384614
v 6.288461 -0.384615 -0.384617
v 6.288461 -0.384615 0.384614
v 5.903845 0.384615 -0.384617
v 5.903845 0.384615 0.384614
v 5.903845 -0.384615 -0.384617
v 5.903845 -0.384615 0.384614
v 6.288461 0.384615 0.384614
v 6.288461 0.384615 -0.384617
v 6.288461 -0.384615 0.384614
v 6.288461 -0.384615 -0.384617
vn -0.0000 -0.0000 1.0000
vn -0.0000 -0.0000 -1.0000
vn -0.0000 1.0000 -0.0000
vn -0.0000 -1.0000 -0.0000
vn -1.0000 -0.0000 -0.0000
vn 1.0000 -0.0000 -0.0000
vn -0.0000 -0.7071 0.7071
vn -0.0000 0.7071 -0.7071
vn -0.0000 0.7071 0.7071
vn -0.0000 -0.7071 -0.7071
vt 0.000000 1.000000
vt 0.000000 0.906250
vt 0.406250 1.000000
vt 0.406250 0.906250
vt 0.000000 0.875000
vt 0.000000 0.781250
vt 0.406250 0.875000
vt 0.406250 0.781250
vt 0.093750 0.343750
vt 0.093750 0.750000
vt 0.000000 0.343750
vt 0.000000 0.750000
vt 0.218750 0.750000
vt 0.218750 0.343750
vt 0.125000 0.750000
vt 0.125000 0.343750
vt 0.250000 0.625000
vt 0.250000 0.531250
vt 0.343750 0.625000
vt 0.343750 0.531250
vt 0.250000 0.750000
vt 0.250000 0.656250
vt 0.343750 0.750000
vt 0.343750 0.656250
vt 0.375000 0.625000
vt 0.375000 0.531250
vt 0.468750 0.625000
vt 0.468750 0.531250
vt 0.437500 0.875000
vt 0.437500 0.781250
vt 0.531250 0.875000
vt 0.531250 0.781250
vt 0.343750 0.406250
vt 0.343750 0.500000
vt 0.250000 0.406250
vt 0.250000 0.500000
vt 0.593750 0.750000
vt 0.593750 0.656250
vt 0.500000 0.750000
vt 0.500000 0.656250
vt 0.437500 1.000000
vt 0.437500 0.906250
vt 0.531250 1.000000
vt 0.531250 0.906250
vt 0.375000 0.750000
vt 0.375000 0.656250
vt 0.468750 0.750000
vt 0.468750 0.656250
vt 0.437500 0.500000
vt 0.437500 0.437500
vt 0.468750 0.500000
vt 0.468750 0.437500
vt 0.500000 0.562500
vt 0.500000 0.500000
vt 0.531250 0.562500
vt 0.531250 0.500000
vt 0.562500 0.468750
vt 0.562500 0.500000
vt 0.500000 0.468750
vt 0.625000 1.000000
vt 0.625000 0.968750
vt 0.562500 1.000000
vt 0.562500 0.968750
vt 0.500000 0.625000
vt 0.562500 0.625000
vt 0.562500 0.562500
vt 0.375000 0.500000
vt 0.375000 0.437500
s 0
usemtl Material_0
f 1/1/1 3/2/1 2/3/1
f 3/2/1 4/4/1 2/3/1
f 5/5/2 7/6/2 6/7/2
f 7/6/2 8/8/2 6/7/2
f 9/9/3 11/10/3 10/11/3
f 11/10/3 12/12/3 10/11/3
f 13/13/4 15/14/4 14/15/4
f 15/14/4 16/16/4 14/15/4
f 17/17/5 19/18/5 18/19/5
f 19/18/5 20/20/5 18/19/5
f 21/21/6 23/22/6 22/23/6
f 23/22/6 24/24/6 22/23/6
f 25/25/7 27/26/7 26/27/7
f 27/26/7 28/28/7 26/27/7
f 29/29/8 31/30/8 30/31/8
f 31/30/8 32/32/8 30/31/8
f 33/33/9 35/34/9 34/35/9
f 35/34/9 36/36/9 34/35/9
f 37/37/10 39/38/10 38/39/10
f 39/38/10 40/40/10 38/39/10
f 41/41/5 43/42/5 42/43/5
f 43/42/5 44/44/5 42/43/5
f 45/45/6 47/46/6 46/47/6
f 47/46/6 48/48/6 46/47/6
f 49/49/1 51/50/1 50/51/1
f 51/50/1 52/52/1 50/51/1
f 53/53/2 55/54/2 54/55/2
f 55/54/2 56/56/2 54/55/2
f 57/57/3 59/58/3 58/59/3
f 59/58/3 60/54/3 58/59/3
f 61/60/4 63/61/4 62/62/4
f 63/61/4 64/63/4 62/62/4
f 65/64/5 67/53/5 66/65/5
f 67/53/5 68/66/5 66/65/5
f 69/67/6 71/68/6 70/49/6
f 71/68/6 72/50/6 70/49/6
