# Blender 4.2.1 LTS
# www.blender.org
mtllib lev.rakurs.mtl
o overlaySolidModel
v -0.123500 0.296250 0.108750
v -0.123437 0.296250 0.108750
v -0.123500 0.203750 0.108750
v -0.123437 0.203750 0.108750
v -0.123437 0.296250 0.016250
v -0.123500 0.296250 0.016250
v -0.123437 0.203750 0.016250
v -0.123500 0.203750 0.016250
v -0.123437 0.296250 0.016250
v -0.123437 0.296250 0.108750
v -0.123500 0.296250 0.016250
v -0.123500 0.296250 0.108750
v -0.123500 0.203750 0.016250
v -0.123500 0.203750 0.108750
v -0.123437 0.203750 0.016250
v -0.123437 0.203750 0.108750
v -0.123500 0.296250 0.016250
v -0.123500 0.296250 0.108750
v -0.123500 0.203750 0.016250
v -0.123500 0.203750 0.108750
v -0.123437 0.296250 0.108750
v -0.123437 0.296250 0.016250
v -0.123437 0.203750 0.108750
v -0.123437 0.203750 0.016250
vn -0.0000 -0.0000 1.0000
vn -0.0000 -0.0000 -1.0000
vn -0.0000 1.0000 -0.0000
vn -0.0000 -1.0000 -0.0000
vn -1.0000 -0.0000 -0.0000
vn 1.0000 -0.0000 -0.0000
vt 0.000000 1.000000
vt 0.000000 0.906250
vt 0.906250 0.093750
vt 0.906250 0.000000
vt 1.000000 0.093750
vt 1.000000 0.000000
s 0
usemtl Material_0.001
f 1/1/1 3/2/1 2/1/1
f 3/2/1 4/2/1 2/1/1
f 5/1/2 7/2/2 6/1/2
f 7/2/2 8/2/2 6/1/2
f 9/1/3 11/1/3 10/2/3
f 11/1/3 12/2/3 10/2/3
f 13/1/4 15/1/4 14/2/4
f 15/1/4 16/2/4 14/2/4
f 17/3/5 19/4/5 18/5/5
f 19/4/5 20/6/5 18/5/5
f 21/3/6 23/4/6 22/5/6
f 23/4/6 24/6/6 22/5/6
o scopeModel
v -0.121335 0.296250 0.108750
v -0.121272 0.296250 0.108750
v -0.121335 0.203750 0.108750
v -0.121272 0.203750 0.108750
v -0.121272 0.296250 0.016250
v -0.121335 0.296250 0.016250
v -0.121272 0.203750 0.016250
v -0.121335 0.203750 0.016250
v -0.121272 0.296250 0.016250
v -0.121272 0.296250 0.108750
v -0.121335 0.296250 0.016250
v -0.121335 0.296250 0.108750
v -0.121335 0.203750 0.016250
v -0.121335 0.203750 0.108750
v -0.121272 0.203750 0.016250
v -0.121272 0.203750 0.108750
v -0.121335 0.296250 0.016250
v -0.121335 0.296250 0.108750
v -0.121335 0.203750 0.016250
v -0.121335 0.203750 0.108750
v -0.121272 0.296250 0.108750
v -0.121272 0.296250 0.016250
v -0.121272 0.203750 0.108750
v -0.121272 0.203750 0.016250
vn -0.0000 -0.0000 1.0000
vn -0.0000 -0.0000 -1.0000
vn -0.0000 1.0000 -0.0000
vn -0.0000 -1.0000 -0.0000
vn -1.0000 -0.0000 -0.0000
vn 1.0000 -0.0000 -0.0000
vt 0.000000 1.000000
vt 0.000000 0.906250
vt 0.468750 0.093750
vt 0.468750 0.000000
vt 0.562500 0.093750
vt 0.562500 0.000000
s 0
usemtl Material_0.001
f 25/7/7 27/8/7 26/7/7
f 27/8/7 28/8/7 26/7/7
f 29/7/8 31/8/8 30/7/8
f 31/8/8 32/8/8 30/7/8
f 33/7/9 35/7/9 34/8/9
f 35/7/9 36/8/9 34/8/9
f 37/7/10 39/7/10 38/8/10
f 39/7/10 40/8/10 38/8/10
f 41/9/11 43/10/11 42/11/11
f 43/10/11 44/12/11 42/11/11
f 45/9/12 47/10/12 46/11/12
f 47/10/12 48/12/12 46/11/12
o attachmentModel
v -0.093750 0.171875 0.000063
v 0.093750 0.171875 0.000062
v -0.093750 0.046875 0.000063
v 0.093750 0.046875 0.000062
v 0.093750 0.171875 -0.000000
v -0.093750 0.171875 0.000000
v 0.093750 0.046875 -0.000000
v -0.093750 0.046875 0.000000
v 0.093750 0.171875 -0.000000
v 0.093750 0.171875 0.000062
v -0.093750 0.171875 0.000000
v -0.093750 0.171875 0.000063
v -0.093750 0.046875 0.000000
v -0.093750 0.046875 0.000063
v 0.093750 0.046875 -0.000000
v 0.093750 0.046875 0.000062
v -0.093750 0.171875 0.000000
v -0.093750 0.171875 0.000063
v -0.093750 0.046875 0.000000
v -0.093750 0.046875 0.000063
v 0.093750 0.171875 0.000062
v 0.093750 0.171875 -0.000000
v 0.093750 0.046875 0.000062
v 0.093750 0.046875 -0.000000
v -0.093750 0.078125 0.000000
v 0.093750 0.078125 -0.000000
v -0.093750 0.015625 0.000000
v 0.093750 0.015625 -0.000000
v 0.093750 0.078125 -0.031250
v -0.093750 0.078125 -0.031250
v 0.093750 0.015625 -0.031250
v -0.093750 0.015625 -0.031250
v 0.093750 0.078125 -0.031250
v 0.093750 0.078125 -0.000000
v -0.093750 0.078125 -0.031250
v -0.093750 0.078125 0.000000
v -0.093750 0.015625 -0.031250
v -0.093750 0.015625 0.000000
v 0.093750 0.015625 -0.031250
v 0.093750 0.015625 -0.000000
v -0.093750 0.078125 -0.031250
v -0.093750 0.078125 0.000000
v -0.093750 0.015625 -0.031250
v -0.093750 0.015625 0.000000
v 0.093750 0.078125 -0.000000
v 0.093750 0.078125 -0.031250
v 0.093750 0.015625 -0.000000
v 0.093750 0.015625 -0.031250
v 0.093687 0.171875 -0.000000
v 0.093750 0.171875 -0.000000
v 0.093687 0.046875 -0.000000
v 0.093750 0.046875 -0.000000
v 0.093750 0.171875 -0.031250
v 0.093687 0.171875 -0.031250
v 0.093750 0.046875 -0.031250
v 0.093687 0.046875 -0.031250
v 0.093750 0.171875 -0.031250
v 0.093750 0.171875 -0.000000
v 0.093687 0.171875 -0.031250
v 0.093687 0.171875 -0.000000
v 0.093687 0.046875 -0.031250
v 0.093687 0.046875 -0.000000
v 0.093750 0.046875 -0.031250
v 0.093750 0.046875 -0.000000
v 0.093687 0.171875 -0.031250
v 0.093687 0.171875 -0.000000
v 0.093687 0.046875 -0.031250
v 0.093687 0.046875 -0.000000
v 0.093750 0.171875 -0.000000
v 0.093750 0.171875 -0.031250
v 0.093750 0.046875 -0.000000
v 0.093750 0.046875 -0.031250
v -0.031312 0.171875 0.000000
v -0.031250 0.171875 0.000000
v -0.031312 0.046875 0.000000
v -0.031250 0.046875 0.000000
v -0.031250 0.171875 -0.031250
v -0.031313 0.171875 -0.031250
v -0.031250 0.046875 -0.031250
v -0.031313 0.046875 -0.031250
v -0.031250 0.171875 -0.031250
v -0.031250 0.171875 0.000000
v -0.031313 0.171875 -0.031250
v -0.031312 0.171875 0.000000
v -0.031313 0.046875 -0.031250
v -0.031312 0.046875 0.000000
v -0.031250 0.046875 -0.031250
v -0.031250 0.046875 0.000000
v -0.031313 0.171875 -0.031250
v -0.031312 0.171875 0.000000
v -0.031313 0.046875 -0.031250
v -0.031312 0.046875 0.000000
v -0.031250 0.171875 0.000000
v -0.031250 0.171875 -0.031250
v -0.031250 0.046875 0.000000
v -0.031250 0.046875 -0.031250
v -0.062500 0.312500 0.125000
v 0.093750 0.312500 0.125000
v -0.062500 0.187500 0.125000
v 0.093750 0.187500 0.125000
v 0.093750 0.312500 -0.000000
v -0.062500 0.312500 0.000000
v 0.093750 0.187500 -0.000000
v -0.062500 0.187500 0.000000
v 0.093750 0.312500 -0.000000
v 0.093750 0.312500 0.125000
v -0.062500 0.312500 0.000000
v -0.062500 0.312500 0.125000
v -0.062500 0.187500 0.000000
v -0.062500 0.187500 0.125000
v 0.093750 0.187500 -0.000000
v 0.093750 0.187500 0.125000
v -0.062500 0.312500 0.000000
v -0.062500 0.312500 0.125000
v -0.062500 0.187500 0.000000
v -0.062500 0.187500 0.125000
v 0.093750 0.312500 0.125000
v 0.093750 0.312500 -0.000000
v 0.093750 0.187500 0.125000
v 0.093750 0.187500 -0.000000
v -0.125062 0.296875 0.031250
v -0.125000 0.296875 0.031250
v -0.125062 0.203125 0.031250
v -0.125000 0.203125 0.031250
v -0.125000 0.296875 0.015625
v -0.125062 0.296875 0.015625
v -0.125000 0.203125 0.015625
v -0.125062 0.203125 0.015625
v -0.125000 0.296875 0.015625
v -0.125000 0.296875 0.031250
v -0.125062 0.296875 0.015625
v -0.125062 0.296875 0.031250
v -0.125062 0.203125 0.015625
v -0.125062 0.203125 0.031250
v -0.125000 0.203125 0.015625
v -0.125000 0.203125 0.031250
v -0.125062 0.296875 0.015625
v -0.125062 0.296875 0.031250
v -0.125062 0.203125 0.015625
v -0.125062 0.203125 0.031250
v -0.125000 0.296875 0.031250
v -0.125000 0.296875 0.015625
v -0.125000 0.203125 0.031250
v -0.125000 0.203125 0.015625
v -0.125000 0.296875 0.109438
v -0.062500 0.296875 0.109438
v -0.125000 0.203125 0.109438
v -0.062500 0.203125 0.109438
v -0.062500 0.296875 0.109375
v -0.125000 0.296875 0.109375
v -0.062500 0.203125 0.109375
v -0.125000 0.203125 0.109375
v -0.062500 0.296875 0.109375
v -0.062500 0.296875 0.109438
v -0.125000 0.296875 0.109375
v -0.125000 0.296875 0.109438
v -0.125000 0.203125 0.109375
v -0.125000 0.203125 0.109438
v -0.062500 0.203125 0.109375
v -0.062500 0.203125 0.109438
v -0.125000 0.296875 0.109375
v -0.125000 0.296875 0.109438
v -0.125000 0.203125 0.109375
v -0.125000 0.203125 0.109438
v -0.062500 0.296875 0.109438
v -0.062500 0.296875 0.109375
v -0.062500 0.203125 0.109438
v -0.062500 0.203125 0.109375
v -0.125000 0.296875 0.015688
v -0.062500 0.296875 0.015688
v -0.125000 0.203125 0.015688
v -0.062500 0.203125 0.015688
v -0.062500 0.296875 0.015625
v -0.125000 0.296875 0.015625
v -0.062500 0.203125 0.015625
v -0.125000 0.203125 0.015625
v -0.062500 0.296875 0.015625
v -0.062500 0.296875 0.015688
v -0.125000 0.296875 0.015625
v -0.125000 0.296875 0.015688
v -0.125000 0.203125 0.015625
v -0.125000 0.203125 0.015688
v -0.062500 0.203125 0.015625
v -0.062500 0.203125 0.015688
v -0.125000 0.296875 0.015625
v -0.125000 0.296875 0.015688
v -0.125000 0.203125 0.015625
v -0.125000 0.203125 0.015688
v -0.062500 0.296875 0.015688
v -0.062500 0.296875 0.015625
v -0.062500 0.203125 0.015688
v -0.062500 0.203125 0.015625
v -0.125000 0.203187 0.109375
v -0.062500 0.203187 0.109375
v -0.125000 0.203125 0.109375
v -0.062500 0.203125 0.109375
v -0.062500 0.203187 0.015625
v -0.125000 0.203187 0.015625
v -0.062500 0.203125 0.015625
v -0.125000 0.203125 0.015625
v -0.062500 0.203187 0.015625
v -0.062500 0.203187 0.109375
v -0.125000 0.203187 0.015625
v -0.125000 0.203187 0.109375
v -0.125000 0.203125 0.015625
v -0.125000 0.203125 0.109375
v -0.062500 0.203125 0.015625
v -0.062500 0.203125 0.109375
v -0.125000 0.203187 0.015625
v -0.125000 0.203187 0.109375
v -0.125000 0.203125 0.015625
v -0.125000 0.203125 0.109375
v -0.062500 0.203187 0.109375
v -0.062500 0.203187 0.015625
v -0.062500 0.203125 0.109375
v -0.062500 0.203125 0.015625
v -0.125000 0.296937 0.109375
v -0.062500 0.296937 0.109375
v -0.125000 0.296875 0.109375
v -0.062500 0.296875 0.109375
v -0.062500 0.296937 0.015625
v -0.125000 0.296937 0.015625
v -0.062500 0.296875 0.015625
v -0.125000 0.296875 0.015625
v -0.062500 0.296937 0.015625
v -0.062500 0.296937 0.109375
v -0.125000 0.296937 0.015625
v -0.125000 0.296937 0.109375
v -0.125000 0.296875 0.015625
v -0.125000 0.296875 0.109375
v -0.062500 0.296875 0.015625
v -0.062500 0.296875 0.109375
v -0.125000 0.296937 0.015625
v -0.125000 0.296937 0.109375
v -0.125000 0.296875 0.015625
v -0.125000 0.296875 0.109375
v -0.062500 0.296937 0.109375
v -0.062500 0.296937 0.015625
v -0.062500 0.296875 0.109375
v -0.062500 0.296875 0.015625
v -0.125062 0.218750 0.093750
v -0.125000 0.218750 0.093750
v -0.125062 0.203125 0.093750
v -0.125000 0.203125 0.093750
v -0.125000 0.218750 0.031250
v -0.125062 0.218750 0.031250
v -0.125000 0.203125 0.031250
v -0.125062 0.203125 0.031250
v -0.125000 0.218750 0.031250
v -0.125000 0.218750 0.093750
v -0.125062 0.218750 0.031250
v -0.125062 0.218750 0.093750
v -0.125062 0.203125 0.031250
v -0.125062 0.203125 0.093750
v -0.125000 0.203125 0.031250
v -0.125000 0.203125 0.093750
v -0.125062 0.218750 0.031250
v -0.125062 0.218750 0.093750
v -0.125062 0.203125 0.031250
v -0.125062 0.203125 0.093750
v -0.125000 0.218750 0.093750
v -0.125000 0.218750 0.031250
v -0.125000 0.203125 0.093750
v -0.125000 0.203125 0.031250
v -0.125062 0.296875 0.093750
v -0.125000 0.296875 0.093750
v -0.125062 0.281250 0.093750
v -0.125000 0.281250 0.093750
v -0.125000 0.296875 0.031250
v -0.125062 0.296875 0.031250
v -0.125000 0.281250 0.031250
v -0.125062 0.281250 0.031250
v -0.125000 0.296875 0.031250
v -0.125000 0.296875 0.093750
v -0.125062 0.296875 0.031250
v -0.125062 0.296875 0.093750
v -0.125062 0.281250 0.031250
v -0.125062 0.281250 0.093750
v -0.125000 0.281250 0.031250
v -0.125000 0.281250 0.093750
v -0.125062 0.296875 0.031250
v -0.125062 0.296875 0.093750
v -0.125062 0.281250 0.031250
v -0.125062 0.281250 0.093750
v -0.125000 0.296875 0.093750
v -0.125000 0.296875 0.031250
v -0.125000 0.281250 0.093750
v -0.125000 0.281250 0.031250
v 0.093750 0.312562 0.125000
v 0.125000 0.312562 0.125000
v 0.093750 0.312500 0.125000
v 0.125000 0.312500 0.125000
v 0.125000 0.312562 -0.000000
v 0.093750 0.312562 -0.000000
v 0.125000 0.312500 -0.000000
v 0.093750 0.312500 -0.000000
v 0.125000 0.312562 -0.000000
v 0.125000 0.312562 0.125000
v 0.093750 0.312562 -0.000000
v 0.093750 0.312562 0.125000
v 0.093750 0.312500 -0.000000
v 0.093750 0.312500 0.125000
v 0.125000 0.312500 -0.000000
v 0.125000 0.312500 0.125000
v 0.093750 0.312562 -0.000000
v 0.093750 0.312562 0.125000
v 0.093750 0.312500 -0.000000
v 0.093750 0.312500 0.125000
v 0.125000 0.312562 0.125000
v 0.125000 0.312562 -0.000000
v 0.125000 0.312500 0.125000
v 0.125000 0.312500 -0.000000
v 0.093750 0.312500 0.000062
v 0.125000 0.312500 0.000062
v 0.093750 0.218750 0.000062
v 0.125000 0.218750 0.000062
v 0.125000 0.312500 -0.000000
v 0.093750 0.312500 -0.000000
v 0.125000 0.218750 -0.000000
v 0.093750 0.218750 -0.000000
v 0.125000 0.312500 -0.000000
v 0.125000 0.312500 0.000062
v 0.093750 0.312500 -0.000000
v 0.093750 0.312500 0.000062
v 0.093750 0.218750 -0.000000
v 0.093750 0.218750 0.000062
v 0.125000 0.218750 -0.000000
v 0.125000 0.218750 0.000062
v 0.093750 0.312500 -0.000000
v 0.093750 0.312500 0.000062
v 0.093750 0.218750 -0.000000
v 0.093750 0.218750 0.000062
v 0.125000 0.312500 0.000062
v 0.125000 0.312500 -0.000000
v 0.125000 0.218750 0.000062
v 0.125000 0.218750 -0.000000
v 0.093750 0.312500 0.125062
v 0.125000 0.312500 0.125062
v 0.093750 0.218750 0.125062
v 0.125000 0.218750 0.125062
v 0.125000 0.312500 0.125000
v 0.093750 0.312500 0.125000
v 0.125000 0.218750 0.125000
v 0.093750 0.218750 0.125000
v 0.125000 0.312500 0.125000
v 0.125000 0.312500 0.125062
v 0.093750 0.312500 0.125000
v 0.093750 0.312500 0.125062
v 0.093750 0.218750 0.125000
v 0.093750 0.218750 0.125062
v 0.125000 0.218750 0.125000
v 0.125000 0.218750 0.125062
v 0.093750 0.312500 0.125000
v 0.093750 0.312500 0.125062
v 0.093750 0.218750 0.125000
v 0.093750 0.218750 0.125062
v 0.125000 0.312500 0.125062
v 0.125000 0.312500 0.125000
v 0.125000 0.218750 0.125062
v 0.125000 0.218750 0.125000
v 0.015625 0.343750 0.093750
v 0.078125 0.343750 0.093750
v 0.015625 0.312500 0.093750
v 0.078125 0.312500 0.093750
v 0.078125 0.343750 0.031250
v 0.015625 0.343750 0.031250
v 0.078125 0.312500 0.031250
v 0.015625 0.312500 0.031250
v 0.078125 0.343750 0.031250
v 0.078125 0.343750 0.093750
v 0.015625 0.343750 0.031250
v 0.015625 0.343750 0.093750
v 0.015625 0.312500 0.031250
v 0.015625 0.312500 0.093750
v 0.078125 0.312500 0.031250
v 0.078125 0.312500 0.093750
v 0.015625 0.343750 0.031250
v 0.015625 0.343750 0.093750
v 0.015625 0.312500 0.031250
v 0.015625 0.312500 0.093750
v 0.078125 0.343750 0.093750
v 0.078125 0.343750 0.031250
v 0.078125 0.312500 0.093750
v 0.078125 0.312500 0.031250
v 0.015625 0.281250 -0.000000
v 0.078125 0.281250 -0.000000
v 0.015625 0.218750 -0.000000
v 0.078125 0.218750 -0.000000
v 0.078125 0.281250 -0.031250
v 0.015625 0.281250 -0.031250
v 0.078125 0.218750 -0.031250
v 0.015625 0.218750 -0.031250
v 0.078125 0.281250 -0.031250
v 0.078125 0.281250 -0.000000
v 0.015625 0.281250 -0.031250
v 0.015625 0.281250 -0.000000
v 0.015625 0.218750 -0.031250
v 0.015625 0.218750 -0.000000
v 0.078125 0.218750 -0.031250
v 0.078125 0.218750 -0.000000
v 0.015625 0.281250 -0.031250
v 0.015625 0.281250 -0.000000
v 0.015625 0.218750 -0.031250
v 0.015625 0.218750 -0.000000
v 0.078125 0.281250 -0.000000
v 0.078125 0.281250 -0.031250
v 0.078125 0.218750 -0.000000
v 0.078125 0.218750 -0.031250
v 0.046875 0.187500 0.125000
v 0.078125 0.187500 0.125000
v 0.046875 0.171875 0.125000
v 0.078125 0.171875 0.125000
v 0.078125 0.187500 -0.000000
v 0.046875 0.187500 -0.000000
v 0.078125 0.171875 -0.000000
v 0.046875 0.171875 -0.000000
v 0.078125 0.187500 -0.000000
v 0.078125 0.187500 0.125000
v 0.046875 0.187500 -0.000000
v 0.046875 0.187500 0.125000
v 0.046875 0.171875 -0.000000
v 0.046875 0.171875 0.125000
v 0.078125 0.171875 -0.000000
v 0.078125 0.171875 0.125000
v 0.046875 0.187500 -0.000000
v 0.046875 0.187500 0.125000
v 0.046875 0.171875 -0.000000
v 0.046875 0.171875 0.125000
v 0.078125 0.187500 0.125000
v 0.078125 0.187500 -0.000000
v 0.078125 0.171875 0.125000
v 0.078125 0.171875 -0.000000
v -0.062500 0.187500 0.125000
v 0.000000 0.187500 0.125000
v -0.062500 0.171875 0.125000
v 0.000000 0.171875 0.125000
v 0.000000 0.187500 0.000000
v -0.062500 0.187500 0.000000
v 0.000000 0.171875 0.000000
v -0.062500 0.171875 0.000000
v 0.000000 0.187500 0.000000
v 0.000000 0.187500 0.125000
v -0.062500 0.187500 0.000000
v -0.062500 0.187500 0.125000
v -0.062500 0.171875 0.000000
v -0.062500 0.171875 0.125000
v 0.000000 0.171875 0.000000
v 0.000000 0.171875 0.125000
v -0.062500 0.187500 0.000000
v -0.062500 0.187500 0.125000
v -0.062500 0.171875 0.000000
v -0.062500 0.171875 0.125000
v 0.000000 0.187500 0.125000
v 0.000000 0.187500 0.000000
v 0.000000 0.171875 0.125000
v 0.000000 0.171875 0.000000
v -0.093750 0.000063 0.000000
v 0.000000 0.000063 0.000000
v -0.093750 0.000000 0.000000
v 0.000000 0.000000 0.000000
v -0.000000 0.000063 -0.031250
v -0.093750 0.000063 -0.031250
v -0.000000 0.000000 -0.031250
v -0.093750 0.000000 -0.031250
v -0.000000 0.000063 -0.031250
v 0.000000 0.000063 0.000000
v -0.093750 0.000063 -0.031250
v -0.093750 0.000063 0.000000
v -0.093750 0.000000 -0.031250
v -0.093750 0.000000 0.000000
v -0.000000 0.000000 -0.031250
v 0.000000 0.000000 0.000000
v -0.093750 0.000063 -0.031250
v -0.093750 0.000063 0.000000
v -0.093750 0.000000 -0.031250
v -0.093750 0.000000 0.000000
v 0.000000 0.000063 0.000000
v -0.000000 0.000063 -0.031250
v 0.000000 0.000000 0.000000
v -0.000000 0.000000 -0.031250
v 0.000000 0.015625 0.000000
v 0.093750 0.015625 -0.000000
v 0.000000 -0.015625 0.000000
v 0.093750 -0.015625 -0.000000
v 0.093750 0.015625 -0.031250
v -0.000000 0.015625 -0.031250
v 0.093750 -0.015625 -0.031250
v -0.000000 -0.015625 -0.031250
v 0.093750 0.015625 -0.031250
v 0.093750 0.015625 -0.000000
v -0.000000 0.015625 -0.031250
v 0.000000 0.015625 0.000000
v -0.000000 -0.015625 -0.031250
v 0.000000 -0.015625 0.000000
v 0.093750 -0.015625 -0.031250
v 0.093750 -0.015625 -0.000000
v -0.000000 0.015625 -0.031250
v 0.000000 0.015625 0.000000
v -0.000000 -0.015625 -0.031250
v 0.000000 -0.015625 0.000000
v 0.093750 0.015625 -0.000000
v 0.093750 0.015625 -0.031250
v 0.093750 -0.015625 -0.000000
v 0.093750 -0.015625 -0.031250
v -0.062500 0.171937 0.125000
v 0.093750 0.171937 0.125000
v -0.062500 0.171875 0.125000
v 0.093750 0.171875 0.125000
v 0.093750 0.171937 -0.000000
v -0.062500 0.171937 0.000000
v 0.093750 0.171875 -0.000000
v -0.062500 0.171875 0.000000
v 0.093750 0.171937 -0.000000
v 0.093750 0.171937 0.125000
v -0.062500 0.171937 0.000000
v -0.062500 0.171937 0.125000
v -0.062500 0.171875 0.000000
v -0.062500 0.171875 0.125000
v 0.093750 0.171875 -0.000000
v 0.093750 0.171875 0.125000
v -0.062500 0.171937 0.000000
v -0.062500 0.171937 0.125000
v -0.062500 0.171875 0.000000
v -0.062500 0.171875 0.125000
v 0.093750 0.171937 0.125000
v 0.093750 0.171937 -0.000000
v 0.093750 0.171875 0.125000
v 0.093750 0.171875 -0.000000
v -0.125062 0.296875 0.109375
v -0.125000 0.296875 0.109375
v -0.125062 0.203125 0.109375
v -0.125000 0.203125 0.109375
v -0.125000 0.296875 0.093750
v -0.125062 0.296875 0.093750
v -0.125000 0.203125 0.093750
v -0.125062 0.203125 0.093750
v -0.125000 0.296875 0.093750
v -0.125000 0.296875 0.109375
v -0.125062 0.296875 0.093750
v -0.125062 0.296875 0.109375
v -0.125062 0.203125 0.093750
v -0.125062 0.203125 0.109375
v -0.125000 0.203125 0.093750
v -0.125000 0.203125 0.109375
v -0.125062 0.296875 0.093750
v -0.125062 0.296875 0.109375
v -0.125062 0.203125 0.093750
v -0.125062 0.203125 0.109375
v -0.125000 0.296875 0.109375
v -0.125000 0.296875 0.093750
v -0.125000 0.203125 0.109375
v -0.125000 0.203125 0.093750
v -0.121937 0.296250 0.108750
v -0.121875 0.296250 0.108750
v -0.121937 0.203750 0.108750
v -0.121875 0.203750 0.108750
v -0.121875 0.296250 0.016250
v -0.121937 0.296250 0.016250
v -0.121875 0.203750 0.016250
v -0.121937 0.203750 0.016250
v -0.121875 0.296250 0.016250
v -0.121875 0.296250 0.108750
v -0.121937 0.296250 0.016250
v -0.121937 0.296250 0.108750
v -0.121937 0.203750 0.016250
v -0.121937 0.203750 0.108750
v -0.121875 0.203750 0.016250
v -0.121875 0.203750 0.108750
v -0.121937 0.296250 0.016250
v -0.121937 0.296250 0.108750
v -0.121937 0.203750 0.016250
v -0.121937 0.203750 0.108750
v -0.121875 0.296250 0.108750
v -0.121875 0.296250 0.016250
v -0.121875 0.203750 0.108750
v -0.121875 0.203750 0.016250
vn -0.0000 -0.0000 1.0000
vn -0.0000 -0.0000 -1.0000
vn -0.0000 1.0000 -0.0000
vn -0.0000 -1.0000 -0.0000
vn -1.0000 -0.0000 -0.0000
vn 1.0000 -0.0000 -0.0000
vt 0.187500 1.000000
vt 0.187500 0.875000
vt 0.375000 1.000000
vt 0.375000 0.875000
vt 0.187500 0.750000
vt 0.375000 0.750000
vt 0.000000 1.000000
vt 0.000000 0.875000
vt 0.375000 0.687500
vt 0.562500 0.750000
vt 0.562500 0.687500
vt 0.312500 0.625000
vt 0.312500 0.562500
vt 0.500000 0.625000
vt 0.500000 0.562500
vt 0.750000 0.750000
vt 0.750000 0.718750
vt 0.562500 0.718750
vt 0.312500 0.437500
vt 0.500000 0.437500
vt 0.312500 0.406250
vt 0.500000 0.406250
vt 0.750000 0.562500
vt 0.750000 0.500000
vt 0.781250 0.562500
vt 0.781250 0.500000
vt 0.750000 0.437500
vt 0.781250 0.437500
vt 0.000000 0.968750
vt 0.187500 0.375000
vt 0.187500 0.250000
vt 0.218750 0.375000
vt 0.218750 0.250000
vt 0.250000 0.375000
vt 0.250000 0.250000
vt 0.281250 0.375000
vt 0.281250 0.250000
vt 0.312500 0.375000
vt 0.312500 0.250000
vt 0.343750 0.375000
vt 0.343750 0.250000
vt 0.625000 0.687500
vt 0.625000 0.562500
vt 0.656250 0.687500
vt 0.656250 0.562500
vt 0.000000 0.750000
vt 0.000000 0.625000
vt 0.156250 0.750000
vt 0.156250 0.625000
vt 0.187500 0.625000
vt 0.343750 0.750000
vt 0.343750 0.625000
vt 0.156250 0.500000
vt 0.000000 0.500000
vt 0.531250 1.000000
vt 0.531250 0.875000
vt 0.500000 0.875000
vt 0.500000 0.750000
vt 0.187500 0.500000
vt 0.312500 0.500000
vt 0.000000 0.906250
vt 0.687500 0.562500
vt 0.687500 0.468750
vt 0.718750 0.562500
vt 0.718750 0.468750
vt 0.500000 0.312500
vt 0.500000 0.218750
vt 0.531250 0.312500
vt 0.531250 0.218750
vt 0.562500 0.562500
vt 0.562500 0.468750
vt 0.625000 0.468750
vt 0.500000 0.343750
vt 0.562500 0.437500
vt 0.562500 0.343750
vt 0.062500 1.000000
vt 0.625000 0.437500
vt 0.625000 0.343750
vt 0.000000 0.375000
vt 0.000000 0.281250
vt 0.062500 0.375000
vt 0.062500 0.281250
vt 0.687500 1.000000
vt 0.625000 1.000000
vt 0.687500 0.906250
vt 0.625000 0.906250
vt 0.125000 0.375000
vt 0.125000 0.281250
vt 0.093750 1.000000
vt 0.187500 0.281250
vt 0.625000 0.875000
vt 0.687500 0.875000
vt 0.625000 0.781250
vt 0.687500 0.781250
vt 0.000000 0.937500
vt 0.750000 0.406250
vt 0.812500 0.437500
vt 0.812500 0.406250
vt 0.750000 0.375000
vt 0.750000 0.343750
vt 0.812500 0.375000
vt 0.812500 0.343750
vt 0.750000 0.312500
vt 0.750000 0.281250
vt 0.812500 0.312500
vt 0.812500 0.281250
vt 0.750000 0.250000
vt 0.750000 0.218750
vt 0.812500 0.250000
vt 0.812500 0.218750
vt 0.031250 1.000000
vt 0.406250 0.375000
vt 0.375000 0.375000
vt 0.406250 0.250000
vt 0.375000 0.250000
vt 0.437500 0.375000
vt 0.468750 0.375000
vt 0.437500 0.250000
vt 0.468750 0.250000
vt 0.125000 1.000000
vt 0.687500 0.312500
vt 0.687500 0.218750
vt 0.718750 0.312500
vt 0.718750 0.218750
vt 0.000000 0.250000
vt 0.000000 0.156250
vt 0.031250 0.250000
vt 0.031250 0.156250
vt 0.750000 1.000000
vt 0.750000 0.906250
vt 0.781250 1.000000
vt 0.781250 0.906250
vt 0.062500 0.250000
vt 0.062500 0.156250
vt 0.093750 0.250000
vt 0.093750 0.156250
vt 0.812500 1.000000
vt 0.812500 0.968750
vt 0.875000 1.000000
vt 0.875000 0.968750
vt 0.125000 0.187500
vt 0.125000 0.156250
vt 0.187500 0.187500
vt 0.187500 0.156250
vt 0.437500 0.687500
vt 0.437500 0.625000
vt 0.375000 0.625000
vt 0.500000 0.687500
vt 0.812500 0.937500
vt 0.812500 0.906250
vt 0.875000 0.937500
vt 0.875000 0.906250
vt 0.250000 0.187500
vt 0.250000 0.156250
vt 0.625000 0.500000
vt 0.687500 0.500000
vt 0.687500 0.437500
vt 0.875000 0.687500
vt 0.812500 0.687500
vt 0.875000 0.656250
vt 0.812500 0.656250
vt 0.375000 0.187500
vt 0.437500 0.187500
vt 0.375000 0.156250
vt 0.437500 0.156250
vt 0.250000 0.125000
vt 0.281250 0.187500
vt 0.281250 0.125000
vt 0.312500 0.187500
vt 0.312500 0.125000
vt 0.343750 0.187500
vt 0.343750 0.125000
vt 0.812500 0.562500
vt 0.812500 0.531250
vt 0.843750 0.562500
vt 0.843750 0.531250
vt 0.500000 0.187500
vt 0.500000 0.156250
vt 0.531250 0.187500
vt 0.531250 0.156250
vt 0.718750 1.000000
vt 0.718750 0.875000
vt 0.968750 1.000000
vt 1.000000 1.000000
vt 0.968750 0.875000
vt 1.000000 0.875000
vt 0.625000 0.406250
vt 0.625000 0.375000
vt 0.812500 0.625000
vt 0.812500 0.593750
vt 0.875000 0.625000
vt 0.875000 0.593750
vt 0.250000 0.500000
vt 0.937500 1.000000
vt 0.937500 0.875000
vt 0.687500 0.687500
vt 0.687500 0.656250
vt 0.687500 0.625000
vt 0.687500 0.593750
vt 0.125000 0.250000
vt 0.218750 0.218750
vt 0.125000 0.218750
vt 0.750000 0.875000
vt 0.843750 0.875000
vt 0.750000 0.843750
vt 0.843750 0.843750
vt 0.750000 0.812500
vt 0.750000 0.781250
vt 0.843750 0.812500
vt 0.843750 0.781250
vt 0.250000 0.218750
vt 0.343750 0.218750
vt 0.843750 0.750000
vt 0.843750 0.718750
vt 0.375000 0.218750
vt 0.468750 0.218750
vt 0.812500 0.500000
vt 0.812500 0.468750
vt 0.843750 0.500000
vt 0.843750 0.468750
vt 0.562500 0.187500
vt 0.562500 0.156250
vt 0.593750 0.187500
vt 0.593750 0.156250
vt 0.031250 0.875000
vt 0.031250 0.750000
vt 0.562500 0.312500
vt 0.562500 0.218750
vt 0.593750 0.312500
vt 0.593750 0.218750
vt 0.625000 0.312500
vt 0.625000 0.218750
vt 0.656250 0.312500
vt 0.656250 0.218750
vt 0.312500 0.468750
vt 0.406250 0.562500
vt 0.406250 0.468750
vt 0.437500 0.562500
vt 0.437500 0.468750
vt 0.531250 0.562500
vt 0.531250 0.468750
s 0
usemtl Material_0
f 49/13/13 51/14/13 50/15/13
f 51/14/13 52/16/13 50/15/13
f 53/14/14 55/17/14 54/16/14
f 55/17/14 56/18/14 54/16/14
f 57/13/15 59/19/15 58/13/15
f 59/19/15 60/19/15 58/13/15
f 61/19/16 63/13/16 62/19/16
f 63/13/16 64/13/16 62/19/16
f 65/19/17 67/20/17 66/19/17
f 67/20/17 68/20/17 66/19/17
f 69/19/18 71/20/18 70/19/18
f 71/20/18 72/20/18 70/19/18
f 73/18/13 75/21/13 74/22/13
f 75/21/13 76/23/13 74/22/13
f 77/24/14 79/25/14 78/26/14
f 79/25/14 80/27/14 78/26/14
f 81/28/15 83/22/15 82/29/15
f 83/22/15 84/30/15 82/29/15
f 85/31/16 87/32/16 86/33/16
f 87/32/16 88/34/16 86/33/16
f 89/35/17 91/36/17 90/37/17
f 91/36/17 92/38/17 90/37/17
f 93/36/18 95/39/18 94/38/18
f 95/39/18 96/40/18 94/38/18
f 97/19/13 99/20/13 98/19/13
f 99/20/13 100/20/13 98/19/13
f 101/19/14 103/20/14 102/19/14
f 103/20/14 104/20/14 102/19/14
f 105/19/15 107/19/15 106/41/15
f 107/19/15 108/41/15 106/41/15
f 109/19/16 111/19/16 110/41/16
f 111/19/16 112/41/16 110/41/16
f 113/42/17 115/43/17 114/44/17
f 115/43/17 116/45/17 114/44/17
f 117/46/18 119/47/18 118/48/18
f 119/47/18 120/49/18 118/48/18
f 121/19/13 123/20/13 122/19/13
f 123/20/13 124/20/13 122/19/13
f 125/19/14 127/20/14 126/19/14
f 127/20/14 128/20/14 126/19/14
f 129/19/15 131/19/15 130/41/15
f 131/19/15 132/41/15 130/41/15
f 133/19/16 135/19/16 134/41/16
f 135/19/16 136/41/16 134/41/16
f 137/50/17 139/51/17 138/52/17
f 139/51/17 140/53/17 138/52/17
f 141/54/18 143/55/18 142/56/18
f 143/55/18 144/57/18 142/56/18
f 145/58/13 147/59/13 146/60/13
f 147/59/13 148/61/13 146/60/13
f 149/17/14 151/62/14 150/63/14
f 151/62/14 152/64/14 150/63/14
f 153/61/15 155/59/15 154/65/15
f 155/59/15 156/66/15 154/65/15
f 157/15/16 159/67/16 158/16/16
f 159/67/16 160/68/16 158/16/16
f 161/16/17 163/18/17 162/69/17
f 163/18/17 164/70/17 162/69/17
f 165/62/18 167/71/18 166/24/18
f 167/71/18 168/72/18 166/24/18
f 169/19/13 171/73/13 170/19/13
f 171/73/13 172/73/13 170/19/13
f 173/19/14 175/73/14 174/19/14
f 175/73/14 176/73/14 174/19/14
f 177/19/15 179/19/15 178/41/15
f 179/19/15 180/41/15 178/41/15
f 181/19/16 183/19/16 182/41/16
f 183/19/16 184/41/16 182/41/16
f 185/74/17 187/75/17 186/76/17
f 187/75/17 188/77/17 186/76/17
f 189/78/18 191/79/18 190/80/18
f 191/79/18 192/81/18 190/80/18
f 193/82/13 195/83/13 194/55/13
f 195/83/13 196/84/13 194/55/13
f 197/32/14 199/85/14 198/86/14
f 199/85/14 200/87/14 198/86/14
f 201/88/15 203/19/15 202/88/15
f 203/19/15 204/19/15 202/88/15
f 205/19/16 207/88/16 206/19/16
f 207/88/16 208/88/16 206/19/16
f 209/19/17 211/73/17 210/19/17
f 211/73/17 212/73/17 210/19/17
f 213/19/18 215/73/18 214/19/18
f 215/73/18 216/73/18 214/19/18
f 217/86/13 219/87/13 218/89/13
f 219/87/13 220/90/13 218/89/13
f 221/91/14 223/92/14 222/93/14
f 223/92/14 224/94/14 222/93/14
f 225/88/15 227/19/15 226/88/15
f 227/19/15 228/19/15 226/88/15
f 229/19/16 231/88/16 230/19/16
f 231/88/16 232/88/16 230/19/16
f 233/19/17 235/73/17 234/19/17
f 235/73/17 236/73/17 234/19/17
f 237/19/18 239/73/18 238/19/18
f 239/73/18 240/73/18 238/19/18
f 241/19/13 243/19/13 242/88/13
f 243/19/13 244/88/13 242/88/13
f 245/19/14 247/19/14 246/88/14
f 247/19/14 248/88/14 246/88/14
f 249/95/15 251/96/15 250/97/15
f 251/96/15 252/98/15 250/97/15
f 253/93/16 255/99/16 254/94/16
f 255/99/16 256/100/16 254/94/16
f 257/19/17 259/19/17 258/101/17
f 259/19/17 260/101/17 258/101/17
f 261/19/18 263/19/18 262/101/18
f 263/19/18 264/101/18 262/101/18
f 265/19/13 267/19/13 266/88/13
f 267/19/13 268/88/13 266/88/13
f 269/19/14 271/19/14 270/88/14
f 271/19/14 272/88/14 270/88/14
f 273/42/15 275/99/15 274/102/15
f 275/99/15 276/100/15 274/102/15
f 277/103/16 279/104/16 278/105/16
f 279/104/16 280/106/16 278/105/16
f 281/19/17 283/19/17 282/101/17
f 283/19/17 284/101/17 282/101/17
f 285/19/18 287/19/18 286/101/18
f 287/19/18 288/101/18 286/101/18
f 289/19/13 291/41/13 290/19/13
f 291/41/13 292/41/13 290/19/13
f 293/19/14 295/41/14 294/19/14
f 295/41/14 296/41/14 294/19/14
f 297/19/15 299/19/15 298/107/15
f 299/19/15 300/107/15 298/107/15
f 301/19/16 303/19/16 302/107/16
f 303/19/16 304/107/16 302/107/16
f 305/39/17 307/108/17 306/109/17
f 307/108/17 308/110/17 306/109/17
f 309/111/18 311/112/18 310/113/18
f 311/112/18 312/114/18 310/113/18
f 313/19/13 315/41/13 314/19/13
f 315/41/13 316/41/13 314/19/13
f 317/19/14 319/41/14 318/19/14
f 319/41/14 320/41/14 318/19/14
f 321/19/15 323/19/15 322/107/15
f 323/19/15 324/107/15 322/107/15
f 325/19/16 327/19/16 326/107/16
f 327/19/16 328/107/16 326/107/16
f 329/115/17 331/116/17 330/117/17
f 331/116/17 332/118/17 330/117/17
f 333/119/18 335/120/18 334/121/18
f 335/120/18 336/122/18 334/121/18
f 337/19/13 339/19/13 338/123/13
f 339/19/13 340/123/13 338/123/13
f 341/19/14 343/19/14 342/123/14
f 343/19/14 344/123/14 342/123/14
f 345/124/15 347/125/15 346/126/15
f 347/125/15 348/127/15 346/126/15
f 349/128/16 351/129/16 350/130/16
f 351/129/16 352/131/16 350/130/16
f 353/19/17 355/19/17 354/132/17
f 355/19/17 356/132/17 354/132/17
f 357/19/18 359/19/18 358/132/18
f 359/19/18 360/132/18 358/132/18
f 361/133/13 363/134/13 362/135/13
f 363/134/13 364/136/13 362/135/13
f 365/137/14 367/138/14 366/139/14
f 367/138/14 368/140/14 366/139/14
f 369/123/15 371/19/15 370/123/15
f 371/19/15 372/19/15 370/123/15
f 373/19/16 375/123/16 374/19/16
f 375/123/16 376/123/16 374/19/16
f 377/19/17 379/73/17 378/19/17
f 379/73/17 380/73/17 378/19/17
f 381/19/18 383/73/18 382/19/18
f 383/73/18 384/73/18 382/19/18
f 385/141/13 387/142/13 386/143/13
f 387/142/13 388/144/13 386/143/13
f 389/145/14 391/146/14 390/147/14
f 391/146/14 392/148/14 390/147/14
f 393/123/15 395/19/15 394/123/15
f 395/19/15 396/19/15 394/123/15
f 397/19/16 399/123/16 398/19/16
f 399/123/16 400/123/16 398/19/16
f 401/19/17 403/73/17 402/19/17
f 403/73/17 404/73/17 402/19/17
f 405/19/18 407/73/18 406/19/18
f 407/73/18 408/73/18 406/19/18
f 409/149/13 411/150/13 410/151/13
f 411/150/13 412/152/13 410/151/13
f 413/153/14 415/154/14 414/155/14
f 415/154/14 416/156/14 414/155/14
f 417/157/15 419/21/15 418/158/15
f 419/21/15 420/159/15 418/158/15
f 421/157/16 423/160/16 422/158/16
f 423/160/16 424/26/16 422/158/16
f 425/161/17 427/162/17 426/163/17
f 427/162/17 428/164/17 426/163/17
f 429/155/18 431/156/18 430/165/18
f 431/156/18 432/166/18 430/165/18
f 433/55/13 435/167/13 434/74/13
f 435/167/13 436/168/13 434/74/13
f 437/167/14 439/89/14 438/168/14
f 439/89/14 440/169/14 438/168/14
f 441/170/15 443/171/15 442/172/15
f 443/171/15 444/173/15 442/172/15
f 445/174/16 447/175/16 446/176/16
f 447/175/16 448/177/16 446/176/16
f 449/165/17 451/178/17 450/179/17
f 451/178/17 452/180/17 450/179/17
f 453/181/18 455/182/18 454/183/18
f 455/182/18 456/184/18 454/183/18
f 457/185/13 459/186/13 458/187/13
f 459/186/13 460/188/13 458/187/13
f 461/189/14 463/190/14 462/191/14
f 463/190/14 464/192/14 462/191/14
f 465/193/15 467/95/15 466/194/15
f 467/95/15 468/104/15 466/194/15
f 469/195/16 471/196/16 470/197/16
f 471/196/16 472/198/16 470/197/16
f 473/89/17 475/199/17 474/39/17
f 475/199/17 476/108/17 474/39/17
f 477/200/18 479/90/18 478/111/18
f 479/90/18 480/112/18 478/111/18
f 481/201/13 483/202/13 482/203/13
f 483/202/13 484/204/13 482/203/13
f 485/175/14 487/177/14 486/189/14
f 487/177/14 488/190/14 486/189/14
f 489/72/15 491/205/15 490/50/15
f 491/205/15 492/46/15 490/50/15
f 493/206/16 495/196/16 494/207/16
f 495/196/16 496/198/16 494/207/16
f 497/208/17 499/209/17 498/171/17
f 499/209/17 500/173/17 498/171/17
f 501/210/18 503/211/18 502/201/18
f 503/211/18 504/202/18 502/201/18
f 505/19/13 507/19/13 506/101/13
f 507/19/13 508/101/13 506/101/13
f 509/19/14 511/19/14 510/101/14
f 511/19/14 512/101/14 510/101/14
f 513/45/15 515/212/15 514/213/15
f 515/212/15 516/214/15 514/213/15
f 517/215/16 519/216/16 518/217/16
f 519/216/16 520/218/16 518/217/16
f 521/19/17 523/19/17 522/123/17
f 523/19/17 524/123/17 522/123/17
f 525/19/18 527/19/18 526/123/18
f 527/19/18 528/123/18 526/123/18
f 529/219/13 531/220/13 530/221/13
f 531/220/13 532/222/13 530/221/13
f 533/47/14 535/223/14 534/53/14
f 535/223/14 536/224/14 534/53/14
f 537/225/15 539/28/15 538/226/15
f 539/28/15 540/29/15 538/226/15
f 541/127/16 543/131/16 542/227/16
f 543/131/16 544/228/16 542/227/16
f 545/229/17 547/230/17 546/231/17
f 547/230/17 548/232/17 546/231/17
f 549/233/18 551/234/18 550/235/18
f 551/234/18 552/236/18 550/235/18
f 553/19/13 555/19/13 554/13/13
f 555/19/13 556/13/13 554/13/13
f 557/19/14 559/19/14 558/13/14
f 559/19/14 560/13/14 558/13/14
f 561/13/15 563/123/15 562/14/15
f 563/123/15 564/237/15 562/14/15
f 565/237/16 567/14/16 566/238/16
f 567/14/16 568/17/16 566/238/16
f 569/19/17 571/19/17 570/132/17
f 571/19/17 572/132/17 570/132/17
f 573/19/18 575/19/18 574/132/18
f 575/19/18 576/132/18 574/132/18
f 577/19/13 579/73/13 578/19/13
f 579/73/13 580/73/13 578/19/13
f 581/19/14 583/73/14 582/19/14
f 583/73/14 584/73/14 582/19/14
f 585/19/15 587/19/15 586/41/15
f 587/19/15 588/41/15 586/41/15
f 589/19/16 591/19/16 590/41/16
f 591/19/16 592/41/16 590/41/16
f 593/239/17 595/240/17 594/241/17
f 595/240/17 596/242/17 594/241/17
f 597/243/18 599/244/18 598/245/18
f 599/244/18 600/246/18 598/245/18
f 601/19/13 603/73/13 602/19/13
f 603/73/13 604/73/13 602/19/13
f 605/19/14 607/73/14 606/19/14
f 607/73/14 608/73/14 606/19/14
f 609/19/15 611/19/15 610/73/15
f 611/19/15 612/73/15 610/73/15
f 613/19/16 615/19/16 614/73/16
f 615/19/16 616/73/16 614/73/16
f 617/25/17 619/247/17 618/248/17
f 619/247/17 620/249/17 618/248/17
f 621/250/18 623/251/18 622/252/18
f 623/251/18 624/253/18 622/252/18
