# Blender 4.3.2
# www.blender.org
mtllib lev.g28stock.mtl
o attachmentModel
v 0.576923 0.576923 5.384615
v 0.576923 0.576923 0.769231
v 0.576923 -0.576923 5.384615
v 0.576923 -0.576923 0.769231
v -0.576923 0.576923 0.769231
v -0.576923 0.576923 5.384615
v -0.576923 -0.576923 0.769231
v -0.576923 -0.576923 5.384615
v -0.576923 0.576923 0.769231
v 0.576923 0.576923 0.769231
v -0.576923 0.576923 5.384615
v 0.576923 0.576923 5.384615
v -0.576923 -0.576923 5.384615
v 0.576923 -0.576923 5.384615
v -0.576923 -0.576923 0.769231
v 0.576923 -0.576923 0.769231
v -0.576923 0.576923 5.384615
v 0.576923 0.576923 5.384615
v -0.576923 -0.576923 5.384615
v 0.576923 -0.576923 5.384615
v 0.576923 0.576923 0.769231
v -0.576923 0.576923 0.769231
v 0.576923 -0.576923 0.769231
v -0.576923 -0.576923 0.769231
v 0.000769 -0.576923 5.000000
v 0.000769 -0.576923 0.769231
v 0.000769 -2.500000 5.000000
v 0.000769 -2.500000 0.769231
v -0.000000 -0.576923 0.769231
v -0.000000 -0.576923 5.000000
v -0.000000 -2.500000 0.769231
v -0.000000 -2.500000 5.000000
v -0.000000 -0.576923 0.769231
v 0.000769 -0.576923 0.769231
v -0.000000 -0.576923 5.000000
v 0.000769 -0.576923 5.000000
v -0.000000 -2.500000 5.000000
v 0.000769 -2.500000 5.000000
v -0.000000 -2.500000 0.769231
v 0.000769 -2.500000 0.769231
v -0.000000 -0.576923 5.000000
v 0.000769 -0.576923 5.000000
v -0.000000 -2.500000 5.000000
v 0.000769 -2.500000 5.000000
v 0.000769 -0.576923 0.769231
v -0.000000 -0.576923 0.769231
v 0.000769 -2.500000 0.769231
v -0.000000 -2.500000 0.769231
v 0.383846 -2.340688 4.390078
v 0.383846 -0.164974 2.214365
v 0.383846 -2.884616 3.846149
v 0.383846 -0.708902 1.670437
v -0.383846 -0.164974 2.214365
v -0.383846 -2.340688 4.390078
v -0.383846 -0.708902 1.670437
v -0.383846 -2.884616 3.846149
v -0.383846 -0.164974 2.214365
v 0.383846 -0.164974 2.214365
v -0.383846 -2.340688 4.390078
v 0.383846 -2.340688 4.390078
v -0.383846 -2.884616 3.846149
v 0.383846 -2.884616 3.846149
v -0.383846 -0.708902 1.670437
v 0.383846 -0.708902 1.670437
v -0.383846 -2.340688 4.390078
v 0.383846 -2.340688 4.390078
v -0.383846 -2.884616 3.846149
v 0.383846 -2.884616 3.846149
v 0.383846 -0.164974 2.214365
v -0.383846 -0.164974 2.214365
v 0.383846 -0.708902 1.670437
v -0.383846 -0.708902 1.670437
v 0.383846 -2.612652 4.662042
v 0.383846 -2.340688 4.390078
v 0.383846 -2.884616 4.390078
v 0.383846 -2.612652 4.118114
v -0.383846 -2.340688 4.390078
v -0.383846 -2.612652 4.662042
v -0.383846 -2.612652 4.118114
v -0.383846 -2.884616 4.390078
v -0.383846 -2.340688 4.390078
v 0.383846 -2.340688 4.390078
v -0.383846 -2.612652 4.662042
v 0.383846 -2.612652 4.662042
v -0.383846 -2.884616 4.390078
v 0.383846 -2.884616 4.390078
v -0.383846 -2.612652 4.118114
v 0.383846 -2.612652 4.118114
v -0.383846 -2.612652 4.662042
v 0.383846 -2.612652 4.662042
v -0.383846 -2.884616 4.390078
v 0.383846 -2.884616 4.390078
v 0.383846 -2.340688 4.390078
v -0.383846 -2.340688 4.390078
v 0.383846 -2.612652 4.118114
v -0.383846 -2.612652 4.118114
v 0.576923 -0.576923 5.384615
v 0.576923 -0.576923 5.000000
v 0.576923 -2.884615 5.384615
v 0.576923 -2.884615 5.000000
v -0.576923 -0.576923 5.000000
v -0.576923 -0.576923 5.384615
v -0.576923 -2.884615 5.000000
v -0.576923 -2.884615 5.384615
v -0.576923 -0.576923 5.000000
v 0.576923 -0.576923 5.000000
v -0.576923 -0.576923 5.384615
v 0.576923 -0.576923 5.384615
v -0.576923 -2.884615 5.384615
v 0.576923 -2.884615 5.384615
v -0.576923 -2.884615 5.000000
v 0.576923 -2.884615 5.000000
v -0.576923 -0.576923 5.384615
v 0.576923 -0.576923 5.384615
v -0.576923 -2.884615 5.384615
v 0.576923 -2.884615 5.384615
v 0.576923 -0.576923 5.000000
v -0.576923 -0.576923 5.000000
v 0.576923 -2.884615 5.000000
v -0.576923 -2.884615 5.000000
v -0.000000 0.543928 0.769231
v -0.000000 0.543928 0.000000
v 0.543928 0.000000 0.769231
v 0.543928 0.000000 0.000000
v -0.543928 -0.000000 0.000000
v -0.543928 -0.000000 0.769231
v 0.000000 -0.543928 0.000000
v 0.000000 -0.543928 0.769231
v -0.543928 -0.000000 0.000000
v -0.000000 0.543928 0.000000
v -0.543928 -0.000000 0.769231
v -0.000000 0.543928 0.769231
v 0.000000 -0.543928 0.769231
v 0.543928 0.000000 0.769231
v 0.000000 -0.543928 0.000000
v 0.543928 0.000000 0.000000
v -0.543928 -0.000000 0.769231
v -0.000000 0.543928 0.769231
v 0.000000 -0.543928 0.769231
v 0.543928 0.000000 0.769231
v -0.000000 0.543928 0.000000
v -0.543928 -0.000000 0.000000
v 0.543928 0.000000 0.000000
v 0.000000 -0.543928 0.000000
v 0.384615 -2.500000 4.999992
v 0.384615 -2.500000 3.846146
v 0.384615 -2.884615 4.999992
v 0.384615 -2.884615 3.846146
v -0.384615 -2.500000 3.846146
v -0.384615 -2.500000 4.999992
v -0.384615 -2.884615 3.846146
v -0.384615 -2.884615 4.999992
v -0.384615 -2.500000 3.846146
v 0.384615 -2.500000 3.846146
v -0.384615 -2.500000 4.999992
v 0.384615 -2.500000 4.999992
v -0.384615 -2.884615 4.999992
v 0.384615 -2.884615 4.999992
v -0.384615 -2.884615 3.846146
v 0.384615 -2.884615 3.846146
v -0.384615 -2.500000 4.999992
v 0.384615 -2.500000 4.999992
v -0.384615 -2.884615 4.999992
v 0.384615 -2.884615 4.999992
v 0.384615 -2.500000 3.846146
v -0.384615 -2.500000 3.846146
v 0.384615 -2.884615 3.846146
v -0.384615 -2.884615 3.846146
v 0.576923 -0.576923 5.000000
v 0.576923 -0.576923 1.538462
v 0.576923 -0.961538 5.000000
v 0.576923 -0.961538 1.538462
v -0.576923 -0.576923 1.538462
v -0.576923 -0.576923 5.000000
v -0.576923 -0.961538 1.538462
v -0.576923 -0.961538 5.000000
v -0.576923 -0.576923 1.538462
v 0.576923 -0.576923 1.538462
v -0.576923 -0.576923 5.000000
v 0.576923 -0.576923 5.000000
v -0.576923 -0.961538 5.000000
v 0.576923 -0.961538 5.000000
v -0.576923 -0.961538 1.538462
v 0.576923 -0.961538 1.538462
v -0.576923 -0.576923 5.000000
v 0.576923 -0.576923 5.000000
v -0.576923 -0.961538 5.000000
v 0.576923 -0.961538 5.000000
v 0.576923 -0.576923 1.538462
v -0.576923 -0.576923 1.538462
v 0.576923 -0.961538 1.538462
v -0.576923 -0.961538 1.538462
v -0.768462 0.769231 5.000000
v -0.768462 0.769231 2.692308
v -0.768462 -1.153846 5.000000
v -0.768462 -1.153846 2.692308
v -0.769231 0.769231 2.692308
v -0.769231 0.769231 5.000000
v -0.769231 -1.153846 2.692308
v -0.769231 -1.153846 5.000000
v -0.769231 0.769231 2.692308
v -0.768462 0.769231 2.692308
v -0.769231 0.769231 5.000000
v -0.768462 0.769231 5.000000
v -0.769231 -1.153846 5.000000
v -0.768462 -1.153846 5.000000
v -0.769231 -1.153846 2.692308
v -0.768462 -1.153846 2.692308
v -0.769231 0.769231 5.000000
v -0.768462 0.769231 5.000000
v -0.769231 -1.153846 5.000000
v -0.768462 -1.153846 5.000000
v -0.768462 0.769231 2.692308
v -0.769231 0.769231 2.692308
v -0.768462 -1.153846 2.692308
v -0.769231 -1.153846 2.692308
v 0.769231 0.770000 5.000000
v 0.769231 0.770000 2.692308
v 0.769231 0.769231 5.000000
v 0.769231 0.769231 2.692308
v -0.769231 0.770000 2.692308
v -0.769231 0.770000 5.000000
v -0.769231 0.769231 2.692308
v -0.769231 0.769231 5.000000
v -0.769231 0.770000 2.692308
v 0.769231 0.770000 2.692308
v -0.769231 0.770000 5.000000
v 0.769231 0.770000 5.000000
v -0.769231 0.769231 5.000000
v 0.769231 0.769231 5.000000
v -0.769231 0.769231 2.692308
v 0.769231 0.769231 2.692308
v -0.769231 0.770000 5.000000
v 0.769231 0.770000 5.000000
v -0.769231 0.769231 5.000000
v 0.769231 0.769231 5.000000
v 0.769231 0.770000 2.692308
v -0.769231 0.770000 2.692308
v 0.769231 0.769231 2.692308
v -0.769231 0.769231 2.692308
v 0.770000 0.769231 5.000000
v 0.770000 0.769231 2.692308
v 0.770000 -1.153846 5.000000
v 0.770000 -1.153846 2.692308
v 0.769231 0.769231 2.692308
v 0.769231 0.769231 5.000000
v 0.769231 -1.153846 2.692308
v 0.769231 -1.153846 5.000000
v 0.769231 0.769231 2.692308
v 0.770000 0.769231 2.692308
v 0.769231 0.769231 5.000000
v 0.770000 0.769231 5.000000
v 0.769231 -1.153846 5.000000
v 0.770000 -1.153846 5.000000
v 0.769231 -1.153846 2.692308
v 0.770000 -1.153846 2.692308
v 0.769231 0.769231 5.000000
v 0.770000 0.769231 5.000000
v 0.769231 -1.153846 5.000000
v 0.770000 -1.153846 5.000000
v 0.770000 0.769231 2.692308
v 0.769231 0.769231 2.692308
v 0.770000 -1.153846 2.692308
v 0.769231 -1.153846 2.692308
v 0.769231 0.769231 3.077692
v 0.769231 0.769231 3.076923
v 0.769231 -1.153846 3.077692
v 0.769231 -1.153846 3.076923
v -0.769231 0.769231 3.076923
v -0.769231 0.769231 3.077692
v -0.769231 -1.153846 3.076923
v -0.769231 -1.153846 3.077692
v -0.769231 0.769231 3.076923
v 0.769231 0.769231 3.076923
v -0.769231 0.769231 3.077692
v 0.769231 0.769231 3.077692
v -0.769231 -1.153846 3.077692
v 0.769231 -1.153846 3.077692
v -0.769231 -1.153846 3.076923
v 0.769231 -1.153846 3.076923
v -0.769231 0.769231 3.077692
v 0.769231 0.769231 3.077692
v -0.769231 -1.153846 3.077692
v 0.769231 -1.153846 3.077692
v 0.769231 0.769231 3.076923
v -0.769231 0.769231 3.076923
v 0.769231 -1.153846 3.076923
v -0.769231 -1.153846 3.076923
v 0.769231 0.769231 4.616154
v 0.769231 0.769231 4.615385
v 0.769231 -1.153846 4.616154
v 0.769231 -1.153846 4.615385
v -0.769231 0.769231 4.615385
v -0.769231 0.769231 4.616154
v -0.769231 -1.153846 4.615385
v -0.769231 -1.153846 4.616154
v -0.769231 0.769231 4.615385
v 0.769231 0.769231 4.615385
v -0.769231 0.769231 4.616154
v 0.769231 0.769231 4.616154
v -0.769231 -1.153846 4.616154
v 0.769231 -1.153846 4.616154
v -0.769231 -1.153846 4.615385
v 0.769231 -1.153846 4.615385
v -0.769231 0.769231 4.616154
v 0.769231 0.769231 4.616154
v -0.769231 -1.153846 4.616154
v 0.769231 -1.153846 4.616154
v 0.769231 0.769231 4.615385
v -0.769231 0.769231 4.615385
v 0.769231 -1.153846 4.615385
v -0.769231 -1.153846 4.615385
vn 1.0000 -0.0000 -0.0000
vn -1.0000 -0.0000 -0.0000
vn -0.0000 1.0000 -0.0000
vn -0.0000 -1.0000 -0.0000
vn -0.0000 -0.0000 1.0000
vn -0.0000 -0.0000 -1.0000
vn -0.0000 0.7071 0.7071
vn -0.0000 -0.7071 -0.7071
vn -0.0000 -0.7071 0.7071
vn -0.0000 0.7071 -0.7071
vn 0.7071 0.7071 -0.0000
vn -0.7071 -0.7071 -0.0000
vn -0.7071 0.7071 -0.0000
vn 0.7071 -0.7071 -0.0000
vt 0.000000 0.812500
vt 0.000000 0.765625
vt 0.187500 0.812500
vt 0.187500 0.765625
vt 0.187500 1.000000
vt 0.187500 0.953125
vt 0.375000 1.000000
vt 0.375000 0.953125
vt 0.234375 0.750000
vt 0.234375 0.937500
vt 0.187500 0.750000
vt 0.187500 0.937500
vt 0.046875 0.750000
vt 0.046875 0.562500
vt 0.000000 0.750000
vt 0.000000 0.562500
vt 0.312500 0.593750
vt 0.312500 0.546875
vt 0.359375 0.593750
vt 0.359375 0.546875
vt 0.406250 0.843750
vt 0.406250 0.796875
vt 0.453125 0.843750
vt 0.453125 0.796875
vt 0.000000 1.000000
vt 0.000000 0.921875
vt 0.171875 1.000000
vt 0.171875 0.921875
vt 0.000000 0.906250
vt 0.000000 0.828125
vt 0.171875 0.906250
vt 0.171875 0.828125
vt 0.406250 0.906250
vt 0.406250 0.875000
vt 0.531250 0.906250
vt 0.531250 0.875000
vt 0.531250 0.843750
vt 0.281250 0.468750
vt 0.281250 0.593750
vt 0.250000 0.468750
vt 0.250000 0.593750
vt 0.312500 0.468750
vt 0.437500 0.718750
vt 0.437500 0.687500
vt 0.468750 0.718750
vt 0.468750 0.687500
vt 0.437500 0.750000
vt 0.468750 0.750000
vt 0.468750 0.671875
vt 0.484375 0.687500
vt 0.484375 0.671875
vt 0.343750 0.531250
vt 0.343750 0.515625
vt 0.359375 0.531250
vt 0.359375 0.515625
vt 0.500000 0.796875
vt 0.500000 0.812500
vt 0.468750 0.796875
vt 0.468750 0.812500
vt 0.500000 0.750000
vt 0.500000 0.734375
vt 0.468750 0.734375
vt 0.468750 0.843750
vt 0.468750 0.828125
vt 0.500000 0.843750
vt 0.500000 0.828125
vt 0.125000 0.531250
vt 0.125000 0.515625
vt 0.156250 0.531250
vt 0.156250 0.515625
vt 0.156250 0.562500
vt 0.156250 0.468750
vt 0.171875 0.562500
vt 0.171875 0.468750
vt 0.187500 0.562500
vt 0.187500 0.468750
vt 0.203125 0.562500
vt 0.203125 0.468750
vt 0.515625 0.984375
vt 0.515625 1.000000
vt 0.468750 0.984375
vt 0.468750 1.000000
vt 0.515625 0.968750
vt 0.515625 0.953125
vt 0.468750 0.968750
vt 0.468750 0.953125
vt 0.406250 1.000000
vt 0.453125 1.000000
vt 0.453125 0.906250
vt 0.375000 0.656250
vt 0.375000 0.562500
vt 0.421875 0.656250
vt 0.421875 0.562500
vt 0.437500 0.656250
vt 0.437500 0.625000
vt 0.468750 0.656250
vt 0.468750 0.625000
vt 0.437500 0.593750
vt 0.468750 0.593750
vt 0.437500 0.531250
vt 0.437500 0.562500
vt 0.406250 0.531250
vt 0.406250 0.562500
vt 0.468750 0.562500
vt 0.375000 0.531250
vt 0.062500 0.531250
vt 0.062500 0.515625
vt 0.109375 0.531250
vt 0.109375 0.515625
vt 0.468750 0.937500
vt 0.468750 0.921875
vt 0.515625 0.937500
vt 0.515625 0.921875
vt 0.406250 0.953125
vt 0.250000 0.562500
vt 0.250000 0.515625
vt 0.218750 0.562500
vt 0.218750 0.515625
vt 0.312500 0.531250
vt 0.312500 0.515625
vt 0.468750 0.703125
vt 0.500000 0.718750
vt 0.500000 0.703125
vt 0.406250 0.781250
vt 0.406250 0.765625
vt 0.546875 0.781250
vt 0.546875 0.765625
vt 0.000000 0.546875
vt 0.140625 0.562500
vt 0.140625 0.546875
vt 0.296875 0.609375
vt 0.296875 0.750000
vt 0.250000 0.609375
vt 0.250000 0.750000
vt 0.359375 0.750000
vt 0.359375 0.609375
vt 0.312500 0.750000
vt 0.312500 0.609375
vt 0.000000 0.531250
vt 0.000000 0.515625
vt 0.046875 0.531250
vt 0.046875 0.515625
vt 0.437500 0.546875
vt 0.484375 0.562500
vt 0.484375 0.546875
vt 0.062500 0.750000
vt 0.062500 0.671875
vt 0.156250 0.750000
vt 0.156250 0.671875
vt 0.250000 0.937500
vt 0.250000 0.859375
vt 0.343750 0.937500
vt 0.343750 0.859375
vt 0.093750 1.000000
vt 0.125000 0.562500
vt 0.125000 0.656250
vt 0.062500 0.562500
vt 0.062500 0.656250
vt 0.406250 0.937500
vt 0.343750 0.843750
vt 0.062500 1.000000
vt 0.250000 0.671875
vt 0.250000 0.843750
vt 0.250000 0.765625
vt 0.343750 0.765625
vt 0.375000 0.750000
vt 0.375000 0.671875
vt 0.437500 0.671875
vt 0.187500 0.656250
vt 0.187500 0.578125
vt 0.250000 0.656250
vt 0.250000 0.578125
vt 0.125000 0.578125
s 0
usemtl Material_0.003
f 1/1/1 3/2/1 2/3/1
f 3/2/1 4/4/1 2/3/1
f 5/5/2 7/6/2 6/7/2
f 7/6/2 8/8/2 6/7/2
f 9/9/3 11/10/3 10/11/3
f 11/10/3 12/12/3 10/11/3
f 13/13/4 15/14/4 14/15/4
f 15/14/4 16/16/4 14/15/4
f 17/17/5 19/18/5 18/19/5
f 19/18/5 20/20/5 18/19/5
f 21/21/6 23/22/6 22/23/6
f 23/22/6 24/24/6 22/23/6
f 25/25/1 27/26/1 26/27/1
f 27/26/1 28/28/1 26/27/1
f 29/29/2 31/30/2 30/31/2
f 31/30/2 32/32/2 30/31/2
f 33/30/3 35/25/3 34/30/3
f 35/25/3 36/25/3 34/30/3
f 37/25/4 39/30/4 38/25/4
f 39/30/4 40/30/4 38/25/4
f 41/25/5 43/26/5 42/25/5
f 43/26/5 44/26/5 42/25/5
f 45/25/6 47/26/6 46/25/6
f 47/26/6 48/26/6 46/25/6
f 49/33/1 51/34/1 50/35/1
f 51/34/1 52/36/1 50/35/1
f 53/34/2 55/21/2 54/36/2
f 55/21/2 56/37/2 54/36/2
f 57/38/7 59/39/7 58/40/7
f 59/39/7 60/41/7 58/40/7
f 61/17/8 63/42/8 62/39/8
f 63/42/8 64/38/8 62/39/8
f 65/43/9 67/44/9 66/45/9
f 67/44/9 68/46/9 66/45/9
f 69/47/10 71/43/10 70/48/10
f 71/43/10 72/45/10 70/48/10
f 73/46/1 75/49/1 74/50/1
f 75/49/1 76/51/1 74/50/1
f 77/52/2 79/53/2 78/54/2
f 79/53/2 80/55/2 78/54/2
f 81/56/7 83/57/7 82/58/7
f 83/57/7 84/59/7 82/58/7
f 85/60/8 87/61/8 86/48/8
f 87/61/8 88/62/8 86/48/8
f 89/63/9 91/64/9 90/65/9
f 91/64/9 92/66/9 90/65/9
f 93/67/10 95/68/10 94/69/10
f 95/68/10 96/70/10 94/69/10
f 97/71/1 99/72/1 98/73/1
f 99/72/1 100/74/1 98/73/1
f 101/75/2 103/76/2 102/77/2
f 103/76/2 104/78/2 102/77/2
f 105/79/3 107/80/3 106/81/3
f 107/80/3 108/82/3 106/81/3
f 109/83/4 111/84/4 110/85/4
f 111/84/4 112/86/4 110/85/4
f 113/87/5 115/33/5 114/88/5
f 115/33/5 116/89/5 114/88/5
f 117/90/6 119/91/6 118/92/6
f 119/91/6 120/93/6 118/92/6
f 121/94/11 123/95/11 122/96/11
f 123/95/11 124/97/11 122/96/11
f 125/95/12 127/98/12 126/97/12
f 127/98/12 128/99/12 126/97/12
f 129/100/13 131/101/13 130/102/13
f 131/101/13 132/103/13 130/102/13
f 133/99/14 135/104/14 134/98/14
f 135/104/14 136/101/14 134/98/14
f 137/91/5 139/105/5 138/103/5
f 139/105/5 140/102/5 138/103/5
f 141/44/6 143/94/6 142/46/6
f 143/94/6 144/96/6 142/46/6
f 145/106/1 147/107/1 146/108/1
f 147/107/1 148/109/1 146/108/1
f 149/110/2 151/111/2 150/112/2
f 151/111/2 152/113/2 150/112/2
f 153/114/3 155/87/3 154/8/3
f 155/87/3 156/7/3 154/8/3
f 157/115/4 159/116/4 158/117/4
f 159/116/4 160/118/4 158/117/4
f 161/119/5 163/120/5 162/52/5
f 163/120/5 164/53/5 162/52/5
f 165/45/6 167/121/6 166/122/6
f 167/121/6 168/123/6 166/122/6
f 169/124/1 171/125/1 170/126/1
f 171/125/1 172/127/1 170/126/1
f 173/16/2 175/128/2 174/129/2
f 175/128/2 176/130/2 174/129/2
f 177/131/3 179/132/3 178/133/3
f 179/132/3 180/134/3 178/133/3
f 181/135/4 183/136/4 182/137/4
f 183/136/4 184/138/4 182/137/4
f 185/139/5 187/140/5 186/141/5
f 187/140/5 188/142/5 186/141/5
f 189/101/6 191/143/6 190/144/6
f 191/143/6 192/145/6 190/144/6
f 193/146/1 195/147/1 194/148/1
f 195/147/1 196/149/1 194/148/1
f 197/150/2 199/151/2 198/152/2
f 199/151/2 200/153/2 198/152/2
f 201/29/3 203/25/3 202/29/3
f 203/25/3 204/25/3 202/29/3
f 205/25/4 207/29/4 206/25/4
f 207/29/4 208/29/4 206/25/4
f 209/25/5 211/26/5 210/25/5
f 211/26/5 212/26/5 210/25/5
f 213/25/6 215/26/6 214/25/6
f 215/26/6 216/26/6 214/25/6
f 217/25/1 219/25/1 218/154/1
f 219/25/1 220/154/1 218/154/1
f 221/25/2 223/25/2 222/154/2
f 223/25/2 224/154/2 222/154/2
f 225/155/3 227/156/3 226/157/3
f 227/156/3 228/158/3 226/157/3
f 229/159/4 231/21/4 230/152/4
f 231/21/4 232/160/4 230/152/4
f 233/25/5 235/25/5 234/161/5
f 235/25/5 236/161/5 234/161/5
f 237/25/6 239/25/6 238/161/6
f 239/25/6 240/161/6 238/161/6
f 241/148/1 243/149/1 242/134/1
f 243/149/1 244/162/1 242/134/1
f 245/163/2 247/164/2 246/160/2
f 247/164/2 248/165/2 246/160/2
f 249/29/3 251/25/3 250/29/3
f 251/25/3 252/25/3 250/29/3
f 253/25/4 255/29/4 254/25/4
f 255/29/4 256/29/4 254/25/4
f 257/25/5 259/26/5 258/25/5
f 259/26/5 260/26/5 258/25/5
f 261/25/6 263/26/6 262/25/6
f 263/26/6 264/26/6 262/25/6
f 265/25/1 267/26/1 266/25/1
f 267/26/1 268/26/1 266/25/1
f 269/25/2 271/26/2 270/25/2
f 271/26/2 272/26/2 270/25/2
f 273/161/3 275/161/3 274/25/3
f 275/161/3 276/25/3 274/25/3
f 277/161/4 279/161/4 278/25/4
f 279/161/4 280/25/4 278/25/4
f 281/166/5 283/167/5 282/47/5
f 283/167/5 284/168/5 282/47/5
f 285/169/6 287/170/6 286/171/6
f 287/170/6 288/172/6 286/171/6
f 289/25/1 291/26/1 290/25/1
f 291/26/1 292/26/1 290/25/1
f 293/25/2 295/26/2 294/25/2
f 295/26/2 296/26/2 294/25/2
f 297/161/3 299/161/3 298/25/3
f 299/161/3 300/25/3 298/25/3
f 301/161/4 303/161/4 302/25/4
f 303/161/4 304/25/4 302/25/4
f 305/160/5 307/165/5 306/21/5
f 307/165/5 308/125/5 306/21/5
f 309/156/6 311/173/6 310/169/6
f 311/173/6 312/170/6 310/169/6
