# Blender 4.5.4 LTS
# www.blender.org
mtllib lev.m700ataics.mtl
o attachmentModel
v 0.673077 -0.384615 5.000000
v 0.673077 -0.384615 0.000000
v 0.673077 -1.538462 5.000000
v 0.673077 -1.538462 0.000000
v -0.673077 -0.384615 0.000000
v -0.673077 -0.384615 5.000000
v -0.673077 -1.538462 0.000000
v -0.673077 -1.538462 5.000000
v -0.673077 -0.384615 0.000000
v 0.673077 -0.384615 0.000000
v -0.673077 -0.384615 5.000000
v 0.673077 -0.384615 5.000000
v -0.673077 -1.538462 5.000000
v 0.673077 -1.538462 5.000000
v -0.673077 -1.538462 0.000000
v 0.673077 -1.538462 0.000000
v -0.673077 -0.384615 5.000000
v 0.673077 -0.384615 5.000000
v -0.673077 -1.538462 5.000000
v 0.673077 -1.538462 5.000000
v 0.673077 -0.384615 0.000000
v -0.673077 -0.384615 0.000000
v 0.673077 -1.538462 0.000000
v -0.673077 -1.538462 0.000000
v 0.673077 -0.384615 0.000000
v 0.673077 -0.384615 -6.538462
v 0.673077 -1.538462 0.000000
v 0.673077 -1.538462 -6.538462
v -0.673077 -0.384615 -6.538462
v -0.673077 -0.384615 0.000000
v -0.673077 -1.538462 -6.538462
v -0.673077 -1.538462 0.000000
v -0.673077 -0.384615 -6.538462
v 0.673077 -0.384615 -6.538462
v -0.673077 -0.384615 0.000000
v 0.673077 -0.384615 0.000000
v -0.673077 -1.538462 0.000000
v 0.673077 -1.538462 0.000000
v -0.673077 -1.538462 -6.538462
v 0.673077 -1.538462 -6.538462
v -0.673077 -0.384615 0.000000
v 0.673077 -0.384615 0.000000
v -0.673077 -1.538462 0.000000
v 0.673077 -1.538462 0.000000
v 0.673077 -0.384615 -6.538462
v -0.673077 -0.384615 -6.538462
v 0.673077 -1.538462 -6.538462
v -0.673077 -1.538462 -6.538462
v 0.673077 -0.384615 12.692307
v 0.673077 -0.384615 5.000000
v 0.673077 -1.538462 12.692307
v 0.673077 -1.538462 5.000000
v -0.673077 -0.384615 5.000000
v -0.673077 -0.384615 12.692307
v -0.673077 -1.538462 5.000000
v -0.673077 -1.538462 12.692307
v -0.673077 -0.384615 5.000000
v 0.673077 -0.384615 5.000000
v -0.673077 -0.384615 12.692307
v 0.673077 -0.384615 12.692307
v -0.673077 -1.538462 12.692307
v 0.673077 -1.538462 12.692307
v -0.673077 -1.538462 5.000000
v 0.673077 -1.538462 5.000000
v -0.673077 -0.384615 12.692307
v 0.673077 -0.384615 12.692307
v -0.673077 -1.538462 12.692307
v 0.673077 -1.538462 12.692307
v 0.673077 -0.384615 5.000000
v -0.673077 -0.384615 5.000000
v 0.673077 -1.538462 5.000000
v -0.673077 -1.538462 5.000000
v 0.576923 -0.192308 13.846154
v 0.576923 -0.192308 12.692307
v 0.576923 -3.269231 13.846154
v 0.576923 -3.269231 12.692307
v -0.576923 -0.192308 12.692307
v -0.576923 -0.192308 13.846154
v -0.576923 -3.269231 12.692307
v -0.576923 -3.269231 13.846154
v -0.576923 -0.192308 12.692307
v 0.576923 -0.192308 12.692307
v -0.576923 -0.192308 13.846154
v 0.576923 -0.192308 13.846154
v -0.576923 -3.269231 13.846154
v 0.576923 -3.269231 13.846154
v -0.576923 -3.269231 12.692307
v 0.576923 -3.269231 12.692307
v -0.576923 -0.192308 13.846154
v 0.576923 -0.192308 13.846154
v -0.576923 -3.269231 13.846154
v 0.576923 -3.269231 13.846154
v 0.576923 -0.192308 12.692307
v -0.576923 -0.192308 12.692307
v 0.576923 -3.269231 12.692307
v -0.576923 -3.269231 12.692307
v 0.576923 -1.538462 -3.846154
v 0.576923 -1.538462 -5.769231
v 0.576923 -1.923077 -3.846154
v 0.576923 -1.923077 -5.769231
v -0.576923 -1.538462 -5.769231
v -0.576923 -1.538462 -3.846154
v -0.576923 -1.923077 -5.769231
v -0.576923 -1.923077 -3.846154
v -0.576923 -1.538462 -5.769231
v 0.576923 -1.538462 -5.769231
v -0.576923 -1.538462 -3.846154
v 0.576923 -1.538462 -3.846154
v -0.576923 -1.923077 -3.846154
v 0.576923 -1.923077 -3.846154
v -0.576923 -1.923077 -5.769231
v 0.576923 -1.923077 -5.769231
v -0.576923 -1.538462 -3.846154
v 0.576923 -1.538462 -3.846154
v -0.576923 -1.923077 -3.846154
v 0.576923 -1.923077 -3.846154
v 0.576923 -1.538462 -5.769231
v -0.576923 -1.538462 -5.769231
v 0.576923 -1.923077 -5.769231
v -0.576923 -1.923077 -5.769231
v 0.385385 -1.923077 -3.846154
v 0.385385 -1.923077 -5.769231
v 0.385385 -2.692308 -3.846154
v 0.385385 -2.692308 -5.769231
v 0.384615 -1.923077 -5.769231
v 0.384615 -1.923077 -3.846154
v 0.384615 -2.692308 -5.769231
v 0.384615 -2.692308 -3.846154
v 0.384615 -1.923077 -5.769231
v 0.385385 -1.923077 -5.769231
v 0.384615 -1.923077 -3.846154
v 0.385385 -1.923077 -3.846154
v 0.384615 -2.692308 -3.846154
v 0.385385 -2.692308 -3.846154
v 0.384615 -2.692308 -5.769231
v 0.385385 -2.692308 -5.769231
v 0.384615 -1.923077 -3.846154
v 0.385385 -1.923077 -3.846154
v 0.384615 -2.692308 -3.846154
v 0.385385 -2.692308 -3.846154
v 0.385385 -1.923077 -5.769231
v 0.384615 -1.923077 -5.769231
v 0.385385 -2.692308 -5.769231
v 0.384615 -2.692308 -5.769231
v -0.383905 -2.307986 -3.846154
v -0.383905 -2.307986 -5.769231
v -1.561393 -5.150692 -3.846154
v -1.561393 -5.150692 -5.769231
v -0.384616 -2.307692 -5.769231
v -0.384616 -2.307692 -3.846154
v -1.562103 -5.150398 -5.769231
v -1.562103 -5.150398 -3.846154
v -0.384616 -2.307692 -5.769231
v -0.383905 -2.307986 -5.769231
v -0.384616 -2.307692 -3.846154
v -0.383905 -2.307986 -3.846154
v -1.562103 -5.150398 -3.846154
v -1.561393 -5.150692 -3.846154
v -1.562103 -5.150398 -5.769231
v -1.561393 -5.150692 -5.769231
v -0.384616 -2.307692 -3.846154
v -0.383905 -2.307986 -3.846154
v -1.562103 -5.150398 -3.846154
v -1.561393 -5.150692 -3.846154
v -0.383905 -2.307986 -5.769231
v -0.384616 -2.307692 -5.769231
v -1.561393 -5.150692 -5.769231
v -1.562103 -5.150398 -5.769231
v -0.383846 -1.923077 -3.846154
v -0.383846 -1.923077 -5.769231
v -0.383846 -2.692308 -3.846154
v -0.383846 -2.692308 -5.769231
v -0.384615 -1.923077 -5.769231
v -0.384615 -1.923077 -3.846154
v -0.384615 -2.692308 -5.769231
v -0.384615 -2.692308 -3.846154
v -0.384615 -1.923077 -5.769231
v -0.383846 -1.923077 -5.769231
v -0.384615 -1.923077 -3.846154
v -0.383846 -1.923077 -3.846154
v -0.384615 -2.692308 -3.846154
v -0.383846 -2.692308 -3.846154
v -0.384615 -2.692308 -5.769231
v -0.383846 -2.692308 -5.769231
v -0.384615 -1.923077 -3.846154
v -0.383846 -1.923077 -3.846154
v -0.384615 -2.692308 -3.846154
v -0.383846 -2.692308 -3.846154
v -0.383846 -1.923077 -5.769231
v -0.384615 -1.923077 -5.769231
v -0.383846 -2.692308 -5.769231
v -0.384615 -2.692308 -5.769231
v 0.385327 -2.307397 -3.846154
v 0.385327 -2.307397 -5.769231
v 1.562814 -5.150104 -3.846154
v 1.562814 -5.150104 -5.769231
v 0.384616 -2.307692 -5.769231
v 0.384616 -2.307692 -3.846154
v 1.562103 -5.150398 -5.769231
v 1.562103 -5.150398 -3.846154
v 0.384616 -2.307692 -5.769231
v 0.385327 -2.307397 -5.769231
v 0.384616 -2.307692 -3.846154
v 0.385327 -2.307397 -3.846154
v 1.562103 -5.150398 -3.846154
v 1.562814 -5.150104 -3.846154
v 1.562103 -5.150398 -5.769231
v 1.562814 -5.150104 -5.769231
v 0.384616 -2.307692 -3.846154
v 0.385327 -2.307397 -3.846154
v 1.562103 -5.150398 -3.846154
v 1.562814 -5.150104 -3.846154
v 0.385327 -2.307397 -5.769231
v 0.384616 -2.307692 -5.769231
v 1.562814 -5.150104 -5.769231
v 1.562103 -5.150398 -5.769231
v 0.384615 -1.923077 -4.999231
v 0.384615 -1.923077 -5.000000
v 0.384615 -2.692308 -4.999231
v 0.384615 -2.692308 -5.000000
v -0.384615 -1.923077 -5.000000
v -0.384615 -1.923077 -4.999231
v -0.384615 -2.692308 -5.000000
v -0.384615 -2.692308 -4.999231
v -0.384615 -1.923077 -5.000000
v 0.384615 -1.923077 -5.000000
v -0.384615 -1.923077 -4.999231
v 0.384615 -1.923077 -4.999231
v -0.384615 -2.692308 -4.999231
v 0.384615 -2.692308 -4.999231
v -0.384615 -2.692308 -5.000000
v 0.384615 -2.692308 -5.000000
v -0.384615 -1.923077 -4.999231
v 0.384615 -1.923077 -4.999231
v -0.384615 -2.692308 -4.999231
v 0.384615 -2.692308 -4.999231
v 0.384615 -1.923077 -5.000000
v -0.384615 -1.923077 -5.000000
v 0.384615 -2.692308 -5.000000
v -0.384615 -2.692308 -5.000000
v 0.000769 -1.538462 6.538462
v 0.000769 -1.538462 4.615385
v 0.000769 -2.692308 6.538462
v 0.000769 -2.692308 4.615385
v 0.000000 -1.538462 4.615385
v 0.000000 -1.538462 6.538462
v 0.000000 -2.692308 4.615385
v 0.000000 -2.692308 6.538462
v 0.000000 -1.538462 4.615385
v 0.000769 -1.538462 4.615385
v 0.000000 -1.538462 6.538462
v 0.000769 -1.538462 6.538462
v 0.000000 -2.692308 6.538462
v 0.000769 -2.692308 6.538462
v 0.000000 -2.692308 4.615385
v 0.000769 -2.692308 4.615385
v 0.000000 -1.538462 6.538462
v 0.000769 -1.538462 6.538462
v 0.000000 -2.692308 6.538462
v 0.000769 -2.692308 6.538462
v 0.000769 -1.538462 4.615385
v 0.000000 -1.538462 4.615385
v 0.000769 -2.692308 4.615385
v 0.000000 -2.692308 4.615385
v -0.672308 -1.538462 4.807693
v -0.672308 -1.538462 1.730769
v -0.672308 -2.307692 4.807693
v -0.672308 -2.307692 1.730769
v -0.673077 -1.538462 1.730769
v -0.673077 -1.538462 4.807693
v -0.673077 -2.307692 1.730769
v -0.673077 -2.307692 4.807693
v -0.673077 -1.538462 1.730769
v -0.672308 -1.538462 1.730769
v -0.673077 -1.538462 4.807693
v -0.672308 -1.538462 4.807693
v -0.673077 -2.307692 4.807693
v -0.672308 -2.307692 4.807693
v -0.673077 -2.307692 1.730769
v -0.672308 -2.307692 1.730769
v -0.673077 -1.538462 4.807693
v -0.672308 -1.538462 4.807693
v -0.673077 -2.307692 4.807693
v -0.672308 -2.307692 4.807693
v -0.672308 -1.538462 1.730769
v -0.673077 -1.538462 1.730769
v -0.672308 -2.307692 1.730769
v -0.673077 -2.307692 1.730769
v 0.673846 -1.538462 4.807693
v 0.673846 -1.538462 1.730769
v 0.673846 -2.307692 4.807693
v 0.673846 -2.307692 1.730769
v 0.673077 -1.538462 1.730769
v 0.673077 -1.538462 4.807693
v 0.673077 -2.307692 1.730769
v 0.673077 -2.307692 4.807693
v 0.673077 -1.538462 1.730769
v 0.673846 -1.538462 1.730769
v 0.673077 -1.538462 4.807693
v 0.673846 -1.538462 4.807693
v 0.673077 -2.307692 4.807693
v 0.673846 -2.307692 4.807693
v 0.673077 -2.307692 1.730769
v 0.673846 -2.307692 1.730769
v 0.673077 -1.538462 4.807693
v 0.673846 -1.538462 4.807693
v 0.673077 -2.307692 4.807693
v 0.673846 -2.307692 4.807693
v 0.673846 -1.538462 1.730769
v 0.673077 -1.538462 1.730769
v 0.673846 -2.307692 1.730769
v 0.673077 -2.307692 1.730769
v 0.673077 -1.538462 1.730769
v 0.673077 -1.538462 0.961538
v 0.673077 -1.923077 1.730769
v 0.673077 -1.923077 0.961538
v -0.673077 -1.538462 0.961538
v -0.673077 -1.538462 1.730769
v -0.673077 -1.923077 0.961538
v -0.673077 -1.923077 1.730769
v -0.673077 -1.538462 0.961538
v 0.673077 -1.538462 0.961538
v -0.673077 -1.538462 1.730769
v 0.673077 -1.538462 1.730769
v -0.673077 -1.923077 1.730769
v 0.673077 -1.923077 1.730769
v -0.673077 -1.923077 0.961538
v 0.673077 -1.923077 0.961538
v -0.673077 -1.538462 1.730769
v 0.673077 -1.538462 1.730769
v -0.673077 -1.923077 1.730769
v 0.673077 -1.923077 1.730769
v 0.673077 -1.538462 0.961538
v -0.673077 -1.538462 0.961538
v 0.673077 -1.923077 0.961538
v -0.673077 -1.923077 0.961538
v 0.673077 -1.538462 4.808462
v 0.673077 -1.538462 4.807693
v 0.673077 -2.307692 4.808462
v 0.673077 -2.307692 4.807693
v -0.673077 -1.538462 4.807693
v -0.673077 -1.538462 4.808462
v -0.673077 -2.307692 4.807693
v -0.673077 -2.307692 4.808462
v -0.673077 -1.538462 4.807693
v 0.673077 -1.538462 4.807693
v -0.673077 -1.538462 4.808462
v 0.673077 -1.538462 4.808462
v -0.673077 -2.307692 4.808462
v 0.673077 -2.307692 4.808462
v -0.673077 -2.307692 4.807693
v 0.673077 -2.307692 4.807693
v -0.673077 -1.538462 4.808462
v 0.673077 -1.538462 4.808462
v -0.673077 -2.307692 4.808462
v 0.673077 -2.307692 4.808462
v 0.673077 -1.538462 4.807693
v -0.673077 -1.538462 4.807693
v 0.673077 -2.307692 4.807693
v -0.673077 -2.307692 4.807693
v 0.576154 -3.228931 8.102977
v 0.576154 -3.228931 7.036962
v 0.576154 -3.670492 8.102977
v 0.576154 -3.670492 7.036962
v -0.576154 -3.228931 7.036962
v -0.576154 -3.228931 8.102977
v -0.576154 -3.670492 7.036962
v -0.576154 -3.670492 8.102977
v -0.576154 -3.228931 7.036962
v 0.576154 -3.228931 7.036962
v -0.576154 -3.228931 8.102977
v 0.576154 -3.228931 8.102977
v -0.576154 -3.670492 8.102977
v 0.576154 -3.670492 8.102977
v -0.576154 -3.670492 7.036962
v 0.576154 -3.670492 7.036962
v -0.576154 -3.228931 8.102977
v 0.576154 -3.228931 8.102977
v -0.576154 -3.670492 8.102977
v 0.576154 -3.670492 8.102977
v 0.576154 -3.228931 7.036962
v -0.576154 -3.228931 7.036962
v 0.576154 -3.670492 7.036962
v -0.576154 -3.670492 7.036962
v 0.576923 -3.228936 8.102978
v 0.576923 -1.096906 7.219863
v 0.576923 -3.670494 7.036963
v 0.576923 -1.538464 6.153848
v -0.576923 -1.096906 7.219863
v -0.576923 -3.228936 8.102978
v -0.576923 -1.538464 6.153848
v -0.576923 -3.670494 7.036963
v -0.576923 -1.096906 7.219863
v 0.576923 -1.096906 7.219863
v -0.576923 -3.228936 8.102978
v 0.576923 -3.228936 8.102978
v -0.576923 -3.670494 7.036963
v 0.576923 -3.670494 7.036963
v -0.576923 -1.538464 6.153848
v 0.576923 -1.538464 6.153848
v -0.576923 -3.228936 8.102978
v 0.576923 -3.228936 8.102978
v -0.576923 -3.670494 7.036963
v 0.576923 -3.670494 7.036963
v 0.576923 -1.096906 7.219863
v -0.576923 -1.096906 7.219863
v 0.576923 -1.538464 6.153848
v -0.576923 -1.538464 6.153848
v 0.576923 0.000000 5.384615
v 0.576923 0.000000 0.000000
v 0.576923 -0.384615 5.384615
v 0.576923 -0.384615 0.000000
v -0.576923 0.000000 0.000000
v -0.576923 0.000000 5.384615
v -0.576923 -0.384615 0.000000
v -0.576923 -0.384615 5.384615
v -0.576923 0.000000 0.000000
v 0.576923 0.000000 0.000000
v -0.576923 0.000000 5.384615
v 0.576923 0.000000 5.384615
v -0.576923 -0.384615 5.384615
v 0.576923 -0.384615 5.384615
v -0.576923 -0.384615 0.000000
v 0.576923 -0.384615 0.000000
v -0.576923 0.000000 5.384615
v 0.576923 0.000000 5.384615
v -0.576923 -0.384615 5.384615
v 0.576923 -0.384615 5.384615
v 0.576923 0.000000 0.000000
v -0.576923 0.000000 0.000000
v 0.576923 -0.384615 0.000000
v -0.576923 -0.384615 0.000000
v 0.673077 0.000000 0.769231
v 0.673077 0.000000 -4.230769
v 0.673077 -0.384615 0.769231
v 0.673077 -0.384615 -4.230769
v -0.673077 0.000000 -4.230769
v -0.673077 0.000000 0.769231
v -0.673077 -0.384615 -4.230769
v -0.673077 -0.384615 0.769231
v -0.673077 0.000000 -4.230769
v 0.673077 0.000000 -4.230769
v -0.673077 0.000000 0.769231
v 0.673077 0.000000 0.769231
v -0.673077 -0.384615 0.769231
v 0.673077 -0.384615 0.769231
v -0.673077 -0.384615 -4.230769
v 0.673077 -0.384615 -4.230769
v -0.673077 0.000000 0.769231
v 0.673077 0.000000 0.769231
v -0.673077 -0.384615 0.769231
v 0.673077 -0.384615 0.769231
v 0.673077 0.000000 -4.230769
v -0.673077 0.000000 -4.230769
v 0.673077 -0.384615 -4.230769
v -0.673077 -0.384615 -4.230769
v 0.576923 0.000000 -5.769231
v 0.576923 0.000000 -6.538462
v 0.576923 -0.384615 -5.769231
v 0.576923 -0.384615 -6.538462
v -0.576923 0.000000 -6.538462
v -0.576923 0.000000 -5.769231
v -0.576923 -0.384615 -6.538462
v -0.576923 -0.384615 -5.769231
v -0.576923 0.000000 -6.538462
v 0.576923 0.000000 -6.538462
v -0.576923 0.000000 -5.769231
v 0.576923 0.000000 -5.769231
v -0.576923 -0.384615 -5.769231
v 0.576923 -0.384615 -5.769231
v -0.576923 -0.384615 -6.538462
v 0.576923 -0.384615 -6.538462
v -0.576923 0.000000 -5.769231
v 0.576923 0.000000 -5.769231
v -0.576923 -0.384615 -5.769231
v 0.576923 -0.384615 -5.769231
v 0.576923 0.000000 -6.538462
v -0.576923 0.000000 -6.538462
v 0.576923 -0.384615 -6.538462
v -0.576923 -0.384615 -6.538462
v 0.673077 -1.538462 12.692307
v 0.673077 -1.538462 11.538462
v 0.673077 -3.461539 12.692307
v 0.673077 -3.461539 11.538462
v -0.673077 -1.538462 11.538462
v -0.673077 -1.538462 12.692307
v -0.673077 -3.461539 11.538462
v -0.673077 -3.461539 12.692307
v -0.673077 -1.538462 11.538462
v 0.673077 -1.538462 11.538462
v -0.673077 -1.538462 12.692307
v 0.673077 -1.538462 12.692307
v -0.673077 -3.461539 12.692307
v 0.673077 -3.461539 12.692307
v -0.673077 -3.461539 11.538462
v 0.673077 -3.461539 11.538462
v -0.673077 -1.538462 12.692307
v 0.673077 -1.538462 12.692307
v -0.673077 -3.461539 12.692307
v 0.673077 -3.461539 12.692307
v 0.673077 -1.538462 11.538462
v -0.673077 -1.538462 11.538462
v 0.673077 -3.461539 11.538462
v -0.673077 -3.461539 11.538462
v 0.673077 -1.538462 11.538462
v 0.673077 -1.538462 9.615385
v 0.673077 -2.307692 11.538462
v 0.673077 -2.307692 9.615385
v -0.673077 -1.538462 9.615385
v -0.673077 -1.538462 11.538462
v -0.673077 -2.307692 9.615385
v -0.673077 -2.307692 11.538462
v -0.673077 -1.538462 9.615385
v 0.673077 -1.538462 9.615385
v -0.673077 -1.538462 11.538462
v 0.673077 -1.538462 11.538462
v -0.673077 -2.307692 11.538462
v 0.673077 -2.307692 11.538462
v -0.673077 -2.307692 9.615385
v 0.673077 -2.307692 9.615385
v -0.673077 -1.538462 11.538462
v 0.673077 -1.538462 11.538462
v -0.673077 -2.307692 11.538462
v 0.673077 -2.307692 11.538462
v 0.673077 -1.538462 9.615385
v -0.673077 -1.538462 9.615385
v 0.673077 -2.307692 9.615385
v -0.673077 -2.307692 9.615385
v 0.672308 -1.763766 10.159320
v 0.672308 -0.947873 9.343427
v 0.672308 -2.307694 9.615391
v 0.672308 -1.491801 8.799498
v -0.672308 -0.947873 9.343427
v -0.672308 -1.763766 10.159320
v -0.672308 -1.491801 8.799498
v -0.672308 -2.307694 9.615391
v -0.672308 -0.947873 9.343427
v 0.672308 -0.947873 9.343427
v -0.672308 -1.763766 10.159320
v 0.672308 -1.763766 10.159320
v -0.672308 -2.307694 9.615391
v 0.672308 -2.307694 9.615391
v -0.672308 -1.491801 8.799498
v 0.672308 -1.491801 8.799498
v -0.672308 -1.763766 10.159320
v 0.672308 -1.763766 10.159320
v -0.672308 -2.307694 9.615391
v 0.672308 -2.307694 9.615391
v 0.672308 -0.947873 9.343427
v -0.672308 -0.947873 9.343427
v 0.672308 -1.491801 8.799498
v -0.672308 -1.491801 8.799498
v 0.576154 0.000000 12.692307
v 0.576154 0.000000 9.230769
v 0.576154 -0.384615 12.692307
v 0.576154 -0.384615 9.230769
v -0.576154 0.000000 9.230769
v -0.576154 0.000000 12.692307
v -0.576154 -0.384615 9.230769
v -0.576154 -0.384615 12.692307
v -0.576154 0.000000 9.230769
v 0.576154 0.000000 9.230769
v -0.576154 0.000000 12.692307
v 0.576154 0.000000 12.692307
v -0.576154 -0.384615 12.692307
v 0.576154 -0.384615 12.692307
v -0.576154 -0.384615 9.230769
v 0.576154 -0.384615 9.230769
v -0.576154 0.000000 12.692307
v 0.576154 0.000000 12.692307
v -0.576154 -0.384615 12.692307
v 0.576154 -0.384615 12.692307
v 0.576154 0.000000 9.230769
v -0.576154 0.000000 9.230769
v 0.576154 -0.384615 9.230769
v -0.576154 -0.384615 9.230769
v -0.192308 0.000000 5.769231
v -0.192308 0.000000 5.384615
v -0.192308 -0.384615 5.769231
v -0.192308 -0.384615 5.384615
v -0.576923 0.000000 5.384615
v -0.576923 0.000000 5.769231
v -0.576923 -0.384615 5.384615
v -0.576923 -0.384615 5.769231
v -0.576923 0.000000 5.384615
v -0.192308 0.000000 5.384615
v -0.576923 0.000000 5.769231
v -0.192308 0.000000 5.769231
v -0.576923 -0.384615 5.769231
v -0.192308 -0.384615 5.769231
v -0.576923 -0.384615 5.384615
v -0.192308 -0.384615 5.384615
v -0.576923 0.000000 5.769231
v -0.192308 0.000000 5.769231
v -0.576923 -0.384615 5.769231
v -0.192308 -0.384615 5.769231
v -0.192308 0.000000 5.384615
v -0.576923 0.000000 5.384615
v -0.192308 -0.384615 5.384615
v -0.576923 -0.384615 5.384615
v -0.480000 -0.383846 8.653846
v -0.480000 -0.383846 7.884615
v -0.480000 -1.539231 8.653846
v -0.480000 -1.539231 7.884615
v -0.864615 -0.383846 7.884615
v -0.864615 -0.383846 8.653846
v -0.864615 -1.539231 7.884615
v -0.864615 -1.539231 8.653846
v -0.864615 -0.383846 7.884615
v -0.480000 -0.383846 7.884615
v -0.864615 -0.383846 8.653846
v -0.480000 -0.383846 8.653846
v -0.864615 -1.539231 8.653846
v -0.480000 -1.539231 8.653846
v -0.864615 -1.539231 7.884615
v -0.480000 -1.539231 7.884615
v -0.864615 -0.383846 8.653846
v -0.480000 -0.383846 8.653846
v -0.864615 -1.539231 8.653846
v -0.480000 -1.539231 8.653846
v -0.480000 -0.383846 7.884615
v -0.864615 -0.383846 7.884615
v -0.480000 -1.539231 7.884615
v -0.864615 -1.539231 7.884615
vn 1.0000 -0.0000 -0.0000
vn -1.0000 -0.0000 -0.0000
vn -0.0000 1.0000 -0.0000
vn -0.0000 -1.0000 -0.0000
vn -0.0000 -0.0000 1.0000
vn -0.0000 -0.0000 -1.0000
vn 0.9239 -0.3827 -0.0000
vn -0.9239 0.3827 -0.0000
vn 0.3829 0.9238 -0.0000
vn -0.3840 -0.9233 -0.0000
vn -0.3818 -0.9242 -0.0000
vn -0.0000 0.0004 1.0000
vn -0.0000 -0.0004 1.0000
vn -0.0000 -0.0004 -1.0000
vn -0.0000 0.0004 -1.0000
vn 0.9239 0.3827 -0.0000
vn -0.9239 -0.3827 -0.0000
vn -0.3823 0.9240 -0.0000
vn -0.3829 0.9238 -0.0000
vn 0.3829 -0.9238 -0.0000
vn 0.3818 -0.9243 -0.0000
vn -0.0000 0.3827 0.9239
vn -0.0000 -0.3827 -0.9239
vn -0.0000 -0.9239 0.3827
vn -0.0000 0.9239 -0.3827
vn -0.0000 0.7071 0.7071
vn -0.0000 -0.7071 -0.7071
vn -0.0000 -0.7071 0.7071
vn -0.0000 0.7071 -0.7071
vt 0.468750 0.625000
vt 0.468750 0.578125
vt 0.671875 0.625000
vt 0.671875 0.578125
vt 0.468750 0.562500
vt 0.468750 0.515625
vt 0.671875 0.562500
vt 0.671875 0.515625
vt 0.250000 0.515625
vt 0.250000 0.718750
vt 0.187500 0.515625
vt 0.187500 0.718750
vt 0.062500 0.687500
vt 0.062500 0.484375
vt 0.000000 0.687500
vt 0.000000 0.484375
vt 0.531250 0.343750
vt 0.531250 0.296875
vt 0.593750 0.343750
vt 0.593750 0.296875
vt 0.468750 0.343750
vt 0.468750 0.296875
vt 0.312500 0.875000
vt 0.312500 0.828125
vt 0.578125 0.875000
vt 0.578125 0.828125
vt 0.187500 0.734375
vt 0.187500 1.000000
vt 0.125000 0.734375
vt 0.125000 1.000000
vt 0.250000 1.000000
vt 0.250000 0.734375
vt 0.656250 0.687500
vt 0.656250 0.640625
vt 0.718750 0.687500
vt 0.718750 0.640625
vt 0.656250 0.750000
vt 0.656250 0.703125
vt 0.718750 0.750000
vt 0.718750 0.703125
vt 0.250000 0.953125
vt 0.562500 1.000000
vt 0.562500 0.953125
vt 0.250000 0.937500
vt 0.250000 0.890625
vt 0.562500 0.937500
vt 0.562500 0.890625
vt 0.062500 1.000000
vt 0.000000 1.000000
vt 0.125000 0.687500
vt 0.187500 0.343750
vt 0.187500 0.296875
vt 0.250000 0.343750
vt 0.250000 0.296875
vt 0.125000 0.343750
vt 0.125000 0.296875
vt 0.343750 0.500000
vt 0.343750 0.375000
vt 0.390625 0.500000
vt 0.390625 0.375000
vt 0.468750 0.500000
vt 0.468750 0.375000
vt 0.515625 0.500000
vt 0.515625 0.375000
vt 0.765625 0.765625
vt 0.765625 0.812500
vt 0.718750 0.765625
vt 0.718750 0.812500
vt 0.296875 0.281250
vt 0.296875 0.234375
vt 0.250000 0.281250
vt 0.250000 0.234375
vt 0.406250 0.500000
vt 0.406250 0.375000
vt 0.453125 0.500000
vt 0.453125 0.375000
vt 0.250000 0.656250
vt 0.250000 0.531250
vt 0.296875 0.656250
vt 0.296875 0.531250
vt 0.687500 0.281250
vt 0.687500 0.265625
vt 0.765625 0.281250
vt 0.765625 0.265625
vt 0.718750 0.312500
vt 0.718750 0.296875
vt 0.796875 0.312500
vt 0.796875 0.296875
vt 0.046875 0.296875
vt 0.046875 0.375000
vt 0.000000 0.296875
vt 0.000000 0.375000
vt 0.671875 1.000000
vt 0.671875 0.921875
vt 0.625000 1.000000
vt 0.625000 0.921875
vt 0.562500 0.250000
vt 0.562500 0.234375
vt 0.609375 0.250000
vt 0.609375 0.234375
vt 0.750000 0.468750
vt 0.750000 0.453125
vt 0.796875 0.468750
vt 0.796875 0.453125
vt 0.687500 0.968750
vt 0.687500 0.937500
vt 0.765625 0.968750
vt 0.765625 0.937500
vt 0.687500 0.906250
vt 0.765625 0.906250
vt 0.000000 0.921875
vt 0.000000 0.968750
vt 0.375000 0.750000
vt 0.375000 0.625000
vt 0.453125 0.750000
vt 0.453125 0.625000
vt 0.375000 0.500000
vt 0.000000 0.875000
vt 0.656250 0.406250
vt 0.656250 0.375000
vt 0.734375 0.406250
vt 0.734375 0.375000
vt 0.687500 1.000000
vt 0.765625 1.000000
vt 0.250000 0.406250
vt 0.328125 0.531250
vt 0.328125 0.406250
vt 0.468750 0.750000
vt 0.546875 0.750000
vt 0.546875 0.625000
vt 0.031250 1.000000
vt 0.562500 0.906250
vt 0.562500 0.875000
vt 0.593750 0.906250
vt 0.593750 0.875000
vt 0.343750 0.531250
vt 0.375000 0.531250
vt 0.593750 0.468750
vt 0.593750 0.421875
vt 0.671875 0.468750
vt 0.671875 0.421875
vt 0.312500 0.375000
vt 0.312500 0.328125
vt 0.390625 0.328125
vt 0.000000 0.953125
vt 0.593750 0.812500
vt 0.593750 0.781250
vt 0.718750 0.781250
vt 0.593750 0.750000
vt 0.593750 0.500000
vt 0.718750 0.500000
vt 0.718750 0.468750
vt 0.531250 0.406250
vt 0.531250 0.375000
vt 0.156250 0.218750
vt 0.156250 0.203125
vt 0.187500 0.218750
vt 0.187500 0.203125
vt 0.218750 0.218750
vt 0.218750 0.203125
vt 0.781250 0.718750
vt 0.781250 0.750000
vt 0.718750 0.718750
vt 0.781250 0.687500
vt 0.750000 0.531250
vt 0.750000 0.515625
vt 0.812500 0.531250
vt 0.812500 0.515625
vt 0.468750 0.250000
vt 0.468750 0.234375
vt 0.531250 0.250000
vt 0.531250 0.234375
vt 0.687500 0.375000
vt 0.687500 0.343750
vt 0.750000 0.375000
vt 0.750000 0.343750
vt 0.687500 0.531250
vt 0.687500 0.500000
vt 0.750000 0.500000
vt 0.781250 0.968750
vt 0.781250 0.953125
vt 0.828125 0.968750
vt 0.828125 0.953125
vt 0.781250 0.937500
vt 0.781250 0.921875
vt 0.828125 0.937500
vt 0.828125 0.921875
vt 0.171875 0.234375
vt 0.171875 0.281250
vt 0.125000 0.234375
vt 0.125000 0.281250
vt 0.234375 0.281250
vt 0.234375 0.234375
vt 0.187500 0.281250
vt 0.187500 0.234375
vt 0.062500 0.218750
vt 0.062500 0.203125
vt 0.109375 0.218750
vt 0.109375 0.203125
vt 0.781250 1.000000
vt 0.781250 0.984375
vt 0.828125 1.000000
vt 0.828125 0.984375
vt 0.562500 0.750000
vt 0.562500 0.703125
vt 0.562500 0.687500
vt 0.562500 0.640625
vt 0.640625 0.812500
vt 0.640625 0.906250
vt 0.296875 0.406250
vt 0.296875 0.312500
vt 0.250000 0.312500
vt 0.062500 0.281250
vt 0.062500 0.234375
vt 0.109375 0.281250
vt 0.109375 0.234375
vt 0.000000 0.281250
vt 0.000000 0.234375
vt 0.046875 0.281250
vt 0.046875 0.234375
vt 0.468750 0.359375
vt 0.687500 0.359375
vt 0.656250 0.906250
vt 0.656250 0.890625
vt 0.875000 0.906250
vt 0.875000 0.890625
vt 0.109375 0.468750
vt 0.109375 0.687500
vt 0.062500 0.468750
vt 0.359375 0.750000
vt 0.359375 0.531250
vt 0.312500 0.750000
vt 0.312500 0.531250
vt 0.750000 0.359375
vt 0.796875 0.375000
vt 0.796875 0.359375
vt 0.625000 0.250000
vt 0.625000 0.234375
vt 0.671875 0.250000
vt 0.671875 0.234375
vt 0.656250 0.875000
vt 0.656250 0.859375
vt 0.859375 0.875000
vt 0.859375 0.859375
vt 0.656250 0.843750
vt 0.656250 0.828125
vt 0.859375 0.843750
vt 0.859375 0.828125
vt 0.312500 0.671875
vt 0.250000 0.671875
vt 0.250000 0.875000
vt 0.125000 0.718750
vt 0.125000 0.515625
vt 0.406250 0.250000
vt 0.406250 0.234375
vt 0.343750 0.250000
vt 0.343750 0.234375
vt 0.312500 0.406250
vt 0.312500 0.390625
vt 0.343750 0.406250
vt 0.343750 0.390625
vt 0.125000 0.218750
vt 0.125000 0.203125
vt 0.453125 0.250000
vt 0.453125 0.281250
vt 0.406250 0.281250
vt 0.515625 0.281250
vt 0.515625 0.250000
vt 0.468750 0.281250
vt 0.750000 0.406250
vt 0.750000 0.390625
vt 0.796875 0.406250
vt 0.796875 0.390625
vt 0.750000 0.437500
vt 0.750000 0.421875
vt 0.796875 0.437500
vt 0.796875 0.421875
vt 0.062500 0.375000
vt 0.062500 0.296875
vt 0.109375 0.375000
vt 0.109375 0.296875
vt 0.406250 0.296875
vt 0.453125 0.296875
vt 0.656250 0.296875
vt 0.656250 0.343750
vt 0.718750 0.343750
vt 0.062500 0.390625
vt 0.125000 0.468750
vt 0.125000 0.390625
vt 0.000000 0.468750
vt 0.000000 0.390625
vt 0.328125 0.312500
vt 0.328125 0.281250
vt 0.687500 0.625000
vt 0.687500 0.593750
vt 0.765625 0.625000
vt 0.765625 0.593750
vt 0.531250 0.421875
vt 0.531250 0.500000
vt 0.562500 0.921875
vt 0.718750 0.656250
vt 0.718750 0.625000
vt 0.781250 0.656250
vt 0.781250 0.625000
vt 0.562500 0.281250
vt 0.609375 0.281250
vt 0.765625 0.343750
vt 0.765625 0.312500
vt 0.390625 0.265625
vt 0.390625 0.312500
vt 0.343750 0.265625
vt 0.343750 0.312500
vt 0.687500 0.468750
vt 0.687500 0.421875
vt 0.625000 0.281250
vt 0.671875 0.281250
vt 0.765625 0.500000
vt 0.765625 0.468750
vt 0.687500 0.578125
vt 0.828125 0.593750
vt 0.828125 0.578125
vt 0.687500 0.562500
vt 0.687500 0.546875
vt 0.828125 0.562500
vt 0.828125 0.546875
vt 0.171875 0.359375
vt 0.171875 0.500000
vt 0.125000 0.359375
vt 0.125000 0.500000
vt 0.234375 0.500000
vt 0.234375 0.359375
vt 0.187500 0.500000
vt 0.187500 0.359375
vt 0.000000 0.218750
vt 0.000000 0.203125
vt 0.046875 0.218750
vt 0.046875 0.203125
vt 0.750000 0.250000
vt 0.750000 0.234375
vt 0.796875 0.250000
vt 0.796875 0.234375
vt 0.250000 0.218750
vt 0.250000 0.203125
vt 0.265625 0.218750
vt 0.265625 0.203125
vt 0.281250 0.218750
vt 0.281250 0.203125
vt 0.296875 0.218750
vt 0.296875 0.203125
vt 0.796875 0.703125
vt 0.796875 0.718750
vt 0.781250 0.703125
vt 0.328125 0.218750
vt 0.328125 0.203125
vt 0.312500 0.218750
vt 0.312500 0.203125
vt 0.781250 0.734375
vt 0.796875 0.750000
vt 0.796875 0.734375
vt 0.781250 0.781250
vt 0.781250 0.765625
vt 0.796875 0.781250
vt 0.796875 0.765625
vt 0.312500 0.281250
vt 0.312500 0.234375
vt 0.343750 0.281250
vt 0.531250 0.281250
vt 0.796875 0.812500
vt 0.781250 0.812500
vt 0.234375 0.218750
vt 0.234375 0.187500
vt 0.218750 0.187500
vt 0.718750 0.250000
vt 0.718750 0.203125
vt 0.734375 0.250000
vt 0.734375 0.203125
vt 0.687500 0.250000
vt 0.687500 0.203125
vt 0.703125 0.250000
vt 0.703125 0.203125
s 0
usemtl Material_0.001
f 1/1/1 3/2/1 2/3/1
f 3/2/1 4/4/1 2/3/1
f 5/5/2 7/6/2 6/7/2
f 7/6/2 8/8/2 6/7/2
f 9/9/3 11/10/3 10/11/3
f 11/10/3 12/12/3 10/11/3
f 13/13/4 15/14/4 14/15/4
f 15/14/4 16/16/4 14/15/4
f 17/17/5 19/18/5 18/19/5
f 19/18/5 20/20/5 18/19/5
f 21/21/6 23/22/6 22/17/6
f 23/22/6 24/18/6 22/17/6
f 25/23/1 27/24/1 26/25/1
f 27/24/1 28/26/1 26/25/1
f 29/25/2 31/26/2 30/23/2
f 31/26/2 32/24/2 30/23/2
f 33/27/3 35/28/3 34/29/3
f 35/28/3 36/30/3 34/29/3
f 37/31/4 39/32/4 38/28/4
f 39/32/4 40/27/4 38/28/4
f 41/33/5 43/34/5 42/35/5
f 43/34/5 44/36/5 42/35/5
f 45/37/6 47/38/6 46/39/6
f 47/38/6 48/40/6 46/39/6
f 49/31/1 51/41/1 50/42/1
f 51/41/1 52/43/1 50/42/1
f 53/44/2 55/45/2 54/46/2
f 55/45/2 56/47/2 54/46/2
f 57/13/3 59/48/3 58/15/3
f 59/48/3 60/49/3 58/15/3
f 61/30/4 63/50/4 62/48/4
f 63/50/4 64/13/4 62/48/4
f 65/51/5 67/52/5 66/53/5
f 67/52/5 68/54/5 66/53/5
f 69/55/6 71/56/6 70/51/6
f 71/56/6 72/52/6 70/51/6
f 73/57/1 75/58/1 74/59/1
f 75/58/1 76/60/1 74/59/1
f 77/61/2 79/62/2 78/63/2
f 79/62/2 80/64/2 78/63/2
f 81/65/3 83/66/3 82/67/3
f 83/66/3 84/68/3 82/67/3
f 85/69/4 87/70/4 86/71/4
f 87/70/4 88/72/4 86/71/4
f 89/73/5 91/74/5 90/75/5
f 91/74/5 92/76/5 90/75/5
f 93/77/6 95/78/6 94/79/6
f 95/78/6 96/80/6 94/79/6
f 97/81/1 99/82/1 98/83/1
f 99/82/1 100/84/1 98/83/1
f 101/85/2 103/86/2 102/87/2
f 103/86/2 104/88/2 102/87/2
f 105/89/3 107/90/3 106/91/3
f 107/90/3 108/92/3 106/91/3
f 109/93/4 111/94/4 110/95/4
f 111/94/4 112/96/4 110/95/4
f 113/97/5 115/98/5 114/99/5
f 115/98/5 116/100/5 114/99/5
f 117/101/6 119/102/6 118/103/6
f 119/102/6 120/104/6 118/103/6
f 121/105/1 123/106/1 122/107/1
f 123/106/1 124/108/1 122/107/1
f 125/106/2 127/109/2 126/108/2
f 127/109/2 128/110/2 126/108/2
f 129/111/3 131/49/3 130/111/3
f 131/49/3 132/49/3 130/111/3
f 133/49/4 135/111/4 134/49/4
f 135/111/4 136/111/4 134/49/4
f 137/49/5 139/112/5 138/49/5
f 139/112/5 140/112/5 138/49/5
f 141/49/6 143/112/6 142/49/6
f 143/112/6 144/112/6 142/49/6
f 145/113/7 147/114/7 146/115/7
f 147/114/7 148/116/7 146/115/7
f 149/114/8 151/117/8 150/116/8
f 151/117/8 152/75/8 150/116/8
f 153/111/9 155/49/9 154/111/9
f 155/49/9 156/49/9 154/111/9
f 157/49/10 159/111/10 158/49/10
f 159/111/11 160/111/11 158/49/11
f 161/49/12 163/118/12 162/49/12
f 163/118/13 164/118/13 162/49/13
f 165/49/14 167/118/14 166/49/14
f 167/118/15 168/118/15 166/49/15
f 169/119/1 171/120/1 170/121/1
f 171/120/1 172/122/1 170/121/1
f 173/123/2 175/105/2 174/124/2
f 175/105/2 176/107/2 174/124/2
f 177/111/3 179/49/3 178/111/3
f 179/49/3 180/49/3 178/111/3
f 181/49/4 183/111/4 182/49/4
f 183/111/4 184/111/4 182/49/4
f 185/49/5 187/112/5 186/49/5
f 187/112/5 188/112/5 186/49/5
f 189/49/6 191/112/6 190/49/6
f 191/112/6 192/112/6 190/49/6
f 193/78/16 195/125/16 194/126/16
f 195/125/16 196/127/16 194/126/16
f 197/128/17 199/1/17 198/129/17
f 199/1/17 200/130/17 198/129/17
f 201/111/18 203/49/18 202/111/18
f 203/49/19 204/49/19 202/111/19
f 205/49/20 207/111/20 206/49/20
f 207/111/21 208/111/21 206/49/21
f 209/49/5 211/118/5 210/49/5
f 211/118/5 212/118/5 210/49/5
f 213/49/6 215/118/6 214/49/6
f 215/118/6 216/118/6 214/49/6
f 217/49/1 219/112/1 218/49/1
f 219/112/1 220/112/1 218/49/1
f 221/49/2 223/112/2 222/49/2
f 223/112/2 224/112/2 222/49/2
f 225/131/3 227/131/3 226/49/3
f 227/131/3 228/49/3 226/49/3
f 229/131/4 231/131/4 230/49/4
f 231/131/4 232/49/4 230/49/4
f 233/132/5 235/133/5 234/134/5
f 235/133/5 236/135/5 234/134/5
f 237/136/6 239/57/6 238/137/6
f 239/57/6 240/117/6 238/137/6
f 241/138/1 243/139/1 242/140/1
f 243/139/1 244/141/1 242/140/1
f 245/142/2 247/143/2 246/60/2
f 247/143/2 248/144/2 246/60/2
f 249/111/3 251/49/3 250/111/3
f 251/49/3 252/49/3 250/111/3
f 253/49/4 255/111/4 254/49/4
f 255/111/4 256/111/4 254/49/4
f 257/49/5 259/145/5 258/49/5
f 259/145/5 260/145/5 258/49/5
f 261/49/6 263/145/6 262/49/6
f 263/145/6 264/145/6 262/49/6
f 265/146/1 267/147/1 266/68/1
f 267/147/1 268/148/1 266/68/1
f 269/147/2 271/149/2 270/148/2
f 271/149/2 272/39/2 270/148/2
f 273/118/3 275/49/3 274/118/3
f 275/49/3 276/49/3 274/118/3
f 277/49/4 279/118/4 278/49/4
f 279/118/4 280/118/4 278/49/4
f 281/49/5 283/112/5 282/49/5
f 283/112/5 284/112/5 282/49/5
f 285/49/6 287/112/6 286/49/6
f 287/112/6 288/112/6 286/49/6
f 289/150/1 291/138/1 290/151/1
f 291/138/1 292/152/1 290/151/1
f 293/153/2 295/154/2 294/119/2
f 295/154/2 296/120/2 294/119/2
f 297/118/3 299/49/3 298/118/3
f 299/49/3 300/49/3 298/118/3
f 301/49/4 303/118/4 302/49/4
f 303/118/4 304/118/4 302/49/4
f 305/49/5 307/112/5 306/49/5
f 307/112/5 308/112/5 306/49/5
f 309/49/6 311/112/6 310/49/6
f 311/112/6 312/112/6 310/49/6
f 313/155/1 315/156/1 314/157/1
f 315/156/1 316/158/1 314/157/1
f 317/157/2 319/158/2 318/159/2
f 319/158/2 320/160/2 318/159/2
f 321/161/3 323/162/3 322/163/3
f 323/162/3 324/39/3 322/163/3
f 325/161/4 327/164/4 326/163/4
f 327/164/4 328/35/4 326/163/4
f 329/165/5 331/166/5 330/167/5
f 331/166/5 332/168/5 330/167/5
f 333/169/6 335/170/6 334/171/6
f 335/170/6 336/172/6 334/171/6
f 337/49/1 339/112/1 338/49/1
f 339/112/1 340/112/1 338/49/1
f 341/49/2 343/112/2 342/49/2
f 343/112/2 344/112/2 342/49/2
f 345/48/3 347/48/3 346/49/3
f 347/48/3 348/49/3 346/49/3
f 349/48/4 351/48/4 350/49/4
f 351/48/4 352/49/4 350/49/4
f 353/173/5 355/174/5 354/175/5
f 355/174/5 356/176/5 354/175/5
f 357/177/6 359/178/6 358/165/6
f 359/178/6 360/179/6 358/165/6
f 361/180/1 363/181/1 362/182/1
f 363/181/1 364/183/1 362/182/1
f 365/184/2 367/185/2 366/186/2
f 367/185/2 368/187/2 366/186/2
f 369/188/3 371/189/3 370/190/3
f 371/189/3 372/191/3 370/190/3
f 373/192/4 375/193/4 374/194/4
f 375/193/4 376/195/4 374/194/4
f 377/196/5 379/197/5 378/198/5
f 379/197/5 380/199/5 378/198/5
f 381/200/6 383/201/6 382/202/6
f 383/201/6 384/203/6 382/202/6
f 385/204/1 387/205/1 386/37/1
f 387/205/1 388/38/1 386/37/1
f 389/206/2 391/207/2 390/33/2
f 391/207/2 392/34/2 390/33/2
f 393/208/22 395/209/22 394/146/22
f 395/209/22 396/134/22 394/146/22
f 397/210/23 399/211/23 398/125/23
f 399/211/23 400/212/23 398/125/23
f 401/213/24 403/214/24 402/215/24
f 403/214/24 404/216/24 402/215/24
f 405/217/25 407/218/25 406/219/25
f 407/218/25 408/220/25 406/219/25
f 409/62/1 411/221/1 410/173/1
f 411/221/1 412/222/1 410/173/1
f 413/223/2 415/224/2 414/225/2
f 415/224/2 416/226/2 414/225/2
f 417/227/3 419/228/3 418/229/3
f 419/228/3 420/13/3 418/229/3
f 421/230/4 423/231/4 422/232/4
f 423/231/4 424/233/4 422/232/4
f 425/175/5 427/234/5 426/235/5
f 427/234/5 428/236/5 426/235/5
f 429/237/6 431/238/6 430/239/6
f 431/238/6 432/240/6 430/239/6
f 433/241/1 435/242/1 434/243/1
f 435/242/1 436/244/1 434/243/1
f 437/245/2 439/246/2 438/247/2
f 439/246/2 440/248/2 438/247/2
f 441/249/3 443/23/3 442/250/3
f 443/23/3 444/251/3 442/250/3
f 445/12/4 447/11/4 446/252/4
f 447/11/4 448/253/4 446/252/4
f 449/254/5 451/255/5 450/169/5
f 451/255/5 452/170/5 450/169/5
f 453/256/6 455/257/6 454/254/6
f 455/257/6 456/255/6 454/254/6
f 457/258/1 459/259/1 458/260/1
f 459/259/1 460/261/1 458/260/1
f 461/262/2 463/263/2 462/155/2
f 463/263/2 464/156/2 462/155/2
f 465/264/3 467/265/3 466/254/3
f 467/265/3 468/266/3 466/254/3
f 469/267/4 471/268/4 470/269/4
f 471/268/4 472/169/4 470/269/4
f 473/270/5 475/271/5 474/272/5
f 475/271/5 476/273/5 474/272/5
f 477/274/6 479/275/6 478/276/6
f 479/275/6 480/277/6 478/276/6
f 481/278/1 483/279/1 482/280/1
f 483/279/1 484/281/1 482/280/1
f 485/74/2 487/282/2 486/76/2
f 487/282/2 488/283/2 486/76/2
f 489/284/3 491/285/3 490/20/3
f 491/285/3 492/19/3 490/20/3
f 493/286/4 495/86/4 494/285/4
f 495/86/4 496/284/4 494/285/4
f 497/229/5 499/287/5 498/288/5
f 499/287/5 500/289/5 498/288/5
f 501/290/6 503/291/6 502/229/6
f 503/291/6 504/287/6 502/229/6
f 505/212/1 507/71/1 506/292/1
f 507/71/1 508/293/1 506/292/1
f 509/294/2 511/295/2 510/296/2
f 511/295/2 512/297/2 510/296/2
f 513/139/3 515/150/3 514/298/3
f 515/150/3 516/299/3 514/298/3
f 517/95/4 519/96/4 518/42/4
f 519/96/4 520/300/4 518/42/4
f 521/301/5 523/302/5 522/303/5
f 523/302/5 524/304/5 522/303/5
f 525/35/6 527/301/6 526/164/6
f 527/301/6 528/303/6 526/164/6
f 529/305/1 531/97/1 530/306/1
f 531/97/1 532/99/1 530/306/1
f 533/286/2 535/85/2 534/307/2
f 535/85/2 536/308/2 534/307/2
f 537/309/26 539/310/26 538/311/26
f 539/310/26 540/312/26 538/311/26
f 541/101/27 543/275/27 542/313/27
f 543/275/27 544/314/27 542/313/27
f 545/315/28 547/237/28 546/316/28
f 547/237/28 548/239/28 546/316/28
f 549/151/29 551/152/29 550/317/29
f 551/152/29 552/318/29 550/317/29
f 553/295/1 555/319/1 554/320/1
f 555/319/1 556/321/1 554/320/1
f 557/322/2 559/323/2 558/324/2
f 559/323/2 560/325/2 558/324/2
f 561/326/3 563/327/3 562/328/3
f 563/327/3 564/329/3 562/328/3
f 565/330/4 567/331/4 566/332/4
f 567/331/4 568/333/4 566/332/4
f 569/334/5 571/335/5 570/336/5
f 571/335/5 572/337/5 570/336/5
f 573/338/6 575/339/6 574/340/6
f 575/339/6 576/341/6 574/340/6
f 577/342/1 579/343/1 578/344/1
f 579/343/1 580/345/1 578/344/1
f 581/346/2 583/347/2 582/348/2
f 583/347/2 584/349/2 582/348/2
f 585/350/3 587/351/3 586/352/3
f 587/351/3 588/161/3 586/352/3
f 589/353/4 591/354/4 590/355/4
f 591/354/4 592/356/4 590/355/4
f 593/162/5 595/357/5 594/358/5
f 595/357/5 596/359/5 594/358/5
f 597/360/6 599/361/6 598/362/6
f 599/361/6 600/363/6 598/362/6
f 601/364/1 603/365/1 602/366/1
f 603/365/1 604/257/1 602/366/1
f 605/367/2 607/172/2 606/305/2
f 607/172/2 608/98/2 606/305/2
f 609/362/3 611/368/3 610/360/3
f 611/368/3 612/369/3 610/360/3
f 613/370/4 615/371/4 614/159/4
f 615/371/4 616/372/4 614/159/4
f 617/373/5 619/374/5 618/375/5
f 619/374/5 620/376/5 618/375/5
f 621/377/6 623/378/6 622/379/6
f 623/378/6 624/380/6 622/379/6
