# Blender 4.3.2
# www.blender.org
mtllib lev.svdsup.mtl
o attachmentModel
v 0.000000 0.384615 0.384615
v 0.769231 0.384615 0.384615
v 0.000000 -0.384615 0.384615
v 0.769231 -0.384615 0.384615
v 0.769231 0.384615 -0.384615
v -0.000000 0.384615 -0.384615
v 0.769231 -0.384615 -0.384615
v -0.000000 -0.384615 -0.384615
v 0.769231 0.384615 -0.384615
v 0.769231 0.384615 0.384615
v -0.000000 0.384615 -0.384615
v 0.000000 0.384615 0.384615
v -0.000000 -0.384615 -0.384615
v 0.000000 -0.384615 0.384615
v 0.769231 -0.384615 -0.384615
v 0.769231 -0.384615 0.384615
v -0.000000 0.384615 -0.384615
v 0.000000 0.384615 0.384615
v -0.000000 -0.384615 -0.384615
v 0.000000 -0.384615 0.384615
v 0.769231 0.384615 0.384615
v 0.769231 0.384615 -0.384615
v 0.769231 -0.384615 0.384615
v 0.769231 -0.384615 -0.384615
v 0.000000 2.308461 0.384615
v 0.769231 2.308461 0.384615
v 0.000000 2.307692 0.384615
v 0.769231 2.307692 0.384615
v 0.769231 2.308461 -0.384615
v 0.000000 2.308461 -0.384615
v 0.769231 2.307692 -0.384615
v 0.000000 2.307692 -0.384615
v 0.769231 2.308461 -0.384615
v 0.769231 2.308461 0.384615
v 0.000000 2.308461 -0.384615
v 0.000000 2.308461 0.384615
v 0.000000 2.307692 -0.384615
v 0.000000 2.307692 0.384615
v 0.769231 2.307692 -0.384615
v 0.769231 2.307692 0.384615
v 0.000000 2.308461 -0.384615
v 0.000000 2.308461 0.384615
v 0.000000 2.307692 -0.384615
v 0.000000 2.307692 0.384615
v 0.769231 2.308461 0.384615
v 0.769231 2.308461 -0.384615
v 0.769231 2.307692 0.384615
v 0.769231 2.307692 -0.384615
v 0.000000 1.539231 0.384615
v 0.769231 1.539231 0.384615
v 0.000000 1.538462 0.384615
v 0.769231 1.538462 0.384615
v 0.769231 1.539231 -0.384615
v 0.000000 1.539231 -0.384615
v 0.769231 1.538462 -0.384615
v 0.000000 1.538462 -0.384615
v 0.769231 1.539231 -0.384615
v 0.769231 1.539231 0.384615
v 0.000000 1.539231 -0.384615
v 0.000000 1.539231 0.384615
v 0.000000 1.538462 -0.384615
v 0.000000 1.538462 0.384615
v 0.769231 1.538462 -0.384615
v 0.769231 1.538462 0.384615
v 0.000000 1.539231 -0.384615
v 0.000000 1.539231 0.384615
v 0.000000 1.538462 -0.384615
v 0.000000 1.538462 0.384615
v 0.769231 1.539231 0.384615
v 0.769231 1.539231 -0.384615
v 0.769231 1.538462 0.384615
v 0.769231 1.538462 -0.384615
v 0.000000 2.307692 0.385385
v 0.769231 2.307692 0.385385
v 0.000000 1.538462 0.385385
v 0.769231 1.538462 0.385385
v 0.769231 2.307692 0.384615
v 0.000000 2.307692 0.384615
v 0.769231 1.538462 0.384615
v 0.000000 1.538462 0.384615
v 0.769231 2.307692 0.384615
v 0.769231 2.307692 0.385385
v 0.000000 2.307692 0.384615
v 0.000000 2.307692 0.385385
v 0.000000 1.538462 0.384615
v 0.000000 1.538462 0.385385
v 0.769231 1.538462 0.384615
v 0.769231 1.538462 0.385385
v 0.000000 2.307692 0.384615
v 0.000000 2.307692 0.385385
v 0.000000 1.538462 0.384615
v 0.000000 1.538462 0.385385
v 0.769231 2.307692 0.385385
v 0.769231 2.307692 0.384615
v 0.769231 1.538462 0.385385
v 0.769231 1.538462 0.384615
v 0.000000 2.307692 -0.383846
v 0.769231 2.307692 -0.383846
v 0.000000 1.538462 -0.383846
v 0.769231 1.538462 -0.383846
v 0.769231 2.307692 -0.384615
v 0.000000 2.307692 -0.384615
v 0.769231 1.538462 -0.384615
v 0.000000 1.538462 -0.384615
v 0.769231 2.307692 -0.384615
v 0.769231 2.307692 -0.383846
v 0.000000 2.307692 -0.384615
v 0.000000 2.307692 -0.383846
v 0.000000 1.538462 -0.384615
v 0.000000 1.538462 -0.383846
v 0.769231 1.538462 -0.384615
v 0.769231 1.538462 -0.383846
v 0.000000 2.307692 -0.384615
v 0.000000 2.307692 -0.383846
v 0.000000 1.538462 -0.384615
v 0.000000 1.538462 -0.383846
v 0.769231 2.307692 -0.383846
v 0.769231 2.307692 -0.384615
v 0.769231 1.538462 -0.383846
v 0.769231 1.538462 -0.384615
v 0.000000 1.538462 0.192308
v 0.769231 1.538462 0.192308
v 0.000000 0.384615 0.192308
v 0.769231 0.384615 0.192308
v 0.769231 1.538462 -0.192308
v 0.000000 1.538462 -0.192308
v 0.769231 0.384615 -0.192308
v 0.000000 0.384615 -0.192308
v 0.769231 1.538462 -0.192308
v 0.769231 1.538462 0.192308
v 0.000000 1.538462 -0.192308
v 0.000000 1.538462 0.192308
v 0.000000 0.384615 -0.192308
v 0.000000 0.384615 0.192308
v 0.769231 0.384615 -0.192308
v 0.769231 0.384615 0.192308
v 0.000000 1.538462 -0.192308
v 0.000000 1.538462 0.192308
v 0.000000 0.384615 -0.192308
v 0.000000 0.384615 0.192308
v 0.769231 1.538462 0.192308
v 0.769231 1.538462 -0.192308
v 0.769231 0.384615 0.192308
v 0.769231 0.384615 -0.192308
v 0.192308 2.115385 0.019231
v 0.576923 2.115385 0.019231
v 0.192308 1.538462 0.019231
v 0.576923 1.538462 0.019231
v 0.576923 2.115385 -0.019231
v 0.192308 2.115385 -0.019231
v 0.576923 1.538462 -0.019231
v 0.192308 1.538462 -0.019231
v 0.576923 2.115385 -0.019231
v 0.576923 2.115385 0.019231
v 0.192308 2.115385 -0.019231
v 0.192308 2.115385 0.019231
v 0.192308 1.538462 -0.019231
v 0.192308 1.538462 0.019231
v 0.576923 1.538462 -0.019231
v 0.576923 1.538462 0.019231
v 0.192308 2.115385 -0.019231
v 0.192308 2.115385 0.019231
v 0.192308 1.538462 -0.019231
v 0.192308 1.538462 0.019231
v 0.576923 2.115385 0.019231
v 0.576923 2.115385 -0.019231
v 0.576923 1.538462 0.019231
v 0.576923 1.538462 -0.019231
v 3.461539 0.576923 0.576923
v 8.461537 0.576923 0.576923
v 3.461539 -0.576923 0.576923
v 8.461537 -0.576923 0.576923
v 8.461537 0.576923 -0.576923
v 3.461539 0.576923 -0.576923
v 8.461537 -0.576923 -0.576923
v 3.461539 -0.576923 -0.576923
v 8.461537 0.576923 -0.576923
v 8.461537 0.576923 0.576923
v 3.461539 0.576923 -0.576923
v 3.461539 0.576923 0.576923
v 3.461539 -0.576923 -0.576923
v 3.461539 -0.576923 0.576923
v 8.461537 -0.576923 -0.576923
v 8.461537 -0.576923 0.576923
v 3.461539 0.576923 -0.576923
v 3.461539 0.576923 0.576923
v 3.461539 -0.576923 -0.576923
v 3.461539 -0.576923 0.576923
v 8.461537 0.576923 0.576923
v 8.461537 0.576923 -0.576923
v 8.461537 -0.576923 0.576923
v 8.461537 -0.576923 -0.576923
v 8.211537 0.384615 0.384615
v 8.596153 0.384615 0.384615
v 8.211537 -0.384615 0.384615
v 8.596153 -0.384615 0.384615
v 8.596153 0.384615 -0.384616
v 8.211537 0.384615 -0.384616
v 8.596153 -0.384615 -0.384616
v 8.211537 -0.384615 -0.384616
v 8.596153 0.384615 -0.384616
v 8.596153 0.384615 0.384615
v 8.211537 0.384615 -0.384616
v 8.211537 0.384615 0.384615
v 8.211537 -0.384615 -0.384616
v 8.211537 -0.384615 0.384615
v 8.596153 -0.384615 -0.384616
v 8.596153 -0.384615 0.384615
v 8.211537 0.384615 -0.384616
v 8.211537 0.384615 0.384615
v 8.211537 -0.384615 -0.384616
v 8.211537 -0.384615 0.384615
v 8.596153 0.384615 0.384615
v 8.596153 0.384615 -0.384616
v 8.596153 -0.384615 0.384615
v 8.596153 -0.384615 -0.384616
v 0.769231 -0.000000 0.815892
v 3.461538 -0.000000 0.815892
v 0.769231 -0.815892 -0.000000
v 3.461538 -0.815892 -0.000000
v 3.461538 0.815892 0.000000
v 0.769231 0.815892 0.000000
v 3.461538 0.000000 -0.815893
v 0.769231 0.000000 -0.815892
v 3.461538 0.815892 0.000000
v 3.461538 -0.000000 0.815892
v 0.769231 0.815892 0.000000
v 0.769231 -0.000000 0.815892
v 0.769231 0.000000 -0.815892
v 0.769231 -0.815892 -0.000000
v 3.461538 0.000000 -0.815893
v 3.461538 -0.815892 -0.000000
v 0.769231 0.815892 0.000000
v 0.769231 -0.000000 0.815892
v 0.769231 0.000000 -0.815892
v 0.769231 -0.815892 -0.000000
v 3.461538 -0.000000 0.815892
v 3.461538 0.815892 0.000000
v 3.461538 -0.815892 -0.000000
v 3.461538 0.000000 -0.815893
vn -0.0000 -0.0000 1.0000
vn -0.0000 -0.0000 -1.0000
vn -0.0000 1.0000 -0.0000
vn -0.0000 -1.0000 -0.0000
vn -1.0000 -0.0000 -0.0000
vn 1.0000 -0.0000 -0.0000
vn -0.0000 -0.7071 0.7071
vn -0.0000 0.7071 -0.7071
vn -0.0000 0.7071 0.7071
vn -0.0000 -0.7071 -0.7071
vt 0.625000 0.687500
vt 0.625000 0.625000
vt 0.687500 0.687500
vt 0.687500 0.625000
vt 0.625000 0.562500
vt 0.687500 0.562500
vt 0.500000 0.312500
vt 0.500000 0.375000
vt 0.437500 0.312500
vt 0.437500 0.375000
vt 0.687500 0.500000
vt 0.625000 0.500000
vt 0.375000 0.375000
vt 0.375000 0.312500
vt 0.625000 0.750000
vt 0.687500 0.750000
vt 0.000000 1.000000
vt 0.062500 1.000000
vt 0.687500 0.937500
vt 0.687500 1.000000
vt 0.625000 0.937500
vt 0.625000 1.000000
vt 0.687500 0.875000
vt 0.625000 0.875000
vt 0.687500 0.812500
vt 0.625000 0.812500
vt 0.562500 0.375000
vt 0.562500 0.312500
vt 0.625000 0.437500
vt 0.687500 0.437500
vt 0.000000 0.937500
vt 0.625000 0.375000
vt 0.625000 0.312500
vt 0.687500 0.375000
vt 0.562500 1.000000
vt 0.562500 0.906250
vt 0.625000 0.906250
vt 0.562500 0.875000
vt 0.562500 0.781250
vt 0.625000 0.781250
vt 0.156250 0.250000
vt 0.156250 0.312500
vt 0.125000 0.250000
vt 0.125000 0.312500
vt 0.718750 0.875000
vt 0.718750 0.812500
vt 0.062500 0.312500
vt 0.062500 0.218750
vt 0.093750 0.312500
vt 0.093750 0.218750
vt 0.687500 0.906250
vt 0.718750 1.000000
vt 0.718750 0.906250
vt 0.718750 0.750000
vt 0.718750 0.687500
vt 0.718750 0.625000
vt 0.531250 0.281250
vt 0.531250 0.312500
vt 0.500000 0.281250
vt 0.718750 0.500000
vt 0.718750 0.468750
vt 0.687500 0.468750
vt 0.187500 0.312500
vt 0.187500 0.250000
vt 0.218750 0.312500
vt 0.218750 0.250000
vt 0.000000 0.906250
vt 0.406250 1.000000
vt 0.406250 0.906250
vt 0.000000 0.875000
vt 0.000000 0.781250
vt 0.406250 0.875000
vt 0.406250 0.781250
vt 0.093750 0.343750
vt 0.093750 0.750000
vt 0.000000 0.343750
vt 0.000000 0.750000
vt 0.218750 0.750000
vt 0.218750 0.343750
vt 0.125000 0.750000
vt 0.125000 0.343750
vt 0.375000 0.500000
vt 0.375000 0.406250
vt 0.468750 0.500000
vt 0.468750 0.406250
vt 0.500000 0.750000
vt 0.500000 0.656250
vt 0.593750 0.750000
vt 0.593750 0.656250
vt 0.375000 0.250000
vt 0.406250 0.312500
vt 0.406250 0.250000
vt 0.718750 0.562500
vt 0.437500 0.281250
vt 0.750000 0.562500
vt 0.750000 0.531250
vt 0.687500 0.531250
vt 0.000000 0.312500
vt 0.000000 0.250000
vt 0.062500 0.250000
vt 0.687500 0.312500
vt 0.250000 0.750000
vt 0.250000 0.656250
vt 0.468750 0.750000
vt 0.468750 0.656250
vt 0.250000 0.625000
vt 0.250000 0.531250
vt 0.468750 0.625000
vt 0.468750 0.531250
vt 0.531250 0.781250
vt 0.531250 1.000000
vt 0.437500 0.781250
vt 0.437500 1.000000
vt 0.343750 0.500000
vt 0.343750 0.281250
vt 0.250000 0.500000
vt 0.250000 0.281250
vt 0.500000 0.500000
vt 0.500000 0.406250
vt 0.593750 0.500000
vt 0.593750 0.406250
vt 0.500000 0.625000
vt 0.500000 0.531250
vt 0.593750 0.625000
vt 0.593750 0.531250
s 0
usemtl Material_0
f 1/1/1 3/2/1 2/3/1
f 3/2/1 4/4/1 2/3/1
f 5/2/2 7/5/2 6/4/2
f 7/5/2 8/6/2 6/4/2
f 9/7/3 11/8/3 10/9/3
f 11/8/3 12/10/3 10/9/3
f 13/6/4 15/11/4 14/5/4
f 15/11/4 16/12/4 14/5/4
f 17/13/5 19/14/5 18/10/5
f 19/14/5 20/9/5 18/10/5
f 21/15/6 23/1/6 22/16/6
f 23/1/6 24/3/6 22/16/6
f 25/17/1 27/17/1 26/18/1
f 27/17/1 28/18/1 26/18/1
f 29/17/2 31/17/2 30/18/2
f 31/17/2 32/18/2 30/18/2
f 33/19/3 35/20/3 34/21/3
f 35/20/3 36/22/3 34/21/3
f 37/19/4 39/23/4 38/21/4
f 39/23/4 40/24/4 38/21/4
f 41/17/5 43/17/5 42/18/5
f 43/17/5 44/18/5 42/18/5
f 45/17/6 47/17/6 46/18/6
f 47/17/6 48/18/6 46/18/6
f 49/17/1 51/17/1 50/18/1
f 51/17/1 52/18/1 50/18/1
f 53/17/2 55/17/2 54/18/2
f 55/17/2 56/18/2 54/18/2
f 57/25/3 59/23/3 58/26/3
f 59/23/3 60/24/3 58/26/3
f 61/25/4 63/16/4 62/26/4
f 63/16/4 64/15/4 62/26/4
f 65/17/5 67/17/5 66/18/5
f 67/17/5 68/18/5 66/18/5
f 69/17/6 71/17/6 70/18/6
f 71/17/6 72/18/6 70/18/6
f 73/8/1 75/7/1 74/27/1
f 75/7/1 76/28/1 74/27/1
f 77/12/2 79/29/2 78/11/2
f 79/29/2 80/30/2 78/11/2
f 81/31/3 83/17/3 82/31/3
f 83/17/3 84/17/3 82/31/3
f 85/17/4 87/31/4 86/17/4
f 87/31/4 88/31/4 86/17/4
f 89/17/5 91/31/5 90/17/5
f 91/31/5 92/31/5 90/17/5
f 93/17/6 95/31/6 94/17/6
f 95/31/6 96/31/6 94/17/6
f 97/27/1 99/28/1 98/32/1
f 99/28/1 100/33/1 98/32/1
f 101/29/2 103/32/2 102/30/2
f 103/32/2 104/34/2 102/30/2
f 105/31/3 107/17/3 106/31/3
f 107/17/3 108/17/3 106/31/3
f 109/17/4 111/31/4 110/17/4
f 111/31/4 112/31/4 110/17/4
f 113/17/5 115/31/5 114/17/5
f 115/31/5 116/31/5 114/17/5
f 117/17/6 119/31/6 118/17/6
f 119/31/6 120/31/6 118/17/6
f 121/35/1 123/36/1 122/22/1
f 123/36/1 124/37/1 122/22/1
f 125/38/2 127/39/2 126/24/2
f 127/39/2 128/40/2 126/24/2
f 129/41/3 131/42/3 130/43/3
f 131/42/3 132/44/3 130/43/3
f 133/45/4 135/46/4 134/23/4
f 135/46/4 136/25/4 134/23/4
f 137/47/5 139/48/5 138/49/5
f 139/48/5 140/50/5 138/49/5
f 141/20/6 143/51/6 142/52/6
f 143/51/6 144/53/6 142/52/6
f 145/25/1 147/16/1 146/46/1
f 147/16/1 148/54/1 146/46/1
f 149/3/2 151/4/2 150/55/2
f 151/4/2 152/56/2 150/55/2
f 153/57/3 155/58/3 154/59/3
f 155/58/3 156/7/3 154/59/3
f 157/60/4 159/61/4 158/11/4
f 159/61/4 160/62/4 158/11/4
f 161/16/5 163/3/5 162/54/5
f 163/3/5 164/55/5 162/54/5
f 165/63/6 167/64/6 166/65/6
f 167/64/6 168/66/6 166/65/6
f 169/17/1 171/67/1 170/68/1
f 171/67/1 172/69/1 170/68/1
f 173/70/2 175/71/2 174/72/2
f 175/71/2 176/73/2 174/72/2
f 177/74/3 179/75/3 178/76/3
f 179/75/3 180/77/3 178/76/3
f 181/78/4 183/79/4 182/80/4
f 183/79/4 184/81/4 182/80/4
f 185/82/5 187/83/5 186/84/5
f 187/83/5 188/85/5 186/84/5
f 189/86/6 191/87/6 190/88/6
f 191/87/6 192/89/6 190/88/6
f 193/14/1 195/90/1 194/91/1
f 195/90/1 196/92/1 194/91/1
f 197/4/2 199/6/2 198/56/2
f 199/6/2 200/93/2 198/56/2
f 201/59/3 203/7/3 202/94/3
f 203/7/3 204/9/3 202/94/3
f 205/95/4 207/96/4 206/6/4
f 207/96/4 208/97/4 206/6/4
f 209/98/5 211/99/5 210/47/5
f 211/99/5 212/100/5 210/47/5
f 213/32/6 215/33/6 214/34/6
f 215/33/6 216/101/6 214/34/6
f 217/102/7 219/103/7 218/104/7
f 219/103/7 220/105/7 218/104/7
f 221/106/8 223/107/8 222/108/8
f 223/107/8 224/109/8 222/108/8
f 225/110/9 227/111/9 226/112/9
f 227/111/9 228/113/9 226/112/9
f 229/114/10 231/115/10 230/116/10
f 231/115/10 232/117/10 230/116/10
f 233/118/5 235/119/5 234/120/5
f 235/119/5 236/121/5 234/120/5
f 237/122/6 239/123/6 238/124/6
f 239/123/6 240/125/6 238/124/6
