# Blender 5.0.0
# www.blender.org
mtllib lev.sbrpm.mtl
o attachmentModel
v -0.961538 0.384615 0.584615
v 0.961538 0.384615 0.584615
v -0.961538 0.000000 0.584615
v 0.961538 0.000000 0.584615
v 0.961538 0.384615 -0.584615
v -0.961538 0.384615 -0.584615
v 0.961538 0.000000 -0.584615
v -0.961538 0.000000 -0.584615
v 0.961538 0.384615 -0.584615
v 0.961538 0.384615 0.584615
v -0.961538 0.384615 -0.584615
v -0.961538 0.384615 0.584615
v -0.961538 0.000000 -0.584615
v -0.961538 0.000000 0.584615
v 0.961538 0.000000 -0.584615
v 0.961538 0.000000 0.584615
v -0.961538 0.384615 -0.584615
v -0.961538 0.384615 0.584615
v -0.961538 0.000000 -0.584615
v -0.961538 0.000000 0.584615
v 0.961538 0.384615 0.584615
v 0.961538 0.384615 -0.584615
v 0.961538 0.000000 0.584615
v 0.961538 0.000000 -0.584615
v 0.961538 0.384615 0.769231
v 1.730769 0.384615 0.769231
v 0.961538 0.000000 0.769231
v 1.730769 0.000000 0.769231
v 1.730769 0.384615 -0.769231
v 0.961538 0.384615 -0.769231
v 1.730769 0.000000 -0.769231
v 0.961538 0.000000 -0.769231
v 1.730769 0.384615 -0.769231
v 1.730769 0.384615 0.769231
v 0.961538 0.384615 -0.769231
v 0.961538 0.384615 0.769231
v 0.961538 0.000000 -0.769231
v 0.961538 0.000000 0.769231
v 1.730769 0.000000 -0.769231
v 1.730769 0.000000 0.769231
v 0.961538 0.384615 -0.769231
v 0.961538 0.384615 0.769231
v 0.961538 0.000000 -0.769231
v 0.961538 0.000000 0.769231
v 1.730769 0.384615 0.769231
v 1.730769 0.384615 -0.769231
v 1.730769 0.000000 0.769231
v 1.730769 0.000000 -0.769231
v -1.730769 0.384615 0.769231
v -0.961538 0.384615 0.769231
v -1.730769 0.000000 0.769231
v -0.961538 0.000000 0.769231
v -0.961538 0.384615 -0.769231
v -1.730769 0.384615 -0.769231
v -0.961538 0.000000 -0.769231
v -1.730769 0.000000 -0.769231
v -0.961538 0.384615 -0.769231
v -0.961538 0.384615 0.769231
v -1.730769 0.384615 -0.769231
v -1.730769 0.384615 0.769231
v -1.730769 0.000000 -0.769231
v -1.730769 0.000000 0.769231
v -0.961538 0.000000 -0.769231
v -0.961538 0.000000 0.769231
v -1.730769 0.384615 -0.769231
v -1.730769 0.384615 0.769231
v -1.730769 0.000000 -0.769231
v -1.730769 0.000000 0.769231
v -0.961538 0.384615 0.769231
v -0.961538 0.384615 -0.769231
v -0.961538 0.000000 0.769231
v -0.961538 0.000000 -0.769231
v 0.961538 1.923077 0.576923
v 1.730769 1.923077 0.576923
v 0.961538 0.769231 0.576923
v 1.730769 0.769231 0.576923
v 1.730769 1.923077 -0.576923
v 0.961538 1.923077 -0.576923
v 1.730769 0.769231 -0.576923
v 0.961538 0.769231 -0.576923
v 1.730769 1.923077 -0.576923
v 1.730769 1.923077 0.576923
v 0.961538 1.923077 -0.576923
v 0.961538 1.923077 0.576923
v 0.961538 0.769231 -0.576923
v 0.961538 0.769231 0.576923
v 1.730769 0.769231 -0.576923
v 1.730769 0.769231 0.576923
v 0.961538 1.923077 -0.576923
v 0.961538 1.923077 0.576923
v 0.961538 0.769231 -0.576923
v 0.961538 0.769231 0.576923
v 1.730769 1.923077 0.576923
v 1.730769 1.923077 -0.576923
v 1.730769 0.769231 0.576923
v 1.730769 0.769231 -0.576923
v 0.961538 2.307692 0.576923
v 2.500000 2.307692 0.576923
v 0.961538 1.923077 0.576923
v 2.500000 1.923077 0.576923
v 2.500000 2.307692 -0.576923
v 0.961538 2.307692 -0.576923
v 2.500000 1.923077 -0.576923
v 0.961538 1.923077 -0.576923
v 2.500000 2.307692 -0.576923
v 2.500000 2.307692 0.576923
v 0.961538 2.307692 -0.576923
v 0.961538 2.307692 0.576923
v 0.961538 1.923077 -0.576923
v 0.961538 1.923077 0.576923
v 2.500000 1.923077 -0.576923
v 2.500000 1.923077 0.576923
v 0.961538 2.307692 -0.576923
v 0.961538 2.307692 0.576923
v 0.961538 1.923077 -0.576923
v 0.961538 1.923077 0.576923
v 2.500000 2.307692 0.576923
v 2.500000 2.307692 -0.576923
v 2.500000 1.923077 0.576923
v 2.500000 1.923077 -0.576923
v -2.500000 2.307692 0.576923
v -0.961538 2.307692 0.576923
v -2.500000 1.923077 0.576923
v -0.961538 1.923077 0.576923
v -0.961538 2.307692 -0.576923
v -2.500000 2.307692 -0.576923
v -0.961538 1.923077 -0.576923
v -2.500000 1.923077 -0.576923
v -0.961538 2.307692 -0.576923
v -0.961538 2.307692 0.576923
v -2.500000 2.307692 -0.576923
v -2.500000 2.307692 0.576923
v -2.500000 1.923077 -0.576923
v -2.500000 1.923077 0.576923
v -0.961538 1.923077 -0.576923
v -0.961538 1.923077 0.576923
v -2.500000 2.307692 -0.576923
v -2.500000 2.307692 0.576923
v -2.500000 1.923077 -0.576923
v -2.500000 1.923077 0.576923
v -0.961538 2.307692 0.576923
v -0.961538 2.307692 -0.576923
v -0.961538 1.923077 0.576923
v -0.961538 1.923077 -0.576923
v 0.961538 1.539231 0.769231
v 1.730769 1.539231 0.769231
v 0.961538 1.153846 0.769231
v 1.730769 1.153846 0.769231
v 1.730769 1.539231 -0.769231
v 0.961538 1.539231 -0.769231
v 1.730769 1.153846 -0.769231
v 0.961538 1.153846 -0.769231
v 1.730769 1.539231 -0.769231
v 1.730769 1.539231 0.769231
v 0.961538 1.539231 -0.769231
v 0.961538 1.539231 0.769231
v 0.961538 1.153846 -0.769231
v 0.961538 1.153846 0.769231
v 1.730769 1.153846 -0.769231
v 1.730769 1.153846 0.769231
v 0.961538 1.539231 -0.769231
v 0.961538 1.539231 0.769231
v 0.961538 1.153846 -0.769231
v 0.961538 1.153846 0.769231
v 1.730769 1.539231 0.769231
v 1.730769 1.539231 -0.769231
v 1.730769 1.153846 0.769231
v 1.730769 1.153846 -0.769231
v -1.730769 1.539231 0.769231
v -0.961538 1.539231 0.769231
v -1.730769 1.153846 0.769231
v -0.961538 1.153846 0.769231
v -0.961538 1.539231 -0.769231
v -1.730769 1.539231 -0.769231
v -0.961538 1.153846 -0.769231
v -1.730769 1.153846 -0.769231
v -0.961538 1.539231 -0.769231
v -0.961538 1.539231 0.769231
v -1.730769 1.539231 -0.769231
v -1.730769 1.539231 0.769231
v -1.730769 1.153846 -0.769231
v -1.730769 1.153846 0.769231
v -0.961538 1.153846 -0.769231
v -0.961538 1.153846 0.769231
v -1.730769 1.539231 -0.769231
v -1.730769 1.539231 0.769231
v -1.730769 1.153846 -0.769231
v -1.730769 1.153846 0.769231
v -0.961538 1.539231 0.769231
v -0.961538 1.539231 -0.769231
v -0.961538 1.153846 0.769231
v -0.961538 1.153846 -0.769231
v 0.192306 1.890080 0.769231
v 0.736234 1.346152 0.769231
v -0.351622 1.346152 0.769231
v 0.192306 0.802224 0.769231
v 0.736234 1.346152 -0.769231
v 0.192306 1.890080 -0.769231
v 0.192306 0.802224 -0.769231
v -0.351622 1.346152 -0.769231
v 0.736234 1.346152 -0.769231
v 0.736234 1.346152 0.769231
v 0.192306 1.890080 -0.769231
v 0.192306 1.890080 0.769231
v -0.351622 1.346152 -0.769231
v -0.351622 1.346152 0.769231
v 0.192306 0.802224 -0.769231
v 0.192306 0.802224 0.769231
v 0.192306 1.890080 -0.769231
v 0.192306 1.890080 0.769231
v -0.351622 1.346152 -0.769231
v -0.351622 1.346152 0.769231
v 0.736234 1.346152 0.769231
v 0.736234 1.346152 -0.769231
v 0.192306 0.802224 0.769231
v 0.192306 0.802224 -0.769231
v -2.692307 1.730769 0.000000
v -1.923077 1.730769 0.000000
v -2.692307 0.961538 0.000000
v -1.923077 0.961538 0.000000
v -1.923077 1.730769 -0.769231
v -2.692307 1.730769 -0.769231
v -1.923077 0.961538 -0.769231
v -2.692307 0.961538 -0.769231
v -1.923077 1.730769 -0.769231
v -1.923077 1.730769 0.000000
v -2.692307 1.730769 -0.769231
v -2.692307 1.730769 0.000000
v -2.692307 0.961538 -0.769231
v -2.692307 0.961538 0.000000
v -1.923077 0.961538 -0.769231
v -1.923077 0.961538 0.000000
v -2.692307 1.730769 -0.769231
v -2.692307 1.730769 0.000000
v -2.692307 0.961538 -0.769231
v -2.692307 0.961538 0.000000
v -1.923077 1.730769 0.000000
v -1.923077 1.730769 -0.769231
v -1.923077 0.961538 0.000000
v -1.923077 0.961538 -0.769231
v -0.351617 2.307692 -0.000000
v 0.192311 2.307692 0.543928
v -0.351617 1.923077 -0.000000
v 0.192311 1.923077 0.543928
v 0.736239 2.307692 0.000000
v 0.192311 2.307692 -0.543928
v 0.736239 1.923077 0.000000
v 0.192311 1.923077 -0.543928
v 0.736239 2.307692 0.000000
v 0.192311 2.307692 0.543928
v 0.192311 2.307692 -0.543928
v -0.351617 2.307692 -0.000000
v 0.192311 1.923077 -0.543928
v -0.351617 1.923077 -0.000000
v 0.736239 1.923077 0.000000
v 0.192311 1.923077 0.543928
v 0.192311 2.307692 -0.543928
v -0.351617 2.307692 -0.000000
v 0.192311 1.923077 -0.543928
v -0.351617 1.923077 -0.000000
v 0.192311 2.307692 0.543928
v 0.736239 2.307692 0.000000
v 0.192311 1.923077 0.543928
v 0.736239 1.923077 0.000000
v -0.384615 1.923077 0.576923
v 0.769231 1.923077 0.576923
v -0.384615 0.769231 0.576923
v 0.769231 0.769231 0.576923
v 0.769231 1.923077 -0.576923
v -0.384615 1.923077 -0.576923
v 0.769231 0.769231 -0.576923
v -0.384615 0.769231 -0.576923
v 0.769231 1.923077 -0.576923
v 0.769231 1.923077 0.576923
v -0.384615 1.923077 -0.576923
v -0.384615 1.923077 0.576923
v -0.384615 0.769231 -0.576923
v -0.384615 0.769231 0.576923
v 0.769231 0.769231 -0.576923
v 0.769231 0.769231 0.576923
v -0.384615 1.923077 -0.576923
v -0.384615 1.923077 0.576923
v -0.384615 0.769231 -0.576923
v -0.384615 0.769231 0.576923
v 0.769231 1.923077 0.576923
v 0.769231 1.923077 -0.576923
v 0.769231 0.769231 0.576923
v 0.769231 0.769231 -0.576923
v -1.730769 1.923077 0.576923
v -0.961538 1.923077 0.576923
v -1.730769 0.769231 0.576923
v -0.961538 0.769231 0.576923
v -0.961538 1.923077 -0.576923
v -1.730769 1.923077 -0.576923
v -0.961538 0.769231 -0.576923
v -1.730769 0.769231 -0.576923
v -0.961538 1.923077 -0.576923
v -0.961538 1.923077 0.576923
v -1.730769 1.923077 -0.576923
v -1.730769 1.923077 0.576923
v -1.730769 0.769231 -0.576923
v -1.730769 0.769231 0.576923
v -0.961538 0.769231 -0.576923
v -0.961538 0.769231 0.576923
v -1.730769 1.923077 -0.576923
v -1.730769 1.923077 0.576923
v -1.730769 0.769231 -0.576923
v -1.730769 0.769231 0.576923
v -0.961538 1.923077 0.576923
v -0.961538 1.923077 -0.576923
v -0.961538 0.769231 0.576923
v -0.961538 0.769231 -0.576923
v -5.173846 1.923077 0.576923
v -5.173076 1.923077 0.576923
v -5.173846 0.769231 0.576923
v -5.173076 0.769231 0.576923
v -5.173076 1.923077 -0.576923
v -5.173846 1.923077 -0.576923
v -5.173076 0.769231 -0.576923
v -5.173846 0.769231 -0.576923
v -5.173076 1.923077 -0.576923
v -5.173076 1.923077 0.576923
v -5.173846 1.923077 -0.576923
v -5.173846 1.923077 0.576923
v -5.173846 0.769231 -0.576923
v -5.173846 0.769231 0.576923
v -5.173076 0.769231 -0.576923
v -5.173076 0.769231 0.576923
v -5.173846 1.923077 -0.576923
v -5.173846 1.923077 0.576923
v -5.173846 0.769231 -0.576923
v -5.173846 0.769231 0.576923
v -5.173076 1.923077 0.576923
v -5.173076 1.923077 -0.576923
v -5.173076 0.769231 0.576923
v -5.173076 0.769231 -0.576923
v -5.192307 0.770000 0.576923
v -2.884615 0.770000 0.576923
v -5.192307 0.769231 0.576923
v -2.884615 0.769231 0.576923
v -2.884615 0.770000 -0.576923
v -5.192307 0.770000 -0.576923
v -2.884615 0.769231 -0.576923
v -5.192307 0.769231 -0.576923
v -2.884615 0.770000 -0.576923
v -2.884615 0.770000 0.576923
v -5.192307 0.770000 -0.576923
v -5.192307 0.770000 0.576923
v -5.192307 0.769231 -0.576923
v -5.192307 0.769231 0.576923
v -2.884615 0.769231 -0.576923
v -2.884615 0.769231 0.576923
v -5.192307 0.770000 -0.576923
v -5.192307 0.770000 0.576923
v -5.192307 0.769231 -0.576923
v -5.192307 0.769231 0.576923
v -2.884615 0.770000 0.576923
v -2.884615 0.770000 -0.576923
v -2.884615 0.769231 0.576923
v -2.884615 0.769231 -0.576923
v -5.192307 1.923077 0.577692
v -2.884615 1.923077 0.577692
v -5.192307 0.769231 0.577692
v -2.884615 0.769231 0.577692
v -2.884615 1.923077 0.576923
v -5.192307 1.923077 0.576923
v -2.884615 0.769231 0.576923
v -5.192307 0.769231 0.576923
v -2.884615 1.923077 0.576923
v -2.884615 1.923077 0.577692
v -5.192307 1.923077 0.576923
v -5.192307 1.923077 0.577692
v -5.192307 0.769231 0.576923
v -5.192307 0.769231 0.577692
v -2.884615 0.769231 0.576923
v -2.884615 0.769231 0.577692
v -5.192307 1.923077 0.576923
v -5.192307 1.923077 0.577692
v -5.192307 0.769231 0.576923
v -5.192307 0.769231 0.577692
v -2.884615 1.923077 0.577692
v -2.884615 1.923077 0.576923
v -2.884615 0.769231 0.577692
v -2.884615 0.769231 0.576923
v -5.192307 1.923077 -0.576154
v -2.884615 1.923077 -0.576154
v -5.192307 0.769231 -0.576154
v -2.884615 0.769231 -0.576154
v -2.884615 1.923077 -0.576923
v -5.192307 1.923077 -0.576923
v -2.884615 0.769231 -0.576923
v -5.192307 0.769231 -0.576923
v -2.884615 1.923077 -0.576923
v -2.884615 1.923077 -0.576154
v -5.192307 1.923077 -0.576923
v -5.192307 1.923077 -0.576154
v -5.192307 0.769231 -0.576923
v -5.192307 0.769231 -0.576154
v -2.884615 0.769231 -0.576923
v -2.884615 0.769231 -0.576154
v -5.192307 1.923077 -0.576923
v -5.192307 1.923077 -0.576154
v -5.192307 0.769231 -0.576923
v -5.192307 0.769231 -0.576154
v -2.884615 1.923077 -0.576154
v -2.884615 1.923077 -0.576923
v -2.884615 0.769231 -0.576154
v -2.884615 0.769231 -0.576923
v -5.192307 1.923846 0.576923
v -2.884615 1.923846 0.576923
v -5.192307 1.923077 0.576923
v -2.884615 1.923077 0.576923
v -2.884615 1.923846 -0.576923
v -5.192307 1.923846 -0.576923
v -2.884615 1.923077 -0.576923
v -5.192307 1.923077 -0.576923
v -2.884615 1.923846 -0.576923
v -2.884615 1.923846 0.576923
v -5.192307 1.923846 -0.576923
v -5.192307 1.923846 0.576923
v -5.192307 1.923077 -0.576923
v -5.192307 1.923077 0.576923
v -2.884615 1.923077 -0.576923
v -2.884615 1.923077 0.576923
v -5.192307 1.923846 -0.576923
v -5.192307 1.923846 0.576923
v -5.192307 1.923077 -0.576923
v -5.192307 1.923077 0.576923
v -2.884615 1.923846 0.576923
v -2.884615 1.923846 -0.576923
v -2.884615 1.923077 0.576923
v -2.884615 1.923077 -0.576923
v -2.885384 1.923077 0.576923
v -2.884615 1.923077 0.576923
v -2.885384 0.769231 0.576923
v -2.884615 0.769231 0.576923
v -2.884615 1.923077 -0.576923
v -2.885384 1.923077 -0.576923
v -2.884615 0.769231 -0.576923
v -2.885384 0.769231 -0.576923
v -2.884615 1.923077 -0.576923
v -2.884615 1.923077 0.576923
v -2.885384 1.923077 -0.576923
v -2.885384 1.923077 0.576923
v -2.885384 0.769231 -0.576923
v -2.885384 0.769231 0.576923
v -2.884615 0.769231 -0.576923
v -2.884615 0.769231 0.576923
v -2.885384 1.923077 -0.576923
v -2.885384 1.923077 0.576923
v -2.885384 0.769231 -0.576923
v -2.885384 0.769231 0.576923
v -2.884615 1.923077 0.576923
v -2.884615 1.923077 -0.576923
v -2.884615 0.769231 0.576923
v -2.884615 0.769231 -0.576923
v -5.193077 1.923077 -0.461538
v -5.192307 1.923077 -0.461538
v -5.193077 0.769231 -0.461538
v -5.192307 0.769231 -0.461538
v -5.192307 1.923077 -0.576923
v -5.193077 1.923077 -0.576923
v -5.192307 0.769231 -0.576923
v -5.193077 0.769231 -0.576923
v -5.192307 1.923077 -0.576923
v -5.192307 1.923077 -0.461538
v -5.193077 1.923077 -0.576923
v -5.193077 1.923077 -0.461538
v -5.193077 0.769231 -0.576923
v -5.193077 0.769231 -0.461538
v -5.192307 0.769231 -0.576923
v -5.192307 0.769231 -0.461538
v -5.193077 1.923077 -0.576923
v -5.193077 1.923077 -0.461538
v -5.193077 0.769231 -0.576923
v -5.193077 0.769231 -0.461538
v -5.192307 1.923077 -0.461538
v -5.192307 1.923077 -0.576923
v -5.192307 0.769231 -0.461538
v -5.192307 0.769231 -0.576923
v -5.193077 1.923077 0.576923
v -5.192307 1.923077 0.576923
v -5.193077 0.769231 0.576923
v -5.192307 0.769231 0.576923
v -5.192307 1.923077 0.461539
v -5.193077 1.923077 0.461539
v -5.192307 0.769231 0.461539
v -5.193077 0.769231 0.461539
v -5.192307 1.923077 0.461539
v -5.192307 1.923077 0.576923
v -5.193077 1.923077 0.461539
v -5.193077 1.923077 0.576923
v -5.193077 0.769231 0.461539
v -5.193077 0.769231 0.576923
v -5.192307 0.769231 0.461539
v -5.192307 0.769231 0.576923
v -5.193077 1.923077 0.461539
v -5.193077 1.923077 0.576923
v -5.193077 0.769231 0.461539
v -5.193077 0.769231 0.576923
v -5.192307 1.923077 0.576923
v -5.192307 1.923077 0.461539
v -5.192307 0.769231 0.576923
v -5.192307 0.769231 0.461539
v -5.193077 0.884615 0.461539
v -5.192307 0.884615 0.461539
v -5.193077 0.769231 0.461539
v -5.192307 0.769231 0.461539
v -5.192307 0.884615 -0.461538
v -5.193077 0.884615 -0.461538
v -5.192307 0.769231 -0.461538
v -5.193077 0.769231 -0.461538
v -5.192307 0.884615 -0.461538
v -5.192307 0.884615 0.461539
v -5.193077 0.884615 -0.461538
v -5.193077 0.884615 0.461539
v -5.193077 0.769231 -0.461538
v -5.193077 0.769231 0.461539
v -5.192307 0.769231 -0.461538
v -5.192307 0.769231 0.461539
v -5.193077 0.884615 -0.461538
v -5.193077 0.884615 0.461539
v -5.193077 0.769231 -0.461538
v -5.193077 0.769231 0.461539
v -5.192307 0.884615 0.461539
v -5.192307 0.884615 -0.461538
v -5.192307 0.769231 0.461539
v -5.192307 0.769231 -0.461538
v -5.193077 1.923077 0.461539
v -5.192307 1.923077 0.461539
v -5.193077 1.807692 0.461539
v -5.192307 1.807692 0.461539
v -5.192307 1.923077 -0.461538
v -5.193077 1.923077 -0.461538
v -5.192307 1.807692 -0.461538
v -5.193077 1.807692 -0.461538
v -5.192307 1.923077 -0.461538
v -5.192307 1.923077 0.461539
v -5.193077 1.923077 -0.461538
v -5.193077 1.923077 0.461539
v -5.193077 1.807692 -0.461538
v -5.193077 1.807692 0.461539
v -5.192307 1.807692 -0.461538
v -5.192307 1.807692 0.461539
v -5.193077 1.923077 -0.461538
v -5.193077 1.923077 0.461539
v -5.193077 1.807692 -0.461538
v -5.193077 1.807692 0.461539
v -5.192307 1.923077 0.461539
v -5.192307 1.923077 -0.461538
v -5.192307 1.807692 0.461539
v -5.192307 1.807692 -0.461538
v 2.115384 1.923077 0.576923
v 3.269231 1.923077 0.576923
v 2.115384 0.769231 0.576923
v 3.269231 0.769231 0.576923
v 3.269231 1.923077 -0.576923
v 2.115384 1.923077 -0.576923
v 3.269231 0.769231 -0.576923
v 2.115384 0.769231 -0.576923
v 3.269231 1.923077 -0.576923
v 3.269231 1.923077 0.576923
v 2.115384 1.923077 -0.576923
v 2.115384 1.923077 0.576923
v 2.115384 0.769231 -0.576923
v 2.115384 0.769231 0.576923
v 3.269231 0.769231 -0.576923
v 3.269231 0.769231 0.576923
v 2.115384 1.923077 -0.576923
v 2.115384 1.923077 0.576923
v 2.115384 0.769231 -0.576923
v 2.115384 0.769231 0.576923
v 3.269231 1.923077 0.576923
v 3.269231 1.923077 -0.576923
v 3.269231 0.769231 0.576923
v 3.269231 0.769231 -0.576923
v 3.269231 2.115385 0.769231
v 5.192307 2.115385 0.769231
v 3.269231 0.576923 0.769231
v 5.192307 0.576923 0.769231
v 5.192307 2.115385 -0.769231
v 3.269231 2.115385 -0.769231
v 5.192307 0.576923 -0.769231
v 3.269231 0.576923 -0.769231
v 5.192307 2.115385 -0.769231
v 5.192307 2.115385 0.769231
v 3.269231 2.115385 -0.769231
v 3.269231 2.115385 0.769231
v 3.269231 0.576923 -0.769231
v 3.269231 0.576923 0.769231
v 5.192307 0.576923 -0.769231
v 5.192307 0.576923 0.769231
v 3.269231 2.115385 -0.769231
v 3.269231 2.115385 0.769231
v 3.269231 0.576923 -0.769231
v 3.269231 0.576923 0.769231
v 5.192307 2.115385 0.769231
v 5.192307 2.115385 -0.769231
v 5.192307 0.576923 0.769231
v 5.192307 0.576923 -0.769231
v 0.961538 0.769231 0.384615
v 1.730769 0.769231 0.384615
v 0.961538 0.384615 0.384615
v 1.730769 0.384615 0.384615
v 1.730769 0.769231 -0.384615
v 0.961538 0.769231 -0.384615
v 1.730769 0.384615 -0.384615
v 0.961538 0.384615 -0.384615
v 1.730769 0.769231 -0.384615
v 1.730769 0.769231 0.384615
v 0.961538 0.769231 -0.384615
v 0.961538 0.769231 0.384615
v 0.961538 0.384615 -0.384615
v 0.961538 0.384615 0.384615
v 1.730769 0.384615 -0.384615
v 1.730769 0.384615 0.384615
v 0.961538 0.769231 -0.384615
v 0.961538 0.769231 0.384615
v 0.961538 0.384615 -0.384615
v 0.961538 0.384615 0.384615
v 1.730769 0.769231 0.384615
v 1.730769 0.769231 -0.384615
v 1.730769 0.384615 0.384615
v 1.730769 0.384615 -0.384615
v -1.730769 0.769231 0.384615
v -0.961538 0.769231 0.384615
v -1.730769 0.384615 0.384615
v -0.961538 0.384615 0.384615
v -0.961538 0.769231 -0.384615
v -1.730769 0.769231 -0.384615
v -0.961538 0.384615 -0.384615
v -1.730769 0.384615 -0.384615
v -0.961538 0.769231 -0.384615
v -0.961538 0.769231 0.384615
v -1.730769 0.769231 -0.384615
v -1.730769 0.769231 0.384615
v -1.730769 0.384615 -0.384615
v -1.730769 0.384615 0.384615
v -0.961538 0.384615 -0.384615
v -0.961538 0.384615 0.384615
v -1.730769 0.769231 -0.384615
v -1.730769 0.769231 0.384615
v -1.730769 0.384615 -0.384615
v -1.730769 0.384615 0.384615
v -0.961538 0.769231 0.384615
v -0.961538 0.769231 -0.384615
v -0.961538 0.384615 0.384615
v -0.961538 0.384615 -0.384615
v -2.884615 1.346157 0.543929
v 2.115384 1.346157 0.543928
v -2.884615 0.802229 0.000000
v 2.115384 0.802229 0.000000
v 2.115384 1.890086 0.000000
v -2.884615 1.890086 0.000000
v 2.115384 1.346157 -0.543928
v -2.884615 1.346157 -0.543928
v 2.115384 1.890086 0.000000
v 2.115384 1.346157 0.543928
v -2.884615 1.890086 0.000000
v -2.884615 1.346157 0.543929
v -2.884615 1.346157 -0.543928
v -2.884615 0.802229 0.000000
v 2.115384 1.346157 -0.543928
v 2.115384 0.802229 0.000000
v -2.884615 1.890086 0.000000
v -2.884615 1.346157 0.543929
v -2.884615 1.346157 -0.543928
v -2.884615 0.802229 0.000000
v 2.115384 1.346157 0.543928
v 2.115384 1.890086 0.000000
v 2.115384 0.802229 0.000000
v 2.115384 1.346157 -0.543928
v -5.192307 1.923077 0.577695
v -4.126293 1.923077 1.019252
v -5.192307 0.769231 0.577695
v -4.126293 0.769231 1.019252
v -4.125998 1.923077 1.018542
v -5.192013 1.923077 0.576984
v -4.125998 0.769231 1.018542
v -5.192013 0.769231 0.576984
v -4.125998 1.923077 1.018542
v -4.126293 1.923077 1.019252
v -5.192013 1.923077 0.576984
v -5.192307 1.923077 0.577695
v -5.192013 0.769231 0.576984
v -5.192307 0.769231 0.577695
v -4.125998 0.769231 1.018542
v -4.126293 0.769231 1.019252
v -5.192013 1.923077 0.576984
v -5.192307 1.923077 0.577695
v -5.192013 0.769231 0.576984
v -5.192307 0.769231 0.577695
v -4.126293 1.923077 1.019252
v -4.125998 1.923077 1.018542
v -4.126293 0.769231 1.019252
v -4.125998 0.769231 1.018542
v 3.771544 2.115385 1.360167
v 5.192896 2.115385 0.771423
v 3.771544 0.576923 1.360167
v 5.192896 0.576923 0.771423
v 5.192602 2.115385 0.770713
v 3.771249 2.115385 1.359457
v 5.192602 0.576923 0.770713
v 3.771249 0.576923 1.359457
v 5.192602 2.115385 0.770713
v 5.192896 2.115385 0.771423
v 3.771249 2.115385 1.359457
v 3.771544 2.115385 1.360167
v 3.771249 0.576923 1.359457
v 3.771544 0.576923 1.360167
v 5.192602 0.576923 0.770713
v 5.192896 0.576923 0.771423
v 3.771249 2.115385 1.359457
v 3.771544 2.115385 1.360167
v 3.771249 0.576923 1.359457
v 3.771544 0.576923 1.360167
v 5.192896 2.115385 0.771423
v 5.192602 2.115385 0.770713
v 5.192896 0.576923 0.771423
v 5.192602 0.576923 0.770713
vn -0.0000 -0.0000 1.0000
vn -0.0000 -0.0000 -1.0000
vn -0.0000 1.0000 -0.0000
vn -0.0000 -1.0000 -0.0000
vn -1.0000 -0.0000 -0.0000
vn 1.0000 -0.0000 -0.0000
vn 0.7071 0.7071 -0.0000
vn -0.7071 -0.7071 -0.0000
vn -0.7071 0.7071 -0.0000
vn 0.7071 -0.7071 -0.0000
vn -0.7071 -0.0000 0.7071
vn 0.7071 -0.0000 -0.7071
vn -0.7071 -0.0000 -0.7071
vn 0.7071 -0.0000 0.7071
vn -0.0000 -0.7071 0.7071
vn -0.0000 0.7071 -0.7071
vn -0.0000 0.7071 0.7071
vn -0.0000 -0.7071 -0.7071
vn -0.3827 -0.0000 0.9239
vn 0.3827 -0.0000 -0.9239
vn -0.9239 -0.0000 -0.3826
vn 0.9237 -0.0000 0.3832
vn 0.9237 -0.0000 0.3831
vn 0.3827 -0.0000 0.9239
vn -0.3827 -0.0000 -0.9239
vn -0.0000 1.0000 -0.0004
vn -0.0000 1.0000 0.0004
vn -0.9238 -0.0000 0.3829
vn 0.9239 -0.0000 -0.3826
vt 0.500000 0.593750
vt 0.500000 0.578125
vt 0.578125 0.593750
vt 0.578125 0.578125
vt 0.437500 0.500000
vt 0.437500 0.484375
vt 0.515625 0.500000
vt 0.515625 0.484375
vt 0.171875 0.609375
vt 0.171875 0.687500
vt 0.125000 0.609375
vt 0.125000 0.687500
vt 0.359375 0.843750
vt 0.359375 0.765625
vt 0.312500 0.843750
vt 0.312500 0.765625
vt 0.562500 0.906250
vt 0.562500 0.890625
vt 0.609375 0.906250
vt 0.609375 0.890625
vt 0.093750 0.437500
vt 0.093750 0.421875
vt 0.140625 0.437500
vt 0.140625 0.421875
vt 0.562500 0.781250
vt 0.562500 0.765625
vt 0.593750 0.781250
vt 0.593750 0.765625
vt 0.343750 0.437500
vt 0.343750 0.421875
vt 0.375000 0.437500
vt 0.375000 0.421875
vt 0.250000 0.500000
vt 0.250000 0.531250
vt 0.187500 0.500000
vt 0.187500 0.531250
vt 0.312500 0.531250
vt 0.312500 0.500000
vt 0.500000 0.531250
vt 0.500000 0.515625
vt 0.562500 0.531250
vt 0.562500 0.515625
vt 0.500000 0.562500
vt 0.500000 0.546875
vt 0.562500 0.562500
vt 0.562500 0.546875
vt 0.562500 0.656250
vt 0.562500 0.640625
vt 0.593750 0.656250
vt 0.593750 0.640625
vt 0.406250 0.437500
vt 0.406250 0.421875
vt 0.531250 0.718750
vt 0.531250 0.750000
vt 0.468750 0.718750
vt 0.468750 0.750000
vt 0.531250 0.687500
vt 0.468750 0.687500
vt 0.531250 1.000000
vt 0.531250 0.984375
vt 0.593750 1.000000
vt 0.593750 0.984375
vt 0.000000 0.468750
vt 0.000000 0.453125
vt 0.062500 0.468750
vt 0.062500 0.453125
vt 0.125000 0.812500
vt 0.125000 0.765625
vt 0.156250 0.812500
vt 0.156250 0.765625
vt 0.250000 0.453125
vt 0.281250 0.500000
vt 0.281250 0.453125
vt 0.546875 0.750000
vt 0.546875 0.781250
vt 0.500000 0.750000
vt 0.500000 0.781250
vt 0.328125 0.500000
vt 0.328125 0.468750
vt 0.281250 0.468750
vt 0.312500 0.656250
vt 0.312500 0.609375
vt 0.359375 0.656250
vt 0.359375 0.609375
vt 0.343750 0.750000
vt 0.343750 0.703125
vt 0.390625 0.750000
vt 0.390625 0.703125
vt 0.531250 0.968750
vt 0.531250 0.953125
vt 0.593750 0.968750
vt 0.593750 0.953125
vt 0.125000 0.468750
vt 0.125000 0.453125
vt 0.390625 0.937500
vt 0.390625 1.000000
vt 0.343750 0.937500
vt 0.343750 1.000000
vt 0.109375 0.656250
vt 0.109375 0.593750
vt 0.062500 0.656250
vt 0.062500 0.593750
vt 0.156250 0.437500
vt 0.156250 0.421875
vt 0.203125 0.437500
vt 0.203125 0.421875
vt 0.562500 0.875000
vt 0.562500 0.859375
vt 0.609375 0.875000
vt 0.609375 0.859375
vt 0.187500 0.468750
vt 0.187500 0.453125
vt 0.250000 0.468750
vt 0.234375 0.593750
vt 0.234375 0.656250
vt 0.187500 0.593750
vt 0.187500 0.656250
vt 0.296875 0.656250
vt 0.296875 0.593750
vt 0.250000 0.656250
vt 0.250000 0.593750
vt 0.562500 0.812500
vt 0.562500 0.796875
vt 0.609375 0.812500
vt 0.609375 0.796875
vt 0.562500 0.843750
vt 0.562500 0.828125
vt 0.609375 0.843750
vt 0.609375 0.828125
vt 0.562500 0.625000
vt 0.562500 0.609375
vt 0.593750 0.625000
vt 0.593750 0.609375
vt 0.437500 0.437500
vt 0.437500 0.421875
vt 0.375000 0.500000
vt 0.375000 0.531250
vt 0.062500 0.500000
vt 0.000000 0.500000
vt 0.343750 0.468750
vt 0.343750 0.453125
vt 0.531250 0.734375
vt 0.593750 0.750000
vt 0.593750 0.734375
vt 0.468750 0.437500
vt 0.468750 0.421875
vt 0.593750 0.562500
vt 0.593750 0.546875
vt 0.562500 0.937500
vt 0.500000 0.906250
vt 0.500000 0.937500
vt 0.500000 0.875000
vt 0.531250 0.671875
vt 0.593750 0.687500
vt 0.593750 0.671875
vt 0.531250 0.703125
vt 0.593750 0.718750
vt 0.593750 0.703125
vt 0.187500 0.687500
vt 0.218750 0.687500
vt 0.218750 0.656250
vt 0.312500 0.750000
vt 0.312500 0.718750
vt 0.343750 0.718750
vt 0.500000 0.812500
vt 0.500000 0.843750
vt 0.343750 0.687500
vt 0.343750 0.656250
vt 0.375000 0.687500
vt 0.375000 0.656250
vt 0.375000 0.468750
vt 0.406250 0.468750
vt 0.437500 0.468750
vt 0.468750 0.468750
vt 0.531250 0.656250
vt 0.531250 0.625000
vt 0.343750 0.906250
vt 0.375000 0.937500
vt 0.375000 0.906250
vt 0.593750 0.531250
vt 0.593750 0.515625
vt 0.562500 0.500000
vt 0.562500 0.484375
vt 0.593750 0.500000
vt 0.593750 0.484375
vt 0.500000 0.437500
vt 0.500000 0.468750
vt 0.531250 0.468750
vt 0.531250 0.437500
vt 0.500000 0.421875
vt 0.531250 0.421875
vt 0.375000 0.890625
vt 0.421875 0.937500
vt 0.421875 0.890625
vt 0.375000 0.812500
vt 0.375000 0.765625
vt 0.421875 0.812500
vt 0.421875 0.765625
vt 0.421875 0.640625
vt 0.421875 0.687500
vt 0.375000 0.640625
vt 0.421875 0.625000
vt 0.421875 0.578125
vt 0.375000 0.625000
vt 0.375000 0.578125
vt 0.375000 0.875000
vt 0.375000 0.828125
vt 0.421875 0.875000
vt 0.421875 0.828125
vt 0.000000 0.625000
vt 0.000000 0.578125
vt 0.046875 0.625000
vt 0.046875 0.578125
vt 0.500000 0.687500
vt 0.500000 0.640625
vt 0.531250 0.640625
vt 0.343750 0.500000
vt 0.375000 0.453125
vt 0.421875 0.468750
vt 0.421875 0.500000
vt 0.546875 0.625000
vt 0.546875 0.593750
vt 0.500000 0.625000
vt 0.062500 0.546875
vt 0.109375 0.546875
vt 0.406250 1.000000
vt 0.406250 0.953125
vt 0.453125 1.000000
vt 0.453125 0.953125
vt 0.000000 1.000000
vt 0.000000 0.953125
vt 0.046875 1.000000
vt 0.187500 0.546875
vt 0.234375 0.546875
vt 0.125000 0.593750
vt 0.125000 0.546875
vt 0.171875 0.593750
vt 0.171875 0.546875
vt 0.093750 1.000000
vt 0.109375 0.718750
vt 0.109375 0.812500
vt 0.062500 0.718750
vt 0.062500 0.812500
vt 0.265625 1.000000
vt 0.265625 0.906250
vt 0.218750 1.000000
vt 0.218750 0.906250
vt 0.218750 0.859375
vt 0.312500 0.906250
vt 0.312500 0.859375
vt 0.218750 0.843750
vt 0.218750 0.796875
vt 0.312500 0.796875
vt 0.000000 0.906250
vt 0.218750 0.781250
vt 0.218750 0.734375
vt 0.312500 0.781250
vt 0.312500 0.734375
vt 0.125000 0.750000
vt 0.125000 0.703125
vt 0.218750 0.750000
vt 0.218750 0.703125
vt 0.046875 0.718750
vt 0.000000 0.718750
vt 0.328125 1.000000
vt 0.328125 0.906250
vt 0.281250 1.000000
vt 0.281250 0.906250
vt 0.437500 0.875000
vt 0.437500 0.828125
vt 0.484375 0.875000
vt 0.484375 0.828125
vt 0.437500 0.937500
vt 0.437500 0.890625
vt 0.484375 0.937500
vt 0.484375 0.890625
vt 0.015625 1.000000
vt 0.250000 0.437500
vt 0.250000 0.390625
vt 0.265625 0.437500
vt 0.265625 0.390625
vt 0.218750 0.437500
vt 0.218750 0.390625
vt 0.234375 0.437500
vt 0.234375 0.390625
vt 0.312500 0.437500
vt 0.312500 0.390625
vt 0.328125 0.437500
vt 0.328125 0.390625
vt 0.281250 0.437500
vt 0.281250 0.390625
vt 0.296875 0.437500
vt 0.296875 0.390625
vt 0.000000 0.984375
vt 0.031250 1.000000
vt 0.562500 0.468750
vt 0.562500 0.453125
vt 0.593750 0.468750
vt 0.593750 0.453125
vt 0.562500 0.437500
vt 0.562500 0.421875
vt 0.000000 0.406250
vt 0.000000 0.390625
vt 0.031250 0.406250
vt 0.031250 0.390625
vt 0.593750 0.437500
vt 0.593750 0.421875
vt 0.437500 0.687500
vt 0.437500 0.640625
vt 0.484375 0.687500
vt 0.484375 0.640625
vt 0.437500 0.625000
vt 0.437500 0.578125
vt 0.484375 0.625000
vt 0.484375 0.578125
vt 0.484375 0.515625
vt 0.484375 0.562500
vt 0.437500 0.515625
vt 0.437500 0.562500
vt 0.515625 1.000000
vt 0.515625 0.953125
vt 0.468750 1.000000
vt 0.468750 0.953125
vt 0.375000 0.562500
vt 0.375000 0.515625
vt 0.421875 0.562500
vt 0.421875 0.515625
vt 0.437500 0.812500
vt 0.437500 0.765625
vt 0.484375 0.812500
vt 0.484375 0.765625
vt 0.062500 0.937500
vt 0.062500 0.875000
vt 0.140625 0.937500
vt 0.140625 0.875000
vt 0.140625 0.812500
vt 0.218750 0.937500
vt 0.156250 0.859375
vt 0.156250 0.937500
vt 0.218750 0.765625
vt 0.156250 0.843750
vt 0.218750 0.718750
vt 0.281250 0.718750
vt 0.281250 0.656250
vt 0.125000 0.718750
vt 0.125000 0.656250
vt 0.062500 0.406250
vt 0.062500 0.390625
vt 0.093750 0.406250
vt 0.093750 0.390625
vt 0.531250 0.500000
vt 0.625000 0.968750
vt 0.625000 0.953125
vt 0.625000 1.000000
vt 0.625000 0.984375
vt 0.125000 0.406250
vt 0.125000 0.390625
vt 0.156250 0.406250
vt 0.156250 0.390625
vt 0.187500 0.406250
vt 0.187500 0.390625
vt 0.031250 0.437500
vt 0.000000 0.437500
vt 0.062500 0.437500
vt 0.593750 0.937500
vt 0.593750 0.921875
vt 0.625000 0.937500
vt 0.625000 0.921875
vt 0.000000 0.968750
vt 0.203125 1.000000
vt 0.203125 0.968750
vt 0.000000 0.937500
vt 0.203125 0.937500
vt 0.031250 0.734375
vt 0.031250 0.937500
vt 0.000000 0.734375
vt 0.062500 0.734375
vt 0.593750 0.906250
vt 0.062500 0.531250
vt 0.062500 0.484375
vt 0.109375 0.531250
vt 0.109375 0.484375
vt 0.125000 0.531250
vt 0.125000 0.484375
vt 0.171875 0.531250
vt 0.171875 0.484375
vt 0.375000 0.843750
s 0
usemtl Material_0
f 1/1/1 3/2/1 2/3/1
f 3/2/1 4/4/1 2/3/1
f 5/5/2 7/6/2 6/7/2
f 7/6/2 8/8/2 6/7/2
f 9/9/3 11/10/3 10/11/3
f 11/10/3 12/12/3 10/11/3
f 13/13/4 15/14/4 14/15/4
f 15/14/4 16/16/4 14/15/4
f 17/17/5 19/18/5 18/19/5
f 19/18/5 20/20/5 18/19/5
f 21/21/6 23/22/6 22/23/6
f 23/22/6 24/24/6 22/23/6
f 25/25/1 27/26/1 26/27/1
f 27/26/1 28/28/1 26/27/1
f 29/29/2 31/30/2 30/31/2
f 31/30/2 32/32/2 30/31/2
f 33/33/3 35/34/3 34/35/3
f 35/34/3 36/36/3 34/35/3
f 37/37/4 39/38/4 38/34/4
f 39/38/4 40/33/4 38/34/4
f 41/39/5 43/40/5 42/41/5
f 43/40/5 44/42/5 42/41/5
f 45/43/6 47/44/6 46/45/6
f 47/44/6 48/46/6 46/45/6
f 49/47/1 51/48/1 50/49/1
f 51/48/1 52/50/1 50/49/1
f 53/31/2 55/32/2 54/51/2
f 55/32/2 56/52/2 54/51/2
f 57/53/3 59/54/3 58/55/3
f 59/54/3 60/56/3 58/55/3
f 61/53/4 63/57/4 62/55/4
f 63/57/4 64/58/4 62/55/4
f 65/59/5 67/60/5 66/61/5
f 67/60/5 68/62/5 66/61/5
f 69/63/6 71/64/6 70/65/6
f 71/64/6 72/66/6 70/65/6
f 73/67/1 75/68/1 74/69/1
f 75/68/1 76/70/1 74/69/1
f 77/33/2 79/71/2 78/72/2
f 79/71/2 80/73/2 78/72/2
f 81/74/3 83/75/3 82/76/3
f 83/75/3 84/77/3 82/76/3
f 85/78/4 87/79/4 86/72/4
f 87/79/4 88/80/4 86/72/4
f 89/81/5 91/82/5 90/83/5
f 91/82/5 92/84/5 90/83/5
f 93/85/6 95/86/6 94/87/6
f 95/86/6 96/88/6 94/87/6
f 97/89/1 99/90/1 98/91/1
f 99/90/1 100/92/1 98/91/1
f 101/65/2 103/66/2 102/93/2
f 103/66/2 104/94/2 102/93/2
f 105/95/3 107/96/3 106/97/3
f 107/96/3 108/98/3 106/97/3
f 109/99/4 111/100/4 110/101/4
f 111/100/4 112/102/4 110/101/4
f 113/103/5 115/104/5 114/105/5
f 115/104/5 116/106/5 114/105/5
f 117/107/6 119/108/6 118/109/6
f 119/108/6 120/110/6 118/109/6
f 121/93/1 123/94/1 122/111/1
f 123/94/1 124/112/1 122/111/1
f 125/111/2 127/112/2 126/113/2
f 127/112/2 128/71/2 126/113/2
f 129/114/3 131/115/3 130/116/3
f 131/115/3 132/117/3 130/116/3
f 133/118/4 135/119/4 134/120/4
f 135/119/4 136/121/4 134/120/4
f 137/122/5 139/123/5 138/124/5
f 139/123/5 140/125/5 138/124/5
f 141/126/6 143/127/6 142/128/6
f 143/127/6 144/129/6 142/128/6
f 145/130/1 147/131/1 146/132/1
f 147/131/1 148/133/1 146/132/1
f 149/51/2 151/52/2 150/134/2
f 151/52/2 152/135/2 150/134/2
f 153/136/3 155/137/3 154/38/3
f 155/137/3 156/37/3 154/38/3
f 157/138/4 159/65/4 158/139/4
f 159/65/4 160/63/4 158/139/4
f 161/80/5 163/73/5 162/140/5
f 163/73/5 164/141/5 162/140/5
f 165/54/6 167/142/6 166/143/6
f 167/142/6 168/144/6 166/143/6
f 169/134/1 171/135/1 170/145/1
f 171/135/1 172/146/1 170/145/1
f 173/45/2 175/46/2 174/147/2
f 175/46/2 176/148/2 174/147/2
f 177/17/3 179/149/3 178/150/3
f 179/149/3 180/151/3 178/150/3
f 181/17/4 183/107/4 182/150/4
f 183/107/4 184/152/4 182/150/4
f 185/57/5 187/153/5 186/154/5
f 187/153/5 188/155/5 186/154/5
f 189/53/6 191/156/6 190/157/6
f 191/156/6 192/158/6 190/157/6
f 193/159/1 195/117/1 194/160/1
f 195/117/1 196/161/1 194/160/1
f 197/162/2 199/163/2 198/85/2
f 199/163/2 200/164/2 198/85/2
f 201/113/7 203/33/7 202/111/7
f 203/33/7 204/35/7 202/111/7
f 205/122/8 207/25/8 206/165/8
f 207/25/8 208/77/8 206/165/8
f 209/166/9 211/165/9 210/126/9
f 211/165/9 212/122/9 210/126/9
f 213/152/10 215/166/10 214/107/10
f 215/166/10 216/126/10 214/107/10
f 217/167/1 219/168/1 218/169/1
f 219/168/1 220/170/1 218/169/1
f 221/171/2 223/31/2 222/172/2
f 223/31/2 224/51/2 222/172/2
f 225/134/3 227/173/3 226/51/3
f 227/173/3 228/172/3 226/51/3
f 229/174/4 231/145/4 230/173/4
f 231/145/4 232/134/4 230/173/4
f 233/175/5 235/176/5 234/47/5
f 235/176/5 236/130/5 234/47/5
f 237/97/6 239/177/6 238/178/6
f 239/177/6 240/179/6 238/178/6
f 241/41/11 243/42/11 242/180/11
f 243/42/11 244/181/11 242/180/11
f 245/182/12 247/183/12 246/184/12
f 247/183/12 248/185/12 246/184/12
f 249/186/3 251/187/3 250/145/3
f 251/187/3 252/174/3 250/145/3
f 253/188/4 255/189/4 254/187/4
f 255/189/4 256/186/4 254/187/4
f 257/186/13 259/190/13 258/189/13
f 259/190/13 260/191/13 258/189/13
f 261/145/14 263/146/14 262/186/14
f 263/146/14 264/190/14 262/186/14
f 265/178/1 267/192/1 266/193/1
f 267/192/1 268/194/1 266/193/1
f 269/195/2 271/196/2 270/197/2
f 271/196/2 272/198/2 270/197/2
f 273/199/3 275/200/3 274/201/3
f 275/200/3 276/169/3 274/201/3
f 277/202/4 279/203/4 278/204/4
f 279/203/4 280/205/4 278/204/4
f 281/206/5 283/207/5 282/208/5
f 283/207/5 284/209/5 282/208/5
f 285/210/6 287/211/6 286/212/6
f 287/211/6 288/213/6 286/212/6
f 289/214/1 291/215/1 290/57/1
f 291/215/1 292/216/1 290/57/1
f 293/217/2 295/141/2 294/136/2
f 295/141/2 296/218/2 294/136/2
f 297/219/3 299/220/3 298/171/3
f 299/220/3 300/136/3 298/171/3
f 301/221/4 303/222/4 302/223/4
f 303/222/4 304/1/4 302/223/4
f 305/102/5 307/224/5 306/100/5
f 307/224/5 308/225/5 306/100/5
f 309/226/6 311/227/6 310/228/6
f 311/227/6 312/229/6 310/228/6
f 313/230/1 315/231/1 314/230/1
f 315/231/1 316/231/1 314/230/1
f 317/230/2 319/231/2 318/230/2
f 319/231/2 320/231/2 318/230/2
f 321/232/3 323/232/3 322/230/3
f 323/232/3 324/230/3 322/230/3
f 325/232/4 327/232/4 326/230/4
f 327/232/4 328/230/4 326/230/4
f 329/116/5 331/233/5 330/114/5
f 331/233/5 332/234/5 330/114/5
f 333/235/6 335/236/6 334/237/6
f 335/236/6 336/238/6 334/237/6
f 337/230/1 339/230/1 338/239/1
f 339/230/1 340/239/1 338/239/1
f 341/230/2 343/230/2 342/239/2
f 343/230/2 344/239/2 342/239/2
f 345/240/3 347/241/3 346/242/3
f 347/241/3 348/243/3 346/242/3
f 349/244/4 351/245/4 350/246/4
f 351/245/4 352/247/4 350/246/4
f 353/230/5 355/230/5 354/232/5
f 355/230/5 356/232/5 354/232/5
f 357/230/6 359/230/6 358/232/6
f 359/230/6 360/232/6 358/232/6
f 361/247/1 363/248/1 362/249/1
f 363/248/1 364/250/1 362/249/1
f 365/251/2 367/252/2 366/15/2
f 367/252/2 368/253/2 366/15/2
f 369/254/3 371/230/3 370/254/3
f 371/230/3 372/230/3 370/254/3
f 373/230/4 375/254/4 374/230/4
f 375/254/4 376/254/4 374/230/4
f 377/230/5 379/231/5 378/230/5
f 379/231/5 380/231/5 378/230/5
f 381/230/6 383/231/6 382/230/6
f 383/231/6 384/231/6 382/230/6
f 385/255/1 387/256/1 386/257/1
f 387/256/1 388/258/1 386/257/1
f 389/259/2 391/260/2 390/261/2
f 391/260/2 392/262/2 390/261/2
f 393/254/3 395/230/3 394/254/3
f 395/230/3 396/230/3 394/254/3
f 397/230/4 399/254/4 398/230/4
f 399/254/4 400/254/4 398/230/4
f 401/230/5 403/231/5 402/230/5
f 403/231/5 404/231/5 402/230/5
f 405/230/6 407/231/6 406/230/6
f 407/231/6 408/231/6 406/230/6
f 409/230/1 411/230/1 410/239/1
f 411/230/1 412/239/1 410/239/1
f 413/230/2 415/230/2 414/239/2
f 415/230/2 416/239/2 414/239/2
f 417/212/3 419/263/3 418/210/3
f 419/263/3 420/264/3 418/210/3
f 421/265/4 423/266/4 422/267/4
f 423/266/4 424/268/4 422/267/4
f 425/230/5 427/230/5 426/232/5
f 427/230/5 428/232/5 426/232/5
f 429/230/6 431/230/6 430/232/6
f 431/230/6 432/232/6 430/232/6
f 433/230/1 435/231/1 434/230/1
f 435/231/1 436/231/1 434/230/1
f 437/230/2 439/231/2 438/230/2
f 439/231/2 440/231/2 438/230/2
f 441/232/3 443/232/3 442/230/3
f 443/232/3 444/230/3 442/230/3
f 445/232/4 447/232/4 446/230/4
f 447/232/4 448/230/4 446/230/4
f 449/269/5 451/270/5 450/271/5
f 451/270/5 452/272/5 450/271/5
f 453/273/6 455/274/6 454/275/6
f 455/274/6 456/276/6 454/275/6
f 457/230/1 459/231/1 458/230/1
f 459/231/1 460/231/1 458/230/1
f 461/230/2 463/231/2 462/230/2
f 463/231/2 464/231/2 462/230/2
f 465/277/3 467/277/3 466/230/3
f 467/277/3 468/230/3 466/230/3
f 469/277/4 471/277/4 470/230/4
f 471/277/4 472/230/4 470/230/4
f 473/278/5 475/279/5 474/280/5
f 475/279/5 476/281/5 474/280/5
f 477/282/6 479/283/6 478/284/6
f 479/283/6 480/285/6 478/284/6
f 481/230/1 483/231/1 482/230/1
f 483/231/1 484/231/1 482/230/1
f 485/230/2 487/231/2 486/230/2
f 487/231/2 488/231/2 486/230/2
f 489/277/3 491/277/3 490/230/3
f 491/277/3 492/230/3 490/230/3
f 493/277/4 495/277/4 494/230/4
f 495/277/4 496/230/4 494/230/4
f 497/286/5 499/287/5 498/288/5
f 499/287/5 500/289/5 498/288/5
f 501/290/6 503/291/6 502/292/6
f 503/291/6 504/293/6 502/292/6
f 505/230/1 507/294/1 506/230/1
f 507/294/1 508/294/1 506/230/1
f 509/230/2 511/294/2 510/230/2
f 511/294/2 512/294/2 510/230/2
f 513/295/3 515/295/3 514/230/3
f 515/295/3 516/230/3 514/230/3
f 517/295/4 519/295/4 518/230/4
f 519/295/4 520/230/4 518/230/4
f 521/296/5 523/297/5 522/298/5
f 523/297/5 524/299/5 522/298/5
f 525/189/6 527/191/6 526/300/6
f 527/191/6 528/301/6 526/300/6
f 529/230/1 531/294/1 530/230/1
f 531/294/1 532/294/1 530/230/1
f 533/230/2 535/294/2 534/230/2
f 535/294/2 536/294/2 534/230/2
f 537/295/3 539/295/3 538/230/3
f 539/295/3 540/230/3 538/230/3
f 541/295/4 543/295/4 542/230/4
f 543/295/4 544/230/4 542/230/4
f 545/302/5 547/303/5 546/304/5
f 547/303/5 548/305/5 546/304/5
f 549/300/6 551/301/6 550/306/6
f 551/301/6 552/307/6 550/306/6
f 553/308/1 555/309/1 554/310/1
f 555/309/1 556/311/1 554/310/1
f 557/312/2 559/313/2 558/314/2
f 559/313/2 560/315/2 558/314/2
f 561/316/3 563/317/3 562/318/3
f 563/317/3 564/319/3 562/318/3
f 565/320/4 567/321/4 566/322/4
f 567/321/4 568/323/4 566/322/4
f 569/324/5 571/325/5 570/326/5
f 571/325/5 572/327/5 570/326/5
f 573/328/6 575/329/6 574/330/6
f 575/329/6 576/331/6 574/330/6
f 577/332/1 579/333/1 578/334/1
f 579/333/1 580/335/1 578/334/1
f 581/333/2 583/243/2 582/335/2
f 583/243/2 584/336/2 582/335/2
f 585/248/3 587/337/3 586/338/3
f 587/337/3 588/339/3 586/338/3
f 589/251/4 591/340/4 590/341/4
f 591/340/4 592/70/4 590/341/4
f 593/342/5 595/161/5 594/343/5
f 595/161/5 596/344/5 594/343/5
f 597/242/6 599/101/6 598/345/6
f 599/101/6 600/346/6 598/345/6
f 601/304/1 603/305/1 602/347/1
f 603/305/1 604/348/1 602/347/1
f 605/347/2 607/348/2 606/349/2
f 607/348/2 608/350/2 606/349/2
f 609/296/3 611/182/3 610/188/3
f 611/182/3 612/351/3 610/188/3
f 613/296/4 615/300/4 614/188/4
f 615/300/4 616/189/4 614/188/4
f 617/91/5 619/92/5 618/352/5
f 619/92/5 620/353/5 618/352/5
f 621/61/6 623/62/6 622/354/6
f 623/62/6 624/355/6 622/354/6
f 625/349/1 627/350/1 626/356/1
f 627/350/1 628/357/1 626/356/1
f 629/358/2 631/359/2 630/360/2
f 631/359/2 632/361/2 630/360/2
f 633/304/3 635/362/3 634/302/3
f 635/362/3 636/363/3 634/302/3
f 637/364/4 639/347/4 638/362/4
f 639/347/4 640/304/4 638/362/4
f 641/356/5 643/357/5 642/358/5
f 643/357/5 644/359/5 642/358/5
f 645/365/6 647/366/6 646/367/6
f 647/366/6 648/368/6 646/367/6
f 649/230/15 651/369/15 650/370/15
f 651/369/15 652/371/15 650/370/15
f 653/369/16 655/372/16 654/371/16
f 655/372/16 656/373/16 654/371/16
f 657/374/17 659/375/17 658/376/17
f 659/375/17 660/372/17 658/376/17
f 661/332/18 663/377/18 662/375/18
f 663/377/18 664/374/18 662/375/18
f 665/149/5 667/17/5 666/365/5
f 667/17/5 668/378/5 666/365/5
f 669/364/6 671/347/6 670/21/6
f 671/347/6 672/349/6 670/21/6
f 673/379/19 675/380/19 674/381/19
f 675/380/19 676/382/19 674/381/19
f 677/383/20 679/384/20 678/385/20
f 679/384/20 680/386/20 678/385/20
f 681/231/3 683/230/3 682/231/3
f 683/230/3 684/230/3 682/231/3
f 685/230/4 687/231/4 686/230/4
f 687/231/4 688/231/4 686/230/4
f 689/230/21 691/231/21 690/230/21
f 691/231/21 692/231/21 690/230/21
f 693/230/22 695/231/22 694/230/22
f 695/231/23 696/231/23 694/230/23
f 697/343/24 699/344/24 698/164/24
f 699/344/24 700/168/24 698/164/24
f 701/249/25 703/15/25 702/179/25
f 703/15/25 704/387/25 702/179/25
f 705/372/26 707/230/26 706/372/26
f 707/230/27 708/230/27 706/372/27
f 709/230/4 711/372/4 710/230/4
f 711/372/4 712/372/4 710/230/4
f 713/230/28 715/372/28 714/230/28
f 715/372/28 716/372/28 714/230/28
f 717/230/29 719/372/29 718/230/29
f 719/372/29 720/372/29 718/230/29
o scopeModel
v -5.177692 1.923077 0.576923
v -5.176923 1.923077 0.576923
v -5.177692 0.769231 0.576923
v -5.176923 0.769231 0.576923
v -5.176923 1.923077 -0.576923
v -5.177692 1.923077 -0.576923
v -5.176923 0.769231 -0.576923
v -5.177692 0.769231 -0.576923
v -5.176923 1.923077 -0.576923
v -5.176923 1.923077 0.576923
v -5.177692 1.923077 -0.576923
v -5.177692 1.923077 0.576923
v -5.177692 0.769231 -0.576923
v -5.177692 0.769231 0.576923
v -5.176923 0.769231 -0.576923
v -5.176923 0.769231 0.576923
v -5.177692 1.923077 -0.576923
v -5.177692 1.923077 0.576923
v -5.177692 0.769231 -0.576923
v -5.177692 0.769231 0.576923
v -5.176923 1.923077 0.576923
v -5.176923 1.923077 -0.576923
v -5.176923 0.769231 0.576923
v -5.176923 0.769231 -0.576923
vn -0.0000 -0.0000 1.0000
vn -0.0000 -0.0000 -1.0000
vn -0.0000 1.0000 -0.0000
vn -0.0000 -1.0000 -0.0000
vn -1.0000 -0.0000 -0.0000
vn 1.0000 -0.0000 -0.0000
vt 0.953125 0.046875
vt 0.953125 0.000000
vt 1.000000 0.046875
vt 1.000000 0.000000
s 0
usemtl Material_0
f 721/388/30 723/389/30 722/390/30
f 723/389/30 724/391/30 722/390/30
f 725/388/31 727/389/31 726/390/31
f 727/389/31 728/391/31 726/390/31
f 729/388/32 731/389/32 730/390/32
f 731/389/32 732/391/32 730/390/32
f 733/388/33 735/389/33 734/390/33
f 735/389/33 736/391/33 734/390/33
f 737/388/34 739/389/34 738/390/34
f 739/389/34 740/391/34 738/390/34
f 741/388/35 743/389/35 742/390/35
f 743/389/35 744/391/35 742/390/35
o overlaySolidModel
v -5.185384 1.923077 0.576923
v -5.184615 1.923077 0.576923
v -5.185384 0.769231 0.576923
v -5.184615 0.769231 0.576923
v -5.184615 1.923077 -0.576923
v -5.185384 1.923077 -0.576923
v -5.184615 0.769231 -0.576923
v -5.185384 0.769231 -0.576923
v -5.184615 1.923077 -0.576923
v -5.184615 1.923077 0.576923
v -5.185384 1.923077 -0.576923
v -5.185384 1.923077 0.576923
v -5.185384 0.769231 -0.576923
v -5.185384 0.769231 0.576923
v -5.184615 0.769231 -0.576923
v -5.184615 0.769231 0.576923
v -5.185384 1.923077 -0.576923
v -5.185384 1.923077 0.576923
v -5.185384 0.769231 -0.576923
v -5.185384 0.769231 0.576923
v -5.184615 1.923077 0.576923
v -5.184615 1.923077 -0.576923
v -5.184615 0.769231 0.576923
v -5.184615 0.769231 -0.576923
vn -0.0000 -0.0000 1.0000
vn -0.0000 -0.0000 -1.0000
vn -0.0000 1.0000 -0.0000
vn -0.0000 -1.0000 -0.0000
vn -1.0000 -0.0000 -0.0000
vn 1.0000 -0.0000 -0.0000
vt 0.953125 0.046875
vt 0.953125 0.000000
vt 1.000000 0.046875
vt 1.000000 0.000000
s 0
usemtl Material_0
f 745/392/36 747/393/36 746/394/36
f 747/393/36 748/395/36 746/394/36
f 749/392/37 751/393/37 750/394/37
f 751/393/37 752/395/37 750/394/37
f 753/392/38 755/393/38 754/394/38
f 755/393/38 756/395/38 754/394/38
f 757/392/39 759/393/39 758/394/39
f 759/393/39 760/395/39 758/394/39
f 761/392/40 763/393/40 762/394/40
f 763/393/40 764/395/40 762/394/40
f 765/392/41 767/393/41 766/394/41
f 767/393/41 768/395/41 766/394/41
