# Blender 5.1.1
# www.blender.org
mtllib lev.pps43stock.mtl
o attachmentModel
v 0.569231 0.458609 -0.012627
v 0.569231 0.311423 -0.367965
v 0.569231 -0.429737 0.355338
v 0.569231 -0.576923 0.000000
v -0.569231 0.311423 -0.367965
v -0.569231 0.458609 -0.012627
v -0.569231 -0.576923 0.000000
v -0.569231 -0.429737 0.355338
v -0.569231 0.311423 -0.367965
v 0.569231 0.311423 -0.367965
v -0.569231 0.458609 -0.012627
v 0.569231 0.458609 -0.012627
v -0.569231 -0.429737 0.355338
v 0.569231 -0.429737 0.355338
v -0.569231 -0.576923 0.000000
v 0.569231 -0.576923 0.000000
v -0.569231 0.458609 -0.012627
v 0.569231 0.458609 -0.012627
v -0.569231 -0.429737 0.355338
v 0.569231 -0.429737 0.355338
v 0.569231 0.311423 -0.367965
v -0.569231 0.311423 -0.367965
v 0.569231 -0.576923 0.000000
v -0.569231 -0.576923 0.000000
v -0.595385 -0.699118 4.920677
v -0.595385 0.549572 -0.711800
v -0.595385 -1.825613 4.670938
v -0.595385 -0.576923 -0.961538
v -0.596154 0.549572 -0.711800
v -0.596154 -0.699118 4.920677
v -0.596154 -0.576923 -0.961538
v -0.596154 -1.825613 4.670938
v -0.596154 0.549572 -0.711800
v -0.595385 0.549572 -0.711800
v -0.596154 -0.699118 4.920677
v -0.595385 -0.699118 4.920677
v -0.596154 -1.825613 4.670938
v -0.595385 -1.825613 4.670938
v -0.596154 -0.576923 -0.961538
v -0.595385 -0.576923 -0.961538
v -0.596154 -0.699118 4.920677
v -0.595385 -0.699118 4.920677
v -0.596154 -1.825613 4.670938
v -0.595385 -1.825613 4.670938
v -0.595385 0.549572 -0.711800
v -0.596154 0.549572 -0.711800
v -0.595385 -0.576923 -0.961538
v -0.596154 -0.576923 -0.961538
v 0.596923 -0.699118 4.920677
v 0.596923 0.549572 -0.711800
v 0.596923 -1.825613 4.670938
v 0.596923 -0.576923 -0.961538
v 0.596154 0.549572 -0.711800
v 0.596154 -0.699118 4.920677
v 0.596154 -0.576923 -0.961538
v 0.596154 -1.825613 4.670938
v 0.596154 0.549572 -0.711800
v 0.596923 0.549572 -0.711800
v 0.596154 -0.699118 4.920677
v 0.596923 -0.699118 4.920677
v 0.596154 -1.825613 4.670938
v 0.596923 -1.825613 4.670938
v 0.596154 -0.576923 -0.961538
v 0.596923 -0.576923 -0.961538
v 0.596154 -0.699118 4.920677
v 0.596923 -0.699118 4.920677
v 0.596154 -1.825613 4.670938
v 0.596923 -1.825613 4.670938
v 0.596923 0.549572 -0.711800
v 0.596154 0.549572 -0.711800
v 0.596923 -0.576923 -0.961538
v 0.596154 -0.576923 -0.961538
v 0.595277 -0.459563 4.965476
v 0.595273 -0.459562 4.964707
v 0.538840 -3.151278 4.962726
v 0.538835 -3.151277 4.961957
v -0.558301 -0.435382 4.971406
v -0.558296 -0.435383 4.972176
v -0.614738 -3.127096 4.968656
v -0.614734 -3.127097 4.969425
v -0.558301 -0.435382 4.971406
v 0.595273 -0.459562 4.964707
v -0.558296 -0.435383 4.972176
v 0.595277 -0.459563 4.965476
v -0.614734 -3.127097 4.969425
v 0.538840 -3.151278 4.962726
v -0.614738 -3.127096 4.968656
v 0.538835 -3.151277 4.961957
v -0.558296 -0.435383 4.972176
v 0.595277 -0.459563 4.965476
v -0.614734 -3.127097 4.969425
v 0.538840 -3.151278 4.962726
v 0.595273 -0.459562 4.964707
v -0.558301 -0.435382 4.971406
v 0.538835 -3.151277 4.961957
v -0.614738 -3.127096 4.968656
v 0.596042 -0.459578 4.964702
v 0.593817 -0.459139 4.580093
v 0.539604 -3.151293 4.961952
v 0.537380 -3.150853 4.577343
v 0.593048 -0.459123 4.580098
v 0.595273 -0.459562 4.964707
v 0.536611 -3.150837 4.577348
v 0.538835 -3.151277 4.961957
v 0.593048 -0.459123 4.580098
v 0.593817 -0.459139 4.580093
v 0.595273 -0.459562 4.964707
v 0.596042 -0.459578 4.964702
v 0.538835 -3.151277 4.961957
v 0.539604 -3.151293 4.961952
v 0.536611 -3.150837 4.577348
v 0.537380 -3.150853 4.577343
v 0.595273 -0.459562 4.964707
v 0.596042 -0.459578 4.964702
v 0.538835 -3.151277 4.961957
v 0.539604 -3.151293 4.961952
v 0.593817 -0.459139 4.580093
v 0.593048 -0.459123 4.580098
v 0.537380 -3.150853 4.577343
v 0.536611 -3.150837 4.577348
v -0.557532 -0.435398 4.971402
v -0.561980 -0.434519 4.202185
v -0.613969 -3.127113 4.968651
v -0.618418 -3.126233 4.199435
v -0.562750 -0.434503 4.202189
v -0.558301 -0.435382 4.971406
v -0.619187 -3.126218 4.199439
v -0.614738 -3.127096 4.968656
v -0.562750 -0.434503 4.202189
v -0.561980 -0.434519 4.202185
v -0.558301 -0.435382 4.971406
v -0.557532 -0.435398 4.971402
v -0.614738 -3.127096 4.968656
v -0.613969 -3.127113 4.968651
v -0.619187 -3.126218 4.199439
v -0.618418 -3.126233 4.199435
v -0.558301 -0.435382 4.971406
v -0.557532 -0.435398 4.971402
v -0.614738 -3.127096 4.968656
v -0.613969 -3.127113 4.968651
v -0.561980 -0.434519 4.202185
v -0.562750 -0.434503 4.202189
v -0.618418 -3.126233 4.199435
v -0.619187 -3.126218 4.199439
vn 1.0000 -0.0000 -0.0000
vn -1.0000 -0.0000 -0.0000
vn -0.0000 0.9239 -0.3827
vn -0.0000 -0.9239 0.3827
vn -0.0000 0.3827 0.9239
vn -0.0000 -0.3827 -0.9239
vn -0.0000 0.9763 0.2164
vn -0.0000 -0.9763 -0.2164
vn -0.0000 -0.2165 0.9763
vn -0.0000 0.2165 -0.9763
vn -0.0000 0.2164 -0.9763
vn -0.0000 -0.2164 0.9763
vn 0.9998 -0.0209 -0.0058
vn 0.9998 -0.0210 -0.0060
vn -0.9998 0.0210 0.0059
vn 0.0209 0.9998 0.0007
vn 0.0210 0.9998 0.0013
vn -0.0209 -0.9998 -0.0009
vn -0.0209 -0.9998 -0.0007
vn 0.0058 -0.0011 1.0000
vn -0.0058 0.0011 -1.0000
vn 0.9998 -0.0210 -0.0058
vn -0.9998 0.0210 0.0058
vn 0.0214 0.9998 0.0010
vn 0.0206 0.9998 0.0010
vn -0.0210 -0.9998 -0.0010
vn -0.0218 -0.9998 -0.0010
vn 0.0060 -0.0012 1.0000
vn 0.0060 -0.0011 1.0000
vn -0.0060 0.0011 -1.0000
vn -0.0060 0.0012 -1.0000
vn 0.0210 0.9998 0.0010
vn -0.0209 -0.9998 -0.0011
vn 0.0062 -0.0011 1.0000
vn -0.0058 0.0012 -1.0000
vn -0.0053 0.0011 -1.0000
vt 0.375000 0.375000
vt 0.375000 0.281250
vt 0.406250 0.375000
vt 0.406250 0.281250
vt 0.437500 0.375000
vt 0.437500 0.281250
vt 0.468750 0.375000
vt 0.468750 0.281250
vt 0.593750 0.343750
vt 0.593750 0.375000
vt 0.500000 0.343750
vt 0.500000 0.375000
vt 0.718750 0.500000
vt 0.718750 0.468750
vt 0.625000 0.500000
vt 0.625000 0.468750
vt 0.500000 0.500000
vt 0.500000 0.406250
vt 0.593750 0.500000
vt 0.593750 0.406250
vt 0.375000 0.500000
vt 0.375000 0.406250
vt 0.468750 0.500000
vt 0.468750 0.406250
vt 0.468750 0.875000
vt 0.468750 0.781250
vt 0.000000 0.875000
vt 0.000000 0.781250
vt 0.000000 0.406250
vt 0.000000 1.000000
vt 0.000000 0.906250
vt 0.093750 1.000000
vt 0.125000 0.500000
vt 0.125000 0.281250
vt 0.218750 0.500000
vt 0.218750 0.281250
vt 0.000000 0.500000
vt 0.000000 0.281250
vt 0.093750 0.500000
vt 0.093750 0.281250
vt 0.625000 1.000000
vt 0.625000 0.781250
vt 0.656250 1.000000
vt 0.656250 0.781250
vt 0.625000 0.750000
vt 0.625000 0.531250
vt 0.656250 0.750000
vt 0.656250 0.531250
vt 0.000000 0.968750
vt 0.250000 0.500000
vt 0.250000 0.281250
vt 0.312500 0.500000
vt 0.312500 0.281250
vt 0.000000 0.937500
s 0
usemtl Material_1
f 1/1/1 3/2/1 2/3/1
f 3/2/1 4/4/1 2/3/1
f 5/5/2 7/6/2 6/7/2
f 7/6/2 8/8/2 6/7/2
f 9/9/3 11/10/3 10/11/3
f 11/10/3 12/12/3 10/11/3
f 13/13/4 15/14/4 14/15/4
f 15/14/4 16/16/4 14/15/4
f 17/17/5 19/18/5 18/19/5
f 19/18/5 20/20/5 18/19/5
f 21/21/6 23/22/6 22/23/6
f 23/22/6 24/24/6 22/23/6
f 25/25/1 27/26/1 26/27/1
f 27/26/1 28/28/1 26/27/1
f 29/27/2 31/28/2 30/25/2
f 31/28/2 32/26/2 30/25/2
f 33/29/7 35/30/7 34/29/7
f 35/30/7 36/30/7 34/29/7
f 37/30/8 39/29/8 38/30/8
f 39/29/8 40/29/8 38/30/8
f 41/30/9 43/31/9 42/30/9
f 43/31/9 44/31/9 42/30/9
f 45/30/10 47/31/10 46/30/10
f 47/31/11 48/31/11 46/30/11
f 49/25/1 51/26/1 50/27/1
f 51/26/1 52/28/1 50/27/1
f 53/27/2 55/28/2 54/25/2
f 55/28/2 56/26/2 54/25/2
f 57/29/7 59/30/7 58/29/7
f 59/30/7 60/30/7 58/29/7
f 61/30/8 63/29/8 62/30/8
f 63/29/8 64/29/8 62/30/8
f 65/30/12 67/31/12 66/30/12
f 67/31/9 68/31/9 66/30/9
f 69/30/10 71/31/10 70/30/10
f 71/31/10 72/31/10 70/30/10
f 73/30/13 75/28/13 74/30/13
f 75/28/14 76/28/14 74/30/14
f 77/30/15 79/28/15 78/30/15
f 79/28/15 80/28/15 78/30/15
f 81/32/16 83/32/16 82/30/16
f 83/32/17 84/30/17 82/30/17
f 85/32/18 87/32/18 86/30/18
f 87/32/19 88/30/19 86/30/19
f 89/33/20 91/34/20 90/35/20
f 91/34/20 92/36/20 90/35/20
f 93/37/21 95/38/21 94/39/21
f 95/38/21 96/40/21 94/39/21
f 97/41/22 99/42/22 98/43/22
f 99/42/22 100/44/22 98/43/22
f 101/45/23 103/46/23 102/47/23
f 103/46/23 104/48/23 102/47/23
f 105/49/24 107/30/24 106/49/24
f 107/30/25 108/30/25 106/49/25
f 109/30/26 111/49/26 110/30/26
f 111/49/27 112/49/27 110/30/27
f 113/30/28 115/28/28 114/30/28
f 115/28/29 116/28/29 114/30/29
f 117/30/30 119/28/30 118/30/30
f 119/28/31 120/28/31 118/30/31
f 121/50/22 123/51/22 122/52/22
f 123/51/22 124/53/22 122/52/22
f 125/52/23 127/53/23 126/21/23
f 127/53/23 128/2/23 126/21/23
f 129/54/32 131/30/32 130/54/32
f 131/30/24 132/30/24 130/54/24
f 133/30/26 135/54/26 134/30/26
f 135/54/33 136/54/33 134/30/33
f 137/30/34 139/28/34 138/30/34
f 139/28/29 140/28/29 138/30/29
f 141/30/35 143/28/35 142/30/35
f 143/28/36 144/28/36 142/30/36
