# Blender 4.2.2 LTS
# www.blender.org
mtllib lev.ak12stock1.mtl
o attachmentModel
v 0.576923 0.576923 5.384615
v 0.576923 0.576923 0.769231
v 0.576923 -0.576923 5.384615
v 0.576923 -0.576923 0.769231
v -0.576923 0.576923 0.769231
v -0.576923 0.576923 5.384615
v -0.576923 -0.576923 0.769231
v -0.576923 -0.576923 5.384615
v -0.576923 0.576923 0.769231
v 0.576923 0.576923 0.769231
v -0.576923 0.576923 5.384615
v 0.576923 0.576923 5.384615
v -0.576923 -0.576923 5.384615
v 0.576923 -0.576923 5.384615
v -0.576923 -0.576923 0.769231
v 0.576923 -0.576923 0.769231
v -0.576923 0.576923 5.384615
v 0.576923 0.576923 5.384615
v -0.576923 -0.576923 5.384615
v 0.576923 -0.576923 5.384615
v 0.576923 0.576923 0.769231
v -0.576923 0.576923 0.769231
v 0.576923 -0.576923 0.769231
v -0.576923 -0.576923 0.769231
v -0.000000 0.543928 0.769231
v -0.000000 0.543928 0.000000
v 0.543928 0.000000 0.769231
v 0.543928 0.000000 0.000000
v -0.543928 -0.000000 0.000000
v -0.543928 -0.000000 0.769231
v 0.000000 -0.543928 0.000000
v 0.000000 -0.543928 0.769231
v -0.543928 -0.000000 0.000000
v -0.000000 0.543928 0.000000
v -0.543928 -0.000000 0.769231
v -0.000000 0.543928 0.769231
v 0.000000 -0.543928 0.769231
v 0.543928 0.000000 0.769231
v 0.000000 -0.543928 0.000000
v 0.543928 0.000000 0.000000
v -0.543928 -0.000000 0.769231
v -0.000000 0.543928 0.769231
v 0.000000 -0.543928 0.769231
v 0.543928 0.000000 0.769231
v -0.000000 0.543928 0.000000
v -0.543928 -0.000000 0.000000
v 0.543928 0.000000 0.000000
v 0.000000 -0.543928 0.000000
v 0.576923 -0.576923 5.384615
v 0.576923 -0.576923 4.615385
v 0.576923 -3.269231 5.384615
v 0.576923 -3.269231 4.615385
v -0.576923 -0.576923 4.615385
v -0.576923 -0.576923 5.384615
v -0.576923 -3.269231 4.615385
v -0.576923 -3.269231 5.384615
v -0.576923 -0.576923 4.615385
v 0.576923 -0.576923 4.615385
v -0.576923 -0.576923 5.384615
v 0.576923 -0.576923 5.384615
v -0.576923 -3.269231 5.384615
v 0.576923 -3.269231 5.384615
v -0.576923 -3.269231 4.615385
v 0.576923 -3.269231 4.615385
v -0.576923 -0.576923 5.384615
v 0.576923 -0.576923 5.384615
v -0.576923 -3.269231 5.384615
v 0.576923 -3.269231 5.384615
v 0.576923 -0.576923 4.615385
v -0.576923 -0.576923 4.615385
v 0.576923 -3.269231 4.615385
v -0.576923 -3.269231 4.615385
v 0.370000 -1.960151 4.261647
v 0.370000 -0.635477 1.063603
v 0.370000 -2.670827 3.967275
v 0.370000 -1.346154 0.769231
v -0.383846 -0.635477 1.063603
v -0.383846 -1.960151 4.261647
v -0.383846 -1.346154 0.769231
v -0.383846 -2.670827 3.967275
v -0.383846 -0.635477 1.063603
v 0.370000 -0.635477 1.063603
v -0.383846 -1.960151 4.261647
v 0.370000 -1.960151 4.261647
v -0.383846 -2.670827 3.967275
v 0.370000 -2.670827 3.967275
v -0.383846 -1.346154 0.769231
v 0.370000 -1.346154 0.769231
v -0.383846 -1.960151 4.261647
v 0.370000 -1.960151 4.261647
v -0.383846 -2.670827 3.967275
v 0.370000 -2.670827 3.967275
v 0.370000 -0.635477 1.063603
v -0.383846 -0.635477 1.063603
v 0.370000 -1.346154 0.769231
v -0.383846 -1.346154 0.769231
v 0.384615 -0.576923 1.538462
v 0.384615 -0.576923 0.769231
v 0.384615 -1.346154 1.538462
v 0.384615 -1.346154 0.769231
v -0.384615 -0.576923 0.769231
v -0.384615 -0.576923 1.538462
v -0.384615 -1.346154 0.769231
v -0.384615 -1.346154 1.538462
v -0.384615 -0.576923 0.769231
v 0.384615 -0.576923 0.769231
v -0.384615 -0.576923 1.538462
v 0.384615 -0.576923 1.538462
v -0.384615 -1.346154 1.538462
v 0.384615 -1.346154 1.538462
v -0.384615 -1.346154 0.769231
v 0.384615 -1.346154 0.769231
v -0.384615 -0.576923 1.538462
v 0.384615 -0.576923 1.538462
v -0.384615 -1.346154 1.538462
v 0.384615 -1.346154 1.538462
v 0.384615 -0.576923 0.769231
v -0.384615 -0.576923 0.769231
v 0.384615 -1.346154 0.769231
v -0.384615 -1.346154 0.769231
v 0.576923 -2.115385 4.615385
v 0.576923 -2.115385 3.461539
v 0.576923 -3.269231 4.615385
v 0.576923 -3.269231 3.461539
v -0.576923 -2.115385 3.461539
v -0.576923 -2.115385 4.615385
v -0.576923 -3.269231 3.461539
v -0.576923 -3.269231 4.615385
v -0.576923 -2.115385 3.461539
v 0.576923 -2.115385 3.461539
v -0.576923 -2.115385 4.615385
v 0.576923 -2.115385 4.615385
v -0.576923 -3.269231 4.615385
v 0.576923 -3.269231 4.615385
v -0.576923 -3.269231 3.461539
v 0.576923 -3.269231 3.461539
v -0.576923 -2.115385 4.615385
v 0.576923 -2.115385 4.615385
v -0.576923 -3.269231 4.615385
v 0.576923 -3.269231 4.615385
v 0.576923 -2.115385 3.461539
v -0.576923 -2.115385 3.461539
v 0.576923 -3.269231 3.461539
v -0.576923 -3.269231 3.461539
v 0.000769 -0.576923 4.615385
v 0.000769 -0.576923 1.538462
v 0.000769 -0.961538 4.615385
v 0.000769 -0.961538 1.538462
v -0.000000 -0.576923 1.538462
v -0.000000 -0.576923 4.615385
v -0.000000 -0.961538 1.538462
v -0.000000 -0.961538 4.615385
v -0.000000 -0.576923 1.538462
v 0.000769 -0.576923 1.538462
v -0.000000 -0.576923 4.615385
v 0.000769 -0.576923 4.615385
v -0.000000 -0.961538 4.615385
v 0.000769 -0.961538 4.615385
v -0.000000 -0.961538 1.538462
v 0.000769 -0.961538 1.538462
v -0.000000 -0.576923 4.615385
v 0.000769 -0.576923 4.615385
v -0.000000 -0.961538 4.615385
v 0.000769 -0.961538 4.615385
v 0.000769 -0.576923 1.538462
v -0.000000 -0.576923 1.538462
v 0.000769 -0.961538 1.538462
v -0.000000 -0.961538 1.538462
v 0.000769 -1.730769 4.615385
v 0.000769 -1.730769 2.307692
v 0.000769 -2.115385 4.615385
v 0.000769 -2.115385 2.307692
v -0.000000 -1.730769 2.307692
v -0.000000 -1.730769 4.615385
v -0.000000 -2.115385 2.307692
v -0.000000 -2.115385 4.615385
v -0.000000 -1.730769 2.307692
v 0.000769 -1.730769 2.307692
v -0.000000 -1.730769 4.615385
v 0.000769 -1.730769 4.615385
v -0.000000 -2.115385 4.615385
v 0.000769 -2.115385 4.615385
v -0.000000 -2.115385 2.307692
v 0.000769 -2.115385 2.307692
v -0.000000 -1.730769 4.615385
v 0.000769 -1.730769 4.615385
v -0.000000 -2.115385 4.615385
v 0.000769 -2.115385 4.615385
v 0.000769 -1.730769 2.307692
v -0.000000 -1.730769 2.307692
v 0.000769 -2.115385 2.307692
v -0.000000 -2.115385 2.307692
v 0.000769 -0.961538 4.615385
v 0.000769 -0.961538 4.230769
v 0.000769 -1.730769 4.615385
v 0.000769 -1.730769 4.230769
v -0.000000 -0.961538 4.230769
v -0.000000 -0.961538 4.615385
v -0.000000 -1.730769 4.230769
v -0.000000 -1.730769 4.615385
v -0.000000 -0.961538 4.230769
v 0.000769 -0.961538 4.230769
v -0.000000 -0.961538 4.615385
v 0.000769 -0.961538 4.615385
v -0.000000 -1.730769 4.615385
v 0.000769 -1.730769 4.615385
v -0.000000 -1.730769 4.230769
v 0.000769 -1.730769 4.230769
v -0.000000 -0.961538 4.615385
v 0.000769 -0.961538 4.615385
v -0.000000 -1.730769 4.615385
v 0.000769 -1.730769 4.615385
v 0.000769 -0.961538 4.230769
v -0.000000 -0.961538 4.230769
v 0.000769 -1.730769 4.230769
v -0.000000 -1.730769 4.230769
vn 1.0000 -0.0000 -0.0000
vn -1.0000 -0.0000 -0.0000
vn -0.0000 1.0000 -0.0000
vn -0.0000 -1.0000 -0.0000
vn -0.0000 -0.0000 1.0000
vn -0.0000 -0.0000 -1.0000
vn 0.7071 0.7071 -0.0000
vn -0.7071 -0.7071 -0.0000
vn -0.7071 0.7071 -0.0000
vn 0.7071 -0.7071 -0.0000
vn -0.0000 0.9239 0.3827
vn -0.0000 -0.9239 -0.3827
vn -0.0000 -0.3827 0.9239
vn -0.0000 0.3827 -0.9239
vt 0.000000 1.000000
vt 0.000000 0.906250
vt 0.375000 1.000000
vt 0.375000 0.906250
vt 0.000000 0.875000
vt 0.000000 0.781250
vt 0.375000 0.875000
vt 0.375000 0.781250
vt 0.093750 0.375000
vt 0.093750 0.750000
vt 0.000000 0.375000
vt 0.000000 0.750000
vt 0.218750 0.750000
vt 0.218750 0.375000
vt 0.125000 0.750000
vt 0.125000 0.375000
vt 0.500000 0.500000
vt 0.500000 0.406250
vt 0.593750 0.500000
vt 0.593750 0.406250
vt 0.500000 0.625000
vt 0.500000 0.531250
vt 0.593750 0.625000
vt 0.593750 0.531250
vt 0.312500 0.437500
vt 0.312500 0.375000
vt 0.375000 0.437500
vt 0.375000 0.375000
vt 0.687500 0.812500
vt 0.687500 0.750000
vt 0.750000 0.812500
vt 0.750000 0.750000
vt 0.750000 0.687500
vt 0.687500 0.687500
vt 0.375000 0.312500
vt 0.375000 0.250000
vt 0.312500 0.312500
vt 0.312500 0.250000
vt 0.312500 0.500000
vt 0.375000 0.500000
vt 0.500000 1.000000
vt 0.500000 0.781250
vt 0.562500 1.000000
vt 0.562500 0.781250
vt 0.250000 0.500000
vt 0.250000 0.281250
vt 0.312500 0.281250
vt 0.718750 0.312500
vt 0.718750 0.375000
vt 0.625000 0.312500
vt 0.625000 0.375000
vt 0.781250 1.000000
vt 0.781250 0.937500
vt 0.687500 1.000000
vt 0.687500 0.937500
vt 0.468750 1.000000
vt 0.468750 0.781250
vt 0.250000 0.750000
vt 0.250000 0.531250
vt 0.343750 0.750000
vt 0.343750 0.531250
vt 0.375000 0.750000
vt 0.375000 0.687500
vt 0.656250 0.750000
vt 0.656250 0.687500
vt 0.375000 0.625000
vt 0.656250 0.625000
vt 0.437500 0.343750
vt 0.437500 0.625000
vt 0.375000 0.343750
vt 0.500000 0.343750
vt 0.437500 0.312500
vt 0.437500 0.250000
vt 0.687500 0.625000
vt 0.750000 0.625000
vt 0.625000 0.250000
vt 0.687500 0.312500
vt 0.687500 0.250000
vt 0.000000 0.250000
vt 0.000000 0.187500
vt 0.062500 0.250000
vt 0.062500 0.187500
vt 0.125000 0.187500
vt 0.125000 0.250000
vt 0.187500 0.250000
vt 0.187500 0.187500
vt 0.750000 0.312500
vt 0.750000 0.250000
vt 0.500000 0.312500
vt 0.500000 0.250000
vt 0.562500 0.875000
vt 0.656250 0.875000
vt 0.656250 0.781250
vt 0.125000 0.281250
vt 0.218750 0.281250
vt 0.718750 0.531250
vt 0.718750 0.625000
vt 0.625000 0.531250
vt 0.625000 0.625000
vt 0.593750 0.375000
vt 0.593750 0.281250
vt 0.500000 0.375000
vt 0.500000 0.281250
vt 0.000000 0.281250
vt 0.093750 0.281250
vt 0.562500 0.906250
vt 0.656250 1.000000
vt 0.656250 0.906250
vt 0.625000 0.500000
vt 0.625000 0.468750
vt 0.875000 0.500000
vt 0.875000 0.468750
vt 0.625000 0.437500
vt 0.625000 0.406250
vt 0.875000 0.437500
vt 0.875000 0.406250
vt 0.000000 0.968750
vt 0.687500 0.906250
vt 0.875000 0.937500
vt 0.875000 0.906250
vt 0.687500 0.875000
vt 0.687500 0.843750
vt 0.875000 0.875000
vt 0.875000 0.843750
vt 0.000000 0.812500
vt 0.218750 0.250000
vt 0.218750 0.187500
vt 0.781250 0.812500
vt 0.781250 0.750000
vt 0.000000 0.937500
s 0
usemtl Material_0
f 1/1/1 3/2/1 2/3/1
f 3/2/1 4/4/1 2/3/1
f 5/5/2 7/6/2 6/7/2
f 7/6/2 8/8/2 6/7/2
f 9/9/3 11/10/3 10/11/3
f 11/10/3 12/12/3 10/11/3
f 13/13/4 15/14/4 14/15/4
f 15/14/4 16/16/4 14/15/4
f 17/17/5 19/18/5 18/19/5
f 19/18/5 20/20/5 18/19/5
f 21/21/6 23/22/6 22/23/6
f 23/22/6 24/24/6 22/23/6
f 25/25/7 27/26/7 26/27/7
f 27/26/7 28/28/7 26/27/7
f 29/29/8 31/30/8 30/31/8
f 31/30/8 32/32/8 30/31/8
f 33/33/9 35/32/9 34/34/9
f 35/32/9 36/30/9 34/34/9
f 37/35/10 39/36/10 38/37/10
f 39/36/10 40/38/10 38/37/10
f 41/26/5 43/37/5 42/28/5
f 43/37/5 44/35/5 42/28/5
f 45/39/6 47/25/6 46/40/6
f 47/25/6 48/27/6 46/40/6
f 49/41/1 51/42/1 50/43/1
f 51/42/1 52/44/1 50/43/1
f 53/45/2 55/46/2 54/39/2
f 55/46/2 56/47/2 54/39/2
f 57/48/3 59/49/3 58/50/3
f 59/49/3 60/51/3 58/50/3
f 61/52/4 63/53/4 62/54/4
f 63/53/4 64/55/4 62/54/4
f 65/3/5 67/8/5 66/56/5
f 67/8/5 68/57/5 66/56/5
f 69/58/6 71/59/6 70/60/6
f 71/59/6 72/61/6 70/60/6
f 73/62/1 75/63/1 74/64/1
f 75/63/1 76/65/1 74/64/1
f 77/63/2 79/66/2 78/65/2
f 79/66/2 80/67/2 78/65/2
f 81/68/11 83/69/11 82/70/11
f 83/69/11 84/66/11 82/70/11
f 85/21/12 87/71/12 86/69/12
f 87/71/12 88/68/12 86/69/12
f 89/35/13 91/36/13 90/72/13
f 91/36/13 92/73/13 90/72/13
f 93/34/14 95/74/14 94/33/14
f 95/74/14 96/75/14 94/33/14
f 97/50/1 99/76/1 98/77/1
f 99/76/1 100/78/1 98/77/1
f 101/79/2 103/80/2 102/81/2
f 103/80/2 104/82/2 102/81/2
f 105/83/3 107/84/3 106/82/3
f 107/84/3 108/81/3 106/82/3
f 109/85/4 111/86/4 110/84/4
f 111/86/4 112/83/4 110/84/4
f 113/77/5 115/78/5 114/87/5
f 115/78/5 116/88/5 114/87/5
f 117/72/6 119/73/6 118/89/6
f 119/73/6 120/90/6 118/89/6
f 121/91/1 123/44/1 122/92/1
f 123/44/1 124/93/1 122/92/1
f 125/16/2 127/94/2 126/14/2
f 127/94/2 128/95/2 126/14/2
f 129/96/3 131/97/3 130/98/3
f 131/97/3 132/99/3 130/98/3
f 133/100/4 135/101/4 134/102/4
f 135/101/4 136/103/4 134/102/4
f 137/11/5 139/104/5 138/9/5
f 139/104/5 140/105/5 138/9/5
f 141/43/6 143/106/6 142/107/6
f 143/106/6 144/108/6 142/107/6
f 145/109/1 147/110/1 146/111/1
f 147/110/1 148/112/1 146/111/1
f 149/113/2 151/114/2 150/115/2
f 151/114/2 152/116/2 150/115/2
f 153/12/3 155/1/3 154/12/3
f 155/1/3 156/1/3 154/12/3
f 157/1/4 159/12/4 158/1/4
f 159/12/4 160/12/4 158/1/4
f 161/1/5 163/117/5 162/1/5
f 163/117/5 164/117/5 162/1/5
f 165/1/6 167/117/6 166/1/6
f 167/117/6 168/117/6 166/1/6
f 169/55/1 171/118/1 170/119/1
f 171/118/1 172/120/1 170/119/1
f 173/121/2 175/122/2 174/123/2
f 175/122/2 176/124/2 174/123/2
f 177/125/3 179/1/3 178/125/3
f 179/1/3 180/1/3 178/125/3
f 181/1/4 183/125/4 182/1/4
f 183/125/4 184/125/4 182/1/4
f 185/1/5 187/117/5 186/1/5
f 187/117/5 188/117/5 186/1/5
f 189/1/6 191/117/6 190/1/6
f 191/117/6 192/117/6 190/1/6
f 193/85/1 195/86/1 194/126/1
f 195/86/1 196/127/1 194/126/1
f 197/31/2 199/32/2 198/128/2
f 199/32/2 200/129/2 198/128/2
f 201/117/3 203/1/3 202/117/3
f 203/1/3 204/1/3 202/117/3
f 205/1/4 207/117/4 206/1/4
f 207/117/4 208/117/4 206/1/4
f 209/1/5 211/130/5 210/1/5
f 211/130/5 212/130/5 210/1/5
f 213/1/6 215/130/6 214/1/6
f 215/130/6 216/130/6 214/1/6
