# Blender 4.4.0
# www.blender.org
mtllib lev.vudu.mtl
o attachmentModel
v -4.596922 2.115385 0.576924
v -4.596153 2.115385 0.576924
v -4.596922 0.961538 0.576924
v -4.596153 0.961538 0.576924
v -4.596153 2.115385 -0.576922
v -4.596922 2.115385 -0.576922
v -4.596153 0.961538 -0.576922
v -4.596922 0.961538 -0.576922
v -4.596153 2.115385 -0.576922
v -4.596153 2.115385 0.576924
v -4.596922 2.115385 -0.576922
v -4.596922 2.115385 0.576924
v -4.596922 0.961538 -0.576922
v -4.596922 0.961538 0.576924
v -4.596153 0.961538 -0.576922
v -4.596153 0.961538 0.576924
v -4.596922 2.115385 -0.576922
v -4.596922 2.115385 0.576924
v -4.596922 0.961538 -0.576922
v -4.596922 0.961538 0.576924
v -4.596153 2.115385 0.576924
v -4.596153 2.115385 -0.576922
v -4.596153 0.961538 0.576924
v -4.596153 0.961538 -0.576922
v -0.384615 0.384615 0.769231
v 0.384616 0.384615 0.769231
v -0.384615 0.000000 0.769231
v 0.384616 0.000000 0.769231
v 0.384615 0.384615 -0.769231
v -0.384616 0.384615 -0.769231
v 0.384615 0.000000 -0.769231
v -0.384616 0.000000 -0.769231
v 0.384615 0.384615 -0.769231
v 0.384616 0.384615 0.769231
v -0.384616 0.384615 -0.769231
v -0.384615 0.384615 0.769231
v -0.384616 0.000000 -0.769231
v -0.384615 0.000000 0.769231
v 0.384615 0.000000 -0.769231
v 0.384616 0.000000 0.769231
v -0.384616 0.384615 -0.769231
v -0.384615 0.384615 0.769231
v -0.384616 0.000000 -0.769231
v -0.384615 0.000000 0.769231
v 0.384616 0.384615 0.769231
v 0.384615 0.384615 -0.769231
v 0.384616 0.000000 0.769231
v 0.384615 0.000000 -0.769231
v 0.769231 2.115385 0.576923
v 1.538462 2.115385 0.576923
v 0.769231 0.961538 0.576923
v 1.538462 0.961538 0.576923
v 1.538461 2.115385 -0.576923
v 0.769231 2.115385 -0.576923
v 1.538461 0.961538 -0.576923
v 0.769231 0.961538 -0.576923
v 1.538461 2.115385 -0.576923
v 1.538462 2.115385 0.576923
v 0.769231 2.115385 -0.576923
v 0.769231 2.115385 0.576923
v 0.769231 0.961538 -0.576923
v 0.769231 0.961538 0.576923
v 1.538461 0.961538 -0.576923
v 1.538462 0.961538 0.576923
v 0.769231 2.115385 -0.576923
v 0.769231 2.115385 0.576923
v 0.769231 0.961538 -0.576923
v 0.769231 0.961538 0.576923
v 1.538462 2.115385 0.576923
v 1.538461 2.115385 -0.576923
v 1.538462 0.961538 0.576923
v 1.538461 0.961538 -0.576923
v -0.384615 1.923077 0.769231
v 0.384616 1.923077 0.769231
v -0.384615 1.153846 0.769231
v 0.384616 1.153846 0.769231
v 0.384615 1.923077 -0.769231
v -0.384616 1.923077 -0.769231
v 0.384615 1.153846 -0.769231
v -0.384616 1.153846 -0.769231
v 0.384615 1.923077 -0.769231
v 0.384616 1.923077 0.769231
v -0.384616 1.923077 -0.769231
v -0.384615 1.923077 0.769231
v -0.384616 1.153846 -0.769231
v -0.384615 1.153846 0.769231
v 0.384615 1.153846 -0.769231
v 0.384616 1.153846 0.769231
v -0.384616 1.923077 -0.769231
v -0.384615 1.923077 0.769231
v -0.384616 1.153846 -0.769231
v -0.384615 1.153846 0.769231
v 0.384616 1.923077 0.769231
v 0.384615 1.923077 -0.769231
v 0.384616 1.153846 0.769231
v 0.384615 1.153846 -0.769231
v -0.384615 2.307692 0.384615
v 0.384615 2.307692 0.384615
v -0.384615 1.923077 0.384615
v 0.384615 1.923077 0.384615
v 0.384615 2.307692 -0.384615
v -0.384615 2.307692 -0.384615
v 0.384615 1.923077 -0.384615
v -0.384615 1.923077 -0.384615
v 0.384615 2.307692 -0.384615
v 0.384615 2.307692 0.384615
v -0.384615 2.307692 -0.384615
v -0.384615 2.307692 0.384615
v -0.384615 1.923077 -0.384615
v -0.384615 1.923077 0.384615
v 0.384615 1.923077 -0.384615
v 0.384615 1.923077 0.384615
v -0.384615 2.307692 -0.384615
v -0.384615 2.307692 0.384615
v -0.384615 1.923077 -0.384615
v -0.384615 1.923077 0.384615
v 0.384615 2.307692 0.384615
v 0.384615 2.307692 -0.384615
v 0.384615 1.923077 0.384615
v 0.384615 1.923077 -0.384615
v -1.923077 2.115385 0.576923
v -1.153846 2.115385 0.576923
v -1.923077 0.961538 0.576923
v -1.153846 0.961538 0.576923
v -1.153846 2.115385 -0.576923
v -1.923077 2.115385 -0.576923
v -1.153846 0.961538 -0.576923
v -1.923077 0.961538 -0.576923
v -1.153846 2.115385 -0.576923
v -1.153846 2.115385 0.576923
v -1.923077 2.115385 -0.576923
v -1.923077 2.115385 0.576923
v -1.923077 0.961538 -0.576923
v -1.923077 0.961538 0.576923
v -1.153846 0.961538 -0.576923
v -1.153846 0.961538 0.576923
v -1.923077 2.115385 -0.576923
v -1.923077 2.115385 0.576923
v -1.923077 0.961538 -0.576923
v -1.923077 0.961538 0.576923
v -1.153846 2.115385 0.576923
v -1.153846 2.115385 -0.576923
v -1.153846 0.961538 0.576923
v -1.153846 0.961538 -0.576923
v -4.615384 2.115385 0.577693
v -2.307692 2.115385 0.577693
v -4.615384 0.961538 0.577693
v -2.307692 0.961538 0.577693
v -2.307692 2.115385 0.576923
v -4.615384 2.115385 0.576924
v -2.307692 0.961538 0.576923
v -4.615384 0.961538 0.576924
v -2.307692 2.115385 0.576923
v -2.307692 2.115385 0.577693
v -4.615384 2.115385 0.576924
v -4.615384 2.115385 0.577693
v -4.615384 0.961538 0.576924
v -4.615384 0.961538 0.577693
v -2.307692 0.961538 0.576923
v -2.307692 0.961538 0.577693
v -4.615384 2.115385 0.576924
v -4.615384 2.115385 0.577693
v -4.615384 0.961538 0.576924
v -4.615384 0.961538 0.577693
v -2.307692 2.115385 0.577693
v -2.307692 2.115385 0.576923
v -2.307692 0.961538 0.577693
v -2.307692 0.961538 0.576923
v -2.885384 2.188172 1.140414
v -2.884615 2.188172 1.140414
v -2.885384 1.832833 1.287600
v -2.884615 1.832833 1.287600
v -2.884615 1.893800 0.429738
v -2.885384 1.893800 0.429738
v -2.884615 1.538461 0.576923
v -2.885384 1.538461 0.576923
v -2.884615 1.893800 0.429738
v -2.884615 2.188172 1.140414
v -2.885384 1.893800 0.429738
v -2.885384 2.188172 1.140414
v -2.885384 1.538461 0.576923
v -2.885384 1.832833 1.287600
v -2.884615 1.538461 0.576923
v -2.884615 1.832833 1.287600
v -2.885384 1.893800 0.429738
v -2.885384 2.188172 1.140414
v -2.885384 1.538461 0.576923
v -2.885384 1.832833 1.287600
v -2.884615 2.188172 1.140414
v -2.884615 1.893800 0.429738
v -2.884615 1.832833 1.287600
v -2.884615 1.538461 0.576923
v -4.616153 2.115385 0.461539
v -4.615384 2.115385 0.461539
v -4.616153 2.000000 0.461539
v -4.615384 2.000000 0.461539
v -4.615384 2.115385 -0.461538
v -4.616153 2.115385 -0.461538
v -4.615384 2.000000 -0.461538
v -4.616153 2.000000 -0.461538
v -4.615384 2.115385 -0.461538
v -4.615384 2.115385 0.461539
v -4.616153 2.115385 -0.461538
v -4.616153 2.115385 0.461539
v -4.616153 2.000000 -0.461538
v -4.616153 2.000000 0.461539
v -4.615384 2.000000 -0.461538
v -4.615384 2.000000 0.461539
v -4.616153 2.115385 -0.461538
v -4.616153 2.115385 0.461539
v -4.616153 2.000000 -0.461538
v -4.616153 2.000000 0.461539
v -4.615384 2.115385 0.461539
v -4.615384 2.115385 -0.461538
v -4.615384 2.000000 0.461539
v -4.615384 2.000000 -0.461538
v -4.616153 2.115385 -0.461538
v -4.615384 2.115385 -0.461538
v -4.616153 0.961538 -0.461538
v -4.615384 0.961538 -0.461538
v -4.615384 2.115385 -0.576922
v -4.616153 2.115385 -0.576922
v -4.615384 0.961538 -0.576922
v -4.616153 0.961538 -0.576922
v -4.615384 2.115385 -0.576922
v -4.615384 2.115385 -0.461538
v -4.616153 2.115385 -0.576922
v -4.616153 2.115385 -0.461538
v -4.616153 0.961538 -0.576922
v -4.616153 0.961538 -0.461538
v -4.615384 0.961538 -0.576922
v -4.615384 0.961538 -0.461538
v -4.616153 2.115385 -0.576922
v -4.616153 2.115385 -0.461538
v -4.616153 0.961538 -0.576922
v -4.616153 0.961538 -0.461538
v -4.615384 2.115385 -0.461538
v -4.615384 2.115385 -0.576922
v -4.615384 0.961538 -0.461538
v -4.615384 0.961538 -0.576922
v -4.616153 1.076923 0.461539
v -4.615384 1.076923 0.461539
v -4.616153 0.961538 0.461539
v -4.615384 0.961538 0.461539
v -4.615384 1.076923 -0.461538
v -4.616153 1.076923 -0.461538
v -4.615384 0.961538 -0.461538
v -4.616153 0.961538 -0.461538
v -4.615384 1.076923 -0.461538
v -4.615384 1.076923 0.461539
v -4.616153 1.076923 -0.461538
v -4.616153 1.076923 0.461539
v -4.616153 0.961538 -0.461538
v -4.616153 0.961538 0.461539
v -4.615384 0.961538 -0.461538
v -4.615384 0.961538 0.461539
v -4.616153 1.076923 -0.461538
v -4.616153 1.076923 0.461539
v -4.616153 0.961538 -0.461538
v -4.616153 0.961538 0.461539
v -4.615384 1.076923 0.461539
v -4.615384 1.076923 -0.461538
v -4.615384 0.961538 0.461539
v -4.615384 0.961538 -0.461538
v -4.616153 2.115385 0.576924
v -4.615384 2.115385 0.576924
v -4.616153 0.961538 0.576924
v -4.615384 0.961538 0.576924
v -4.615384 2.115385 0.461539
v -4.616153 2.115385 0.461539
v -4.615384 0.961538 0.461539
v -4.616153 0.961538 0.461539
v -4.615384 2.115385 0.461539
v -4.615384 2.115385 0.576924
v -4.616153 2.115385 0.461539
v -4.616153 2.115385 0.576924
v -4.616153 0.961538 0.461539
v -4.616153 0.961538 0.576924
v -4.615384 0.961538 0.461539
v -4.615384 0.961538 0.576924
v -4.616153 2.115385 0.461539
v -4.616153 2.115385 0.576924
v -4.616153 0.961538 0.461539
v -4.616153 0.961538 0.576924
v -4.615384 2.115385 0.576924
v -4.615384 2.115385 0.461539
v -4.615384 0.961538 0.576924
v -4.615384 0.961538 0.461539
v 0.769231 0.961538 0.384615
v 1.538462 0.961538 0.384615
v 0.769231 0.576923 0.384615
v 1.538462 0.576923 0.384615
v 1.538461 0.961538 -0.384616
v 0.769231 0.961538 -0.384616
v 1.538461 0.576923 -0.384616
v 0.769231 0.576923 -0.384616
v 1.538461 0.961538 -0.384616
v 1.538462 0.961538 0.384615
v 0.769231 0.961538 -0.384616
v 0.769231 0.961538 0.384615
v 0.769231 0.576923 -0.384616
v 0.769231 0.576923 0.384615
v 1.538461 0.576923 -0.384616
v 1.538462 0.576923 0.384615
v 0.769231 0.961538 -0.384616
v 0.769231 0.961538 0.384615
v 0.769231 0.576923 -0.384616
v 0.769231 0.576923 0.384615
v 1.538462 0.961538 0.384615
v 1.538461 0.961538 -0.384616
v 1.538462 0.576923 0.384615
v 1.538461 0.576923 -0.384616
v -2.306923 0.384615 0.769231
v -1.537692 0.384615 0.769231
v -2.306923 0.000000 0.769231
v -1.537692 0.000000 0.769231
v -1.537692 0.384615 -0.769230
v -2.306923 0.384615 -0.769230
v -1.537692 0.000000 -0.769230
v -2.306923 0.000000 -0.769230
v -1.537692 0.384615 -0.769230
v -1.537692 0.384615 0.769231
v -2.306923 0.384615 -0.769230
v -2.306923 0.384615 0.769231
v -2.306923 0.000000 -0.769230
v -2.306923 0.000000 0.769231
v -1.537692 0.000000 -0.769230
v -1.537692 0.000000 0.769231
v -2.306923 0.384615 -0.769230
v -2.306923 0.384615 0.769231
v -2.306923 0.000000 -0.769230
v -2.306923 0.000000 0.769231
v -1.537692 0.384615 0.769231
v -1.537692 0.384615 -0.769230
v -1.537692 0.000000 0.769231
v -1.537692 0.000000 -0.769230
v -2.307692 1.538461 0.543929
v 3.461538 1.538461 0.543928
v -2.307692 0.994533 0.000001
v 3.461538 0.994533 -0.000001
v 3.461538 2.082390 -0.000000
v -2.307692 2.082390 0.000001
v 3.461538 1.538462 -0.543929
v -2.307692 1.538462 -0.543928
v 3.461538 2.082390 -0.000000
v 3.461538 1.538461 0.543928
v -2.307692 2.082390 0.000001
v -2.307692 1.538461 0.543929
v -2.307692 1.538462 -0.543928
v -2.307692 0.994533 0.000001
v 3.461538 1.538462 -0.543929
v 3.461538 0.994533 -0.000001
v -2.307692 2.082390 0.000001
v -2.307692 1.538461 0.543929
v -2.307692 1.538462 -0.543928
v -2.307692 0.994533 0.000001
v 3.461538 1.538461 0.543928
v 3.461538 2.082390 -0.000000
v 3.461538 0.994533 -0.000001
v 3.461538 1.538462 -0.543929
v -1.923077 1.731538 0.769231
v -1.153846 1.731538 0.769231
v -1.923077 1.346154 0.769231
v -1.153846 1.346154 0.769231
v -1.153846 1.731538 -0.769230
v -1.923077 1.731538 -0.769230
v -1.153846 1.346154 -0.769230
v -1.923077 1.346154 -0.769230
v -1.153846 1.731538 -0.769230
v -1.153846 1.731538 0.769231
v -1.923077 1.731538 -0.769230
v -1.923077 1.731538 0.769231
v -1.923077 1.346154 -0.769230
v -1.923077 1.346154 0.769231
v -1.153846 1.346154 -0.769230
v -1.153846 1.346154 0.769231
v -1.923077 1.731538 -0.769230
v -1.923077 1.731538 0.769231
v -1.923077 1.346154 -0.769230
v -1.923077 1.346154 0.769231
v -1.153846 1.731538 0.769231
v -1.153846 1.731538 -0.769230
v -1.153846 1.346154 0.769231
v -1.153846 1.346154 -0.769230
v 0.769231 1.731538 0.769231
v 1.538462 1.731538 0.769230
v 0.769231 1.346154 0.769231
v 1.538462 1.346154 0.769230
v 1.538461 1.731538 -0.769231
v 0.769231 1.731538 -0.769231
v 1.538461 1.346154 -0.769231
v 0.769231 1.346154 -0.769231
v 1.538461 1.731538 -0.769231
v 1.538462 1.731538 0.769230
v 0.769231 1.731538 -0.769231
v 0.769231 1.731538 0.769231
v 0.769231 1.346154 -0.769231
v 0.769231 1.346154 0.769231
v 1.538461 1.346154 -0.769231
v 1.538462 1.346154 0.769230
v 0.769231 1.731538 -0.769231
v 0.769231 1.731538 0.769231
v 0.769231 1.346154 -0.769231
v 0.769231 1.346154 0.769231
v 1.538462 1.731538 0.769230
v 1.538461 1.731538 -0.769231
v 1.538462 1.346154 0.769230
v 1.538461 1.346154 -0.769231
v -2.307692 0.576923 0.384616
v 1.538462 0.576923 0.384615
v -2.307692 0.192308 0.384616
v 1.538462 0.192308 0.384615
v 1.538461 0.576923 -0.384616
v -2.307692 0.576923 -0.384615
v 1.538461 0.192308 -0.384616
v -2.307692 0.192308 -0.384615
v 1.538461 0.576923 -0.384616
v 1.538462 0.576923 0.384615
v -2.307692 0.576923 -0.384615
v -2.307692 0.576923 0.384616
v -2.307692 0.192308 -0.384615
v -2.307692 0.192308 0.384616
v 1.538461 0.192308 -0.384616
v 1.538462 0.192308 0.384615
v -2.307692 0.576923 -0.384615
v -2.307692 0.576923 0.384616
v -2.307692 0.192308 -0.384615
v -2.307692 0.192308 0.384616
v 1.538462 0.576923 0.384615
v 1.538461 0.576923 -0.384616
v 1.538462 0.192308 0.384615
v 1.538461 0.192308 -0.384616
v -1.923077 0.961538 0.384616
v -1.153846 0.961538 0.384616
v -1.923077 0.576923 0.384616
v -1.153846 0.576923 0.384616
v -1.153846 0.961538 -0.384615
v -1.923077 0.961538 -0.384615
v -1.153846 0.576923 -0.384615
v -1.923077 0.576923 -0.384615
v -1.153846 0.961538 -0.384615
v -1.153846 0.961538 0.384616
v -1.923077 0.961538 -0.384615
v -1.923077 0.961538 0.384616
v -1.923077 0.576923 -0.384615
v -1.923077 0.576923 0.384616
v -1.153846 0.576923 -0.384615
v -1.153846 0.576923 0.384616
v -1.923077 0.961538 -0.384615
v -1.923077 0.961538 0.384616
v -1.923077 0.576923 -0.384615
v -1.923077 0.576923 0.384616
v -1.153846 0.961538 0.384616
v -1.153846 0.961538 -0.384615
v -1.153846 0.576923 0.384616
v -1.153846 0.576923 -0.384615
v -2.307692 0.961538 0.000770
v 0.769231 0.961538 0.000769
v -2.307692 0.576923 0.000770
v 0.769231 0.576923 0.000769
v 0.769231 0.961538 -0.000000
v -2.307692 0.961538 0.000000
v 0.769231 0.576923 -0.000000
v -2.307692 0.576923 0.000000
v 0.769231 0.961538 -0.000000
v 0.769231 0.961538 0.000769
v -2.307692 0.961538 0.000000
v -2.307692 0.961538 0.000770
v -2.307692 0.576923 0.000000
v -2.307692 0.576923 0.000770
v 0.769231 0.576923 -0.000000
v 0.769231 0.576923 0.000769
v -2.307692 0.961538 0.000000
v -2.307692 0.961538 0.000770
v -2.307692 0.576923 0.000000
v -2.307692 0.576923 0.000770
v 0.769231 0.961538 0.000769
v 0.769231 0.961538 -0.000000
v 0.769231 0.576923 0.000769
v 0.769231 0.576923 -0.000000
v -4.615384 2.116154 0.576924
v -2.307692 2.116154 0.576923
v -4.615384 2.115385 0.576924
v -2.307692 2.115385 0.576923
v -2.307692 2.116154 -0.576923
v -4.615384 2.116154 -0.576922
v -2.307692 2.115385 -0.576923
v -4.615384 2.115385 -0.576922
v -2.307692 2.116154 -0.576923
v -2.307692 2.116154 0.576923
v -4.615384 2.116154 -0.576922
v -4.615384 2.116154 0.576924
v -4.615384 2.115385 -0.576922
v -4.615384 2.115385 0.576924
v -2.307692 2.115385 -0.576923
v -2.307692 2.115385 0.576923
v -4.615384 2.116154 -0.576922
v -4.615384 2.116154 0.576924
v -4.615384 2.115385 -0.576922
v -4.615384 2.115385 0.576924
v -2.307692 2.116154 0.576923
v -2.307692 2.116154 -0.576923
v -2.307692 2.115385 0.576923
v -2.307692 2.115385 -0.576923
v -4.615384 2.115385 -0.576153
v -2.307692 2.115385 -0.576153
v -4.615384 0.961538 -0.576153
v -2.307692 0.961538 -0.576153
v -2.307692 2.115385 -0.576923
v -4.615384 2.115385 -0.576922
v -2.307692 0.961538 -0.576923
v -4.615384 0.961538 -0.576922
v -2.307692 2.115385 -0.576923
v -2.307692 2.115385 -0.576153
v -4.615384 2.115385 -0.576922
v -4.615384 2.115385 -0.576153
v -4.615384 0.961538 -0.576922
v -4.615384 0.961538 -0.576153
v -2.307692 0.961538 -0.576923
v -2.307692 0.961538 -0.576153
v -4.615384 2.115385 -0.576922
v -4.615384 2.115385 -0.576153
v -4.615384 0.961538 -0.576922
v -4.615384 0.961538 -0.576153
v -2.307692 2.115385 -0.576153
v -2.307692 2.115385 -0.576923
v -2.307692 0.961538 -0.576153
v -2.307692 0.961538 -0.576923
v -4.615384 0.962308 0.576924
v -2.307692 0.962308 0.576923
v -4.615384 0.961538 0.576924
v -2.307692 0.961538 0.576923
v -2.307692 0.962308 -0.576923
v -4.615384 0.962308 -0.576922
v -2.307692 0.961538 -0.576923
v -4.615384 0.961538 -0.576922
v -2.307692 0.962308 -0.576923
v -2.307692 0.962308 0.576923
v -4.615384 0.962308 -0.576922
v -4.615384 0.962308 0.576924
v -4.615384 0.961538 -0.576922
v -4.615384 0.961538 0.576924
v -2.307692 0.961538 -0.576923
v -2.307692 0.961538 0.576923
v -4.615384 0.962308 -0.576922
v -4.615384 0.962308 0.576924
v -4.615384 0.961538 -0.576922
v -4.615384 0.961538 0.576924
v -2.307692 0.962308 0.576923
v -2.307692 0.962308 -0.576923
v -2.307692 0.961538 0.576923
v -2.307692 0.961538 -0.576923
v -2.308461 2.115385 0.576923
v -2.307692 2.115385 0.576923
v -2.308461 0.961538 0.576923
v -2.307692 0.961538 0.576923
v -2.307692 2.115385 -0.576923
v -2.308461 2.115385 -0.576923
v -2.307692 0.961538 -0.576923
v -2.308461 0.961538 -0.576923
v -2.307692 2.115385 -0.576923
v -2.307692 2.115385 0.576923
v -2.308461 2.115385 -0.576923
v -2.308461 2.115385 0.576923
v -2.308461 0.961538 -0.576923
v -2.308461 0.961538 0.576923
v -2.307692 0.961538 -0.576923
v -2.307692 0.961538 0.576923
v -2.308461 2.115385 -0.576923
v -2.308461 2.115385 0.576923
v -2.308461 0.961538 -0.576923
v -2.308461 0.961538 0.576923
v -2.307692 2.115385 0.576923
v -2.307692 2.115385 -0.576923
v -2.307692 0.961538 0.576923
v -2.307692 0.961538 -0.576923
vn -0.0000 -0.0000 1.0000
vn -0.0000 -0.0000 -1.0000
vn -0.0000 1.0000 -0.0000
vn -0.0000 -1.0000 -0.0000
vn -1.0000 -0.0000 -0.0000
vn 1.0000 -0.0000 -0.0000
vn -0.0000 0.3828 0.9238
vn -0.0000 0.3826 0.9239
vn -0.0000 -0.3828 -0.9238
vn -0.0000 -0.3826 -0.9239
vn -0.0000 0.9238 -0.3828
vn -0.0000 0.9240 -0.3825
vn -0.0000 -0.9238 0.3828
vn -0.0000 -0.7071 0.7071
vn -0.0000 0.7071 -0.7071
vn -0.0000 0.7071 0.7071
vn -0.0000 -0.7071 -0.7071
vt 0.250000 0.875000
vt 0.250000 0.781250
vt 0.437500 0.875000
vt 0.437500 0.781250
vt 0.250000 0.750000
vt 0.250000 0.656250
vt 0.437500 0.750000
vt 0.437500 0.656250
vt 0.343750 0.437500
vt 0.343750 0.625000
vt 0.250000 0.437500
vt 0.250000 0.625000
vt 0.468750 0.625000
vt 0.468750 0.437500
vt 0.375000 0.625000
vt 0.375000 0.437500
vt 0.125000 0.437500
vt 0.125000 0.343750
vt 0.218750 0.437500
vt 0.218750 0.343750
vt 0.500000 0.500000
vt 0.500000 0.406250
vt 0.593750 0.500000
vt 0.593750 0.406250
vt 0.187500 0.187500
vt 0.187500 0.156250
vt 0.250000 0.187500
vt 0.250000 0.156250
vt 0.312500 0.187500
vt 0.312500 0.156250
vt 0.375000 0.375000
vt 0.250000 0.375000
vt 0.687500 0.750000
vt 0.687500 0.687500
vt 0.562500 0.750000
vt 0.562500 0.687500
vt 0.750000 1.000000
vt 0.750000 0.968750
vt 0.875000 1.000000
vt 0.875000 0.968750
vt 0.687500 0.312500
vt 0.687500 0.281250
vt 0.812500 0.312500
vt 0.812500 0.281250
vt 0.000000 0.312500
vt 0.000000 0.218750
vt 0.062500 0.312500
vt 0.062500 0.218750
vt 0.125000 0.312500
vt 0.125000 0.218750
vt 0.218750 0.250000
vt 0.218750 0.312500
vt 0.125000 0.250000
vt 0.343750 0.312500
vt 0.343750 0.250000
vt 0.250000 0.312500
vt 0.250000 0.250000
vt 0.531250 0.750000
vt 0.531250 0.656250
vt 0.125000 0.562500
vt 0.125000 0.468750
vt 0.218750 0.562500
vt 0.218750 0.468750
vt 0.125000 0.187500
vt 0.187500 0.250000
vt 0.750000 0.875000
vt 0.750000 0.812500
vt 0.812500 0.875000
vt 0.812500 0.812500
vt 0.125000 0.375000
vt 0.000000 0.375000
vt 0.750000 0.937500
vt 0.625000 1.000000
vt 0.625000 0.937500
vt 0.500000 0.437500
vt 0.500000 0.375000
vt 0.562500 0.625000
vt 0.687500 0.625000
vt 0.375000 0.187500
vt 0.375000 0.156250
vt 0.437500 0.187500
vt 0.437500 0.156250
vt 0.812500 0.750000
vt 0.750000 0.750000
vt 0.812500 0.687500
vt 0.812500 0.656250
vt 0.875000 0.687500
vt 0.875000 0.656250
vt 0.812500 0.718750
vt 0.875000 0.750000
vt 0.875000 0.718750
vt 0.687500 0.656250
vt 0.750000 0.656250
vt 0.375000 0.312500
vt 0.375000 0.218750
vt 0.437500 0.312500
vt 0.437500 0.218750
vt 0.531250 0.250000
vt 0.531250 0.312500
vt 0.437500 0.250000
vt 0.656250 0.312500
vt 0.656250 0.250000
vt 0.562500 0.312500
vt 0.562500 0.250000
vt 0.500000 0.625000
vt 0.500000 0.531250
vt 0.593750 0.625000
vt 0.593750 0.531250
vt 0.500000 1.000000
vt 0.500000 0.906250
vt 0.593750 1.000000
vt 0.593750 0.906250
vt 0.000000 1.000000
vt 0.000000 0.968750
vt 0.062500 1.000000
vt 0.812500 0.562500
vt 0.812500 0.531250
vt 0.875000 0.562500
vt 0.875000 0.531250
vt 0.500000 0.187500
vt 0.500000 0.156250
vt 0.812500 0.500000
vt 0.812500 0.468750
vt 0.875000 0.500000
vt 0.875000 0.468750
vt 0.562500 0.187500
vt 0.562500 0.156250
vt 0.000000 0.906250
vt 0.031250 1.000000
vt 0.062500 0.187500
vt 0.062500 0.093750
vt 0.093750 0.187500
vt 0.093750 0.093750
vt 0.000000 0.187500
vt 0.000000 0.093750
vt 0.031250 0.187500
vt 0.031250 0.093750
vt 0.625000 0.187500
vt 0.625000 0.156250
vt 0.687500 0.187500
vt 0.687500 0.156250
vt 0.812500 0.781250
vt 0.843750 0.875000
vt 0.843750 0.781250
vt 0.125000 0.093750
vt 0.156250 0.187500
vt 0.156250 0.093750
vt 0.875000 0.312500
vt 0.875000 0.281250
vt 0.812500 0.250000
vt 0.812500 0.218750
vt 0.875000 0.250000
vt 0.875000 0.218750
vt 0.312500 0.250000
vt 0.750000 0.687500
vt 0.750000 0.187500
vt 0.750000 0.156250
vt 0.812500 0.187500
vt 0.812500 0.156250
vt 0.250000 0.125000
vt 0.250000 0.093750
vt 0.312500 0.125000
vt 0.312500 0.093750
vt 0.937500 0.750000
vt 0.937500 0.718750
vt 0.750000 0.562500
vt 0.750000 0.625000
vt 0.625000 0.562500
vt 0.625000 0.625000
vt 0.750000 0.500000
vt 0.625000 0.500000
vt 0.562500 0.218750
vt 0.750000 0.593750
vt 0.875000 0.625000
vt 0.875000 0.593750
vt 0.000000 0.937500
vt 0.468750 1.000000
vt 0.468750 0.937500
vt 0.000000 0.875000
vt 0.468750 0.875000
vt 0.062500 0.406250
vt 0.062500 0.875000
vt 0.000000 0.406250
vt 0.125000 0.875000
vt 0.125000 0.406250
vt 0.750000 0.437500
vt 0.812500 0.437500
vt 0.375000 0.125000
vt 0.375000 0.093750
vt 0.937500 0.687500
vt 0.937500 0.656250
vt 0.625000 0.312500
vt 0.625000 0.375000
vt 0.500000 0.312500
vt 0.625000 0.437500
vt 0.750000 0.406250
vt 0.875000 0.437500
vt 0.875000 0.406250
vt 0.687500 0.250000
vt 0.687500 0.218750
vt 0.437500 0.125000
vt 0.437500 0.093750
vt 0.937500 0.625000
vt 0.937500 0.593750
vt 0.750000 0.375000
vt 0.750000 0.312500
vt 0.750000 0.343750
vt 0.875000 0.375000
vt 0.875000 0.343750
vt 0.437500 0.843750
vt 0.750000 0.843750
vt 0.437500 0.812500
vt 0.750000 0.781250
vt 0.187500 0.562500
vt 0.187500 0.875000
vt 0.250000 0.562500
vt 0.875000 0.812500
vt 0.875000 0.781250
vt 0.937500 0.812500
vt 0.937500 0.781250
vt 0.187500 0.125000
vt 0.187500 0.093750
vt 0.937500 1.000000
vt 0.937500 0.968750
vt 0.875000 0.875000
vt 0.875000 0.843750
vt 0.937500 0.875000
vt 0.937500 0.843750
vt 0.375000 0.250000
vt 0.812500 0.625000
vt 0.875000 0.937500
vt 0.875000 0.906250
vt 0.937500 0.937500
vt 0.937500 0.906250
vt 0.875000 0.187500
vt 0.875000 0.156250
vt 0.625000 0.906250
vt 0.250000 0.343750
vt 0.500000 0.343750
vt 0.000000 0.750000
s 0
usemtl Material_0
f 1/1/1 3/2/1 2/3/1
f 3/2/1 4/4/1 2/3/1
f 5/5/2 7/6/2 6/7/2
f 7/6/2 8/8/2 6/7/2
f 9/9/3 11/10/3 10/11/3
f 11/10/3 12/12/3 10/11/3
f 13/13/4 15/14/4 14/15/4
f 15/14/4 16/16/4 14/15/4
f 17/17/5 19/18/5 18/19/5
f 19/18/5 20/20/5 18/19/5
f 21/21/6 23/22/6 22/23/6
f 23/22/6 24/24/6 22/23/6
f 25/25/1 27/26/1 26/27/1
f 27/26/1 28/28/1 26/27/1
f 29/27/2 31/28/2 30/29/2
f 31/28/2 32/30/2 30/29/2
f 33/31/3 35/16/3 34/32/3
f 35/16/3 36/11/3 34/32/3
f 37/33/4 39/34/4 38/35/4
f 39/34/4 40/36/4 38/35/4
f 41/37/5 43/38/5 42/39/5
f 43/38/5 44/40/5 42/39/5
f 45/41/6 47/42/6 46/43/6
f 47/42/6 48/44/6 46/43/6
f 49/45/1 51/46/1 50/47/1
f 51/46/1 52/48/1 50/47/1
f 53/47/2 55/48/2 54/49/2
f 55/48/2 56/50/2 54/49/2
f 57/51/3 59/52/3 58/53/3
f 59/52/3 60/49/3 58/53/3
f 61/54/4 63/55/4 62/56/4
f 63/55/4 64/57/4 62/56/4
f 65/7/5 67/8/5 66/58/5
f 67/8/5 68/59/5 66/58/5
f 69/60/6 71/61/6 70/62/6
f 71/61/6 72/63/6 70/62/6
f 73/53/1 75/64/1 74/65/1
f 75/64/1 76/25/1 74/65/1
f 77/66/2 79/67/2 78/68/2
f 79/67/2 80/69/2 78/68/2
f 81/49/3 83/70/3 82/45/3
f 83/70/3 84/71/3 82/45/3
f 85/37/4 87/72/4 86/73/4
f 87/72/4 88/74/4 86/73/4
f 89/16/5 91/31/5 90/75/5
f 91/31/5 92/76/5 90/75/5
f 93/36/6 95/77/6 94/34/6
f 95/77/6 96/78/6 94/34/6
f 97/29/1 99/30/1 98/79/1
f 99/30/1 100/80/1 98/79/1
f 101/79/2 103/80/2 102/81/2
f 103/80/2 104/82/2 102/81/2
f 105/27/3 107/57/3 106/25/3
f 107/57/3 108/65/3 106/25/3
f 109/69/4 111/83/4 110/67/4
f 111/83/4 112/84/4 110/67/4
f 113/85/5 115/86/5 114/87/5
f 115/86/5 116/88/5 114/87/5
f 117/83/6 119/89/6 118/90/6
f 119/89/6 120/91/6 118/90/6
f 121/33/1 123/92/1 122/84/1
f 123/92/1 124/93/1 122/84/1
f 125/94/2 127/95/2 126/96/2
f 127/95/2 128/97/2 126/96/2
f 129/98/3 131/99/3 130/100/3
f 131/99/3 132/96/3 130/100/3
f 133/101/4 135/102/4 134/103/4
f 135/102/4 136/104/4 134/103/4
f 137/105/5 139/106/5 138/107/5
f 139/106/5 140/108/5 138/107/5
f 141/109/6 143/110/6 142/111/6
f 143/110/6 144/112/6 142/111/6
f 145/1/1 147/2/1 146/3/1
f 147/2/1 148/4/1 146/3/1
f 149/5/2 151/6/2 150/7/2
f 151/6/2 152/8/2 150/7/2
f 153/9/3 155/10/3 154/11/3
f 155/10/3 156/12/3 154/11/3
f 157/13/4 159/14/4 158/15/4
f 159/14/4 160/16/4 158/15/4
f 161/17/5 163/18/5 162/19/5
f 163/18/5 164/20/5 162/19/5
f 165/21/6 167/22/6 166/23/6
f 167/22/6 168/24/6 166/23/6
f 169/113/7 171/114/7 170/113/7
f 171/114/8 172/114/8 170/113/8
f 173/113/9 175/114/9 174/113/9
f 175/114/10 176/114/10 174/113/10
f 177/115/11 179/115/11 178/113/11
f 179/115/12 180/113/12 178/113/12
f 181/115/13 183/115/13 182/113/13
f 183/115/13 184/113/13 182/113/13
f 185/116/5 187/117/5 186/118/5
f 187/117/5 188/119/5 186/118/5
f 189/81/6 191/82/6 190/120/6
f 191/82/6 192/121/6 190/120/6
f 193/113/1 195/114/1 194/113/1
f 195/114/1 196/114/1 194/113/1
f 197/113/2 199/114/2 198/113/2
f 199/114/2 200/114/2 198/113/2
f 201/115/3 203/115/3 202/113/3
f 203/115/3 204/113/3 202/113/3
f 205/115/4 207/115/4 206/113/4
f 207/115/4 208/113/4 206/113/4
f 209/122/5 211/123/5 210/124/5
f 211/123/5 212/125/5 210/124/5
f 213/120/6 215/121/6 214/126/6
f 215/121/6 216/127/6 214/126/6
f 217/113/1 219/128/1 218/113/1
f 219/128/1 220/128/1 218/113/1
f 221/113/2 223/128/2 222/113/2
f 223/128/2 224/128/2 222/113/2
f 225/129/3 227/129/3 226/113/3
f 227/129/3 228/113/3 226/113/3
f 229/129/4 231/129/4 230/113/4
f 231/129/4 232/113/4 230/113/4
f 233/130/5 235/131/5 234/132/5
f 235/131/5 236/133/5 234/132/5
f 237/134/6 239/135/6 238/136/6
f 239/135/6 240/137/6 238/136/6
f 241/113/1 243/114/1 242/113/1
f 243/114/1 244/114/1 242/113/1
f 245/113/2 247/114/2 246/113/2
f 247/114/2 248/114/2 246/113/2
f 249/115/3 251/115/3 250/113/3
f 251/115/3 252/113/3 250/113/3
f 253/115/4 255/115/4 254/113/4
f 255/115/4 256/113/4 254/113/4
f 257/138/5 259/139/5 258/140/5
f 259/139/5 260/141/5 258/140/5
f 261/126/6 263/127/6 262/138/6
f 263/127/6 264/139/6 262/138/6
f 265/113/1 267/128/1 266/113/1
f 267/128/1 268/128/1 266/113/1
f 269/113/2 271/128/2 270/113/2
f 271/128/2 272/128/2 270/113/2
f 273/129/3 275/129/3 274/113/3
f 275/129/3 276/113/3 274/113/3
f 277/129/4 279/129/4 278/113/4
f 279/129/4 280/113/4 278/113/4
f 281/68/5 283/142/5 282/143/5
f 283/142/5 284/144/5 282/143/5
f 285/64/6 287/145/6 286/146/6
f 287/145/6 288/147/6 286/146/6
f 289/43/1 291/44/1 290/148/1
f 291/44/1 292/149/1 290/148/1
f 293/150/2 295/151/2 294/152/2
f 295/151/2 296/153/2 294/152/2
f 297/29/3 299/154/3 298/27/3
f 299/154/3 300/57/3 298/27/3
f 301/83/4 303/85/4 302/84/4
f 303/85/4 304/155/4 302/84/4
f 305/156/5 307/157/5 306/158/5
f 307/157/5 308/159/5 306/158/5
f 309/140/6 311/141/6 310/156/6
f 311/141/6 312/157/6 310/156/6
f 313/160/1 315/161/1 314/162/1
f 315/161/1 316/163/1 314/162/1
f 317/90/2 319/91/2 318/164/2
f 319/91/2 320/165/2 318/164/2
f 321/166/3 323/167/3 322/168/3
f 323/167/3 324/169/3 322/168/3
f 325/166/4 327/170/4 326/168/4
f 327/170/4 328/171/4 326/168/4
f 329/100/5 331/97/5 330/104/5
f 331/97/5 332/172/5 330/104/5
f 333/167/6 335/173/6 334/174/6
f 335/173/6 336/175/6 334/174/6
f 337/113/14 339/176/14 338/177/14
f 339/176/14 340/178/14 338/177/14
f 341/176/15 343/179/15 342/178/15
f 343/179/15 344/180/15 342/178/15
f 345/181/16 347/182/16 346/183/16
f 347/182/16 348/179/16 346/183/16
f 349/184/17 351/185/17 350/182/17
f 351/185/17 352/181/17 350/182/17
f 353/170/5 355/186/5 354/122/5
f 355/186/5 356/187/5 354/122/5
f 357/166/6 359/170/6 358/116/6
f 359/170/6 360/122/6 358/116/6
f 361/162/1 363/163/1 362/188/1
f 363/163/1 364/189/1 362/188/1
f 365/87/2 367/88/2 366/190/2
f 367/88/2 368/191/2 366/190/2
f 369/192/3 371/193/3 370/194/3
f 371/193/3 372/76/3 370/194/3
f 373/170/4 375/186/4 374/171/4
f 375/186/4 376/195/4 374/171/4
f 377/186/5 379/196/5 378/197/5
f 379/196/5 380/198/5 378/197/5
f 381/104/6 383/172/6 382/199/6
f 383/172/6 384/200/6 382/199/6
f 385/188/1 387/189/1 386/201/1
f 387/189/1 388/202/1 386/201/1
f 389/174/2 391/175/2 390/203/2
f 391/175/2 392/204/2 390/203/2
f 393/205/3 395/186/3 394/193/3
f 395/186/3 396/195/3 394/193/3
f 397/205/4 399/206/4 398/193/4
f 399/206/4 400/192/4 398/193/4
f 401/199/5 403/200/5 402/150/5
f 403/200/5 404/151/5 402/150/5
f 405/205/6 407/207/6 406/208/6
f 407/207/6 408/209/6 406/208/6
f 409/3/1 411/210/1 410/66/1
f 411/210/1 412/211/1 410/66/1
f 413/212/2 415/4/2 414/67/2
f 415/4/2 416/213/2 414/67/2
f 417/214/3 419/215/3 418/60/3
f 419/215/3 420/184/3 418/60/3
f 421/1/4 423/216/4 422/215/4
f 423/216/4 424/214/4 422/215/4
f 425/217/5 427/218/5 426/219/5
f 427/218/5 428/220/5 426/219/5
f 429/221/6 431/222/6 430/160/6
f 431/222/6 432/161/6 430/160/6
f 433/39/1 435/40/1 434/223/1
f 435/40/1 436/224/1 434/223/1
f 437/225/2 439/226/2 438/227/2
f 439/226/2 440/228/2 438/227/2
f 441/79/3 443/229/3 442/29/3
f 443/229/3 444/154/3 442/29/3
f 445/85/4 447/230/4 446/155/4
f 447/230/4 448/167/4 446/155/4
f 449/231/5 451/232/5 450/233/5
f 451/232/5 452/234/5 450/233/5
f 453/158/6 455/159/6 454/235/6
f 455/159/6 456/236/6 454/235/6
f 457/74/1 459/237/1 458/231/1
f 459/237/1 460/232/1 458/231/1
f 461/32/2 463/238/2 462/76/2
f 463/238/2 464/239/2 462/76/2
f 465/240/3 467/113/3 466/240/3
f 467/113/3 468/113/3 466/240/3
f 469/113/4 471/240/4 470/113/4
f 471/240/4 472/240/4 470/113/4
f 473/113/5 475/114/5 474/113/5
f 475/114/5 476/114/5 474/113/5
f 477/113/6 479/114/6 478/113/6
f 479/114/6 480/114/6 478/113/6
f 481/1/1 483/2/1 482/3/1
f 483/2/1 484/4/1 482/3/1
f 485/5/2 487/6/2 486/7/2
f 487/6/2 488/8/2 486/7/2
f 489/9/3 491/10/3 490/11/3
f 491/10/3 492/12/3 490/11/3
f 493/13/4 495/14/4 494/15/4
f 495/14/4 496/16/4 494/15/4
f 497/17/5 499/18/5 498/19/5
f 499/18/5 500/20/5 498/19/5
f 501/21/6 503/22/6 502/23/6
f 503/22/6 504/24/6 502/23/6
f 505/1/1 507/2/1 506/3/1
f 507/2/1 508/4/1 506/3/1
f 509/5/2 511/6/2 510/7/2
f 511/6/2 512/8/2 510/7/2
f 513/9/3 515/10/3 514/11/3
f 515/10/3 516/12/3 514/11/3
f 517/13/4 519/14/4 518/15/4
f 519/14/4 520/16/4 518/15/4
f 521/17/5 523/18/5 522/19/5
f 523/18/5 524/20/5 522/19/5
f 525/21/6 527/22/6 526/23/6
f 527/22/6 528/24/6 526/23/6
f 529/1/1 531/2/1 530/3/1
f 531/2/1 532/4/1 530/3/1
f 533/5/2 535/6/2 534/7/2
f 535/6/2 536/8/2 534/7/2
f 537/9/3 539/10/3 538/11/3
f 539/10/3 540/12/3 538/11/3
f 541/13/4 543/14/4 542/15/4
f 543/14/4 544/16/4 542/15/4
f 545/17/5 547/18/5 546/19/5
f 547/18/5 548/20/5 546/19/5
f 549/21/6 551/22/6 550/23/6
f 551/22/6 552/24/6 550/23/6
f 553/1/1 555/2/1 554/3/1
f 555/2/1 556/4/1 554/3/1
f 557/5/2 559/6/2 558/7/2
f 559/6/2 560/8/2 558/7/2
f 561/9/3 563/10/3 562/11/3
f 563/10/3 564/12/3 562/11/3
f 565/13/4 567/14/4 566/15/4
f 567/14/4 568/16/4 566/15/4
f 569/17/5 571/18/5 570/19/5
f 571/18/5 572/20/5 570/19/5
f 573/21/6 575/22/6 574/23/6
f 575/22/6 576/24/6 574/23/6
o scopeModel
v -4.600769 2.115385 0.576924
v -4.599999 2.115385 0.576924
v -4.600769 0.961538 0.576924
v -4.599999 0.961538 0.576924
v -4.599999 2.115385 -0.576922
v -4.600769 2.115385 -0.576922
v -4.599999 0.961538 -0.576922
v -4.600769 0.961538 -0.576922
v -4.599999 2.115385 -0.576922
v -4.599999 2.115385 0.576924
v -4.600769 2.115385 -0.576922
v -4.600769 2.115385 0.576924
v -4.600769 0.961538 -0.576922
v -4.600769 0.961538 0.576924
v -4.599999 0.961538 -0.576922
v -4.599999 0.961538 0.576924
v -4.600769 2.115385 -0.576922
v -4.600769 2.115385 0.576924
v -4.600769 0.961538 -0.576922
v -4.600769 0.961538 0.576924
v -4.599999 2.115385 0.576924
v -4.599999 2.115385 -0.576922
v -4.599999 0.961538 0.576924
v -4.599999 0.961538 -0.576922
vn -0.0000 -0.0000 1.0000
vn -0.0000 -0.0000 -1.0000
vn -0.0000 1.0000 -0.0000
vn -0.0000 -1.0000 -0.0000
vn -1.0000 -0.0000 -0.0000
vn 1.0000 -0.0000 -0.0000
vt 0.250000 0.875000
vt 0.250000 0.781250
vt 0.437500 0.875000
vt 0.437500 0.781250
vt 0.250000 0.750000
vt 0.250000 0.656250
vt 0.437500 0.750000
vt 0.437500 0.656250
vt 0.343750 0.437500
vt 0.343750 0.625000
vt 0.250000 0.437500
vt 0.250000 0.625000
vt 0.468750 0.625000
vt 0.468750 0.437500
vt 0.375000 0.625000
vt 0.375000 0.437500
vt 0.906250 0.093750
vt 0.906250 0.000000
vt 1.000000 0.093750
vt 1.000000 0.000000
s 0
usemtl Material_0
f 577/241/18 579/242/18 578/243/18
f 579/242/18 580/244/18 578/243/18
f 581/245/19 583/246/19 582/247/19
f 583/246/19 584/248/19 582/247/19
f 585/249/20 587/250/20 586/251/20
f 587/250/20 588/252/20 586/251/20
f 589/253/21 591/254/21 590/255/21
f 591/254/21 592/256/21 590/255/21
f 593/257/22 595/258/22 594/259/22
f 595/258/22 596/260/22 594/259/22
f 597/257/23 599/258/23 598/259/23
f 599/258/23 600/260/23 598/259/23
o overlaySolidModel
v -4.608461 2.115385 0.576924
v -4.607692 2.115385 0.576924
v -4.608461 0.961538 0.576924
v -4.607692 0.961538 0.576924
v -4.607692 2.115385 -0.576922
v -4.608461 2.115385 -0.576922
v -4.607692 0.961538 -0.576922
v -4.608461 0.961538 -0.576922
v -4.607692 2.115385 -0.576922
v -4.607692 2.115385 0.576924
v -4.608461 2.115385 -0.576922
v -4.608461 2.115385 0.576924
v -4.608461 0.961538 -0.576922
v -4.608461 0.961538 0.576924
v -4.607692 0.961538 -0.576922
v -4.607692 0.961538 0.576924
v -4.608461 2.115385 -0.576922
v -4.608461 2.115385 0.576924
v -4.608461 0.961538 -0.576922
v -4.608461 0.961538 0.576924
v -4.607692 2.115385 0.576924
v -4.607692 2.115385 -0.576922
v -4.607692 0.961538 0.576924
v -4.607692 0.961538 -0.576922
vn -0.0000 -0.0000 1.0000
vn -0.0000 -0.0000 -1.0000
vn -0.0000 1.0000 -0.0000
vn -0.0000 -1.0000 -0.0000
vn -1.0000 -0.0000 -0.0000
vn 1.0000 -0.0000 -0.0000
vt 0.250000 0.875000
vt 0.250000 0.781250
vt 0.437500 0.875000
vt 0.437500 0.781250
vt 0.250000 0.750000
vt 0.250000 0.656250
vt 0.437500 0.750000
vt 0.437500 0.656250
vt 0.343750 0.437500
vt 0.343750 0.625000
vt 0.250000 0.437500
vt 0.250000 0.625000
vt 0.468750 0.625000
vt 0.468750 0.437500
vt 0.375000 0.625000
vt 0.375000 0.437500
vt 0.906250 0.093750
vt 0.906250 0.000000
vt 1.000000 0.093750
vt 1.000000 0.000000
s 0
usemtl Material_0
f 601/261/24 603/262/24 602/263/24
f 603/262/24 604/264/24 602/263/24
f 605/265/25 607/266/25 606/267/25
f 607/266/25 608/268/25 606/267/25
f 609/269/26 611/270/26 610/271/26
f 611/270/26 612/272/26 610/271/26
f 613/273/27 615/274/27 614/275/27
f 615/274/27 616/276/27 614/275/27
f 617/277/28 619/278/28 618/279/28
f 619/278/28 620/280/28 618/279/28
f 621/277/29 623/278/29 622/279/29
f 623/278/29 624/280/29 622/279/29
