# Blender 4.2.1 LTS
# www.blender.org
mtllib lev.ospreysup.mtl
o attachmentModel
v 0.000000 0.576923 0.576923
v 6.153846 0.576923 0.576923
v 0.000000 -0.961538 0.576923
v 6.153846 -0.961538 0.576923
v 6.153846 0.576923 -0.576923
v -0.000000 0.576923 -0.576923
v 6.153846 -0.961538 -0.576923
v -0.000000 -0.961538 -0.576923
v 6.153846 0.576923 -0.576923
v 6.153846 0.576923 0.576923
v -0.000000 0.576923 -0.576923
v 0.000000 0.576923 0.576923
v -0.000000 -0.961538 -0.576923
v 0.000000 -0.961538 0.576923
v 6.153846 -0.961538 -0.576923
v 6.153846 -0.961538 0.576923
v -0.000000 0.576923 -0.576923
v 0.000000 0.576923 0.576923
v -0.000000 -0.961538 -0.576923
v 0.000000 -0.961538 0.576923
v 6.153846 0.576923 0.576923
v 6.153846 0.576923 -0.576923
v 6.153846 -0.961538 0.576923
v 6.153846 -0.961538 -0.576923
v 6.076923 0.384615 0.384615
v 6.269230 0.384615 0.384615
v 6.076923 -0.384615 0.384615
v 6.269230 -0.384615 0.384615
v 6.269230 0.384615 -0.384616
v 6.076923 0.384615 -0.384616
v 6.269230 -0.384615 -0.384616
v 6.076923 -0.384615 -0.384616
v 6.269230 0.384615 -0.384616
v 6.269230 0.384615 0.384615
v 6.076923 0.384615 -0.384616
v 6.076923 0.384615 0.384615
v 6.076923 -0.384615 -0.384616
v 6.076923 -0.384615 0.384615
v 6.269230 -0.384615 -0.384616
v 6.269230 -0.384615 0.384615
v 6.076923 0.384615 -0.384616
v 6.076923 0.384615 0.384615
v 6.076923 -0.384615 -0.384616
v 6.076923 -0.384615 0.384615
v 6.269230 0.384615 0.384615
v 6.269230 0.384615 -0.384616
v 6.269230 -0.384615 0.384615
v 6.269230 -0.384615 -0.384616
v -0.153846 0.384615 0.384615
v 0.038461 0.384615 0.384615
v -0.153846 -0.384615 0.384615
v 0.038461 -0.384615 0.384615
v 0.038461 0.384615 -0.384615
v -0.153846 0.384615 -0.384615
v 0.038461 -0.384615 -0.384615
v -0.153846 -0.384615 -0.384615
v 0.038461 0.384615 -0.384615
v 0.038461 0.384615 0.384615
v -0.153846 0.384615 -0.384615
v -0.153846 0.384615 0.384615
v -0.153846 -0.384615 -0.384615
v -0.153846 -0.384615 0.384615
v 0.038461 -0.384615 -0.384615
v 0.038461 -0.384615 0.384615
v -0.153846 0.384615 -0.384615
v -0.153846 0.384615 0.384615
v -0.153846 -0.384615 -0.384615
v -0.153846 -0.384615 0.384615
v 0.038461 0.384615 0.384615
v 0.038461 0.384615 -0.384615
v 0.038461 -0.384615 0.384615
v 0.038461 -0.384615 -0.384615
vn -0.0000 -0.0000 1.0000
vn -0.0000 -0.0000 -1.0000
vn -0.0000 1.0000 -0.0000
vn -0.0000 -1.0000 -0.0000
vn -1.0000 -0.0000 -0.0000
vn 1.0000 -0.0000 -0.0000
vt 0.000000 1.000000
vt 0.000000 0.875000
vt 0.500000 1.000000
vt 0.500000 0.875000
vt 0.000000 0.750000
vt 0.500000 0.750000
vt 0.093750 0.250000
vt 0.093750 0.750000
vt 0.000000 0.250000
vt 0.218750 0.750000
vt 0.218750 0.250000
vt 0.125000 0.750000
vt 0.125000 0.250000
vt 0.250000 0.625000
vt 0.250000 0.500000
vt 0.343750 0.625000
vt 0.343750 0.500000
vt 0.250000 0.750000
vt 0.343750 0.750000
vt 0.437500 0.687500
vt 0.437500 0.625000
vt 0.468750 0.687500
vt 0.468750 0.625000
vt 0.375000 0.562500
vt 0.375000 0.500000
vt 0.406250 0.562500
vt 0.406250 0.500000
vt 0.500000 0.593750
vt 0.500000 0.625000
vt 0.437500 0.593750
vt 0.500000 0.562500
vt 0.500000 0.531250
vt 0.437500 0.562500
vt 0.437500 0.531250
vt 0.375000 0.687500
vt 0.375000 0.625000
vt 0.375000 0.750000
vt 0.437500 0.750000
vt 0.500000 0.937500
vt 0.531250 1.000000
vt 0.531250 0.937500
vt 0.531250 0.875000
vt 0.562500 0.843750
vt 0.562500 0.875000
vt 0.500000 0.843750
vt 0.562500 0.812500
vt 0.562500 0.781250
vt 0.500000 0.812500
vt 0.500000 0.781250
vt 0.500000 0.687500
s 0
usemtl Material_0
f 1/1/1 3/2/1 2/3/1
f 3/2/1 4/4/1 2/3/1
f 5/2/2 7/5/2 6/4/2
f 7/5/2 8/6/2 6/4/2
f 9/7/3 11/8/3 10/9/3
f 11/8/3 12/5/3 10/9/3
f 13/10/4 15/11/4 14/12/4
f 15/11/4 16/13/4 14/12/4
f 17/14/5 19/15/5 18/16/5
f 19/15/5 20/17/5 18/16/5
f 21/18/6 23/14/6 22/19/6
f 23/14/6 24/16/6 22/19/6
f 25/20/1 27/21/1 26/22/1
f 27/21/1 28/23/1 26/22/1
f 29/24/2 31/25/2 30/26/2
f 31/25/2 32/27/2 30/26/2
f 33/28/3 35/29/3 34/30/3
f 35/29/3 36/21/3 34/30/3
f 37/31/4 39/32/4 38/33/4
f 39/32/4 40/34/4 38/33/4
f 41/35/5 43/36/5 42/20/5
f 43/36/5 44/21/5 42/20/5
f 45/37/6 47/35/6 46/38/6
f 47/35/6 48/20/6 46/38/6
f 49/3/1 51/39/1 50/40/1
f 51/39/1 52/41/1 50/40/1
f 53/39/2 55/4/2 54/41/2
f 55/4/2 56/42/2 54/41/2
f 57/43/3 59/44/3 58/45/3
f 59/44/3 60/4/3 58/45/3
f 61/46/4 63/47/4 62/48/4
f 63/47/4 64/49/4 62/48/4
f 65/38/5 67/20/5 66/6/5
f 67/20/5 68/50/5 66/6/5
f 69/36/6 71/24/6 70/21/6
f 71/24/6 72/33/6 70/21/6
