# Blender 4.5.4 LTS
# www.blender.org
mtllib lev.m4sopmodstock.mtl
o attachmentModel
v -0.000000 0.543928 0.769231
v -0.000000 0.543928 0.000000
v 0.543928 0.000000 0.769231
v 0.543928 0.000000 0.000000
v -0.543928 -0.000000 0.000000
v -0.543928 -0.000000 0.769231
v 0.000000 -0.543928 0.000000
v 0.000000 -0.543928 0.769231
v -0.543928 -0.000000 0.000000
v -0.000000 0.543928 0.000000
v -0.543928 -0.000000 0.769231
v -0.000000 0.543928 0.769231
v 0.000000 -0.543928 0.769231
v 0.543928 0.000000 0.769231
v 0.000000 -0.543928 0.000000
v 0.543928 0.000000 0.000000
v -0.543928 -0.000000 0.769231
v -0.000000 0.543928 0.769231
v 0.000000 -0.543928 0.769231
v 0.543928 0.000000 0.769231
v -0.000000 0.543928 0.000000
v -0.543928 -0.000000 0.000000
v 0.543928 0.000000 0.000000
v 0.000000 -0.543928 0.000000
v 0.576923 0.576923 5.384615
v 0.576923 0.576923 0.769231
v 0.576923 -0.576923 5.384615
v 0.576923 -0.576923 0.769231
v -0.576923 0.576923 0.769231
v -0.576923 0.576923 5.384615
v -0.576923 -0.576923 0.769231
v -0.576923 -0.576923 5.384615
v -0.576923 0.576923 0.769231
v 0.576923 0.576923 0.769231
v -0.576923 0.576923 5.384615
v 0.576923 0.576923 5.384615
v -0.576923 -0.576923 5.384615
v 0.576923 -0.576923 5.384615
v -0.576923 -0.576923 0.769231
v 0.576923 -0.576923 0.769231
v -0.576923 0.576923 5.384615
v 0.576923 0.576923 5.384615
v -0.576923 -0.576923 5.384615
v 0.576923 -0.576923 5.384615
v 0.576923 0.576923 0.769231
v -0.576923 0.576923 0.769231
v 0.576923 -0.576923 0.769231
v -0.576923 -0.576923 0.769231
v 0.769231 0.192308 5.000000
v 0.769231 0.192308 1.153846
v 0.769231 -0.961538 5.000000
v 0.769231 -0.961538 1.153846
v -0.769231 0.192308 1.153846
v -0.769231 0.192308 5.000000
v -0.769231 -0.961538 1.153846
v -0.769231 -0.961538 5.000000
v -0.769231 0.192308 1.153846
v 0.769231 0.192308 1.153846
v -0.769231 0.192308 5.000000
v 0.769231 0.192308 5.000000
v -0.769231 -0.961538 5.000000
v 0.769231 -0.961538 5.000000
v -0.769231 -0.961538 1.153846
v 0.769231 -0.961538 1.153846
v -0.769231 0.192308 5.000000
v 0.769231 0.192308 5.000000
v -0.769231 -0.961538 5.000000
v 0.769231 -0.961538 5.000000
v 0.769231 0.192308 1.153846
v -0.769231 0.192308 1.153846
v 0.769231 -0.961538 1.153846
v -0.769231 -0.961538 1.153846
v 0.192308 -0.576923 1.923077
v 0.192308 -0.576923 1.538462
v 0.192308 -2.115385 1.923077
v 0.192308 -2.115385 1.538462
v -0.192308 -0.576923 1.538462
v -0.192308 -0.576923 1.923077
v -0.192308 -2.115385 1.538462
v -0.192308 -2.115385 1.923077
v -0.192308 -0.576923 1.538462
v 0.192308 -0.576923 1.538462
v -0.192308 -0.576923 1.923077
v 0.192308 -0.576923 1.923077
v -0.192308 -2.115385 1.923077
v 0.192308 -2.115385 1.923077
v -0.192308 -2.115385 1.538462
v 0.192308 -2.115385 1.538462
v -0.192308 -0.576923 1.923077
v 0.192308 -0.576923 1.923077
v -0.192308 -2.115385 1.923077
v 0.192308 -2.115385 1.923077
v 0.192308 -0.576923 1.538462
v -0.192308 -0.576923 1.538462
v 0.192308 -2.115385 1.538462
v -0.192308 -2.115385 1.538462
v 0.384615 -0.961538 2.692308
v 0.384615 -0.961538 1.153846
v 0.384615 -1.730769 2.692308
v 0.384615 -1.730769 1.153846
v -0.384615 -0.961538 1.153846
v -0.384615 -0.961538 2.692308
v -0.384615 -1.730769 1.153846
v -0.384615 -1.730769 2.692308
v -0.384615 -0.961538 1.153846
v 0.384615 -0.961538 1.153846
v -0.384615 -0.961538 2.692308
v 0.384615 -0.961538 2.692308
v -0.384615 -1.730769 2.692308
v 0.384615 -1.730769 2.692308
v -0.384615 -1.730769 1.153846
v 0.384615 -1.730769 1.153846
v -0.384615 -0.961538 2.692308
v 0.384615 -0.961538 2.692308
v -0.384615 -1.730769 2.692308
v 0.384615 -1.730769 2.692308
v 0.384615 -0.961538 1.153846
v -0.384615 -0.961538 1.153846
v 0.384615 -1.730769 1.153846
v -0.384615 -1.730769 1.153846
v 0.000769 -0.576923 5.000000
v 0.000769 -0.576923 1.153846
v 0.000769 -2.500000 5.000000
v 0.000769 -2.500000 1.153846
v -0.000000 -0.576923 1.153846
v -0.000000 -0.576923 5.000000
v 0.000000 -2.500000 1.153846
v 0.000000 -2.500000 5.000000
v -0.000000 -0.576923 1.153846
v 0.000769 -0.576923 1.153846
v -0.000000 -0.576923 5.000000
v 0.000769 -0.576923 5.000000
v 0.000000 -2.500000 5.000000
v 0.000769 -2.500000 5.000000
v 0.000000 -2.500000 1.153846
v 0.000769 -2.500000 1.153846
v -0.000000 -0.576923 5.000000
v 0.000769 -0.576923 5.000000
v 0.000000 -2.500000 5.000000
v 0.000769 -2.500000 5.000000
v 0.000769 -0.576923 1.153846
v -0.000000 -0.576923 1.153846
v 0.000769 -2.500000 1.153846
v 0.000000 -2.500000 1.153846
v 0.383846 -1.550284 4.113657
v 0.383846 -0.961540 2.692305
v 0.383846 -2.260960 3.819286
v 0.383846 -1.672216 2.397933
v -0.383846 -0.961540 2.692305
v -0.383846 -1.550284 4.113657
v -0.383846 -1.672216 2.397933
v -0.383846 -2.260960 3.819286
v -0.383846 -0.961540 2.692305
v 0.383846 -0.961540 2.692305
v -0.383846 -1.550284 4.113657
v 0.383846 -1.550284 4.113657
v -0.383846 -2.260960 3.819286
v 0.383846 -2.260960 3.819286
v -0.383846 -1.672216 2.397933
v 0.383846 -1.672216 2.397933
v -0.383846 -1.550284 4.113657
v 0.383846 -1.550284 4.113657
v -0.383846 -2.260960 3.819286
v 0.383846 -2.260960 3.819286
v 0.383846 -0.961540 2.692305
v -0.383846 -0.961540 2.692305
v 0.383846 -1.672216 2.397933
v -0.383846 -1.672216 2.397933
v 0.384615 -0.576923 5.384615
v 0.384615 -0.576923 5.000000
v 0.384615 -2.884616 5.384615
v 0.384615 -2.884616 5.000000
v -0.384615 -0.576923 5.000000
v -0.384615 -0.576923 5.384615
v -0.384615 -2.884616 5.000000
v -0.384615 -2.884616 5.384615
v -0.384615 -0.576923 5.000000
v 0.384615 -0.576923 5.000000
v -0.384615 -0.576923 5.384615
v 0.384615 -0.576923 5.384615
v -0.384615 -2.884616 5.384615
v 0.384615 -2.884616 5.384615
v -0.384615 -2.884616 5.000000
v 0.384615 -2.884616 5.000000
v -0.384615 -0.576923 5.384615
v 0.384615 -0.576923 5.384615
v -0.384615 -2.884616 5.384615
v 0.384615 -2.884616 5.384615
v 0.384615 -0.576923 5.000000
v -0.384615 -0.576923 5.000000
v 0.384615 -2.884616 5.000000
v -0.384615 -2.884616 5.000000
vn 0.7071 0.7071 -0.0000
vn -0.7071 -0.7071 -0.0000
vn -0.7071 0.7071 -0.0000
vn 0.7071 -0.7071 -0.0000
vn -0.0000 -0.0000 1.0000
vn -0.0000 -0.0000 -1.0000
vn 1.0000 -0.0000 -0.0000
vn -1.0000 -0.0000 -0.0000
vn -0.0000 1.0000 -0.0000
vn -0.0000 -1.0000 -0.0000
vn 0.0002 -1.0000 -0.0000
vn -0.0001 -1.0000 -0.0000
vn -0.0005 0.0005 1.0000
vn -0.0001 0.0001 -1.0000
vn 0.0001 -0.0001 -1.0000
vn -0.0000 0.9239 0.3827
vn -0.0000 -0.9239 -0.3827
vn -0.0000 -0.3827 0.9239
vn -0.0000 0.3827 -0.9239
vt 0.750000 0.312500
vt 0.750000 0.250000
vt 0.812500 0.312500
vt 0.812500 0.250000
vt 0.000000 0.187500
vt 0.000000 0.125000
vt 0.062500 0.187500
vt 0.062500 0.125000
vt 0.875000 0.937500
vt 0.875000 1.000000
vt 0.812500 0.937500
vt 0.812500 1.000000
vt 0.125000 0.187500
vt 0.125000 0.125000
vt 0.750000 0.187500
vt 0.812500 0.187500
vt 0.687500 0.250000
vt 0.687500 0.187500
vt 0.437500 1.000000
vt 0.437500 0.906250
vt 0.812500 0.906250
vt 0.437500 0.875000
vt 0.437500 0.781250
vt 0.812500 0.875000
vt 0.812500 0.781250
vt 0.093750 0.250000
vt 0.093750 0.625000
vt 0.000000 0.250000
vt 0.000000 0.625000
vt 0.218750 0.625000
vt 0.218750 0.250000
vt 0.125000 0.625000
vt 0.125000 0.250000
vt 0.437500 0.375000
vt 0.437500 0.281250
vt 0.531250 0.375000
vt 0.531250 0.281250
vt 0.312500 0.375000
vt 0.312500 0.281250
vt 0.406250 0.375000
vt 0.406250 0.281250
vt 0.437500 0.750000
vt 0.437500 0.656250
vt 0.750000 0.750000
vt 0.750000 0.656250
vt 0.437500 0.625000
vt 0.437500 0.531250
vt 0.750000 0.625000
vt 0.750000 0.531250
vt 0.437500 0.687500
vt 0.312500 0.687500
vt 0.312500 1.000000
vt 0.562500 0.500000
vt 0.562500 0.406250
vt 0.687500 0.500000
vt 0.687500 0.406250
vt 0.437500 0.500000
vt 0.437500 0.406250
vt 0.375000 0.250000
vt 0.375000 0.125000
vt 0.406250 0.250000
vt 0.406250 0.125000
vt 0.500000 0.250000
vt 0.500000 0.125000
vt 0.531250 0.250000
vt 0.531250 0.125000
vt 0.843750 0.781250
vt 0.843750 0.812500
vt 0.812500 0.812500
vt 0.843750 0.750000
vt 0.843750 0.718750
vt 0.812500 0.750000
vt 0.812500 0.718750
vt 0.437500 0.250000
vt 0.437500 0.125000
vt 0.468750 0.250000
vt 0.468750 0.125000
vt 0.312500 0.250000
vt 0.312500 0.125000
vt 0.343750 0.250000
vt 0.343750 0.125000
vt 0.562500 0.375000
vt 0.562500 0.312500
vt 0.687500 0.375000
vt 0.687500 0.312500
vt 0.687500 0.437500
vt 0.812500 0.500000
vt 0.812500 0.437500
vt 0.625000 0.187500
vt 0.625000 0.312500
vt 0.562500 0.187500
vt 0.750000 0.437500
vt 0.750000 0.375000
vt 0.812500 0.375000
vt 0.750000 0.562500
vt 0.750000 0.500000
vt 0.812500 0.562500
vt 0.000000 1.000000
vt 0.000000 0.843750
vt 0.312500 0.843750
vt 0.000000 0.812500
vt 0.000000 0.656250
vt 0.312500 0.812500
vt 0.312500 0.656250
vt 0.000000 0.687500
vt 0.625000 0.250000
vt 0.187500 0.125000
vt 0.187500 0.250000
vt 0.250000 0.250000
vt 0.250000 0.125000
vt 0.250000 0.062500
vt 0.281250 0.250000
vt 0.281250 0.062500
vt 0.781250 0.750000
vt 0.781250 0.562500
vt 0.875000 0.906250
vt 0.875000 0.875000
vt 0.875000 0.843750
vt 0.812500 0.843750
vt 0.250000 0.437500
vt 0.312500 0.437500
vt 0.250000 0.625000
vt 0.312500 0.625000
s 0
usemtl Material_0.001
f 1/1/1 3/2/1 2/3/1
f 3/2/1 4/4/1 2/3/1
f 5/5/2 7/6/2 6/7/2
f 7/6/2 8/8/2 6/7/2
f 9/9/3 11/10/3 10/11/3
f 11/10/3 12/12/3 10/11/3
f 13/13/4 15/14/4 14/7/4
f 15/14/4 16/8/4 14/7/4
f 17/2/5 19/15/5 18/4/5
f 19/15/5 20/16/5 18/4/5
f 21/17/6 23/18/6 22/2/6
f 23/18/6 24/15/6 22/2/6
f 25/19/7 27/20/7 26/12/7
f 27/20/7 28/21/7 26/12/7
f 29/22/8 31/23/8 30/24/8
f 31/23/8 32/25/8 30/24/8
f 33/26/9 35/27/9 34/28/9
f 35/27/9 36/29/9 34/28/9
f 37/30/10 39/31/10 38/32/10
f 39/31/10 40/33/10 38/32/10
f 41/34/5 43/35/5 42/36/5
f 43/35/5 44/37/5 42/36/5
f 45/38/6 47/39/6 46/40/6
f 47/39/6 48/41/6 46/40/6
f 49/42/7 51/43/7 50/44/7
f 51/43/7 52/45/7 50/44/7
f 53/46/8 55/47/8 54/48/8
f 55/47/8 56/49/8 54/48/8
f 57/50/9 59/19/9 58/51/9
f 59/19/9 60/52/9 58/51/9
f 61/50/10 63/34/10 62/51/10
f 63/34/10 64/38/10 62/51/10
f 65/53/5 67/54/5 66/55/5
f 67/54/5 68/56/5 66/55/5
f 69/57/6 71/58/6 70/53/6
f 71/58/6 72/54/6 70/53/6
f 73/59/7 75/60/7 74/61/7
f 75/60/7 76/62/7 74/61/7
f 77/63/8 79/64/8 78/65/8
f 79/64/8 80/66/8 78/65/8
f 81/67/9 83/68/9 82/25/9
f 83/68/9 84/69/9 82/25/9
f 85/70/10 87/71/10 86/72/10
f 87/71/10 88/73/10 86/72/10
f 89/74/5 91/75/5 90/76/5
f 91/75/5 92/77/5 90/76/5
f 93/78/6 95/79/6 94/80/6
f 95/79/6 96/81/6 94/80/6
f 97/82/7 99/83/7 98/84/7
f 99/83/7 100/85/7 98/84/7
f 101/55/8 103/86/8 102/87/8
f 103/86/8 104/88/8 102/87/8
f 105/89/9 107/90/9 106/91/9
f 107/90/9 108/83/9 106/91/9
f 109/92/10 111/1/10 110/86/10
f 111/1/10 112/85/10 110/86/10
f 113/92/5 115/93/5 114/88/5
f 115/93/5 116/94/5 114/88/5
f 117/95/6 119/96/6 118/97/6
f 119/96/6 120/87/6 118/97/6
f 121/98/7 123/99/7 122/52/7
f 123/99/7 124/100/7 122/52/7
f 125/101/8 127/102/8 126/103/8
f 127/102/8 128/104/8 126/103/8
f 129/105/9 131/98/9 130/105/9
f 131/98/9 132/98/9 130/105/9
f 133/98/11 135/105/11 134/98/11
f 135/105/12 136/105/12 134/98/12
f 137/98/13 139/99/13 138/98/13
f 139/99/5 140/99/5 138/98/5
f 141/98/14 143/99/14 142/98/14
f 143/99/15 144/99/15 142/98/15
f 145/90/7 147/106/7 146/1/7
f 147/106/7 148/2/7 146/1/7
f 149/28/8 151/5/8 150/33/8
f 151/5/8 152/13/8 150/33/8
f 153/107/16 155/108/16 154/14/16
f 155/108/16 156/33/16 154/14/16
f 157/109/17 159/110/17 158/108/17
f 159/110/17 160/107/17 158/108/17
f 161/93/18 163/1/18 162/94/18
f 163/1/18 164/3/18 162/94/18
f 165/106/19 167/89/19 166/17/19
f 167/89/19 168/18/19 166/17/19
f 169/109/7 171/111/7 170/112/7
f 171/111/7 172/113/7 170/112/7
f 173/44/8 175/95/8 174/114/8
f 175/95/8 176/115/8 174/114/8
f 177/116/9 179/9/9 178/21/9
f 179/9/9 180/11/9 178/21/9
f 181/117/10 183/118/10 182/24/10
f 183/118/10 184/119/10 182/24/10
f 185/120/5 187/109/5 186/121/5
f 187/109/5 188/78/5 186/121/5
f 189/122/6 191/120/6 190/123/6
f 191/120/6 192/121/6 190/123/6
