# Blender 4.2.3 LTS
# www.blender.org
mtllib lev.bulletecst.mtl
o attachmentModel
v 0.000000 0.384615 0.384615
v 1.538462 0.384615 0.384615
v 0.000000 -0.384615 0.384615
v 1.538462 -0.384615 0.384615
v 1.538461 0.384615 -0.384616
v -0.000000 0.384615 -0.384615
v 1.538461 -0.384615 -0.384616
v -0.000000 -0.384615 -0.384615
v 1.538461 0.384615 -0.384616
v 1.538462 0.384615 0.384615
v -0.000000 0.384615 -0.384615
v 0.000000 0.384615 0.384615
v -0.000000 -0.384615 -0.384615
v 0.000000 -0.384615 0.384615
v 1.538461 -0.384615 -0.384616
v 1.538462 -0.384615 0.384615
v -0.000000 0.384615 -0.384615
v 0.000000 0.384615 0.384615
v -0.000000 -0.384615 -0.384615
v 0.000000 -0.384615 0.384615
v 1.538462 0.384615 0.384615
v 1.538461 0.384615 -0.384616
v 1.538462 -0.384615 0.384615
v 1.538461 -0.384615 -0.384616
v 0.000000 -0.383846 0.384615
v 2.307692 -0.383846 0.384615
v 0.000000 -0.384615 0.384615
v 2.307692 -0.384615 0.384615
v 2.307692 -0.383846 -0.384616
v -0.000000 -0.383846 -0.384615
v 2.307692 -0.384615 -0.384616
v -0.000000 -0.384615 -0.384615
v 2.307692 -0.383846 -0.384616
v 2.307692 -0.383846 0.384615
v -0.000000 -0.383846 -0.384615
v 0.000000 -0.383846 0.384615
v -0.000000 -0.384615 -0.384615
v 0.000000 -0.384615 0.384615
v 2.307692 -0.384615 -0.384616
v 2.307692 -0.384615 0.384615
v -0.000000 -0.383846 -0.384615
v 0.000000 -0.383846 0.384615
v -0.000000 -0.384615 -0.384615
v 0.000000 -0.384615 0.384615
v 2.307692 -0.383846 0.384615
v 2.307692 -0.383846 -0.384616
v 2.307692 -0.384615 0.384615
v 2.307692 -0.384615 -0.384616
v 0.000000 0.385385 0.384615
v 2.307692 0.385385 0.384615
v 0.000000 0.384615 0.384615
v 2.307692 0.384615 0.384615
v 2.307692 0.385385 -0.384616
v -0.000000 0.385385 -0.384615
v 2.307692 0.384615 -0.384616
v -0.000000 0.384615 -0.384615
v 2.307692 0.385385 -0.384616
v 2.307692 0.385385 0.384615
v -0.000000 0.385385 -0.384615
v 0.000000 0.385385 0.384615
v -0.000000 0.384615 -0.384615
v 0.000000 0.384615 0.384615
v 2.307692 0.384615 -0.384616
v 2.307692 0.384615 0.384615
v -0.000000 0.385385 -0.384615
v 0.000000 0.385385 0.384615
v -0.000000 0.384615 -0.384615
v 0.000000 0.384615 0.384615
v 2.307692 0.385385 0.384615
v 2.307692 0.385385 -0.384616
v 2.307692 0.384615 0.384615
v 2.307692 0.384615 -0.384616
v 0.000000 0.384615 0.385385
v 2.307692 0.384615 0.385384
v 0.000000 -0.384615 0.385385
v 2.307692 -0.384615 0.385384
v 2.307692 0.384615 0.384615
v 0.000000 0.384615 0.384615
v 2.307692 -0.384615 0.384615
v 0.000000 -0.384615 0.384615
v 2.307692 0.384615 0.384615
v 2.307692 0.384615 0.385384
v 0.000000 0.384615 0.384615
v 0.000000 0.384615 0.385385
v 0.000000 -0.384615 0.384615
v 0.000000 -0.384615 0.385385
v 2.307692 -0.384615 0.384615
v 2.307692 -0.384615 0.385384
v 0.000000 0.384615 0.384615
v 0.000000 0.384615 0.385385
v 0.000000 -0.384615 0.384615
v 0.000000 -0.384615 0.385385
v 2.307692 0.384615 0.385384
v 2.307692 0.384615 0.384615
v 2.307692 -0.384615 0.385384
v 2.307692 -0.384615 0.384615
v -0.000000 0.384615 -0.383846
v 2.307692 0.384615 -0.383847
v -0.000000 -0.384615 -0.383846
v 2.307692 -0.384615 -0.383847
v 2.307692 0.384615 -0.384616
v -0.000000 0.384615 -0.384615
v 2.307692 -0.384615 -0.384616
v -0.000000 -0.384615 -0.384615
v 2.307692 0.384615 -0.384616
v 2.307692 0.384615 -0.383847
v -0.000000 0.384615 -0.384615
v -0.000000 0.384615 -0.383846
v -0.000000 -0.384615 -0.384615
v -0.000000 -0.384615 -0.383846
v 2.307692 -0.384615 -0.384616
v 2.307692 -0.384615 -0.383847
v -0.000000 0.384615 -0.384615
v -0.000000 0.384615 -0.383846
v -0.000000 -0.384615 -0.384615
v -0.000000 -0.384615 -0.383846
v 2.307692 0.384615 -0.383847
v 2.307692 0.384615 -0.384616
v 2.307692 -0.384615 -0.383847
v 2.307692 -0.384615 -0.384616
v 1.922308 0.384615 0.384615
v 1.923077 0.384615 0.384615
v 1.922308 -0.384615 0.384615
v 1.923077 -0.384615 0.384615
v 1.923077 0.384615 -0.384616
v 1.922307 0.384615 -0.384616
v 1.923077 -0.384615 -0.384616
v 1.922307 -0.384615 -0.384616
v 1.923077 0.384615 -0.384616
v 1.923077 0.384615 0.384615
v 1.922307 0.384615 -0.384616
v 1.922308 0.384615 0.384615
v 1.922307 -0.384615 -0.384616
v 1.922308 -0.384615 0.384615
v 1.923077 -0.384615 -0.384616
v 1.923077 -0.384615 0.384615
v 1.922307 0.384615 -0.384616
v 1.922308 0.384615 0.384615
v 1.922307 -0.384615 -0.384616
v 1.922308 -0.384615 0.384615
v 1.923077 0.384615 0.384615
v 1.923077 0.384615 -0.384616
v 1.923077 -0.384615 0.384615
v 1.923077 -0.384615 -0.384616
v 2.306923 0.384615 0.384615
v 2.307692 0.384615 0.384615
v 2.306923 -0.384615 0.384615
v 2.307692 -0.384615 0.384615
v 2.307692 0.384615 -0.384616
v 2.306923 0.384615 -0.384616
v 2.307692 -0.384615 -0.384616
v 2.306923 -0.384615 -0.384616
v 2.307692 0.384615 -0.384616
v 2.307692 0.384615 0.384615
v 2.306923 0.384615 -0.384616
v 2.306923 0.384615 0.384615
v 2.306923 -0.384615 -0.384616
v 2.306923 -0.384615 0.384615
v 2.307692 -0.384615 -0.384616
v 2.307692 -0.384615 0.384615
v 2.306923 0.384615 -0.384616
v 2.306923 0.384615 0.384615
v 2.306923 -0.384615 -0.384616
v 2.306923 -0.384615 0.384615
v 2.307692 0.384615 0.384615
v 2.307692 0.384615 -0.384616
v 2.307692 -0.384615 0.384615
v 2.307692 -0.384615 -0.384616
vn -0.0000 -0.0000 1.0000
vn -0.0000 -0.0000 -1.0000
vn -0.0000 1.0000 -0.0000
vn -0.0000 -1.0000 -0.0000
vn -1.0000 -0.0000 -0.0000
vn 1.0000 -0.0000 -0.0000
vt 0.250000 0.375000
vt 0.250000 0.250000
vt 0.312500 0.375000
vt 0.312500 0.250000
vt 0.375000 0.375000
vt 0.375000 0.250000
vt 0.437500 0.375000
vt 0.437500 0.250000
vt 0.750000 0.562500
vt 0.750000 0.625000
vt 0.625000 0.562500
vt 0.625000 0.625000
vt 0.625000 0.375000
vt 0.625000 0.312500
vt 0.500000 0.375000
vt 0.500000 0.312500
vt 0.125000 0.375000
vt 0.125000 0.250000
vt 0.500000 0.500000
vt 0.625000 0.500000
vt 0.000000 1.000000
vt 0.375000 1.000000
vt 0.125000 0.625000
vt 0.125000 1.000000
vt 0.000000 0.625000
vt 0.250000 1.000000
vt 0.250000 0.625000
vt 0.375000 0.625000
vt 0.000000 0.250000
vt 0.375000 0.875000
vt 0.750000 1.000000
vt 0.750000 0.875000
vt 0.125000 0.500000
vt 0.500000 0.625000
vt 0.000000 0.875000
vt 0.375000 0.750000
vt 0.750000 0.750000
vt 0.250000 0.500000
vt 0.375000 0.500000
s 0
usemtl Material_0
f 1/1/1 3/2/1 2/3/1
f 3/2/1 4/4/1 2/3/1
f 5/5/2 7/6/2 6/7/2
f 7/6/2 8/8/2 6/7/2
f 9/9/3 11/10/3 10/11/3
f 11/10/3 12/12/3 10/11/3
f 13/13/4 15/14/4 14/15/4
f 15/14/4 16/16/4 14/15/4
f 17/17/5 19/18/5 18/1/5
f 19/18/5 20/2/5 18/1/5
f 21/19/6 23/15/6 22/20/6
f 23/15/6 24/13/6 22/20/6
f 25/21/1 27/21/1 26/22/1
f 27/21/1 28/22/1 26/22/1
f 29/21/2 31/21/2 30/22/2
f 31/21/2 32/22/2 30/22/2
f 33/23/3 35/24/3 34/25/3
f 35/24/3 36/21/3 34/25/3
f 37/26/4 39/27/4 38/24/4
f 39/27/4 40/23/4 38/24/4
f 41/21/5 43/21/5 42/24/5
f 43/21/5 44/24/5 42/24/5
f 45/21/6 47/21/6 46/24/6
f 47/21/6 48/24/6 46/24/6
f 49/21/1 51/21/1 50/22/1
f 51/21/1 52/22/1 50/22/1
f 53/21/2 55/21/2 54/22/2
f 55/21/2 56/22/2 54/22/2
f 57/28/3 59/22/3 58/27/3
f 59/22/3 60/26/3 58/27/3
f 61/23/4 63/18/4 62/25/4
f 63/18/4 64/29/4 62/25/4
f 65/21/5 67/21/5 66/24/5
f 67/21/5 68/24/5 66/24/5
f 69/21/6 71/21/6 70/24/6
f 71/21/6 72/24/6 70/24/6
f 73/22/1 75/30/1 74/31/1
f 75/30/1 76/32/1 74/31/1
f 77/23/2 79/33/2 78/34/2
f 79/33/2 80/19/2 78/34/2
f 81/25/3 83/21/3 82/25/3
f 83/21/3 84/21/3 82/25/3
f 85/21/4 87/25/4 86/21/4
f 87/25/4 88/25/4 86/21/4
f 89/21/5 91/35/5 90/21/5
f 91/35/5 92/35/5 90/21/5
f 93/21/6 95/35/6 94/21/6
f 95/35/6 96/35/6 94/21/6
f 97/30/1 99/36/1 98/32/1
f 99/36/1 100/37/1 98/32/1
f 101/36/2 103/28/2 102/37/2
f 103/28/2 104/10/2 102/37/2
f 105/25/3 107/21/3 106/25/3
f 107/21/3 108/21/3 106/25/3
f 109/21/4 111/25/4 110/21/4
f 111/25/4 112/25/4 110/21/4
f 113/21/5 115/35/5 114/21/5
f 115/35/5 116/35/5 114/21/5
f 117/21/6 119/35/6 118/21/6
f 119/35/6 120/35/6 118/21/6
f 121/21/1 123/35/1 122/21/1
f 123/35/1 124/35/1 122/21/1
f 125/21/2 127/35/2 126/21/2
f 127/35/2 128/35/2 126/21/2
f 129/24/3 131/24/3 130/21/3
f 131/24/3 132/21/3 130/21/3
f 133/24/4 135/24/4 134/21/4
f 135/24/4 136/21/4 134/21/4
f 137/38/5 139/1/5 138/33/5
f 139/1/5 140/17/5 138/33/5
f 141/33/6 143/17/6 142/38/6
f 143/17/6 144/1/6 142/38/6
f 145/21/1 147/35/1 146/21/1
f 147/35/1 148/35/1 146/21/1
f 149/21/2 151/35/2 150/21/2
f 151/35/2 152/35/2 150/21/2
f 153/24/3 155/24/3 154/21/3
f 155/24/3 156/21/3 154/21/3
f 157/24/4 159/24/4 158/21/4
f 159/24/4 160/21/4 158/21/4
f 161/38/5 163/1/5 162/33/5
f 163/1/5 164/17/5 162/33/5
f 165/38/6 167/1/6 166/39/6
f 167/1/6 168/5/6 166/39/6
