# Blender 4.4.0
# www.blender.org
mtllib lev.barska.mtl
o attachmentModel
v -0.769231 0.384615 0.576923
v 0.769231 0.384615 0.576923
v -0.769231 0.000000 0.576923
v 0.769231 0.000000 0.576923
v 0.769231 0.384615 -0.576923
v -0.769231 0.384615 -0.576923
v 0.769231 0.000000 -0.576923
v -0.769231 0.000000 -0.576923
v 0.769231 0.384615 -0.576923
v 0.769231 0.384615 0.576923
v -0.769231 0.384615 -0.576923
v -0.769231 0.384615 0.576923
v -0.769231 0.000000 -0.576923
v -0.769231 0.000000 0.576923
v 0.769231 0.000000 -0.576923
v 0.769231 0.000000 0.576923
v -0.769231 0.384615 -0.576923
v -0.769231 0.384615 0.576923
v -0.769231 0.000000 -0.576923
v -0.769231 0.000000 0.576923
v 0.769231 0.384615 0.576923
v 0.769231 0.384615 -0.576923
v 0.769231 0.000000 0.576923
v 0.769231 0.000000 -0.576923
v -1.538461 0.769231 0.576923
v 0.769231 0.769231 0.576923
v -1.538461 0.384615 0.576923
v 0.769231 0.384615 0.576923
v 0.769231 0.769231 -0.576923
v -1.538462 0.769231 -0.576923
v 0.769231 0.384615 -0.576923
v -1.538462 0.384615 -0.576923
v 0.769231 0.769231 -0.576923
v 0.769231 0.769231 0.576923
v -1.538462 0.769231 -0.576923
v -1.538461 0.769231 0.576923
v -1.538462 0.384615 -0.576923
v -1.538461 0.384615 0.576923
v 0.769231 0.384615 -0.576923
v 0.769231 0.384615 0.576923
v -1.538462 0.769231 -0.576923
v -1.538461 0.769231 0.576923
v -1.538462 0.384615 -0.576923
v -1.538461 0.384615 0.576923
v 0.769231 0.769231 0.576923
v 0.769231 0.769231 -0.576923
v 0.769231 0.384615 0.576923
v 0.769231 0.384615 -0.576923
v 0.384616 0.770000 0.769231
v 0.769231 0.770000 0.769231
v 0.384616 0.769231 0.769231
v 0.769231 0.769231 0.769231
v 0.769231 0.770000 -0.769231
v 0.384615 0.770000 -0.769231
v 0.769231 0.769231 -0.769231
v 0.384615 0.769231 -0.769231
v 0.769231 0.770000 -0.769231
v 0.769231 0.770000 0.769231
v 0.384615 0.770000 -0.769231
v 0.384616 0.770000 0.769231
v 0.384615 0.769231 -0.769231
v 0.384616 0.769231 0.769231
v 0.769231 0.769231 -0.769231
v 0.769231 0.769231 0.769231
v 0.384615 0.770000 -0.769231
v 0.384616 0.770000 0.769231
v 0.384615 0.769231 -0.769231
v 0.384616 0.769231 0.769231
v 0.769231 0.770000 0.769231
v 0.769231 0.770000 -0.769231
v 0.769231 0.769231 0.769231
v 0.769231 0.769231 -0.769231
v 0.384616 1.923077 0.770000
v 0.769231 1.923077 0.770000
v 0.384616 0.769231 0.770000
v 0.769231 0.769231 0.770000
v 0.769231 1.923077 0.769231
v 0.384616 1.923077 0.769231
v 0.769231 0.769231 0.769231
v 0.384616 0.769231 0.769231
v 0.769231 1.923077 0.769231
v 0.769231 1.923077 0.770000
v 0.384616 1.923077 0.769231
v 0.384616 1.923077 0.770000
v 0.384616 0.769231 0.769231
v 0.384616 0.769231 0.770000
v 0.769231 0.769231 0.769231
v 0.769231 0.769231 0.770000
v 0.384616 1.923077 0.769231
v 0.384616 1.923077 0.770000
v 0.384616 0.769231 0.769231
v 0.384616 0.769231 0.770000
v 0.769231 1.923077 0.770000
v 0.769231 1.923077 0.769231
v 0.769231 0.769231 0.770000
v 0.769231 0.769231 0.769231
v 0.384615 1.923077 -0.768462
v 0.769231 1.923077 -0.768462
v 0.384615 0.769231 -0.768462
v 0.769231 0.769231 -0.768462
v 0.769231 1.923077 -0.769231
v 0.384615 1.923077 -0.769231
v 0.769231 0.769231 -0.769231
v 0.384615 0.769231 -0.769231
v 0.769231 1.923077 -0.769231
v 0.769231 1.923077 -0.768462
v 0.384615 1.923077 -0.769231
v 0.384615 1.923077 -0.768462
v 0.384615 0.769231 -0.769231
v 0.384615 0.769231 -0.768462
v 0.769231 0.769231 -0.769231
v 0.769231 0.769231 -0.768462
v 0.384615 1.923077 -0.769231
v 0.384615 1.923077 -0.768462
v 0.384615 0.769231 -0.769231
v 0.384615 0.769231 -0.768462
v 0.769231 1.923077 -0.768462
v 0.769231 1.923077 -0.769231
v 0.769231 0.769231 -0.768462
v 0.769231 0.769231 -0.769231
v 0.384616 1.923846 0.769231
v 0.769231 1.923846 0.769231
v 0.384616 1.923077 0.769231
v 0.769231 1.923077 0.769231
v 0.769231 1.923846 -0.769231
v 0.384615 1.923846 -0.769231
v 0.769231 1.923077 -0.769231
v 0.384615 1.923077 -0.769231
v 0.769231 1.923846 -0.769231
v 0.769231 1.923846 0.769231
v 0.384615 1.923846 -0.769231
v 0.384616 1.923846 0.769231
v 0.384615 1.923077 -0.769231
v 0.384616 1.923077 0.769231
v 0.769231 1.923077 -0.769231
v 0.769231 1.923077 0.769231
v 0.384615 1.923846 -0.769231
v 0.384616 1.923846 0.769231
v 0.384615 1.923077 -0.769231
v 0.384616 1.923077 0.769231
v 0.769231 1.923846 0.769231
v 0.769231 1.923846 -0.769231
v 0.769231 1.923077 0.769231
v 0.769231 1.923077 -0.769231
v -1.730769 0.961538 0.384616
v -0.576923 0.961538 0.384615
v -1.730769 0.576923 0.384616
v -0.576923 0.576923 0.384615
v -0.576923 0.961538 -0.384615
v -1.730769 0.961538 -0.384615
v -0.576923 0.576923 -0.384615
v -1.730769 0.576923 -0.384615
v -0.576923 0.961538 -0.384615
v -0.576923 0.961538 0.384615
v -1.730769 0.961538 -0.384615
v -1.730769 0.961538 0.384616
v -1.730769 0.576923 -0.384615
v -1.730769 0.576923 0.384616
v -0.576923 0.576923 -0.384615
v -0.576923 0.576923 0.384615
v -1.730769 0.961538 -0.384615
v -1.730769 0.961538 0.384616
v -1.730769 0.576923 -0.384615
v -1.730769 0.576923 0.384616
v -0.576923 0.961538 0.384615
v -0.576923 0.961538 -0.384615
v -0.576923 0.576923 0.384615
v -0.576923 0.576923 -0.384615
v -0.543928 0.961538 0.000000
v 0.000000 0.961538 0.543928
v -0.543928 0.576923 0.000000
v 0.000000 0.576923 0.543928
v 0.543928 0.961538 -0.000000
v -0.000000 0.961538 -0.543928
v 0.543928 0.576923 -0.000000
v -0.000000 0.576923 -0.543928
v 0.543928 0.961538 -0.000000
v 0.000000 0.961538 0.543928
v -0.000000 0.961538 -0.543928
v -0.543928 0.961538 0.000000
v -0.000000 0.576923 -0.543928
v -0.543928 0.576923 0.000000
v 0.543928 0.576923 -0.000000
v 0.000000 0.576923 0.543928
v -0.000000 0.961538 -0.543928
v -0.543928 0.961538 0.000000
v -0.000000 0.576923 -0.543928
v -0.543928 0.576923 0.000000
v 0.000000 0.961538 0.543928
v 0.543928 0.961538 -0.000000
v 0.000000 0.576923 0.543928
v 0.543928 0.576923 -0.000000
vn -0.0000 -0.0000 1.0000
vn -0.0000 -0.0000 -1.0000
vn -0.0000 1.0000 -0.0000
vn -0.0000 -1.0000 -0.0000
vn -1.0000 -0.0000 -0.0000
vn 1.0000 -0.0000 -0.0000
vn -0.7071 -0.0000 0.7071
vn 0.7071 -0.0000 -0.7071
vn -0.7071 -0.0000 -0.7071
vn 0.7071 -0.0000 0.7071
vt 0.000000 0.687500
vt 0.000000 0.656250
vt 0.125000 0.687500
vt 0.125000 0.656250
vt 0.250000 0.687500
vt 0.250000 0.656250
vt 0.093750 0.687500
vt 0.093750 0.812500
vt 0.000000 0.812500
vt 0.218750 0.812500
vt 0.218750 0.687500
vt 0.125000 0.812500
vt 0.250000 0.625000
vt 0.250000 0.593750
vt 0.343750 0.625000
vt 0.343750 0.593750
vt 0.125000 0.625000
vt 0.125000 0.593750
vt 0.218750 0.625000
vt 0.218750 0.593750
vt 0.250000 1.000000
vt 0.250000 0.968750
vt 0.437500 1.000000
vt 0.437500 0.968750
vt 0.250000 0.937500
vt 0.250000 0.906250
vt 0.437500 0.937500
vt 0.437500 0.906250
vt 0.093750 1.000000
vt 0.000000 1.000000
vt 0.218750 1.000000
vt 0.125000 1.000000
vt 0.000000 0.562500
vt 0.000000 0.531250
vt 0.093750 0.562500
vt 0.093750 0.531250
vt 0.375000 0.625000
vt 0.375000 0.593750
vt 0.468750 0.625000
vt 0.468750 0.593750
vt 0.031250 1.000000
vt 0.437500 0.843750
vt 0.437500 0.875000
vt 0.312500 0.843750
vt 0.312500 0.875000
vt 0.437500 0.812500
vt 0.437500 0.781250
vt 0.312500 0.812500
vt 0.312500 0.781250
vt 0.468750 1.000000
vt 0.468750 0.906250
vt 0.125000 0.562500
vt 0.125000 0.468750
vt 0.156250 0.562500
vt 0.156250 0.468750
vt 0.000000 0.968750
vt 0.000000 0.906250
vt 0.468750 0.875000
vt 0.468750 0.781250
vt 0.187500 0.562500
vt 0.187500 0.468750
vt 0.218750 0.562500
vt 0.218750 0.468750
vt 0.437500 0.718750
vt 0.437500 0.750000
vt 0.312500 0.718750
vt 0.312500 0.750000
vt 0.437500 0.687500
vt 0.437500 0.656250
vt 0.312500 0.687500
vt 0.312500 0.656250
vt 0.250000 0.562500
vt 0.250000 0.531250
vt 0.343750 0.562500
vt 0.343750 0.531250
vt 0.531250 0.750000
vt 0.531250 0.718750
vt 0.250000 0.781250
vt 0.250000 0.875000
vt 0.250000 0.750000
vt 0.375000 0.562500
vt 0.375000 0.531250
vt 0.437500 0.562500
vt 0.437500 0.531250
vt 0.500000 0.687500
vt 0.500000 0.656250
vt 0.000000 0.500000
vt 0.000000 0.468750
vt 0.062500 0.500000
vt 0.062500 0.468750
vt 0.125000 0.500000
vt 0.062500 0.562500
vt 0.062500 0.625000
vt 0.000000 0.625000
vt 0.500000 1.000000
vt 0.500000 0.968750
vt 0.562500 1.000000
vt 0.562500 0.968750
vt 0.500000 0.562500
vt 0.500000 0.531250
s 0
usemtl Material_0
f 1/1/1 3/2/1 2/3/1
f 3/2/1 4/4/1 2/3/1
f 5/3/2 7/4/2 6/5/2
f 7/4/2 8/6/2 6/5/2
f 9/7/3 11/8/3 10/1/3
f 11/8/3 12/9/3 10/1/3
f 13/10/4 15/11/4 14/12/4
f 15/11/4 16/3/4 14/12/4
f 17/13/5 19/14/5 18/15/5
f 19/14/5 20/16/5 18/15/5
f 21/17/6 23/18/6 22/19/6
f 23/18/6 24/20/6 22/19/6
f 25/21/1 27/22/1 26/23/1
f 27/22/1 28/24/1 26/23/1
f 29/25/2 31/26/2 30/27/2
f 31/26/2 32/28/2 30/27/2
f 33/8/3 35/29/3 34/9/3
f 35/29/3 36/30/3 34/9/3
f 37/31/4 39/10/4 38/32/4
f 39/10/4 40/12/4 38/32/4
f 41/33/5 43/34/5 42/35/5
f 43/34/5 44/36/5 42/35/5
f 45/37/6 47/38/6 46/39/6
f 47/38/6 48/40/6 46/39/6
f 49/30/1 51/30/1 50/41/1
f 51/30/1 52/41/1 50/41/1
f 53/30/2 55/30/2 54/41/2
f 55/30/2 56/41/2 54/41/2
f 57/42/3 59/43/3 58/44/3
f 59/43/3 60/45/3 58/44/3
f 61/46/4 63/47/4 62/48/4
f 63/47/4 64/49/4 62/48/4
f 65/30/5 67/30/5 66/32/5
f 67/30/5 68/32/5 66/32/5
f 69/30/6 71/30/6 70/32/6
f 71/30/6 72/32/6 70/32/6
f 73/23/1 75/28/1 74/50/1
f 75/28/1 76/51/1 74/50/1
f 77/52/2 79/53/2 78/54/2
f 79/53/2 80/55/2 78/54/2
f 81/56/3 83/30/3 82/56/3
f 83/30/3 84/30/3 82/56/3
f 85/30/4 87/56/4 86/30/4
f 87/56/4 88/56/4 86/30/4
f 89/30/5 91/57/5 90/30/5
f 91/57/5 92/57/5 90/30/5
f 93/30/6 95/57/6 94/30/6
f 95/57/6 96/57/6 94/30/6
f 97/43/1 99/47/1 98/58/1
f 99/47/1 100/59/1 98/58/1
f 101/60/2 103/61/2 102/62/2
f 103/61/2 104/63/2 102/62/2
f 105/56/3 107/30/3 106/56/3
f 107/30/3 108/30/3 106/56/3
f 109/30/4 111/56/4 110/30/4
f 111/56/4 112/56/4 110/30/4
f 113/30/5 115/57/5 114/30/5
f 115/57/5 116/57/5 114/30/5
f 117/30/6 119/57/6 118/30/6
f 119/57/6 120/57/6 118/30/6
f 121/30/1 123/30/1 122/41/1
f 123/30/1 124/41/1 122/41/1
f 125/30/2 127/30/2 126/41/2
f 127/30/2 128/41/2 126/41/2
f 129/64/3 131/65/3 130/66/3
f 131/65/3 132/67/3 130/66/3
f 133/68/4 135/69/4 134/70/4
f 135/69/4 136/71/4 134/70/4
f 137/30/5 139/30/5 138/32/5
f 139/30/5 140/32/5 138/32/5
f 141/30/6 143/30/6 142/32/6
f 143/30/6 144/32/6 142/32/6
f 145/72/1 147/73/1 146/74/1
f 147/73/1 148/75/1 146/74/1
f 149/65/2 151/64/2 150/76/2
f 151/64/2 152/77/2 150/76/2
f 153/49/3 155/45/3 154/78/3
f 155/45/3 156/79/3 154/78/3
f 157/67/4 159/71/4 158/80/4
f 159/71/4 160/6/4 158/80/4
f 161/81/5 163/82/5 162/83/5
f 163/82/5 164/84/5 162/83/5
f 165/68/6 167/69/6 166/85/6
f 167/69/6 168/86/6 166/85/6
f 169/87/7 171/88/7 170/89/7
f 171/88/7 172/90/7 170/89/7
f 173/89/8 175/90/8 174/91/8
f 175/90/8 176/53/8 174/91/8
f 177/92/3 179/93/3 178/33/3
f 179/93/3 180/94/3 178/33/3
f 181/17/4 183/52/4 182/93/4
f 183/52/4 184/92/4 182/93/4
f 185/95/9 187/96/9 186/97/9
f 187/96/9 188/98/9 186/97/9
f 189/83/10 191/84/10 190/99/10
f 191/84/10 192/100/10 190/99/10
o overlaySolidModel
v 0.576154 1.923077 0.769231
v 0.576923 1.923077 0.769231
v 0.576154 0.769231 0.769231
v 0.576923 0.769231 0.769231
v 0.576923 1.923077 -0.769231
v 0.576154 1.923077 -0.769231
v 0.576923 0.769231 -0.769231
v 0.576154 0.769231 -0.769231
v 0.576923 1.923077 -0.769231
v 0.576923 1.923077 0.769231
v 0.576154 1.923077 -0.769231
v 0.576154 1.923077 0.769231
v 0.576154 0.769231 -0.769231
v 0.576154 0.769231 0.769231
v 0.576923 0.769231 -0.769231
v 0.576923 0.769231 0.769231
v 0.576154 1.923077 -0.769231
v 0.576154 1.923077 0.769231
v 0.576154 0.769231 -0.769231
v 0.576154 0.769231 0.769231
v 0.576923 1.923077 0.769231
v 0.576923 1.923077 -0.769231
v 0.576923 0.769231 0.769231
v 0.576923 0.769231 -0.769231
vn -0.0000 -0.0000 1.0000
vn -0.0000 -0.0000 -1.0000
vn -0.0000 1.0000 -0.0000
vn -0.0000 -1.0000 -0.0000
vn -1.0000 -0.0000 -0.0000
vn 1.0000 -0.0000 -0.0000
vt 0.875000 0.093750
vt 0.875000 0.000000
vt 1.000000 0.093750
vt 1.000000 0.000000
s 0
usemtl Material_0
f 193/101/11 195/102/11 194/103/11
f 195/102/11 196/104/11 194/103/11
f 197/101/12 199/102/12 198/103/12
f 199/102/12 200/104/12 198/103/12
f 201/101/13 203/102/13 202/103/13
f 203/102/13 204/104/13 202/103/13
f 205/101/14 207/102/14 206/103/14
f 207/102/14 208/104/14 206/103/14
f 209/101/15 211/102/15 210/103/15
f 211/102/15 212/104/15 210/103/15
f 213/101/16 215/102/16 214/103/16
f 215/102/16 216/104/16 214/103/16
o scopeModel
v 0.576923 1.923077 0.769231
v 0.577692 1.923077 0.769231
v 0.576923 0.769231 0.769231
v 0.577692 0.769231 0.769231
v 0.577692 1.923077 -0.769231
v 0.576923 1.923077 -0.769231
v 0.577692 0.769231 -0.769231
v 0.576923 0.769231 -0.769231
v 0.577692 1.923077 -0.769231
v 0.577692 1.923077 0.769231
v 0.576923 1.923077 -0.769231
v 0.576923 1.923077 0.769231
v 0.576923 0.769231 -0.769231
v 0.576923 0.769231 0.769231
v 0.577692 0.769231 -0.769231
v 0.577692 0.769231 0.769231
v 0.576923 1.923077 -0.769231
v 0.576923 1.923077 0.769231
v 0.576923 0.769231 -0.769231
v 0.576923 0.769231 0.769231
v 0.577692 1.923077 0.769231
v 0.577692 1.923077 -0.769231
v 0.577692 0.769231 0.769231
v 0.577692 0.769231 -0.769231
vn -0.0000 -0.0000 1.0000
vn -0.0000 -0.0000 -1.0000
vn -0.0000 1.0000 -0.0000
vn -0.0000 -1.0000 -0.0000
vn -1.0000 -0.0000 -0.0000
vn 1.0000 -0.0000 -0.0000
vt 0.875000 0.093750
vt 0.875000 0.000000
vt 1.000000 0.093750
vt 1.000000 0.000000
s 0
usemtl Material_0
f 217/105/17 219/106/17 218/107/17
f 219/106/17 220/108/17 218/107/17
f 221/105/18 223/106/18 222/107/18
f 223/106/18 224/108/18 222/107/18
f 225/105/19 227/106/19 226/107/19
f 227/106/19 228/108/19 226/107/19
f 229/105/20 231/106/20 230/107/20
f 231/106/20 232/108/20 230/107/20
f 233/105/21 235/106/21 234/107/21
f 235/106/21 236/108/21 234/107/21
f 237/105/22 239/106/22 238/107/22
f 239/106/22 240/108/22 238/107/22
