# Blender 4.2.0
# www.blender.org
mtllib lev.valday.mtl
o overlaySolidModel
v -0.216804 0.156250 0.046875
v -0.216741 0.156250 0.046051
v -0.216804 0.062500 0.046051
v -0.216741 0.062500 0.046875
v -0.216741 0.156250 -0.046875
v -0.216804 0.156250 -0.046499
v -0.216741 0.062500 -0.046499
v -0.216804 0.062500 -0.046875
v -0.216741 0.156250 -0.046875
v -0.216741 0.154571 0.046875
v -0.216804 0.154571 -0.046875
v -0.216804 0.156250 0.046875
v -0.216804 0.062500 -0.046875
v -0.216804 0.063831 0.046875
v -0.216741 0.063831 -0.046875
v -0.216741 0.062500 0.046875
v -0.216804 0.156250 -0.046875
v -0.216804 0.156250 0.046875
v -0.216804 0.062500 -0.046875
v -0.216804 0.062500 0.046875
v -0.216741 0.156250 0.046875
v -0.216741 0.156250 -0.046875
v -0.216741 0.062500 0.046875
v -0.216741 0.062500 -0.046875
vn 0.9971 -0.0007 0.0756
vn -0.9971 0.0007 0.0756
vn -0.9865 -0.0007 -0.1641
vn 0.9865 0.0007 -0.1641
vn -0.9993 0.0372 0.0007
vn 0.9993 0.0372 -0.0007
vn 0.9989 -0.0469 0.0007
vn -0.9989 -0.0469 -0.0007
vn -1.0000 -0.0000 -0.0000
vn 1.0000 -0.0000 -0.0000
vt 0.906250 0.093750
vt 0.906250 0.000000
vt 1.000000 0.093750
vt 1.000000 0.000000
s 0
usemtl Material_0.001
f 1/1/1 3/2/1 2/3/1
f 3/2/2 4/4/2 2/3/2
f 5/1/3 7/2/3 6/3/3
f 7/2/4 8/4/4 6/3/4
f 9/1/5 11/2/5 10/3/5
f 11/2/6 12/4/6 10/3/6
f 13/1/7 15/2/7 14/3/7
f 15/2/8 16/4/8 14/3/8
f 17/1/9 19/2/9 18/3/9
f 19/2/9 20/4/9 18/3/9
f 21/1/10 23/2/10 22/3/10
f 23/2/10 24/4/10 22/3/10
o scopeModel
v -0.215241 0.156250 0.046875
v -0.215179 0.156250 0.046875
v -0.215241 0.062500 0.046875
v -0.215179 0.062500 0.046875
v -0.215179 0.156250 -0.046875
v -0.215241 0.156250 -0.046875
v -0.215179 0.062500 -0.046875
v -0.215241 0.062500 -0.046875
v -0.215179 0.156250 -0.046875
v -0.215179 0.156250 0.046875
v -0.215241 0.156250 -0.046875
v -0.215241 0.156250 0.046875
v -0.215241 0.062500 -0.046875
v -0.215241 0.062500 0.046875
v -0.215179 0.062500 -0.046875
v -0.215179 0.062500 0.046875
v -0.215241 0.156250 -0.046875
v -0.215241 0.156250 0.046875
v -0.215241 0.062500 -0.046875
v -0.215241 0.062500 0.046875
v -0.215179 0.156250 0.046875
v -0.215179 0.156250 -0.046875
v -0.215179 0.062500 0.046875
v -0.215179 0.062500 -0.046875
vn -0.0000 -0.0000 1.0000
vn -0.0000 -0.0000 -1.0000
vn -0.0000 1.0000 -0.0000
vn -0.0000 -1.0000 -0.0000
vn -1.0000 -0.0000 -0.0000
vn 1.0000 -0.0000 -0.0000
vt 0.718750 0.093750
vt 0.718750 0.000000
vt 0.812500 0.093750
vt 0.812500 0.000000
s 0
usemtl Material_0.001
f 25/5/11 27/6/11 26/7/11
f 27/6/11 28/8/11 26/7/11
f 29/5/12 31/6/12 30/7/12
f 31/6/12 32/8/12 30/7/12
f 33/5/13 35/6/13 34/7/13
f 35/6/13 36/8/13 34/7/13
f 37/5/14 39/6/14 38/7/14
f 39/6/14 40/8/14 38/7/14
f 41/5/15 43/6/15 42/7/15
f 43/6/15 44/8/15 42/7/15
f 45/5/16 47/6/16 46/7/16
f 47/6/16 48/8/16 46/7/16
o attachmentModel
v -0.046429 0.171875 0.031250
v 0.047321 0.171875 0.031250
v -0.046429 0.140625 0.031250
v 0.047321 0.140625 0.031250
v 0.047321 0.171875 -0.031250
v -0.046429 0.171875 -0.031250
v 0.047321 0.140625 -0.031250
v -0.046429 0.140625 -0.031250
v 0.047321 0.171875 -0.031250
v 0.047321 0.171875 0.031250
v -0.046429 0.171875 -0.031250
v -0.046429 0.171875 0.031250
v -0.046429 0.140625 -0.031250
v -0.046429 0.140625 0.031250
v 0.047321 0.140625 -0.031250
v 0.047321 0.140625 0.031250
v -0.046429 0.171875 -0.031250
v -0.046429 0.171875 0.031250
v -0.046429 0.140625 -0.031250
v -0.046429 0.140625 0.031250
v 0.047321 0.171875 0.031250
v 0.047321 0.171875 -0.031250
v 0.047321 0.140625 0.031250
v 0.047321 0.140625 -0.031250
v -0.062054 0.156250 -0.046875
v 0.062946 0.156250 -0.046875
v -0.062054 0.062500 -0.046875
v 0.062946 0.062500 -0.046875
v 0.062946 0.156250 -0.062500
v -0.062054 0.156250 -0.062500
v 0.062946 0.062500 -0.062500
v -0.062054 0.062500 -0.062500
v 0.062946 0.156250 -0.062500
v 0.062946 0.156250 -0.046875
v -0.062054 0.156250 -0.062500
v -0.062054 0.156250 -0.046875
v -0.062054 0.062500 -0.062500
v -0.062054 0.062500 -0.046875
v 0.062946 0.062500 -0.062500
v 0.062946 0.062500 -0.046875
v -0.062054 0.156250 -0.062500
v -0.062054 0.156250 -0.046875
v -0.062054 0.062500 -0.062500
v -0.062054 0.062500 -0.046875
v 0.062946 0.156250 -0.046875
v 0.062946 0.156250 -0.062500
v 0.062946 0.062500 -0.046875
v 0.062946 0.062500 -0.062500
v 0.094196 0.062500 -0.031250
v 0.156696 0.062500 -0.031250
v 0.094196 0.000000 -0.031250
v 0.156696 0.000000 -0.031250
v 0.156696 0.062500 -0.062500
v 0.094196 0.062500 -0.062500
v 0.156696 0.000000 -0.062500
v 0.094196 0.000000 -0.062500
v 0.156696 0.062500 -0.062500
v 0.156696 0.062500 -0.031250
v 0.094196 0.062500 -0.062500
v 0.094196 0.062500 -0.031250
v 0.094196 0.000000 -0.062500
v 0.094196 0.000000 -0.031250
v 0.156696 0.000000 -0.062500
v 0.156696 0.000000 -0.031250
v 0.094196 0.062500 -0.062500
v 0.094196 0.062500 -0.031250
v 0.094196 0.000000 -0.062500
v 0.094196 0.000000 -0.031250
v 0.156696 0.062500 -0.031250
v 0.156696 0.062500 -0.062500
v 0.156696 0.000000 -0.031250
v 0.156696 0.000000 -0.062500
v 0.094196 0.062500 0.062500
v 0.156696 0.062500 0.062500
v 0.094196 0.000000 0.062500
v 0.156696 0.000000 0.062500
v 0.156696 0.062500 0.031250
v 0.094196 0.062500 0.031250
v 0.156696 0.000000 0.031250
v 0.094196 0.000000 0.031250
v 0.156696 0.062500 0.031250
v 0.156696 0.062500 0.062500
v 0.094196 0.062500 0.031250
v 0.094196 0.062500 0.062500
v 0.094196 0.000000 0.031250
v 0.094196 0.000000 0.062500
v 0.156696 0.000000 0.031250
v 0.156696 0.000000 0.062500
v 0.094196 0.062500 0.031250
v 0.094196 0.062500 0.062500
v 0.094196 0.000000 0.031250
v 0.094196 0.000000 0.062500
v 0.156696 0.062500 0.062500
v 0.156696 0.062500 0.031250
v 0.156696 0.000000 0.062500
v 0.156696 0.000000 0.031250
v -0.124554 0.031250 0.062500
v 0.094196 0.031250 0.062500
v -0.124554 0.000000 0.062500
v 0.094196 0.000000 0.062500
v 0.094196 0.031250 -0.062500
v -0.124554 0.031250 -0.062500
v 0.094196 0.000000 -0.062500
v -0.124554 0.000000 -0.062500
v 0.094196 0.031250 -0.062500
v 0.094196 0.031250 0.062500
v -0.124554 0.031250 -0.062500
v -0.124554 0.031250 0.062500
v -0.124554 0.000000 -0.062500
v -0.124554 0.000000 0.062500
v 0.094196 0.000000 -0.062500
v 0.094196 0.000000 0.062500
v -0.124554 0.031250 -0.062500
v -0.124554 0.031250 0.062500
v -0.124554 0.000000 -0.062500
v -0.124554 0.000000 0.062500
v 0.094196 0.031250 0.062500
v 0.094196 0.031250 -0.062500
v 0.094196 0.000000 0.062500
v 0.094196 0.000000 -0.062500
v -0.124554 0.109375 0.031250
v 0.094196 0.109375 0.031250
v -0.124554 0.046875 0.031250
v 0.094196 0.046875 0.031250
v 0.094196 0.109375 -0.031250
v -0.124554 0.109375 -0.031250
v 0.094196 0.046875 -0.031250
v -0.124554 0.046875 -0.031250
v 0.094196 0.109375 -0.031250
v 0.094196 0.109375 0.031250
v -0.124554 0.109375 -0.031250
v -0.124554 0.109375 0.031250
v -0.124554 0.046875 -0.031250
v -0.124554 0.046875 0.031250
v 0.094196 0.046875 -0.031250
v 0.094196 0.046875 0.031250
v -0.124554 0.109375 -0.031250
v -0.124554 0.109375 0.031250
v -0.124554 0.046875 -0.031250
v -0.124554 0.046875 0.031250
v 0.094196 0.109375 0.031250
v 0.094196 0.109375 -0.031250
v 0.094196 0.046875 0.031250
v 0.094196 0.046875 -0.031250
v -0.140179 0.062500 0.046875
v -0.046429 0.062500 0.046875
v -0.140179 0.031250 0.046875
v -0.046429 0.031250 0.046875
v -0.046429 0.062500 -0.046875
v -0.140179 0.062500 -0.046875
v -0.046429 0.031250 -0.046875
v -0.140179 0.031250 -0.046875
v -0.046429 0.062500 -0.046875
v -0.046429 0.062500 0.046875
v -0.140179 0.062500 -0.046875
v -0.140179 0.062500 0.046875
v -0.140179 0.031250 -0.046875
v -0.140179 0.031250 0.046875
v -0.046429 0.031250 -0.046875
v -0.046429 0.031250 0.046875
v -0.140179 0.062500 -0.046875
v -0.140179 0.062500 0.046875
v -0.140179 0.031250 -0.046875
v -0.140179 0.031250 0.046875
v -0.046429 0.062500 0.046875
v -0.046429 0.062500 -0.046875
v -0.046429 0.031250 0.046875
v -0.046429 0.031250 -0.046875
v 0.031696 0.046875 0.031250
v 0.094196 0.046875 0.031250
v 0.031696 0.015625 0.031250
v 0.094196 0.015625 0.031250
v 0.094196 0.046875 -0.031250
v 0.031696 0.046875 -0.031250
v 0.094196 0.015625 -0.031250
v 0.031696 0.015625 -0.031250
v 0.094196 0.046875 -0.031250
v 0.094196 0.046875 0.031250
v 0.031696 0.046875 -0.031250
v 0.031696 0.046875 0.031250
v 0.031696 0.015625 -0.031250
v 0.031696 0.015625 0.031250
v 0.094196 0.015625 -0.031250
v 0.094196 0.015625 0.031250
v 0.031696 0.046875 -0.031250
v 0.031696 0.046875 0.031250
v 0.031696 0.015625 -0.031250
v 0.031696 0.015625 0.031250
v 0.094196 0.046875 0.031250
v 0.094196 0.046875 -0.031250
v 0.094196 0.015625 0.031250
v 0.094196 0.015625 -0.031250
v 0.078571 0.031250 0.031250
v 0.141071 0.031250 0.031250
v 0.078571 0.000000 0.031250
v 0.141071 0.000000 0.031250
v 0.141071 0.031250 -0.031250
v 0.078571 0.031250 -0.031250
v 0.141071 0.000000 -0.031250
v 0.078571 0.000000 -0.031250
v 0.141071 0.031250 -0.031250
v 0.141071 0.031250 0.031250
v 0.078571 0.031250 -0.031250
v 0.078571 0.031250 0.031250
v 0.078571 0.000000 -0.031250
v 0.078571 0.000000 0.031250
v 0.141071 0.000000 -0.031250
v 0.141071 0.000000 0.031250
v 0.078571 0.031250 -0.031250
v 0.078571 0.031250 0.031250
v 0.078571 0.000000 -0.031250
v 0.078571 0.000000 0.031250
v 0.141071 0.031250 0.031250
v 0.141071 0.031250 -0.031250
v 0.141071 0.000000 0.031250
v 0.141071 0.000000 -0.031250
v -0.093304 0.156250 0.046875
v 0.125446 0.156250 0.046875
v -0.093304 0.062500 0.046875
v 0.125446 0.062500 0.046875
v 0.125446 0.156250 -0.046875
v -0.093304 0.156250 -0.046875
v 0.125446 0.062500 -0.046875
v -0.093304 0.062500 -0.046875
v 0.125446 0.156250 -0.046875
v 0.125446 0.156250 0.046875
v -0.093304 0.156250 -0.046875
v -0.093304 0.156250 0.046875
v -0.093304 0.062500 -0.046875
v -0.093304 0.062500 0.046875
v 0.125446 0.062500 -0.046875
v 0.125446 0.062500 0.046875
v -0.093304 0.156250 -0.046875
v -0.093304 0.156250 0.046875
v -0.093304 0.062500 -0.046875
v -0.093304 0.062500 0.046875
v 0.125446 0.156250 0.046875
v 0.125446 0.156250 -0.046875
v 0.125446 0.062500 0.046875
v 0.125446 0.062500 -0.046875
v -0.218304 0.156250 0.046875
v -0.155804 0.156250 0.046875
v -0.218304 0.062500 0.046875
v -0.155804 0.062500 0.046875
v -0.155804 0.156250 -0.046875
v -0.218304 0.156250 -0.046875
v -0.155804 0.062500 -0.046875
v -0.218304 0.062500 -0.046875
v -0.155804 0.156250 -0.046875
v -0.155804 0.156250 0.046875
v -0.218304 0.156250 -0.046875
v -0.218304 0.156250 0.046875
v -0.218304 0.062500 -0.046875
v -0.218304 0.062500 0.046875
v -0.155804 0.062500 -0.046875
v -0.155804 0.062500 0.046875
v -0.218304 0.156250 -0.046875
v -0.218304 0.156250 0.046875
v -0.218304 0.062500 -0.046875
v -0.218304 0.062500 0.046875
v -0.155804 0.156250 0.046875
v -0.155804 0.156250 -0.046875
v -0.155804 0.062500 0.046875
v -0.155804 0.062500 -0.046875
v -0.218366 0.156250 -0.039062
v -0.218304 0.156250 -0.039062
v -0.218366 0.062500 -0.039062
v -0.218304 0.062500 -0.039062
v -0.218304 0.156250 -0.046875
v -0.218366 0.156250 -0.046875
v -0.218304 0.062500 -0.046875
v -0.218366 0.062500 -0.046875
v -0.218304 0.156250 -0.046875
v -0.218304 0.156250 -0.039062
v -0.218366 0.156250 -0.046875
v -0.218366 0.156250 -0.039062
v -0.218366 0.062500 -0.046875
v -0.218366 0.062500 -0.039062
v -0.218304 0.062500 -0.046875
v -0.218304 0.062500 -0.039062
v -0.218366 0.156250 -0.046875
v -0.218366 0.156250 -0.039062
v -0.218366 0.062500 -0.046875
v -0.218366 0.062500 -0.039062
v -0.218304 0.156250 -0.039062
v -0.218304 0.156250 -0.046875
v -0.218304 0.062500 -0.039062
v -0.218304 0.062500 -0.046875
v -0.218366 0.156250 0.046875
v -0.218304 0.156250 0.046875
v -0.218366 0.062500 0.046875
v -0.218304 0.062500 0.046875
v -0.218304 0.156250 0.039063
v -0.218366 0.156250 0.039063
v -0.218304 0.062500 0.039063
v -0.218366 0.062500 0.039063
v -0.218304 0.156250 0.039063
v -0.218304 0.156250 0.046875
v -0.218366 0.156250 0.039063
v -0.218366 0.156250 0.046875
v -0.218366 0.062500 0.039063
v -0.218366 0.062500 0.046875
v -0.218304 0.062500 0.039063
v -0.218304 0.062500 0.046875
v -0.218366 0.156250 0.039063
v -0.218366 0.156250 0.046875
v -0.218366 0.062500 0.039063
v -0.218366 0.062500 0.046875
v -0.218304 0.156250 0.046875
v -0.218304 0.156250 0.039063
v -0.218304 0.062500 0.046875
v -0.218304 0.062500 0.039063
v -0.218366 0.071875 0.039063
v -0.218304 0.071875 0.039063
v -0.218366 0.062500 0.039063
v -0.218304 0.062500 0.039063
v -0.218304 0.071875 -0.039062
v -0.218366 0.071875 -0.039062
v -0.218304 0.062500 -0.039062
v -0.218366 0.062500 -0.039062
v -0.218304 0.071875 -0.039062
v -0.218304 0.071875 0.039063
v -0.218366 0.071875 -0.039062
v -0.218366 0.071875 0.039063
v -0.218366 0.062500 -0.039062
v -0.218366 0.062500 0.039063
v -0.218304 0.062500 -0.039062
v -0.218304 0.062500 0.039063
v -0.218366 0.071875 -0.039062
v -0.218366 0.071875 0.039063
v -0.218366 0.062500 -0.039062
v -0.218366 0.062500 0.039063
v -0.218304 0.071875 0.039063
v -0.218304 0.071875 -0.039062
v -0.218304 0.062500 0.039063
v -0.218304 0.062500 -0.039062
v -0.218366 0.156250 0.039063
v -0.218304 0.156250 0.039063
v -0.218366 0.146875 0.039063
v -0.218304 0.146875 0.039063
v -0.218304 0.156250 -0.039062
v -0.218366 0.156250 -0.039062
v -0.218304 0.146875 -0.039062
v -0.218366 0.146875 -0.039062
v -0.218304 0.156250 -0.039062
v -0.218304 0.156250 0.039063
v -0.218366 0.156250 -0.039062
v -0.218366 0.156250 0.039063
v -0.218366 0.146875 -0.039062
v -0.218366 0.146875 0.039063
v -0.218304 0.146875 -0.039062
v -0.218304 0.146875 0.039063
v -0.218366 0.156250 -0.039062
v -0.218366 0.156250 0.039063
v -0.218366 0.146875 -0.039062
v -0.218366 0.146875 0.039063
v -0.218304 0.156250 0.039063
v -0.218304 0.156250 -0.039062
v -0.218304 0.146875 0.039063
v -0.218304 0.146875 -0.039062
v -0.215241 0.156250 0.046875
v -0.215179 0.156250 0.046875
v -0.215241 0.062500 0.046875
v -0.215179 0.062500 0.046875
v -0.215179 0.156250 -0.046875
v -0.215241 0.156250 -0.046875
v -0.215179 0.062500 -0.046875
v -0.215241 0.062500 -0.046875
v -0.215179 0.156250 -0.046875
v -0.215179 0.156250 0.046875
v -0.215241 0.156250 -0.046875
v -0.215241 0.156250 0.046875
v -0.215241 0.062500 -0.046875
v -0.215241 0.062500 0.046875
v -0.215179 0.062500 -0.046875
v -0.215179 0.062500 0.046875
v -0.215241 0.156250 -0.046875
v -0.215241 0.156250 0.046875
v -0.215241 0.062500 -0.046875
v -0.215241 0.062500 0.046875
v -0.215179 0.156250 0.046875
v -0.215179 0.156250 -0.046875
v -0.215179 0.062500 0.046875
v -0.215179 0.062500 -0.046875
v -0.155804 0.153569 -0.000000
v -0.093304 0.153569 -0.000000
v -0.155804 0.109375 0.044194
v -0.093304 0.109375 0.044194
v -0.093304 0.109375 -0.044194
v -0.155804 0.109375 -0.044194
v -0.093304 0.065181 -0.000000
v -0.155804 0.065181 0.000000
v -0.093304 0.109375 -0.044194
v -0.093304 0.153569 -0.000000
v -0.155804 0.109375 -0.044194
v -0.155804 0.153569 -0.000000
v -0.155804 0.065181 0.000000
v -0.155804 0.109375 0.044194
v -0.093304 0.065181 -0.000000
v -0.093304 0.109375 0.044194
v -0.155804 0.109375 -0.044194
v -0.155804 0.153569 -0.000000
v -0.155804 0.065181 0.000000
v -0.155804 0.109375 0.044194
v -0.093304 0.153569 -0.000000
v -0.093304 0.109375 -0.044194
v -0.093304 0.109375 0.044194
v -0.093304 0.065181 -0.000000
vn -0.0000 -0.0000 1.0000
vn -0.0000 -0.0000 -1.0000
vn -0.0000 1.0000 -0.0000
vn -0.0000 -1.0000 -0.0000
vn -1.0000 -0.0000 -0.0000
vn 1.0000 -0.0000 -0.0000
vn -0.0000 0.7071 0.7071
vn -0.0000 -0.7071 -0.7071
vn -0.0000 0.7071 -0.7071
vn -0.0000 -0.7071 0.7071
vt 0.625000 0.312500
vt 0.625000 0.281250
vt 0.718750 0.312500
vt 0.718750 0.281250
vt 0.687500 0.375000
vt 0.687500 0.343750
vt 0.781250 0.375000
vt 0.781250 0.343750
vt 0.625000 0.531250
vt 0.625000 0.625000
vt 0.562500 0.531250
vt 0.562500 0.625000
vt 0.625000 0.500000
vt 0.625000 0.406250
vt 0.562500 0.500000
vt 0.562500 0.406250
vt 0.500000 0.250000
vt 0.500000 0.218750
vt 0.562500 0.250000
vt 0.562500 0.218750
vt 0.750000 0.562500
vt 0.750000 0.531250
vt 0.812500 0.562500
vt 0.812500 0.531250
vt 0.187500 0.562500
vt 0.187500 0.468750
vt 0.312500 0.562500
vt 0.312500 0.468750
vt 0.437500 0.812500
vt 0.437500 0.718750
vt 0.562500 0.812500
vt 0.562500 0.718750
vt 0.718750 0.875000
vt 0.718750 1.000000
vt 0.687500 0.875000
vt 0.687500 1.000000
vt 0.093750 0.312500
vt 0.093750 0.187500
vt 0.062500 0.312500
vt 0.062500 0.187500
vt 0.562500 0.312500
vt 0.593750 0.312500
vt 0.593750 0.218750
vt 0.687500 0.500000
vt 0.687500 0.406250
vt 0.718750 0.500000
vt 0.718750 0.406250
vt 0.062500 0.375000
vt 0.125000 0.375000
vt 0.125000 0.312500
vt 0.625000 0.562500
vt 0.687500 0.562500
vt 0.281250 0.187500
vt 0.281250 0.250000
vt 0.250000 0.187500
vt 0.250000 0.250000
vt 0.781250 0.750000
vt 0.781250 0.687500
vt 0.750000 0.750000
vt 0.750000 0.687500
vt 0.750000 0.812500
vt 0.781250 0.812500
vt 0.000000 0.250000
vt 0.000000 0.187500
vt 0.031250 0.250000
vt 0.031250 0.187500
vt 0.625000 0.437500
vt 0.625000 0.375000
vt 0.687500 0.437500
vt 0.687500 0.312500
vt 0.781250 0.562500
vt 0.781250 0.625000
vt 0.750000 0.625000
vt 0.468750 0.250000
vt 0.468750 0.187500
vt 0.437500 0.250000
vt 0.437500 0.187500
vt 0.375000 0.250000
vt 0.375000 0.187500
vt 0.406250 0.250000
vt 0.406250 0.187500
vt 0.312500 0.250000
vt 0.312500 0.187500
vt 0.343750 0.250000
vt 0.343750 0.187500
vt 0.312500 0.437500
vt 0.312500 0.406250
vt 0.531250 0.437500
vt 0.531250 0.406250
vt 0.562500 0.687500
vt 0.562500 0.656250
vt 0.781250 0.656250
vt 0.125000 0.781250
vt 0.125000 1.000000
vt 0.000000 0.781250
vt 0.000000 1.000000
vt 0.250000 1.000000
vt 0.250000 0.781250
vt 0.437500 0.375000
vt 0.437500 0.343750
vt 0.562500 0.375000
vt 0.562500 0.343750
vt 0.625000 0.593750
vt 0.750000 0.593750
vt 0.125000 0.625000
vt 0.125000 0.562500
vt 0.343750 0.625000
vt 0.343750 0.562500
vt 0.375000 0.875000
vt 0.375000 0.812500
vt 0.593750 0.875000
vt 0.593750 0.812500
vt 0.437500 0.593750
vt 0.375000 0.593750
vt 0.187500 0.343750
vt 0.125000 0.343750
vt 0.750000 0.937500
vt 0.750000 0.906250
vt 0.843750 0.937500
vt 0.843750 0.906250
vt 0.750000 0.875000
vt 0.750000 0.843750
vt 0.843750 0.875000
vt 0.843750 0.843750
vt 0.281250 0.343750
vt 0.281250 0.437500
vt 0.187500 0.437500
vt 0.656250 0.812500
vt 0.656250 0.718750
vt 0.125000 0.250000
vt 0.125000 0.218750
vt 0.218750 0.250000
vt 0.218750 0.218750
vt 0.750000 1.000000
vt 0.750000 0.968750
vt 0.843750 1.000000
vt 0.843750 0.968750
vt 0.750000 0.250000
vt 0.750000 0.218750
vt 0.812500 0.250000
vt 0.812500 0.218750
vt 0.062500 0.156250
vt 0.125000 0.187500
vt 0.125000 0.156250
vt 0.750000 0.500000
vt 0.500000 0.312500
vt 0.000000 0.156250
vt 0.750000 0.312500
vt 0.750000 0.281250
vt 0.812500 0.312500
vt 0.812500 0.281250
vt 0.750000 0.437500
vt 0.750000 0.406250
vt 0.812500 0.437500
vt 0.812500 0.406250
vt 0.687500 0.250000
vt 0.687500 0.218750
vt 0.187500 0.250000
vt 0.187500 0.312500
vt 0.250000 0.312500
vt 0.625000 0.250000
vt 0.625000 0.218750
vt 0.750000 0.468750
vt 0.812500 0.500000
vt 0.812500 0.468750
vt 0.000000 0.750000
vt 0.000000 0.656250
vt 0.218750 0.750000
vt 0.218750 0.656250
vt 0.250000 0.906250
vt 0.468750 1.000000
vt 0.468750 0.906250
vt 0.343750 0.656250
vt 0.343750 0.875000
vt 0.250000 0.656250
vt 0.250000 0.875000
vt 0.093750 0.625000
vt 0.093750 0.406250
vt 0.000000 0.625000
vt 0.000000 0.406250
vt 0.437500 0.687500
vt 0.531250 0.687500
vt 0.531250 0.593750
vt 0.406250 0.562500
vt 0.406250 0.468750
vt 0.000000 0.375000
vt 0.000000 0.281250
vt 0.062500 0.281250
vt 0.625000 1.000000
vt 0.625000 0.906250
vt 0.687500 0.906250
vt 0.718750 0.812500
vt 0.625000 0.812500
vt 0.625000 0.875000
vt 0.406250 0.375000
vt 0.406250 0.312500
vt 0.312500 0.375000
vt 0.312500 0.312500
vt 0.906250 1.000000
vt 0.906250 0.906250
vt 1.000000 1.000000
vt 1.000000 0.906250
vt 0.437500 0.562500
vt 0.437500 0.468750
vt 0.531250 0.562500
vt 0.531250 0.468750
vt 0.437500 0.531250
vt 0.468750 0.562500
vt 0.468750 0.531250
vt 0.500000 1.000000
vt 0.500000 0.906250
vt 0.593750 1.000000
vt 0.593750 0.906250
vt 0.375000 0.312500
vt 0.437500 0.312500
vt 0.687500 0.750000
vt 0.687500 0.687500
vt 0.687500 0.812500
s 0
usemtl Material_0.001
f 49/9/17 51/10/17 50/11/17
f 51/10/17 52/12/17 50/11/17
f 53/13/18 55/14/18 54/15/18
f 55/14/18 56/16/18 54/15/18
f 57/17/19 59/18/19 58/19/19
f 59/18/19 60/20/19 58/19/19
f 61/21/20 63/22/20 62/23/20
f 63/22/20 64/24/20 62/23/20
f 65/25/21 67/26/21 66/27/21
f 67/26/21 68/28/21 66/27/21
f 69/29/22 71/30/22 70/31/22
f 71/30/22 72/32/22 70/31/22
f 73/33/17 75/34/17 74/35/17
f 75/34/17 76/36/17 74/35/17
f 77/37/18 79/38/18 78/39/18
f 79/38/18 80/40/18 78/39/18
f 81/41/19 83/42/19 82/43/19
f 83/42/19 84/44/19 82/43/19
f 85/45/20 87/46/20 86/47/20
f 87/46/20 88/48/20 86/47/20
f 89/49/21 91/28/21 90/50/21
f 91/28/21 92/51/21 90/50/21
f 93/52/22 95/53/22 94/54/22
f 95/53/22 96/55/22 94/54/22
f 97/56/17 99/47/17 98/57/17
f 99/47/17 100/58/17 98/57/17
f 101/59/18 103/21/18 102/60/18
f 103/21/18 104/52/18 102/60/18
f 105/61/19 107/62/19 106/63/19
f 107/62/19 108/64/19 106/63/19
f 109/65/20 111/66/20 110/67/20
f 111/66/20 112/68/20 110/67/20
f 113/69/21 115/67/21 114/70/21
f 115/67/21 116/65/21 114/70/21
f 117/71/22 119/72/22 118/73/22
f 119/72/22 120/74/22 118/73/22
f 121/75/17 123/76/17 122/77/17
f 123/76/17 124/13/17 122/77/17
f 125/76/18 127/9/18 126/13/18
f 127/9/18 128/78/18 126/13/18
f 129/79/19 131/80/19 130/29/19
f 131/80/19 132/81/19 130/29/19
f 133/82/20 135/83/20 134/84/20
f 135/83/20 136/85/20 134/84/20
f 137/86/21 139/87/21 138/88/21
f 139/87/21 140/89/21 138/88/21
f 141/90/22 143/91/22 142/92/22
f 143/91/22 144/93/22 142/92/22
f 145/94/17 147/95/17 146/96/17
f 147/95/17 148/97/17 146/96/17
f 149/98/18 151/99/18 150/66/18
f 151/99/18 152/100/18 150/66/18
f 153/101/19 155/102/19 154/103/19
f 155/102/19 156/104/19 154/103/19
f 157/105/20 159/106/20 158/102/20
f 159/106/20 160/101/20 158/102/20
f 161/107/21 163/108/21 162/109/21
f 163/108/21 164/110/21 162/109/21
f 165/18/22 167/111/22 166/81/22
f 167/111/22 168/112/22 166/81/22
f 169/113/17 171/114/17 170/115/17
f 171/114/17 172/116/17 170/115/17
f 173/117/18 175/118/18 174/119/18
f 175/118/18 176/120/18 174/119/18
f 177/121/19 179/37/19 178/122/19
f 179/37/19 180/118/19 178/122/19
f 181/33/20 183/123/20 182/114/20
f 183/123/20 184/124/20 182/114/20
f 185/109/21 187/49/21 186/76/21
f 187/49/21 188/9/21 186/76/21
f 189/21/22 191/75/22 190/52/22
f 191/75/22 192/77/22 190/52/22
f 193/125/17 195/126/17 194/127/17
f 195/126/17 196/128/17 194/127/17
f 197/129/18 199/130/18 198/131/18
f 199/130/18 200/132/18 198/131/18
f 201/133/19 203/134/19 202/123/19
f 203/134/19 204/135/19 202/123/19
f 205/136/20 207/137/20 206/39/20
f 207/137/20 208/40/20 206/39/20
f 209/138/21 211/139/21 210/140/21
f 211/139/21 212/141/21 210/140/21
f 213/142/22 215/143/22 214/144/22
f 215/143/22 216/145/22 214/144/22
f 217/146/17 219/147/17 218/148/17
f 219/147/17 220/149/17 218/148/17
f 221/48/18 223/150/18 222/151/18
f 223/150/18 224/152/18 222/151/18
f 225/153/19 227/29/19 226/52/19
f 227/29/19 228/60/19 226/52/19
f 229/49/20 231/27/20 230/154/20
f 231/27/20 232/25/20 230/154/20
f 233/72/21 235/155/21 234/48/21
f 235/155/21 236/150/21 234/48/21
f 237/156/22 239/157/22 238/158/22
f 239/157/22 240/159/22 238/158/22
f 241/160/17 243/161/17 242/162/17
f 243/161/17 244/163/17 242/162/17
f 245/164/18 247/165/18 246/146/18
f 247/165/18 248/147/18 246/146/18
f 249/166/19 251/167/19 250/138/19
f 251/167/19 252/58/19 250/138/19
f 253/168/20 255/64/20 254/167/20
f 255/64/20 256/166/20 254/167/20
f 257/169/21 259/170/21 258/164/21
f 259/170/21 260/165/21 258/164/21
f 261/153/22 263/171/22 262/172/22
f 263/171/22 264/173/22 262/172/22
f 265/174/17 267/175/17 266/176/17
f 267/175/17 268/177/17 266/176/17
f 269/105/18 271/178/18 270/179/18
f 271/178/18 272/180/18 270/179/18
f 273/181/19 275/182/19 274/183/19
f 275/182/19 276/184/19 274/183/19
f 277/185/20 279/186/20 278/187/20
f 279/186/20 280/188/20 278/187/20
f 281/189/21 283/121/21 282/190/21
f 283/121/21 284/191/21 282/190/21
f 285/35/22 287/36/22 286/192/22
f 287/36/22 288/193/22 286/192/22
f 289/194/17 291/195/17 290/56/17
f 291/195/17 292/196/17 290/56/17
f 293/197/18 295/198/18 294/44/18
f 295/198/18 296/199/18 294/44/18
f 297/200/19 299/41/19 298/201/19
f 299/41/19 300/202/19 298/201/19
f 301/203/20 303/204/20 302/205/20
f 303/204/20 304/206/20 302/205/20
f 305/207/21 307/208/21 306/209/21
f 307/208/21 308/210/21 306/209/21
f 309/211/22 311/212/22 310/213/22
f 311/212/22 312/214/22 310/213/22
f 313/211/17 315/215/17 314/216/17
f 315/215/17 316/217/17 314/216/17
f 317/211/18 319/215/18 318/216/18
f 319/215/18 320/217/18 318/216/18
f 321/211/19 323/215/19 322/216/19
f 323/215/19 324/217/19 322/216/19
f 325/211/20 327/215/20 326/216/20
f 327/215/20 328/217/20 326/216/20
f 329/211/21 331/215/21 330/216/21
f 331/215/21 332/217/21 330/216/21
f 333/211/22 335/215/22 334/216/22
f 335/215/22 336/217/22 334/216/22
f 337/211/17 339/215/17 338/216/17
f 339/215/17 340/217/17 338/216/17
f 341/211/18 343/215/18 342/216/18
f 343/215/18 344/217/18 342/216/18
f 345/211/19 347/215/19 346/216/19
f 347/215/19 348/217/19 346/216/19
f 349/211/20 351/215/20 350/216/20
f 351/215/20 352/217/20 350/216/20
f 353/211/21 355/215/21 354/216/21
f 355/215/21 356/217/21 354/216/21
f 357/211/22 359/215/22 358/216/22
f 359/215/22 360/217/22 358/216/22
f 361/211/17 363/215/17 362/216/17
f 363/215/17 364/217/17 362/216/17
f 365/211/18 367/215/18 366/216/18
f 367/215/18 368/217/18 366/216/18
f 369/211/19 371/215/19 370/216/19
f 371/215/19 372/217/19 370/216/19
f 373/211/20 375/215/20 374/216/20
f 375/215/20 376/217/20 374/216/20
f 377/211/21 379/215/21 378/216/21
f 379/215/21 380/217/21 378/216/21
f 381/211/22 383/215/22 382/216/22
f 383/215/22 384/217/22 382/216/22
f 385/211/17 387/215/17 386/216/17
f 387/215/17 388/217/17 386/216/17
f 389/211/18 391/215/18 390/216/18
f 391/215/18 392/217/18 390/216/18
f 393/211/19 395/215/19 394/216/19
f 395/215/19 396/217/19 394/216/19
f 397/211/20 399/215/20 398/216/20
f 399/215/20 400/217/20 398/216/20
f 401/211/21 403/215/21 402/216/21
f 403/215/21 404/217/21 402/216/21
f 405/211/22 407/215/22 406/216/22
f 407/215/22 408/217/22 406/216/22
f 409/194/17 411/195/17 410/56/17
f 411/195/17 412/196/17 410/56/17
f 413/197/18 415/198/18 414/44/18
f 415/198/18 416/199/18 414/44/18
f 417/200/19 419/41/19 418/201/19
f 419/41/19 420/202/19 418/201/19
f 421/203/20 423/204/20 422/205/20
f 423/204/20 424/206/20 422/205/20
f 425/218/21 427/219/21 426/220/21
f 427/219/21 428/221/21 426/220/21
f 429/218/22 431/219/22 430/220/22
f 431/219/22 432/221/22 430/220/22
f 433/168/23 435/64/23 434/206/23
f 435/64/23 436/90/23 434/206/23
f 437/206/24 439/90/24 438/222/24
f 439/90/24 440/86/24 438/222/24
f 441/84/25 443/223/25 442/86/25
f 443/223/25 444/222/25 442/86/25
f 445/154/26 447/25/26 446/223/26
f 447/25/26 448/84/26 446/223/26
f 449/224/21 451/225/21 450/67/21
f 451/225/21 452/68/21 450/67/21
f 453/226/22 455/224/22 454/69/22
f 455/224/22 456/67/22 454/69/22
