# Blender 4.3.2
# www.blender.org
mtllib lev.grozagrip.mtl
o attachmentModel
v -0.000000 0.543928 -0.000000
v 3.846154 0.543928 -0.000000
v 0.000000 0.000000 0.543928
v 3.846154 -0.000000 0.543928
v 3.846154 -0.000000 -0.543929
v -0.000000 -0.000000 -0.543928
v 3.846154 -0.543928 -0.000000
v 0.000000 -0.543928 0.000000
v 3.846154 -0.000000 -0.543929
v 3.846154 0.543928 -0.000000
v -0.000000 -0.000000 -0.543928
v -0.000000 0.543928 -0.000000
v 0.000000 -0.543928 0.000000
v 0.000000 0.000000 0.543928
v 3.846154 -0.543928 -0.000000
v 3.846154 -0.000000 0.543928
v -0.000000 -0.000000 -0.543928
v -0.000000 0.543928 -0.000000
v 0.000000 -0.543928 0.000000
v 0.000000 0.000000 0.543928
v 3.846154 0.543928 -0.000000
v 3.846154 -0.000000 -0.543929
v 3.846154 -0.000000 0.543928
v 3.846154 -0.543928 -0.000000
v 0.383846 -0.000000 0.576923
v 3.845385 -0.000000 0.576923
v 0.383846 -0.769231 0.576923
v 3.845385 -0.769231 0.576923
v 3.845385 -0.000000 -0.576923
v 0.383846 0.000000 -0.576923
v 3.845385 -0.769231 -0.576923
v 0.383846 -0.769231 -0.576923
v 3.845385 -0.000000 -0.576923
v 3.845385 -0.000000 0.576923
v 0.383846 0.000000 -0.576923
v 0.383846 -0.000000 0.576923
v 0.383846 -0.769231 -0.576923
v 0.383846 -0.769231 0.576923
v 3.845385 -0.769231 -0.576923
v 3.845385 -0.769231 0.576923
v 0.383846 0.000000 -0.576923
v 0.383846 -0.000000 0.576923
v 0.383846 -0.769231 -0.576923
v 0.383846 -0.769231 0.576923
v 3.845385 -0.000000 0.576923
v 3.845385 -0.000000 -0.576923
v 3.845385 -0.769231 0.576923
v 3.845385 -0.769231 -0.576923
v 3.460770 -0.769231 0.384615
v 3.845385 -0.769231 0.384615
v 3.460770 -1.153846 0.384615
v 3.845385 -1.153846 0.384615
v 3.845385 -0.769231 -0.384616
v 3.460770 -0.769231 -0.384616
v 3.845385 -1.153846 -0.384616
v 3.460770 -1.153846 -0.384616
v 3.845385 -0.769231 -0.384616
v 3.845385 -0.769231 0.384615
v 3.460770 -0.769231 -0.384616
v 3.460770 -0.769231 0.384615
v 3.460770 -1.153846 -0.384616
v 3.460770 -1.153846 0.384615
v 3.845385 -1.153846 -0.384616
v 3.845385 -1.153846 0.384615
v 3.460770 -0.769231 -0.384616
v 3.460770 -0.769231 0.384615
v 3.460770 -1.153846 -0.384616
v 3.460770 -1.153846 0.384615
v 3.845385 -0.769231 0.384615
v 3.845385 -0.769231 -0.384616
v 3.845385 -1.153846 0.384615
v 3.845385 -1.153846 -0.384616
v 1.537693 -0.769231 0.576923
v 2.691539 -0.769231 0.576923
v 1.537693 -3.461539 0.576923
v 2.691539 -3.461539 0.576922
v 2.691539 -0.769231 -0.576923
v 1.537693 -0.769231 -0.576923
v 2.691539 -3.461539 -0.576924
v 1.537693 -3.461539 -0.576924
v 2.691539 -0.769231 -0.576923
v 2.691539 -0.769231 0.576923
v 1.537693 -0.769231 -0.576923
v 1.537693 -0.769231 0.576923
v 1.537693 -3.461539 -0.576924
v 1.537693 -3.461539 0.576923
v 2.691539 -3.461539 -0.576924
v 2.691539 -3.461539 0.576922
v 1.537693 -0.769231 -0.576923
v 1.537693 -0.769231 0.576923
v 1.537693 -3.461539 -0.576924
v 1.537693 -3.461539 0.576923
v 2.691539 -0.769231 0.576923
v 2.691539 -0.769231 -0.576923
v 2.691539 -3.461539 0.576922
v 2.691539 -3.461539 -0.576924
vn -0.0000 0.7071 0.7071
vn -0.0000 -0.7071 -0.7071
vn -0.0000 0.7071 -0.7071
vn -0.0000 -0.7071 0.7071
vn -1.0000 -0.0000 -0.0000
vn 1.0000 -0.0000 -0.0000
vn -0.0000 -0.0000 1.0000
vn -0.0000 -0.0000 -1.0000
vn -0.0000 1.0000 -0.0000
vn -0.0000 -1.0000 -0.0000
vt 0.375000 1.000000
vt 0.375000 0.937500
vt 0.687500 1.000000
vt 0.687500 0.937500
vt 0.375000 0.875000
vt 0.687500 0.875000
vt 0.437500 0.562500
vt 0.437500 0.875000
vt 0.375000 0.562500
vt 0.500000 0.875000
vt 0.500000 0.562500
vt 0.500000 0.500000
vt 0.500000 0.437500
vt 0.562500 0.500000
vt 0.562500 0.437500
vt 0.500000 0.625000
vt 0.562500 0.625000
vt 0.562500 0.562500
vt 0.375000 0.500000
vt 0.656250 0.562500
vt 0.656250 0.500000
vt 0.500000 0.812500
vt 0.781250 0.875000
vt 0.781250 0.812500
vt 0.093750 0.718750
vt 0.093750 1.000000
vt 0.000000 0.718750
vt 0.000000 1.000000
vt 0.218750 1.000000
vt 0.218750 0.718750
vt 0.125000 1.000000
vt 0.125000 0.718750
vt 0.375000 0.437500
vt 0.468750 0.500000
vt 0.468750 0.437500
vt 0.500000 0.687500
vt 0.593750 0.687500
vt 0.593750 0.625000
vt 0.000000 0.437500
vt 0.000000 0.406250
vt 0.031250 0.437500
vt 0.031250 0.406250
vt 0.250000 0.750000
vt 0.250000 0.531250
vt 0.343750 0.750000
vt 0.343750 0.531250
vt 0.125000 0.687500
vt 0.125000 0.468750
vt 0.218750 0.687500
vt 0.218750 0.468750
vt 0.593750 0.718750
vt 0.593750 0.812500
vt 0.500000 0.718750
vt 0.343750 0.500000
vt 0.343750 0.406250
vt 0.250000 0.500000
vt 0.250000 0.406250
vt 0.000000 0.687500
vt 0.000000 0.468750
vt 0.093750 0.687500
vt 0.093750 0.468750
vt 0.250000 1.000000
vt 0.250000 0.781250
vt 0.343750 1.000000
vt 0.343750 0.781250
s 0
usemtl Material_0
f 1/1/1 3/2/1 2/3/1
f 3/2/1 4/4/1 2/3/1
f 5/2/2 7/5/2 6/4/2
f 7/5/2 8/6/2 6/4/2
f 9/7/3 11/8/3 10/9/3
f 11/8/3 12/5/3 10/9/3
f 13/10/4 15/11/4 14/8/4
f 15/11/4 16/7/4 14/8/4
f 17/12/5 19/13/5 18/14/5
f 19/13/5 20/15/5 18/14/5
f 21/16/6 23/11/6 22/17/6
f 23/11/6 24/18/6 22/17/6
f 25/9/7 27/19/7 26/20/7
f 27/19/7 28/21/7 26/20/7
f 29/10/8 31/22/8 30/23/8
f 31/22/8 32/24/8 30/23/8
f 33/25/9 35/26/9 34/27/9
f 35/26/9 36/28/9 34/27/9
f 37/29/10 39/30/10 38/31/10
f 39/30/10 40/32/10 38/31/10
f 41/19/5 43/33/5 42/34/5
f 43/33/5 44/35/5 42/34/5
f 45/36/6 47/16/6 46/37/6
f 47/16/6 48/38/6 46/37/6
f 49/39/7 51/40/7 50/41/7
f 51/40/7 52/42/7 50/41/7
f 53/39/8 55/40/8 54/41/8
f 55/40/8 56/42/8 54/41/8
f 57/39/9 59/40/9 58/41/9
f 59/40/9 60/42/9 58/41/9
f 61/39/10 63/40/10 62/41/10
f 63/40/10 64/42/10 62/41/10
f 65/39/5 67/40/5 66/41/5
f 67/40/5 68/42/5 66/41/5
f 69/39/6 71/40/6 70/41/6
f 71/40/6 72/42/6 70/41/6
f 73/43/7 75/44/7 74/45/7
f 75/44/7 76/46/7 74/45/7
f 77/47/8 79/48/8 78/49/8
f 79/48/8 80/50/8 78/49/8
f 81/51/9 83/52/9 82/53/9
f 83/52/9 84/22/9 82/53/9
f 85/54/10 87/55/10 86/56/10
f 87/55/10 88/57/10 86/56/10
f 89/58/5 91/59/5 90/60/5
f 91/59/5 92/61/5 90/60/5
f 93/62/6 95/63/6 94/64/6
f 95/63/6 96/65/6 94/64/6
