# Blender 5.0.1
# www.blender.org
mtllib lev.mp153stock.mtl
o attachmentModel
v 0.576923 -0.680218 8.021347
v 0.576923 -0.680218 2.252116
v 0.576923 -2.603295 8.021347
v 0.576923 -2.603295 2.252116
v -0.576923 -0.680218 2.252116
v -0.576923 -0.680218 8.021347
v -0.576923 -2.603295 2.252116
v -0.576923 -2.603295 8.021347
v -0.576923 -0.680218 2.252116
v 0.576923 -0.680218 2.252116
v -0.576923 -0.680218 8.021347
v 0.576923 -0.680218 8.021347
v -0.576923 -2.603295 8.021347
v 0.576923 -2.603295 8.021347
v -0.576923 -2.603295 2.252116
v 0.576923 -2.603295 2.252116
v -0.576923 -0.680218 8.021347
v 0.576923 -0.680218 8.021347
v -0.576923 -2.603295 8.021347
v 0.576923 -2.603295 8.021347
v 0.576923 -0.680218 2.252116
v -0.576923 -0.680218 2.252116
v 0.576923 -2.603295 2.252116
v -0.576923 -2.603295 2.252116
v 0.576154 -1.177488 2.842706
v 0.576154 0.000000 0.000000
v 0.576154 -2.603318 2.252108
v 0.576154 -1.425830 -0.590598
v -0.576154 0.000000 0.000000
v -0.576154 -1.177488 2.842706
v -0.576154 -1.425830 -0.590598
v -0.576154 -2.603318 2.252108
v -0.576154 0.000000 0.000000
v 0.576154 0.000000 0.000000
v -0.576154 -1.177488 2.842706
v 0.576154 -1.177488 2.842706
v -0.576154 -2.603318 2.252108
v 0.576154 -2.603318 2.252108
v -0.576154 -1.425830 -0.590598
v 0.576154 -1.425830 -0.590598
v -0.576154 -1.177488 2.842706
v 0.576154 -1.177488 2.842706
v -0.576154 -2.603318 2.252108
v 0.576154 -2.603318 2.252108
v 0.576154 0.000000 0.000000
v -0.576154 0.000000 0.000000
v 0.576154 -1.425830 -0.590598
v -0.576154 -1.425830 -0.590598
v 0.575385 -1.181941 2.047987
v 0.575385 -1.770685 0.626634
v 0.575385 -2.603294 2.636731
v 0.575385 -3.192038 1.215378
v -0.575385 -1.770685 0.626634
v -0.575385 -1.181941 2.047987
v -0.575385 -3.192038 1.215378
v -0.575385 -2.603294 2.636731
v -0.575385 -1.770685 0.626634
v 0.575385 -1.770685 0.626634
v -0.575385 -1.181941 2.047987
v 0.575385 -1.181941 2.047987
v -0.575385 -2.603294 2.636731
v 0.575385 -2.603294 2.636731
v -0.575385 -3.192038 1.215378
v 0.575385 -3.192038 1.215378
v -0.575385 -1.181941 2.047987
v 0.575385 -1.181941 2.047987
v -0.575385 -2.603294 2.636731
v 0.575385 -2.603294 2.636731
v 0.575385 -1.770685 0.626634
v -0.575385 -1.770685 0.626634
v 0.575385 -3.192038 1.215378
v -0.575385 -3.192038 1.215378
v 0.576154 -2.335788 6.687013
v 0.576154 -0.863929 3.133630
v 0.576154 -3.757141 6.098269
v 0.576154 -2.285282 2.544886
v -0.576154 -0.863929 3.133630
v -0.576154 -2.335788 6.687013
v -0.576154 -2.285282 2.544886
v -0.576154 -3.757141 6.098269
v -0.576154 -0.863929 3.133630
v 0.576154 -0.863929 3.133630
v -0.576154 -2.335788 6.687013
v 0.576154 -2.335788 6.687013
v -0.576154 -3.757141 6.098269
v 0.576154 -3.757141 6.098269
v -0.576154 -2.285282 2.544886
v 0.576154 -2.285282 2.544886
v -0.576154 -2.335788 6.687013
v 0.576154 -2.335788 6.687013
v -0.576154 -3.757141 6.098269
v 0.576154 -3.757141 6.098269
v 0.576154 -0.863929 3.133630
v -0.576154 -0.863929 3.133630
v 0.576154 -2.285282 2.544886
v -0.576154 -2.285282 2.544886
v 0.576923 -2.603295 8.021347
v 0.576923 -2.603295 6.098269
v 0.576923 -3.757141 8.021347
v 0.576923 -3.757141 6.098269
v -0.576923 -2.603295 6.098269
v -0.576923 -2.603295 8.021347
v -0.576923 -3.757141 6.098269
v -0.576923 -3.757141 8.021347
v -0.576923 -2.603295 6.098269
v 0.576923 -2.603295 6.098269
v -0.576923 -2.603295 8.021347
v 0.576923 -2.603295 8.021347
v -0.576923 -3.757141 8.021347
v 0.576923 -3.757141 8.021347
v -0.576923 -3.757141 6.098269
v 0.576923 -3.757141 6.098269
v -0.576923 -2.603295 8.021347
v 0.576923 -2.603295 8.021347
v -0.576923 -3.757141 8.021347
v 0.576923 -3.757141 8.021347
v 0.576923 -2.603295 6.098269
v -0.576923 -2.603295 6.098269
v 0.576923 -3.757141 6.098269
v -0.576923 -3.757141 6.098269
vn 1.0000 -0.0000 -0.0000
vn -1.0000 -0.0000 -0.0000
vn -0.0000 1.0000 -0.0000
vn -0.0000 -1.0000 -0.0000
vn -0.0000 -0.0000 1.0000
vn -0.0000 -0.0000 -1.0000
vn -0.0000 0.9239 0.3827
vn -0.0000 -0.9239 -0.3827
vn -0.0000 -0.3827 0.9239
vn -0.0000 0.3827 -0.9239
vn -0.0000 0.9239 -0.3827
vn -0.0000 -0.9239 0.3827
vn -0.0000 0.3827 0.9239
vn -0.0000 -0.3827 -0.9239
vt 0.468750 0.812500
vt 0.468750 0.656250
vt 0.000000 0.812500
vt 0.000000 0.656250
vt 0.093750 0.156250
vt 0.093750 0.625000
vt 0.000000 0.156250
vt 0.000000 0.625000
vt 0.218750 0.625000
vt 0.218750 0.156250
vt 0.125000 0.625000
vt 0.125000 0.156250
vt 0.750000 0.562500
vt 0.750000 0.406250
vt 0.843750 0.562500
vt 0.843750 0.406250
vt 0.687500 0.750000
vt 0.687500 0.593750
vt 0.781250 0.750000
vt 0.781250 0.593750
vt 0.500000 0.875000
vt 0.500000 0.750000
vt 0.750000 0.875000
vt 0.750000 0.750000
vt 0.250000 0.500000
vt 0.250000 0.375000
vt 0.500000 0.500000
vt 0.500000 0.375000
vt 0.656250 0.500000
vt 0.656250 0.750000
vt 0.562500 0.500000
vt 0.562500 0.750000
vt 0.468750 0.375000
vt 0.468750 0.125000
vt 0.375000 0.375000
vt 0.375000 0.125000
vt 0.812500 1.000000
vt 0.812500 0.875000
vt 0.906250 1.000000
vt 0.906250 0.875000
vt 0.750000 0.375000
vt 0.750000 0.250000
vt 0.843750 0.375000
vt 0.843750 0.250000
vt 0.625000 0.500000
vt 0.625000 0.375000
vt 0.750000 0.500000
vt 0.625000 0.250000
vt 0.218750 0.000000
vt 0.218750 0.125000
vt 0.125000 0.000000
vt 0.125000 0.125000
vt 0.468750 0.000000
vt 0.375000 0.000000
vt 0.000000 0.125000
vt 0.000000 0.000000
vt 0.093750 0.125000
vt 0.093750 0.000000
vt 0.812500 0.250000
vt 0.812500 0.125000
vt 0.906250 0.250000
vt 0.906250 0.125000
vt 0.250000 0.625000
vt 0.562500 0.625000
vt 0.593750 0.187500
vt 0.593750 0.500000
vt 0.500000 0.187500
vt 0.343750 0.375000
vt 0.343750 0.062500
vt 0.250000 0.062500
vt 0.875000 0.437500
vt 0.875000 0.312500
vt 0.968750 0.437500
vt 0.968750 0.312500
vt 0.875000 0.562500
vt 0.968750 0.562500
vt 0.750000 0.781250
vt 0.906250 0.781250
vt 0.625000 0.156250
vt 0.781250 0.250000
vt 0.781250 0.156250
vt 0.906250 0.593750
vt 0.906250 0.750000
vt 0.812500 0.593750
vt 0.812500 0.750000
vt 0.593750 0.031250
vt 0.500000 0.031250
vt 0.750000 0.125000
vt 0.750000 0.031250
vt 0.843750 0.125000
vt 0.843750 0.031250
vt 0.625000 0.125000
vt 0.625000 0.031250
vt 0.718750 0.125000
vt 0.718750 0.031250
s 0
usemtl Material_0
f 1/1/1 3/2/1 2/3/1
f 3/2/1 4/4/1 2/3/1
f 5/3/2 7/4/2 6/1/2
f 7/4/2 8/2/2 6/1/2
f 9/5/3 11/6/3 10/7/3
f 11/6/3 12/8/3 10/7/3
f 13/9/4 15/10/4 14/11/4
f 15/10/4 16/12/4 14/11/4
f 17/13/5 19/14/5 18/15/5
f 19/14/5 20/16/5 18/15/5
f 21/17/6 23/18/6 22/19/6
f 23/18/6 24/20/6 22/19/6
f 25/21/1 27/22/1 26/23/1
f 27/22/1 28/24/1 26/23/1
f 29/25/2 31/26/2 30/27/2
f 31/26/2 32/28/2 30/27/2
f 33/29/7 35/30/7 34/31/7
f 35/30/7 36/32/7 34/31/7
f 37/33/8 39/34/8 38/35/8
f 39/34/8 40/36/8 38/35/8
f 41/37/9 43/38/9 42/39/9
f 43/38/9 44/40/9 42/39/9
f 45/41/10 47/42/10 46/43/10
f 47/42/10 48/44/10 46/43/10
f 49/45/1 51/46/1 50/47/1
f 51/46/1 52/41/1 50/47/1
f 53/46/2 55/48/2 54/41/2
f 55/48/2 56/42/2 54/41/2
f 57/49/11 59/50/11 58/51/11
f 59/50/11 60/52/11 58/51/11
f 61/34/12 63/53/12 62/36/12
f 63/53/12 64/54/12 62/36/12
f 65/55/13 67/56/13 66/57/13
f 67/56/13 68/58/13 66/57/13
f 69/59/14 71/60/14 70/61/14
f 71/60/14 72/62/14 70/61/14
f 73/63/1 75/25/1 74/64/1
f 75/25/1 76/31/1 74/64/1
f 77/64/2 79/31/2 78/63/2
f 79/31/2 80/25/2 78/63/2
f 81/65/7 83/66/7 82/67/7
f 83/66/7 84/27/7 82/67/7
f 85/68/8 87/69/8 86/26/8
f 87/69/8 88/70/8 86/26/8
f 89/71/9 91/72/9 90/73/9
f 91/72/9 92/74/9 90/73/9
f 93/75/10 95/71/10 94/76/10
f 95/71/10 96/73/10 94/76/10
f 97/23/1 99/77/1 98/40/1
f 99/77/1 100/78/1 98/40/1
f 101/48/2 103/79/2 102/80/2
f 103/79/2 104/81/2 102/80/2
f 105/82/3 107/83/3 106/84/3
f 107/83/3 108/85/3 106/84/3
f 109/65/4 111/86/4 110/67/4
f 111/86/4 112/87/4 110/67/4
f 113/88/5 115/89/5 114/90/5
f 115/89/5 116/91/5 114/90/5
f 117/92/6 119/93/6 118/94/6
f 119/93/6 120/95/6 118/94/6
