# Blender 4.2.2 LTS
# www.blender.org
mtllib lev.m4stock.mtl
o attachmentModel
v -0.000000 0.543928 0.769231
v -0.000000 0.543928 0.000000
v 0.543928 0.000000 0.769231
v 0.543928 0.000000 0.000000
v -0.543928 -0.000000 0.000000
v -0.543928 -0.000000 0.769231
v 0.000000 -0.543928 0.000000
v 0.000000 -0.543928 0.769231
v -0.543928 -0.000000 0.000000
v -0.000000 0.543928 0.000000
v -0.543928 -0.000000 0.769231
v -0.000000 0.543928 0.769231
v 0.000000 -0.543928 0.769231
v 0.543928 0.000000 0.769231
v 0.000000 -0.543928 0.000000
v 0.543928 0.000000 0.000000
v -0.543928 -0.000000 0.769231
v -0.000000 0.543928 0.769231
v 0.000000 -0.543928 0.769231
v 0.543928 0.000000 0.769231
v -0.000000 0.543928 0.000000
v -0.543928 -0.000000 0.000000
v 0.543928 0.000000 0.000000
v 0.000000 -0.543928 0.000000
v 0.576923 0.576923 5.384615
v 0.576923 0.576923 0.769231
v 0.576923 -0.576923 5.384615
v 0.576923 -0.576923 0.769231
v -0.576923 0.576923 0.769231
v -0.576923 0.576923 5.384615
v -0.576923 -0.576923 0.769231
v -0.576923 -0.576923 5.384615
v -0.576923 0.576923 0.769231
v 0.576923 0.576923 0.769231
v -0.576923 0.576923 5.384615
v 0.576923 0.576923 5.384615
v -0.576923 -0.576923 5.384615
v 0.576923 -0.576923 5.384615
v -0.576923 -0.576923 0.769231
v 0.576923 -0.576923 0.769231
v -0.576923 0.576923 5.384615
v 0.576923 0.576923 5.384615
v -0.576923 -0.576923 5.384615
v 0.576923 -0.576923 5.384615
v 0.576923 0.576923 0.769231
v -0.576923 0.576923 0.769231
v 0.576923 -0.576923 0.769231
v -0.576923 -0.576923 0.769231
v 0.384615 -0.576923 5.384615
v 0.384615 -0.576923 5.000000
v 0.384615 -2.884616 5.384615
v 0.384615 -2.884616 5.000000
v -0.384615 -0.576923 5.000000
v -0.384615 -0.576923 5.384615
v -0.384615 -2.884616 5.000000
v -0.384615 -2.884616 5.384615
v -0.384615 -0.576923 5.000000
v 0.384615 -0.576923 5.000000
v -0.384615 -0.576923 5.384615
v 0.384615 -0.576923 5.384615
v -0.384615 -2.884616 5.384615
v 0.384615 -2.884616 5.384615
v -0.384615 -2.884616 5.000000
v 0.384615 -2.884616 5.000000
v -0.384615 -0.576923 5.384615
v 0.384615 -0.576923 5.384615
v -0.384615 -2.884616 5.384615
v 0.384615 -2.884616 5.384615
v 0.384615 -0.576923 5.000000
v -0.384615 -0.576923 5.000000
v 0.384615 -2.884616 5.000000
v -0.384615 -2.884616 5.000000
v 0.383846 -2.612652 5.271964
v 0.383846 -1.796760 4.456072
v 0.383846 -2.884616 5.000000
v 0.383846 -2.068724 4.184108
v -0.383846 -1.796760 4.456072
v -0.383846 -2.612652 5.271964
v -0.383846 -2.068724 4.184108
v -0.383846 -2.884616 5.000000
v -0.383846 -1.796760 4.456072
v 0.383846 -1.796760 4.456072
v -0.383846 -2.612652 5.271964
v 0.383846 -2.612652 5.271964
v -0.383846 -2.884616 5.000000
v 0.383846 -2.884616 5.000000
v -0.383846 -2.068724 4.184108
v 0.383846 -2.068724 4.184108
v -0.383846 -2.612652 5.271964
v 0.383846 -2.612652 5.271964
v -0.383846 -2.884616 5.000000
v 0.383846 -2.884616 5.000000
v 0.383846 -1.796760 4.456072
v -0.383846 -1.796760 4.456072
v 0.383846 -2.068724 4.184108
v -0.383846 -2.068724 4.184108
v 0.383077 -2.091131 5.166748
v 0.383077 -1.796759 4.456071
v 0.383077 -2.446469 5.019562
v 0.383077 -2.152098 4.308886
v -0.383077 -1.796759 4.456071
v -0.383077 -2.091131 5.166748
v -0.383077 -2.152097 4.308886
v -0.383077 -2.446470 5.019562
v -0.383077 -1.796759 4.456071
v 0.383077 -1.796759 4.456071
v -0.383077 -2.091131 5.166748
v 0.383077 -2.091131 5.166748
v -0.383077 -2.446470 5.019562
v 0.383077 -2.446469 5.019562
v -0.383077 -2.152097 4.308886
v 0.383077 -2.152098 4.308886
v -0.383077 -2.091131 5.166748
v 0.383077 -2.091131 5.166748
v -0.383077 -2.446470 5.019562
v 0.383077 -2.446469 5.019562
v 0.383077 -1.796759 4.456071
v -0.383077 -1.796759 4.456071
v 0.383077 -2.152098 4.308886
v -0.383077 -2.152097 4.308886
v 0.384615 -0.961538 2.692308
v 0.384615 -0.961538 1.153846
v 0.384615 -1.730769 2.692308
v 0.384615 -1.730769 1.153846
v -0.384615 -0.961538 1.153846
v -0.384615 -0.961538 2.692308
v -0.384615 -1.730769 1.153846
v -0.384615 -1.730769 2.692308
v -0.384615 -0.961538 1.153846
v 0.384615 -0.961538 1.153846
v -0.384615 -0.961538 2.692308
v 0.384615 -0.961538 2.692308
v -0.384615 -1.730769 2.692308
v 0.384615 -1.730769 2.692308
v -0.384615 -1.730769 1.153846
v 0.384615 -1.730769 1.153846
v -0.384615 -0.961538 2.692308
v 0.384615 -0.961538 2.692308
v -0.384615 -1.730769 2.692308
v 0.384615 -1.730769 2.692308
v 0.384615 -0.961538 1.153846
v -0.384615 -0.961538 1.153846
v 0.384615 -1.730769 1.153846
v -0.384615 -1.730769 1.153846
v 0.383846 -1.550283 4.113661
v 0.383846 -0.961539 2.692308
v 0.383846 -2.260959 3.819289
v 0.383846 -1.672215 2.397936
v -0.383846 -0.961539 2.692308
v -0.383846 -1.550283 4.113661
v -0.383846 -1.672215 2.397936
v -0.383846 -2.260959 3.819289
v -0.383846 -0.961539 2.692308
v 0.383846 -0.961539 2.692308
v -0.383846 -1.550283 4.113661
v 0.383846 -1.550283 4.113661
v -0.383846 -2.260959 3.819289
v 0.383846 -2.260959 3.819289
v -0.383846 -1.672215 2.397936
v 0.383846 -1.672215 2.397936
v -0.383846 -1.550283 4.113661
v 0.383846 -1.550283 4.113661
v -0.383846 -2.260959 3.819289
v 0.383846 -2.260959 3.819289
v 0.383846 -0.961539 2.692308
v -0.383846 -0.961539 2.692308
v 0.383846 -1.672215 2.397936
v -0.383846 -1.672215 2.397936
v 0.192308 -0.576923 1.923077
v 0.192308 -0.576923 1.538462
v 0.192308 -2.115385 1.923077
v 0.192308 -2.115385 1.538462
v -0.192308 -0.576923 1.538462
v -0.192308 -0.576923 1.923077
v -0.192308 -2.115385 1.538462
v -0.192308 -2.115385 1.923077
v -0.192308 -0.576923 1.538462
v 0.192308 -0.576923 1.538462
v -0.192308 -0.576923 1.923077
v 0.192308 -0.576923 1.923077
v -0.192308 -2.115385 1.923077
v 0.192308 -2.115385 1.923077
v -0.192308 -2.115385 1.538462
v 0.192308 -2.115385 1.538462
v -0.192308 -0.576923 1.923077
v 0.192308 -0.576923 1.923077
v -0.192308 -2.115385 1.923077
v 0.192308 -2.115385 1.923077
v 0.192308 -0.576923 1.538462
v -0.192308 -0.576923 1.538462
v 0.192308 -2.115385 1.538462
v -0.192308 -2.115385 1.538462
v 0.000769 -0.576923 5.000000
v 0.000769 -0.576923 1.153846
v 0.000769 -2.500000 5.000000
v 0.000769 -2.500000 1.153846
v -0.000000 -0.576923 1.153846
v -0.000000 -0.576923 5.000000
v 0.000000 -2.500000 1.153846
v 0.000000 -2.500000 5.000000
v -0.000000 -0.576923 1.153846
v 0.000769 -0.576923 1.153846
v -0.000000 -0.576923 5.000000
v 0.000769 -0.576923 5.000000
v 0.000000 -2.500000 5.000000
v 0.000769 -2.500000 5.000000
v 0.000000 -2.500000 1.153846
v 0.000769 -2.500000 1.153846
v -0.000000 -0.576923 5.000000
v 0.000769 -0.576923 5.000000
v 0.000000 -2.500000 5.000000
v 0.000769 -2.500000 5.000000
v 0.000769 -0.576923 1.153846
v -0.000000 -0.576923 1.153846
v 0.000769 -2.500000 1.153846
v 0.000000 -2.500000 1.153846
vn 0.7071 0.7071 -0.0000
vn -0.7071 -0.7071 -0.0000
vn -0.7071 0.7071 -0.0000
vn 0.7071 -0.7071 -0.0000
vn -0.0000 -0.0000 1.0000
vn -0.0000 -0.0000 -1.0000
vn 1.0000 -0.0000 -0.0000
vn -1.0000 -0.0000 -0.0000
vn -0.0000 1.0000 -0.0000
vn -0.0000 -1.0000 -0.0000
vn -0.0000 0.7071 0.7071
vn -0.0000 -0.7071 -0.7071
vn -0.0000 -0.7071 0.7071
vn -0.0000 0.7071 -0.7071
vn -0.0000 0.9239 0.3827
vn -0.0000 -0.9239 -0.3827
vn -0.0000 -0.3827 0.9239
vn -0.0000 0.3827 -0.9239
vn 0.0002 -1.0000 -0.0000
vn -0.0001 -1.0000 -0.0000
vn -0.0005 0.0005 1.0000
vn -0.0001 0.0001 -1.0000
vn 0.0001 -0.0001 -1.0000
vt 0.312500 0.375000
vt 0.312500 0.312500
vt 0.375000 0.375000
vt 0.375000 0.312500
vt 0.625000 0.625000
vt 0.625000 0.562500
vt 0.687500 0.625000
vt 0.687500 0.562500
vt 0.687500 0.500000
vt 0.625000 0.500000
vt 0.687500 0.437500
vt 0.625000 0.437500
vt 0.437500 0.375000
vt 0.437500 0.312500
vt 0.250000 0.375000
vt 0.250000 0.312500
vt 0.312500 1.000000
vt 0.312500 0.906250
vt 0.687500 1.000000
vt 0.687500 0.906250
vt 0.312500 0.875000
vt 0.312500 0.781250
vt 0.687500 0.875000
vt 0.687500 0.781250
vt 0.406250 0.375000
vt 0.406250 0.750000
vt 0.312500 0.750000
vt 0.093750 0.625000
vt 0.093750 0.250000
vt 0.000000 0.625000
vt 0.000000 0.250000
vt 0.437500 0.625000
vt 0.437500 0.531250
vt 0.531250 0.625000
vt 0.531250 0.531250
vt 0.437500 0.750000
vt 0.437500 0.656250
vt 0.531250 0.750000
vt 0.531250 0.656250
vt 0.125000 0.375000
vt 0.125000 0.187500
vt 0.156250 0.375000
vt 0.156250 0.187500
vt 0.187500 0.375000
vt 0.187500 0.187500
vt 0.218750 0.375000
vt 0.218750 0.187500
vt 0.812500 0.968750
vt 0.812500 1.000000
vt 0.750000 0.968750
vt 0.750000 1.000000
vt 0.125000 0.250000
vt 0.125000 0.218750
vt 0.062500 0.250000
vt 0.062500 0.218750
vt 0.187500 0.625000
vt 0.187500 0.437500
vt 0.250000 0.625000
vt 0.250000 0.437500
vt 0.125000 0.625000
vt 0.125000 0.437500
vt 0.437500 0.281250
vt 0.531250 0.312500
vt 0.531250 0.281250
vt 0.687500 0.531250
vt 0.781250 0.562500
vt 0.781250 0.531250
vt 0.562500 0.343750
vt 0.562500 0.437500
vt 0.500000 0.343750
vt 0.500000 0.437500
vt 0.625000 0.406250
vt 0.562500 0.500000
vt 0.562500 0.406250
vt 0.000000 0.218750
vt 0.687500 0.312500
vt 0.687500 0.281250
vt 0.750000 0.312500
vt 0.750000 0.281250
vt 0.687500 0.406250
vt 0.750000 0.437500
vt 0.750000 0.406250
vt 0.687500 0.375000
vt 0.687500 0.343750
vt 0.750000 0.375000
vt 0.750000 0.343750
vt 0.437500 0.250000
vt 0.375000 0.250000
vt 0.750000 0.625000
vt 0.750000 0.562500
vt 0.625000 0.312500
vt 0.625000 0.281250
vt 0.687500 0.468750
vt 0.750000 0.500000
vt 0.750000 0.468750
vt 0.437500 0.500000
vt 0.437500 0.437500
vt 0.312500 0.500000
vt 0.312500 0.625000
vt 0.250000 0.500000
vt 0.687500 0.750000
vt 0.687500 0.687500
vt 0.750000 0.750000
vt 0.750000 0.687500
vt 0.250000 0.250000
vt 0.312500 0.250000
vt 0.562500 0.750000
vt 0.562500 0.687500
vt 0.562500 0.625000
vt 0.500000 0.312500
vt 0.656250 0.437500
vt 0.656250 0.312500
vt 0.718750 0.875000
vt 0.718750 0.750000
vt 0.781250 0.906250
vt 0.781250 0.937500
vt 0.750000 0.906250
vt 0.750000 0.937500
vt 0.781250 0.875000
vt 0.781250 0.843750
vt 0.750000 0.875000
vt 0.750000 0.843750
vt 0.718750 1.000000
vt 0.562500 0.375000
vt 0.562500 0.250000
vt 0.593750 0.375000
vt 0.593750 0.250000
vt 0.000000 1.000000
vt 0.000000 0.843750
vt 0.312500 0.843750
vt 0.000000 0.812500
vt 0.000000 0.656250
vt 0.312500 0.812500
vt 0.312500 0.656250
vt 0.000000 0.687500
s 0
usemtl Material_0.001
f 1/1/1 3/2/1 2/3/1
f 3/2/1 4/4/1 2/3/1
f 5/5/2 7/6/2 6/7/2
f 7/6/2 8/8/2 6/7/2
f 9/9/3 11/8/3 10/10/3
f 11/8/3 12/6/3 10/10/3
f 13/9/4 15/11/4 14/10/4
f 15/11/4 16/12/4 14/10/4
f 17/3/5 19/4/5 18/13/5
f 19/4/5 20/14/5 18/13/5
f 21/15/6 23/16/6 22/1/6
f 23/16/6 24/2/6 22/1/6
f 25/17/7 27/18/7 26/19/7
f 27/18/7 28/20/7 26/19/7
f 29/21/8 31/22/8 30/23/8
f 31/22/8 32/24/8 30/23/8
f 33/25/9 35/26/9 34/1/9
f 35/26/9 36/27/9 34/1/9
f 37/28/10 39/29/10 38/30/10
f 39/29/10 40/31/10 38/30/10
f 41/32/5 43/33/5 42/34/5
f 43/33/5 44/35/5 42/34/5
f 45/36/6 47/37/6 46/38/6
f 47/37/6 48/39/6 46/38/6
f 49/40/7 51/41/7 50/42/7
f 51/41/7 52/43/7 50/42/7
f 53/44/8 55/45/8 54/46/8
f 55/45/8 56/47/8 54/46/8
f 57/48/9 59/49/9 58/50/9
f 59/49/9 60/51/9 58/50/9
f 61/52/10 63/53/10 62/54/10
f 63/53/10 64/55/10 62/54/10
f 65/56/5 67/57/5 66/58/5
f 67/57/5 68/59/5 66/58/5
f 69/60/6 71/61/6 70/56/6
f 71/61/6 72/57/6 70/56/6
f 73/14/7 75/62/7 74/63/7
f 75/62/7 76/64/7 74/63/7
f 77/8/8 79/65/8 78/66/8
f 79/65/8 80/67/8 78/66/8
f 81/68/11 83/69/11 82/70/11
f 83/69/11 84/71/11 82/70/11
f 85/10/12 87/72/12 86/73/12
f 87/72/12 88/74/12 86/73/12
f 89/31/13 91/75/13 90/54/13
f 91/75/13 92/55/13 90/54/13
f 93/76/14 95/77/14 94/78/14
f 95/77/14 96/79/14 94/78/14
f 97/11/7 99/80/7 98/81/7
f 99/80/7 100/82/7 98/81/7
f 101/83/8 103/84/8 102/85/8
f 103/84/8 104/86/8 102/85/8
f 105/87/15 107/14/15 106/88/15
f 107/14/15 108/4/15 106/88/15
f 109/89/16 111/90/16 110/7/16
f 111/90/16 112/8/16 110/7/16
f 113/91/17 115/92/17 114/76/17
f 115/92/17 116/77/17 114/76/17
f 117/9/18 119/93/18 118/94/18
f 119/93/18 120/95/18 118/94/18
f 121/96/7 123/97/7 122/73/7
f 123/97/7 124/69/7 122/73/7
f 125/61/8 127/40/8 126/59/8
f 127/40/8 128/15/8 126/59/8
f 129/98/9 131/99/9 130/100/9
f 131/99/9 132/58/9 130/100/9
f 133/98/10 135/1/10 134/100/10
f 135/1/10 136/15/10 134/100/10
f 137/101/5 139/102/5 138/103/5
f 139/102/5 140/104/5 138/103/5
f 141/16/6 143/105/6 142/2/6
f 143/105/6 144/106/6 142/2/6
f 145/107/7 147/108/7 146/101/7
f 147/108/7 148/102/7 146/101/7
f 149/108/8 151/109/8 150/102/8
f 151/109/8 152/7/8 150/102/8
f 153/10/15 155/5/15 154/73/15
f 155/5/15 156/109/15 154/73/15
f 157/71/16 159/110/16 158/97/16
f 159/110/16 160/14/16 158/97/16
f 161/102/17 163/7/17 162/104/17
f 163/7/17 164/89/17 162/104/17
f 165/2/18 167/106/18 166/4/18
f 167/106/18 168/88/18 166/4/18
f 169/12/7 171/91/7 170/111/7
f 171/91/7 172/112/7 170/111/7
f 173/23/8 175/101/8 174/113/8
f 175/101/8 176/114/8 174/113/8
f 177/115/9 179/116/9 178/117/9
f 179/116/9 180/118/9 178/117/9
f 181/119/10 183/120/10 182/121/10
f 183/120/10 184/122/10 182/121/10
f 185/19/5 187/23/5 186/123/5
f 187/23/5 188/113/5 186/123/5
f 189/124/6 191/125/6 190/126/6
f 191/125/6 192/127/6 190/126/6
f 193/128/7 195/129/7 194/17/7
f 195/129/7 196/130/7 194/17/7
f 197/131/8 199/132/8 198/133/8
f 199/132/8 200/134/8 198/133/8
f 201/135/9 203/128/9 202/135/9
f 203/128/9 204/128/9 202/135/9
f 205/128/19 207/135/19 206/128/19
f 207/135/20 208/135/20 206/128/20
f 209/128/21 211/129/21 210/128/21
f 211/129/5 212/129/5 210/128/5
f 213/128/22 215/129/22 214/128/22
f 215/129/23 216/129/23 214/128/23
