# Blender 5.0.0
# www.blender.org
mtllib lev.sturmgriff.mtl
o attachmentModel
v -0.769231 0.000000 0.769231
v 0.769231 0.000000 0.769231
v -0.769231 -0.769231 0.769231
v 0.769231 -0.769231 0.769231
v 0.769231 0.000000 -0.769231
v -0.769231 0.000000 -0.769231
v 0.769231 -0.769231 -0.769231
v -0.769231 -0.769231 -0.769231
v 0.769231 0.000000 -0.769231
v 0.769231 0.000000 0.769231
v -0.769231 0.000000 -0.769231
v -0.769231 0.000000 0.769231
v -0.769231 -0.769231 -0.769231
v -0.769231 -0.769231 0.769231
v 0.769231 -0.769231 -0.769231
v 0.769231 -0.769231 0.769231
v -0.769231 0.000000 -0.769231
v -0.769231 0.000000 0.769231
v -0.769231 -0.769231 -0.769231
v -0.769231 -0.769231 0.769231
v 0.769231 0.000000 0.769231
v 0.769231 0.000000 -0.769231
v 0.769231 -0.769231 0.769231
v 0.769231 -0.769231 -0.769231
v -0.543928 -0.769231 -0.000000
v -0.000000 -0.769231 0.543928
v -0.543928 -3.846154 -0.000000
v -0.000000 -3.846154 0.543928
v 0.543928 -0.769231 0.000000
v 0.000000 -0.769231 -0.543928
v 0.543928 -3.846154 0.000000
v 0.000000 -3.846154 -0.543928
v 0.543928 -0.769231 0.000000
v -0.000000 -0.769231 0.543928
v 0.000000 -0.769231 -0.543928
v -0.543928 -0.769231 -0.000000
v 0.000000 -3.846154 -0.543928
v -0.543928 -3.846154 -0.000000
v 0.543928 -3.846154 0.000000
v -0.000000 -3.846154 0.543928
v 0.000000 -0.769231 -0.543928
v -0.543928 -0.769231 -0.000000
v 0.000000 -3.846154 -0.543928
v -0.543928 -3.846154 -0.000000
v -0.000000 -0.769231 0.543928
v 0.543928 -0.769231 0.000000
v -0.000000 -3.846154 0.543928
v 0.543928 -3.846154 0.000000
v -0.576923 -1.153846 0.576923
v 0.576923 -1.153846 0.576923
v -0.576923 -3.461539 0.576923
v 0.576923 -3.461539 0.576923
v 0.576923 -1.153846 -0.576923
v -0.576923 -1.153846 -0.576923
v 0.576923 -3.461539 -0.576923
v -0.576923 -3.461539 -0.576923
v 0.576923 -1.153846 -0.576923
v 0.576923 -1.153846 0.576923
v -0.576923 -1.153846 -0.576923
v -0.576923 -1.153846 0.576923
v -0.576923 -3.461539 -0.576923
v -0.576923 -3.461539 0.576923
v 0.576923 -3.461539 -0.576923
v 0.576923 -3.461539 0.576923
v -0.576923 -1.153846 -0.576923
v -0.576923 -1.153846 0.576923
v -0.576923 -3.461539 -0.576923
v -0.576923 -3.461539 0.576923
v 0.576923 -1.153846 0.576923
v 0.576923 -1.153846 -0.576923
v 0.576923 -3.461539 0.576923
v 0.576923 -3.461539 -0.576923
vn -0.0000 -0.0000 1.0000
vn -0.0000 -0.0000 -1.0000
vn -0.0000 1.0000 -0.0000
vn -0.0000 -1.0000 -0.0000
vn -1.0000 -0.0000 -0.0000
vn 1.0000 -0.0000 -0.0000
vn -0.7071 -0.0000 0.7071
vn 0.7071 -0.0000 -0.7071
vn -0.7071 -0.0000 -0.7071
vn 0.7071 -0.0000 0.7071
vt 0.437500 1.000000
vt 0.437500 0.937500
vt 0.562500 1.000000
vt 0.562500 0.937500
vt 0.437500 0.875000
vt 0.437500 0.812500
vt 0.562500 0.875000
vt 0.562500 0.812500
vt 0.375000 0.875000
vt 0.375000 1.000000
vt 0.250000 0.875000
vt 0.250000 1.000000
vt 0.375000 0.750000
vt 0.250000 0.750000
vt 0.375000 0.625000
vt 0.375000 0.562500
vt 0.500000 0.625000
vt 0.500000 0.562500
vt 0.312500 0.750000
vt 0.312500 0.500000
vt 0.375000 0.500000
vt 0.437500 0.750000
vt 0.250000 0.562500
vt 0.250000 0.625000
vt 0.187500 0.562500
vt 0.187500 0.625000
vt 0.250000 0.500000
vt 0.187500 0.500000
vt 0.000000 0.625000
vt 0.000000 0.375000
vt 0.062500 0.625000
vt 0.062500 0.375000
vt 0.125000 1.000000
vt 0.125000 0.812500
vt 0.218750 1.000000
vt 0.218750 0.812500
vt 0.125000 0.625000
vt 0.218750 0.625000
vt 0.156250 0.531250
vt 0.156250 0.625000
vt 0.062500 0.531250
vt 0.468750 0.750000
vt 0.468750 0.656250
vt 0.375000 0.656250
vt 0.000000 0.812500
vt 0.093750 0.812500
vt 0.093750 0.625000
vt 0.000000 1.000000
vt 0.093750 1.000000
s 0
usemtl Material_0
f 1/1/1 3/2/1 2/3/1
f 3/2/1 4/4/1 2/3/1
f 5/5/2 7/6/2 6/7/2
f 7/6/2 8/8/2 6/7/2
f 9/9/3 11/10/3 10/11/3
f 11/10/3 12/12/3 10/11/3
f 13/9/4 15/13/4 14/11/4
f 15/13/4 16/14/4 14/11/4
f 17/2/5 19/5/5 18/4/5
f 19/5/5 20/7/5 18/4/5
f 21/15/6 23/16/6 22/17/6
f 23/16/6 24/18/6 22/17/6
f 25/19/7 27/20/7 26/13/7
f 27/20/7 28/21/7 26/13/7
f 29/10/8 31/13/8 30/1/8
f 31/13/8 32/22/8 30/1/8
f 33/23/3 35/24/3 34/25/3
f 35/24/3 36/26/3 34/25/3
f 37/23/4 39/27/4 38/25/4
f 39/27/4 40/28/4 38/25/4
f 41/29/9 43/30/9 42/31/9
f 43/30/9 44/32/9 42/31/9
f 45/14/10 47/27/10 46/19/10
f 47/27/10 48/20/10 46/19/10
f 49/33/1 51/34/1 50/35/1
f 51/34/1 52/36/1 50/35/1
f 53/34/2 55/37/2 54/36/2
f 55/37/2 56/38/2 54/36/2
f 57/39/3 59/40/3 58/41/3
f 59/40/3 60/31/3 58/41/3
f 61/42/4 63/43/4 62/13/4
f 63/43/4 64/44/4 62/13/4
f 65/45/5 67/29/5 66/46/5
f 67/29/5 68/47/5 66/46/5
f 69/48/6 71/45/6 70/49/6
f 71/45/6 72/46/6 70/49/6
