# Blender 4.2.3 LTS
# www.blender.org
mtllib lev.tommy_stock.mtl
o attachmentModel
v -1.153846 0.000000 0.769231
v 0.769231 0.000000 0.769231
v -1.153846 -0.769231 0.769231
v 0.769231 -0.769231 0.769231
v 0.769231 0.000000 -0.769231
v -1.153846 0.000000 -0.769230
v 0.769231 -0.769231 -0.769231
v -1.153846 -0.769231 -0.769230
v 0.769231 0.000000 -0.769231
v 0.769231 0.000000 0.769231
v -1.153846 0.000000 -0.769230
v -1.153846 0.000000 0.769231
v -1.153846 -0.769231 -0.769230
v -1.153846 -0.769231 0.769231
v 0.769231 -0.769231 -0.769231
v 0.769231 -0.769231 0.769231
v -1.153846 0.000000 -0.769230
v -1.153846 0.000000 0.769231
v -1.153846 -0.769231 -0.769230
v -1.153846 -0.769231 0.769231
v 0.769231 0.000000 0.769231
v 0.769231 0.000000 -0.769231
v 0.769231 -0.769231 0.769231
v 0.769231 -0.769231 -0.769231
v -1.449018 -0.439146 0.768462
v 0.327673 0.296784 0.768461
v -1.007460 -1.505161 0.768462
v 0.769231 -0.769231 0.768461
v 0.327673 0.296784 -0.768462
v -1.449018 -0.439146 -0.768461
v 0.769231 -0.769231 -0.768462
v -1.007460 -1.505161 -0.768461
v 0.327673 0.296784 -0.768462
v 0.327673 0.296784 0.768461
v -1.449018 -0.439146 -0.768461
v -1.449018 -0.439146 0.768462
v -1.007460 -1.505161 -0.768461
v -1.007460 -1.505161 0.768462
v 0.769231 -0.769231 -0.768462
v 0.769231 -0.769231 0.768461
v -1.449018 -0.439146 -0.768461
v -1.449018 -0.439146 0.768462
v -1.007460 -1.505161 -0.768461
v -1.007460 -1.505161 0.768462
v 0.327673 0.296784 0.768461
v 0.327673 0.296784 -0.768462
v 0.769231 -0.769231 0.768461
v 0.769231 -0.769231 -0.768462
v -7.220650 -1.580920 0.576155
v -2.956591 0.185311 0.576154
v -6.190348 -4.068288 0.576155
v -1.926289 -2.302057 0.576154
v -2.956591 0.185311 -0.576153
v -7.220650 -1.580920 -0.576152
v -1.926289 -2.302057 -0.576153
v -6.190348 -4.068288 -0.576153
v -2.956591 0.185311 -0.576153
v -2.956591 0.185311 0.576154
v -7.220650 -1.580920 -0.576152
v -7.220650 -1.580920 0.576155
v -6.190348 -4.068288 -0.576153
v -6.190348 -4.068288 0.576155
v -1.926289 -2.302057 -0.576153
v -1.926289 -2.302057 0.576154
v -7.220650 -1.580920 -0.576152
v -7.220650 -1.580920 0.576155
v -6.190348 -4.068288 -0.576153
v -6.190348 -4.068288 0.576155
v -2.956591 0.185311 0.576154
v -2.956591 0.185311 -0.576153
v -1.926289 -2.302057 0.576154
v -1.926289 -2.302057 -0.576153
v -3.033402 -0.021229 0.576924
v -1.110325 -0.021229 0.576923
v -3.033402 -1.175075 0.576924
v -1.110325 -1.175075 0.576923
v -1.110325 -0.021229 -0.576923
v -3.033402 -0.021229 -0.576922
v -1.110325 -1.175075 -0.576923
v -3.033402 -1.175075 -0.576922
v -1.110325 -0.021229 -0.576923
v -1.110325 -0.021229 0.576923
v -3.033402 -0.021229 -0.576922
v -3.033402 -0.021229 0.576924
v -3.033402 -1.175075 -0.576922
v -3.033402 -1.175075 0.576924
v -1.110325 -1.175075 -0.576923
v -1.110325 -1.175075 0.576923
v -3.033402 -0.021229 -0.576922
v -3.033402 -0.021229 0.576924
v -3.033402 -1.175075 -0.576922
v -3.033402 -1.175075 0.576924
v -1.110325 -0.021229 0.576923
v -1.110325 -0.021229 -0.576923
v -1.110325 -1.175075 0.576923
v -1.110325 -1.175075 -0.576923
v -2.515033 -0.880704 0.576154
v -1.449018 -0.439146 0.576154
v -2.073475 -1.946718 0.576154
v -1.007460 -1.505161 0.576154
v -1.449018 -0.439146 -0.576154
v -2.515033 -0.880704 -0.576153
v -1.007460 -1.505161 -0.576154
v -2.073475 -1.946718 -0.576153
v -1.449018 -0.439146 -0.576154
v -1.449018 -0.439146 0.576154
v -2.515033 -0.880704 -0.576153
v -2.515033 -0.880704 0.576154
v -2.073475 -1.946718 -0.576153
v -2.073475 -1.946718 0.576154
v -1.007460 -1.505161 -0.576154
v -1.007460 -1.505161 0.576154
v -2.515033 -0.880704 -0.576153
v -2.515033 -0.880704 0.576154
v -2.073475 -1.946718 -0.576153
v -2.073475 -1.946718 0.576154
v -1.449018 -0.439146 0.576154
v -1.449018 -0.439146 -0.576154
v -1.007460 -1.505161 0.576154
v -1.007460 -1.505161 -0.576154
v -7.575989 -1.728106 0.576924
v -6.865312 -1.433734 0.576924
v -6.545687 -4.215474 0.576924
v -5.835011 -3.921102 0.576924
v -6.865312 -1.433734 -0.576922
v -7.575989 -1.728106 -0.576922
v -5.835011 -3.921102 -0.576922
v -6.545687 -4.215474 -0.576922
v -6.865312 -1.433734 -0.576922
v -6.865312 -1.433734 0.576924
v -7.575989 -1.728106 -0.576922
v -7.575989 -1.728106 0.576924
v -6.545687 -4.215474 -0.576922
v -6.545687 -4.215474 0.576924
v -5.835011 -3.921102 -0.576922
v -5.835011 -3.921102 0.576924
v -7.575989 -1.728106 -0.576922
v -7.575989 -1.728106 0.576924
v -6.545687 -4.215474 -0.576922
v -6.545687 -4.215474 0.576924
v -6.865312 -1.433734 0.576924
v -6.865312 -1.433734 -0.576922
v -5.835011 -3.921102 0.576924
v -5.835011 -3.921102 -0.576922
vn -0.0000 -0.0000 1.0000
vn -0.0000 -0.0000 -1.0000
vn -0.0000 1.0000 -0.0000
vn -0.0000 -1.0000 -0.0000
vn -1.0000 -0.0000 -0.0000
vn 1.0000 -0.0000 -0.0000
vn -0.3827 0.9239 -0.0000
vn 0.3827 -0.9239 -0.0000
vn -0.9239 -0.3827 -0.0000
vn 0.9239 0.3827 -0.0000
vt 0.750000 0.687500
vt 0.750000 0.625000
vt 0.906250 0.687500
vt 0.906250 0.625000
vt 0.375000 0.250000
vt 0.375000 0.187500
vt 0.531250 0.250000
vt 0.531250 0.187500
vt 0.625000 0.593750
vt 0.625000 0.750000
vt 0.500000 0.593750
vt 0.500000 0.750000
vt 0.625000 0.562500
vt 0.625000 0.406250
vt 0.500000 0.562500
vt 0.500000 0.406250
vt 0.875000 0.750000
vt 0.875000 0.687500
vt 1.000000 0.750000
vt 1.000000 0.687500
vt 0.250000 0.125000
vt 0.250000 0.062500
vt 0.375000 0.125000
vt 0.375000 0.062500
vt 0.625000 0.625000
vt 0.625000 0.531250
vt 0.781250 0.625000
vt 0.781250 0.531250
vt 0.500000 0.375000
vt 0.500000 0.281250
vt 0.656250 0.375000
vt 0.656250 0.281250
vt 0.750000 0.843750
vt 0.750000 1.000000
vt 0.625000 0.843750
vt 0.625000 1.000000
vt 0.750000 0.812500
vt 0.750000 0.656250
vt 0.625000 0.812500
vt 0.625000 0.656250
vt 0.250000 0.250000
vt 0.250000 0.156250
vt 0.375000 0.156250
vt 0.750000 0.718750
vt 0.875000 0.812500
vt 0.875000 0.718750
vt 0.375000 0.750000
vt 0.375000 0.531250
vt 0.000000 0.750000
vt 0.000000 0.531250
vt 0.468750 0.625000
vt 0.468750 1.000000
vt 0.375000 0.625000
vt 0.375000 1.000000
vt 0.468750 0.250000
vt 0.500000 1.000000
vt 0.500000 0.781250
vt 0.593750 1.000000
vt 0.593750 0.781250
vt 0.000000 0.500000
vt 0.000000 0.281250
vt 0.093750 0.500000
vt 0.093750 0.281250
vt 0.843750 0.375000
vt 0.843750 0.281250
vt 0.687500 0.375000
vt 0.687500 0.281250
vt 0.093750 0.093750
vt 0.093750 0.250000
vt 0.000000 0.093750
vt 0.000000 0.250000
vt 0.843750 1.000000
vt 0.843750 0.843750
vt 0.875000 0.875000
vt 0.875000 0.781250
vt 0.968750 0.875000
vt 0.968750 0.781250
vt 0.875000 1.000000
vt 0.875000 0.906250
vt 0.968750 1.000000
vt 0.968750 0.906250
vt 0.687500 0.250000
vt 0.687500 0.156250
vt 0.781250 0.250000
vt 0.781250 0.156250
vt 0.812500 0.625000
vt 0.812500 0.531250
vt 0.906250 0.531250
vt 0.906250 0.406250
vt 0.906250 0.500000
vt 0.812500 0.406250
vt 0.812500 0.500000
vt 0.906250 0.250000
vt 0.906250 0.156250
vt 0.812500 0.250000
vt 0.812500 0.156250
vt 0.375000 0.093750
vt 0.468750 0.187500
vt 0.468750 0.093750
vt 0.562500 0.250000
vt 0.562500 0.156250
vt 0.656250 0.250000
vt 0.656250 0.156250
vt 0.125000 0.250000
vt 0.125000 0.031250
vt 0.187500 0.250000
vt 0.187500 0.031250
vt 0.250000 0.031250
vt 0.593750 0.062500
vt 0.593750 0.125000
vt 0.500000 0.062500
vt 0.500000 0.125000
vt 0.718750 0.125000
vt 0.718750 0.062500
vt 0.625000 0.125000
vt 0.625000 0.062500
vt 0.250000 0.500000
vt 0.250000 0.281250
vt 0.343750 0.500000
vt 0.343750 0.281250
vt 0.125000 0.500000
vt 0.125000 0.281250
vt 0.218750 0.500000
vt 0.218750 0.281250
s 0
usemtl Material_0.002
f 1/1/1 3/2/1 2/3/1
f 3/2/1 4/4/1 2/3/1
f 5/5/2 7/6/2 6/7/2
f 7/6/2 8/8/2 6/7/2
f 9/9/3 11/10/3 10/11/3
f 11/10/3 12/12/3 10/11/3
f 13/13/4 15/14/4 14/15/4
f 15/14/4 16/16/4 14/15/4
f 17/17/5 19/18/5 18/19/5
f 19/18/5 20/20/5 18/19/5
f 21/21/6 23/22/6 22/23/6
f 23/22/6 24/24/6 22/23/6
f 25/25/1 27/26/1 26/27/1
f 27/26/1 28/28/1 26/27/1
f 29/29/2 31/30/2 30/31/2
f 31/30/2 32/32/2 30/31/2
f 33/33/7 35/34/7 34/35/7
f 35/34/7 36/36/7 34/35/7
f 37/37/8 39/38/8 38/39/8
f 39/38/8 40/40/8 38/39/8
f 41/41/9 43/42/9 42/5/9
f 43/42/9 44/43/9 42/5/9
f 45/37/10 47/44/10 46/45/10
f 47/44/10 48/46/10 46/45/10
f 49/47/1 51/48/1 50/49/1
f 51/48/1 52/50/1 50/49/1
f 53/49/2 55/50/2 54/47/2
f 55/50/2 56/48/2 54/47/2
f 57/51/7 59/52/7 58/53/7
f 59/52/7 60/54/7 58/53/7
f 61/51/8 63/55/8 62/53/8
f 63/55/8 64/5/8 62/53/8
f 65/56/9 67/57/9 66/58/9
f 67/57/9 68/59/9 66/58/9
f 69/60/10 71/61/10 70/62/10
f 71/61/10 72/63/10 70/62/10
f 73/64/1 75/65/1 74/66/1
f 75/65/1 76/67/1 74/66/1
f 77/66/2 79/67/2 78/64/2
f 79/67/2 80/65/2 78/64/2
f 81/68/3 83/69/3 82/70/3
f 83/69/3 84/71/3 82/70/3
f 85/72/4 87/73/4 86/34/4
f 87/73/4 88/33/4 86/34/4
f 89/74/5 91/75/5 90/76/5
f 91/75/5 92/77/5 90/76/5
f 93/78/6 95/79/6 94/80/6
f 95/79/6 96/81/6 94/80/6
f 97/82/1 99/83/1 98/84/1
f 99/83/1 100/85/1 98/84/1
f 101/86/2 103/87/2 102/4/2
f 103/87/2 104/88/2 102/4/2
f 105/89/7 107/90/7 106/91/7
f 107/90/7 108/92/7 106/91/7
f 109/93/8 111/94/8 110/95/8
f 111/94/8 112/96/8 110/95/8
f 113/6/9 115/97/9 114/98/9
f 115/97/9 116/99/9 114/98/9
f 117/100/10 119/101/10 118/102/10
f 119/101/10 120/103/10 118/102/10
f 121/104/1 123/105/1 122/106/1
f 123/105/1 124/107/1 122/106/1
f 125/106/2 127/107/2 126/41/2
f 127/107/2 128/108/2 126/41/2
f 129/109/7 131/110/7 130/111/7
f 131/110/7 132/112/7 130/111/7
f 133/113/8 135/114/8 134/115/8
f 135/114/8 136/116/8 134/115/8
f 137/117/9 139/118/9 138/119/9
f 139/118/9 140/120/9 138/119/9
f 141/121/10 143/122/10 142/123/10
f 143/122/10 144/124/10 142/123/10
