# Blender 4.3.2
# www.blender.org
mtllib lev.rpk74stock.mtl
o attachmentModel
v 0.769231 0.769231 0.769231
v 0.769231 0.769231 0.000000
v 0.769231 -0.769231 0.769231
v 0.769231 -0.769231 0.000000
v -0.769231 0.769231 0.000000
v -0.769231 0.769231 0.769231
v -0.769231 -0.769231 0.000000
v -0.769231 -0.769231 0.769231
v -0.769231 0.769231 0.000000
v 0.769231 0.769231 0.000000
v -0.769231 0.769231 0.769231
v 0.769231 0.769231 0.769231
v -0.769231 -0.769231 0.769231
v 0.769231 -0.769231 0.769231
v -0.769231 -0.769231 0.000000
v 0.769231 -0.769231 0.000000
v -0.769231 0.769231 0.769231
v 0.769231 0.769231 0.769231
v -0.769231 -0.769231 0.769231
v 0.769231 -0.769231 0.769231
v 0.769231 0.769231 0.000000
v -0.769231 0.769231 0.000000
v 0.769231 -0.769231 0.000000
v -0.769231 -0.769231 0.000000
v 0.576923 0.769231 7.692307
v 0.576923 0.769231 0.769231
v 0.576923 -0.769231 7.692307
v 0.576923 -0.769231 0.769231
v -0.576923 0.769231 0.769231
v -0.576923 0.769231 7.692307
v -0.576923 -0.769231 0.769231
v -0.576923 -0.769231 7.692307
v -0.576923 0.769231 0.769231
v 0.576923 0.769231 0.769231
v -0.576923 0.769231 7.692307
v 0.576923 0.769231 7.692307
v -0.576923 -0.769231 7.692307
v 0.576923 -0.769231 7.692307
v -0.576923 -0.769231 0.769231
v 0.576923 -0.769231 0.769231
v -0.576923 0.769231 7.692307
v 0.576923 0.769231 7.692307
v -0.576923 -0.769231 7.692307
v 0.576923 -0.769231 7.692307
v 0.576923 0.769231 0.769231
v -0.576923 0.769231 0.769231
v 0.576923 -0.769231 0.769231
v -0.576923 -0.769231 0.769231
v 0.576923 -0.769231 7.692307
v 0.576923 -0.769231 3.461539
v 0.576923 -3.076923 7.692307
v 0.576923 -3.076923 3.461539
v -0.576923 -0.769231 3.461539
v -0.576923 -0.769231 7.692307
v -0.576923 -3.076923 3.461539
v -0.576923 -3.076923 7.692307
v -0.576923 -0.769231 3.461539
v 0.576923 -0.769231 3.461539
v -0.576923 -0.769231 7.692307
v 0.576923 -0.769231 7.692307
v -0.576923 -3.076923 7.692307
v 0.576923 -3.076923 7.692307
v -0.576923 -3.076923 3.461539
v 0.576923 -3.076923 3.461539
v -0.576923 -0.769231 7.692307
v 0.576923 -0.769231 7.692307
v -0.576923 -3.076923 7.692307
v 0.576923 -3.076923 7.692307
v 0.576923 -0.769231 3.461539
v -0.576923 -0.769231 3.461539
v 0.576923 -3.076923 3.461539
v -0.576923 -3.076923 3.461539
v 0.576154 -0.147996 3.497248
v 0.576154 -0.589554 2.431233
v 0.576154 -2.635364 4.527549
v 0.576154 -3.076921 3.461535
v -0.576154 -0.589554 2.431233
v -0.576154 -0.147996 3.497248
v -0.576154 -3.076921 3.461535
v -0.576154 -2.635364 4.527549
v -0.576154 -0.589554 2.431233
v 0.576154 -0.589554 2.431233
v -0.576154 -0.147996 3.497248
v 0.576154 -0.147996 3.497248
v -0.576154 -2.635364 4.527549
v 0.576154 -2.635364 4.527549
v -0.576154 -3.076921 3.461535
v 0.576154 -3.076921 3.461535
v -0.576154 -0.147996 3.497248
v 0.576154 -0.147996 3.497248
v -0.576154 -2.635364 4.527549
v 0.576154 -2.635364 4.527549
v 0.576154 -0.589554 2.431233
v -0.576154 -0.589554 2.431233
v 0.576154 -3.076921 3.461535
v -0.576154 -3.076921 3.461535
vn 1.0000 -0.0000 -0.0000
vn -1.0000 -0.0000 -0.0000
vn -0.0000 1.0000 -0.0000
vn -0.0000 -1.0000 -0.0000
vn -0.0000 -0.0000 1.0000
vn -0.0000 -0.0000 -1.0000
vn -0.0000 0.9239 -0.3827
vn -0.0000 -0.9239 0.3827
vn -0.0000 0.3827 0.9239
vn -0.0000 -0.3827 -0.9239
vt 0.812500 0.875000
vt 0.812500 0.750000
vt 0.875000 0.875000
vt 0.875000 0.750000
vt 0.250000 0.187500
vt 0.250000 0.062500
vt 0.312500 0.187500
vt 0.312500 0.062500
vt 0.437500 0.125000
vt 0.437500 0.187500
vt 0.312500 0.125000
vt 1.000000 0.875000
vt 1.000000 0.812500
vt 0.875000 0.812500
vt 0.750000 0.625000
vt 0.750000 0.500000
vt 0.875000 0.625000
vt 0.875000 0.500000
vt 0.750000 0.750000
vt 0.562500 0.875000
vt 0.562500 0.750000
vt 0.000000 0.875000
vt 0.000000 0.750000
vt 0.093750 0.000000
vt 0.093750 0.562500
vt 0.000000 0.000000
vt 0.000000 0.562500
vt 0.218750 0.562500
vt 0.218750 0.000000
vt 0.125000 0.562500
vt 0.125000 0.000000
vt 0.750000 0.375000
vt 0.750000 0.250000
vt 0.843750 0.375000
vt 0.843750 0.250000
vt 0.843750 0.500000
vt 0.718750 0.750000
vt 0.718750 0.562500
vt 0.375000 0.750000
vt 0.375000 0.562500
vt 0.343750 0.218750
vt 0.343750 0.562500
vt 0.250000 0.218750
vt 0.250000 0.562500
vt 0.468750 0.562500
vt 0.468750 0.218750
vt 0.375000 0.218750
vt 0.625000 0.312500
vt 0.625000 0.125000
vt 0.718750 0.312500
vt 0.718750 0.125000
vt 0.500000 0.312500
vt 0.500000 0.125000
vt 0.593750 0.312500
vt 0.593750 0.125000
vt 0.781250 1.000000
vt 0.781250 0.781250
vt 0.687500 1.000000
vt 0.687500 0.781250
vt 0.843750 0.156250
vt 0.750000 0.156250
vt 0.906250 1.000000
vt 0.906250 0.906250
vt 0.812500 1.000000
vt 0.812500 0.906250
vt 0.625000 0.562500
vt 0.625000 0.343750
vt 0.718750 0.343750
vt 0.500000 0.562500
vt 0.500000 0.343750
vt 0.593750 0.562500
vt 0.593750 0.343750
s 0
usemtl Material_0.001
f 1/1/1 3/2/1 2/3/1
f 3/2/1 4/4/1 2/3/1
f 5/5/2 7/6/2 6/7/2
f 7/6/2 8/8/2 6/7/2
f 9/9/3 11/10/3 10/11/3
f 11/10/3 12/7/3 10/11/3
f 13/12/4 15/13/4 14/3/4
f 15/13/4 16/14/4 14/3/4
f 17/15/5 19/16/5 18/17/5
f 19/16/5 20/18/5 18/17/5
f 21/19/6 23/15/6 22/4/6
f 23/15/6 24/17/6 22/4/6
f 25/20/1 27/21/1 26/22/1
f 27/21/1 28/23/1 26/22/1
f 29/22/2 31/23/2 30/20/2
f 31/23/2 32/21/2 30/20/2
f 33/24/3 35/25/3 34/26/3
f 35/25/3 36/27/3 34/26/3
f 37/28/4 39/29/4 38/30/4
f 39/29/4 40/31/4 38/30/4
f 41/32/5 43/33/5 42/34/5
f 43/33/5 44/35/5 42/34/5
f 45/16/6 47/32/6 46/36/6
f 47/32/6 48/34/6 46/36/6
f 49/37/1 51/38/1 50/39/1
f 51/38/1 52/40/1 50/39/1
f 53/39/2 55/40/2 54/37/2
f 55/40/2 56/38/2 54/37/2
f 57/41/3 59/42/3 58/43/3
f 59/42/3 60/44/3 58/43/3
f 61/45/4 63/46/4 62/40/4
f 63/46/4 64/47/4 62/40/4
f 65/48/5 67/49/5 66/50/5
f 67/49/5 68/51/5 66/50/5
f 69/52/6 71/53/6 70/54/6
f 71/53/6 72/55/6 70/54/6
f 73/56/1 75/57/1 74/58/1
f 75/57/1 76/59/1 74/58/1
f 77/58/2 79/59/2 78/56/2
f 79/59/2 80/57/2 78/56/2
f 81/60/7 83/35/7 82/61/7
f 83/35/7 84/33/7 82/61/7
f 85/62/8 87/63/8 86/64/8
f 87/63/8 88/65/8 86/64/8
f 89/66/9 91/67/9 90/38/9
f 91/67/9 92/68/9 90/38/9
f 93/69/10 95/70/10 94/71/10
f 95/70/10 96/72/10 94/71/10
