# Blender 5.2.0 LTS
# www.blender.org
mtllib lev.montecarlo.mtl
o attachmentModel
v 0.672308 -0.576923 5.769231
v 0.672308 -0.576923 -2.307692
v 0.672308 -1.730769 5.769231
v 0.672308 -1.730769 -2.307692
v -0.672308 -0.576923 -2.307692
v -0.672308 -0.576923 5.769231
v -0.672308 -1.730769 -2.307692
v -0.672308 -1.730769 5.769231
v -0.672308 -0.576923 -2.307692
v 0.672308 -0.576923 -2.307692
v -0.672308 -0.576923 5.769231
v 0.672308 -0.576923 5.769231
v -0.672308 -1.730769 5.769231
v 0.672308 -1.730769 5.769231
v -0.672308 -1.730769 -2.307692
v 0.672308 -1.730769 -2.307692
v -0.672308 -0.576923 5.769231
v 0.672308 -0.576923 5.769231
v -0.672308 -1.730769 5.769231
v 0.672308 -1.730769 5.769231
v 0.672308 -0.576923 -2.307692
v -0.672308 -0.576923 -2.307692
v 0.672308 -1.730769 -2.307692
v -0.672308 -1.730769 -2.307692
v -0.203846 -0.961538 1.538462
v -0.203846 -0.961538 4.230769
v -0.203846 -0.576923 1.538462
v -0.203846 -0.576923 4.230769
v 0.673077 -0.961538 4.230769
v 0.673077 -0.961538 1.538462
v 0.673077 -0.576923 4.230769
v 0.673077 -0.576923 1.538462
v 0.673077 -0.961538 4.230769
v -0.203846 -0.961538 4.230769
v 0.673077 -0.961538 1.538462
v -0.203846 -0.961538 1.538462
v 0.673077 -0.576923 1.538462
v -0.203846 -0.576923 1.538462
v 0.673077 -0.576923 4.230769
v -0.203846 -0.576923 4.230769
v 0.673077 -0.961538 1.538462
v -0.203846 -0.961538 1.538462
v 0.673077 -0.576923 1.538462
v -0.203846 -0.576923 1.538462
v -0.203846 -0.961538 4.230769
v 0.673077 -0.961538 4.230769
v -0.203846 -0.576923 4.230769
v 0.673077 -0.576923 4.230769
v 0.576923 -0.576923 -2.307692
v 0.576923 -0.576923 -8.846154
v 0.576923 -1.730769 -2.307692
v 0.576923 -1.730769 -8.846154
v -0.576923 -0.576923 -8.846154
v -0.576923 -0.576923 -2.307692
v -0.576923 -1.730769 -8.846154
v -0.576923 -1.730769 -2.307692
v -0.576923 -0.576923 -8.846154
v 0.576923 -0.576923 -8.846154
v -0.576923 -0.576923 -2.307692
v 0.576923 -0.576923 -2.307692
v -0.576923 -1.730769 -2.307692
v 0.576923 -1.730769 -2.307692
v -0.576923 -1.730769 -8.846154
v 0.576923 -1.730769 -8.846154
v -0.576923 -0.576923 -2.307692
v 0.576923 -0.576923 -2.307692
v -0.576923 -1.730769 -2.307692
v 0.576923 -1.730769 -2.307692
v 0.576923 -0.576923 -8.846154
v -0.576923 -0.576923 -8.846154
v 0.576923 -1.730769 -8.846154
v -0.576923 -1.730769 -8.846154
v 0.000769 -1.923077 -6.153846
v 0.000769 -1.923077 -6.538462
v 0.000769 -2.307692 -6.153846
v 0.000769 -2.307692 -6.538462
v 0.000000 -1.923077 -6.538462
v 0.000000 -1.923077 -6.153846
v 0.000000 -2.307692 -6.538462
v 0.000000 -2.307692 -6.153846
v 0.000000 -1.923077 -6.538462
v 0.000769 -1.923077 -6.538462
v 0.000000 -1.923077 -6.153846
v 0.000769 -1.923077 -6.153846
v 0.000000 -2.307692 -6.153846
v 0.000769 -2.307692 -6.153846
v 0.000000 -2.307692 -6.538462
v 0.000769 -2.307692 -6.538462
v 0.000000 -1.923077 -6.153846
v 0.000769 -1.923077 -6.153846
v 0.000000 -2.307692 -6.153846
v 0.000769 -2.307692 -6.153846
v 0.000769 -1.923077 -6.538462
v 0.000000 -1.923077 -6.538462
v 0.000769 -2.307692 -6.538462
v 0.000000 -2.307692 -6.538462
v 0.672308 -1.730769 6.538462
v 0.672308 -1.730769 -1.153846
v 0.672308 -2.115385 6.538462
v 0.672308 -2.115385 -1.153846
v -0.672308 -1.730769 -1.153846
v -0.672308 -1.730769 6.538462
v -0.672308 -2.115385 -1.153846
v -0.672308 -2.115385 6.538462
v -0.672308 -1.730769 -1.153846
v 0.672308 -1.730769 -1.153846
v -0.672308 -1.730769 6.538462
v 0.672308 -1.730769 6.538462
v -0.672308 -2.115385 6.538462
v 0.672308 -2.115385 6.538462
v -0.672308 -2.115385 -1.153846
v 0.672308 -2.115385 -1.153846
v -0.672308 -1.730769 6.538462
v 0.672308 -1.730769 6.538462
v -0.672308 -2.115385 6.538462
v 0.672308 -2.115385 6.538462
v 0.672308 -1.730769 -1.153846
v -0.672308 -1.730769 -1.153846
v 0.672308 -2.115385 -1.153846
v -0.672308 -2.115385 -1.153846
v 0.384615 -1.538462 -0.961538
v 0.384615 -1.538462 -8.653846
v 0.384615 -1.923077 -0.961538
v 0.384615 -1.923077 -8.653846
v -0.384615 -1.538462 -8.653846
v -0.384615 -1.538462 -0.961538
v -0.384615 -1.923077 -8.653846
v -0.384615 -1.923077 -0.961538
v -0.384615 -1.538462 -8.653846
v 0.384615 -1.538462 -8.653846
v -0.384615 -1.538462 -0.961538
v 0.384615 -1.538462 -0.961538
v -0.384615 -1.923077 -0.961538
v 0.384615 -1.923077 -0.961538
v -0.384615 -1.923077 -8.653846
v 0.384615 -1.923077 -8.653846
v -0.384615 -1.538462 -0.961538
v 0.384615 -1.538462 -0.961538
v -0.384615 -1.923077 -0.961538
v 0.384615 -1.923077 -0.961538
v 0.384615 -1.538462 -8.653846
v -0.384615 -1.538462 -8.653846
v 0.384615 -1.923077 -8.653846
v -0.384615 -1.923077 -8.653846
v 0.671538 -1.312857 7.545923
v 0.671538 -0.576927 5.769231
v 0.671538 -2.378871 7.104365
v 0.671538 -1.642941 5.327673
v -0.671538 -0.576927 5.769231
v -0.671538 -1.312857 7.545923
v -0.671538 -1.642941 5.327673
v -0.671538 -2.378871 7.104365
v -0.671538 -0.576927 5.769231
v 0.671538 -0.576927 5.769231
v -0.671538 -1.312857 7.545923
v 0.671538 -1.312857 7.545923
v -0.671538 -2.378871 7.104365
v 0.671538 -2.378871 7.104365
v -0.671538 -1.642941 5.327673
v 0.671538 -1.642941 5.327673
v -0.671538 -1.312857 7.545923
v 0.671538 -1.312857 7.545923
v -0.671538 -2.378871 7.104365
v 0.671538 -2.378871 7.104365
v 0.671538 -0.576927 5.769231
v -0.671538 -0.576927 5.769231
v 0.671538 -1.642941 5.327673
v -0.671538 -1.642941 5.327673
v 0.576154 -1.312855 7.545924
v 0.576154 -2.128747 6.730031
v 0.576154 -2.400711 8.633780
v 0.576154 -3.216604 7.817888
v -0.576154 -2.128747 6.730031
v -0.576154 -1.312855 7.545924
v -0.576154 -3.216604 7.817888
v -0.576154 -2.400711 8.633780
v -0.576154 -2.128747 6.730031
v 0.576154 -2.128747 6.730031
v -0.576154 -1.312855 7.545924
v 0.576154 -1.312855 7.545924
v -0.576154 -2.400711 8.633780
v 0.576154 -2.400711 8.633780
v -0.576154 -3.216604 7.817888
v 0.576154 -3.216604 7.817888
v -0.576154 -1.312855 7.545924
v 0.576154 -1.312855 7.545924
v -0.576154 -2.400711 8.633780
v 0.576154 -2.400711 8.633780
v 0.576154 -2.128747 6.730031
v -0.576154 -2.128747 6.730031
v 0.576154 -3.216604 7.817888
v -0.576154 -3.216604 7.817888
v 0.576923 -1.134777 12.084270
v 0.576923 -1.134777 7.853500
v 0.576923 -3.057854 12.084270
v 0.576923 -3.057854 7.853500
v -0.576923 -1.134777 7.853500
v -0.576923 -1.134777 12.084270
v -0.576923 -3.057854 7.853500
v -0.576923 -3.057854 12.084270
v -0.576923 -1.134777 7.853500
v 0.576923 -1.134777 7.853500
v -0.576923 -1.134777 12.084270
v 0.576923 -1.134777 12.084270
v -0.576923 -3.057854 12.084270
v 0.576923 -3.057854 12.084270
v -0.576923 -3.057854 7.853500
v 0.576923 -3.057854 7.853500
v -0.576923 -1.134777 12.084270
v 0.576923 -1.134777 12.084270
v -0.576923 -3.057854 12.084270
v 0.576923 -3.057854 12.084270
v 0.576923 -1.134777 7.853500
v -0.576923 -1.134777 7.853500
v 0.576923 -3.057854 7.853500
v -0.576923 -3.057854 7.853500
v 0.576923 -3.057854 8.815039
v 0.576923 -3.057854 7.661192
v 0.576923 -3.442469 8.815039
v 0.576923 -3.442469 7.661192
v -0.576923 -3.057854 7.661192
v -0.576923 -3.057854 8.815039
v -0.576923 -3.442469 7.661192
v -0.576923 -3.442469 8.815039
v -0.576923 -3.057854 7.661192
v 0.576923 -3.057854 7.661192
v -0.576923 -3.057854 8.815039
v 0.576923 -3.057854 8.815039
v -0.576923 -3.442469 8.815039
v 0.576923 -3.442469 8.815039
v -0.576923 -3.442469 7.661192
v 0.576923 -3.442469 7.661192
v -0.576923 -3.057854 8.815039
v 0.576923 -3.057854 8.815039
v -0.576923 -3.442469 8.815039
v 0.576923 -3.442469 8.815039
v 0.576923 -3.057854 7.661192
v -0.576923 -3.057854 7.661192
v 0.576923 -3.442469 7.661192
v -0.576923 -3.442469 7.661192
v 0.576923 -1.519392 12.468885
v 0.576923 -1.519392 12.084270
v 0.576923 -3.057854 12.468885
v 0.576923 -3.057854 12.084270
v -0.576923 -1.519392 12.084270
v -0.576923 -1.519392 12.468885
v -0.576923 -3.057854 12.084270
v -0.576923 -3.057854 12.468885
v -0.576923 -1.519392 12.084270
v 0.576923 -1.519392 12.084270
v -0.576923 -1.519392 12.468885
v 0.576923 -1.519392 12.468885
v -0.576923 -3.057854 12.468885
v 0.576923 -3.057854 12.468885
v -0.576923 -3.057854 12.084270
v 0.576923 -3.057854 12.084270
v -0.576923 -1.519392 12.468885
v 0.576923 -1.519392 12.468885
v -0.576923 -3.057854 12.468885
v 0.576923 -3.057854 12.468885
v 0.576923 -1.519392 12.084270
v -0.576923 -1.519392 12.084270
v 0.576923 -3.057854 12.084270
v -0.576923 -3.057854 12.084270
v -0.135365 -1.799531 11.891961
v -0.135365 -1.799531 9.199654
v -0.576923 -2.865546 11.891961
v -0.576923 -2.865546 9.199654
v -0.490704 -1.652345 9.199654
v -0.490704 -1.652345 11.891961
v -0.932262 -2.718360 9.199654
v -0.932262 -2.718360 11.891961
v -0.490704 -1.652345 9.199654
v -0.135365 -1.799531 9.199654
v -0.490704 -1.652345 11.891961
v -0.135365 -1.799531 11.891961
v -0.932262 -2.718360 11.891961
v -0.576923 -2.865546 11.891961
v -0.932262 -2.718360 9.199654
v -0.576923 -2.865546 9.199654
v -0.490704 -1.652345 11.891961
v -0.135365 -1.799531 11.891961
v -0.932262 -2.718360 11.891961
v -0.576923 -2.865546 11.891961
v -0.135365 -1.799531 9.199654
v -0.490704 -1.652345 9.199654
v -0.576923 -2.865546 9.199654
v -0.932262 -2.718360 9.199654
v 0.576154 -3.174963 13.057629
v 0.576154 -1.408732 8.793570
v 0.576154 -4.596317 12.468884
v 0.576154 -2.830085 8.204825
v -0.576154 -1.408732 8.793570
v -0.576154 -3.174963 13.057629
v -0.576154 -2.830085 8.204825
v -0.576154 -4.596317 12.468884
v -0.576154 -1.408732 8.793570
v 0.576154 -1.408732 8.793570
v -0.576154 -3.174963 13.057629
v 0.576154 -3.174963 13.057629
v -0.576154 -4.596317 12.468884
v 0.576154 -4.596317 12.468884
v -0.576154 -2.830085 8.204825
v 0.576154 -2.830085 8.204825
v -0.576154 -3.174963 13.057629
v 0.576154 -3.174963 13.057629
v -0.576154 -4.596317 12.468884
v 0.576154 -4.596317 12.468884
v 0.576154 -1.408732 8.793570
v -0.576154 -1.408732 8.793570
v 0.576154 -2.830085 8.204825
v -0.576154 -2.830085 8.204825
v -0.000769 -4.301945 11.758208
v -0.000769 -4.154758 11.402870
v -0.000769 -4.657283 11.611022
v -0.000769 -4.510097 11.255684
v -0.001539 -4.154758 11.402870
v -0.001539 -4.301945 11.758208
v -0.001539 -4.510097 11.255684
v -0.001539 -4.657283 11.611022
v -0.001539 -4.154758 11.402870
v -0.000769 -4.154758 11.402870
v -0.001539 -4.301945 11.758208
v -0.000769 -4.301945 11.758208
v -0.001539 -4.657283 11.611022
v -0.000769 -4.657283 11.611022
v -0.001539 -4.510097 11.255684
v -0.000769 -4.510097 11.255684
v -0.001539 -4.301945 11.758208
v -0.000769 -4.301945 11.758208
v -0.001539 -4.657283 11.611022
v -0.000769 -4.657283 11.611022
v -0.000769 -4.154758 11.402870
v -0.001539 -4.154758 11.402870
v -0.000769 -4.510097 11.255684
v -0.001539 -4.510097 11.255684
v 0.576923 -1.519392 13.238116
v 0.576923 -1.519392 12.468885
v 0.576923 -4.596315 13.238116
v 0.576923 -4.596315 12.468885
v -0.576923 -1.519392 12.468885
v -0.576923 -1.519392 13.238116
v -0.576923 -4.596315 12.468885
v -0.576923 -4.596315 13.238116
v -0.576923 -1.519392 12.468885
v 0.576923 -1.519392 12.468885
v -0.576923 -1.519392 13.238116
v 0.576923 -1.519392 13.238116
v -0.576923 -4.596315 13.238116
v 0.576923 -4.596315 13.238116
v -0.576923 -4.596315 12.468885
v 0.576923 -4.596315 12.468885
v -0.576923 -1.519392 13.238116
v 0.576923 -1.519392 13.238116
v -0.576923 -4.596315 13.238116
v 0.576923 -4.596315 13.238116
v 0.576923 -1.519392 12.468885
v -0.576923 -1.519392 12.468885
v 0.576923 -4.596315 12.468885
v -0.576923 -4.596315 12.468885
vn 1.0000 -0.0000 -0.0000
vn -1.0000 -0.0000 -0.0000
vn -0.0000 1.0000 -0.0000
vn -0.0000 -1.0000 -0.0000
vn -0.0000 -0.0000 1.0000
vn -0.0000 -0.0000 -1.0000
vn -0.0000 0.9239 0.3827
vn -0.0000 -0.9239 -0.3827
vn -0.0000 -0.3827 0.9239
vn -0.0000 0.3827 -0.9239
vn -0.0000 0.7071 -0.7071
vn -0.0000 -0.7071 0.7071
vn -0.0000 0.7071 0.7071
vn -0.0000 -0.7071 -0.7071
vn 0.9239 -0.3827 -0.0000
vn -0.9239 0.3827 -0.0000
vn 0.3827 0.9239 -0.0000
vn -0.3827 -0.9239 -0.0000
vt 0.000000 1.000000
vt 0.000000 0.953125
vt 0.328125 1.000000
vt 0.328125 0.953125
vt 0.000000 0.937500
vt 0.000000 0.890625
vt 0.328125 0.937500
vt 0.328125 0.890625
vt 0.046875 0.546875
vt 0.046875 0.875000
vt 0.000000 0.546875
vt 0.000000 0.875000
vt 0.109375 0.875000
vt 0.109375 0.546875
vt 0.062500 0.875000
vt 0.062500 0.546875
vt 0.437500 0.343750
vt 0.437500 0.296875
vt 0.484375 0.343750
vt 0.484375 0.296875
vt 0.656250 0.625000
vt 0.656250 0.578125
vt 0.703125 0.625000
vt 0.703125 0.578125
vt 0.687500 1.000000
vt 0.687500 0.984375
vt 0.796875 1.000000
vt 0.796875 0.984375
vt 0.687500 0.968750
vt 0.687500 0.953125
vt 0.796875 0.968750
vt 0.796875 0.953125
vt 0.406250 0.296875
vt 0.406250 0.406250
vt 0.375000 0.296875
vt 0.375000 0.406250
vt 0.437500 0.406250
vt 0.218750 0.281250
vt 0.218750 0.265625
vt 0.250000 0.281250
vt 0.250000 0.265625
vt 0.718750 0.812500
vt 0.718750 0.796875
vt 0.750000 0.812500
vt 0.750000 0.796875
vt 0.343750 1.000000
vt 0.343750 0.953125
vt 0.609375 1.000000
vt 0.609375 0.953125
vt 0.343750 0.937500
vt 0.343750 0.890625
vt 0.609375 0.937500
vt 0.609375 0.890625
vt 0.390625 0.609375
vt 0.390625 0.875000
vt 0.343750 0.609375
vt 0.343750 0.875000
vt 0.453125 0.875000
vt 0.453125 0.609375
vt 0.406250 0.875000
vt 0.406250 0.609375
vt 0.656250 0.500000
vt 0.656250 0.453125
vt 0.703125 0.500000
vt 0.703125 0.453125
vt 0.656250 0.562500
vt 0.656250 0.515625
vt 0.703125 0.562500
vt 0.703125 0.515625
vt 0.718750 0.781250
vt 0.718750 0.765625
vt 0.734375 0.781250
vt 0.734375 0.765625
vt 0.265625 0.281250
vt 0.265625 0.265625
vt 0.000000 0.984375
vt 0.531250 0.750000
vt 0.531250 0.734375
vt 0.843750 0.750000
vt 0.843750 0.734375
vt 0.531250 0.718750
vt 0.531250 0.703125
vt 0.843750 0.718750
vt 0.843750 0.703125
vt 0.171875 0.562500
vt 0.171875 0.875000
vt 0.125000 0.562500
vt 0.125000 0.875000
vt 0.234375 0.875000
vt 0.234375 0.562500
vt 0.187500 0.875000
vt 0.187500 0.562500
vt 0.593750 0.312500
vt 0.593750 0.296875
vt 0.640625 0.312500
vt 0.640625 0.296875
vt 0.531250 0.312500
vt 0.531250 0.296875
vt 0.578125 0.312500
vt 0.578125 0.296875
vt 0.531250 0.687500
vt 0.531250 0.671875
vt 0.843750 0.687500
vt 0.843750 0.671875
vt 0.531250 0.656250
vt 0.531250 0.640625
vt 0.843750 0.656250
vt 0.843750 0.640625
vt 0.156250 0.250000
vt 0.156250 0.562500
vt 0.125000 0.250000
vt 0.187500 0.250000
vt 0.093750 0.281250
vt 0.093750 0.265625
vt 0.125000 0.281250
vt 0.125000 0.265625
vt 0.312500 0.437500
vt 0.312500 0.421875
vt 0.343750 0.437500
vt 0.343750 0.421875
vt 0.531250 0.484375
vt 0.578125 0.484375
vt 0.531250 0.562500
vt 0.578125 0.562500
vt 0.515625 0.437500
vt 0.468750 0.437500
vt 0.515625 0.359375
vt 0.468750 0.359375
vt 0.531250 0.468750
vt 0.531250 0.390625
vt 0.578125 0.468750
vt 0.578125 0.390625
vt 0.296875 0.421875
vt 0.296875 0.500000
vt 0.250000 0.421875
vt 0.250000 0.500000
vt 0.109375 0.343750
vt 0.109375 0.296875
vt 0.062500 0.343750
vt 0.062500 0.296875
vt 0.000000 0.343750
vt 0.000000 0.296875
vt 0.046875 0.343750
vt 0.046875 0.296875
vt 0.593750 0.500000
vt 0.593750 0.437500
vt 0.640625 0.500000
vt 0.640625 0.437500
vt 0.625000 1.000000
vt 0.625000 0.937500
vt 0.671875 1.000000
vt 0.671875 0.937500
vt 0.703125 0.828125
vt 0.703125 0.875000
vt 0.656250 0.828125
vt 0.656250 0.875000
vt 0.703125 0.812500
vt 0.703125 0.765625
vt 0.656250 0.812500
vt 0.656250 0.765625
vt 0.593750 0.375000
vt 0.640625 0.375000
vt 0.593750 0.562500
vt 0.640625 0.562500
vt 0.250000 0.703125
vt 0.328125 0.703125
vt 0.250000 0.875000
vt 0.328125 0.875000
vt 0.328125 0.687500
vt 0.250000 0.687500
vt 0.328125 0.515625
vt 0.250000 0.515625
vt 0.468750 0.875000
vt 0.468750 0.703125
vt 0.515625 0.875000
vt 0.515625 0.703125
vt 0.109375 0.359375
vt 0.109375 0.531250
vt 0.062500 0.359375
vt 0.062500 0.531250
vt 0.359375 0.406250
vt 0.359375 0.328125
vt 0.312500 0.406250
vt 0.312500 0.328125
vt 0.250000 0.406250
vt 0.250000 0.328125
vt 0.296875 0.406250
vt 0.296875 0.328125
vt 0.343750 0.265625
vt 0.359375 0.265625
vt 0.343750 0.312500
vt 0.359375 0.312500
vt 0.078125 0.281250
vt 0.062500 0.281250
vt 0.078125 0.234375
vt 0.062500 0.234375
vt 0.656250 0.375000
vt 0.656250 0.328125
vt 0.703125 0.375000
vt 0.703125 0.328125
vt 0.703125 0.390625
vt 0.703125 0.437500
vt 0.656250 0.390625
vt 0.656250 0.437500
vt 0.765625 0.843750
vt 0.765625 0.828125
vt 0.718750 0.843750
vt 0.718750 0.828125
vt 0.718750 0.875000
vt 0.718750 0.859375
vt 0.765625 0.875000
vt 0.765625 0.859375
vt 0.218750 0.296875
vt 0.281250 0.296875
vt 0.218750 0.312500
vt 0.281250 0.312500
vt 0.343750 0.296875
vt 0.000000 0.281250
vt 0.000000 0.265625
vt 0.046875 0.281250
vt 0.046875 0.265625
vt 0.703125 0.296875
vt 0.703125 0.312500
vt 0.656250 0.296875
vt 0.656250 0.312500
vt 0.531250 0.375000
vt 0.578125 0.375000
vt 0.531250 0.875000
vt 0.531250 0.828125
vt 0.640625 0.875000
vt 0.640625 0.828125
vt 0.531250 0.812500
vt 0.531250 0.765625
vt 0.640625 0.812500
vt 0.640625 0.765625
vt 0.515625 0.234375
vt 0.515625 0.343750
vt 0.500000 0.234375
vt 0.500000 0.343750
vt 0.203125 0.312500
vt 0.203125 0.203125
vt 0.187500 0.312500
vt 0.187500 0.203125
vt 0.437500 0.359375
vt 0.453125 0.406250
vt 0.453125 0.359375
vt 0.312500 0.500000
vt 0.312500 0.453125
vt 0.328125 0.500000
vt 0.328125 0.453125
vt 0.343750 0.406250
vt 0.343750 0.593750
vt 0.406250 0.593750
vt 0.468750 0.593750
vt 0.468750 0.406250
vt 0.000000 0.531250
vt 0.046875 0.531250
vt 0.234375 0.375000
vt 0.187500 0.375000
vt 0.234375 0.312500
vt 0.625000 0.875000
vt 0.671875 0.875000
vt 0.281250 0.265625
vt 0.296875 0.265625
vt 0.281250 0.281250
vt 0.296875 0.281250
vt 0.328125 0.281250
vt 0.312500 0.281250
vt 0.328125 0.265625
vt 0.312500 0.265625
vt 0.531250 0.593750
vt 0.656250 0.593750
vt 0.531250 0.625000
vt 0.687500 0.906250
vt 0.687500 0.875000
vt 0.734375 0.906250
vt 0.734375 0.875000
vt 0.734375 0.937500
vt 0.687500 0.937500
vt 0.515625 0.562500
vt 0.468750 0.562500
vt 0.468750 0.687500
vt 0.515625 0.687500
s 0
usemtl Material_0
f 1/1/1 3/2/1 2/3/1
f 3/2/1 4/4/1 2/3/1
f 5/5/2 7/6/2 6/7/2
f 7/6/2 8/8/2 6/7/2
f 9/9/3 11/10/3 10/11/3
f 11/10/3 12/12/3 10/11/3
f 13/13/4 15/14/4 14/15/4
f 15/14/4 16/16/4 14/15/4
f 17/17/5 19/18/5 18/19/5
f 19/18/5 20/20/5 18/19/5
f 21/21/6 23/22/6 22/23/6
f 23/22/6 24/24/6 22/23/6
f 25/25/1 27/26/1 26/27/1
f 27/26/1 28/28/1 26/27/1
f 29/29/2 31/30/2 30/31/2
f 31/30/2 32/32/2 30/31/2
f 33/33/3 35/34/3 34/35/3
f 35/34/3 36/36/3 34/35/3
f 37/37/4 39/18/4 38/34/4
f 39/18/4 40/33/4 38/34/4
f 41/38/5 43/39/5 42/40/5
f 43/39/5 44/41/5 42/40/5
f 45/42/6 47/43/6 46/44/6
f 47/43/6 48/45/6 46/44/6
f 49/46/1 51/47/1 50/48/1
f 51/47/1 52/49/1 50/48/1
f 53/50/2 55/51/2 54/52/2
f 55/51/2 56/53/2 54/52/2
f 57/54/3 59/55/3 58/56/3
f 59/55/3 60/57/3 58/56/3
f 61/58/4 63/59/4 62/60/4
f 63/59/4 64/61/4 62/60/4
f 65/62/5 67/63/5 66/64/5
f 67/63/5 68/65/5 66/64/5
f 69/66/6 71/67/6 70/68/6
f 71/67/6 72/69/6 70/68/6
f 73/70/1 75/71/1 74/72/1
f 75/71/1 76/73/1 74/72/1
f 77/40/2 79/41/2 78/74/2
f 79/41/2 80/75/2 78/74/2
f 81/76/3 83/1/3 82/76/3
f 83/1/3 84/1/3 82/76/3
f 85/1/4 87/76/4 86/1/4
f 87/76/4 88/76/4 86/1/4
f 89/1/5 91/76/5 90/1/5
f 91/76/5 92/76/5 90/1/5
f 93/1/6 95/76/6 94/1/6
f 95/76/6 96/76/6 94/1/6
f 97/77/1 99/78/1 98/79/1
f 99/78/1 100/80/1 98/79/1
f 101/81/2 103/82/2 102/83/2
f 103/82/2 104/84/2 102/83/2
f 105/85/3 107/86/3 106/87/3
f 107/86/3 108/88/3 106/87/3
f 109/89/4 111/90/4 110/91/4
f 111/90/4 112/92/4 110/91/4
f 113/93/5 115/94/5 114/95/5
f 115/94/5 116/96/5 114/95/5
f 117/97/6 119/98/6 118/99/6
f 119/98/6 120/100/6 118/99/6
f 121/101/1 123/102/1 122/103/1
f 123/102/1 124/104/1 122/103/1
f 125/105/2 127/106/2 126/107/2
f 127/106/2 128/108/2 126/107/2
f 129/109/3 131/110/3 130/111/3
f 131/110/3 132/87/3 130/111/3
f 133/92/4 135/112/4 134/110/4
f 135/112/4 136/109/4 134/110/4
f 137/113/5 139/114/5 138/115/5
f 139/114/5 140/116/5 138/115/5
f 141/117/6 143/118/6 142/119/6
f 143/118/6 144/120/6 142/119/6
f 145/121/1 147/122/1 146/123/1
f 147/122/1 148/124/1 146/123/1
f 149/125/2 151/126/2 150/127/2
f 151/126/2 152/128/2 150/127/2
f 153/129/7 155/130/7 154/131/7
f 155/130/7 156/132/7 154/131/7
f 157/133/8 159/134/8 158/135/8
f 159/134/8 160/136/8 158/135/8
f 161/137/9 163/138/9 162/139/9
f 163/138/9 164/140/9 162/139/9
f 165/141/10 167/142/10 166/143/10
f 167/142/10 168/144/10 166/143/10
f 169/145/1 171/146/1 170/147/1
f 171/146/1 172/148/1 170/147/1
f 173/149/2 175/150/2 174/151/2
f 175/150/2 176/152/2 174/151/2
f 177/153/11 179/154/11 178/155/11
f 179/154/11 180/156/11 178/155/11
f 181/157/12 183/158/12 182/159/12
f 183/158/12 184/160/12 182/159/12
f 185/146/13 187/161/13 186/148/13
f 187/161/13 188/162/13 186/148/13
f 189/163/14 191/145/14 190/164/14
f 191/145/14 192/147/14 190/164/14
f 193/165/1 195/166/1 194/167/1
f 195/166/1 196/168/1 194/167/1
f 197/169/2 199/170/2 198/171/2
f 199/170/2 200/172/2 198/171/2
f 201/173/3 203/174/3 202/175/3
f 203/174/3 204/176/3 202/175/3
f 205/177/4 207/178/4 206/179/4
f 207/178/4 208/180/4 206/179/4
f 209/181/5 211/182/5 210/183/5
f 211/182/5 212/184/5 210/183/5
f 213/185/6 215/186/6 214/187/6
f 215/186/6 216/188/6 214/187/6
f 217/189/1 219/190/1 218/191/1
f 219/190/1 220/192/1 218/191/1
f 221/193/2 223/194/2 222/195/2
f 223/194/2 224/196/2 222/195/2
f 225/197/3 227/198/3 226/199/3
f 227/198/3 228/200/3 226/199/3
f 229/201/4 231/202/4 230/203/4
f 231/202/4 232/204/4 230/203/4
f 233/205/5 235/206/5 234/207/5
f 235/206/5 236/208/5 234/207/5
f 237/209/6 239/210/6 238/211/6
f 239/210/6 240/212/6 238/211/6
f 241/213/1 243/214/1 242/215/1
f 243/214/1 244/216/1 242/215/1
f 245/191/2 247/216/2 246/217/2
f 247/216/2 248/214/2 246/217/2
f 249/218/3 251/219/3 250/220/3
f 251/219/3 252/221/3 250/220/3
f 253/222/4 255/223/4 254/224/4
f 255/223/4 256/225/4 254/224/4
f 257/162/5 259/95/5 258/161/5
f 259/95/5 260/93/5 258/161/5
f 261/226/6 263/97/6 262/227/6
f 263/97/6 264/99/6 262/227/6
f 265/228/15 267/229/15 266/230/15
f 267/229/15 268/231/15 266/230/15
f 269/232/16 271/233/16 270/234/16
f 271/233/16 272/235/16 270/234/16
f 273/236/17 275/237/17 274/238/17
f 275/237/17 276/239/17 274/238/17
f 277/240/18 279/241/18 278/242/18
f 279/241/18 280/243/18 278/242/18
f 281/37/5 283/244/5 282/245/5
f 283/244/5 284/246/5 282/245/5
f 285/247/6 287/248/6 286/249/6
f 287/248/6 288/250/6 286/249/6
f 289/251/1 291/34/1 290/252/1
f 291/34/1 292/253/1 290/252/1
f 293/254/2 295/253/2 294/255/2
f 295/253/2 296/34/2 294/255/2
f 297/256/7 299/141/7 298/257/7
f 299/141/7 300/143/7 298/257/7
f 301/258/8 303/90/8 302/259/8
f 303/90/8 304/92/8 302/259/8
f 305/258/9 307/260/9 306/259/9
f 307/260/9 308/242/9 306/259/9
f 309/150/10 311/261/10 310/152/10
f 311/261/10 312/262/10 310/152/10
f 313/263/1 315/264/1 314/265/1
f 315/264/1 316/266/1 314/265/1
f 317/267/2 319/268/2 318/269/2
f 319/268/2 320/270/2 318/269/2
f 321/1/7 323/76/7 322/1/7
f 323/76/7 324/76/7 322/1/7
f 325/76/8 327/1/8 326/76/8
f 327/1/8 328/1/8 326/76/8
f 329/1/9 331/76/9 330/1/9
f 331/76/9 332/76/9 330/1/9
f 333/1/10 335/76/10 334/1/10
f 335/76/10 336/76/10 334/1/10
f 337/271/1 339/272/1 338/273/1
f 339/272/1 340/21/1 338/273/1
f 341/272/2 343/271/2 342/66/2
f 343/271/2 344/123/2 342/66/2
f 345/274/3 347/275/3 346/276/3
f 347/275/3 348/277/3 346/276/3
f 349/276/4 351/278/4 350/274/4
f 351/278/4 352/279/4 350/274/4
f 353/280/5 355/125/5 354/281/5
f 355/125/5 356/126/5 354/281/5
f 357/282/6 359/281/6 358/283/6
f 359/281/6 360/280/6 358/283/6
