# Blender 5.0.1
# www.blender.org
mtllib lev.trijiconrmr.mtl
o attachmentModel
v -0.769231 0.384615 0.576923
v 0.769231 0.384615 0.576923
v -0.769231 0.000000 0.576923
v 0.769231 0.000000 0.576923
v 0.769231 0.384615 -0.576923
v -0.769231 0.384615 -0.576923
v 0.769231 0.000000 -0.576923
v -0.769231 0.000000 -0.576923
v 0.769231 0.384615 -0.576923
v 0.769231 0.384615 0.576923
v -0.769231 0.384615 -0.576923
v -0.769231 0.384615 0.576923
v -0.769231 0.000000 -0.576923
v -0.769231 0.000000 0.576923
v 0.769231 0.000000 -0.576923
v 0.769231 0.000000 0.576923
v -0.769231 0.384615 -0.576923
v -0.769231 0.384615 0.576923
v -0.769231 0.000000 -0.576923
v -0.769231 0.000000 0.576923
v 0.769231 0.384615 0.576923
v 0.769231 0.384615 -0.576923
v 0.769231 0.000000 0.576923
v 0.769231 0.000000 -0.576923
v -0.384615 0.576923 -0.576923
v 0.384615 0.576923 -0.576923
v -0.384615 -0.192308 -0.576923
v 0.384615 -0.192308 -0.576923
v 0.384615 0.576923 -0.961538
v -0.384615 0.576923 -0.961538
v 0.384615 -0.192308 -0.961538
v -0.384615 -0.192308 -0.961538
v 0.384615 0.576923 -0.961538
v 0.384615 0.576923 -0.576923
v -0.384615 0.576923 -0.961538
v -0.384615 0.576923 -0.576923
v -0.384615 -0.192308 -0.961538
v -0.384615 -0.192308 -0.576923
v 0.384615 -0.192308 -0.961538
v 0.384615 -0.192308 -0.576923
v -0.384615 0.576923 -0.961538
v -0.384615 0.576923 -0.576923
v -0.384615 -0.192308 -0.961538
v -0.384615 -0.192308 -0.576923
v 0.384615 0.576923 -0.576923
v 0.384615 0.576923 -0.961538
v 0.384615 -0.192308 -0.576923
v 0.384615 -0.192308 -0.961538
v -0.769231 0.056325 1.449141
v 0.769231 0.056325 1.449141
v -0.769231 -0.215639 1.177177
v 0.769231 -0.215639 1.177177
v 0.769231 0.872218 0.633249
v -0.769231 0.872218 0.633249
v 0.769231 0.600254 0.361285
v -0.769231 0.600254 0.361285
v 0.769231 0.872218 0.633249
v 0.769231 0.056325 1.449141
v -0.769231 0.872218 0.633249
v -0.769231 0.056325 1.449141
v -0.769231 0.600254 0.361285
v -0.769231 -0.215639 1.177177
v 0.769231 0.600254 0.361285
v 0.769231 -0.215639 1.177177
v -0.769231 0.872218 0.633249
v -0.769231 0.056325 1.449141
v -0.769231 0.600254 0.361285
v -0.769231 -0.215639 1.177177
v 0.769231 0.056325 1.449141
v 0.769231 0.872218 0.633249
v 0.769231 -0.215639 1.177177
v 0.769231 0.600254 0.361285
v -0.769231 0.328290 1.721105
v 0.769231 0.328290 1.721105
v -0.769231 0.056325 1.449141
v 0.769231 0.056325 1.449141
v 0.769231 1.144182 0.905213
v -0.769231 1.144182 0.905213
v 0.769231 0.872218 0.633249
v -0.769231 0.872218 0.633249
v 0.769231 1.144182 0.905213
v 0.769231 0.328290 1.721105
v -0.769231 1.144182 0.905213
v -0.769231 0.328290 1.721105
v -0.769231 0.872218 0.633249
v -0.769231 0.056325 1.449141
v 0.769231 0.872218 0.633249
v 0.769231 0.056325 1.449141
v -0.769231 1.144182 0.905213
v -0.769231 0.328290 1.721105
v -0.769231 0.872218 0.633249
v -0.769231 0.056325 1.449141
v 0.769231 0.328290 1.721105
v 0.769231 1.144182 0.905213
v 0.769231 0.056325 1.449141
v 0.769231 0.872218 0.633249
v 0.000000 0.871674 2.265578
v 0.769231 0.871674 2.265578
v 0.000000 0.327746 1.721649
v 0.769231 0.327746 1.721649
v 0.769231 0.872218 2.265033
v 0.000000 0.872218 2.265033
v 0.769231 0.328290 1.721105
v 0.000000 0.328290 1.721105
v 0.769231 0.872218 2.265033
v 0.769231 0.871674 2.265578
v 0.000000 0.872218 2.265033
v 0.000000 0.871674 2.265578
v 0.000000 0.328290 1.721105
v 0.000000 0.327746 1.721649
v 0.769231 0.328290 1.721105
v 0.769231 0.327746 1.721649
v 0.000000 0.872218 2.265033
v 0.000000 0.871674 2.265578
v 0.000000 0.328290 1.721105
v 0.000000 0.327746 1.721649
v 0.769231 0.871674 2.265578
v 0.769231 0.872218 2.265033
v 0.769231 0.327746 1.721649
v 0.769231 0.328290 1.721105
v 0.000000 1.687567 1.449685
v 0.769231 1.687567 1.449685
v 0.000000 1.143638 0.905757
v 0.769231 1.143638 0.905757
v 0.769231 1.688110 1.449141
v 0.000000 1.688110 1.449141
v 0.769231 1.144182 0.905213
v 0.000000 1.144182 0.905213
v 0.769231 1.688110 1.449141
v 0.769231 1.687567 1.449685
v 0.000000 1.688110 1.449141
v 0.000000 1.687567 1.449685
v 0.000000 1.144182 0.905213
v 0.000000 1.143638 0.905757
v 0.769231 1.144182 0.905213
v 0.769231 1.143638 0.905757
v 0.000000 1.688110 1.449141
v 0.000000 1.687567 1.449685
v 0.000000 1.144182 0.905213
v 0.000000 1.143638 0.905757
v 0.769231 1.687567 1.449685
v 0.769231 1.688110 1.449141
v 0.769231 1.143638 0.905757
v 0.769231 1.144182 0.905213
v 0.384615 0.736235 2.130139
v 0.769231 0.736235 2.130139
v 0.384615 0.735692 2.129596
v 0.769231 0.735692 2.129596
v 0.769231 1.552128 1.314247
v 0.384615 1.552128 1.314247
v 0.769231 1.551584 1.313703
v 0.384615 1.551584 1.313703
v 0.769231 1.552128 1.314247
v 0.769231 0.736235 2.130139
v 0.384615 1.552128 1.314247
v 0.384615 0.736235 2.130139
v 0.384615 1.551584 1.313703
v 0.384615 0.735692 2.129596
v 0.769231 1.551584 1.313703
v 0.769231 0.735692 2.129596
v 0.384615 1.552128 1.314247
v 0.384615 0.736235 2.130139
v 0.384615 1.551584 1.313703
v 0.384615 0.735692 2.129596
v 0.769231 0.736235 2.130139
v 0.769231 1.552128 1.314247
v 0.769231 0.735692 2.129596
v 0.769231 1.551584 1.313703
vn -0.0000 -0.0000 1.0000
vn -0.0000 -0.0000 -1.0000
vn -0.0000 1.0000 -0.0000
vn -0.0000 -1.0000 -0.0000
vn -1.0000 -0.0000 -0.0000
vn 1.0000 -0.0000 -0.0000
vn -0.0000 -0.7071 0.7071
vn -0.0000 0.7071 -0.7071
vn -0.0000 0.7071 0.7071
vn -0.0000 -0.7071 -0.7071
vn -0.0000 0.7072 0.7070
vn -0.0000 0.7073 0.7069
vn -0.0000 -0.7072 -0.7070
vn -0.0000 -0.7070 0.7072
vn -0.0000 0.7073 -0.7069
vt 0.125000 0.687500
vt 0.125000 0.656250
vt 0.250000 0.687500
vt 0.250000 0.656250
vt 0.375000 0.687500
vt 0.375000 0.656250
vt 0.093750 0.875000
vt 0.093750 1.000000
vt 0.000000 0.875000
vt 0.000000 1.000000
vt 0.093750 0.750000
vt 0.000000 0.750000
vt 0.000000 0.562500
vt 0.000000 0.531250
vt 0.093750 0.562500
vt 0.093750 0.531250
vt 0.375000 0.625000
vt 0.375000 0.593750
vt 0.468750 0.625000
vt 0.468750 0.593750
vt 0.000000 0.625000
vt 0.062500 0.625000
vt 0.062500 0.562500
vt 0.375000 1.000000
vt 0.375000 0.937500
vt 0.437500 1.000000
vt 0.437500 0.937500
vt 0.031250 0.437500
vt 0.031250 0.500000
vt 0.000000 0.437500
vt 0.000000 0.500000
vt 0.093750 0.500000
vt 0.093750 0.437500
vt 0.062500 0.500000
vt 0.062500 0.437500
vt 0.437500 0.562500
vt 0.437500 0.500000
vt 0.468750 0.562500
vt 0.468750 0.500000
vt 0.375000 0.562500
vt 0.375000 0.500000
vt 0.406250 0.562500
vt 0.406250 0.500000
vt 0.062500 0.593750
vt 0.187500 0.625000
vt 0.187500 0.593750
vt 0.375000 0.906250
vt 0.500000 0.937500
vt 0.500000 0.906250
vt 0.218750 0.875000
vt 0.218750 1.000000
vt 0.125000 0.875000
vt 0.125000 1.000000
vt 0.218750 0.750000
vt 0.125000 0.750000
vt 0.125000 0.562500
vt 0.125000 0.531250
vt 0.218750 0.562500
vt 0.218750 0.531250
vt 0.437500 0.968750
vt 0.531250 1.000000
vt 0.531250 0.968750
vt 0.375000 0.875000
vt 0.375000 0.843750
vt 0.500000 0.875000
vt 0.500000 0.843750
vt 0.312500 0.625000
vt 0.312500 0.593750
vt 0.093750 0.625000
vt 0.343750 1.000000
vt 0.343750 0.875000
vt 0.250000 1.000000
vt 0.250000 0.875000
vt 0.250000 0.562500
vt 0.250000 0.531250
vt 0.343750 0.562500
vt 0.343750 0.531250
vt 0.437500 0.812500
vt 0.437500 0.781250
vt 0.531250 0.812500
vt 0.531250 0.781250
vt 0.375000 0.812500
vt 0.375000 0.750000
vt 0.437500 0.750000
vt 0.437500 0.687500
vt 0.000000 0.937500
vt 0.312500 0.562500
vt 0.437500 0.625000
vt 0.031250 1.000000
vt 0.531250 0.718750
vt 0.531250 0.750000
vt 0.437500 0.718750
vt 0.531250 0.687500
vt 0.531250 0.656250
vt 0.437500 0.656250
s 0
usemtl Material_0.001
f 1/1/1 3/2/1 2/3/1
f 3/2/1 4/4/1 2/3/1
f 5/3/2 7/4/2 6/5/2
f 7/4/2 8/6/2 6/5/2
f 9/7/3 11/8/3 10/9/3
f 11/8/3 12/10/3 10/9/3
f 13/7/4 15/11/4 14/9/4
f 15/11/4 16/12/4 14/9/4
f 17/13/5 19/14/5 18/15/5
f 19/14/5 20/16/5 18/15/5
f 21/17/6 23/18/6 22/19/6
f 23/18/6 24/20/6 22/19/6
f 25/21/1 27/13/1 26/22/1
f 27/13/1 28/23/1 26/22/1
f 29/24/2 31/25/2 30/26/2
f 31/25/2 32/27/2 30/26/2
f 33/28/3 35/29/3 34/30/3
f 35/29/3 36/31/3 34/30/3
f 37/32/4 39/33/4 38/34/4
f 39/33/4 40/35/4 38/34/4
f 41/36/5 43/37/5 42/38/5
f 43/37/5 44/39/5 42/38/5
f 45/40/6 47/41/6 46/42/6
f 47/41/6 48/43/6 46/42/6
f 49/22/7 51/44/7 50/45/7
f 51/44/7 52/46/7 50/45/7
f 53/25/8 55/47/8 54/48/8
f 55/47/8 56/49/8 54/48/8
f 57/50/9 59/51/9 58/52/9
f 59/51/9 60/53/9 58/52/9
f 61/50/10 63/54/10 62/52/10
f 63/54/10 64/55/10 62/52/10
f 65/56/5 67/57/5 66/58/5
f 67/57/5 68/59/5 66/58/5
f 69/26/6 71/60/6 70/61/6
f 71/60/6 72/62/6 70/61/6
f 73/63/7 75/64/7 74/65/7
f 75/64/7 76/66/7 74/65/7
f 77/45/8 79/46/8 78/67/8
f 79/46/8 80/68/8 78/67/8
f 81/69/9 83/11/9 82/21/9
f 83/11/9 84/12/9 82/21/9
f 85/70/10 87/71/10 86/72/10
f 87/71/10 88/73/10 86/72/10
f 89/74/5 91/75/5 90/76/5
f 91/75/5 92/77/5 90/76/5
f 93/78/6 95/79/6 94/80/6
f 95/79/6 96/81/6 94/80/6
f 97/82/7 99/83/7 98/78/7
f 99/83/7 100/84/7 98/78/7
f 101/83/8 103/5/8 102/84/8
f 103/5/8 104/85/8 102/84/8
f 105/86/11 107/10/11 106/86/11
f 107/10/11 108/10/11 106/86/11
f 109/10/10 111/86/10 110/10/10
f 111/86/10 112/86/10 110/10/10
f 113/10/5 115/86/5 114/10/5
f 115/86/5 116/86/5 114/10/5
f 117/10/6 119/86/6 118/10/6
f 119/86/6 120/86/6 118/10/6
f 121/67/7 123/87/7 122/17/7
f 123/87/7 124/40/7 122/17/7
f 125/5/8 127/17/8 126/85/8
f 127/17/8 128/88/8 126/85/8
f 129/86/12 131/10/12 130/86/12
f 131/10/9 132/10/9 130/86/9
f 133/10/13 135/86/13 134/10/13
f 135/86/13 136/86/13 134/10/13
f 137/10/5 139/86/5 138/10/5
f 139/86/5 140/86/5 138/10/5
f 141/10/6 143/86/6 142/10/6
f 143/86/6 144/86/6 142/10/6
f 145/10/7 147/10/7 146/89/7
f 147/10/14 148/89/14 146/89/14
f 149/10/8 151/10/8 150/89/8
f 151/10/15 152/89/15 150/89/15
f 153/90/9 155/91/9 154/92/9
f 155/91/9 156/84/9 154/92/9
f 157/93/10 159/94/10 158/85/10
f 159/94/10 160/95/10 158/85/10
f 161/10/5 163/10/5 162/8/5
f 163/10/5 164/8/5 162/8/5
f 165/10/6 167/10/6 166/8/6
f 167/10/6 168/8/6 166/8/6
o overlaySolidModel
v 0.568462 0.736236 2.129052
v 0.569231 0.736236 2.129052
v 0.568462 0.328290 1.721105
v 0.569231 0.328290 1.721105
v 0.569231 1.552128 1.313159
v 0.568462 1.552128 1.313159
v 0.569231 1.144182 0.905213
v 0.568462 1.144182 0.905213
v 0.569231 1.552128 1.313159
v 0.569231 0.736236 2.129052
v 0.568462 1.552128 1.313159
v 0.568462 0.736236 2.129052
v 0.568462 1.144182 0.905213
v 0.568462 0.328290 1.721105
v 0.569231 1.144182 0.905213
v 0.569231 0.328290 1.721105
v 0.568462 1.552128 1.313159
v 0.568462 0.736236 2.129052
v 0.568462 1.144182 0.905213
v 0.568462 0.328290 1.721105
v 0.569231 0.736236 2.129052
v 0.569231 1.552128 1.313159
v 0.569231 0.328290 1.721105
v 0.569231 1.144182 0.905213
vn -0.0000 -0.7071 0.7071
vn -0.0000 0.7071 -0.7071
vn -0.0000 0.7071 0.7071
vn -0.0000 -0.7071 -0.7071
vn -1.0000 -0.0000 -0.0000
vn 1.0000 -0.0000 -0.0000
vt 0.000000 1.000000
vt 0.000000 0.937500
vt 0.093750 1.000000
vt 0.906250 0.062500
vt 0.906250 0.000000
vt 1.000000 0.062500
vt 1.000000 0.000000
s 0
usemtl Material_0.001
f 169/96/16 171/97/16 170/96/16
f 171/97/16 172/97/16 170/96/16
f 173/96/17 175/97/17 174/96/17
f 175/97/17 176/97/17 174/96/17
f 177/98/18 179/98/18 178/96/18
f 179/98/18 180/96/18 178/96/18
f 181/98/19 183/98/19 182/96/19
f 183/98/19 184/96/19 182/96/19
f 185/99/20 187/100/20 186/101/20
f 187/100/20 188/102/20 186/101/20
f 189/99/21 191/100/21 190/101/21
f 191/100/21 192/102/21 190/101/21
o scopeModel
v 0.576154 0.736236 2.129052
v 0.576923 0.736236 2.129052
v 0.576154 0.328290 1.721105
v 0.576923 0.328290 1.721105
v 0.576923 1.552128 1.313159
v 0.576154 1.552128 1.313159
v 0.576923 1.144182 0.905213
v 0.576154 1.144182 0.905213
v 0.576923 1.552128 1.313159
v 0.576923 0.736236 2.129052
v 0.576154 1.552128 1.313159
v 0.576154 0.736236 2.129052
v 0.576154 1.144182 0.905213
v 0.576154 0.328290 1.721105
v 0.576923 1.144182 0.905213
v 0.576923 0.328290 1.721105
v 0.576154 1.552128 1.313159
v 0.576154 0.736236 2.129052
v 0.576154 1.144182 0.905213
v 0.576154 0.328290 1.721105
v 0.576923 0.736236 2.129052
v 0.576923 1.552128 1.313159
v 0.576923 0.328290 1.721105
v 0.576923 1.144182 0.905213
vn -0.0000 -0.7071 0.7071
vn -0.0000 0.7071 -0.7071
vn -0.0000 0.7071 0.7071
vn -0.0000 -0.7071 -0.7071
vn -1.0000 -0.0000 -0.0000
vn 1.0000 -0.0000 -0.0000
vt 0.000000 1.000000
vt 0.000000 0.937500
vt 0.093750 1.000000
vt 0.906250 0.062500
vt 0.906250 0.000000
vt 1.000000 0.062500
vt 1.000000 0.000000
s 0
usemtl Material_0.001
f 193/103/22 195/104/22 194/103/22
f 195/104/22 196/104/22 194/103/22
f 197/103/23 199/104/23 198/103/23
f 199/104/23 200/104/23 198/103/23
f 201/105/24 203/105/24 202/103/24
f 203/105/24 204/103/24 202/103/24
f 205/105/25 207/105/25 206/103/25
f 207/105/25 208/103/25 206/103/25
f 209/106/26 211/107/26 210/108/26
f 211/107/26 212/109/26 210/108/26
f 213/106/27 215/107/27 214/108/27
f 215/107/27 216/109/27 214/108/27
