# Blender 5.0.1
# www.blender.org
mtllib lev.m870stock.mtl
o attachmentModel
v 0.576923 -0.516077 7.704723
v 0.576923 -0.516077 2.320108
v 0.576923 -2.439154 7.704723
v 0.576923 -2.439154 2.320108
v -0.576923 -0.516077 2.320108
v -0.576923 -0.516077 7.704723
v -0.576923 -2.439154 2.320108
v -0.576923 -2.439154 7.704723
v -0.576923 -0.516077 2.320108
v 0.576923 -0.516077 2.320108
v -0.576923 -0.516077 7.704723
v 0.576923 -0.516077 7.704723
v -0.576923 -2.439154 7.704723
v 0.576923 -2.439154 7.704723
v -0.576923 -2.439154 2.320108
v 0.576923 -2.439154 2.320108
v -0.576923 -0.516077 7.704723
v 0.576923 -0.516077 7.704723
v -0.576923 -2.439154 7.704723
v 0.576923 -2.439154 7.704723
v 0.576923 -0.516077 2.320108
v -0.576923 -0.516077 2.320108
v 0.576923 -2.439154 2.320108
v -0.576923 -2.439154 2.320108
v 0.577692 -1.177488 2.842706
v 0.577692 0.000000 0.000000
v 0.577692 -2.439173 2.320099
v 0.577692 -1.261685 -0.522607
v -0.576154 0.000000 0.000000
v -0.576154 -1.177488 2.842706
v -0.576154 -1.261685 -0.522607
v -0.576154 -2.439173 2.320099
v -0.576154 0.000000 0.000000
v 0.577692 0.000000 0.000000
v -0.576154 -1.177488 2.842706
v 0.577692 -1.177488 2.842706
v -0.576154 -2.439173 2.320099
v 0.577692 -2.439173 2.320099
v -0.576154 -1.261685 -0.522607
v 0.577692 -1.261685 -0.522607
v -0.576154 -1.177488 2.842706
v 0.577692 -1.177488 2.842706
v -0.576154 -2.439173 2.320099
v 0.577692 -2.439173 2.320099
v 0.577692 0.000000 0.000000
v -0.576154 0.000000 0.000000
v 0.577692 -1.261685 -0.522607
v -0.576154 -1.261685 -0.522607
v 0.575385 -1.017802 2.115981
v 0.575385 -1.606545 0.694628
v 0.575385 -2.439155 2.704725
v 0.575385 -3.027899 1.283372
v -0.575385 -1.606545 0.694628
v -0.575385 -1.017802 2.115981
v -0.575385 -3.027899 1.283372
v -0.575385 -2.439155 2.704725
v -0.575385 -1.606545 0.694628
v 0.575385 -1.606545 0.694628
v -0.575385 -1.017802 2.115981
v 0.575385 -1.017802 2.115981
v -0.575385 -2.439155 2.704725
v 0.575385 -2.439155 2.704725
v -0.575385 -3.027899 1.283372
v 0.575385 -3.027899 1.283372
v -0.575385 -1.017802 2.115981
v 0.575385 -1.017802 2.115981
v -0.575385 -2.439155 2.704725
v 0.575385 -2.439155 2.704725
v 0.575385 -1.606545 0.694628
v -0.575385 -1.606545 0.694628
v 0.575385 -3.027899 1.283372
v -0.575385 -3.027899 1.283372
v 0.576923 -2.439154 7.704723
v 0.576923 -2.439154 5.781646
v 0.576923 -3.593000 7.704723
v 0.576923 -3.593000 5.781646
v -0.576923 -2.439154 5.781646
v -0.576923 -2.439154 7.704723
v -0.576923 -3.593000 5.781646
v -0.576923 -3.593000 7.704723
v -0.576923 -2.439154 5.781646
v 0.576923 -2.439154 5.781646
v -0.576923 -2.439154 7.704723
v 0.576923 -2.439154 7.704723
v -0.576923 -3.593000 7.704723
v 0.576923 -3.593000 7.704723
v -0.576923 -3.593000 5.781646
v 0.576923 -3.593000 5.781646
v -0.576923 -2.439154 7.704723
v 0.576923 -2.439154 7.704723
v -0.576923 -3.593000 7.704723
v 0.576923 -3.593000 7.704723
v 0.576923 -2.439154 5.781646
v -0.576923 -2.439154 5.781646
v 0.576923 -3.593000 5.781646
v -0.576923 -3.593000 5.781646
v 0.576154 -2.171649 6.370386
v 0.576154 -0.699789 2.817003
v 0.576154 -3.593001 5.781642
v 0.576154 -2.121142 2.228259
v -0.576154 -0.699789 2.817003
v -0.576154 -2.171649 6.370386
v -0.576154 -2.121142 2.228259
v -0.576154 -3.593001 5.781642
v -0.576154 -0.699789 2.817003
v 0.576154 -0.699789 2.817003
v -0.576154 -2.171649 6.370386
v 0.576154 -2.171649 6.370386
v -0.576154 -3.593001 5.781642
v 0.576154 -3.593001 5.781642
v -0.576154 -2.121142 2.228259
v 0.576154 -2.121142 2.228259
v -0.576154 -2.171649 6.370386
v 0.576154 -2.171649 6.370386
v -0.576154 -3.593001 5.781642
v 0.576154 -3.593001 5.781642
v 0.576154 -0.699789 2.817003
v -0.576154 -0.699789 2.817003
v 0.576154 -2.121142 2.228259
v -0.576154 -2.121142 2.228259
vn 1.0000 -0.0000 -0.0000
vn -1.0000 -0.0000 -0.0000
vn -0.0000 1.0000 -0.0000
vn -0.0000 -1.0000 -0.0000
vn -0.0000 -0.0000 1.0000
vn -0.0000 -0.0000 -1.0000
vn -0.0000 0.9239 0.3827
vn -0.0000 -0.9239 -0.3827
vn -0.0000 -0.3827 0.9239
vn -0.0000 0.3827 -0.9239
vn -0.0000 0.9239 -0.3827
vn -0.0000 -0.9239 0.3827
vn -0.0000 0.3827 0.9239
vn -0.0000 -0.3827 -0.9239
vt 0.000000 1.000000
vt 0.000000 0.843750
vt 0.437500 1.000000
vt 0.437500 0.843750
vt 0.093750 0.187500
vt 0.093750 0.625000
vt 0.000000 0.187500
vt 0.000000 0.625000
vt 0.218750 0.625000
vt 0.218750 0.187500
vt 0.125000 0.625000
vt 0.125000 0.187500
vt 0.750000 0.562500
vt 0.750000 0.406250
vt 0.843750 0.562500
vt 0.843750 0.406250
vt 0.750000 0.750000
vt 0.750000 0.593750
vt 0.843750 0.750000
vt 0.843750 0.593750
vt 0.437500 0.875000
vt 0.437500 0.750000
vt 0.687500 0.875000
vt 0.687500 0.750000
vt 0.593750 0.250000
vt 0.593750 0.500000
vt 0.500000 0.250000
vt 0.500000 0.500000
vt 0.718750 0.625000
vt 0.718750 0.375000
vt 0.625000 0.625000
vt 0.625000 0.375000
vt 0.812500 0.875000
vt 0.812500 0.750000
vt 0.906250 0.875000
vt 0.906250 0.750000
vt 0.125000 0.062500
vt 0.218750 0.062500
vt 0.625000 0.250000
vt 0.750000 0.375000
vt 0.750000 0.250000
vt 0.781250 0.062500
vt 0.781250 0.187500
vt 0.687500 0.062500
vt 0.687500 0.187500
vt 0.906250 0.187500
vt 0.906250 0.062500
vt 0.812500 0.187500
vt 0.812500 0.062500
vt 0.375000 0.187500
vt 0.375000 0.062500
vt 0.468750 0.187500
vt 0.468750 0.062500
vt 0.250000 0.187500
vt 0.250000 0.062500
vt 0.343750 0.187500
vt 0.343750 0.062500
vt 0.750000 1.000000
vt 0.750000 0.906250
vt 0.906250 1.000000
vt 0.906250 0.906250
vt 0.843750 0.218750
vt 0.843750 0.375000
vt 0.750000 0.218750
vt 0.093750 0.031250
vt 0.000000 0.031250
vt 0.875000 0.500000
vt 0.875000 0.406250
vt 0.968750 0.500000
vt 0.968750 0.406250
vt 0.500000 0.125000
vt 0.500000 0.031250
vt 0.593750 0.125000
vt 0.593750 0.031250
vt 0.250000 0.625000
vt 0.250000 0.500000
vt 0.562500 0.625000
vt 0.562500 0.500000
vt 0.343750 0.500000
vt 0.468750 0.500000
vt 0.375000 0.500000
vt 0.875000 0.625000
vt 0.968750 0.625000
vt 0.875000 0.750000
vt 0.968750 0.750000
s 0
usemtl Material_0
f 1/1/1 3/2/1 2/3/1
f 3/2/1 4/4/1 2/3/1
f 5/3/2 7/4/2 6/1/2
f 7/4/2 8/2/2 6/1/2
f 9/5/3 11/6/3 10/7/3
f 11/6/3 12/8/3 10/7/3
f 13/9/4 15/10/4 14/11/4
f 15/10/4 16/12/4 14/11/4
f 17/13/5 19/14/5 18/15/5
f 19/14/5 20/16/5 18/15/5
f 21/17/6 23/18/6 22/19/6
f 23/18/6 24/20/6 22/19/6
f 25/21/1 27/22/1 26/23/1
f 27/22/1 28/24/1 26/23/1
f 29/23/2 31/24/2 30/21/2
f 31/24/2 32/22/2 30/21/2
f 33/25/7 35/26/7 34/27/7
f 35/26/7 36/28/7 34/27/7
f 37/29/8 39/30/8 38/31/8
f 39/30/8 40/32/8 38/31/8
f 41/33/9 43/34/9 42/35/9
f 43/34/9 44/36/9 42/35/9
f 45/12/10 47/37/10 46/10/10
f 47/37/10 48/38/10 46/10/10
f 49/32/1 51/39/1 50/40/1
f 51/39/1 52/41/1 50/40/1
f 53/40/2 55/41/2 54/32/2
f 55/41/2 56/39/2 54/32/2
f 57/42/11 59/43/11 58/44/11
f 59/43/11 60/45/11 58/44/11
f 61/46/12 63/47/12 62/48/12
f 63/47/12 64/49/12 62/48/12
f 65/50/13 67/51/13 66/52/13
f 67/51/13 68/53/13 66/52/13
f 69/54/14 71/55/14 70/56/14
f 71/55/14 72/57/14 70/56/14
f 73/58/1 75/59/1 74/60/1
f 75/59/1 76/61/1 74/60/1
f 77/60/2 79/61/2 78/58/2
f 79/61/2 80/59/2 78/58/2
f 81/62/3 83/63/3 82/64/3
f 83/63/3 84/40/3 82/64/3
f 85/5/4 87/65/4 86/7/4
f 87/65/4 88/66/4 86/7/4
f 89/67/5 91/68/5 90/69/5
f 91/68/5 92/70/5 90/69/5
f 93/71/6 95/72/6 94/73/6
f 95/72/6 96/74/6 94/73/6
f 97/75/1 99/76/1 98/77/1
f 99/76/1 100/78/1 98/77/1
f 101/77/2 103/78/2 102/75/2
f 103/78/2 104/76/2 102/75/2
f 105/56/7 107/79/7 106/54/7
f 107/79/7 108/76/7 106/54/7
f 109/80/8 111/52/8 110/81/8
f 111/52/8 112/50/8 110/81/8
f 113/82/9 115/67/9 114/83/9
f 115/67/9 116/69/9 114/83/9
f 117/84/10 119/82/10 118/85/10
f 119/82/10 120/83/10 118/85/10
