# Blender 5.0.0
# www.blender.org
mtllib lev.mtprism.mtl
o attachmentModel
v -2.193077 1.915385 0.569231
v -2.192307 1.915385 0.569231
v -2.193077 0.776923 0.569231
v -2.192307 0.776923 0.569231
v -2.192307 1.915385 -0.569231
v -2.193077 1.915385 -0.569231
v -2.192307 0.776923 -0.569231
v -2.193077 0.776923 -0.569231
v -2.192307 1.915385 -0.569231
v -2.192307 1.915385 0.569231
v -2.193077 1.915385 -0.569231
v -2.193077 1.915385 0.569231
v -2.193077 0.776923 -0.569231
v -2.193077 0.776923 0.569231
v -2.192307 0.776923 -0.569231
v -2.192307 0.776923 0.569231
v -2.193077 1.915385 -0.569231
v -2.193077 1.915385 0.569231
v -2.193077 0.776923 -0.569231
v -2.193077 0.776923 0.569231
v -2.192307 1.915385 0.569231
v -2.192307 1.915385 -0.569231
v -2.192307 0.776923 0.569231
v -2.192307 0.776923 -0.569231
v -1.538461 0.384615 0.576923
v 1.538461 0.384615 0.576923
v -1.538461 0.000000 0.576923
v 1.538461 0.000000 0.576923
v 1.538461 0.384615 -0.576923
v -1.538461 0.384615 -0.576923
v 1.538461 0.000000 -0.576923
v -1.538461 0.000000 -0.576923
v 1.538461 0.384615 -0.576923
v 1.538461 0.384615 0.576923
v -1.538461 0.384615 -0.576923
v -1.538461 0.384615 0.576923
v -1.538461 0.000000 -0.576923
v -1.538461 0.000000 0.576923
v 1.538461 0.000000 -0.576923
v 1.538461 0.000000 0.576923
v -1.538461 0.384615 -0.576923
v -1.538461 0.384615 0.576923
v -1.538461 0.000000 -0.576923
v -1.538461 0.000000 0.576923
v 1.538461 0.384615 0.576923
v 1.538461 0.384615 -0.576923
v 1.538461 0.000000 0.576923
v 1.538461 0.000000 -0.576923
v -1.538461 0.769231 0.384615
v 0.769231 0.769231 0.384615
v -1.538461 0.384615 0.384615
v 0.769231 0.384615 0.384615
v 0.769231 0.769231 -0.384615
v -1.538461 0.769231 -0.384615
v 0.769231 0.384615 -0.384615
v -1.538461 0.384615 -0.384615
v 0.769231 0.769231 -0.384615
v 0.769231 0.769231 0.384615
v -1.538461 0.769231 -0.384615
v -1.538461 0.769231 0.384615
v -1.538461 0.384615 -0.384615
v -1.538461 0.384615 0.384615
v 0.769231 0.384615 -0.384615
v 0.769231 0.384615 0.384615
v -1.538461 0.769231 -0.384615
v -1.538461 0.769231 0.384615
v -1.538461 0.384615 -0.384615
v -1.538461 0.384615 0.384615
v 0.769231 0.769231 0.384615
v 0.769231 0.769231 -0.384615
v 0.769231 0.384615 0.384615
v 0.769231 0.384615 -0.384615
v 1.153846 1.923077 0.576923
v 1.538461 1.923077 0.576923
v 1.153846 0.769231 0.576923
v 1.538461 0.769231 0.576923
v 1.538461 1.923077 0.384615
v 1.153846 1.923077 0.384615
v 1.538461 0.769231 0.384615
v 1.153846 0.769231 0.384615
v 1.538461 1.923077 0.384615
v 1.538461 1.923077 0.576923
v 1.153846 1.923077 0.384615
v 1.153846 1.923077 0.576923
v 1.153846 0.769231 0.384615
v 1.153846 0.769231 0.576923
v 1.538461 0.769231 0.384615
v 1.538461 0.769231 0.576923
v 1.153846 1.923077 0.384615
v 1.153846 1.923077 0.576923
v 1.153846 0.769231 0.384615
v 1.153846 0.769231 0.576923
v 1.538461 1.923077 0.576923
v 1.538461 1.923077 0.384615
v 1.538461 0.769231 0.576923
v 1.538461 0.769231 0.384615
v 1.153846 1.923077 0.384615
v 1.538461 1.923077 0.384615
v 1.153846 1.730769 0.384615
v 1.538461 1.730769 0.384615
v 1.538461 1.923077 -0.384615
v 1.153846 1.923077 -0.384615
v 1.538461 1.730769 -0.384615
v 1.153846 1.730769 -0.384615
v 1.538461 1.923077 -0.384615
v 1.538461 1.923077 0.384615
v 1.153846 1.923077 -0.384615
v 1.153846 1.923077 0.384615
v 1.153846 1.730769 -0.384615
v 1.153846 1.730769 0.384615
v 1.538461 1.730769 -0.384615
v 1.538461 1.730769 0.384615
v 1.153846 1.923077 -0.384615
v 1.153846 1.923077 0.384615
v 1.153846 1.730769 -0.384615
v 1.153846 1.730769 0.384615
v 1.538461 1.923077 0.384615
v 1.538461 1.923077 -0.384615
v 1.538461 1.730769 0.384615
v 1.538461 1.730769 -0.384615
v 1.153846 0.961538 0.384615
v 1.538461 0.961538 0.384615
v 1.153846 0.769231 0.384615
v 1.538461 0.769231 0.384615
v 1.538461 0.961538 -0.384615
v 1.153846 0.961538 -0.384615
v 1.538461 0.769231 -0.384615
v 1.153846 0.769231 -0.384615
v 1.538461 0.961538 -0.384615
v 1.538461 0.961538 0.384615
v 1.153846 0.961538 -0.384615
v 1.153846 0.961538 0.384615
v 1.153846 0.769231 -0.384615
v 1.153846 0.769231 0.384615
v 1.538461 0.769231 -0.384615
v 1.538461 0.769231 0.384615
v 1.153846 0.961538 -0.384615
v 1.153846 0.961538 0.384615
v 1.153846 0.769231 -0.384615
v 1.153846 0.769231 0.384615
v 1.538461 0.961538 0.384615
v 1.538461 0.961538 -0.384615
v 1.538461 0.769231 0.384615
v 1.538461 0.769231 -0.384615
v 1.153846 1.923077 -0.384615
v 1.538461 1.923077 -0.384615
v 1.153846 0.769231 -0.384615
v 1.538461 0.769231 -0.384615
v 1.538461 1.923077 -0.576923
v 1.153846 1.923077 -0.576923
v 1.538461 0.769231 -0.576923
v 1.153846 0.769231 -0.576923
v 1.538461 1.923077 -0.576923
v 1.538461 1.923077 -0.384615
v 1.153846 1.923077 -0.576923
v 1.153846 1.923077 -0.384615
v 1.153846 0.769231 -0.576923
v 1.153846 0.769231 -0.384615
v 1.538461 0.769231 -0.576923
v 1.538461 0.769231 -0.384615
v 1.153846 1.923077 -0.576923
v 1.153846 1.923077 -0.384615
v 1.153846 0.769231 -0.576923
v 1.153846 0.769231 -0.384615
v 1.538461 1.923077 -0.384615
v 1.538461 1.923077 -0.576923
v 1.538461 0.769231 -0.384615
v 1.538461 0.769231 -0.576923
v -1.538461 1.351786 0.666312
v 0.769231 1.351786 0.666312
v -1.538461 0.671876 -0.013598
v 0.769231 0.671876 -0.013598
v 0.769231 2.031697 -0.013598
v -1.538461 2.031697 -0.013598
v 0.769231 1.351787 -0.693508
v -1.538461 1.351787 -0.693508
v 0.769231 2.031697 -0.013598
v 0.769231 1.351786 0.666312
v -1.538461 2.031697 -0.013598
v -1.538461 1.351786 0.666312
v -1.538461 1.351787 -0.693508
v -1.538461 0.671876 -0.013598
v 0.769231 1.351787 -0.693508
v 0.769231 0.671876 -0.013598
v -1.538461 2.031697 -0.013598
v -1.538461 1.351786 0.666312
v -1.538461 1.351787 -0.693508
v -1.538461 0.671876 -0.013598
v 0.769231 1.351786 0.666312
v 0.769231 2.031697 -0.013598
v 0.769231 0.671876 -0.013598
v 0.769231 1.351787 -0.693508
v -1.923077 1.923077 0.576923
v -1.538461 1.923077 0.576923
v -1.923077 0.769231 0.576923
v -1.538461 0.769231 0.576923
v -1.538461 1.923077 -0.576923
v -1.923077 1.923077 -0.576923
v -1.538461 0.769231 -0.576923
v -1.923077 0.769231 -0.576923
v -1.538461 1.923077 -0.576923
v -1.538461 1.923077 0.576923
v -1.923077 1.923077 -0.576923
v -1.923077 1.923077 0.576923
v -1.923077 0.769231 -0.576923
v -1.923077 0.769231 0.576923
v -1.538461 0.769231 -0.576923
v -1.538461 0.769231 0.576923
v -1.923077 1.923077 -0.576923
v -1.923077 1.923077 0.576923
v -1.923077 0.769231 -0.576923
v -1.923077 0.769231 0.576923
v -1.538461 1.923077 0.576923
v -1.538461 1.923077 -0.576923
v -1.538461 0.769231 0.576923
v -1.538461 0.769231 -0.576923
v 0.769231 1.923077 0.576923
v 1.153846 1.923077 0.576923
v 0.769231 0.769231 0.576923
v 1.153846 0.769231 0.576923
v 1.153846 1.923077 -0.576923
v 0.769231 1.923077 -0.576923
v 1.153846 0.769231 -0.576923
v 0.769231 0.769231 -0.576923
v 1.153846 1.923077 -0.576923
v 1.153846 1.923077 0.576923
v 0.769231 1.923077 -0.576923
v 0.769231 1.923077 0.576923
v 0.769231 0.769231 -0.576923
v 0.769231 0.769231 0.576923
v 1.153846 0.769231 -0.576923
v 1.153846 0.769231 0.576923
v 0.769231 1.923077 -0.576923
v 0.769231 1.923077 0.576923
v 0.769231 0.769231 -0.576923
v 0.769231 0.769231 0.576923
v 1.153846 1.923077 0.576923
v 1.153846 1.923077 -0.576923
v 1.153846 0.769231 0.576923
v 1.153846 0.769231 -0.576923
v -1.730769 2.115385 0.384615
v 0.576923 2.115385 0.384615
v -1.730769 1.346154 0.384615
v 0.576923 1.346154 0.384615
v 0.576923 2.115385 -0.384615
v -1.730769 2.115385 -0.384615
v 0.576923 1.346154 -0.384615
v -1.730769 1.346154 -0.384615
v 0.576923 2.115385 -0.384615
v 0.576923 2.115385 0.384615
v -1.730769 2.115385 -0.384615
v -1.730769 2.115385 0.384615
v -1.730769 1.346154 -0.384615
v -1.730769 1.346154 0.384615
v 0.576923 1.346154 -0.384615
v 0.576923 1.346154 0.384615
v -1.730769 2.115385 -0.384615
v -1.730769 2.115385 0.384615
v -1.730769 1.346154 -0.384615
v -1.730769 1.346154 0.384615
v 0.576923 2.115385 0.384615
v 0.576923 2.115385 -0.384615
v 0.576923 1.346154 0.384615
v 0.576923 1.346154 -0.384615
v -1.346154 2.500000 0.384615
v -0.576923 2.500000 0.384615
v -1.346154 2.115385 0.384615
v -0.576923 2.115385 0.384615
v -0.576923 2.500000 -0.384615
v -1.346154 2.500000 -0.384615
v -0.576923 2.115385 -0.384615
v -1.346154 2.115385 -0.384615
v -0.576923 2.500000 -0.384615
v -0.576923 2.500000 0.384615
v -1.346154 2.500000 -0.384615
v -1.346154 2.500000 0.384615
v -1.346154 2.115385 -0.384615
v -1.346154 2.115385 0.384615
v -0.576923 2.115385 -0.384615
v -0.576923 2.115385 0.384615
v -1.346154 2.500000 -0.384615
v -1.346154 2.500000 0.384615
v -1.346154 2.115385 -0.384615
v -1.346154 2.115385 0.384615
v -0.576923 2.500000 0.384615
v -0.576923 2.500000 -0.384615
v -0.576923 2.115385 0.384615
v -0.576923 2.115385 -0.384615
v -0.961538 1.730769 0.000000
v -0.192308 1.730769 0.000000
v -0.961538 0.961538 0.000000
v -0.192308 0.961538 0.000000
v -0.192308 1.730769 -0.769231
v -0.961538 1.730769 -0.769231
v -0.192308 0.961538 -0.769231
v -0.961538 0.961538 -0.769231
v -0.192308 1.730769 -0.769231
v -0.192308 1.730769 0.000000
v -0.961538 1.730769 -0.769231
v -0.961538 1.730769 0.000000
v -0.961538 0.961538 -0.769231
v -0.961538 0.961538 0.000000
v -0.192308 0.961538 -0.769231
v -0.192308 0.961538 0.000000
v -0.961538 1.730769 -0.769231
v -0.961538 1.730769 0.000000
v -0.961538 0.961538 -0.769231
v -0.961538 0.961538 0.000000
v -0.192308 1.730769 0.000000
v -0.192308 1.730769 -0.769231
v -0.192308 0.961538 0.000000
v -0.192308 0.961538 -0.769231
v -0.192308 1.730769 0.769231
v 0.576923 1.730769 0.769231
v -0.192308 0.961538 0.769231
v 0.576923 0.961538 0.769231
v 0.576923 1.730769 -0.000000
v -0.192308 1.730769 0.000000
v 0.576923 0.961538 -0.000000
v -0.192308 0.961538 0.000000
v 0.576923 1.730769 -0.000000
v 0.576923 1.730769 0.769231
v -0.192308 1.730769 0.000000
v -0.192308 1.730769 0.769231
v -0.192308 0.961538 0.000000
v -0.192308 0.961538 0.769231
v 0.576923 0.961538 -0.000000
v 0.576923 0.961538 0.769231
v -0.192308 1.730769 0.000000
v -0.192308 1.730769 0.769231
v -0.192308 0.961538 0.000000
v -0.192308 0.961538 0.769231
v 0.576923 1.730769 0.769231
v 0.576923 1.730769 -0.000000
v 0.576923 0.961538 0.769231
v 0.576923 0.961538 -0.000000
v -0.000000 1.538462 -0.384615
v 0.384615 1.538462 -0.384615
v -0.000000 1.153846 -0.384615
v 0.384615 1.153846 -0.384615
v 0.384615 1.538462 -0.769231
v -0.000000 1.538462 -0.769231
v 0.384615 1.153846 -0.769231
v -0.000000 1.153846 -0.769231
v 0.384615 1.538462 -0.769231
v 0.384615 1.538462 -0.384615
v -0.000000 1.538462 -0.769231
v -0.000000 1.538462 -0.384615
v -0.000000 1.153846 -0.769231
v -0.000000 1.153846 -0.384615
v 0.384615 1.153846 -0.769231
v 0.384615 1.153846 -0.384615
v -0.000000 1.538462 -0.769231
v -0.000000 1.538462 -0.384615
v -0.000000 1.153846 -0.769231
v -0.000000 1.153846 -0.384615
v 0.384615 1.538462 -0.384615
v 0.384615 1.538462 -0.769231
v 0.384615 1.153846 -0.384615
v 0.384615 1.153846 -0.769231
v -0.271964 2.307692 -0.000000
v -0.000000 2.307692 0.271964
v -0.271964 1.923077 -0.000000
v -0.000000 1.923077 0.271964
v 0.271964 2.307692 0.000000
v 0.000000 2.307692 -0.271964
v 0.271964 1.923077 0.000000
v 0.000000 1.923077 -0.271964
v 0.271964 2.307692 0.000000
v -0.000000 2.307692 0.271964
v 0.000000 2.307692 -0.271964
v -0.271964 2.307692 -0.000000
v 0.000000 1.923077 -0.271964
v -0.271964 1.923077 -0.000000
v 0.271964 1.923077 0.000000
v -0.000000 1.923077 0.271964
v 0.000000 2.307692 -0.271964
v -0.271964 2.307692 -0.000000
v 0.000000 1.923077 -0.271964
v -0.271964 1.923077 -0.000000
v -0.000000 2.307692 0.271964
v 0.271964 2.307692 0.000000
v -0.000000 1.923077 0.271964
v 0.271964 1.923077 0.000000
v -2.307692 1.923077 -0.384615
v -1.923077 1.923077 -0.384615
v -2.307692 0.769231 -0.384615
v -1.923077 0.769231 -0.384615
v -1.923077 1.923077 -0.576923
v -2.307692 1.923077 -0.576923
v -1.923077 0.769231 -0.576923
v -2.307692 0.769231 -0.576923
v -1.923077 1.923077 -0.576923
v -1.923077 1.923077 -0.384615
v -2.307692 1.923077 -0.576923
v -2.307692 1.923077 -0.384615
v -2.307692 0.769231 -0.576923
v -2.307692 0.769231 -0.384615
v -1.923077 0.769231 -0.576923
v -1.923077 0.769231 -0.384615
v -2.307692 1.923077 -0.576923
v -2.307692 1.923077 -0.384615
v -2.307692 0.769231 -0.576923
v -2.307692 0.769231 -0.384615
v -1.923077 1.923077 -0.384615
v -1.923077 1.923077 -0.576923
v -1.923077 0.769231 -0.384615
v -1.923077 0.769231 -0.576923
v -2.307692 1.923077 0.576923
v -1.923077 1.923077 0.576923
v -2.307692 0.769231 0.576923
v -1.923077 0.769231 0.576923
v -1.923077 1.923077 0.384615
v -2.307692 1.923077 0.384615
v -1.923077 0.769231 0.384615
v -2.307692 0.769231 0.384615
v -1.923077 1.923077 0.384615
v -1.923077 1.923077 0.576923
v -2.307692 1.923077 0.384615
v -2.307692 1.923077 0.576923
v -2.307692 0.769231 0.384615
v -2.307692 0.769231 0.576923
v -1.923077 0.769231 0.384615
v -1.923077 0.769231 0.576923
v -2.307692 1.923077 0.384615
v -2.307692 1.923077 0.576923
v -2.307692 0.769231 0.384615
v -2.307692 0.769231 0.576923
v -1.923077 1.923077 0.576923
v -1.923077 1.923077 0.384615
v -1.923077 0.769231 0.576923
v -1.923077 0.769231 0.384615
v -2.307692 1.923077 0.384615
v -1.923077 1.923077 0.384615
v -2.307692 1.730769 0.384615
v -1.923077 1.730769 0.384615
v -1.923077 1.923077 -0.384615
v -2.307692 1.923077 -0.384615
v -1.923077 1.730769 -0.384615
v -2.307692 1.730769 -0.384615
v -1.923077 1.923077 -0.384615
v -1.923077 1.923077 0.384615
v -2.307692 1.923077 -0.384615
v -2.307692 1.923077 0.384615
v -2.307692 1.730769 -0.384615
v -2.307692 1.730769 0.384615
v -1.923077 1.730769 -0.384615
v -1.923077 1.730769 0.384615
v -2.307692 1.923077 -0.384615
v -2.307692 1.923077 0.384615
v -2.307692 1.730769 -0.384615
v -2.307692 1.730769 0.384615
v -1.923077 1.923077 0.384615
v -1.923077 1.923077 -0.384615
v -1.923077 1.730769 0.384615
v -1.923077 1.730769 -0.384615
v -2.307692 0.961538 0.384615
v -1.923077 0.961538 0.384615
v -2.307692 0.769231 0.384615
v -1.923077 0.769231 0.384615
v -1.923077 0.961538 -0.384615
v -2.307692 0.961538 -0.384615
v -1.923077 0.769231 -0.384615
v -2.307692 0.769231 -0.384615
v -1.923077 0.961538 -0.384615
v -1.923077 0.961538 0.384615
v -2.307692 0.961538 -0.384615
v -2.307692 0.961538 0.384615
v -2.307692 0.769231 -0.384615
v -2.307692 0.769231 0.384615
v -1.923077 0.769231 -0.384615
v -1.923077 0.769231 0.384615
v -2.307692 0.961538 -0.384615
v -2.307692 0.961538 0.384615
v -2.307692 0.769231 -0.384615
v -2.307692 0.769231 0.384615
v -1.923077 0.961538 0.384615
v -1.923077 0.961538 -0.384615
v -1.923077 0.769231 0.384615
v -1.923077 0.769231 -0.384615
v -1.346154 0.576923 -0.576923
v -0.576923 0.576923 -0.576923
v -1.346154 -0.192308 -0.576923
v -0.576923 -0.192308 -0.576923
v -0.576923 0.576923 -0.961538
v -1.346154 0.576923 -0.961538
v -0.576923 -0.192308 -0.961538
v -1.346154 -0.192308 -0.961538
v -0.576923 0.576923 -0.961538
v -0.576923 0.576923 -0.576923
v -1.346154 0.576923 -0.961538
v -1.346154 0.576923 -0.576923
v -1.346154 -0.192308 -0.961538
v -1.346154 -0.192308 -0.576923
v -0.576923 -0.192308 -0.961538
v -0.576923 -0.192308 -0.576923
v -1.346154 0.576923 -0.961538
v -1.346154 0.576923 -0.576923
v -1.346154 -0.192308 -0.961538
v -1.346154 -0.192308 -0.576923
v -0.576923 0.576923 -0.576923
v -0.576923 0.576923 -0.961538
v -0.576923 -0.192308 -0.576923
v -0.576923 -0.192308 -0.961538
v 0.192308 0.576923 -0.576923
v 0.961538 0.576923 -0.576923
v 0.192308 -0.192308 -0.576923
v 0.961538 -0.192308 -0.576923
v 0.961538 0.576923 -0.961538
v 0.192308 0.576923 -0.961538
v 0.961538 -0.192308 -0.961538
v 0.192308 -0.192308 -0.961538
v 0.961538 0.576923 -0.961538
v 0.961538 0.576923 -0.576923
v 0.192308 0.576923 -0.961538
v 0.192308 0.576923 -0.576923
v 0.192308 -0.192308 -0.961538
v 0.192308 -0.192308 -0.576923
v 0.961538 -0.192308 -0.961538
v 0.961538 -0.192308 -0.576923
v 0.192308 0.576923 -0.961538
v 0.192308 0.576923 -0.576923
v 0.192308 -0.192308 -0.961538
v 0.192308 -0.192308 -0.576923
v 0.961538 0.576923 -0.576923
v 0.961538 0.576923 -0.961538
v 0.961538 -0.192308 -0.576923
v 0.961538 -0.192308 -0.961538
vn -0.0000 -0.0000 1.0000
vn -0.0000 -0.0000 -1.0000
vn -0.0000 1.0000 -0.0000
vn -0.0000 -1.0000 -0.0000
vn -1.0000 -0.0000 -0.0000
vn 1.0000 -0.0000 -0.0000
vn -0.0000 -0.7071 0.7071
vn -0.0000 0.7071 -0.7071
vn -0.0000 0.7071 0.7071
vn -0.0000 -0.7071 -0.7071
vn -0.7071 -0.0000 0.7071
vn 0.7071 -0.0000 -0.7071
vn -0.7071 -0.0000 -0.7071
vn 0.7071 -0.0000 0.7071
vt 0.000000 1.000000
vt 0.000000 0.906250
vt 0.093750 1.000000
vt 0.375000 0.625000
vt 0.375000 0.531250
vt 0.468750 0.625000
vt 0.468750 0.531250
vt 0.375000 0.750000
vt 0.375000 0.656250
vt 0.468750 0.750000
vt 0.468750 0.656250
vt 0.125000 0.375000
vt 0.125000 0.343750
vt 0.375000 0.375000
vt 0.375000 0.343750
vt 0.625000 0.750000
vt 0.625000 0.718750
vt 0.875000 0.750000
vt 0.875000 0.718750
vt 0.093750 0.750000
vt 0.000000 0.750000
vt 0.218750 1.000000
vt 0.218750 0.750000
vt 0.125000 1.000000
vt 0.125000 0.750000
vt 0.687500 0.500000
vt 0.687500 0.468750
vt 0.781250 0.500000
vt 0.781250 0.468750
vt 0.500000 0.312500
vt 0.500000 0.281250
vt 0.593750 0.312500
vt 0.593750 0.281250
vt 0.625000 0.687500
vt 0.625000 0.656250
vt 0.812500 0.687500
vt 0.812500 0.656250
vt 0.562500 0.375000
vt 0.562500 0.343750
vt 0.375000 0.500000
vt 0.375000 0.687500
vt 0.312500 0.500000
vt 0.312500 0.687500
vt 0.062500 0.625000
vt 0.062500 0.437500
vt 0.000000 0.625000
vt 0.000000 0.437500
vt 0.812500 0.500000
vt 0.812500 0.468750
vt 0.875000 0.500000
vt 0.875000 0.468750
vt 0.875000 0.687500
vt 0.875000 0.656250
vt 0.625000 0.312500
vt 0.625000 0.218750
vt 0.656250 0.312500
vt 0.656250 0.218750
vt 0.000000 0.250000
vt 0.000000 0.156250
vt 0.031250 0.250000
vt 0.031250 0.156250
vt 0.843750 0.093750
vt 0.843750 0.125000
vt 0.812500 0.093750
vt 0.812500 0.125000
vt 0.906250 0.187500
vt 0.906250 0.156250
vt 0.875000 0.187500
vt 0.875000 0.156250
vt 0.687500 0.312500
vt 0.687500 0.218750
vt 0.718750 0.312500
vt 0.718750 0.218750
vt 0.687500 0.437500
vt 0.687500 0.343750
vt 0.718750 0.437500
vt 0.718750 0.343750
vt 0.875000 0.125000
vt 0.875000 0.093750
vt 0.906250 0.125000
vt 0.906250 0.093750
vt 0.000000 0.062500
vt 0.000000 0.031250
vt 0.031250 0.062500
vt 0.031250 0.031250
vt 0.859375 0.281250
vt 0.859375 0.312500
vt 0.796875 0.281250
vt 0.796875 0.312500
vt 0.875000 0.250000
vt 0.875000 0.218750
vt 0.812500 0.250000
vt 0.812500 0.218750
vt 0.687500 0.187500
vt 0.687500 0.156250
vt 0.750000 0.187500
vt 0.750000 0.156250
vt 0.796875 0.375000
vt 0.796875 0.343750
vt 0.859375 0.375000
vt 0.859375 0.343750
vt 0.937500 1.000000
vt 0.937500 0.968750
vt 0.968750 1.000000
vt 0.968750 0.968750
vt 0.062500 0.062500
vt 0.062500 0.031250
vt 0.093750 0.062500
vt 0.093750 0.031250
vt 0.875000 0.968750
vt 0.875000 1.000000
vt 0.109375 0.093750
vt 0.109375 0.062500
vt 0.046875 0.093750
vt 0.046875 0.062500
vt 0.000000 0.125000
vt 0.000000 0.093750
vt 0.062500 0.125000
vt 0.062500 0.093750
vt 0.796875 0.187500
vt 0.796875 0.156250
vt 0.859375 0.187500
vt 0.859375 0.156250
vt 0.062500 0.250000
vt 0.062500 0.156250
vt 0.093750 0.250000
vt 0.093750 0.156250
vt 0.750000 0.875000
vt 0.750000 0.781250
vt 0.781250 0.875000
vt 0.781250 0.781250
vt 0.968750 0.906250
vt 0.968750 0.937500
vt 0.937500 0.906250
vt 0.937500 0.937500
vt 0.156250 0.062500
vt 0.156250 0.031250
vt 0.125000 0.062500
vt 0.125000 0.031250
vt 0.125000 0.250000
vt 0.125000 0.156250
vt 0.156250 0.250000
vt 0.156250 0.156250
vt 0.750000 1.000000
vt 0.750000 0.906250
vt 0.781250 1.000000
vt 0.781250 0.906250
vt 0.000000 0.656250
vt 0.187500 0.750000
vt 0.187500 0.656250
vt 0.250000 1.000000
vt 0.250000 0.906250
vt 0.437500 1.000000
vt 0.437500 0.906250
vt 0.343750 0.687500
vt 0.343750 0.875000
vt 0.250000 0.687500
vt 0.250000 0.875000
vt 0.281250 0.687500
vt 0.281250 0.500000
vt 0.187500 0.687500
vt 0.187500 0.500000
vt 0.437500 0.500000
vt 0.437500 0.406250
vt 0.531250 0.500000
vt 0.531250 0.406250
vt 0.500000 0.625000
vt 0.500000 0.531250
vt 0.593750 0.625000
vt 0.593750 0.531250
vt 0.187500 0.250000
vt 0.187500 0.156250
vt 0.218750 0.250000
vt 0.218750 0.156250
vt 0.250000 0.250000
vt 0.250000 0.156250
vt 0.281250 0.250000
vt 0.281250 0.156250
vt 0.406250 0.218750
vt 0.406250 0.250000
vt 0.312500 0.218750
vt 0.312500 0.250000
vt 0.843750 0.625000
vt 0.843750 0.593750
vt 0.750000 0.625000
vt 0.750000 0.593750
vt 0.562500 1.000000
vt 0.562500 0.906250
vt 0.656250 1.000000
vt 0.656250 0.906250
vt 0.000000 0.343750
vt 0.093750 0.437500
vt 0.093750 0.343750
vt 0.437500 0.250000
vt 0.437500 0.156250
vt 0.468750 0.250000
vt 0.468750 0.156250
vt 0.500000 0.250000
vt 0.500000 0.156250
vt 0.531250 0.250000
vt 0.531250 0.156250
vt 0.843750 0.531250
vt 0.843750 0.562500
vt 0.750000 0.531250
vt 0.750000 0.562500
vt 0.843750 0.437500
vt 0.843750 0.406250
vt 0.750000 0.437500
vt 0.750000 0.406250
vt 0.562500 0.500000
vt 0.562500 0.406250
vt 0.656250 0.500000
vt 0.656250 0.406250
vt 0.375000 0.875000
vt 0.375000 0.812500
vt 0.562500 0.875000
vt 0.562500 0.812500
vt 0.562500 0.750000
vt 0.125000 0.437500
vt 0.125000 0.625000
vt 0.187500 0.625000
vt 0.187500 0.437500
vt 0.187500 0.375000
vt 0.250000 0.750000
vt 0.125000 0.125000
vt 0.125000 0.093750
vt 0.187500 0.125000
vt 0.187500 0.093750
vt 0.250000 0.125000
vt 0.250000 0.093750
vt 0.687500 0.562500
vt 0.687500 0.625000
vt 0.625000 0.562500
vt 0.625000 0.625000
vt 0.625000 0.500000
vt 0.875000 0.875000
vt 0.875000 0.843750
vt 0.937500 0.875000
vt 0.937500 0.843750
vt 0.875000 0.937500
vt 0.875000 0.906250
vt 0.625000 0.375000
vt 0.687500 0.375000
vt 0.687500 1.000000
vt 0.687500 0.937500
vt 0.750000 0.937500
vt 0.125000 0.312500
vt 0.062500 0.312500
vt 0.687500 0.875000
vt 0.000000 0.312500
vt 0.562500 0.312500
vt 0.687500 0.812500
vt 0.750000 0.812500
vt 0.687500 0.750000
vt 0.750000 0.750000
vt 0.312500 0.312500
vt 0.250000 0.312500
vt 0.375000 0.312500
vt 0.375000 0.250000
vt 0.187500 0.312500
vt 0.187500 0.062500
vt 0.187500 0.031250
vt 0.218750 0.062500
vt 0.218750 0.031250
vt 0.250000 0.062500
vt 0.250000 0.031250
vt 0.281250 0.062500
vt 0.281250 0.031250
vt 0.968750 0.718750
vt 0.968750 0.750000
vt 0.937500 0.718750
vt 0.937500 0.750000
vt 0.343750 0.062500
vt 0.343750 0.031250
vt 0.312500 0.062500
vt 0.312500 0.031250
vt 0.937500 0.812500
vt 0.937500 0.781250
vt 0.968750 0.812500
vt 0.968750 0.781250
vt 0.968750 0.875000
vt 0.968750 0.843750
vt 0.375000 0.062500
vt 0.375000 0.031250
vt 0.406250 0.062500
vt 0.406250 0.031250
vt 0.437500 0.062500
vt 0.437500 0.031250
vt 0.468750 0.062500
vt 0.468750 0.031250
vt 0.968750 0.531250
vt 0.968750 0.562500
vt 0.937500 0.531250
vt 0.937500 0.562500
vt 0.531250 0.062500
vt 0.531250 0.031250
vt 0.500000 0.062500
vt 0.500000 0.031250
vt 0.937500 0.625000
vt 0.937500 0.593750
vt 0.968750 0.625000
vt 0.968750 0.593750
vt 0.937500 0.687500
vt 0.937500 0.656250
vt 0.968750 0.687500
vt 0.968750 0.656250
vt 0.750000 0.375000
vt 0.750000 0.281250
vt 0.781250 0.375000
vt 0.781250 0.281250
vt 0.812500 1.000000
vt 0.812500 0.906250
vt 0.843750 1.000000
vt 0.843750 0.906250
vt 0.968750 0.468750
vt 0.968750 0.500000
vt 0.937500 0.468750
vt 0.937500 0.500000
vt 0.593750 0.062500
vt 0.593750 0.031250
vt 0.562500 0.062500
vt 0.562500 0.031250
vt 0.750000 0.250000
vt 0.781250 0.250000
vt 0.781250 0.156250
vt 0.562500 0.250000
vt 0.562500 0.156250
vt 0.593750 0.250000
vt 0.593750 0.156250
vt 0.312500 0.187500
vt 0.312500 0.093750
vt 0.343750 0.187500
vt 0.343750 0.093750
vt 0.625000 0.187500
vt 0.625000 0.093750
vt 0.656250 0.187500
vt 0.656250 0.093750
vt 0.968750 0.406250
vt 0.968750 0.437500
vt 0.937500 0.406250
vt 0.937500 0.437500
vt 0.656250 0.062500
vt 0.656250 0.031250
vt 0.625000 0.062500
vt 0.625000 0.031250
vt 0.375000 0.187500
vt 0.375000 0.093750
vt 0.406250 0.187500
vt 0.406250 0.093750
vt 0.812500 0.875000
vt 0.812500 0.781250
vt 0.843750 0.875000
vt 0.843750 0.781250
vt 0.937500 0.375000
vt 0.937500 0.343750
vt 0.968750 0.375000
vt 0.968750 0.343750
vt 0.687500 0.062500
vt 0.687500 0.031250
vt 0.718750 0.062500
vt 0.718750 0.031250
vt 0.953125 0.750000
vt 0.953125 0.781250
vt 0.890625 0.750000
vt 0.890625 0.781250
vt 0.234375 0.093750
vt 0.234375 0.062500
vt 0.296875 0.093750
vt 0.296875 0.062500
vt 0.875000 0.812500
vt 0.875000 0.781250
vt 0.937500 0.312500
vt 0.937500 0.281250
vt 0.968750 0.312500
vt 0.968750 0.281250
vt 0.750000 0.062500
vt 0.750000 0.031250
vt 0.781250 0.062500
vt 0.781250 0.031250
vt 0.875000 0.531250
vt 0.875000 0.562500
vt 0.546875 0.093750
vt 0.546875 0.062500
vt 0.484375 0.093750
vt 0.484375 0.062500
vt 0.421875 0.125000
vt 0.421875 0.093750
vt 0.484375 0.125000
vt 0.875000 0.625000
vt 0.875000 0.593750
vt 0.437500 0.312500
vt 0.906250 0.375000
vt 0.906250 0.437500
vt 0.875000 0.375000
vt 0.875000 0.437500
vt 0.906250 0.312500
vt 0.875000 0.312500
vt 0.562500 0.125000
vt 0.593750 0.125000
vt 0.906250 0.500000
vt 0.750000 0.500000
vt 0.781250 0.125000
vt 0.750000 0.125000
vt 0.906250 0.250000
vt 0.687500 0.125000
vt 0.718750 0.125000
s 0
usemtl Material_0
f 1/1/1 3/2/1 2/1/1
f 3/2/1 4/2/1 2/1/1
f 5/1/2 7/2/2 6/1/2
f 7/2/2 8/2/2 6/1/2
f 9/3/3 11/3/3 10/1/3
f 11/3/3 12/1/3 10/1/3
f 13/3/4 15/3/4 14/1/4
f 15/3/4 16/1/4 14/1/4
f 17/4/5 19/5/5 18/6/5
f 19/5/5 20/7/5 18/6/5
f 21/8/6 23/9/6 22/10/6
f 23/9/6 24/11/6 22/10/6
f 25/12/1 27/13/1 26/14/1
f 27/13/1 28/15/1 26/14/1
f 29/16/2 31/17/2 30/18/2
f 31/17/2 32/19/2 30/18/2
f 33/20/3 35/3/3 34/21/3
f 35/3/3 36/1/3 34/21/3
f 37/22/4 39/23/4 38/24/4
f 39/23/4 40/25/4 38/24/4
f 41/26/5 43/27/5 42/28/5
f 43/27/5 44/29/5 42/28/5
f 45/30/6 47/31/6 46/32/6
f 47/31/6 48/33/6 46/32/6
f 49/34/1 51/35/1 50/36/1
f 51/35/1 52/37/1 50/36/1
f 53/14/2 55/15/2 54/38/2
f 55/15/2 56/39/2 54/38/2
f 57/40/3 59/41/3 58/42/3
f 59/41/3 60/43/3 58/42/3
f 61/44/4 63/45/4 62/46/4
f 63/45/4 64/47/4 62/46/4
f 65/48/5 67/49/5 66/50/5
f 67/49/5 68/51/5 66/50/5
f 69/36/6 71/37/6 70/52/6
f 71/37/6 72/53/6 70/52/6
f 73/54/1 75/55/1 74/56/1
f 75/55/1 76/57/1 74/56/1
f 77/58/2 79/59/2 78/60/2
f 79/59/2 80/61/2 78/60/2
f 81/62/3 83/63/3 82/64/3
f 83/63/3 84/65/3 82/64/3
f 85/66/4 87/67/4 86/68/4
f 87/67/4 88/69/4 86/68/4
f 89/70/5 91/71/5 90/72/5
f 91/71/5 92/73/5 90/72/5
f 93/74/6 95/75/6 94/76/6
f 95/75/6 96/77/6 94/76/6
f 97/78/1 99/79/1 98/80/1
f 99/79/1 100/81/1 98/80/1
f 101/82/2 103/83/2 102/84/2
f 103/83/2 104/85/2 102/84/2
f 105/86/3 107/87/3 106/88/3
f 107/87/3 108/89/3 106/88/3
f 109/90/4 111/91/4 110/92/4
f 111/91/4 112/93/4 110/92/4
f 113/94/5 115/95/5 114/96/5
f 115/95/5 116/97/5 114/96/5
f 117/98/6 119/99/6 118/100/6
f 119/99/6 120/101/6 118/100/6
f 121/102/1 123/103/1 122/104/1
f 123/103/1 124/105/1 122/104/1
f 125/106/2 127/107/2 126/108/2
f 127/107/2 128/109/2 126/108/2
f 129/103/3 131/102/3 130/110/3
f 131/102/3 132/111/3 130/110/3
f 133/112/4 135/113/4 134/114/4
f 135/113/4 136/115/4 134/114/4
f 137/116/5 139/117/5 138/118/5
f 139/117/5 140/119/5 138/118/5
f 141/120/6 143/121/6 142/122/6
f 143/121/6 144/123/6 142/122/6
f 145/124/1 147/125/1 146/126/1
f 147/125/1 148/127/1 146/126/1
f 149/128/2 151/129/2 150/130/2
f 151/129/2 152/131/2 150/130/2
f 153/132/3 155/133/3 154/134/3
f 155/133/3 156/135/3 154/134/3
f 157/136/4 159/137/4 158/138/4
f 159/137/4 160/139/4 158/138/4
f 161/140/5 163/141/5 162/142/5
f 163/141/5 164/143/5 162/142/5
f 165/144/6 167/145/6 166/146/6
f 167/145/6 168/147/6 166/146/6
f 169/21/7 171/148/7 170/149/7
f 171/148/7 172/150/7 170/149/7
f 173/151/8 175/152/8 174/153/8
f 175/152/8 176/154/8 174/153/8
f 177/155/9 179/156/9 178/157/9
f 179/156/9 180/158/9 178/157/9
f 181/159/10 183/160/10 182/161/10
f 183/160/10 184/162/10 182/161/10
f 185/163/5 187/164/5 186/165/5
f 187/164/5 188/166/5 186/165/5
f 189/167/6 191/168/6 190/169/6
f 191/168/6 192/170/6 190/169/6
f 193/171/1 195/172/1 194/173/1
f 195/172/1 196/174/1 194/173/1
f 197/175/2 199/176/2 198/177/2
f 199/176/2 200/178/2 198/177/2
f 201/179/3 203/180/3 202/181/3
f 203/180/3 204/182/3 202/181/3
f 205/183/4 207/184/4 206/185/4
f 207/184/4 208/186/4 206/185/4
f 209/187/5 211/188/5 210/189/5
f 211/188/5 212/190/5 210/189/5
f 213/47/6 215/191/6 214/192/6
f 215/191/6 216/193/6 214/192/6
f 217/194/1 219/195/1 218/196/1
f 219/195/1 220/197/1 218/196/1
f 221/198/2 223/199/2 222/200/2
f 223/199/2 224/201/2 222/200/2
f 225/202/3 227/203/3 226/204/3
f 227/203/3 228/205/3 226/204/3
f 229/206/4 231/207/4 230/208/4
f 231/207/4 232/209/4 230/208/4
f 233/210/5 235/211/5 234/212/5
f 235/211/5 236/213/5 234/212/5
f 237/4/6 239/5/6 238/6/6
f 239/5/6 240/7/6 238/6/6
f 241/214/1 243/215/1 242/216/1
f 243/215/1 244/217/1 242/216/1
f 245/215/2 247/8/2 246/217/2
f 247/8/2 248/218/2 246/217/2
f 249/219/3 251/220/3 250/45/3
f 251/220/3 252/44/3 250/45/3
f 253/221/4 255/222/4 254/220/4
f 255/222/4 256/219/4 254/220/4
f 257/219/5 259/12/5 258/222/5
f 259/12/5 260/223/5 258/222/5
f 261/149/6 263/161/6 262/224/6
f 263/161/6 264/157/6 262/224/6
f 265/225/1 267/226/1 266/227/1
f 267/226/1 268/228/1 266/227/1
f 269/227/2 271/228/2 270/229/2
f 271/228/2 272/230/2 270/229/2
f 273/231/3 275/232/3 274/233/3
f 275/232/3 276/234/3 274/233/3
f 277/231/4 279/26/4 278/233/4
f 279/26/4 280/235/4 278/233/4
f 281/236/5 283/237/5 282/238/5
f 283/237/5 284/239/5 282/238/5
f 285/240/6 287/241/6 286/135/6
f 287/241/6 288/134/6 286/135/6
f 289/242/1 291/54/1 290/243/1
f 291/54/1 292/70/1 290/243/1
f 293/244/2 295/245/2 294/144/2
f 295/245/2 296/246/2 294/144/2
f 297/140/3 299/247/3 298/124/3
f 299/247/3 300/248/3 298/124/3
f 301/246/4 303/128/4 302/245/4
f 303/128/4 304/249/4 302/245/4
f 305/250/5 307/58/5 306/248/5
f 307/58/5 308/124/5 306/248/5
f 309/38/6 311/251/6 310/242/6
f 311/251/6 312/54/6 310/242/6
f 313/249/1 315/252/1 314/128/1
f 315/252/1 316/253/1 314/128/1
f 317/252/2 319/254/2 318/253/2
f 319/254/2 320/255/2 318/253/2
f 321/182/3 323/256/3 322/175/3
f 323/256/3 324/257/3 322/175/3
f 325/258/4 327/259/4 326/256/4
f 327/259/4 328/182/4 326/256/4
f 329/260/5 331/171/5 330/257/5
f 331/171/5 332/175/5 330/257/5
f 333/247/6 335/140/6 334/260/6
f 335/140/6 336/171/6 334/260/6
f 337/261/1 339/262/1 338/263/1
f 339/262/1 340/264/1 338/263/1
f 341/265/2 343/266/2 342/267/2
f 343/266/2 344/268/2 342/267/2
f 345/269/3 347/270/3 346/271/3
f 347/270/3 348/272/3 346/271/3
f 349/273/4 351/274/4 350/275/4
f 351/274/4 352/276/4 350/275/4
f 353/277/5 355/278/5 354/279/5
f 355/278/5 356/280/5 354/279/5
f 357/238/6 359/239/6 358/281/6
f 359/239/6 360/282/6 358/281/6
f 361/283/11 363/284/11 362/285/11
f 363/284/11 364/286/11 362/285/11
f 365/287/12 367/288/12 366/289/12
f 367/288/12 368/290/12 366/289/12
f 369/291/3 371/292/3 370/293/3
f 371/292/3 372/294/3 370/293/3
f 373/295/4 375/296/4 374/297/4
f 375/296/4 376/298/4 374/297/4
f 377/299/13 379/300/13 378/301/13
f 379/300/13 380/302/13 378/301/13
f 381/303/14 383/304/14 382/305/14
f 383/304/14 384/306/14 382/305/14
f 385/307/1 387/308/1 386/309/1
f 387/308/1 388/310/1 386/309/1
f 389/311/2 391/312/2 390/313/2
f 391/312/2 392/314/2 390/313/2
f 393/315/3 395/316/3 394/317/3
f 395/316/3 396/318/3 394/317/3
f 397/319/4 399/320/4 398/321/4
f 399/320/4 400/322/4 398/321/4
f 401/323/5 403/97/5 402/324/5
f 403/97/5 404/325/5 402/324/5
f 405/326/6 407/327/6 406/328/6
f 407/327/6 408/329/6 406/328/6
f 409/330/1 411/331/1 410/332/1
f 411/331/1 412/333/1 410/332/1
f 413/334/2 415/335/2 414/336/2
f 415/335/2 416/337/2 414/336/2
f 417/338/3 419/339/3 418/340/3
f 419/339/3 420/341/3 418/340/3
f 421/342/4 423/343/4 422/344/4
f 423/343/4 424/345/4 422/344/4
f 425/346/5 427/347/5 426/348/5
f 427/347/5 428/349/5 426/348/5
f 429/350/6 431/351/6 430/352/6
f 431/351/6 432/353/6 430/352/6
f 433/354/1 435/355/1 434/356/1
f 435/355/1 436/357/1 434/356/1
f 437/358/2 439/359/2 438/360/2
f 439/359/2 440/361/2 438/360/2
f 441/362/3 443/363/3 442/364/3
f 443/363/3 444/365/3 442/364/3
f 445/303/4 447/304/4 446/52/4
f 447/304/4 448/53/4 446/52/4
f 449/366/5 451/367/5 450/368/5
f 451/367/5 452/369/5 450/368/5
f 453/370/6 455/371/6 454/277/6
f 455/371/6 456/278/6 454/277/6
f 457/372/1 459/373/1 458/374/1
f 459/373/1 460/375/1 458/374/1
f 461/376/2 463/377/2 462/378/2
f 463/377/2 464/379/2 462/378/2
f 465/293/3 467/294/3 466/380/3
f 467/294/3 468/381/3 466/380/3
f 469/382/4 471/383/4 470/384/4
f 471/383/4 472/385/4 470/384/4
f 473/386/5 475/387/5 474/388/5
f 475/387/5 476/384/5 474/388/5
f 477/389/6 479/390/6 478/299/6
f 479/390/6 480/300/6 478/299/6
f 481/258/1 483/259/1 482/391/1
f 483/259/1 484/194/1 482/391/1
f 485/232/2 487/231/2 486/185/2
f 487/231/2 488/205/2 486/185/2
f 489/392/3 491/393/3 490/394/3
f 491/393/3 492/395/3 490/394/3
f 493/392/4 495/396/4 494/394/4
f 495/396/4 496/397/4 494/394/4
f 497/398/5 499/321/5 498/399/5
f 499/321/5 500/319/5 498/399/5
f 501/50/6 503/395/6 502/400/6
f 503/395/6 504/393/6 502/400/6
f 505/391/1 507/194/1 506/30/1
f 507/194/1 508/198/1 506/30/1
f 509/231/2 511/26/2 510/205/2
f 511/26/2 512/401/2 510/205/2
f 513/378/3 515/402/3 514/376/3
f 515/402/3 516/403/3 514/376/3
f 517/404/4 519/66/4 518/90/4
f 519/66/4 520/68/4 518/90/4
f 521/397/5 523/90/5 522/396/5
f 523/90/5 524/404/5 522/396/5
f 525/405/6 527/358/6 526/406/6
f 527/358/6 528/360/6 526/406/6
o scopeModel
v -2.212307 1.923077 0.576923
v -2.211538 1.923077 0.576923
v -2.212307 0.769231 0.576923
v -2.211538 0.769231 0.576923
v -2.211538 1.923077 -0.576923
v -2.212307 1.923077 -0.576923
v -2.211538 0.769231 -0.576923
v -2.212307 0.769231 -0.576923
v -2.211538 1.923077 -0.576923
v -2.211538 1.923077 0.576923
v -2.212307 1.923077 -0.576923
v -2.212307 1.923077 0.576923
v -2.212307 0.769231 -0.576923
v -2.212307 0.769231 0.576923
v -2.211538 0.769231 -0.576923
v -2.211538 0.769231 0.576923
v -2.212307 1.923077 -0.576923
v -2.212307 1.923077 0.576923
v -2.212307 0.769231 -0.576923
v -2.212307 0.769231 0.576923
v -2.211538 1.923077 0.576923
v -2.211538 1.923077 -0.576923
v -2.211538 0.769231 0.576923
v -2.211538 0.769231 -0.576923
vn -0.0000 -0.0000 1.0000
vn -0.0000 -0.0000 -1.0000
vn -0.0000 1.0000 -0.0000
vn -0.0000 -1.0000 -0.0000
vn -1.0000 -0.0000 -0.0000
vn 1.0000 -0.0000 -0.0000
vt 0.906250 0.093750
vt 0.906250 0.000000
vt 1.000000 0.093750
vt 1.000000 0.000000
s 0
usemtl Material_0
f 529/407/15 531/408/15 530/409/15
f 531/408/15 532/410/15 530/409/15
f 533/407/16 535/408/16 534/409/16
f 535/408/16 536/410/16 534/409/16
f 537/407/17 539/408/17 538/409/17
f 539/408/17 540/410/17 538/409/17
f 541/407/18 543/408/18 542/409/18
f 543/408/18 544/410/18 542/409/18
f 545/407/19 547/408/19 546/409/19
f 547/408/19 548/410/19 546/409/19
f 549/407/20 551/408/20 550/409/20
f 551/408/20 552/410/20 550/409/20
o overlaySolidModel
v -2.231538 1.923077 0.576923
v -2.230769 1.923077 0.576923
v -2.231538 0.769231 0.576923
v -2.230769 0.769231 0.576923
v -2.230769 1.923077 -0.576923
v -2.231538 1.923077 -0.576923
v -2.230769 0.769231 -0.576923
v -2.231538 0.769231 -0.576923
v -2.230769 1.923077 -0.576923
v -2.230769 1.923077 0.576923
v -2.231538 1.923077 -0.576923
v -2.231538 1.923077 0.576923
v -2.231538 0.769231 -0.576923
v -2.231538 0.769231 0.576923
v -2.230769 0.769231 -0.576923
v -2.230769 0.769231 0.576923
v -2.231538 1.923077 -0.576923
v -2.231538 1.923077 0.576923
v -2.231538 0.769231 -0.576923
v -2.231538 0.769231 0.576923
v -2.230769 1.923077 0.576923
v -2.230769 1.923077 -0.576923
v -2.230769 0.769231 0.576923
v -2.230769 0.769231 -0.576923
vn -0.0000 -0.0000 1.0000
vn -0.0000 -0.0000 -1.0000
vn -0.0000 1.0000 -0.0000
vn -0.0000 -1.0000 -0.0000
vn -1.0000 -0.0000 -0.0000
vn 1.0000 -0.0000 -0.0000
vt 0.906250 0.093750
vt 0.906250 0.000000
vt 1.000000 0.093750
vt 1.000000 0.000000
s 0
usemtl Material_0
f 553/411/21 555/412/21 554/413/21
f 555/412/21 556/414/21 554/413/21
f 557/411/22 559/412/22 558/413/22
f 559/412/22 560/414/22 558/413/22
f 561/411/23 563/412/23 562/413/23
f 563/412/23 564/414/23 562/413/23
f 565/411/24 567/412/24 566/413/24
f 567/412/24 568/414/24 566/413/24
f 569/411/25 571/412/25 570/413/25
f 571/412/25 572/414/25 570/413/25
f 573/411/26 575/412/26 574/413/26
f 575/412/26 576/414/26 574/413/26
