# Blender 5.1.2
# www.blender.org
mtllib lev.ripstock.mtl
o attachmentModel
v 0.576923 0.576923 5.384615
v 0.576923 0.576923 0.769231
v 0.576923 -0.576923 5.384615
v 0.576923 -0.576923 0.769231
v -0.576923 0.576923 0.769231
v -0.576923 0.576923 5.384615
v -0.576923 -0.576923 0.769231
v -0.576923 -0.576923 5.384615
v -0.576923 0.576923 0.769231
v 0.576923 0.576923 0.769231
v -0.576923 0.576923 5.384615
v 0.576923 0.576923 5.384615
v -0.576923 -0.576923 5.384615
v 0.576923 -0.576923 5.384615
v -0.576923 -0.576923 0.769231
v 0.576923 -0.576923 0.769231
v -0.576923 0.576923 5.384615
v 0.576923 0.576923 5.384615
v -0.576923 -0.576923 5.384615
v 0.576923 -0.576923 5.384615
v 0.576923 0.576923 0.769231
v -0.576923 0.576923 0.769231
v 0.576923 -0.576923 0.769231
v -0.576923 -0.576923 0.769231
v 0.192308 -1.183125 5.147182
v 0.192308 -0.594381 3.725829
v 0.192308 -1.893801 4.852810
v 0.192308 -1.305058 3.431457
v -0.192308 -0.594381 3.725829
v -0.192308 -1.183125 5.147182
v -0.192308 -1.305058 3.431457
v -0.192308 -1.893801 4.852810
v -0.192308 -0.594381 3.725829
v 0.192308 -0.594381 3.725829
v -0.192308 -1.183125 5.147182
v 0.192308 -1.183125 5.147182
v -0.192308 -1.893801 4.852810
v 0.192308 -1.893801 4.852810
v -0.192308 -1.305058 3.431457
v 0.192308 -1.305058 3.431457
v -0.192308 -1.183125 5.147182
v 0.192308 -1.183125 5.147182
v -0.192308 -1.893801 4.852810
v 0.192308 -1.893801 4.852810
v 0.192308 -0.594381 3.725829
v -0.192308 -0.594381 3.725829
v 0.192308 -1.305058 3.431457
v -0.192308 -1.305058 3.431457
v 0.384615 -0.576923 5.000000
v 0.384615 -0.576923 1.538462
v 0.384615 -1.346154 5.000000
v 0.384615 -1.346154 1.538462
v -0.384615 -0.576923 1.538462
v -0.384615 -0.576923 5.000000
v -0.384615 -1.346154 1.538462
v -0.384615 -1.346154 5.000000
v -0.384615 -0.576923 1.538462
v 0.384615 -0.576923 1.538462
v -0.384615 -0.576923 5.000000
v 0.384615 -0.576923 5.000000
v -0.384615 -1.346154 5.000000
v 0.384615 -1.346154 5.000000
v -0.384615 -1.346154 1.538462
v 0.384615 -1.346154 1.538462
v -0.384615 -0.576923 5.000000
v 0.384615 -0.576923 5.000000
v -0.384615 -1.346154 5.000000
v 0.384615 -1.346154 5.000000
v 0.384615 -0.576923 1.538462
v -0.384615 -0.576923 1.538462
v 0.384615 -1.346154 1.538462
v -0.384615 -1.346154 1.538462
v 0.376923 -0.802224 2.082392
v 0.376923 -0.032995 1.313163
v 0.376923 -1.346152 1.538463
v 0.376923 -0.576923 0.769234
v -0.376923 -0.032995 1.313163
v -0.376923 -0.802224 2.082392
v -0.376923 -0.576923 0.769234
v -0.376923 -1.346152 1.538463
v -0.376923 -0.032995 1.313163
v 0.376923 -0.032995 1.313163
v -0.376923 -0.802224 2.082392
v 0.376923 -0.802224 2.082392
v -0.376923 -1.346152 1.538463
v 0.376923 -1.346152 1.538463
v -0.376923 -0.576923 0.769234
v 0.376923 -0.576923 0.769234
v -0.376923 -0.802224 2.082392
v 0.376923 -0.802224 2.082392
v -0.376923 -1.346152 1.538463
v 0.376923 -1.346152 1.538463
v 0.376923 -0.032995 1.313163
v -0.376923 -0.032995 1.313163
v 0.376923 -0.576923 0.769234
v -0.376923 -0.576923 0.769234
v -0.000000 0.543928 0.769231
v -0.000000 0.543928 0.000000
v 0.543928 0.000000 0.769231
v 0.543928 0.000000 0.000000
v -0.543928 -0.000000 0.000000
v -0.543928 -0.000000 0.769231
v 0.000000 -0.543928 0.000000
v 0.000000 -0.543928 0.769231
v -0.543928 -0.000000 0.000000
v -0.000000 0.543928 0.000000
v -0.543928 -0.000000 0.769231
v -0.000000 0.543928 0.769231
v 0.000000 -0.543928 0.769231
v 0.543928 0.000000 0.769231
v 0.000000 -0.543928 0.000000
v 0.543928 0.000000 0.000000
v -0.543928 -0.000000 0.769231
v -0.000000 0.543928 0.769231
v 0.000000 -0.543928 0.769231
v 0.543928 0.000000 0.769231
v -0.000000 0.543928 0.000000
v -0.543928 -0.000000 0.000000
v 0.543928 0.000000 0.000000
v 0.000000 -0.543928 0.000000
v 0.384615 -0.576923 5.384615
v 0.384615 -0.576923 5.000000
v 0.384615 -3.269231 5.384615
v 0.384615 -3.269231 5.000000
v -0.384616 -0.576923 5.000000
v -0.384616 -0.576923 5.384615
v -0.384616 -3.269231 5.000000
v -0.384616 -3.269231 5.384615
v -0.384616 -0.576923 5.000000
v 0.384615 -0.576923 5.000000
v -0.384616 -0.576923 5.384615
v 0.384615 -0.576923 5.384615
v -0.384616 -3.269231 5.384615
v 0.384615 -3.269231 5.384615
v -0.384616 -3.269231 5.000000
v 0.384615 -3.269231 5.000000
v -0.384616 -0.576923 5.384615
v 0.384615 -0.576923 5.384615
v -0.384616 -3.269231 5.384615
v 0.384615 -3.269231 5.384615
v 0.384615 -0.576923 5.000000
v -0.384616 -0.576923 5.000000
v 0.384615 -3.269231 5.000000
v -0.384616 -3.269231 5.000000
vn 1.0000 -0.0000 -0.0000
vn -1.0000 -0.0000 -0.0000
vn -0.0000 1.0000 -0.0000
vn -0.0000 -1.0000 -0.0000
vn -0.0000 -0.0000 1.0000
vn -0.0000 -0.0000 -1.0000
vn -0.0000 0.9239 0.3827
vn -0.0000 -0.9239 -0.3827
vn -0.0000 -0.3827 0.9239
vn -0.0000 0.3827 -0.9239
vn -0.0000 0.7071 0.7071
vn -0.0000 -0.7071 -0.7071
vn -0.0000 -0.7071 0.7071
vn -0.0000 0.7071 -0.7071
vn 0.7071 0.7071 -0.0000
vn -0.7071 -0.7071 -0.0000
vn -0.7071 0.7071 -0.0000
vn 0.7071 -0.7071 -0.0000
vt 0.375000 0.875000
vt 0.375000 0.781250
vt 0.000000 0.875000
vt 0.000000 0.781250
vt 0.093750 0.375000
vt 0.093750 0.750000
vt 0.000000 0.375000
vt 0.000000 0.750000
vt 0.218750 0.750000
vt 0.218750 0.375000
vt 0.125000 0.750000
vt 0.125000 0.375000
vt 0.500000 0.875000
vt 0.500000 0.781250
vt 0.593750 0.875000
vt 0.593750 0.781250
vt 0.500000 1.000000
vt 0.500000 0.906250
vt 0.593750 1.000000
vt 0.593750 0.906250
vt 0.250000 0.500000
vt 0.250000 0.437500
vt 0.375000 0.500000
vt 0.375000 0.437500
vt 0.500000 0.625000
vt 0.500000 0.562500
vt 0.625000 0.625000
vt 0.625000 0.562500
vt 0.656250 0.312500
vt 0.656250 0.437500
vt 0.625000 0.312500
vt 0.625000 0.437500
vt 0.031250 0.312500
vt 0.031250 0.187500
vt 0.000000 0.312500
vt 0.000000 0.187500
vt 0.187500 0.312500
vt 0.187500 0.250000
vt 0.218750 0.312500
vt 0.218750 0.250000
vt 0.687500 0.875000
vt 0.687500 0.812500
vt 0.718750 0.875000
vt 0.718750 0.812500
vt 0.656250 0.687500
vt 0.656250 0.625000
vt 0.375000 0.687500
vt 0.375000 0.625000
vt 0.437500 0.343750
vt 0.437500 0.625000
vt 0.375000 0.343750
vt 0.500000 0.343750
vt 0.625000 0.812500
vt 0.625000 0.750000
vt 0.687500 0.750000
vt 0.187500 0.375000
vt 0.250000 0.375000
vt 0.250000 0.312500
vt 0.562500 0.562500
vt 0.562500 0.500000
vt 0.656250 0.562500
vt 0.656250 0.500000
vt 0.562500 0.437500
vt 0.312500 0.343750
vt 0.312500 0.437500
vt 0.625000 0.343750
vt 0.562500 0.343750
vt 0.687500 1.000000
vt 0.687500 0.937500
vt 0.750000 1.000000
vt 0.750000 0.937500
vt 0.687500 0.625000
vt 0.687500 0.562500
vt 0.625000 1.000000
vt 0.625000 0.937500
vt 0.625000 0.875000
vt 0.125000 0.312500
vt 0.062500 0.375000
vt 0.062500 0.312500
vt 0.250000 0.218750
vt 0.281250 0.437500
vt 0.281250 0.218750
vt 0.156250 0.281250
vt 0.156250 0.312500
vt 0.062500 0.281250
vt 0.718750 0.937500
vt 0.718750 0.906250
vt 0.687500 0.906250
vt 0.375000 1.000000
vt 0.437500 1.000000
vt 0.437500 0.781250
vt 0.250000 0.750000
vt 0.250000 0.531250
vt 0.281250 0.750000
vt 0.281250 0.531250
s 0
usemtl Material_0.001
f 1/1/1 3/2/1 2/3/1
f 3/2/1 4/4/1 2/3/1
f 5/3/2 7/4/2 6/1/2
f 7/4/2 8/2/2 6/1/2
f 9/5/3 11/6/3 10/7/3
f 11/6/3 12/8/3 10/7/3
f 13/9/4 15/10/4 14/11/4
f 15/10/4 16/12/4 14/11/4
f 17/13/5 19/14/5 18/15/5
f 19/14/5 20/16/5 18/15/5
f 21/17/6 23/18/6 22/19/6
f 23/18/6 24/20/6 22/19/6
f 25/21/1 27/22/1 26/23/1
f 27/22/1 28/24/1 26/23/1
f 29/25/2 31/26/2 30/27/2
f 31/26/2 32/28/2 30/27/2
f 33/29/7 35/30/7 34/31/7
f 35/30/7 36/32/7 34/31/7
f 37/33/8 39/34/8 38/35/8
f 39/34/8 40/36/8 38/35/8
f 41/37/9 43/38/9 42/39/9
f 43/38/9 44/40/9 42/39/9
f 45/41/10 47/42/10 46/43/10
f 47/42/10 48/44/10 46/43/10
f 49/45/1 51/46/1 50/47/1
f 51/46/1 52/48/1 50/47/1
f 53/47/2 55/48/2 54/45/2
f 55/48/2 56/46/2 54/45/2
f 57/49/3 59/50/3 58/51/3
f 59/50/3 60/48/3 58/51/3
f 61/25/4 63/52/4 62/50/4
f 63/52/4 64/49/4 62/50/4
f 65/53/5 67/54/5 66/42/5
f 67/54/5 68/55/5 66/42/5
f 69/56/6 71/37/6 70/57/6
f 71/37/6 72/58/6 70/57/6
f 73/59/1 75/60/1 74/61/1
f 75/60/1 76/62/1 74/61/1
f 77/60/2 79/63/2 78/62/2
f 79/63/2 80/30/2 78/62/2
f 81/51/11 83/24/11 82/64/11
f 83/24/11 84/65/11 82/64/11
f 85/32/12 87/66/12 86/63/12
f 87/66/12 88/67/12 86/63/12
f 89/68/13 91/69/13 90/70/13
f 91/69/13 92/71/13 90/70/13
f 93/27/14 95/28/14 94/72/14
f 95/28/14 96/73/14 94/72/14
f 97/74/15 99/75/15 98/68/15
f 99/75/15 100/69/15 98/68/15
f 101/75/16 103/76/16 102/69/16
f 103/76/16 104/41/16 102/69/16
f 105/37/17 107/56/17 106/77/17
f 107/56/17 108/12/17 106/77/17
f 109/41/18 111/42/18 110/76/18
f 111/42/18 112/53/18 110/76/18
f 113/78/5 115/79/5 114/12/5
f 115/79/5 116/77/5 114/12/5
f 117/7/6 119/35/6 118/78/6
f 119/35/6 120/79/6 118/78/6
f 121/22/1 123/80/1 122/81/1
f 123/80/1 124/82/1 122/81/1
f 125/22/2 127/80/2 126/81/2
f 127/80/2 128/82/2 126/81/2
f 129/83/3 131/84/3 130/85/3
f 131/84/3 132/79/3 130/85/3
f 133/86/4 135/87/4 134/69/4
f 135/87/4 136/88/4 134/69/4
f 137/89/5 139/2/5 138/90/5
f 139/2/5 140/91/5 138/90/5
f 141/92/6 143/93/6 142/94/6
f 143/93/6 144/95/6 142/94/6
