# Blender 4.5.4 LTS
# www.blender.org
mtllib lev.akfh.mtl
o attachmentModel
v 0.000000 0.384615 0.384615
v 1.923077 0.384615 0.384615
v 0.000000 -0.384615 0.384615
v 1.923077 -0.384615 0.384615
v 1.923077 0.384615 -0.384615
v -0.000000 0.384615 -0.384615
v 1.923077 -0.384615 -0.384615
v -0.000000 -0.384615 -0.384615
v 1.923077 0.384615 -0.384615
v 1.923077 0.384615 0.384615
v -0.000000 0.384615 -0.384615
v 0.000000 0.384615 0.384615
v -0.000000 -0.384615 -0.384615
v 0.000000 -0.384615 0.384615
v 1.923077 -0.384615 -0.384615
v 1.923077 -0.384615 0.384615
v -0.000000 0.384615 -0.384615
v 0.000000 0.384615 0.384615
v -0.000000 -0.384615 -0.384615
v 0.000000 -0.384615 0.384615
v 1.923077 0.384615 0.384615
v 1.923077 0.384615 -0.384615
v 1.923077 -0.384615 0.384615
v 1.923077 -0.384615 -0.384615
v 1.922783 0.193019 0.288461
v 2.278121 0.340205 0.288461
v 1.923077 0.192308 0.288461
v 2.278415 0.339494 0.288461
v 2.278121 0.340205 -0.288462
v 1.922783 0.193019 -0.288462
v 2.278415 0.339494 -0.288462
v 1.923077 0.192308 -0.288462
v 2.278121 0.340205 -0.288462
v 2.278121 0.340205 0.288461
v 1.922783 0.193019 -0.288462
v 1.922783 0.193019 0.288461
v 1.923077 0.192308 -0.288462
v 1.923077 0.192308 0.288461
v 2.278415 0.339494 -0.288462
v 2.278415 0.339494 0.288461
v 1.922783 0.193019 -0.288462
v 1.922783 0.193019 0.288461
v 1.923077 0.192308 -0.288462
v 1.923077 0.192308 0.288461
v 2.278121 0.340205 0.288461
v 2.278121 0.340205 -0.288462
v 2.278415 0.339494 0.288461
v 2.278415 0.339494 -0.288462
v 1.923846 0.192308 0.192308
v 1.924615 0.192308 0.192308
v 1.923846 -0.192308 0.192308
v 1.924615 -0.192308 0.192308
v 1.924615 0.192308 -0.192308
v 1.923846 0.192308 -0.192308
v 1.924615 -0.192308 -0.192308
v 1.923846 -0.192308 -0.192308
v 1.924615 0.192308 -0.192308
v 1.924615 0.192308 0.192308
v 1.923846 0.192308 -0.192308
v 1.923846 0.192308 0.192308
v 1.923846 -0.192308 -0.192308
v 1.923846 -0.192308 0.192308
v 1.924615 -0.192308 -0.192308
v 1.924615 -0.192308 0.192308
v 1.923846 0.192308 -0.192308
v 1.923846 0.192308 0.192308
v 1.923846 -0.192308 -0.192308
v 1.923846 -0.192308 0.192308
v 1.924615 0.192308 0.192308
v 1.924615 0.192308 -0.192308
v 1.924615 -0.192308 0.192308
v 1.924615 -0.192308 -0.192308
v 1.923371 -0.191597 0.288461
v 2.278709 -0.338783 0.288461
v 1.923077 -0.192308 0.288461
v 2.278415 -0.339494 0.288461
v 2.278709 -0.338783 -0.288462
v 1.923371 -0.191597 -0.288462
v 2.278415 -0.339494 -0.288462
v 1.923077 -0.192308 -0.288462
v 2.278709 -0.338783 -0.288462
v 2.278709 -0.338783 0.288461
v 1.923371 -0.191597 -0.288462
v 1.923371 -0.191597 0.288461
v 1.923077 -0.192308 -0.288462
v 1.923077 -0.192308 0.288461
v 2.278415 -0.339494 -0.288462
v 2.278415 -0.339494 0.288461
v 1.923371 -0.191597 -0.288462
v 1.923371 -0.191597 0.288461
v 1.923077 -0.192308 -0.288462
v 1.923077 -0.192308 0.288461
v 2.278709 -0.338783 0.288461
v 2.278709 -0.338783 -0.288462
v 2.278415 -0.339494 0.288461
v 2.278415 -0.339494 -0.288462
v 1.922783 0.288462 0.193019
v 2.278121 0.288462 0.340204
v 1.922783 -0.288462 0.193019
v 2.278121 -0.288462 0.340204
v 2.278415 0.288462 0.339494
v 1.923077 0.288462 0.192308
v 2.278415 -0.288462 0.339494
v 1.923077 -0.288462 0.192308
v 2.278415 0.288462 0.339494
v 2.278121 0.288462 0.340204
v 1.923077 0.288462 0.192308
v 1.922783 0.288462 0.193019
v 1.923077 -0.288462 0.192308
v 1.922783 -0.288462 0.193019
v 2.278415 -0.288462 0.339494
v 2.278121 -0.288462 0.340204
v 1.923077 0.288462 0.192308
v 1.922783 0.288462 0.193019
v 1.923077 -0.288462 0.192308
v 1.922783 -0.288462 0.193019
v 2.278121 0.288462 0.340204
v 2.278415 0.288462 0.339494
v 2.278121 -0.288462 0.340204
v 2.278415 -0.288462 0.339494
v 1.923371 0.288462 -0.191597
v 2.278709 0.288462 -0.338783
v 1.923371 -0.288462 -0.191597
v 2.278709 -0.288462 -0.338783
v 2.278415 0.288462 -0.339494
v 1.923077 0.288462 -0.192308
v 2.278415 -0.288462 -0.339494
v 1.923077 -0.288462 -0.192308
v 2.278415 0.288462 -0.339494
v 2.278709 0.288462 -0.338783
v 1.923077 0.288462 -0.192308
v 1.923371 0.288462 -0.191597
v 1.923077 -0.288462 -0.192308
v 1.923371 -0.288462 -0.191597
v 2.278415 -0.288462 -0.339494
v 2.278709 -0.288462 -0.338783
v 1.923077 0.288462 -0.192308
v 1.923371 0.288462 -0.191597
v 1.923077 -0.288462 -0.192308
v 1.923371 -0.288462 -0.191597
v 2.278709 0.288462 -0.338783
v 2.278415 0.288462 -0.339494
v 2.278709 -0.288462 -0.338783
v 2.278415 -0.288462 -0.339494
vn -0.0000 -0.0000 1.0000
vn -0.0000 -0.0000 -1.0000
vn -0.0000 1.0000 -0.0000
vn -0.0000 -1.0000 -0.0000
vn -1.0000 -0.0000 -0.0000
vn 1.0000 -0.0000 -0.0000
vn -0.3827 0.9239 -0.0000
vn 0.3827 -0.9239 -0.0000
vn -0.9239 -0.3825 -0.0000
vn -0.9238 -0.3830 -0.0000
vn 0.9239 0.3825 -0.0000
vn 0.9238 0.3830 -0.0000
vn 0.3827 0.9239 -0.0000
vn -0.3827 -0.9239 -0.0000
vn -0.9239 0.3825 -0.0000
vn 0.9239 -0.3825 -0.0000
vn 0.9237 -0.3830 -0.0000
vn -0.3827 -0.0000 0.9239
vn 0.3827 -0.0000 -0.9239
vn -0.9239 -0.0000 -0.3826
vn 0.9239 -0.0000 0.3827
vn 0.9238 -0.0000 0.3828
vn 0.3827 -0.0000 0.9239
vn -0.3827 -0.0000 -0.9239
vn -0.9239 -0.0000 0.3826
vn 0.9238 -0.0000 -0.3828
vt 0.000000 1.000000
vt 0.000000 0.875000
vt 0.312500 1.000000
vt 0.312500 0.875000
vt 0.000000 0.750000
vt 0.312500 0.750000
vt 0.125000 0.437500
vt 0.125000 0.750000
vt 0.000000 0.437500
vt 0.250000 0.750000
vt 0.250000 0.437500
vt 0.375000 1.000000
vt 0.375000 0.875000
vt 0.500000 1.000000
vt 0.500000 0.875000
vt 0.250000 0.625000
vt 0.375000 0.750000
vt 0.375000 0.625000
vt 0.062500 1.000000
vt 0.500000 0.812500
vt 0.375000 0.812500
vt 0.375000 0.562500
vt 0.250000 0.562500
vt 0.125000 1.000000
vt 0.000000 0.937500
vt 0.500000 0.625000
vt 0.500000 0.562500
vt 0.562500 0.625000
vt 0.562500 0.562500
vt 0.375000 0.500000
vt 0.375000 0.437500
vt 0.437500 0.500000
vt 0.437500 0.437500
vt 0.500000 0.687500
vt 0.500000 0.750000
vt 0.375000 0.687500
vt 0.562500 1.000000
vt 0.562500 0.875000
vt 0.562500 0.750000
vt 0.250000 0.500000
vt 0.250000 0.375000
vt 0.312500 0.500000
vt 0.312500 0.375000
s 0
usemtl Material_0
f 1/1/1 3/2/1 2/3/1
f 3/2/1 4/4/1 2/3/1
f 5/2/2 7/5/2 6/4/2
f 7/5/2 8/6/2 6/4/2
f 9/7/3 11/8/3 10/9/3
f 11/8/3 12/5/3 10/9/3
f 13/10/4 15/11/4 14/8/4
f 15/11/4 16/7/4 14/8/4
f 17/12/5 19/13/5 18/14/5
f 19/13/5 20/15/5 18/14/5
f 21/10/6 23/16/6 22/17/6
f 23/16/6 24/18/6 22/17/6
f 25/1/1 27/1/1 26/19/1
f 27/1/1 28/19/1 26/19/1
f 29/1/2 31/1/2 30/19/2
f 31/1/2 32/19/2 30/19/2
f 33/20/7 35/15/7 34/21/7
f 35/15/7 36/13/7 34/21/7
f 37/18/8 39/22/8 38/16/8
f 39/22/8 40/23/8 38/16/8
f 41/1/9 43/1/9 42/24/9
f 43/1/10 44/24/10 42/24/10
f 45/1/11 47/1/11 46/24/11
f 47/1/12 48/24/12 46/24/12
f 49/1/1 51/25/1 50/1/1
f 51/25/1 52/25/1 50/1/1
f 53/1/2 55/25/2 54/1/2
f 55/25/2 56/25/2 54/1/2
f 57/19/3 59/19/3 58/1/3
f 59/19/3 60/1/3 58/1/3
f 61/19/4 63/19/4 62/1/4
f 63/19/4 64/1/4 62/1/4
f 65/26/5 67/27/5 66/28/5
f 67/27/5 68/29/5 66/28/5
f 69/30/6 71/31/6 70/32/6
f 71/31/6 72/33/6 70/32/6
f 73/1/1 75/1/1 74/19/1
f 75/1/1 76/19/1 74/19/1
f 77/1/2 79/1/2 78/19/2
f 79/1/2 80/19/2 78/19/2
f 81/34/13 83/35/13 82/36/13
f 83/35/13 84/17/13 82/36/13
f 85/26/14 87/27/14 86/18/14
f 87/27/14 88/22/14 86/18/14
f 89/1/15 91/1/15 90/24/15
f 91/1/15 92/24/15 90/24/15
f 93/1/16 95/1/16 94/24/16
f 95/1/17 96/24/17 94/24/17
f 97/14/18 99/15/18 98/37/18
f 99/15/18 100/38/18 98/37/18
f 101/15/19 103/35/19 102/38/19
f 103/35/19 104/39/19 102/38/19
f 105/25/3 107/1/3 106/25/3
f 107/1/3 108/1/3 106/25/3
f 109/1/4 111/25/4 110/1/4
f 111/25/4 112/25/4 110/1/4
f 113/1/20 115/2/20 114/1/20
f 115/2/20 116/2/20 114/1/20
f 117/1/21 119/2/21 118/1/21
f 119/2/22 120/2/22 118/1/22
f 121/40/23 123/41/23 122/42/23
f 123/41/23 124/43/23 122/42/23
f 125/35/24 127/26/24 126/39/24
f 127/26/24 128/28/24 126/39/24
f 129/25/3 131/1/3 130/25/3
f 131/1/3 132/1/3 130/25/3
f 133/1/4 135/25/4 134/1/4
f 135/25/4 136/25/4 134/1/4
f 137/1/25 139/2/25 138/1/25
f 139/2/25 140/2/25 138/1/25
f 141/1/26 143/2/26 142/1/26
f 143/2/26 144/2/26 142/1/26
