# Blender 4.4.0
# www.blender.org
mtllib lev.uvg.mtl
o attachmentModel
v 0.769231 0.000000 -0.769231
v -0.769231 0.000000 -0.769231
v 0.769231 -0.384615 -0.769231
v -0.769231 -0.384615 -0.769231
v -0.769231 0.000000 0.769231
v 0.769231 0.000000 0.769231
v -0.769231 -0.384615 0.769231
v 0.769231 -0.384615 0.769231
v -0.769231 0.000000 0.769231
v -0.769231 0.000000 -0.769231
v 0.769231 0.000000 0.769231
v 0.769231 0.000000 -0.769231
v 0.769231 -0.384615 0.769231
v 0.769231 -0.384615 -0.769231
v -0.769231 -0.384615 0.769231
v -0.769231 -0.384615 -0.769231
v 0.769231 0.000000 0.769231
v 0.769231 0.000000 -0.769231
v 0.769231 -0.384615 0.769231
v 0.769231 -0.384615 -0.769231
v -0.769231 0.000000 -0.769231
v -0.769231 0.000000 0.769231
v -0.769231 -0.384615 -0.769231
v -0.769231 -0.384615 0.769231
v 0.769231 -0.384615 0.576154
v -0.769231 -0.384615 0.576154
v 0.769231 -3.076923 0.576154
v -0.769231 -3.076923 0.576154
v -0.769231 -0.384615 0.576923
v 0.769231 -0.384615 0.576923
v -0.769231 -3.076923 0.576923
v 0.769231 -3.076923 0.576923
v -0.769231 -0.384615 0.576923
v -0.769231 -0.384615 0.576154
v 0.769231 -0.384615 0.576923
v 0.769231 -0.384615 0.576154
v 0.769231 -3.076923 0.576923
v 0.769231 -3.076923 0.576154
v -0.769231 -3.076923 0.576923
v -0.769231 -3.076923 0.576154
v 0.769231 -0.384615 0.576923
v 0.769231 -0.384615 0.576154
v 0.769231 -3.076923 0.576923
v 0.769231 -3.076923 0.576154
v -0.769231 -0.384615 0.576154
v -0.769231 -0.384615 0.576923
v -0.769231 -3.076923 0.576154
v -0.769231 -3.076923 0.576923
v 0.769231 -0.384615 -0.577692
v -0.769231 -0.384615 -0.577692
v 0.769231 -3.076923 -0.577692
v -0.769231 -3.076923 -0.577692
v -0.769231 -0.384615 -0.576923
v 0.769231 -0.384615 -0.576923
v -0.769231 -3.076923 -0.576923
v 0.769231 -3.076923 -0.576923
v -0.769231 -0.384615 -0.576923
v -0.769231 -0.384615 -0.577692
v 0.769231 -0.384615 -0.576923
v 0.769231 -0.384615 -0.577692
v 0.769231 -3.076923 -0.576923
v 0.769231 -3.076923 -0.577692
v -0.769231 -3.076923 -0.576923
v -0.769231 -3.076923 -0.577692
v 0.769231 -0.384615 -0.576923
v 0.769231 -0.384615 -0.577692
v 0.769231 -3.076923 -0.576923
v 0.769231 -3.076923 -0.577692
v -0.769231 -0.384615 -0.577692
v -0.769231 -0.384615 -0.576923
v -0.769231 -3.076923 -0.577692
v -0.769231 -3.076923 -0.576923
v -0.768462 -0.384615 -0.576923
v -0.769231 -0.384615 -0.576923
v -0.768462 -3.076923 -0.576923
v -0.769231 -3.076923 -0.576923
v -0.769231 -0.384615 0.576923
v -0.768462 -0.384615 0.576923
v -0.769231 -3.076923 0.576923
v -0.768462 -3.076923 0.576923
v -0.769231 -0.384615 0.576923
v -0.769231 -0.384615 -0.576923
v -0.768462 -0.384615 0.576923
v -0.768462 -0.384615 -0.576923
v -0.768462 -3.076923 0.576923
v -0.768462 -3.076923 -0.576923
v -0.769231 -3.076923 0.576923
v -0.769231 -3.076923 -0.576923
v -0.768462 -0.384615 0.576923
v -0.768462 -0.384615 -0.576923
v -0.768462 -3.076923 0.576923
v -0.768462 -3.076923 -0.576923
v -0.769231 -0.384615 -0.576923
v -0.769231 -0.384615 0.576923
v -0.769231 -3.076923 -0.576923
v -0.769231 -3.076923 0.576923
v 0.770000 -0.384615 -0.576923
v 0.769231 -0.384615 -0.576923
v 0.770000 -3.076923 -0.576923
v 0.769231 -3.076923 -0.576923
v 0.769230 -0.384615 0.576923
v 0.770000 -0.384615 0.576923
v 0.769230 -3.076923 0.576923
v 0.770000 -3.076923 0.576923
v 0.769230 -0.384615 0.576923
v 0.769231 -0.384615 -0.576923
v 0.770000 -0.384615 0.576923
v 0.770000 -0.384615 -0.576923
v 0.770000 -3.076923 0.576923
v 0.770000 -3.076923 -0.576923
v 0.769230 -3.076923 0.576923
v 0.769231 -3.076923 -0.576923
v 0.770000 -0.384615 0.576923
v 0.770000 -0.384615 -0.576923
v 0.770000 -3.076923 0.576923
v 0.770000 -3.076923 -0.576923
v 0.769231 -0.384615 -0.576923
v 0.769230 -0.384615 0.576923
v 0.769231 -3.076923 -0.576923
v 0.769230 -3.076923 0.576923
v 0.769231 -3.076923 -0.576923
v -0.769231 -3.076923 -0.576923
v 0.769231 -3.461539 -0.576923
v -0.769231 -3.461539 -0.576923
v -0.769231 -3.076923 0.576923
v 0.769231 -3.076923 0.576923
v -0.769231 -3.461539 0.576923
v 0.769231 -3.461539 0.576923
v -0.769231 -3.076923 0.576923
v -0.769231 -3.076923 -0.576923
v 0.769231 -3.076923 0.576923
v 0.769231 -3.076923 -0.576923
v 0.769231 -3.461539 0.576923
v 0.769231 -3.461539 -0.576923
v -0.769231 -3.461539 0.576923
v -0.769231 -3.461539 -0.576923
v 0.769231 -3.076923 0.576923
v 0.769231 -3.076923 -0.576923
v 0.769231 -3.461539 0.576923
v 0.769231 -3.461539 -0.576923
v -0.769231 -3.076923 -0.576923
v -0.769231 -3.076923 0.576923
v -0.769231 -3.461539 -0.576923
v -0.769231 -3.461539 0.576923
vn -0.0000 -0.0000 -1.0000
vn -0.0000 -0.0000 1.0000
vn -0.0000 1.0000 -0.0000
vn -0.0000 -1.0000 -0.0000
vn 1.0000 -0.0000 -0.0000
vn -1.0000 -0.0000 -0.0000
vt 0.500000 0.875000
vt 0.500000 0.843750
vt 0.625000 0.875000
vt 0.625000 0.843750
vt 0.250000 0.500000
vt 0.250000 0.468750
vt 0.375000 0.500000
vt 0.375000 0.468750
vt 0.125000 0.375000
vt 0.125000 0.500000
vt 0.000000 0.375000
vt 0.000000 0.500000
vt 0.625000 1.000000
vt 0.500000 1.000000
vt 0.500000 0.812500
vt 0.500000 0.781250
vt 0.625000 0.812500
vt 0.625000 0.781250
vt 0.125000 0.468750
vt 0.250000 1.000000
vt 0.250000 0.781250
vt 0.125000 1.000000
vt 0.125000 0.781250
vt 0.125000 0.750000
vt 0.125000 0.531250
vt 0.000000 0.750000
vt 0.000000 0.531250
vt 0.000000 0.875000
vt 0.000000 1.000000
vt 0.000000 0.781250
vt 0.093750 1.000000
vt 0.250000 0.750000
vt 0.250000 0.531250
vt 0.343750 0.750000
vt 0.343750 0.531250
vt 0.218750 0.750000
vt 0.218750 0.531250
vt 0.375000 0.750000
vt 0.375000 0.531250
vt 0.468750 0.750000
vt 0.468750 0.531250
vt 0.375000 1.000000
vt 0.375000 0.781250
vt 0.468750 1.000000
vt 0.468750 0.781250
vt 0.687500 1.000000
vt 0.687500 0.968750
vt 0.812500 1.000000
vt 0.812500 0.968750
vt 0.250000 0.437500
vt 0.375000 0.437500
vt 0.093750 0.250000
vt 0.093750 0.375000
vt 0.000000 0.250000
vt 0.968750 1.000000
vt 0.968750 0.875000
vt 0.875000 1.000000
vt 0.875000 0.875000
vt 0.500000 0.750000
vt 0.593750 0.781250
vt 0.593750 0.750000
vt 0.125000 0.437500
vt 0.218750 0.468750
vt 0.218750 0.437500
s 0
usemtl Material_0.001
f 1/1/1 3/2/1 2/3/1
f 3/2/1 4/4/1 2/3/1
f 5/5/2 7/6/2 6/7/2
f 7/6/2 8/8/2 6/7/2
f 9/9/3 11/10/3 10/11/3
f 11/10/3 12/12/3 10/11/3
f 13/13/4 15/3/4 14/14/4
f 15/3/4 16/1/4 14/14/4
f 17/15/5 19/16/5 18/17/5
f 19/16/5 20/18/5 18/17/5
f 21/10/6 23/19/6 22/5/6
f 23/19/6 24/6/6 22/5/6
f 25/20/1 27/21/1 26/22/1
f 27/21/1 28/23/1 26/22/1
f 29/24/2 31/25/2 30/26/2
f 31/25/2 32/27/2 30/26/2
f 33/28/3 35/29/3 34/28/3
f 35/29/3 36/29/3 34/28/3
f 37/29/4 39/28/4 38/29/4
f 39/28/4 40/28/4 38/29/4
f 41/29/5 43/30/5 42/29/5
f 43/30/5 44/30/5 42/29/5
f 45/29/6 47/30/6 46/29/6
f 47/30/6 48/30/6 46/29/6
f 49/24/1 51/25/1 50/26/1
f 51/25/1 52/27/1 50/26/1
f 53/20/2 55/21/2 54/22/2
f 55/21/2 56/23/2 54/22/2
f 57/28/3 59/29/3 58/28/3
f 59/29/3 60/29/3 58/28/3
f 61/29/4 63/28/4 62/29/4
f 63/28/4 64/28/4 62/29/4
f 65/29/5 67/30/5 66/29/5
f 67/30/5 68/30/5 66/29/5
f 69/29/6 71/30/6 70/29/6
f 71/30/6 72/30/6 70/29/6
f 73/29/1 75/30/1 74/29/1
f 75/30/1 76/30/1 74/29/1
f 77/29/2 79/30/2 78/29/2
f 79/30/2 80/30/2 78/29/2
f 81/31/3 83/31/3 82/29/3
f 83/31/3 84/29/3 82/29/3
f 85/31/4 87/31/4 86/29/4
f 87/31/4 88/29/4 86/29/4
f 89/32/5 91/33/5 90/34/5
f 91/33/5 92/35/5 90/34/5
f 93/24/6 95/25/6 94/36/6
f 95/25/6 96/37/6 94/36/6
f 97/29/1 99/30/1 98/29/1
f 99/30/1 100/30/1 98/29/1
f 101/29/2 103/30/2 102/29/2
f 103/30/2 104/30/2 102/29/2
f 105/31/3 107/31/3 106/29/3
f 107/31/3 108/29/3 106/29/3
f 109/31/4 111/31/4 110/29/4
f 111/31/4 112/29/4 110/29/4
f 113/38/5 115/39/5 114/40/5
f 115/39/5 116/41/5 114/40/5
f 117/42/6 119/43/6 118/44/6
f 119/43/6 120/45/6 118/44/6
f 121/46/1 123/47/1 122/48/1
f 123/47/1 124/49/1 122/48/1
f 125/6/2 127/50/2 126/8/2
f 127/50/2 128/51/2 126/8/2
f 129/52/3 131/53/3 130/54/3
f 131/53/3 132/11/3 130/54/3
f 133/55/4 135/56/4 134/57/4
f 135/56/4 136/58/4 134/57/4
f 137/16/5 139/59/5 138/60/5
f 139/59/5 140/61/5 138/60/5
f 141/19/6 143/62/6 142/63/6
f 143/62/6 144/64/6 142/63/6
