# Blender 4.3.2
# www.blender.org
mtllib lev.svdcomp.mtl
o attachmentModel
v 0.000000 0.384615 0.384615
v 0.769231 0.384615 0.384615
v 0.000000 -0.384615 0.384615
v 0.769231 -0.384615 0.384615
v 0.769231 0.384615 -0.384616
v -0.000000 0.384615 -0.384615
v 0.769231 -0.384615 -0.384616
v -0.000000 -0.384615 -0.384615
v 0.769231 0.384615 -0.384616
v 0.769231 0.384615 0.384615
v -0.000000 0.384615 -0.384615
v 0.000000 0.384615 0.384615
v -0.000000 -0.384615 -0.384615
v 0.000000 -0.384615 0.384615
v 0.769231 -0.384615 -0.384616
v 0.769231 -0.384615 0.384615
v -0.000000 0.384615 -0.384615
v 0.000000 0.384615 0.384615
v -0.000000 -0.384615 -0.384615
v 0.000000 -0.384615 0.384615
v 0.769231 0.384615 0.384615
v 0.769231 0.384615 -0.384616
v 0.769231 -0.384615 0.384615
v 0.769231 -0.384615 -0.384616
v 0.000000 2.308461 0.384615
v 0.769231 2.308461 0.384615
v 0.000000 2.307692 0.384615
v 0.769231 2.307692 0.384615
v 0.769231 2.308461 -0.384616
v 0.000000 2.308461 -0.384615
v 0.769231 2.307692 -0.384616
v 0.000000 2.307692 -0.384615
v 0.769231 2.308461 -0.384616
v 0.769231 2.308461 0.384615
v 0.000000 2.308461 -0.384615
v 0.000000 2.308461 0.384615
v 0.000000 2.307692 -0.384615
v 0.000000 2.307692 0.384615
v 0.769231 2.307692 -0.384616
v 0.769231 2.307692 0.384615
v 0.000000 2.308461 -0.384615
v 0.000000 2.308461 0.384615
v 0.000000 2.307692 -0.384615
v 0.000000 2.307692 0.384615
v 0.769231 2.308461 0.384615
v 0.769231 2.308461 -0.384616
v 0.769231 2.307692 0.384615
v 0.769231 2.307692 -0.384616
v 0.769231 0.384615 0.385384
v 3.461539 0.384615 0.385384
v 0.769231 -0.384615 0.385384
v 3.461539 -0.384615 0.385384
v 3.461539 0.384615 0.384615
v 0.769231 0.384615 0.384615
v 3.461539 -0.384615 0.384615
v 0.769231 -0.384615 0.384615
v 3.461539 0.384615 0.384615
v 3.461539 0.384615 0.385384
v 0.769231 0.384615 0.384615
v 0.769231 0.384615 0.385384
v 0.769231 -0.384615 0.384615
v 0.769231 -0.384615 0.385384
v 3.461539 -0.384615 0.384615
v 3.461539 -0.384615 0.385384
v 0.769231 0.384615 0.384615
v 0.769231 0.384615 0.385384
v 0.769231 -0.384615 0.384615
v 0.769231 -0.384615 0.385384
v 3.461539 0.384615 0.385384
v 3.461539 0.384615 0.384615
v 3.461539 -0.384615 0.385384
v 3.461539 -0.384615 0.384615
v 0.000000 2.307692 0.385385
v 0.769231 2.307692 0.385384
v 0.000000 1.538462 0.385385
v 0.769231 1.538462 0.385384
v 0.769231 2.307692 0.384615
v 0.000000 2.307692 0.384615
v 0.769231 1.538462 0.384615
v 0.000000 1.538462 0.384615
v 0.769231 2.307692 0.384615
v 0.769231 2.307692 0.385384
v 0.000000 2.307692 0.384615
v 0.000000 2.307692 0.385385
v 0.000000 1.538462 0.384615
v 0.000000 1.538462 0.385385
v 0.769231 1.538462 0.384615
v 0.769231 1.538462 0.385384
v 0.000000 2.307692 0.384615
v 0.000000 2.307692 0.385385
v 0.000000 1.538462 0.384615
v 0.000000 1.538462 0.385385
v 0.769231 2.307692 0.385384
v 0.769231 2.307692 0.384615
v 0.769231 1.538462 0.385384
v 0.769231 1.538462 0.384615
v 0.000000 2.307692 -0.383846
v 0.769231 2.307692 -0.383846
v 0.000000 1.538462 -0.383846
v 0.769231 1.538462 -0.383846
v 0.769231 2.307692 -0.384616
v 0.000000 2.307692 -0.384615
v 0.769231 1.538462 -0.384616
v 0.000000 1.538462 -0.384615
v 0.769231 2.307692 -0.384616
v 0.769231 2.307692 -0.383846
v 0.000000 2.307692 -0.384615
v 0.000000 2.307692 -0.383846
v 0.000000 1.538462 -0.384615
v 0.000000 1.538462 -0.383846
v 0.769231 1.538462 -0.384616
v 0.769231 1.538462 -0.383846
v 0.000000 2.307692 -0.384615
v 0.000000 2.307692 -0.383846
v 0.000000 1.538462 -0.384615
v 0.000000 1.538462 -0.383846
v 0.769231 2.307692 -0.383846
v 0.769231 2.307692 -0.384616
v 0.769231 1.538462 -0.383846
v 0.769231 1.538462 -0.384616
v 0.000000 1.538462 0.192308
v 0.769231 1.538462 0.192308
v 0.000000 0.384615 0.192308
v 0.769231 0.384615 0.192308
v 0.769231 1.538462 -0.192308
v 0.000000 1.538462 -0.192308
v 0.769231 0.384615 -0.192308
v 0.000000 0.384615 -0.192308
v 0.769231 1.538462 -0.192308
v 0.769231 1.538462 0.192308
v 0.000000 1.538462 -0.192308
v 0.000000 1.538462 0.192308
v 0.000000 0.384615 -0.192308
v 0.000000 0.384615 0.192308
v 0.769231 0.384615 -0.192308
v 0.769231 0.384615 0.192308
v 0.000000 1.538462 -0.192308
v 0.000000 1.538462 0.192308
v 0.000000 0.384615 -0.192308
v 0.000000 0.384615 0.192308
v 0.769231 1.538462 0.192308
v 0.769231 1.538462 -0.192308
v 0.769231 0.384615 0.192308
v 0.769231 0.384615 -0.192308
v 0.000000 1.539231 0.384615
v 0.769231 1.539231 0.384615
v 0.000000 1.538462 0.384615
v 0.769231 1.538462 0.384615
v 0.769231 1.539231 -0.384616
v 0.000000 1.539231 -0.384615
v 0.769231 1.538462 -0.384616
v 0.000000 1.538462 -0.384615
v 0.769231 1.539231 -0.384616
v 0.769231 1.539231 0.384615
v 0.000000 1.539231 -0.384615
v 0.000000 1.539231 0.384615
v 0.000000 1.538462 -0.384615
v 0.000000 1.538462 0.384615
v 0.769231 1.538462 -0.384616
v 0.769231 1.538462 0.384615
v 0.000000 1.539231 -0.384615
v 0.000000 1.539231 0.384615
v 0.000000 1.538462 -0.384615
v 0.000000 1.538462 0.384615
v 0.769231 1.539231 0.384615
v 0.769231 1.539231 -0.384616
v 0.769231 1.538462 0.384615
v 0.769231 1.538462 -0.384616
v 0.192308 2.115385 0.019231
v 0.576923 2.115385 0.019231
v 0.192308 1.538462 0.019231
v 0.576923 1.538462 0.019231
v 0.576923 2.115385 -0.019231
v 0.192308 2.115385 -0.019231
v 0.576923 1.538462 -0.019231
v 0.192308 1.538462 -0.019231
v 0.576923 2.115385 -0.019231
v 0.576923 2.115385 0.019231
v 0.192308 2.115385 -0.019231
v 0.192308 2.115385 0.019231
v 0.192308 1.538462 -0.019231
v 0.192308 1.538462 0.019231
v 0.576923 1.538462 -0.019231
v 0.576923 1.538462 0.019231
v 0.192308 2.115385 -0.019231
v 0.192308 2.115385 0.019231
v 0.192308 1.538462 -0.019231
v 0.192308 1.538462 0.019231
v 0.576923 2.115385 0.019231
v 0.576923 2.115385 -0.019231
v 0.576923 1.538462 0.019231
v 0.576923 1.538462 -0.019231
v 0.769231 0.385385 0.384615
v 3.461539 0.385385 0.384615
v 0.769231 0.384615 0.384615
v 3.461539 0.384615 0.384615
v 3.461539 0.385385 -0.384616
v 0.769231 0.385385 -0.384616
v 3.461539 0.384615 -0.384616
v 0.769231 0.384615 -0.384616
v 3.461539 0.385385 -0.384616
v 3.461539 0.385385 0.384615
v 0.769231 0.385385 -0.384616
v 0.769231 0.385385 0.384615
v 0.769231 0.384615 -0.384616
v 0.769231 0.384615 0.384615
v 3.461539 0.384615 -0.384616
v 3.461539 0.384615 0.384615
v 0.769231 0.385385 -0.384616
v 0.769231 0.385385 0.384615
v 0.769231 0.384615 -0.384616
v 0.769231 0.384615 0.384615
v 3.461539 0.385385 0.384615
v 3.461539 0.385385 -0.384616
v 3.461539 0.384615 0.384615
v 3.461539 0.384615 -0.384616
v 0.769231 -0.383846 0.384615
v 3.461539 -0.383846 0.384615
v 0.769231 -0.384615 0.384615
v 3.461539 -0.384615 0.384615
v 3.461539 -0.383846 -0.384616
v 0.769231 -0.383846 -0.384616
v 3.461539 -0.384615 -0.384616
v 0.769231 -0.384615 -0.384616
v 3.461539 -0.383846 -0.384616
v 3.461539 -0.383846 0.384615
v 0.769231 -0.383846 -0.384616
v 0.769231 -0.383846 0.384615
v 0.769231 -0.384615 -0.384616
v 0.769231 -0.384615 0.384615
v 3.461539 -0.384615 -0.384616
v 3.461539 -0.384615 0.384615
v 0.769231 -0.383846 -0.384616
v 0.769231 -0.383846 0.384615
v 0.769231 -0.384615 -0.384616
v 0.769231 -0.384615 0.384615
v 3.461539 -0.383846 0.384615
v 3.461539 -0.383846 -0.384616
v 3.461539 -0.384615 0.384615
v 3.461539 -0.384615 -0.384616
v 0.769231 0.384615 -0.383846
v 3.461539 0.384615 -0.383847
v 0.769231 -0.384615 -0.383846
v 3.461539 -0.384615 -0.383847
v 3.461539 0.384615 -0.384616
v 0.769231 0.384615 -0.384616
v 3.461539 -0.384615 -0.384616
v 0.769231 -0.384615 -0.384616
v 3.461539 0.384615 -0.384616
v 3.461539 0.384615 -0.383847
v 0.769231 0.384615 -0.384616
v 0.769231 0.384615 -0.383846
v 0.769231 -0.384615 -0.384616
v 0.769231 -0.384615 -0.383846
v 3.461539 -0.384615 -0.384616
v 3.461539 -0.384615 -0.383847
v 0.769231 0.384615 -0.384616
v 0.769231 0.384615 -0.383846
v 0.769231 -0.384615 -0.384616
v 0.769231 -0.384615 -0.383846
v 3.461539 0.384615 -0.383847
v 3.461539 0.384615 -0.384616
v 3.461539 -0.384615 -0.383847
v 3.461539 -0.384615 -0.384616
v 3.460769 0.384615 0.384615
v 3.461539 0.384615 0.384615
v 3.460769 -0.384615 0.384615
v 3.461539 -0.384615 0.384615
v 3.461539 0.384615 -0.384616
v 3.460769 0.384615 -0.384616
v 3.461539 -0.384615 -0.384616
v 3.460769 -0.384615 -0.384616
v 3.461539 0.384615 -0.384616
v 3.461539 0.384615 0.384615
v 3.460769 0.384615 -0.384616
v 3.460769 0.384615 0.384615
v 3.460769 -0.384615 -0.384616
v 3.460769 -0.384615 0.384615
v 3.461539 -0.384615 -0.384616
v 3.461539 -0.384615 0.384615
v 3.460769 0.384615 -0.384616
v 3.460769 0.384615 0.384615
v 3.460769 -0.384615 -0.384616
v 3.460769 -0.384615 0.384615
v 3.461539 0.384615 0.384615
v 3.461539 0.384615 -0.384616
v 3.461539 -0.384615 0.384615
v 3.461539 -0.384615 -0.384616
vn -0.0000 -0.0000 1.0000
vn -0.0000 -0.0000 -1.0000
vn -0.0000 1.0000 -0.0000
vn -0.0000 -1.0000 -0.0000
vn -1.0000 -0.0000 -0.0000
vn 1.0000 -0.0000 -0.0000
vt 0.375000 0.812500
vt 0.375000 0.750000
vt 0.437500 0.812500
vt 0.437500 0.750000
vt 0.375000 0.687500
vt 0.437500 0.687500
vt 0.375000 0.562500
vt 0.375000 0.625000
vt 0.312500 0.562500
vt 0.312500 0.625000
vt 0.437500 0.625000
vt 0.250000 0.625000
vt 0.250000 0.562500
vt 0.187500 0.625000
vt 0.187500 0.562500
vt 0.000000 1.000000
vt 0.062500 1.000000
vt 0.375000 0.875000
vt 0.312500 0.812500
vt 0.312500 0.875000
vt 0.312500 0.750000
vt 0.000000 0.937500
vt 0.218750 1.000000
vt 0.218750 0.937500
vt 0.000000 0.875000
vt 0.218750 0.875000
vt 0.000000 0.781250
vt 0.312500 0.687500
vt 0.000000 0.625000
vt 0.000000 0.562500
vt 0.062500 0.625000
vt 0.062500 0.562500
vt 0.125000 0.625000
vt 0.125000 0.562500
vt 0.250000 0.875000
vt 0.250000 0.781250
vt 0.312500 0.781250
vt 0.250000 0.750000
vt 0.250000 0.656250
vt 0.312500 0.656250
vt 0.468750 0.812500
vt 0.468750 0.875000
vt 0.437500 0.875000
vt 0.218750 0.562500
vt 0.218750 0.500000
vt 0.187500 0.500000
vt 0.125000 0.468750
vt 0.156250 0.562500
vt 0.156250 0.468750
vt 0.062500 0.468750
vt 0.093750 0.562500
vt 0.093750 0.468750
vt 0.250000 0.500000
vt 0.281250 0.562500
vt 0.281250 0.500000
vt 0.312500 0.500000
vt 0.343750 0.562500
vt 0.343750 0.500000
vt 0.468750 0.656250
vt 0.468750 0.687500
vt 0.437500 0.656250
vt 0.406250 0.562500
vt 0.406250 0.531250
vt 0.375000 0.531250
vt 0.468750 0.750000
vt 0.000000 0.656250
vt 0.062500 0.656250
vt 0.062500 0.875000
vt 0.125000 0.875000
vt 0.125000 0.656250
vt 0.187500 0.656250
vt 0.187500 0.875000
vt 0.250000 1.000000
vt 0.250000 0.937500
vt 0.468750 1.000000
vt 0.468750 0.937500
vt 0.000000 0.500000
vt 0.062500 0.500000
vt 0.437500 0.562500
s 0
usemtl Material_0.002
f 1/1/1 3/2/1 2/3/1
f 3/2/1 4/4/1 2/3/1
f 5/2/2 7/5/2 6/4/2
f 7/5/2 8/6/2 6/4/2
f 9/7/3 11/8/3 10/9/3
f 11/8/3 12/10/3 10/9/3
f 13/6/4 15/11/4 14/5/4
f 15/11/4 16/8/4 14/5/4
f 17/12/5 19/13/5 18/10/5
f 19/13/5 20/9/5 18/10/5
f 21/14/6 23/15/6 22/12/6
f 23/15/6 24/13/6 22/12/6
f 25/16/1 27/16/1 26/17/1
f 27/16/1 28/17/1 26/17/1
f 29/16/2 31/16/2 30/17/2
f 31/16/2 32/17/2 30/17/2
f 33/1/3 35/18/3 34/19/3
f 35/18/3 36/20/3 34/19/3
f 37/1/4 39/2/4 38/19/4
f 39/2/4 40/21/4 38/19/4
f 41/16/5 43/16/5 42/17/5
f 43/16/5 44/17/5 42/17/5
f 45/16/6 47/16/6 46/17/6
f 47/16/6 48/17/6 46/17/6
f 49/16/1 51/22/1 50/23/1
f 51/22/1 52/24/1 50/23/1
f 53/22/2 55/25/2 54/24/2
f 55/25/2 56/26/2 54/24/2
f 57/27/3 59/16/3 58/27/3
f 59/16/3 60/16/3 58/27/3
f 61/16/4 63/27/4 62/16/4
f 63/27/4 64/27/4 62/16/4
f 65/16/5 67/22/5 66/16/5
f 67/22/5 68/22/5 66/16/5
f 69/16/6 71/22/6 70/16/6
f 71/22/6 72/22/6 70/16/6
f 73/21/1 75/28/1 74/2/1
f 75/28/1 76/5/1 74/2/1
f 77/28/2 79/10/2 78/5/2
f 79/10/2 80/8/2 78/5/2
f 81/22/3 83/16/3 82/22/3
f 83/16/3 84/16/3 82/22/3
f 85/16/4 87/22/4 86/16/4
f 87/22/4 88/22/4 86/16/4
f 89/16/5 91/22/5 90/16/5
f 91/22/5 92/22/5 90/16/5
f 93/16/6 95/22/6 94/16/6
f 95/22/6 96/22/6 94/16/6
f 97/29/1 99/30/1 98/31/1
f 99/30/1 100/32/1 98/31/1
f 101/31/2 103/32/2 102/33/2
f 103/32/2 104/34/2 102/33/2
f 105/22/3 107/16/3 106/22/3
f 107/16/3 108/16/3 106/22/3
f 109/16/4 111/22/4 110/16/4
f 111/22/4 112/22/4 110/16/4
f 113/16/5 115/22/5 114/16/5
f 115/22/5 116/22/5 114/16/5
f 117/16/6 119/22/6 118/16/6
f 119/22/6 120/22/6 118/16/6
f 121/35/1 123/36/1 122/20/1
f 123/36/1 124/37/1 122/20/1
f 125/38/2 127/39/2 126/21/2
f 127/39/2 128/40/2 126/21/2
f 129/41/3 131/42/3 130/3/3
f 131/42/3 132/43/3 130/3/3
f 133/44/4 135/45/4 134/15/4
f 135/45/4 136/46/4 134/15/4
f 137/34/5 139/47/5 138/48/5
f 139/47/5 140/49/5 138/48/5
f 141/32/6 143/50/6 142/51/6
f 143/50/6 144/52/6 142/51/6
f 145/16/1 147/16/1 146/17/1
f 147/16/1 148/17/1 146/17/1
f 149/16/2 151/16/2 150/17/2
f 151/16/2 152/17/2 150/17/2
f 153/15/3 155/14/3 154/34/3
f 155/14/3 156/33/3 154/34/3
f 157/43/4 159/3/4 158/18/4
f 159/3/4 160/1/4 158/18/4
f 161/16/5 163/16/5 162/17/5
f 163/16/5 164/17/5 162/17/5
f 165/16/6 167/16/6 166/17/6
f 167/16/6 168/17/6 166/17/6
f 169/13/1 171/53/1 170/54/1
f 171/53/1 172/55/1 170/54/1
f 173/9/2 175/56/2 174/57/2
f 175/56/2 176/58/2 174/57/2
f 177/59/3 179/60/3 178/61/3
f 179/60/3 180/6/3 178/61/3
f 181/62/4 183/63/4 182/7/4
f 183/63/4 184/64/4 182/7/4
f 185/4/5 187/6/5 186/65/5
f 187/6/5 188/60/5 186/65/5
f 189/3/6 191/4/6 190/41/6
f 191/4/6 192/65/6 190/41/6
f 193/16/1 195/16/1 194/23/1
f 195/16/1 196/23/1 194/23/1
f 197/16/2 199/16/2 198/23/2
f 199/16/2 200/23/2 198/23/2
f 201/66/3 203/25/3 202/67/3
f 203/25/3 204/68/3 202/67/3
f 205/68/4 207/67/4 206/69/4
f 207/67/4 208/70/4 206/69/4
f 209/16/5 211/16/5 210/17/5
f 211/16/5 212/17/5 210/17/5
f 213/16/6 215/16/6 214/17/6
f 215/16/6 216/17/6 214/17/6
f 217/16/1 219/16/1 218/23/1
f 219/16/1 220/23/1 218/23/1
f 221/16/2 223/16/2 222/23/2
f 223/16/2 224/23/2 222/23/2
f 225/71/3 227/72/3 226/70/3
f 227/72/3 228/69/3 226/70/3
f 229/35/4 231/39/4 230/72/4
f 231/39/4 232/71/4 230/72/4
f 233/16/5 235/16/5 234/17/5
f 235/16/5 236/17/5 234/17/5
f 237/16/6 239/16/6 238/17/6
f 239/16/6 240/17/6 238/17/6
f 241/73/1 243/74/1 242/75/1
f 243/74/1 244/76/1 242/75/1
f 245/74/2 247/35/2 246/76/2
f 247/35/2 248/42/2 246/76/2
f 249/27/3 251/16/3 250/27/3
f 251/16/3 252/16/3 250/27/3
f 253/16/4 255/27/4 254/16/4
f 255/27/4 256/27/4 254/16/4
f 257/16/5 259/22/5 258/16/5
f 259/22/5 260/22/5 258/16/5
f 261/16/6 263/22/6 262/16/6
f 263/22/6 264/22/6 262/16/6
f 265/16/1 267/22/1 266/16/1
f 267/22/1 268/22/1 266/16/1
f 269/16/2 271/22/2 270/16/2
f 271/22/2 272/22/2 270/16/2
f 273/17/3 275/17/3 274/16/3
f 275/17/3 276/16/3 274/16/3
f 277/17/4 279/17/4 278/16/4
f 279/17/4 280/16/4 278/16/4
f 281/30/5 283/77/5 282/32/5
f 283/77/5 284/78/5 282/32/5
f 285/8/6 287/7/6 286/11/6
f 287/7/6 288/79/6 286/11/6
