# Blender 5.0.1
# www.blender.org
mtllib lev.pt2classicstock.mtl
o attachmentModel
v 0.769231 0.769231 0.384615
v 0.769231 0.769231 0.000000
v 0.769231 -0.769231 0.384615
v 0.769231 -0.769231 0.000000
v -0.769231 0.769231 0.000000
v -0.769231 0.769231 0.384615
v -0.769231 -0.769231 0.000000
v -0.769231 -0.769231 0.384615
v -0.769231 0.769231 0.000000
v 0.769231 0.769231 0.000000
v -0.769231 0.769231 0.384615
v 0.769231 0.769231 0.384615
v -0.769231 -0.769231 0.384615
v 0.769231 -0.769231 0.384615
v -0.769231 -0.769231 0.000000
v 0.769231 -0.769231 0.000000
v -0.769231 0.769231 0.384615
v 0.769231 0.769231 0.384615
v -0.769231 -0.769231 0.384615
v 0.769231 -0.769231 0.384615
v 0.769231 0.769231 0.000000
v -0.769231 0.769231 0.000000
v 0.769231 -0.769231 0.000000
v -0.769231 -0.769231 0.000000
v 0.576154 0.588744 3.536738
v 0.576154 0.000000 2.115385
v 0.576154 -2.253962 4.714225
v 0.576154 -2.842706 3.292872
v -0.576154 0.000000 2.115385
v -0.576154 0.588744 3.536738
v -0.576154 -2.842706 3.292872
v -0.576154 -2.253962 4.714225
v -0.576154 0.000000 2.115385
v 0.576154 0.000000 2.115385
v -0.576154 0.588744 3.536738
v 0.576154 0.588744 3.536738
v -0.576154 -2.253962 4.714225
v 0.576154 -2.253962 4.714225
v -0.576154 -2.842706 3.292872
v 0.576154 -2.842706 3.292872
v -0.576154 0.588744 3.536738
v 0.576154 0.588744 3.536738
v -0.576154 -2.253962 4.714225
v 0.576154 -2.253962 4.714225
v 0.576154 0.000000 2.115385
v -0.576154 0.000000 2.115385
v 0.576154 -2.842706 3.292872
v -0.576154 -2.842706 3.292872
v 0.384615 0.000000 4.230769
v 0.384615 0.000000 2.692308
v 0.384615 -0.769231 4.230769
v 0.384615 -0.769231 2.692308
v -0.384615 0.000000 2.692308
v -0.384615 0.000000 4.230769
v -0.384615 -0.769231 2.692308
v -0.384615 -0.769231 4.230769
v -0.384615 0.000000 2.692308
v 0.384615 0.000000 2.692308
v -0.384615 0.000000 4.230769
v 0.384615 0.000000 4.230769
v -0.384615 -0.769231 4.230769
v 0.384615 -0.769231 4.230769
v -0.384615 -0.769231 2.692308
v 0.384615 -0.769231 2.692308
v -0.384615 0.000000 4.230769
v 0.384615 0.000000 4.230769
v -0.384615 -0.769231 4.230769
v 0.384615 -0.769231 4.230769
v 0.384615 0.000000 2.692308
v -0.384615 0.000000 2.692308
v 0.384615 -0.769231 2.692308
v -0.384615 -0.769231 2.692308
v 0.576923 0.769231 2.307692
v 0.576923 0.769231 0.384615
v 0.576923 -0.769231 2.307692
v 0.576923 -0.769231 0.384615
v -0.576923 0.769231 0.384615
v -0.576923 0.769231 2.307692
v -0.576923 -0.769231 0.384615
v -0.576923 -0.769231 2.307692
v -0.576923 0.769231 0.384615
v 0.576923 0.769231 0.384615
v -0.576923 0.769231 2.307692
v 0.576923 0.769231 2.307692
v -0.576923 -0.769231 2.307692
v 0.576923 -0.769231 2.307692
v -0.576923 -0.769231 0.384615
v 0.576923 -0.769231 0.384615
v -0.576923 0.769231 2.307692
v 0.576923 0.769231 2.307692
v -0.576923 -0.769231 2.307692
v 0.576923 -0.769231 2.307692
v 0.576923 0.769231 0.384615
v -0.576923 0.769231 0.384615
v 0.576923 -0.769231 0.384615
v -0.576923 -0.769231 0.384615
v -0.569231 -0.761538 0.392307
v -0.569231 -0.761538 2.299999
v -0.569231 0.761539 0.392307
v -0.569231 0.761539 2.299999
v 0.569231 -0.761538 2.299999
v 0.569231 -0.761538 0.392307
v 0.569231 0.761539 2.299999
v 0.569231 0.761539 0.392307
v 0.569231 -0.761538 2.299999
v -0.569231 -0.761538 2.299999
v 0.569231 -0.761538 0.392307
v -0.569231 -0.761538 0.392307
v 0.569231 0.761539 0.392307
v -0.569231 0.761539 0.392307
v 0.569231 0.761539 2.299999
v -0.569231 0.761539 2.299999
v 0.569231 -0.761538 0.392307
v -0.569231 -0.761538 0.392307
v 0.569231 0.761539 0.392307
v -0.569231 0.761539 0.392307
v -0.569231 -0.761538 2.299999
v 0.569231 -0.761538 2.299999
v -0.569231 0.761539 2.299999
v 0.569231 0.761539 2.299999
v 0.576923 0.769231 4.230769
v 0.576923 0.769231 2.307692
v 0.576923 0.000000 4.230769
v 0.576923 0.000000 2.307692
v -0.576923 0.769231 2.307692
v -0.576923 0.769231 4.230769
v -0.576923 0.000000 2.307692
v -0.576923 0.000000 4.230769
v -0.576923 0.769231 2.307692
v 0.576923 0.769231 2.307692
v -0.576923 0.769231 4.230769
v 0.576923 0.769231 4.230769
v -0.576923 0.000000 4.230769
v 0.576923 0.000000 4.230769
v -0.576923 0.000000 2.307692
v 0.576923 0.000000 2.307692
v -0.576923 0.769231 4.230769
v 0.576923 0.769231 4.230769
v -0.576923 0.000000 4.230769
v 0.576923 0.000000 4.230769
v 0.576923 0.769231 2.307692
v -0.576923 0.769231 2.307692
v 0.576923 0.000000 2.307692
v -0.576923 0.000000 2.307692
v 0.000769 1.153846 4.423077
v 0.000769 1.153846 2.500000
v 0.000769 0.769231 4.423077
v 0.000769 0.769231 2.500000
v 0.000000 1.153846 2.500000
v 0.000000 1.153846 4.423077
v 0.000000 0.769231 2.500000
v 0.000000 0.769231 4.423077
v 0.000000 1.153846 2.500000
v 0.000769 1.153846 2.500000
v 0.000000 1.153846 4.423077
v 0.000769 1.153846 4.423077
v 0.000000 0.769231 4.423077
v 0.000769 0.769231 4.423077
v 0.000000 0.769231 2.500000
v 0.000769 0.769231 2.500000
v 0.000000 1.153846 4.423077
v 0.000769 1.153846 4.423077
v 0.000000 0.769231 4.423077
v 0.000769 0.769231 4.423077
v 0.000769 1.153846 2.500000
v 0.000000 1.153846 2.500000
v 0.000769 0.769231 2.500000
v 0.000000 0.769231 2.500000
v 0.543928 0.384615 6.538462
v 0.543928 0.384615 5.769231
v -0.000000 -0.159313 6.538462
v -0.000000 -0.159313 5.769231
v 0.000000 0.928544 5.769231
v 0.000000 0.928544 6.538462
v -0.543928 0.384616 5.769231
v -0.543928 0.384616 6.538462
v 0.000000 0.928544 5.769231
v 0.543928 0.384615 5.769231
v 0.000000 0.928544 6.538462
v 0.543928 0.384615 6.538462
v -0.543928 0.384616 6.538462
v -0.000000 -0.159313 6.538462
v -0.543928 0.384616 5.769231
v -0.000000 -0.159313 5.769231
v 0.000000 0.928544 6.538462
v 0.543928 0.384615 6.538462
v -0.543928 0.384616 6.538462
v -0.000000 -0.159313 6.538462
v 0.543928 0.384615 5.769231
v 0.000000 0.928544 5.769231
v -0.000000 -0.159313 5.769231
v -0.543928 0.384616 5.769231
v 0.576923 0.769231 5.769231
v 0.576923 0.769231 4.615385
v 0.576923 0.000000 5.769231
v 0.576923 0.000000 4.615385
v -0.576923 0.769231 4.615385
v -0.576923 0.769231 5.769231
v -0.576923 0.000000 4.615385
v -0.576923 0.000000 5.769231
v -0.576923 0.769231 4.615385
v 0.576923 0.769231 4.615385
v -0.576923 0.769231 5.769231
v 0.576923 0.769231 5.769231
v -0.576923 0.000000 5.769231
v 0.576923 0.000000 5.769231
v -0.576923 0.000000 4.615385
v 0.576923 0.000000 4.615385
v -0.576923 0.769231 5.769231
v 0.576923 0.769231 5.769231
v -0.576923 0.000000 5.769231
v 0.576923 0.000000 5.769231
v 0.576923 0.769231 4.615385
v -0.576923 0.769231 4.615385
v 0.576923 0.000000 4.615385
v -0.576923 0.000000 4.615385
v -0.383846 0.576923 5.000000
v -0.383846 0.576923 4.230769
v -0.383846 0.192308 5.000000
v -0.383846 0.192308 4.230769
v -0.384615 0.576923 4.230769
v -0.384615 0.576923 5.000000
v -0.384615 0.192308 4.230769
v -0.384615 0.192308 5.000000
v -0.384615 0.576923 4.230769
v -0.383846 0.576923 4.230769
v -0.384615 0.576923 5.000000
v -0.383846 0.576923 5.000000
v -0.384615 0.192308 5.000000
v -0.383846 0.192308 5.000000
v -0.384615 0.192308 4.230769
v -0.383846 0.192308 4.230769
v -0.384615 0.576923 5.000000
v -0.383846 0.576923 5.000000
v -0.384615 0.192308 5.000000
v -0.383846 0.192308 5.000000
v -0.383846 0.576923 4.230769
v -0.384615 0.576923 4.230769
v -0.383846 0.192308 4.230769
v -0.384615 0.192308 4.230769
v 0.385385 0.576923 5.000000
v 0.385385 0.576923 4.230769
v 0.385385 0.192308 5.000000
v 0.385385 0.192308 4.230769
v 0.384615 0.576923 4.230769
v 0.384615 0.576923 5.000000
v 0.384615 0.192308 4.230769
v 0.384615 0.192308 5.000000
v 0.384615 0.576923 4.230769
v 0.385385 0.576923 4.230769
v 0.384615 0.576923 5.000000
v 0.385385 0.576923 5.000000
v 0.384615 0.192308 5.000000
v 0.385385 0.192308 5.000000
v 0.384615 0.192308 4.230769
v 0.385385 0.192308 4.230769
v 0.384615 0.576923 5.000000
v 0.385385 0.576923 5.000000
v 0.384615 0.192308 5.000000
v 0.385385 0.192308 5.000000
v 0.385385 0.576923 4.230769
v 0.384615 0.576923 4.230769
v 0.385385 0.192308 4.230769
v 0.384615 0.192308 4.230769
v 0.576923 1.153846 7.307692
v 0.576923 1.153846 6.538462
v 0.576923 -1.923077 7.307692
v 0.576923 -1.923077 6.538462
v -0.576923 1.153846 6.538462
v -0.576923 1.153846 7.307692
v -0.576923 -1.923077 6.538462
v -0.576923 -1.923077 7.307692
v -0.576923 1.153846 6.538462
v 0.576923 1.153846 6.538462
v -0.576923 1.153846 7.307692
v 0.576923 1.153846 7.307692
v -0.576923 -1.923077 7.307692
v 0.576923 -1.923077 7.307692
v -0.576923 -1.923077 6.538462
v 0.576923 -1.923077 6.538462
v -0.576923 1.153846 7.307692
v 0.576923 1.153846 7.307692
v -0.576923 -1.923077 7.307692
v 0.576923 -1.923077 7.307692
v 0.576923 1.153846 6.538462
v -0.576923 1.153846 6.538462
v 0.576923 -1.923077 6.538462
v -0.576923 -1.923077 6.538462
v 0.576923 0.000000 6.538462
v 0.576923 0.000000 5.384615
v 0.576923 -0.384615 6.538462
v 0.576923 -0.384615 5.384615
v -0.576923 0.000000 5.384615
v -0.576923 0.000000 6.538462
v -0.576923 -0.384615 5.384615
v -0.576923 -0.384615 6.538462
v -0.576923 0.000000 5.384615
v 0.576923 0.000000 5.384615
v -0.576923 0.000000 6.538462
v 0.576923 0.000000 6.538462
v -0.576923 -0.384615 6.538462
v 0.576923 -0.384615 6.538462
v -0.576923 -0.384615 5.384615
v 0.576923 -0.384615 5.384615
v -0.576923 0.000000 6.538462
v 0.576923 0.000000 6.538462
v -0.576923 -0.384615 6.538462
v 0.576923 -0.384615 6.538462
v 0.576923 0.000000 5.384615
v -0.576923 0.000000 5.384615
v 0.576923 -0.384615 5.384615
v -0.576923 -0.384615 5.384615
v 0.576923 1.538462 5.769231
v 0.576923 1.538462 1.538462
v 0.576923 1.153846 5.769231
v 0.576923 1.153846 1.538462
v -0.576923 1.538462 1.538462
v -0.576923 1.538462 5.769231
v -0.576923 1.153846 1.538462
v -0.576923 1.153846 5.769231
v -0.576923 1.538462 1.538462
v 0.576923 1.538462 1.538462
v -0.576923 1.538462 5.769231
v 0.576923 1.538462 5.769231
v -0.576923 1.153846 5.769231
v 0.576923 1.153846 5.769231
v -0.576923 1.153846 1.538462
v 0.576923 1.153846 1.538462
v -0.576923 1.538462 5.769231
v 0.576923 1.538462 5.769231
v -0.576923 1.153846 5.769231
v 0.576923 1.153846 5.769231
v 0.576923 1.538462 1.538462
v -0.576923 1.538462 1.538462
v 0.576923 1.153846 1.538462
v -0.576923 1.153846 1.538462
vn 1.0000 -0.0000 -0.0000
vn -1.0000 -0.0000 -0.0000
vn -0.0000 1.0000 -0.0000
vn -0.0000 -1.0000 -0.0000
vn -0.0000 -0.0000 1.0000
vn -0.0000 -0.0000 -1.0000
vn -0.0000 0.9239 -0.3827
vn -0.0000 -0.9239 0.3827
vn -0.0000 0.3827 0.9239
vn -0.0000 -0.3827 -0.9239
vn 0.7071 -0.7071 -0.0000
vn -0.7071 0.7071 -0.0000
vn 0.7071 0.7071 -0.0000
vn -0.7071 -0.7071 -0.0000
vt 0.031250 0.531250
vt 0.031250 0.468750
vt 0.046875 0.531250
vt 0.046875 0.468750
vt 0.468750 0.968750
vt 0.468750 0.906250
vt 0.484375 0.968750
vt 0.484375 0.906250
vt 0.125000 0.515625
vt 0.125000 0.531250
vt 0.062500 0.515625
vt 0.062500 0.531250
vt 0.531250 0.906250
vt 0.531250 0.890625
vt 0.468750 0.890625
vt 0.218750 0.750000
vt 0.218750 0.687500
vt 0.281250 0.750000
vt 0.281250 0.687500
vt 0.250000 0.812500
vt 0.250000 0.750000
vt 0.312500 0.812500
vt 0.312500 0.750000
vt 0.125000 1.000000
vt 0.125000 0.875000
vt 0.187500 1.000000
vt 0.187500 0.875000
vt 0.125000 0.750000
vt 0.187500 0.750000
vt 0.390625 0.937500
vt 0.390625 1.000000
vt 0.343750 0.937500
vt 0.343750 1.000000
vt 0.390625 0.875000
vt 0.343750 0.875000
vt 0.234375 1.000000
vt 0.234375 0.875000
vt 0.000000 0.812500
vt 0.000000 0.687500
vt 0.046875 0.812500
vt 0.046875 0.687500
vt 0.156250 0.593750
vt 0.156250 0.562500
vt 0.218750 0.593750
vt 0.218750 0.562500
vt 0.406250 0.843750
vt 0.406250 0.812500
vt 0.468750 0.843750
vt 0.468750 0.812500
vt 0.250000 0.531250
vt 0.250000 0.593750
vt 0.218750 0.531250
vt 0.281250 0.593750
vt 0.281250 0.531250
vt 0.000000 0.531250
vt 0.000000 0.500000
vt 0.031250 0.500000
vt 0.000000 0.562500
vt 0.031250 0.562500
vt 0.250000 1.000000
vt 0.250000 0.937500
vt 0.328125 1.000000
vt 0.328125 0.937500
vt 0.250000 0.875000
vt 0.328125 0.875000
vt 0.078125 0.609375
vt 0.078125 0.687500
vt 0.031250 0.609375
vt 0.031250 0.687500
vt 0.140625 0.687500
vt 0.140625 0.609375
vt 0.093750 0.687500
vt 0.093750 0.609375
vt 0.375000 0.812500
vt 0.375000 0.750000
vt 0.421875 0.812500
vt 0.421875 0.750000
vt 0.343750 0.812500
vt 0.390625 0.812500
vt 0.125000 0.687500
vt 0.203125 0.750000
vt 0.203125 0.687500
vt 0.328125 0.812500
vt 0.203125 0.609375
vt 0.156250 0.609375
vt 0.156250 0.687500
vt 0.359375 0.812500
vt 0.359375 0.734375
vt 0.312500 0.734375
vt 0.281250 0.625000
vt 0.281250 0.562500
vt 0.328125 0.625000
vt 0.328125 0.562500
vt 0.375000 0.687500
vt 0.421875 0.687500
vt 0.375000 0.656250
vt 0.375000 0.625000
vt 0.453125 0.656250
vt 0.453125 0.625000
vt 0.406250 1.000000
vt 0.406250 0.968750
vt 0.484375 1.000000
vt 0.265625 0.609375
vt 0.265625 0.687500
vt 0.218750 0.609375
vt 0.359375 0.718750
vt 0.359375 0.640625
vt 0.312500 0.718750
vt 0.312500 0.640625
vt 0.406250 0.593750
vt 0.406250 0.562500
vt 0.453125 0.593750
vt 0.453125 0.562500
vt 0.343750 0.593750
vt 0.343750 0.562500
vt 0.390625 0.593750
vt 0.390625 0.562500
vt 0.343750 0.546875
vt 0.421875 0.562500
vt 0.421875 0.546875
vt 0.437500 0.562500
vt 0.437500 0.546875
vt 0.515625 0.562500
vt 0.515625 0.546875
vt 0.000000 0.921875
vt 0.000000 1.000000
vt 0.000000 0.984375
vt 0.468750 0.875000
vt 0.500000 0.875000
vt 0.500000 0.843750
vt 0.500000 0.812500
vt 0.218750 0.500000
vt 0.187500 0.500000
vt 0.187500 0.531250
vt 0.250000 0.500000
vt 0.156250 0.531250
vt 0.156250 0.500000
vt 0.125000 0.500000
vt 0.437500 0.812500
vt 0.437500 0.781250
vt 0.484375 0.812500
vt 0.484375 0.781250
vt 0.437500 0.750000
vt 0.437500 0.718750
vt 0.484375 0.750000
vt 0.484375 0.718750
vt 0.078125 0.546875
vt 0.078125 0.593750
vt 0.031250 0.546875
vt 0.031250 0.593750
vt 0.453125 0.968750
vt 0.453125 0.921875
vt 0.406250 0.921875
vt 0.203125 0.562500
vt 0.203125 0.531250
vt 0.000000 0.484375
vt 0.031250 0.484375
vt 0.500000 1.000000
vt 0.500000 0.984375
vt 0.531250 1.000000
vt 0.531250 0.984375
vt 0.000000 0.968750
vt 0.500000 0.968750
vt 0.500000 0.953125
vt 0.531250 0.968750
vt 0.531250 0.953125
vt 0.062500 0.500000
vt 0.062500 0.484375
vt 0.093750 0.500000
vt 0.093750 0.484375
vt 0.312500 0.625000
vt 0.328125 0.531250
vt 0.484375 0.687500
vt 0.437500 0.687500
vt 0.234375 0.750000
vt 0.062500 0.812500
vt 0.062500 0.687500
vt 0.109375 0.812500
vt 0.109375 0.687500
vt 0.312500 0.531250
vt 0.312500 0.515625
vt 0.359375 0.531250
vt 0.359375 0.515625
vt 0.375000 0.531250
vt 0.375000 0.515625
vt 0.421875 0.531250
vt 0.421875 0.515625
vt 0.140625 0.546875
vt 0.140625 0.593750
vt 0.093750 0.546875
vt 0.093750 0.593750
vt 0.453125 0.906250
vt 0.453125 0.859375
vt 0.406250 0.906250
vt 0.406250 0.859375
vt 0.468750 0.656250
vt 0.468750 0.640625
vt 0.515625 0.656250
vt 0.515625 0.640625
vt 0.250000 0.515625
vt 0.296875 0.531250
vt 0.296875 0.515625
vt 0.375000 0.671875
vt 0.546875 0.687500
vt 0.546875 0.671875
vt 0.343750 0.625000
vt 0.343750 0.609375
vt 0.515625 0.625000
vt 0.515625 0.609375
vt 0.046875 0.828125
vt 0.046875 1.000000
vt 0.000000 0.828125
vt 0.109375 1.000000
vt 0.109375 0.828125
vt 0.062500 1.000000
vt 0.062500 0.828125
vt 0.437500 0.531250
vt 0.437500 0.515625
vt 0.484375 0.531250
vt 0.484375 0.515625
vt 0.468750 0.593750
vt 0.468750 0.578125
vt 0.515625 0.593750
vt 0.515625 0.578125
s 0
usemtl Material_0.002
f 1/1/1 3/2/1 2/3/1
f 3/2/1 4/4/1 2/3/1
f 5/5/2 7/6/2 6/7/2
f 7/6/2 8/8/2 6/7/2
f 9/9/3 11/10/3 10/11/3
f 11/10/3 12/12/3 10/11/3
f 13/13/4 15/14/4 14/6/4
f 15/14/4 16/15/4 14/6/4
f 17/16/5 19/17/5 18/18/5
f 19/17/5 20/19/5 18/18/5
f 21/20/6 23/21/6 22/22/6
f 23/21/6 24/23/6 22/22/6
f 25/24/1 27/25/1 26/26/1
f 27/25/1 28/27/1 26/26/1
f 29/25/2 31/28/2 30/27/2
f 31/28/2 32/29/2 30/27/2
f 33/30/7 35/31/7 34/32/7
f 35/31/7 36/33/7 34/32/7
f 37/30/8 39/34/8 38/32/8
f 39/34/8 40/35/8 38/32/8
f 41/26/9 43/27/9 42/36/9
f 43/27/9 44/37/9 42/36/9
f 45/38/10 47/39/10 46/40/10
f 47/39/10 48/41/10 46/40/10
f 49/42/1 51/43/1 50/44/1
f 51/43/1 52/45/1 50/44/1
f 53/46/2 55/47/2 54/48/2
f 55/47/2 56/49/2 54/48/2
f 57/50/3 59/51/3 58/52/3
f 59/51/3 60/44/3 58/52/3
f 61/53/4 63/54/4 62/51/4
f 63/54/4 64/50/4 62/51/4
f 65/55/5 67/56/5 66/1/5
f 67/56/5 68/57/5 66/1/5
f 69/58/6 71/55/6 70/59/6
f 71/55/6 72/1/6 70/59/6
f 73/60/1 75/61/1 74/62/1
f 75/61/1 76/63/1 74/62/1
f 77/61/2 79/64/2 78/63/2
f 79/64/2 80/65/2 78/63/2
f 81/66/3 83/67/3 82/68/3
f 83/67/3 84/69/3 82/68/3
f 85/70/4 87/71/4 86/72/4
f 87/71/4 88/73/4 86/72/4
f 89/74/5 91/75/5 90/76/5
f 91/75/5 92/77/5 90/76/5
f 93/35/6 95/78/6 94/34/6
f 95/78/6 96/79/6 94/34/6
f 97/28/1 99/80/1 98/81/1
f 99/80/1 100/82/1 98/81/1
f 101/64/2 103/20/2 102/65/2
f 103/20/2 104/83/2 102/65/2
f 105/84/3 107/82/3 106/85/3
f 107/82/3 108/86/3 106/85/3
f 109/87/4 111/88/4 110/22/4
f 111/88/4 112/89/4 110/22/4
f 113/90/5 115/91/5 114/92/5
f 115/91/5 116/93/5 114/92/5
f 117/75/6 119/94/6 118/77/6
f 119/94/6 120/95/6 118/77/6
f 121/96/1 123/97/1 122/98/1
f 123/97/1 124/99/1 122/98/1
f 125/100/2 127/101/2 126/102/2
f 127/101/2 128/7/2 126/102/2
f 129/103/3 131/104/3 130/105/3
f 131/104/3 132/17/3 130/105/3
f 133/106/4 135/107/4 134/108/4
f 135/107/4 136/109/4 134/108/4
f 137/110/5 139/111/5 138/112/5
f 139/111/5 140/113/5 138/112/5
f 141/114/6 143/115/6 142/116/6
f 143/115/6 144/117/6 142/116/6
f 145/115/1 147/118/1 146/119/1
f 147/118/1 148/120/1 146/119/1
f 149/121/2 151/122/2 150/123/2
f 151/122/2 152/124/2 150/123/2
f 153/125/3 155/126/3 154/125/3
f 155/126/3 156/126/3 154/125/3
f 157/126/4 159/125/4 158/126/4
f 159/125/4 160/125/4 158/126/4
f 161/126/5 163/127/5 162/126/5
f 163/127/5 164/127/5 162/126/5
f 165/126/6 167/127/6 166/126/6
f 167/127/6 168/127/6 166/126/6
f 169/128/11 171/48/11 170/129/11
f 171/48/11 172/130/11 170/129/11
f 173/48/12 175/49/12 174/130/12
f 175/49/12 176/131/12 174/130/12
f 177/132/13 179/52/13 178/133/13
f 179/52/13 180/134/13 178/133/13
f 181/50/14 183/135/14 182/52/14
f 183/135/14 184/132/14 182/52/14
f 185/136/5 187/137/5 186/134/5
f 187/137/5 188/133/5 186/134/5
f 189/10/6 191/138/6 190/136/6
f 191/138/6 192/137/6 190/136/6
f 193/139/1 195/140/1 194/141/1
f 195/140/1 196/142/1 194/141/1
f 197/143/2 199/144/2 198/145/2
f 199/144/2 200/146/2 198/145/2
f 201/147/3 203/148/3 202/149/3
f 203/148/3 204/150/3 202/149/3
f 205/151/4 207/152/4 206/101/4
f 207/152/4 208/153/4 206/101/4
f 209/140/5 211/143/5 210/142/5
f 211/143/5 212/145/5 210/142/5
f 213/43/6 215/136/6 214/154/6
f 215/136/6 216/155/6 214/154/6
f 217/56/1 219/156/1 218/57/1
f 219/156/1 220/157/1 218/57/1
f 221/158/2 223/159/2 222/160/2
f 223/159/2 224/161/2 222/160/2
f 225/162/3 227/126/3 226/162/3
f 227/126/3 228/126/3 226/162/3
f 229/126/4 231/162/4 230/126/4
f 231/162/4 232/162/4 230/126/4
f 233/126/5 235/127/5 234/126/5
f 235/127/5 236/127/5 234/126/5
f 237/126/6 239/127/6 238/126/6
f 239/127/6 240/127/6 238/126/6
f 241/163/1 243/164/1 242/165/1
f 243/164/1 244/166/1 242/165/1
f 245/167/2 247/168/2 246/169/2
f 247/168/2 248/170/2 246/169/2
f 249/162/3 251/126/3 250/162/3
f 251/126/3 252/126/3 250/162/3
f 253/126/4 255/162/4 254/126/4
f 255/162/4 256/162/4 254/126/4
f 257/126/5 259/127/5 258/126/5
f 259/127/5 260/127/5 258/126/5
f 261/126/6 263/127/6 262/126/6
f 263/127/6 264/127/6 262/126/6
f 265/18/1 267/90/1 266/23/1
f 267/90/1 268/171/1 266/23/1
f 269/39/2 271/58/2 270/69/2
f 271/58/2 272/59/2 270/69/2
f 273/172/3 275/93/3 274/54/3
f 275/93/3 276/91/3 274/54/3
f 277/146/4 279/173/4 278/144/4
f 279/173/4 280/174/4 278/144/4
f 281/27/5 283/29/5 282/37/5
f 283/29/5 284/175/5 282/37/5
f 285/176/6 287/177/6 286/178/6
f 287/177/6 288/179/6 286/178/6
f 289/180/1 291/181/1 290/182/1
f 291/181/1 292/183/1 290/182/1
f 293/184/2 295/185/2 294/186/2
f 295/185/2 296/187/2 294/186/2
f 297/188/3 299/189/3 298/190/3
f 299/189/3 300/191/3 298/190/3
f 301/192/4 303/193/4 302/194/4
f 303/193/4 304/195/4 302/194/4
f 305/196/5 307/197/5 306/198/5
f 307/197/5 308/199/5 306/198/5
f 309/50/6 311/200/6 310/201/6
f 311/200/6 312/202/6 310/201/6
f 313/94/1 315/203/1 314/204/1
f 315/203/1 316/205/1 314/204/1
f 317/206/2 319/207/2 318/208/2
f 319/207/2 320/209/2 318/208/2
f 321/210/3 323/211/3 322/212/3
f 323/211/3 324/126/3 322/212/3
f 325/213/4 327/214/4 326/215/4
f 327/214/4 328/216/4 326/215/4
f 329/217/5 331/218/5 330/219/5
f 331/218/5 332/220/5 330/219/5
f 333/221/6 335/222/6 334/223/6
f 335/222/6 336/224/6 334/223/6
