# Blender 4.2.0
# www.blender.org
mtllib lev.trail1.mtl
o trailModel
v 0.016764 -0.016831 -0.422641
v 0.016764 -0.016831 0.004963
v -0.016831 0.016764 -0.422641
v -0.016831 0.016764 0.004963
v 0.016798 -0.016798 0.004963
v 0.016798 -0.016798 -0.422641
v -0.016798 0.016798 0.004963
v -0.016798 0.016798 -0.422641
v 0.016798 -0.016798 0.004963
v 0.016764 -0.016831 0.004963
v 0.016798 -0.016798 -0.422641
v 0.016764 -0.016831 -0.422641
v -0.016798 0.016798 -0.422641
v -0.016831 0.016764 -0.422641
v -0.016798 0.016798 0.004963
v -0.016831 0.016764 0.004963
v 0.016798 -0.016798 -0.422641
v 0.016764 -0.016831 -0.422641
v -0.016798 0.016798 -0.422641
v -0.016831 0.016764 -0.422641
v 0.016764 -0.016831 0.004963
v 0.016798 -0.016798 0.004963
v -0.016831 0.016764 0.004963
v -0.016798 0.016798 0.004963
v -0.016831 -0.016764 -0.422641
v -0.016831 -0.016764 0.004963
v 0.016764 0.016831 -0.422641
v 0.016764 0.016831 0.004963
v -0.016798 -0.016798 0.004963
v -0.016798 -0.016798 -0.422641
v 0.016798 0.016798 0.004963
v 0.016798 0.016798 -0.422641
v -0.016798 -0.016798 0.004963
v -0.016831 -0.016764 0.004963
v -0.016798 -0.016798 -0.422641
v -0.016831 -0.016764 -0.422641
v 0.016798 0.016798 -0.422641
v 0.016764 0.016831 -0.422641
v 0.016798 0.016798 0.004963
v 0.016764 0.016831 0.004963
v -0.016798 -0.016798 -0.422641
v -0.016831 -0.016764 -0.422641
v 0.016798 0.016798 -0.422641
v 0.016764 0.016831 -0.422641
v -0.016831 -0.016764 0.004963
v -0.016798 -0.016798 0.004963
v 0.016764 0.016831 0.004963
v 0.016798 0.016798 0.004963
v 0.000000 -0.033596 -0.422689
v 0.000000 -0.033596 -0.422641
v -0.033596 -0.000000 -0.422689
v -0.033596 -0.000000 -0.422641
v 0.033596 0.000000 -0.422641
v 0.033596 0.000000 -0.422689
v -0.000000 0.033596 -0.422641
v -0.000000 0.033596 -0.422689
v 0.033596 0.000000 -0.422641
v 0.000000 -0.033596 -0.422641
v 0.033596 0.000000 -0.422689
v 0.000000 -0.033596 -0.422689
v -0.000000 0.033596 -0.422689
v -0.033596 -0.000000 -0.422689
v -0.000000 0.033596 -0.422641
v -0.033596 -0.000000 -0.422641
v 0.033596 0.000000 -0.422689
v 0.000000 -0.033596 -0.422689
v -0.000000 0.033596 -0.422689
v -0.033596 -0.000000 -0.422689
v 0.000000 -0.033596 -0.422641
v 0.033596 0.000000 -0.422641
v -0.033596 -0.000000 -0.422641
v -0.000000 0.033596 -0.422641
v 0.000000 -0.033596 0.004915
v 0.000000 -0.033596 0.004963
v -0.033596 -0.000000 0.004915
v -0.033596 -0.000000 0.004963
v 0.033596 0.000000 0.004963
v 0.033596 0.000000 0.004915
v -0.000000 0.033596 0.004963
v -0.000000 0.033596 0.004915
v 0.033596 0.000000 0.004963
v 0.000000 -0.033596 0.004963
v 0.033596 0.000000 0.004915
v 0.000000 -0.033596 0.004915
v -0.000000 0.033596 0.004915
v -0.033596 -0.000000 0.004915
v -0.000000 0.033596 0.004963
v -0.033596 -0.000000 0.004963
v 0.033596 0.000000 0.004915
v 0.000000 -0.033596 0.004915
v -0.000000 0.033596 0.004915
v -0.033596 -0.000000 0.004915
v 0.000000 -0.033596 0.004963
v 0.033596 0.000000 0.004963
v -0.033596 -0.000000 0.004963
v -0.000000 0.033596 0.004963
vn -0.7071 -0.7071 -0.0000
vn 0.7071 0.7071 -0.0000
vn 0.7071 -0.7071 -0.0000
vn -0.7071 0.7071 -0.0000
vn -0.0000 -0.0000 -1.0000
vn -0.0000 -0.0000 1.0000
vt 0.000000 1.000000
vt 0.000000 0.937500
vt 0.562500 1.000000
vt 0.562500 0.937500
vt 0.000000 0.875000
vt 0.562500 0.875000
vt 0.000000 0.437500
vt 0.000000 0.812500
vt 0.562500 0.812500
vt 0.000000 0.750000
vt 0.562500 0.750000
vt 0.062500 1.000000
vt 0.062500 0.750000
vt 0.062500 0.687500
vt 0.125000 0.750000
vt 0.125000 0.687500
vt 0.000000 0.687500
vt 0.187500 0.750000
vt 0.187500 0.687500
vt 0.250000 0.750000
vt 0.250000 0.687500
s 0
usemtl Material_0
f 1/1/1 2/3/1 3/2/1
f 3/2/1 2/3/1 4/4/1
f 5/2/2 6/4/2 7/5/2
f 7/5/2 6/4/2 8/6/2
f 9/7/3 10/7/3 11/1/3
f 11/1/3 10/7/3 12/1/3
f 13/1/4 14/1/4 15/7/4
f 15/7/4 14/1/4 16/7/4
f 17/1/5 18/1/5 19/2/5
f 19/2/5 18/1/5 20/2/5
f 21/1/6 22/1/6 23/2/6
f 23/2/6 22/1/6 24/2/6
f 25/5/4 26/6/4 27/8/4
f 27/8/4 26/6/4 28/9/4
f 29/8/3 30/9/3 31/10/3
f 31/10/3 30/9/3 32/11/3
f 33/7/1 34/7/1 35/1/1
f 35/1/1 34/7/1 36/1/1
f 37/1/2 38/1/2 39/7/2
f 39/7/2 38/1/2 40/7/2
f 41/1/5 42/1/5 43/2/5
f 43/2/5 42/1/5 44/2/5
f 45/1/6 46/1/6 47/2/6
f 47/2/6 46/1/6 48/2/6
f 49/1/1 50/1/1 51/2/1
f 51/2/1 50/1/1 52/2/1
f 53/1/2 54/1/2 55/2/2
f 55/2/2 54/1/2 56/2/2
f 57/12/3 58/1/3 59/12/3
f 59/12/3 58/1/3 60/1/3
f 61/12/4 62/1/4 63/12/4
f 63/12/4 62/1/4 64/1/4
f 65/13/5 66/15/5 67/14/5
f 67/14/5 66/15/5 68/16/5
f 69/10/6 70/13/6 71/17/6
f 71/17/6 70/13/6 72/14/6
f 73/1/1 74/1/1 75/2/1
f 75/2/1 74/1/1 76/2/1
f 77/1/2 78/1/2 79/2/2
f 79/2/2 78/1/2 80/2/2
f 81/12/3 82/1/3 83/12/3
f 83/12/3 82/1/3 84/1/3
f 85/12/4 86/1/4 87/12/4
f 87/12/4 86/1/4 88/1/4
f 89/18/5 90/20/5 91/19/5
f 91/19/5 90/20/5 92/21/5
f 93/15/6 94/18/6 95/16/6
f 95/16/6 94/18/6 96/19/6
