# Blender 5.2.1 LTS
# www.blender.org
mtllib lev.trail4.mtl
o trailModel
v -0.139181 0.139243 0.000000
v -0.139181 0.139243 -4.875000
v 0.139243 -0.139181 0.000000
v 0.139243 -0.139181 -4.875000
v -0.139212 0.139212 -4.875000
v -0.139212 0.139212 0.000000
v 0.139212 -0.139212 -4.875000
v 0.139212 -0.139212 0.000000
v -0.139212 0.139212 -4.875000
v -0.139181 0.139243 -4.875000
v -0.139212 0.139212 0.000000
v -0.139181 0.139243 0.000000
v 0.139212 -0.139212 0.000000
v 0.139243 -0.139181 0.000000
v 0.139212 -0.139212 -4.875000
v 0.139243 -0.139181 -4.875000
v -0.139212 0.139212 0.000000
v -0.139181 0.139243 0.000000
v 0.139212 -0.139212 0.000000
v 0.139243 -0.139181 0.000000
v -0.139181 0.139243 -4.875000
v -0.139212 0.139212 -4.875000
v 0.139243 -0.139181 -4.875000
v 0.139212 -0.139212 -4.875000
v -0.139243 -0.139181 0.000000
v -0.139243 -0.139181 -4.875000
v 0.139181 0.139243 0.000000
v 0.139181 0.139243 -4.875000
v -0.139212 -0.139212 -4.875000
v -0.139212 -0.139212 0.000000
v 0.139212 0.139212 -4.875000
v 0.139212 0.139212 0.000000
v -0.139212 -0.139212 -4.875000
v -0.139243 -0.139181 -4.875000
v -0.139212 -0.139212 0.000000
v -0.139243 -0.139181 0.000000
v 0.139212 0.139212 0.000000
v 0.139181 0.139243 0.000000
v 0.139212 0.139212 -4.875000
v 0.139181 0.139243 -4.875000
v -0.139212 -0.139212 0.000000
v -0.139243 -0.139181 0.000000
v 0.139212 0.139212 0.000000
v 0.139181 0.139243 0.000000
v -0.139243 -0.139181 -4.875000
v -0.139212 -0.139212 -4.875000
v 0.139181 0.139243 -4.875000
v 0.139212 0.139212 -4.875000
vn 0.7071 0.7071 -0.0000
vn -0.7071 -0.7071 -0.0000
vn -0.7071 0.7071 -0.0000
vn 0.7071 -0.7071 -0.0000
vn -0.0000 -0.0000 1.0000
vn -0.0000 -0.0000 -1.0000
vt 0.000000 1.000000
vt 0.000000 0.859375
vt 0.609375 1.000000
vt 0.609375 0.859375
vt 0.000000 0.390625
s 0
usemtl Material_0.002
f 1/1/1 3/2/1 2/3/1
f 3/2/1 4/4/1 2/3/1
f 5/3/2 7/4/2 6/1/2
f 7/4/2 8/2/2 6/1/2
f 9/5/3 11/1/3 10/5/3
f 11/1/3 12/1/3 10/5/3
f 13/1/4 15/5/4 14/1/4
f 15/5/4 16/5/4 14/1/4
f 17/1/5 19/2/5 18/1/5
f 19/2/5 20/2/5 18/1/5
f 21/1/6 23/2/6 22/1/6
f 23/2/6 24/2/6 22/1/6
f 25/1/3 27/2/3 26/3/3
f 27/2/3 28/4/3 26/3/3
f 29/3/4 31/4/4 30/1/4
f 31/4/4 32/2/4 30/1/4
f 33/1/2 35/5/2 34/1/2
f 35/5/2 36/5/2 34/1/2
f 37/1/1 39/5/1 38/1/1
f 39/5/1 40/5/1 38/1/1
f 41/1/5 43/2/5 42/1/5
f 43/2/5 44/2/5 42/1/5
f 45/1/6 47/2/6 46/1/6
f 47/2/6 48/2/6 46/1/6
