# Blender 4.5.2 LTS
# www.blender.org
mtllib lev.trail2.mtl
o trailModel
v 0.025146 -0.025247 -0.845282
v 0.025146 -0.025246 0.009926
v -0.025246 0.025146 -0.845282
v -0.025246 0.025146 0.009926
v 0.025197 -0.025197 0.009926
v 0.025197 -0.025197 -0.845282
v -0.025197 0.025197 0.009926
v -0.025197 0.025197 -0.845282
v 0.025197 -0.025197 0.009926
v 0.025146 -0.025246 0.009926
v 0.025197 -0.025197 -0.845282
v 0.025146 -0.025247 -0.845282
v -0.025197 0.025197 -0.845282
v -0.025246 0.025146 -0.845282
v -0.025197 0.025197 0.009926
v -0.025246 0.025146 0.009926
v 0.025197 -0.025197 -0.845282
v 0.025146 -0.025247 -0.845282
v -0.025197 0.025197 -0.845282
v -0.025246 0.025146 -0.845282
v 0.025146 -0.025246 0.009926
v 0.025197 -0.025197 0.009926
v -0.025246 0.025146 0.009926
v -0.025197 0.025197 0.009926
v -0.025246 -0.025146 -0.845282
v -0.025246 -0.025146 0.009926
v 0.025146 0.025246 -0.845282
v 0.025146 0.025246 0.009926
v -0.025197 -0.025197 0.009926
v -0.025197 -0.025197 -0.845282
v 0.025197 0.025197 0.009926
v 0.025197 0.025197 -0.845282
v -0.025197 -0.025197 0.009926
v -0.025246 -0.025146 0.009926
v -0.025197 -0.025197 -0.845282
v -0.025246 -0.025146 -0.845282
v 0.025197 0.025197 -0.845282
v 0.025146 0.025246 -0.845282
v 0.025197 0.025197 0.009926
v 0.025146 0.025246 0.009926
v -0.025197 -0.025197 -0.845282
v -0.025246 -0.025146 -0.845282
v 0.025197 0.025197 -0.845282
v 0.025146 0.025246 -0.845282
v -0.025246 -0.025146 0.009926
v -0.025197 -0.025197 0.009926
v 0.025146 0.025246 0.009926
v 0.025197 0.025197 0.009926
v 0.000000 -0.050394 -0.845378
v 0.000000 -0.050394 -0.845282
v -0.050394 -0.000000 -0.845378
v -0.050394 -0.000000 -0.845282
v 0.050394 -0.000000 -0.845282
v 0.050394 -0.000000 -0.845378
v 0.000000 0.050394 -0.845282
v 0.000000 0.050394 -0.845378
v 0.050394 -0.000000 -0.845282
v 0.000000 -0.050394 -0.845282
v 0.050394 -0.000000 -0.845378
v 0.000000 -0.050394 -0.845378
v 0.000000 0.050394 -0.845378
v -0.050394 -0.000000 -0.845378
v 0.000000 0.050394 -0.845282
v -0.050394 -0.000000 -0.845282
v 0.050394 -0.000000 -0.845378
v 0.000000 -0.050394 -0.845378
v 0.000000 0.050394 -0.845378
v -0.050394 -0.000000 -0.845378
v 0.000000 -0.050394 -0.845282
v 0.050394 -0.000000 -0.845282
v -0.050394 -0.000000 -0.845282
v 0.000000 0.050394 -0.845282
v 0.000000 -0.050394 0.009830
v 0.000000 -0.050394 0.009926
v -0.050394 0.000000 0.009830
v -0.050394 0.000000 0.009926
v 0.050394 0.000000 0.009926
v 0.050394 0.000000 0.009830
v 0.000000 0.050394 0.009926
v 0.000000 0.050394 0.009830
v 0.050394 0.000000 0.009926
v 0.000000 -0.050394 0.009926
v 0.050394 0.000000 0.009830
v 0.000000 -0.050394 0.009830
v 0.000000 0.050394 0.009830
v -0.050394 0.000000 0.009830
v 0.000000 0.050394 0.009926
v -0.050394 0.000000 0.009926
v 0.050394 0.000000 0.009830
v 0.000000 -0.050394 0.009830
v 0.000000 0.050394 0.009830
v -0.050394 0.000000 0.009830
v 0.000000 -0.050394 0.009926
v 0.050394 0.000000 0.009926
v -0.050394 0.000000 0.009926
v 0.000000 0.050394 0.009926
vn -0.7071 -0.7071 -0.0000
vn 0.7071 0.7071 -0.0000
vn 0.7071 -0.7071 -0.0000
vn -0.7071 0.7071 -0.0000
vn -0.0000 -0.0000 -1.0000
vn -0.0000 -0.0000 1.0000
vn -0.7073 -0.7069 -0.0000
vn -0.7069 -0.7073 -0.0000
vn 0.7069 0.7073 -0.0000
vn 0.7073 0.7069 -0.0000
vn 0.7069 -0.7073 -0.0000
vn 0.7073 -0.7069 -0.0000
vn -0.7073 0.7069 -0.0000
vn -0.7069 0.7073 -0.0000
vt 0.000000 1.000000
vt 0.562500 1.000000
vt 0.000000 0.937500
vt 0.562500 0.937500
vt 0.000000 0.875000
vt 0.562500 0.875000
vt 0.000000 0.437500
vt 0.000000 0.812500
vt 0.562500 0.812500
vt 0.000000 0.750000
vt 0.562500 0.750000
vt 0.062500 1.000000
vt 0.062500 0.750000
vt 0.125000 0.750000
vt 0.062500 0.687500
vt 0.125000 0.687500
vt 0.000000 0.687500
vt 0.187500 0.750000
vt 0.250000 0.750000
vt 0.187500 0.687500
vt 0.250000 0.687500
s 1
usemtl Material_0
f 1/1/1 2/2/1 3/3/1
f 3/3/1 2/2/1 4/4/1
f 5/3/2 6/4/2 7/5/2
f 7/5/2 6/4/2 8/6/2
f 9/7/3 10/7/3 11/1/3
f 11/1/3 10/7/3 12/1/3
f 13/1/4 14/1/4 15/7/4
f 15/7/4 14/1/4 16/7/4
f 17/1/5 18/1/5 19/3/5
f 19/3/5 18/1/5 20/3/5
f 21/1/6 22/1/6 23/3/6
f 23/3/6 22/1/6 24/3/6
f 25/5/4 26/6/4 27/8/4
f 27/8/4 26/6/4 28/9/4
f 29/8/3 30/9/3 31/10/3
f 31/10/3 30/9/3 32/11/3
f 33/7/1 34/7/1 35/1/1
f 35/1/1 34/7/1 36/1/1
f 37/1/2 38/1/2 39/7/2
f 39/7/2 38/1/2 40/7/2
f 41/1/5 42/1/5 43/3/5
f 43/3/5 42/1/5 44/3/5
f 45/1/6 46/1/6 47/3/6
f 47/3/6 46/1/6 48/3/6
f 49/1/7 50/1/7 51/3/8
f 51/3/8 50/1/7 52/3/8
f 53/1/9 54/1/9 55/3/10
f 55/3/10 54/1/9 56/3/10
f 57/12/11 58/1/12 59/12/11
f 59/12/11 58/1/12 60/1/12
f 61/12/13 62/1/14 63/12/13
f 63/12/13 62/1/14 64/1/14
f 65/13/5 66/14/5 67/15/5
f 67/15/5 66/14/5 68/16/5
f 69/10/6 70/13/6 71/17/6
f 71/17/6 70/13/6 72/15/6
f 73/1/1 74/1/1 75/3/1
f 75/3/1 74/1/1 76/3/1
f 77/1/2 78/1/2 79/3/2
f 79/3/2 78/1/2 80/3/2
f 81/12/3 82/1/3 83/12/3
f 83/12/3 82/1/3 84/1/3
f 85/12/4 86/1/4 87/12/4
f 87/12/4 86/1/4 88/1/4
f 89/18/5 90/19/5 91/20/5
f 91/20/5 90/19/5 92/21/5
f 93/14/6 94/18/6 95/16/6
f 95/16/6 94/18/6 96/20/6
