# Blender 5.0.0
# www.blender.org
mtllib lev.pasgt_m88.mtl
o headModel
v 5.117635 -9.235294 -5.117635
v 5.117635 -9.235294 5.117647
v 5.117635 1.000000 -5.117635
v 5.117635 1.000000 5.117647
v -5.117647 -9.235294 5.117647
v -5.117647 -9.235294 -5.117635
v -5.117647 1.000000 5.117647
v -5.117647 1.000000 -5.117635
v -5.117647 -9.235294 5.117647
v 5.117635 -9.235294 5.117647
v -5.117647 -9.235294 -5.117635
v 5.117635 -9.235294 -5.117635
v -5.117647 1.000000 -5.117635
v 5.117635 1.000000 -5.117635
v -5.117647 1.000000 5.117647
v 5.117635 1.000000 5.117647
v -5.117647 -9.235294 -5.117635
v 5.117635 -9.235294 -5.117635
v -5.117647 1.000000 -5.117635
v 5.117635 1.000000 -5.117635
v 5.117635 -9.235294 5.117647
v -5.117647 -9.235294 5.117647
v 5.117635 1.000000 5.117647
v -5.117647 1.000000 5.117647
v -4.694118 0.576471 4.694118
v -4.694118 0.576471 -4.694118
v -4.694118 -8.811765 4.694118
v -4.694118 -8.811765 -4.694118
v 4.694118 0.576471 -4.694118
v 4.694118 0.576471 4.694118
v 4.694118 -8.811765 -4.694118
v 4.694118 -8.811765 4.694118
v 4.694118 0.576471 -4.694118
v -4.694118 0.576471 -4.694118
v 4.694118 0.576471 4.694118
v -4.694118 0.576471 4.694118
v 4.694118 -8.811765 4.694118
v -4.694118 -8.811765 4.694118
v 4.694118 -8.811765 -4.694118
v -4.694118 -8.811765 -4.694118
v 4.694118 0.576471 4.694118
v -4.694118 0.576471 4.694118
v 4.694118 -8.811765 4.694118
v -4.694118 -8.811765 4.694118
v -4.694118 0.576471 -4.694118
v 4.694118 0.576471 -4.694118
v -4.694118 -8.811765 -4.694118
v 4.694118 -8.811765 -4.694118
v 4.705871 -8.823529 -4.705871
v 4.705871 -8.823529 4.705883
v 4.705871 0.588235 -4.705871
v 4.705871 0.588235 4.705883
v -4.705883 -8.823529 4.705883
v -4.705883 -8.823529 -4.705871
v -4.705883 0.588235 4.705883
v -4.705883 0.588235 -4.705871
v -4.705883 -8.823529 4.705883
v 4.705871 -8.823529 4.705883
v -4.705883 -8.823529 -4.705871
v 4.705871 -8.823529 -4.705871
v -4.705883 0.588235 -4.705871
v 4.705871 0.588235 -4.705871
v -4.705883 0.588235 4.705883
v 4.705871 0.588235 4.705883
v -4.705883 -8.823529 -4.705871
v 4.705871 -8.823529 -4.705871
v -4.705883 0.588235 -4.705871
v 4.705871 0.588235 -4.705871
v 4.705871 -8.823529 4.705883
v -4.705883 -8.823529 4.705883
v 4.705871 0.588235 4.705883
v -4.705883 0.588235 4.705883
v 4.941164 -9.058824 -4.941164
v 4.941164 -9.058824 4.941176
v 4.941164 0.823529 -4.941164
v 4.941164 0.823529 4.941176
v -4.941176 -9.058824 4.941176
v -4.941176 -9.058824 -4.941164
v -4.941176 0.823529 4.941176
v -4.941176 0.823529 -4.941164
v -4.941176 -9.058824 4.941176
v 4.941164 -9.058824 4.941176
v -4.941176 -9.058824 -4.941164
v 4.941164 -9.058824 -4.941164
v -4.941176 0.823529 -4.941164
v 4.941164 0.823529 -4.941164
v -4.941176 0.823529 4.941176
v 4.941164 0.823529 4.941176
v -4.941176 -9.058824 -4.941164
v 4.941164 -9.058824 -4.941164
v -4.941176 0.823529 -4.941164
v 4.941164 0.823529 -4.941164
v 4.941164 -9.058824 4.941176
v -4.941176 -9.058824 4.941176
v 4.941164 0.823529 4.941176
v -4.941176 0.823529 4.941176
v -4.929412 0.813882 4.931541
v -4.929412 0.813882 -4.929412
v -4.929412 -9.047059 4.931541
v -4.929412 -9.047059 -4.929412
v 4.931541 0.813882 -4.929412
v 4.931541 0.813882 4.931541
v 4.931541 -9.047059 -4.929412
v 4.931541 -9.047059 4.931541
v 4.931541 0.813882 -4.929412
v -4.929412 0.813882 -4.929412
v 4.931541 0.813882 4.931541
v -4.929412 0.813882 4.931541
v 4.931541 -9.047059 4.931541
v -4.929412 -9.047059 4.931541
v 4.931541 -9.047059 -4.929412
v -4.929412 -9.047059 -4.929412
v 4.931541 0.813882 4.931541
v -4.929412 0.813882 4.931541
v 4.931541 -9.047059 4.931541
v -4.929412 -9.047059 4.931541
v -4.929412 0.813882 -4.929412
v 4.931541 0.813882 -4.929412
v -4.929412 -9.047059 -4.929412
v 4.931541 -9.047059 -4.929412
v -4.578600 0.460941 4.578600
v -4.578600 0.460941 -4.576471
v -4.578600 -8.694118 4.578600
v -4.578600 -8.694118 -4.576471
v 4.576471 0.460941 -4.576471
v 4.576471 0.460941 4.578600
v 4.576471 -8.694118 -4.576471
v 4.576471 -8.694118 4.578600
v 4.576471 0.460941 -4.576471
v -4.578600 0.460941 -4.576471
v 4.576471 0.460941 4.578600
v -4.578600 0.460941 4.578600
v 4.576471 -8.694118 4.578600
v -4.578600 -8.694118 4.578600
v 4.576471 -8.694118 -4.576471
v -4.578600 -8.694118 -4.576471
v 4.576471 0.460941 4.578600
v -4.578600 0.460941 4.578600
v 4.576471 -8.694118 4.578600
v -4.578600 -8.694118 4.578600
v -4.578600 0.460941 -4.576471
v 4.576471 0.460941 -4.576471
v -4.578600 -8.694118 -4.576471
v 4.576471 -8.694118 -4.576471
v 4.588223 -8.705882 -4.588223
v 4.588223 -8.705882 4.588235
v 4.588223 0.470588 -4.588223
v 4.588223 0.470588 4.588235
v -4.588235 -8.705882 4.588235
v -4.588235 -8.705882 -4.588223
v -4.588235 0.470588 4.588235
v -4.588235 0.470588 -4.588223
v -4.588235 -8.705882 4.588235
v 4.588223 -8.705882 4.588235
v -4.588235 -8.705882 -4.588223
v 4.588223 -8.705882 -4.588223
v -4.588235 0.470588 -4.588223
v 4.588223 0.470588 -4.588223
v -4.588235 0.470588 4.588235
v 4.588223 0.470588 4.588235
v -4.588235 -8.705882 -4.588223
v 4.588223 -8.705882 -4.588223
v -4.588235 0.470588 -4.588223
v 4.588223 0.470588 -4.588223
v 4.588223 -8.705882 4.588235
v -4.588235 -8.705882 4.588235
v 4.588223 0.470588 4.588235
v -4.588235 0.470588 4.588235
v -5.105883 0.990353 5.108012
v -5.105883 0.990353 -5.105883
v -5.105883 -9.223530 5.108012
v -5.105883 -9.223530 -5.105883
v 5.108012 0.990353 -5.105883
v 5.108012 0.990353 5.108012
v 5.108012 -9.223530 -5.105883
v 5.108012 -9.223530 5.108012
v 5.108012 0.990353 -5.105883
v -5.105883 0.990353 -5.105883
v 5.108012 0.990353 5.108012
v -5.105883 0.990353 5.108012
v 5.108012 -9.223530 5.108012
v -5.105883 -9.223530 5.108012
v 5.108012 -9.223530 -5.105883
v -5.105883 -9.223530 -5.105883
v 5.108012 0.990353 5.108012
v -5.105883 0.990353 5.108012
v 5.108012 -9.223530 5.108012
v -5.105883 -9.223530 5.108012
v -5.105883 0.990353 -5.105883
v 5.108012 0.990353 -5.105883
v -5.105883 -9.223530 -5.105883
v 5.108012 -9.223530 -5.105883
vn 1.0000 -0.0000 -0.0000
vn -1.0000 -0.0000 -0.0000
vn -0.0000 -1.0000 -0.0000
vn -0.0000 1.0000 -0.0000
vn -0.0000 -0.0000 -1.0000
vn -0.0000 -0.0000 1.0000
vt 0.000000 0.125000
vt 0.000000 0.000000
vt 0.125000 0.125000
vt 0.125000 0.000000
vt 0.250000 0.125000
vt 0.250000 0.000000
vt 0.125000 0.250000
vt 0.125000 0.375000
vt 0.000000 0.250000
vt 0.000000 0.375000
vt 0.625000 1.000000
vt 0.625000 0.875000
vt 0.500000 1.000000
vt 0.500000 0.875000
vt 0.234375 0.125000
vt 0.234375 0.000000
vt 0.359375 0.125000
vt 0.359375 0.000000
vt 0.875000 1.000000
vt 0.875000 0.875000
vt 1.000000 1.000000
vt 1.000000 0.875000
vt 0.000000 0.875000
vt 0.000000 0.750000
vt 0.125000 0.875000
vt 0.125000 0.750000
vt 0.250000 0.875000
vt 0.250000 0.750000
vt 0.125000 0.625000
vt 0.000000 0.625000
vt 0.375000 1.000000
vt 0.375000 0.875000
vt 0.250000 1.000000
vt 0.125000 1.000000
vt 0.000000 1.000000
vt 0.375000 0.750000
vt 0.000000 0.500000
vt 0.125000 0.500000
vt 0.250000 0.625000
vt 0.250000 0.500000
vt 0.375000 0.625000
vt 0.375000 0.500000
vt 0.500000 0.625000
vt 0.500000 0.500000
vt 0.500000 0.750000
vt 0.625000 0.750000
vt 0.625000 0.625000
vt 0.500000 0.375000
vt 0.375000 0.375000
vt 0.625000 0.500000
vt 0.250000 0.375000
vt 0.000000 0.234375
vt 0.000000 0.359375
vt 0.125000 0.234375
vt 0.125000 0.359375
s 0
usemtl Material_0.003
f 1/1/1 3/2/1 2/3/1
f 3/2/1 4/4/1 2/3/1
f 5/3/2 7/4/2 6/5/2
f 7/4/2 8/6/2 6/5/2
f 9/7/3 11/8/3 10/9/3
f 11/8/3 12/10/3 10/9/3
f 13/11/4 15/12/4 14/13/4
f 15/12/4 16/14/4 14/13/4
f 17/15/5 19/16/5 18/17/5
f 19/16/5 20/18/5 18/17/5
f 21/19/6 23/20/6 22/21/6
f 23/20/6 24/22/6 22/21/6
f 25/23/1 27/24/1 26/25/1
f 27/24/1 28/26/1 26/25/1
f 29/25/2 31/26/2 30/27/2
f 31/26/2 32/28/2 30/27/2
f 33/29/3 35/26/3 34/30/3
f 35/26/3 36/24/3 34/30/3
f 37/31/4 39/32/4 38/33/4
f 39/32/4 40/27/4 38/33/4
f 41/34/5 43/25/5 42/33/5
f 43/25/5 44/27/5 42/33/5
f 45/35/6 47/23/6 46/34/6
f 47/23/6 48/25/6 46/34/6
f 49/27/1 51/28/1 50/32/1
f 51/28/1 52/36/1 50/32/1
f 53/30/2 55/37/2 54/29/2
f 55/37/2 56/38/2 54/29/2
f 57/14/3 59/13/3 58/32/3
f 59/13/3 60/31/3 58/32/3
f 61/39/4 63/40/4 62/29/4
f 63/40/4 64/38/4 62/29/4
f 65/28/5 67/39/5 66/36/5
f 67/39/5 68/41/5 66/36/5
f 69/26/6 71/29/6 70/28/6
f 71/29/6 72/39/6 70/28/6
f 73/39/1 75/40/1 74/41/1
f 75/40/1 76/42/1 74/41/1
f 77/41/2 79/42/2 78/43/2
f 79/42/2 80/44/2 78/43/2
f 81/8/3 83/38/3 82/10/3
f 83/38/3 84/37/3 82/10/3
f 85/11/4 87/12/4 86/13/4
f 87/12/4 88/14/4 86/13/4
f 89/36/5 91/41/5 90/45/5
f 91/41/5 92/43/5 90/45/5
f 93/32/6 95/36/6 94/14/6
f 95/36/6 96/45/6 94/14/6
f 97/42/1 99/41/1 98/44/1
f 99/41/1 100/43/1 98/44/1
f 101/40/2 103/39/2 102/42/2
f 103/39/2 104/41/2 102/42/2
f 105/11/3 107/12/3 106/13/3
f 107/12/3 108/14/3 106/13/3
f 109/10/4 111/37/4 110/8/4
f 111/37/4 112/38/4 110/8/4
f 113/36/5 115/32/5 114/45/5
f 115/32/5 116/14/5 114/45/5
f 117/41/6 119/36/6 118/43/6
f 119/36/6 120/45/6 118/43/6
f 121/14/1 123/45/1 122/12/1
f 123/45/1 124/46/1 122/12/1
f 125/45/2 127/43/2 126/46/2
f 127/43/2 128/47/2 126/46/2
f 129/48/3 131/44/3 130/49/3
f 131/44/3 132/42/3 130/49/3
f 133/47/4 135/50/4 134/43/4
f 135/50/4 136/44/4 134/43/4
f 137/40/5 139/51/5 138/42/5
f 139/51/5 140/49/5 138/42/5
f 141/38/6 143/8/6 142/40/6
f 143/8/6 144/51/6 142/40/6
f 145/43/1 147/45/1 146/47/1
f 147/45/1 148/46/1 146/47/1
f 149/45/2 151/14/2 150/46/2
f 151/14/2 152/12/2 150/46/2
f 153/43/3 155/44/3 154/47/3
f 155/44/3 156/50/3 154/47/3
f 157/49/4 159/42/4 158/48/4
f 159/42/4 160/44/4 158/48/4
f 161/8/5 163/38/5 162/51/5
f 163/38/5 164/40/5 162/51/5
f 165/51/6 167/40/6 166/49/6
f 167/40/6 168/42/6 166/49/6
f 169/4/1 171/3/1 170/6/1
f 171/3/1 172/5/1 170/6/1
f 173/2/2 175/1/2 174/4/2
f 175/1/2 176/3/2 174/4/2
f 177/11/3 179/12/3 178/13/3
f 179/12/3 180/14/3 178/13/3
f 181/52/4 183/53/4 182/54/4
f 183/53/4 184/55/4 182/54/4
f 185/20/5 187/19/5 186/22/5
f 187/19/5 188/21/5 186/22/5
f 189/16/6 191/15/6 190/18/6
f 191/15/6 192/17/6 190/18/6
