# Blender 5.0.0
# www.blender.org
mtllib lev.ryst_2.mtl
o headModel
v 4.666656 -8.555555 -4.666656
v 4.666656 -8.555555 4.666667
v 4.666656 0.777778 -4.666656
v 4.666656 0.777778 4.666667
v -4.666667 -8.555555 4.666667
v -4.666667 -8.555555 -4.666656
v -4.666667 0.777778 4.666667
v -4.666667 0.777778 -4.666656
v -4.666667 -8.555555 4.666667
v 4.666656 -8.555555 4.666667
v -4.666667 -8.555555 -4.666656
v 4.666656 -8.555555 -4.666656
v -4.666667 0.777778 -4.666656
v 4.666656 0.777778 -4.666656
v -4.666667 0.777778 4.666667
v 4.666656 0.777778 4.666667
v -4.666667 -8.555555 -4.666656
v 4.666656 -8.555555 -4.666656
v -4.666667 0.777778 -4.666656
v 4.666656 0.777778 -4.666656
v 4.666656 -8.555555 4.666667
v -4.666667 -8.555555 4.666667
v 4.666656 0.777778 4.666667
v -4.666667 0.777778 4.666667
v -4.433333 0.544444 4.433333
v -4.433333 0.544444 -4.433333
v -4.433333 -8.322222 4.433333
v -4.433333 -8.322222 -4.433333
v 4.433333 0.544444 -4.433333
v 4.433333 0.544444 4.433333
v 4.433333 -8.322222 -4.433333
v 4.433333 -8.322222 4.433333
v 4.433333 0.544444 -4.433333
v -4.433333 0.544444 -4.433333
v 4.433333 0.544444 4.433333
v -4.433333 0.544444 4.433333
v 4.433333 -8.322222 4.433333
v -4.433333 -8.322222 4.433333
v 4.433333 -8.322222 -4.433333
v -4.433333 -8.322222 -4.433333
v 4.433333 0.544444 4.433333
v -4.433333 0.544444 4.433333
v 4.433333 -8.322222 4.433333
v -4.433333 -8.322222 4.433333
v -4.433333 0.544444 -4.433333
v 4.433333 0.544444 -4.433333
v -4.433333 -8.322222 -4.433333
v 4.433333 -8.322222 -4.433333
v 4.444433 -8.333333 -4.444433
v 4.444433 -8.333333 4.444445
v 4.444433 0.555556 -4.444433
v 4.444433 0.555556 4.444445
v -4.444445 -8.333333 4.444445
v -4.444445 -8.333333 -4.444433
v -4.444445 0.555556 4.444445
v -4.444445 0.555556 -4.444433
v -4.444445 -8.333333 4.444445
v 4.444433 -8.333333 4.444445
v -4.444445 -8.333333 -4.444433
v 4.444433 -8.333333 -4.444433
v -4.444445 0.555556 -4.444433
v 4.444433 0.555556 -4.444433
v -4.444445 0.555556 4.444445
v 4.444433 0.555556 4.444445
v -4.444445 -8.333333 -4.444433
v 4.444433 -8.333333 -4.444433
v -4.444445 0.555556 -4.444433
v 4.444433 0.555556 -4.444433
v 4.444433 -8.333333 4.444445
v -4.444445 -8.333333 4.444445
v 4.444433 0.555556 4.444445
v -4.444445 0.555556 4.444445
v -4.655556 0.768667 4.657567
v -4.655556 0.768667 -4.655556
v -4.655556 -8.544444 4.657567
v -4.655556 -8.544444 -4.655556
v 4.657567 0.768667 -4.655556
v 4.657567 0.768667 4.657567
v 4.657567 -8.544444 -4.655556
v 4.657567 -8.544444 4.657567
v 4.657567 0.768667 -4.655556
v -4.655556 0.768667 -4.655556
v 4.657567 0.768667 4.657567
v -4.655556 0.768667 4.657567
v 4.657567 -8.544444 4.657567
v -4.655556 -8.544444 4.657567
v 4.657567 -8.544444 -4.655556
v -4.655556 -8.544444 -4.655556
v 4.657567 0.768667 4.657567
v -4.655556 0.768667 4.657567
v 4.657567 -8.544444 4.657567
v -4.655556 -8.544444 4.657567
v -4.655556 0.768667 -4.655556
v 4.657567 0.768667 -4.655556
v -4.655556 -8.544444 -4.655556
v 4.657567 -8.544444 -4.655556
v -4.324233 0.435333 4.324233
v -4.324233 0.435333 -4.322222
v -4.324233 -8.211111 4.324233
v -4.324233 -8.211111 -4.322222
v 4.322222 0.435333 -4.322222
v 4.322222 0.435333 4.324233
v 4.322222 -8.211111 -4.322222
v 4.322222 -8.211111 4.324233
v 4.322222 0.435333 -4.322222
v -4.324233 0.435333 -4.322222
v 4.322222 0.435333 4.324233
v -4.324233 0.435333 4.324233
v 4.322222 -8.211111 4.324233
v -4.324233 -8.211111 4.324233
v 4.322222 -8.211111 -4.322222
v -4.324233 -8.211111 -4.322222
v 4.322222 0.435333 4.324233
v -4.324233 0.435333 4.324233
v 4.322222 -8.211111 4.324233
v -4.324233 -8.211111 4.324233
v -4.324233 0.435333 -4.322222
v 4.322222 0.435333 -4.322222
v -4.324233 -8.211111 -4.322222
v 4.322222 -8.211111 -4.322222
v 4.333323 -8.222222 -4.333323
v 4.333323 -8.222222 4.333333
v 4.333323 0.444444 -4.333323
v 4.333323 0.444444 4.333333
v -4.333333 -8.222222 4.333333
v -4.333333 -8.222222 -4.333323
v -4.333333 0.444444 4.333333
v -4.333333 0.444444 -4.333323
v -4.333333 -8.222222 4.333333
v 4.333323 -8.222222 4.333333
v -4.333333 -8.222222 -4.333323
v 4.333323 -8.222222 -4.333323
v -4.333333 0.444444 -4.333323
v 4.333323 0.444444 -4.333323
v -4.333333 0.444444 4.333333
v 4.333323 0.444444 4.333333
v -4.333333 -8.222222 -4.333323
v 4.333323 -8.222222 -4.333323
v -4.333333 0.444444 -4.333323
v 4.333323 0.444444 -4.333323
v 4.333323 -8.222222 4.333333
v -4.333333 -8.222222 4.333333
v 4.333323 0.444444 4.333333
v -4.333333 0.444444 4.333333
v 5.555555 -3.888889 -3.167778
v 5.555555 -3.888889 -3.166667
v 5.555555 -2.777778 -3.167778
v 5.555555 -2.777778 -3.166667
v 4.444445 -3.888889 -3.166667
v 4.444445 -3.888889 -3.167778
v 4.444445 -2.777778 -3.166667
v 4.444445 -2.777778 -3.167778
v 4.444445 -3.888889 -3.166667
v 5.555555 -3.888889 -3.166667
v 4.444445 -3.888889 -3.167778
v 5.555555 -3.888889 -3.167778
v 4.444445 -2.777778 -3.167778
v 5.555555 -2.777778 -3.167778
v 4.444445 -2.777778 -3.166667
v 5.555555 -2.777778 -3.166667
v 4.444445 -3.888889 -3.167778
v 5.555555 -3.888889 -3.167778
v 4.444445 -2.777778 -3.167778
v 5.555555 -2.777778 -3.167778
v 5.555555 -3.888889 -3.166667
v 4.444445 -3.888889 -3.166667
v 5.555555 -2.777778 -3.166667
v 4.444445 -2.777778 -3.166667
v 5.555555 -5.277778 -0.555555
v 5.555555 -5.277778 1.666667
v 5.555555 -3.055555 -0.555555
v 5.555555 -3.055555 1.666667
v 4.444445 -5.277778 1.666667
v 4.444445 -5.277778 -0.555555
v 4.444445 -3.055555 1.666667
v 4.444445 -3.055555 -0.555555
v 4.444445 -5.277778 1.666667
v 5.555555 -5.277778 1.666667
v 4.444445 -5.277778 -0.555555
v 5.555555 -5.277778 -0.555555
v 4.444445 -3.055555 -0.555555
v 5.555555 -3.055555 -0.555555
v 4.444445 -3.055555 1.666667
v 5.555555 -3.055555 1.666667
v 4.444445 -5.277778 -0.555555
v 5.555555 -5.277778 -0.555555
v 4.444445 -3.055555 -0.555555
v 5.555555 -3.055555 -0.555555
v 5.555555 -5.277778 1.666667
v 4.444445 -5.277778 1.666667
v 5.555555 -3.055555 1.666667
v 4.444445 -3.055555 1.666667
v 1.111111 -6.388889 4.444444
v 1.111111 -6.388889 5.555555
v 1.111111 -4.166667 4.444444
v 1.111111 -4.166667 5.555555
v -1.111111 -6.388889 5.555555
v -1.111111 -6.388889 4.444444
v -1.111111 -4.166667 5.555555
v -1.111111 -4.166667 4.444444
v -1.111111 -6.388889 5.555555
v 1.111111 -6.388889 5.555555
v -1.111111 -6.388889 4.444444
v 1.111111 -6.388889 4.444444
v -1.111111 -4.166667 4.444444
v 1.111111 -4.166667 4.444444
v -1.111111 -4.166667 5.555555
v 1.111111 -4.166667 5.555555
v -1.111111 -6.388889 4.444444
v 1.111111 -6.388889 4.444444
v -1.111111 -4.166667 4.444444
v 1.111111 -4.166667 4.444444
v 1.111111 -6.388889 5.555555
v -1.111111 -6.388889 5.555555
v 1.111111 -4.166667 5.555555
v -1.111111 -4.166667 5.555555
v -4.444445 -3.888889 -3.167778
v -4.444445 -3.888889 -3.166667
v -4.444445 -2.777778 -3.167778
v -4.444445 -2.777778 -3.166667
v -5.555556 -3.888889 -3.166667
v -5.555556 -3.888889 -3.167778
v -5.555556 -2.777778 -3.166667
v -5.555556 -2.777778 -3.167778
v -5.555556 -3.888889 -3.166667
v -4.444445 -3.888889 -3.166667
v -5.555556 -3.888889 -3.167778
v -4.444445 -3.888889 -3.167778
v -5.555556 -2.777778 -3.167778
v -4.444445 -2.777778 -3.167778
v -5.555556 -2.777778 -3.166667
v -4.444445 -2.777778 -3.166667
v -5.555556 -3.888889 -3.167778
v -4.444445 -3.888889 -3.167778
v -5.555556 -2.777778 -3.167778
v -4.444445 -2.777778 -3.167778
v -4.444445 -3.888889 -3.166667
v -5.555556 -3.888889 -3.166667
v -4.444445 -2.777778 -3.166667
v -5.555556 -2.777778 -3.166667
v 0.555556 -9.444445 -0.556667
v 0.555556 -9.444445 -0.555555
v 0.555556 -8.333334 -0.556667
v 0.555556 -8.333334 -0.555555
v -0.555556 -9.444445 -0.555555
v -0.555556 -9.444445 -0.556667
v -0.555556 -8.333334 -0.555555
v -0.555556 -8.333334 -0.556667
v -0.555556 -9.444445 -0.555555
v 0.555556 -9.444445 -0.555555
v -0.555556 -9.444445 -0.556667
v 0.555556 -9.444445 -0.556667
v -0.555556 -8.333334 -0.556667
v 0.555556 -8.333334 -0.556667
v -0.555556 -8.333334 -0.555555
v 0.555556 -8.333334 -0.555555
v -0.555556 -9.444445 -0.556667
v 0.555556 -9.444445 -0.556667
v -0.555556 -8.333334 -0.556667
v 0.555556 -8.333334 -0.556667
v 0.555556 -9.444445 -0.555555
v -0.555556 -9.444445 -0.555555
v 0.555556 -8.333334 -0.555555
v -0.555556 -8.333334 -0.555555
vn 1.0000 -0.0000 -0.0000
vn -1.0000 -0.0000 -0.0000
vn -0.0000 -1.0000 -0.0000
vn -0.0000 1.0000 -0.0000
vn -0.0000 -0.0000 -1.0000
vn -0.0000 -0.0000 1.0000
vt 0.250000 0.625000
vt 0.250000 0.500000
vt 0.375000 0.625000
vt 0.375000 0.500000
vt 0.500000 0.625000
vt 0.500000 0.500000
vt 0.125000 0.375000
vt 0.125000 0.500000
vt 0.000000 0.375000
vt 0.000000 0.500000
vt 0.625000 1.000000
vt 0.625000 0.875000
vt 0.500000 1.000000
vt 0.500000 0.875000
vt 0.375000 0.750000
vt 0.500000 0.750000
vt 0.375000 0.875000
vt 0.000000 0.875000
vt 0.000000 0.750000
vt 0.125000 0.875000
vt 0.125000 0.750000
vt 0.250000 0.875000
vt 0.250000 0.750000
vt 0.125000 0.625000
vt 0.000000 0.625000
vt 0.375000 1.000000
vt 0.250000 1.000000
vt 0.125000 1.000000
vt 0.000000 1.000000
vt 0.625000 0.750000
vt 0.625000 0.625000
vt 0.500000 0.375000
vt 0.375000 0.375000
vt 0.625000 0.500000
vt 0.250000 0.375000
vt 0.000000 0.984375
vt 0.015625 1.000000
vt 0.281250 0.359375
vt 0.281250 0.343750
vt 0.296875 0.359375
vt 0.296875 0.343750
vt 0.640625 0.734375
vt 0.640625 0.718750
vt 0.656250 0.734375
vt 0.656250 0.718750
vt 0.406250 0.375000
vt 0.406250 0.343750
vt 0.437500 0.375000
vt 0.437500 0.343750
vt 0.625000 0.578125
vt 0.625000 0.546875
vt 0.656250 0.578125
vt 0.656250 0.546875
vt 0.265625 0.328125
vt 0.265625 0.359375
vt 0.250000 0.328125
vt 0.250000 0.359375
vt 0.281250 0.328125
vt 0.234375 0.359375
vt 0.234375 0.328125
vt 0.625000 0.531250
vt 0.640625 0.531250
vt 0.640625 0.500000
vt 0.453125 0.375000
vt 0.453125 0.343750
vt 0.468750 0.375000
vt 0.468750 0.343750
vt 0.656250 0.531250
vt 0.500000 0.359375
vt 0.468750 0.359375
vt 0.625000 0.609375
vt 0.656250 0.609375
vt 0.375000 0.343750
vt 0.312500 0.359375
vt 0.312500 0.343750
vt 0.640625 0.703125
vt 0.656250 0.703125
vt 0.328125 0.359375
vt 0.328125 0.343750
vt 0.640625 0.687500
vt 0.656250 0.687500
s 0
usemtl Material_0.014
f 1/1/1 3/2/1 2/3/1
f 3/2/1 4/4/1 2/3/1
f 5/3/2 7/4/2 6/5/2
f 7/4/2 8/6/2 6/5/2
f 9/7/3 11/8/3 10/9/3
f 11/8/3 12/10/3 10/9/3
f 13/11/4 15/12/4 14/13/4
f 15/12/4 16/14/4 14/13/4
f 17/15/5 19/3/5 18/16/5
f 19/3/5 20/5/5 18/16/5
f 21/17/6 23/15/6 22/14/6
f 23/15/6 24/16/6 22/14/6
f 25/18/1 27/19/1 26/20/1
f 27/19/1 28/21/1 26/20/1
f 29/20/2 31/21/2 30/22/2
f 31/21/2 32/23/2 30/22/2
f 33/24/3 35/21/3 34/25/3
f 35/21/3 36/19/3 34/25/3
f 37/26/4 39/17/4 38/27/4
f 39/17/4 40/22/4 38/27/4
f 41/28/5 43/20/5 42/27/5
f 43/20/5 44/22/5 42/27/5
f 45/29/6 47/18/6 46/28/6
f 47/18/6 48/20/6 46/28/6
f 49/22/1 51/23/1 50/17/1
f 51/23/1 52/15/1 50/17/1
f 53/25/2 55/10/2 54/24/2
f 55/10/2 56/8/2 54/24/2
f 57/14/3 59/13/3 58/17/3
f 59/13/3 60/26/3 58/17/3
f 61/1/4 63/2/4 62/24/4
f 63/2/4 64/8/4 62/24/4
f 65/23/5 67/1/5 66/15/5
f 67/1/5 68/3/5 66/15/5
f 69/21/6 71/24/6 70/23/6
f 71/24/6 72/1/6 70/23/6
f 73/4/1 75/3/1 74/6/1
f 75/3/1 76/5/1 74/6/1
f 77/2/2 79/1/2 78/4/2
f 79/1/2 80/3/2 78/4/2
f 81/11/3 83/12/3 82/13/3
f 83/12/3 84/14/3 82/13/3
f 85/9/4 87/10/4 86/7/4
f 87/10/4 88/8/4 86/7/4
f 89/15/5 91/17/5 90/16/5
f 91/17/5 92/14/5 90/16/5
f 93/3/6 95/15/6 94/5/6
f 95/15/6 96/16/6 94/5/6
f 97/14/1 99/16/1 98/12/1
f 99/16/1 100/30/1 98/12/1
f 101/16/2 103/5/2 102/30/2
f 103/5/2 104/31/2 102/30/2
f 105/32/3 107/6/3 106/33/3
f 107/6/3 108/4/3 106/33/3
f 109/31/4 111/34/4 110/5/4
f 111/34/4 112/6/4 110/5/4
f 113/2/5 115/35/5 114/4/5
f 115/35/5 116/33/5 114/4/5
f 117/8/6 119/7/6 118/2/6
f 119/7/6 120/35/6 118/2/6
f 121/5/1 123/16/1 122/31/1
f 123/16/1 124/30/1 122/31/1
f 125/16/2 127/14/2 126/30/2
f 127/14/2 128/12/2 126/30/2
f 129/5/3 131/6/3 130/31/3
f 131/6/3 132/34/3 130/31/3
f 133/33/4 135/4/4 134/32/4
f 135/4/4 136/6/4 134/32/4
f 137/7/5 139/8/5 138/35/5
f 139/8/5 140/2/5 138/35/5
f 141/35/6 143/2/6 142/33/6
f 143/2/6 144/4/6 142/33/6
f 145/29/1 147/36/1 146/29/1
f 147/36/1 148/36/1 146/29/1
f 149/29/2 151/36/2 150/29/2
f 151/36/2 152/36/2 150/29/2
f 153/37/3 155/37/3 154/29/3
f 155/37/3 156/29/3 154/29/3
f 157/37/4 159/37/4 158/29/4
f 159/37/4 160/29/4 158/29/4
f 161/38/5 163/39/5 162/40/5
f 163/39/5 164/41/5 162/40/5
f 165/42/6 167/43/6 166/44/6
f 167/43/6 168/45/6 166/44/6
f 169/46/1 171/47/1 170/48/1
f 171/47/1 172/49/1 170/48/1
f 173/50/2 175/51/2 174/52/2
f 175/51/2 176/53/2 174/52/2
f 177/54/3 179/55/3 178/56/3
f 179/55/3 180/57/3 178/56/3
f 181/38/4 183/58/4 182/55/4
f 183/58/4 184/54/4 182/55/4
f 185/59/5 187/60/5 186/57/5
f 187/60/5 188/56/5 186/57/5
f 189/61/6 191/34/6 190/62/6
f 191/34/6 192/63/6 190/62/6
f 193/48/1 195/49/1 194/64/1
f 195/49/1 196/65/1 194/64/1
f 197/64/2 199/65/2 198/66/2
f 199/65/2 200/67/2 198/66/2
f 201/68/3 203/53/3 202/61/3
f 203/53/3 204/51/3 202/61/3
f 205/32/4 207/69/4 206/66/4
f 207/69/4 208/70/4 206/66/4
f 209/71/5 211/50/5 210/72/5
f 211/50/5 212/52/5 210/72/5
f 213/33/6 215/73/6 214/46/6
f 215/73/6 216/47/6 214/46/6
f 217/29/1 219/36/1 218/29/1
f 219/36/1 220/36/1 218/29/1
f 221/29/2 223/36/2 222/29/2
f 223/36/2 224/36/2 222/29/2
f 225/37/3 227/37/3 226/29/3
f 227/37/3 228/29/3 226/29/3
f 229/37/4 231/37/4 230/29/4
f 231/37/4 232/29/4 230/29/4
f 233/40/5 235/41/5 234/74/5
f 235/41/5 236/75/5 234/74/5
f 237/43/6 239/76/6 238/45/6
f 239/76/6 240/77/6 238/45/6
f 241/29/1 243/36/1 242/29/1
f 243/36/1 244/36/1 242/29/1
f 245/29/2 247/36/2 246/29/2
f 247/36/2 248/36/2 246/29/2
f 249/37/3 251/37/3 250/29/3
f 251/37/3 252/29/3 250/29/3
f 253/37/4 255/37/4 254/29/4
f 255/37/4 256/29/4 254/29/4
f 257/74/5 259/75/5 258/78/5
f 259/75/5 260/79/5 258/78/5
f 261/76/6 263/80/6 262/77/6
f 263/80/6 264/81/6 262/77/6
