# Blender 5.0.1
# www.blender.org
mtllib lev.msv_2.mtl
o armorModel
v -4.827586 -1.091954 3.103448
v -4.827586 -1.091954 -3.103448
v -4.827586 13.160919 3.103448
v -4.827586 13.160919 -3.103448
v 4.827586 -1.091954 -3.103448
v 4.827586 -1.091954 3.103448
v 4.827586 13.160919 -3.103448
v 4.827586 13.160919 3.103448
v 4.827586 -1.091954 -3.103448
v -4.827586 -1.091954 -3.103448
v 4.827586 -1.091954 3.103448
v -4.827586 -1.091954 3.103448
v 4.827586 13.160919 3.103448
v -4.827586 13.160919 3.103448
v 4.827586 13.160919 -3.103448
v -4.827586 13.160919 -3.103448
v 4.827586 -1.091954 3.103448
v -4.827586 -1.091954 3.103448
v 4.827586 13.160919 3.103448
v -4.827586 13.160919 3.103448
v -4.827586 -1.091954 -3.103448
v 4.827586 -1.091954 -3.103448
v -4.827586 13.160919 -3.103448
v 4.827586 13.160919 -3.103448
v 4.826437 13.159771 -3.102299
v 4.826437 13.159771 3.102299
v 4.826437 -1.090805 -3.102299
v 4.826437 -1.090805 3.102299
v -4.826437 13.159771 3.102299
v -4.826437 13.159771 -3.102299
v -4.826437 -1.090805 3.102299
v -4.826437 -1.090805 -3.102299
v -4.826437 13.159771 3.102299
v 4.826437 13.159771 3.102299
v -4.826437 13.159771 -3.102299
v 4.826437 13.159771 -3.102299
v -4.826437 -1.090805 -3.102299
v 4.826437 -1.090805 -3.102299
v -4.826437 -1.090805 3.102299
v 4.826437 -1.090805 3.102299
v -4.826437 13.159771 -3.102299
v 4.826437 13.159771 -3.102299
v -4.826437 -1.090805 -3.102299
v 4.826437 -1.090805 -3.102299
v 4.826437 13.159771 3.102299
v -4.826437 13.159771 3.102299
v 4.826437 -1.090805 3.102299
v -4.826437 -1.090805 3.102299
v -4.597701 -0.862069 2.873563
v -4.597701 -0.862069 -2.873563
v -4.597701 12.931034 2.873563
v -4.597701 12.931034 -2.873563
v 4.597701 -0.862069 -2.873563
v 4.597701 -0.862069 2.873563
v 4.597701 12.931034 -2.873563
v 4.597701 12.931034 2.873563
v 4.597701 -0.862069 -2.873563
v -4.597701 -0.862069 -2.873563
v 4.597701 -0.862069 2.873563
v -4.597701 -0.862069 2.873563
v 4.597701 12.931034 2.873563
v -4.597701 12.931034 2.873563
v 4.597701 12.931034 -2.873563
v -4.597701 12.931034 -2.873563
v 4.597701 -0.862069 2.873563
v -4.597701 -0.862069 2.873563
v 4.597701 12.931034 2.873563
v -4.597701 12.931034 2.873563
v -4.597701 -0.862069 -2.873563
v 4.597701 -0.862069 -2.873563
v -4.597701 12.931034 -2.873563
v 4.597701 12.931034 -2.873563
v 4.586207 12.919540 -2.862069
v 4.586207 12.919540 2.862069
v 4.586207 -0.850575 -2.862069
v 4.586207 -0.850575 2.862069
v -4.586207 12.919540 2.862069
v -4.586207 12.919540 -2.862069
v -4.586207 -0.850575 2.862069
v -4.586207 -0.850575 -2.862069
v -4.586207 12.919540 2.862069
v 4.586207 12.919540 2.862069
v -4.586207 12.919540 -2.862069
v 4.586207 12.919540 -2.862069
v -4.586207 -0.850575 -2.862069
v 4.586207 -0.850575 -2.862069
v -4.586207 -0.850575 2.862069
v 4.586207 -0.850575 2.862069
v -4.586207 12.919540 -2.862069
v 4.586207 12.919540 -2.862069
v -4.586207 -0.850575 -2.862069
v 4.586207 -0.850575 -2.862069
v 4.586207 12.919540 2.862069
v -4.586207 12.919540 2.862069
v 4.586207 -0.850575 2.862069
v -4.586207 -0.850575 2.862069
vn -1.0000 -0.0000 -0.0000
vn 1.0000 -0.0000 -0.0000
vn -0.0000 -1.0000 -0.0000
vn -0.0000 1.0000 -0.0000
vn -0.0000 -0.0000 1.0000
vn -0.0000 -0.0000 -1.0000
vt 0.250000 1.000000
vt 0.250000 0.812500
vt 0.328125 1.000000
vt 0.328125 0.812500
vt 0.250000 0.625000
vt 0.328125 0.625000
vt 0.125000 0.546875
vt 0.125000 0.625000
vt 0.000000 0.546875
vt 0.000000 0.625000
vt 0.250000 0.546875
vt 0.125000 1.000000
vt 0.125000 0.812500
vt 0.000000 1.000000
vt 0.000000 0.812500
vt 0.375000 0.546875
vt 0.375000 0.625000
vt 0.406250 1.000000
vt 0.406250 0.812500
vt 0.406250 0.625000
vt 0.500000 0.546875
vt 0.500000 0.625000
vt 0.531250 1.000000
vt 0.531250 0.921875
vt 0.406250 0.921875
vt 0.531250 0.843750
vt 0.406250 0.843750
s 0
usemtl Material_0.002
f 1/1/1 3/2/1 2/3/1
f 3/2/1 4/4/1 2/3/1
f 5/2/2 7/5/2 6/4/2
f 7/5/2 8/6/2 6/4/2
f 9/7/3 11/8/3 10/9/3
f 11/8/3 12/10/3 10/9/3
f 13/5/4 15/11/4 14/8/4
f 15/11/4 16/7/4 14/8/4
f 17/12/5 19/13/5 18/1/5
f 19/13/5 20/2/5 18/1/5
f 21/14/6 23/15/6 22/12/6
f 23/15/6 24/13/6 22/12/6
f 25/2/1 27/5/1 26/4/1
f 27/5/1 28/6/1 26/4/1
f 29/2/2 31/1/2 30/4/2
f 31/1/2 32/3/2 30/4/2
f 33/16/3 35/17/3 34/11/3
f 35/17/3 36/5/3 34/11/3
f 37/7/4 39/8/4 38/9/4
f 39/8/4 40/10/4 38/9/4
f 41/15/5 43/14/5 42/13/5
f 43/14/5 44/12/5 42/13/5
f 45/13/6 47/12/6 46/2/6
f 47/12/6 48/1/6 46/2/6
f 49/3/1 51/4/1 50/18/1
f 51/4/1 52/19/1 50/18/1
f 53/4/2 55/6/2 54/19/2
f 55/6/2 56/20/2 54/19/2
f 57/16/3 59/17/3 58/21/3
f 59/17/3 60/22/3 58/21/3
f 61/23/4 63/24/4 62/18/4
f 63/24/4 64/25/4 62/18/4
f 65/13/5 67/8/5 66/2/5
f 67/8/5 68/5/5 66/2/5
f 69/15/6 71/10/6 70/13/6
f 71/10/6 72/8/6 70/13/6
f 73/6/1 75/4/1 74/20/1
f 75/4/1 76/19/1 74/20/1
f 77/4/2 79/3/2 78/19/2
f 79/3/2 80/18/2 78/19/2
f 81/26/3 83/24/3 82/27/3
f 83/24/3 84/25/3 82/27/3
f 85/21/4 87/22/4 86/16/4
f 87/22/4 88/17/4 86/16/4
f 89/10/5 91/15/5 90/8/5
f 91/15/5 92/13/5 90/8/5
f 93/8/6 95/13/6 94/5/6
f 95/13/6 96/2/6 94/5/6
