# Blender 4.5.3 LTS
# www.blender.org
mtllib lev.altyn.mtl
o headModel
v 4.666656 -8.555555 -4.666656
v 4.666656 -8.555555 4.666667
v 4.666656 0.777778 -4.666656
v 4.666656 0.777778 4.666667
v -4.666667 -8.555555 4.666667
v -4.666667 -8.555555 -4.666656
v -4.666667 0.777778 4.666667
v -4.666667 0.777778 -4.666656
v -4.666667 -8.555555 4.666667
v 4.666656 -8.555555 4.666667
v -4.666667 -8.555555 -4.666656
v 4.666656 -8.555555 -4.666656
v -4.666667 0.777778 -4.666656
v 4.666656 0.777778 -4.666656
v -4.666667 0.777778 4.666667
v 4.666656 0.777778 4.666667
v -4.666667 -8.555555 -4.666656
v 4.666656 -8.555555 -4.666656
v -4.666667 0.777778 -4.666656
v 4.666656 0.777778 -4.666656
v 4.666656 -8.555555 4.666667
v -4.666667 -8.555555 4.666667
v 4.666656 0.777778 4.666667
v -4.666667 0.777778 4.666667
v -4.433333 0.544444 4.433333
v -4.433333 0.544444 -4.433333
v -4.433333 -8.322222 4.433333
v -4.433333 -8.322222 -4.433333
v 4.433333 0.544444 -4.433333
v 4.433333 0.544444 4.433333
v 4.433333 -8.322222 -4.433333
v 4.433333 -8.322222 4.433333
v 4.433333 0.544444 -4.433333
v -4.433333 0.544444 -4.433333
v 4.433333 0.544444 4.433333
v -4.433333 0.544444 4.433333
v 4.433333 -8.322222 4.433333
v -4.433333 -8.322222 4.433333
v 4.433333 -8.322222 -4.433333
v -4.433333 -8.322222 -4.433333
v 4.433333 0.544444 4.433333
v -4.433333 0.544444 4.433333
v 4.433333 -8.322222 4.433333
v -4.433333 -8.322222 4.433333
v -4.433333 0.544444 -4.433333
v 4.433333 0.544444 -4.433333
v -4.433333 -8.322222 -4.433333
v 4.433333 -8.322222 -4.433333
v 4.444433 -8.333333 -4.444433
v 4.444433 -8.333333 4.444445
v 4.444433 0.555556 -4.444433
v 4.444433 0.555556 4.444445
v -4.444445 -8.333333 4.444445
v -4.444445 -8.333333 -4.444433
v -4.444445 0.555556 4.444445
v -4.444445 0.555556 -4.444433
v -4.444445 -8.333333 4.444445
v 4.444433 -8.333333 4.444445
v -4.444445 -8.333333 -4.444433
v 4.444433 -8.333333 -4.444433
v -4.444445 0.555556 -4.444433
v 4.444433 0.555556 -4.444433
v -4.444445 0.555556 4.444445
v 4.444433 0.555556 4.444445
v -4.444445 -8.333333 -4.444433
v 4.444433 -8.333333 -4.444433
v -4.444445 0.555556 -4.444433
v 4.444433 0.555556 -4.444433
v 4.444433 -8.333333 4.444445
v -4.444445 -8.333333 4.444445
v 4.444433 0.555556 4.444445
v -4.444445 0.555556 4.444445
v -4.655556 0.768667 4.657567
v -4.655556 0.768667 -4.655556
v -4.655556 -8.544444 4.657567
v -4.655556 -8.544444 -4.655556
v 4.657567 0.768667 -4.655556
v 4.657567 0.768667 4.657567
v 4.657567 -8.544444 -4.655556
v 4.657567 -8.544444 4.657567
v 4.657567 0.768667 -4.655556
v -4.655556 0.768667 -4.655556
v 4.657567 0.768667 4.657567
v -4.655556 0.768667 4.657567
v 4.657567 -8.544444 4.657567
v -4.655556 -8.544444 4.657567
v 4.657567 -8.544444 -4.655556
v -4.655556 -8.544444 -4.655556
v 4.657567 0.768667 4.657567
v -4.655556 0.768667 4.657567
v 4.657567 -8.544444 4.657567
v -4.655556 -8.544444 4.657567
v -4.655556 0.768667 -4.655556
v 4.657567 0.768667 -4.655556
v -4.655556 -8.544444 -4.655556
v 4.657567 -8.544444 -4.655556
v -4.324233 0.435333 4.324233
v -4.324233 0.435333 -4.322222
v -4.324233 -8.211111 4.324233
v -4.324233 -8.211111 -4.322222
v 4.322222 0.435333 -4.322222
v 4.322222 0.435333 4.324233
v 4.322222 -8.211111 -4.322222
v 4.322222 -8.211111 4.324233
v 4.322222 0.435333 -4.322222
v -4.324233 0.435333 -4.322222
v 4.322222 0.435333 4.324233
v -4.324233 0.435333 4.324233
v 4.322222 -8.211111 4.324233
v -4.324233 -8.211111 4.324233
v 4.322222 -8.211111 -4.322222
v -4.324233 -8.211111 -4.322222
v 4.322222 0.435333 4.324233
v -4.324233 0.435333 4.324233
v 4.322222 -8.211111 4.324233
v -4.324233 -8.211111 4.324233
v -4.324233 0.435333 -4.322222
v 4.322222 0.435333 -4.322222
v -4.324233 -8.211111 -4.322222
v 4.322222 -8.211111 -4.322222
v 4.333323 -8.222222 -4.333323
v 4.333323 -8.222222 4.333333
v 4.333323 0.444444 -4.333323
v 4.333323 0.444444 4.333333
v -4.333333 -8.222222 4.333333
v -4.333333 -8.222222 -4.333323
v -4.333333 0.444444 4.333333
v -4.333333 0.444444 -4.333323
v -4.333333 -8.222222 4.333333
v 4.333323 -8.222222 4.333333
v -4.333333 -8.222222 -4.333323
v 4.333323 -8.222222 -4.333323
v -4.333333 0.444444 -4.333323
v 4.333323 0.444444 -4.333323
v -4.333333 0.444444 4.333333
v 4.333323 0.444444 4.333333
v -4.333333 -8.222222 -4.333323
v 4.333323 -8.222222 -4.333323
v -4.333333 0.444444 -4.333323
v 4.333323 0.444444 -4.333323
v 4.333323 -8.222222 4.333333
v -4.333333 -8.222222 4.333333
v 4.333323 0.444444 4.333333
v -4.333333 0.444444 4.333333
v 4.862222 -6.252797 -4.800926
v 4.862222 -6.252652 -4.799825
v 4.862222 0.081435 -5.634843
v 4.862222 0.081580 -5.633742
v -4.860000 -6.252652 -4.799825
v -4.860000 -6.252797 -4.800926
v -4.860000 0.081580 -5.633742
v -4.860000 0.081435 -5.634843
v -4.860000 -6.252652 -4.799825
v 4.862222 -6.252652 -4.799825
v -4.860000 -6.252797 -4.800926
v 4.862222 -6.252797 -4.800926
v -4.860000 0.081435 -5.634843
v 4.862222 0.081435 -5.634843
v -4.860000 0.081580 -5.633742
v 4.862222 0.081580 -5.633742
v -4.860000 -6.252797 -4.800926
v 4.862222 -6.252797 -4.800926
v -4.860000 0.081435 -5.634843
v 4.862222 0.081435 -5.634843
v 4.862222 -6.252652 -4.799825
v -4.860000 -6.252652 -4.799825
v 4.862222 0.081580 -5.633742
v -4.860000 0.081580 -5.633742
v 4.862222 -6.252797 -4.800926
v 4.862222 -5.853967 -1.771511
v 4.862222 0.081435 -5.634843
v 4.862222 0.480265 -2.605428
v 4.861111 -5.853967 -1.771511
v 4.861111 -6.252797 -4.800926
v 4.861111 0.480265 -2.605428
v 4.861111 0.081435 -5.634843
v 4.861111 -5.853967 -1.771511
v 4.862222 -5.853967 -1.771511
v 4.861111 -6.252797 -4.800926
v 4.862222 -6.252797 -4.800926
v 4.861111 0.081435 -5.634843
v 4.862222 0.081435 -5.634843
v 4.861111 0.480265 -2.605428
v 4.862222 0.480265 -2.605428
v 4.861111 -6.252797 -4.800926
v 4.862222 -6.252797 -4.800926
v 4.861111 0.081435 -5.634843
v 4.862222 0.081435 -5.634843
v 4.862222 -5.853967 -1.771511
v 4.861111 -5.853967 -1.771511
v 4.862222 0.480265 -2.605428
v 4.861111 0.480265 -2.605428
v -4.860000 -6.252797 -4.800926
v -4.860000 -5.853967 -1.771511
v -4.860000 0.081435 -5.634843
v -4.860000 0.480265 -2.605428
v -4.861111 -5.853967 -1.771511
v -4.861111 -6.252797 -4.800926
v -4.861111 0.480265 -2.605428
v -4.861111 0.081435 -5.634843
v -4.861111 -5.853967 -1.771511
v -4.860000 -5.853967 -1.771511
v -4.861111 -6.252797 -4.800926
v -4.860000 -6.252797 -4.800926
v -4.861111 0.081435 -5.634843
v -4.860000 0.081435 -5.634843
v -4.861111 0.480265 -2.605428
v -4.860000 0.480265 -2.605428
v -4.861111 -6.252797 -4.800926
v -4.860000 -6.252797 -4.800926
v -4.861111 0.081435 -5.634843
v -4.860000 0.081435 -5.634843
v -4.860000 -5.853967 -1.771511
v -4.861111 -5.853967 -1.771511
v -4.860000 0.480265 -2.605428
v -4.861111 0.480265 -2.605428
v 4.305555 -5.810766 -5.699645
v 4.305555 -5.701994 -4.873441
v 4.305555 -1.679745 -6.243504
v 4.305555 -1.570973 -5.417300
v -4.305556 -5.701994 -4.873441
v -4.305556 -5.810766 -5.699645
v -4.305556 -1.570973 -5.417300
v -4.305556 -1.679745 -6.243504
v -4.305556 -5.701994 -4.873441
v 4.305555 -5.701994 -4.873441
v -4.305556 -5.810766 -5.699645
v 4.305555 -5.810766 -5.699645
v -4.305556 -1.679745 -6.243504
v 4.305555 -1.679745 -6.243504
v -4.305556 -1.570973 -5.417300
v 4.305555 -1.570973 -5.417300
v -4.305556 -5.810766 -5.699645
v 4.305555 -5.810766 -5.699645
v -4.305556 -1.679745 -6.243504
v 4.305555 -1.679745 -6.243504
v 4.305555 -5.701994 -4.873441
v -4.305556 -5.701994 -4.873441
v 4.305555 -1.570973 -5.417300
v -4.305556 -1.570973 -5.417300
v 5.555555 -3.888889 -3.167778
v 5.555555 -3.888889 -3.166667
v 5.555555 -2.777778 -3.167778
v 5.555555 -2.777778 -3.166667
v 4.444445 -3.888889 -3.166667
v 4.444445 -3.888889 -3.167778
v 4.444445 -2.777778 -3.166667
v 4.444445 -2.777778 -3.167778
v 4.444445 -3.888889 -3.166667
v 5.555555 -3.888889 -3.166667
v 4.444445 -3.888889 -3.167778
v 5.555555 -3.888889 -3.167778
v 4.444445 -2.777778 -3.167778
v 5.555555 -2.777778 -3.167778
v 4.444445 -2.777778 -3.166667
v 5.555555 -2.777778 -3.166667
v 4.444445 -3.888889 -3.167778
v 5.555555 -3.888889 -3.167778
v 4.444445 -2.777778 -3.167778
v 5.555555 -2.777778 -3.167778
v 5.555555 -3.888889 -3.166667
v 4.444445 -3.888889 -3.166667
v 5.555555 -2.777778 -3.166667
v 4.444445 -2.777778 -3.166667
v 5.555555 -5.277778 -0.555555
v 5.555555 -5.277778 1.666667
v 5.555555 -3.055555 -0.555555
v 5.555555 -3.055555 1.666667
v 4.444445 -5.277778 1.666667
v 4.444445 -5.277778 -0.555555
v 4.444445 -3.055555 1.666667
v 4.444445 -3.055555 -0.555555
v 4.444445 -5.277778 1.666667
v 5.555555 -5.277778 1.666667
v 4.444445 -5.277778 -0.555555
v 5.555555 -5.277778 -0.555555
v 4.444445 -3.055555 -0.555555
v 5.555555 -3.055555 -0.555555
v 4.444445 -3.055555 1.666667
v 5.555555 -3.055555 1.666667
v 4.444445 -5.277778 -0.555555
v 5.555555 -5.277778 -0.555555
v 4.444445 -3.055555 -0.555555
v 5.555555 -3.055555 -0.555555
v 5.555555 -5.277778 1.666667
v 4.444445 -5.277778 1.666667
v 5.555555 -3.055555 1.666667
v 4.444445 -3.055555 1.666667
v 1.111111 -5.277778 4.444444
v 1.111111 -5.277778 5.555555
v 1.111111 -3.055555 4.444444
v 1.111111 -3.055555 5.555555
v -1.111111 -5.277778 5.555555
v -1.111111 -5.277778 4.444444
v -1.111111 -3.055555 5.555555
v -1.111111 -3.055555 4.444444
v -1.111111 -5.277778 5.555555
v 1.111111 -5.277778 5.555555
v -1.111111 -5.277778 4.444444
v 1.111111 -5.277778 4.444444
v -1.111111 -3.055555 4.444444
v 1.111111 -3.055555 4.444444
v -1.111111 -3.055555 5.555555
v 1.111111 -3.055555 5.555555
v -1.111111 -5.277778 4.444444
v 1.111111 -5.277778 4.444444
v -1.111111 -3.055555 4.444444
v 1.111111 -3.055555 4.444444
v 1.111111 -5.277778 5.555555
v -1.111111 -5.277778 5.555555
v 1.111111 -3.055555 5.555555
v -1.111111 -3.055555 5.555555
v -4.444445 -3.888889 -3.167778
v -4.444445 -3.888889 -3.166667
v -4.444445 -2.777778 -3.167778
v -4.444445 -2.777778 -3.166667
v -5.555556 -3.888889 -3.166667
v -5.555556 -3.888889 -3.167778
v -5.555556 -2.777778 -3.166667
v -5.555556 -2.777778 -3.167778
v -5.555556 -3.888889 -3.166667
v -4.444445 -3.888889 -3.166667
v -5.555556 -3.888889 -3.167778
v -4.444445 -3.888889 -3.167778
v -5.555556 -2.777778 -3.167778
v -4.444445 -2.777778 -3.167778
v -5.555556 -2.777778 -3.166667
v -4.444445 -2.777778 -3.166667
v -5.555556 -3.888889 -3.167778
v -4.444445 -3.888889 -3.167778
v -5.555556 -2.777778 -3.167778
v -4.444445 -2.777778 -3.167778
v -4.444445 -3.888889 -3.166667
v -5.555556 -3.888889 -3.166667
v -4.444445 -2.777778 -3.166667
v -5.555556 -2.777778 -3.166667
v 0.555556 -9.444445 -0.556667
v 0.555556 -9.444445 -0.555555
v 0.555556 -8.333334 -0.556667
v 0.555556 -8.333334 -0.555555
v -0.555556 -9.444445 -0.555555
v -0.555556 -9.444445 -0.556667
v -0.555556 -8.333334 -0.555555
v -0.555556 -8.333334 -0.556667
v -0.555556 -9.444445 -0.555555
v 0.555556 -9.444445 -0.555555
v -0.555556 -9.444445 -0.556667
v 0.555556 -9.444445 -0.556667
v -0.555556 -8.333334 -0.556667
v 0.555556 -8.333334 -0.556667
v -0.555556 -8.333334 -0.555555
v 0.555556 -8.333334 -0.555555
v -0.555556 -9.444445 -0.556667
v 0.555556 -9.444445 -0.556667
v -0.555556 -8.333334 -0.556667
v 0.555556 -8.333334 -0.556667
v 0.555556 -9.444445 -0.555555
v -0.555556 -9.444445 -0.555555
v 0.555556 -8.333334 -0.555555
v -0.555556 -8.333334 -0.555555
vn 1.0000 -0.0000 -0.0000
vn -1.0000 -0.0000 -0.0000
vn -0.0000 -1.0000 -0.0000
vn -0.0000 1.0000 -0.0000
vn -0.0000 -0.0000 -1.0000
vn -0.0000 -0.0000 1.0000
vn -1.0000 -0.0000 0.0005
vn -1.0000 -0.0000 -0.0005
vn -0.0000 -0.9915 0.1304
vn -0.0000 -0.9914 0.1305
vn -0.0000 0.9915 -0.1304
vn -0.0000 0.9914 -0.1305
vn -0.0000 -0.1305 -0.9914
vn -0.0000 0.1305 0.9914
vn -0.0000 -0.9914 0.1306
vn -0.0000 0.9914 -0.1306
vt 0.250000 0.625000
vt 0.250000 0.500000
vt 0.375000 0.625000
vt 0.375000 0.500000
vt 0.500000 0.625000
vt 0.500000 0.500000
vt 0.125000 0.375000
vt 0.125000 0.500000
vt 0.000000 0.375000
vt 0.000000 0.500000
vt 0.625000 1.000000
vt 0.625000 0.875000
vt 0.500000 1.000000
vt 0.500000 0.875000
vt 0.375000 0.750000
vt 0.500000 0.750000
vt 0.375000 0.875000
vt 0.000000 0.875000
vt 0.000000 0.750000
vt 0.125000 0.875000
vt 0.125000 0.750000
vt 0.250000 0.875000
vt 0.250000 0.750000
vt 0.125000 0.625000
vt 0.000000 0.625000
vt 0.375000 1.000000
vt 0.250000 1.000000
vt 0.125000 1.000000
vt 0.000000 1.000000
vt 0.625000 0.750000
vt 0.625000 0.625000
vt 0.500000 0.375000
vt 0.375000 0.375000
vt 0.625000 0.500000
vt 0.250000 0.375000
vt 0.000000 0.906250
vt 0.140625 1.000000
vt 0.500000 0.406250
vt 0.500000 0.312500
vt 0.640625 0.406250
vt 0.640625 0.312500
vt 0.640625 0.500000
vt 0.625000 0.937500
vt 0.625000 0.843750
vt 0.671875 0.937500
vt 0.671875 0.843750
vt 0.125000 0.281250
vt 0.171875 0.375000
vt 0.171875 0.281250
vt 0.000000 0.953125
vt 0.671875 0.750000
vt 0.218750 0.375000
vt 0.218750 0.281250
vt 0.625000 0.734375
vt 0.625000 0.671875
vt 0.640625 0.734375
vt 0.640625 0.671875
vt 0.625000 0.609375
vt 0.640625 0.609375
vt 0.343750 0.359375
vt 0.343750 0.375000
vt 0.218750 0.359375
vt 0.750000 0.750000
vt 0.750000 0.734375
vt 0.750000 1.000000
vt 0.750000 0.937500
vt 0.000000 0.312500
vt 0.125000 0.312500
vt 0.000000 0.984375
vt 0.015625 1.000000
vt 0.265625 0.359375
vt 0.265625 0.343750
vt 0.281250 0.359375
vt 0.281250 0.343750
vt 0.250000 0.359375
vt 0.250000 0.343750
vt 0.625000 0.578125
vt 0.656250 0.609375
vt 0.656250 0.578125
vt 0.406250 0.375000
vt 0.406250 0.343750
vt 0.437500 0.375000
vt 0.437500 0.343750
vt 0.234375 0.328125
vt 0.234375 0.359375
vt 0.218750 0.328125
vt 0.250000 0.328125
vt 0.484375 0.375000
vt 0.484375 0.343750
vt 0.500000 0.343750
vt 0.625000 0.531250
vt 0.640625 0.531250
vt 0.625000 0.546875
vt 0.640625 0.578125
vt 0.640625 0.546875
vt 0.453125 0.375000
vt 0.453125 0.343750
vt 0.484375 0.359375
vt 0.453125 0.359375
vt 0.656250 0.546875
vt 0.656250 0.531250
vt 0.375000 0.343750
vt 0.343750 0.343750
vt 0.296875 0.359375
vt 0.296875 0.343750
vt 0.640625 0.718750
vt 0.656250 0.734375
vt 0.656250 0.718750
vt 0.312500 0.359375
vt 0.312500 0.343750
vt 0.640625 0.703125
vt 0.656250 0.703125
s 0
usemtl Material_0
f 1/1/1 3/2/1 2/3/1
f 3/2/1 4/4/1 2/3/1
f 5/3/2 7/4/2 6/5/2
f 7/4/2 8/6/2 6/5/2
f 9/7/3 11/8/3 10/9/3
f 11/8/3 12/10/3 10/9/3
f 13/11/4 15/12/4 14/13/4
f 15/12/4 16/14/4 14/13/4
f 17/15/5 19/3/5 18/16/5
f 19/3/5 20/5/5 18/16/5
f 21/17/6 23/15/6 22/14/6
f 23/15/6 24/16/6 22/14/6
f 25/18/1 27/19/1 26/20/1
f 27/19/1 28/21/1 26/20/1
f 29/20/2 31/21/2 30/22/2
f 31/21/2 32/23/2 30/22/2
f 33/24/3 35/21/3 34/25/3
f 35/21/3 36/19/3 34/25/3
f 37/26/4 39/17/4 38/27/4
f 39/17/4 40/22/4 38/27/4
f 41/28/5 43/20/5 42/27/5
f 43/20/5 44/22/5 42/27/5
f 45/29/6 47/18/6 46/28/6
f 47/18/6 48/20/6 46/28/6
f 49/22/1 51/23/1 50/17/1
f 51/23/1 52/15/1 50/17/1
f 53/25/2 55/10/2 54/24/2
f 55/10/2 56/8/2 54/24/2
f 57/14/3 59/13/3 58/17/3
f 59/13/3 60/26/3 58/17/3
f 61/1/4 63/2/4 62/24/4
f 63/2/4 64/8/4 62/24/4
f 65/23/5 67/1/5 66/15/5
f 67/1/5 68/3/5 66/15/5
f 69/21/6 71/24/6 70/23/6
f 71/24/6 72/1/6 70/23/6
f 73/4/1 75/3/1 74/6/1
f 75/3/1 76/5/1 74/6/1
f 77/2/2 79/1/2 78/4/2
f 79/1/2 80/3/2 78/4/2
f 81/14/3 83/13/3 82/12/3
f 83/13/3 84/11/3 82/12/3
f 85/7/4 87/8/4 86/9/4
f 87/8/4 88/10/4 86/9/4
f 89/15/5 91/17/5 90/16/5
f 91/17/5 92/14/5 90/16/5
f 93/3/6 95/15/6 94/5/6
f 95/15/6 96/16/6 94/5/6
f 97/14/1 99/16/1 98/12/1
f 99/16/1 100/30/1 98/12/1
f 101/16/2 103/5/2 102/30/2
f 103/5/2 104/31/2 102/30/2
f 105/32/3 107/6/3 106/33/3
f 107/6/3 108/4/3 106/33/3
f 109/31/4 111/34/4 110/5/4
f 111/34/4 112/6/4 110/5/4
f 113/2/5 115/35/5 114/4/5
f 115/35/5 116/33/5 114/4/5
f 117/8/6 119/7/6 118/2/6
f 119/7/6 120/35/6 118/2/6
f 121/5/1 123/16/1 122/31/1
f 123/16/1 124/30/1 122/31/1
f 125/16/2 127/14/2 126/30/2
f 127/14/2 128/12/2 126/30/2
f 129/34/3 131/31/3 130/6/3
f 131/31/3 132/5/3 130/6/3
f 133/32/4 135/6/4 134/33/4
f 135/6/4 136/4/4 134/33/4
f 137/7/5 139/8/5 138/35/5
f 139/8/5 140/2/5 138/35/5
f 141/35/6 143/2/6 142/33/6
f 143/2/6 144/4/6 142/33/6
f 145/29/1 147/36/1 146/29/1
f 147/36/1 148/36/1 146/29/1
f 149/29/7 151/36/7 150/29/7
f 151/36/8 152/36/8 150/29/8
f 153/37/9 155/37/9 154/29/9
f 155/37/10 156/29/10 154/29/10
f 157/29/11 159/29/11 158/37/11
f 159/29/12 160/37/12 158/37/12
f 161/38/13 163/39/13 162/40/13
f 163/39/13 164/41/13 162/40/13
f 165/6/14 167/38/14 166/42/14
f 167/38/14 168/40/14 166/42/14
f 169/43/1 171/44/1 170/45/1
f 171/44/1 172/46/1 170/45/1
f 173/7/2 175/47/2 174/48/2
f 175/47/2 176/49/2 174/48/2
f 177/50/10 179/29/10 178/50/10
f 179/29/15 180/29/15 178/50/15
f 181/29/12 183/50/12 182/29/12
f 183/50/16 184/50/16 182/29/16
f 185/29/13 187/36/13 186/29/13
f 187/36/13 188/36/13 186/29/13
f 189/29/14 191/36/14 190/29/14
f 191/36/14 192/36/14 190/29/14
f 193/44/1 195/30/1 194/46/1
f 195/30/1 196/51/1 194/46/1
f 197/48/2 199/49/2 198/52/2
f 199/49/2 200/53/2 198/52/2
f 201/29/15 203/50/15 202/29/15
f 203/50/10 204/50/10 202/29/10
f 205/29/16 207/50/16 206/29/16
f 207/50/12 208/50/12 206/29/12
f 209/29/13 211/36/13 210/29/13
f 211/36/13 212/36/13 210/29/13
f 213/29/14 215/36/14 214/29/14
f 215/36/14 216/36/14 214/29/14
f 217/54/1 219/55/1 218/56/1
f 219/55/1 220/57/1 218/56/1
f 221/55/2 223/58/2 222/57/2
f 223/58/2 224/59/2 222/57/2
f 225/60/10 227/61/10 226/62/10
f 227/61/10 228/52/10 226/62/10
f 229/63/12 231/64/12 230/30/12
f 231/64/12 232/54/12 230/30/12
f 233/11/13 235/43/13 234/65/13
f 235/43/13 236/66/13 234/65/13
f 237/9/14 239/67/14 238/7/14
f 239/67/14 240/68/14 238/7/14
f 241/29/1 243/69/1 242/29/1
f 243/69/1 244/69/1 242/29/1
f 245/29/2 247/69/2 246/29/2
f 247/69/2 248/69/2 246/29/2
f 249/70/3 251/70/3 250/29/3
f 251/70/3 252/29/3 250/29/3
f 253/29/4 255/29/4 254/70/4
f 255/29/4 256/70/4 254/70/4
f 257/71/5 259/72/5 258/73/5
f 259/72/5 260/74/5 258/73/5
f 261/75/6 263/76/6 262/71/6
f 263/76/6 264/72/6 262/71/6
f 265/58/1 267/77/1 266/78/1
f 267/77/1 268/79/1 266/78/1
f 269/80/2 271/81/2 270/82/2
f 271/81/2 272/83/2 270/82/2
f 273/84/3 275/85/3 274/86/3
f 275/85/3 276/62/3 274/86/3
f 277/75/4 279/87/4 278/85/4
f 279/87/4 280/84/4 278/85/4
f 281/88/5 283/89/5 282/32/5
f 283/89/5 284/90/5 282/32/5
f 285/91/6 287/34/6 286/92/6
f 287/34/6 288/42/6 286/92/6
f 289/77/1 291/93/1 290/94/1
f 291/93/1 292/95/1 290/94/1
f 293/82/2 295/83/2 294/96/2
f 295/83/2 296/97/2 294/96/2
f 297/98/3 299/88/3 298/99/3
f 299/88/3 300/96/3 298/99/3
f 301/100/4 303/101/4 302/93/4
f 303/101/4 304/91/4 302/93/4
f 305/33/5 307/102/5 306/80/5
f 307/102/5 308/81/5 306/80/5
f 309/61/6 311/103/6 310/33/6
f 311/103/6 312/102/6 310/33/6
f 313/29/1 315/69/1 314/29/1
f 315/69/1 316/69/1 314/29/1
f 317/29/2 319/69/2 318/29/2
f 319/69/2 320/69/2 318/29/2
f 321/29/3 323/29/3 322/70/3
f 323/29/3 324/70/3 322/70/3
f 325/29/4 327/29/4 326/70/4
f 327/29/4 328/70/4 326/70/4
f 329/73/5 331/74/5 330/104/5
f 331/74/5 332/105/5 330/104/5
f 333/56/6 335/106/6 334/107/6
f 335/106/6 336/108/6 334/107/6
f 337/29/1 339/69/1 338/29/1
f 339/69/1 340/69/1 338/29/1
f 341/29/2 343/69/2 342/29/2
f 343/69/2 344/69/2 342/29/2
f 345/29/3 347/29/3 346/70/3
f 347/29/3 348/70/3 346/70/3
f 349/29/4 351/29/4 350/70/4
f 351/29/4 352/70/4 350/70/4
f 353/104/5 355/105/5 354/109/5
f 355/105/5 356/110/5 354/109/5
f 357/106/6 359/111/6 358/108/6
f 359/111/6 360/112/6 358/108/6
