# Blender 4.5.3 LTS
# www.blender.org
mtllib lev.afganka_legs.mtl
o leftLegModel
v -0.390000 11.710000 2.290000
v -0.390000 11.710000 -2.290000
v -0.390000 24.290001 2.290000
v -0.390000 24.290001 -2.290000
v 4.190000 11.710000 -2.290000
v 4.190000 11.710000 2.289999
v 4.190000 24.290001 -2.290001
v 4.190000 24.290001 2.289999
v 4.190000 11.710000 -2.290000
v -0.390000 11.710000 -2.290000
v 4.190000 11.710000 2.289999
v -0.390000 11.710000 2.290000
v 4.190000 24.290001 2.289999
v -0.390000 24.290001 2.290000
v 4.190000 24.290001 -2.290001
v -0.390000 24.290001 -2.290000
v 4.190000 11.710000 2.289999
v -0.390000 11.710000 2.290000
v 4.190000 24.290001 2.289999
v -0.390000 24.290001 2.290000
v -0.390000 11.710000 -2.290000
v 4.190000 11.710000 -2.290000
v -0.390000 24.290001 -2.290000
v 4.190000 24.290001 -2.290001
v -0.600000 11.500000 2.500000
v -0.600000 11.500000 -2.500000
v -0.600000 24.500000 2.500000
v -0.600000 24.500000 -2.500000
v 4.400000 11.500000 -2.500001
v 4.400000 11.500000 2.499999
v 4.400000 24.500000 -2.500001
v 4.400000 24.500000 2.499999
v 4.400000 11.500000 -2.500001
v -0.600000 11.500000 -2.500000
v 4.400000 11.500000 2.499999
v -0.600000 11.500000 2.500000
v 4.400000 24.500000 2.499999
v -0.600000 24.500000 2.500000
v 4.400000 24.500000 -2.500001
v -0.600000 24.500000 -2.500000
v 4.400000 11.500000 2.499999
v -0.600000 11.500000 2.500000
v 4.400000 24.500000 2.499999
v -0.600000 24.500000 2.500000
v -0.600000 11.500000 -2.500000
v 4.400000 11.500000 -2.500001
v -0.600000 24.500000 -2.500000
v 4.400000 24.500000 -2.500001
vn -1.0000 -0.0000 -0.0000
vn 1.0000 -0.0000 -0.0000
vn -0.0000 -1.0000 -0.0000
vn -0.0000 1.0000 -0.0000
vn -0.0000 -0.0000 1.0000
vn -0.0000 -0.0000 -1.0000
vt 0.250000 0.187500
vt 0.250000 0.000000
vt 0.312500 0.187500
vt 0.312500 0.000000
vt 0.375000 0.187500
vt 0.375000 0.000000
vt 0.437500 0.187500
vt 0.437500 0.000000
vt 0.375000 0.250000
vt 0.312500 0.250000
vt 0.437500 0.250000
vt 0.500000 0.187500
vt 0.500000 0.000000
vt 0.000000 0.187500
vt 0.000000 0.000000
vt 0.062500 0.187500
vt 0.062500 0.000000
vt 0.125000 0.187500
vt 0.125000 0.000000
vt 0.187500 0.187500
vt 0.187500 0.000000
vt 0.125000 0.250000
vt 0.062500 0.250000
vt 0.187500 0.250000
s 1
usemtl Material_0.004
f 1/1/1 3/2/1 2/3/1
f 3/2/1 4/4/1 2/3/1
f 5/5/2 7/6/2 6/7/2
f 7/6/2 8/8/2 6/7/2
f 9/5/3 11/9/3 10/3/3
f 11/9/3 12/10/3 10/3/3
f 13/11/4 15/7/4 14/9/4
f 15/7/4 16/5/4 14/9/4
f 17/7/5 19/8/5 18/12/5
f 19/8/5 20/13/5 18/12/5
f 21/3/6 23/4/6 22/5/6
f 23/4/6 24/6/6 22/5/6
f 25/14/1 27/15/1 26/16/1
f 27/15/1 28/17/1 26/16/1
f 29/18/2 31/19/2 30/20/2
f 31/19/2 32/21/2 30/20/2
f 33/18/3 35/22/3 34/16/3
f 35/22/3 36/23/3 34/16/3
f 37/24/4 39/20/4 38/22/4
f 39/20/4 40/18/4 38/22/4
f 41/20/5 43/21/5 42/1/5
f 43/21/5 44/2/5 42/1/5
f 45/16/6 47/17/6 46/18/6
f 47/17/6 48/19/6 46/18/6
o rightLegModel
v -4.190000 11.710000 2.290000
v -4.190000 11.710000 -2.290000
v -4.190000 24.290001 2.290000
v -4.190000 24.290001 -2.290000
v 0.390000 11.710000 -2.290000
v 0.390000 11.710000 2.290000
v 0.390000 24.290001 -2.290000
v 0.390000 24.290001 2.290000
v 0.390000 11.710000 -2.290000
v -4.190000 11.710000 -2.290000
v 0.390000 11.710000 2.290000
v -4.190000 11.710000 2.290000
v 0.390000 24.290001 2.290000
v -4.190000 24.290001 2.290000
v 0.390000 24.290001 -2.290000
v -4.190000 24.290001 -2.290000
v 0.390000 11.710000 2.290000
v -4.190000 11.710000 2.290000
v 0.390000 24.290001 2.290000
v -4.190000 24.290001 2.290000
v -4.190000 11.710000 -2.290000
v 0.390000 11.710000 -2.290000
v -4.190000 24.290001 -2.290000
v 0.390000 24.290001 -2.290000
v -4.400000 11.500000 2.500000
v -4.400000 11.500000 -2.500000
v -4.400000 24.500000 2.500000
v -4.400000 24.500000 -2.500000
v 0.600000 11.500000 -2.500000
v 0.600000 11.500000 2.500000
v 0.600000 24.500000 -2.500000
v 0.600000 24.500000 2.500000
v 0.600000 11.500000 -2.500000
v -4.400000 11.500000 -2.500000
v 0.600000 11.500000 2.500000
v -4.400000 11.500000 2.500000
v 0.600000 24.500000 2.500000
v -4.400000 24.500000 2.500000
v 0.600000 24.500000 -2.500000
v -4.400000 24.500000 -2.500000
v 0.600000 11.500000 2.500000
v -4.400000 11.500000 2.500000
v 0.600000 24.500000 2.500000
v -4.400000 24.500000 2.500000
v -4.400000 11.500000 -2.500000
v 0.600000 11.500000 -2.500000
v -4.400000 24.500000 -2.500000
v 0.600000 24.500000 -2.500000
vn -1.0000 -0.0000 -0.0000
vn 1.0000 -0.0000 -0.0000
vn -0.0000 -1.0000 -0.0000
vn -0.0000 1.0000 -0.0000
vn -0.0000 -0.0000 1.0000
vn -0.0000 -0.0000 -1.0000
vt 0.437500 0.187500
vt 0.437500 0.000000
vt 0.375000 0.187500
vt 0.375000 0.000000
vt 0.312500 0.187500
vt 0.312500 0.000000
vt 0.250000 0.187500
vt 0.250000 0.000000
vt 0.312500 0.250000
vt 0.375000 0.250000
vt 0.437500 0.250000
vt 0.500000 0.187500
vt 0.500000 0.000000
vt 0.187500 0.187500
vt 0.187500 0.000000
vt 0.125000 0.187500
vt 0.125000 0.000000
vt 0.062500 0.187500
vt 0.062500 0.000000
vt 0.000000 0.187500
vt 0.000000 0.000000
vt 0.062500 0.250000
vt 0.125000 0.250000
vt 0.187500 0.250000
s 1
usemtl Material_0.004
f 49/25/7 51/26/7 50/27/7
f 51/26/7 52/28/7 50/27/7
f 53/29/8 55/30/8 54/31/8
f 55/30/8 56/32/8 54/31/8
f 57/29/9 59/33/9 58/27/9
f 59/33/9 60/34/9 58/27/9
f 61/34/10 63/27/10 62/35/10
f 63/27/10 64/25/10 62/35/10
f 65/36/11 67/37/11 66/25/11
f 67/37/11 68/26/11 66/25/11
f 69/27/12 71/28/12 70/29/12
f 71/28/12 72/30/12 70/29/12
f 73/38/7 75/39/7 74/40/7
f 75/39/7 76/41/7 74/40/7
f 77/42/8 79/43/8 78/44/8
f 79/43/8 80/45/8 78/44/8
f 81/42/9 83/46/9 82/40/9
f 83/46/9 84/47/9 82/40/9
f 85/47/10 87/40/10 86/48/10
f 87/40/10 88/38/10 86/48/10
f 89/31/11 91/32/11 90/38/11
f 91/32/11 92/39/11 90/38/11
f 93/40/12 95/41/12 94/42/12
f 95/41/12 96/43/12 94/42/12
o bodyModel
v -4.260000 -0.260000 2.260000
v -4.260000 -0.260000 -2.260000
v -4.260000 12.260000 2.260000
v -4.260000 12.260000 -2.260000
v 4.260000 -0.260000 -2.260000
v 4.260000 -0.260000 2.260000
v 4.260000 12.260000 -2.260000
v 4.260000 12.260000 2.260000
v 4.260000 -0.260000 -2.260000
v -4.260000 -0.260000 -2.260000
v 4.260000 -0.260000 2.260000
v -4.260000 -0.260000 2.260000
v 4.260000 12.260000 2.260000
v -4.260000 12.260000 2.260000
v 4.260000 12.260000 -2.260000
v -4.260000 12.260000 -2.260000
v 4.260000 -0.260000 2.260000
v -4.260000 -0.260000 2.260000
v 4.260000 12.260000 2.260000
v -4.260000 12.260000 2.260000
v -4.260000 -0.260000 -2.260000
v 4.260000 -0.260000 -2.260000
v -4.260000 12.260000 -2.260000
v 4.260000 12.260000 -2.260000
vn -1.0000 -0.0000 -0.0000
vn 1.0000 -0.0000 -0.0000
vn -0.0000 -1.0000 -0.0000
vn -0.0000 1.0000 -0.0000
vn -0.0000 -0.0000 1.0000
vn -0.0000 -0.0000 -1.0000
vt 0.125000 1.000000
vt 0.125000 0.812500
vt 0.187500 1.000000
vt 0.187500 0.812500
vt 0.250000 1.000000
vt 0.250000 0.812500
vt 0.500000 0.875000
vt 0.500000 0.937500
vt 0.375000 0.875000
vt 0.375000 0.937500
vt 0.500000 0.812500
vt 0.375000 0.812500
vt 0.375000 1.000000
vt 0.000000 1.000000
vt 0.000000 0.812500
s 0
usemtl Material_0.005
f 97/49/13 99/50/13 98/51/13
f 99/50/13 100/52/13 98/51/13
f 101/51/14 103/52/14 102/53/14
f 103/52/14 104/54/14 102/53/14
f 105/55/15 107/56/15 106/57/15
f 107/56/15 108/58/15 106/57/15
f 109/55/16 111/59/16 110/57/16
f 111/59/16 112/60/16 110/57/16
f 113/53/17 115/54/17 114/61/17
f 115/54/17 116/60/17 114/61/17
f 117/62/18 119/63/18 118/49/18
f 119/63/18 120/50/18 118/49/18
