# Blender 4.5.3 LTS
# www.blender.org
mtllib lev.ryst.mtl
o headModel
v 4.666656 -8.555555 -4.666656
v 4.666656 -8.555555 4.666667
v 4.666656 0.777778 -4.666656
v 4.666656 0.777778 4.666667
v -4.666667 -8.555555 4.666667
v -4.666667 -8.555555 -4.666656
v -4.666667 0.777778 4.666667
v -4.666667 0.777778 -4.666656
v -4.666667 -8.555555 4.666667
v 4.666656 -8.555555 4.666667
v -4.666667 -8.555555 -4.666656
v 4.666656 -8.555555 -4.666656
v -4.666667 0.777778 -4.666656
v 4.666656 0.777778 -4.666656
v -4.666667 0.777778 4.666667
v 4.666656 0.777778 4.666667
v -4.666667 -8.555555 -4.666656
v 4.666656 -8.555555 -4.666656
v -4.666667 0.777778 -4.666656
v 4.666656 0.777778 -4.666656
v 4.666656 -8.555555 4.666667
v -4.666667 -8.555555 4.666667
v 4.666656 0.777778 4.666667
v -4.666667 0.777778 4.666667
v -4.433333 0.544444 4.433333
v -4.433333 0.544444 -4.433333
v -4.433333 -8.322222 4.433333
v -4.433333 -8.322222 -4.433333
v 4.433333 0.544444 -4.433333
v 4.433333 0.544444 4.433333
v 4.433333 -8.322222 -4.433333
v 4.433333 -8.322222 4.433333
v 4.433333 0.544444 -4.433333
v -4.433333 0.544444 -4.433333
v 4.433333 0.544444 4.433333
v -4.433333 0.544444 4.433333
v 4.433333 -8.322222 4.433333
v -4.433333 -8.322222 4.433333
v 4.433333 -8.322222 -4.433333
v -4.433333 -8.322222 -4.433333
v 4.433333 0.544444 4.433333
v -4.433333 0.544444 4.433333
v 4.433333 -8.322222 4.433333
v -4.433333 -8.322222 4.433333
v -4.433333 0.544444 -4.433333
v 4.433333 0.544444 -4.433333
v -4.433333 -8.322222 -4.433333
v 4.433333 -8.322222 -4.433333
v 4.444433 -8.333333 -4.444433
v 4.444433 -8.333333 4.444445
v 4.444433 0.555556 -4.444433
v 4.444433 0.555556 4.444445
v -4.444445 -8.333333 4.444445
v -4.444445 -8.333333 -4.444433
v -4.444445 0.555556 4.444445
v -4.444445 0.555556 -4.444433
v -4.444445 -8.333333 4.444445
v 4.444433 -8.333333 4.444445
v -4.444445 -8.333333 -4.444433
v 4.444433 -8.333333 -4.444433
v -4.444445 0.555556 -4.444433
v 4.444433 0.555556 -4.444433
v -4.444445 0.555556 4.444445
v 4.444433 0.555556 4.444445
v -4.444445 -8.333333 -4.444433
v 4.444433 -8.333333 -4.444433
v -4.444445 0.555556 -4.444433
v 4.444433 0.555556 -4.444433
v 4.444433 -8.333333 4.444445
v -4.444445 -8.333333 4.444445
v 4.444433 0.555556 4.444445
v -4.444445 0.555556 4.444445
v -4.655556 0.768667 4.657567
v -4.655556 0.768667 -4.655556
v -4.655556 -8.544444 4.657567
v -4.655556 -8.544444 -4.655556
v 4.657567 0.768667 -4.655556
v 4.657567 0.768667 4.657567
v 4.657567 -8.544444 -4.655556
v 4.657567 -8.544444 4.657567
v 4.657567 0.768667 -4.655556
v -4.655556 0.768667 -4.655556
v 4.657567 0.768667 4.657567
v -4.655556 0.768667 4.657567
v 4.657567 -8.544444 4.657567
v -4.655556 -8.544444 4.657567
v 4.657567 -8.544444 -4.655556
v -4.655556 -8.544444 -4.655556
v 4.657567 0.768667 4.657567
v -4.655556 0.768667 4.657567
v 4.657567 -8.544444 4.657567
v -4.655556 -8.544444 4.657567
v -4.655556 0.768667 -4.655556
v 4.657567 0.768667 -4.655556
v -4.655556 -8.544444 -4.655556
v 4.657567 -8.544444 -4.655556
v -4.324233 0.435333 4.324233
v -4.324233 0.435333 -4.322222
v -4.324233 -8.211111 4.324233
v -4.324233 -8.211111 -4.322222
v 4.322222 0.435333 -4.322222
v 4.322222 0.435333 4.324233
v 4.322222 -8.211111 -4.322222
v 4.322222 -8.211111 4.324233
v 4.322222 0.435333 -4.322222
v -4.324233 0.435333 -4.322222
v 4.322222 0.435333 4.324233
v -4.324233 0.435333 4.324233
v 4.322222 -8.211111 4.324233
v -4.324233 -8.211111 4.324233
v 4.322222 -8.211111 -4.322222
v -4.324233 -8.211111 -4.322222
v 4.322222 0.435333 4.324233
v -4.324233 0.435333 4.324233
v 4.322222 -8.211111 4.324233
v -4.324233 -8.211111 4.324233
v -4.324233 0.435333 -4.322222
v 4.322222 0.435333 -4.322222
v -4.324233 -8.211111 -4.322222
v 4.322222 -8.211111 -4.322222
v 4.333323 -8.222222 -4.333323
v 4.333323 -8.222222 4.333333
v 4.333323 0.444444 -4.333323
v 4.333323 0.444444 4.333333
v -4.333333 -8.222222 4.333333
v -4.333333 -8.222222 -4.333323
v -4.333333 0.444444 4.333333
v -4.333333 0.444444 -4.333323
v -4.333333 -8.222222 4.333333
v 4.333323 -8.222222 4.333333
v -4.333333 -8.222222 -4.333323
v 4.333323 -8.222222 -4.333323
v -4.333333 0.444444 -4.333323
v 4.333323 0.444444 -4.333323
v -4.333333 0.444444 4.333333
v 4.333323 0.444444 4.333333
v -4.333333 -8.222222 -4.333323
v 4.333323 -8.222222 -4.333323
v -4.333333 0.444444 -4.333323
v 4.333323 0.444444 -4.333323
v 4.333323 -8.222222 4.333333
v -4.333333 -8.222222 4.333333
v 4.333323 0.444444 4.333333
v -4.333333 0.444444 4.333333
v 4.862222 -0.092731 -5.890065
v 4.862222 -6.384558 -4.780646
v 4.862222 0.437861 -2.880929
v 4.862222 -5.853967 -1.771511
v 4.861111 -6.384558 -4.780646
v 4.861111 -0.092731 -5.890065
v 4.861111 -5.853967 -1.771511
v 4.861111 0.437861 -2.880929
v 4.861111 -6.384558 -4.780646
v 4.862222 -6.384558 -4.780646
v 4.861111 -0.092731 -5.890065
v 4.862222 -0.092731 -5.890065
v 4.861111 0.437861 -2.880929
v 4.862222 0.437861 -2.880929
v 4.861111 -5.853967 -1.771511
v 4.862222 -5.853967 -1.771511
v 4.861111 -0.092731 -5.890065
v 4.862222 -0.092731 -5.890065
v 4.861111 0.437861 -2.880929
v 4.862222 0.437861 -2.880929
v 4.862222 -6.384558 -4.780646
v 4.861111 -6.384558 -4.780646
v 4.862222 -5.853967 -1.771511
v 4.861111 -5.853967 -1.771511
v 4.862222 -0.092731 -5.890065
v 4.862222 -6.384558 -4.780646
v 4.862222 -0.092537 -5.888970
v 4.862222 -6.384365 -4.779552
v -4.860000 -6.384558 -4.780646
v -4.860000 -0.092731 -5.890065
v -4.860000 -6.384365 -4.779552
v -4.860000 -0.092537 -5.888970
v -4.860000 -6.384558 -4.780646
v 4.862222 -6.384558 -4.780646
v -4.860000 -0.092731 -5.890065
v 4.862222 -0.092731 -5.890065
v -4.860000 -0.092537 -5.888970
v 4.862222 -0.092537 -5.888970
v -4.860000 -6.384365 -4.779552
v 4.862222 -6.384365 -4.779552
v -4.860000 -0.092731 -5.890065
v 4.862222 -0.092731 -5.890065
v -4.860000 -0.092537 -5.888970
v 4.862222 -0.092537 -5.888970
v 4.862222 -6.384558 -4.780646
v -4.860000 -6.384558 -4.780646
v 4.862222 -6.384365 -4.779552
v -4.860000 -6.384365 -4.779552
v 4.861111 -1.922196 -6.667526
v 4.861111 -6.025561 -5.943992
v 4.861111 -1.734077 -5.600651
v 4.861111 -5.837443 -4.877117
v -4.861111 -6.025561 -5.943992
v -4.861111 -1.922196 -6.667526
v -4.861111 -5.837443 -4.877117
v -4.861111 -1.734077 -5.600651
v -4.861111 -6.025561 -5.943992
v 4.861111 -6.025561 -5.943992
v -4.861111 -1.922196 -6.667526
v 4.861111 -1.922196 -6.667526
v -4.861111 -1.734077 -5.600651
v 4.861111 -1.734077 -5.600651
v -4.861111 -5.837443 -4.877117
v 4.861111 -5.837443 -4.877117
v -4.861111 -1.922196 -6.667526
v 4.861111 -1.922196 -6.667526
v -4.861111 -1.734077 -5.600651
v 4.861111 -1.734077 -5.600651
v 4.861111 -6.025561 -5.943992
v -4.861111 -6.025561 -5.943992
v 4.861111 -5.837443 -4.877117
v -4.861111 -5.837443 -4.877117
v -4.860000 -0.092731 -5.890065
v -4.860000 -6.384558 -4.780646
v -4.860000 0.437861 -2.880929
v -4.860000 -5.853967 -1.771511
v -4.861111 -6.384558 -4.780646
v -4.861111 -0.092731 -5.890065
v -4.861111 -5.853967 -1.771511
v -4.861111 0.437861 -2.880929
v -4.861111 -6.384558 -4.780646
v -4.860000 -6.384558 -4.780646
v -4.861111 -0.092731 -5.890065
v -4.860000 -0.092731 -5.890065
v -4.861111 0.437861 -2.880929
v -4.860000 0.437861 -2.880929
v -4.861111 -5.853967 -1.771511
v -4.860000 -5.853967 -1.771511
v -4.861111 -0.092731 -5.890065
v -4.860000 -0.092731 -5.890065
v -4.861111 0.437861 -2.880929
v -4.860000 0.437861 -2.880929
v -4.860000 -6.384558 -4.780646
v -4.861111 -6.384558 -4.780646
v -4.860000 -5.853967 -1.771511
v -4.861111 -5.853967 -1.771511
v 5.555555 -3.888889 -3.167778
v 5.555555 -3.888889 -3.166667
v 5.555555 -2.777778 -3.167778
v 5.555555 -2.777778 -3.166667
v 4.444445 -3.888889 -3.166667
v 4.444445 -3.888889 -3.167778
v 4.444445 -2.777778 -3.166667
v 4.444445 -2.777778 -3.167778
v 4.444445 -3.888889 -3.166667
v 5.555555 -3.888889 -3.166667
v 4.444445 -3.888889 -3.167778
v 5.555555 -3.888889 -3.167778
v 4.444445 -2.777778 -3.167778
v 5.555555 -2.777778 -3.167778
v 4.444445 -2.777778 -3.166667
v 5.555555 -2.777778 -3.166667
v 4.444445 -3.888889 -3.167778
v 5.555555 -3.888889 -3.167778
v 4.444445 -2.777778 -3.167778
v 5.555555 -2.777778 -3.167778
v 5.555555 -3.888889 -3.166667
v 4.444445 -3.888889 -3.166667
v 5.555555 -2.777778 -3.166667
v 4.444445 -2.777778 -3.166667
v 5.555555 -5.277778 -0.555555
v 5.555555 -5.277778 1.666667
v 5.555555 -3.055555 -0.555555
v 5.555555 -3.055555 1.666667
v 4.444445 -5.277778 1.666667
v 4.444445 -5.277778 -0.555555
v 4.444445 -3.055555 1.666667
v 4.444445 -3.055555 -0.555555
v 4.444445 -5.277778 1.666667
v 5.555555 -5.277778 1.666667
v 4.444445 -5.277778 -0.555555
v 5.555555 -5.277778 -0.555555
v 4.444445 -3.055555 -0.555555
v 5.555555 -3.055555 -0.555555
v 4.444445 -3.055555 1.666667
v 5.555555 -3.055555 1.666667
v 4.444445 -5.277778 -0.555555
v 5.555555 -5.277778 -0.555555
v 4.444445 -3.055555 -0.555555
v 5.555555 -3.055555 -0.555555
v 5.555555 -5.277778 1.666667
v 4.444445 -5.277778 1.666667
v 5.555555 -3.055555 1.666667
v 4.444445 -3.055555 1.666667
v 1.111111 -6.388889 4.444444
v 1.111111 -6.388889 5.555555
v 1.111111 -4.166667 4.444444
v 1.111111 -4.166667 5.555555
v -1.111111 -6.388889 5.555555
v -1.111111 -6.388889 4.444444
v -1.111111 -4.166667 5.555555
v -1.111111 -4.166667 4.444444
v -1.111111 -6.388889 5.555555
v 1.111111 -6.388889 5.555555
v -1.111111 -6.388889 4.444444
v 1.111111 -6.388889 4.444444
v -1.111111 -4.166667 4.444444
v 1.111111 -4.166667 4.444444
v -1.111111 -4.166667 5.555555
v 1.111111 -4.166667 5.555555
v -1.111111 -6.388889 4.444444
v 1.111111 -6.388889 4.444444
v -1.111111 -4.166667 4.444444
v 1.111111 -4.166667 4.444444
v 1.111111 -6.388889 5.555555
v -1.111111 -6.388889 5.555555
v 1.111111 -4.166667 5.555555
v -1.111111 -4.166667 5.555555
v -4.444445 -3.888889 -3.167778
v -4.444445 -3.888889 -3.166667
v -4.444445 -2.777778 -3.167778
v -4.444445 -2.777778 -3.166667
v -5.555556 -3.888889 -3.166667
v -5.555556 -3.888889 -3.167778
v -5.555556 -2.777778 -3.166667
v -5.555556 -2.777778 -3.167778
v -5.555556 -3.888889 -3.166667
v -4.444445 -3.888889 -3.166667
v -5.555556 -3.888889 -3.167778
v -4.444445 -3.888889 -3.167778
v -5.555556 -2.777778 -3.167778
v -4.444445 -2.777778 -3.167778
v -5.555556 -2.777778 -3.166667
v -4.444445 -2.777778 -3.166667
v -5.555556 -3.888889 -3.167778
v -4.444445 -3.888889 -3.167778
v -5.555556 -2.777778 -3.167778
v -4.444445 -2.777778 -3.167778
v -4.444445 -3.888889 -3.166667
v -5.555556 -3.888889 -3.166667
v -4.444445 -2.777778 -3.166667
v -5.555556 -2.777778 -3.166667
v 0.555556 -9.444445 -0.556667
v 0.555556 -9.444445 -0.555555
v 0.555556 -8.333334 -0.556667
v 0.555556 -8.333334 -0.555555
v -0.555556 -9.444445 -0.555555
v -0.555556 -9.444445 -0.556667
v -0.555556 -8.333334 -0.555555
v -0.555556 -8.333334 -0.556667
v -0.555556 -9.444445 -0.555555
v 0.555556 -9.444445 -0.555555
v -0.555556 -9.444445 -0.556667
v 0.555556 -9.444445 -0.556667
v -0.555556 -8.333334 -0.556667
v 0.555556 -8.333334 -0.556667
v -0.555556 -8.333334 -0.555555
v 0.555556 -8.333334 -0.555555
v -0.555556 -9.444445 -0.556667
v 0.555556 -9.444445 -0.556667
v -0.555556 -8.333334 -0.556667
v 0.555556 -8.333334 -0.556667
v 0.555556 -9.444445 -0.555555
v -0.555556 -9.444445 -0.555555
v 0.555556 -8.333334 -0.555555
v -0.555556 -8.333334 -0.555555
vn 1.0000 -0.0000 -0.0000
vn -1.0000 -0.0000 -0.0000
vn -0.0000 -1.0000 -0.0000
vn -0.0000 1.0000 -0.0000
vn -0.0000 -0.0000 -1.0000
vn -0.0000 -0.0000 1.0000
vn -0.0000 -0.1736 -0.9848
vn -0.0000 -0.1737 -0.9848
vn -0.0000 0.1736 0.9848
vn -0.0000 0.1737 0.9848
vn -0.0000 0.9848 -0.1736
vn -0.0000 0.9848 -0.1737
vn -0.0000 -0.9848 0.1737
vn -0.0000 -0.9848 0.1736
vn 1.0000 -0.0000 -0.0002
vn -0.0000 0.9848 -0.1738
vn -0.0000 -0.9848 0.1740
vt 0.250000 0.625000
vt 0.250000 0.500000
vt 0.375000 0.625000
vt 0.375000 0.500000
vt 0.500000 0.625000
vt 0.500000 0.500000
vt 0.125000 0.375000
vt 0.125000 0.500000
vt 0.000000 0.375000
vt 0.000000 0.500000
vt 0.625000 1.000000
vt 0.625000 0.875000
vt 0.500000 1.000000
vt 0.500000 0.875000
vt 0.375000 0.750000
vt 0.500000 0.750000
vt 0.375000 0.875000
vt 0.000000 0.875000
vt 0.000000 0.750000
vt 0.125000 0.875000
vt 0.125000 0.750000
vt 0.250000 0.875000
vt 0.250000 0.750000
vt 0.125000 0.625000
vt 0.000000 0.625000
vt 0.375000 1.000000
vt 0.250000 1.000000
vt 0.125000 1.000000
vt 0.000000 1.000000
vt 0.625000 0.750000
vt 0.625000 0.625000
vt 0.500000 0.375000
vt 0.375000 0.375000
vt 0.625000 0.500000
vt 0.250000 0.375000
vt 0.625000 0.843750
vt 0.671875 0.843750
vt 0.625000 0.937500
vt 0.671875 0.937500
vt 0.187500 0.375000
vt 0.140625 0.375000
vt 0.187500 0.281250
vt 0.140625 0.281250
vt 0.000000 0.906250
vt 0.000000 0.953125
vt 0.500000 0.406250
vt 0.500000 0.312500
vt 0.640625 0.406250
vt 0.640625 0.312500
vt 0.640625 0.500000
vt 0.140625 1.000000
vt 0.625000 0.671875
vt 0.640625 0.671875
vt 0.625000 0.734375
vt 0.640625 0.734375
vt 0.640625 0.609375
vt 0.625000 0.609375
vt 0.765625 1.000000
vt 0.765625 0.937500
vt 0.140625 0.312500
vt 0.000000 0.312500
vt 0.765625 0.750000
vt 0.765625 0.734375
vt 0.234375 0.375000
vt 0.234375 0.359375
vt 0.375000 0.359375
vt 0.671875 0.750000
vt 0.234375 0.281250
vt 0.000000 0.984375
vt 0.015625 1.000000
vt 0.281250 0.359375
vt 0.281250 0.343750
vt 0.296875 0.359375
vt 0.296875 0.343750
vt 0.640625 0.718750
vt 0.656250 0.734375
vt 0.656250 0.718750
vt 0.406250 0.375000
vt 0.406250 0.343750
vt 0.437500 0.375000
vt 0.437500 0.343750
vt 0.625000 0.578125
vt 0.625000 0.546875
vt 0.656250 0.578125
vt 0.656250 0.546875
vt 0.265625 0.328125
vt 0.265625 0.359375
vt 0.250000 0.328125
vt 0.250000 0.359375
vt 0.281250 0.328125
vt 0.234375 0.328125
vt 0.625000 0.531250
vt 0.640625 0.531250
vt 0.453125 0.375000
vt 0.453125 0.343750
vt 0.468750 0.375000
vt 0.468750 0.343750
vt 0.656250 0.531250
vt 0.500000 0.359375
vt 0.468750 0.359375
vt 0.656250 0.609375
vt 0.375000 0.343750
vt 0.312500 0.359375
vt 0.312500 0.343750
vt 0.640625 0.703125
vt 0.656250 0.703125
vt 0.328125 0.359375
vt 0.328125 0.343750
vt 0.640625 0.687500
vt 0.656250 0.687500
s 0
usemtl Material_0.003
f 1/1/1 3/2/1 2/3/1
f 3/2/1 4/4/1 2/3/1
f 5/3/2 7/4/2 6/5/2
f 7/4/2 8/6/2 6/5/2
f 9/7/3 11/8/3 10/9/3
f 11/8/3 12/10/3 10/9/3
f 13/11/4 15/12/4 14/13/4
f 15/12/4 16/14/4 14/13/4
f 17/15/5 19/3/5 18/16/5
f 19/3/5 20/5/5 18/16/5
f 21/17/6 23/15/6 22/14/6
f 23/15/6 24/16/6 22/14/6
f 25/18/1 27/19/1 26/20/1
f 27/19/1 28/21/1 26/20/1
f 29/20/2 31/21/2 30/22/2
f 31/21/2 32/23/2 30/22/2
f 33/24/3 35/21/3 34/25/3
f 35/21/3 36/19/3 34/25/3
f 37/26/4 39/17/4 38/27/4
f 39/17/4 40/22/4 38/27/4
f 41/28/5 43/20/5 42/27/5
f 43/20/5 44/22/5 42/27/5
f 45/29/6 47/18/6 46/28/6
f 47/18/6 48/20/6 46/28/6
f 49/22/1 51/23/1 50/17/1
f 51/23/1 52/15/1 50/17/1
f 53/25/2 55/10/2 54/24/2
f 55/10/2 56/8/2 54/24/2
f 57/14/3 59/13/3 58/17/3
f 59/13/3 60/26/3 58/17/3
f 61/1/4 63/2/4 62/24/4
f 63/2/4 64/8/4 62/24/4
f 65/23/5 67/1/5 66/15/5
f 67/1/5 68/3/5 66/15/5
f 69/21/6 71/24/6 70/23/6
f 71/24/6 72/1/6 70/23/6
f 73/4/1 75/3/1 74/6/1
f 75/3/1 76/5/1 74/6/1
f 77/2/2 79/1/2 78/4/2
f 79/1/2 80/3/2 78/4/2
f 81/11/3 83/12/3 82/13/3
f 83/12/3 84/14/3 82/13/3
f 85/9/4 87/10/4 86/7/4
f 87/10/4 88/8/4 86/7/4
f 89/15/5 91/17/5 90/16/5
f 91/17/5 92/14/5 90/16/5
f 93/3/6 95/15/6 94/5/6
f 95/15/6 96/16/6 94/5/6
f 97/14/1 99/16/1 98/12/1
f 99/16/1 100/30/1 98/12/1
f 101/16/2 103/5/2 102/30/2
f 103/5/2 104/31/2 102/30/2
f 105/32/3 107/6/3 106/33/3
f 107/6/3 108/4/3 106/33/3
f 109/31/4 111/34/4 110/5/4
f 111/34/4 112/6/4 110/5/4
f 113/2/5 115/35/5 114/4/5
f 115/35/5 116/33/5 114/4/5
f 117/8/6 119/7/6 118/2/6
f 119/7/6 120/35/6 118/2/6
f 121/5/1 123/16/1 122/31/1
f 123/16/1 124/30/1 122/31/1
f 125/16/2 127/14/2 126/30/2
f 127/14/2 128/12/2 126/30/2
f 129/5/3 131/6/3 130/31/3
f 131/6/3 132/34/3 130/31/3
f 133/33/4 135/4/4 134/32/4
f 135/4/4 136/6/4 134/32/4
f 137/7/5 139/8/5 138/35/5
f 139/8/5 140/2/5 138/35/5
f 141/35/6 143/2/6 142/33/6
f 143/2/6 144/4/6 142/33/6
f 145/36/1 147/37/1 146/38/1
f 147/37/1 148/39/1 146/38/1
f 149/40/2 151/41/2 150/42/2
f 151/41/2 152/43/2 150/42/2
f 153/29/7 155/44/7 154/29/7
f 155/44/8 156/44/8 154/29/8
f 157/44/9 159/29/9 158/44/9
f 159/29/10 160/29/10 158/44/10
f 161/29/11 163/45/11 162/29/11
f 163/45/12 164/45/12 162/29/12
f 165/29/13 167/45/13 166/29/13
f 167/45/14 168/45/14 166/29/14
f 169/44/1 171/44/1 170/29/1
f 171/44/15 172/29/15 170/29/15
f 173/29/2 175/29/2 174/44/2
f 175/29/2 176/44/2 174/44/2
f 177/46/7 179/47/7 178/48/7
f 179/47/7 180/49/7 178/48/7
f 181/48/9 183/50/9 182/46/9
f 183/50/9 184/6/9 182/46/9
f 185/51/16 187/51/16 186/29/16
f 187/51/12 188/29/12 186/29/12
f 189/29/14 191/29/14 190/51/14
f 191/29/17 192/51/17 190/51/17
f 193/52/1 195/53/1 194/54/1
f 195/53/1 196/55/1 194/54/1
f 197/53/2 199/52/2 198/56/2
f 199/52/2 200/57/2 198/56/2
f 201/11/7 203/38/7 202/58/7
f 203/38/7 204/59/7 202/58/7
f 205/60/9 207/41/9 206/61/9
f 207/41/9 208/9/9 206/61/9
f 209/62/11 211/63/11 210/30/11
f 211/63/11 212/54/11 210/30/11
f 213/64/14 215/65/14 214/33/14
f 215/65/14 216/66/14 214/33/14
f 217/30/1 219/67/1 218/36/1
f 219/67/1 220/37/1 218/36/1
f 221/64/2 223/40/2 222/68/2
f 223/40/2 224/42/2 222/68/2
f 225/29/8 227/44/8 226/29/8
f 227/44/7 228/44/7 226/29/7
f 229/44/10 231/29/10 230/44/10
f 231/29/9 232/29/9 230/44/9
f 233/29/11 235/45/11 234/29/11
f 235/45/11 236/45/11 234/29/11
f 237/29/14 239/45/14 238/29/14
f 239/45/14 240/45/14 238/29/14
f 241/29/1 243/69/1 242/29/1
f 243/69/1 244/69/1 242/29/1
f 245/29/2 247/69/2 246/29/2
f 247/69/2 248/69/2 246/29/2
f 249/70/3 251/70/3 250/29/3
f 251/70/3 252/29/3 250/29/3
f 253/70/4 255/70/4 254/29/4
f 255/70/4 256/29/4 254/29/4
f 257/71/5 259/72/5 258/73/5
f 259/72/5 260/74/5 258/73/5
f 261/55/6 263/75/6 262/76/6
f 263/75/6 264/77/6 262/76/6
f 265/78/1 267/79/1 266/80/1
f 267/79/1 268/81/1 266/80/1
f 269/82/2 271/83/2 270/84/2
f 271/83/2 272/85/2 270/84/2
f 273/86/3 275/87/3 274/88/3
f 275/87/3 276/89/3 274/88/3
f 277/71/4 279/90/4 278/87/4
f 279/90/4 280/86/4 278/87/4
f 281/65/5 283/91/5 282/89/5
f 283/91/5 284/88/5 282/89/5
f 285/92/6 287/34/6 286/93/6
f 287/34/6 288/50/6 286/93/6
f 289/80/1 291/81/1 290/94/1
f 291/81/1 292/95/1 290/94/1
f 293/94/2 295/95/2 294/96/2
f 295/95/2 296/97/2 294/96/2
f 297/98/3 299/85/3 298/92/3
f 299/85/3 300/83/3 298/92/3
f 301/32/4 303/99/4 302/96/4
f 303/99/4 304/100/4 302/96/4
f 305/57/5 307/82/5 306/101/5
f 307/82/5 308/84/5 306/101/5
f 309/33/6 311/102/6 310/78/6
f 311/102/6 312/79/6 310/78/6
f 313/29/1 315/69/1 314/29/1
f 315/69/1 316/69/1 314/29/1
f 317/29/2 319/69/2 318/29/2
f 319/69/2 320/69/2 318/29/2
f 321/70/3 323/70/3 322/29/3
f 323/70/3 324/29/3 322/29/3
f 325/70/4 327/70/4 326/29/4
f 327/70/4 328/29/4 326/29/4
f 329/73/5 331/74/5 330/103/5
f 331/74/5 332/104/5 330/103/5
f 333/75/6 335/105/6 334/77/6
f 335/105/6 336/106/6 334/77/6
f 337/29/1 339/69/1 338/29/1
f 339/69/1 340/69/1 338/29/1
f 341/29/2 343/69/2 342/29/2
f 343/69/2 344/69/2 342/29/2
f 345/70/3 347/70/3 346/29/3
f 347/70/3 348/29/3 346/29/3
f 349/70/4 351/70/4 350/29/4
f 351/70/4 352/29/4 350/29/4
f 353/103/5 355/104/5 354/107/5
f 355/104/5 356/108/5 354/107/5
f 357/105/6 359/109/6 358/106/6
f 359/109/6 360/110/6 358/106/6
