# Blender 4.5.3 LTS
# www.blender.org
mtllib lev.ssh68.mtl
o headModel
v 4.705871 -8.823529 -4.705871
v 4.705871 -8.823529 4.705883
v 4.705871 0.588235 -4.705871
v 4.705871 0.588235 4.705883
v -4.705883 -8.823529 4.705883
v -4.705883 -8.823529 -4.705871
v -4.705883 0.588235 4.705883
v -4.705883 0.588235 -4.705871
v -4.705883 -8.823529 4.705883
v 4.705871 -8.823529 4.705883
v -4.705883 -8.823529 -4.705871
v 4.705871 -8.823529 -4.705871
v -4.705883 0.588235 -4.705871
v 4.705871 0.588235 -4.705871
v -4.705883 0.588235 4.705883
v 4.705871 0.588235 4.705883
v -4.705883 -8.823529 -4.705871
v 4.705871 -8.823529 -4.705871
v -4.705883 0.588235 -4.705871
v 4.705871 0.588235 -4.705871
v 4.705871 -8.823529 4.705883
v -4.705883 -8.823529 4.705883
v 4.705871 0.588235 4.705883
v -4.705883 0.588235 4.705883
v -4.694118 0.576471 4.694118
v -4.694118 0.576471 -4.694118
v -4.694118 -8.811765 4.694118
v -4.694118 -8.811765 -4.694118
v 4.694118 0.576471 -4.694118
v 4.694118 0.576471 4.694118
v 4.694118 -8.811765 -4.694118
v 4.694118 -8.811765 4.694118
v 4.694118 0.576471 -4.694118
v -4.694118 0.576471 -4.694118
v 4.694118 0.576471 4.694118
v -4.694118 0.576471 4.694118
v 4.694118 -8.811765 4.694118
v -4.694118 -8.811765 4.694118
v 4.694118 -8.811765 -4.694118
v -4.694118 -8.811765 -4.694118
v 4.694118 0.576471 4.694118
v -4.694118 0.576471 4.694118
v 4.694118 -8.811765 4.694118
v -4.694118 -8.811765 4.694118
v -4.694118 0.576471 -4.694118
v 4.694118 0.576471 -4.694118
v -4.694118 -8.811765 -4.694118
v 4.694118 -8.811765 -4.694118
v 4.941164 -9.058824 -4.941164
v 4.941164 -9.058824 4.941176
v 4.941164 0.823529 -4.941164
v 4.941164 0.823529 4.941176
v -4.941176 -9.058824 4.941176
v -4.941176 -9.058824 -4.941164
v -4.941176 0.823529 4.941176
v -4.941176 0.823529 -4.941164
v -4.941176 -9.058824 4.941176
v 4.941164 -9.058824 4.941176
v -4.941176 -9.058824 -4.941164
v 4.941164 -9.058824 -4.941164
v -4.941176 0.823529 -4.941164
v 4.941164 0.823529 -4.941164
v -4.941176 0.823529 4.941176
v 4.941164 0.823529 4.941176
v -4.941176 -9.058824 -4.941164
v 4.941164 -9.058824 -4.941164
v -4.941176 0.823529 -4.941164
v 4.941164 0.823529 -4.941164
v 4.941164 -9.058824 4.941176
v -4.941176 -9.058824 4.941176
v 4.941164 0.823529 4.941176
v -4.941176 0.823529 4.941176
v -4.929412 0.813882 4.931541
v -4.929412 0.813882 -4.929412
v -4.929412 -9.047059 4.931541
v -4.929412 -9.047059 -4.929412
v 4.931541 0.813882 -4.929412
v 4.931541 0.813882 4.931541
v 4.931541 -9.047059 -4.929412
v 4.931541 -9.047059 4.931541
v 4.931541 0.813882 -4.929412
v -4.929412 0.813882 -4.929412
v 4.931541 0.813882 4.931541
v -4.929412 0.813882 4.931541
v 4.931541 -9.047059 4.931541
v -4.929412 -9.047059 4.931541
v 4.931541 -9.047059 -4.929412
v -4.929412 -9.047059 -4.929412
v 4.931541 0.813882 4.931541
v -4.929412 0.813882 4.931541
v 4.931541 -9.047059 4.931541
v -4.929412 -9.047059 4.931541
v -4.929412 0.813882 -4.929412
v 4.931541 0.813882 -4.929412
v -4.929412 -9.047059 -4.929412
v 4.931541 -9.047059 -4.929412
v -4.637424 0.519765 4.637424
v -4.637424 0.519765 -4.635294
v -4.637424 -8.752941 4.637424
v -4.637424 -8.752941 -4.635294
v 4.635294 0.519765 -4.635294
v 4.635294 0.519765 4.637424
v 4.635294 -8.752941 -4.635294
v 4.635294 -8.752941 4.637424
v 4.635294 0.519765 -4.635294
v -4.637424 0.519765 -4.635294
v 4.635294 0.519765 4.637424
v -4.637424 0.519765 4.637424
v 4.635294 -8.752941 4.637424
v -4.637424 -8.752941 4.637424
v 4.635294 -8.752941 -4.635294
v -4.637424 -8.752941 -4.635294
v 4.635294 0.519765 4.637424
v -4.637424 0.519765 4.637424
v 4.635294 -8.752941 4.637424
v -4.637424 -8.752941 4.637424
v -4.637424 0.519765 -4.635294
v 4.635294 0.519765 -4.635294
v -4.637424 -8.752941 -4.635294
v 4.635294 -8.752941 -4.635294
v 4.647047 -8.764706 -4.647047
v 4.647047 -8.764706 4.647059
v 4.647047 0.529412 -4.647047
v 4.647047 0.529412 4.647059
v -4.647059 -8.764706 4.647059
v -4.647059 -8.764706 -4.647047
v -4.647059 0.529412 4.647059
v -4.647059 0.529412 -4.647047
v -4.647059 -8.764706 4.647059
v 4.647047 -8.764706 4.647059
v -4.647059 -8.764706 -4.647047
v 4.647047 -8.764706 -4.647047
v -4.647059 0.529412 -4.647047
v 4.647047 0.529412 -4.647047
v -4.647059 0.529412 4.647059
v 4.647047 0.529412 4.647059
v -4.647059 -8.764706 -4.647047
v 4.647047 -8.764706 -4.647047
v -4.647059 0.529412 -4.647047
v 4.647047 0.529412 -4.647047
v 4.647047 -8.764706 4.647059
v -4.647059 -8.764706 4.647059
v 4.647047 0.529412 4.647059
v -4.647059 0.529412 4.647059
vn 1.0000 -0.0000 -0.0000
vn -1.0000 -0.0000 -0.0000
vn -0.0000 -1.0000 -0.0000
vn -0.0000 1.0000 -0.0000
vn -0.0000 -0.0000 -1.0000
vn -0.0000 -0.0000 1.0000
vt 0.000000 0.875000
vt 0.000000 0.750000
vt 0.125000 0.875000
vt 0.125000 0.750000
vt 0.250000 0.875000
vt 0.250000 0.750000
vt 0.125000 0.625000
vt 0.000000 0.625000
vt 0.375000 1.000000
vt 0.375000 0.875000
vt 0.250000 1.000000
vt 0.125000 1.000000
vt 0.000000 1.000000
vt 0.375000 0.750000
vt 0.000000 0.500000
vt 0.125000 0.500000
vt 0.500000 0.875000
vt 0.500000 1.000000
vt 0.250000 0.625000
vt 0.250000 0.500000
vt 0.375000 0.625000
vt 0.375000 0.500000
vt 0.500000 0.625000
vt 0.500000 0.500000
vt 0.125000 0.375000
vt 0.000000 0.375000
vt 0.625000 1.000000
vt 0.625000 0.875000
vt 0.500000 0.750000
vt 0.000000 0.250000
vt 0.125000 0.250000
vt 0.250000 0.375000
vt 0.250000 0.250000
vt 0.750000 0.750000
vt 0.750000 0.875000
vt 0.625000 0.750000
vt 0.375000 0.375000
vt 0.375000 0.250000
vt 0.750000 1.000000
vt 0.500000 0.375000
vt 0.625000 0.500000
vt 0.625000 0.375000
vt 0.500000 0.250000
vt 0.625000 0.250000
vt 0.750000 0.375000
vt 0.750000 0.500000
vt 0.750000 0.250000
vt 0.625000 0.625000
vt 0.750000 0.625000
s 0
usemtl Material_0.001
f 1/1/1 3/2/1 2/3/1
f 3/2/1 4/4/1 2/3/1
f 5/3/2 7/4/2 6/5/2
f 7/4/2 8/6/2 6/5/2
f 9/7/3 11/4/3 10/8/3
f 11/4/3 12/2/3 10/8/3
f 13/9/4 15/10/4 14/11/4
f 15/10/4 16/5/4 14/11/4
f 17/12/5 19/3/5 18/11/5
f 19/3/5 20/5/5 18/11/5
f 21/13/6 23/1/6 22/12/6
f 23/1/6 24/3/6 22/12/6
f 25/5/1 27/6/1 26/10/1
f 27/6/1 28/14/1 26/10/1
f 29/8/2 31/15/2 30/7/2
f 31/15/2 32/16/2 30/7/2
f 33/17/3 35/18/3 34/10/3
f 35/18/3 36/9/3 34/10/3
f 37/19/4 39/20/4 38/7/4
f 39/20/4 40/16/4 38/7/4
f 41/6/5 43/19/5 42/14/5
f 43/19/5 44/21/5 42/14/5
f 45/4/6 47/7/6 46/6/6
f 47/7/6 48/19/6 46/6/6
f 49/19/1 51/20/1 50/21/1
f 51/20/1 52/22/1 50/21/1
f 53/21/2 55/22/2 54/23/2
f 55/22/2 56/24/2 54/23/2
f 57/25/3 59/16/3 58/26/3
f 59/16/3 60/15/3 58/26/3
f 61/27/4 63/28/4 62/18/4
f 63/28/4 64/17/4 62/18/4
f 65/14/5 67/21/5 66/29/5
f 67/21/5 68/23/5 66/29/5
f 69/10/6 71/14/6 70/17/6
f 71/14/6 72/29/6 70/17/6
f 73/26/1 75/30/1 74/25/1
f 75/30/1 76/31/1 74/25/1
f 77/25/2 79/31/2 78/32/2
f 79/31/2 80/33/2 78/32/2
f 81/34/3 83/35/3 82/36/3
f 83/35/3 84/28/3 82/36/3
f 85/37/4 87/38/4 86/32/4
f 87/38/4 88/33/4 86/32/4
f 89/27/5 91/28/5 90/39/5
f 91/28/5 92/35/5 90/39/5
f 93/24/6 95/40/6 94/41/6
f 95/40/6 96/42/6 94/41/6
f 97/37/1 99/38/1 98/40/1
f 99/38/1 100/43/1 98/40/1
f 101/40/2 103/43/2 102/42/2
f 103/43/2 104/44/2 102/42/2
f 105/45/3 107/46/3 106/42/3
f 107/46/3 108/41/3 106/42/3
f 109/45/4 111/47/4 110/42/4
f 111/47/4 112/44/4 110/42/4
f 113/48/5 115/41/5 114/49/5
f 115/41/5 116/46/5 114/49/5
f 117/36/6 119/48/6 118/34/6
f 119/48/6 120/49/6 118/34/6
f 121/17/1 123/29/1 122/28/1
f 123/29/1 124/36/1 122/28/1
f 125/29/2 127/23/2 126/36/2
f 127/23/2 128/48/2 126/36/2
f 129/40/3 131/24/3 130/37/3
f 131/24/3 132/22/3 130/37/3
f 133/48/4 135/41/4 134/23/4
f 135/41/4 136/24/4 134/23/4
f 137/20/5 139/32/5 138/22/5
f 139/32/5 140/37/5 138/22/5
f 141/16/6 143/25/6 142/20/6
f 143/25/6 144/32/6 142/20/6
