# Blender 5.0.1
# www.blender.org
mtllib lev.msv.mtl
o armorModel
v -4.827586 -1.091954 3.103448
v -4.827586 -1.091954 -3.103448
v -4.827586 13.160919 3.103448
v -4.827586 13.160919 -3.103448
v 4.827586 -1.091954 -3.103448
v 4.827586 -1.091954 3.103448
v 4.827586 13.160919 -3.103448
v 4.827586 13.160919 3.103448
v 4.827586 -1.091954 -3.103448
v -4.827586 -1.091954 -3.103448
v 4.827586 -1.091954 3.103448
v -4.827586 -1.091954 3.103448
v 4.827586 13.160919 3.103448
v -4.827586 13.160919 3.103448
v 4.827586 13.160919 -3.103448
v -4.827586 13.160919 -3.103448
v 4.827586 -1.091954 3.103448
v -4.827586 -1.091954 3.103448
v 4.827586 13.160919 3.103448
v -4.827586 13.160919 3.103448
v -4.827586 -1.091954 -3.103448
v 4.827586 -1.091954 -3.103448
v -4.827586 13.160919 -3.103448
v 4.827586 13.160919 -3.103448
v 4.826437 13.159771 -3.102299
v 4.826437 13.159771 3.102299
v 4.826437 -1.090805 -3.102299
v 4.826437 -1.090805 3.102299
v -4.826437 13.159771 3.102299
v -4.826437 13.159771 -3.102299
v -4.826437 -1.090805 3.102299
v -4.826437 -1.090805 -3.102299
v -4.826437 13.159771 3.102299
v 4.826437 13.159771 3.102299
v -4.826437 13.159771 -3.102299
v 4.826437 13.159771 -3.102299
v -4.826437 -1.090805 -3.102299
v 4.826437 -1.090805 -3.102299
v -4.826437 -1.090805 3.102299
v 4.826437 -1.090805 3.102299
v -4.826437 13.159771 -3.102299
v 4.826437 13.159771 -3.102299
v -4.826437 -1.090805 -3.102299
v 4.826437 -1.090805 -3.102299
v 4.826437 13.159771 3.102299
v -4.826437 13.159771 3.102299
v 4.826437 -1.090805 3.102299
v -4.826437 -1.090805 3.102299
v -4.597701 -0.862069 2.873563
v -4.597701 -0.862069 -2.873563
v -4.597701 12.931034 2.873563
v -4.597701 12.931034 -2.873563
v 4.597701 -0.862069 -2.873563
v 4.597701 -0.862069 2.873563
v 4.597701 12.931034 -2.873563
v 4.597701 12.931034 2.873563
v 4.597701 -0.862069 -2.873563
v -4.597701 -0.862069 -2.873563
v 4.597701 -0.862069 2.873563
v -4.597701 -0.862069 2.873563
v 4.597701 12.931034 2.873563
v -4.597701 12.931034 2.873563
v 4.597701 12.931034 -2.873563
v -4.597701 12.931034 -2.873563
v 4.597701 -0.862069 2.873563
v -4.597701 -0.862069 2.873563
v 4.597701 12.931034 2.873563
v -4.597701 12.931034 2.873563
v -4.597701 -0.862069 -2.873563
v 4.597701 -0.862069 -2.873563
v -4.597701 12.931034 -2.873563
v 4.597701 12.931034 -2.873563
v 4.586207 12.919540 -2.862069
v 4.586207 12.919540 2.862069
v 4.586207 -0.850575 -2.862069
v 4.586207 -0.850575 2.862069
v -4.586207 12.919540 2.862069
v -4.586207 12.919540 -2.862069
v -4.586207 -0.850575 2.862069
v -4.586207 -0.850575 -2.862069
v -4.586207 12.919540 2.862069
v 4.586207 12.919540 2.862069
v -4.586207 12.919540 -2.862069
v 4.586207 12.919540 -2.862069
v -4.586207 -0.850575 -2.862069
v 4.586207 -0.850575 -2.862069
v -4.586207 -0.850575 2.862069
v 4.586207 -0.850575 2.862069
v -4.586207 12.919540 -2.862069
v 4.586207 12.919540 -2.862069
v -4.586207 -0.850575 -2.862069
v 4.586207 -0.850575 -2.862069
v 4.586207 12.919540 2.862069
v -4.586207 12.919540 2.862069
v 4.586207 -0.850575 2.862069
v -4.586207 -0.850575 2.862069
v -3.448276 6.034482 -2.873563
v -3.448276 6.034482 -4.022988
v -3.448276 9.482759 -2.873563
v -3.448276 9.482759 -4.022988
v 3.448276 6.034482 -4.022988
v 3.448276 6.034482 -2.873563
v 3.448276 9.482759 -4.022988
v 3.448276 9.482759 -2.873563
v 3.448276 6.034482 -4.022988
v -3.448276 6.034482 -4.022988
v 3.448276 6.034482 -2.873563
v -3.448276 6.034482 -2.873563
v 3.448276 9.482759 -2.873563
v -3.448276 9.482759 -2.873563
v 3.448276 9.482759 -4.022988
v -3.448276 9.482759 -4.022988
v 3.448276 6.034482 -2.873563
v -3.448276 6.034482 -2.873563
v 3.448276 9.482759 -2.873563
v -3.448276 9.482759 -2.873563
v -3.448276 6.034482 -4.022988
v 3.448276 6.034482 -4.022988
v -3.448276 9.482759 -4.022988
v 3.448276 9.482759 -4.022988
v -3.505747 7.126436 -2.816092
v -3.505747 7.126436 -4.080460
v -3.505747 10.689655 -2.816092
v -3.505747 10.689655 -4.080460
v 3.505747 7.126436 -4.080460
v 3.505747 7.126436 -2.816092
v 3.505747 10.689655 -4.080460
v 3.505747 10.689655 -2.816092
v 3.505747 7.126436 -4.080460
v -3.505747 7.126436 -4.080460
v 3.505747 7.126436 -2.816092
v -3.505747 7.126436 -2.816092
v 3.505747 10.689655 -2.816092
v -3.505747 10.689655 -2.816092
v 3.505747 10.689655 -4.080460
v -3.505747 10.689655 -4.080460
v 3.505747 7.126436 -2.816092
v -3.505747 7.126436 -2.816092
v 3.505747 10.689655 -2.816092
v -3.505747 10.689655 -2.816092
v -3.505747 7.126436 -4.080460
v 3.505747 7.126436 -4.080460
v -3.505747 10.689655 -4.080460
v 3.505747 10.689655 -4.080460
v -2.931035 5.862069 -2.816092
v -2.931035 5.862069 -4.080460
v -2.931035 7.126436 -2.816092
v -2.931035 7.126436 -4.080460
v 2.931035 5.862069 -4.080460
v 2.931035 5.862069 -2.816092
v 2.931035 7.126436 -4.080460
v 2.931035 7.126436 -2.816092
v 2.931035 5.862069 -4.080460
v -2.931035 5.862069 -4.080460
v 2.931035 5.862069 -2.816092
v -2.931035 5.862069 -2.816092
v 2.931035 7.126436 -2.816092
v -2.931035 7.126436 -2.816092
v 2.931035 7.126436 -4.080460
v -2.931035 7.126436 -4.080460
v 2.931035 5.862069 -2.816092
v -2.931035 5.862069 -2.816092
v 2.931035 7.126436 -2.816092
v -2.931035 7.126436 -2.816092
v -2.931035 5.862069 -4.080460
v 2.931035 5.862069 -4.080460
v -2.931035 7.126436 -4.080460
v 2.931035 7.126436 -4.080460
v 4.540230 5.977010 -0.517241
v 4.540230 5.977010 -2.931035
v 4.540230 10.689654 -0.517241
v 4.540230 10.689654 -2.931035
v 5.804598 5.977010 -2.931035
v 5.804598 5.977010 -0.517241
v 5.804598 10.689654 -2.931035
v 5.804598 10.689654 -0.517241
v 5.804598 5.977010 -2.931035
v 4.540230 5.977010 -2.931035
v 5.804598 5.977010 -0.517241
v 4.540230 5.977010 -0.517241
v 5.804598 10.689654 -0.517241
v 4.540230 10.689654 -0.517241
v 5.804598 10.689654 -2.931035
v 4.540230 10.689654 -2.931035
v 5.804598 5.977010 -0.517241
v 4.540230 5.977010 -0.517241
v 5.804598 10.689654 -0.517241
v 4.540230 10.689654 -0.517241
v 4.540230 5.977010 -2.931035
v 5.804598 5.977010 -2.931035
v 4.540230 10.689654 -2.931035
v 5.804598 10.689654 -2.931035
v 4.597701 6.034482 -0.574713
v 4.597701 6.034482 -2.873563
v 4.597701 10.632183 -0.574713
v 4.597701 10.632183 -2.873563
v 5.747127 6.034482 -2.873563
v 5.747127 6.034482 -0.574713
v 5.747127 10.632183 -2.873563
v 5.747127 10.632183 -0.574713
v 5.747127 6.034482 -2.873563
v 4.597701 6.034482 -2.873563
v 5.747127 6.034482 -0.574713
v 4.597701 6.034482 -0.574713
v 5.747127 10.632183 -0.574713
v 4.597701 10.632183 -0.574713
v 5.747127 10.632183 -2.873563
v 4.597701 10.632183 -2.873563
v 5.747127 6.034482 -0.574713
v 4.597701 6.034482 -0.574713
v 5.747127 10.632183 -0.574713
v 4.597701 10.632183 -0.574713
v 4.597701 6.034482 -2.873563
v 5.747127 6.034482 -2.873563
v 4.597701 10.632183 -2.873563
v 5.747127 10.632183 -2.873563
v -5.804597 5.977010 -0.517241
v -5.804597 5.977010 -2.931035
v -5.804597 10.689654 -0.517241
v -5.804597 10.689654 -2.931035
v -4.540230 5.977010 -2.931035
v -4.540230 5.977010 -0.517241
v -4.540230 10.689654 -2.931035
v -4.540230 10.689654 -0.517241
v -4.540230 5.977010 -2.931035
v -5.804597 5.977010 -2.931035
v -4.540230 5.977010 -0.517241
v -5.804597 5.977010 -0.517241
v -4.540230 10.689654 -0.517241
v -5.804597 10.689654 -0.517241
v -4.540230 10.689654 -2.931035
v -5.804597 10.689654 -2.931035
v -4.540230 5.977010 -0.517241
v -5.804597 5.977010 -0.517241
v -4.540230 10.689654 -0.517241
v -5.804597 10.689654 -0.517241
v -5.804597 5.977010 -2.931035
v -4.540230 5.977010 -2.931035
v -5.804597 10.689654 -2.931035
v -4.540230 10.689654 -2.931035
v -5.747126 6.034482 -0.574713
v -5.747126 6.034482 -2.873563
v -5.747126 10.632183 -0.574713
v -5.747126 10.632183 -2.873563
v -4.597701 6.034482 -2.873563
v -4.597701 6.034482 -0.574713
v -4.597701 10.632183 -2.873563
v -4.597701 10.632183 -0.574713
v -4.597701 6.034482 -2.873563
v -5.747126 6.034482 -2.873563
v -4.597701 6.034482 -0.574713
v -5.747126 6.034482 -0.574713
v -4.597701 10.632183 -0.574713
v -5.747126 10.632183 -0.574713
v -4.597701 10.632183 -2.873563
v -5.747126 10.632183 -2.873563
v -4.597701 6.034482 -0.574713
v -5.747126 6.034482 -0.574713
v -4.597701 10.632183 -0.574713
v -5.747126 10.632183 -0.574713
v -5.747126 6.034482 -2.873563
v -4.597701 6.034482 -2.873563
v -5.747126 10.632183 -2.873563
v -4.597701 10.632183 -2.873563
v 4.310345 6.609195 3.160920
v 4.310345 6.609195 -0.287356
v 4.310345 10.057470 3.160920
v 4.310345 10.057470 -0.287356
v 5.459770 6.609195 -0.287356
v 5.459770 6.609195 3.160920
v 5.459770 10.057470 -0.287356
v 5.459770 10.057470 3.160920
v 5.459770 6.609195 -0.287356
v 4.310345 6.609195 -0.287356
v 5.459770 6.609195 3.160920
v 4.310345 6.609195 3.160920
v 5.459770 10.057470 3.160920
v 4.310345 10.057470 3.160920
v 5.459770 10.057470 -0.287356
v 4.310345 10.057470 -0.287356
v 5.459770 6.609195 3.160920
v 4.310345 6.609195 3.160920
v 5.459770 10.057470 3.160920
v 4.310345 10.057470 3.160920
v 4.310345 6.609195 -0.287356
v 5.459770 6.609195 -0.287356
v 4.310345 10.057470 -0.287356
v 5.459770 10.057470 -0.287356
v 4.252873 6.551723 3.218391
v 4.252873 6.551723 -0.344827
v 4.252873 10.114942 3.218391
v 4.252873 10.114942 -0.344827
v 5.517241 6.551723 -0.344827
v 5.517241 6.551723 3.218391
v 5.517241 10.114942 -0.344827
v 5.517241 10.114942 3.218391
v 5.517241 6.551723 -0.344827
v 4.252873 6.551723 -0.344827
v 5.517241 6.551723 3.218391
v 4.252873 6.551723 3.218391
v 5.517241 10.114942 3.218391
v 4.252873 10.114942 3.218391
v 5.517241 10.114942 -0.344827
v 4.252873 10.114942 -0.344827
v 5.517241 6.551723 3.218391
v 4.252873 6.551723 3.218391
v 5.517241 10.114942 3.218391
v 4.252873 10.114942 3.218391
v 4.252873 6.551723 -0.344827
v 5.517241 6.551723 -0.344827
v 4.252873 10.114942 -0.344827
v 5.517241 10.114942 -0.344827
vn -1.0000 -0.0000 -0.0000
vn 1.0000 -0.0000 -0.0000
vn -0.0000 -1.0000 -0.0000
vn -0.0000 1.0000 -0.0000
vn -0.0000 -0.0000 1.0000
vn -0.0000 -0.0000 -1.0000
vt 0.250000 1.000000
vt 0.250000 0.812500
vt 0.328125 1.000000
vt 0.328125 0.812500
vt 0.250000 0.625000
vt 0.328125 0.625000
vt 0.125000 0.546875
vt 0.125000 0.625000
vt 0.000000 0.546875
vt 0.000000 0.625000
vt 0.250000 0.546875
vt 0.125000 1.000000
vt 0.125000 0.812500
vt 0.000000 1.000000
vt 0.000000 0.812500
vt 0.375000 0.546875
vt 0.375000 0.625000
vt 0.406250 1.000000
vt 0.406250 0.812500
vt 0.406250 0.625000
vt 0.500000 0.546875
vt 0.500000 0.625000
vt 0.531250 1.000000
vt 0.531250 0.921875
vt 0.406250 0.921875
vt 0.531250 0.843750
vt 0.406250 0.843750
vt 0.078125 0.484375
vt 0.078125 0.437500
vt 0.093750 0.484375
vt 0.093750 0.437500
vt 0.109375 0.484375
vt 0.109375 0.437500
vt 0.500000 0.640625
vt 0.500000 0.656250
vt 0.406250 0.640625
vt 0.406250 0.656250
vt 0.406250 0.796875
vt 0.406250 0.750000
vt 0.500000 0.796875
vt 0.500000 0.750000
vt 0.500000 0.843750
vt 0.125000 0.484375
vt 0.125000 0.437500
vt 0.140625 0.484375
vt 0.140625 0.437500
vt 0.531250 0.531250
vt 0.531250 0.546875
vt 0.437500 0.531250
vt 0.437500 0.546875
vt 0.531250 0.515625
vt 0.437500 0.515625
vt 0.406250 0.703125
vt 0.500000 0.703125
vt 0.515625 0.765625
vt 0.515625 0.750000
vt 0.531250 0.765625
vt 0.531250 0.750000
vt 0.250000 0.484375
vt 0.250000 0.468750
vt 0.265625 0.484375
vt 0.265625 0.468750
vt 0.156250 0.484375
vt 0.156250 0.500000
vt 0.078125 0.500000
vt 0.578125 0.843750
vt 0.578125 0.828125
vt 0.500000 0.828125
vt 0.000000 0.500000
vt 0.000000 0.484375
vt 0.437500 0.500000
vt 0.515625 0.515625
vt 0.515625 0.500000
vt 0.187500 0.546875
vt 0.187500 0.484375
vt 0.218750 0.546875
vt 0.218750 0.484375
vt 0.515625 0.546875
vt 0.515625 0.578125
vt 0.500000 0.578125
vt 0.156250 0.453125
vt 0.140625 0.453125
vt 0.171875 0.500000
vt 0.171875 0.437500
vt 0.187500 0.500000
vt 0.187500 0.437500
vt 0.156250 0.437500
vt 0.281250 0.546875
vt 0.281250 0.484375
vt 0.312500 0.546875
vt 0.312500 0.484375
vt 0.531250 0.796875
vt 0.531250 0.828125
vt 0.515625 0.796875
vt 0.515625 0.828125
vt 0.203125 0.484375
vt 0.203125 0.453125
vt 0.187500 0.453125
vt 0.500000 0.765625
vt 0.515625 0.703125
vt 0.343750 0.546875
vt 0.343750 0.484375
vt 0.375000 0.484375
vt 0.218750 0.453125
vt 0.515625 0.640625
vt 0.406250 0.546875
vt 0.406250 0.484375
vt 0.437500 0.484375
vt 0.234375 0.453125
vt 0.234375 0.484375
vt 0.250000 0.453125
vt 0.453125 0.500000
vt 0.453125 0.437500
vt 0.468750 0.500000
vt 0.468750 0.437500
vt 0.437500 0.437500
vt 0.093750 0.546875
vt 0.093750 0.500000
vt 0.140625 0.546875
vt 0.140625 0.500000
vt 0.062500 0.437500
vt 0.062500 0.484375
vt 0.046875 0.437500
vt 0.046875 0.484375
vt 0.031250 0.484375
vt 0.031250 0.437500
vt 0.015625 0.484375
vt 0.015625 0.437500
vt 0.046875 0.546875
vt 0.046875 0.500000
vt 0.515625 0.453125
vt 0.500000 0.453125
vt 0.500000 0.500000
vt 0.000000 0.437500
vt 0.484375 0.500000
vt 0.484375 0.453125
vt 0.468750 0.453125
s 0
usemtl Material_0.002
f 1/1/1 3/2/1 2/3/1
f 3/2/1 4/4/1 2/3/1
f 5/2/2 7/5/2 6/4/2
f 7/5/2 8/6/2 6/4/2
f 9/7/3 11/8/3 10/9/3
f 11/8/3 12/10/3 10/9/3
f 13/5/4 15/11/4 14/8/4
f 15/11/4 16/7/4 14/8/4
f 17/12/5 19/13/5 18/1/5
f 19/13/5 20/2/5 18/1/5
f 21/14/6 23/15/6 22/12/6
f 23/15/6 24/13/6 22/12/6
f 25/2/1 27/5/1 26/4/1
f 27/5/1 28/6/1 26/4/1
f 29/2/2 31/1/2 30/4/2
f 31/1/2 32/3/2 30/4/2
f 33/16/3 35/17/3 34/11/3
f 35/17/3 36/5/3 34/11/3
f 37/7/4 39/8/4 38/9/4
f 39/8/4 40/10/4 38/9/4
f 41/15/5 43/14/5 42/13/5
f 43/14/5 44/12/5 42/13/5
f 45/13/6 47/12/6 46/2/6
f 47/12/6 48/1/6 46/2/6
f 49/3/1 51/4/1 50/18/1
f 51/4/1 52/19/1 50/18/1
f 53/4/2 55/6/2 54/19/2
f 55/6/2 56/20/2 54/19/2
f 57/16/3 59/17/3 58/21/3
f 59/17/3 60/22/3 58/21/3
f 61/23/4 63/24/4 62/18/4
f 63/24/4 64/25/4 62/18/4
f 65/13/5 67/8/5 66/2/5
f 67/8/5 68/5/5 66/2/5
f 69/15/6 71/10/6 70/13/6
f 71/10/6 72/8/6 70/13/6
f 73/6/1 75/4/1 74/20/1
f 75/4/1 76/19/1 74/20/1
f 77/4/2 79/3/2 78/19/2
f 79/3/2 80/18/2 78/19/2
f 81/26/3 83/24/3 82/27/3
f 83/24/3 84/25/3 82/27/3
f 85/21/4 87/22/4 86/16/4
f 87/22/4 88/17/4 86/16/4
f 89/10/5 91/15/5 90/8/5
f 91/15/5 92/13/5 90/8/5
f 93/8/6 95/13/6 94/5/6
f 95/13/6 96/2/6 94/5/6
f 97/28/1 99/29/1 98/30/1
f 99/29/1 100/31/1 98/30/1
f 101/30/2 103/31/2 102/32/2
f 103/31/2 104/33/2 102/32/2
f 105/34/3 107/35/3 106/36/3
f 107/35/3 108/37/3 106/36/3
f 109/34/4 111/22/4 110/36/4
f 111/22/4 112/20/4 110/36/4
f 113/38/5 115/39/5 114/40/5
f 115/39/5 116/41/5 114/40/5
f 117/27/6 119/38/6 118/42/6
f 119/38/6 120/40/6 118/42/6
f 121/32/1 123/33/1 122/43/1
f 123/33/1 124/44/1 122/43/1
f 125/43/2 127/44/2 126/45/2
f 127/44/2 128/46/2 126/45/2
f 129/47/3 131/48/3 130/49/3
f 131/48/3 132/50/3 130/49/3
f 133/47/4 135/51/4 134/49/4
f 135/51/4 136/52/4 134/49/4
f 137/53/5 139/37/5 138/54/5
f 139/37/5 140/35/5 138/54/5
f 141/39/6 143/53/6 142/41/6
f 143/53/6 144/54/6 142/41/6
f 145/55/1 147/56/1 146/57/1
f 147/56/1 148/58/1 146/57/1
f 149/59/2 151/60/2 150/61/2
f 151/60/2 152/62/2 150/61/2
f 153/63/3 155/64/3 154/28/3
f 155/64/3 156/65/3 154/28/3
f 157/66/4 159/67/4 158/42/4
f 159/67/4 160/68/4 158/42/4
f 161/69/5 163/70/5 162/65/5
f 163/70/5 164/28/5 162/65/5
f 165/52/6 167/71/6 166/72/6
f 167/71/6 168/73/6 166/72/6
f 169/74/1 171/75/1 170/76/1
f 171/75/1 172/77/1 170/76/1
f 173/76/2 175/77/2 174/11/2
f 175/77/2 176/59/2 174/11/2
f 177/78/3 179/79/3 178/21/3
f 179/79/3 180/80/3 178/21/3
f 181/63/4 183/81/4 182/45/4
f 183/81/4 184/82/4 182/45/4
f 185/83/5 187/84/5 186/85/5
f 187/84/5 188/86/5 186/85/5
f 189/64/6 191/87/6 190/83/6
f 191/87/6 192/84/6 190/83/6
f 193/11/1 195/59/1 194/88/1
f 195/59/1 196/89/1 194/88/1
f 197/88/2 199/89/2 198/90/2
f 199/89/2 200/91/2 198/90/2
f 201/92/3 203/93/3 202/94/3
f 203/93/3 204/95/3 202/94/3
f 205/96/4 207/97/4 206/75/4
f 207/97/4 208/98/4 206/75/4
f 209/99/5 211/54/5 210/55/5
f 211/54/5 212/100/5 210/55/5
f 213/68/6 215/99/6 214/95/6
f 215/99/6 216/55/6 214/95/6
f 217/90/1 219/91/1 218/101/1
f 219/91/1 220/102/1 218/101/1
f 221/101/2 223/102/2 222/16/2
f 223/102/2 224/103/2 222/16/2
f 225/104/3 227/77/3 226/97/3
f 227/77/3 228/96/3 226/97/3
f 229/92/4 231/57/4 230/94/4
f 231/57/4 232/55/4 230/94/4
f 233/34/5 235/80/5 234/105/5
f 235/80/5 236/79/5 234/105/5
f 237/54/6 239/34/6 238/100/6
f 239/34/6 240/105/6 238/100/6
f 241/16/1 243/103/1 242/106/1
f 243/103/1 244/107/1 242/106/1
f 245/106/2 247/107/2 246/50/2
f 247/107/2 248/108/2 246/50/2
f 249/109/3 251/110/3 250/104/3
f 251/110/3 252/77/3 250/104/3
f 253/59/4 255/111/4 254/110/4
f 255/111/4 256/109/4 254/110/4
f 257/112/5 259/113/5 258/114/5
f 259/113/5 260/115/5 258/114/5
f 261/71/6 263/116/6 262/112/6
f 263/116/6 264/113/6 262/112/6
f 265/117/1 267/118/1 266/119/1
f 267/118/1 268/120/1 266/119/1
f 269/119/2 271/120/2 270/74/2
f 271/120/2 272/85/2 270/74/2
f 273/121/3 275/122/3 274/123/3
f 275/122/3 276/124/3 274/123/3
f 277/28/4 279/29/4 278/122/4
f 279/29/4 280/121/4 278/122/4
f 281/125/5 283/126/5 282/124/5
f 283/126/5 284/123/5 282/124/5
f 285/127/6 287/128/6 286/125/6
f 287/128/6 288/126/6 286/125/6
f 289/9/1 291/69/1 290/129/1
f 291/69/1 292/130/1 290/129/1
f 293/129/2 295/130/2 294/117/2
f 295/130/2 296/118/2 294/117/2
f 297/131/3 299/73/3 298/132/3
f 299/73/3 300/133/3 298/132/3
f 301/127/4 303/128/4 302/70/4
f 303/128/4 304/134/4 302/70/4
f 305/135/5 307/136/5 306/133/5
f 307/136/5 308/132/5 306/133/5
f 309/114/6 311/137/6 310/135/6
f 311/137/6 312/136/6 310/135/6
