# Blender 5.0.0
# www.blender.org
mtllib lev.6b47_6b50_1.mtl
o headModel
v -4.929412 0.813882 4.931541
v -4.929412 0.813882 -4.929412
v -4.929412 -9.047059 4.931541
v -4.929412 -9.047059 -4.929412
v 4.931541 0.813882 -4.929412
v 4.931541 0.813882 4.931541
v 4.931541 -9.047059 -4.929412
v 4.931541 -9.047059 4.931541
v 4.931541 0.813882 -4.929412
v -4.929412 0.813882 -4.929412
v 4.931541 0.813882 4.931541
v -4.929412 0.813882 4.931541
v 4.931541 -9.047059 4.931541
v -4.929412 -9.047059 4.931541
v 4.931541 -9.047059 -4.929412
v -4.929412 -9.047059 -4.929412
v 4.931541 0.813882 4.931541
v -4.929412 0.813882 4.931541
v 4.931541 -9.047059 4.931541
v -4.929412 -9.047059 4.931541
v -4.929412 0.813882 -4.929412
v 4.931541 0.813882 -4.929412
v -4.929412 -9.047059 -4.929412
v 4.931541 -9.047059 -4.929412
v 4.824706 -5.295294 -4.824705
v 4.824706 -5.295294 -3.528235
v 4.824706 -1.528235 -4.824705
v 4.824706 -1.528235 -3.528235
v -4.824706 -5.295294 -3.528235
v -4.824706 -5.295294 -4.824705
v -4.824706 -1.528235 -3.528235
v -4.824706 -1.528235 -4.824705
v -4.824706 -5.295294 -3.528235
v 4.824706 -5.295294 -3.528235
v -4.824706 -5.295294 -4.824705
v 4.824706 -5.295294 -4.824705
v -4.824706 -1.528235 -4.824705
v 4.824706 -1.528235 -4.824705
v -4.824706 -1.528235 -3.528235
v 4.824706 -1.528235 -3.528235
v -4.824706 -5.295294 -4.824705
v 4.824706 -5.295294 -4.824705
v -4.824706 -1.528235 -4.824705
v 4.824706 -1.528235 -4.824705
v 4.824706 -5.295294 -3.528235
v -4.824706 -5.295294 -3.528235
v 4.824706 -1.528235 -3.528235
v -4.824706 -1.528235 -3.528235
v -4.823529 -1.529412 -3.529411
v -4.823529 -1.529412 -4.823529
v -4.823529 -5.294118 -3.529411
v -4.823529 -5.294118 -4.823529
v 4.823529 -1.529412 -4.823529
v 4.823529 -1.529412 -3.529411
v 4.823529 -5.294118 -4.823529
v 4.823529 -5.294118 -3.529411
v 4.823529 -1.529412 -4.823529
v -4.823529 -1.529412 -4.823529
v 4.823529 -1.529412 -3.529411
v -4.823529 -1.529412 -3.529411
v 4.823529 -5.294118 -3.529411
v -4.823529 -5.294118 -3.529411
v 4.823529 -5.294118 -4.823529
v -4.823529 -5.294118 -4.823529
v 4.823529 -1.529412 -3.529411
v -4.823529 -1.529412 -3.529411
v 4.823529 -5.294118 -3.529411
v -4.823529 -5.294118 -3.529411
v -4.823529 -1.529412 -4.823529
v 4.823529 -1.529412 -4.823529
v -4.823529 -5.294118 -4.823529
v 4.823529 -5.294118 -4.823529
v 4.707059 -6.471765 -4.795294
v 4.707059 -6.471765 4.618824
v 4.707059 -1.763529 -4.795294
v 4.707059 -1.763529 4.618824
v -4.707059 -6.471765 4.618824
v -4.707059 -6.471765 -4.795294
v -4.707059 -1.763529 4.618824
v -4.707059 -1.763529 -4.795294
v -4.707059 -6.471765 4.618824
v 4.707059 -6.471765 4.618824
v -4.707059 -6.471765 -4.795294
v 4.707059 -6.471765 -4.795294
v -4.707059 -1.763529 -4.795294
v 4.707059 -1.763529 -4.795294
v -4.707059 -1.763529 4.618824
v 4.707059 -1.763529 4.618824
v -4.707059 -6.471765 -4.795294
v 4.707059 -6.471765 -4.795294
v -4.707059 -1.763529 -4.795294
v 4.707059 -1.763529 -4.795294
v 4.707059 -6.471765 4.618824
v -4.707059 -6.471765 4.618824
v 4.707059 -1.763529 4.618824
v -4.707059 -1.763529 4.618824
v -4.705883 -1.764706 4.617647
v -4.705883 -1.764706 -4.794117
v -4.705883 -6.470588 4.617647
v -4.705883 -6.470588 -4.794117
v 4.705883 -1.764706 -4.794117
v 4.705883 -1.764706 4.617647
v 4.705883 -6.470588 -4.794117
v 4.705883 -6.470588 4.617647
v 4.705883 -1.764706 -4.794117
v -4.705883 -1.764706 -4.794117
v 4.705883 -1.764706 4.617647
v -4.705883 -1.764706 4.617647
v 4.705883 -6.470588 4.617647
v -4.705883 -6.470588 4.617647
v 4.705883 -6.470588 -4.794117
v -4.705883 -6.470588 -4.794117
v 4.705883 -1.764706 4.617647
v -4.705883 -1.764706 4.617647
v 4.705883 -6.470588 4.617647
v -4.705883 -6.470588 4.617647
v -4.705883 -1.764706 -4.794117
v 4.705883 -1.764706 -4.794117
v -4.705883 -6.470588 -4.794117
v 4.705883 -6.470588 -4.794117
v -4.705883 -5.294117 0.000000
v -4.705883 -5.294117 3.529412
v -4.705883 -4.117647 0.000000
v -4.705883 -4.117647 3.529412
v -5.294117 -5.294117 3.529412
v -5.294117 -5.294117 0.000000
v -5.294117 -4.117647 3.529412
v -5.294117 -4.117647 0.000000
v -5.294117 -5.294117 3.529412
v -4.705883 -5.294117 3.529412
v -5.294117 -5.294117 0.000000
v -4.705883 -5.294117 0.000000
v -5.294117 -4.117647 0.000000
v -4.705883 -4.117647 0.000000
v -5.294117 -4.117647 3.529412
v -4.705883 -4.117647 3.529412
v -5.294117 -5.294117 0.000000
v -4.705883 -5.294117 0.000000
v -5.294117 -4.117647 0.000000
v -4.705883 -4.117647 0.000000
v -4.705883 -5.294117 3.529412
v -5.294117 -5.294117 3.529412
v -4.705883 -4.117647 3.529412
v -5.294117 -4.117647 3.529412
v 5.294117 -5.294117 0.000000
v 5.294117 -5.294117 3.529412
v 5.294117 -4.117647 0.000000
v 5.294117 -4.117647 3.529412
v 4.705883 -5.294117 3.529412
v 4.705883 -5.294117 0.000000
v 4.705883 -4.117647 3.529412
v 4.705883 -4.117647 0.000000
v 4.705883 -5.294117 3.529412
v 5.294117 -5.294117 3.529412
v 4.705883 -5.294117 0.000000
v 5.294117 -5.294117 0.000000
v 4.705883 -4.117647 0.000000
v 5.294117 -4.117647 0.000000
v 4.705883 -4.117647 3.529412
v 5.294117 -4.117647 3.529412
v 4.705883 -5.294117 0.000000
v 5.294117 -5.294117 0.000000
v 4.705883 -4.117647 0.000000
v 5.294117 -4.117647 0.000000
v 5.294117 -5.294117 3.529412
v 4.705883 -5.294117 3.529412
v 5.294117 -4.117647 3.529412
v 4.705883 -4.117647 3.529412
v 4.588223 -8.705882 -4.588223
v 4.588223 -8.705882 4.588235
v 4.588223 0.470588 -4.588223
v 4.588223 0.470588 4.588235
v -4.588235 -8.705882 4.588235
v -4.588235 -8.705882 -4.588223
v -4.588235 0.470588 4.588235
v -4.588235 0.470588 -4.588223
v -4.588235 -8.705882 4.588235
v 4.588223 -8.705882 4.588235
v -4.588235 -8.705882 -4.588223
v 4.588223 -8.705882 -4.588223
v -4.588235 0.470588 -4.588223
v 4.588223 0.470588 -4.588223
v -4.588235 0.470588 4.588235
v 4.588223 0.470588 4.588235
v -4.588235 -8.705882 -4.588223
v 4.588223 -8.705882 -4.588223
v -4.588235 0.470588 -4.588223
v 4.588223 0.470588 -4.588223
v 4.588223 -8.705882 4.588235
v -4.588235 -8.705882 4.588235
v 4.588223 0.470588 4.588235
v -4.588235 0.470588 4.588235
v -4.578600 0.460941 4.578600
v -4.578600 0.460941 -4.576471
v -4.578600 -8.694118 4.578600
v -4.578600 -8.694118 -4.576471
v 4.576471 0.460941 -4.576471
v 4.576471 0.460941 4.578600
v 4.576471 -8.694118 -4.576471
v 4.576471 -8.694118 4.578600
v 4.576471 0.460941 -4.576471
v -4.578600 0.460941 -4.576471
v 4.576471 0.460941 4.578600
v -4.578600 0.460941 4.578600
v 4.576471 -8.694118 4.578600
v -4.578600 -8.694118 4.578600
v 4.576471 -8.694118 -4.576471
v -4.578600 -8.694118 -4.576471
v 4.576471 0.460941 4.578600
v -4.578600 0.460941 4.578600
v 4.576471 -8.694118 4.578600
v -4.578600 -8.694118 4.578600
v -4.578600 0.460941 -4.576471
v 4.576471 0.460941 -4.576471
v -4.578600 -8.694118 -4.576471
v 4.576471 -8.694118 -4.576471
v 4.941164 -9.058824 -4.941164
v 4.941164 -9.058824 4.941176
v 4.941164 0.823529 -4.941164
v 4.941164 0.823529 4.941176
v -4.941176 -9.058824 4.941176
v -4.941176 -9.058824 -4.941164
v -4.941176 0.823529 4.941176
v -4.941176 0.823529 -4.941164
v -4.941176 -9.058824 4.941176
v 4.941164 -9.058824 4.941176
v -4.941176 -9.058824 -4.941164
v 4.941164 -9.058824 -4.941164
v -4.941176 0.823529 -4.941164
v 4.941164 0.823529 -4.941164
v -4.941176 0.823529 4.941176
v 4.941164 0.823529 4.941176
v -4.941176 -9.058824 -4.941164
v 4.941164 -9.058824 -4.941164
v -4.941176 0.823529 -4.941164
v 4.941164 0.823529 -4.941164
v 4.941164 -9.058824 4.941176
v -4.941176 -9.058824 4.941176
v 4.941164 0.823529 4.941176
v -4.941176 0.823529 4.941176
v 4.705871 -8.823529 -4.705871
v 4.705871 -8.823529 4.705883
v 4.705871 0.588235 -4.705871
v 4.705871 0.588235 4.705883
v -4.705883 -8.823529 4.705883
v -4.705883 -8.823529 -4.705871
v -4.705883 0.588235 4.705883
v -4.705883 0.588235 -4.705871
v -4.705883 -8.823529 4.705883
v 4.705871 -8.823529 4.705883
v -4.705883 -8.823529 -4.705871
v 4.705871 -8.823529 -4.705871
v -4.705883 0.588235 -4.705871
v 4.705871 0.588235 -4.705871
v -4.705883 0.588235 4.705883
v 4.705871 0.588235 4.705883
v -4.705883 -8.823529 -4.705871
v 4.705871 -8.823529 -4.705871
v -4.705883 0.588235 -4.705871
v 4.705871 0.588235 -4.705871
v 4.705871 -8.823529 4.705883
v -4.705883 -8.823529 4.705883
v 4.705871 0.588235 4.705883
v -4.705883 0.588235 4.705883
v -4.694118 0.576471 4.694118
v -4.694118 0.576471 -4.694118
v -4.694118 -8.811765 4.694118
v -4.694118 -8.811765 -4.694118
v 4.694118 0.576471 -4.694118
v 4.694118 0.576471 4.694118
v 4.694118 -8.811765 -4.694118
v 4.694118 -8.811765 4.694118
v 4.694118 0.576471 -4.694118
v -4.694118 0.576471 -4.694118
v 4.694118 0.576471 4.694118
v -4.694118 0.576471 4.694118
v 4.694118 -8.811765 4.694118
v -4.694118 -8.811765 4.694118
v 4.694118 -8.811765 -4.694118
v -4.694118 -8.811765 -4.694118
v 4.694118 0.576471 4.694118
v -4.694118 0.576471 4.694118
v 4.694118 -8.811765 4.694118
v -4.694118 -8.811765 4.694118
v -4.694118 0.576471 -4.694118
v 4.694118 0.576471 -4.694118
v -4.694118 -8.811765 -4.694118
v 4.694118 -8.811765 -4.694118
vn 1.0000 -0.0000 -0.0000
vn -1.0000 -0.0000 -0.0000
vn -0.0000 -1.0000 -0.0000
vn -0.0000 1.0000 -0.0000
vn -0.0000 -0.0000 -1.0000
vn -0.0000 -0.0000 1.0000
vt 0.375000 0.500000
vt 0.375000 0.625000
vt 0.500000 0.500000
vt 0.500000 0.625000
vt 0.250000 0.500000
vt 0.250000 0.625000
vt 0.625000 1.000000
vt 0.625000 0.875000
vt 0.500000 1.000000
vt 0.500000 0.875000
vt 0.000000 0.375000
vt 0.000000 0.500000
vt 0.125000 0.375000
vt 0.125000 0.500000
vt 0.375000 0.750000
vt 0.375000 0.875000
vt 0.500000 0.750000
vt 0.843750 0.046875
vt 0.843750 0.000000
vt 0.859375 0.046875
vt 0.859375 0.000000
vt 0.875000 0.046875
vt 0.875000 0.000000
vt 0.875000 0.062500
vt 1.000000 0.062500
vt 1.000000 0.046875
vt 0.875000 0.078125
vt 1.000000 0.078125
vt 1.000000 0.000000
vt 0.875000 0.125000
vt 1.000000 0.125000
vt 0.718750 0.062500
vt 0.718750 0.000000
vt 0.843750 0.062500
vt 0.585938 0.187500
vt 0.585938 0.062500
vt 0.718750 0.187500
vt 0.851562 0.187500
vt 0.851562 0.062500
vt 0.875000 0.250000
vt 0.875000 0.187500
vt 1.000000 0.250000
vt 1.000000 0.187500
vt 0.593750 0.062500
vt 0.593750 0.000000
vt 0.531250 0.468750
vt 0.531250 0.453125
vt 0.578125 0.468750
vt 0.578125 0.453125
vt 0.546875 0.500000
vt 0.546875 0.484375
vt 0.593750 0.500000
vt 0.593750 0.484375
vt 0.546875 0.406250
vt 0.546875 0.453125
vt 0.531250 0.406250
vt 0.562500 0.453125
vt 0.562500 0.406250
vt 0.562500 0.437500
vt 0.562500 0.421875
vt 0.578125 0.437500
vt 0.578125 0.421875
vt 0.500000 0.484375
vt 0.500000 0.468750
vt 0.546875 0.468750
vt 0.515625 0.421875
vt 0.515625 0.468750
vt 0.500000 0.421875
vt 0.531250 0.421875
vt 0.562500 0.484375
vt 0.562500 0.468750
vt 0.578125 0.484375
vt 0.625000 0.625000
vt 0.625000 0.750000
vt 0.625000 0.500000
vt 0.375000 0.375000
vt 0.500000 0.375000
vt 0.250000 0.375000
vt 0.250000 0.875000
vt 0.250000 0.750000
vt 0.000000 0.625000
vt 0.125000 0.625000
vt 0.375000 1.000000
vt 0.125000 0.750000
vt 0.000000 0.875000
vt 0.000000 0.750000
vt 0.125000 0.875000
vt 0.250000 1.000000
vt 0.125000 1.000000
vt 0.000000 1.000000
s 0
usemtl Material_0.007
f 1/1/1 3/2/1 2/3/1
f 3/2/1 4/4/1 2/3/1
f 5/5/2 7/6/2 6/1/2
f 7/6/2 8/2/2 6/1/2
f 9/7/3 11/8/3 10/9/3
f 11/8/3 12/10/3 10/9/3
f 13/11/4 15/12/4 14/13/4
f 15/12/4 16/14/4 14/13/4
f 17/15/5 19/16/5 18/17/5
f 19/16/5 20/10/5 18/17/5
f 21/2/6 23/15/6 22/4/6
f 23/15/6 24/17/6 22/4/6
f 25/18/1 27/19/1 26/20/1
f 27/19/1 28/21/1 26/20/1
f 29/20/2 31/21/2 30/22/2
f 31/21/2 32/23/2 30/22/2
f 33/24/3 35/22/3 34/25/3
f 35/22/3 36/26/3 34/25/3
f 37/27/4 39/24/4 38/28/4
f 39/24/4 40/25/4 38/28/4
f 41/22/5 43/23/5 42/26/5
f 43/23/5 44/29/5 42/26/5
f 45/30/6 47/27/6 46/31/6
f 47/27/6 48/28/6 46/31/6
f 49/21/1 51/20/1 50/23/1
f 51/20/1 52/22/1 50/23/1
f 53/19/2 55/18/2 54/21/2
f 55/18/2 56/20/2 54/21/2
f 57/28/3 59/25/3 58/27/3
f 59/25/3 60/24/3 58/27/3
f 61/25/4 63/26/4 62/24/4
f 63/26/4 64/22/4 62/24/4
f 65/27/5 67/30/5 66/28/5
f 67/30/5 68/31/5 66/28/5
f 69/23/6 71/22/6 70/29/6
f 71/22/6 72/26/6 70/29/6
f 73/32/1 75/33/1 74/34/1
f 75/33/1 76/19/1 74/34/1
f 77/34/2 79/19/2 78/32/2
f 79/19/2 80/33/2 78/32/2
f 81/35/3 83/36/3 82/37/3
f 83/36/3 84/32/3 82/37/3
f 85/37/4 87/32/4 86/38/4
f 87/32/4 88/39/4 86/38/4
f 89/40/5 91/41/5 90/42/5
f 91/41/5 92/43/5 90/42/5
f 93/44/6 95/45/6 94/32/6
f 95/45/6 96/33/6 94/32/6
f 97/19/1 99/34/1 98/33/1
f 99/34/1 100/32/1 98/33/1
f 101/33/2 103/32/2 102/19/2
f 103/32/2 104/34/2 102/19/2
f 105/38/3 107/39/3 106/37/3
f 107/39/3 108/32/3 106/37/3
f 109/37/4 111/32/4 110/35/4
f 111/32/4 112/36/4 110/35/4
f 113/45/5 115/44/5 114/33/5
f 115/44/5 116/32/5 114/33/5
f 117/41/6 119/40/6 118/43/6
f 119/40/6 120/42/6 118/43/6
f 121/46/1 123/47/1 122/48/1
f 123/47/1 124/49/1 122/48/1
f 125/50/2 127/51/2 126/52/2
f 127/51/2 128/53/2 126/52/2
f 129/54/3 131/55/3 130/56/3
f 131/55/3 132/47/3 130/56/3
f 133/57/4 135/58/4 134/55/4
f 135/58/4 136/54/4 134/55/4
f 137/59/5 139/60/5 138/61/5
f 139/60/5 140/62/5 138/61/5
f 141/57/6 143/59/6 142/49/6
f 143/59/6 144/61/6 142/49/6
f 145/3/1 147/63/1 146/50/1
f 147/63/1 148/51/1 146/50/1
f 149/63/2 151/64/2 150/51/2
f 151/64/2 152/65/2 150/51/2
f 153/66/3 155/67/3 154/68/3
f 155/67/3 156/64/3 154/68/3
f 157/46/4 159/69/4 158/67/4
f 159/69/4 160/66/4 158/67/4
f 161/70/5 163/71/5 162/72/5
f 163/71/5 164/48/5 162/72/5
f 165/51/6 167/65/6 166/70/6
f 167/65/6 168/71/6 166/70/6
f 169/4/1 171/17/1 170/73/1
f 171/17/1 172/74/1 170/73/1
f 173/17/2 175/10/2 174/74/2
f 175/10/2 176/8/2 174/74/2
f 177/4/3 179/3/3 178/73/3
f 179/3/3 180/75/3 178/73/3
f 181/76/4 183/1/4 182/77/4
f 183/1/4 184/3/4 182/77/4
f 185/13/5 187/14/5 186/78/5
f 187/14/5 188/5/5 186/78/5
f 189/78/6 191/5/6 190/76/6
f 191/5/6 192/1/6 190/76/6
f 193/10/1 195/17/1 194/8/1
f 195/17/1 196/74/1 194/8/1
f 197/17/2 199/4/2 198/74/2
f 199/4/2 200/73/2 198/74/2
f 201/77/3 203/3/3 202/76/3
f 203/3/3 204/1/3 202/76/3
f 205/73/4 207/75/4 206/4/4
f 207/75/4 208/3/4 206/4/4
f 209/5/5 211/78/5 210/1/5
f 211/78/5 212/76/5 210/1/5
f 213/14/6 215/13/6 214/5/6
f 215/13/6 216/78/6 214/5/6
f 217/6/1 219/5/1 218/2/1
f 219/5/1 220/1/1 218/2/1
f 221/2/2 223/1/2 222/4/2
f 223/1/2 224/3/2 222/4/2
f 225/13/3 227/14/3 226/11/3
f 227/14/3 228/12/3 226/11/3
f 229/7/4 231/8/4 230/9/4
f 231/8/4 232/10/4 230/9/4
f 233/15/5 235/2/5 234/17/5
f 235/2/5 236/4/5 234/17/5
f 237/16/6 239/15/6 238/10/6
f 239/15/6 240/17/6 238/10/6
f 241/79/1 243/80/1 242/16/1
f 243/80/1 244/15/1 242/16/1
f 245/81/2 247/12/2 246/82/2
f 247/12/2 248/14/2 246/82/2
f 249/10/3 251/9/3 250/16/3
f 251/9/3 252/83/3 250/16/3
f 253/6/4 255/5/4 254/82/4
f 255/5/4 256/14/4 254/82/4
f 257/80/5 259/6/5 258/15/5
f 259/6/5 260/2/5 258/15/5
f 261/84/6 263/82/6 262/80/6
f 263/82/6 264/6/6 262/80/6
f 265/85/1 267/86/1 266/87/1
f 267/86/1 268/84/1 266/87/1
f 269/87/2 271/84/2 270/79/2
f 271/84/2 272/80/2 270/79/2
f 273/82/3 275/84/3 274/81/3
f 275/84/3 276/86/3 274/81/3
f 277/83/4 279/16/4 278/88/4
f 279/16/4 280/79/4 278/88/4
f 281/89/5 283/87/5 282/88/5
f 283/87/5 284/79/5 282/88/5
f 285/90/6 287/85/6 286/89/6
f 287/85/6 288/87/6 286/89/6
