# Blender 5.0.0
# www.blender.org
mtllib lev.pasgt_body.mtl
o armorModel
v -4.827586 -1.091954 3.103448
v -4.827586 -1.091954 -3.103448
v -4.827586 13.160919 3.103448
v -4.827586 13.160919 -3.103448
v 4.827586 -1.091954 -3.103448
v 4.827586 -1.091954 3.103448
v 4.827586 13.160919 -3.103448
v 4.827586 13.160919 3.103448
v 4.827586 -1.091954 -3.103448
v -4.827586 -1.091954 -3.103448
v 4.827586 -1.091954 3.103448
v -4.827586 -1.091954 3.103448
v 4.827586 13.160919 3.103448
v -4.827586 13.160919 3.103448
v 4.827586 13.160919 -3.103448
v -4.827586 13.160919 -3.103448
v 4.827586 -1.091954 3.103448
v -4.827586 -1.091954 3.103448
v 4.827586 13.160919 3.103448
v -4.827586 13.160919 3.103448
v -4.827586 -1.091954 -3.103448
v 4.827586 -1.091954 -3.103448
v -4.827586 13.160919 -3.103448
v 4.827586 13.160919 -3.103448
v 2.862069 1.034890 -2.717230
v 2.862069 -1.155644 2.571184
v 2.862069 -1.067733 -3.588165
v 2.862069 -3.258266 1.700249
v -2.862069 -1.155644 2.571184
v -2.862069 1.034890 -2.717230
v -2.862069 -3.258266 1.700249
v -2.862069 -1.067733 -3.588165
v -2.862069 -1.155644 2.571184
v 2.862069 -1.155644 2.571184
v -2.862069 1.034890 -2.717230
v 2.862069 1.034890 -2.717230
v -2.862069 -1.067733 -3.588165
v 2.862069 -1.067733 -3.588165
v -2.862069 -3.258266 1.700249
v 2.862069 -3.258266 1.700249
v -2.862069 1.034890 -2.717230
v 2.862069 1.034890 -2.717230
v -2.862069 -1.067733 -3.588165
v 2.862069 -1.067733 -3.588165
v 2.862069 -1.155644 2.571184
v -2.862069 -1.155644 2.571184
v 2.862069 -3.258266 1.700249
v -2.862069 -3.258266 1.700249
v -2.873563 -3.273284 1.706474
v -2.873563 -1.073953 -3.603179
v -2.873563 -1.149423 2.586206
v -2.873563 1.049908 -2.723446
v 2.873563 -1.073953 -3.603179
v 2.873563 -3.273284 1.706474
v 2.873563 1.049908 -2.723446
v 2.873563 -1.149423 2.586206
v 2.873563 -1.073953 -3.603179
v -2.873563 -1.073953 -3.603179
v 2.873563 -3.273284 1.706474
v -2.873563 -3.273284 1.706474
v 2.873563 -1.149423 2.586206
v -2.873563 -1.149423 2.586206
v 2.873563 1.049908 -2.723446
v -2.873563 1.049908 -2.723446
v 2.873563 -3.273284 1.706474
v -2.873563 -3.273284 1.706474
v 2.873563 -1.149423 2.586206
v -2.873563 -1.149423 2.586206
v -2.873563 -1.073953 -3.603179
v 2.873563 -1.073953 -3.603179
v -2.873563 1.049908 -2.723446
v 2.873563 1.049908 -2.723446
v 4.826437 13.159771 -3.102299
v 4.826437 13.159771 3.102299
v 4.826437 -1.090805 -3.102299
v 4.826437 -1.090805 3.102299
v -4.826437 13.159771 3.102299
v -4.826437 13.159771 -3.102299
v -4.826437 -1.090805 3.102299
v -4.826437 -1.090805 -3.102299
v -4.826437 13.159771 3.102299
v 4.826437 13.159771 3.102299
v -4.826437 13.159771 -3.102299
v 4.826437 13.159771 -3.102299
v -4.826437 -1.090805 -3.102299
v 4.826437 -1.090805 -3.102299
v -4.826437 -1.090805 3.102299
v 4.826437 -1.090805 3.102299
v -4.826437 13.159771 -3.102299
v 4.826437 13.159771 -3.102299
v -4.826437 -1.090805 -3.102299
v 4.826437 -1.090805 -3.102299
v 4.826437 13.159771 3.102299
v -4.826437 13.159771 3.102299
v 4.826437 -1.090805 3.102299
v -4.826437 -1.090805 3.102299
v -4.597701 -0.862069 2.873563
v -4.597701 -0.862069 -2.873563
v -4.597701 12.931034 2.873563
v -4.597701 12.931034 -2.873563
v 4.597701 -0.862069 -2.873563
v 4.597701 -0.862069 2.873563
v 4.597701 12.931034 -2.873563
v 4.597701 12.931034 2.873563
v 4.597701 -0.862069 -2.873563
v -4.597701 -0.862069 -2.873563
v 4.597701 -0.862069 2.873563
v -4.597701 -0.862069 2.873563
v 4.597701 12.931034 2.873563
v -4.597701 12.931034 2.873563
v 4.597701 12.931034 -2.873563
v -4.597701 12.931034 -2.873563
v 4.597701 -0.862069 2.873563
v -4.597701 -0.862069 2.873563
v 4.597701 12.931034 2.873563
v -4.597701 12.931034 2.873563
v -4.597701 -0.862069 -2.873563
v 4.597701 -0.862069 -2.873563
v -4.597701 12.931034 -2.873563
v 4.597701 12.931034 -2.873563
v 4.586207 12.919540 -2.862069
v 4.586207 12.919540 2.862069
v 4.586207 -0.850575 -2.862069
v 4.586207 -0.850575 2.862069
v -4.586207 12.919540 2.862069
v -4.586207 12.919540 -2.862069
v -4.586207 -0.850575 2.862069
v -4.586207 -0.850575 -2.862069
v -4.586207 12.919540 2.862069
v 4.586207 12.919540 2.862069
v -4.586207 12.919540 -2.862069
v 4.586207 12.919540 -2.862069
v -4.586207 -0.850575 -2.862069
v 4.586207 -0.850575 -2.862069
v -4.586207 -0.850575 2.862069
v 4.586207 -0.850575 2.862069
v -4.586207 12.919540 -2.862069
v 4.586207 12.919540 -2.862069
v -4.586207 -0.850575 -2.862069
v 4.586207 -0.850575 -2.862069
v 4.586207 12.919540 2.862069
v -4.586207 12.919540 2.862069
v 4.586207 -0.850575 2.862069
v -4.586207 -0.850575 2.862069
vn -1.0000 -0.0000 -0.0000
vn 1.0000 -0.0000 -0.0000
vn -0.0000 -1.0000 -0.0000
vn -0.0000 1.0000 -0.0000
vn -0.0000 -0.0000 1.0000
vn -0.0000 -0.0000 -1.0000
vn -0.0000 -0.9239 -0.3827
vn -0.0000 0.9239 0.3827
vn -0.0000 -0.3827 0.9239
vn -0.0000 0.3827 -0.9239
vt 0.250000 1.000000
vt 0.250000 0.812500
vt 0.328125 1.000000
vt 0.328125 0.812500
vt 0.250000 0.625000
vt 0.328125 0.625000
vt 0.125000 0.546875
vt 0.125000 0.625000
vt 0.000000 0.546875
vt 0.000000 0.625000
vt 0.250000 0.546875
vt 0.125000 1.000000
vt 0.125000 0.812500
vt 0.000000 1.000000
vt 0.000000 0.812500
vt 0.078125 0.515625
vt 0.078125 0.546875
vt 0.156250 0.515625
vt 0.156250 0.546875
vt 0.000000 0.515625
vt 0.406250 0.765625
vt 0.406250 0.687500
vt 0.500000 0.765625
vt 0.500000 0.687500
vt 0.406250 0.843750
vt 0.484375 0.765625
vt 0.484375 0.843750
vt 0.406250 0.656250
vt 0.484375 0.656250
vt 0.484375 0.687500
vt 0.406250 0.625000
vt 0.484375 0.625000
vt 0.375000 0.546875
vt 0.375000 0.625000
vt 0.406250 1.000000
vt 0.406250 0.812500
vt 0.500000 0.546875
vt 0.500000 0.625000
vt 0.531250 1.000000
vt 0.531250 0.921875
vt 0.406250 0.921875
vt 0.531250 0.843750
s 0
usemtl Material_0
f 1/1/1 3/2/1 2/3/1
f 3/2/1 4/4/1 2/3/1
f 5/5/2 7/2/2 6/6/2
f 7/2/2 8/4/2 6/6/2
f 9/7/3 11/8/3 10/9/3
f 11/8/3 12/10/3 10/9/3
f 13/5/4 15/11/4 14/8/4
f 15/11/4 16/7/4 14/8/4
f 17/12/5 19/13/5 18/1/5
f 19/13/5 20/2/5 18/1/5
f 21/14/6 23/15/6 22/12/6
f 23/15/6 24/13/6 22/12/6
f 25/16/1 27/17/1 26/18/1
f 27/17/1 28/19/1 26/18/1
f 29/20/2 31/9/2 30/16/2
f 31/9/2 32/17/2 30/16/2
f 33/21/7 35/22/7 34/23/7
f 35/22/7 36/24/7 34/23/7
f 37/21/8 39/25/8 38/26/8
f 39/25/8 40/27/8 38/26/8
f 41/28/9 43/22/9 42/29/9
f 43/22/9 44/30/9 42/29/9
f 45/31/10 47/28/10 46/32/10
f 47/28/10 48/29/10 46/32/10
f 49/9/1 51/20/1 50/17/1
f 51/20/1 52/16/1 50/17/1
f 53/17/2 55/16/2 54/19/2
f 55/16/2 56/18/2 54/19/2
f 57/26/7 59/27/7 58/21/7
f 59/27/7 60/25/7 58/21/7
f 61/26/8 63/30/8 62/21/8
f 63/30/8 64/22/8 62/21/8
f 65/28/9 67/31/9 66/29/9
f 67/31/9 68/32/9 66/29/9
f 69/22/10 71/28/10 70/30/10
f 71/28/10 72/29/10 70/30/10
f 73/2/1 75/5/1 74/4/1
f 75/5/1 76/6/1 74/4/1
f 77/2/2 79/1/2 78/4/2
f 79/1/2 80/3/2 78/4/2
f 81/33/3 83/34/3 82/11/3
f 83/34/3 84/5/3 82/11/3
f 85/9/4 87/10/4 86/7/4
f 87/10/4 88/8/4 86/7/4
f 89/15/5 91/14/5 90/13/5
f 91/14/5 92/12/5 90/13/5
f 93/13/6 95/12/6 94/2/6
f 95/12/6 96/1/6 94/2/6
f 97/3/1 99/4/1 98/35/1
f 99/4/1 100/36/1 98/35/1
f 101/4/2 103/6/2 102/36/2
f 103/6/2 104/31/2 102/36/2
f 105/37/3 107/38/3 106/33/3
f 107/38/3 108/34/3 106/33/3
f 109/39/4 111/40/4 110/35/4
f 111/40/4 112/41/4 110/35/4
f 113/13/5 115/8/5 114/2/5
f 115/8/5 116/5/5 114/2/5
f 117/15/6 119/10/6 118/13/6
f 119/10/6 120/8/6 118/13/6
f 121/6/1 123/4/1 122/31/1
f 123/4/1 124/36/1 122/31/1
f 125/4/2 127/3/2 126/36/2
f 127/3/2 128/35/2 126/36/2
f 129/42/3 131/40/3 130/25/3
f 131/40/3 132/41/3 130/25/3
f 133/33/4 135/34/4 134/37/4
f 135/34/4 136/38/4 134/37/4
f 137/10/5 139/15/5 138/8/5
f 139/15/5 140/13/5 138/8/5
f 141/8/6 143/13/6 142/5/6
f 143/13/6 144/2/6 142/5/6
