# Blender 4.3.2
# www.blender.org
mtllib lev.svdmcomp.mtl
o attachmentModel
v 0.000000 0.384615 0.384615
v 0.384615 0.384615 0.384615
v 0.000000 -0.384615 0.384615
v 0.384615 -0.384615 0.384615
v 0.384615 0.384615 -0.384615
v -0.000000 0.384615 -0.384615
v 0.384615 -0.384615 -0.384615
v -0.000000 -0.384615 -0.384615
v 0.384615 0.384615 -0.384615
v 0.384615 0.384615 0.384615
v -0.000000 0.384615 -0.384615
v 0.000000 0.384615 0.384615
v -0.000000 -0.384615 -0.384615
v 0.000000 -0.384615 0.384615
v 0.384615 -0.384615 -0.384615
v 0.384615 -0.384615 0.384615
v -0.000000 0.384615 -0.384615
v 0.000000 0.384615 0.384615
v -0.000000 -0.384615 -0.384615
v 0.000000 -0.384615 0.384615
v 0.384615 0.384615 0.384615
v 0.384615 0.384615 -0.384615
v 0.384615 -0.384615 0.384615
v 0.384615 -0.384615 -0.384615
v 0.384616 0.384615 0.385385
v 1.923077 0.384615 0.385385
v 0.384616 -0.384615 0.385385
v 1.923077 -0.384615 0.385385
v 1.923077 0.384615 0.384615
v 0.384616 0.384615 0.384615
v 1.923077 -0.384615 0.384615
v 0.384616 -0.384615 0.384615
v 1.923077 0.384615 0.384615
v 1.923077 0.384615 0.385385
v 0.384616 0.384615 0.384615
v 0.384616 0.384615 0.385385
v 0.384616 -0.384615 0.384615
v 0.384616 -0.384615 0.385385
v 1.923077 -0.384615 0.384615
v 1.923077 -0.384615 0.385385
v 0.384616 0.384615 0.384615
v 0.384616 0.384615 0.385385
v 0.384616 -0.384615 0.384615
v 0.384616 -0.384615 0.385385
v 1.923077 0.384615 0.385385
v 1.923077 0.384615 0.384615
v 1.923077 -0.384615 0.385385
v 1.923077 -0.384615 0.384615
v 0.384616 0.385385 0.384615
v 1.923077 0.385385 0.384615
v 0.384616 0.384615 0.384615
v 1.923077 0.384615 0.384615
v 1.923077 0.385385 -0.384615
v 0.384616 0.385385 -0.384615
v 1.923077 0.384615 -0.384615
v 0.384616 0.384615 -0.384615
v 1.923077 0.385385 -0.384615
v 1.923077 0.385385 0.384615
v 0.384616 0.385385 -0.384615
v 0.384616 0.385385 0.384615
v 0.384616 0.384615 -0.384615
v 0.384616 0.384615 0.384615
v 1.923077 0.384615 -0.384615
v 1.923077 0.384615 0.384615
v 0.384616 0.385385 -0.384615
v 0.384616 0.385385 0.384615
v 0.384616 0.384615 -0.384615
v 0.384616 0.384615 0.384615
v 1.923077 0.385385 0.384615
v 1.923077 0.385385 -0.384615
v 1.923077 0.384615 0.384615
v 1.923077 0.384615 -0.384615
v 0.384616 -0.383846 0.384615
v 1.923077 -0.383846 0.384615
v 0.384616 -0.384615 0.384615
v 1.923077 -0.384615 0.384615
v 1.923077 -0.383846 -0.384615
v 0.384616 -0.383846 -0.384615
v 1.923077 -0.384615 -0.384615
v 0.384616 -0.384615 -0.384615
v 1.923077 -0.383846 -0.384615
v 1.923077 -0.383846 0.384615
v 0.384616 -0.383846 -0.384615
v 0.384616 -0.383846 0.384615
v 0.384616 -0.384615 -0.384615
v 0.384616 -0.384615 0.384615
v 1.923077 -0.384615 -0.384615
v 1.923077 -0.384615 0.384615
v 0.384616 -0.383846 -0.384615
v 0.384616 -0.383846 0.384615
v 0.384616 -0.384615 -0.384615
v 0.384616 -0.384615 0.384615
v 1.923077 -0.383846 0.384615
v 1.923077 -0.383846 -0.384615
v 1.923077 -0.384615 0.384615
v 1.923077 -0.384615 -0.384615
v 0.384616 0.384615 -0.383846
v 1.923077 0.384615 -0.383846
v 0.384616 -0.384615 -0.383846
v 1.923077 -0.384615 -0.383846
v 1.923077 0.384615 -0.384615
v 0.384616 0.384615 -0.384615
v 1.923077 -0.384615 -0.384615
v 0.384616 -0.384615 -0.384615
v 1.923077 0.384615 -0.384615
v 1.923077 0.384615 -0.383846
v 0.384616 0.384615 -0.384615
v 0.384616 0.384615 -0.383846
v 0.384616 -0.384615 -0.384615
v 0.384616 -0.384615 -0.383846
v 1.923077 -0.384615 -0.384615
v 1.923077 -0.384615 -0.383846
v 0.384616 0.384615 -0.384615
v 0.384616 0.384615 -0.383846
v 0.384616 -0.384615 -0.384615
v 0.384616 -0.384615 -0.383846
v 1.923077 0.384615 -0.383846
v 1.923077 0.384615 -0.384615
v 1.923077 -0.384615 -0.383846
v 1.923077 -0.384615 -0.384615
v 1.922308 0.384615 0.384615
v 1.923077 0.384615 0.384615
v 1.922308 -0.384615 0.384615
v 1.923077 -0.384615 0.384615
v 1.923077 0.384615 -0.384615
v 1.922308 0.384615 -0.384615
v 1.923077 -0.384615 -0.384615
v 1.922308 -0.384615 -0.384615
v 1.923077 0.384615 -0.384615
v 1.923077 0.384615 0.384615
v 1.922308 0.384615 -0.384615
v 1.922308 0.384615 0.384615
v 1.922308 -0.384615 -0.384615
v 1.922308 -0.384615 0.384615
v 1.923077 -0.384615 -0.384615
v 1.923077 -0.384615 0.384615
v 1.922308 0.384615 -0.384615
v 1.922308 0.384615 0.384615
v 1.922308 -0.384615 -0.384615
v 1.922308 -0.384615 0.384615
v 1.923077 0.384615 0.384615
v 1.923077 0.384615 -0.384615
v 1.923077 -0.384615 0.384615
v 1.923077 -0.384615 -0.384615
vn -0.0000 -0.0000 1.0000
vn -0.0000 -0.0000 -1.0000
vn -0.0000 1.0000 -0.0000
vn -0.0000 -1.0000 -0.0000
vn -1.0000 -0.0000 -0.0000
vn 1.0000 -0.0000 -0.0000
vt 0.406250 0.812500
vt 0.406250 0.750000
vt 0.437500 0.812500
vt 0.437500 0.750000
vt 0.375000 0.750000
vt 0.375000 0.687500
vt 0.406250 0.687500
vt 0.375000 0.562500
vt 0.375000 0.593750
vt 0.312500 0.562500
vt 0.312500 0.593750
vt 0.437500 0.656250
vt 0.437500 0.625000
vt 0.375000 0.656250
vt 0.375000 0.625000
vt 0.250000 0.625000
vt 0.250000 0.562500
vt 0.312500 0.625000
vt 0.187500 0.625000
vt 0.187500 0.562500
vt 0.031250 1.000000
vt 0.031250 0.937500
vt 0.187500 1.000000
vt 0.187500 0.937500
vt 0.031250 0.875000
vt 0.156250 0.937500
vt 0.156250 0.875000
vt 0.000000 0.781250
vt 0.000000 1.000000
vt 0.000000 0.937500
vt 0.218750 1.000000
vt 0.000000 0.687500
vt 0.000000 0.812500
vt 0.062500 0.687500
vt 0.062500 0.812500
vt 0.125000 0.812500
vt 0.125000 0.687500
vt 0.062500 1.000000
vt 0.187500 0.687500
vt 0.187500 0.812500
vt 0.250000 0.843750
vt 0.250000 0.687500
vt 0.187500 0.843750
vt 0.312500 1.000000
vt 0.312500 0.937500
vt 0.437500 1.000000
vt 0.437500 0.937500
vt 0.281250 0.937500
vt 0.281250 0.875000
vt 0.406250 0.937500
vt 0.406250 0.875000
vt 0.000000 0.562500
vt 0.000000 0.500000
vt 0.062500 0.562500
vt 0.062500 0.500000
vt 0.437500 0.562500
s 0
usemtl Material_0
f 1/1/1 3/2/1 2/3/1
f 3/2/1 4/4/1 2/3/1
f 5/5/2 7/6/2 6/2/2
f 7/6/2 8/7/2 6/2/2
f 9/8/3 11/9/3 10/10/3
f 11/9/3 12/11/3 10/10/3
f 13/12/4 15/13/4 14/14/4
f 15/13/4 16/15/4 14/14/4
f 17/16/5 19/17/5 18/18/5
f 19/17/5 20/10/5 18/18/5
f 21/19/6 23/20/6 22/16/6
f 23/20/6 24/17/6 22/16/6
f 25/21/1 27/22/1 26/23/1
f 27/22/1 28/24/1 26/23/1
f 29/22/2 31/25/2 30/26/2
f 31/25/2 32/27/2 30/26/2
f 33/28/3 35/29/3 34/28/3
f 35/29/3 36/29/3 34/28/3
f 37/29/4 39/28/4 38/29/4
f 39/28/4 40/28/4 38/29/4
f 41/29/5 43/30/5 42/29/5
f 43/30/5 44/30/5 42/29/5
f 45/29/6 47/30/6 46/29/6
f 47/30/6 48/30/6 46/29/6
f 49/29/1 51/29/1 50/31/1
f 51/29/1 52/31/1 50/31/1
f 53/29/2 55/29/2 54/31/2
f 55/29/2 56/31/2 54/31/2
f 57/32/3 59/33/3 58/34/3
f 59/33/3 60/35/3 58/34/3
f 61/35/4 63/34/4 62/36/4
f 63/34/4 64/37/4 62/36/4
f 65/29/5 67/29/5 66/38/5
f 67/29/5 68/38/5 66/38/5
f 69/29/6 71/29/6 70/38/6
f 71/29/6 72/38/6 70/38/6
f 73/29/1 75/29/1 74/31/1
f 75/29/1 76/31/1 74/31/1
f 77/29/2 79/29/2 78/31/2
f 79/29/2 80/31/2 78/31/2
f 81/39/3 83/40/3 82/37/3
f 83/40/3 84/36/3 82/37/3
f 85/41/4 87/42/4 86/43/4
f 87/42/4 88/39/4 86/43/4
f 89/29/5 91/29/5 90/38/5
f 91/29/5 92/38/5 90/38/5
f 93/29/6 95/29/6 94/38/6
f 95/29/6 96/38/6 94/38/6
f 97/44/1 99/45/1 98/46/1
f 99/45/1 100/47/1 98/46/1
f 101/48/2 103/49/2 102/50/2
f 103/49/2 104/51/2 102/50/2
f 105/28/3 107/29/3 106/28/3
f 107/29/3 108/29/3 106/28/3
f 109/29/4 111/28/4 110/29/4
f 111/28/4 112/28/4 110/29/4
f 113/29/5 115/30/5 114/29/5
f 115/30/5 116/30/5 114/29/5
f 117/29/6 119/30/6 118/29/6
f 119/30/6 120/30/6 118/29/6
f 121/29/1 123/30/1 122/29/1
f 123/30/1 124/30/1 122/29/1
f 125/29/2 127/30/2 126/29/2
f 127/30/2 128/30/2 126/29/2
f 129/38/3 131/38/3 130/29/3
f 131/38/3 132/29/3 130/29/3
f 133/38/4 135/38/4 134/29/4
f 135/38/4 136/29/4 134/29/4
f 137/52/5 139/53/5 138/54/5
f 139/53/5 140/55/5 138/54/5
f 141/15/6 143/8/6 142/13/6
f 143/8/6 144/56/6 142/13/6
