# Blender 4.3.2
# www.blender.org
mtllib lev.grozasup.mtl
o attachmentModel
v 0.000000 0.576923 0.576923
v 7.307692 0.576923 0.576922
v 0.000000 -0.576923 0.576923
v 7.307692 -0.576923 0.576922
v 7.307692 0.576923 -0.576925
v -0.000000 0.576923 -0.576923
v 7.307692 -0.576923 -0.576925
v -0.000000 -0.576923 -0.576923
v 7.307692 0.576923 -0.576925
v 7.307692 0.576923 0.576922
v -0.000000 0.576923 -0.576923
v 0.000000 0.576923 0.576923
v -0.000000 -0.576923 -0.576923
v 0.000000 -0.576923 0.576923
v 7.307692 -0.576923 -0.576925
v 7.307692 -0.576923 0.576922
v -0.000000 0.576923 -0.576923
v 0.000000 0.576923 0.576923
v -0.000000 -0.576923 -0.576923
v 0.000000 -0.576923 0.576923
v 7.307692 0.576923 0.576922
v 7.307692 0.576923 -0.576925
v 7.307692 -0.576923 0.576922
v 7.307692 -0.576923 -0.576925
v 0.384616 0.769231 0.769231
v 3.461539 0.769231 0.769230
v 0.384616 -0.769231 0.769231
v 3.461539 -0.769231 0.769230
v 3.461538 0.769231 -0.769231
v 0.384615 0.769231 -0.769231
v 3.461538 -0.769231 -0.769231
v 0.384615 -0.769231 -0.769231
v 3.461538 0.769231 -0.769231
v 3.461539 0.769231 0.769230
v 0.384615 0.769231 -0.769231
v 0.384616 0.769231 0.769231
v 0.384615 -0.769231 -0.769231
v 0.384616 -0.769231 0.769231
v 3.461538 -0.769231 -0.769231
v 3.461539 -0.769231 0.769230
v 0.384615 0.769231 -0.769231
v 0.384616 0.769231 0.769231
v 0.384615 -0.769231 -0.769231
v 0.384616 -0.769231 0.769231
v 3.461539 0.769231 0.769230
v 3.461538 0.769231 -0.769231
v 3.461539 -0.769231 0.769230
v 3.461538 -0.769231 -0.769231
v 7.314615 0.384615 0.384614
v 7.315384 0.384615 0.384614
v 7.314615 -0.384615 0.384614
v 7.315384 -0.384615 0.384614
v 7.315384 0.384615 -0.384617
v 7.314615 0.384615 -0.384617
v 7.315384 -0.384615 -0.384617
v 7.314615 -0.384615 -0.384617
v 7.315384 0.384615 -0.384617
v 7.315384 0.384615 0.384614
v 7.314615 0.384615 -0.384617
v 7.314615 0.384615 0.384614
v 7.314615 -0.384615 -0.384617
v 7.314615 -0.384615 0.384614
v 7.315384 -0.384615 -0.384617
v 7.315384 -0.384615 0.384614
v 7.314615 0.384615 -0.384617
v 7.314615 0.384615 0.384614
v 7.314615 -0.384615 -0.384617
v 7.314615 -0.384615 0.384614
v 7.315384 0.384615 0.384614
v 7.315384 0.384615 -0.384617
v 7.315384 -0.384615 0.384614
v 7.315384 -0.384615 -0.384617
vn -0.0000 -0.0000 1.0000
vn -0.0000 -0.0000 -1.0000
vn -0.0000 1.0000 -0.0000
vn -0.0000 -1.0000 -0.0000
vn -1.0000 -0.0000 -0.0000
vn 1.0000 -0.0000 -0.0000
vt 0.000000 1.000000
vt 0.000000 0.906250
vt 0.593750 1.000000
vt 0.593750 0.906250
vt 0.000000 0.875000
vt 0.000000 0.781250
vt 0.593750 0.875000
vt 0.593750 0.781250
vt 0.093750 0.156250
vt 0.093750 0.750000
vt 0.000000 0.156250
vt 0.000000 0.750000
vt 0.218750 0.750000
vt 0.218750 0.156250
vt 0.125000 0.750000
vt 0.125000 0.156250
vt 0.625000 0.875000
vt 0.625000 0.781250
vt 0.718750 0.875000
vt 0.718750 0.781250
vt 0.625000 1.000000
vt 0.625000 0.906250
vt 0.718750 1.000000
vt 0.718750 0.906250
vt 0.250000 0.750000
vt 0.250000 0.625000
vt 0.500000 0.750000
vt 0.500000 0.625000
vt 0.250000 0.500000
vt 0.500000 0.500000
vt 0.375000 0.250000
vt 0.375000 0.500000
vt 0.250000 0.250000
vt 0.625000 0.750000
vt 0.625000 0.500000
vt 0.500000 0.375000
vt 0.625000 0.375000
vt 0.375000 0.375000
vt 0.000000 0.937500
vt 0.062500 1.000000
vt 0.625000 0.687500
vt 0.625000 0.625000
vt 0.687500 0.687500
vt 0.687500 0.625000
vt 0.687500 0.750000
s 0
usemtl Material_0.001
f 1/1/1 3/2/1 2/3/1
f 3/2/1 4/4/1 2/3/1
f 5/5/2 7/6/2 6/7/2
f 7/6/2 8/8/2 6/7/2
f 9/9/3 11/10/3 10/11/3
f 11/10/3 12/12/3 10/11/3
f 13/13/4 15/14/4 14/15/4
f 15/14/4 16/16/4 14/15/4
f 17/17/5 19/18/5 18/19/5
f 19/18/5 20/20/5 18/19/5
f 21/21/6 23/22/6 22/23/6
f 23/22/6 24/24/6 22/23/6
f 25/25/1 27/26/1 26/27/1
f 27/26/1 28/28/1 26/27/1
f 29/26/2 31/29/2 30/28/2
f 31/29/2 32/30/2 30/28/2
f 33/31/3 35/32/3 34/33/3
f 35/32/3 36/29/3 34/33/3
f 37/34/4 39/35/4 38/27/4
f 39/35/4 40/30/4 38/27/4
f 41/30/5 43/36/5 42/35/5
f 43/36/5 44/37/5 42/35/5
f 45/32/6 47/38/6 46/30/6
f 47/38/6 48/36/6 46/30/6
f 49/1/1 51/39/1 50/1/1
f 51/39/1 52/39/1 50/1/1
f 53/1/2 55/39/2 54/1/2
f 55/39/2 56/39/2 54/1/2
f 57/40/3 59/40/3 58/1/3
f 59/40/3 60/1/3 58/1/3
f 61/40/4 63/40/4 62/1/4
f 63/40/4 64/1/4 62/1/4
f 65/41/5 67/42/5 66/43/5
f 67/42/5 68/44/5 66/43/5
f 69/34/6 71/41/6 70/45/6
f 71/41/6 72/43/6 70/45/6
