# Blender 4.2.3 LTS
# www.blender.org
mtllib lev.apb.mtl
o attachmentModel
v 0.000000 0.192308 0.576923
v 6.923077 0.192308 0.576922
v 0.000000 -0.961538 0.576923
v 6.923077 -0.961538 0.576922
v 6.923077 0.192308 -0.576924
v -0.000000 0.192308 -0.576923
v 6.923077 -0.961538 -0.576924
v -0.000000 -0.961538 -0.576923
v 6.923077 0.192308 -0.576924
v 6.923077 0.192308 0.576922
v -0.000000 0.192308 -0.576923
v 0.000000 0.192308 0.576923
v -0.000000 -0.961538 -0.576923
v 0.000000 -0.961538 0.576923
v 6.923077 -0.961538 -0.576924
v 6.923077 -0.961538 0.576922
v -0.000000 0.192308 -0.576923
v 0.000000 0.192308 0.576923
v -0.000000 -0.961538 -0.576923
v 0.000000 -0.961538 0.576923
v 6.923077 0.192308 0.576922
v 6.923077 0.192308 -0.576924
v 6.923077 -0.961538 0.576922
v 6.923077 -0.961538 -0.576924
v 6.929999 0.192308 0.384614
v 6.930769 0.192308 0.384614
v 6.929999 -0.576923 0.384614
v 6.930769 -0.576923 0.384614
v 6.930769 0.192308 -0.384617
v 6.929999 0.192308 -0.384617
v 6.930769 -0.576923 -0.384617
v 6.929999 -0.576923 -0.384617
v 6.930769 0.192308 -0.384617
v 6.930769 0.192308 0.384614
v 6.929999 0.192308 -0.384617
v 6.929999 0.192308 0.384614
v 6.929999 -0.576923 -0.384617
v 6.929999 -0.576923 0.384614
v 6.930769 -0.576923 -0.384617
v 6.930769 -0.576923 0.384614
v 6.929999 0.192308 -0.384617
v 6.929999 0.192308 0.384614
v 6.929999 -0.576923 -0.384617
v 6.929999 -0.576923 0.384614
v 6.930769 0.192308 0.384614
v 6.930769 0.192308 -0.384617
v 6.930769 -0.576923 0.384614
v 6.930769 -0.576923 -0.384617
v -0.000769 0.192308 0.384615
v 0.000000 0.192308 0.384615
v -0.000769 -0.576923 0.384615
v 0.000000 -0.576923 0.384615
v -0.000000 0.192308 -0.384615
v -0.000769 0.192308 -0.384615
v -0.000000 -0.576923 -0.384615
v -0.000769 -0.576923 -0.384615
v -0.000000 0.192308 -0.384615
v 0.000000 0.192308 0.384615
v -0.000769 0.192308 -0.384615
v -0.000769 0.192308 0.384615
v -0.000769 -0.576923 -0.384615
v -0.000769 -0.576923 0.384615
v -0.000000 -0.576923 -0.384615
v 0.000000 -0.576923 0.384615
v -0.000769 0.192308 -0.384615
v -0.000769 0.192308 0.384615
v -0.000769 -0.576923 -0.384615
v -0.000769 -0.576923 0.384615
v 0.000000 0.192308 0.384615
v -0.000000 0.192308 -0.384615
v 0.000000 -0.576923 0.384615
v -0.000000 -0.576923 -0.384615
vn -0.0000 -0.0000 1.0000
vn -0.0000 -0.0000 -1.0000
vn -0.0000 1.0000 -0.0000
vn -0.0000 -1.0000 -0.0000
vn -1.0000 -0.0000 -0.0000
vn 1.0000 -0.0000 -0.0000
vt 0.562500 0.875000
vt 0.562500 0.781250
vt 0.000000 0.875000
vt 0.000000 0.781250
vt 0.093750 0.187500
vt 0.093750 0.750000
vt 0.000000 0.187500
vt 0.000000 0.750000
vt 0.218750 0.750000
vt 0.218750 0.187500
vt 0.125000 0.750000
vt 0.125000 0.187500
vt 0.250000 0.625000
vt 0.250000 0.531250
vt 0.343750 0.625000
vt 0.343750 0.531250
vt 0.250000 0.750000
vt 0.250000 0.656250
vt 0.343750 0.750000
vt 0.343750 0.656250
vt 0.000000 1.000000
vt 0.000000 0.937500
vt 0.062500 1.000000
vt 0.375000 0.750000
vt 0.375000 0.687500
vt 0.437500 0.750000
vt 0.437500 0.687500
vt 0.437500 1.000000
vt 0.437500 0.937500
vt 0.500000 1.000000
vt 0.500000 0.937500
s 0
usemtl Material_0
f 1/1/1 3/2/1 2/3/1
f 3/2/1 4/4/1 2/3/1
f 5/3/2 7/4/2 6/1/2
f 7/4/2 8/2/2 6/1/2
f 9/5/3 11/6/3 10/7/3
f 11/6/3 12/8/3 10/7/3
f 13/9/4 15/10/4 14/11/4
f 15/10/4 16/12/4 14/11/4
f 17/13/5 19/14/5 18/15/5
f 19/14/5 20/16/5 18/15/5
f 21/17/6 23/18/6 22/19/6
f 23/18/6 24/20/6 22/19/6
f 25/21/1 27/22/1 26/21/1
f 27/22/1 28/22/1 26/21/1
f 29/21/2 31/22/2 30/21/2
f 31/22/2 32/22/2 30/21/2
f 33/23/3 35/23/3 34/21/3
f 35/23/3 36/21/3 34/21/3
f 37/23/4 39/23/4 38/21/4
f 39/23/4 40/21/4 38/21/4
f 41/24/5 43/25/5 42/26/5
f 43/25/5 44/27/5 42/26/5
f 45/24/6 47/25/6 46/26/6
f 47/25/6 48/27/6 46/26/6
f 49/21/1 51/22/1 50/21/1
f 51/22/1 52/22/1 50/21/1
f 53/21/2 55/22/2 54/21/2
f 55/22/2 56/22/2 54/21/2
f 57/23/3 59/23/3 58/21/3
f 59/23/3 60/21/3 58/21/3
f 61/23/4 63/23/4 62/21/4
f 63/23/4 64/21/4 62/21/4
f 65/28/5 67/29/5 66/30/5
f 67/29/5 68/31/5 66/30/5
f 69/24/6 71/25/6 70/26/6
f 71/25/6 72/27/6 70/26/6
