# Blender 5.0.1
# www.blender.org
mtllib lev.glr17.mtl
o attachmentModel
v 0.384615 0.384615 1.537692
v 0.384615 0.384615 -0.000769
v 0.384615 -0.384615 1.537692
v 0.384615 -0.384615 -0.000769
v -0.384615 0.384615 -0.000769
v -0.384615 0.384615 1.537692
v -0.384615 -0.384615 -0.000769
v -0.384615 -0.384615 1.537692
v -0.384615 0.384615 -0.000769
v 0.384615 0.384615 -0.000769
v -0.384615 0.384615 1.537692
v 0.384615 0.384615 1.537692
v -0.384615 -0.384615 1.537692
v 0.384615 -0.384615 1.537692
v -0.384615 -0.384615 -0.000769
v 0.384615 -0.384615 -0.000769
v -0.384615 0.384615 1.537692
v 0.384615 0.384615 1.537692
v -0.384615 -0.384615 1.537692
v 0.384615 -0.384615 1.537692
v 0.384615 0.384615 -0.000769
v -0.384615 0.384615 -0.000769
v 0.384615 -0.384615 -0.000769
v -0.384615 -0.384615 -0.000769
v 0.384615 1.450630 -0.441558
v 0.384615 1.450336 -0.442269
v 0.384615 0.384615 -0.000000
v 0.384615 0.384321 -0.000711
v -0.384615 1.450336 -0.442269
v -0.384615 1.450630 -0.441558
v -0.384615 0.384321 -0.000711
v -0.384615 0.384615 -0.000000
v -0.384615 1.450336 -0.442269
v 0.384615 1.450336 -0.442269
v -0.384615 1.450630 -0.441558
v 0.384615 1.450630 -0.441558
v -0.384615 0.384615 -0.000000
v 0.384615 0.384615 -0.000000
v -0.384615 0.384321 -0.000711
v 0.384615 0.384321 -0.000711
v -0.384615 1.450630 -0.441558
v 0.384615 1.450630 -0.441558
v -0.384615 0.384615 -0.000000
v 0.384615 0.384615 -0.000000
v 0.384615 1.450336 -0.442269
v -0.384615 1.450336 -0.442269
v 0.384615 0.384321 -0.000711
v -0.384615 0.384321 -0.000711
v 0.376923 1.246626 2.081846
v 0.376923 0.158769 0.993989
v 0.376923 0.702698 2.625774
v 0.376923 -0.385159 1.537918
v -0.376923 0.158769 0.993989
v -0.376923 1.246626 2.081846
v -0.376923 -0.385159 1.537918
v -0.376923 0.702698 2.625774
v -0.376923 0.158769 0.993989
v 0.376923 0.158769 0.993989
v -0.376923 1.246626 2.081846
v 0.376923 1.246626 2.081846
v -0.376923 0.702698 2.625774
v 0.376923 0.702698 2.625774
v -0.376923 -0.385159 1.537918
v 0.376923 -0.385159 1.537918
v -0.376923 1.246626 2.081846
v 0.376923 1.246626 2.081846
v -0.376923 0.702698 2.625774
v 0.376923 0.702698 2.625774
v 0.376923 0.158769 0.993989
v -0.376923 0.158769 0.993989
v 0.376923 -0.385159 1.537918
v -0.376923 -0.385159 1.537918
v 0.384615 1.246626 7.081846
v 0.384615 1.246626 2.081846
v 0.384615 0.477395 7.081846
v 0.384615 0.477395 2.081846
v -0.384615 1.246626 2.081846
v -0.384615 1.246626 7.081846
v -0.384615 0.477395 2.081846
v -0.384615 0.477395 7.081846
v -0.384615 1.246626 2.081846
v 0.384615 1.246626 2.081846
v -0.384615 1.246626 7.081846
v 0.384615 1.246626 7.081846
v -0.384615 0.477395 7.081846
v 0.384615 0.477395 7.081846
v -0.384615 0.477395 2.081846
v 0.384615 0.477395 2.081846
v -0.384615 1.246626 7.081846
v 0.384615 1.246626 7.081846
v -0.384615 0.477395 7.081846
v 0.384615 0.477395 7.081846
v 0.384615 1.246626 2.081846
v -0.384615 1.246626 2.081846
v 0.384615 0.477395 2.081846
v -0.384615 0.477395 2.081846
v 0.384615 2.015856 7.466462
v 0.384615 2.015856 7.081846
v 0.384615 -1.061067 7.466462
v 0.384615 -1.061067 7.081846
v -0.384615 2.015856 7.081846
v -0.384615 2.015856 7.466462
v -0.384615 -1.061067 7.081846
v -0.384615 -1.061067 7.466462
v -0.384615 2.015856 7.081846
v 0.384615 2.015856 7.081846
v -0.384615 2.015856 7.466462
v 0.384615 2.015856 7.466462
v -0.384615 -1.061067 7.466462
v 0.384615 -1.061067 7.466462
v -0.384615 -1.061067 7.081846
v 0.384615 -1.061067 7.081846
v -0.384615 2.015856 7.466462
v 0.384615 2.015856 7.466462
v -0.384615 -1.061067 7.466462
v 0.384615 -1.061067 7.466462
v 0.384615 2.015856 7.081846
v -0.384615 2.015856 7.081846
v 0.384615 -1.061067 7.081846
v -0.384615 -1.061067 7.081846
v 0.000769 1.631241 7.274154
v 0.000769 1.631241 2.658769
v 0.000769 0.092779 7.274154
v 0.000769 0.092779 2.658769
v 0.000000 1.631241 2.658769
v 0.000000 1.631241 7.274154
v 0.000000 0.092779 2.658769
v 0.000000 0.092779 7.274154
v 0.000000 1.631241 2.658769
v 0.000769 1.631241 2.658769
v 0.000000 1.631241 7.274154
v 0.000769 1.631241 7.274154
v 0.000000 0.092779 7.274154
v 0.000769 0.092779 7.274154
v 0.000000 0.092779 2.658769
v 0.000769 0.092779 2.658769
v 0.000000 1.631241 7.274154
v 0.000769 1.631241 7.274154
v 0.000000 0.092779 7.274154
v 0.000769 0.092779 7.274154
v 0.000769 1.631241 2.658769
v 0.000000 1.631241 2.658769
v 0.000769 0.092779 2.658769
v 0.000000 0.092779 2.658769
v 0.384615 2.785087 5.158769
v 0.384615 2.785087 2.081846
v 0.384615 2.400472 5.158769
v 0.384615 2.400472 2.081846
v -0.384615 2.785087 2.081846
v -0.384615 2.785087 5.158769
v -0.384615 2.400472 2.081846
v -0.384615 2.400472 5.158769
v -0.384615 2.785087 2.081846
v 0.384615 2.785087 2.081846
v -0.384615 2.785087 5.158769
v 0.384615 2.785087 5.158769
v -0.384615 2.400472 5.158769
v 0.384615 2.400472 5.158769
v -0.384615 2.400472 2.081846
v 0.384615 2.400472 2.081846
v -0.384615 2.785087 5.158769
v 0.384615 2.785087 5.158769
v -0.384615 2.400472 5.158769
v 0.384615 2.400472 5.158769
v 0.384615 2.785087 2.081846
v -0.384615 2.785087 2.081846
v 0.384615 2.400472 2.081846
v -0.384615 2.400472 2.081846
v 0.384615 0.624075 2.818486
v 0.384615 2.400766 2.082556
v 0.384615 0.623780 2.817776
v 0.384615 2.400472 2.081846
v -0.384615 2.400766 2.082556
v -0.384615 0.624075 2.818486
v -0.384615 2.400472 2.081846
v -0.384615 0.623780 2.817776
v -0.384615 2.400766 2.082556
v 0.384615 2.400766 2.082556
v -0.384615 0.624075 2.818486
v 0.384615 0.624075 2.818486
v -0.384615 0.623780 2.817776
v 0.384615 0.623780 2.817776
v -0.384615 2.400472 2.081846
v 0.384615 2.400472 2.081846
v -0.384615 0.624075 2.818486
v 0.384615 0.624075 2.818486
v -0.384615 0.623780 2.817776
v 0.384615 0.623780 2.817776
v 0.384615 2.400766 2.082556
v -0.384615 2.400766 2.082556
v 0.384615 2.400472 2.081846
v -0.384615 2.400472 2.081846
v 0.384615 0.624075 5.895409
v 0.384615 2.400766 5.159480
v 0.384615 0.623780 5.894699
v 0.384615 2.400471 5.158769
v -0.384615 2.400766 5.159480
v -0.384615 0.624075 5.895409
v -0.384615 2.400471 5.158769
v -0.384615 0.623780 5.894699
v -0.384615 2.400766 5.159480
v 0.384615 2.400766 5.159480
v -0.384615 0.624075 5.895409
v 0.384615 0.624075 5.895409
v -0.384615 0.623780 5.894699
v 0.384615 0.623780 5.894699
v -0.384615 2.400471 5.158769
v 0.384615 2.400471 5.158769
v -0.384615 0.624075 5.895409
v 0.384615 0.624075 5.895409
v -0.384615 0.623780 5.894699
v 0.384615 0.623780 5.894699
v 0.384615 2.400766 5.159480
v -0.384615 2.400766 5.159480
v 0.384615 2.400471 5.158769
v -0.384615 2.400471 5.158769
v 0.192308 1.008690 5.895409
v 0.192308 2.785381 5.159480
v 0.192308 1.008396 5.894698
v 0.192308 2.785087 5.158769
v -0.192308 2.785381 5.159480
v -0.192308 1.008690 5.895409
v -0.192308 2.785087 5.158769
v -0.192308 1.008396 5.894698
v -0.192308 2.785381 5.159480
v 0.192308 2.785381 5.159480
v -0.192308 1.008690 5.895409
v 0.192308 1.008690 5.895409
v -0.192308 1.008396 5.894698
v 0.192308 1.008396 5.894698
v -0.192308 2.785087 5.158769
v 0.192308 2.785087 5.158769
v -0.192308 1.008690 5.895409
v 0.192308 1.008690 5.895409
v -0.192308 1.008396 5.894698
v 0.192308 1.008396 5.894698
v 0.192308 2.785381 5.159480
v -0.192308 2.785381 5.159480
v 0.192308 2.785087 5.158769
v -0.192308 2.785087 5.158769
vn 1.0000 -0.0000 -0.0000
vn -1.0000 -0.0000 -0.0000
vn -0.0000 1.0000 -0.0000
vn -0.0000 -1.0000 -0.0000
vn -0.0000 -0.0000 1.0000
vn -0.0000 -0.0000 -1.0000
vn 1.0000 -0.0000 0.0001
vn 1.0000 -0.0000 -0.0001
vn -1.0000 -0.0000 -0.0001
vn -1.0000 -0.0000 0.0001
vn -0.0000 0.9239 -0.3826
vn -0.0000 0.9239 -0.3827
vn -0.0000 -0.9239 0.3827
vn -0.0000 0.3827 0.9239
vn -0.0000 -0.3827 -0.9239
vn -0.0000 0.7071 -0.7071
vn -0.0000 -0.7071 0.7071
vn -0.0000 0.7071 0.7071
vn -0.0000 -0.7071 -0.7071
vn -0.0000 -0.9238 0.3828
vn -0.0000 -0.9238 0.3829
vn -0.0000 0.9238 -0.3829
vn -0.0000 -0.9239 0.3826
vn -0.0000 -0.9241 0.3821
vn -0.0000 0.9241 -0.3821
vt 0.437500 0.625000
vt 0.437500 0.562500
vt 0.562500 0.625000
vt 0.562500 0.562500
vt 0.437500 0.500000
vt 0.562500 0.500000
vt 0.562500 0.875000
vt 0.562500 1.000000
vt 0.500000 0.875000
vt 0.500000 1.000000
vt 0.562500 0.750000
vt 0.500000 0.750000
vt 0.625000 0.875000
vt 0.625000 0.812500
vt 0.687500 0.875000
vt 0.687500 0.812500
vt 0.125000 0.375000
vt 0.125000 0.312500
vt 0.187500 0.375000
vt 0.187500 0.312500
vt 0.000000 1.000000
vt 0.000000 0.937500
vt 0.062500 1.000000
vt 0.625000 0.937500
vt 0.687500 0.937500
vt 0.625000 1.000000
vt 0.687500 1.000000
vt 0.500000 0.687500
vt 0.625000 0.750000
vt 0.625000 0.687500
vt 0.500000 0.625000
vt 0.625000 0.625000
vt 0.500000 0.375000
vt 0.500000 0.500000
vt 0.437500 0.375000
vt 0.562500 0.375000
vt 0.687500 0.750000
vt 0.250000 0.375000
vt 0.250000 0.312500
vt 0.000000 0.750000
vt 0.000000 0.687500
vt 0.406250 0.750000
vt 0.406250 0.687500
vt 0.000000 0.625000
vt 0.406250 0.625000
vt 0.062500 0.218750
vt 0.062500 0.625000
vt 0.000000 0.218750
vt 0.125000 0.625000
vt 0.125000 0.218750
vt 0.687500 0.687500
vt 0.312500 0.375000
vt 0.312500 0.312500
vt 0.593750 1.000000
vt 0.593750 0.750000
vt 0.312500 0.437500
vt 0.312500 0.187500
vt 0.343750 0.437500
vt 0.343750 0.187500
vt 0.687500 0.656250
vt 0.625000 0.656250
vt 0.500000 0.343750
vt 0.437500 0.343750
vt 0.187500 0.625000
vt 0.375000 1.000000
vt 0.375000 0.750000
vt 0.437500 1.000000
vt 0.437500 0.750000
vt 0.000000 0.875000
vt 0.375000 0.875000
vt 0.562500 0.593750
vt 0.812500 0.625000
vt 0.812500 0.593750
vt 0.562500 0.531250
vt 0.812500 0.562500
vt 0.812500 0.531250
vt 0.250000 0.625000
vt 0.312500 0.625000
vt 0.625000 0.500000
vt 0.625000 0.468750
vt 0.687500 0.500000
vt 0.687500 0.468750
vt 0.562500 0.343750
vt 0.156250 1.000000
vt 0.375000 0.468750
vt 0.375000 0.625000
vt 0.312500 0.468750
vt 0.437500 0.468750
vt 0.500000 0.843750
vt 0.437500 0.843750
vt 0.500000 0.812500
vt 0.500000 0.656250
vt 0.437500 0.812500
vt 0.437500 0.656250
vt 0.406250 0.281250
vt 0.406250 0.437500
vt 0.375000 0.281250
vt 0.375000 0.437500
vt 0.593750 0.500000
vt 0.593750 0.343750
vt 0.031250 1.000000
s 0
usemtl Material_0.001
f 1/1/1 3/2/1 2/3/1
f 3/2/1 4/4/1 2/3/1
f 5/2/2 7/5/2 6/4/2
f 7/5/2 8/6/2 6/4/2
f 9/7/3 11/8/3 10/9/3
f 11/8/3 12/10/3 10/9/3
f 13/7/4 15/11/4 14/9/4
f 15/11/4 16/12/4 14/9/4
f 17/13/5 19/14/5 18/15/5
f 19/14/5 20/16/5 18/15/5
f 21/17/6 23/18/6 22/19/6
f 23/18/6 24/20/6 22/19/6
f 25/21/7 27/22/7 26/21/7
f 27/22/8 28/22/8 26/21/8
f 29/21/9 31/22/9 30/21/9
f 31/22/10 32/22/10 30/21/10
f 33/23/11 35/23/11 34/21/11
f 35/23/12 36/21/12 34/21/12
f 37/23/13 39/23/13 38/21/13
f 39/23/13 40/21/13 38/21/13
f 41/24/14 43/13/14 42/25/14
f 43/13/14 44/15/14 42/25/14
f 45/26/15 47/24/15 46/27/15
f 47/24/15 48/25/15 46/27/15
f 49/12/1 51/28/1 50/29/1
f 51/28/1 52/30/1 50/29/1
f 53/28/2 55/31/2 54/30/2
f 55/31/2 56/32/2 54/30/2
f 57/33/16 59/34/16 58/35/16
f 59/34/16 60/5/16 58/35/16
f 61/6/17 63/36/17 62/34/17
f 63/36/17 64/33/17 62/34/17
f 65/14/18 67/29/18 66/16/18
f 67/29/18 68/37/18 66/16/18
f 69/19/19 71/20/19 70/38/19
f 71/20/19 72/39/19 70/38/19
f 73/40/1 75/41/1 74/42/1
f 75/41/1 76/43/1 74/42/1
f 77/41/2 79/44/2 78/43/2
f 79/44/2 80/45/2 78/43/2
f 81/46/3 83/47/3 82/48/3
f 83/47/3 84/44/3 82/48/3
f 85/49/4 87/50/4 86/47/4
f 87/50/4 88/46/4 86/47/4
f 89/29/5 91/30/5 90/37/5
f 91/30/5 92/51/5 90/37/5
f 93/38/6 95/39/6 94/52/6
f 95/39/6 96/53/6 94/52/6
f 97/8/1 99/11/1 98/54/1
f 99/11/1 100/55/1 98/54/1
f 101/56/2 103/57/2 102/58/2
f 103/57/2 104/59/2 102/58/2
f 105/60/3 107/51/3 106/61/3
f 107/51/3 108/30/3 106/61/3
f 109/33/4 111/62/4 110/35/4
f 111/62/4 112/63/4 110/35/4
f 113/49/5 115/17/5 114/64/5
f 115/17/5 116/19/5 114/64/5
f 117/65/6 119/66/6 118/67/6
f 119/66/6 120/68/6 118/67/6
f 121/21/1 123/69/1 122/65/1
f 123/69/1 124/70/1 122/65/1
f 125/69/2 127/40/2 126/70/2
f 127/40/2 128/66/2 126/70/2
f 129/44/3 131/21/3 130/44/3
f 131/21/3 132/21/3 130/44/3
f 133/21/4 135/44/4 134/21/4
f 135/44/4 136/44/4 134/21/4
f 137/21/5 139/69/5 138/21/5
f 139/69/5 140/69/5 138/21/5
f 141/21/6 143/69/6 142/21/6
f 143/69/6 144/69/6 142/21/6
f 145/3/1 147/71/1 146/72/1
f 147/71/1 148/73/1 146/72/1
f 149/4/2 151/74/2 150/75/2
f 151/74/2 152/76/2 150/75/2
f 153/38/3 155/77/3 154/19/3
f 155/77/3 156/64/3 154/19/3
f 157/78/4 159/52/4 158/77/4
f 159/52/4 160/38/4 158/77/4
f 161/79/5 163/80/5 162/81/5
f 163/80/5 164/82/5 162/81/5
f 165/33/6 167/62/6 166/36/6
f 167/62/6 168/83/6 166/36/6
f 169/21/1 171/21/1 170/84/1
f 171/21/1 172/84/1 170/84/1
f 173/21/2 175/21/2 174/84/2
f 175/21/2 176/84/2 174/84/2
f 177/85/14 179/86/14 178/87/14
f 179/86/14 180/78/14 178/87/14
f 181/1/15 183/88/15 182/86/15
f 183/88/15 184/85/15 182/86/15
f 185/21/20 187/21/20 186/23/20
f 187/21/20 188/23/20 186/23/20
f 189/21/11 191/21/11 190/23/11
f 191/21/11 192/23/11 190/23/11
f 193/21/1 195/21/1 194/84/1
f 195/21/1 196/84/1 194/84/1
f 197/21/2 199/21/2 198/84/2
f 199/21/2 200/84/2 198/84/2
f 201/89/14 203/10/14 202/90/14
f 203/10/14 204/67/14 202/90/14
f 205/91/15 207/92/15 206/93/15
f 207/92/15 208/94/15 206/93/15
f 209/21/21 211/21/21 210/23/21
f 211/21/21 212/23/21 210/23/21
f 213/21/22 215/21/22 214/23/22
f 215/21/22 216/23/22 214/23/22
f 217/21/1 219/21/1 218/84/1
f 219/21/1 220/84/1 218/84/1
f 221/21/2 223/21/2 222/84/2
f 223/21/2 224/84/2 222/84/2
f 225/95/14 227/96/14 226/97/14
f 227/96/14 228/98/14 226/97/14
f 229/99/15 231/100/15 230/6/15
f 231/100/15 232/83/15 230/6/15
f 233/21/23 235/21/23 234/101/23
f 235/21/24 236/101/24 234/101/24
f 237/21/11 239/21/11 238/101/11
f 239/21/25 240/101/25 238/101/25
