# Blender 4.4.3
# www.blender.org
mtllib lev.eotech.mtl
o attachmentModel
v -1.346154 1.153846 0.770000
v 0.192308 1.153846 0.770000
v -1.346154 0.000000 0.770000
v 0.192308 0.000000 0.770000
v 0.192308 1.153846 0.769231
v -1.346154 1.153846 0.769231
v 0.192308 0.000000 0.769231
v -1.346154 0.000000 0.769231
v 0.192308 1.153846 0.769231
v 0.192308 1.153846 0.770000
v -1.346154 1.153846 0.769231
v -1.346154 1.153846 0.770000
v -1.346154 0.000000 0.769231
v -1.346154 0.000000 0.770000
v 0.192308 0.000000 0.769231
v 0.192308 0.000000 0.770000
v -1.346154 1.153846 0.769231
v -1.346154 1.153846 0.770000
v -1.346154 0.000000 0.769231
v -1.346154 0.000000 0.770000
v 0.192308 1.153846 0.770000
v 0.192308 1.153846 0.769231
v 0.192308 0.000000 0.770000
v 0.192308 0.000000 0.769231
v -1.538461 1.153846 0.576923
v 2.692307 1.153846 0.576922
v -1.538461 0.384615 0.576923
v 2.692307 0.384615 0.576922
v 2.692307 1.153846 -0.576924
v -1.538462 1.153846 -0.576923
v 2.692307 0.384615 -0.576924
v -1.538462 0.384615 -0.576923
v 2.692307 1.153846 -0.576924
v 2.692307 1.153846 0.576922
v -1.538462 1.153846 -0.576923
v -1.538461 1.153846 0.576923
v -1.538462 0.384615 -0.576923
v -1.538461 0.384615 0.576923
v 2.692307 0.384615 -0.576924
v 2.692307 0.384615 0.576922
v -1.538462 1.153846 -0.576923
v -1.538461 1.153846 0.576923
v -1.538462 0.384615 -0.576923
v -1.538461 0.384615 0.576923
v 2.692307 1.153846 0.576922
v 2.692307 1.153846 -0.576924
v 2.692307 0.384615 0.576922
v 2.692307 0.384615 -0.576924
v -1.538461 0.384615 0.768462
v 1.153846 0.384615 0.768461
v -1.538461 0.000000 0.768462
v 1.153846 0.000000 0.768461
v 1.153846 0.384615 -0.768462
v -1.538462 0.384615 -0.768461
v 1.153846 -0.000000 -0.768462
v -1.538462 -0.000000 -0.768461
v 1.153846 0.384615 -0.768462
v 1.153846 0.384615 0.768461
v -1.538462 0.384615 -0.768461
v -1.538461 0.384615 0.768462
v -1.538462 -0.000000 -0.768461
v -1.538461 0.000000 0.768462
v 1.153846 -0.000000 -0.768462
v 1.153846 0.000000 0.768461
v -1.538462 0.384615 -0.768461
v -1.538461 0.384615 0.768462
v -1.538462 -0.000000 -0.768461
v -1.538461 0.000000 0.768462
v 1.153846 0.384615 0.768461
v 1.153846 0.384615 -0.768462
v 1.153846 0.000000 0.768461
v 1.153846 -0.000000 -0.768462
v -1.346154 2.307692 -0.768461
v 0.192308 2.307692 -0.768462
v -1.346154 1.153846 -0.768461
v 0.192308 1.153846 -0.768462
v 0.192308 2.307692 -0.769231
v -1.346154 2.307692 -0.769230
v 0.192308 1.153846 -0.769231
v -1.346154 1.153846 -0.769230
v 0.192308 2.307692 -0.769231
v 0.192308 2.307692 -0.768462
v -1.346154 2.307692 -0.769230
v -1.346154 2.307692 -0.768461
v -1.346154 1.153846 -0.769230
v -1.346154 1.153846 -0.768461
v 0.192308 1.153846 -0.769231
v 0.192308 1.153846 -0.768462
v -1.346154 2.307692 -0.769230
v -1.346154 2.307692 -0.768461
v -1.346154 1.153846 -0.769230
v -1.346154 1.153846 -0.768461
v 0.192308 2.307692 -0.768462
v 0.192308 2.307692 -0.769231
v 0.192308 1.153846 -0.768462
v 0.192308 1.153846 -0.769231
v -1.346154 2.307692 0.770000
v 0.192308 2.307692 0.770000
v -1.346154 1.153846 0.770000
v 0.192308 1.153846 0.770000
v 0.192308 2.307692 0.769231
v -1.346154 2.307692 0.769231
v 0.192308 1.153846 0.769231
v -1.346154 1.153846 0.769231
v 0.192308 2.307692 0.769231
v 0.192308 2.307692 0.770000
v -1.346154 2.307692 0.769231
v -1.346154 2.307692 0.770000
v -1.346154 1.153846 0.769231
v -1.346154 1.153846 0.770000
v 0.192308 1.153846 0.769231
v 0.192308 1.153846 0.770000
v -1.346154 2.307692 0.769231
v -1.346154 2.307692 0.770000
v -1.346154 1.153846 0.769231
v -1.346154 1.153846 0.770000
v 0.192308 2.307692 0.770000
v 0.192308 2.307692 0.769231
v 0.192308 1.153846 0.770000
v 0.192308 1.153846 0.769231
v 0.192308 1.153846 0.770000
v 1.346154 1.153846 0.770000
v 0.192308 0.000000 0.770000
v 1.346154 0.000000 0.770000
v 1.346154 1.153846 0.769230
v 0.192308 1.153846 0.769231
v 1.346154 0.000000 0.769230
v 0.192308 0.000000 0.769231
v 1.346154 1.153846 0.769230
v 1.346154 1.153846 0.770000
v 0.192308 1.153846 0.769231
v 0.192308 1.153846 0.770000
v 0.192308 0.000000 0.769231
v 0.192308 0.000000 0.770000
v 1.346154 0.000000 0.769230
v 1.346154 0.000000 0.770000
v 0.192308 1.153846 0.769231
v 0.192308 1.153846 0.770000
v 0.192308 0.000000 0.769231
v 0.192308 0.000000 0.770000
v 1.346154 1.153846 0.770000
v 1.346154 1.153846 0.769230
v 1.346154 0.000000 0.770000
v 1.346154 0.000000 0.769230
v 0.192308 1.153846 -0.768462
v 1.346154 1.153846 -0.768462
v 0.192308 -0.000000 -0.768462
v 1.346154 -0.000000 -0.768462
v 1.346154 1.153846 -0.769231
v 0.192308 1.153846 -0.769231
v 1.346154 -0.000000 -0.769231
v 0.192308 -0.000000 -0.769231
v 1.346154 1.153846 -0.769231
v 1.346154 1.153846 -0.768462
v 0.192308 1.153846 -0.769231
v 0.192308 1.153846 -0.768462
v 0.192308 -0.000000 -0.769231
v 0.192308 -0.000000 -0.768462
v 1.346154 -0.000000 -0.769231
v 1.346154 -0.000000 -0.768462
v 0.192308 1.153846 -0.769231
v 0.192308 1.153846 -0.768462
v 0.192308 -0.000000 -0.769231
v 0.192308 -0.000000 -0.768462
v 1.346154 1.153846 -0.768462
v 1.346154 1.153846 -0.769231
v 1.346154 -0.000000 -0.768462
v 1.346154 -0.000000 -0.769231
v -1.153846 2.115385 0.577692
v 0.000000 2.115385 0.577692
v -1.153846 1.153846 0.577692
v 0.000000 1.153846 0.577692
v 0.000000 2.115385 0.576923
v -1.153846 2.115385 0.576923
v 0.000000 1.153846 0.576923
v -1.153846 1.153846 0.576923
v 0.000000 2.115385 0.576923
v 0.000000 2.115385 0.577692
v -1.153846 2.115385 0.576923
v -1.153846 2.115385 0.577692
v -1.153846 1.153846 0.576923
v -1.153846 1.153846 0.577692
v 0.000000 1.153846 0.576923
v 0.000000 1.153846 0.577692
v -1.153846 2.115385 0.576923
v -1.153846 2.115385 0.577692
v -1.153846 1.153846 0.576923
v -1.153846 1.153846 0.577692
v 0.000000 2.115385 0.577692
v 0.000000 2.115385 0.576923
v 0.000000 1.153846 0.577692
v 0.000000 1.153846 0.576923
v -1.346154 2.308461 0.769231
v 0.192308 2.308461 0.769231
v -1.346154 2.307692 0.769231
v 0.192308 2.307692 0.769231
v 0.192308 2.308461 -0.769231
v -1.346154 2.308461 -0.769230
v 0.192308 2.307692 -0.769231
v -1.346154 2.307692 -0.769230
v 0.192308 2.308461 -0.769231
v 0.192308 2.308461 0.769231
v -1.346154 2.308461 -0.769230
v -1.346154 2.308461 0.769231
v -1.346154 2.307692 -0.769230
v -1.346154 2.307692 0.769231
v 0.192308 2.307692 -0.769231
v 0.192308 2.307692 0.769231
v -1.346154 2.308461 -0.769230
v -1.346154 2.308461 0.769231
v -1.346154 2.307692 -0.769230
v -1.346154 2.307692 0.769231
v 0.192308 2.308461 0.769231
v 0.192308 2.308461 -0.769231
v 0.192308 2.307692 0.769231
v 0.192308 2.307692 -0.769231
v -1.153846 2.116154 0.576923
v 0.000000 2.116154 0.576923
v -1.153846 2.115385 0.576923
v 0.000000 2.115385 0.576923
v 0.000000 2.116154 -0.576923
v -1.153846 2.116154 -0.576923
v 0.000000 2.115385 -0.576923
v -1.153846 2.115385 -0.576923
v 0.000000 2.116154 -0.576923
v 0.000000 2.116154 0.576923
v -1.153846 2.116154 -0.576923
v -1.153846 2.116154 0.576923
v -1.153846 2.115385 -0.576923
v -1.153846 2.115385 0.576923
v 0.000000 2.115385 -0.576923
v 0.000000 2.115385 0.576923
v -1.153846 2.116154 -0.576923
v -1.153846 2.116154 0.576923
v -1.153846 2.115385 -0.576923
v -1.153846 2.115385 0.576923
v 0.000000 2.116154 0.576923
v 0.000000 2.116154 -0.576923
v 0.000000 2.115385 0.576923
v 0.000000 2.115385 -0.576923
v -0.193077 2.115385 0.576923
v -0.192308 2.115385 0.576923
v -0.193077 1.153846 0.576923
v -0.192308 1.153846 0.576923
v -0.192308 2.115385 -0.576923
v -0.193077 2.115385 -0.576923
v -0.192308 1.153846 -0.576923
v -0.193077 1.153846 -0.576923
v -0.192308 2.115385 -0.576923
v -0.192308 2.115385 0.576923
v -0.193077 2.115385 -0.576923
v -0.193077 2.115385 0.576923
v -0.193077 1.153846 -0.576923
v -0.193077 1.153846 0.576923
v -0.192308 1.153846 -0.576923
v -0.192308 1.153846 0.576923
v -1.346154 1.153846 -0.768461
v 0.192308 1.153846 -0.768462
v -1.346154 -0.000000 -0.768461
v 0.192308 -0.000000 -0.768462
v 0.192308 1.153846 -0.769231
v -1.346154 1.153846 -0.769230
v 0.192308 -0.000000 -0.769231
v -1.346154 -0.000000 -0.769230
v 0.192308 1.153846 -0.769231
v 0.192308 1.153846 -0.768462
v -1.346154 1.153846 -0.769230
v -1.346154 1.153846 -0.768461
v -1.346154 -0.000000 -0.769230
v -1.346154 -0.000000 -0.768461
v 0.192308 -0.000000 -0.769231
v 0.192308 -0.000000 -0.768462
v -1.346154 1.153846 -0.769230
v -1.346154 1.153846 -0.768461
v -1.346154 -0.000000 -0.769230
v -1.346154 -0.000000 -0.768461
v 0.192308 1.153846 -0.768462
v 0.192308 1.153846 -0.769231
v 0.192308 -0.000000 -0.768462
v 0.192308 -0.000000 -0.769231
v -1.153846 2.115385 -0.576154
v 0.000000 2.115385 -0.576154
v -1.153846 1.153846 -0.576154
v 0.000000 1.153846 -0.576154
v 0.000000 2.115385 -0.576923
v -1.153846 2.115385 -0.576923
v 0.000000 1.153846 -0.576923
v -1.153846 1.153846 -0.576923
v 0.000000 2.115385 -0.576923
v 0.000000 2.115385 -0.576154
v -1.153846 2.115385 -0.576923
v -1.153846 2.115385 -0.576154
v -1.153846 1.153846 -0.576923
v -1.153846 1.153846 -0.576154
v 0.000000 1.153846 -0.576923
v 0.000000 1.153846 -0.576154
v -1.153846 2.115385 -0.576923
v -1.153846 2.115385 -0.576154
v -1.153846 1.153846 -0.576923
v -1.153846 1.153846 -0.576154
v 0.000000 2.115385 -0.576154
v 0.000000 2.115385 -0.576923
v 0.000000 1.153846 -0.576154
v 0.000000 1.153846 -0.576923
v -1.346154 0.961538 0.769231
v 0.192308 0.961538 0.769231
v -1.346154 0.192308 0.769231
v 0.192308 0.192308 0.769231
v 0.192308 0.961538 -0.769231
v -1.346154 0.961538 -0.769230
v 0.192308 0.192308 -0.769231
v -1.346154 0.192308 -0.769230
v 0.192308 0.961538 -0.769231
v 0.192308 0.961538 0.769231
v -1.346154 0.961538 -0.769230
v -1.346154 0.961538 0.769231
v -1.346154 0.192308 -0.769230
v -1.346154 0.192308 0.769231
v 0.192308 0.192308 -0.769231
v 0.192308 0.192308 0.769231
v -1.346154 0.961538 -0.769230
v -1.346154 0.961538 0.769231
v -1.346154 0.192308 -0.769230
v -1.346154 0.192308 0.769231
v 0.192308 0.961538 0.769231
v 0.192308 0.961538 -0.769231
v 0.192308 0.192308 0.769231
v 0.192308 0.192308 -0.769231
vn -0.0000 -0.0000 1.0000
vn -0.0000 -0.0000 -1.0000
vn -0.0000 1.0000 -0.0000
vn -0.0000 -1.0000 -0.0000
vn -1.0000 -0.0000 -0.0000
vn 1.0000 -0.0000 -0.0000
vt 0.375000 0.625000
vt 0.375000 0.531250
vt 0.500000 0.625000
vt 0.500000 0.531250
vt 0.500000 0.875000
vt 0.500000 0.781250
vt 0.375000 0.875000
vt 0.375000 0.781250
vt 0.000000 0.875000
vt 0.000000 1.000000
vt 0.000000 0.906250
vt 0.375000 1.000000
vt 0.375000 0.937500
vt 0.718750 1.000000
vt 0.718750 0.937500
vt 0.718750 0.875000
vt 0.093750 0.656250
vt 0.093750 1.000000
vt 0.000000 0.656250
vt 0.218750 1.000000
vt 0.218750 0.656250
vt 0.125000 1.000000
vt 0.125000 0.656250
vt 0.375000 0.312500
vt 0.375000 0.250000
vt 0.468750 0.312500
vt 0.468750 0.250000
vt 0.625000 0.375000
vt 0.625000 0.312500
vt 0.718750 0.375000
vt 0.718750 0.312500
vt 0.625000 0.500000
vt 0.625000 0.468750
vt 0.843750 0.500000
vt 0.843750 0.468750
vt 0.625000 0.437500
vt 0.625000 0.406250
vt 0.843750 0.437500
vt 0.843750 0.406250
vt 0.250000 0.781250
vt 0.250000 1.000000
vt 0.375000 0.750000
vt 0.250000 0.750000
vt 0.250000 0.531250
vt 0.750000 0.812500
vt 0.750000 0.781250
vt 0.875000 0.812500
vt 0.875000 0.781250
vt 0.750000 0.875000
vt 0.750000 0.843750
vt 0.875000 0.875000
vt 0.875000 0.843750
vt 0.375000 0.500000
vt 0.375000 0.406250
vt 0.500000 0.500000
vt 0.500000 0.406250
vt 0.500000 0.750000
vt 0.500000 0.656250
vt 0.625000 0.750000
vt 0.625000 0.656250
vt 0.593750 0.500000
vt 0.593750 0.406250
vt 0.000000 0.375000
vt 0.000000 0.281250
vt 0.093750 0.375000
vt 0.093750 0.281250
vt 0.125000 0.375000
vt 0.125000 0.281250
vt 0.218750 0.375000
vt 0.218750 0.281250
vt 0.625000 0.875000
vt 0.625000 0.781250
vt 0.718750 0.781250
vt 0.500000 0.312500
vt 0.500000 0.250000
vt 0.593750 0.312500
vt 0.593750 0.250000
vt 0.625000 0.250000
vt 0.718750 0.250000
vt 0.000000 0.937500
vt 0.343750 0.281250
vt 0.343750 0.375000
vt 0.250000 0.281250
vt 0.250000 0.375000
vt 0.718750 0.750000
vt 0.718750 0.656250
vt 0.000000 0.250000
vt 0.000000 0.187500
vt 0.093750 0.250000
vt 0.093750 0.187500
vt 0.750000 1.000000
vt 0.750000 0.937500
vt 0.843750 1.000000
vt 0.843750 0.937500
vt 0.625000 0.625000
vt 0.625000 0.562500
vt 0.750000 0.625000
vt 0.750000 0.562500
vt 0.500000 0.375000
vt 0.125000 0.500000
vt 0.125000 0.625000
vt 0.000000 0.500000
vt 0.000000 0.625000
vt 0.250000 0.625000
vt 0.250000 0.500000
vt 0.750000 0.500000
vt 0.375000 0.375000
s 1
usemtl Material_0.003
f 1/1/1 3/2/1 2/3/1
f 3/2/1 4/4/1 2/3/1
f 5/5/2 7/6/2 6/7/2
f 7/6/2 8/8/2 6/7/2
f 9/9/3 11/10/3 10/9/3
f 11/10/3 12/10/3 10/9/3
f 13/10/4 15/9/4 14/10/4
f 15/9/4 16/9/4 14/10/4
f 17/10/5 19/11/5 18/10/5
f 19/11/5 20/11/5 18/10/5
f 21/10/6 23/11/6 22/10/6
f 23/11/6 24/11/6 22/10/6
f 25/12/1 27/13/1 26/14/1
f 27/13/1 28/15/1 26/14/1
f 29/13/2 31/7/2 30/15/2
f 31/7/2 32/16/2 30/15/2
f 33/17/3 35/18/3 34/19/3
f 35/18/3 36/10/3 34/19/3
f 37/20/4 39/21/4 38/22/4
f 39/21/4 40/23/4 38/22/4
f 41/24/5 43/25/5 42/26/5
f 43/25/5 44/27/5 42/26/5
f 45/28/6 47/29/6 46/30/6
f 47/29/6 48/31/6 46/30/6
f 49/32/1 51/33/1 50/34/1
f 51/33/1 52/35/1 50/34/1
f 53/36/2 55/37/2 54/38/2
f 55/37/2 56/39/2 54/38/2
f 57/8/3 59/12/3 58/40/3
f 59/12/3 60/41/3 58/40/3
f 61/42/4 63/2/4 62/43/4
f 63/2/4 64/44/4 62/43/4
f 65/45/5 67/46/5 66/47/5
f 67/46/5 68/48/5 66/47/5
f 69/49/6 71/50/6 70/51/6
f 71/50/6 72/52/6 70/51/6
f 73/53/1 75/54/1 74/55/1
f 75/54/1 76/56/1 74/55/1
f 77/57/2 79/58/2 78/59/2
f 79/58/2 80/60/2 78/59/2
f 81/9/3 83/10/3 82/9/3
f 83/10/3 84/10/3 82/9/3
f 85/10/4 87/9/4 86/10/4
f 87/9/4 88/9/4 86/10/4
f 89/10/5 91/11/5 90/10/5
f 91/11/5 92/11/5 90/10/5
f 93/10/6 95/11/6 94/10/6
f 95/11/6 96/11/6 94/10/6
f 97/59/1 99/60/1 98/57/1
f 99/60/1 100/58/1 98/57/1
f 101/55/2 103/56/2 102/53/2
f 103/56/2 104/54/2 102/53/2
f 105/9/3 107/10/3 106/9/3
f 107/10/3 108/10/3 106/9/3
f 109/10/4 111/9/4 110/10/4
f 111/9/4 112/9/4 110/10/4
f 113/10/5 115/11/5 114/10/5
f 115/11/5 116/11/5 114/10/5
f 117/10/6 119/11/6 118/10/6
f 119/11/6 120/11/6 118/10/6
f 121/55/1 123/56/1 122/61/1
f 123/56/1 124/62/1 122/61/1
f 125/63/2 127/64/2 126/65/2
f 127/64/2 128/66/2 126/65/2
f 129/11/3 131/10/3 130/11/3
f 131/10/3 132/10/3 130/11/3
f 133/10/4 135/11/4 134/10/4
f 135/11/4 136/11/4 134/10/4
f 137/10/5 139/11/5 138/10/5
f 139/11/5 140/11/5 138/10/5
f 141/10/6 143/11/6 142/10/6
f 143/11/6 144/11/6 142/10/6
f 145/67/1 147/68/1 146/69/1
f 147/68/1 148/70/1 146/69/1
f 149/71/2 151/72/2 150/16/2
f 151/72/2 152/73/2 150/16/2
f 153/11/3 155/10/3 154/11/3
f 155/10/3 156/10/3 154/11/3
f 157/10/4 159/11/4 158/10/4
f 159/11/4 160/11/4 158/10/4
f 161/10/5 163/11/5 162/10/5
f 163/11/5 164/11/5 162/10/5
f 165/10/6 167/11/6 166/10/6
f 167/11/6 168/11/6 166/10/6
f 169/74/1 171/75/1 170/76/1
f 171/75/1 172/77/1 170/76/1
f 173/29/2 175/78/2 174/31/2
f 175/78/2 176/79/2 174/31/2
f 177/11/3 179/10/3 178/11/3
f 179/10/3 180/10/3 178/11/3
f 181/10/4 183/11/4 182/10/4
f 183/11/4 184/11/4 182/10/4
f 185/10/5 187/80/5 186/10/5
f 187/80/5 188/80/5 186/10/5
f 189/10/6 191/80/6 190/10/6
f 191/80/6 192/80/6 190/10/6
f 193/10/1 195/10/1 194/22/1
f 195/10/1 196/22/1 194/22/1
f 197/10/2 199/10/2 198/22/2
f 199/10/2 200/22/2 198/22/2
f 201/57/3 203/5/3 202/42/3
f 203/5/3 204/7/3 202/42/3
f 205/5/4 207/57/4 206/7/4
f 207/57/4 208/42/4 206/7/4
f 209/10/5 211/10/5 210/22/5
f 211/10/5 212/22/5 210/22/5
f 213/10/6 215/10/6 214/22/6
f 215/10/6 216/22/6 214/22/6
f 217/10/1 219/10/1 218/18/1
f 219/10/1 220/18/1 218/18/1
f 221/10/2 223/10/2 222/18/2
f 223/10/2 224/18/2 222/18/2
f 225/81/3 227/82/3 226/83/3
f 227/82/3 228/84/3 226/83/3
f 229/85/4 231/86/4 230/59/4
f 231/86/4 232/60/4 230/59/4
f 233/10/5 235/10/5 234/18/5
f 235/10/5 236/18/5 234/18/5
f 237/10/6 239/10/6 238/18/6
f 239/10/6 240/18/6 238/18/6
f 241/10/1 243/80/1 242/10/1
f 243/80/1 244/80/1 242/10/1
f 245/10/2 247/80/2 246/10/2
f 247/80/2 248/80/2 246/10/2
f 249/18/3 251/18/3 250/10/3
f 251/18/3 252/10/3 250/10/3
f 253/18/4 255/18/4 254/10/4
f 255/18/4 256/10/4 254/10/4
f 257/71/1 259/72/1 258/5/1
f 259/72/1 260/6/1 258/5/1
f 261/5/2 263/6/2 262/71/2
f 263/6/2 264/72/2 262/71/2
f 265/9/3 267/10/3 266/9/3
f 267/10/3 268/10/3 266/9/3
f 269/10/4 271/9/4 270/10/4
f 271/9/4 272/9/4 270/10/4
f 273/10/5 275/11/5 274/10/5
f 275/11/5 276/11/5 274/10/5
f 277/10/6 279/11/6 278/10/6
f 279/11/6 280/11/6 278/10/6
f 281/87/1 283/88/1 282/89/1
f 283/88/1 284/90/1 282/89/1
f 285/91/2 287/92/2 286/93/2
f 287/92/2 288/94/2 286/93/2
f 289/11/3 291/10/3 290/11/3
f 291/10/3 292/10/3 290/11/3
f 293/10/4 295/11/4 294/10/4
f 295/11/4 296/11/4 294/10/4
f 297/10/5 299/80/5 298/10/5
f 299/80/5 300/80/5 298/10/5
f 301/10/6 303/80/6 302/10/6
f 303/80/6 304/80/6 302/10/6
f 305/95/1 307/96/1 306/97/1
f 307/96/1 308/98/1 306/97/1
f 309/99/2 311/74/2 310/28/2
f 311/74/2 312/29/2 310/28/2
f 313/100/3 315/101/3 314/102/3
f 315/101/3 316/103/3 314/102/3
f 317/104/4 319/105/4 318/101/4
f 319/105/4 320/100/4 318/101/4
f 321/96/5 323/32/5 322/98/5
f 323/32/5 324/106/5 322/98/5
f 325/107/6 327/24/6 326/99/6
f 327/24/6 328/74/6 326/99/6
o overlaySolidModel
v -0.173846 2.115385 0.576923
v -0.173077 2.115385 0.576923
v -0.173846 1.153846 0.576923
v -0.173077 1.153846 0.576923
v -0.173077 2.115385 -0.576923
v -0.173846 2.115385 -0.576923
v -0.173077 1.153846 -0.576923
v -0.173846 1.153846 -0.576923
v -0.173077 2.115385 -0.576923
v -0.173077 2.115385 0.576923
v -0.173846 2.115385 -0.576923
v -0.173846 2.115385 0.576923
v -0.173846 1.153846 -0.576923
v -0.173846 1.153846 0.576923
v -0.173077 1.153846 -0.576923
v -0.173077 1.153846 0.576923
v -0.173846 2.115385 -0.576923
v -0.173846 2.115385 0.576923
v -0.173846 1.153846 -0.576923
v -0.173846 1.153846 0.576923
v -0.173077 2.115385 0.576923
v -0.173077 2.115385 -0.576923
v -0.173077 1.153846 0.576923
v -0.173077 1.153846 -0.576923
vn -0.0000 -0.0000 1.0000
vn -0.0000 -0.0000 -1.0000
vn -0.0000 1.0000 -0.0000
vn -0.0000 -1.0000 -0.0000
vn -1.0000 -0.0000 -0.0000
vn 1.0000 -0.0000 -0.0000
vt 0.906250 0.093750
vt 0.906250 0.000000
vt 1.000000 0.093750
vt 1.000000 0.000000
s 1
usemtl Material_0.003
f 329/108/7 331/109/7 330/110/7
f 331/109/7 332/111/7 330/110/7
f 333/108/8 335/109/8 334/110/8
f 335/109/8 336/111/8 334/110/8
f 337/108/9 339/109/9 338/110/9
f 339/109/9 340/111/9 338/110/9
f 341/108/10 343/109/10 342/110/10
f 343/109/10 344/111/10 342/110/10
f 345/108/11 347/109/11 346/110/11
f 347/109/11 348/111/11 346/110/11
f 349/108/12 351/109/12 350/110/12
f 351/109/12 352/111/12 350/110/12
o scopeModel
v -0.154615 2.115385 0.576923
v -0.153846 2.115385 0.576923
v -0.154615 1.153846 0.576923
v -0.153846 1.153846 0.576923
v -0.153846 2.115385 -0.576923
v -0.154615 2.115385 -0.576923
v -0.153846 1.153846 -0.576923
v -0.154615 1.153846 -0.576923
v -0.153846 2.115385 -0.576923
v -0.153846 2.115385 0.576923
v -0.154615 2.115385 -0.576923
v -0.154615 2.115385 0.576923
v -0.154615 1.153846 -0.576923
v -0.154615 1.153846 0.576923
v -0.153846 1.153846 -0.576923
v -0.153846 1.153846 0.576923
v -0.154615 2.115385 -0.576923
v -0.154615 2.115385 0.576923
v -0.154615 1.153846 -0.576923
v -0.154615 1.153846 0.576923
v -0.153846 2.115385 0.576923
v -0.153846 2.115385 -0.576923
v -0.153846 1.153846 0.576923
v -0.153846 1.153846 -0.576923
vn -0.0000 -0.0000 1.0000
vn -0.0000 -0.0000 -1.0000
vn -0.0000 1.0000 -0.0000
vn -0.0000 -1.0000 -0.0000
vn -1.0000 -0.0000 -0.0000
vn 1.0000 -0.0000 -0.0000
vt 0.906250 0.093750
vt 0.906250 0.000000
vt 1.000000 0.093750
vt 1.000000 0.000000
s 1
usemtl Material_0.003
f 353/112/13 355/113/13 354/114/13
f 355/113/13 356/115/13 354/114/13
f 357/112/14 359/113/14 358/114/14
f 359/113/14 360/115/14 358/114/14
f 361/112/15 363/113/15 362/114/15
f 363/113/15 364/115/15 362/114/15
f 365/112/16 367/113/16 366/114/16
f 367/113/16 368/115/16 366/114/16
f 369/112/17 371/113/17 370/114/17
f 371/113/17 372/115/17 370/114/17
f 373/112/18 375/113/18 374/114/18
f 375/113/18 376/115/18 374/114/18
