# Blender 4.2.3 LTS
# www.blender.org
mtllib lev.sr2msing.mtl
o overlaySolidModel
v 2.133846 1.923077 0.499999
v 2.134615 1.923077 0.499999
v 2.133846 1.153846 0.499999
v 2.134615 1.153846 0.499999
v 2.134615 1.923077 -0.500000
v 2.133846 1.923077 -0.500000
v 2.134615 1.153846 -0.500000
v 2.133846 1.153846 -0.500000
v 2.134615 1.923077 -0.500000
v 2.134615 1.923077 0.499999
v 2.133846 1.923077 -0.500000
v 2.133846 1.923077 0.499999
v 2.133846 1.153846 -0.500000
v 2.133846 1.153846 0.499999
v 2.134615 1.153846 -0.500000
v 2.134615 1.153846 0.499999
v 2.133846 1.923077 -0.500000
v 2.133846 1.923077 0.499999
v 2.133846 1.153846 -0.500000
v 2.133846 1.153846 0.499999
v 2.134615 1.923077 0.499999
v 2.134615 1.923077 -0.500000
v 2.134615 1.153846 0.499999
v 2.134615 1.153846 -0.500000
vn -0.0000 -0.0000 1.0000
vn -0.0000 -0.0000 -1.0000
vn -0.0000 1.0000 -0.0000
vn -0.0000 -1.0000 -0.0000
vn -1.0000 -0.0000 -0.0000
vn 1.0000 -0.0000 -0.0000
vt 0.906250 0.093750
vt 0.906250 0.000000
vt 1.000000 0.093750
vt 1.000000 0.000000
s 0
usemtl Material_0
f 1/1/1 3/2/1 2/3/1
f 3/2/1 4/4/1 2/3/1
f 5/1/2 7/2/2 6/3/2
f 7/2/2 8/4/2 6/3/2
f 9/1/3 11/2/3 10/3/3
f 11/2/3 12/4/3 10/3/3
f 13/1/4 15/2/4 14/3/4
f 15/2/4 16/4/4 14/3/4
f 17/1/5 19/2/5 18/3/5
f 19/2/5 20/4/5 18/3/5
f 21/1/6 23/2/6 22/3/6
f 23/2/6 24/4/6 22/3/6
o scopeModel
v 2.153077 1.923077 0.499999
v 2.153846 1.923077 0.499999
v 2.153077 1.153846 0.499999
v 2.153846 1.153846 0.499999
v 2.153846 1.923077 -0.500000
v 2.153077 1.923077 -0.500000
v 2.153846 1.153846 -0.500000
v 2.153077 1.153846 -0.500000
v 2.153846 1.923077 -0.500000
v 2.153846 1.923077 0.499999
v 2.153077 1.923077 -0.500000
v 2.153077 1.923077 0.499999
v 2.153077 1.153846 -0.500000
v 2.153077 1.153846 0.499999
v 2.153846 1.153846 -0.500000
v 2.153846 1.153846 0.499999
v 2.153077 1.923077 -0.500000
v 2.153077 1.923077 0.499999
v 2.153077 1.153846 -0.500000
v 2.153077 1.153846 0.499999
v 2.153846 1.923077 0.499999
v 2.153846 1.923077 -0.500000
v 2.153846 1.153846 0.499999
v 2.153846 1.153846 -0.500000
vn -0.0000 -0.0000 1.0000
vn -0.0000 -0.0000 -1.0000
vn -0.0000 1.0000 -0.0000
vn -0.0000 -1.0000 -0.0000
vn -1.0000 -0.0000 -0.0000
vn 1.0000 -0.0000 -0.0000
vt 0.562500 0.093750
vt 0.562500 0.000000
vt 0.656250 0.093750
vt 0.656250 0.000000
s 0
usemtl Material_0
f 25/5/7 27/6/7 26/7/7
f 27/6/7 28/8/7 26/7/7
f 29/5/8 31/6/8 30/7/8
f 31/6/8 32/8/8 30/7/8
f 33/5/9 35/6/9 34/7/9
f 35/6/9 36/8/9 34/7/9
f 37/5/10 39/6/10 38/7/10
f 39/6/10 40/8/10 38/7/10
f 41/5/11 43/6/11 42/7/11
f 43/6/11 44/8/11 42/7/11
f 45/5/12 47/6/12 46/7/12
f 47/6/12 48/8/12 46/7/12
o attachmentModel
v -0.769231 0.769231 0.576923
v 2.307692 0.769231 0.576923
v -0.769231 0.000000 0.576923
v 2.307692 0.000000 0.576923
v 2.307692 0.769231 -0.576923
v -0.769231 0.769231 -0.576923
v 2.307692 0.000000 -0.576923
v -0.769231 0.000000 -0.576923
v 2.307692 0.769231 -0.576923
v 2.307692 0.769231 0.576923
v -0.769231 0.769231 -0.576923
v -0.769231 0.769231 0.576923
v -0.769231 0.000000 -0.576923
v -0.769231 0.000000 0.576923
v 2.307692 0.000000 -0.576923
v 2.307692 0.000000 0.576923
v -0.769231 0.769231 -0.576923
v -0.769231 0.769231 0.576923
v -0.769231 0.000000 -0.576923
v -0.769231 0.000000 0.576923
v 2.307692 0.769231 0.576923
v 2.307692 0.769231 -0.576923
v 2.307692 0.000000 0.576923
v 2.307692 0.000000 -0.576923
v 1.538462 1.923077 0.500769
v 2.307692 1.923077 0.500769
v 1.538462 0.769231 0.500769
v 2.307692 0.769231 0.500769
v 2.307692 1.923077 0.499999
v 1.538462 1.923077 0.500000
v 2.307692 0.769231 0.499999
v 1.538462 0.769231 0.500000
v 2.307692 1.923077 0.499999
v 2.307692 1.923077 0.500769
v 1.538462 1.923077 0.500000
v 1.538462 1.923077 0.500769
v 1.538462 0.769231 0.500000
v 1.538462 0.769231 0.500769
v 2.307692 0.769231 0.499999
v 2.307692 0.769231 0.500769
v 1.538462 1.923077 0.500000
v 1.538462 1.923077 0.500769
v 1.538462 0.769231 0.500000
v 1.538462 0.769231 0.500769
v 2.307692 1.923077 0.500769
v 2.307692 1.923077 0.499999
v 2.307692 0.769231 0.500769
v 2.307692 0.769231 0.499999
v 1.538461 1.923077 -0.499231
v 2.307692 1.923077 -0.499231
v 1.538461 0.769231 -0.499231
v 2.307692 0.769231 -0.499231
v 2.307692 1.923077 -0.500000
v 1.538461 1.923077 -0.500000
v 2.307692 0.769231 -0.500000
v 1.538461 0.769231 -0.500000
v 2.307692 1.923077 -0.500000
v 2.307692 1.923077 -0.499231
v 1.538461 1.923077 -0.500000
v 1.538461 1.923077 -0.499231
v 1.538461 0.769231 -0.500000
v 1.538461 0.769231 -0.499231
v 2.307692 0.769231 -0.500000
v 2.307692 0.769231 -0.499231
v 1.538461 1.923077 -0.500000
v 1.538461 1.923077 -0.499231
v 1.538461 0.769231 -0.500000
v 1.538461 0.769231 -0.499231
v 2.307692 1.923077 -0.499231
v 2.307692 1.923077 -0.500000
v 2.307692 0.769231 -0.499231
v 2.307692 0.769231 -0.500000
v 1.538462 1.923846 0.500000
v 2.307692 1.923846 0.499999
v 1.538462 1.923077 0.500000
v 2.307692 1.923077 0.499999
v 2.307692 1.923846 -0.500000
v 1.538461 1.923846 -0.500000
v 2.307692 1.923077 -0.500000
v 1.538461 1.923077 -0.500000
v 2.307692 1.923846 -0.500000
v 2.307692 1.923846 0.499999
v 1.538461 1.923846 -0.500000
v 1.538462 1.923846 0.500000
v 1.538461 1.923077 -0.500000
v 1.538462 1.923077 0.500000
v 2.307692 1.923077 -0.500000
v 2.307692 1.923077 0.499999
v 1.538461 1.923846 -0.500000
v 1.538462 1.923846 0.500000
v 1.538461 1.923077 -0.500000
v 1.538462 1.923077 0.500000
v 2.307692 1.923846 0.499999
v 2.307692 1.923846 -0.500000
v 2.307692 1.923077 0.499999
v 2.307692 1.923077 -0.500000
v -1.266497 1.041195 0.576154
v -0.497266 0.271964 0.576154
v -1.538461 0.769231 0.576154
v -0.769231 0.000000 0.576154
v -0.497267 0.271964 -0.576154
v -1.266497 1.041195 -0.576154
v -0.769231 0.000000 -0.576154
v -1.538461 0.769231 -0.576154
v -0.497267 0.271964 -0.576154
v -0.497266 0.271964 0.576154
v -1.266497 1.041195 -0.576154
v -1.266497 1.041195 0.576154
v -1.538461 0.769231 -0.576154
v -1.538461 0.769231 0.576154
v -0.769231 0.000000 -0.576154
v -0.769231 0.000000 0.576154
v -1.266497 1.041195 -0.576154
v -1.266497 1.041195 0.576154
v -1.538461 0.769231 -0.576154
v -1.538461 0.769231 0.576154
v -0.497266 0.271964 0.576154
v -0.497267 0.271964 -0.576154
v -0.769231 0.000000 0.576154
v -0.769231 0.000000 -0.576154
v -1.538461 1.153846 0.576923
v -0.769231 1.153846 0.576923
v -1.538461 0.769231 0.576923
v -0.769231 0.769231 0.576923
v -0.769231 1.153846 -0.576923
v -1.538462 1.153846 -0.576923
v -0.769231 0.769231 -0.576923
v -1.538462 0.769231 -0.576923
v -0.769231 1.153846 -0.576923
v -0.769231 1.153846 0.576923
v -1.538462 1.153846 -0.576923
v -1.538461 1.153846 0.576923
v -1.538462 0.769231 -0.576923
v -1.538461 0.769231 0.576923
v -0.769231 0.769231 -0.576923
v -0.769231 0.769231 0.576923
v -1.538462 1.153846 -0.576923
v -1.538461 1.153846 0.576923
v -1.538462 0.769231 -0.576923
v -1.538461 0.769231 0.576923
v -0.769231 1.153846 0.576923
v -0.769231 1.153846 -0.576923
v -0.769231 0.769231 0.576923
v -0.769231 0.769231 -0.576923
v -0.891614 0.891615 0.576154
v -0.642981 0.642981 0.576154
v -1.004266 0.778964 0.576154
v -0.755632 0.530330 0.576154
v -0.642981 0.642981 -0.576154
v -0.891615 0.891615 -0.576154
v -0.755633 0.530330 -0.576154
v -1.004266 0.778964 -0.576154
v -0.642981 0.642981 -0.576154
v -0.642981 0.642981 0.576154
v -0.891615 0.891615 -0.576154
v -0.891614 0.891615 0.576154
v -1.004266 0.778964 -0.576154
v -1.004266 0.778964 0.576154
v -0.755633 0.530330 -0.576154
v -0.755632 0.530330 0.576154
v -0.891615 0.891615 -0.576154
v -0.891614 0.891615 0.576154
v -1.004266 0.778964 -0.576154
v -1.004266 0.778964 0.576154
v -0.642981 0.642981 0.576154
v -0.642981 0.642981 -0.576154
v -0.755632 0.530330 0.576154
v -0.755633 0.530330 -0.576154
v 1.538462 1.153846 0.576923
v 2.307692 1.153846 0.576923
v 1.538462 0.769231 0.576923
v 2.307692 0.769231 0.576923
v 2.307692 1.153846 -0.576923
v 1.538461 1.153846 -0.576923
v 2.307692 0.769231 -0.576923
v 1.538461 0.769231 -0.576923
v 2.307692 1.153846 -0.576923
v 2.307692 1.153846 0.576923
v 1.538461 1.153846 -0.576923
v 1.538462 1.153846 0.576923
v 1.538461 0.769231 -0.576923
v 1.538462 0.769231 0.576923
v 2.307692 0.769231 -0.576923
v 2.307692 0.769231 0.576923
v 1.538461 1.153846 -0.576923
v 1.538462 1.153846 0.576923
v 1.538461 0.769231 -0.576923
v 1.538462 0.769231 0.576923
v 2.307692 1.153846 0.576923
v 2.307692 1.153846 -0.576923
v 2.307692 0.769231 0.576923
v 2.307692 0.769231 -0.576923
v -0.384615 1.153846 -0.383846
v -0.000000 1.153846 -0.383846
v -0.384615 0.769231 -0.383846
v -0.000000 0.769231 -0.383846
v -0.000000 1.153846 -0.384615
v -0.384615 1.153846 -0.384615
v -0.000000 0.769231 -0.384615
v -0.384615 0.769231 -0.384615
v -0.000000 1.153846 -0.384615
v -0.000000 1.153846 -0.383846
v -0.384615 1.153846 -0.384615
v -0.384615 1.153846 -0.383846
v -0.384615 0.769231 -0.384615
v -0.384615 0.769231 -0.383846
v -0.000000 0.769231 -0.384615
v -0.000000 0.769231 -0.383846
v -0.384615 1.153846 -0.384615
v -0.384615 1.153846 -0.383846
v -0.384615 0.769231 -0.384615
v -0.384615 0.769231 -0.383846
v -0.000000 1.153846 -0.383846
v -0.000000 1.153846 -0.384615
v -0.000000 0.769231 -0.383846
v -0.000000 0.769231 -0.384615
v -0.384615 1.153846 0.385385
v 0.000000 1.153846 0.385385
v -0.384615 0.769231 0.385385
v 0.000000 0.769231 0.385385
v 0.000000 1.153846 0.384615
v -0.384615 1.153846 0.384615
v 0.000000 0.769231 0.384615
v -0.384615 0.769231 0.384615
v 0.000000 1.153846 0.384615
v 0.000000 1.153846 0.385385
v -0.384615 1.153846 0.384615
v -0.384615 1.153846 0.385385
v -0.384615 0.769231 0.384615
v -0.384615 0.769231 0.385385
v 0.000000 0.769231 0.384615
v 0.000000 0.769231 0.385385
v -0.384615 1.153846 0.384615
v -0.384615 1.153846 0.385385
v -0.384615 0.769231 0.384615
v -0.384615 0.769231 0.385385
v 0.000000 1.153846 0.385385
v 0.000000 1.153846 0.384615
v 0.000000 0.769231 0.385385
v 0.000000 0.769231 0.384615
vn -0.0000 -0.0000 1.0000
vn -0.0000 -0.0000 -1.0000
vn -0.0000 1.0000 -0.0000
vn -0.0000 -1.0000 -0.0000
vn -1.0000 -0.0000 -0.0000
vn 1.0000 -0.0000 -0.0000
vn 0.7071 0.7071 -0.0000
vn -0.7071 -0.7071 -0.0000
vn -0.7071 0.7071 -0.0000
vn 0.7071 -0.7071 -0.0000
vt 0.000000 0.750000
vt 0.000000 0.687500
vt 0.250000 0.750000
vt 0.250000 0.687500
vt 0.250000 1.000000
vt 0.250000 0.937500
vt 0.500000 1.000000
vt 0.500000 0.937500
vt 0.093750 0.750000
vt 0.093750 1.000000
vt 0.000000 1.000000
vt 0.218750 1.000000
vt 0.218750 0.750000
vt 0.125000 1.000000
vt 0.125000 0.750000
vt 0.375000 0.687500
vt 0.375000 0.625000
vt 0.468750 0.687500
vt 0.468750 0.625000
vt 0.375000 0.750000
vt 0.468750 0.750000
vt 0.000000 0.625000
vt 0.000000 0.531250
vt 0.062500 0.625000
vt 0.062500 0.531250
vt 0.125000 0.625000
vt 0.125000 0.531250
vt 0.000000 0.937500
vt 0.000000 0.906250
vt 0.250000 0.593750
vt 0.312500 0.687500
vt 0.312500 0.593750
vt 0.375000 0.593750
vt 0.062500 1.000000
vt 0.093750 0.625000
vt 0.093750 0.687500
vt 0.218750 0.687500
vt 0.218750 0.625000
vt 0.125000 0.687500
vt 0.500000 0.968750
vt 0.593750 1.000000
vt 0.593750 0.968750
vt 0.125000 0.500000
vt 0.125000 0.468750
vt 0.218750 0.500000
vt 0.218750 0.468750
vt 0.343750 0.843750
vt 0.343750 0.937500
vt 0.250000 0.843750
vt 0.343750 0.812500
vt 0.343750 0.718750
vt 0.250000 0.812500
vt 0.250000 0.718750
vt 0.500000 0.906250
vt 0.593750 0.937500
vt 0.593750 0.906250
vt 0.000000 0.500000
vt 0.000000 0.468750
vt 0.093750 0.500000
vt 0.093750 0.468750
vt 0.500000 0.687500
vt 0.500000 0.656250
vt 0.562500 0.687500
vt 0.562500 0.656250
vt 0.375000 0.500000
vt 0.375000 0.468750
vt 0.437500 0.500000
vt 0.437500 0.468750
vt 0.468750 0.875000
vt 0.468750 0.937500
vt 0.375000 0.875000
vt 0.375000 0.937500
vt 0.218750 0.562500
vt 0.125000 0.562500
vt 0.218750 0.531250
vt 0.468750 0.593750
vt 0.125000 0.437500
vt 0.125000 0.406250
vt 0.156250 0.437500
vt 0.156250 0.406250
vt 0.187500 0.437500
vt 0.187500 0.406250
vt 0.218750 0.437500
vt 0.218750 0.406250
vt 0.343750 0.468750
vt 0.343750 0.500000
vt 0.250000 0.468750
vt 0.250000 0.500000
vt 0.593750 0.750000
vt 0.593750 0.718750
vt 0.500000 0.750000
vt 0.500000 0.718750
vt 0.500000 0.812500
vt 0.500000 0.781250
vt 0.593750 0.812500
vt 0.593750 0.781250
vt 0.500000 0.875000
vt 0.500000 0.843750
vt 0.593750 0.875000
vt 0.593750 0.843750
vt 0.500000 0.625000
vt 0.500000 0.593750
vt 0.562500 0.625000
vt 0.562500 0.593750
vt 0.500000 0.500000
vt 0.500000 0.468750
vt 0.468750 0.812500
vt 0.375000 0.812500
vt 0.375000 0.562500
vt 0.375000 0.531250
vt 0.468750 0.562500
vt 0.468750 0.531250
vt 0.250000 0.562500
vt 0.250000 0.531250
vt 0.343750 0.562500
vt 0.343750 0.531250
vt 0.500000 0.562500
vt 0.500000 0.531250
vt 0.531250 0.562500
vt 0.531250 0.531250
vt 0.531250 0.500000
vt 0.531250 0.468750
vt 0.000000 0.968750
vt 0.000000 0.437500
vt 0.000000 0.406250
vt 0.031250 0.437500
vt 0.031250 0.406250
vt 0.062500 0.437500
vt 0.062500 0.406250
vt 0.093750 0.437500
vt 0.093750 0.406250
s 0
usemtl Material_1
f 49/9/13 51/10/13 50/11/13
f 51/10/13 52/12/13 50/11/13
f 53/13/14 55/14/14 54/15/14
f 55/14/14 56/16/14 54/15/14
f 57/17/15 59/18/15 58/9/15
f 59/18/15 60/19/15 58/9/15
f 61/20/16 63/21/16 62/22/16
f 63/21/16 64/23/16 62/22/16
f 65/24/17 67/25/17 66/26/17
f 67/25/17 68/27/17 66/26/17
f 69/28/18 71/24/18 70/29/18
f 71/24/18 72/26/18 70/29/18
f 73/30/13 75/31/13 74/32/13
f 75/31/13 76/33/13 74/32/13
f 77/32/14 79/33/14 78/34/14
f 79/33/14 80/35/14 78/34/14
f 81/36/15 83/19/15 82/36/15
f 83/19/15 84/19/15 82/36/15
f 85/19/16 87/36/16 86/19/16
f 87/36/16 88/36/16 86/19/16
f 89/19/17 91/37/17 90/19/17
f 91/37/17 92/37/17 90/19/17
f 93/19/18 95/37/18 94/19/18
f 95/37/18 96/37/18 94/19/18
f 97/12/13 99/38/13 98/39/13
f 99/38/13 100/40/13 98/39/13
f 101/39/14 103/40/14 102/24/14
f 103/40/14 104/41/14 102/24/14
f 105/36/15 107/19/15 106/36/15
f 107/19/15 108/19/15 106/36/15
f 109/19/16 111/36/16 110/19/16
f 111/36/16 112/36/16 110/19/16
f 113/19/17 115/37/17 114/19/17
f 115/37/17 116/37/17 114/19/17
f 117/19/18 119/37/18 118/19/18
f 119/37/18 120/37/18 118/19/18
f 121/19/13 123/19/13 122/42/13
f 123/19/13 124/42/13 122/42/13
f 125/19/14 127/19/14 126/42/14
f 127/19/14 128/42/14 126/42/14
f 129/43/15 131/44/15 130/30/15
f 131/44/15 132/10/15 130/30/15
f 133/45/16 135/46/16 134/47/16
f 135/46/16 136/34/16 134/47/16
f 137/19/17 139/19/17 138/18/17
f 139/19/17 140/18/17 138/18/17
f 141/19/18 143/19/18 142/18/18
f 143/19/18 144/18/18 142/18/18
f 145/15/13 147/48/13 146/49/13
f 147/48/13 148/50/13 146/49/13
f 149/51/14 151/52/14 150/53/14
f 151/52/14 152/54/14 150/53/14
f 153/55/19 155/56/19 154/57/19
f 155/56/19 156/14/19 154/57/19
f 157/58/20 159/59/20 158/60/20
f 159/59/20 160/61/20 158/60/20
f 161/16/21 163/62/21 162/63/21
f 163/62/21 164/64/21 162/63/21
f 165/65/22 167/66/22 166/67/22
f 167/66/22 168/68/22 166/67/22
f 169/69/13 171/70/13 170/71/13
f 171/70/13 172/72/13 170/71/13
f 173/73/14 175/74/14 174/75/14
f 175/74/14 176/76/14 174/75/14
f 177/77/15 179/78/15 178/79/15
f 179/78/15 180/80/15 178/79/15
f 181/46/16 183/81/16 182/34/16
f 183/81/16 184/82/16 182/34/16
f 185/82/17 187/35/17 186/81/17
f 187/35/17 188/83/17 186/81/17
f 189/25/18 191/41/18 190/27/18
f 191/41/18 192/84/18 190/27/18
f 193/85/13 195/86/13 194/87/13
f 195/86/13 196/88/13 194/87/13
f 197/89/14 199/90/14 198/91/14
f 199/90/14 200/92/14 198/91/14
f 201/93/19 203/94/19 202/95/19
f 203/94/19 204/96/19 202/95/19
f 205/97/20 207/98/20 206/99/20
f 207/98/20 208/100/20 206/99/20
f 209/101/21 211/102/21 210/103/21
f 211/102/21 212/104/21 210/103/21
f 213/105/22 215/106/22 214/107/22
f 215/106/22 216/108/22 214/107/22
f 217/109/13 219/110/13 218/111/13
f 219/110/13 220/112/13 218/111/13
f 221/75/14 223/76/14 222/113/14
f 223/76/14 224/114/14 222/113/14
f 225/115/15 227/77/15 226/116/15
f 227/77/15 228/79/15 226/116/15
f 229/115/16 231/29/16 230/116/16
f 231/29/16 232/28/16 230/116/16
f 233/117/17 235/118/17 234/119/17
f 235/118/17 236/120/17 234/119/17
f 237/121/18 239/122/18 238/123/18
f 239/122/18 240/124/18 238/123/18
f 241/125/13 243/126/13 242/127/13
f 243/126/13 244/128/13 242/127/13
f 245/113/14 247/114/14 246/129/14
f 247/114/14 248/130/14 246/129/14
f 249/131/15 251/19/15 250/131/15
f 251/19/15 252/19/15 250/131/15
f 253/19/16 255/131/16 254/19/16
f 255/131/16 256/131/16 254/19/16
f 257/19/17 259/131/17 258/19/17
f 259/131/17 260/131/17 258/19/17
f 261/19/18 263/131/18 262/19/18
f 263/131/18 264/131/18 262/19/18
f 265/132/13 267/133/13 266/134/13
f 267/133/13 268/135/13 266/134/13
f 269/136/14 271/137/14 270/138/14
f 271/137/14 272/139/14 270/138/14
f 273/131/15 275/19/15 274/131/15
f 275/19/15 276/19/15 274/131/15
f 277/19/16 279/131/16 278/19/16
f 279/131/16 280/131/16 278/19/16
f 281/19/17 283/131/17 282/19/17
f 283/131/17 284/131/17 282/19/17
f 285/19/18 287/131/18 286/19/18
f 287/131/18 288/131/18 286/19/18
