# Blender 4.2.3 LTS
# www.blender.org
mtllib lev.tommy_grip.mtl
o attachmentModel
v -3.269231 -0.384615 0.576924
v 0.576923 -0.384615 0.576923
v -3.269231 -1.153846 0.576924
v 0.576923 -1.153846 0.576923
v 0.576923 -0.384615 -0.576923
v -3.269231 -0.384615 -0.576922
v 0.576923 -1.153846 -0.576923
v -3.269231 -1.153846 -0.576922
v 0.576923 -0.384615 -0.576923
v 0.576923 -0.384615 0.576923
v -3.269231 -0.384615 -0.576922
v -3.269231 -0.384615 0.576924
v -3.269231 -1.153846 -0.576922
v -3.269231 -1.153846 0.576924
v 0.576923 -1.153846 -0.576923
v 0.576923 -1.153846 0.576923
v -3.269231 -0.384615 -0.576922
v -3.269231 -0.384615 0.576924
v -3.269231 -1.153846 -0.576922
v -3.269231 -1.153846 0.576924
v 0.576923 -0.384615 0.576923
v 0.576923 -0.384615 -0.576923
v 0.576923 -1.153846 0.576923
v 0.576923 -1.153846 -0.576923
v -0.844430 -0.565102 0.576154
v 0.576923 -1.153846 0.576153
v -1.874731 -3.052470 0.576154
v -0.453378 -3.641214 0.576154
v 0.576923 -1.153846 -0.576154
v -0.844430 -0.565102 -0.576154
v -0.453379 -3.641214 -0.576154
v -1.874732 -3.052470 -0.576154
v 0.576923 -1.153846 -0.576154
v 0.576923 -1.153846 0.576153
v -0.844430 -0.565102 -0.576154
v -0.844430 -0.565102 0.576154
v -1.874732 -3.052470 -0.576154
v -1.874731 -3.052470 0.576154
v -0.453379 -3.641214 -0.576154
v -0.453378 -3.641214 0.576154
v -0.844430 -0.565102 -0.576154
v -0.844430 -0.565102 0.576154
v -1.874732 -3.052470 -0.576154
v -1.874731 -3.052470 0.576154
v 0.576923 -1.153846 0.576153
v 0.576923 -1.153846 -0.576154
v -0.453378 -3.641214 0.576154
v -0.453379 -3.641214 -0.576154
v -3.269230 0.000000 0.000770
v 0.961539 0.000000 0.000769
v -3.269230 -0.384615 0.000770
v 0.961539 -0.384615 0.000769
v 0.961539 0.000000 -0.000000
v -3.269230 0.000000 0.000001
v 0.961539 -0.384615 -0.000000
v -3.269230 -0.384615 0.000001
v 0.961539 0.000000 -0.000000
v 0.961539 0.000000 0.000769
v -3.269230 0.000000 0.000001
v -3.269230 0.000000 0.000770
v -3.269230 -0.384615 0.000001
v -3.269230 -0.384615 0.000770
v 0.961539 -0.384615 -0.000000
v 0.961539 -0.384615 0.000769
v -3.269230 0.000000 0.000001
v -3.269230 0.000000 0.000770
v -3.269230 -0.384615 0.000001
v -3.269230 -0.384615 0.000770
v 0.961539 0.000000 0.000769
v 0.961539 0.000000 -0.000000
v 0.961539 -0.384615 0.000769
v 0.961539 -0.384615 -0.000000
vn -0.0000 -0.0000 1.0000
vn -0.0000 -0.0000 -1.0000
vn -0.0000 1.0000 -0.0000
vn -0.0000 -1.0000 -0.0000
vn -1.0000 -0.0000 -0.0000
vn 1.0000 -0.0000 -0.0000
vn 0.3827 0.9239 -0.0000
vn -0.3827 -0.9239 -0.0000
vn -0.9239 0.3827 -0.0000
vn 0.9239 -0.3827 -0.0000
vt 0.437500 1.000000
vt 0.437500 0.937500
vt 0.750000 1.000000
vt 0.750000 0.937500
vt 0.375000 0.937500
vt 0.375000 0.875000
vt 0.687500 0.937500
vt 0.687500 0.875000
vt 0.093750 0.625000
vt 0.093750 0.937500
vt 0.000000 0.625000
vt 0.000000 0.937500
vt 0.218750 0.968750
vt 0.218750 0.656250
vt 0.125000 0.968750
vt 0.125000 0.656250
vt 0.500000 0.750000
vt 0.500000 0.687500
vt 0.593750 0.750000
vt 0.593750 0.687500
vt 0.250000 0.500000
vt 0.250000 0.437500
vt 0.343750 0.500000
vt 0.343750 0.437500
vt 0.250000 1.000000
vt 0.250000 0.781250
vt 0.375000 1.000000
vt 0.375000 0.781250
vt 0.250000 0.750000
vt 0.250000 0.531250
vt 0.375000 0.750000
vt 0.375000 0.531250
vt 0.468750 0.625000
vt 0.468750 0.750000
vt 0.375000 0.625000
vt 0.468750 0.500000
vt 0.375000 0.500000
vt 0.125000 0.625000
vt 0.125000 0.406250
vt 0.218750 0.625000
vt 0.218750 0.406250
vt 0.000000 0.406250
vt 0.093750 0.406250
vt 0.406250 0.875000
vt 0.406250 0.843750
vt 0.750000 0.875000
vt 0.750000 0.843750
vt 0.375000 0.812500
vt 0.718750 0.812500
vt 0.718750 0.781250
vt 0.000000 1.000000
vt 0.000000 0.968750
s 0
usemtl Material_0
f 1/1/1 3/2/1 2/3/1
f 3/2/1 4/4/1 2/3/1
f 5/5/2 7/6/2 6/7/2
f 7/6/2 8/8/2 6/7/2
f 9/9/3 11/10/3 10/11/3
f 11/10/3 12/12/3 10/11/3
f 13/13/4 15/14/4 14/15/4
f 15/14/4 16/16/4 14/15/4
f 17/17/5 19/18/5 18/19/5
f 19/18/5 20/20/5 18/19/5
f 21/21/6 23/22/6 22/23/6
f 23/22/6 24/24/6 22/23/6
f 25/25/1 27/26/1 26/27/1
f 27/26/1 28/28/1 26/27/1
f 29/29/2 31/30/2 30/31/2
f 31/30/2 32/32/2 30/31/2
f 33/33/7 35/34/7 34/35/7
f 35/34/7 36/31/7 34/35/7
f 37/33/8 39/36/8 38/35/8
f 39/36/8 40/37/8 38/35/8
f 41/38/9 43/39/9 42/40/9
f 43/39/9 44/41/9 42/40/9
f 45/11/10 47/42/10 46/9/10
f 47/42/10 48/43/10 46/9/10
f 49/44/1 51/45/1 50/46/1
f 51/45/1 52/47/1 50/46/1
f 53/48/2 55/28/2 54/49/2
f 55/28/2 56/50/2 54/49/2
f 57/11/3 59/51/3 58/11/3
f 59/51/3 60/51/3 58/11/3
f 61/51/4 63/11/4 62/51/4
f 63/11/4 64/11/4 62/51/4
f 65/51/5 67/52/5 66/51/5
f 67/52/5 68/52/5 66/51/5
f 69/51/6 71/52/6 70/51/6
f 71/52/6 72/52/6 70/51/6
