# Blender 4.2.3 LTS
# www.blender.org
mtllib lev.lantacdragon.mtl
o attachmentModel
v 0.000000 0.384615 0.384615
v 0.384615 0.384615 0.384615
v 0.000000 -0.384615 0.384615
v 0.384615 -0.384615 0.384615
v 0.384615 0.384615 -0.384615
v -0.000000 0.384615 -0.384615
v 0.384615 -0.384615 -0.384615
v -0.000000 -0.384615 -0.384615
v 0.384615 0.384615 -0.384615
v 0.384615 0.384615 0.384615
v -0.000000 0.384615 -0.384615
v 0.000000 0.384615 0.384615
v -0.000000 -0.384615 -0.384615
v 0.000000 -0.384615 0.384615
v 0.384615 -0.384615 -0.384615
v 0.384615 -0.384615 0.384615
v -0.000000 0.384615 -0.384615
v 0.000000 0.384615 0.384615
v -0.000000 -0.384615 -0.384615
v 0.000000 -0.384615 0.384615
v 0.384615 0.384615 0.384615
v 0.384615 0.384615 -0.384615
v 0.384615 -0.384615 0.384615
v 0.384615 -0.384615 -0.384615
v 0.000000 -0.383846 0.384615
v 2.307692 -0.383846 0.384615
v 0.000000 -0.384615 0.384615
v 2.307692 -0.384615 0.384615
v 2.307692 -0.383846 -0.384616
v -0.000000 -0.383846 -0.384615
v 2.307692 -0.384615 -0.384616
v -0.000000 -0.384615 -0.384615
v 2.307692 -0.383846 -0.384616
v 2.307692 -0.383846 0.384615
v -0.000000 -0.383846 -0.384615
v 0.000000 -0.383846 0.384615
v -0.000000 -0.384615 -0.384615
v 0.000000 -0.384615 0.384615
v 2.307692 -0.384615 -0.384616
v 2.307692 -0.384615 0.384615
v -0.000000 -0.383846 -0.384615
v 0.000000 -0.383846 0.384615
v -0.000000 -0.384615 -0.384615
v 0.000000 -0.384615 0.384615
v 2.307692 -0.383846 0.384615
v 2.307692 -0.383846 -0.384616
v 2.307692 -0.384615 0.384615
v 2.307692 -0.384615 -0.384616
v 0.000000 0.385385 0.384615
v 2.307692 0.385385 0.384615
v 0.000000 0.384615 0.384615
v 2.307692 0.384615 0.384615
v 2.307692 0.385385 -0.384616
v -0.000000 0.385385 -0.384615
v 2.307692 0.384615 -0.384616
v -0.000000 0.384615 -0.384615
v 2.307692 0.385385 -0.384616
v 2.307692 0.385385 0.384615
v -0.000000 0.385385 -0.384615
v 0.000000 0.385385 0.384615
v -0.000000 0.384615 -0.384615
v 0.000000 0.384615 0.384615
v 2.307692 0.384615 -0.384616
v 2.307692 0.384615 0.384615
v -0.000000 0.385385 -0.384615
v 0.000000 0.385385 0.384615
v -0.000000 0.384615 -0.384615
v 0.000000 0.384615 0.384615
v 2.307692 0.385385 0.384615
v 2.307692 0.385385 -0.384616
v 2.307692 0.384615 0.384615
v 2.307692 0.384615 -0.384616
v 0.000000 0.384615 0.385385
v 2.307692 0.384615 0.385384
v 0.000000 -0.384615 0.385385
v 2.307692 -0.384615 0.385384
v 2.307692 0.384615 0.384615
v 0.000000 0.384615 0.384615
v 2.307692 -0.384615 0.384615
v 0.000000 -0.384615 0.384615
v 2.307692 0.384615 0.384615
v 2.307692 0.384615 0.385384
v 0.000000 0.384615 0.384615
v 0.000000 0.384615 0.385385
v 0.000000 -0.384615 0.384615
v 0.000000 -0.384615 0.385385
v 2.307692 -0.384615 0.384615
v 2.307692 -0.384615 0.385384
v 0.000000 0.384615 0.384615
v 0.000000 0.384615 0.385385
v 0.000000 -0.384615 0.384615
v 0.000000 -0.384615 0.385385
v 2.307692 0.384615 0.385384
v 2.307692 0.384615 0.384615
v 2.307692 -0.384615 0.385384
v 2.307692 -0.384615 0.384615
v -0.000000 0.384615 -0.383846
v 2.307692 0.384615 -0.383847
v -0.000000 -0.384615 -0.383846
v 2.307692 -0.384615 -0.383847
v 2.307692 0.384615 -0.384616
v -0.000000 0.384615 -0.384615
v 2.307692 -0.384615 -0.384616
v -0.000000 -0.384615 -0.384615
v 2.307692 0.384615 -0.384616
v 2.307692 0.384615 -0.383847
v -0.000000 0.384615 -0.384615
v -0.000000 0.384615 -0.383846
v -0.000000 -0.384615 -0.384615
v -0.000000 -0.384615 -0.383846
v 2.307692 -0.384615 -0.384616
v 2.307692 -0.384615 -0.383847
v -0.000000 0.384615 -0.384615
v -0.000000 0.384615 -0.383846
v -0.000000 -0.384615 -0.384615
v -0.000000 -0.384615 -0.383846
v 2.307692 0.384615 -0.383847
v 2.307692 0.384615 -0.384616
v 2.307692 -0.384615 -0.383847
v 2.307692 -0.384615 -0.384616
v 2.306923 0.384615 0.384615
v 2.307692 0.384615 0.384615
v 2.306923 -0.384615 0.384615
v 2.307692 -0.384615 0.384615
v 2.307692 0.384615 -0.384616
v 2.306923 0.384615 -0.384616
v 2.307692 -0.384615 -0.384616
v 2.306923 -0.384615 -0.384616
v 2.307692 0.384615 -0.384616
v 2.307692 0.384615 0.384615
v 2.306923 0.384615 -0.384616
v 2.306923 0.384615 0.384615
v 2.306923 -0.384615 -0.384616
v 2.306923 -0.384615 0.384615
v 2.307692 -0.384615 -0.384616
v 2.307692 -0.384615 0.384615
v 2.306923 0.384615 -0.384616
v 2.306923 0.384615 0.384615
v 2.306923 -0.384615 -0.384616
v 2.306923 -0.384615 0.384615
v 2.307692 0.384615 0.384615
v 2.307692 0.384615 -0.384616
v 2.307692 -0.384615 0.384615
v 2.307692 -0.384615 -0.384616
v 2.307692 -0.383846 0.192307
v 2.692307 -0.383846 0.192307
v 2.307692 -0.384615 0.192307
v 2.692307 -0.384615 0.192307
v 2.692307 -0.383846 -0.192308
v 2.307692 -0.383846 -0.192308
v 2.692307 -0.384615 -0.192308
v 2.307692 -0.384615 -0.192308
v 2.692307 -0.383846 -0.192308
v 2.692307 -0.383846 0.192307
v 2.307692 -0.383846 -0.192308
v 2.307692 -0.383846 0.192307
v 2.307692 -0.384615 -0.192308
v 2.307692 -0.384615 0.192307
v 2.692307 -0.384615 -0.192308
v 2.692307 -0.384615 0.192307
v 2.307692 -0.383846 -0.192308
v 2.307692 -0.383846 0.192307
v 2.307692 -0.384615 -0.192308
v 2.307692 -0.384615 0.192307
v 2.692307 -0.383846 0.192307
v 2.692307 -0.383846 -0.192308
v 2.692307 -0.384615 0.192307
v 2.692307 -0.384615 -0.192308
v 2.307692 0.384615 -0.383847
v 2.692307 0.384615 -0.383847
v 2.307692 0.000000 -0.383847
v 2.692307 0.000000 -0.383847
v 2.692307 0.384615 -0.384616
v 2.307692 0.384615 -0.384616
v 2.692307 0.000000 -0.384616
v 2.307692 0.000000 -0.384616
v 2.692307 0.384615 -0.384616
v 2.692307 0.384615 -0.383847
v 2.307692 0.384615 -0.384616
v 2.307692 0.384615 -0.383847
v 2.307692 0.000000 -0.384616
v 2.307692 0.000000 -0.383847
v 2.692307 0.000000 -0.384616
v 2.692307 0.000000 -0.383847
v 2.307692 0.384615 -0.384616
v 2.307692 0.384615 -0.383847
v 2.307692 0.000000 -0.384616
v 2.307692 0.000000 -0.383847
v 2.692307 0.384615 -0.383847
v 2.692307 0.384615 -0.384616
v 2.692307 0.000000 -0.383847
v 2.692307 0.000000 -0.384616
v 2.307692 0.384615 0.385384
v 2.692307 0.384615 0.385384
v 2.307692 0.000000 0.385384
v 2.692307 0.000000 0.385384
v 2.692307 0.384615 0.384615
v 2.307692 0.384615 0.384615
v 2.692307 0.000000 0.384615
v 2.307692 0.000000 0.384615
v 2.692307 0.384615 0.384615
v 2.692307 0.384615 0.385384
v 2.307692 0.384615 0.384615
v 2.307692 0.384615 0.385384
v 2.307692 0.000000 0.384615
v 2.307692 0.000000 0.385384
v 2.692307 0.000000 0.384615
v 2.692307 0.000000 0.385384
v 2.307692 0.384615 0.384615
v 2.307692 0.384615 0.385384
v 2.307692 0.000000 0.384615
v 2.307692 0.000000 0.385384
v 2.692307 0.384615 0.385384
v 2.692307 0.384615 0.384615
v 2.692307 0.000000 0.385384
v 2.692307 0.000000 0.384615
vn -0.0000 -0.0000 1.0000
vn -0.0000 -0.0000 -1.0000
vn -0.0000 1.0000 -0.0000
vn -0.0000 -1.0000 -0.0000
vn -1.0000 -0.0000 -0.0000
vn 1.0000 -0.0000 -0.0000
vt 0.437500 0.500000
vt 0.437500 0.437500
vt 0.468750 0.500000
vt 0.468750 0.437500
vt 0.500000 0.562500
vt 0.500000 0.500000
vt 0.531250 0.562500
vt 0.531250 0.500000
vt 0.562500 0.468750
vt 0.562500 0.500000
vt 0.500000 0.468750
vt 0.125000 0.437500
vt 0.125000 0.406250
vt 0.062500 0.437500
vt 0.062500 0.406250
vt 0.500000 0.687500
vt 0.500000 0.625000
vt 0.562500 0.687500
vt 0.562500 0.625000
vt 0.312500 0.500000
vt 0.312500 0.437500
vt 0.375000 0.500000
vt 0.375000 0.437500
vt 0.000000 1.000000
vt 0.187500 1.000000
vt 0.187500 0.562500
vt 0.187500 0.750000
vt 0.125000 0.562500
vt 0.125000 0.750000
vt 0.250000 0.625000
vt 0.250000 0.437500
vt 0.187500 0.625000
vt 0.187500 0.437500
vt 0.062500 1.000000
vt 0.312500 0.625000
vt 0.062500 0.562500
vt 0.062500 0.375000
vt 0.000000 0.562500
vt 0.000000 0.375000
vt 0.437500 1.000000
vt 0.437500 0.937500
vt 0.625000 1.000000
vt 0.625000 0.937500
vt 0.437500 0.875000
vt 0.625000 0.875000
vt 0.000000 0.812500
vt 0.000000 0.937500
vt 0.437500 0.812500
vt 0.625000 0.812500
vt 0.312500 0.562500
vt 0.562500 0.562500
vt 0.031250 1.000000
vt 0.156250 0.406250
vt 0.156250 0.437500
vt 0.218750 0.437500
vt 0.218750 0.406250
vt 0.187500 0.406250
vt 0.250000 0.406250
vt 0.281250 0.437500
vt 0.281250 0.406250
vt 0.312500 0.406250
vt 0.343750 0.437500
vt 0.343750 0.406250
vt 0.000000 0.968750
vt 0.562500 0.656250
vt 0.593750 0.687500
vt 0.593750 0.656250
vt 0.375000 0.406250
vt 0.406250 0.437500
vt 0.406250 0.406250
s 0
usemtl Material_0
f 1/1/1 3/2/1 2/3/1
f 3/2/1 4/4/1 2/3/1
f 5/5/2 7/6/2 6/7/2
f 7/6/2 8/8/2 6/7/2
f 9/9/3 11/10/3 10/11/3
f 11/10/3 12/6/3 10/11/3
f 13/12/4 15/13/4 14/14/4
f 15/13/4 16/15/4 14/14/4
f 17/16/5 19/17/5 18/18/5
f 19/17/5 20/19/5 18/18/5
f 21/20/6 23/21/6 22/22/6
f 23/21/6 24/23/6 22/22/6
f 25/24/1 27/24/1 26/25/1
f 27/24/1 28/25/1 26/25/1
f 29/24/2 31/24/2 30/25/2
f 31/24/2 32/25/2 30/25/2
f 33/26/3 35/27/3 34/28/3
f 35/27/3 36/29/3 34/28/3
f 37/30/4 39/31/4 38/32/4
f 39/31/4 40/33/4 38/32/4
f 41/24/5 43/24/5 42/34/5
f 43/24/5 44/34/5 42/34/5
f 45/24/6 47/24/6 46/34/6
f 47/24/6 48/34/6 46/34/6
f 49/24/1 51/24/1 50/25/1
f 51/24/1 52/25/1 50/25/1
f 53/24/2 55/24/2 54/25/2
f 55/24/2 56/25/2 54/25/2
f 57/21/3 59/35/3 58/31/3
f 59/35/3 60/30/3 58/31/3
f 61/36/4 63/37/4 62/38/4
f 63/37/4 64/39/4 62/38/4
f 65/24/5 67/24/5 66/34/5
f 67/24/5 68/34/5 66/34/5
f 69/24/6 71/24/6 70/34/6
f 71/24/6 72/34/6 70/34/6
f 73/40/1 75/41/1 74/42/1
f 75/41/1 76/43/1 74/42/1
f 77/41/2 79/44/2 78/43/2
f 79/44/2 80/45/2 78/43/2
f 81/46/3 83/24/3 82/46/3
f 83/24/3 84/24/3 82/46/3
f 85/24/4 87/46/4 86/24/4
f 87/46/4 88/46/4 86/24/4
f 89/24/5 91/47/5 90/24/5
f 91/47/5 92/47/5 90/24/5
f 93/24/6 95/47/6 94/24/6
f 95/47/6 96/47/6 94/24/6
f 97/44/1 99/48/1 98/45/1
f 99/48/1 100/49/1 98/45/1
f 101/50/2 103/20/2 102/5/2
f 103/20/2 104/6/2 102/5/2
f 105/46/3 107/24/3 106/46/3
f 107/24/3 108/24/3 106/46/3
f 109/24/4 111/46/4 110/24/4
f 111/46/4 112/46/4 110/24/4
f 113/24/5 115/47/5 114/24/5
f 115/47/5 116/47/5 114/24/5
f 117/24/6 119/47/6 118/24/6
f 119/47/6 120/47/6 118/24/6
f 121/24/1 123/47/1 122/24/1
f 123/47/1 124/47/1 122/24/1
f 125/24/2 127/47/2 126/24/2
f 127/47/2 128/47/2 126/24/2
f 129/34/3 131/34/3 130/24/3
f 131/34/3 132/24/3 130/24/3
f 133/34/4 135/34/4 134/24/4
f 135/34/4 136/24/4 134/24/4
f 137/17/5 139/5/5 138/19/5
f 139/5/5 140/51/5 138/19/5
f 141/22/6 143/23/6 142/1/6
f 143/23/6 144/2/6 142/1/6
f 145/24/1 147/24/1 146/52/1
f 147/24/1 148/52/1 146/52/1
f 149/24/2 151/24/2 150/52/2
f 151/24/2 152/52/2 150/52/2
f 153/53/3 155/54/3 154/13/3
f 155/54/3 156/12/3 154/13/3
f 157/55/4 159/56/4 158/33/4
f 159/56/4 160/57/4 158/33/4
f 161/24/5 163/24/5 162/52/5
f 163/24/5 164/52/5 162/52/5
f 165/24/6 167/24/6 166/52/6
f 167/24/6 168/52/6 166/52/6
f 169/31/1 171/58/1 170/59/1
f 171/58/1 172/60/1 170/59/1
f 173/21/2 175/61/2 174/62/2
f 175/61/2 176/63/2 174/62/2
f 177/64/3 179/24/3 178/64/3
f 179/24/3 180/24/3 178/64/3
f 181/24/4 183/64/4 182/24/4
f 183/64/4 184/64/4 182/24/4
f 185/24/5 187/64/5 186/24/5
f 187/64/5 188/64/5 186/24/5
f 189/24/6 191/64/6 190/24/6
f 191/64/6 192/64/6 190/24/6
f 193/18/1 195/65/1 194/66/1
f 195/65/1 196/67/1 194/66/1
f 197/23/2 199/68/2 198/69/2
f 199/68/2 200/70/2 198/69/2
f 201/64/3 203/24/3 202/64/3
f 203/24/3 204/24/3 202/64/3
f 205/24/4 207/64/4 206/24/4
f 207/64/4 208/64/4 206/24/4
f 209/24/5 211/64/5 210/24/5
f 211/64/5 212/64/5 210/24/5
f 213/24/6 215/64/6 214/24/6
f 215/64/6 216/64/6 214/24/6
