# Blender 4.2.2 LTS
# www.blender.org
mtllib lev.valstock.mtl
o attachmentModel
v 0.384615 0.576923 1.538462
v 0.384615 0.576923 0.384615
v 0.384615 -0.576923 1.538462
v 0.384615 -0.576923 0.384615
v -0.384615 0.576923 0.384615
v -0.384615 0.576923 1.538462
v -0.384615 -0.576923 0.384615
v -0.384615 -0.576923 1.538462
v -0.384615 0.576923 0.384615
v 0.384615 0.576923 0.384615
v -0.384615 0.576923 1.538462
v 0.384615 0.576923 1.538462
v -0.384615 -0.576923 1.538462
v 0.384615 -0.576923 1.538462
v -0.384615 -0.576923 0.384615
v 0.384615 -0.576923 0.384615
v -0.384615 0.576923 1.538462
v 0.384615 0.576923 1.538462
v -0.384615 -0.576923 1.538462
v 0.384615 -0.576923 1.538462
v 0.384615 0.576923 0.384615
v -0.384615 0.576923 0.384615
v 0.384615 -0.576923 0.384615
v -0.384615 -0.576923 0.384615
v 0.192308 0.576923 7.307693
v 0.192308 0.576923 1.538462
v 0.192308 0.192308 7.307693
v 0.192308 0.192308 1.538462
v -0.192308 0.576923 1.538462
v -0.192308 0.576923 7.307693
v -0.192308 0.192308 1.538462
v -0.192308 0.192308 7.307693
v -0.192308 0.576923 1.538462
v 0.192308 0.576923 1.538462
v -0.192308 0.576923 7.307693
v 0.192308 0.576923 7.307693
v -0.192308 0.192308 7.307693
v 0.192308 0.192308 7.307693
v -0.192308 0.192308 1.538462
v 0.192308 0.192308 1.538462
v -0.192308 0.576923 7.307693
v 0.192308 0.576923 7.307693
v -0.192308 0.192308 7.307693
v 0.192308 0.192308 7.307693
v 0.192308 0.576923 1.538462
v -0.192308 0.576923 1.538462
v 0.192308 0.192308 1.538462
v -0.192308 0.192308 1.538462
v 0.192308 -1.730769 7.307693
v 0.192308 -1.730769 5.384615
v 0.192308 -2.115385 7.307693
v 0.192308 -2.115385 5.384615
v -0.192308 -1.730769 5.384615
v -0.192308 -1.730769 7.307693
v -0.192308 -2.115385 5.384615
v -0.192308 -2.115385 7.307693
v -0.192308 -1.730769 5.384615
v 0.192308 -1.730769 5.384615
v -0.192308 -1.730769 7.307693
v 0.192308 -1.730769 7.307693
v -0.192308 -2.115385 7.307693
v 0.192308 -2.115385 7.307693
v -0.192308 -2.115385 5.384615
v 0.192308 -2.115385 5.384615
v -0.192308 -1.730769 7.307693
v 0.192308 -1.730769 7.307693
v -0.192308 -2.115385 7.307693
v 0.192308 -2.115385 7.307693
v 0.192308 -1.730769 5.384615
v -0.192308 -1.730769 5.384615
v 0.192308 -2.115385 5.384615
v -0.192308 -2.115385 5.384615
v 0.192308 -1.760047 5.531801
v 0.192308 0.006185 1.267742
v 0.192308 -2.115385 5.384615
v 0.192308 -0.349153 1.120556
v -0.192308 0.006185 1.267742
v -0.192308 -1.760047 5.531801
v -0.192308 -0.349153 1.120556
v -0.192308 -2.115385 5.384615
v -0.192308 0.006185 1.267742
v 0.192308 0.006185 1.267742
v -0.192308 -1.760047 5.531801
v 0.192308 -1.760047 5.531801
v -0.192308 -2.115385 5.384615
v 0.192308 -2.115385 5.384615
v -0.192308 -0.349153 1.120556
v 0.192308 -0.349153 1.120556
v -0.192308 -1.760047 5.531801
v 0.192308 -1.760047 5.531801
v -0.192308 -2.115385 5.384615
v 0.192308 -2.115385 5.384615
v 0.192308 0.006185 1.267742
v -0.192308 0.006185 1.267742
v 0.192308 -0.349153 1.120556
v -0.192308 -0.349153 1.120556
v 0.384615 0.576923 7.692307
v 0.384615 0.576923 7.307693
v 0.384615 -2.115385 7.692307
v 0.384615 -2.115385 7.307693
v -0.384615 0.576923 7.307693
v -0.384615 0.576923 7.692307
v -0.384615 -2.115385 7.307693
v -0.384615 -2.115385 7.692307
v -0.384615 0.576923 7.307693
v 0.384615 0.576923 7.307693
v -0.384615 0.576923 7.692307
v 0.384615 0.576923 7.692307
v -0.384615 -2.115385 7.692307
v 0.384615 -2.115385 7.692307
v -0.384615 -2.115385 7.307693
v 0.384615 -2.115385 7.307693
v -0.384615 0.576923 7.692307
v 0.384615 0.576923 7.692307
v -0.384615 -2.115385 7.692307
v 0.384615 -2.115385 7.692307
v 0.384615 0.576923 7.307693
v -0.384615 0.576923 7.307693
v 0.384615 -2.115385 7.307693
v -0.384615 -2.115385 7.307693
v 0.193154 0.192308 4.230769
v 0.193154 0.192308 3.461539
v 0.193154 -1.346154 4.230769
v 0.193154 -1.346154 3.461539
v 0.192385 0.192308 3.461539
v 0.192385 0.192308 4.230769
v 0.192385 -1.346154 3.461539
v 0.192385 -1.346154 4.230769
v 0.192385 0.192308 3.461539
v 0.193154 0.192308 3.461539
v 0.192385 0.192308 4.230769
v 0.193154 0.192308 4.230769
v 0.192385 -1.346154 4.230769
v 0.193154 -1.346154 4.230769
v 0.192385 -1.346154 3.461539
v 0.193154 -1.346154 3.461539
v 0.192385 0.192308 4.230769
v 0.193154 0.192308 4.230769
v 0.192385 -1.346154 4.230769
v 0.193154 -1.346154 4.230769
v 0.193154 0.192308 3.461539
v 0.192385 0.192308 3.461539
v 0.193154 -1.346154 3.461539
v 0.192385 -1.346154 3.461539
v -0.191615 0.192308 4.230769
v -0.191615 0.192308 3.461538
v -0.191615 -1.346154 4.230769
v -0.191615 -1.346154 3.461538
v -0.192385 0.192308 3.461538
v -0.192385 0.192308 4.230769
v -0.192385 -1.346154 3.461538
v -0.192385 -1.346154 4.230769
v -0.192385 0.192308 3.461538
v -0.191615 0.192308 3.461538
v -0.192385 0.192308 4.230769
v -0.191615 0.192308 4.230769
v -0.192385 -1.346154 4.230769
v -0.191615 -1.346154 4.230769
v -0.192385 -1.346154 3.461538
v -0.191615 -1.346154 3.461538
v -0.192385 0.192308 4.230769
v -0.191615 0.192308 4.230769
v -0.192385 -1.346154 4.230769
v -0.191615 -1.346154 4.230769
v -0.191615 0.192308 3.461538
v -0.192385 0.192308 3.461538
v -0.191615 -1.346154 3.461538
v -0.192385 -1.346154 3.461538
v 0.576923 0.769231 0.384615
v 0.576923 0.769231 0.000000
v 0.576923 -0.769231 0.384615
v 0.576923 -0.769231 0.000000
v -0.576923 0.769231 0.000000
v -0.576923 0.769231 0.384615
v -0.576923 -0.769231 0.000000
v -0.576923 -0.769231 0.384615
v -0.576923 0.769231 0.000000
v 0.576923 0.769231 0.000000
v -0.576923 0.769231 0.384615
v 0.576923 0.769231 0.384615
v -0.576923 -0.769231 0.384615
v 0.576923 -0.769231 0.384615
v -0.576923 -0.769231 0.000000
v 0.576923 -0.769231 0.000000
v -0.576923 0.769231 0.384615
v 0.576923 0.769231 0.384615
v -0.576923 -0.769231 0.384615
v 0.576923 -0.769231 0.384615
v 0.576923 0.769231 0.000000
v -0.576923 0.769231 0.000000
v 0.576923 -0.769231 0.000000
v -0.576923 -0.769231 0.000000
vn 1.0000 -0.0000 -0.0000
vn -1.0000 -0.0000 -0.0000
vn -0.0000 1.0000 -0.0000
vn -0.0000 -1.0000 -0.0000
vn -0.0000 -0.0000 1.0000
vn -0.0000 -0.0000 -1.0000
vn -0.0000 0.9239 0.3827
vn -0.0000 -0.9239 -0.3827
vn -0.0000 -0.3827 0.9239
vn -0.0000 0.3827 -0.9239
vt 0.593750 0.984375
vt 0.593750 0.960938
vt 0.617188 0.984375
vt 0.617188 0.960938
vt 0.031250 0.406250
vt 0.031250 0.382812
vt 0.054688 0.406250
vt 0.054688 0.382812
vt 0.140625 0.351562
vt 0.140625 0.375000
vt 0.125000 0.351562
vt 0.125000 0.375000
vt 0.640625 0.875000
vt 0.640625 0.851562
vt 0.625000 0.875000
vt 0.625000 0.851562
vt 0.625000 0.906250
vt 0.625000 0.882812
vt 0.640625 0.906250
vt 0.640625 0.882812
vt 0.484375 0.390625
vt 0.484375 0.367188
vt 0.500000 0.390625
vt 0.500000 0.367188
vt 0.468750 0.781250
vt 0.468750 0.773438
vt 0.585938 0.781250
vt 0.585938 0.773438
vt 0.500000 0.796875
vt 0.500000 0.789062
vt 0.617188 0.796875
vt 0.617188 0.789062
vt 0.164062 0.382812
vt 0.164062 0.500000
vt 0.156250 0.382812
vt 0.156250 0.500000
vt 0.179688 0.500000
vt 0.179688 0.382812
vt 0.171875 0.500000
vt 0.171875 0.382812
vt 0.265625 0.328125
vt 0.265625 0.320312
vt 0.273438 0.328125
vt 0.273438 0.320312
vt 0.671875 0.750000
vt 0.671875 0.742188
vt 0.679688 0.750000
vt 0.679688 0.742188
vt 0.625000 0.625000
vt 0.625000 0.617188
vt 0.664062 0.625000
vt 0.664062 0.617188
vt 0.625000 0.609375
vt 0.625000 0.601562
vt 0.664062 0.609375
vt 0.664062 0.601562
vt 0.179688 0.335938
vt 0.179688 0.375000
vt 0.171875 0.335938
vt 0.171875 0.375000
vt 0.398438 0.375000
vt 0.398438 0.335938
vt 0.390625 0.375000
vt 0.390625 0.335938
vt 0.281250 0.328125
vt 0.281250 0.320312
vt 0.289062 0.328125
vt 0.289062 0.320312
vt 0.671875 0.734375
vt 0.671875 0.726562
vt 0.679688 0.734375
vt 0.679688 0.726562
vt 0.531250 0.937500
vt 0.531250 0.929688
vt 0.625000 0.937500
vt 0.625000 0.929688
vt 0.531250 0.593750
vt 0.531250 0.585938
vt 0.625000 0.593750
vt 0.625000 0.585938
vt 0.101562 0.359375
vt 0.101562 0.453125
vt 0.093750 0.359375
vt 0.093750 0.453125
vt 0.117188 0.453125
vt 0.117188 0.359375
vt 0.109375 0.453125
vt 0.109375 0.359375
vt 0.250000 0.328125
vt 0.250000 0.320312
vt 0.257812 0.328125
vt 0.257812 0.320312
vt 0.671875 0.765625
vt 0.671875 0.757812
vt 0.679688 0.765625
vt 0.679688 0.757812
vt 0.421875 0.390625
vt 0.421875 0.335938
vt 0.429688 0.390625
vt 0.429688 0.335938
vt 0.468750 0.390625
vt 0.468750 0.335938
vt 0.476562 0.390625
vt 0.476562 0.335938
vt 0.609375 0.335938
vt 0.609375 0.343750
vt 0.593750 0.335938
vt 0.593750 0.343750
vt 0.625000 0.343750
vt 0.625000 0.335938
vt 0.406250 0.484375
vt 0.406250 0.429688
vt 0.421875 0.484375
vt 0.421875 0.429688
vt 0.515625 0.640625
vt 0.515625 0.585938
vt 0.531250 0.640625
vt 0.187500 0.390625
vt 0.187500 0.359375
vt 0.203125 0.390625
vt 0.203125 0.359375
vt 0.218750 0.390625
vt 0.218750 0.359375
vt 0.000000 0.984375
vt 0.000000 1.000000
vt 0.000000 0.968750
vt 0.500000 0.406250
vt 0.500000 0.375000
vt 0.515625 0.406250
vt 0.515625 0.375000
vt 0.609375 0.828125
vt 0.609375 0.796875
vt 0.625000 0.828125
vt 0.625000 0.796875
vt 0.250000 0.359375
vt 0.257812 0.359375
vt 0.265625 0.359375
vt 0.273438 0.359375
vt 0.664062 0.460938
vt 0.664062 0.468750
vt 0.640625 0.460938
vt 0.640625 0.468750
vt 0.570312 0.359375
vt 0.570312 0.351562
vt 0.546875 0.359375
vt 0.546875 0.351562
vt 0.062500 0.453125
vt 0.062500 0.421875
vt 0.085938 0.453125
vt 0.085938 0.421875
s 0
usemtl Material_0
f 1/1/1 3/2/1 2/3/1
f 3/2/1 4/4/1 2/3/1
f 5/5/2 7/6/2 6/7/2
f 7/6/2 8/8/2 6/7/2
f 9/9/3 11/10/3 10/11/3
f 11/10/3 12/12/3 10/11/3
f 13/13/4 15/14/4 14/15/4
f 15/14/4 16/16/4 14/15/4
f 17/17/5 19/18/5 18/19/5
f 19/18/5 20/20/5 18/19/5
f 21/21/6 23/22/6 22/23/6
f 23/22/6 24/24/6 22/23/6
f 25/25/1 27/26/1 26/27/1
f 27/26/1 28/28/1 26/27/1
f 29/29/2 31/30/2 30/31/2
f 31/30/2 32/32/2 30/31/2
f 33/33/3 35/34/3 34/35/3
f 35/34/3 36/36/3 34/35/3
f 37/37/4 39/38/4 38/39/4
f 39/38/4 40/40/4 38/39/4
f 41/41/5 43/42/5 42/43/5
f 43/42/5 44/44/5 42/43/5
f 45/45/6 47/46/6 46/47/6
f 47/46/6 48/48/6 46/47/6
f 49/49/1 51/50/1 50/51/1
f 51/50/1 52/52/1 50/51/1
f 53/53/2 55/54/2 54/55/2
f 55/54/2 56/56/2 54/55/2
f 57/57/3 59/58/3 58/59/3
f 59/58/3 60/60/3 58/59/3
f 61/61/4 63/62/4 62/63/4
f 63/62/4 64/64/4 62/63/4
f 65/65/5 67/66/5 66/67/5
f 67/66/5 68/68/5 66/67/5
f 69/69/6 71/70/6 70/71/6
f 71/70/6 72/72/6 70/71/6
f 73/73/1 75/74/1 74/75/1
f 75/74/1 76/76/1 74/75/1
f 77/77/2 79/78/2 78/79/2
f 79/78/2 80/80/2 78/79/2
f 81/81/7 83/82/7 82/83/7
f 83/82/7 84/84/7 82/83/7
f 85/85/8 87/86/8 86/87/8
f 87/86/8 88/88/8 86/87/8
f 89/89/9 91/90/9 90/91/9
f 91/90/9 92/92/9 90/91/9
f 93/93/10 95/94/10 94/95/10
f 95/94/10 96/96/10 94/95/10
f 97/97/1 99/98/1 98/99/1
f 99/98/1 100/100/1 98/99/1
f 101/101/2 103/102/2 102/103/2
f 103/102/2 104/104/2 102/103/2
f 105/105/3 107/106/3 106/107/3
f 107/106/3 108/108/3 106/107/3
f 109/109/4 111/110/4 110/106/4
f 111/110/4 112/105/4 110/106/4
f 113/111/5 115/112/5 114/113/5
f 115/112/5 116/114/5 114/113/5
f 117/115/6 119/116/6 118/117/6
f 119/116/6 120/78/6 118/117/6
f 121/118/1 123/119/1 122/120/1
f 123/119/1 124/121/1 122/120/1
f 125/120/2 127/121/2 126/122/2
f 127/121/2 128/123/2 126/122/2
f 129/124/3 131/125/3 130/124/3
f 131/125/3 132/125/3 130/124/3
f 133/125/4 135/124/4 134/125/4
f 135/124/4 136/124/4 134/125/4
f 137/125/5 139/126/5 138/125/5
f 139/126/5 140/126/5 138/125/5
f 141/125/6 143/126/6 142/125/6
f 143/126/6 144/126/6 142/125/6
f 145/127/1 147/128/1 146/129/1
f 147/128/1 148/130/1 146/129/1
f 149/131/2 151/132/2 150/133/2
f 151/132/2 152/134/2 150/133/2
f 153/124/3 155/125/3 154/124/3
f 155/125/3 156/125/3 154/124/3
f 157/125/4 159/124/4 158/125/4
f 159/124/4 160/124/4 158/125/4
f 161/125/5 163/126/5 162/125/5
f 163/126/5 164/126/5 162/125/5
f 165/125/6 167/126/6 166/125/6
f 167/126/6 168/126/6 166/125/6
f 169/135/1 171/89/1 170/136/1
f 171/89/1 172/91/1 170/136/1
f 173/137/2 175/41/2 174/138/2
f 175/41/2 176/43/2 174/138/2
f 177/139/3 179/140/3 178/141/3
f 179/140/3 180/142/3 178/141/3
f 181/143/4 183/144/4 182/145/4
f 183/144/4 184/146/4 182/145/4
f 185/147/5 187/148/5 186/149/5
f 187/148/5 188/150/5 186/149/5
f 189/147/6 191/148/6 190/149/6
f 191/148/6 192/150/6 190/149/6
