# Blender 4.4.0
# www.blender.org
mtllib lev.rk2.mtl
o attachmentModel
v -0.769231 0.000000 0.769231
v 1.153846 0.000000 0.769231
v -0.769231 -0.769231 0.769231
v 1.153846 -0.769231 0.769231
v 1.153846 0.000000 -0.769231
v -0.769231 0.000000 -0.769231
v 1.153846 -0.769231 -0.769231
v -0.769231 -0.769231 -0.769231
v 1.153846 0.000000 -0.769231
v 1.153846 0.000000 0.769231
v -0.769231 0.000000 -0.769231
v -0.769231 0.000000 0.769231
v -0.769231 -0.769231 -0.769231
v -0.769231 -0.769231 0.769231
v 1.153846 -0.769231 -0.769231
v 1.153846 -0.769231 0.769231
v -0.769231 0.000000 -0.769231
v -0.769231 0.000000 0.769231
v -0.769231 -0.769231 -0.769231
v -0.769231 -0.769231 0.769231
v 1.153846 0.000000 0.769231
v 1.153846 0.000000 -0.769231
v 1.153846 -0.769231 0.769231
v 1.153846 -0.769231 -0.769231
v -0.769230 -0.769231 0.576923
v 0.769231 -0.769231 0.576923
v -0.769230 -1.153846 0.576923
v 0.769231 -1.153846 0.576923
v 0.769231 -0.769231 -0.576923
v -0.769230 -0.769231 -0.576923
v 0.769231 -1.153846 -0.576923
v -0.769230 -1.153846 -0.576923
v 0.769231 -0.769231 -0.576923
v 0.769231 -0.769231 0.576923
v -0.769230 -0.769231 -0.576923
v -0.769230 -0.769231 0.576923
v -0.769230 -1.153846 -0.576923
v -0.769230 -1.153846 0.576923
v 0.769231 -1.153846 -0.576923
v 0.769231 -1.153846 0.576923
v -0.769230 -0.769231 -0.576923
v -0.769230 -0.769231 0.576923
v -0.769230 -1.153846 -0.576923
v -0.769230 -1.153846 0.576923
v 0.769231 -0.769231 0.576923
v 0.769231 -0.769231 -0.576923
v 0.769231 -1.153846 0.576923
v 0.769231 -1.153846 -0.576923
v -0.769230 -1.153846 0.384615
v 0.384616 -1.153846 0.384615
v -0.769230 -5.000000 0.384615
v 0.384616 -5.000000 0.384615
v 0.384616 -1.153846 -0.769231
v -0.769230 -1.153846 -0.769231
v 0.384616 -5.000000 -0.769231
v -0.769230 -5.000000 -0.769231
v 0.384616 -1.153846 -0.769231
v 0.384616 -1.153846 0.384615
v -0.769230 -1.153846 -0.769231
v -0.769230 -1.153846 0.384615
v -0.769230 -5.000000 -0.769231
v -0.769230 -5.000000 0.384615
v 0.384616 -5.000000 -0.769231
v 0.384616 -5.000000 0.384615
v -0.769230 -1.153846 -0.769231
v -0.769230 -1.153846 0.384615
v -0.769230 -5.000000 -0.769231
v -0.769230 -5.000000 0.384615
v 0.384616 -1.153846 0.384615
v 0.384616 -1.153846 -0.769231
v 0.384616 -5.000000 0.384615
v 0.384616 -5.000000 -0.769231
vn -0.0000 -0.0000 1.0000
vn -0.0000 -0.0000 -1.0000
vn -0.0000 1.0000 -0.0000
vn -0.0000 -1.0000 -0.0000
vn -1.0000 -0.0000 -0.0000
vn 1.0000 -0.0000 -0.0000
vt 0.375000 0.750000
vt 0.375000 0.687500
vt 0.531250 0.750000
vt 0.531250 0.687500
vt 0.375000 0.625000
vt 0.531250 0.625000
vt 0.250000 0.531250
vt 0.250000 0.687500
vt 0.125000 0.531250
vt 0.125000 0.687500
vt 0.375000 0.531250
vt 0.500000 0.875000
vt 0.500000 0.812500
vt 0.625000 0.875000
vt 0.625000 0.812500
vt 0.125000 0.500000
vt 0.125000 0.437500
vt 0.250000 0.500000
vt 0.250000 0.437500
vt 0.500000 0.781250
vt 0.625000 0.781250
vt 0.250000 0.468750
vt 0.375000 0.500000
vt 0.375000 0.468750
vt 0.468750 0.875000
vt 0.468750 1.000000
vt 0.375000 0.875000
vt 0.375000 1.000000
vt 0.468750 0.750000
vt 0.500000 0.625000
vt 0.500000 0.593750
vt 0.593750 0.625000
vt 0.593750 0.593750
vt 0.468750 0.500000
vt 0.468750 0.468750
vt 0.125000 1.000000
vt 0.218750 1.000000
vt 0.218750 0.687500
vt 0.000000 0.687500
vt 0.000000 0.375000
vt 0.093750 0.687500
vt 0.093750 0.375000
vt 0.468750 0.531250
vt 0.468750 0.625000
vt 0.593750 1.000000
vt 0.593750 0.906250
vt 0.500000 1.000000
vt 0.500000 0.906250
vt 0.250000 1.000000
vt 0.343750 1.000000
vt 0.343750 0.687500
vt 0.000000 1.000000
vt 0.093750 1.000000
s 0
usemtl Material_0.001
f 1/1/1 3/2/1 2/3/1
f 3/2/1 4/4/1 2/3/1
f 5/2/2 7/5/2 6/4/2
f 7/5/2 8/6/2 6/4/2
f 9/7/3 11/8/3 10/9/3
f 11/8/3 12/10/3 10/9/3
f 13/2/4 15/11/4 14/8/4
f 15/11/4 16/7/4 14/8/4
f 17/12/5 19/13/5 18/14/5
f 19/13/5 20/15/5 18/14/5
f 21/16/6 23/17/6 22/18/6
f 23/17/6 24/19/6 22/18/6
f 25/13/1 27/20/1 26/15/1
f 27/20/1 28/21/1 26/15/1
f 29/18/2 31/22/2 30/23/2
f 31/22/2 32/24/2 30/23/2
f 33/25/3 35/26/3 34/27/3
f 35/26/3 36/28/3 34/27/3
f 37/25/4 39/29/4 38/27/4
f 39/29/4 40/1/4 38/27/4
f 41/30/5 43/31/5 42/32/5
f 43/31/5 44/33/5 42/32/5
f 45/23/6 47/24/6 46/34/6
f 47/24/6 48/35/6 46/34/6
f 49/36/1 51/10/1 50/37/1
f 51/10/1 52/38/1 50/37/1
f 53/39/2 55/40/2 54/41/2
f 55/40/2 56/42/2 54/41/2
f 57/43/3 59/44/3 58/11/3
f 59/44/3 60/5/3 58/11/3
f 61/45/4 63/46/4 62/47/4
f 63/46/4 64/48/4 62/47/4
f 65/49/5 67/8/5 66/50/5
f 67/8/5 68/51/5 66/50/5
f 69/52/6 71/39/6 70/53/6
f 71/39/6 72/41/6 70/53/6
