# Blender 4.3.2
# www.blender.org
mtllib lev.z24.mtl
o attachmentModel
v 1.153077 1.153846 0.769231
v 1.153846 1.153846 0.769231
v 1.153077 0.000000 0.769231
v 1.153846 0.000000 0.769231
v 1.153846 1.153846 -0.769231
v 1.153077 1.153846 -0.769231
v 1.153846 0.000000 -0.769231
v 1.153077 0.000000 -0.769231
v 1.153846 1.153846 -0.769231
v 1.153846 1.153846 0.769231
v 1.153077 1.153846 -0.769231
v 1.153077 1.153846 0.769231
v 1.153077 0.000000 -0.769231
v 1.153077 0.000000 0.769231
v 1.153846 0.000000 -0.769231
v 1.153846 0.000000 0.769231
v 1.153077 1.153846 -0.769231
v 1.153077 1.153846 0.769231
v 1.153077 0.000000 -0.769231
v 1.153077 0.000000 0.769231
v 1.153846 1.153846 0.769231
v 1.153846 1.153846 -0.769231
v 1.153846 0.000000 0.769231
v 1.153846 0.000000 -0.769231
v -1.154615 1.153846 0.769231
v -1.153846 1.153846 0.769231
v -1.154615 0.000000 0.769231
v -1.153846 0.000000 0.769231
v -1.153846 1.153846 -0.769231
v -1.154615 1.153846 -0.769231
v -1.153846 0.000000 -0.769231
v -1.154615 0.000000 -0.769231
v -1.153846 1.153846 -0.769231
v -1.153846 1.153846 0.769231
v -1.154615 1.153846 -0.769231
v -1.154615 1.153846 0.769231
v -1.154615 0.000000 -0.769231
v -1.154615 0.000000 0.769231
v -1.153846 0.000000 -0.769231
v -1.153846 0.000000 0.769231
v -1.154615 1.153846 -0.769231
v -1.154615 1.153846 0.769231
v -1.154615 0.000000 -0.769231
v -1.154615 0.000000 0.769231
v -1.153846 1.153846 0.769231
v -1.153846 1.153846 -0.769231
v -1.153846 0.000000 0.769231
v -1.153846 0.000000 -0.769231
v -1.346154 1.346154 0.384615
v 1.346154 1.346154 0.384615
v -1.346154 0.576923 0.384615
v 1.346154 0.576923 0.384615
v 1.346154 1.346154 -0.384615
v -1.346154 1.346154 -0.384615
v 1.346154 0.576923 -0.384615
v -1.346154 0.576923 -0.384615
v 1.346154 1.346154 -0.384615
v 1.346154 1.346154 0.384615
v -1.346154 1.346154 -0.384615
v -1.346154 1.346154 0.384615
v -1.346154 0.576923 -0.384615
v -1.346154 0.576923 0.384615
v 1.346154 0.576923 -0.384615
v 1.346154 0.576923 0.384615
v -1.346154 1.346154 -0.384615
v -1.346154 1.346154 0.384615
v -1.346154 0.576923 -0.384615
v -1.346154 0.576923 0.384615
v 1.346154 1.346154 0.384615
v 1.346154 1.346154 -0.384615
v 1.346154 0.576923 0.384615
v 1.346154 0.576923 -0.384615
v -2.115384 2.115385 0.543929
v 1.730769 2.115385 0.543929
v -2.115384 1.571456 0.000000
v 1.730769 1.571456 0.000000
v 1.730769 2.659313 0.000000
v -2.115384 2.659313 0.000000
v 1.730769 2.115385 -0.543928
v -2.115384 2.115385 -0.543928
v 1.730769 2.659313 0.000000
v 1.730769 2.115385 0.543929
v -2.115384 2.659313 0.000000
v -2.115384 2.115385 0.543929
v -2.115384 2.115385 -0.543928
v -2.115384 1.571456 0.000000
v 1.730769 2.115385 -0.543928
v 1.730769 1.571456 0.000000
v -2.115384 2.659313 0.000000
v -2.115384 2.115385 0.543929
v -2.115384 2.115385 -0.543928
v -2.115384 1.571456 0.000000
v 1.730769 2.115385 0.543929
v 1.730769 2.659313 0.000000
v 1.730769 1.571456 0.000000
v 1.730769 2.115385 -0.543928
v -4.038461 1.539231 0.576923
v -2.115384 1.539231 0.576923
v -4.038461 1.538462 0.576923
v -2.115384 1.538462 0.576923
v -2.115384 1.539231 -0.576923
v -4.038461 1.539231 -0.576923
v -2.115384 1.538462 -0.576923
v -4.038461 1.538462 -0.576923
v -2.115384 1.539231 -0.576923
v -2.115384 1.539231 0.576923
v -4.038461 1.539231 -0.576923
v -4.038461 1.539231 0.576923
v -4.038461 1.538462 -0.576923
v -4.038461 1.538462 0.576923
v -2.115384 1.538462 -0.576923
v -2.115384 1.538462 0.576923
v -4.038461 1.539231 -0.576923
v -4.038461 1.539231 0.576923
v -4.038461 1.538462 -0.576923
v -4.038461 1.538462 0.576923
v -2.115384 1.539231 0.576923
v -2.115384 1.539231 -0.576923
v -2.115384 1.538462 0.576923
v -2.115384 1.538462 -0.576923
v -1.153846 1.065721 -0.326962
v 1.153846 1.065721 -0.326962
v -1.153846 -0.000294 -0.768520
v 1.153846 -0.000294 -0.768520
v 1.153846 1.066015 -0.327673
v -1.153846 1.066015 -0.327673
v 1.153846 0.000000 -0.769231
v -1.153846 0.000000 -0.769231
v 1.153846 1.066015 -0.327673
v 1.153846 1.065721 -0.326962
v -1.153846 1.066015 -0.327673
v -1.153846 1.065721 -0.326962
v -1.153846 0.000000 -0.769231
v -1.153846 -0.000294 -0.768520
v 1.153846 0.000000 -0.769231
v 1.153846 -0.000294 -0.768520
v -1.153846 1.066015 -0.327673
v -1.153846 1.065721 -0.326962
v -1.153846 0.000000 -0.769231
v -1.153846 -0.000294 -0.768520
v 1.153846 1.065721 -0.326962
v 1.153846 1.066015 -0.327673
v 1.153846 -0.000294 -0.768520
v 1.153846 0.000000 -0.769231
v -1.153846 1.066309 0.328384
v 1.153846 1.066309 0.328384
v -1.153846 0.000294 0.769942
v 1.153846 0.000294 0.769941
v 1.153846 1.066015 0.327673
v -1.153846 1.066015 0.327673
v 1.153846 0.000000 0.769231
v -1.153846 0.000000 0.769231
v 1.153846 1.066015 0.327673
v 1.153846 1.066309 0.328384
v -1.153846 1.066015 0.327673
v -1.153846 1.066309 0.328384
v -1.153846 0.000000 0.769231
v -1.153846 0.000294 0.769942
v 1.153846 0.000000 0.769231
v 1.153846 0.000294 0.769941
v -1.153846 1.066015 0.327673
v -1.153846 1.066309 0.328384
v -1.153846 0.000000 0.769231
v -1.153846 0.000294 0.769942
v 1.153846 1.066309 0.328384
v 1.153846 1.066015 0.327673
v 1.153846 0.000294 0.769941
v 1.153846 0.000000 0.769231
v -1.730769 1.730769 0.384615
v -0.961538 1.730769 0.384615
v -1.730769 1.346154 0.384615
v -0.961538 1.346154 0.384615
v -0.961538 1.730769 -0.384615
v -1.730769 1.730769 -0.384615
v -0.961538 1.346154 -0.384615
v -1.730769 1.346154 -0.384615
v -0.961538 1.730769 -0.384615
v -0.961538 1.730769 0.384615
v -1.730769 1.730769 -0.384615
v -1.730769 1.730769 0.384615
v -1.730769 1.346154 -0.384615
v -1.730769 1.346154 0.384615
v -0.961538 1.346154 -0.384615
v -0.961538 1.346154 0.384615
v -1.730769 1.730769 -0.384615
v -1.730769 1.730769 0.384615
v -1.730769 1.346154 -0.384615
v -1.730769 1.346154 0.384615
v -0.961538 1.730769 0.384615
v -0.961538 1.730769 -0.384615
v -0.961538 1.346154 0.384615
v -0.961538 1.346154 -0.384615
v 0.961538 1.730769 0.384615
v 1.730769 1.730769 0.384615
v 0.961538 1.346154 0.384615
v 1.730769 1.346154 0.384615
v 1.730769 1.730769 -0.384615
v 0.961538 1.730769 -0.384615
v 1.730769 1.346154 -0.384615
v 0.961538 1.346154 -0.384615
v 1.730769 1.730769 -0.384615
v 1.730769 1.730769 0.384615
v 0.961538 1.730769 -0.384615
v 0.961538 1.730769 0.384615
v 0.961538 1.346154 -0.384615
v 0.961538 1.346154 0.384615
v 1.730769 1.346154 -0.384615
v 1.730769 1.346154 0.384615
v 0.961538 1.730769 -0.384615
v 0.961538 1.730769 0.384615
v 0.961538 1.346154 -0.384615
v 0.961538 1.346154 0.384615
v 1.730769 1.730769 0.384615
v 1.730769 1.730769 -0.384615
v 1.730769 1.346154 0.384615
v 1.730769 1.346154 -0.384615
v 1.730769 2.692308 0.576923
v 2.884615 2.692308 0.576923
v 1.730769 1.538462 0.576923
v 2.884615 1.538462 0.576923
v 2.884615 2.692308 -0.576923
v 1.730769 2.692308 -0.576923
v 2.884615 1.538462 -0.576923
v 1.730769 1.538462 -0.576923
v 2.884615 2.692308 -0.576923
v 2.884615 2.692308 0.576923
v 1.730769 2.692308 -0.576923
v 1.730769 2.692308 0.576923
v 1.730769 1.538462 -0.576923
v 1.730769 1.538462 0.576923
v 2.884615 1.538462 -0.576923
v 2.884615 1.538462 0.576923
v 1.730769 2.692308 -0.576923
v 1.730769 2.692308 0.576923
v 1.730769 1.538462 -0.576923
v 1.730769 1.538462 0.576923
v 2.884615 2.692308 0.576923
v 2.884615 2.692308 -0.576923
v 2.884615 1.538462 0.576923
v 2.884615 1.538462 -0.576923
v -2.116153 2.692308 0.576923
v -2.115384 2.692308 0.576923
v -2.116153 1.538462 0.576923
v -2.115384 1.538462 0.576923
v -2.115384 2.692308 -0.576923
v -2.116153 2.692308 -0.576923
v -2.115384 1.538462 -0.576923
v -2.116153 1.538462 -0.576923
v -2.115384 2.692308 -0.576923
v -2.115384 2.692308 0.576923
v -2.116153 2.692308 -0.576923
v -2.116153 2.692308 0.576923
v -2.116153 1.538462 -0.576923
v -2.116153 1.538462 0.576923
v -2.115384 1.538462 -0.576923
v -2.115384 1.538462 0.576923
v -2.116153 2.692308 -0.576923
v -2.116153 2.692308 0.576923
v -2.116153 1.538462 -0.576923
v -2.116153 1.538462 0.576923
v -2.115384 2.692308 0.576923
v -2.115384 2.692308 -0.576923
v -2.115384 1.538462 0.576923
v -2.115384 1.538462 -0.576923
v -4.038461 2.693077 0.576923
v -2.115384 2.693077 0.576923
v -4.038461 2.692308 0.576923
v -2.115384 2.692308 0.576923
v -2.115384 2.693077 -0.576923
v -4.038461 2.693077 -0.576923
v -2.115384 2.692308 -0.576923
v -4.038461 2.692308 -0.576923
v -2.115384 2.693077 -0.576923
v -2.115384 2.693077 0.576923
v -4.038461 2.693077 -0.576923
v -4.038461 2.693077 0.576923
v -4.038461 2.692308 -0.576923
v -4.038461 2.692308 0.576923
v -2.115384 2.692308 -0.576923
v -2.115384 2.692308 0.576923
v -4.038461 2.693077 -0.576923
v -4.038461 2.693077 0.576923
v -4.038461 2.692308 -0.576923
v -4.038461 2.692308 0.576923
v -2.115384 2.693077 0.576923
v -2.115384 2.693077 -0.576923
v -2.115384 2.692308 0.576923
v -2.115384 2.692308 -0.576923
v -4.038461 2.692308 -0.576154
v -2.115384 2.692308 -0.576154
v -4.038461 1.538462 -0.576154
v -2.115384 1.538462 -0.576154
v -2.115384 2.692308 -0.576923
v -4.038461 2.692308 -0.576923
v -2.115384 1.538462 -0.576923
v -4.038461 1.538462 -0.576923
v -2.115384 2.692308 -0.576923
v -2.115384 2.692308 -0.576154
v -4.038461 2.692308 -0.576923
v -4.038461 2.692308 -0.576154
v -4.038461 1.538462 -0.576923
v -4.038461 1.538462 -0.576154
v -2.115384 1.538462 -0.576923
v -2.115384 1.538462 -0.576154
v -4.038461 2.692308 -0.576923
v -4.038461 2.692308 -0.576154
v -4.038461 1.538462 -0.576923
v -4.038461 1.538462 -0.576154
v -2.115384 2.692308 -0.576154
v -2.115384 2.692308 -0.576923
v -2.115384 1.538462 -0.576154
v -2.115384 1.538462 -0.576923
v -4.038461 2.692308 0.577692
v -2.115384 2.692308 0.577692
v -4.038461 1.538462 0.577692
v -2.115384 1.538462 0.577692
v -2.115384 2.692308 0.576923
v -4.038461 2.692308 0.576923
v -2.115384 1.538462 0.576923
v -4.038461 1.538462 0.576923
v -2.115384 2.692308 0.576923
v -2.115384 2.692308 0.577692
v -4.038461 2.692308 0.576923
v -4.038461 2.692308 0.577692
v -4.038461 1.538462 0.576923
v -4.038461 1.538462 0.577692
v -2.115384 1.538462 0.576923
v -2.115384 1.538462 0.577692
v -4.038461 2.692308 0.576923
v -4.038461 2.692308 0.577692
v -4.038461 1.538462 0.576923
v -4.038461 1.538462 0.577692
v -2.115384 2.692308 0.577692
v -2.115384 2.692308 0.576923
v -2.115384 1.538462 0.577692
v -2.115384 1.538462 0.576923
v -4.039230 2.692308 -0.423077
v -4.038461 2.692308 -0.423077
v -4.039230 1.538462 -0.423077
v -4.038461 1.538462 -0.423077
v -4.038461 2.692308 -0.576923
v -4.039230 2.692308 -0.576923
v -4.038461 1.538462 -0.576923
v -4.039230 1.538462 -0.576923
v -4.038461 2.692308 -0.576923
v -4.038461 2.692308 -0.423077
v -4.039230 2.692308 -0.576923
v -4.039230 2.692308 -0.423077
v -4.039230 1.538462 -0.576923
v -4.039230 1.538462 -0.423077
v -4.038461 1.538462 -0.576923
v -4.038461 1.538462 -0.423077
v -4.039230 2.692308 -0.576923
v -4.039230 2.692308 -0.423077
v -4.039230 1.538462 -0.576923
v -4.039230 1.538462 -0.423077
v -4.038461 2.692308 -0.423077
v -4.038461 2.692308 -0.576923
v -4.038461 1.538462 -0.423077
v -4.038461 1.538462 -0.576923
v -4.039230 2.692308 0.576923
v -4.038461 2.692308 0.576923
v -4.039230 1.538462 0.576923
v -4.038461 1.538462 0.576923
v -4.038461 2.692308 0.423077
v -4.039230 2.692308 0.423077
v -4.038461 1.538462 0.423077
v -4.039230 1.538462 0.423077
v -4.038461 2.692308 0.423077
v -4.038461 2.692308 0.576923
v -4.039230 2.692308 0.423077
v -4.039230 2.692308 0.576923
v -4.039230 1.538462 0.423077
v -4.039230 1.538462 0.576923
v -4.038461 1.538462 0.423077
v -4.038461 1.538462 0.576923
v -4.039230 2.692308 0.423077
v -4.039230 2.692308 0.576923
v -4.039230 1.538462 0.423077
v -4.039230 1.538462 0.576923
v -4.038461 2.692308 0.576923
v -4.038461 2.692308 0.423077
v -4.038461 1.538462 0.576923
v -4.038461 1.538462 0.423077
v -4.039230 1.692308 0.423077
v -4.038461 1.692308 0.423077
v -4.039230 1.538462 0.423077
v -4.038461 1.538462 0.423077
v -4.038461 1.692308 -0.423077
v -4.039230 1.692308 -0.423077
v -4.038461 1.538462 -0.423077
v -4.039230 1.538462 -0.423077
v -4.038461 1.692308 -0.423077
v -4.038461 1.692308 0.423077
v -4.039230 1.692308 -0.423077
v -4.039230 1.692308 0.423077
v -4.039230 1.538462 -0.423077
v -4.039230 1.538462 0.423077
v -4.038461 1.538462 -0.423077
v -4.038461 1.538462 0.423077
v -4.039230 1.692308 -0.423077
v -4.039230 1.692308 0.423077
v -4.039230 1.538462 -0.423077
v -4.039230 1.538462 0.423077
v -4.038461 1.692308 0.423077
v -4.038461 1.692308 -0.423077
v -4.038461 1.538462 0.423077
v -4.038461 1.538462 -0.423077
v -4.039230 2.692308 0.423077
v -4.038461 2.692308 0.423077
v -4.039230 2.538461 0.423077
v -4.038461 2.538461 0.423077
v -4.038461 2.692308 -0.423077
v -4.039230 2.692308 -0.423077
v -4.038461 2.538461 -0.423077
v -4.039230 2.538461 -0.423077
v -4.038461 2.692308 -0.423077
v -4.038461 2.692308 0.423077
v -4.039230 2.692308 -0.423077
v -4.039230 2.692308 0.423077
v -4.039230 2.538461 -0.423077
v -4.039230 2.538461 0.423077
v -4.038461 2.538461 -0.423077
v -4.038461 2.538461 0.423077
v -4.039230 2.692308 -0.423077
v -4.039230 2.692308 0.423077
v -4.039230 2.538461 -0.423077
v -4.039230 2.538461 0.423077
v -4.038461 2.692308 0.423077
v -4.038461 2.692308 -0.423077
v -4.038461 2.538461 0.423077
v -4.038461 2.538461 -0.423077
v -4.000769 2.692308 0.576923
v -4.000000 2.692308 0.576923
v -4.000769 1.538462 0.576923
v -4.000000 1.538462 0.576923
v -4.000000 2.692308 -0.576923
v -4.000769 2.692308 -0.576923
v -4.000000 1.538462 -0.576923
v -4.000769 1.538462 -0.576923
v -4.000000 2.692308 -0.576923
v -4.000000 2.692308 0.576923
v -4.000769 2.692308 -0.576923
v -4.000769 2.692308 0.576923
v -4.000769 1.538462 -0.576923
v -4.000769 1.538462 0.576923
v -4.000000 1.538462 -0.576923
v -4.000000 1.538462 0.576923
v -4.000769 2.692308 -0.576923
v -4.000769 2.692308 0.576923
v -4.000769 1.538462 -0.576923
v -4.000769 1.538462 0.576923
v -4.000000 2.692308 0.576923
v -4.000000 2.692308 -0.576923
v -4.000000 1.538462 0.576923
v -4.000000 1.538462 -0.576923
v -0.384615 2.884615 0.384615
v 0.384615 2.884615 0.384615
v -0.384615 2.115385 0.384615
v 0.384615 2.115385 0.384615
v 0.384615 2.884615 -0.384615
v -0.384615 2.884615 -0.384615
v 0.384615 2.115385 -0.384615
v -0.384615 2.115385 -0.384615
v 0.384615 2.884615 -0.384615
v 0.384615 2.884615 0.384615
v -0.384615 2.884615 -0.384615
v -0.384615 2.884615 0.384615
v -0.384615 2.115385 -0.384615
v -0.384615 2.115385 0.384615
v 0.384615 2.115385 -0.384615
v 0.384615 2.115385 0.384615
v -0.384615 2.884615 -0.384615
v -0.384615 2.884615 0.384615
v -0.384615 2.115385 -0.384615
v -0.384615 2.115385 0.384615
v 0.384615 2.884615 0.384615
v 0.384615 2.884615 -0.384615
v 0.384615 2.115385 0.384615
v 0.384615 2.115385 -0.384615
v -0.384615 2.500000 0.000000
v 0.384615 2.500000 -0.000000
v -0.384615 1.730769 0.000000
v 0.384615 1.730769 -0.000000
v 0.384615 2.500000 -0.769231
v -0.384615 2.500000 -0.769231
v 0.384615 1.730769 -0.769231
v -0.384615 1.730769 -0.769231
v 0.384615 2.500000 -0.769231
v 0.384615 2.500000 -0.000000
v -0.384615 2.500000 -0.769231
v -0.384615 2.500000 0.000000
v -0.384615 1.730769 -0.769231
v -0.384615 1.730769 0.000000
v 0.384615 1.730769 -0.769231
v 0.384615 1.730769 -0.000000
v -0.384615 2.500000 -0.769231
v -0.384615 2.500000 0.000000
v -0.384615 1.730769 -0.769231
v -0.384615 1.730769 0.000000
v 0.384615 2.500000 -0.000000
v 0.384615 2.500000 -0.769231
v 0.384615 1.730769 -0.000000
v 0.384615 1.730769 -0.769231
vn -0.0000 -0.0000 1.0000
vn -0.0000 -0.0000 -1.0000
vn -0.0000 1.0000 -0.0000
vn -0.0000 -1.0000 -0.0000
vn -1.0000 -0.0000 -0.0000
vn 1.0000 -0.0000 -0.0000
vn -0.0000 -0.7071 0.7071
vn -0.0000 0.7071 -0.7071
vn -0.0000 0.7071 0.7071
vn -0.0000 -0.7071 -0.7071
vn -0.0000 -0.3827 0.9239
vn -0.0000 0.3827 -0.9239
vn -0.0000 0.9239 0.3827
vn -0.0000 0.9239 0.3825
vn -0.0000 -0.9239 -0.3827
vn 1.0000 0.0001 -0.0000
vn 1.0000 -0.0001 -0.0000
vn -0.0000 0.3827 0.9239
vn -0.0000 -0.3827 -0.9239
vn -0.0000 0.9239 -0.3827
vn -0.0000 0.9239 -0.3825
vn -0.0000 -0.9239 0.3827
vn -1.0000 0.0001 -0.0000
vn -1.0000 -0.0001 -0.0000
vt 0.000000 1.000000
vt 0.000000 0.906250
vt 0.125000 1.000000
vt 0.000000 0.375000
vt 0.000000 0.281250
vt 0.125000 0.375000
vt 0.125000 0.281250
vt 0.562500 0.562500
vt 0.562500 0.468750
vt 0.687500 0.562500
vt 0.687500 0.468750
vt 0.625000 0.750000
vt 0.625000 0.656250
vt 0.750000 0.750000
vt 0.750000 0.656250
vt 0.250000 0.375000
vt 0.250000 0.281250
vt 0.375000 0.375000
vt 0.375000 0.281250
vt 0.437500 0.625000
vt 0.437500 0.562500
vt 0.656250 0.625000
vt 0.656250 0.562500
vt 0.375000 0.437500
vt 0.593750 0.437500
vt 0.593750 0.375000
vt 0.187500 0.218750
vt 0.187500 0.437500
vt 0.125000 0.218750
vt 0.125000 0.437500
vt 0.250000 0.437500
vt 0.250000 0.218750
vt 0.187500 0.187500
vt 0.187500 0.125000
vt 0.250000 0.187500
vt 0.250000 0.125000
vt 0.812500 0.875000
vt 0.812500 0.812500
vt 0.875000 0.875000
vt 0.875000 0.812500
vt 0.000000 0.937500
vt 0.312500 1.000000
vt 0.312500 0.937500
vt 0.000000 0.875000
vt 0.312500 0.875000
vt 0.062500 0.562500
vt 0.062500 0.875000
vt 0.000000 0.562500
vt 0.125000 0.875000
vt 0.125000 0.562500
vt 0.812500 0.625000
vt 0.812500 0.562500
vt 0.875000 0.625000
vt 0.875000 0.562500
vt 0.812500 0.750000
vt 0.875000 0.750000
vt 0.156250 1.000000
vt 0.406250 0.593750
vt 0.406250 0.750000
vt 0.312500 0.593750
vt 0.312500 0.750000
vt 0.218750 0.625000
vt 0.218750 0.468750
vt 0.125000 0.625000
vt 0.125000 0.468750
vt 0.093750 1.000000
vt 0.125000 0.781250
vt 0.312500 0.781250
vt 0.125000 0.750000
vt 0.125000 0.656250
vt 0.312500 0.656250
vt 0.000000 0.812500
vt 0.312500 0.906250
vt 0.500000 1.000000
vt 0.500000 0.906250
vt 0.500000 0.875000
vt 0.500000 0.781250
vt 0.312500 0.125000
vt 0.312500 0.093750
vt 0.375000 0.125000
vt 0.375000 0.093750
vt 0.437500 0.125000
vt 0.437500 0.093750
vt 0.875000 0.500000
vt 0.812500 0.500000
vt 0.687500 0.187500
vt 0.687500 0.125000
vt 0.625000 0.187500
vt 0.625000 0.125000
vt 0.875000 0.687500
vt 0.875000 0.656250
vt 0.937500 0.687500
vt 0.937500 0.656250
vt 0.875000 0.718750
vt 0.937500 0.750000
vt 0.937500 0.718750
vt 0.500000 0.125000
vt 0.500000 0.093750
vt 0.562500 0.125000
vt 0.562500 0.093750
vt 0.750000 0.125000
vt 0.750000 0.187500
vt 0.812500 0.187500
vt 0.812500 0.125000
vt 0.875000 0.531250
vt 0.937500 0.562500
vt 0.937500 0.531250
vt 0.875000 0.593750
vt 0.937500 0.625000
vt 0.937500 0.593750
vt 0.500000 0.375000
vt 0.500000 0.281250
vt 0.593750 0.281250
vt 0.687500 1.000000
vt 0.687500 0.906250
vt 0.781250 1.000000
vt 0.781250 0.906250
vt 0.781250 0.781250
vt 0.781250 0.875000
vt 0.687500 0.781250
vt 0.687500 0.875000
vt 0.781250 0.625000
vt 0.781250 0.531250
vt 0.687500 0.625000
vt 0.687500 0.531250
vt 0.625000 0.437500
vt 0.625000 0.343750
vt 0.718750 0.437500
vt 0.718750 0.343750
vt 0.468750 0.375000
vt 0.468750 0.281250
vt 0.000000 0.250000
vt 0.000000 0.156250
vt 0.093750 0.250000
vt 0.093750 0.156250
vt 0.625000 0.312500
vt 0.625000 0.218750
vt 0.718750 0.312500
vt 0.718750 0.218750
vt 0.093750 0.406250
vt 0.093750 0.562500
vt 0.000000 0.406250
vt 0.343750 0.562500
vt 0.343750 0.406250
vt 0.250000 0.562500
vt 0.250000 0.406250
vt 0.437500 0.750000
vt 0.437500 0.656250
vt 0.593750 0.750000
vt 0.593750 0.656250
vt 0.375000 0.562500
vt 0.375000 0.468750
vt 0.531250 0.562500
vt 0.531250 0.468750
vt 0.000000 0.843750
vt 0.656250 1.000000
vt 0.656250 0.906250
vt 0.656250 0.875000
vt 0.656250 0.781250
vt 0.031250 1.000000
vt 0.875000 0.781250
vt 0.906250 0.875000
vt 0.906250 0.781250
vt 0.125000 0.125000
vt 0.125000 0.031250
vt 0.156250 0.125000
vt 0.156250 0.031250
vt 0.250000 0.031250
vt 0.281250 0.125000
vt 0.281250 0.031250
vt 0.187500 0.031250
vt 0.218750 0.125000
vt 0.218750 0.031250
vt 0.000000 0.968750
vt 0.062500 1.000000
vt 0.625000 0.093750
vt 0.875000 0.468750
vt 0.937500 0.500000
vt 0.937500 0.468750
vt 0.687500 0.093750
vt 0.875000 0.437500
vt 0.875000 0.406250
vt 0.937500 0.437500
vt 0.937500 0.406250
vt 0.750000 0.375000
vt 0.750000 0.281250
vt 0.843750 0.375000
vt 0.843750 0.281250
vt 0.750000 0.500000
vt 0.750000 0.406250
vt 0.843750 0.500000
vt 0.843750 0.406250
vt 0.875000 0.187500
vt 0.875000 0.125000
vt 0.875000 1.000000
vt 0.875000 0.937500
vt 0.937500 1.000000
vt 0.937500 0.937500
vt 0.125000 0.062500
vt 0.062500 0.062500
vt 0.062500 0.125000
vt 0.937500 0.875000
vt 0.000000 0.125000
vt 0.000000 0.062500
vt 0.812500 0.250000
vt 0.875000 0.250000
vt 0.687500 0.500000
vt 0.687500 0.437500
vt 0.750000 0.437500
vt 0.812500 1.000000
vt 0.812500 0.937500
vt 0.125000 0.187500
vt 0.750000 0.250000
vt 0.250000 0.625000
vt 0.312500 0.625000
vt 0.312500 0.562500
s 0
usemtl Material_0
f 1/1/1 3/2/1 2/1/1
f 3/2/1 4/2/1 2/1/1
f 5/1/2 7/2/2 6/1/2
f 7/2/2 8/2/2 6/1/2
f 9/3/3 11/3/3 10/1/3
f 11/3/3 12/1/3 10/1/3
f 13/3/4 15/3/4 14/1/4
f 15/3/4 16/1/4 14/1/4
f 17/4/5 19/5/5 18/6/5
f 19/5/5 20/7/5 18/6/5
f 21/8/6 23/9/6 22/10/6
f 23/9/6 24/11/6 22/10/6
f 25/1/1 27/2/1 26/1/1
f 27/2/1 28/2/1 26/1/1
f 29/1/2 31/2/2 30/1/2
f 31/2/2 32/2/2 30/1/2
f 33/3/3 35/3/3 34/1/3
f 35/3/3 36/1/3 34/1/3
f 37/3/4 39/3/4 38/1/4
f 39/3/4 40/1/4 38/1/4
f 41/12/5 43/13/5 42/14/5
f 43/13/5 44/15/5 42/14/5
f 45/16/6 47/17/6 46/18/6
f 47/17/6 48/19/6 46/18/6
f 49/20/1 51/21/1 50/22/1
f 51/21/1 52/23/1 50/22/1
f 53/24/2 55/18/2 54/25/2
f 55/18/2 56/26/2 54/25/2
f 57/27/3 59/28/3 58/29/3
f 59/28/3 60/30/3 58/29/3
f 61/31/4 63/32/4 62/28/4
f 63/32/4 64/27/4 62/28/4
f 65/33/5 67/34/5 66/35/5
f 67/34/5 68/36/5 66/35/5
f 69/37/6 71/38/6 70/39/6
f 71/38/6 72/40/6 70/39/6
f 73/1/7 75/41/7 74/42/7
f 75/41/7 76/43/7 74/42/7
f 77/41/8 79/44/8 78/43/8
f 79/44/8 80/45/8 78/43/8
f 81/46/9 83/47/9 82/48/9
f 83/47/9 84/44/9 82/48/9
f 85/49/10 87/50/10 86/47/10
f 87/50/10 88/46/10 86/47/10
f 89/51/5 91/52/5 90/53/5
f 91/52/5 92/54/5 90/53/5
f 93/38/6 95/55/6 94/40/6
f 95/55/6 96/56/6 94/40/6
f 97/1/1 99/1/1 98/57/1
f 99/1/1 100/57/1 98/57/1
f 101/1/2 103/1/2 102/57/2
f 103/1/2 104/57/2 102/57/2
f 105/58/3 107/59/3 106/60/3
f 107/59/3 108/61/3 106/60/3
f 109/62/4 111/63/4 110/64/4
f 111/63/4 112/65/4 110/64/4
f 113/1/5 115/1/5 114/66/5
f 115/1/5 116/66/5 114/66/5
f 117/1/6 119/1/6 118/66/6
f 119/1/6 120/66/6 118/66/6
f 121/49/11 123/67/11 122/45/11
f 123/67/11 124/68/11 122/45/11
f 125/69/12 127/70/12 126/61/12
f 127/70/12 128/71/12 126/61/12
f 129/72/13 131/1/13 130/72/13
f 131/1/14 132/1/14 130/72/14
f 133/1/15 135/72/15 134/1/15
f 135/72/15 136/72/15 134/1/15
f 137/1/5 139/2/5 138/1/5
f 139/2/5 140/2/5 138/1/5
f 141/1/16 143/2/16 142/1/16
f 143/2/17 144/2/17 142/1/17
f 145/42/18 147/73/18 146/74/18
f 147/73/18 148/75/18 146/74/18
f 149/45/19 151/68/19 150/76/19
f 151/68/19 152/77/19 150/76/19
f 153/72/20 155/1/20 154/72/20
f 155/1/21 156/1/21 154/72/21
f 157/1/22 159/72/22 158/1/22
f 159/72/22 160/72/22 158/1/22
f 161/1/23 163/2/23 162/1/23
f 163/2/24 164/2/24 162/1/24
f 165/1/6 167/2/6 166/1/6
f 167/2/6 168/2/6 166/1/6
f 169/78/1 171/79/1 170/80/1
f 171/79/1 172/81/1 170/80/1
f 173/80/2 175/81/2 174/82/2
f 175/81/2 176/83/2 174/82/2
f 177/84/3 179/54/3 178/85/3
f 179/54/3 180/52/3 178/85/3
f 181/86/4 183/87/4 182/88/4
f 183/87/4 184/89/4 182/88/4
f 185/90/5 187/91/5 186/92/5
f 187/91/5 188/93/5 186/92/5
f 189/56/6 191/94/6 190/95/6
f 191/94/6 192/96/6 190/95/6
f 193/82/1 195/83/1 194/97/1
f 195/83/1 196/98/1 194/97/1
f 197/97/2 199/98/2 198/99/2
f 199/98/2 200/100/2 198/99/2
f 201/101/3 203/102/3 202/87/3
f 203/102/3 204/86/3 202/87/3
f 205/103/4 207/104/4 206/102/4
f 207/104/4 208/101/4 206/102/4
f 209/54/5 211/105/5 210/106/5
f 211/105/5 212/107/5 210/106/5
f 213/53/6 215/108/6 214/109/6
f 215/108/6 216/110/6 214/109/6
f 217/111/1 219/112/1 218/26/1
f 219/112/1 220/113/1 218/26/1
f 221/114/2 223/115/2 222/116/2
f 223/115/2 224/117/2 222/116/2
f 225/118/3 227/119/3 226/120/3
f 227/119/3 228/121/3 226/120/3
f 229/122/4 231/123/4 230/124/4
f 231/123/4 232/125/4 230/124/4
f 233/126/5 235/127/5 234/128/5
f 235/127/5 236/129/5 234/128/5
f 237/18/6 239/19/6 238/130/6
f 239/19/6 240/131/6 238/130/6
f 241/1/1 243/2/1 242/1/1
f 243/2/1 244/2/1 242/1/1
f 245/1/2 247/2/2 246/1/2
f 247/2/2 248/2/2 246/1/2
f 249/66/3 251/66/3 250/1/3
f 251/66/3 252/1/3 250/1/3
f 253/66/4 255/66/4 254/1/4
f 255/66/4 256/1/4 254/1/4
f 257/132/5 259/133/5 258/134/5
f 259/133/5 260/135/5 258/134/5
f 261/136/6 263/137/6 262/138/6
f 263/137/6 264/139/6 262/138/6
f 265/1/1 267/1/1 266/57/1
f 267/1/1 268/57/1 266/57/1
f 269/1/2 271/1/2 270/57/2
f 271/1/2 272/57/2 270/57/2
f 273/140/3 275/141/3 274/142/3
f 275/141/3 276/48/3 274/142/3
f 277/143/4 279/144/4 278/145/4
f 279/144/4 280/146/4 278/145/4
f 281/1/5 283/1/5 282/66/5
f 283/1/5 284/66/5 282/66/5
f 285/1/6 287/1/6 286/66/6
f 287/1/6 288/66/6 286/66/6
f 289/147/1 291/148/1 290/149/1
f 291/148/1 292/150/1 290/149/1
f 293/151/2 295/152/2 294/153/2
f 295/152/2 296/154/2 294/153/2
f 297/155/3 299/1/3 298/155/3
f 299/1/3 300/1/3 298/155/3
f 301/1/4 303/155/4 302/1/4
f 303/155/4 304/155/4 302/1/4
f 305/1/5 307/2/5 306/1/5
f 307/2/5 308/2/5 306/1/5
f 309/1/6 311/2/6 310/1/6
f 311/2/6 312/2/6 310/1/6
f 313/74/1 315/75/1 314/156/1
f 315/75/1 316/157/1 314/156/1
f 317/76/2 319/77/2 318/158/2
f 319/77/2 320/159/2 318/158/2
f 321/155/3 323/1/3 322/155/3
f 323/1/3 324/1/3 322/155/3
f 325/1/4 327/155/4 326/1/4
f 327/155/4 328/155/4 326/1/4
f 329/1/5 331/2/5 330/1/5
f 331/2/5 332/2/5 330/1/5
f 333/1/6 335/2/6 334/1/6
f 335/2/6 336/2/6 334/1/6
f 337/1/1 339/2/1 338/1/1
f 339/2/1 340/2/1 338/1/1
f 341/1/2 343/2/2 342/1/2
f 343/2/2 344/2/2 342/1/2
f 345/160/3 347/160/3 346/1/3
f 347/160/3 348/1/3 346/1/3
f 349/160/4 351/160/4 350/1/4
f 351/160/4 352/1/4 350/1/4
f 353/39/5 355/161/5 354/162/5
f 355/161/5 356/163/5 354/162/5
f 357/164/6 359/165/6 358/166/6
f 359/165/6 360/167/6 358/166/6
f 361/1/1 363/2/1 362/1/1
f 363/2/1 364/2/1 362/1/1
f 365/1/2 367/2/2 366/1/2
f 367/2/2 368/2/2 366/1/2
f 369/160/3 371/160/3 370/1/3
f 371/160/3 372/1/3 370/1/3
f 373/160/4 375/160/4 374/1/4
f 375/160/4 376/1/4 374/1/4
f 377/36/5 379/168/5 378/169/5
f 379/168/5 380/170/5 378/169/5
f 381/34/6 383/171/6 382/172/6
f 383/171/6 384/173/6 382/172/6
f 385/1/1 387/174/1 386/1/1
f 387/174/1 388/174/1 386/1/1
f 389/1/2 391/174/2 390/1/2
f 391/174/2 392/174/2 390/1/2
f 393/175/3 395/175/3 394/1/3
f 395/175/3 396/1/3 394/1/3
f 397/175/4 399/175/4 398/1/4
f 399/175/4 400/1/4 398/1/4
f 401/99/5 403/100/5 402/89/5
f 403/100/5 404/176/5 402/89/5
f 405/84/6 407/177/6 406/178/6
f 407/177/6 408/179/6 406/178/6
f 409/1/1 411/174/1 410/1/1
f 411/174/1 412/174/1 410/1/1
f 413/1/2 415/174/2 414/1/2
f 415/174/2 416/174/2 414/1/2
f 417/175/3 419/175/3 418/1/3
f 419/175/3 420/1/3 418/1/3
f 421/175/4 423/175/4 422/1/4
f 423/175/4 424/1/4 422/1/4
f 425/89/5 427/176/5 426/87/5
f 427/176/5 428/180/5 426/87/5
f 429/181/6 431/182/6 430/183/6
f 431/182/6 432/184/6 430/183/6
f 433/1/1 435/2/1 434/1/1
f 435/2/1 436/2/1 434/1/1
f 437/1/2 439/2/2 438/1/2
f 439/2/2 440/2/2 438/1/2
f 441/66/3 443/66/3 442/1/3
f 443/66/3 444/1/3 442/1/3
f 445/66/4 447/66/4 446/1/4
f 447/66/4 448/1/4 446/1/4
f 449/185/5 451/186/5 450/187/5
f 451/186/5 452/188/5 450/187/5
f 453/189/6 455/190/6 454/191/6
f 455/190/6 456/192/6 454/191/6
f 457/103/1 459/104/1 458/193/1
f 459/104/1 460/194/1 458/193/1
f 461/195/2 463/196/2 462/197/2
f 463/196/2 464/198/2 462/197/2
f 465/199/3 467/164/3 466/200/3
f 467/164/3 468/201/3 466/200/3
f 469/198/4 471/202/4 470/196/4
f 471/202/4 472/39/4 470/196/4
f 473/203/5 475/204/5 474/201/5
f 475/204/5 476/200/5 474/201/5
f 477/205/6 479/103/6 478/206/6
f 479/103/6 480/193/6 478/206/6
f 481/207/1 483/208/1 482/189/1
f 483/208/1 484/209/1 482/189/1
f 485/210/2 487/211/2 486/195/2
f 487/211/2 488/196/2 486/195/2
f 489/39/3 491/196/3 490/37/3
f 491/196/3 492/211/3 490/37/3
f 493/33/4 495/34/4 494/212/4
f 495/34/4 496/164/4 494/212/4
f 497/213/5 499/102/5 498/205/5
f 499/102/5 500/103/5 498/205/5
f 501/214/6 503/145/6 502/215/6
f 503/145/6 504/216/6 502/215/6
o overlaySolidModel
v -4.031538 2.692308 0.576923
v -4.030768 2.692308 0.576923
v -4.031538 1.538462 0.576923
v -4.030768 1.538462 0.576923
v -4.030768 2.692308 -0.576923
v -4.031538 2.692308 -0.576923
v -4.030768 1.538462 -0.576923
v -4.031538 1.538462 -0.576923
v -4.030768 2.692308 -0.576923
v -4.030768 2.692308 0.576923
v -4.031538 2.692308 -0.576923
v -4.031538 2.692308 0.576923
v -4.031538 1.538462 -0.576923
v -4.031538 1.538462 0.576923
v -4.030768 1.538462 -0.576923
v -4.030768 1.538462 0.576923
v -4.031538 2.692308 -0.576923
v -4.031538 2.692308 0.576923
v -4.031538 1.538462 -0.576923
v -4.031538 1.538462 0.576923
v -4.030768 2.692308 0.576923
v -4.030768 2.692308 -0.576923
v -4.030768 1.538462 0.576923
v -4.030768 1.538462 -0.576923
vn -0.0000 -0.0000 1.0000
vn -0.0000 -0.0000 -1.0000
vn -0.0000 1.0000 -0.0000
vn -0.0000 -1.0000 -0.0000
vn -1.0000 -0.0000 -0.0000
vn 1.0000 -0.0000 -0.0000
vt 0.906250 0.093750
vt 0.906250 0.000000
vt 1.000000 0.093750
vt 1.000000 0.000000
s 0
usemtl Material_0
f 505/217/25 507/218/25 506/219/25
f 507/218/25 508/220/25 506/219/25
f 509/217/26 511/218/26 510/219/26
f 511/218/26 512/220/26 510/219/26
f 513/217/27 515/218/27 514/219/27
f 515/218/27 516/220/27 514/219/27
f 517/217/28 519/218/28 518/219/28
f 519/218/28 520/220/28 518/219/28
f 521/217/29 523/218/29 522/219/29
f 523/218/29 524/220/29 522/219/29
f 525/217/30 527/218/30 526/219/30
f 527/218/30 528/220/30 526/219/30
o scopeModel
v -4.023846 2.692308 0.576923
v -4.023077 2.692308 0.576923
v -4.023846 1.538462 0.576923
v -4.023077 1.538462 0.576923
v -4.023077 2.692308 -0.576923
v -4.023846 2.692308 -0.576923
v -4.023077 1.538462 -0.576923
v -4.023846 1.538462 -0.576923
v -4.023077 2.692308 -0.576923
v -4.023077 2.692308 0.576923
v -4.023846 2.692308 -0.576923
v -4.023846 2.692308 0.576923
v -4.023846 1.538462 -0.576923
v -4.023846 1.538462 0.576923
v -4.023077 1.538462 -0.576923
v -4.023077 1.538462 0.576923
v -4.023846 2.692308 -0.576923
v -4.023846 2.692308 0.576923
v -4.023846 1.538462 -0.576923
v -4.023846 1.538462 0.576923
v -4.023077 2.692308 0.576923
v -4.023077 2.692308 -0.576923
v -4.023077 1.538462 0.576923
v -4.023077 1.538462 -0.576923
vn -0.0000 -0.0000 1.0000
vn -0.0000 -0.0000 -1.0000
vn -0.0000 1.0000 -0.0000
vn -0.0000 -1.0000 -0.0000
vn -1.0000 -0.0000 -0.0000
vn 1.0000 -0.0000 -0.0000
vt 0.906250 0.093750
vt 0.906250 0.000000
vt 1.000000 0.093750
vt 1.000000 0.000000
s 0
usemtl Material_0
f 529/221/31 531/222/31 530/223/31
f 531/222/31 532/224/31 530/223/31
f 533/221/32 535/222/32 534/223/32
f 535/222/32 536/224/32 534/223/32
f 537/221/33 539/222/33 538/223/33
f 539/222/33 540/224/33 538/223/33
f 541/221/34 543/222/34 542/223/34
f 543/222/34 544/224/34 542/223/34
f 545/221/35 547/222/35 546/223/35
f 547/222/35 548/224/35 546/223/35
f 549/221/36 551/222/36 550/223/36
f 551/222/36 552/224/36 550/223/36
