# Blender 4.2.3 LTS
# www.blender.org
mtllib lev.pso.mtl
o overlaySolidModel
v -4.408461 3.461539 1.153847
v -4.407692 3.461539 1.153847
v -4.408461 2.307692 1.153847
v -4.407692 2.307692 1.153847
v -4.407692 3.461539 0.000001
v -4.408461 3.461539 0.000001
v -4.407692 2.307692 0.000001
v -4.408461 2.307692 0.000001
v -4.407692 3.461539 0.000001
v -4.407692 3.461539 1.153847
v -4.408461 3.461539 0.000001
v -4.408461 3.461539 1.153847
v -4.408461 2.307692 0.000001
v -4.408461 2.307692 1.153847
v -4.407692 2.307692 0.000001
v -4.407692 2.307692 1.153847
v -4.408461 3.461539 0.000001
v -4.408461 3.461539 1.153847
v -4.408461 2.307692 0.000001
v -4.408461 2.307692 1.153847
v -4.407692 3.461539 1.153847
v -4.407692 3.461539 0.000001
v -4.407692 2.307692 1.153847
v -4.407692 2.307692 0.000001
vn -0.0000 -0.0000 1.0000
vn -0.0000 -0.0000 -1.0000
vn -0.0000 1.0000 -0.0000
vn -0.0000 -1.0000 -0.0000
vn -1.0000 -0.0000 -0.0000
vn 1.0000 -0.0000 -0.0000
vt 0.906250 0.093750
vt 0.906250 0.000000
vt 1.000000 0.093750
vt 1.000000 0.000000
s 0
usemtl Material_0
f 1/1/1 3/2/1 2/3/1
f 3/2/1 4/4/1 2/3/1
f 5/1/2 7/2/2 6/3/2
f 7/2/2 8/4/2 6/3/2
f 9/1/3 11/2/3 10/3/3
f 11/2/3 12/4/3 10/3/3
f 13/1/4 15/2/4 14/3/4
f 15/2/4 16/4/4 14/3/4
f 17/1/5 19/2/5 18/3/5
f 19/2/5 20/4/5 18/3/5
f 21/1/6 23/2/6 22/3/6
f 23/2/6 24/4/6 22/3/6
o scopeModel
v -4.404615 3.461539 1.153847
v -4.403846 3.461539 1.153847
v -4.404615 2.307692 1.153847
v -4.403846 2.307692 1.153847
v -4.403846 3.461539 0.000001
v -4.404615 3.461539 0.000001
v -4.403846 2.307692 0.000001
v -4.404615 2.307692 0.000001
v -4.403846 3.461539 0.000001
v -4.403846 3.461539 1.153847
v -4.404615 3.461539 0.000001
v -4.404615 3.461539 1.153847
v -4.404615 2.307692 0.000001
v -4.404615 2.307692 1.153847
v -4.403846 2.307692 0.000001
v -4.403846 2.307692 1.153847
v -4.404615 3.461539 0.000001
v -4.404615 3.461539 1.153847
v -4.404615 2.307692 0.000001
v -4.404615 2.307692 1.153847
v -4.403846 3.461539 1.153847
v -4.403846 3.461539 0.000001
v -4.403846 2.307692 1.153847
v -4.403846 2.307692 0.000001
vn -0.0000 -0.0000 1.0000
vn -0.0000 -0.0000 -1.0000
vn -0.0000 1.0000 -0.0000
vn -0.0000 -1.0000 -0.0000
vn -1.0000 -0.0000 -0.0000
vn 1.0000 -0.0000 -0.0000
vt 0.531250 0.093750
vt 0.531250 0.000000
vt 0.625000 0.093750
vt 0.625000 0.000000
s 0
usemtl Material_0
f 25/5/7 27/6/7 26/7/7
f 27/6/7 28/8/7 26/7/7
f 29/5/8 31/6/8 30/7/8
f 31/6/8 32/8/8 30/7/8
f 33/5/9 35/6/9 34/7/9
f 35/6/9 36/8/9 34/7/9
f 37/5/10 39/6/10 38/7/10
f 39/6/10 40/8/10 38/7/10
f 41/5/11 43/6/11 42/7/11
f 43/6/11 44/8/11 42/7/11
f 45/5/12 47/6/12 46/7/12
f 47/6/12 48/8/12 46/7/12
o attachmentModel
v -4.400769 3.461539 1.153847
v -4.399999 3.461539 1.153847
v -4.400769 2.307692 1.153847
v -4.399999 2.307692 1.153847
v -4.399999 3.461539 0.000001
v -4.400769 3.461539 0.000001
v -4.399999 2.307692 0.000001
v -4.400769 2.307692 0.000001
v -4.399999 3.461539 0.000001
v -4.399999 3.461539 1.153847
v -4.400769 3.461539 0.000001
v -4.400769 3.461539 1.153847
v -4.400769 2.307692 0.000001
v -4.400769 2.307692 1.153847
v -4.399999 2.307692 0.000001
v -4.399999 2.307692 1.153847
v -4.400769 3.461539 0.000001
v -4.400769 3.461539 1.153847
v -4.400769 2.307692 0.000001
v -4.400769 2.307692 1.153847
v -4.399999 3.461539 1.153847
v -4.399999 3.461539 0.000001
v -4.399999 2.307692 1.153847
v -4.399999 2.307692 0.000001
v -1.538461 0.769231 0.000000
v 1.538461 0.769231 -0.000000
v -1.538461 0.000000 0.000000
v 1.538461 0.000000 -0.000000
v 1.538461 0.769231 -0.384616
v -1.538462 0.769231 -0.384615
v 1.538461 0.000000 -0.384616
v -1.538462 0.000000 -0.384615
v 1.538461 0.769231 -0.384616
v 1.538461 0.769231 -0.000000
v -1.538462 0.769231 -0.384615
v -1.538461 0.769231 0.000000
v -1.538462 0.000000 -0.384615
v -1.538461 0.000000 0.000000
v 1.538461 0.000000 -0.384616
v 1.538461 0.000000 -0.000000
v -1.538462 0.769231 -0.384615
v -1.538461 0.769231 0.000000
v -1.538462 0.000000 -0.384615
v -1.538461 0.000000 0.000000
v 1.538461 0.769231 -0.000000
v 1.538461 0.769231 -0.384616
v 1.538461 0.000000 -0.000000
v 1.538461 0.000000 -0.384616
v 0.769231 1.923077 -0.192308
v 1.538461 1.923077 -0.192308
v 0.769231 1.153846 -0.192308
v 1.538461 1.153846 -0.192308
v 1.538461 1.923077 -0.576923
v 0.769231 1.923077 -0.576923
v 1.538461 1.153846 -0.576923
v 0.769231 1.153846 -0.576923
v 1.538461 1.923077 -0.576923
v 1.538461 1.923077 -0.192308
v 0.769231 1.923077 -0.576923
v 0.769231 1.923077 -0.192308
v 0.769231 1.153846 -0.576923
v 0.769231 1.153846 -0.192308
v 1.538461 1.153846 -0.576923
v 1.538461 1.153846 -0.192308
v 0.769231 1.923077 -0.576923
v 0.769231 1.923077 -0.192308
v 0.769231 1.153846 -0.576923
v 0.769231 1.153846 -0.192308
v 1.538461 1.923077 -0.192308
v 1.538461 1.923077 -0.576923
v 1.538461 1.153846 -0.192308
v 1.538461 1.153846 -0.576923
v -1.538461 1.923077 -0.192307
v -0.769231 1.923077 -0.192308
v -1.538461 0.769231 -0.192307
v -0.769231 0.769231 -0.192308
v -0.769231 1.923077 -0.576923
v -1.538462 1.923077 -0.576923
v -0.769231 0.769231 -0.576923
v -1.538462 0.769231 -0.576923
v -0.769231 1.923077 -0.576923
v -0.769231 1.923077 -0.192308
v -1.538462 1.923077 -0.576923
v -1.538461 1.923077 -0.192307
v -1.538462 0.769231 -0.576923
v -1.538461 0.769231 -0.192307
v -0.769231 0.769231 -0.576923
v -0.769231 0.769231 -0.192308
v -1.538462 1.923077 -0.576923
v -1.538461 1.923077 -0.192307
v -1.538462 0.769231 -0.576923
v -1.538461 0.769231 -0.192307
v -0.769231 1.923077 -0.192308
v -0.769231 1.923077 -0.576923
v -0.769231 0.769231 -0.192308
v -0.769231 0.769231 -0.576923
v -2.115384 1.923077 0.351621
v -0.576923 1.923077 0.351621
v -2.115384 1.379149 -0.192307
v -0.576923 1.379149 -0.192307
v -0.576923 2.467005 -0.192307
v -2.115384 2.467005 -0.192307
v -0.576923 1.923077 -0.736236
v -2.115385 1.923077 -0.736235
v -0.576923 2.467005 -0.192307
v -0.576923 1.923077 0.351621
v -2.115384 2.467005 -0.192307
v -2.115384 1.923077 0.351621
v -2.115385 1.923077 -0.736235
v -2.115384 1.379149 -0.192307
v -0.576923 1.923077 -0.736236
v -0.576923 1.379149 -0.192307
v -2.115384 2.467005 -0.192307
v -2.115384 1.923077 0.351621
v -2.115385 1.923077 -0.736235
v -2.115384 1.379149 -0.192307
v -0.576923 1.923077 0.351621
v -0.576923 2.467005 -0.192307
v -0.576923 1.379149 -0.192307
v -0.576923 1.923077 -0.736236
v -1.538461 2.466461 0.352165
v 1.538462 2.466461 0.352165
v -1.538461 1.922533 -0.191763
v 1.538461 1.922533 -0.191764
v 1.538462 2.467005 0.351621
v -1.538461 2.467005 0.351621
v 1.538461 1.923077 -0.192308
v -1.538461 1.923077 -0.192307
v 1.538462 2.467005 0.351621
v 1.538462 2.466461 0.352165
v -1.538461 2.467005 0.351621
v -1.538461 2.466461 0.352165
v -1.538461 1.923077 -0.192307
v -1.538461 1.922533 -0.191763
v 1.538461 1.923077 -0.192308
v 1.538461 1.922533 -0.191764
v -1.538461 2.467005 0.351621
v -1.538461 2.466461 0.352165
v -1.538461 1.923077 -0.192307
v -1.538461 1.922533 -0.191763
v 1.538462 2.466461 0.352165
v 1.538462 2.467005 0.351621
v 1.538461 1.922533 -0.191764
v 1.538461 1.923077 -0.192308
v -0.576923 3.846154 0.961538
v 0.192308 3.846154 0.961538
v -0.576923 3.461539 0.961538
v 0.192308 3.461539 0.961538
v 0.192308 3.846154 0.192308
v -0.576923 3.846154 0.192308
v 0.192308 3.461539 0.192308
v -0.576923 3.461539 0.192308
v 0.192308 3.846154 0.192308
v 0.192308 3.846154 0.961538
v -0.576923 3.846154 0.192308
v -0.576923 3.846154 0.961538
v -0.576923 3.461539 0.192308
v -0.576923 3.461539 0.961538
v 0.192308 3.461539 0.192308
v 0.192308 3.461539 0.961538
v -0.576923 3.846154 0.192308
v -0.576923 3.846154 0.961538
v -0.576923 3.461539 0.192308
v -0.576923 3.461539 0.961538
v 0.192308 3.846154 0.961538
v 0.192308 3.846154 0.192308
v 0.192308 3.461539 0.961538
v 0.192308 3.461539 0.192308
v -3.653846 3.428544 0.576923
v 3.269231 3.428544 0.576922
v -3.653846 2.884616 1.120852
v 3.269231 2.884616 1.120850
v 3.269231 2.884615 0.032994
v -3.653846 2.884615 0.032995
v 3.269231 2.340687 0.576922
v -3.653846 2.340687 0.576923
v 3.269231 2.884615 0.032994
v 3.269231 3.428544 0.576922
v -3.653846 2.884615 0.032995
v -3.653846 3.428544 0.576923
v -3.653846 2.340687 0.576923
v -3.653846 2.884616 1.120852
v 3.269231 2.340687 0.576922
v 3.269231 2.884616 1.120850
v -3.653846 2.884615 0.032995
v -3.653846 3.428544 0.576923
v -3.653846 2.340687 0.576923
v -3.653846 2.884616 1.120852
v 3.269231 3.428544 0.576922
v 3.269231 2.884615 0.032994
v 3.269231 2.884616 1.120850
v 3.269231 2.340687 0.576922
v -0.192308 0.962308 0.000000
v 0.576923 0.962308 -0.000000
v -0.192308 0.961538 0.000000
v 0.576923 0.961538 -0.000000
v 0.576923 0.962308 -0.384615
v -0.192308 0.962308 -0.384615
v 0.576923 0.961538 -0.384615
v -0.192308 0.961538 -0.384615
v 0.576923 0.962308 -0.384615
v 0.576923 0.962308 -0.000000
v -0.192308 0.962308 -0.384615
v -0.192308 0.962308 0.000000
v -0.192308 0.961538 -0.384615
v -0.192308 0.961538 0.000000
v 0.576923 0.961538 -0.384615
v 0.576923 0.961538 -0.000000
v -0.192308 0.962308 -0.384615
v -0.192308 0.962308 0.000000
v -0.192308 0.961538 -0.384615
v -0.192308 0.961538 0.000000
v 0.576923 0.962308 -0.000000
v 0.576923 0.962308 -0.384615
v 0.576923 0.961538 -0.000000
v 0.576923 0.961538 -0.384615
v -0.576923 1.153846 0.000000
v -0.192308 1.153846 0.000000
v -0.576923 0.769231 0.000000
v -0.192308 0.769231 0.000000
v -0.192308 1.153846 -0.384615
v -0.576923 1.153846 -0.384615
v -0.192308 0.769231 -0.384615
v -0.576923 0.769231 -0.384615
v -0.192308 1.153846 -0.384615
v -0.192308 1.153846 0.000000
v -0.576923 1.153846 -0.384615
v -0.576923 1.153846 0.000000
v -0.576923 0.769231 -0.384615
v -0.576923 0.769231 0.000000
v -0.192308 0.769231 -0.384615
v -0.192308 0.769231 0.000000
v -0.576923 1.153846 -0.384615
v -0.576923 1.153846 0.000000
v -0.576923 0.769231 -0.384615
v -0.576923 0.769231 0.000000
v -0.192308 1.153846 0.000000
v -0.192308 1.153846 -0.384615
v -0.192308 0.769231 0.000000
v -0.192308 0.769231 -0.384615
v 0.384615 1.538462 -0.191539
v 1.538461 1.538462 -0.191539
v 0.384615 0.769231 -0.191539
v 1.538461 0.769231 -0.191539
v 1.538461 1.538462 -0.192308
v 0.384615 1.538462 -0.192308
v 1.538461 0.769231 -0.192308
v 0.384615 0.769231 -0.192308
v 1.538461 1.538462 -0.192308
v 1.538461 1.538462 -0.191539
v 0.384615 1.538462 -0.192308
v 0.384615 1.538462 -0.191539
v 0.384615 0.769231 -0.192308
v 0.384615 0.769231 -0.191539
v 1.538461 0.769231 -0.192308
v 1.538461 0.769231 -0.191539
v 0.384615 1.538462 -0.192308
v 0.384615 1.538462 -0.191539
v 0.384615 0.769231 -0.192308
v 0.384615 0.769231 -0.191539
v 1.538461 1.538462 -0.191539
v 1.538461 1.538462 -0.192308
v 1.538461 0.769231 -0.191539
v 1.538461 0.769231 -0.192308
v -1.730769 3.461539 1.153846
v 0.576923 3.461539 1.153846
v -1.730769 2.307692 1.153846
v 0.576923 2.307692 1.153846
v 0.576923 3.461539 -0.000000
v -1.730769 3.461539 0.000000
v 0.576923 2.307692 -0.000000
v -1.730769 2.307692 0.000000
v 0.576923 3.461539 -0.000000
v 0.576923 3.461539 1.153846
v -1.730769 3.461539 0.000000
v -1.730769 3.461539 1.153846
v -1.730769 2.307692 0.000000
v -1.730769 2.307692 1.153846
v 0.576923 2.307692 -0.000000
v 0.576923 2.307692 1.153846
v -1.730769 3.461539 0.000000
v -1.730769 3.461539 1.153846
v -1.730769 2.307692 0.000000
v -1.730769 2.307692 1.153846
v 0.576923 3.461539 1.153846
v 0.576923 3.461539 -0.000000
v 0.576923 2.307692 1.153846
v 0.576923 2.307692 -0.000000
v -0.576923 3.269231 1.538462
v 0.192308 3.269231 1.538461
v -0.576923 2.500000 1.538462
v 0.192308 2.500000 1.538461
v 0.192308 3.269231 1.153846
v -0.576923 3.269231 1.153846
v 0.192308 2.500000 1.153846
v -0.576923 2.500000 1.153846
v 0.192308 3.269231 1.153846
v 0.192308 3.269231 1.538461
v -0.576923 3.269231 1.153846
v -0.576923 3.269231 1.538462
v -0.576923 2.500000 1.153846
v -0.576923 2.500000 1.538462
v 0.192308 2.500000 1.153846
v 0.192308 2.500000 1.538461
v -0.576923 3.269231 1.153846
v -0.576923 3.269231 1.538462
v -0.576923 2.500000 1.153846
v -0.576923 2.500000 1.538462
v 0.192308 3.269231 1.538461
v 0.192308 3.269231 1.153846
v 0.192308 2.500000 1.538461
v 0.192308 2.500000 1.153846
v -3.654615 3.461539 1.153847
v -3.653846 3.461539 1.153847
v -3.654615 2.307692 1.153847
v -3.653846 2.307692 1.153847
v -3.653846 3.461539 0.000001
v -3.654615 3.461539 0.000001
v -3.653846 2.307692 0.000001
v -3.654615 2.307692 0.000001
v -3.653846 3.461539 0.000001
v -3.653846 3.461539 1.153847
v -3.654615 3.461539 0.000001
v -3.654615 3.461539 1.153847
v -3.654615 2.307692 0.000001
v -3.654615 2.307692 1.153847
v -3.653846 2.307692 0.000001
v -3.653846 2.307692 1.153847
v -3.654615 3.461539 0.000001
v -3.654615 3.461539 1.153847
v -3.654615 2.307692 0.000001
v -3.654615 2.307692 1.153847
v -3.653846 3.461539 1.153847
v -3.653846 3.461539 0.000001
v -3.653846 2.307692 1.153847
v -3.653846 2.307692 0.000001
v -4.423077 3.462308 1.153847
v -3.653846 3.462308 1.153847
v -4.423077 3.461539 1.153847
v -3.653846 3.461539 1.153847
v -3.653846 3.462308 0.000001
v -4.423077 3.462308 0.000001
v -3.653846 3.461539 0.000001
v -4.423077 3.461539 0.000001
v -3.653846 3.462308 0.000001
v -3.653846 3.462308 1.153847
v -4.423077 3.462308 0.000001
v -4.423077 3.462308 1.153847
v -4.423077 3.461539 0.000001
v -4.423077 3.461539 1.153847
v -3.653846 3.461539 0.000001
v -3.653846 3.461539 1.153847
v -4.423077 3.462308 0.000001
v -4.423077 3.462308 1.153847
v -4.423077 3.461539 0.000001
v -4.423077 3.461539 1.153847
v -3.653846 3.462308 1.153847
v -3.653846 3.462308 0.000001
v -3.653846 3.461539 1.153847
v -3.653846 3.461539 0.000001
v -4.423077 2.308461 1.153847
v -3.653846 2.308461 1.153847
v -4.423077 2.307692 1.153847
v -3.653846 2.307692 1.153847
v -3.653846 2.308461 0.000001
v -4.423077 2.308461 0.000001
v -3.653846 2.307692 0.000001
v -4.423077 2.307692 0.000001
v -3.653846 2.308461 0.000001
v -3.653846 2.308461 1.153847
v -4.423077 2.308461 0.000001
v -4.423077 2.308461 1.153847
v -4.423077 2.307692 0.000001
v -4.423077 2.307692 1.153847
v -3.653846 2.307692 0.000001
v -3.653846 2.307692 1.153847
v -4.423077 2.308461 0.000001
v -4.423077 2.308461 1.153847
v -4.423077 2.307692 0.000001
v -4.423077 2.307692 1.153847
v -3.653846 2.308461 1.153847
v -3.653846 2.308461 0.000001
v -3.653846 2.307692 1.153847
v -3.653846 2.307692 0.000001
v -4.423077 3.461539 1.154616
v -3.653846 3.461539 1.154616
v -4.423077 2.307692 1.154616
v -3.653846 2.307692 1.154616
v -3.653846 3.461539 1.153847
v -4.423077 3.461539 1.153847
v -3.653846 2.307692 1.153847
v -4.423077 2.307692 1.153847
v -3.653846 3.461539 1.153847
v -3.653846 3.461539 1.154616
v -4.423077 3.461539 1.153847
v -4.423077 3.461539 1.154616
v -4.423077 2.307692 1.153847
v -4.423077 2.307692 1.154616
v -3.653846 2.307692 1.153847
v -3.653846 2.307692 1.154616
v -4.423077 3.461539 1.153847
v -4.423077 3.461539 1.154616
v -4.423077 2.307692 1.153847
v -4.423077 2.307692 1.154616
v -3.653846 3.461539 1.154616
v -3.653846 3.461539 1.153847
v -3.653846 2.307692 1.154616
v -3.653846 2.307692 1.153847
v -4.423077 3.461539 0.000770
v -3.653846 3.461539 0.000770
v -4.423077 2.307692 0.000770
v -3.653846 2.307692 0.000770
v -3.653846 3.461539 0.000001
v -4.423077 3.461539 0.000001
v -3.653846 2.307692 0.000001
v -4.423077 2.307692 0.000001
v -3.653846 3.461539 0.000001
v -3.653846 3.461539 0.000770
v -4.423077 3.461539 0.000001
v -4.423077 3.461539 0.000770
v -4.423077 2.307692 0.000001
v -4.423077 2.307692 0.000770
v -3.653846 2.307692 0.000001
v -3.653846 2.307692 0.000770
v -4.423077 3.461539 0.000001
v -4.423077 3.461539 0.000770
v -4.423077 2.307692 0.000001
v -4.423077 2.307692 0.000770
v -3.653846 3.461539 0.000770
v -3.653846 3.461539 0.000001
v -3.653846 2.307692 0.000770
v -3.653846 2.307692 0.000001
v -4.423846 3.461539 0.115386
v -4.423077 3.461539 0.115386
v -4.423846 2.307692 0.115386
v -4.423077 2.307692 0.115386
v -4.423077 3.461539 0.000001
v -4.423846 3.461539 0.000001
v -4.423077 2.307692 0.000001
v -4.423846 2.307692 0.000001
v -4.423077 3.461539 0.000001
v -4.423077 3.461539 0.115386
v -4.423846 3.461539 0.000001
v -4.423846 3.461539 0.115386
v -4.423846 2.307692 0.000001
v -4.423846 2.307692 0.115386
v -4.423077 2.307692 0.000001
v -4.423077 2.307692 0.115386
v -4.423846 3.461539 0.000001
v -4.423846 3.461539 0.115386
v -4.423846 2.307692 0.000001
v -4.423846 2.307692 0.115386
v -4.423077 3.461539 0.115386
v -4.423077 3.461539 0.000001
v -4.423077 2.307692 0.115386
v -4.423077 2.307692 0.000001
v -4.423846 3.461539 1.153847
v -4.423077 3.461539 1.153847
v -4.423846 2.307692 1.153847
v -4.423077 2.307692 1.153847
v -4.423077 3.461539 1.038462
v -4.423846 3.461539 1.038462
v -4.423077 2.307692 1.038462
v -4.423846 2.307692 1.038462
v -4.423077 3.461539 1.038462
v -4.423077 3.461539 1.153847
v -4.423846 3.461539 1.038462
v -4.423846 3.461539 1.153847
v -4.423846 2.307692 1.038462
v -4.423846 2.307692 1.153847
v -4.423077 2.307692 1.038462
v -4.423077 2.307692 1.153847
v -4.423846 3.461539 1.038462
v -4.423846 3.461539 1.153847
v -4.423846 2.307692 1.038462
v -4.423846 2.307692 1.153847
v -4.423077 3.461539 1.153847
v -4.423077 3.461539 1.038462
v -4.423077 2.307692 1.153847
v -4.423077 2.307692 1.038462
v -4.423846 3.461539 1.038462
v -4.423077 3.461539 1.038462
v -4.423846 3.346154 1.038462
v -4.423077 3.346154 1.038462
v -4.423077 3.461539 0.115386
v -4.423846 3.461539 0.115386
v -4.423077 3.346154 0.115386
v -4.423846 3.346154 0.115386
v -4.423077 3.461539 0.115386
v -4.423077 3.461539 1.038462
v -4.423846 3.461539 0.115386
v -4.423846 3.461539 1.038462
v -4.423846 3.346154 0.115386
v -4.423846 3.346154 1.038462
v -4.423077 3.346154 0.115386
v -4.423077 3.346154 1.038462
v -4.423846 3.461539 0.115386
v -4.423846 3.461539 1.038462
v -4.423846 3.346154 0.115386
v -4.423846 3.346154 1.038462
v -4.423077 3.461539 1.038462
v -4.423077 3.461539 0.115386
v -4.423077 3.346154 1.038462
v -4.423077 3.346154 0.115386
v -4.423846 2.423077 1.038462
v -4.423077 2.423077 1.038462
v -4.423846 2.307692 1.038462
v -4.423077 2.307692 1.038462
v -4.423077 2.423077 0.115386
v -4.423846 2.423077 0.115386
v -4.423077 2.307692 0.115386
v -4.423846 2.307692 0.115386
v -4.423077 2.423077 0.115386
v -4.423077 2.423077 1.038462
v -4.423846 2.423077 0.115386
v -4.423846 2.423077 1.038462
v -4.423846 2.307692 0.115386
v -4.423846 2.307692 1.038462
v -4.423077 2.307692 0.115386
v -4.423077 2.307692 1.038462
v -4.423846 2.423077 0.115386
v -4.423846 2.423077 1.038462
v -4.423846 2.307692 0.115386
v -4.423846 2.307692 1.038462
v -4.423077 2.423077 1.038462
v -4.423077 2.423077 0.115386
v -4.423077 2.307692 1.038462
v -4.423077 2.307692 0.115386
vn -0.0000 -0.0000 1.0000
vn -0.0000 -0.0000 -1.0000
vn -0.0000 1.0000 -0.0000
vn -0.0000 -1.0000 -0.0000
vn -1.0000 -0.0000 -0.0000
vn 1.0000 -0.0000 -0.0000
vn -0.0000 -0.7071 0.7071
vn -0.0000 0.7071 -0.7071
vn -0.0000 0.7071 0.7071
vn -0.0000 -0.7071 -0.7071
vn -0.0000 0.7072 0.7070
vn -0.0000 0.7070 0.7072
vn -0.0000 -0.7070 -0.7072
vn -0.0000 -0.7072 -0.7070
vt 0.531250 0.093750
vt 0.531250 0.000000
vt 0.625000 0.093750
vt 0.625000 0.000000
vt 0.437500 0.593750
vt 0.437500 0.500000
vt 0.531250 0.593750
vt 0.531250 0.500000
vt 0.437500 0.875000
vt 0.437500 0.812500
vt 0.687500 0.875000
vt 0.687500 0.812500
vt 0.437500 0.750000
vt 0.687500 0.750000
vt 0.406250 0.125000
vt 0.406250 0.375000
vt 0.375000 0.125000
vt 0.375000 0.375000
vt 0.468750 0.375000
vt 0.468750 0.125000
vt 0.437500 0.375000
vt 0.437500 0.125000
vt 0.125000 0.187500
vt 0.125000 0.125000
vt 0.156250 0.187500
vt 0.156250 0.125000
vt 0.812500 0.937500
vt 0.812500 0.875000
vt 0.843750 0.937500
vt 0.843750 0.875000
vt 0.687500 0.562500
vt 0.687500 0.500000
vt 0.750000 0.562500
vt 0.750000 0.500000
vt 0.687500 0.375000
vt 0.687500 0.312500
vt 0.750000 0.375000
vt 0.750000 0.312500
vt 0.843750 0.750000
vt 0.843750 0.812500
vt 0.812500 0.750000
vt 0.812500 0.812500
vt 0.281250 0.187500
vt 0.281250 0.125000
vt 0.250000 0.187500
vt 0.250000 0.125000
vt 0.187500 0.187500
vt 0.187500 0.125000
vt 0.218750 0.187500
vt 0.218750 0.125000
vt 0.250000 0.593750
vt 0.250000 0.500000
vt 0.312500 0.593750
vt 0.312500 0.500000
vt 0.500000 0.343750
vt 0.500000 0.250000
vt 0.562500 0.343750
vt 0.562500 0.250000
vt 0.843750 0.687500
vt 0.812500 0.687500
vt 0.343750 0.187500
vt 0.343750 0.125000
vt 0.312500 0.187500
vt 0.312500 0.125000
vt 0.750000 0.968750
vt 0.750000 0.875000
vt 0.781250 0.968750
vt 0.781250 0.875000
vt 0.687500 0.281250
vt 0.687500 0.187500
vt 0.718750 0.281250
vt 0.718750 0.187500
vt 0.625000 0.500000
vt 0.625000 0.437500
vt 0.750000 0.437500
vt 0.562500 0.375000
vt 0.562500 0.312500
vt 0.062500 0.187500
vt 0.062500 0.312500
vt 0.000000 0.187500
vt 0.000000 0.312500
vt 0.750000 1.000000
vt 0.687500 1.000000
vt 0.187500 0.250000
vt 0.250000 0.250000
vt 0.125000 0.250000
vt 0.437500 0.687500
vt 0.687500 0.687500
vt 0.437500 0.625000
vt 0.687500 0.625000
vt 0.000000 0.750000
vt 0.000000 1.000000
vt 0.000000 0.937500
vt 0.812500 0.625000
vt 0.812500 0.593750
vt 0.875000 0.625000
vt 0.875000 0.593750
vt 0.500000 0.187500
vt 0.500000 0.156250
vt 0.562500 0.187500
vt 0.562500 0.156250
vt 0.312500 0.250000
vt 0.375000 0.250000
vt 0.375000 0.187500
vt 0.812500 0.562500
vt 0.812500 0.531250
vt 0.875000 0.562500
vt 0.875000 0.531250
vt 0.812500 0.656250
vt 0.875000 0.687500
vt 0.875000 0.656250
vt 0.562500 1.000000
vt 0.562500 0.937500
vt 0.000000 0.875000
vt 0.562500 0.875000
vt 0.062500 0.875000
vt 0.125000 0.875000
vt 0.125000 0.312500
vt 0.750000 0.625000
vt 0.750000 0.687500
vt 0.062500 1.000000
vt 0.843750 0.437500
vt 0.843750 0.500000
vt 0.812500 0.437500
vt 0.812500 0.500000
vt 0.593750 0.187500
vt 0.593750 0.125000
vt 0.562500 0.125000
vt 0.031250 1.000000
vt 0.875000 1.000000
vt 0.875000 0.968750
vt 0.906250 1.000000
vt 0.906250 0.968750
vt 0.875000 0.937500
vt 0.875000 0.906250
vt 0.906250 0.937500
vt 0.906250 0.906250
vt 0.156250 0.093750
vt 0.125000 0.093750
vt 0.906250 0.875000
vt 0.906250 0.843750
vt 0.875000 0.875000
vt 0.875000 0.843750
vt 0.062500 0.125000
vt 0.062500 0.093750
vt 0.093750 0.125000
vt 0.093750 0.093750
vt 0.812500 0.187500
vt 0.812500 0.156250
vt 0.843750 0.187500
vt 0.843750 0.156250
vt 0.125000 0.500000
vt 0.125000 0.437500
vt 0.218750 0.500000
vt 0.218750 0.437500
vt 0.250000 0.437500
vt 0.343750 0.500000
vt 0.343750 0.437500
vt 0.000000 0.906250
vt 0.125000 0.781250
vt 0.312500 0.875000
vt 0.312500 0.781250
vt 0.125000 0.750000
vt 0.125000 0.656250
vt 0.312500 0.750000
vt 0.312500 0.656250
vt 0.406250 0.687500
vt 0.406250 0.875000
vt 0.312500 0.687500
vt 0.406250 0.500000
vt 0.500000 0.500000
vt 0.500000 0.406250
vt 0.593750 0.500000
vt 0.593750 0.406250
vt 0.375000 0.500000
vt 0.375000 0.406250
vt 0.468750 0.500000
vt 0.468750 0.406250
vt 0.843750 0.312500
vt 0.843750 0.375000
vt 0.812500 0.312500
vt 0.812500 0.375000
vt 0.718750 0.125000
vt 0.687500 0.125000
vt 0.625000 0.187500
vt 0.625000 0.125000
vt 0.656250 0.187500
vt 0.656250 0.125000
vt 0.093750 1.000000
vt 0.562500 0.625000
vt 0.562500 0.531250
vt 0.656250 0.625000
vt 0.656250 0.531250
vt 0.562500 0.906250
vt 0.656250 1.000000
vt 0.656250 0.906250
vt 0.718750 0.375000
vt 0.718750 0.437500
vt 0.625000 0.375000
vt 0.781250 0.812500
vt 0.781250 0.750000
vt 0.781250 0.687500
vt 0.062500 0.218750
vt 0.125000 0.218750
vt 0.687500 0.593750
vt 0.750000 0.593750
vt 0.562500 0.218750
vt 0.625000 0.312500
vt 0.625000 0.218750
vt 0.687500 0.218750
vt 0.750000 0.281250
vt 0.781250 0.375000
vt 0.781250 0.281250
vt 0.750000 0.406250
vt 0.781250 0.500000
vt 0.781250 0.406250
vt 0.000000 0.093750
vt 0.031250 0.187500
vt 0.031250 0.093750
vt 0.750000 0.250000
vt 0.750000 0.156250
vt 0.781250 0.250000
vt 0.781250 0.156250
vt 0.000000 0.968750
vt 0.812500 0.250000
vt 0.812500 0.218750
vt 0.875000 0.250000
vt 0.875000 0.218750
vt 0.812500 0.281250
vt 0.875000 0.312500
vt 0.875000 0.281250
vt 0.062500 0.156250
vt 0.125000 0.156250
vt 0.812500 1.000000
vt 0.812500 0.968750
s 0
usemtl Material_0
f 49/9/13 51/10/13 50/11/13
f 51/10/13 52/12/13 50/11/13
f 53/9/14 55/10/14 54/11/14
f 55/10/14 56/12/14 54/11/14
f 57/9/15 59/10/15 58/11/15
f 59/10/15 60/12/15 58/11/15
f 61/9/16 63/10/16 62/11/16
f 63/10/16 64/12/16 62/11/16
f 65/13/17 67/14/17 66/15/17
f 67/14/17 68/16/17 66/15/17
f 69/9/18 71/10/18 70/11/18
f 71/10/18 72/12/18 70/11/18
f 73/17/13 75/18/13 74/19/13
f 75/18/13 76/20/13 74/19/13
f 77/18/14 79/21/14 78/20/14
f 79/21/14 80/22/14 78/20/14
f 81/23/15 83/24/15 82/25/15
f 83/24/15 84/26/15 82/25/15
f 85/27/16 87/28/16 86/29/16
f 87/28/16 88/30/16 86/29/16
f 89/31/17 91/32/17 90/33/17
f 91/32/17 92/34/17 90/33/17
f 93/35/18 95/36/18 94/37/18
f 95/36/18 96/38/18 94/37/18
f 97/39/13 99/40/13 98/41/13
f 99/40/13 100/42/13 98/41/13
f 101/43/14 103/44/14 102/45/14
f 103/44/14 104/46/14 102/45/14
f 105/47/15 107/48/15 106/49/15
f 107/48/15 108/50/15 106/49/15
f 109/51/16 111/52/16 110/53/16
f 111/52/16 112/54/16 110/53/16
f 113/55/17 115/56/17 114/57/17
f 115/56/17 116/58/17 114/57/17
f 117/36/18 119/50/18 118/38/18
f 119/50/18 120/48/18 118/38/18
f 121/59/13 123/60/13 122/61/13
f 123/60/13 124/62/13 122/61/13
f 125/63/14 127/64/14 126/65/14
f 127/64/14 128/66/14 126/65/14
f 129/67/15 131/47/15 130/68/15
f 131/47/15 132/49/15 130/68/15
f 133/69/16 135/70/16 134/71/16
f 135/70/16 136/72/16 134/71/16
f 137/73/17 139/74/17 138/75/17
f 139/74/17 140/76/17 138/75/17
f 141/77/18 143/78/18 142/79/18
f 143/78/18 144/80/18 142/79/18
f 145/81/19 147/82/19 146/42/19
f 147/82/19 148/83/19 146/42/19
f 149/84/20 151/85/20 150/43/20
f 151/85/20 152/44/20 150/43/20
f 153/86/21 155/87/21 154/88/21
f 155/87/21 156/89/21 154/88/21
f 157/90/22 159/74/22 158/91/22
f 159/74/22 160/19/22 158/91/22
f 161/92/17 163/55/17 162/93/17
f 163/55/17 164/53/17 162/93/17
f 165/94/18 167/31/18 166/92/18
f 167/31/18 168/55/18 166/92/18
f 169/21/19 171/95/19 170/22/19
f 171/95/19 172/96/19 170/22/19
f 173/95/20 175/97/20 174/96/20
f 175/97/20 176/98/20 174/96/20
f 177/99/23 179/100/23 178/99/23
f 179/100/24 180/100/24 178/99/24
f 181/100/25 183/99/25 182/100/25
f 183/99/26 184/99/26 182/100/26
f 185/100/17 187/101/17 186/100/17
f 187/101/17 188/101/17 186/100/17
f 189/100/18 191/101/18 190/100/18
f 191/101/18 192/101/18 190/100/18
f 193/102/13 195/103/13 194/104/13
f 195/103/13 196/105/13 194/104/13
f 197/106/14 199/107/14 198/108/14
f 199/107/14 200/109/14 198/108/14
f 201/71/15 203/110/15 202/53/15
f 203/110/15 204/93/15 202/53/15
f 205/111/16 207/112/16 206/110/16
f 207/112/16 208/71/16 206/110/16
f 209/113/17 211/114/17 210/115/17
f 211/114/17 212/116/17 210/115/17
f 213/68/18 215/117/18 214/118/18
f 215/117/18 216/119/18 214/118/18
f 217/100/21 219/101/21 218/120/21
f 219/101/21 220/121/21 218/120/21
f 221/101/22 223/122/22 222/121/22
f 223/122/22 224/123/22 222/121/22
f 225/87/20 227/124/20 226/89/20
f 227/124/20 228/122/20 226/89/20
f 229/125/19 231/126/19 230/124/19
f 231/126/19 232/87/19 230/124/19
f 233/127/17 235/41/17 234/102/17
f 235/41/17 236/113/17 234/102/17
f 237/128/18 239/127/18 238/68/18
f 239/127/18 240/102/18 238/68/18
f 241/100/13 243/100/13 242/129/13
f 243/100/13 244/129/13 242/129/13
f 245/100/14 247/100/14 246/129/14
f 247/100/14 248/129/14 246/129/14
f 249/130/15 251/131/15 250/132/15
f 251/131/15 252/133/15 250/132/15
f 253/134/16 255/135/16 254/108/16
f 255/135/16 256/136/16 254/108/16
f 257/100/17 259/100/17 258/137/17
f 259/100/17 260/137/17 258/137/17
f 261/100/18 263/100/18 262/137/18
f 263/100/18 264/137/18 262/137/18
f 265/138/13 267/139/13 266/140/13
f 267/139/13 268/141/13 266/140/13
f 269/142/14 271/143/14 270/144/14
f 271/143/14 272/145/14 270/144/14
f 273/146/15 275/34/15 274/147/15
f 275/34/15 276/32/15 274/147/15
f 277/148/16 279/149/16 278/150/16
f 279/149/16 280/151/16 278/150/16
f 281/152/17 283/153/17 282/154/17
f 283/153/17 284/155/17 282/154/17
f 285/156/18 287/157/18 286/158/18
f 287/157/18 288/159/18 286/158/18
f 289/160/13 291/161/13 290/162/13
f 291/161/13 292/163/13 290/162/13
f 293/60/14 295/164/14 294/165/14
f 295/164/14 296/166/14 294/165/14
f 297/167/15 299/100/15 298/167/15
f 299/100/15 300/100/15 298/167/15
f 301/100/16 303/167/16 302/100/16
f 303/167/16 304/167/16 302/100/16
f 305/100/17 307/167/17 306/100/17
f 307/167/17 308/167/17 306/100/17
f 309/100/18 311/167/18 310/100/18
f 311/167/18 312/167/18 310/100/18
f 313/125/13 315/168/13 314/169/13
f 315/168/13 316/170/13 314/169/13
f 317/171/14 319/172/14 318/173/14
f 319/172/14 320/174/14 318/173/14
f 321/175/15 323/176/15 322/177/15
f 323/176/15 324/169/15 322/177/15
f 325/175/16 327/178/16 326/177/16
f 327/178/16 328/62/16 326/177/16
f 329/179/17 331/180/17 330/181/17
f 331/180/17 332/182/17 330/181/17
f 333/183/18 335/184/18 334/185/18
f 335/184/18 336/186/18 334/185/18
f 337/41/13 339/42/13 338/113/13
f 339/42/13 340/133/13 338/113/13
f 341/64/14 343/106/14 342/66/14
f 343/106/14 344/108/14 342/66/14
f 345/187/15 347/188/15 346/189/15
f 347/188/15 348/190/15 346/189/15
f 349/80/16 351/191/16 350/78/16
f 351/191/16 352/192/16 350/78/16
f 353/193/17 355/194/17 354/195/17
f 355/194/17 356/196/17 354/195/17
f 357/132/18 359/190/18 358/130/18
f 359/190/18 360/188/18 358/130/18
f 361/100/13 363/167/13 362/100/13
f 363/167/13 364/167/13 362/100/13
f 365/100/14 367/167/14 366/100/14
f 367/167/14 368/167/14 366/100/14
f 369/197/15 371/197/15 370/100/15
f 371/197/15 372/100/15 370/100/15
f 373/197/16 375/197/16 374/100/16
f 375/197/16 376/100/16 374/100/16
f 377/198/17 379/199/17 378/200/17
f 379/199/17 380/201/17 378/200/17
f 381/120/18 383/202/18 382/203/18
f 383/202/18 384/204/18 382/203/18
f 385/100/13 387/100/13 386/129/13
f 387/100/13 388/129/13 386/129/13
f 389/100/14 391/100/14 390/129/14
f 391/100/14 392/129/14 390/129/14
f 393/205/15 395/206/15 394/207/15
f 395/206/15 396/82/15 394/207/15
f 397/76/16 399/208/16 398/19/16
f 399/208/16 400/20/16 398/19/16
f 401/100/17 403/100/17 402/197/17
f 403/100/17 404/197/17 402/197/17
f 405/100/18 407/100/18 406/197/18
f 407/100/18 408/197/18 406/197/18
f 409/100/13 411/100/13 410/129/13
f 411/100/13 412/129/13 410/129/13
f 413/100/14 415/100/14 414/129/14
f 415/100/14 416/129/14 414/129/14
f 417/209/15 419/208/15 418/22/15
f 419/208/15 420/20/15 418/22/15
f 421/209/16 423/210/16 422/22/16
f 423/210/16 424/96/16 422/22/16
f 425/100/17 427/100/17 426/197/17
f 427/100/17 428/197/17 426/197/17
f 429/100/18 431/100/18 430/197/18
f 431/100/18 432/197/18 430/197/18
f 433/87/13 435/211/13 434/126/13
f 435/211/13 436/212/13 434/126/13
f 437/96/14 439/213/14 438/128/14
f 439/213/14 440/214/14 438/128/14
f 441/101/15 443/100/15 442/101/15
f 443/100/15 444/100/15 442/101/15
f 445/100/16 447/101/16 446/100/16
f 447/101/16 448/101/16 446/100/16
f 449/100/17 451/167/17 450/100/17
f 451/167/17 452/167/17 450/100/17
f 453/100/18 455/167/18 454/100/18
f 455/167/18 456/167/18 454/100/18
f 457/85/13 459/215/13 458/216/13
f 459/215/13 460/217/13 458/216/13
f 461/216/14 463/217/14 462/44/14
f 463/217/14 464/218/14 462/44/14
f 465/101/15 467/100/15 466/101/15
f 467/100/15 468/100/15 466/101/15
f 469/100/16 471/101/16 470/100/16
f 471/101/16 472/101/16 470/100/16
f 473/100/17 475/167/17 474/100/17
f 475/167/17 476/167/17 474/100/17
f 477/100/18 479/167/18 478/100/18
f 479/167/18 480/167/18 478/100/18
f 481/100/13 483/167/13 482/100/13
f 483/167/13 484/167/13 482/100/13
f 485/100/14 487/167/14 486/100/14
f 487/167/14 488/167/14 486/100/14
f 489/137/15 491/137/15 490/100/15
f 491/137/15 492/100/15 490/100/15
f 493/137/16 495/137/16 494/100/16
f 495/137/16 496/100/16 494/100/16
f 497/45/17 499/219/17 498/220/17
f 499/219/17 500/221/17 498/220/17
f 501/42/18 503/222/18 502/223/18
f 503/222/18 504/224/18 502/223/18
f 505/100/13 507/167/13 506/100/13
f 507/167/13 508/167/13 506/100/13
f 509/100/14 511/167/14 510/100/14
f 511/167/14 512/167/14 510/100/14
f 513/137/15 515/137/15 514/100/15
f 515/137/15 516/100/15 514/100/15
f 517/137/16 519/137/16 518/100/16
f 519/137/16 520/100/16 518/100/16
f 521/88/17 523/225/17 522/226/17
f 523/225/17 524/227/17 522/226/17
f 525/228/18 527/229/18 526/230/18
f 527/229/18 528/231/18 526/230/18
f 529/100/13 531/232/13 530/100/13
f 531/232/13 532/232/13 530/100/13
f 533/100/14 535/232/14 534/100/14
f 535/232/14 536/232/14 534/100/14
f 537/129/15 539/129/15 538/100/15
f 539/129/15 540/100/15 538/100/15
f 541/129/16 543/129/16 542/100/16
f 543/129/16 544/100/16 542/100/16
f 545/233/17 547/234/17 546/235/17
f 547/234/17 548/236/17 546/235/17
f 549/189/18 551/237/18 550/238/18
f 551/237/18 552/239/18 550/238/18
f 553/100/13 555/232/13 554/100/13
f 555/232/13 556/232/13 554/100/13
f 557/100/14 559/232/14 558/100/14
f 559/232/14 560/232/14 558/100/14
f 561/129/15 563/129/15 562/100/15
f 563/129/15 564/100/15 562/100/15
f 565/129/16 567/129/16 566/100/16
f 567/129/16 568/100/16 566/100/16
f 569/86/17 571/240/17 570/31/17
f 571/240/17 572/241/17 570/31/17
f 573/242/18 575/243/18 574/138/18
f 575/243/18 576/139/18 574/138/18
