# Blender 4.2.3 LTS
# www.blender.org
mtllib lev.m4comp.mtl
o attachmentModel
v 0.769231 -0.383846 0.384615
v 1.923077 -0.383846 0.384615
v 0.769231 -0.384615 0.384615
v 1.923077 -0.384615 0.384615
v 1.923077 -0.383846 -0.384616
v 0.769231 -0.383846 -0.384616
v 1.923077 -0.384615 -0.384616
v 0.769231 -0.384615 -0.384616
v 1.923077 -0.383846 -0.384616
v 1.923077 -0.383846 0.384615
v 0.769231 -0.383846 -0.384616
v 0.769231 -0.383846 0.384615
v 0.769231 -0.384615 -0.384616
v 0.769231 -0.384615 0.384615
v 1.923077 -0.384615 -0.384616
v 1.923077 -0.384615 0.384615
v 0.769231 -0.383846 -0.384616
v 0.769231 -0.383846 0.384615
v 0.769231 -0.384615 -0.384616
v 0.769231 -0.384615 0.384615
v 1.923077 -0.383846 0.384615
v 1.923077 -0.383846 -0.384616
v 1.923077 -0.384615 0.384615
v 1.923077 -0.384615 -0.384616
v 1.923077 0.384615 0.384615
v 2.307692 0.384615 0.384615
v 1.923077 -0.384615 0.384615
v 2.307692 -0.384615 0.384615
v 2.307692 0.384615 -0.384616
v 1.923077 0.384615 -0.384616
v 2.307692 -0.384615 -0.384616
v 1.923077 -0.384615 -0.384616
v 2.307692 0.384615 -0.384616
v 2.307692 0.384615 0.384615
v 1.923077 0.384615 -0.384616
v 1.923077 0.384615 0.384615
v 1.923077 -0.384615 -0.384616
v 1.923077 -0.384615 0.384615
v 2.307692 -0.384615 -0.384616
v 2.307692 -0.384615 0.384615
v 1.923077 0.384615 -0.384616
v 1.923077 0.384615 0.384615
v 1.923077 -0.384615 -0.384616
v 1.923077 -0.384615 0.384615
v 2.307692 0.384615 0.384615
v 2.307692 0.384615 -0.384616
v 2.307692 -0.384615 0.384615
v 2.307692 -0.384615 -0.384616
v 0.000000 0.384615 0.384615
v 0.769231 0.384615 0.384615
v 0.000000 -0.384615 0.384615
v 0.769231 -0.384615 0.384615
v 0.769231 0.384615 -0.384616
v -0.000000 0.384615 -0.384615
v 0.769231 -0.384615 -0.384616
v -0.000000 -0.384615 -0.384615
v 0.769231 0.384615 -0.384616
v 0.769231 0.384615 0.384615
v -0.000000 0.384615 -0.384615
v 0.000000 0.384615 0.384615
v -0.000000 -0.384615 -0.384615
v 0.000000 -0.384615 0.384615
v 0.769231 -0.384615 -0.384616
v 0.769231 -0.384615 0.384615
v -0.000000 0.384615 -0.384615
v 0.000000 0.384615 0.384615
v -0.000000 -0.384615 -0.384615
v 0.000000 -0.384615 0.384615
v 0.769231 0.384615 0.384615
v 0.769231 0.384615 -0.384616
v 0.769231 -0.384615 0.384615
v 0.769231 -0.384615 -0.384616
v 0.769231 0.384615 -0.383846
v 1.923077 0.384615 -0.383847
v 0.769231 -0.384615 -0.383846
v 1.923077 -0.384615 -0.383847
v 1.923077 0.384615 -0.384616
v 0.769231 0.384615 -0.384616
v 1.923077 -0.384615 -0.384616
v 0.769231 -0.384615 -0.384616
v 1.923077 0.384615 -0.384616
v 1.923077 0.384615 -0.383847
v 0.769231 0.384615 -0.384616
v 0.769231 0.384615 -0.383846
v 0.769231 -0.384615 -0.384616
v 0.769231 -0.384615 -0.383846
v 1.923077 -0.384615 -0.384616
v 1.923077 -0.384615 -0.383847
v 0.769231 0.384615 -0.384616
v 0.769231 0.384615 -0.383846
v 0.769231 -0.384615 -0.384616
v 0.769231 -0.384615 -0.383846
v 1.923077 0.384615 -0.383847
v 1.923077 0.384615 -0.384616
v 1.923077 -0.384615 -0.383847
v 1.923077 -0.384615 -0.384616
v 0.769231 0.384615 0.385384
v 1.923077 0.384615 0.385384
v 0.769231 -0.384615 0.385384
v 1.923077 -0.384615 0.385384
v 1.923077 0.384615 0.384615
v 0.769231 0.384615 0.384615
v 1.923077 -0.384615 0.384615
v 0.769231 -0.384615 0.384615
v 1.923077 0.384615 0.384615
v 1.923077 0.384615 0.385384
v 0.769231 0.384615 0.384615
v 0.769231 0.384615 0.385384
v 0.769231 -0.384615 0.384615
v 0.769231 -0.384615 0.385384
v 1.923077 -0.384615 0.384615
v 1.923077 -0.384615 0.385384
v 0.769231 0.384615 0.384615
v 0.769231 0.384615 0.385384
v 0.769231 -0.384615 0.384615
v 0.769231 -0.384615 0.385384
v 1.923077 0.384615 0.385384
v 1.923077 0.384615 0.384615
v 1.923077 -0.384615 0.385384
v 1.923077 -0.384615 0.384615
v 0.769231 0.385385 0.384615
v 1.923077 0.385385 0.384615
v 0.769231 0.384615 0.384615
v 1.923077 0.384615 0.384615
v 1.923077 0.385385 -0.384616
v 0.769231 0.385385 -0.384616
v 1.923077 0.384615 -0.384616
v 0.769231 0.384615 -0.384616
v 1.923077 0.385385 -0.384616
v 1.923077 0.385385 0.384615
v 0.769231 0.385385 -0.384616
v 0.769231 0.385385 0.384615
v 0.769231 0.384615 -0.384616
v 0.769231 0.384615 0.384615
v 1.923077 0.384615 -0.384616
v 1.923077 0.384615 0.384615
v 0.769231 0.385385 -0.384616
v 0.769231 0.385385 0.384615
v 0.769231 0.384615 -0.384616
v 0.769231 0.384615 0.384615
v 1.923077 0.385385 0.384615
v 1.923077 0.385385 -0.384616
v 1.923077 0.384615 0.384615
v 1.923077 0.384615 -0.384616
vn -0.0000 -0.0000 1.0000
vn -0.0000 -0.0000 -1.0000
vn -0.0000 1.0000 -0.0000
vn -0.0000 -1.0000 -0.0000
vn -1.0000 -0.0000 -0.0000
vn 1.0000 -0.0000 -0.0000
vt 0.000000 1.000000
vt 0.187500 1.000000
vt 0.250000 0.437500
vt 0.250000 0.625000
vt 0.125000 0.437500
vt 0.125000 0.625000
vt 0.500000 0.875000
vt 0.500000 0.687500
vt 0.375000 0.875000
vt 0.375000 0.687500
vt 0.125000 1.000000
vt 0.500000 0.500000
vt 0.500000 0.375000
vt 0.562500 0.500000
vt 0.562500 0.375000
vt 0.000000 0.375000
vt 0.000000 0.250000
vt 0.062500 0.375000
vt 0.062500 0.250000
vt 0.750000 0.937500
vt 0.750000 1.000000
vt 0.625000 0.937500
vt 0.625000 1.000000
vt 0.250000 0.375000
vt 0.250000 0.312500
vt 0.125000 0.375000
vt 0.125000 0.312500
vt 0.375000 0.625000
vt 0.375000 0.500000
vt 0.500000 0.625000
vt 0.250000 0.500000
vt 0.500000 0.750000
vt 0.625000 0.875000
vt 0.625000 0.750000
vt 0.625000 0.625000
vt 0.375000 0.375000
vt 0.625000 0.500000
vt 0.500000 1.000000
vt 0.000000 0.875000
vt 0.187500 0.875000
vt 0.000000 0.750000
vt 0.187500 0.750000
vt 0.000000 0.812500
vt 0.000000 0.625000
vt 0.187500 0.625000
vt 0.250000 1.000000
vt 0.250000 0.875000
vt 0.437500 1.000000
vt 0.437500 0.875000
vt 0.250000 0.687500
vt 0.000000 0.437500
s 0
usemtl Material_0
f 1/1/1 3/1/1 2/2/1
f 3/1/1 4/2/1 2/2/1
f 5/1/2 7/1/2 6/2/2
f 7/1/2 8/2/2 6/2/2
f 9/3/3 11/4/3 10/5/3
f 11/4/3 12/6/3 10/5/3
f 13/7/4 15/8/4 14/9/4
f 15/8/4 16/10/4 14/9/4
f 17/1/5 19/1/5 18/11/5
f 19/1/5 20/11/5 18/11/5
f 21/1/6 23/1/6 22/11/6
f 23/1/6 24/11/6 22/11/6
f 25/12/1 27/13/1 26/14/1
f 27/13/1 28/15/1 26/14/1
f 29/16/2 31/17/2 30/18/2
f 31/17/2 32/19/2 30/18/2
f 33/20/3 35/21/3 34/22/3
f 35/21/3 36/23/3 34/22/3
f 37/24/4 39/25/4 38/26/4
f 39/25/4 40/27/4 38/26/4
f 41/28/5 43/29/5 42/30/5
f 43/29/5 44/12/5 42/30/5
f 45/4/6 47/31/6 46/28/6
f 47/31/6 48/29/6 46/28/6
f 49/7/1 51/32/1 50/33/1
f 51/32/1 52/34/1 50/33/1
f 53/32/2 55/30/2 54/34/2
f 55/30/2 56/35/2 54/34/2
f 57/13/3 59/12/3 58/36/3
f 59/12/3 60/29/3 58/36/3
f 61/35/4 63/37/4 62/30/4
f 63/37/4 64/12/4 62/30/4
f 65/31/5 67/24/5 66/29/5
f 67/24/5 68/36/5 66/29/5
f 69/38/6 71/7/6 70/23/6
f 71/7/6 72/33/6 70/23/6
f 73/1/1 75/39/1 74/2/1
f 75/39/1 76/40/1 74/2/1
f 77/39/2 79/41/2 78/40/2
f 79/41/2 80/42/2 78/40/2
f 81/43/3 83/1/3 82/43/3
f 83/1/3 84/1/3 82/43/3
f 85/1/4 87/43/4 86/1/4
f 87/43/4 88/43/4 86/1/4
f 89/1/5 91/39/5 90/1/5
f 91/39/5 92/39/5 90/1/5
f 93/1/6 95/39/6 94/1/6
f 95/39/6 96/39/6 94/1/6
f 97/41/1 99/44/1 98/42/1
f 99/44/1 100/45/1 98/42/1
f 101/46/2 103/47/2 102/48/2
f 103/47/2 104/49/2 102/48/2
f 105/43/3 107/1/3 106/43/3
f 107/1/3 108/1/3 106/43/3
f 109/1/4 111/43/4 110/1/4
f 111/43/4 112/43/4 110/1/4
f 113/1/5 115/39/5 114/1/5
f 115/39/5 116/39/5 114/1/5
f 117/1/6 119/39/6 118/1/6
f 119/39/6 120/39/6 118/1/6
f 121/1/1 123/1/1 122/2/1
f 123/1/1 124/2/1 122/2/1
f 125/1/2 127/1/2 126/2/2
f 127/1/2 128/2/2 126/2/2
f 129/10/3 131/9/3 130/50/3
f 131/9/3 132/47/3 130/50/3
f 133/6/4 135/5/4 134/44/4
f 135/5/4 136/51/4 134/44/4
f 137/1/5 139/1/5 138/11/5
f 139/1/5 140/11/5 138/11/5
f 141/1/6 143/1/6 142/11/6
f 143/1/6 144/11/6 142/11/6
