# Blender 4.5.4 LTS
# www.blender.org
mtllib lev.akstockl.mtl
o attachmentModel
v 0.576923 0.769231 0.769231
v 0.576923 0.769231 0.000000
v 0.576923 -0.769231 0.769231
v 0.576923 -0.769231 0.000000
v -0.576923 0.769231 0.000000
v -0.576923 0.769231 0.769231
v -0.576923 -0.769231 0.000000
v -0.576923 -0.769231 0.769231
v -0.576923 0.769231 0.000000
v 0.576923 0.769231 0.000000
v -0.576923 0.769231 0.769231
v 0.576923 0.769231 0.769231
v -0.576923 -0.769231 0.769231
v 0.576923 -0.769231 0.769231
v -0.576923 -0.769231 0.000000
v 0.576923 -0.769231 0.000000
v -0.576923 0.769231 0.769231
v 0.576923 0.769231 0.769231
v -0.576923 -0.769231 0.769231
v 0.576923 -0.769231 0.769231
v 0.576923 0.769231 0.000000
v -0.576923 0.769231 0.000000
v 0.576923 -0.769231 0.000000
v -0.576923 -0.769231 0.000000
v 0.384615 -1.892301 5.838626
v 0.384615 -0.643611 0.206150
v 0.384615 -1.893052 5.838460
v 0.384615 -0.644362 0.205983
v -0.384615 -0.643611 0.206150
v -0.384615 -1.892301 5.838626
v -0.384615 -0.644362 0.205983
v -0.384615 -1.893052 5.838460
v -0.384615 -0.643611 0.206150
v 0.384615 -0.643611 0.206150
v -0.384615 -1.892301 5.838626
v 0.384615 -1.892301 5.838626
v -0.384615 -1.893052 5.838460
v 0.384615 -1.893052 5.838460
v -0.384615 -0.644362 0.205983
v 0.384615 -0.644362 0.205983
v -0.384615 -1.892301 5.838626
v 0.384615 -1.892301 5.838626
v -0.384615 -1.893052 5.838460
v 0.384615 -1.893052 5.838460
v 0.384615 -0.643611 0.206150
v -0.384615 -0.643611 0.206150
v 0.384615 -0.644362 0.205983
v -0.384615 -0.644362 0.205983
v 0.385385 -1.142055 6.004952
v 0.385385 0.106635 0.372475
v 0.385385 -1.893052 5.838460
v 0.385385 -0.644362 0.205983
v 0.384615 0.106635 0.372475
v 0.384615 -1.142055 6.004952
v 0.384615 -0.644362 0.205983
v 0.384615 -1.893052 5.838460
v 0.384615 0.106635 0.372475
v 0.385385 0.106635 0.372475
v 0.384615 -1.142055 6.004952
v 0.385385 -1.142055 6.004952
v 0.384615 -1.893052 5.838460
v 0.385385 -1.893052 5.838460
v 0.384615 -0.644362 0.205983
v 0.385385 -0.644362 0.205983
v 0.384615 -1.142055 6.004952
v 0.385385 -1.142055 6.004952
v 0.384615 -1.893052 5.838460
v 0.385385 -1.893052 5.838460
v 0.385385 0.106635 0.372475
v 0.384615 0.106635 0.372475
v 0.385385 -0.644362 0.205983
v 0.384615 -0.644362 0.205983
v -0.383846 -1.142055 6.004952
v -0.383846 0.106635 0.372475
v -0.383846 -1.893052 5.838460
v -0.383846 -0.644362 0.205983
v -0.384615 0.106635 0.372475
v -0.384615 -1.142055 6.004952
v -0.384615 -0.644362 0.205983
v -0.384615 -1.893052 5.838460
v -0.384615 0.106635 0.372475
v -0.383846 0.106635 0.372475
v -0.384615 -1.142055 6.004952
v -0.383846 -1.142055 6.004952
v -0.384615 -1.893052 5.838460
v -0.383846 -1.893052 5.838460
v -0.384615 -0.644362 0.205983
v -0.383846 -0.644362 0.205983
v -0.384615 -1.142055 6.004952
v -0.383846 -1.142055 6.004952
v -0.384615 -1.893052 5.838460
v -0.383846 -1.893052 5.838460
v -0.383846 0.106635 0.372475
v -0.384615 0.106635 0.372475
v -0.383846 -0.644362 0.205983
v -0.384615 -0.644362 0.205983
v 0.385385 0.769231 5.769231
v 0.385385 0.769231 0.769231
v 0.385385 0.000000 5.769231
v 0.385385 0.000000 0.769231
v 0.384615 0.769231 0.769231
v 0.384615 0.769231 5.769231
v 0.384615 0.000000 0.769231
v 0.384615 0.000000 5.769231
v 0.384615 0.769231 0.769231
v 0.385385 0.769231 0.769231
v 0.384615 0.769231 5.769231
v 0.385385 0.769231 5.769231
v 0.384615 0.000000 5.769231
v 0.385385 0.000000 5.769231
v 0.384615 0.000000 0.769231
v 0.385385 0.000000 0.769231
v 0.384615 0.769231 5.769231
v 0.385385 0.769231 5.769231
v 0.384615 0.000000 5.769231
v 0.385385 0.000000 5.769231
v 0.385385 0.769231 0.769231
v 0.384615 0.769231 0.769231
v 0.385385 0.000000 0.769231
v 0.384615 0.000000 0.769231
v -0.383846 0.769231 5.769231
v -0.383846 0.769231 0.769231
v -0.383846 0.000000 5.769231
v -0.383846 0.000000 0.769231
v -0.384615 0.769231 0.769231
v -0.384615 0.769231 5.769231
v -0.384615 0.000000 0.769231
v -0.384615 0.000000 5.769231
v -0.384615 0.769231 0.769231
v -0.383846 0.769231 0.769231
v -0.384615 0.769231 5.769231
v -0.383846 0.769231 5.769231
v -0.384615 0.000000 5.769231
v -0.383846 0.000000 5.769231
v -0.384615 0.000000 0.769231
v -0.383846 0.000000 0.769231
v -0.384615 0.769231 5.769231
v -0.383846 0.769231 5.769231
v -0.384615 0.000000 5.769231
v -0.383846 0.000000 5.769231
v -0.383846 0.769231 0.769231
v -0.384615 0.769231 0.769231
v -0.383846 0.000000 0.769231
v -0.384615 0.000000 0.769231
v 0.384615 0.770000 5.769231
v 0.384615 0.770000 0.769231
v 0.384615 0.769231 5.769231
v 0.384615 0.769231 0.769231
v -0.384615 0.770000 0.769231
v -0.384615 0.770000 5.769231
v -0.384615 0.769231 0.769231
v -0.384615 0.769231 5.769231
v -0.384615 0.770000 0.769231
v 0.384615 0.770000 0.769231
v -0.384615 0.770000 5.769231
v 0.384615 0.770000 5.769231
v -0.384615 0.769231 5.769231
v 0.384615 0.769231 5.769231
v -0.384615 0.769231 0.769231
v 0.384615 0.769231 0.769231
v -0.384615 0.770000 5.769231
v 0.384615 0.770000 5.769231
v -0.384615 0.769231 5.769231
v 0.384615 0.769231 5.769231
v 0.384615 0.770000 0.769231
v -0.384615 0.770000 0.769231
v 0.384615 0.769231 0.769231
v -0.384615 0.769231 0.769231
v 0.576923 0.769231 6.538462
v 0.576923 0.769231 5.769231
v 0.576923 -1.923077 6.538462
v 0.576923 -1.923077 5.769231
v -0.576923 0.769231 5.769231
v -0.576923 0.769231 6.538462
v -0.576923 -1.923077 5.769231
v -0.576923 -1.923077 6.538462
v -0.576923 0.769231 5.769231
v 0.576923 0.769231 5.769231
v -0.576923 0.769231 6.538462
v 0.576923 0.769231 6.538462
v -0.576923 -1.923077 6.538462
v 0.576923 -1.923077 6.538462
v -0.576923 -1.923077 5.769231
v 0.576923 -1.923077 5.769231
v -0.576923 0.769231 6.538462
v 0.576923 0.769231 6.538462
v -0.576923 -1.923077 6.538462
v 0.576923 -1.923077 6.538462
v 0.576923 0.769231 5.769231
v -0.576923 0.769231 5.769231
v 0.576923 -1.923077 5.769231
v -0.576923 -1.923077 5.769231
vn 1.0000 -0.0000 -0.0000
vn -1.0000 -0.0000 -0.0000
vn -0.0000 1.0000 -0.0000
vn -0.0000 -1.0000 -0.0000
vn -0.0000 -0.0000 1.0000
vn -0.0000 -0.0000 -1.0000
vn -0.0000 0.9763 0.2164
vn -0.0000 -0.9763 -0.2164
vn -0.0000 -0.2160 0.9764
vn -0.0000 0.2165 -0.9763
vn -0.0000 0.2164 -0.9763
vn -0.0000 0.9763 0.2165
vn -0.0000 -0.9763 -0.2165
vn -0.0000 -0.2164 0.9763
vn -0.0000 -0.2165 0.9763
vt 0.437500 0.500000
vt 0.437500 0.375000
vt 0.500000 0.500000
vt 0.500000 0.375000
vt 0.562500 0.500000
vt 0.562500 0.375000
vt 0.656250 0.812500
vt 0.656250 0.875000
vt 0.562500 0.812500
vt 0.562500 0.875000
vt 0.656250 0.750000
vt 0.562500 0.750000
vt 0.312500 0.500000
vt 0.312500 0.375000
vt 0.406250 0.500000
vt 0.406250 0.375000
vt 0.500000 1.000000
vt 0.500000 0.875000
vt 0.593750 1.000000
vt 0.593750 0.875000
vt 0.000000 1.000000
vt 0.000000 0.937500
vt 0.468750 1.000000
vt 0.468750 0.937500
vt 0.000000 0.875000
vt 0.468750 0.875000
vt 0.125000 0.406250
vt 0.125000 0.875000
vt 0.062500 0.406250
vt 0.062500 0.875000
vt 0.562500 0.562500
vt 0.625000 0.562500
vt 0.625000 0.500000
vt 0.562500 0.625000
vt 0.625000 0.625000
vt 0.000000 0.406250
vt 0.125000 0.812500
vt 0.531250 0.875000
vt 0.531250 0.812500
vt 0.125000 0.750000
vt 0.531250 0.750000
vt 0.187500 0.343750
vt 0.187500 0.750000
vt 0.125000 0.343750
vt 0.250000 0.750000
vt 0.250000 0.343750
vt 0.562500 0.437500
vt 0.625000 0.437500
vt 0.625000 0.375000
vt 0.250000 0.500000
vt 0.250000 0.281250
vt 0.312500 0.281250
vt 0.500000 0.750000
vt 0.500000 0.531250
vt 0.562500 0.531250
vt 0.656250 0.687500
vt 0.562500 0.687500
vt 0.656250 0.625000
vt 0.375000 0.750000
vt 0.375000 0.531250
vt 0.468750 0.750000
vt 0.468750 0.531250
vt 0.250000 0.531250
vt 0.343750 0.750000
vt 0.343750 0.531250
s 0
usemtl Material_0
f 1/1/1 3/2/1 2/3/1
f 3/2/1 4/4/1 2/3/1
f 5/3/2 7/4/2 6/5/2
f 7/4/2 8/6/2 6/5/2
f 9/7/3 11/8/3 10/9/3
f 11/8/3 12/10/3 10/9/3
f 13/7/4 15/11/4 14/9/4
f 15/11/4 16/12/4 14/9/4
f 17/13/5 19/14/5 18/15/5
f 19/14/5 20/16/5 18/15/5
f 21/17/6 23/18/6 22/19/6
f 23/18/6 24/20/6 22/19/6
f 25/21/1 27/22/1 26/23/1
f 27/22/1 28/24/1 26/23/1
f 29/22/2 31/25/2 30/24/2
f 31/25/2 32/26/2 30/24/2
f 33/27/7 35/28/7 34/29/7
f 35/28/7 36/30/7 34/29/7
f 37/28/8 39/27/8 38/30/8
f 39/27/8 40/29/8 38/30/8
f 41/31/9 43/5/9 42/32/9
f 43/5/9 44/33/9 42/32/9
f 45/34/10 47/31/10 46/35/10
f 47/31/11 48/32/11 46/35/11
f 49/21/1 51/22/1 50/23/1
f 51/22/1 52/24/1 50/23/1
f 53/22/2 55/25/2 54/24/2
f 55/25/2 56/26/2 54/24/2
f 57/29/7 59/30/7 58/36/7
f 59/30/12 60/25/12 58/36/12
f 61/28/8 63/27/8 62/30/8
f 63/27/13 64/29/13 62/30/13
f 65/31/14 67/5/14 66/32/14
f 67/5/14 68/33/14 66/32/14
f 69/34/11 71/31/11 70/35/11
f 71/31/10 72/32/10 70/35/10
f 73/21/1 75/22/1 74/23/1
f 75/22/1 76/24/1 74/23/1
f 77/22/2 79/25/2 78/24/2
f 79/25/2 80/26/2 78/24/2
f 81/29/7 83/30/7 82/36/7
f 83/30/12 84/25/12 82/36/12
f 85/28/8 87/27/8 86/30/8
f 87/27/13 88/29/13 86/30/13
f 89/31/15 91/5/15 90/32/15
f 91/5/14 92/33/14 90/32/14
f 93/34/11 95/31/11 94/35/11
f 95/31/11 96/32/11 94/35/11
f 97/28/1 99/37/1 98/38/1
f 99/37/1 100/39/1 98/38/1
f 101/37/2 103/40/2 102/39/2
f 103/40/2 104/41/2 102/39/2
f 105/42/3 107/43/3 106/44/3
f 107/43/3 108/40/3 106/44/3
f 109/45/4 111/46/4 110/43/4
f 111/46/4 112/42/4 110/43/4
f 113/47/5 115/6/5 114/48/5
f 115/6/5 116/49/5 114/48/5
f 117/5/6 119/47/6 118/33/6
f 119/47/6 120/48/6 118/33/6
f 121/28/1 123/37/1 122/38/1
f 123/37/1 124/39/1 122/38/1
f 125/37/2 127/40/2 126/39/2
f 127/40/2 128/41/2 126/39/2
f 129/42/3 131/43/3 130/44/3
f 131/43/3 132/40/3 130/44/3
f 133/45/4 135/46/4 134/43/4
f 135/46/4 136/42/4 134/43/4
f 137/47/5 139/6/5 138/48/5
f 139/6/5 140/49/5 138/48/5
f 141/5/6 143/47/6 142/33/6
f 143/47/6 144/48/6 142/33/6
f 145/28/1 147/37/1 146/38/1
f 147/37/1 148/39/1 146/38/1
f 149/37/2 151/40/2 150/39/2
f 151/40/2 152/41/2 150/39/2
f 153/42/3 155/43/3 154/44/3
f 155/43/3 156/40/3 154/44/3
f 157/43/4 159/42/4 158/40/4
f 159/42/4 160/44/4 158/40/4
f 161/47/5 163/6/5 162/48/5
f 163/6/5 164/49/5 162/48/5
f 165/5/6 167/47/6 166/33/6
f 167/47/6 168/48/6 166/33/6
f 169/50/1 171/51/1 170/13/1
f 171/51/1 172/52/1 170/13/1
f 173/53/2 175/54/2 174/12/2
f 175/54/2 176/55/2 174/12/2
f 177/56/3 179/11/3 178/57/3
f 179/11/3 180/12/3 178/57/3
f 181/56/4 183/58/4 182/57/4
f 183/58/4 184/34/4 182/57/4
f 185/59/5 187/60/5 186/61/5
f 187/60/5 188/62/5 186/61/5
f 189/45/6 191/63/6 190/64/6
f 191/63/6 192/65/6 190/64/6
