# Blender 4.2.3 LTS
# www.blender.org
mtllib lev.elcan.mtl
o attachmentModel
v -0.961538 0.577692 0.769231
v 0.192308 0.577692 0.769231
v -0.961538 0.576923 0.769231
v 0.192308 0.576923 0.769231
v 0.192308 0.577692 -0.769231
v -0.961539 0.577692 -0.769231
v 0.192308 0.576923 -0.769231
v -0.961539 0.576923 -0.769231
v 0.192308 0.577692 -0.769231
v 0.192308 0.577692 0.769231
v -0.961539 0.577692 -0.769231
v -0.961538 0.577692 0.769231
v -0.961539 0.576923 -0.769231
v -0.961538 0.576923 0.769231
v 0.192308 0.576923 -0.769231
v 0.192308 0.576923 0.769231
v -0.961539 0.577692 -0.769231
v -0.961538 0.577692 0.769231
v -0.961539 0.576923 -0.769231
v -0.961538 0.576923 0.769231
v 0.192308 0.577692 0.769231
v 0.192308 0.577692 -0.769231
v 0.192308 0.576923 0.769231
v 0.192308 0.576923 -0.769231
v 0.384616 0.769231 0.769231
v 1.153846 0.769231 0.769230
v 0.384616 0.000000 0.769231
v 1.153846 0.000000 0.769230
v 1.153846 0.769231 -0.769231
v 0.384615 0.769231 -0.769231
v 1.153846 0.000000 -0.769231
v 0.384615 0.000000 -0.769231
v 1.153846 0.769231 -0.769231
v 1.153846 0.769231 0.769230
v 0.384615 0.769231 -0.769231
v 0.384616 0.769231 0.769231
v 0.384615 0.000000 -0.769231
v 0.384616 0.000000 0.769231
v 1.153846 0.000000 -0.769231
v 1.153846 0.000000 0.769230
v 0.384615 0.769231 -0.769231
v 0.384616 0.769231 0.769231
v 0.384615 0.000000 -0.769231
v 0.384616 0.000000 0.769231
v 1.153846 0.769231 0.769230
v 1.153846 0.769231 -0.769231
v 1.153846 0.000000 0.769230
v 1.153846 0.000000 -0.769231
v -2.307692 0.384615 0.576923
v 0.384615 0.384615 0.576923
v -2.307692 0.000000 0.576923
v 0.384615 0.000000 0.576923
v 0.384615 0.384615 -0.576923
v -2.307692 0.384615 -0.576923
v 0.384615 0.000000 -0.576923
v -2.307692 0.000000 -0.576923
v 0.384615 0.384615 -0.576923
v 0.384615 0.384615 0.576923
v -2.307692 0.384615 -0.576923
v -2.307692 0.384615 0.576923
v -2.307692 0.000000 -0.576923
v -2.307692 0.000000 0.576923
v 0.384615 0.000000 -0.576923
v 0.384615 0.000000 0.576923
v -2.307692 0.384615 -0.576923
v -2.307692 0.384615 0.576923
v -2.307692 0.000000 -0.576923
v -2.307692 0.000000 0.576923
v 0.384615 0.384615 0.576923
v 0.384615 0.384615 -0.576923
v 0.384615 0.000000 0.576923
v 0.384615 0.000000 -0.576923
v -3.461538 2.307692 0.769231
v 0.384616 2.307692 0.769231
v -3.461538 0.769231 0.769231
v 0.384616 0.769231 0.769231
v 0.384615 2.307692 -0.769231
v -3.461539 2.307692 -0.769230
v 0.384615 0.769231 -0.769231
v -3.461539 0.769231 -0.769230
v 0.384615 2.307692 -0.769231
v 0.384616 2.307692 0.769231
v -3.461539 2.307692 -0.769230
v -3.461538 2.307692 0.769231
v -3.461539 0.769231 -0.769230
v -3.461538 0.769231 0.769231
v 0.384615 0.769231 -0.769231
v 0.384616 0.769231 0.769231
v -3.461539 2.307692 -0.769230
v -3.461538 2.307692 0.769231
v -3.461539 0.769231 -0.769230
v -3.461538 0.769231 0.769231
v 0.384616 2.307692 0.769231
v 0.384615 2.307692 -0.769231
v 0.384616 0.769231 0.769231
v 0.384615 0.769231 -0.769231
v -2.500000 0.769231 0.769231
v -0.961538 0.769231 0.769231
v -2.500000 0.384615 0.769231
v -0.961538 0.384615 0.769231
v -0.961539 0.769231 -0.769231
v -2.500000 0.769231 -0.769230
v -0.961539 0.384615 -0.769231
v -2.500000 0.384615 -0.769230
v -0.961539 0.769231 -0.769231
v -0.961538 0.769231 0.769231
v -2.500000 0.769231 -0.769230
v -2.500000 0.769231 0.769231
v -2.500000 0.384615 -0.769230
v -2.500000 0.384615 0.769231
v -0.961539 0.384615 -0.769231
v -0.961538 0.384615 0.769231
v -2.500000 0.769231 -0.769230
v -2.500000 0.769231 0.769231
v -2.500000 0.384615 -0.769230
v -2.500000 0.384615 0.769231
v -0.961538 0.769231 0.769231
v -0.961539 0.769231 -0.769231
v -0.961538 0.384615 0.769231
v -0.961539 0.384615 -0.769231
v 0.384616 2.307692 0.770000
v 0.769231 2.307692 0.770000
v 0.384616 0.769231 0.770000
v 0.769231 0.769231 0.770000
v 0.769231 2.307692 0.769231
v 0.384616 2.307692 0.769231
v 0.769231 0.769231 0.769231
v 0.384616 0.769231 0.769231
v 0.769231 2.307692 0.769231
v 0.769231 2.307692 0.770000
v 0.384616 2.307692 0.769231
v 0.384616 2.307692 0.770000
v 0.384616 0.769231 0.769231
v 0.384616 0.769231 0.770000
v 0.769231 0.769231 0.769231
v 0.769231 0.769231 0.770000
v 0.384616 2.307692 0.769231
v 0.384616 2.307692 0.770000
v 0.384616 0.769231 0.769231
v 0.384616 0.769231 0.770000
v 0.769231 2.307692 0.770000
v 0.769231 2.307692 0.769231
v 0.769231 0.769231 0.770000
v 0.769231 0.769231 0.769231
v 0.384615 2.307692 -0.768462
v 0.769231 2.307692 -0.768462
v 0.384615 0.769231 -0.768462
v 0.769231 0.769231 -0.768462
v 0.769231 2.307692 -0.769231
v 0.384615 2.307692 -0.769231
v 0.769231 0.769231 -0.769231
v 0.384615 0.769231 -0.769231
v 0.769231 2.307692 -0.769231
v 0.769231 2.307692 -0.768462
v 0.384615 2.307692 -0.769231
v 0.384615 2.307692 -0.768462
v 0.384615 0.769231 -0.769231
v 0.384615 0.769231 -0.768462
v 0.769231 0.769231 -0.769231
v 0.769231 0.769231 -0.768462
v 0.384615 2.307692 -0.769231
v 0.384615 2.307692 -0.768462
v 0.384615 0.769231 -0.769231
v 0.384615 0.769231 -0.768462
v 0.769231 2.307692 -0.768462
v 0.769231 2.307692 -0.769231
v 0.769231 0.769231 -0.768462
v 0.769231 0.769231 -0.769231
v 0.384616 2.308461 0.769231
v 0.769231 2.308461 0.769231
v 0.384616 2.307692 0.769231
v 0.769231 2.307692 0.769231
v 0.769231 2.308461 -0.769231
v 0.384615 2.308461 -0.769231
v 0.769231 2.307692 -0.769231
v 0.384615 2.307692 -0.769231
v 0.769231 2.308461 -0.769231
v 0.769231 2.308461 0.769231
v 0.384615 2.308461 -0.769231
v 0.384616 2.308461 0.769231
v 0.384615 2.307692 -0.769231
v 0.384616 2.307692 0.769231
v 0.769231 2.307692 -0.769231
v 0.769231 2.307692 0.769231
v 0.384615 2.308461 -0.769231
v 0.384616 2.308461 0.769231
v 0.384615 2.307692 -0.769231
v 0.384616 2.307692 0.769231
v 0.769231 2.308461 0.769231
v 0.769231 2.308461 -0.769231
v 0.769231 2.307692 0.769231
v 0.769231 2.307692 -0.769231
v -3.654615 2.115385 0.576924
v -3.653846 2.115385 0.576924
v -3.654615 0.961538 0.576924
v -3.653846 0.961538 0.576924
v -3.653846 2.115385 -0.576922
v -3.654615 2.115385 -0.576922
v -3.653846 0.961538 -0.576922
v -3.654615 0.961538 -0.576922
v -3.653846 2.115385 -0.576922
v -3.653846 2.115385 0.576924
v -3.654615 2.115385 -0.576922
v -3.654615 2.115385 0.576924
v -3.654615 0.961538 -0.576922
v -3.654615 0.961538 0.576924
v -3.653846 0.961538 -0.576922
v -3.653846 0.961538 0.576924
v -3.654615 2.115385 -0.576922
v -3.654615 2.115385 0.576924
v -3.654615 0.961538 -0.576922
v -3.654615 0.961538 0.576924
v -3.653846 2.115385 0.576924
v -3.653846 2.115385 -0.576922
v -3.653846 0.961538 0.576924
v -3.653846 0.961538 -0.576922
v -3.846153 2.308461 0.769231
v -3.461538 2.308461 0.769231
v -3.846153 2.307692 0.769231
v -3.461538 2.307692 0.769231
v -3.461539 2.308461 -0.769230
v -3.846154 2.308461 -0.769230
v -3.461539 2.307692 -0.769230
v -3.846154 2.307692 -0.769230
v -3.461539 2.308461 -0.769230
v -3.461538 2.308461 0.769231
v -3.846154 2.308461 -0.769230
v -3.846153 2.308461 0.769231
v -3.846154 2.307692 -0.769230
v -3.846153 2.307692 0.769231
v -3.461539 2.307692 -0.769230
v -3.461538 2.307692 0.769231
v -3.846154 2.308461 -0.769230
v -3.846153 2.308461 0.769231
v -3.846154 2.307692 -0.769230
v -3.846153 2.307692 0.769231
v -3.461538 2.308461 0.769231
v -3.461539 2.308461 -0.769230
v -3.461538 2.307692 0.769231
v -3.461539 2.307692 -0.769230
v -3.846153 0.770000 0.769231
v -3.461538 0.770000 0.769231
v -3.846153 0.769231 0.769231
v -3.461538 0.769231 0.769231
v -3.461539 0.770000 -0.769230
v -3.846154 0.770000 -0.769230
v -3.461539 0.769231 -0.769230
v -3.846154 0.769231 -0.769230
v -3.461539 0.770000 -0.769230
v -3.461538 0.770000 0.769231
v -3.846154 0.770000 -0.769230
v -3.846153 0.770000 0.769231
v -3.846154 0.769231 -0.769230
v -3.846153 0.769231 0.769231
v -3.461539 0.769231 -0.769230
v -3.461538 0.769231 0.769231
v -3.846154 0.770000 -0.769230
v -3.846153 0.770000 0.769231
v -3.846154 0.769231 -0.769230
v -3.846153 0.769231 0.769231
v -3.461538 0.770000 0.769231
v -3.461539 0.770000 -0.769230
v -3.461538 0.769231 0.769231
v -3.461539 0.769231 -0.769230
v -3.846154 2.307692 -0.768461
v -3.461539 2.307692 -0.768461
v -3.846154 0.769231 -0.768461
v -3.461539 0.769231 -0.768461
v -3.461539 2.307692 -0.769230
v -3.846154 2.307692 -0.769230
v -3.461539 0.769231 -0.769230
v -3.846154 0.769231 -0.769230
v -3.461539 2.307692 -0.769230
v -3.461539 2.307692 -0.768461
v -3.846154 2.307692 -0.769230
v -3.846154 2.307692 -0.768461
v -3.846154 0.769231 -0.769230
v -3.846154 0.769231 -0.768461
v -3.461539 0.769231 -0.769230
v -3.461539 0.769231 -0.768461
v -3.846154 2.307692 -0.769230
v -3.846154 2.307692 -0.768461
v -3.846154 0.769231 -0.769230
v -3.846154 0.769231 -0.768461
v -3.461539 2.307692 -0.768461
v -3.461539 2.307692 -0.769230
v -3.461539 0.769231 -0.768461
v -3.461539 0.769231 -0.769230
v -3.846153 2.307692 0.770001
v -3.461538 2.307692 0.770001
v -3.846153 0.769231 0.770001
v -3.461538 0.769231 0.770001
v -3.461538 2.307692 0.769231
v -3.846153 2.307692 0.769231
v -3.461538 0.769231 0.769231
v -3.846153 0.769231 0.769231
v -3.461538 2.307692 0.769231
v -3.461538 2.307692 0.770001
v -3.846153 2.307692 0.769231
v -3.846153 2.307692 0.770001
v -3.846153 0.769231 0.769231
v -3.846153 0.769231 0.770001
v -3.461538 0.769231 0.769231
v -3.461538 0.769231 0.770001
v -3.846153 2.307692 0.769231
v -3.846153 2.307692 0.770001
v -3.846153 0.769231 0.769231
v -3.846153 0.769231 0.770001
v -3.461538 2.307692 0.770001
v -3.461538 2.307692 0.769231
v -3.461538 0.769231 0.770001
v -3.461538 0.769231 0.769231
v -3.846153 2.115385 0.577693
v -3.653846 2.115385 0.577693
v -3.846153 0.961538 0.577693
v -3.653846 0.961538 0.577693
v -3.653846 2.115385 0.576924
v -3.846153 2.115385 0.576924
v -3.653846 0.961538 0.576924
v -3.846153 0.961538 0.576924
v -3.653846 2.115385 0.576924
v -3.653846 2.115385 0.577693
v -3.846153 2.115385 0.576924
v -3.846153 2.115385 0.577693
v -3.846153 0.961538 0.576924
v -3.846153 0.961538 0.577693
v -3.653846 0.961538 0.576924
v -3.653846 0.961538 0.577693
v -3.846153 2.115385 0.576924
v -3.846153 2.115385 0.577693
v -3.846153 0.961538 0.576924
v -3.846153 0.961538 0.577693
v -3.653846 2.115385 0.577693
v -3.653846 2.115385 0.576924
v -3.653846 0.961538 0.577693
v -3.653846 0.961538 0.576924
v -3.846153 2.115385 -0.576153
v -3.653846 2.115385 -0.576153
v -3.846153 0.961538 -0.576153
v -3.653846 0.961538 -0.576153
v -3.653846 2.115385 -0.576922
v -3.846153 2.115385 -0.576922
v -3.653846 0.961538 -0.576922
v -3.846153 0.961538 -0.576922
v -3.653846 2.115385 -0.576922
v -3.653846 2.115385 -0.576153
v -3.846153 2.115385 -0.576922
v -3.846153 2.115385 -0.576153
v -3.846153 0.961538 -0.576922
v -3.846153 0.961538 -0.576153
v -3.653846 0.961538 -0.576922
v -3.653846 0.961538 -0.576153
v -3.846153 2.115385 -0.576922
v -3.846153 2.115385 -0.576153
v -3.846153 0.961538 -0.576922
v -3.846153 0.961538 -0.576153
v -3.653846 2.115385 -0.576153
v -3.653846 2.115385 -0.576922
v -3.653846 0.961538 -0.576153
v -3.653846 0.961538 -0.576922
v -3.846153 2.116154 0.576924
v -3.653846 2.116154 0.576924
v -3.846153 2.115385 0.576924
v -3.653846 2.115385 0.576924
v -3.653846 2.116154 -0.576922
v -3.846153 2.116154 -0.576922
v -3.653846 2.115385 -0.576922
v -3.846153 2.115385 -0.576922
v -3.653846 2.116154 -0.576922
v -3.653846 2.116154 0.576924
v -3.846153 2.116154 -0.576922
v -3.846153 2.116154 0.576924
v -3.846153 2.115385 -0.576922
v -3.846153 2.115385 0.576924
v -3.653846 2.115385 -0.576922
v -3.653846 2.115385 0.576924
v -3.846153 2.116154 -0.576922
v -3.846153 2.116154 0.576924
v -3.846153 2.115385 -0.576922
v -3.846153 2.115385 0.576924
v -3.653846 2.116154 0.576924
v -3.653846 2.116154 -0.576922
v -3.653846 2.115385 0.576924
v -3.653846 2.115385 -0.576922
v -3.846153 0.962308 0.576924
v -3.653846 0.962308 0.576924
v -3.846153 0.961538 0.576924
v -3.653846 0.961538 0.576924
v -3.653846 0.962308 -0.576922
v -3.846153 0.962308 -0.576922
v -3.653846 0.961538 -0.576922
v -3.846153 0.961538 -0.576922
v -3.653846 0.962308 -0.576922
v -3.653846 0.962308 0.576924
v -3.846153 0.962308 -0.576922
v -3.846153 0.962308 0.576924
v -3.846153 0.961538 -0.576922
v -3.846153 0.961538 0.576924
v -3.653846 0.961538 -0.576922
v -3.653846 0.961538 0.576924
v -3.846153 0.962308 -0.576922
v -3.846153 0.962308 0.576924
v -3.846153 0.961538 -0.576922
v -3.846153 0.961538 0.576924
v -3.653846 0.962308 0.576924
v -3.653846 0.962308 -0.576922
v -3.653846 0.961538 0.576924
v -3.653846 0.961538 -0.576922
v -3.846923 2.307692 0.769231
v -3.846153 2.307692 0.769231
v -3.846923 0.769231 0.769231
v -3.846153 0.769231 0.769231
v -3.846153 2.307692 0.576924
v -3.846923 2.307692 0.576924
v -3.846153 0.769231 0.576924
v -3.846923 0.769231 0.576924
v -3.846153 2.307692 0.576924
v -3.846153 2.307692 0.769231
v -3.846923 2.307692 0.576924
v -3.846923 2.307692 0.769231
v -3.846923 0.769231 0.576924
v -3.846923 0.769231 0.769231
v -3.846153 0.769231 0.576924
v -3.846153 0.769231 0.769231
v -3.846923 2.307692 0.576924
v -3.846923 2.307692 0.769231
v -3.846923 0.769231 0.576924
v -3.846923 0.769231 0.769231
v -3.846153 2.307692 0.769231
v -3.846153 2.307692 0.576924
v -3.846153 0.769231 0.769231
v -3.846153 0.769231 0.576924
v -3.846923 2.307692 -0.576922
v -3.846153 2.307692 -0.576922
v -3.846923 0.769231 -0.576922
v -3.846153 0.769231 -0.576922
v -3.846154 2.307692 -0.769230
v -3.846923 2.307692 -0.769230
v -3.846154 0.769231 -0.769230
v -3.846923 0.769231 -0.769230
v -3.846154 2.307692 -0.769230
v -3.846153 2.307692 -0.576922
v -3.846923 2.307692 -0.769230
v -3.846923 2.307692 -0.576922
v -3.846923 0.769231 -0.769230
v -3.846923 0.769231 -0.576922
v -3.846154 0.769231 -0.769230
v -3.846153 0.769231 -0.576922
v -3.846923 2.307692 -0.769230
v -3.846923 2.307692 -0.576922
v -3.846923 0.769231 -0.769230
v -3.846923 0.769231 -0.576922
v -3.846153 2.307692 -0.576922
v -3.846154 2.307692 -0.769230
v -3.846153 0.769231 -0.576922
v -3.846154 0.769231 -0.769230
v -3.846923 2.307692 0.576924
v -3.846153 2.307692 0.576924
v -3.846923 2.115385 0.576924
v -3.846153 2.115385 0.576924
v -3.846153 2.307692 -0.576922
v -3.846923 2.307692 -0.576922
v -3.846153 2.115385 -0.576922
v -3.846923 2.115385 -0.576922
v -3.846153 2.307692 -0.576922
v -3.846153 2.307692 0.576924
v -3.846923 2.307692 -0.576922
v -3.846923 2.307692 0.576924
v -3.846923 2.115385 -0.576922
v -3.846923 2.115385 0.576924
v -3.846153 2.115385 -0.576922
v -3.846153 2.115385 0.576924
v -3.846923 2.307692 -0.576922
v -3.846923 2.307692 0.576924
v -3.846923 2.115385 -0.576922
v -3.846923 2.115385 0.576924
v -3.846153 2.307692 0.576924
v -3.846153 2.307692 -0.576922
v -3.846153 2.115385 0.576924
v -3.846153 2.115385 -0.576922
v -3.846923 0.961538 0.576924
v -3.846153 0.961538 0.576924
v -3.846923 0.769231 0.576924
v -3.846153 0.769231 0.576924
v -3.846153 0.961538 -0.576922
v -3.846923 0.961538 -0.576922
v -3.846153 0.769231 -0.576922
v -3.846923 0.769231 -0.576922
v -3.846153 0.961538 -0.576922
v -3.846153 0.961538 0.576924
v -3.846923 0.961538 -0.576922
v -3.846923 0.961538 0.576924
v -3.846923 0.769231 -0.576922
v -3.846923 0.769231 0.576924
v -3.846153 0.769231 -0.576922
v -3.846153 0.769231 0.576924
v -3.846923 0.961538 -0.576922
v -3.846923 0.961538 0.576924
v -3.846923 0.769231 -0.576922
v -3.846923 0.769231 0.576924
v -3.846153 0.961538 0.576924
v -3.846153 0.961538 -0.576922
v -3.846153 0.769231 0.576924
v -3.846153 0.769231 -0.576922
v -2.884615 1.923077 -0.769230
v -2.115385 1.923077 -0.769230
v -2.884615 1.153846 -0.769230
v -2.115385 1.153846 -0.769230
v -2.115385 1.923077 -1.153846
v -2.884615 1.923077 -1.153845
v -2.115385 1.153846 -1.153846
v -2.884615 1.153846 -1.153845
v -2.115385 1.923077 -1.153846
v -2.115385 1.923077 -0.769230
v -2.884615 1.923077 -1.153845
v -2.884615 1.923077 -0.769230
v -2.884615 1.153846 -1.153845
v -2.884615 1.153846 -0.769230
v -2.115385 1.153846 -1.153846
v -2.115385 1.153846 -0.769230
v -2.884615 1.923077 -1.153845
v -2.884615 1.923077 -0.769230
v -2.884615 1.153846 -1.153845
v -2.884615 1.153846 -0.769230
v -2.115385 1.923077 -0.769230
v -2.115385 1.923077 -1.153846
v -2.115385 1.153846 -0.769230
v -2.115385 1.153846 -1.153846
v -3.077692 2.884615 0.192308
v -3.076923 2.884615 0.192308
v -3.077692 2.807692 0.192308
v -3.076923 2.807692 0.192308
v -3.076923 2.884615 -0.192307
v -3.077692 2.884615 -0.192307
v -3.076923 2.807692 -0.192307
v -3.077692 2.807692 -0.192307
v -3.076923 2.884615 -0.192307
v -3.076923 2.884615 0.192308
v -3.077692 2.884615 -0.192307
v -3.077692 2.884615 0.192308
v -3.077692 2.807692 -0.192307
v -3.077692 2.807692 0.192308
v -3.076923 2.807692 -0.192307
v -3.076923 2.807692 0.192308
v -3.077692 2.884615 -0.192307
v -3.077692 2.884615 0.192308
v -3.077692 2.807692 -0.192307
v -3.077692 2.807692 0.192308
v -3.076923 2.884615 0.192308
v -3.076923 2.884615 -0.192307
v -3.076923 2.807692 0.192308
v -3.076923 2.807692 -0.192307
v 0.000000 2.884615 0.000769
v 0.384615 2.884615 0.000769
v 0.000000 2.500000 0.000769
v 0.384615 2.500000 0.000769
v 0.384615 2.884615 -0.000000
v 0.000000 2.884615 0.000000
v 0.384615 2.500000 -0.000000
v 0.000000 2.500000 0.000000
v 0.384615 2.884615 -0.000000
v 0.384615 2.884615 0.000769
v 0.000000 2.884615 0.000000
v 0.000000 2.884615 0.000769
v 0.000000 2.500000 0.000000
v 0.000000 2.500000 0.000769
v 0.384615 2.500000 -0.000000
v 0.384615 2.500000 0.000769
v 0.000000 2.884615 0.000000
v 0.000000 2.884615 0.000769
v 0.000000 2.500000 0.000000
v 0.000000 2.500000 0.000769
v 0.384615 2.884615 0.000769
v 0.384615 2.884615 -0.000000
v 0.384615 2.500000 0.000769
v 0.384615 2.500000 -0.000000
v -3.269231 2.500000 0.576924
v -2.884615 2.500000 0.576924
v -3.269231 2.307692 0.576924
v -2.884615 2.307692 0.576924
v -2.884615 2.500000 -0.576922
v -3.269231 2.500000 -0.576922
v -2.884615 2.307692 -0.576922
v -3.269231 2.307692 -0.576922
v -2.884615 2.500000 -0.576922
v -2.884615 2.500000 0.576924
v -3.269231 2.500000 -0.576922
v -3.269231 2.500000 0.576924
v -3.269231 2.307692 -0.576922
v -3.269231 2.307692 0.576924
v -2.884615 2.307692 -0.576922
v -2.884615 2.307692 0.576924
v -3.269231 2.500000 -0.576922
v -3.269231 2.500000 0.576924
v -3.269231 2.307692 -0.576922
v -3.269231 2.307692 0.576924
v -2.884615 2.500000 0.576924
v -2.884615 2.500000 -0.576922
v -2.884615 2.307692 0.576924
v -2.884615 2.307692 -0.576922
v 0.000000 2.500000 0.576923
v 0.384615 2.500000 0.576923
v 0.000000 2.307692 0.576923
v 0.384615 2.307692 0.576923
v 0.384615 2.500000 -0.576923
v -0.000000 2.500000 -0.576923
v 0.384615 2.307692 -0.576923
v -0.000000 2.307692 -0.576923
v 0.384615 2.500000 -0.576923
v 0.384615 2.500000 0.576923
v -0.000000 2.500000 -0.576923
v 0.000000 2.500000 0.576923
v -0.000000 2.307692 -0.576923
v 0.000000 2.307692 0.576923
v 0.384615 2.307692 -0.576923
v 0.384615 2.307692 0.576923
v -0.000000 2.500000 -0.576923
v 0.000000 2.500000 0.576923
v -0.000000 2.307692 -0.576923
v 0.000000 2.307692 0.576923
v 0.384615 2.500000 0.576923
v 0.384615 2.500000 -0.576923
v 0.384615 2.307692 0.576923
v 0.384615 2.307692 -0.576923
v -3.077692 2.576923 0.192308
v -3.076923 2.576923 0.192308
v -3.077692 2.500000 0.192308
v -3.076923 2.500000 0.192308
v -3.076923 2.576923 -0.192307
v -3.077692 2.576923 -0.192307
v -3.076923 2.500000 -0.192307
v -3.077692 2.500000 -0.192307
v -3.076923 2.576923 -0.192307
v -3.076923 2.576923 0.192308
v -3.077692 2.576923 -0.192307
v -3.077692 2.576923 0.192308
v -3.077692 2.500000 -0.192307
v -3.077692 2.500000 0.192308
v -3.076923 2.500000 -0.192307
v -3.076923 2.500000 0.192308
v -3.077692 2.576923 -0.192307
v -3.077692 2.576923 0.192308
v -3.077692 2.500000 -0.192307
v -3.077692 2.500000 0.192308
v -3.076923 2.576923 0.192308
v -3.076923 2.576923 -0.192307
v -3.076923 2.500000 0.192308
v -3.076923 2.500000 -0.192307
v -3.077692 2.807692 -0.115384
v -3.076923 2.807692 -0.115384
v -3.077692 2.576923 -0.115384
v -3.076923 2.576923 -0.115384
v -3.076923 2.807692 -0.192307
v -3.077692 2.807692 -0.192307
v -3.076923 2.576923 -0.192307
v -3.077692 2.576923 -0.192307
v -3.076923 2.807692 -0.192307
v -3.076923 2.807692 -0.115384
v -3.077692 2.807692 -0.192307
v -3.077692 2.807692 -0.115384
v -3.077692 2.576923 -0.192307
v -3.077692 2.576923 -0.115384
v -3.076923 2.576923 -0.192307
v -3.076923 2.576923 -0.115384
v -3.077692 2.807692 -0.192307
v -3.077692 2.807692 -0.115384
v -3.077692 2.576923 -0.192307
v -3.077692 2.576923 -0.115384
v -3.076923 2.807692 -0.115384
v -3.076923 2.807692 -0.192307
v -3.076923 2.576923 -0.115384
v -3.076923 2.576923 -0.192307
v -3.077692 2.807692 0.192308
v -3.076923 2.807692 0.192308
v -3.077692 2.576923 0.192308
v -3.076923 2.576923 0.192308
v -3.076923 2.807692 0.115385
v -3.077692 2.807692 0.115385
v -3.076923 2.576923 0.115385
v -3.077692 2.576923 0.115385
v -3.076923 2.807692 0.115385
v -3.076923 2.807692 0.192308
v -3.077692 2.807692 0.115385
v -3.077692 2.807692 0.192308
v -3.077692 2.576923 0.115385
v -3.077692 2.576923 0.192308
v -3.076923 2.576923 0.115385
v -3.076923 2.576923 0.192308
v -3.077692 2.807692 0.115385
v -3.077692 2.807692 0.192308
v -3.077692 2.576923 0.115385
v -3.077692 2.576923 0.192308
v -3.076923 2.807692 0.192308
v -3.076923 2.807692 0.115385
v -3.076923 2.576923 0.192308
v -3.076923 2.576923 0.115385
v 0.192308 2.115385 0.576923
v 0.961538 2.115385 0.576923
v 0.192308 0.961538 0.576923
v 0.961538 0.961538 0.576923
v 0.961538 2.115385 -0.576923
v 0.192308 2.115385 -0.576923
v 0.961538 0.961538 -0.576923
v 0.192308 0.961538 -0.576923
v 0.961538 2.115385 -0.576923
v 0.961538 2.115385 0.576923
v 0.192308 2.115385 -0.576923
v 0.192308 2.115385 0.576923
v 0.192308 0.961538 -0.576923
v 0.192308 0.961538 0.576923
v 0.961538 0.961538 -0.576923
v 0.961538 0.961538 0.576923
v 0.192308 2.115385 -0.576923
v 0.192308 2.115385 0.576923
v 0.192308 0.961538 -0.576923
v 0.192308 0.961538 0.576923
v 0.961538 2.115385 0.576923
v 0.961538 2.115385 -0.576923
v 0.961538 0.961538 0.576923
v 0.961538 0.961538 -0.576923
vn -0.0000 -0.0000 1.0000
vn -0.0000 -0.0000 -1.0000
vn -0.0000 1.0000 -0.0000
vn -0.0000 -1.0000 -0.0000
vn -1.0000 -0.0000 -0.0000
vn 1.0000 -0.0000 -0.0000
vt 0.000000 1.000000
vt 0.093750 1.000000
vt 0.250000 0.406250
vt 0.250000 0.500000
vt 0.375000 0.406250
vt 0.375000 0.500000
vt 0.500000 0.750000
vt 0.500000 0.656250
vt 0.625000 0.750000
vt 0.625000 0.656250
vt 0.125000 1.000000
vt 0.687500 0.937500
vt 0.687500 0.875000
vt 0.750000 0.937500
vt 0.750000 0.875000
vt 0.687500 0.812500
vt 0.750000 0.812500
vt 0.500000 0.312500
vt 0.500000 0.375000
vt 0.375000 0.312500
vt 0.375000 0.375000
vt 0.750000 0.625000
vt 0.750000 0.562500
vt 0.625000 0.625000
vt 0.625000 0.562500
vt 0.625000 0.687500
vt 0.750000 0.687500
vt 0.750000 0.750000
vt 0.625000 0.531250
vt 0.843750 0.562500
vt 0.843750 0.531250
vt 0.500000 0.343750
vt 0.718750 0.375000
vt 0.718750 0.343750
vt 0.343750 0.531250
vt 0.343750 0.750000
vt 0.250000 0.531250
vt 0.250000 0.750000
vt 0.406250 1.000000
vt 0.406250 0.781250
vt 0.312500 1.000000
vt 0.312500 0.781250
vt 0.812500 0.812500
vt 0.812500 0.781250
vt 0.906250 0.812500
vt 0.906250 0.781250
vt 0.187500 0.187500
vt 0.187500 0.156250
vt 0.281250 0.187500
vt 0.281250 0.156250
vt 0.000000 0.875000
vt 0.312500 0.875000
vt 0.000000 0.750000
vt 0.312500 0.750000
vt 0.125000 0.437500
vt 0.125000 0.750000
vt 0.000000 0.437500
vt 0.250000 0.437500
vt 0.375000 0.625000
vt 0.500000 0.625000
vt 0.500000 0.500000
vt 0.375000 0.750000
vt 0.375000 0.281250
vt 0.500000 0.281250
vt 0.687500 0.500000
vt 0.687500 0.468750
vt 0.812500 0.500000
vt 0.812500 0.468750
vt 0.562500 0.875000
vt 0.562500 1.000000
vt 0.437500 0.875000
vt 0.437500 1.000000
vt 0.562500 0.750000
vt 0.437500 0.750000
vt 0.625000 0.312500
vt 0.625000 0.281250
vt 0.687500 0.781250
vt 0.187500 0.312500
vt 0.218750 0.312500
vt 0.218750 0.187500
vt 0.625000 0.187500
vt 0.656250 0.312500
vt 0.656250 0.187500
vt 0.000000 0.968750
vt 0.687500 0.312500
vt 0.687500 0.187500
vt 0.718750 0.312500
vt 0.718750 0.187500
vt 0.062500 0.250000
vt 0.062500 0.125000
vt 0.093750 0.250000
vt 0.093750 0.125000
vt 0.031250 1.000000
vt 0.812500 0.406250
vt 0.812500 0.437500
vt 0.687500 0.406250
vt 0.687500 0.437500
vt 0.875000 0.937500
vt 0.875000 0.906250
vt 0.750000 0.906250
vt 0.000000 0.906250
vt 0.500000 0.531250
vt 0.593750 0.625000
vt 0.593750 0.531250
vt 0.468750 0.500000
vt 0.468750 0.406250
vt 0.875000 0.843750
vt 0.875000 0.875000
vt 0.750000 0.843750
vt 0.375000 0.250000
vt 0.375000 0.218750
vt 0.250000 0.250000
vt 0.250000 0.218750
vt 0.875000 0.718750
vt 0.875000 0.750000
vt 0.750000 0.718750
vt 0.875000 0.687500
vt 0.875000 0.656250
vt 0.750000 0.656250
vt 0.125000 0.250000
vt 0.125000 0.125000
vt 0.156250 0.250000
vt 0.156250 0.125000
vt 0.375000 0.125000
vt 0.406250 0.250000
vt 0.406250 0.125000
vt 0.437500 0.250000
vt 0.437500 0.125000
vt 0.468750 0.250000
vt 0.468750 0.125000
vt 0.500000 0.250000
vt 0.500000 0.125000
vt 0.531250 0.250000
vt 0.531250 0.125000
vt 0.312500 0.187500
vt 0.312500 0.093750
vt 0.343750 0.187500
vt 0.343750 0.093750
vt 0.843750 0.500000
vt 0.843750 0.406250
vt 0.625000 0.093750
vt 0.656250 0.093750
vt 0.812500 0.375000
vt 0.812500 0.281250
vt 0.843750 0.375000
vt 0.843750 0.281250
vt 0.906250 0.593750
vt 0.906250 0.625000
vt 0.812500 0.593750
vt 0.812500 0.625000
vt 0.906250 0.250000
vt 0.906250 0.218750
vt 0.812500 0.250000
vt 0.812500 0.218750
vt 0.906250 0.156250
vt 0.906250 0.187500
vt 0.812500 0.156250
vt 0.812500 0.187500
vt 0.968750 1.000000
vt 0.968750 0.968750
vt 0.875000 1.000000
vt 0.875000 0.968750
vt 0.750000 0.375000
vt 0.750000 0.250000
vt 0.781250 0.375000
vt 0.781250 0.250000
vt 0.562500 0.250000
vt 0.562500 0.125000
vt 0.593750 0.250000
vt 0.593750 0.125000
vt 0.000000 0.187500
vt 0.000000 0.062500
vt 0.031250 0.187500
vt 0.031250 0.062500
vt 0.750000 0.125000
vt 0.781250 0.125000
vt 0.968750 0.937500
vt 0.968750 0.906250
vt 0.062500 0.093750
vt 0.156250 0.093750
vt 0.187500 0.125000
vt 0.187500 0.093750
vt 0.281250 0.125000
vt 0.281250 0.093750
vt 0.968750 0.875000
vt 0.968750 0.843750
vt 0.812500 0.562500
vt 0.812500 1.000000
vt 0.812500 0.937500
vt 0.906250 0.312500
vt 0.875000 0.250000
vt 0.875000 0.312500
vt 0.781250 0.062500
vt 0.750000 0.062500
vt 0.687500 0.125000
vt 0.687500 0.062500
vt 0.718750 0.125000
vt 0.718750 0.062500
vt 0.875000 0.125000
vt 0.875000 0.093750
vt 0.906250 0.125000
vt 0.906250 0.093750
vt 0.812500 0.125000
vt 0.812500 0.093750
vt 0.843750 0.125000
vt 0.843750 0.093750
vt 0.000000 0.031250
vt 0.031250 0.031250
vt 0.062500 0.062500
vt 0.062500 0.031250
vt 0.093750 0.062500
vt 0.093750 0.031250
vt 0.125000 0.062500
vt 0.125000 0.031250
vt 0.156250 0.062500
vt 0.156250 0.031250
vt 0.187500 0.062500
vt 0.187500 0.031250
vt 0.218750 0.062500
vt 0.218750 0.031250
vt 0.468750 0.093750
vt 0.375000 0.093750
vt 0.968750 0.562500
vt 0.968750 0.531250
vt 0.875000 0.562500
vt 0.875000 0.531250
vt 0.968750 0.687500
vt 0.968750 0.656250
vt 0.968750 0.750000
vt 0.968750 0.718750
vt 0.937500 0.812500
vt 0.937500 0.781250
vt 0.968750 0.812500
vt 0.968750 0.781250
vt 0.250000 0.062500
vt 0.250000 0.031250
vt 0.281250 0.062500
vt 0.281250 0.031250
vt 0.968750 0.406250
vt 0.968750 0.437500
vt 0.875000 0.406250
vt 0.875000 0.437500
vt 0.968750 0.375000
vt 0.968750 0.343750
vt 0.875000 0.375000
vt 0.875000 0.343750
vt 0.875000 0.500000
vt 0.875000 0.468750
vt 0.968750 0.500000
vt 0.968750 0.468750
vt 0.500000 0.093750
vt 0.593750 0.093750
vt 0.375000 0.062500
vt 0.375000 0.031250
vt 0.406250 0.062500
vt 0.406250 0.031250
vt 0.312500 0.062500
vt 0.312500 0.031250
vt 0.343750 0.062500
vt 0.343750 0.031250
vt 0.437500 0.062500
vt 0.437500 0.031250
vt 0.468750 0.062500
vt 0.468750 0.031250
vt 0.937500 0.625000
vt 0.937500 0.593750
vt 0.968750 0.625000
vt 0.968750 0.593750
vt 0.562500 0.062500
vt 0.562500 0.031250
vt 0.593750 0.062500
vt 0.593750 0.031250
vt 0.500000 0.062500
vt 0.500000 0.031250
vt 0.531250 0.062500
vt 0.531250 0.031250
vt 0.625000 0.500000
vt 0.625000 0.406250
vt 0.000000 0.312500
vt 0.000000 0.218750
vt 0.062500 0.312500
vt 0.062500 0.218750
vt 0.781250 0.937500
vt 0.781250 1.000000
vt 0.687500 1.000000
vt 0.156250 0.312500
vt 0.000000 0.343750
vt 0.093750 0.437500
vt 0.093750 0.343750
vt 0.500000 0.406250
vt 0.593750 0.500000
vt 0.593750 0.406250
s 0
usemtl Material_0.001
f 1/1/1 3/1/1 2/2/1
f 3/1/1 4/2/1 2/2/1
f 5/1/2 7/1/2 6/2/2
f 7/1/2 8/2/2 6/2/2
f 9/3/3 11/4/3 10/5/3
f 11/4/3 12/6/3 10/5/3
f 13/7/4 15/8/4 14/9/4
f 15/8/4 16/10/4 14/9/4
f 17/1/5 19/1/5 18/11/5
f 19/1/5 20/11/5 18/11/5
f 21/1/6 23/1/6 22/11/6
f 23/1/6 24/11/6 22/11/6
f 25/12/1 27/13/1 26/14/1
f 27/13/1 28/15/1 26/14/1
f 29/13/2 31/16/2 30/15/2
f 31/16/2 32/17/2 30/15/2
f 33/18/3 35/19/3 34/20/3
f 35/19/3 36/21/3 34/20/3
f 37/22/4 39/23/4 38/24/4
f 39/23/4 40/25/4 38/24/4
f 41/26/5 43/24/5 42/27/5
f 43/24/5 44/22/5 42/27/5
f 45/9/6 47/26/6 46/28/6
f 47/26/6 48/27/6 46/28/6
f 49/25/1 51/29/1 50/30/1
f 51/29/1 52/31/1 50/30/1
f 53/19/2 55/32/2 54/33/2
f 55/32/2 56/34/2 54/33/2
f 57/35/3 59/36/3 58/37/3
f 59/36/3 60/38/3 58/37/3
f 61/39/4 63/40/4 62/41/4
f 63/40/4 64/42/4 62/41/4
f 65/43/5 67/44/5 66/45/5
f 67/44/5 68/46/5 66/45/5
f 69/47/6 71/48/6 70/49/6
f 71/48/6 72/50/6 70/49/6
f 73/1/1 75/51/1 74/41/1
f 75/51/1 76/52/1 74/41/1
f 77/51/2 79/53/2 78/52/2
f 79/53/2 80/54/2 78/52/2
f 81/55/3 83/56/3 82/57/3
f 83/56/3 84/53/3 82/57/3
f 85/38/4 87/58/4 86/56/4
f 87/58/4 88/55/4 86/56/4
f 89/59/5 91/6/5 90/60/5
f 91/6/5 92/61/5 90/60/5
f 93/62/6 95/59/6 94/7/6
f 95/59/6 96/60/6 94/7/6
f 97/20/1 99/63/1 98/18/1
f 99/63/1 100/64/1 98/18/1
f 101/65/2 103/66/2 102/67/2
f 103/66/2 104/68/2 102/67/2
f 105/69/3 107/70/3 106/71/3
f 107/70/3 108/72/3 106/71/3
f 109/69/4 111/73/4 110/71/4
f 111/73/4 112/74/4 110/71/4
f 113/18/5 115/64/5 114/75/5
f 115/64/5 116/76/5 114/75/5
f 117/16/6 119/77/6 118/43/6
f 119/77/6 120/44/6 118/43/6
f 121/78/1 123/47/1 122/79/1
f 123/47/1 124/80/1 122/79/1
f 125/75/2 127/81/2 126/82/2
f 127/81/2 128/83/2 126/82/2
f 129/84/3 131/1/3 130/84/3
f 131/1/3 132/1/3 130/84/3
f 133/1/4 135/84/4 134/1/4
f 135/84/4 136/84/4 134/1/4
f 137/1/5 139/51/5 138/1/5
f 139/51/5 140/51/5 138/1/5
f 141/1/6 143/51/6 142/1/6
f 143/51/6 144/51/6 142/1/6
f 145/85/1 147/86/1 146/87/1
f 147/86/1 148/88/1 146/87/1
f 149/89/2 151/90/2 150/91/2
f 151/90/2 152/92/2 150/91/2
f 153/84/3 155/1/3 154/84/3
f 155/1/3 156/1/3 154/84/3
f 157/1/4 159/84/4 158/1/4
f 159/84/4 160/84/4 158/1/4
f 161/1/5 163/51/5 162/1/5
f 163/51/5 164/51/5 162/1/5
f 165/1/6 167/51/6 166/1/6
f 167/51/6 168/51/6 166/1/6
f 169/1/1 171/1/1 170/93/1
f 171/1/1 172/93/1 170/93/1
f 173/1/2 175/1/2 174/93/2
f 175/1/2 176/93/2 174/93/2
f 177/94/3 179/95/3 178/96/3
f 179/95/3 180/97/3 178/96/3
f 181/98/4 183/99/4 182/14/4
f 183/99/4 184/100/4 182/14/4
f 185/1/5 187/1/5 186/11/5
f 187/1/5 188/11/5 186/11/5
f 189/1/6 191/1/6 190/11/6
f 191/1/6 192/11/6 190/11/6
f 193/1/1 195/101/1 194/1/1
f 195/101/1 196/101/1 194/1/1
f 197/1/2 199/101/2 198/1/2
f 199/101/2 200/101/2 198/1/2
f 201/2/3 203/2/3 202/1/3
f 203/2/3 204/1/3 202/1/3
f 205/2/4 207/2/4 206/1/4
f 207/2/4 208/1/4 206/1/4
f 209/60/5 211/102/5 210/103/5
f 211/102/5 212/104/5 210/103/5
f 213/6/6 215/5/6 214/105/6
f 215/5/6 216/106/6 214/105/6
f 217/1/1 219/1/1 218/93/1
f 219/1/1 220/93/1 218/93/1
f 221/1/2 223/1/2 222/93/2
f 223/1/2 224/93/2 222/93/2
f 225/107/3 227/108/3 226/109/3
f 227/108/3 228/15/3 226/109/3
f 229/110/4 231/111/4 230/112/4
f 231/111/4 232/113/4 230/112/4
f 233/1/5 235/1/5 234/11/5
f 235/1/5 236/11/5 234/11/5
f 237/1/6 239/1/6 238/11/6
f 239/1/6 240/11/6 238/11/6
f 241/1/1 243/1/1 242/93/1
f 243/1/1 244/93/1 242/93/1
f 245/1/2 247/1/2 246/93/2
f 247/1/2 248/93/2 246/93/2
f 249/114/3 251/115/3 250/116/3
f 251/115/3 252/28/3 250/116/3
f 253/117/4 255/118/4 254/27/4
f 255/118/4 256/119/4 254/27/4
f 257/1/5 259/1/5 258/11/5
f 259/1/5 260/11/5 258/11/5
f 261/1/6 263/1/6 262/11/6
f 263/1/6 264/11/6 262/11/6
f 265/120/1 267/121/1 266/122/1
f 267/121/1 268/123/1 266/122/1
f 269/110/2 271/124/2 270/125/2
f 271/124/2 272/126/2 270/125/2
f 273/84/3 275/1/3 274/84/3
f 275/1/3 276/1/3 274/84/3
f 277/1/4 279/84/4 278/1/4
f 279/84/4 280/84/4 278/1/4
f 281/1/5 283/51/5 282/1/5
f 283/51/5 284/51/5 282/1/5
f 285/1/6 287/51/6 286/1/6
f 287/51/6 288/51/6 286/1/6
f 289/127/1 291/128/1 290/129/1
f 291/128/1 292/130/1 290/129/1
f 293/131/2 295/132/2 294/133/2
f 295/132/2 296/134/2 294/133/2
f 297/84/3 299/1/3 298/84/3
f 299/1/3 300/1/3 298/84/3
f 301/1/4 303/84/4 302/1/4
f 303/84/4 304/84/4 302/1/4
f 305/1/5 307/51/5 306/1/5
f 307/51/5 308/51/5 306/1/5
f 309/1/6 311/51/6 310/1/6
f 311/51/6 312/51/6 310/1/6
f 313/135/1 315/136/1 314/137/1
f 315/136/1 316/138/1 314/137/1
f 317/67/2 319/94/2 318/139/2
f 319/94/2 320/140/2 318/139/2
f 321/84/3 323/1/3 322/84/3
f 323/1/3 324/1/3 322/84/3
f 325/1/4 327/84/4 326/1/4
f 327/84/4 328/84/4 326/1/4
f 329/1/5 331/101/5 330/1/5
f 331/101/5 332/101/5 330/1/5
f 333/1/6 335/101/6 334/1/6
f 335/101/6 336/101/6 334/1/6
f 337/81/1 339/141/1 338/83/1
f 339/141/1 340/142/1 338/83/1
f 341/143/2 343/144/2 342/145/2
f 343/144/2 344/146/2 342/145/2
f 345/84/3 347/1/3 346/84/3
f 347/1/3 348/1/3 346/84/3
f 349/1/4 351/84/4 350/1/4
f 351/84/4 352/84/4 350/1/4
f 353/1/5 355/101/5 354/1/5
f 355/101/5 356/101/5 354/1/5
f 357/1/6 359/101/6 358/1/6
f 359/101/6 360/101/6 358/1/6
f 361/1/1 363/1/1 362/93/1
f 363/1/1 364/93/1 362/93/1
f 365/1/2 367/1/2 366/93/2
f 367/1/2 368/93/2 366/93/2
f 369/147/3 371/148/3 370/149/3
f 371/148/3 372/150/3 370/149/3
f 373/151/4 375/152/4 374/153/4
f 375/152/4 376/154/4 374/153/4
f 377/1/5 379/1/5 378/2/5
f 379/1/5 380/2/5 378/2/5
f 381/1/6 383/1/6 382/2/6
f 383/1/6 384/2/6 382/2/6
f 385/1/1 387/1/1 386/93/1
f 387/1/1 388/93/1 386/93/1
f 389/1/2 391/1/2 390/93/2
f 391/1/2 392/93/2 390/93/2
f 393/155/3 395/156/3 394/157/3
f 395/156/3 396/158/3 394/157/3
f 397/159/4 399/160/4 398/161/4
f 399/160/4 400/162/4 398/161/4
f 401/1/5 403/1/5 402/2/5
f 403/1/5 404/2/5 402/2/5
f 405/1/6 407/1/6 406/2/6
f 407/1/6 408/2/6 406/2/6
f 409/1/1 411/51/1 410/1/1
f 411/51/1 412/51/1 410/1/1
f 413/1/2 415/51/2 414/1/2
f 415/51/2 416/51/2 414/1/2
f 417/93/3 419/93/3 418/1/3
f 419/93/3 420/1/3 418/1/3
f 421/93/4 423/93/4 422/1/4
f 423/93/4 424/1/4 422/1/4
f 425/163/5 427/164/5 426/165/5
f 427/164/5 428/166/5 426/165/5
f 429/167/6 431/168/6 430/169/6
f 431/168/6 432/170/6 430/169/6
f 433/1/1 435/51/1 434/1/1
f 435/51/1 436/51/1 434/1/1
f 437/1/2 439/51/2 438/1/2
f 439/51/2 440/51/2 438/1/2
f 441/93/3 443/93/3 442/1/3
f 443/93/3 444/1/3 442/1/3
f 445/93/4 447/93/4 446/1/4
f 447/93/4 448/1/4 446/1/4
f 449/171/5 451/172/5 450/173/5
f 451/172/5 452/174/5 450/173/5
f 453/164/6 455/175/6 454/166/6
f 455/175/6 456/176/6 454/166/6
f 457/1/1 459/84/1 458/1/1
f 459/84/1 460/84/1 458/1/1
f 461/1/2 463/84/2 462/1/2
f 463/84/2 464/84/2 462/1/2
f 465/2/3 467/2/3 466/1/3
f 467/2/3 468/1/3 466/1/3
f 469/2/4 471/2/4 470/1/4
f 471/2/4 472/1/4 470/1/4
f 473/98/5 475/99/5 474/177/5
f 475/99/5 476/178/5 474/177/5
f 477/90/6 479/179/6 478/123/6
f 479/179/6 480/180/6 478/123/6
f 481/1/1 483/84/1 482/1/1
f 483/84/1 484/84/1 482/1/1
f 485/1/2 487/84/2 486/1/2
f 487/84/2 488/84/2 486/1/2
f 489/2/3 491/2/3 490/1/3
f 491/2/3 492/1/3 490/1/3
f 493/2/4 495/2/4 494/1/4
f 495/2/4 496/1/4 494/1/4
f 497/181/5 499/182/5 498/183/5
f 499/182/5 500/184/5 498/183/5
f 501/108/6 503/107/6 502/185/6
f 503/107/6 504/186/6 502/185/6
f 505/22/1 507/23/1 506/150/1
f 507/23/1 508/187/1 506/150/1
f 509/188/2 511/189/2 510/161/2
f 511/189/2 512/98/2 510/161/2
f 513/151/3 515/190/3 514/191/3
f 515/190/3 516/192/3 514/191/3
f 517/176/4 519/193/4 518/175/4
f 519/193/4 520/194/4 518/175/4
f 521/195/5 523/196/5 522/197/5
f 523/196/5 524/198/5 522/197/5
f 525/86/6 527/195/6 526/88/6
f 527/195/6 528/197/6 526/88/6
f 529/1/1 531/84/1 530/1/1
f 531/84/1 532/84/1 530/1/1
f 533/1/2 535/84/2 534/1/2
f 535/84/2 536/84/2 534/1/2
f 537/93/3 539/93/3 538/1/3
f 539/93/3 540/1/3 538/1/3
f 541/93/4 543/93/4 542/1/4
f 543/93/4 544/1/4 542/1/4
f 545/199/5 547/200/5 546/201/5
f 547/200/5 548/202/5 546/201/5
f 549/203/6 551/204/6 550/205/6
f 551/204/6 552/206/6 550/205/6
f 553/172/1 555/207/1 554/174/1
f 555/207/1 556/208/1 554/174/1
f 557/209/2 559/210/2 558/211/2
f 559/210/2 560/212/2 558/211/2
f 561/84/3 563/1/3 562/84/3
f 563/1/3 564/1/3 562/84/3
f 565/1/4 567/84/4 566/1/4
f 567/84/4 568/84/4 566/1/4
f 569/1/5 571/84/5 570/1/5
f 571/84/5 572/84/5 570/1/5
f 573/1/6 575/84/6 574/1/6
f 575/84/6 576/84/6 574/1/6
f 577/213/1 579/214/1 578/215/1
f 579/214/1 580/216/1 578/215/1
f 581/217/2 583/218/2 582/219/2
f 583/218/2 584/220/2 582/219/2
f 585/221/3 587/130/3 586/222/3
f 587/130/3 588/124/3 586/222/3
f 589/223/4 591/224/4 590/225/4
f 591/224/4 592/226/4 590/225/4
f 593/117/5 595/118/5 594/227/5
f 595/118/5 596/228/5 594/227/5
f 597/115/6 599/114/6 598/229/6
f 599/114/6 600/230/6 598/229/6
f 601/231/1 603/232/1 602/233/1
f 603/232/1 604/234/1 602/233/1
f 605/235/2 607/236/2 606/237/2
f 607/236/2 608/238/2 606/237/2
f 609/239/3 611/240/3 610/241/3
f 611/240/3 612/242/3 610/241/3
f 613/243/4 615/244/4 614/245/4
f 615/244/4 616/246/4 614/245/4
f 617/247/5 619/248/5 618/249/5
f 619/248/5 620/250/5 618/249/5
f 621/132/6 623/251/6 622/170/6
f 623/251/6 624/252/6 622/170/6
f 625/1/1 627/84/1 626/1/1
f 627/84/1 628/84/1 626/1/1
f 629/1/2 631/84/2 630/1/2
f 631/84/2 632/84/2 630/1/2
f 633/93/3 635/93/3 634/1/3
f 635/93/3 636/1/3 634/1/3
f 637/93/4 639/93/4 638/1/4
f 639/93/4 640/1/4 638/1/4
f 641/253/5 643/254/5 642/255/5
f 643/254/5 644/256/5 642/255/5
f 645/257/6 647/258/6 646/259/6
f 647/258/6 648/260/6 646/259/6
f 649/1/1 651/84/1 650/1/1
f 651/84/1 652/84/1 650/1/1
f 653/1/2 655/84/2 654/1/2
f 655/84/2 656/84/2 654/1/2
f 657/93/3 659/93/3 658/1/3
f 659/93/3 660/1/3 658/1/3
f 661/93/4 663/93/4 662/1/4
f 663/93/4 664/1/4 662/1/4
f 665/261/5 667/262/5 666/263/5
f 667/262/5 668/264/5 666/263/5
f 669/265/6 671/266/6 670/267/6
f 671/266/6 672/268/6 670/267/6
f 673/1/1 675/84/1 674/1/1
f 675/84/1 676/84/1 674/1/1
f 677/1/2 679/84/2 678/1/2
f 679/84/2 680/84/2 678/1/2
f 681/93/3 683/93/3 682/1/3
f 683/93/3 684/1/3 682/1/3
f 685/93/4 687/93/4 686/1/4
f 687/93/4 688/1/4 686/1/4
f 689/269/5 691/270/5 690/271/5
f 691/270/5 692/272/5 690/271/5
f 693/273/6 695/274/6 694/275/6
f 695/274/6 696/276/6 694/275/6
f 697/277/1 699/278/1 698/65/1
f 699/278/1 700/96/1 698/65/1
f 701/279/2 703/280/2 702/281/2
f 703/280/2 704/282/2 702/281/2
f 705/283/3 707/284/3 706/12/3
f 707/284/3 708/285/3 706/12/3
f 709/286/4 711/122/4 710/281/4
f 711/122/4 712/89/4 710/281/4
f 713/57/5 715/287/5 714/288/5
f 715/287/5 716/289/5 714/288/5
f 717/61/6 719/290/6 718/291/6
f 719/290/6 720/292/6 718/291/6
o scopeModel
v -3.673846 2.115385 0.576924
v -3.673077 2.115385 0.576924
v -3.673846 0.961538 0.576924
v -3.673077 0.961538 0.576924
v -3.673077 2.115385 -0.576922
v -3.673846 2.115385 -0.576922
v -3.673077 0.961538 -0.576922
v -3.673846 0.961538 -0.576922
v -3.673077 2.115385 -0.576922
v -3.673077 2.115385 0.576924
v -3.673846 2.115385 -0.576922
v -3.673846 2.115385 0.576924
v -3.673846 0.961538 -0.576922
v -3.673846 0.961538 0.576924
v -3.673077 0.961538 -0.576922
v -3.673077 0.961538 0.576924
v -3.673846 2.115385 -0.576922
v -3.673846 2.115385 0.576924
v -3.673846 0.961538 -0.576922
v -3.673846 0.961538 0.576924
v -3.673077 2.115385 0.576924
v -3.673077 2.115385 -0.576922
v -3.673077 0.961538 0.576924
v -3.673077 0.961538 -0.576922
vn -0.0000 -0.0000 1.0000
vn -0.0000 -0.0000 -1.0000
vn -0.0000 1.0000 -0.0000
vn -0.0000 -1.0000 -0.0000
vn -1.0000 -0.0000 -0.0000
vn 1.0000 -0.0000 -0.0000
vt 0.906250 0.093750
vt 0.906250 0.000000
vt 1.000000 0.093750
vt 1.000000 0.000000
s 0
usemtl Material_0.001
f 721/293/7 723/294/7 722/295/7
f 723/294/7 724/296/7 722/295/7
f 725/293/8 727/294/8 726/295/8
f 727/294/8 728/296/8 726/295/8
f 729/293/9 731/294/9 730/295/9
f 731/294/9 732/296/9 730/295/9
f 733/293/10 735/294/10 734/295/10
f 735/294/10 736/296/10 734/295/10
f 737/293/11 739/294/11 738/295/11
f 739/294/11 740/296/11 738/295/11
f 741/293/12 743/294/12 742/295/12
f 743/294/12 744/296/12 742/295/12
o overlaySolidModel
v -3.693077 2.115385 0.576924
v -3.692308 2.115385 0.576924
v -3.693077 0.961538 0.576924
v -3.692308 0.961538 0.576924
v -3.692308 2.115385 -0.576922
v -3.693077 2.115385 -0.576922
v -3.692308 0.961538 -0.576922
v -3.693077 0.961538 -0.576922
v -3.692308 2.115385 -0.576922
v -3.692308 2.115385 0.576924
v -3.693077 2.115385 -0.576922
v -3.693077 2.115385 0.576924
v -3.693077 0.961538 -0.576922
v -3.693077 0.961538 0.576924
v -3.692308 0.961538 -0.576922
v -3.692308 0.961538 0.576924
v -3.693077 2.115385 -0.576922
v -3.693077 2.115385 0.576924
v -3.693077 0.961538 -0.576922
v -3.693077 0.961538 0.576924
v -3.692308 2.115385 0.576924
v -3.692308 2.115385 -0.576922
v -3.692308 0.961538 0.576924
v -3.692308 0.961538 -0.576922
vn -0.0000 -0.0000 1.0000
vn -0.0000 -0.0000 -1.0000
vn -0.0000 1.0000 -0.0000
vn -0.0000 -1.0000 -0.0000
vn -1.0000 -0.0000 -0.0000
vn 1.0000 -0.0000 -0.0000
vt 0.906250 0.093750
vt 0.906250 0.000000
vt 1.000000 0.093750
vt 1.000000 0.000000
s 0
usemtl Material_0.001
f 745/297/13 747/298/13 746/299/13
f 747/298/13 748/300/13 746/299/13
f 749/297/14 751/298/14 750/299/14
f 751/298/14 752/300/14 750/299/14
f 753/297/15 755/298/15 754/299/15
f 755/298/15 756/300/15 754/299/15
f 757/297/16 759/298/16 758/299/16
f 759/298/16 760/300/16 758/299/16
f 761/297/17 763/298/17 762/299/17
f 763/298/17 764/300/17 762/299/17
f 765/297/18 767/298/18 766/299/18
f 767/298/18 768/300/18 766/299/18
