# Blender 4.1.1
# www.blender.org
mtllib bercut.mtl
o backpackModel
v 2.380952 3.571429 2.356190
v 2.380952 3.571429 2.357142
v 2.380952 5.476191 2.356190
v 2.380952 5.476191 2.357142
v -2.380952 3.571429 2.357142
v -2.380952 3.571429 2.356190
v -2.380952 5.476191 2.357142
v -2.380952 5.476191 2.356190
v -2.380952 3.571429 2.357142
v 2.380952 3.571429 2.357142
v -2.380952 3.571429 2.356190
v 2.380952 3.571429 2.356190
v -2.380952 5.476191 2.356190
v 2.380952 5.476191 2.356190
v -2.380952 5.476191 2.357142
v 2.380952 5.476191 2.357142
v -2.380952 3.571429 2.356190
v 2.380952 3.571429 2.356190
v -2.380952 5.476191 2.356190
v 2.380952 5.476191 2.356190
v 2.380952 3.571429 2.357142
v -2.380952 3.571429 2.357142
v 2.380952 5.476191 2.357142
v -2.380952 5.476191 2.357142
v -2.142857 -0.238096 -1.904762
v -2.142857 -0.238095 2.380952
v -2.142857 6.904761 -1.904763
v -2.142857 6.904762 2.380951
v -4.047619 -0.238095 2.380952
v -4.047619 -0.238096 -1.904762
v -4.047619 6.904762 2.380951
v -4.047619 6.904761 -1.904763
v -4.047619 -0.238095 2.380952
v -2.142857 -0.238095 2.380952
v -4.047619 -0.238096 -1.904762
v -2.142857 -0.238096 -1.904762
v -4.047619 6.904761 -1.904763
v -2.142857 6.904761 -1.904763
v -4.047619 6.904762 2.380951
v -2.142857 6.904762 2.380951
v -4.047619 -0.238096 -1.904762
v -2.142857 -0.238096 -1.904762
v -4.047619 6.904761 -1.904763
v -2.142857 6.904761 -1.904763
v -2.142857 -0.238095 2.380952
v -4.047619 -0.238095 2.380952
v -2.142857 6.904762 2.380951
v -4.047619 6.904762 2.380951
v 4.047619 -0.238096 -1.904762
v 4.047619 -0.238095 2.380952
v 4.047619 6.904761 -1.904763
v 4.047619 6.904762 2.380951
v 2.142857 -0.238095 2.380952
v 2.142857 -0.238096 -1.904762
v 2.142857 6.904762 2.380951
v 2.142857 6.904761 -1.904763
v 2.142857 -0.238095 2.380952
v 4.047619 -0.238095 2.380952
v 2.142857 -0.238096 -1.904762
v 4.047619 -0.238096 -1.904762
v 2.142857 6.904761 -1.904763
v 4.047619 6.904761 -1.904763
v 2.142857 6.904762 2.380951
v 4.047619 6.904762 2.380951
v 2.142857 -0.238096 -1.904762
v 4.047619 -0.238096 -1.904762
v 2.142857 6.904761 -1.904763
v 4.047619 6.904761 -1.904763
v 4.047619 -0.238095 2.380952
v 2.142857 -0.238095 2.380952
v 4.047619 6.904762 2.380951
v 2.142857 6.904762 2.380951
v 3.809524 -0.952382 -6.904762
v 3.809524 -0.952381 -2.142857
v 3.809524 11.428571 -6.904764
v 3.809524 11.428572 -2.142859
v -3.809524 -0.952381 -2.142857
v -3.809524 -0.952382 -6.904762
v -3.809524 11.428572 -2.142859
v -3.809524 11.428571 -6.904764
v -3.809524 -0.952381 -2.142857
v 3.809524 -0.952381 -2.142857
v -3.809524 -0.952382 -6.904762
v 3.809524 -0.952382 -6.904762
v -3.809524 11.428571 -6.904764
v 3.809524 11.428571 -6.904764
v -3.809524 11.428572 -2.142859
v 3.809524 11.428572 -2.142859
v -3.809524 -0.952382 -6.904762
v 3.809524 -0.952382 -6.904762
v -3.809524 11.428571 -6.904764
v 3.809524 11.428571 -6.904764
v 3.809524 -0.952381 -2.142857
v -3.809524 -0.952381 -2.142857
v 3.809524 11.428572 -2.142859
v -3.809524 11.428572 -2.142859
v 4.048572 -1.190477 -7.142857
v 4.048572 -1.190476 -1.904762
v 4.048572 11.666666 -7.142859
v 4.048572 11.666667 -1.904764
v 4.047619 -1.190476 -1.904762
v 4.047619 -1.190477 -7.142857
v 4.047619 11.666667 -1.904764
v 4.047619 11.666666 -7.142859
v 4.047619 -1.190476 -1.904762
v 4.048572 -1.190476 -1.904762
v 4.047619 -1.190477 -7.142857
v 4.048572 -1.190477 -7.142857
v 4.047619 11.666666 -7.142859
v 4.048572 11.666666 -7.142859
v 4.047619 11.666667 -1.904764
v 4.048572 11.666667 -1.904764
v 4.047619 -1.190477 -7.142857
v 4.048572 -1.190477 -7.142857
v 4.047619 11.666666 -7.142859
v 4.048572 11.666666 -7.142859
v 4.048572 -1.190476 -1.904762
v 4.047619 -1.190476 -1.904762
v 4.048572 11.666667 -1.904764
v 4.047619 11.666667 -1.904764
v 4.047619 -1.190476 -1.905714
v 4.047619 -1.190476 -1.904762
v 4.047619 11.666667 -1.905716
v 4.047619 11.666667 -1.904764
v -4.047619 -1.190476 -1.904762
v -4.047619 -1.190476 -1.905714
v -4.047619 11.666667 -1.904764
v -4.047619 11.666667 -1.905716
v -4.047619 -1.190476 -1.904762
v 4.047619 -1.190476 -1.904762
v -4.047619 -1.190476 -1.905714
v 4.047619 -1.190476 -1.905714
v -4.047619 11.666667 -1.905716
v 4.047619 11.666667 -1.905716
v -4.047619 11.666667 -1.904764
v 4.047619 11.666667 -1.904764
v -4.047619 -1.190476 -1.905714
v 4.047619 -1.190476 -1.905714
v -4.047619 11.666667 -1.905716
v 4.047619 11.666667 -1.905716
v 4.047619 -1.190476 -1.904762
v -4.047619 -1.190476 -1.904762
v 4.047619 11.666667 -1.904764
v -4.047619 11.666667 -1.904764
v 4.047619 11.665713 -7.142859
v 4.047619 11.665714 -1.904764
v 4.047619 11.666666 -7.142859
v 4.047619 11.666667 -1.904764
v -4.047619 11.665714 -1.904764
v -4.047619 11.665713 -7.142859
v -4.047619 11.666667 -1.904764
v -4.047619 11.666666 -7.142859
v -4.047619 11.665714 -1.904764
v 4.047619 11.665714 -1.904764
v -4.047619 11.665713 -7.142859
v 4.047619 11.665713 -7.142859
v -4.047619 11.666666 -7.142859
v 4.047619 11.666666 -7.142859
v -4.047619 11.666667 -1.904764
v 4.047619 11.666667 -1.904764
v -4.047619 11.665713 -7.142859
v 4.047619 11.665713 -7.142859
v -4.047619 11.666666 -7.142859
v 4.047619 11.666666 -7.142859
v 4.047619 11.665714 -1.904764
v -4.047619 11.665714 -1.904764
v 4.047619 11.666667 -1.904764
v -4.047619 11.666667 -1.904764
v 4.047619 -1.191430 -7.142857
v 4.047619 -1.191429 -1.904762
v 4.047619 -1.190477 -7.142857
v 4.047619 -1.190476 -1.904762
v -4.047619 -1.191429 -1.904762
v -4.047619 -1.191430 -7.142857
v -4.047619 -1.190476 -1.904762
v -4.047619 -1.190477 -7.142857
v -4.047619 -1.191429 -1.904762
v 4.047619 -1.191429 -1.904762
v -4.047619 -1.191430 -7.142857
v 4.047619 -1.191430 -7.142857
v -4.047619 -1.190477 -7.142857
v 4.047619 -1.190477 -7.142857
v -4.047619 -1.190476 -1.904762
v 4.047619 -1.190476 -1.904762
v -4.047619 -1.191430 -7.142857
v 4.047619 -1.191430 -7.142857
v -4.047619 -1.190477 -7.142857
v 4.047619 -1.190477 -7.142857
v 4.047619 -1.191429 -1.904762
v -4.047619 -1.191429 -1.904762
v 4.047619 -1.190476 -1.904762
v -4.047619 -1.190476 -1.904762
v 4.047619 -1.190477 -7.143809
v 4.047619 -1.190477 -7.142857
v 4.047619 11.666666 -7.143811
v 4.047619 11.666666 -7.142859
v -4.047619 -1.190477 -7.142857
v -4.047619 -1.190477 -7.143809
v -4.047619 11.666666 -7.142859
v -4.047619 11.666666 -7.143811
v -4.047619 -1.190477 -7.142857
v 4.047619 -1.190477 -7.142857
v -4.047619 -1.190477 -7.143809
v 4.047619 -1.190477 -7.143809
v -4.047619 11.666666 -7.143811
v 4.047619 11.666666 -7.143811
v -4.047619 11.666666 -7.142859
v 4.047619 11.666666 -7.142859
v -4.047619 -1.190477 -7.143809
v 4.047619 -1.190477 -7.143809
v -4.047619 11.666666 -7.143811
v 4.047619 11.666666 -7.143811
v 4.047619 -1.190477 -7.142857
v -4.047619 -1.190477 -7.142857
v 4.047619 11.666666 -7.142859
v -4.047619 11.666666 -7.142859
v -4.046667 -1.190477 -7.142857
v -4.046667 -1.190476 -1.904762
v -4.046667 11.666666 -7.142859
v -4.046667 11.666667 -1.904764
v -4.047619 -1.190476 -1.904762
v -4.047619 -1.190477 -7.142857
v -4.047619 11.666667 -1.904764
v -4.047619 11.666666 -7.142859
v -4.047619 -1.190476 -1.904762
v -4.046667 -1.190476 -1.904762
v -4.047619 -1.190477 -7.142857
v -4.046667 -1.190477 -7.142857
v -4.047619 11.666666 -7.142859
v -4.046667 11.666666 -7.142859
v -4.047619 11.666667 -1.904764
v -4.046667 11.666667 -1.904764
v -4.047619 -1.190477 -7.142857
v -4.046667 -1.190477 -7.142857
v -4.047619 11.666666 -7.142859
v -4.046667 11.666666 -7.142859
v -4.046667 -1.190476 -1.904762
v -4.047619 -1.190476 -1.904762
v -4.046667 11.666667 -1.904764
v -4.047619 11.666667 -1.904764
v 4.285714 9.285713 -7.380954
v 4.285714 9.285714 -2.619049
v 4.285714 10.238094 -7.380954
v 4.285714 10.238095 -2.619049
v -4.285714 9.285714 -2.619049
v -4.285714 9.285713 -7.380954
v -4.285714 10.238095 -2.619049
v -4.285714 10.238094 -7.380954
v -4.285714 9.285714 -2.619049
v 4.285714 9.285714 -2.619049
v -4.285714 9.285713 -7.380954
v 4.285714 9.285713 -7.380954
v -4.285714 10.238094 -7.380954
v 4.285714 10.238094 -7.380954
v -4.285714 10.238095 -2.619049
v 4.285714 10.238095 -2.619049
v -4.285714 9.285713 -7.380954
v 4.285714 9.285713 -7.380954
v -4.285714 10.238094 -7.380954
v 4.285714 10.238094 -7.380954
v 4.285714 9.285714 -2.619049
v -4.285714 9.285714 -2.619049
v 4.285714 10.238095 -2.619049
v -4.285714 10.238095 -2.619049
v 4.285714 4.047618 -7.380953
v 4.285714 4.047618 -2.619048
v 4.285714 4.999999 -7.380953
v 4.285714 5.000000 -2.619048
v -4.285714 4.047618 -2.619048
v -4.285714 4.047618 -7.380953
v -4.285714 5.000000 -2.619048
v -4.285714 4.999999 -7.380953
v -4.285714 4.047618 -2.619048
v 4.285714 4.047618 -2.619048
v -4.285714 4.047618 -7.380953
v 4.285714 4.047618 -7.380953
v -4.285714 4.999999 -7.380953
v 4.285714 4.999999 -7.380953
v -4.285714 5.000000 -2.619048
v 4.285714 5.000000 -2.619048
v -4.285714 4.047618 -7.380953
v 4.285714 4.047618 -7.380953
v -4.285714 4.999999 -7.380953
v 4.285714 4.999999 -7.380953
v 4.285714 4.047618 -2.619048
v -4.285714 4.047618 -2.619048
v 4.285714 5.000000 -2.619048
v -4.285714 5.000000 -2.619048
v 2.380952 3.571427 -7.383810
v 2.380952 3.571427 -7.382857
v 2.380952 5.476190 -7.383810
v 2.380952 5.476190 -7.382858
v -0.476190 3.571427 -7.382857
v -0.476190 3.571427 -7.383810
v -0.476190 5.476190 -7.382858
v -0.476190 5.476190 -7.383810
v -0.476190 3.571427 -7.382857
v 2.380952 3.571427 -7.382857
v -0.476190 3.571427 -7.383810
v 2.380952 3.571427 -7.383810
v -0.476190 5.476190 -7.383810
v 2.380952 5.476190 -7.383810
v -0.476190 5.476190 -7.382858
v 2.380952 5.476190 -7.382858
v -0.476190 3.571427 -7.383810
v 2.380952 3.571427 -7.383810
v -0.476190 5.476190 -7.383810
v 2.380952 5.476190 -7.383810
v 2.380952 3.571427 -7.382857
v -0.476190 3.571427 -7.382857
v 2.380952 5.476190 -7.382858
v -0.476190 5.476190 -7.382858
v -0.476190 8.809523 -7.383811
v -0.476190 8.809523 -7.382858
v -0.476190 10.714285 -7.383811
v -0.476190 10.714285 -7.382858
v -3.333333 8.809523 -7.382858
v -3.333333 8.809523 -7.383811
v -3.333333 10.714285 -7.382858
v -3.333333 10.714285 -7.383811
v -3.333333 8.809523 -7.382858
v -0.476190 8.809523 -7.382858
v -3.333333 8.809523 -7.383811
v -0.476190 8.809523 -7.383811
v -3.333333 10.714285 -7.383811
v -0.476190 10.714285 -7.383811
v -3.333333 10.714285 -7.382858
v -0.476190 10.714285 -7.382858
v -3.333333 8.809523 -7.383811
v -0.476190 8.809523 -7.383811
v -3.333333 10.714285 -7.383811
v -0.476190 10.714285 -7.383811
v -0.476190 8.809523 -7.382858
v -3.333333 8.809523 -7.382858
v -0.476190 10.714285 -7.382858
v -3.333333 10.714285 -7.382858
vn 1.0000 -0.0000 -0.0000
vn -1.0000 -0.0000 -0.0000
vn -0.0000 -1.0000 -0.0000
vn -0.0000 1.0000 -0.0000
vn -0.0000 -0.0000 -1.0000
vn -0.0000 -0.0000 1.0000
vt 0.000000 1.000000
vt 0.000000 0.968750
vt 0.078125 1.000000
vt 0.562500 0.843750
vt 0.562500 0.812500
vt 0.484375 0.843750
vt 0.484375 0.812500
vt 0.203125 0.593750
vt 0.203125 0.468750
vt 0.281250 0.593750
vt 0.281250 0.468750
vt 0.406250 0.796875
vt 0.406250 0.671875
vt 0.484375 0.796875
vt 0.484375 0.671875
vt 0.515625 0.843750
vt 0.515625 0.921875
vt 0.484375 0.921875
vt 0.125000 0.515625
vt 0.125000 0.437500
vt 0.093750 0.515625
vt 0.093750 0.437500
vt 0.000000 0.515625
vt 0.000000 0.390625
vt 0.031250 0.515625
vt 0.031250 0.390625
vt 0.468750 0.593750
vt 0.468750 0.468750
vt 0.500000 0.593750
vt 0.500000 0.468750
vt 0.250000 1.000000
vt 0.250000 0.796875
vt 0.328125 1.000000
vt 0.328125 0.796875
vt 0.125000 0.593750
vt 0.000000 0.593750
vt 0.531250 1.000000
vt 0.531250 0.921875
vt 0.406250 1.000000
vt 0.406250 0.921875
vt 0.125000 1.000000
vt 0.125000 0.796875
vt 0.000000 0.796875
vt 0.406250 0.515625
vt 0.406250 0.593750
vt 0.281250 0.515625
vt 0.531250 0.671875
vt 0.531250 0.593750
vt 0.250000 0.593750
vt 0.515625 0.265625
vt 0.515625 0.250000
vt 0.593750 0.265625
vt 0.593750 0.250000
vt 0.609375 0.265625
vt 0.609375 0.343750
vt 0.750000 0.265625
vt 0.750000 0.343750
vt 0.609375 0.328125
vt 0.750000 0.328125
vt 0.750000 0.250000
vt 0.609375 0.250000
vt 0.140625 0.265625
vt 0.140625 0.250000
vt 0.218750 0.265625
vt 0.218750 0.250000
vt 0.140625 0.343750
vt 0.000000 0.265625
vt 0.000000 0.343750
vt 0.140625 0.328125
vt 0.000000 0.328125
vt 0.000000 0.250000
vt 0.296875 0.343750
vt 0.296875 0.312500
vt 0.250000 0.343750
vt 0.250000 0.312500
s 0
usemtl Material_0.005
f 1/1/1 3/2/1 2/1/1
f 3/2/1 4/2/1 2/1/1
f 5/1/2 7/2/2 6/1/2
f 7/2/2 8/2/2 6/1/2
f 9/3/3 11/3/3 10/1/3
f 11/3/3 12/1/3 10/1/3
f 13/3/4 15/3/4 14/1/4
f 15/3/4 16/1/4 14/1/4
f 17/4/5 19/5/5 18/6/5
f 19/5/5 20/7/5 18/6/5
f 21/6/6 23/7/6 22/4/6
f 23/7/6 24/5/6 22/4/6
f 25/8/1 27/9/1 26/10/1
f 27/9/1 28/11/1 26/10/1
f 29/12/2 31/13/2 30/14/2
f 31/13/2 32/15/2 30/14/2
f 33/16/3 35/17/3 34/6/3
f 35/17/3 36/18/3 34/6/3
f 37/19/4 39/20/4 38/21/4
f 39/20/4 40/22/4 38/21/4
f 41/23/5 43/24/5 42/25/5
f 43/24/5 44/26/5 42/25/5
f 45/27/6 47/28/6 46/29/6
f 47/28/6 48/30/6 46/29/6
f 49/14/1 51/15/1 50/12/1
f 51/15/1 52/13/1 50/12/1
f 53/10/2 55/11/2 54/8/2
f 55/11/2 56/9/2 54/8/2
f 57/6/3 59/18/3 58/16/3
f 59/18/3 60/17/3 58/16/3
f 61/21/4 63/22/4 62/19/4
f 63/22/4 64/20/4 62/19/4
f 65/25/5 67/26/5 66/23/5
f 67/26/5 68/24/5 66/23/5
f 69/29/6 71/30/6 70/27/6
f 71/30/6 72/28/6 70/27/6
f 73/31/1 75/32/1 74/33/1
f 75/32/1 76/34/1 74/33/1
f 77/33/2 79/34/2 78/31/2
f 79/34/2 80/32/2 78/31/2
f 81/19/3 83/35/3 82/23/3
f 83/35/3 84/36/3 82/23/3
f 85/37/4 87/38/4 86/39/4
f 87/38/4 88/40/4 86/39/4
f 89/41/5 91/42/5 90/31/5
f 91/42/5 92/32/5 90/31/5
f 93/1/6 95/43/6 94/41/6
f 95/43/6 96/42/6 94/41/6
f 97/33/1 99/34/1 98/39/1
f 99/34/1 100/12/1 98/39/1
f 101/39/2 103/12/2 102/33/2
f 103/12/2 104/34/2 102/33/2
f 105/44/3 107/45/3 106/46/3
f 107/45/3 108/10/3 106/46/3
f 109/47/4 111/48/4 110/13/4
f 111/48/4 112/45/4 110/13/4
f 113/42/5 115/35/5 114/32/5
f 115/35/5 116/49/5 114/32/5
f 117/43/6 119/36/6 118/42/6
f 119/36/6 120/35/6 118/42/6
f 121/33/1 123/34/1 122/39/1
f 123/34/1 124/12/1 122/39/1
f 125/39/2 127/12/2 126/33/2
f 127/12/2 128/34/2 126/33/2
f 129/44/3 131/45/3 130/46/3
f 131/45/3 132/10/3 130/46/3
f 133/47/4 135/48/4 134/13/4
f 135/48/4 136/45/4 134/13/4
f 137/42/5 139/35/5 138/43/5
f 139/35/5 140/36/5 138/43/5
f 141/43/6 143/36/6 142/42/6
f 143/36/6 144/35/6 142/42/6
f 145/33/1 147/34/1 146/39/1
f 147/34/1 148/12/1 146/39/1
f 149/39/2 151/12/2 150/33/2
f 151/12/2 152/34/2 150/33/2
f 153/45/3 155/13/3 154/48/3
f 155/13/3 156/47/3 154/48/3
f 157/47/4 159/48/4 158/13/4
f 159/48/4 160/45/4 158/13/4
f 161/42/5 163/35/5 162/32/5
f 163/35/5 164/49/5 162/32/5
f 165/43/6 167/36/6 166/42/6
f 167/36/6 168/35/6 166/42/6
f 169/33/1 171/34/1 170/39/1
f 171/34/1 172/12/1 170/39/1
f 173/39/2 175/12/2 174/33/2
f 175/12/2 176/34/2 174/33/2
f 177/44/3 179/45/3 178/46/3
f 179/45/3 180/10/3 178/46/3
f 181/10/4 183/46/4 182/45/4
f 183/46/4 184/44/4 182/45/4
f 185/42/5 187/35/5 186/32/5
f 187/35/5 188/49/5 186/32/5
f 189/43/6 191/36/6 190/42/6
f 191/36/6 192/35/6 190/42/6
f 193/33/1 195/34/1 194/39/1
f 195/34/1 196/12/1 194/39/1
f 197/39/2 199/12/2 198/33/2
f 199/12/2 200/34/2 198/33/2
f 201/44/3 203/45/3 202/46/3
f 203/45/3 204/10/3 202/46/3
f 205/47/4 207/48/4 206/13/4
f 207/48/4 208/45/4 206/13/4
f 209/42/5 211/35/5 210/32/5
f 211/35/5 212/49/5 210/32/5
f 213/32/6 215/49/6 214/42/6
f 215/49/6 216/35/6 214/42/6
f 217/33/1 219/34/1 218/39/1
f 219/34/1 220/12/1 218/39/1
f 221/39/2 223/12/2 222/33/2
f 223/12/2 224/34/2 222/33/2
f 225/44/3 227/45/3 226/46/3
f 227/45/3 228/10/3 226/46/3
f 229/47/4 231/48/4 230/13/4
f 231/48/4 232/45/4 230/13/4
f 233/42/5 235/35/5 234/32/5
f 235/35/5 236/49/5 234/32/5
f 237/43/6 239/36/6 238/42/6
f 239/36/6 240/35/6 238/42/6
f 241/50/1 243/51/1 242/52/1
f 243/51/1 244/53/1 242/52/1
f 245/52/2 247/53/2 246/50/2
f 247/53/2 248/51/2 246/50/2
f 249/54/3 251/55/3 250/56/3
f 251/55/3 252/57/3 250/56/3
f 253/55/4 255/54/4 254/57/4
f 255/54/4 256/56/4 254/57/4
f 257/55/5 259/58/5 258/57/5
f 259/58/5 260/59/5 258/57/5
f 261/56/6 263/60/6 262/54/6
f 263/60/6 264/61/6 262/54/6
f 265/62/1 267/63/1 266/64/1
f 267/63/1 268/65/1 266/64/1
f 269/64/2 271/65/2 270/62/2
f 271/65/2 272/63/2 270/62/2
f 273/62/3 275/66/3 274/67/3
f 275/66/3 276/68/3 274/67/3
f 277/66/4 279/62/4 278/68/4
f 279/62/4 280/67/4 278/68/4
f 281/66/5 283/69/5 282/68/5
f 283/69/5 284/70/5 282/68/5
f 285/67/6 287/71/6 286/62/6
f 287/71/6 288/63/6 286/62/6
f 289/72/1 291/73/1 290/74/1
f 291/73/1 292/75/1 290/74/1
f 293/72/2 295/73/2 294/74/2
f 295/73/2 296/75/2 294/74/2
f 297/72/3 299/73/3 298/74/3
f 299/73/3 300/75/3 298/74/3
f 301/72/4 303/73/4 302/74/4
f 303/73/4 304/75/4 302/74/4
f 305/74/5 307/75/5 306/72/5
f 307/75/5 308/73/5 306/72/5
f 309/72/6 311/73/6 310/74/6
f 311/73/6 312/75/6 310/74/6
f 313/72/1 315/73/1 314/74/1
f 315/73/1 316/75/1 314/74/1
f 317/72/2 319/73/2 318/74/2
f 319/73/2 320/75/2 318/74/2
f 321/72/3 323/73/3 322/74/3
f 323/73/3 324/75/3 322/74/3
f 325/72/4 327/73/4 326/74/4
f 327/73/4 328/75/4 326/74/4
f 329/74/5 331/75/5 330/72/5
f 331/75/5 332/73/5 330/72/5
f 333/72/6 335/73/6 334/74/6
f 335/73/6 336/75/6 334/74/6
