# Blender 4.2.3 LTS
# www.blender.org
mtllib lev.sa583p.mtl
o attachmentModel
v 0.000000 0.384615 0.384615
v 0.384615 0.384615 0.384615
v 0.000000 -0.384615 0.384615
v 0.384615 -0.384615 0.384615
v 0.384615 0.384615 -0.384615
v -0.000000 0.384615 -0.384615
v 0.384615 -0.384615 -0.384615
v -0.000000 -0.384615 -0.384615
v 0.384615 0.384615 -0.384615
v 0.384615 0.384615 0.384615
v -0.000000 0.384615 -0.384615
v 0.000000 0.384615 0.384615
v -0.000000 -0.384615 -0.384615
v 0.000000 -0.384615 0.384615
v 0.384615 -0.384615 -0.384615
v 0.384615 -0.384615 0.384615
v -0.000000 0.384615 -0.384615
v 0.000000 0.384615 0.384615
v -0.000000 -0.384615 -0.384615
v 0.000000 -0.384615 0.384615
v 0.384615 0.384615 0.384615
v 0.384615 0.384615 -0.384615
v 0.384615 -0.384615 0.384615
v 0.384615 -0.384615 -0.384615
v 1.922308 0.384615 0.384615
v 1.923077 0.384615 0.384615
v 1.922308 -0.384615 0.384615
v 1.923077 -0.384615 0.384615
v 1.923077 0.384615 -0.384616
v 1.922307 0.384615 -0.384616
v 1.923077 -0.384615 -0.384616
v 1.922307 -0.384615 -0.384616
v 1.923077 0.384615 -0.384616
v 1.923077 0.384615 0.384615
v 1.922307 0.384615 -0.384616
v 1.922308 0.384615 0.384615
v 1.922307 -0.384615 -0.384616
v 1.922308 -0.384615 0.384615
v 1.923077 -0.384615 -0.384616
v 1.923077 -0.384615 0.384615
v 1.922307 0.384615 -0.384616
v 1.922308 0.384615 0.384615
v 1.922307 -0.384615 -0.384616
v 1.922308 -0.384615 0.384615
v 1.923077 0.384615 0.384615
v 1.923077 0.384615 -0.384616
v 1.923077 -0.384615 0.384615
v 1.923077 -0.384615 -0.384616
v -0.000000 0.384615 -0.383846
v 1.923077 0.384615 -0.383847
v -0.000000 -0.384615 -0.383846
v 1.923077 -0.384615 -0.383847
v 1.923077 0.384615 -0.384616
v -0.000000 0.384615 -0.384615
v 1.923077 -0.384615 -0.384616
v -0.000000 -0.384615 -0.384615
v 1.923077 0.384615 -0.384616
v 1.923077 0.384615 -0.383847
v -0.000000 0.384615 -0.384615
v -0.000000 0.384615 -0.383846
v -0.000000 -0.384615 -0.384615
v -0.000000 -0.384615 -0.383846
v 1.923077 -0.384615 -0.384616
v 1.923077 -0.384615 -0.383847
v -0.000000 0.384615 -0.384615
v -0.000000 0.384615 -0.383846
v -0.000000 -0.384615 -0.384615
v -0.000000 -0.384615 -0.383846
v 1.923077 0.384615 -0.383847
v 1.923077 0.384615 -0.384616
v 1.923077 -0.384615 -0.383847
v 1.923077 -0.384615 -0.384616
v 0.000000 0.384615 0.385385
v 1.923077 0.384615 0.385384
v 0.000000 -0.384615 0.385385
v 1.923077 -0.384615 0.385384
v 1.923077 0.384615 0.384615
v 0.000000 0.384615 0.384615
v 1.923077 -0.384615 0.384615
v 0.000000 -0.384615 0.384615
v 1.923077 0.384615 0.384615
v 1.923077 0.384615 0.385384
v 0.000000 0.384615 0.384615
v 0.000000 0.384615 0.385385
v 0.000000 -0.384615 0.384615
v 0.000000 -0.384615 0.385385
v 1.923077 -0.384615 0.384615
v 1.923077 -0.384615 0.385384
v 0.000000 0.384615 0.384615
v 0.000000 0.384615 0.385385
v 0.000000 -0.384615 0.384615
v 0.000000 -0.384615 0.385385
v 1.923077 0.384615 0.385384
v 1.923077 0.384615 0.384615
v 1.923077 -0.384615 0.385384
v 1.923077 -0.384615 0.384615
v 0.000000 0.385385 0.384615
v 1.923077 0.385385 0.384615
v 0.000000 0.384615 0.384615
v 1.923077 0.384615 0.384615
v 1.923077 0.385385 -0.384616
v -0.000000 0.385385 -0.384615
v 1.923077 0.384615 -0.384616
v -0.000000 0.384615 -0.384615
v 1.923077 0.385385 -0.384616
v 1.923077 0.385385 0.384615
v -0.000000 0.385385 -0.384615
v 0.000000 0.385385 0.384615
v -0.000000 0.384615 -0.384615
v 0.000000 0.384615 0.384615
v 1.923077 0.384615 -0.384616
v 1.923077 0.384615 0.384615
v -0.000000 0.385385 -0.384615
v 0.000000 0.385385 0.384615
v -0.000000 0.384615 -0.384615
v 0.000000 0.384615 0.384615
v 1.923077 0.385385 0.384615
v 1.923077 0.385385 -0.384616
v 1.923077 0.384615 0.384615
v 1.923077 0.384615 -0.384616
v 0.000000 -0.383846 0.384615
v 1.923077 -0.383846 0.384615
v 0.000000 -0.384615 0.384615
v 1.923077 -0.384615 0.384615
v 1.923077 -0.383846 -0.384616
v -0.000000 -0.383846 -0.384615
v 1.923077 -0.384615 -0.384616
v -0.000000 -0.384615 -0.384615
v 1.923077 -0.383846 -0.384616
v 1.923077 -0.383846 0.384615
v -0.000000 -0.383846 -0.384615
v 0.000000 -0.383846 0.384615
v -0.000000 -0.384615 -0.384615
v 0.000000 -0.384615 0.384615
v 1.923077 -0.384615 -0.384616
v 1.923077 -0.384615 0.384615
v -0.000000 -0.383846 -0.384615
v 0.000000 -0.383846 0.384615
v -0.000000 -0.384615 -0.384615
v 0.000000 -0.384615 0.384615
v 1.923077 -0.383846 0.384615
v 1.923077 -0.383846 -0.384616
v 1.923077 -0.384615 0.384615
v 1.923077 -0.384615 -0.384616
vn -0.0000 -0.0000 1.0000
vn -0.0000 -0.0000 -1.0000
vn -0.0000 1.0000 -0.0000
vn -0.0000 -1.0000 -0.0000
vn -1.0000 -0.0000 -0.0000
vn 1.0000 -0.0000 -0.0000
vt 0.625000 1.000000
vt 0.625000 0.875000
vt 0.687500 1.000000
vt 0.687500 0.875000
vt 0.125000 0.375000
vt 0.125000 0.250000
vt 0.187500 0.375000
vt 0.187500 0.250000
vt 0.750000 0.812500
vt 0.750000 0.875000
vt 0.625000 0.812500
vt 0.375000 0.375000
vt 0.375000 0.312500
vt 0.250000 0.375000
vt 0.250000 0.312500
vt 0.500000 0.500000
vt 0.500000 0.375000
vt 0.625000 0.500000
vt 0.625000 0.375000
vt 0.500000 0.625000
vt 0.625000 0.625000
vt 0.000000 1.000000
vt 0.000000 0.875000
vt 0.125000 1.000000
vt 0.250000 0.500000
vt 0.375000 0.500000
vt 0.125000 0.500000
vt 0.312500 0.875000
vt 0.312500 0.750000
vt 0.000000 0.750000
vt 0.000000 0.687500
vt 0.312500 1.000000
vt 0.500000 0.687500
vt 0.500000 1.000000
vt 0.375000 0.687500
vt 0.375000 1.000000
vt 0.500000 0.312500
vt 0.375000 0.625000
vt 0.625000 0.687500
s 0
usemtl Material_0.002
f 1/1/1 3/2/1 2/3/1
f 3/2/1 4/4/1 2/3/1
f 5/5/2 7/6/2 6/7/2
f 7/6/2 8/8/2 6/7/2
f 9/9/3 11/10/3 10/11/3
f 11/10/3 12/2/3 10/11/3
f 13/12/4 15/13/4 14/14/4
f 15/13/4 16/15/4 14/14/4
f 17/16/5 19/17/5 18/18/5
f 19/17/5 20/19/5 18/18/5
f 21/20/6 23/16/6 22/21/6
f 23/16/6 24/18/6 22/21/6
f 25/22/1 27/23/1 26/22/1
f 27/23/1 28/23/1 26/22/1
f 29/22/2 31/23/2 30/22/2
f 31/23/2 32/23/2 30/22/2
f 33/24/3 35/24/3 34/22/3
f 35/24/3 36/22/3 34/22/3
f 37/24/4 39/24/4 38/22/4
f 39/24/4 40/22/4 38/22/4
f 41/25/5 43/14/5 42/26/5
f 43/14/5 44/12/5 42/26/5
f 45/27/6 47/5/6 46/25/6
f 47/5/6 48/14/6 46/25/6
f 49/28/1 51/29/1 50/23/1
f 51/29/1 52/30/1 50/23/1
f 53/23/2 55/30/2 54/28/2
f 55/30/2 56/29/2 54/28/2
f 57/31/3 59/22/3 58/31/3
f 59/22/3 60/22/3 58/31/3
f 61/22/4 63/31/4 62/22/4
f 63/31/4 64/31/4 62/22/4
f 65/22/5 67/23/5 66/22/5
f 67/23/5 68/23/5 66/22/5
f 69/22/6 71/23/6 70/22/6
f 71/23/6 72/23/6 70/22/6
f 73/28/1 75/29/1 74/23/1
f 75/29/1 76/30/1 74/23/1
f 77/23/2 79/30/2 78/28/2
f 79/30/2 80/29/2 78/28/2
f 81/31/3 83/22/3 82/31/3
f 83/22/3 84/22/3 82/31/3
f 85/22/4 87/31/4 86/22/4
f 87/31/4 88/31/4 86/22/4
f 89/22/5 91/23/5 90/22/5
f 91/23/5 92/23/5 90/22/5
f 93/22/6 95/23/6 94/22/6
f 95/23/6 96/23/6 94/22/6
f 97/22/1 99/22/1 98/32/1
f 99/22/1 100/32/1 98/32/1
f 101/22/2 103/22/2 102/32/2
f 103/22/2 104/32/2 102/32/2
f 105/33/3 107/34/3 106/35/3
f 107/34/3 108/36/3 106/35/3
f 109/20/4 111/37/4 110/38/4
f 111/37/4 112/13/4 110/38/4
f 113/22/5 115/22/5 114/24/5
f 115/22/5 116/24/5 114/24/5
f 117/22/6 119/22/6 118/24/6
f 119/22/6 120/24/6 118/24/6
f 121/22/1 123/22/1 122/32/1
f 123/22/1 124/32/1 122/32/1
f 125/22/2 127/22/2 126/32/2
f 127/22/2 128/32/2 126/32/2
f 129/33/3 131/34/3 130/39/3
f 131/34/3 132/1/3 130/39/3
f 133/1/4 135/39/4 134/34/4
f 135/39/4 136/33/4 134/34/4
f 137/22/5 139/22/5 138/24/5
f 139/22/5 140/24/5 138/24/5
f 141/22/6 143/22/6 142/24/6
f 143/22/6 144/24/6 142/24/6
