# Blender 4.2.3 LTS
# www.blender.org
mtllib lev.apsstockl.mtl
o attachmentModel
v -0.384615 0.769231 0.576923
v 0.000000 0.769231 0.576923
v -0.384615 -0.769231 0.576923
v 0.000000 -0.769231 0.576923
v 0.000000 0.769231 -0.576923
v -0.384615 0.769231 -0.576923
v 0.000000 -0.769231 -0.576923
v -0.384615 -0.769231 -0.576923
v 0.000000 0.769231 -0.576923
v 0.000000 0.769231 0.576923
v -0.384615 0.769231 -0.576923
v -0.384615 0.769231 0.576923
v -0.384615 -0.769231 -0.576923
v -0.384615 -0.769231 0.576923
v 0.000000 -0.769231 -0.576923
v 0.000000 -0.769231 0.576923
v -0.384615 0.769231 -0.576923
v -0.384615 0.769231 0.576923
v -0.384615 -0.769231 -0.576923
v -0.384615 -0.769231 0.576923
v 0.000000 0.769231 0.576923
v 0.000000 0.769231 -0.576923
v 0.000000 -0.769231 0.576923
v 0.000000 -0.769231 -0.576923
v -6.923077 0.000769 -0.576152
v -0.384615 0.000769 -0.576154
v -6.923077 -0.000000 -0.576152
v -0.384615 -0.000000 -0.576154
v -0.384615 0.000769 -0.576923
v -6.923077 0.000769 -0.576922
v -0.384615 -0.000000 -0.576923
v -6.923077 -0.000000 -0.576922
v -0.384615 0.000769 -0.576923
v -0.384615 0.000769 -0.576154
v -6.923077 0.000769 -0.576922
v -6.923077 0.000769 -0.576152
v -6.923077 -0.000000 -0.576922
v -6.923077 -0.000000 -0.576152
v -0.384615 -0.000000 -0.576923
v -0.384615 -0.000000 -0.576154
v -6.923077 0.000769 -0.576922
v -6.923077 0.000769 -0.576152
v -6.923077 -0.000000 -0.576922
v -6.923077 -0.000000 -0.576152
v -0.384615 0.000769 -0.576154
v -0.384615 0.000769 -0.576923
v -0.384615 -0.000000 -0.576154
v -0.384615 -0.000000 -0.576923
v -6.923077 0.384615 0.577694
v -0.384615 0.384615 0.577692
v -6.923077 0.000000 0.577694
v -0.384615 0.000000 0.577692
v -0.384615 0.384615 0.576923
v -6.923077 0.384615 0.576924
v -0.384615 0.000000 0.576923
v -6.923077 0.000000 0.576924
v -0.384615 0.384615 0.576923
v -0.384615 0.384615 0.577692
v -6.923077 0.384615 0.576924
v -6.923077 0.384615 0.577694
v -6.923077 0.000000 0.576924
v -6.923077 0.000000 0.577694
v -0.384615 0.000000 0.576923
v -0.384615 0.000000 0.577692
v -6.923077 0.384615 0.576924
v -6.923077 0.384615 0.577694
v -6.923077 0.000000 0.576924
v -6.923077 0.000000 0.577694
v -0.384615 0.384615 0.577692
v -0.384615 0.384615 0.576923
v -0.384615 0.000000 0.577692
v -0.384615 0.000000 0.576923
v -7.307692 0.384615 -0.576152
v -6.923077 0.384615 -0.576152
v -7.307692 -1.923077 -0.576152
v -6.923077 -1.923077 -0.576152
v -6.923077 0.384615 -0.576922
v -7.307692 0.384615 -0.576922
v -6.923077 -1.923077 -0.576922
v -7.307692 -1.923077 -0.576922
v -6.923077 0.384615 -0.576922
v -6.923077 0.384615 -0.576152
v -7.307692 0.384615 -0.576922
v -7.307692 0.384615 -0.576152
v -7.307692 -1.923077 -0.576922
v -7.307692 -1.923077 -0.576152
v -6.923077 -1.923077 -0.576922
v -6.923077 -1.923077 -0.576152
v -7.307692 0.384615 -0.576922
v -7.307692 0.384615 -0.576152
v -7.307692 -1.923077 -0.576922
v -7.307692 -1.923077 -0.576152
v -6.923077 0.384615 -0.576152
v -6.923077 0.384615 -0.576922
v -6.923077 -1.923077 -0.576152
v -6.923077 -1.923077 -0.576922
v -7.307692 0.384615 0.577694
v -6.923077 0.384615 0.577694
v -7.307692 -1.923077 0.577694
v -6.923077 -1.923077 0.577694
v -6.923077 0.384615 0.576924
v -7.307692 0.384615 0.576925
v -6.923077 -1.923077 0.576924
v -7.307692 -1.923077 0.576925
v -6.923077 0.384615 0.576924
v -6.923077 0.384615 0.577694
v -7.307692 0.384615 0.576925
v -7.307692 0.384615 0.577694
v -7.307692 -1.923077 0.576925
v -7.307692 -1.923077 0.577694
v -6.923077 -1.923077 0.576924
v -6.923077 -1.923077 0.577694
v -7.307692 0.384615 0.576925
v -7.307692 0.384615 0.577694
v -7.307692 -1.923077 0.576925
v -7.307692 -1.923077 0.577694
v -6.923077 0.384615 0.577694
v -6.923077 0.384615 0.576924
v -6.923077 -1.923077 0.577694
v -6.923077 -1.923077 0.576924
v -7.308461 0.384615 0.576925
v -7.307692 0.384615 0.576925
v -7.308461 -1.923077 0.576925
v -7.307692 -1.923077 0.576925
v -7.307692 0.384615 -0.576922
v -7.308461 0.384615 -0.576922
v -7.307692 -1.923077 -0.576922
v -7.308461 -1.923077 -0.576922
v -7.307692 0.384615 -0.576922
v -7.307692 0.384615 0.576925
v -7.308461 0.384615 -0.576922
v -7.308461 0.384615 0.576925
v -7.308461 -1.923077 -0.576922
v -7.308461 -1.923077 0.576925
v -7.307692 -1.923077 -0.576922
v -7.307692 -1.923077 0.576925
v -7.308461 0.384615 -0.576922
v -7.308461 0.384615 0.576925
v -7.308461 -1.923077 -0.576922
v -7.308461 -1.923077 0.576925
v -7.307692 0.384615 0.576925
v -7.307692 0.384615 -0.576922
v -7.307692 -1.923077 0.576925
v -7.307692 -1.923077 -0.576922
v -5.000769 0.384615 0.576924
v -5.000000 0.384615 0.576924
v -5.000769 -0.384615 0.576924
v -5.000000 -0.384615 0.576924
v -5.000000 0.384615 -0.576922
v -5.000769 0.384615 -0.576922
v -5.000000 -0.384615 -0.576922
v -5.000769 -0.384615 -0.576922
v -5.000000 0.384615 -0.576922
v -5.000000 0.384615 0.576924
v -5.000769 0.384615 -0.576922
v -5.000769 0.384615 0.576924
v -5.000769 -0.384615 -0.576922
v -5.000769 -0.384615 0.576924
v -5.000000 -0.384615 -0.576922
v -5.000000 -0.384615 0.576924
v -5.000769 0.384615 -0.576922
v -5.000769 0.384615 0.576924
v -5.000769 -0.384615 -0.576922
v -5.000769 -0.384615 0.576924
v -5.000000 0.384615 0.576924
v -5.000000 0.384615 -0.576922
v -5.000000 -0.384615 0.576924
v -5.000000 -0.384615 -0.576922
v -6.923077 0.384615 -0.576152
v -0.384615 0.384615 -0.576154
v -6.923077 -0.000000 -0.576152
v -0.384615 -0.000000 -0.576154
v -0.384615 0.384615 -0.576923
v -6.923077 0.384615 -0.576922
v -0.384615 -0.000000 -0.576923
v -6.923077 -0.000000 -0.576922
v -0.384615 0.384615 -0.576923
v -0.384615 0.384615 -0.576154
v -6.923077 0.384615 -0.576922
v -6.923077 0.384615 -0.576152
v -6.923077 -0.000000 -0.576922
v -6.923077 -0.000000 -0.576152
v -0.384615 -0.000000 -0.576923
v -0.384615 -0.000000 -0.576154
v -6.923077 0.384615 -0.576922
v -6.923077 0.384615 -0.576152
v -6.923077 -0.000000 -0.576922
v -6.923077 -0.000000 -0.576152
v -0.384615 0.384615 -0.576154
v -0.384615 0.384615 -0.576923
v -0.384615 -0.000000 -0.576154
v -0.384615 -0.000000 -0.576923
vn -0.0000 -0.0000 1.0000
vn -0.0000 -0.0000 -1.0000
vn -0.0000 1.0000 -0.0000
vn -0.0000 -1.0000 -0.0000
vn -1.0000 -0.0000 -0.0000
vn 1.0000 -0.0000 -0.0000
vt 0.062500 0.562500
vt 0.062500 0.437500
vt 0.093750 0.562500
vt 0.093750 0.437500
vt 0.125000 0.562500
vt 0.125000 0.437500
vt 0.156250 0.562500
vt 0.156250 0.437500
vt 0.531250 0.656250
vt 0.531250 0.687500
vt 0.437500 0.656250
vt 0.437500 0.687500
vt 0.531250 0.625000
vt 0.531250 0.593750
vt 0.437500 0.625000
vt 0.437500 0.593750
vt 0.125000 0.687500
vt 0.218750 0.687500
vt 0.218750 0.562500
vt 0.000000 0.687500
vt 0.000000 0.562500
vt 0.093750 0.687500
vt 0.000000 0.781250
vt 0.531250 0.781250
vt 0.000000 0.468750
vt 0.000000 1.000000
vt 0.000000 0.968750
vt 0.531250 0.812500
vt 0.000000 0.812500
vt 0.312500 0.687500
vt 0.312500 0.500000
vt 0.343750 0.687500
vt 0.343750 0.500000
vt 0.093750 1.000000
vt 0.125000 1.000000
vt 0.125000 0.812500
vt 0.218750 1.000000
vt 0.218750 0.812500
vt 0.000000 0.937500
vt 0.375000 0.875000
vt 0.375000 0.812500
vt 0.468750 0.875000
vt 0.468750 0.812500
vt 0.250000 0.875000
vt 0.250000 0.812500
vt 0.343750 0.875000
vt 0.343750 0.812500
s 0
usemtl Material_0.002
f 1/1/1 3/2/1 2/3/1
f 3/2/1 4/4/1 2/3/1
f 5/5/2 7/6/2 6/7/2
f 7/6/2 8/8/2 6/7/2
f 9/9/3 11/10/3 10/11/3
f 11/10/3 12/12/3 10/11/3
f 13/13/4 15/14/4 14/15/4
f 15/14/4 16/16/4 14/15/4
f 17/17/5 19/5/5 18/18/5
f 19/5/5 20/19/5 18/18/5
f 21/20/6 23/21/6 22/22/6
f 23/21/6 24/3/6 22/22/6
f 25/23/1 27/23/1 26/24/1
f 27/23/1 28/24/1 26/24/1
f 29/23/2 31/23/2 30/24/2
f 31/23/2 32/24/2 30/24/2
f 33/25/3 35/26/3 34/25/3
f 35/26/3 36/26/3 34/25/3
f 37/26/4 39/25/4 38/26/4
f 39/25/4 40/25/4 38/26/4
f 41/27/5 43/27/5 42/27/5
f 43/27/5 44/27/5 42/27/5
f 45/27/6 47/27/6 46/27/6
f 47/27/6 48/27/6 46/27/6
f 49/28/1 51/24/1 50/29/1
f 51/24/1 52/23/1 50/29/1
f 53/29/2 55/23/2 54/28/2
f 55/23/2 56/24/2 54/28/2
f 57/25/3 59/26/3 58/25/3
f 59/26/3 60/26/3 58/25/3
f 61/26/4 63/25/4 62/26/4
f 63/25/4 64/25/4 62/26/4
f 65/26/5 67/27/5 66/26/5
f 67/27/5 68/27/5 66/26/5
f 69/26/6 71/27/6 70/26/6
f 71/27/6 72/27/6 70/26/6
f 73/30/1 75/31/1 74/32/1
f 75/31/1 76/33/1 74/32/1
f 77/30/2 79/31/2 78/32/2
f 79/31/2 80/33/2 78/32/2
f 81/27/3 83/26/3 82/27/3
f 83/26/3 84/26/3 82/27/3
f 85/26/4 87/27/4 86/26/4
f 87/27/4 88/27/4 86/26/4
f 89/26/5 91/29/5 90/26/5
f 91/29/5 92/29/5 90/26/5
f 93/26/6 95/29/6 94/26/6
f 95/29/6 96/29/6 94/26/6
f 97/30/1 99/31/1 98/32/1
f 99/31/1 100/33/1 98/32/1
f 101/30/2 103/31/2 102/32/2
f 103/31/2 104/33/2 102/32/2
f 105/27/3 107/26/3 106/27/3
f 107/26/3 108/26/3 106/27/3
f 109/26/4 111/27/4 110/26/4
f 111/27/4 112/27/4 110/26/4
f 113/26/5 115/29/5 114/26/5
f 115/29/5 116/29/5 114/26/5
f 117/26/6 119/29/6 118/26/6
f 119/29/6 120/29/6 118/26/6
f 121/26/1 123/29/1 122/26/1
f 123/29/1 124/29/1 122/26/1
f 125/26/2 127/29/2 126/26/2
f 127/29/2 128/29/2 126/26/2
f 129/34/3 131/34/3 130/26/3
f 131/34/3 132/26/3 130/26/3
f 133/34/4 135/34/4 134/26/4
f 135/34/4 136/26/4 134/26/4
f 137/35/5 139/36/5 138/37/5
f 139/36/5 140/38/5 138/37/5
f 141/37/6 143/38/6 142/35/6
f 143/38/6 144/36/6 142/35/6
f 145/26/1 147/39/1 146/26/1
f 147/39/1 148/39/1 146/26/1
f 149/26/2 151/39/2 150/26/2
f 151/39/2 152/39/2 150/26/2
f 153/34/3 155/34/3 154/26/3
f 155/34/3 156/26/3 154/26/3
f 157/34/4 159/34/4 158/26/4
f 159/34/4 160/26/4 158/26/4
f 161/40/5 163/41/5 162/42/5
f 163/41/5 164/43/5 162/42/5
f 165/44/6 167/45/6 166/46/6
f 167/45/6 168/47/6 166/46/6
f 169/28/1 171/24/1 170/29/1
f 171/24/1 172/23/1 170/29/1
f 173/29/2 175/23/2 174/28/2
f 175/23/2 176/24/2 174/28/2
f 177/25/3 179/26/3 178/25/3
f 179/26/3 180/26/3 178/25/3
f 181/26/4 183/25/4 182/26/4
f 183/25/4 184/25/4 182/26/4
f 185/26/5 187/27/5 186/26/5
f 187/27/5 188/27/5 186/26/5
f 189/26/6 191/27/6 190/26/6
f 191/27/6 192/27/6 190/26/6
