# Blender 4.5.4 LTS
# www.blender.org
mtllib lev.microh2.mtl
o attachmentModel
v -0.961538 0.384615 0.576923
v 0.961538 0.384615 0.576923
v -0.961538 0.000000 0.576923
v 0.961538 0.000000 0.576923
v 0.961538 0.384615 -0.576923
v -0.961538 0.384615 -0.576923
v 0.961538 -0.000000 -0.576923
v -0.961538 -0.000000 -0.576923
v 0.961538 0.384615 -0.576923
v 0.961538 0.384615 0.576923
v -0.961538 0.384615 -0.576923
v -0.961538 0.384615 0.576923
v -0.961538 -0.000000 -0.576923
v -0.961538 0.000000 0.576923
v 0.961538 -0.000000 -0.576923
v 0.961538 0.000000 0.576923
v -0.961538 0.384615 -0.576923
v -0.961538 0.384615 0.576923
v -0.961538 -0.000000 -0.576923
v -0.961538 0.000000 0.576923
v 0.961538 0.384615 0.576923
v 0.961538 0.384615 -0.576923
v 0.961538 0.000000 0.576923
v 0.961538 -0.000000 -0.576923
v -0.961538 1.153846 0.576923
v 0.961538 1.153846 0.576923
v -0.961538 0.769231 0.576923
v 0.961538 0.769231 0.576923
v 0.961538 1.153846 -0.576923
v -0.961538 1.153846 -0.576923
v 0.961538 0.769231 -0.576923
v -0.961538 0.769231 -0.576923
v 0.961538 1.153846 -0.576923
v 0.961538 1.153846 0.576923
v -0.961538 1.153846 -0.576923
v -0.961538 1.153846 0.576923
v -0.961538 0.769231 -0.576923
v -0.961538 0.769231 0.576923
v 0.961538 0.769231 -0.576923
v 0.961538 0.769231 0.576923
v -0.961538 1.153846 -0.576923
v -0.961538 1.153846 0.576923
v -0.961538 0.769231 -0.576923
v -0.961538 0.769231 0.576923
v 0.961538 1.153846 0.576923
v 0.961538 1.153846 -0.576923
v 0.961538 0.769231 0.576923
v 0.961538 0.769231 -0.576923
v -1.346154 1.346154 0.384615
v 1.346154 1.346154 0.384615
v -1.346154 1.153846 0.384615
v 1.346154 1.153846 0.384615
v 1.346154 1.346154 -0.384615
v -1.346154 1.346154 -0.384615
v 1.346154 1.153846 -0.384615
v -1.346154 1.153846 -0.384615
v 1.346154 1.346154 -0.384615
v 1.346154 1.346154 0.384615
v -1.346154 1.346154 -0.384615
v -1.346154 1.346154 0.384615
v -1.346154 1.153846 -0.384615
v -1.346154 1.153846 0.384615
v 1.346154 1.153846 -0.384615
v 1.346154 1.153846 0.384615
v -1.346154 1.346154 -0.384615
v -1.346154 1.346154 0.384615
v -1.346154 1.153846 -0.384615
v -1.346154 1.153846 0.384615
v 1.346154 1.346154 0.384615
v 1.346154 1.346154 -0.384615
v 1.346154 1.153846 0.384615
v 1.346154 1.153846 -0.384615
v -1.346154 2.307692 0.384615
v 1.346154 2.307692 0.384615
v -1.346154 2.115385 0.384615
v 1.346154 2.115385 0.384615
v 1.346154 2.307692 -0.384615
v -1.346154 2.307692 -0.384615
v 1.346154 2.115385 -0.384615
v -1.346154 2.115385 -0.384615
v 1.346154 2.307692 -0.384615
v 1.346154 2.307692 0.384615
v -1.346154 2.307692 -0.384615
v -1.346154 2.307692 0.384615
v -1.346154 2.115385 -0.384615
v -1.346154 2.115385 0.384615
v 1.346154 2.115385 -0.384615
v 1.346154 2.115385 0.384615
v -1.346154 2.307692 -0.384615
v -1.346154 2.307692 0.384615
v -1.346154 2.115385 -0.384615
v -1.346154 2.115385 0.384615
v 1.346154 2.307692 0.384615
v 1.346154 2.307692 -0.384615
v 1.346154 2.115385 0.384615
v 1.346154 2.115385 -0.384615
v -1.346154 2.307692 -0.384615
v 1.346154 2.307692 -0.384615
v -1.346154 1.153846 -0.384615
v 1.346154 1.153846 -0.384615
v 1.346154 2.307692 -0.576923
v -1.346154 2.307692 -0.576923
v 1.346154 1.153846 -0.576923
v -1.346154 1.153846 -0.576923
v 1.346154 2.307692 -0.576923
v 1.346154 2.307692 -0.384615
v -1.346154 2.307692 -0.576923
v -1.346154 2.307692 -0.384615
v -1.346154 1.153846 -0.576923
v -1.346154 1.153846 -0.384615
v 1.346154 1.153846 -0.576923
v 1.346154 1.153846 -0.384615
v -1.346154 2.307692 -0.576923
v -1.346154 2.307692 -0.384615
v -1.346154 1.153846 -0.576923
v -1.346154 1.153846 -0.384615
v 1.346154 2.307692 -0.384615
v 1.346154 2.307692 -0.576923
v 1.346154 1.153846 -0.384615
v 1.346154 1.153846 -0.576923
v -1.346154 2.307692 0.576923
v 1.346154 2.307692 0.576923
v -1.346154 1.153846 0.576923
v 1.346154 1.153846 0.576923
v 1.346154 2.307692 0.384615
v -1.346154 2.307692 0.384615
v 1.346154 1.153846 0.384615
v -1.346154 1.153846 0.384615
v 1.346154 2.307692 0.384615
v 1.346154 2.307692 0.576923
v -1.346154 2.307692 0.384615
v -1.346154 2.307692 0.576923
v -1.346154 1.153846 0.384615
v -1.346154 1.153846 0.576923
v 1.346154 1.153846 0.384615
v 1.346154 1.153846 0.576923
v -1.346154 2.307692 0.384615
v -1.346154 2.307692 0.576923
v -1.346154 1.153846 0.384615
v -1.346154 1.153846 0.576923
v 1.346154 2.307692 0.576923
v 1.346154 2.307692 0.384615
v 1.346154 1.153846 0.576923
v 1.346154 1.153846 0.384615
v -0.962308 2.800920 1.735818
v -0.961538 2.800920 1.735818
v -0.962308 1.734905 1.294260
v -0.961538 1.734905 1.294260
v -0.961538 3.242478 0.669803
v -0.962308 3.242478 0.669803
v -0.961538 2.176463 0.228245
v -0.962308 2.176463 0.228245
v -0.961538 3.242478 0.669803
v -0.961538 2.800920 1.735818
v -0.962308 3.242478 0.669803
v -0.962308 2.800920 1.735818
v -0.962308 2.176463 0.228245
v -0.962308 1.734905 1.294260
v -0.961538 2.176463 0.228245
v -0.961538 1.734905 1.294260
v -0.962308 3.242478 0.669803
v -0.962308 2.800920 1.735818
v -0.962308 2.176463 0.228245
v -0.962308 1.734905 1.294260
v -0.961538 2.800920 1.735818
v -0.961538 3.242478 0.669803
v -0.961538 1.734905 1.294260
v -0.961538 2.176463 0.228245
v 0.960769 2.800920 1.735818
v 0.961538 2.800920 1.735818
v 0.960769 1.734905 1.294260
v 0.961538 1.734905 1.294260
v 0.961538 3.242478 0.669803
v 0.960769 3.242478 0.669803
v 0.961538 2.176463 0.228245
v 0.960769 2.176463 0.228245
v 0.961538 3.242478 0.669803
v 0.961538 2.800920 1.735818
v 0.960769 3.242478 0.669803
v 0.960769 2.800920 1.735818
v 0.960769 2.176463 0.228245
v 0.960769 1.734905 1.294260
v 0.961538 2.176463 0.228245
v 0.961538 1.734905 1.294260
v 0.960769 3.242478 0.669803
v 0.960769 2.800920 1.735818
v 0.960769 2.176463 0.228245
v 0.960769 1.734905 1.294260
v 0.961538 2.800920 1.735818
v 0.961538 3.242478 0.669803
v 0.961538 1.734905 1.294260
v 0.961538 2.176463 0.228245
v -0.961538 2.500000 0.192308
v 0.192308 2.500000 0.192308
v -0.961538 2.307692 0.192308
v 0.192308 2.307692 0.192308
v 0.192308 2.500000 -0.192308
v -0.961538 2.500000 -0.192308
v 0.192308 2.307692 -0.192308
v -0.961538 2.307692 -0.192308
v 0.192308 2.500000 -0.192308
v 0.192308 2.500000 0.192308
v -0.961538 2.500000 -0.192308
v -0.961538 2.500000 0.192308
v -0.961538 2.307692 -0.192308
v -0.961538 2.307692 0.192308
v 0.192308 2.307692 -0.192308
v 0.192308 2.307692 0.192308
v -0.961538 2.500000 -0.192308
v -0.961538 2.500000 0.192308
v -0.961538 2.307692 -0.192308
v -0.961538 2.307692 0.192308
v 0.192308 2.500000 0.192308
v 0.192308 2.500000 -0.192308
v 0.192308 2.307692 0.192308
v 0.192308 2.307692 -0.192308
v 0.000000 2.115385 0.769230
v 0.769231 2.115385 0.769230
v 0.000000 1.346154 0.769230
v 0.769231 1.346154 0.769230
v 0.769231 2.115385 0.576923
v 0.000000 2.115385 0.576923
v 0.769231 1.346154 0.576923
v 0.000000 1.346154 0.576923
v 0.769231 2.115385 0.576923
v 0.769231 2.115385 0.769230
v 0.000000 2.115385 0.576923
v 0.000000 2.115385 0.769230
v 0.000000 1.346154 0.576923
v 0.000000 1.346154 0.769230
v 0.769231 1.346154 0.576923
v 0.769231 1.346154 0.769230
v 0.000000 2.115385 0.576923
v 0.000000 2.115385 0.769230
v 0.000000 1.346154 0.576923
v 0.000000 1.346154 0.769230
v 0.769231 2.115385 0.769230
v 0.769231 2.115385 0.576923
v 0.769231 1.346154 0.769230
v 0.769231 1.346154 0.576923
v -0.576923 1.923077 0.769230
v -0.192308 1.923077 0.769230
v -0.576923 1.538462 0.769230
v -0.192308 1.538462 0.769230
v -0.192308 1.923077 0.576923
v -0.576923 1.923077 0.576923
v -0.192308 1.538462 0.576923
v -0.576923 1.538462 0.576923
v -0.192308 1.923077 0.576923
v -0.192308 1.923077 0.769230
v -0.576923 1.923077 0.576923
v -0.576923 1.923077 0.769230
v -0.576923 1.538462 0.576923
v -0.576923 1.538462 0.769230
v -0.192308 1.538462 0.576923
v -0.192308 1.538462 0.769230
v -0.576923 1.923077 0.576923
v -0.576923 1.923077 0.769230
v -0.576923 1.538462 0.576923
v -0.576923 1.538462 0.769230
v -0.192308 1.923077 0.769230
v -0.192308 1.923077 0.576923
v -0.192308 1.538462 0.769230
v -0.192308 1.538462 0.576923
v -0.961538 0.769231 0.384615
v 0.961538 0.769231 0.384615
v -0.961538 0.384615 0.384615
v 0.961538 0.384615 0.384615
v 0.961538 0.769231 -0.384615
v -0.961538 0.769231 -0.384615
v 0.961538 0.384615 -0.384615
v -0.961538 0.384615 -0.384615
v 0.961538 0.769231 -0.384615
v 0.961538 0.769231 0.384615
v -0.961538 0.769231 -0.384615
v -0.961538 0.769231 0.384615
v -0.961538 0.384615 -0.384615
v -0.961538 0.384615 0.384615
v 0.961538 0.384615 -0.384615
v 0.961538 0.384615 0.384615
v -0.961538 0.769231 -0.384615
v -0.961538 0.769231 0.384615
v -0.961538 0.384615 -0.384615
v -0.961538 0.384615 0.384615
v 0.961538 0.769231 0.384615
v 0.961538 0.769231 -0.384615
v 0.961538 0.384615 0.384615
v 0.961538 0.384615 -0.384615
vn -0.0000 -0.0000 1.0000
vn -0.0000 -0.0000 -1.0000
vn -0.0000 1.0000 -0.0000
vn -0.0000 -1.0000 -0.0000
vn -1.0000 -0.0000 -0.0000
vn 1.0000 -0.0000 -0.0000
vn -0.0000 -0.3827 0.9239
vn -0.0000 0.3827 -0.9239
vn -0.0000 0.9239 0.3827
vn -0.0000 -0.9239 -0.3827
vn -0.0000 -0.3826 0.9239
vn -0.0000 0.3826 -0.9239
vn -0.0000 0.9239 0.3826
vn -0.0000 -0.9239 -0.3826
vt 0.312500 0.375000
vt 0.312500 0.343750
vt 0.468750 0.375000
vt 0.468750 0.343750
vt 0.500000 0.375000
vt 0.500000 0.343750
vt 0.656250 0.375000
vt 0.656250 0.343750
vt 0.343750 0.718750
vt 0.343750 0.875000
vt 0.250000 0.718750
vt 0.250000 0.875000
vt 0.343750 0.687500
vt 0.343750 0.531250
vt 0.250000 0.687500
vt 0.250000 0.531250
vt 0.687500 0.687500
vt 0.687500 0.656250
vt 0.781250 0.687500
vt 0.781250 0.656250
vt 0.000000 0.312500
vt 0.000000 0.281250
vt 0.093750 0.312500
vt 0.093750 0.281250
vt 0.625000 0.500000
vt 0.625000 0.468750
vt 0.781250 0.500000
vt 0.781250 0.468750
vt 0.625000 0.437500
vt 0.625000 0.406250
vt 0.781250 0.437500
vt 0.781250 0.406250
vt 0.093750 0.468750
vt 0.093750 0.625000
vt 0.000000 0.468750
vt 0.000000 0.625000
vt 0.218750 0.625000
vt 0.218750 0.468750
vt 0.125000 0.625000
vt 0.125000 0.468750
vt 0.687500 0.562500
vt 0.687500 0.531250
vt 0.781250 0.562500
vt 0.781250 0.531250
vt 0.687500 0.625000
vt 0.687500 0.593750
vt 0.781250 0.625000
vt 0.781250 0.593750
vt 0.562500 1.000000
vt 0.562500 0.968750
vt 0.781250 1.000000
vt 0.781250 0.968750
vt 0.562500 0.937500
vt 0.562500 0.906250
vt 0.781250 0.937500
vt 0.781250 0.906250
vt 1.000000 0.781250
vt 1.000000 1.000000
vt 0.937500 0.781250
vt 0.937500 1.000000
vt 0.453125 0.625000
vt 0.453125 0.406250
vt 0.390625 0.625000
vt 0.390625 0.406250
vt 0.828125 0.250000
vt 0.828125 0.218750
vt 0.890625 0.250000
vt 0.890625 0.218750
vt 0.562500 0.875000
vt 0.562500 0.843750
vt 0.781250 0.875000
vt 0.781250 0.843750
vt 0.562500 0.812500
vt 0.562500 0.781250
vt 0.781250 0.812500
vt 0.781250 0.781250
vt 0.484375 0.656250
vt 0.484375 0.875000
vt 0.421875 0.656250
vt 0.421875 0.875000
vt 0.828125 0.281250
vt 0.890625 0.281250
vt 0.000000 1.000000
vt 0.000000 0.906250
vt 0.218750 1.000000
vt 0.218750 0.906250
vt 0.000000 0.875000
vt 0.000000 0.781250
vt 0.218750 0.875000
vt 0.218750 0.781250
vt 0.156250 0.218750
vt 0.156250 0.437500
vt 0.125000 0.218750
vt 0.125000 0.437500
vt 0.218750 0.437500
vt 0.218750 0.218750
vt 0.187500 0.437500
vt 0.187500 0.218750
vt 0.562500 0.312500
vt 0.562500 0.218750
vt 0.593750 0.312500
vt 0.593750 0.218750
vt 0.500000 0.312500
vt 0.500000 0.218750
vt 0.531250 0.312500
vt 0.531250 0.218750
vt 0.000000 0.750000
vt 0.000000 0.656250
vt 0.218750 0.750000
vt 0.218750 0.656250
vt 0.250000 1.000000
vt 0.250000 0.906250
vt 0.468750 1.000000
vt 0.468750 0.906250
vt 0.281250 0.156250
vt 0.281250 0.375000
vt 0.250000 0.156250
vt 0.250000 0.375000
vt 0.656250 0.750000
vt 0.656250 0.531250
vt 0.625000 0.750000
vt 0.625000 0.531250
vt 0.687500 0.375000
vt 0.687500 0.281250
vt 0.718750 0.375000
vt 0.718750 0.281250
vt 0.625000 0.312500
vt 0.625000 0.218750
vt 0.656250 0.312500
vt 0.656250 0.218750
vt 0.093750 1.000000
vt 0.500000 0.625000
vt 0.500000 0.531250
vt 0.593750 0.625000
vt 0.593750 0.531250
vt 0.250000 0.500000
vt 0.250000 0.406250
vt 0.343750 0.500000
vt 0.343750 0.406250
vt 0.000000 0.437500
vt 0.000000 0.343750
vt 0.093750 0.437500
vt 0.093750 0.343750
vt 0.500000 0.500000
vt 0.500000 0.406250
vt 0.593750 0.500000
vt 0.593750 0.406250
vt 0.000000 0.250000
vt 0.000000 0.218750
vt 0.093750 0.250000
vt 0.093750 0.218750
vt 0.312500 0.250000
vt 0.312500 0.218750
vt 0.406250 0.250000
vt 0.406250 0.218750
vt 0.468750 0.156250
vt 0.468750 0.250000
vt 0.437500 0.156250
vt 0.437500 0.250000
vt 0.781250 0.375000
vt 0.781250 0.281250
vt 0.750000 0.375000
vt 0.750000 0.281250
vt 0.812500 0.687500
vt 0.812500 0.656250
vt 0.843750 0.687500
vt 0.843750 0.656250
vt 0.312500 0.187500
vt 0.312500 0.156250
vt 0.343750 0.187500
vt 0.343750 0.156250
vt 0.562500 0.750000
vt 0.562500 0.687500
vt 0.625000 0.687500
vt 0.562500 0.625000
vt 0.625000 0.625000
vt 0.156250 0.125000
vt 0.156250 0.187500
vt 0.125000 0.125000
vt 0.125000 0.187500
vt 0.843750 0.875000
vt 0.843750 0.812500
vt 0.812500 0.875000
vt 0.812500 0.812500
vt 0.812500 0.937500
vt 0.843750 0.937500
vt 0.062500 0.187500
vt 0.062500 0.125000
vt 0.093750 0.187500
vt 0.093750 0.125000
vt 0.593750 0.750000
vt 0.593750 0.718750
vt 0.625000 0.718750
vt 0.156250 0.156250
vt 0.125000 0.156250
vt 0.843750 0.843750
vt 0.812500 0.843750
vt 0.812500 0.906250
vt 0.843750 0.906250
vt 0.062500 0.156250
vt 0.093750 0.156250
vt 0.687500 0.750000
vt 0.687500 0.718750
vt 0.843750 0.750000
vt 0.843750 0.718750
vt 0.312500 0.312500
vt 0.312500 0.281250
vt 0.468750 0.312500
vt 0.468750 0.281250
vt 0.500000 0.843750
vt 0.500000 1.000000
vt 0.562500 0.656250
vt 0.500000 0.812500
vt 0.500000 0.656250
vt 0.812500 0.781250
vt 0.875000 0.812500
vt 0.875000 0.781250
vt 0.187500 0.187500
vt 0.187500 0.156250
vt 0.250000 0.187500
s 1
usemtl Material_0.005
f 1/1/1 3/2/1 2/3/1
f 3/2/1 4/4/1 2/3/1
f 5/5/2 7/6/2 6/7/2
f 7/6/2 8/8/2 6/7/2
f 9/9/3 11/10/3 10/11/3
f 11/10/3 12/12/3 10/11/3
f 13/13/4 15/14/4 14/15/4
f 15/14/4 16/16/4 14/15/4
f 17/17/5 19/18/5 18/19/5
f 19/18/5 20/20/5 18/19/5
f 21/21/6 23/22/6 22/23/6
f 23/22/6 24/24/6 22/23/6
f 25/25/1 27/26/1 26/27/1
f 27/26/1 28/28/1 26/27/1
f 29/29/2 31/30/2 30/31/2
f 31/30/2 32/32/2 30/31/2
f 33/33/3 35/34/3 34/35/3
f 35/34/3 36/36/3 34/35/3
f 37/37/4 39/38/4 38/39/4
f 39/38/4 40/40/4 38/39/4
f 41/41/5 43/42/5 42/43/5
f 43/42/5 44/44/5 42/43/5
f 45/45/6 47/46/6 46/47/6
f 47/46/6 48/48/6 46/47/6
f 49/49/1 51/50/1 50/51/1
f 51/50/1 52/52/1 50/51/1
f 53/53/2 55/54/2 54/55/2
f 55/54/2 56/56/2 54/55/2
f 57/57/3 59/58/3 58/59/3
f 59/58/3 60/60/3 58/59/3
f 61/61/4 63/62/4 62/63/4
f 63/62/4 64/64/4 62/63/4
f 65/65/5 67/66/5 66/67/5
f 67/66/5 68/68/5 66/67/5
f 69/65/6 71/66/6 70/67/6
f 71/66/6 72/68/6 70/67/6
f 73/69/1 75/70/1 74/71/1
f 75/70/1 76/72/1 74/71/1
f 77/73/2 79/74/2 78/75/2
f 79/74/2 80/76/2 78/75/2
f 81/77/3 83/78/3 82/79/3
f 83/78/3 84/80/3 82/79/3
f 85/58/4 87/57/4 86/60/4
f 87/57/4 88/59/4 86/60/4
f 89/81/5 91/65/5 90/82/5
f 91/65/5 92/67/5 90/82/5
f 93/81/6 95/65/6 94/82/6
f 95/65/6 96/67/6 94/82/6
f 97/83/1 99/84/1 98/85/1
f 99/84/1 100/86/1 98/85/1
f 101/87/2 103/88/2 102/89/2
f 103/88/2 104/90/2 102/89/2
f 105/91/3 107/92/3 106/93/3
f 107/92/3 108/94/3 106/93/3
f 109/95/4 111/96/4 110/97/4
f 111/96/4 112/98/4 110/97/4
f 113/99/5 115/100/5 114/101/5
f 115/100/5 116/102/5 114/101/5
f 117/103/6 119/104/6 118/105/6
f 119/104/6 120/106/6 118/105/6
f 121/107/1 123/108/1 122/109/1
f 123/108/1 124/110/1 122/109/1
f 125/111/2 127/112/2 126/113/2
f 127/112/2 128/114/2 126/113/2
f 129/115/3 131/116/3 130/117/3
f 131/116/3 132/118/3 130/117/3
f 133/119/4 135/120/4 134/121/4
f 135/120/4 136/122/4 134/121/4
f 137/123/5 139/124/5 138/125/5
f 139/124/5 140/126/5 138/125/5
f 141/127/6 143/128/6 142/129/6
f 143/128/6 144/130/6 142/129/6
f 145/83/7 147/84/7 146/83/7
f 147/84/7 148/84/7 146/83/7
f 149/83/8 151/84/8 150/83/8
f 151/84/8 152/84/8 150/83/8
f 153/131/9 155/131/9 154/83/9
f 155/131/9 156/83/9 154/83/9
f 157/131/10 159/131/10 158/83/10
f 159/131/10 160/83/10 158/83/10
f 161/132/5 163/133/5 162/134/5
f 163/133/5 164/135/5 162/134/5
f 165/136/6 167/137/6 166/138/6
f 167/137/6 168/139/6 166/138/6
f 169/83/7 171/84/11 170/83/7
f 171/84/11 172/84/11 170/83/7
f 173/83/12 175/84/8 174/83/12
f 175/84/8 176/84/8 174/83/12
f 177/131/9 179/131/9 178/83/13
f 179/131/9 180/83/13 178/83/13
f 181/131/14 183/131/14 182/83/10
f 183/131/14 184/83/10 182/83/10
f 185/140/5 187/141/5 186/142/5
f 187/141/5 188/143/5 186/142/5
f 189/144/6 191/145/6 190/146/6
f 191/145/6 192/147/6 190/146/6
f 193/148/1 195/149/1 194/150/1
f 195/149/1 196/151/1 194/150/1
f 197/152/2 199/153/2 198/154/2
f 199/153/2 200/155/2 198/154/2
f 201/156/3 203/157/3 202/158/3
f 203/157/3 204/159/3 202/158/3
f 205/160/4 207/161/4 206/162/4
f 207/161/4 208/163/4 206/162/4
f 209/164/5 211/165/5 210/166/5
f 211/165/5 212/167/5 210/166/5
f 213/168/6 215/169/6 214/170/6
f 215/169/6 216/171/6 214/170/6
f 217/172/1 219/173/1 218/121/1
f 219/173/1 220/174/1 218/121/1
f 221/173/2 223/175/2 222/174/2
f 223/175/2 224/176/2 222/174/2
f 225/177/3 227/178/3 226/179/3
f 227/178/3 228/180/3 226/179/3
f 229/181/4 231/182/4 230/183/4
f 231/182/4 232/184/4 230/183/4
f 233/185/5 235/183/5 234/186/5
f 235/183/5 236/181/5 234/186/5
f 237/187/6 239/188/6 238/189/6
f 239/188/6 240/190/6 238/189/6
f 241/191/1 243/192/1 242/121/1
f 243/192/1 244/193/1 242/121/1
f 245/173/2 247/175/2 246/174/2
f 247/175/2 248/176/2 246/174/2
f 249/177/3 251/194/3 250/179/3
f 251/194/3 252/195/3 250/179/3
f 253/196/4 255/182/4 254/197/4
f 255/182/4 256/184/4 254/197/4
f 257/185/5 259/198/5 258/186/5
f 259/198/5 260/199/5 258/186/5
f 261/187/6 263/200/6 262/189/6
f 263/200/6 264/201/6 262/189/6
f 265/202/1 267/203/1 266/204/1
f 267/203/1 268/205/1 266/204/1
f 269/206/2 271/207/2 270/208/2
f 271/207/2 272/209/2 270/208/2
f 273/70/3 275/49/3 274/210/3
f 275/49/3 276/211/3 274/210/3
f 277/73/4 279/212/4 278/213/4
f 279/212/4 280/214/4 278/213/4
f 281/184/5 283/215/5 282/216/5
f 283/215/5 284/217/5 282/216/5
f 285/218/6 287/219/6 286/220/6
f 287/219/6 288/117/6 286/220/6
o overlaySolidModel
v 1.331049 2.115385 0.384615
v 1.331818 2.115385 0.384615
v 1.331049 1.346154 0.384615
v 1.331818 1.346154 0.384615
v 1.331818 2.115385 -0.384615
v 1.331049 2.115385 -0.384615
v 1.331818 1.346154 -0.384615
v 1.331049 1.346154 -0.384615
v 1.331818 2.115385 -0.384615
v 1.331818 2.115385 0.384615
v 1.331049 2.115385 -0.384615
v 1.331049 2.115385 0.384615
v 1.331049 1.346154 -0.384615
v 1.331049 1.346154 0.384615
v 1.331818 1.346154 -0.384615
v 1.331818 1.346154 0.384615
v 1.331049 2.115385 -0.384615
v 1.331049 2.115385 0.384615
v 1.331049 1.346154 -0.384615
v 1.331049 1.346154 0.384615
v 1.331818 2.115385 0.384615
v 1.331818 2.115385 -0.384615
v 1.331818 1.346154 0.384615
v 1.331818 1.346154 -0.384615
vn -0.0000 -0.0000 1.0000
vn -0.0000 -0.0000 -1.0000
vn -0.0000 1.0000 -0.0000
vn -0.0000 -1.0000 -0.0000
vn -1.0000 -0.0000 -0.0000
vn 1.0000 -0.0000 -0.0000
vt 0.906250 0.093750
vt 0.906250 0.000000
vt 1.000000 0.093750
vt 1.000000 0.000000
s 1
usemtl Material_0.006
f 289/221/15 291/222/15 290/223/15
f 291/222/15 292/224/15 290/223/15
f 293/221/16 295/222/16 294/223/16
f 295/222/16 296/224/16 294/223/16
f 297/221/17 299/222/17 298/223/17
f 299/222/17 300/224/17 298/223/17
f 301/221/18 303/222/18 302/223/18
f 303/222/18 304/224/18 302/223/18
f 305/221/19 307/222/19 306/223/19
f 307/222/19 308/224/19 306/223/19
f 309/221/20 311/222/20 310/223/20
f 311/222/20 312/224/20 310/223/20
o scopeModel
v 1.357597 2.115385 0.384615
v 1.358366 2.115385 0.384615
v 1.357597 1.346154 0.384615
v 1.358366 1.346154 0.384615
v 1.358366 2.115385 -0.384615
v 1.357597 2.115385 -0.384615
v 1.358366 1.346154 -0.384615
v 1.357597 1.346154 -0.384615
v 1.358366 2.115385 -0.384615
v 1.358366 2.115385 0.384615
v 1.357597 2.115385 -0.384615
v 1.357597 2.115385 0.384615
v 1.357597 1.346154 -0.384615
v 1.357597 1.346154 0.384615
v 1.358366 1.346154 -0.384615
v 1.358366 1.346154 0.384615
v 1.357597 2.115385 -0.384615
v 1.357597 2.115385 0.384615
v 1.357597 1.346154 -0.384615
v 1.357597 1.346154 0.384615
v 1.358366 2.115385 0.384615
v 1.358366 2.115385 -0.384615
v 1.358366 1.346154 0.384615
v 1.358366 1.346154 -0.384615
vn -0.0000 -0.0000 1.0000
vn -0.0000 -0.0000 -1.0000
vn -0.0000 1.0000 -0.0000
vn -0.0000 -1.0000 -0.0000
vn -1.0000 -0.0000 -0.0000
vn 1.0000 -0.0000 -0.0000
vt 0.906250 0.093750
vt 0.906250 0.000000
vt 1.000000 0.093750
vt 1.000000 0.000000
s 1
usemtl Material_0.005
f 313/225/21 315/226/21 314/227/21
f 315/226/21 316/228/21 314/227/21
f 317/225/22 319/226/22 318/227/22
f 319/226/22 320/228/22 318/227/22
f 321/225/23 323/226/23 322/227/23
f 323/226/23 324/228/23 322/227/23
f 325/225/24 327/226/24 326/227/24
f 327/226/24 328/228/24 326/227/24
f 329/225/25 331/226/25 330/227/25
f 331/226/25 332/228/25 330/227/25
f 333/225/26 335/226/26 334/227/26
f 335/226/26 336/228/26 334/227/26
