# Blender 4.2.0
# www.blender.org
mtllib lev.micro.mtl
o attachmentModel
v -0.082608 0.031250 0.046875
v 0.073642 0.031250 0.046875
v -0.082608 0.000000 0.046875
v 0.073642 0.000000 0.046875
v 0.073642 0.031250 -0.046875
v -0.082608 0.031250 -0.046875
v 0.073642 0.000000 -0.046875
v -0.082608 0.000000 -0.046875
v 0.073642 0.031250 -0.046875
v 0.073642 0.031250 0.046875
v -0.082608 0.031250 -0.046875
v -0.082608 0.031250 0.046875
v -0.082608 0.000000 -0.046875
v -0.082608 0.000000 0.046875
v 0.073642 0.000000 -0.046875
v 0.073642 0.000000 0.046875
v -0.082608 0.031250 -0.046875
v -0.082608 0.031250 0.046875
v -0.082608 0.000000 -0.046875
v -0.082608 0.000000 0.046875
v 0.073642 0.031250 0.046875
v 0.073642 0.031250 -0.046875
v 0.073642 0.000000 0.046875
v 0.073642 0.000000 -0.046875
v -0.082608 0.093750 0.031250
v 0.073642 0.093750 0.031250
v -0.082608 0.031250 0.031250
v 0.073642 0.031250 0.031250
v 0.073642 0.093750 -0.031250
v -0.082608 0.093750 -0.031250
v 0.073642 0.031250 -0.031250
v -0.082608 0.031250 -0.031250
v 0.073642 0.093750 -0.031250
v 0.073642 0.093750 0.031250
v -0.082608 0.093750 -0.031250
v -0.082608 0.093750 0.031250
v -0.082608 0.031250 -0.031250
v -0.082608 0.031250 0.031250
v 0.073642 0.031250 -0.031250
v 0.073642 0.031250 0.031250
v -0.082608 0.093750 -0.031250
v -0.082608 0.093750 0.031250
v -0.082608 0.031250 -0.031250
v -0.082608 0.031250 0.031250
v 0.073642 0.093750 0.031250
v 0.073642 0.093750 -0.031250
v 0.073642 0.031250 0.031250
v 0.073642 0.031250 -0.031250
v -0.066983 0.171875 -0.031250
v -0.004483 0.171875 -0.031250
v -0.066983 0.109375 -0.031250
v -0.004483 0.109375 -0.031250
v -0.004483 0.171875 -0.062500
v -0.066983 0.171875 -0.062500
v -0.004483 0.109375 -0.062500
v -0.066983 0.109375 -0.062500
v -0.004483 0.171875 -0.062500
v -0.004483 0.171875 -0.031250
v -0.066983 0.171875 -0.062500
v -0.066983 0.171875 -0.031250
v -0.066983 0.109375 -0.062500
v -0.066983 0.109375 -0.031250
v -0.004483 0.109375 -0.062500
v -0.004483 0.109375 -0.031250
v -0.066983 0.171875 -0.062500
v -0.066983 0.171875 -0.031250
v -0.066983 0.109375 -0.062500
v -0.066983 0.109375 -0.031250
v -0.004483 0.171875 -0.031250
v -0.004483 0.171875 -0.062500
v -0.004483 0.109375 -0.031250
v -0.004483 0.109375 -0.062500
v 0.026767 0.203125 0.015625
v 0.058017 0.203125 0.015625
v 0.026767 0.171875 0.015625
v 0.058017 0.171875 0.015625
v 0.058017 0.203125 -0.015625
v 0.026767 0.203125 -0.015625
v 0.058017 0.171875 -0.015625
v 0.026767 0.171875 -0.015625
v 0.058017 0.203125 -0.015625
v 0.058017 0.203125 0.015625
v 0.026767 0.203125 -0.015625
v 0.026767 0.203125 0.015625
v 0.026767 0.171875 -0.015625
v 0.026767 0.171875 0.015625
v 0.058017 0.171875 -0.015625
v 0.058017 0.171875 0.015625
v 0.026767 0.203125 -0.015625
v 0.026767 0.203125 0.015625
v 0.026767 0.171875 -0.015625
v 0.026767 0.171875 0.015625
v 0.058017 0.203125 0.015625
v 0.058017 0.203125 -0.015625
v 0.058017 0.171875 0.015625
v 0.058017 0.171875 -0.015625
v -0.098295 0.187500 -0.031250
v -0.098233 0.187500 -0.031250
v -0.098295 0.093750 -0.031250
v -0.098233 0.093750 -0.031250
v -0.098233 0.187500 -0.046875
v -0.098295 0.187500 -0.046875
v -0.098233 0.093750 -0.046875
v -0.098295 0.093750 -0.046875
v -0.098233 0.187500 -0.046875
v -0.098233 0.187500 -0.031250
v -0.098295 0.187500 -0.046875
v -0.098295 0.187500 -0.031250
v -0.098295 0.093750 -0.046875
v -0.098295 0.093750 -0.031250
v -0.098233 0.093750 -0.046875
v -0.098233 0.093750 -0.031250
v -0.098295 0.187500 -0.046875
v -0.098295 0.187500 -0.031250
v -0.098295 0.093750 -0.046875
v -0.098295 0.093750 -0.031250
v -0.098233 0.187500 -0.031250
v -0.098233 0.187500 -0.046875
v -0.098233 0.093750 -0.031250
v -0.098233 0.093750 -0.046875
v -0.098295 0.187500 0.046875
v -0.098233 0.187500 0.046875
v -0.098295 0.093750 0.046875
v -0.098233 0.093750 0.046875
v -0.098233 0.187500 0.031250
v -0.098295 0.187500 0.031250
v -0.098233 0.093750 0.031250
v -0.098295 0.093750 0.031250
v -0.098233 0.187500 0.031250
v -0.098233 0.187500 0.046875
v -0.098295 0.187500 0.031250
v -0.098295 0.187500 0.046875
v -0.098295 0.093750 0.031250
v -0.098295 0.093750 0.046875
v -0.098233 0.093750 0.031250
v -0.098233 0.093750 0.046875
v -0.098295 0.187500 0.031250
v -0.098295 0.187500 0.046875
v -0.098295 0.093750 0.031250
v -0.098295 0.093750 0.046875
v -0.098233 0.187500 0.046875
v -0.098233 0.187500 0.031250
v -0.098233 0.093750 0.046875
v -0.098233 0.093750 0.031250
v -0.098295 0.109375 0.031250
v -0.098233 0.109375 0.031250
v -0.098295 0.093750 0.031250
v -0.098233 0.093750 0.031250
v -0.098233 0.109375 -0.031250
v -0.098295 0.109375 -0.031250
v -0.098233 0.093750 -0.031250
v -0.098295 0.093750 -0.031250
v -0.098233 0.109375 -0.031250
v -0.098233 0.109375 0.031250
v -0.098295 0.109375 -0.031250
v -0.098295 0.109375 0.031250
v -0.098295 0.093750 -0.031250
v -0.098295 0.093750 0.031250
v -0.098233 0.093750 -0.031250
v -0.098233 0.093750 0.031250
v -0.098295 0.109375 -0.031250
v -0.098295 0.109375 0.031250
v -0.098295 0.093750 -0.031250
v -0.098295 0.093750 0.031250
v -0.098233 0.109375 0.031250
v -0.098233 0.109375 -0.031250
v -0.098233 0.093750 0.031250
v -0.098233 0.093750 -0.031250
v -0.098295 0.187500 0.031250
v -0.098233 0.187500 0.031250
v -0.098295 0.171875 0.031250
v -0.098233 0.171875 0.031250
v -0.098233 0.187500 -0.031250
v -0.098295 0.187500 -0.031250
v -0.098233 0.171875 -0.031250
v -0.098295 0.171875 -0.031250
v -0.098233 0.187500 -0.031250
v -0.098233 0.187500 0.031250
v -0.098295 0.187500 -0.031250
v -0.098295 0.187500 0.031250
v -0.098295 0.171875 -0.031250
v -0.098295 0.171875 0.031250
v -0.098233 0.171875 -0.031250
v -0.098233 0.171875 0.031250
v -0.098295 0.187500 -0.031250
v -0.098295 0.187500 0.031250
v -0.098295 0.171875 -0.031250
v -0.098295 0.171875 0.031250
v -0.098233 0.187500 0.031250
v -0.098233 0.187500 -0.031250
v -0.098233 0.171875 0.031250
v -0.098233 0.171875 -0.031250
v -0.095170 0.187500 0.046875
v -0.095108 0.187500 0.046875
v -0.095170 0.093750 0.046875
v -0.095108 0.093750 0.046875
v -0.095108 0.187500 -0.046875
v -0.095170 0.187500 -0.046875
v -0.095108 0.093750 -0.046875
v -0.095170 0.093750 -0.046875
v -0.095108 0.187500 -0.046875
v -0.095108 0.187500 0.046875
v -0.095170 0.187500 -0.046875
v -0.095170 0.187500 0.046875
v -0.095170 0.093750 -0.046875
v -0.095170 0.093750 0.046875
v -0.095108 0.093750 -0.046875
v -0.095108 0.093750 0.046875
v -0.095170 0.187500 -0.046875
v -0.095170 0.187500 0.046875
v -0.095170 0.093750 -0.046875
v -0.095170 0.093750 0.046875
v -0.095108 0.187500 0.046875
v -0.095108 0.187500 -0.046875
v -0.095108 0.093750 0.046875
v -0.095108 0.093750 -0.046875
v -0.098233 0.187500 0.046875
v 0.089267 0.187500 0.046875
v -0.098233 0.093750 0.046875
v 0.089267 0.093750 0.046875
v 0.089267 0.187500 -0.046875
v -0.098233 0.187500 -0.046875
v 0.089267 0.093750 -0.046875
v -0.098233 0.093750 -0.046875
v 0.089267 0.187500 -0.046875
v 0.089267 0.187500 0.046875
v -0.098233 0.187500 -0.046875
v -0.098233 0.187500 0.046875
v -0.098233 0.093750 -0.046875
v -0.098233 0.093750 0.046875
v 0.089267 0.093750 -0.046875
v 0.089267 0.093750 0.046875
v 0.089267 0.187500 0.046875
v 0.089267 0.187500 -0.046875
v 0.089267 0.093750 0.046875
v 0.089267 0.093750 -0.046875
vn -0.0000 -0.0000 1.0000
vn -0.0000 -0.0000 -1.0000
vn -0.0000 1.0000 -0.0000
vn -0.0000 -1.0000 -0.0000
vn -1.0000 -0.0000 -0.0000
vn 1.0000 -0.0000 -0.0000
vt 0.000000 0.562500
vt 0.000000 0.531250
vt 0.156250 0.562500
vt 0.156250 0.531250
vt 0.437500 1.000000
vt 0.437500 0.968750
vt 0.593750 1.000000
vt 0.593750 0.968750
vt 0.093750 0.593750
vt 0.093750 0.750000
vt 0.000000 0.593750
vt 0.000000 0.750000
vt 0.406250 1.000000
vt 0.406250 0.843750
vt 0.312500 1.000000
vt 0.312500 0.843750
vt 0.500000 0.937500
vt 0.500000 0.906250
vt 0.593750 0.937500
vt 0.593750 0.906250
vt 0.000000 0.500000
vt 0.000000 0.468750
vt 0.093750 0.500000
vt 0.093750 0.468750
vt 0.312500 0.812500
vt 0.312500 0.750000
vt 0.468750 0.812500
vt 0.468750 0.750000
vt 0.312500 0.687500
vt 0.468750 0.687500
vt 0.187500 0.593750
vt 0.187500 0.750000
vt 0.125000 0.593750
vt 0.125000 0.750000
vt 0.375000 0.687500
vt 0.375000 0.531250
vt 0.312500 0.531250
vt 0.437500 0.562500
vt 0.437500 0.500000
vt 0.500000 0.562500
vt 0.500000 0.500000
vt 0.375000 0.562500
vt 0.375000 0.500000
vt 0.437500 0.937500
vt 0.437500 0.875000
vt 0.500000 0.875000
vt 0.437500 0.812500
vt 0.500000 0.812500
vt 0.218750 0.437500
vt 0.218750 0.500000
vt 0.187500 0.437500
vt 0.187500 0.500000
vt 0.531250 0.812500
vt 0.531250 0.750000
vt 0.500000 0.750000
vt 0.531250 0.875000
vt 0.125000 0.500000
vt 0.125000 0.437500
vt 0.156250 0.500000
vt 0.156250 0.437500
vt 0.500000 0.718750
vt 0.531250 0.718750
vt 0.500000 0.687500
vt 0.500000 0.656250
vt 0.531250 0.687500
vt 0.531250 0.656250
vt 0.406250 0.468750
vt 0.406250 0.500000
vt 0.375000 0.468750
vt 0.531250 0.625000
vt 0.531250 0.593750
vt 0.500000 0.625000
vt 0.500000 0.593750
vt 0.312500 0.500000
vt 0.312500 0.468750
vt 0.343750 0.500000
vt 0.343750 0.468750
vt 0.250000 0.500000
vt 0.250000 0.468750
vt 0.281250 0.500000
vt 0.281250 0.468750
vt 0.000000 1.000000
vt 0.000000 0.906250
vt 0.187500 1.000000
vt 0.187500 0.906250
vt 0.000000 0.875000
vt 0.000000 0.781250
vt 0.187500 0.875000
vt 0.187500 0.781250
vt 0.281250 0.812500
vt 0.281250 1.000000
vt 0.187500 0.812500
vt 0.281250 0.625000
vt 0.187500 0.625000
vt 0.906250 1.000000
vt 0.906250 0.906250
vt 1.000000 1.000000
vt 1.000000 0.906250
vt 0.187500 0.531250
vt 0.281250 0.531250
s 0
usemtl Material_0
f 1/1/1 3/2/1 2/3/1
f 3/2/1 4/4/1 2/3/1
f 5/5/2 7/6/2 6/7/2
f 7/6/2 8/8/2 6/7/2
f 9/9/3 11/10/3 10/11/3
f 11/10/3 12/12/3 10/11/3
f 13/13/4 15/14/4 14/15/4
f 15/14/4 16/16/4 14/15/4
f 17/17/5 19/18/5 18/19/5
f 19/18/5 20/20/5 18/19/5
f 21/21/6 23/22/6 22/23/6
f 23/22/6 24/24/6 22/23/6
f 25/25/1 27/26/1 26/27/1
f 27/26/1 28/28/1 26/27/1
f 29/26/2 31/29/2 30/28/2
f 31/29/2 32/30/2 30/28/2
f 33/31/3 35/32/3 34/33/3
f 35/32/3 36/34/3 34/33/3
f 37/35/4 39/36/4 38/29/4
f 39/36/4 40/37/4 38/29/4
f 41/38/5 43/39/5 42/40/5
f 43/39/5 44/41/5 42/40/5
f 45/42/6 47/43/6 46/38/6
f 47/43/6 48/39/6 46/38/6
f 49/44/1 51/45/1 50/17/1
f 51/45/1 52/46/1 50/17/1
f 53/45/2 55/47/2 54/46/2
f 55/47/2 56/48/2 54/46/2
f 57/49/3 59/50/3 58/51/3
f 59/50/3 60/52/3 58/51/3
f 61/53/4 63/54/4 62/48/4
f 63/54/4 64/55/4 62/48/4
f 65/46/5 67/48/5 66/56/5
f 67/48/5 68/53/5 66/56/5
f 69/57/6 71/58/6 70/59/6
f 71/58/6 72/60/6 70/59/6
f 73/55/1 75/61/1 74/54/1
f 75/61/1 76/62/1 74/54/1
f 77/63/2 79/64/2 78/65/2
f 79/64/2 80/66/2 78/65/2
f 81/67/3 83/68/3 82/69/3
f 83/68/3 84/43/3 82/69/3
f 85/70/4 87/71/4 86/72/4
f 87/71/4 88/73/4 86/72/4
f 89/74/5 91/75/5 90/76/5
f 91/75/5 92/77/5 90/76/5
f 93/78/6 95/79/6 94/80/6
f 95/79/6 96/81/6 94/80/6
f 97/82/1 99/83/1 98/84/1
f 99/83/1 100/85/1 98/84/1
f 101/86/2 103/87/2 102/88/2
f 103/87/2 104/89/2 102/88/2
f 105/90/3 107/91/3 106/92/3
f 107/91/3 108/84/3 106/92/3
f 109/90/4 111/93/4 110/92/4
f 111/93/4 112/94/4 110/92/4
f 113/95/5 115/96/5 114/97/5
f 115/96/5 116/98/5 114/97/5
f 117/94/6 119/99/6 118/93/6
f 119/99/6 120/100/6 118/93/6
f 121/82/1 123/83/1 122/84/1
f 123/83/1 124/85/1 122/84/1
f 125/86/2 127/87/2 126/88/2
f 127/87/2 128/89/2 126/88/2
f 129/90/3 131/91/3 130/92/3
f 131/91/3 132/84/3 130/92/3
f 133/90/4 135/93/4 134/92/4
f 135/93/4 136/94/4 134/92/4
f 137/95/5 139/96/5 138/97/5
f 139/96/5 140/98/5 138/97/5
f 141/94/6 143/99/6 142/93/6
f 143/99/6 144/100/6 142/93/6
f 145/82/1 147/83/1 146/84/1
f 147/83/1 148/85/1 146/84/1
f 149/86/2 151/87/2 150/88/2
f 151/87/2 152/89/2 150/88/2
f 153/90/3 155/91/3 154/92/3
f 155/91/3 156/84/3 154/92/3
f 157/90/4 159/93/4 158/92/4
f 159/93/4 160/94/4 158/92/4
f 161/95/5 163/96/5 162/97/5
f 163/96/5 164/98/5 162/97/5
f 165/94/6 167/99/6 166/93/6
f 167/99/6 168/100/6 166/93/6
f 169/82/1 171/83/1 170/84/1
f 171/83/1 172/85/1 170/84/1
f 173/86/2 175/87/2 174/88/2
f 175/87/2 176/89/2 174/88/2
f 177/90/3 179/91/3 178/92/3
f 179/91/3 180/84/3 178/92/3
f 181/90/4 183/93/4 182/92/4
f 183/93/4 184/94/4 182/92/4
f 185/95/5 187/96/5 186/97/5
f 187/96/5 188/98/5 186/97/5
f 189/94/6 191/99/6 190/93/6
f 191/99/6 192/100/6 190/93/6
f 193/82/1 195/83/1 194/84/1
f 195/83/1 196/85/1 194/84/1
f 197/86/2 199/87/2 198/88/2
f 199/87/2 200/89/2 198/88/2
f 201/90/3 203/91/3 202/92/3
f 203/91/3 204/84/3 202/92/3
f 205/90/4 207/93/4 206/92/4
f 207/93/4 208/94/4 206/92/4
f 209/94/5 211/99/5 210/93/5
f 211/99/5 212/100/5 210/93/5
f 213/94/6 215/99/6 214/93/6
f 215/99/6 216/100/6 214/93/6
f 217/82/1 219/83/1 218/84/1
f 219/83/1 220/85/1 218/84/1
f 221/86/2 223/87/2 222/88/2
f 223/87/2 224/89/2 222/88/2
f 225/90/3 227/91/3 226/92/3
f 227/91/3 228/84/3 226/92/3
f 229/90/4 231/93/4 230/92/4
f 231/93/4 232/94/4 230/92/4
f 233/94/6 235/99/6 234/93/6
f 235/99/6 236/100/6 234/93/6
o scopeModel
v -0.097051 0.187500 0.046875
v -0.096989 0.187500 0.046875
v -0.097051 0.093750 0.046875
v -0.096989 0.093750 0.046875
v -0.096989 0.187500 -0.046875
v -0.097051 0.187500 -0.046875
v -0.096989 0.093750 -0.046875
v -0.097051 0.093750 -0.046875
v -0.096989 0.187500 -0.046875
v -0.096989 0.187500 0.046875
v -0.097051 0.187500 -0.046875
v -0.097051 0.187500 0.046875
v -0.097051 0.093750 -0.046875
v -0.097051 0.093750 0.046875
v -0.096989 0.093750 -0.046875
v -0.096989 0.093750 0.046875
v -0.097051 0.187500 -0.046875
v -0.097051 0.187500 0.046875
v -0.097051 0.093750 -0.046875
v -0.097051 0.093750 0.046875
v -0.096989 0.187500 0.046875
v -0.096989 0.187500 -0.046875
v -0.096989 0.093750 0.046875
v -0.096989 0.093750 -0.046875
vn -0.0000 -0.0000 1.0000
vn -0.0000 -0.0000 -1.0000
vn -0.0000 1.0000 -0.0000
vn -0.0000 -1.0000 -0.0000
vn -1.0000 -0.0000 -0.0000
vn 1.0000 -0.0000 -0.0000
vt 0.281250 0.093750
vt 0.281250 0.000000
vt 0.375000 0.093750
vt 0.375000 0.000000
s 0
usemtl Material_0
f 237/101/7 239/102/7 238/103/7
f 239/102/7 240/104/7 238/103/7
f 241/101/8 243/102/8 242/103/8
f 243/102/8 244/104/8 242/103/8
f 245/101/9 247/102/9 246/103/9
f 247/102/9 248/104/9 246/103/9
f 249/101/10 251/102/10 250/103/10
f 251/102/10 252/104/10 250/103/10
f 253/101/11 255/102/11 254/103/11
f 255/102/11 256/104/11 254/103/11
f 257/101/12 259/102/12 258/103/12
f 259/102/12 260/104/12 258/103/12
o overlaySolidModel
v -0.097725 0.187500 0.046875
v -0.097663 0.187500 0.046875
v -0.097725 0.093750 0.046875
v -0.097663 0.093750 0.046875
v -0.097663 0.187500 -0.046875
v -0.097725 0.187500 -0.046875
v -0.097663 0.093750 -0.046875
v -0.097725 0.093750 -0.046875
v -0.097663 0.187500 -0.046875
v -0.097663 0.187500 0.046875
v -0.097725 0.187500 -0.046875
v -0.097725 0.187500 0.046875
v -0.097725 0.093750 -0.046875
v -0.097725 0.093750 0.046875
v -0.097663 0.093750 -0.046875
v -0.097663 0.093750 0.046875
v -0.097725 0.187500 -0.046875
v -0.097725 0.187500 0.046875
v -0.097725 0.093750 -0.046875
v -0.097725 0.093750 0.046875
v -0.097663 0.187500 0.046875
v -0.097663 0.187500 -0.046875
v -0.097663 0.093750 0.046875
v -0.097663 0.093750 -0.046875
vn -0.0000 -0.0000 1.0000
vn -0.0000 -0.0000 -1.0000
vn -0.0000 1.0000 -0.0000
vn -0.0000 -1.0000 -0.0000
vn -1.0000 -0.0000 -0.0000
vn 1.0000 -0.0000 -0.0000
vt 0.912177 0.087823
vt 0.912177 0.005927
vt 0.994073 0.087823
vt 0.994073 0.005927
vt 0.906250 0.093750
vt 0.906250 0.000000
vt 1.000000 0.093750
vt 1.000000 0.000000
s 0
usemtl Material_0
f 261/105/13 263/106/13 262/107/13
f 263/106/13 264/108/13 262/107/13
f 265/105/14 267/106/14 266/107/14
f 267/106/14 268/108/14 266/107/14
f 269/105/15 271/106/15 270/107/15
f 271/106/15 272/108/15 270/107/15
f 273/109/16 275/110/16 274/111/16
f 275/110/16 276/112/16 274/111/16
f 277/105/17 279/106/17 278/107/17
f 279/106/17 280/108/17 278/107/17
f 281/105/18 283/106/18 282/107/18
f 283/106/18 284/108/18 282/107/18
