# Blender 4.2.2 LTS
# www.blender.org
mtllib lev.mp5stock.mtl
o attachmentModel
v 0.583077 1.546923 1.153846
v 0.583077 1.546923 0.000000
v 0.583077 -1.160769 1.153846
v 0.583077 -1.160769 0.000000
v -0.578462 1.546923 0.000000
v -0.578462 1.546923 1.153846
v -0.578462 -1.160769 0.000000
v -0.578462 -1.160769 1.153846
v -0.578462 1.546923 0.000000
v 0.583077 1.546923 0.000000
v -0.578462 1.546923 1.153846
v 0.583077 1.546923 1.153846
v -0.578462 -1.160769 1.153846
v 0.583077 -1.160769 1.153846
v -0.578462 -1.160769 0.000000
v 0.583077 -1.160769 0.000000
v -0.578462 1.546923 1.153846
v 0.583077 1.546923 1.153846
v -0.578462 -1.160769 1.153846
v 0.583077 -1.160769 1.153846
v 0.583077 1.546923 0.000000
v -0.578462 1.546923 0.000000
v 0.583077 -1.160769 0.000000
v -0.578462 -1.160769 0.000000
v 0.775385 1.154615 1.153846
v 0.775385 1.154615 -0.384615
v 0.775385 -0.383846 1.153846
v 0.775385 -0.383846 -0.384615
v -0.770769 1.154615 -0.384615
v -0.770769 1.154615 1.153846
v -0.770769 -0.383846 -0.384615
v -0.770769 -0.383846 1.153846
v -0.770769 1.154615 -0.384615
v 0.775385 1.154615 -0.384615
v -0.770769 1.154615 1.153846
v 0.775385 1.154615 1.153846
v -0.770769 -0.383846 1.153846
v 0.775385 -0.383846 1.153846
v -0.770769 -0.383846 -0.384615
v 0.775385 -0.383846 -0.384615
v -0.770769 1.154615 1.153846
v 0.775385 1.154615 1.153846
v -0.770769 -0.383846 1.153846
v 0.775385 -0.383846 1.153846
v 0.775385 1.154615 -0.384615
v -0.770769 1.154615 -0.384615
v 0.775385 -0.383846 -0.384615
v -0.770769 -0.383846 -0.384615
v 0.390769 0.723338 1.969739
v 0.390769 1.539231 1.153847
v 0.390769 -0.092554 1.153846
v 0.390769 0.723338 0.337954
v -0.386154 1.539231 1.153847
v -0.386154 0.723338 1.969739
v -0.386154 0.723338 0.337954
v -0.386154 -0.092554 1.153846
v -0.386154 1.539231 1.153847
v 0.390769 1.539231 1.153847
v -0.386154 0.723338 1.969739
v 0.390769 0.723338 1.969739
v -0.386154 -0.092554 1.153846
v 0.390769 -0.092554 1.153846
v -0.386154 0.723338 0.337954
v 0.390769 0.723338 0.337954
v -0.386154 0.723338 1.969739
v 0.390769 0.723338 1.969739
v -0.386154 -0.092554 1.153846
v 0.390769 -0.092554 1.153846
v 0.390769 1.539231 1.153847
v -0.386154 1.539231 1.153847
v 0.390769 0.723338 0.337954
v -0.386154 0.723338 0.337954
v 0.583077 0.770000 2.307692
v 0.583077 0.770000 1.153846
v 0.583077 -0.768462 2.307692
v 0.583077 -0.768462 1.153846
v -0.578462 0.770000 1.153846
v -0.578462 0.770000 2.307692
v -0.578462 -0.768462 1.153846
v -0.578462 -0.768462 2.307692
v -0.578462 0.770000 1.153846
v 0.583077 0.770000 1.153846
v -0.578462 0.770000 2.307692
v 0.583077 0.770000 2.307692
v -0.578462 -0.768462 2.307692
v 0.583077 -0.768462 2.307692
v -0.578462 -0.768462 1.153846
v 0.583077 -0.768462 1.153846
v -0.578462 0.770000 2.307692
v 0.583077 0.770000 2.307692
v -0.578462 -0.768462 2.307692
v 0.583077 -0.768462 2.307692
v 0.583077 0.770000 1.153846
v -0.578462 0.770000 1.153846
v 0.583077 -0.768462 1.153846
v -0.578462 -0.768462 1.153846
v 0.583077 0.770000 7.307693
v 0.583077 0.770000 2.307692
v 0.583077 -0.768462 7.307693
v 0.583077 -0.768462 2.307692
v -0.578462 0.770000 2.307692
v -0.578462 0.770000 7.307693
v -0.578462 -0.768462 2.307692
v -0.578462 -0.768462 7.307693
v -0.578462 0.770000 2.307692
v 0.583077 0.770000 2.307692
v -0.578462 0.770000 7.307693
v 0.583077 0.770000 7.307693
v -0.578462 -0.768462 7.307693
v 0.583077 -0.768462 7.307693
v -0.578462 -0.768462 2.307692
v 0.583077 -0.768462 2.307692
v -0.578462 0.770000 7.307693
v 0.583077 0.770000 7.307693
v -0.578462 -0.768462 7.307693
v 0.583077 -0.768462 7.307693
v 0.583077 0.770000 2.307692
v -0.578462 0.770000 2.307692
v 0.583077 -0.768462 2.307692
v -0.578462 -0.768462 2.307692
v 0.583077 -0.768462 7.307693
v 0.583077 -0.768462 6.153846
v 0.583077 -2.306923 7.307693
v 0.583077 -2.306923 6.153846
v -0.578462 -0.768462 6.153846
v -0.578462 -0.768462 7.307693
v -0.578462 -2.306923 6.153846
v -0.578462 -2.306923 7.307693
v -0.578462 -0.768462 6.153846
v 0.583077 -0.768462 6.153846
v -0.578462 -0.768462 7.307693
v 0.583077 -0.768462 7.307693
v -0.578462 -2.306923 7.307693
v 0.583077 -2.306923 7.307693
v -0.578462 -2.306923 6.153846
v 0.583077 -2.306923 6.153846
v -0.578462 -0.768462 7.307693
v 0.583077 -0.768462 7.307693
v -0.578462 -2.306923 7.307693
v 0.583077 -2.306923 7.307693
v 0.583077 -0.768462 6.153846
v -0.578462 -0.768462 6.153846
v 0.583077 -2.306923 6.153846
v -0.578462 -2.306923 6.153846
v 0.576923 -0.885629 6.742885
v 0.576923 0.733417 2.834163
v 0.576923 -2.306982 6.154140
v 0.576923 -0.687937 2.245420
v -0.576923 0.733417 2.834163
v -0.576923 -0.885629 6.742885
v -0.576923 -0.687937 2.245420
v -0.576923 -2.306982 6.154140
v -0.576923 0.733417 2.834163
v 0.576923 0.733417 2.834163
v -0.576923 -0.885629 6.742885
v 0.576923 -0.885629 6.742885
v -0.576923 -2.306982 6.154140
v 0.576923 -2.306982 6.154140
v -0.576923 -0.687937 2.245420
v 0.576923 -0.687937 2.245420
v -0.576923 -0.885629 6.742885
v 0.576923 -0.885629 6.742885
v -0.576923 -2.306982 6.154140
v 0.576923 -2.306982 6.154140
v 0.576923 0.733417 2.834163
v -0.576923 0.733417 2.834163
v 0.576923 -0.687937 2.245420
v -0.576923 -0.687937 2.245420
vn 1.0000 -0.0000 -0.0000
vn -1.0000 -0.0000 -0.0000
vn -0.0000 1.0000 -0.0000
vn -0.0000 -1.0000 -0.0000
vn -0.0000 -0.0000 1.0000
vn -0.0000 -0.0000 -1.0000
vn -0.0000 0.7071 0.7071
vn -0.0000 -0.7071 -0.7071
vn -0.0000 -0.7071 0.7071
vn -0.0000 0.7071 -0.7071
vn -0.0000 0.9239 0.3827
vn -0.0000 -0.9239 -0.3827
vn -0.0000 -0.3827 0.9239
vn -0.0000 0.3827 -0.9239
vt 0.187500 0.656250
vt 0.187500 0.601562
vt 0.210938 0.656250
vt 0.210938 0.601562
vt 0.343750 0.765625
vt 0.343750 0.710938
vt 0.367188 0.765625
vt 0.367188 0.710938
vt 0.210938 0.476562
vt 0.210938 0.500000
vt 0.187500 0.476562
vt 0.187500 0.500000
vt 0.242188 0.500000
vt 0.242188 0.476562
vt 0.218750 0.500000
vt 0.218750 0.476562
vt 0.218750 0.656250
vt 0.218750 0.601562
vt 0.242188 0.656250
vt 0.242188 0.601562
vt 0.320312 0.789062
vt 0.320312 0.765625
vt 0.328125 0.789062
vt 0.328125 0.765625
vt 0.125000 0.578125
vt 0.125000 0.546875
vt 0.156250 0.578125
vt 0.156250 0.546875
vt 0.421875 0.703125
vt 0.421875 0.671875
vt 0.453125 0.703125
vt 0.453125 0.671875
vt 0.343750 0.546875
vt 0.343750 0.578125
vt 0.312500 0.546875
vt 0.312500 0.578125
vt 0.375000 0.578125
vt 0.375000 0.546875
vt 0.421875 0.781250
vt 0.421875 0.750000
vt 0.453125 0.781250
vt 0.453125 0.750000
vt 0.062500 0.578125
vt 0.062500 0.546875
vt 0.093750 0.578125
vt 0.093750 0.546875
vt 0.500000 0.875000
vt 0.500000 0.851562
vt 0.523438 0.875000
vt 0.523438 0.851562
vt 0.500000 0.843750
vt 0.500000 0.820312
vt 0.523438 0.843750
vt 0.523438 0.820312
vt 0.156250 0.429688
vt 0.156250 0.453125
vt 0.140625 0.429688
vt 0.140625 0.453125
vt 0.171875 0.453125
vt 0.171875 0.429688
vt 0.125000 0.453125
vt 0.125000 0.429688
vt 0.046875 0.453125
vt 0.046875 0.429688
vt 0.062500 0.453125
vt 0.062500 0.429688
vt 0.476562 0.703125
vt 0.476562 0.671875
vt 0.343750 0.515625
vt 0.367188 0.546875
vt 0.367188 0.515625
vt 0.523438 0.742188
vt 0.523438 0.765625
vt 0.500000 0.742188
vt 0.500000 0.765625
vt 0.273438 0.500000
vt 0.273438 0.476562
vt 0.250000 0.500000
vt 0.250000 0.476562
vt 0.312500 0.515625
vt 0.335938 0.546875
vt 0.335938 0.515625
vt 0.453125 0.796875
vt 0.453125 0.765625
vt 0.476562 0.796875
vt 0.476562 0.765625
vt 0.125000 0.875000
vt 0.125000 0.843750
vt 0.226562 0.875000
vt 0.226562 0.843750
vt 0.125000 0.812500
vt 0.226562 0.812500
vt 0.148438 0.710938
vt 0.148438 0.812500
vt 0.125000 0.710938
vt 0.179688 0.812500
vt 0.179688 0.710938
vt 0.156250 0.812500
vt 0.156250 0.710938
vt 0.453125 0.578125
vt 0.453125 0.546875
vt 0.476562 0.578125
vt 0.476562 0.546875
vt 0.453125 0.609375
vt 0.476562 0.609375
vt 0.468750 0.875000
vt 0.468750 0.843750
vt 0.492188 0.875000
vt 0.492188 0.843750
vt 0.218750 0.531250
vt 0.242188 0.531250
vt 0.523438 0.710938
vt 0.523438 0.734375
vt 0.500000 0.710938
vt 0.500000 0.734375
vt 0.398438 0.500000
vt 0.398438 0.476562
vt 0.375000 0.500000
vt 0.375000 0.476562
vt 0.187500 0.531250
vt 0.210938 0.531250
vt 0.453125 0.515625
vt 0.476562 0.515625
vt 0.187500 1.000000
vt 0.187500 0.968750
vt 0.273438 1.000000
vt 0.273438 0.968750
vt 0.187500 0.937500
vt 0.273438 0.937500
vt 0.210938 0.726562
vt 0.210938 0.812500
vt 0.187500 0.726562
vt 0.187500 0.812500
vt 0.242188 0.812500
vt 0.242188 0.726562
vt 0.218750 0.812500
vt 0.218750 0.726562
vt 0.468750 0.734375
vt 0.468750 0.703125
vt 0.492188 0.734375
vt 0.492188 0.703125
vt 0.468750 0.765625
vt 0.492188 0.765625
s 0
usemtl Material_0.003
f 1/1/1 3/2/1 2/3/1
f 3/2/1 4/4/1 2/3/1
f 5/5/2 7/6/2 6/7/2
f 7/6/2 8/8/2 6/7/2
f 9/9/3 11/10/3 10/11/3
f 11/10/3 12/12/3 10/11/3
f 13/13/4 15/14/4 14/15/4
f 15/14/4 16/16/4 14/15/4
f 17/17/5 19/18/5 18/19/5
f 19/18/5 20/20/5 18/19/5
f 21/21/6 23/22/6 22/23/6
f 23/22/6 24/24/6 22/23/6
f 25/25/1 27/26/1 26/27/1
f 27/26/1 28/28/1 26/27/1
f 29/29/2 31/30/2 30/31/2
f 31/30/2 32/32/2 30/31/2
f 33/33/3 35/34/3 34/35/3
f 35/34/3 36/36/3 34/35/3
f 37/37/4 39/38/4 38/34/4
f 39/38/4 40/33/4 38/34/4
f 41/39/5 43/40/5 42/41/5
f 43/40/5 44/42/5 42/41/5
f 45/43/6 47/44/6 46/45/6
f 47/44/6 48/46/6 46/45/6
f 49/47/1 51/48/1 50/49/1
f 51/48/1 52/50/1 50/49/1
f 53/51/2 55/52/2 54/53/2
f 55/52/2 56/54/2 54/53/2
f 57/55/7 59/56/7 58/57/7
f 59/56/7 60/58/7 58/57/7
f 61/59/8 63/60/8 62/56/8
f 63/60/8 64/55/8 62/56/8
f 65/61/9 67/62/9 66/58/9
f 67/62/9 68/57/9 66/58/9
f 69/63/10 71/64/10 70/65/10
f 71/64/10 72/66/10 70/65/10
f 73/31/1 75/32/1 74/67/1
f 75/32/1 76/68/1 74/67/1
f 77/33/2 79/69/2 78/70/2
f 79/69/2 80/71/2 78/70/2
f 81/72/3 83/73/3 82/74/3
f 83/73/3 84/75/3 82/74/3
f 85/76/4 87/77/4 86/78/4
f 87/77/4 88/79/4 86/78/4
f 89/35/5 91/80/5 90/81/5
f 91/80/5 92/82/5 90/81/5
f 93/83/6 95/84/6 94/85/6
f 95/84/6 96/86/6 94/85/6
f 97/87/1 99/88/1 98/89/1
f 99/88/1 100/90/1 98/89/1
f 101/88/2 103/91/2 102/90/2
f 103/91/2 104/92/2 102/90/2
f 105/93/3 107/94/3 106/95/3
f 107/94/3 108/91/3 106/95/3
f 109/96/4 111/97/4 110/98/4
f 111/97/4 112/99/4 110/98/4
f 113/100/5 115/101/5 114/102/5
f 115/101/5 116/103/5 114/102/5
f 117/104/6 119/100/6 118/105/6
f 119/100/6 120/102/6 118/105/6
f 121/106/1 123/107/1 122/108/1
f 123/107/1 124/109/1 122/108/1
f 125/110/2 127/15/2 126/111/2
f 127/15/2 128/13/2 126/111/2
f 129/112/3 131/113/3 130/114/3
f 131/113/3 132/115/3 130/114/3
f 133/116/4 135/117/4 134/118/4
f 135/117/4 136/119/4 134/118/4
f 137/120/5 139/12/5 138/121/5
f 139/12/5 140/10/5 138/121/5
f 141/101/6 143/122/6 142/103/6
f 143/122/6 144/123/6 142/103/6
f 145/124/1 147/125/1 146/126/1
f 147/125/1 148/127/1 146/126/1
f 149/125/2 151/128/2 150/127/2
f 151/128/2 152/129/2 150/127/2
f 153/130/11 155/131/11 154/132/11
f 155/131/11 156/133/11 154/132/11
f 157/134/12 159/135/12 158/136/12
f 159/135/12 160/137/12 158/136/12
f 161/138/13 163/139/13 162/140/13
f 163/139/13 164/141/13 162/140/13
f 165/142/14 167/138/14 166/143/14
f 167/138/14 168/140/14 166/143/14
