# Blender 5.0.1
# www.blender.org
mtllib lev.kacfsar10.mtl
o attachmentModel
v 0.384615 0.543928 -0.000000
v 0.769231 0.543928 -0.000000
v 0.384616 0.000000 0.543928
v 0.769231 0.000000 0.543928
v 0.769231 -0.000000 -0.543928
v 0.384615 -0.000000 -0.543928
v 0.769231 -0.543928 -0.000000
v 0.384615 -0.543928 0.000000
v 0.769231 -0.000000 -0.543928
v 0.769231 0.543928 -0.000000
v 0.384615 -0.000000 -0.543928
v 0.384615 0.543928 -0.000000
v 0.384615 -0.543928 0.000000
v 0.384616 0.000000 0.543928
v 0.769231 -0.543928 -0.000000
v 0.769231 0.000000 0.543928
v 0.384615 -0.000000 -0.543928
v 0.384615 0.543928 -0.000000
v 0.384615 -0.543928 0.000000
v 0.384616 0.000000 0.543928
v 0.769231 0.543928 -0.000000
v 0.769231 -0.000000 -0.543928
v 0.769231 0.000000 0.543928
v 0.769231 -0.543928 -0.000000
v 2.306923 0.543928 -0.000000
v 2.307693 0.543928 -0.000000
v 2.306923 0.000000 0.543928
v 2.307693 0.000000 0.543928
v 2.307693 -0.000000 -0.543929
v 2.306923 -0.000000 -0.543929
v 2.307693 -0.543928 -0.000000
v 2.306923 -0.543928 -0.000000
v 2.307693 -0.000000 -0.543929
v 2.307693 0.543928 -0.000000
v 2.306923 -0.000000 -0.543929
v 2.306923 0.543928 -0.000000
v 2.306923 -0.543928 -0.000000
v 2.306923 0.000000 0.543928
v 2.307693 -0.543928 -0.000000
v 2.307693 0.000000 0.543928
v 2.306923 -0.000000 -0.543929
v 2.306923 0.543928 -0.000000
v 2.306923 -0.543928 -0.000000
v 2.306923 0.000000 0.543928
v 2.307693 0.543928 -0.000000
v 2.307693 -0.000000 -0.543929
v 2.307693 0.000000 0.543928
v 2.307693 -0.543928 -0.000000
v 0.769231 0.000544 -0.543384
v 2.307693 0.000544 -0.543385
v 0.769231 -0.543384 0.000544
v 2.307693 -0.543384 0.000544
v 2.307693 -0.000000 -0.543929
v 0.769231 -0.000000 -0.543928
v 2.307693 -0.543928 -0.000000
v 0.769231 -0.543928 -0.000000
v 2.307693 -0.000000 -0.543929
v 2.307693 0.000544 -0.543385
v 0.769231 -0.000000 -0.543928
v 0.769231 0.000544 -0.543384
v 0.769231 -0.543928 -0.000000
v 0.769231 -0.543384 0.000544
v 2.307693 -0.543928 -0.000000
v 2.307693 -0.543384 0.000544
v 0.769231 -0.000000 -0.543928
v 0.769231 0.000544 -0.543384
v 0.769231 -0.543928 -0.000000
v 0.769231 -0.543384 0.000544
v 2.307693 0.000544 -0.543385
v 2.307693 -0.000000 -0.543929
v 2.307693 -0.543384 0.000544
v 2.307693 -0.543928 -0.000000
v 0.769231 0.544472 0.000544
v 2.307693 0.544472 0.000544
v 0.769231 0.000544 0.544472
v 2.307693 0.000544 0.544472
v 2.307693 0.543928 -0.000000
v 0.769231 0.543928 -0.000000
v 2.307693 0.000000 0.543928
v 0.769231 0.000000 0.543928
v 2.307693 0.543928 -0.000000
v 2.307693 0.544472 0.000544
v 0.769231 0.543928 -0.000000
v 0.769231 0.544472 0.000544
v 0.769231 0.000000 0.543928
v 0.769231 0.000544 0.544472
v 2.307693 0.000000 0.543928
v 2.307693 0.000544 0.544472
v 0.769231 0.543928 -0.000000
v 0.769231 0.544472 0.000544
v 0.769231 0.000000 0.543928
v 0.769231 0.000544 0.544472
v 2.307693 0.544472 0.000544
v 2.307693 0.543928 -0.000000
v 2.307693 0.000544 0.544472
v 2.307693 0.000000 0.543928
v -0.000000 0.384615 0.384615
v 0.384615 0.384615 0.384615
v 0.000000 -0.384615 0.384615
v 0.384615 -0.384615 0.384615
v 0.384615 0.384615 -0.384615
v -0.000000 0.384615 -0.384615
v 0.384615 -0.384615 -0.384615
v -0.000000 -0.384615 -0.384615
v 0.384615 0.384615 -0.384615
v 0.384615 0.384615 0.384615
v -0.000000 0.384615 -0.384615
v -0.000000 0.384615 0.384615
v -0.000000 -0.384615 -0.384615
v 0.000000 -0.384615 0.384615
v 0.384615 -0.384615 -0.384615
v 0.384615 -0.384615 0.384615
v -0.000000 0.384615 -0.384615
v -0.000000 0.384615 0.384615
v -0.000000 -0.384615 -0.384615
v 0.000000 -0.384615 0.384615
v 0.384615 0.384615 0.384615
v 0.384615 0.384615 -0.384615
v 0.384615 -0.384615 0.384615
v 0.384615 -0.384615 -0.384615
v 0.769231 0.544472 -0.000544
v 2.307693 0.544472 -0.000544
v 0.769231 0.543928 -0.000000
v 2.307693 0.543928 -0.000000
v 2.307693 0.000544 -0.544472
v 0.769231 0.000544 -0.544472
v 2.307693 -0.000000 -0.543929
v 0.769231 -0.000000 -0.543928
v 2.307693 0.000544 -0.544472
v 2.307693 0.544472 -0.000544
v 0.769231 0.000544 -0.544472
v 0.769231 0.544472 -0.000544
v 0.769231 -0.000000 -0.543928
v 0.769231 0.543928 -0.000000
v 2.307693 -0.000000 -0.543929
v 2.307693 0.543928 -0.000000
v 0.769231 0.000544 -0.544472
v 0.769231 0.544472 -0.000544
v 0.769231 -0.000000 -0.543928
v 0.769231 0.543928 -0.000000
v 2.307693 0.544472 -0.000544
v 2.307693 0.000544 -0.544472
v 2.307693 0.543928 -0.000000
v 2.307693 -0.000000 -0.543929
v 0.769231 0.000544 0.543384
v 2.307693 0.000544 0.543384
v 0.769231 0.000000 0.543928
v 2.307693 0.000000 0.543928
v 2.307693 -0.543384 -0.000544
v 0.769231 -0.543384 -0.000544
v 2.307693 -0.543928 -0.000000
v 0.769231 -0.543928 -0.000000
v 2.307693 -0.543384 -0.000544
v 2.307693 0.000544 0.543384
v 0.769231 -0.543384 -0.000544
v 0.769231 0.000544 0.543384
v 0.769231 -0.543928 -0.000000
v 0.769231 0.000000 0.543928
v 2.307693 -0.543928 -0.000000
v 2.307693 0.000000 0.543928
v 0.769231 -0.543384 -0.000544
v 0.769231 0.000544 0.543384
v 0.769231 -0.543928 -0.000000
v 0.769231 0.000000 0.543928
v 2.307693 0.000544 0.543384
v 2.307693 -0.543384 -0.000544
v 2.307693 0.000000 0.543928
v 2.307693 -0.543928 -0.000000
vn -0.0000 0.7071 0.7071
vn -0.0000 -0.7071 -0.7071
vn -0.0000 0.7071 -0.7071
vn -0.0000 -0.7071 0.7071
vn -1.0000 -0.0000 -0.0000
vn 1.0000 -0.0000 -0.0000
vn -0.0000 -0.0000 1.0000
vn -0.0000 -0.0000 -1.0000
vn -0.0000 1.0000 -0.0000
vn -0.0000 -1.0000 -0.0000
vt 0.375000 0.500000
vt 0.375000 0.375000
vt 0.437500 0.500000
vt 0.437500 0.375000
vt 0.500000 0.625000
vt 0.500000 0.500000
vt 0.562500 0.625000
vt 0.562500 0.500000
vt 0.625000 0.437500
vt 0.625000 0.500000
vt 0.500000 0.437500
vt 0.125000 0.375000
vt 0.125000 0.312500
vt 0.000000 0.375000
vt 0.000000 0.312500
vt 0.375000 0.625000
vt 0.375000 0.750000
vt 0.500000 0.750000
vt 0.000000 1.000000
vt 0.000000 0.875000
vt 0.125000 1.000000
vt 0.125000 0.500000
vt 0.250000 0.500000
vt 0.250000 0.375000
vt 0.500000 1.000000
vt 0.500000 0.875000
vt 0.625000 1.000000
vt 0.625000 0.875000
vt 0.000000 0.750000
vt 0.000000 0.625000
vt 0.250000 0.750000
vt 0.250000 0.625000
vt 0.125000 0.625000
vt 0.687500 1.000000
vt 0.687500 0.875000
vt 0.125000 0.250000
vt 0.187500 0.375000
vt 0.187500 0.250000
vt 0.750000 0.812500
vt 0.750000 0.875000
vt 0.625000 0.812500
vt 0.375000 0.312500
vt 0.250000 0.312500
vt 0.625000 0.750000
vt 0.625000 0.625000
vt 0.250000 1.000000
vt 0.125000 0.750000
s 0
usemtl Material_0.001
f 1/1/1 3/2/1 2/3/1
f 3/2/1 4/4/1 2/3/1
f 5/5/2 7/6/2 6/7/2
f 7/6/2 8/8/2 6/7/2
f 9/9/3 11/10/3 10/11/3
f 11/10/3 12/6/3 10/11/3
f 13/12/4 15/13/4 14/14/4
f 15/13/4 16/15/4 14/14/4
f 17/16/5 19/1/5 18/5/5
f 19/1/5 20/6/5 18/5/5
f 21/17/6 23/16/6 22/18/6
f 23/16/6 24/5/6 22/18/6
f 25/19/1 27/20/1 26/19/1
f 27/20/1 28/20/1 26/19/1
f 29/19/2 31/20/2 30/19/2
f 31/20/2 32/20/2 30/19/2
f 33/21/3 35/21/3 34/19/3
f 35/21/3 36/19/3 34/19/3
f 37/21/4 39/21/4 38/19/4
f 39/21/4 40/19/4 38/19/4
f 41/22/5 43/12/5 42/23/5
f 43/12/5 44/24/5 42/23/5
f 45/25/6 47/26/6 46/27/6
f 47/26/6 48/28/6 46/27/6
f 49/29/1 51/30/1 50/31/1
f 51/30/1 52/32/1 50/31/1
f 53/31/2 55/32/2 54/29/2
f 55/32/2 56/30/2 54/29/2
f 57/29/3 59/19/3 58/29/3
f 59/19/3 60/19/3 58/29/3
f 61/19/4 63/29/4 62/19/4
f 63/29/4 64/29/4 62/19/4
f 65/19/5 67/20/5 66/19/5
f 67/20/5 68/20/5 66/19/5
f 69/19/6 71/20/6 70/19/6
f 71/20/6 72/20/6 70/19/6
f 73/16/1 75/1/1 74/33/1
f 75/1/1 76/22/1 74/33/1
f 77/33/2 79/22/2 78/16/2
f 79/22/2 80/1/2 78/16/2
f 81/29/3 83/19/3 82/29/3
f 83/19/3 84/19/3 82/29/3
f 85/19/4 87/29/4 86/19/4
f 87/29/4 88/29/4 86/19/4
f 89/19/5 91/20/5 90/19/5
f 91/20/5 92/20/5 90/19/5
f 93/19/6 95/20/6 94/19/6
f 95/20/6 96/20/6 94/19/6
f 97/27/7 99/28/7 98/34/7
f 99/28/7 100/35/7 98/34/7
f 101/12/8 103/36/8 102/37/8
f 103/36/8 104/38/8 102/37/8
f 105/39/9 107/40/9 106/41/9
f 107/40/9 108/28/9 106/41/9
f 109/2/10 111/42/10 110/24/10
f 111/42/10 112/43/10 110/24/10
f 113/18/5 115/5/5 114/44/5
f 115/5/5 116/45/5 114/44/5
f 117/23/6 119/24/6 118/1/6
f 119/24/6 120/2/6 118/1/6
f 121/19/1 123/19/1 122/46/1
f 123/19/1 124/46/1 122/46/1
f 125/19/2 127/19/2 126/46/2
f 127/19/2 128/46/2 126/46/2
f 129/47/3 131/21/3 130/29/3
f 131/21/3 132/19/3 130/29/3
f 133/21/4 135/47/4 134/19/4
f 135/47/4 136/29/4 134/19/4
f 137/19/5 139/19/5 138/21/5
f 139/19/5 140/21/5 138/21/5
f 141/19/6 143/19/6 142/21/6
f 143/19/6 144/21/6 142/21/6
f 145/19/1 147/19/1 146/46/1
f 147/19/1 148/46/1 146/46/1
f 149/19/2 151/19/2 150/46/2
f 151/19/2 152/46/2 150/46/2
f 153/12/3 155/33/3 154/14/3
f 155/33/3 156/30/3 154/14/3
f 157/33/4 159/12/4 158/30/4
f 159/12/4 160/14/4 158/30/4
f 161/19/5 163/19/5 162/21/5
f 163/19/5 164/21/5 162/21/5
f 165/19/6 167/19/6 166/21/6
f 167/19/6 168/21/6 166/21/6
