# Blender 4.4.0
# www.blender.org
mtllib lev.kos.mtl
o attachmentModel
v 0.000000 0.384615 0.385385
v 0.769231 0.384615 0.385384
v 0.000000 -0.384615 0.385385
v 0.769231 -0.384615 0.385384
v 0.769231 0.384615 0.384615
v 0.000000 0.384615 0.384615
v 0.769231 -0.384615 0.384615
v 0.000000 -0.384615 0.384615
v 0.769231 0.384615 0.384615
v 0.769231 0.384615 0.385384
v 0.000000 0.384615 0.384615
v 0.000000 0.384615 0.385385
v 0.000000 -0.384615 0.384615
v 0.000000 -0.384615 0.385385
v 0.769231 -0.384615 0.384615
v 0.769231 -0.384615 0.385384
v 0.000000 0.384615 0.384615
v 0.000000 0.384615 0.385385
v 0.000000 -0.384615 0.384615
v 0.000000 -0.384615 0.385385
v 0.769231 0.384615 0.385384
v 0.769231 0.384615 0.384615
v 0.769231 -0.384615 0.385384
v 0.769231 -0.384615 0.384615
v -0.000769 0.384615 0.384615
v 0.000000 0.384615 0.384615
v -0.000769 -0.384615 0.384615
v 0.000000 -0.384615 0.384615
v -0.000000 0.384615 -0.384615
v -0.000769 0.384615 -0.384615
v -0.000000 -0.384615 -0.384615
v -0.000769 -0.384615 -0.384615
v -0.000000 0.384615 -0.384615
v 0.000000 0.384615 0.384615
v -0.000769 0.384615 -0.384615
v -0.000769 0.384615 0.384615
v -0.000769 -0.384615 -0.384615
v -0.000769 -0.384615 0.384615
v -0.000000 -0.384615 -0.384615
v 0.000000 -0.384615 0.384615
v -0.000769 0.384615 -0.384615
v -0.000769 0.384615 0.384615
v -0.000769 -0.384615 -0.384615
v -0.000769 -0.384615 0.384615
v 0.000000 0.384615 0.384615
v -0.000000 0.384615 -0.384615
v 0.000000 -0.384615 0.384615
v -0.000000 -0.384615 -0.384615
v 0.000000 0.385385 0.384615
v 0.769231 0.385385 0.384615
v 0.000000 0.384615 0.384615
v 0.769231 0.384615 0.384615
v 0.769231 0.385385 -0.384616
v -0.000000 0.385385 -0.384615
v 0.769231 0.384615 -0.384616
v -0.000000 0.384615 -0.384615
v 0.769231 0.385385 -0.384616
v 0.769231 0.385385 0.384615
v -0.000000 0.385385 -0.384615
v 0.000000 0.385385 0.384615
v -0.000000 0.384615 -0.384615
v 0.000000 0.384615 0.384615
v 0.769231 0.384615 -0.384616
v 0.769231 0.384615 0.384615
v -0.000000 0.385385 -0.384615
v 0.000000 0.385385 0.384615
v -0.000000 0.384615 -0.384615
v 0.000000 0.384615 0.384615
v 0.769231 0.385385 0.384615
v 0.769231 0.385385 -0.384616
v 0.769231 0.384615 0.384615
v 0.769231 0.384615 -0.384616
v 0.000000 -0.383846 0.384615
v 0.769231 -0.383846 0.384615
v 0.000000 -0.384615 0.384615
v 0.769231 -0.384615 0.384615
v 0.769231 -0.383846 -0.384616
v -0.000000 -0.383846 -0.384615
v 0.769231 -0.384615 -0.384616
v -0.000000 -0.384615 -0.384615
v 0.769231 -0.383846 -0.384616
v 0.769231 -0.383846 0.384615
v -0.000000 -0.383846 -0.384615
v 0.000000 -0.383846 0.384615
v -0.000000 -0.384615 -0.384615
v 0.000000 -0.384615 0.384615
v 0.769231 -0.384615 -0.384616
v 0.769231 -0.384615 0.384615
v -0.000000 -0.383846 -0.384615
v 0.000000 -0.383846 0.384615
v -0.000000 -0.384615 -0.384615
v 0.000000 -0.384615 0.384615
v 0.769231 -0.383846 0.384615
v 0.769231 -0.383846 -0.384616
v 0.769231 -0.384615 0.384615
v 0.769231 -0.384615 -0.384616
v -0.000000 0.384615 -0.383846
v 0.769231 0.384615 -0.383846
v -0.000000 -0.384615 -0.383846
v 0.769231 -0.384615 -0.383846
v 0.769231 0.384615 -0.384616
v -0.000000 0.384615 -0.384615
v 0.769231 -0.384615 -0.384616
v -0.000000 -0.384615 -0.384615
v 0.769231 0.384615 -0.384616
v 0.769231 0.384615 -0.383846
v -0.000000 0.384615 -0.384615
v -0.000000 0.384615 -0.383846
v -0.000000 -0.384615 -0.384615
v -0.000000 -0.384615 -0.383846
v 0.769231 -0.384615 -0.384616
v 0.769231 -0.384615 -0.383846
v -0.000000 0.384615 -0.384615
v -0.000000 0.384615 -0.383846
v -0.000000 -0.384615 -0.384615
v -0.000000 -0.384615 -0.383846
v 0.769231 0.384615 -0.383846
v 0.769231 0.384615 -0.384616
v 0.769231 -0.384615 -0.383846
v 0.769231 -0.384615 -0.384616
vn -0.0000 -0.0000 1.0000
vn -0.0000 -0.0000 -1.0000
vn -0.0000 1.0000 -0.0000
vn -0.0000 -1.0000 -0.0000
vn -1.0000 -0.0000 -0.0000
vn 1.0000 -0.0000 -0.0000
vt 0.000000 1.000000
vt 0.000000 0.875000
vt 0.125000 1.000000
vt 0.125000 0.875000
vt 0.000000 0.750000
vt 0.125000 0.750000
vt 0.000000 0.625000
vt 0.000000 0.500000
vt 0.125000 0.625000
vt 0.125000 0.500000
vt 0.250000 0.750000
vt 0.250000 0.625000
vt 0.375000 0.750000
vt 0.375000 0.625000
vt 0.375000 1.000000
vt 0.375000 0.875000
vt 0.250000 1.000000
vt 0.250000 0.875000
s 0
usemtl Material_0.001
f 1/1/1 3/2/1 2/3/1
f 3/2/1 4/4/1 2/3/1
f 5/2/2 7/5/2 6/4/2
f 7/5/2 8/6/2 6/4/2
f 9/2/3 11/1/3 10/2/3
f 11/1/3 12/1/3 10/2/3
f 13/1/4 15/2/4 14/1/4
f 15/2/4 16/2/4 14/1/4
f 17/1/5 19/2/5 18/1/5
f 19/2/5 20/2/5 18/1/5
f 21/1/6 23/2/6 22/1/6
f 23/2/6 24/2/6 22/1/6
f 25/1/1 27/2/1 26/1/1
f 27/2/1 28/2/1 26/1/1
f 29/1/2 31/2/2 30/1/2
f 31/2/2 32/2/2 30/1/2
f 33/3/3 35/3/3 34/1/3
f 35/3/3 36/1/3 34/1/3
f 37/3/4 39/3/4 38/1/4
f 39/3/4 40/1/4 38/1/4
f 41/7/5 43/8/5 42/9/5
f 43/8/5 44/10/5 42/9/5
f 45/11/6 47/12/6 46/13/6
f 47/12/6 48/14/6 46/13/6
f 49/1/1 51/1/1 50/3/1
f 51/1/1 52/3/1 50/3/1
f 53/1/2 55/1/2 54/3/2
f 55/1/2 56/3/2 54/3/2
f 57/9/3 59/6/3 58/7/3
f 59/6/3 60/5/3 58/7/3
f 61/15/4 63/16/4 62/17/4
f 63/16/4 64/18/4 62/17/4
f 65/1/5 67/1/5 66/3/5
f 67/1/5 68/3/5 66/3/5
f 69/1/6 71/1/6 70/3/6
f 71/1/6 72/3/6 70/3/6
f 73/1/1 75/1/1 74/3/1
f 75/1/1 76/3/1 74/3/1
f 77/1/2 79/1/2 78/3/2
f 79/1/2 80/3/2 78/3/2
f 81/12/3 83/11/3 82/9/3
f 83/11/3 84/6/3 82/9/3
f 85/16/4 87/13/4 86/18/4
f 87/13/4 88/11/4 86/18/4
f 89/1/5 91/1/5 90/3/5
f 91/1/5 92/3/5 90/3/5
f 93/1/6 95/1/6 94/3/6
f 95/1/6 96/3/6 94/3/6
f 97/3/1 99/4/1 98/17/1
f 99/4/1 100/18/1 98/17/1
f 101/4/2 103/6/2 102/18/2
f 103/6/2 104/11/2 102/18/2
f 105/2/3 107/1/3 106/2/3
f 107/1/3 108/1/3 106/2/3
f 109/1/4 111/2/4 110/1/4
f 111/2/4 112/2/4 110/1/4
f 113/1/5 115/2/5 114/1/5
f 115/2/5 116/2/5 114/1/5
f 117/1/6 119/2/6 118/1/6
f 119/2/6 120/2/6 118/1/6
