# Blender 4.2.0
# www.blender.org
mtllib lev.elcan.mtl
o overlayModel
v -0.259363 0.140625 -0.045703
v -0.259426 0.140625 -0.045703
v -0.259363 0.046875 -0.045703
v -0.259426 0.046875 -0.045703
v -0.259426 0.140625 0.048047
v -0.259363 0.140625 0.048047
v -0.259426 0.046875 0.048047
v -0.259363 0.046875 0.048047
v -0.259426 0.140625 0.048047
v -0.259426 0.140625 -0.045703
v -0.259363 0.140625 0.048047
v -0.259363 0.140625 -0.045703
v -0.259363 0.046875 0.048047
v -0.259363 0.046875 -0.045703
v -0.259426 0.046875 0.048047
v -0.259426 0.046875 -0.045703
v -0.259363 0.140625 0.048047
v -0.259363 0.140625 -0.045703
v -0.259363 0.046875 0.048047
v -0.259363 0.046875 -0.045703
v -0.259426 0.140625 -0.045703
v -0.259426 0.140625 0.048047
v -0.259426 0.046875 -0.045703
v -0.259426 0.046875 0.048047
vn -0.0000 -0.0000 -1.0000
vn -0.0000 -0.0000 1.0000
vn -0.0000 1.0000 -0.0000
vn -0.0000 -1.0000 -0.0000
vn 1.0000 -0.0000 -0.0000
vn -1.0000 -0.0000 -0.0000
vt 0.687500 1.000000
vt 0.687500 0.906250
vt 0.781250 1.000000
vt 0.781250 0.906250
s 0
usemtl None.001
f 1/1/1 3/2/1 2/3/1
f 3/2/1 4/4/1 2/3/1
f 5/1/2 7/2/2 6/3/2
f 7/2/2 8/4/2 6/3/2
f 9/1/3 11/2/3 10/3/3
f 11/2/3 12/4/3 10/3/3
f 13/1/4 15/2/4 14/3/4
f 15/2/4 16/4/4 14/3/4
f 17/1/5 19/2/5 18/3/5
f 19/2/5 20/4/5 18/3/5
f 21/1/6 23/2/6 22/3/6
f 23/2/6 24/4/6 22/3/6
o overlaySolidModel
v -0.257801 0.140625 -0.045703
v -0.257863 0.140625 -0.045703
v -0.257801 0.046875 -0.045703
v -0.257863 0.046875 -0.045703
v -0.257863 0.140625 0.048047
v -0.257801 0.140625 0.048047
v -0.257863 0.046875 0.048047
v -0.257801 0.046875 0.048047
v -0.257863 0.140625 0.048047
v -0.257863 0.140625 -0.045703
v -0.257801 0.140625 0.048047
v -0.257801 0.140625 -0.045703
v -0.257801 0.046875 0.048047
v -0.257801 0.046875 -0.045703
v -0.257863 0.046875 0.048047
v -0.257863 0.046875 -0.045703
v -0.257801 0.140625 0.048047
v -0.257801 0.140625 -0.045703
v -0.257801 0.046875 0.048047
v -0.257801 0.046875 -0.045703
v -0.257863 0.140625 -0.045703
v -0.257863 0.140625 0.048047
v -0.257863 0.046875 -0.045703
v -0.257863 0.046875 0.048047
vn -0.0000 -0.0000 -1.0000
vn -0.0000 -0.0000 1.0000
vn -0.0000 1.0000 -0.0000
vn -0.0000 -1.0000 -0.0000
vn 1.0000 -0.0000 -0.0000
vn -1.0000 -0.0000 -0.0000
vt 0.357825 0.109252
vt 0.357825 0.015502
vt 0.451575 0.109252
vt 0.451575 0.015502
vt 0.453593 0.093750
vt 0.453593 0.000000
vt 0.547343 0.093750
vt 0.547343 0.000000
vt 0.921647 0.087658
vt 0.921647 0.038123
vt 0.971182 0.087658
vt 0.971182 0.038123
vt 0.921867 0.087993
vt 0.921867 0.038458
vt 0.971402 0.087993
vt 0.971402 0.038458
s 0
usemtl None.008
f 25/5/7 27/6/7 26/7/7
f 27/6/7 28/8/7 26/7/7
f 29/9/8 31/10/8 30/11/8
f 31/10/8 32/12/8 30/11/8
f 33/13/9 35/14/9 34/15/9
f 35/14/9 36/16/9 34/15/9
f 37/9/10 39/10/10 38/11/10
f 39/10/10 40/12/10 38/11/10
f 41/13/11 43/14/11 42/15/11
f 43/14/11 44/16/11 42/15/11
f 45/17/12 47/18/12 46/19/12
f 47/18/12 48/20/12 46/19/12
o scopeModel
v -0.256238 0.140625 -0.045703
v -0.256301 0.140625 -0.045703
v -0.256238 0.046875 -0.045703
v -0.256301 0.046875 -0.045703
v -0.256301 0.140625 0.048047
v -0.256238 0.140625 0.048047
v -0.256301 0.046875 0.048047
v -0.256238 0.046875 0.048047
v -0.256301 0.140625 0.048047
v -0.256301 0.140625 -0.045703
v -0.256238 0.140625 0.048047
v -0.256238 0.140625 -0.045703
v -0.256238 0.046875 0.048047
v -0.256238 0.046875 -0.045703
v -0.256301 0.046875 0.048047
v -0.256301 0.046875 -0.045703
v -0.256238 0.140625 0.048047
v -0.256238 0.140625 -0.045703
v -0.256238 0.046875 0.048047
v -0.256238 0.046875 -0.045703
v -0.256301 0.140625 -0.045703
v -0.256301 0.140625 0.048047
v -0.256301 0.046875 -0.045703
v -0.256301 0.046875 0.048047
vn -0.0000 -0.0000 -1.0000
vn -0.0000 -0.0000 1.0000
vn -0.0000 1.0000 -0.0000
vn -0.0000 -1.0000 -0.0000
vn 1.0000 -0.0000 -0.0000
vn -1.0000 -0.0000 -0.0000
vt 0.360070 0.104552
vt 0.360070 0.010802
vt 0.453820 0.104552
vt 0.453820 0.010802
vt 0.882825 0.113854
vt 0.882825 0.020104
vt 0.976575 0.113854
vt 0.976575 0.020104
s 0
usemtl None.008
f 49/21/13 51/22/13 50/23/13
f 51/22/13 52/24/13 50/23/13
f 53/25/14 55/26/14 54/27/14
f 55/26/14 56/28/14 54/27/14
f 57/21/15 59/22/15 58/23/15
f 59/22/15 60/24/15 58/23/15
f 61/25/16 63/26/16 62/27/16
f 63/26/16 64/28/16 62/27/16
f 65/21/17 67/22/17 66/23/17
f 67/22/17 68/24/17 66/23/17
f 69/21/18 71/22/18 70/23/18
f 71/22/18 72/24/18 70/23/18
o attachmentModel
v -0.228176 0.140625 -0.045703
v -0.259426 0.140625 -0.045703
v -0.228176 0.046875 -0.045703
v -0.259426 0.046875 -0.045703
v -0.259426 0.140625 0.048047
v -0.228176 0.140625 0.048047
v -0.259426 0.046875 0.048047
v -0.228176 0.046875 0.048047
v -0.259426 0.140625 0.048047
v -0.259426 0.140625 -0.045703
v -0.228176 0.140625 0.048047
v -0.228176 0.140625 -0.045703
v -0.228176 0.046875 0.048047
v -0.228176 0.046875 -0.045703
v -0.259426 0.046875 0.048047
v -0.259426 0.046875 -0.045703
v -0.228176 0.140625 0.048047
v -0.228176 0.140625 -0.045703
v -0.228176 0.046875 0.048047
v -0.228176 0.046875 -0.045703
v -0.243176 0.156250 -0.061328
v -0.243801 0.156250 -0.061328
v -0.243176 0.031250 -0.061328
v -0.243801 0.031250 -0.061328
v -0.243801 0.156250 -0.045703
v -0.243176 0.156250 -0.045703
v -0.243801 0.031250 -0.045703
v -0.243176 0.031250 -0.045703
v -0.243801 0.156250 -0.045703
v -0.243801 0.156250 -0.061328
v -0.243176 0.156250 -0.045703
v -0.243176 0.156250 -0.061328
v -0.243176 0.031250 -0.045703
v -0.243176 0.031250 -0.061328
v -0.243801 0.031250 -0.045703
v -0.243801 0.031250 -0.061328
v -0.243176 0.156250 -0.045703
v -0.243176 0.156250 -0.061328
v -0.243176 0.031250 -0.045703
v -0.243176 0.031250 -0.061328
v -0.243801 0.156250 -0.061328
v -0.243801 0.156250 -0.045703
v -0.243801 0.031250 -0.061328
v -0.243801 0.031250 -0.045703
v -0.243176 0.156250 0.048047
v -0.243801 0.156250 0.048047
v -0.243176 0.031250 0.048047
v -0.243801 0.031250 0.048047
v -0.243801 0.156250 0.063672
v -0.243176 0.156250 0.063672
v -0.243801 0.031250 0.063672
v -0.243176 0.031250 0.063672
v -0.243801 0.156250 0.063672
v -0.243801 0.156250 0.048047
v -0.243176 0.156250 0.063672
v -0.243176 0.156250 0.048047
v -0.243176 0.031250 0.063672
v -0.243176 0.031250 0.048047
v -0.243801 0.031250 0.063672
v -0.243801 0.031250 0.048047
v -0.243176 0.156250 0.063672
v -0.243176 0.156250 0.048047
v -0.243176 0.031250 0.063672
v -0.243176 0.031250 0.048047
v -0.243801 0.156250 0.048047
v -0.243801 0.156250 0.063672
v -0.243801 0.031250 0.048047
v -0.243801 0.031250 0.063672
v -0.243176 0.156250 -0.045703
v -0.243801 0.156250 -0.045703
v -0.243176 0.140625 -0.045703
v -0.243801 0.140625 -0.045703
v -0.243801 0.156250 0.048047
v -0.243176 0.156250 0.048047
v -0.243801 0.140625 0.048047
v -0.243176 0.140625 0.048047
v -0.243801 0.156250 0.048047
v -0.243801 0.156250 -0.045703
v -0.243176 0.156250 0.048047
v -0.243176 0.156250 -0.045703
v -0.243176 0.140625 0.048047
v -0.243176 0.140625 -0.045703
v -0.243801 0.140625 0.048047
v -0.243801 0.140625 -0.045703
v -0.243176 0.156250 0.048047
v -0.243176 0.156250 -0.045703
v -0.243176 0.140625 0.048047
v -0.243176 0.140625 -0.045703
v -0.243801 0.156250 -0.045703
v -0.243801 0.156250 0.048047
v -0.243801 0.140625 -0.045703
v -0.243801 0.140625 0.048047
v -0.243176 0.046875 -0.045703
v -0.243801 0.046875 -0.045703
v -0.243176 0.031250 -0.045703
v -0.243801 0.031250 -0.045703
v -0.243801 0.046875 0.048047
v -0.243176 0.046875 0.048047
v -0.243801 0.031250 0.048047
v -0.243176 0.031250 0.048047
v -0.243801 0.046875 0.048047
v -0.243801 0.046875 -0.045703
v -0.243176 0.046875 0.048047
v -0.243176 0.046875 -0.045703
v -0.243176 0.031250 0.048047
v -0.243176 0.031250 -0.045703
v -0.243801 0.031250 0.048047
v -0.243801 0.031250 -0.045703
v -0.243176 0.046875 0.048047
v -0.243176 0.046875 -0.045703
v -0.243176 0.031250 0.048047
v -0.243176 0.031250 -0.045703
v -0.243801 0.046875 -0.045703
v -0.243801 0.046875 0.048047
v -0.243801 0.031250 -0.045703
v -0.243801 0.031250 0.048047
v -0.118801 0.062563 -0.092578
v -0.181301 0.062563 -0.092578
v -0.118801 0.062500 -0.092578
v -0.181301 0.062500 -0.092578
v -0.181301 0.062563 -0.061328
v -0.118801 0.062563 -0.061328
v -0.181301 0.062500 -0.061328
v -0.118801 0.062500 -0.061328
v -0.181301 0.062563 -0.061328
v -0.181301 0.062563 -0.092578
v -0.118801 0.062563 -0.061328
v -0.118801 0.062563 -0.092578
v -0.118801 0.062500 -0.061328
v -0.118801 0.062500 -0.092578
v -0.181301 0.062500 -0.061328
v -0.181301 0.062500 -0.092578
v -0.118801 0.062563 -0.061328
v -0.118801 0.062563 -0.092578
v -0.118801 0.062500 -0.061328
v -0.118801 0.062500 -0.092578
v -0.181301 0.062563 -0.092578
v -0.181301 0.062563 -0.061328
v -0.181301 0.062500 -0.092578
v -0.181301 0.062500 -0.061328
v -0.118801 0.125062 -0.092578
v -0.181301 0.125062 -0.092578
v -0.118801 0.125000 -0.092578
v -0.181301 0.125000 -0.092578
v -0.181301 0.125062 -0.061328
v -0.118801 0.125062 -0.061328
v -0.181301 0.125000 -0.061328
v -0.118801 0.125000 -0.061328
v -0.181301 0.125062 -0.061328
v -0.181301 0.125062 -0.092578
v -0.118801 0.125062 -0.061328
v -0.118801 0.125062 -0.092578
v -0.118801 0.125000 -0.061328
v -0.118801 0.125000 -0.092578
v -0.181301 0.125000 -0.061328
v -0.181301 0.125000 -0.092578
v -0.118801 0.125062 -0.061328
v -0.118801 0.125062 -0.092578
v -0.118801 0.125000 -0.061328
v -0.118801 0.125000 -0.092578
v -0.181301 0.125062 -0.092578
v -0.181301 0.125062 -0.061328
v -0.181301 0.125000 -0.092578
v -0.181301 0.125000 -0.061328
v -0.181238 0.125000 -0.092578
v -0.181301 0.125000 -0.092578
v -0.181238 0.062500 -0.092578
v -0.181301 0.062500 -0.092578
v -0.181301 0.125000 -0.061328
v -0.181238 0.125000 -0.061328
v -0.181301 0.062500 -0.061328
v -0.181238 0.062500 -0.061328
v -0.181301 0.125000 -0.061328
v -0.181301 0.125000 -0.092578
v -0.181238 0.125000 -0.061328
v -0.181238 0.125000 -0.092578
v -0.181238 0.062500 -0.061328
v -0.181238 0.062500 -0.092578
v -0.181301 0.062500 -0.061328
v -0.181301 0.062500 -0.092578
v -0.181238 0.125000 -0.061328
v -0.181238 0.125000 -0.092578
v -0.181238 0.062500 -0.061328
v -0.181238 0.062500 -0.092578
v -0.181301 0.125000 -0.092578
v -0.181301 0.125000 -0.061328
v -0.181301 0.062500 -0.092578
v -0.181301 0.062500 -0.061328
v 0.099949 0.031250 -0.061328
v 0.037449 0.031250 -0.061328
v 0.099949 0.000000 -0.061328
v 0.037449 0.000000 -0.061328
v 0.037449 0.031250 0.063672
v 0.099949 0.031250 0.063672
v 0.037449 0.000000 0.063672
v 0.099949 0.000000 0.063672
v 0.037449 0.031250 0.063672
v 0.037449 0.031250 -0.061328
v 0.099949 0.031250 0.063672
v 0.099949 0.031250 -0.061328
v 0.099949 0.000000 0.063672
v 0.099949 0.000000 -0.061328
v 0.037449 0.000000 0.063672
v 0.037449 0.000000 -0.061328
v 0.099949 0.031250 0.063672
v 0.099949 0.031250 -0.061328
v 0.099949 0.000000 0.063672
v 0.099949 0.000000 -0.061328
v 0.037449 0.031250 -0.061328
v 0.037449 0.031250 0.063672
v 0.037449 0.000000 -0.061328
v 0.037449 0.000000 0.063672
v 0.099949 0.062500 -0.061328
v 0.037449 0.062500 -0.061328
v 0.099949 0.031250 -0.061328
v 0.037449 0.031250 -0.061328
v 0.037449 0.062500 0.063672
v 0.099949 0.062500 0.063672
v 0.037449 0.031250 0.063672
v 0.099949 0.031250 0.063672
v 0.037449 0.062500 0.063672
v 0.037449 0.062500 -0.061328
v 0.099949 0.062500 0.063672
v 0.099949 0.062500 -0.061328
v 0.099949 0.031250 0.063672
v 0.099949 0.031250 -0.061328
v 0.037449 0.031250 0.063672
v 0.037449 0.031250 -0.061328
v 0.099949 0.062500 0.063672
v 0.099949 0.062500 -0.061328
v 0.099949 0.031250 0.063672
v 0.099949 0.031250 -0.061328
v 0.037449 0.062500 -0.061328
v 0.037449 0.062500 0.063672
v 0.037449 0.031250 -0.061328
v 0.037449 0.031250 0.063672
v 0.084324 0.140625 -0.045703
v 0.053074 0.140625 -0.045703
v 0.084324 0.046875 -0.045703
v 0.053074 0.046875 -0.045703
v 0.053074 0.140625 0.048047
v 0.084324 0.140625 0.048047
v 0.053074 0.046875 0.048047
v 0.084324 0.046875 0.048047
v 0.053074 0.140625 0.048047
v 0.053074 0.140625 -0.045703
v 0.084324 0.140625 0.048047
v 0.084324 0.140625 -0.045703
v 0.084324 0.046875 0.048047
v 0.084324 0.046875 -0.045703
v 0.053074 0.046875 0.048047
v 0.053074 0.046875 -0.045703
v 0.084324 0.140625 0.048047
v 0.084324 0.140625 -0.045703
v 0.084324 0.046875 0.048047
v 0.084324 0.046875 -0.045703
v 0.053074 0.140625 -0.045703
v 0.053074 0.140625 0.048047
v 0.053074 0.046875 -0.045703
v 0.053074 0.046875 0.048047
v 0.053699 0.156250 -0.061328
v 0.053074 0.156250 -0.061328
v 0.053699 0.031250 -0.061328
v 0.053074 0.031250 -0.061328
v 0.053074 0.156250 0.063672
v 0.053699 0.156250 0.063672
v 0.053074 0.031250 0.063672
v 0.053699 0.031250 0.063672
v 0.053074 0.156250 0.063672
v 0.053074 0.156250 -0.061328
v 0.053699 0.156250 0.063672
v 0.053699 0.156250 -0.061328
v 0.053699 0.031250 0.063672
v 0.053699 0.031250 -0.061328
v 0.053074 0.031250 0.063672
v 0.053074 0.031250 -0.061328
v 0.053699 0.156250 0.063672
v 0.053699 0.156250 -0.061328
v 0.053699 0.031250 0.063672
v 0.053699 0.031250 -0.061328
v 0.053074 0.156250 -0.061328
v 0.053074 0.156250 0.063672
v 0.053074 0.031250 -0.061328
v 0.053074 0.031250 0.063672
v -0.118801 0.125000 -0.092641
v -0.181301 0.125000 -0.092641
v -0.118801 0.062500 -0.092641
v -0.181301 0.062500 -0.092641
v -0.181301 0.125000 -0.092578
v -0.118801 0.125000 -0.092578
v -0.181301 0.062500 -0.092578
v -0.118801 0.062500 -0.092578
v -0.181301 0.125000 -0.092578
v -0.181301 0.125000 -0.092641
v -0.118801 0.125000 -0.092578
v -0.118801 0.125000 -0.092641
v -0.118801 0.062500 -0.092578
v -0.118801 0.062500 -0.092641
v -0.181301 0.062500 -0.092578
v -0.181301 0.062500 -0.092641
v -0.118801 0.125000 -0.092578
v -0.118801 0.125000 -0.092641
v -0.118801 0.062500 -0.092578
v -0.118801 0.062500 -0.092641
v -0.181301 0.125000 -0.092641
v -0.181301 0.125000 -0.092578
v -0.181301 0.062500 -0.092641
v -0.181301 0.062500 -0.092578
v 0.037449 0.031250 -0.045703
v -0.087551 0.031250 -0.045703
v 0.037449 0.000000 -0.045703
v -0.087551 0.000000 -0.045703
v -0.087551 0.031250 0.048047
v 0.037449 0.031250 0.048047
v -0.087551 0.000000 0.048047
v 0.037449 0.000000 0.048047
v -0.087551 0.031250 0.048047
v -0.087551 0.031250 -0.045703
v 0.037449 0.031250 0.048047
v 0.037449 0.031250 -0.045703
v 0.037449 0.000000 0.048047
v 0.037449 0.000000 -0.045703
v -0.087551 0.000000 0.048047
v -0.087551 0.000000 -0.045703
v 0.037449 0.031250 0.048047
v 0.037449 0.031250 -0.045703
v 0.037449 0.000000 0.048047
v 0.037449 0.000000 -0.045703
v -0.087551 0.031250 -0.045703
v -0.087551 0.031250 0.048047
v -0.087551 0.000000 -0.045703
v -0.087551 0.000000 0.048047
v 0.037449 0.031312 -0.061328
v -0.243801 0.031312 -0.061328
v 0.037449 0.031250 -0.061328
v -0.243801 0.031250 -0.061328
v -0.243801 0.031312 0.063672
v 0.037449 0.031312 0.063672
v -0.243801 0.031250 0.063672
v 0.037449 0.031250 0.063672
v -0.243801 0.031312 0.063672
v -0.243801 0.031312 -0.061328
v 0.037449 0.031312 0.063672
v 0.037449 0.031312 -0.061328
v 0.037449 0.031250 0.063672
v 0.037449 0.031250 -0.061328
v -0.243801 0.031250 0.063672
v -0.243801 0.031250 -0.061328
v 0.037449 0.031312 0.063672
v 0.037449 0.031312 -0.061328
v 0.037449 0.031250 0.063672
v 0.037449 0.031250 -0.061328
v -0.243801 0.031312 -0.061328
v -0.243801 0.031312 0.063672
v -0.243801 0.031250 -0.061328
v -0.243801 0.031250 0.063672
v 0.068699 0.156312 -0.061328
v -0.243801 0.156312 -0.061328
v 0.068699 0.156250 -0.061328
v -0.243801 0.156250 -0.061328
v -0.243801 0.156312 0.063672
v 0.068699 0.156312 0.063672
v -0.243801 0.156250 0.063672
v 0.068699 0.156250 0.063672
v -0.243801 0.156312 0.063672
v -0.243801 0.156312 -0.061328
v 0.068699 0.156312 0.063672
v 0.068699 0.156312 -0.061328
v 0.068699 0.156250 0.063672
v 0.068699 0.156250 -0.061328
v -0.243801 0.156250 0.063672
v -0.243801 0.156250 -0.061328
v 0.068699 0.156312 0.063672
v 0.068699 0.156312 -0.061328
v 0.068699 0.156250 0.063672
v 0.068699 0.156250 -0.061328
v -0.243801 0.156312 -0.061328
v -0.243801 0.156312 0.063672
v -0.243801 0.156250 -0.061328
v -0.243801 0.156250 0.063672
v -0.118738 0.125000 -0.092578
v -0.118801 0.125000 -0.092578
v -0.118738 0.062500 -0.092578
v -0.118801 0.062500 -0.092578
v -0.118801 0.125000 -0.061328
v -0.118738 0.125000 -0.061328
v -0.118801 0.062500 -0.061328
v -0.118738 0.062500 -0.061328
v -0.118801 0.125000 -0.061328
v -0.118801 0.125000 -0.092578
v -0.118738 0.125000 -0.061328
v -0.118738 0.125000 -0.092578
v -0.118738 0.062500 -0.061328
v -0.118738 0.062500 -0.092578
v -0.118801 0.062500 -0.061328
v -0.118801 0.062500 -0.092578
v -0.118738 0.125000 -0.061328
v -0.118738 0.125000 -0.092578
v -0.118738 0.062500 -0.061328
v -0.118738 0.062500 -0.092578
v -0.118801 0.125000 -0.092578
v -0.118801 0.125000 -0.061328
v -0.118801 0.062500 -0.092578
v -0.118801 0.062500 -0.061328
v 0.068699 0.156250 0.063672
v -0.243801 0.156250 0.063672
v 0.068699 0.031250 0.063672
v -0.243801 0.031250 0.063672
v -0.243801 0.156250 0.063734
v 0.068699 0.156250 0.063734
v -0.243801 0.031250 0.063734
v 0.068699 0.031250 0.063734
v -0.243801 0.156250 0.063734
v -0.243801 0.156250 0.063672
v 0.068699 0.156250 0.063734
v 0.068699 0.156250 0.063672
v 0.068699 0.031250 0.063734
v 0.068699 0.031250 0.063672
v -0.243801 0.031250 0.063734
v -0.243801 0.031250 0.063672
v 0.068699 0.156250 0.063734
v 0.068699 0.156250 0.063672
v 0.068699 0.031250 0.063734
v 0.068699 0.031250 0.063672
v -0.243801 0.156250 0.063672
v -0.243801 0.156250 0.063734
v -0.243801 0.031250 0.063672
v -0.243801 0.031250 0.063734
v 0.068699 0.156250 -0.061391
v -0.243801 0.156250 -0.061391
v 0.068699 0.031250 -0.061391
v -0.243801 0.031250 -0.061391
v -0.243801 0.156250 -0.061328
v 0.068699 0.156250 -0.061328
v -0.243801 0.031250 -0.061328
v 0.068699 0.031250 -0.061328
v -0.243801 0.156250 -0.061328
v -0.243801 0.156250 -0.061391
v 0.068699 0.156250 -0.061328
v 0.068699 0.156250 -0.061391
v 0.068699 0.031250 -0.061328
v 0.068699 0.031250 -0.061391
v -0.243801 0.031250 -0.061328
v -0.243801 0.031250 -0.061391
v 0.068699 0.156250 -0.061328
v 0.068699 0.156250 -0.061391
v 0.068699 0.031250 -0.061328
v 0.068699 0.031250 -0.061391
v -0.243801 0.156250 -0.061391
v -0.243801 0.156250 -0.061328
v -0.243801 0.031250 -0.061391
v -0.243801 0.031250 -0.061328
vn -0.0000 -0.0000 -1.0000
vn -0.0000 -0.0000 1.0000
vn -0.0000 1.0000 -0.0000
vn -0.0000 -1.0000 -0.0000
vn 1.0000 -0.0000 -0.0000
vn -1.0000 -0.0000 -0.0000
vt 0.312500 0.250000
vt 0.312500 0.156250
vt 0.343750 0.250000
vt 0.343750 0.156250
vt 0.375000 0.250000
vt 0.375000 0.156250
vt 0.406250 0.250000
vt 0.406250 0.156250
vt 0.656250 0.218750
vt 0.656250 0.250000
vt 0.562500 0.218750
vt 0.562500 0.250000
vt 0.781250 0.250000
vt 0.781250 0.218750
vt 0.687500 0.250000
vt 0.687500 0.218750
vt 0.687500 0.875000
vt 0.687500 0.781250
vt 0.781250 0.875000
vt 0.781250 0.781250
vt 0.000000 1.000000
vt 0.000000 0.875000
vt 0.125000 1.000000
vt 0.562500 0.875000
vt 0.562500 0.750000
vt 0.687500 0.750000
vt 0.562500 0.968750
vt 0.562500 0.906250
vt 0.593750 0.968750
vt 0.593750 0.906250
vt 0.593750 1.000000
vt 0.656250 1.000000
vt 0.656250 0.968750
vt 0.312500 0.500000
vt 0.312500 0.437500
vt 0.375000 0.500000
vt 0.375000 0.437500
vt 0.250000 0.437500
vt 0.250000 0.375000
vt 0.312500 0.375000
vt 0.843750 0.812500
vt 0.843750 0.875000
vt 0.812500 0.812500
vt 0.812500 0.875000
vt 0.218750 0.187500
vt 0.218750 0.125000
vt 0.187500 0.187500
vt 0.187500 0.125000
vt 0.156250 0.187500
vt 0.156250 0.125000
vt 0.812500 0.937500
vt 0.843750 0.937500
vt 0.250000 0.343750
vt 0.312500 0.343750
vt 0.437500 0.250000
vt 0.437500 0.218750
vt 0.500000 0.250000
vt 0.500000 0.218750
vt 0.125000 0.625000
vt 0.125000 0.687500
vt 0.000000 0.625000
vt 0.000000 0.687500
vt 0.250000 0.687500
vt 0.250000 0.625000
vt 0.687500 0.562500
vt 0.687500 0.531250
vt 0.812500 0.562500
vt 0.812500 0.531250
vt 0.687500 0.625000
vt 0.687500 0.593750
vt 0.812500 0.625000
vt 0.812500 0.593750
vt 0.812500 1.000000
vt 0.812500 0.968750
vt 0.875000 1.000000
vt 0.875000 0.968750
vt 0.062500 0.187500
vt 0.062500 0.156250
vt 0.125000 0.187500
vt 0.125000 0.156250
vt 0.375000 0.312500
vt 0.250000 0.250000
vt 0.250000 0.312500
vt 0.812500 0.750000
vt 0.812500 0.687500
vt 0.687500 0.687500
vt 0.687500 0.437500
vt 0.687500 0.406250
vt 0.812500 0.437500
vt 0.812500 0.406250
vt 0.687500 0.500000
vt 0.687500 0.468750
vt 0.812500 0.500000
vt 0.812500 0.468750
vt 0.500000 0.312500
vt 0.531250 0.312500
vt 0.531250 0.218750
vt 0.000000 0.250000
vt 0.000000 0.156250
vt 0.031250 0.250000
vt 0.031250 0.156250
vt 0.156250 0.218750
vt 0.156250 0.250000
vt 0.062500 0.218750
vt 0.062500 0.250000
vt 0.281250 0.250000
vt 0.281250 0.218750
vt 0.187500 0.250000
vt 0.187500 0.218750
vt 0.562500 0.375000
vt 0.562500 0.281250
vt 0.656250 0.375000
vt 0.656250 0.281250
vt 0.125000 0.375000
vt 0.125000 0.281250
vt 0.218750 0.375000
vt 0.218750 0.281250
vt 0.125000 0.500000
vt 0.250000 0.500000
vt 0.000000 0.500000
vt 0.000000 0.375000
vt 0.281250 0.437500
vt 0.281250 0.500000
vt 0.687500 0.656250
vt 0.812500 0.656250
vt 0.375000 0.281250
vt 0.500000 0.281250
vt 0.656250 0.500000
vt 0.562500 0.500000
vt 0.093750 0.375000
vt 0.093750 0.250000
vt 0.687500 0.312500
vt 0.687500 0.281250
vt 0.781250 0.312500
vt 0.781250 0.281250
vt 0.687500 0.375000
vt 0.687500 0.343750
vt 0.781250 0.375000
vt 0.781250 0.343750
vt 0.281250 1.000000
vt 0.437500 0.343750
vt 0.437500 0.625000
vt 0.312500 0.625000
vt 0.562500 0.625000
vt 0.562500 0.343750
vt 0.312500 1.000000
vt 0.250000 1.000000
vt 0.125000 0.125000
vt 0.250000 0.750000
vt 0.250000 0.875000
vt 0.562500 1.000000
s 0
usemtl Material_0
f 73/29/19 75/30/19 74/31/19
f 75/30/19 76/32/19 74/31/19
f 77/33/20 79/34/20 78/35/20
f 79/34/20 80/36/20 78/35/20
f 81/37/21 83/38/21 82/39/21
f 83/38/21 84/40/21 82/39/21
f 85/41/22 87/42/22 86/43/22
f 87/42/22 88/44/22 86/43/22
f 89/45/23 91/46/23 90/47/23
f 91/46/23 92/48/23 90/47/23
f 93/49/19 95/50/19 94/49/19
f 95/50/19 96/50/19 94/49/19
f 97/49/20 99/50/20 98/49/20
f 99/50/20 100/50/20 98/49/20
f 101/51/21 103/51/21 102/49/21
f 103/51/21 104/49/21 102/49/21
f 105/51/22 107/51/22 106/49/22
f 107/51/22 108/49/22 106/49/22
f 109/52/23 111/53/23 110/45/23
f 111/53/23 112/54/23 110/45/23
f 113/55/24 115/56/24 114/57/24
f 115/56/24 116/58/24 114/57/24
f 117/49/19 119/50/19 118/49/19
f 119/50/19 120/50/19 118/49/19
f 121/49/20 123/50/20 122/49/20
f 123/50/20 124/50/20 122/49/20
f 125/51/21 127/51/21 126/49/21
f 127/51/21 128/49/21 126/49/21
f 129/51/22 131/51/22 130/49/22
f 131/51/22 132/49/22 130/49/22
f 133/52/23 135/53/23 134/45/23
f 135/53/23 136/54/23 134/45/23
f 137/55/24 139/56/24 138/57/24
f 139/56/24 140/58/24 138/57/24
f 141/49/19 143/50/19 142/49/19
f 143/50/19 144/50/19 142/49/19
f 145/49/20 147/50/20 146/49/20
f 147/50/20 148/50/20 146/49/20
f 149/51/21 151/51/21 150/49/21
f 151/51/21 152/49/21 150/49/21
f 153/51/22 155/51/22 154/49/22
f 155/51/22 156/49/22 154/49/22
f 157/52/23 159/53/23 158/45/23
f 159/53/23 160/54/23 158/45/23
f 161/59/24 163/57/24 162/60/24
f 163/57/24 164/61/24 162/60/24
f 165/49/19 167/50/19 166/49/19
f 167/50/19 168/50/19 166/49/19
f 169/49/20 171/50/20 170/49/20
f 171/50/20 172/50/20 170/49/20
f 173/51/21 175/51/21 174/49/21
f 175/51/21 176/49/21 174/49/21
f 177/51/22 179/51/22 178/49/22
f 179/51/22 180/49/22 178/49/22
f 181/52/23 183/53/23 182/45/23
f 183/53/23 184/54/23 182/45/23
f 185/59/24 187/57/24 186/60/24
f 187/57/24 188/61/24 186/60/24
f 189/62/19 191/63/19 190/64/19
f 191/63/19 192/65/19 190/64/19
f 193/66/20 195/67/20 194/63/20
f 195/67/20 196/68/20 194/63/20
f 197/69/21 199/70/21 198/71/21
f 199/70/21 200/72/21 198/71/21
f 201/73/22 203/74/22 202/75/22
f 203/74/22 204/76/22 202/75/22
f 205/77/23 207/78/23 206/75/23
f 207/78/23 208/76/23 206/75/23
f 209/79/24 211/72/24 210/80/24
f 211/72/24 212/70/24 210/80/24
f 213/62/19 215/63/19 214/64/19
f 215/63/19 216/65/19 214/64/19
f 217/66/20 219/67/20 218/63/20
f 219/67/20 220/68/20 218/63/20
f 221/69/21 223/70/21 222/71/21
f 223/70/21 224/72/21 222/71/21
f 225/73/22 227/74/22 226/75/22
f 227/74/22 228/76/22 226/75/22
f 229/77/23 231/78/23 230/75/23
f 231/78/23 232/76/23 230/75/23
f 233/79/24 235/72/24 234/80/24
f 235/72/24 236/70/24 234/80/24
f 237/62/19 239/63/19 238/64/19
f 239/63/19 240/65/19 238/64/19
f 241/66/20 243/67/20 242/63/20
f 243/67/20 244/68/20 242/63/20
f 245/69/21 247/70/21 246/71/21
f 247/70/21 248/72/21 246/71/21
f 249/73/22 251/74/22 250/75/22
f 251/74/22 252/76/22 250/75/22
f 253/77/23 255/78/23 254/75/23
f 255/78/23 256/76/23 254/75/23
f 257/79/24 259/72/24 258/80/24
f 259/72/24 260/70/24 258/80/24
f 261/67/19 263/81/19 262/68/19
f 263/81/19 264/82/19 262/68/19
f 265/83/20 267/84/20 266/85/20
f 267/84/20 268/86/20 266/85/20
f 269/87/21 271/88/21 270/89/21
f 271/88/21 272/90/21 270/89/21
f 273/91/22 275/92/22 274/88/22
f 275/92/22 276/87/22 274/88/22
f 277/93/23 279/94/23 278/95/23
f 279/94/23 280/96/23 278/95/23
f 281/97/24 283/98/24 282/99/24
f 283/98/24 284/100/24 282/99/24
f 285/101/19 287/102/19 286/103/19
f 287/102/19 288/104/19 286/103/19
f 289/105/20 291/106/20 290/107/20
f 291/106/20 292/108/20 290/107/20
f 293/33/21 295/109/21 294/110/21
f 295/109/21 296/111/21 294/110/21
f 297/112/22 299/113/22 298/54/22
f 299/113/22 300/114/22 298/54/22
f 301/115/23 303/116/23 302/117/23
f 303/116/23 304/118/23 302/117/23
f 305/119/24 307/120/24 306/121/24
f 307/120/24 308/122/24 306/121/24
f 309/123/19 311/86/19 310/124/19
f 311/86/19 312/125/19 310/124/19
f 313/126/20 315/127/20 314/128/20
f 315/127/20 316/129/20 314/128/20
f 317/130/21 319/131/21 318/132/21
f 319/131/21 320/133/21 318/132/21
f 321/134/22 323/135/22 322/136/22
f 323/135/22 324/137/22 322/136/22
f 325/138/23 327/139/23 326/140/23
f 327/139/23 328/141/23 326/140/23
f 329/142/24 331/143/24 330/144/24
f 331/143/24 332/145/24 330/144/24
f 333/49/19 335/50/19 334/49/19
f 335/50/19 336/50/19 334/49/19
f 337/49/20 339/50/20 338/49/20
f 339/50/20 340/50/20 338/49/20
f 341/51/21 343/51/21 342/49/21
f 343/51/21 344/49/21 342/49/21
f 345/51/22 347/51/22 346/49/22
f 347/51/22 348/49/22 346/49/22
f 349/146/23 351/142/23 350/147/23
f 351/142/23 352/67/23 350/147/23
f 353/148/24 355/149/24 354/146/24
f 355/149/24 356/142/24 354/146/24
f 357/147/19 359/66/19 358/62/19
f 359/66/19 360/63/19 358/62/19
f 361/66/20 363/67/20 362/63/20
f 363/67/20 364/68/20 362/63/20
f 365/63/21 367/62/21 366/150/21
f 367/62/21 368/151/21 366/150/21
f 369/73/22 371/74/22 370/75/22
f 371/74/22 372/76/22 370/75/22
f 373/75/23 375/76/23 374/73/23
f 375/76/23 376/74/23 374/73/23
f 377/147/24 379/66/24 378/151/24
f 379/66/24 380/150/24 378/151/24
f 381/114/19 383/152/19 382/113/19
f 383/152/19 384/153/19 382/113/19
f 385/109/20 387/154/20 386/123/20
f 387/154/20 388/155/20 386/123/20
f 389/140/21 391/156/21 390/138/21
f 391/156/21 392/157/21 390/138/21
f 393/158/22 395/159/22 394/149/22
f 395/159/22 396/126/22 394/149/22
f 397/160/23 399/161/23 398/162/23
f 399/161/23 400/163/23 398/162/23
f 401/164/24 403/165/24 402/166/24
f 403/165/24 404/167/24 402/166/24
f 405/49/19 407/49/19 406/168/19
f 407/49/19 408/168/19 406/168/19
f 409/49/20 411/49/20 410/168/20
f 411/49/20 412/168/20 410/168/20
f 413/169/21 415/170/21 414/82/21
f 415/170/21 416/171/21 414/82/21
f 417/172/22 419/173/22 418/170/22
f 419/173/22 420/169/22 418/170/22
f 421/49/23 423/49/23 422/51/23
f 423/49/23 424/51/23 422/51/23
f 425/49/24 427/49/24 426/51/24
f 427/49/24 428/51/24 426/51/24
f 429/49/19 431/49/19 430/174/19
f 431/49/19 432/174/19 430/174/19
f 433/49/20 435/49/20 434/174/20
f 435/49/20 436/174/20 434/174/20
f 437/88/21 439/51/21 438/90/21
f 439/51/21 440/49/21 438/90/21
f 441/175/22 443/91/22 442/51/22
f 443/91/22 444/88/22 442/51/22
f 445/49/23 447/49/23 446/51/23
f 447/49/23 448/51/23 446/51/23
f 449/49/24 451/49/24 450/51/24
f 451/49/24 452/51/24 450/51/24
f 453/147/19 455/66/19 454/62/19
f 455/66/19 456/63/19 454/62/19
f 457/66/20 459/67/20 458/63/20
f 459/67/20 460/68/20 458/63/20
f 461/69/21 463/70/21 462/71/21
f 463/70/21 464/72/21 462/71/21
f 465/73/22 467/74/22 466/75/22
f 467/74/22 468/76/22 466/75/22
f 469/107/23 471/176/23 470/77/23
f 471/176/23 472/78/23 470/77/23
f 473/79/24 475/72/24 474/80/24
f 475/72/24 476/70/24 474/80/24
f 477/177/19 479/92/19 478/53/19
f 479/92/19 480/172/19 478/53/19
f 481/89/20 483/148/20 482/171/20
f 483/148/20 484/62/20 482/171/20
f 485/90/21 487/49/21 486/90/21
f 487/49/21 488/49/21 486/90/21
f 489/49/22 491/90/22 490/49/22
f 491/90/22 492/90/22 490/49/22
f 493/49/23 495/50/23 494/49/23
f 495/50/23 496/50/23 494/49/23
f 497/49/24 499/50/24 498/49/24
f 499/50/24 500/50/24 498/49/24
f 501/175/19 503/178/19 502/179/19
f 503/178/19 504/52/19 502/179/19
f 505/178/20 507/177/20 506/52/20
f 507/177/20 508/53/20 506/52/20
f 509/90/21 511/49/21 510/90/21
f 511/49/21 512/49/21 510/90/21
f 513/49/22 515/90/22 514/49/22
f 515/90/22 516/90/22 514/49/22
f 517/49/23 519/50/23 518/49/23
f 519/50/23 520/50/23 518/49/23
f 521/49/24 523/50/24 522/49/24
f 523/50/24 524/50/24 522/49/24
