# Blender 4.3.0
# www.blender.org
mtllib lev.ak12stock3.mtl
o attachmentModel
v 0.769231 0.769231 1.153846
v 0.769231 0.769231 0.000000
v 0.769231 -0.769231 1.153846
v 0.769231 -0.769231 0.000000
v -0.769231 0.769231 0.000000
v -0.769231 0.769231 1.153846
v -0.769231 -0.769231 0.000000
v -0.769231 -0.769231 1.153846
v -0.769231 0.769231 0.000000
v 0.769231 0.769231 0.000000
v -0.769231 0.769231 1.153846
v 0.769231 0.769231 1.153846
v -0.769231 -0.769231 1.153846
v 0.769231 -0.769231 1.153846
v -0.769231 -0.769231 0.000000
v 0.769231 -0.769231 0.000000
v -0.769231 0.769231 1.153846
v 0.769231 0.769231 1.153846
v -0.769231 -0.769231 1.153846
v 0.769231 -0.769231 1.153846
v 0.769231 0.769231 0.000000
v -0.769231 0.769231 0.000000
v 0.769231 -0.769231 0.000000
v -0.769231 -0.769231 0.000000
v 0.000769 1.664917 0.666478
v 0.000769 1.664917 0.281863
v 0.000769 0.126455 0.666478
v 0.000769 0.126455 0.281863
v 0.000000 1.664917 0.281863
v 0.000000 1.664917 0.666478
v 0.000000 0.126455 0.281863
v 0.000000 0.126455 0.666478
v 0.000000 1.664917 0.281863
v 0.000769 1.664917 0.281863
v 0.000000 1.664917 0.666478
v 0.000769 1.664917 0.666478
v 0.000000 0.126455 0.666478
v 0.000769 0.126455 0.666478
v 0.000000 0.126455 0.281863
v 0.000769 0.126455 0.281863
v 0.000000 1.664917 0.666478
v 0.000769 1.664917 0.666478
v 0.000000 0.126455 0.666478
v 0.000769 0.126455 0.666478
v 0.000769 1.664917 0.281863
v 0.000000 1.664917 0.281863
v 0.000769 0.126455 0.281863
v 0.000000 0.126455 0.281863
v 0.576923 0.769231 5.000000
v 0.576923 0.769231 1.153846
v 0.576923 -0.384615 5.000000
v 0.576923 -0.384615 1.153846
v -0.576923 0.769231 1.153846
v -0.576923 0.769231 5.000000
v -0.576923 -0.384615 1.153846
v -0.576923 -0.384615 5.000000
v -0.576923 0.769231 1.153846
v 0.576923 0.769231 1.153846
v -0.576923 0.769231 5.000000
v 0.576923 0.769231 5.000000
v -0.576923 -0.384615 5.000000
v 0.576923 -0.384615 5.000000
v -0.576923 -0.384615 1.153846
v 0.576923 -0.384615 1.153846
v -0.576923 0.769231 5.000000
v 0.576923 0.769231 5.000000
v -0.576923 -0.384615 5.000000
v 0.576923 -0.384615 5.000000
v 0.576923 0.769231 1.153846
v -0.576923 0.769231 1.153846
v 0.576923 -0.384615 1.153846
v -0.576923 -0.384615 1.153846
v 0.576923 0.769231 5.769231
v 0.576923 0.769231 5.000000
v 0.576923 -2.307692 5.769231
v 0.576923 -2.307692 5.000000
v -0.576923 0.769231 5.000000
v -0.576923 0.769231 5.769231
v -0.576923 -2.307692 5.000000
v -0.576923 -2.307692 5.769231
v -0.576923 0.769231 5.000000
v 0.576923 0.769231 5.000000
v -0.576923 0.769231 5.769231
v 0.576923 0.769231 5.769231
v -0.576923 -2.307692 5.769231
v 0.576923 -2.307692 5.769231
v -0.576923 -2.307692 5.000000
v 0.576923 -2.307692 5.000000
v -0.576923 0.769231 5.769231
v 0.576923 0.769231 5.769231
v -0.576923 -2.307692 5.769231
v 0.576923 -2.307692 5.769231
v 0.576923 0.769231 5.000000
v -0.576923 0.769231 5.000000
v 0.576923 -2.307692 5.000000
v -0.576923 -2.307692 5.000000
v 0.769231 0.782512 2.798802
v 0.769231 2.107185 -0.399242
v 0.769231 0.781801 2.798508
v 0.769231 2.106475 -0.399536
v -0.769231 2.107185 -0.399242
v -0.769231 0.782512 2.798802
v -0.769231 2.106475 -0.399536
v -0.769231 0.781801 2.798508
v -0.769231 2.107185 -0.399242
v 0.769231 2.107185 -0.399242
v -0.769231 0.782512 2.798802
v 0.769231 0.782512 2.798802
v -0.769231 0.781801 2.798508
v 0.769231 0.781801 2.798508
v -0.769231 2.106475 -0.399536
v 0.769231 2.106475 -0.399536
v -0.769231 0.782512 2.798802
v 0.769231 0.782512 2.798802
v -0.769231 0.781801 2.798508
v 0.769231 0.781801 2.798508
v 0.769231 2.107185 -0.399242
v -0.769231 2.107185 -0.399242
v 0.769231 2.106475 -0.399536
v -0.769231 2.106475 -0.399536
v -0.769231 0.781801 2.798508
v -0.769231 1.959289 -0.044198
v -0.769231 -0.284214 2.356950
v -0.769231 0.893274 -0.485756
v -0.770000 1.959289 -0.044198
v -0.770000 0.781801 2.798508
v -0.770000 0.893274 -0.485756
v -0.770000 -0.284214 2.356950
v -0.770000 1.959289 -0.044198
v -0.769231 1.959289 -0.044198
v -0.770000 0.781801 2.798508
v -0.769231 0.781801 2.798508
v -0.770000 -0.284214 2.356950
v -0.769231 -0.284214 2.356950
v -0.770000 0.893274 -0.485756
v -0.769231 0.893274 -0.485756
v -0.770000 0.781801 2.798508
v -0.769231 0.781801 2.798508
v -0.770000 -0.284214 2.356950
v -0.769231 -0.284214 2.356950
v -0.769231 1.959289 -0.044198
v -0.770000 1.959289 -0.044198
v -0.769231 0.893274 -0.485756
v -0.770000 0.893274 -0.485756
v 0.770769 0.781801 2.798508
v 0.770769 1.959289 -0.044198
v 0.770769 -0.284214 2.356950
v 0.770769 0.893274 -0.485756
v 0.770000 1.959289 -0.044198
v 0.770000 0.781801 2.798508
v 0.770000 0.893274 -0.485756
v 0.770000 -0.284214 2.356950
v 0.770000 1.959289 -0.044198
v 0.770769 1.959289 -0.044198
v 0.770000 0.781801 2.798508
v 0.770769 0.781801 2.798508
v 0.770000 -0.284214 2.356950
v 0.770769 -0.284214 2.356950
v 0.770000 0.893274 -0.485756
v 0.770769 0.893274 -0.485756
v 0.770000 0.781801 2.798508
v 0.770769 0.781801 2.798508
v 0.770000 -0.284214 2.356950
v 0.770769 -0.284214 2.356950
v 0.770769 1.959289 -0.044198
v 0.770000 1.959289 -0.044198
v 0.770769 0.893274 -0.485756
v 0.770000 0.893274 -0.485756
v 0.000769 -0.384615 5.000000
v 0.000769 -0.384615 1.153846
v 0.000769 -2.307692 5.000000
v 0.000769 -2.307692 1.153846
v 0.000000 -0.384615 1.153846
v 0.000000 -0.384615 5.000000
v 0.000000 -2.307692 1.153846
v 0.000000 -2.307692 5.000000
v 0.000000 -0.384615 1.153846
v 0.000769 -0.384615 1.153846
v 0.000000 -0.384615 5.000000
v 0.000769 -0.384615 5.000000
v 0.000000 -2.307692 5.000000
v 0.000769 -2.307692 5.000000
v 0.000000 -2.307692 1.153846
v 0.000769 -2.307692 1.153846
v 0.000000 -0.384615 5.000000
v 0.000769 -0.384615 5.000000
v 0.000000 -2.307692 5.000000
v 0.000769 -2.307692 5.000000
v 0.000769 -0.384615 1.153846
v 0.000000 -0.384615 1.153846
v 0.000769 -2.307692 1.153846
v 0.000000 -2.307692 1.153846
vn 1.0000 -0.0000 -0.0000
vn -1.0000 -0.0000 -0.0000
vn -0.0000 1.0000 -0.0000
vn -0.0000 -1.0000 -0.0000
vn -0.0000 -0.0000 1.0000
vn -0.0000 -0.0000 -1.0000
vn -0.0000 0.9239 0.3827
vn -0.0000 -0.9239 -0.3827
vn -0.0000 -0.3828 0.9238
vn -0.0000 0.3828 -0.9238
vn -0.0000 0.3827 -0.9239
vn -0.0000 -0.3827 0.9239
vt 0.750000 1.000000
vt 0.750000 0.875000
vt 0.843750 1.000000
vt 0.843750 0.875000
vt 0.125000 0.250000
vt 0.125000 0.125000
vt 0.218750 0.250000
vt 0.218750 0.125000
vt 0.375000 0.156250
vt 0.375000 0.250000
vt 0.250000 0.156250
vt 0.250000 0.250000
vt 0.500000 0.250000
vt 0.500000 0.156250
vt 0.000000 0.250000
vt 0.000000 0.125000
vt 0.625000 0.375000
vt 0.625000 0.250000
vt 0.750000 0.375000
vt 0.750000 0.250000
vt 0.500000 0.125000
vt 0.531250 0.250000
vt 0.531250 0.125000
vt 0.812500 0.812500
vt 0.812500 0.687500
vt 0.843750 0.812500
vt 0.843750 0.687500
vt 0.000000 0.968750
vt 0.000000 1.000000
vt 0.000000 0.875000
vt 0.125000 0.625000
vt 0.125000 0.531250
vt 0.437500 0.625000
vt 0.437500 0.531250
vt 0.437500 1.000000
vt 0.437500 0.906250
vt 0.750000 0.906250
vt 0.531250 0.562500
vt 0.531250 0.875000
vt 0.437500 0.562500
vt 0.437500 0.875000
vt 0.437500 0.250000
vt 0.750000 0.281250
vt 0.843750 0.375000
vt 0.843750 0.281250
vt 0.625000 0.156250
vt 0.718750 0.250000
vt 0.718750 0.156250
vt 0.375000 0.500000
vt 0.437500 0.500000
vt 0.562500 0.375000
vt 0.562500 0.125000
vt 0.625000 0.125000
vt 0.843750 0.187500
vt 0.843750 0.250000
vt 0.750000 0.187500
vt 0.906250 0.875000
vt 0.906250 0.812500
vt 0.812500 0.875000
vt 0.250000 0.500000
vt 0.343750 0.500000
vt 0.343750 0.250000
vt 0.125000 0.500000
vt 0.218750 0.500000
vt 0.343750 1.000000
vt 0.437500 0.718750
vt 0.312500 0.718750
vt 0.312500 1.000000
vt 0.125000 1.000000
vt 0.562500 0.625000
vt 0.562500 0.531250
vt 0.812500 0.625000
vt 0.812500 0.531250
vt 0.000000 0.750000
vt 0.000000 0.906250
vt 0.000000 0.843750
vt 0.312500 0.843750
vt 0.000000 0.812500
vt 0.000000 0.656250
vt 0.312500 0.812500
vt 0.312500 0.656250
vt 0.000000 0.687500
s 0
usemtl Material_0
f 1/1/1 3/2/1 2/3/1
f 3/2/1 4/4/1 2/3/1
f 5/5/2 7/6/2 6/7/2
f 7/6/2 8/8/2 6/7/2
f 9/9/3 11/10/3 10/11/3
f 11/10/3 12/12/3 10/11/3
f 13/13/4 15/14/4 14/10/4
f 15/14/4 16/9/4 14/10/4
f 17/15/5 19/16/5 18/5/5
f 19/16/5 20/6/5 18/5/5
f 21/17/6 23/18/6 22/19/6
f 23/18/6 24/20/6 22/19/6
f 25/13/1 27/21/1 26/22/1
f 27/21/1 28/23/1 26/22/1
f 29/24/2 31/25/2 30/26/2
f 31/25/2 32/27/2 30/26/2
f 33/28/3 35/29/3 34/28/3
f 35/29/3 36/29/3 34/28/3
f 37/29/4 39/28/4 38/29/4
f 39/28/4 40/28/4 38/29/4
f 41/29/5 43/30/5 42/29/5
f 43/30/5 44/30/5 42/29/5
f 45/29/6 47/30/6 46/29/6
f 47/30/6 48/30/6 46/29/6
f 49/31/1 51/32/1 50/33/1
f 51/32/1 52/34/1 50/33/1
f 53/35/2 55/36/2 54/1/2
f 55/36/2 56/37/2 54/1/2
f 57/38/3 59/39/3 58/40/3
f 59/39/3 60/41/3 58/40/3
f 61/38/4 63/22/4 62/40/4
f 63/22/4 64/42/4 62/40/4
f 65/19/5 67/43/5 66/44/5
f 67/43/5 68/45/5 66/44/5
f 69/18/6 71/46/6 70/47/6
f 71/46/6 72/48/6 70/47/6
f 73/49/1 75/10/1 74/50/1
f 75/10/1 76/42/1 74/50/1
f 77/51/2 79/52/2 78/17/2
f 79/52/2 80/53/2 78/17/2
f 81/54/3 83/55/3 82/56/3
f 83/55/3 84/20/3 82/56/3
f 85/57/4 87/58/4 86/59/4
f 87/58/4 88/24/4 86/59/4
f 89/60/5 91/12/5 90/61/5
f 91/12/5 92/62/5 90/61/5
f 93/63/6 95/5/6 94/64/6
f 95/5/6 96/7/6 94/64/6
f 97/29/1 99/29/1 98/65/1
f 99/29/1 100/65/1 98/65/1
f 101/29/2 103/29/2 102/65/2
f 103/29/2 104/65/2 102/65/2
f 105/66/7 107/35/7 106/67/7
f 107/35/7 108/68/7 106/67/7
f 109/35/8 111/66/8 110/68/8
f 111/66/8 112/67/8 110/68/8
f 113/29/9 115/29/9 114/69/9
f 115/29/9 116/69/9 114/69/9
f 117/29/10 119/29/10 118/69/10
f 119/29/11 120/69/11 118/69/11
f 121/70/1 123/71/1 122/72/1
f 123/71/1 124/73/1 122/72/1
f 125/72/2 127/73/2 126/70/2
f 127/73/2 128/71/2 126/70/2
f 129/74/7 131/29/7 130/74/7
f 131/29/7 132/29/7 130/74/7
f 133/29/8 135/74/8 134/29/8
f 135/74/8 136/74/8 134/29/8
f 137/29/12 139/75/12 138/29/12
f 139/75/12 140/75/12 138/29/12
f 141/29/11 143/75/11 142/29/11
f 143/75/11 144/75/11 142/29/11
f 145/70/1 147/71/1 146/72/1
f 147/71/1 148/73/1 146/72/1
f 149/72/2 151/73/2 150/70/2
f 151/73/2 152/71/2 150/70/2
f 153/74/7 155/29/7 154/74/7
f 155/29/7 156/29/7 154/74/7
f 157/29/8 159/74/8 158/29/8
f 159/74/8 160/74/8 158/29/8
f 161/29/12 163/75/12 162/29/12
f 163/75/12 164/75/12 162/29/12
f 165/29/11 167/75/11 166/29/11
f 167/75/11 168/75/11 166/29/11
f 169/29/1 171/76/1 170/68/1
f 171/76/1 172/77/1 170/68/1
f 173/78/2 175/79/2 174/80/2
f 175/79/2 176/81/2 174/80/2
f 177/82/3 179/29/3 178/82/3
f 179/29/3 180/29/3 178/82/3
f 181/29/4 183/82/4 182/29/4
f 183/82/4 184/82/4 182/29/4
f 185/29/5 187/76/5 186/29/5
f 187/76/5 188/76/5 186/29/5
f 189/29/6 191/76/6 190/29/6
f 191/76/6 192/76/6 190/29/6
