# Blender 5.0.1
# www.blender.org
mtllib lev.sa58brsstock.mtl
o attachmentModel
v 0.576923 1.153846 1.153846
v 0.576923 1.153846 0.000000
v 0.576923 -0.769231 1.153846
v 0.576923 -0.769231 0.000000
v -0.576923 1.153846 0.000000
v -0.576923 1.153846 1.153846
v -0.576923 -0.769231 0.000000
v -0.576923 -0.769231 1.153846
v -0.576923 1.153846 0.000000
v 0.576923 1.153846 0.000000
v -0.576923 1.153846 1.153846
v 0.576923 1.153846 1.153846
v -0.576923 -0.769231 1.153846
v 0.576923 -0.769231 1.153846
v -0.576923 -0.769231 0.000000
v 0.576923 -0.769231 0.000000
v -0.576923 1.153846 1.153846
v 0.576923 1.153846 1.153846
v -0.576923 -0.769231 1.153846
v 0.576923 -0.769231 1.153846
v 0.576923 1.153846 0.000000
v -0.576923 1.153846 0.000000
v 0.576923 -0.769231 0.000000
v -0.576923 -0.769231 0.000000
v 0.569231 0.565102 2.575199
v 0.569231 1.153846 1.153846
v 0.569231 0.209764 2.428013
v 0.569231 0.798508 1.006660
v -0.569231 1.153846 1.153846
v -0.569231 0.565102 2.575199
v -0.569231 0.798508 1.006660
v -0.569231 0.209764 2.428013
v -0.569231 1.153846 1.153846
v 0.569231 1.153846 1.153846
v -0.569231 0.565102 2.575199
v 0.569231 0.565102 2.575199
v -0.569231 0.209764 2.428013
v 0.569231 0.209764 2.428013
v -0.569231 0.798508 1.006660
v 0.569231 0.798508 1.006660
v -0.569231 0.565102 2.575199
v 0.569231 0.565102 2.575199
v -0.569231 0.209764 2.428013
v 0.569231 0.209764 2.428013
v 0.569231 1.153846 1.153846
v -0.569231 1.153846 1.153846
v 0.569231 0.798508 1.006660
v -0.569231 0.798508 1.006660
v 1.120852 0.961538 0.961538
v 0.576923 0.961538 0.417610
v 1.120852 -0.961538 0.961538
v 0.576923 -0.961538 0.417610
v 0.032995 0.961538 0.961539
v 0.576923 0.961538 1.505467
v 0.032995 -0.961538 0.961539
v 0.576923 -0.961538 1.505467
v 0.032995 0.961538 0.961539
v 0.576923 0.961538 0.417610
v 0.576923 0.961538 1.505467
v 1.120852 0.961538 0.961538
v 0.576923 -0.961538 1.505467
v 1.120852 -0.961538 0.961538
v 0.032995 -0.961538 0.961539
v 0.576923 -0.961538 0.417610
v 0.576923 0.961538 1.505467
v 1.120852 0.961538 0.961538
v 0.576923 -0.961538 1.505467
v 1.120852 -0.961538 0.961538
v 0.576923 0.961538 0.417610
v 0.032995 0.961538 0.961539
v 0.576923 -0.961538 0.417610
v 0.032995 -0.961538 0.961539
v 0.576923 0.769231 6.153846
v 0.576923 0.769231 1.153846
v 0.576923 -1.153846 6.153846
v 0.576923 -1.153846 1.153846
v -0.576923 0.769231 1.153846
v -0.576923 0.769231 6.153846
v -0.576923 -1.153846 1.153846
v -0.576923 -1.153846 6.153846
v -0.576923 0.769231 1.153846
v 0.576923 0.769231 1.153846
v -0.576923 0.769231 6.153846
v 0.576923 0.769231 6.153846
v -0.576923 -1.153846 6.153846
v 0.576923 -1.153846 6.153846
v -0.576923 -1.153846 1.153846
v 0.576923 -1.153846 1.153846
v -0.576923 0.769231 6.153846
v 0.576923 0.769231 6.153846
v -0.576923 -1.153846 6.153846
v 0.576923 -1.153846 6.153846
v 0.576923 0.769231 1.153846
v -0.576923 0.769231 1.153846
v 0.576923 -1.153846 1.153846
v -0.576923 -1.153846 1.153846
v 0.569231 -0.813552 6.128593
v 0.569231 -1.107924 5.417917
v 0.569231 -2.590243 6.864523
v 0.569231 -2.884614 6.153847
v -0.569231 -1.107924 5.417917
v -0.569231 -0.813552 6.128593
v -0.569231 -2.884614 6.153847
v -0.569231 -2.590243 6.864523
v -0.569231 -1.107924 5.417917
v 0.569231 -1.107924 5.417917
v -0.569231 -0.813552 6.128593
v 0.569231 -0.813552 6.128593
v -0.569231 -2.590243 6.864523
v 0.569231 -2.590243 6.864523
v -0.569231 -2.884614 6.153847
v 0.569231 -2.884614 6.153847
v -0.569231 -0.813552 6.128593
v 0.569231 -0.813552 6.128593
v -0.569231 -2.590243 6.864523
v 0.569231 -2.590243 6.864523
v 0.569231 -1.107924 5.417917
v -0.569231 -1.107924 5.417917
v 0.569231 -2.884614 6.153847
v -0.569231 -2.884614 6.153847
v 0.000769 -0.752585 5.270731
v 0.000769 -1.046957 4.560054
v 0.000769 -2.884614 6.153847
v 0.000769 -3.178987 5.443170
v 0.000000 -1.046957 4.560054
v 0.000000 -0.752585 5.270731
v 0.000000 -3.178987 5.443170
v 0.000000 -2.884614 6.153847
v 0.000000 -1.046957 4.560054
v 0.000769 -1.046957 4.560054
v 0.000000 -0.752585 5.270731
v 0.000769 -0.752585 5.270731
v 0.000000 -2.884614 6.153847
v 0.000769 -2.884614 6.153847
v 0.000000 -3.178987 5.443170
v 0.000769 -3.178987 5.443170
v 0.000000 -0.752585 5.270731
v 0.000769 -0.752585 5.270731
v 0.000000 -2.884614 6.153847
v 0.000769 -2.884614 6.153847
v 0.000769 -1.046957 4.560054
v 0.000000 -1.046957 4.560054
v 0.000769 -3.178987 5.443170
v 0.000000 -3.178987 5.443170
v 0.576923 0.961538 7.307693
v 0.576923 0.961538 6.153846
v 0.576923 -2.884615 7.307693
v 0.576923 -2.884615 6.153846
v -0.576923 0.961538 6.153846
v -0.576923 0.961538 7.307693
v -0.576923 -2.884615 6.153846
v -0.576923 -2.884615 7.307693
v -0.576923 0.961538 6.153846
v 0.576923 0.961538 6.153846
v -0.576923 0.961538 7.307693
v 0.576923 0.961538 7.307693
v -0.576923 -2.884615 7.307693
v 0.576923 -2.884615 7.307693
v -0.576923 -2.884615 6.153846
v 0.576923 -2.884615 6.153846
v -0.576923 0.961538 7.307693
v 0.576923 0.961538 7.307693
v -0.576923 -2.884615 7.307693
v 0.576923 -2.884615 7.307693
v 0.576923 0.961538 6.153846
v -0.576923 0.961538 6.153846
v 0.576923 -2.884615 6.153846
v -0.576923 -2.884615 6.153846
vn 1.0000 -0.0000 -0.0000
vn -1.0000 -0.0000 -0.0000
vn -0.0000 1.0000 -0.0000
vn -0.0000 -1.0000 -0.0000
vn -0.0000 -0.0000 1.0000
vn -0.0000 -0.0000 -1.0000
vn -0.0000 0.9239 0.3827
vn -0.0000 -0.9239 -0.3827
vn -0.0000 -0.3827 0.9239
vn -0.0000 0.3827 -0.9239
vn 0.7071 -0.0000 -0.7071
vn -0.7071 -0.0000 0.7071
vn 0.7071 -0.0000 0.7071
vn -0.7071 -0.0000 -0.7071
vn -0.0000 0.9239 -0.3827
vn -0.0000 -0.9239 0.3827
vn -0.0000 0.3827 0.9239
vn -0.0000 -0.3827 -0.9239
vt 0.500000 0.375000
vt 0.500000 0.218750
vt 0.593750 0.375000
vt 0.593750 0.218750
vt 0.687500 1.000000
vt 0.687500 0.843750
vt 0.781250 1.000000
vt 0.781250 0.843750
vt 0.906250 0.343750
vt 0.906250 0.437500
vt 0.812500 0.343750
vt 0.812500 0.437500
vt 0.906250 0.312500
vt 0.906250 0.218750
vt 0.812500 0.312500
vt 0.812500 0.218750
vt 0.625000 0.437500
vt 0.625000 0.281250
vt 0.718750 0.437500
vt 0.718750 0.281250
vt 0.625000 0.625000
vt 0.625000 0.468750
vt 0.718750 0.625000
vt 0.718750 0.468750
vt 0.875000 0.937500
vt 0.875000 0.906250
vt 1.000000 0.937500
vt 1.000000 0.906250
vt 0.875000 0.875000
vt 0.875000 0.843750
vt 1.000000 0.875000
vt 1.000000 0.843750
vt 0.843750 0.687500
vt 0.843750 0.812500
vt 0.750000 0.687500
vt 0.750000 0.812500
vt 0.843750 0.562500
vt 0.750000 0.562500
vt 0.875000 0.812500
vt 0.875000 0.781250
vt 0.968750 0.812500
vt 0.968750 0.781250
vt 0.187500 0.125000
vt 0.187500 0.093750
vt 0.281250 0.125000
vt 0.281250 0.093750
vt 0.687500 0.250000
vt 0.687500 0.093750
vt 0.750000 0.250000
vt 0.750000 0.093750
vt 0.812500 1.000000
vt 0.812500 0.843750
vt 0.875000 1.000000
vt 0.500000 0.625000
vt 0.500000 0.687500
vt 0.437500 0.625000
vt 0.437500 0.687500
vt 0.625000 0.812500
vt 0.625000 0.750000
vt 0.562500 0.812500
vt 0.562500 0.750000
vt 0.000000 0.187500
vt 0.000000 0.031250
vt 0.062500 0.187500
vt 0.062500 0.031250
vt 0.750000 0.375000
vt 0.750000 0.218750
vt 0.812500 0.375000
vt 0.000000 1.000000
vt 0.000000 0.843750
vt 0.406250 1.000000
vt 0.406250 0.843750
vt 0.000000 0.812500
vt 0.000000 0.656250
vt 0.406250 0.812500
vt 0.406250 0.656250
vt 0.093750 0.218750
vt 0.093750 0.625000
vt 0.000000 0.218750
vt 0.000000 0.625000
vt 0.218750 0.625000
vt 0.218750 0.218750
vt 0.125000 0.625000
vt 0.125000 0.218750
vt 0.625000 0.656250
vt 0.718750 0.812500
vt 0.718750 0.656250
vt 0.562500 1.000000
vt 0.562500 0.843750
vt 0.656250 1.000000
vt 0.656250 0.843750
vt 0.125000 0.187500
vt 0.125000 0.031250
vt 0.187500 0.187500
vt 0.187500 0.031250
vt 0.843750 0.125000
vt 0.843750 0.187500
vt 0.750000 0.125000
vt 0.750000 0.187500
vt 0.968750 1.000000
vt 0.968750 0.937500
vt 0.375000 0.312500
vt 0.375000 0.156250
vt 0.468750 0.312500
vt 0.468750 0.156250
vt 0.250000 0.312500
vt 0.250000 0.156250
vt 0.343750 0.312500
vt 0.343750 0.156250
vt 0.812500 0.562500
vt 0.625000 0.250000
vt 0.625000 0.062500
vt 0.687500 0.062500
vt 0.000000 0.937500
vt 0.375000 0.625000
vt 0.468750 0.625000
vt 0.593750 0.687500
vt 0.906250 0.468750
vt 0.906250 0.562500
vt 0.812500 0.468750
vt 0.593750 0.187500
vt 0.593750 0.093750
vt 0.500000 0.187500
vt 0.500000 0.093750
vt 0.437500 1.000000
vt 0.531250 1.000000
vt 0.531250 0.687500
vt 0.250000 0.625000
vt 0.343750 0.625000
s 0
usemtl Material_0.002
f 1/1/1 3/2/1 2/3/1
f 3/2/1 4/4/1 2/3/1
f 5/5/2 7/6/2 6/7/2
f 7/6/2 8/8/2 6/7/2
f 9/9/3 11/10/3 10/11/3
f 11/10/3 12/12/3 10/11/3
f 13/13/4 15/14/4 14/15/4
f 15/14/4 16/16/4 14/15/4
f 17/17/5 19/18/5 18/19/5
f 19/18/5 20/20/5 18/19/5
f 21/21/6 23/22/6 22/23/6
f 23/22/6 24/24/6 22/23/6
f 25/25/1 27/26/1 26/27/1
f 27/26/1 28/28/1 26/27/1
f 29/29/2 31/30/2 30/31/2
f 31/30/2 32/32/2 30/31/2
f 33/33/7 35/34/7 34/35/7
f 35/34/7 36/36/7 34/35/7
f 37/33/8 39/37/8 38/35/8
f 39/37/8 40/38/8 38/35/8
f 41/39/9 43/40/9 42/41/9
f 43/40/9 44/42/9 42/41/9
f 45/43/10 47/44/10 46/45/10
f 47/44/10 48/46/10 46/45/10
f 49/47/11 51/48/11 50/49/11
f 51/48/11 52/50/11 50/49/11
f 53/51/12 55/52/12 54/53/12
f 55/52/12 56/30/12 54/53/12
f 57/54/3 59/55/3 58/56/3
f 59/55/3 60/57/3 58/56/3
f 61/58/4 63/59/4 62/60/4
f 63/59/4 64/61/4 62/60/4
f 65/62/13 67/63/13 66/64/13
f 67/63/13 68/65/13 66/64/13
f 69/66/14 71/67/14 70/68/14
f 71/67/14 72/16/14 70/68/14
f 73/69/1 75/70/1 74/71/1
f 75/70/1 76/72/1 74/71/1
f 77/73/2 79/74/2 78/75/2
f 79/74/2 80/76/2 78/75/2
f 81/77/3 83/78/3 82/79/3
f 83/78/3 84/80/3 82/79/3
f 85/81/4 87/82/4 86/83/4
f 87/82/4 88/84/4 86/83/4
f 89/58/5 91/85/5 90/86/5
f 91/85/5 92/87/5 90/86/5
f 93/88/6 95/89/6 94/90/6
f 95/89/6 96/91/6 94/90/6
f 97/64/1 99/65/1 98/92/1
f 99/65/1 100/93/1 98/92/1
f 101/92/2 103/93/2 102/94/2
f 103/93/2 104/95/2 102/94/2
f 105/96/15 107/97/15 106/98/15
f 107/97/15 108/99/15 106/98/15
f 109/100/16 111/101/16 110/53/16
f 111/101/16 112/25/16 110/53/16
f 113/102/17 115/103/17 114/104/17
f 115/103/17 116/105/17 114/104/17
f 117/106/18 119/107/18 118/108/18
f 119/107/18 120/109/18 118/108/18
f 121/38/1 123/66/1 122/110/1
f 123/66/1 124/68/1 122/110/1
f 125/111/2 127/112/2 126/47/2
f 127/112/2 128/113/2 126/47/2
f 129/114/15 131/69/15 130/114/15
f 131/69/15 132/69/15 130/114/15
f 133/69/16 135/114/16 134/69/16
f 135/114/16 136/114/16 134/69/16
f 137/69/17 139/73/17 138/69/17
f 139/73/17 140/73/17 138/69/17
f 141/69/18 143/73/18 142/69/18
f 143/73/18 144/73/18 142/69/18
f 145/115/1 147/102/1 146/116/1
f 147/102/1 148/104/1 146/116/1
f 149/55/2 151/1/2 150/117/2
f 151/1/2 152/3/2 150/117/2
f 153/118/3 155/119/3 154/120/3
f 155/119/3 156/110/3 154/120/3
f 157/121/4 159/122/4 158/123/4
f 159/122/4 160/124/4 158/123/4
f 161/125/5 163/57/5 162/126/5
f 163/57/5 164/127/5 162/126/5
f 165/128/6 167/106/6 166/129/6
f 167/106/6 168/108/6 166/129/6
