# Blender 4.4.0
# www.blender.org
mtllib lev.mp7comp.mtl
o attachmentModel
v 0.384615 0.384615 -0.383846
v 1.538461 0.384615 -0.383846
v 0.384615 -0.384615 -0.383846
v 1.538461 -0.384615 -0.383846
v 1.538461 0.384615 -0.384615
v 0.384615 0.384615 -0.384615
v 1.538461 -0.384615 -0.384615
v 0.384615 -0.384615 -0.384615
v 1.538461 0.384615 -0.384615
v 1.538461 0.384615 -0.383846
v 0.384615 0.384615 -0.384615
v 0.384615 0.384615 -0.383846
v 0.384615 -0.384615 -0.384615
v 0.384615 -0.384615 -0.383846
v 1.538461 -0.384615 -0.384615
v 1.538461 -0.384615 -0.383846
v 0.384615 0.384615 -0.384615
v 0.384615 0.384615 -0.383846
v 0.384615 -0.384615 -0.384615
v 0.384615 -0.384615 -0.383846
v 1.538461 0.384615 -0.383846
v 1.538461 0.384615 -0.384615
v 1.538461 -0.384615 -0.383846
v 1.538461 -0.384615 -0.384615
v 0.384615 0.384615 0.385385
v 1.538461 0.384615 0.385385
v 0.384615 -0.384615 0.385385
v 1.538461 -0.384615 0.385385
v 1.538461 0.384615 0.384615
v 0.384615 0.384615 0.384615
v 1.538461 -0.384615 0.384615
v 0.384615 -0.384615 0.384615
v 1.538461 0.384615 0.384615
v 1.538461 0.384615 0.385385
v 0.384615 0.384615 0.384615
v 0.384615 0.384615 0.385385
v 0.384615 -0.384615 0.384615
v 0.384615 -0.384615 0.385385
v 1.538461 -0.384615 0.384615
v 1.538461 -0.384615 0.385385
v 0.384615 0.384615 0.384615
v 0.384615 0.384615 0.385385
v 0.384615 -0.384615 0.384615
v 0.384615 -0.384615 0.385385
v 1.538461 0.384615 0.385385
v 1.538461 0.384615 0.384615
v 1.538461 -0.384615 0.385385
v 1.538461 -0.384615 0.384615
v 0.384615 -0.383846 0.384615
v 1.538461 -0.383846 0.384615
v 0.384615 -0.384615 0.384615
v 1.538461 -0.384615 0.384615
v 1.538461 -0.383846 -0.384615
v 0.384615 -0.383846 -0.384615
v 1.538461 -0.384615 -0.384615
v 0.384615 -0.384615 -0.384615
v 1.538461 -0.383846 -0.384615
v 1.538461 -0.383846 0.384615
v 0.384615 -0.383846 -0.384615
v 0.384615 -0.383846 0.384615
v 0.384615 -0.384615 -0.384615
v 0.384615 -0.384615 0.384615
v 1.538461 -0.384615 -0.384615
v 1.538461 -0.384615 0.384615
v 0.384615 -0.383846 -0.384615
v 0.384615 -0.383846 0.384615
v 0.384615 -0.384615 -0.384615
v 0.384615 -0.384615 0.384615
v 1.538461 -0.383846 0.384615
v 1.538461 -0.383846 -0.384615
v 1.538461 -0.384615 0.384615
v 1.538461 -0.384615 -0.384615
v 0.384615 0.385385 0.384615
v 1.538461 0.385385 0.384615
v 0.384615 0.384615 0.384615
v 1.538461 0.384615 0.384615
v 1.538461 0.385385 -0.384615
v 0.384615 0.385385 -0.384615
v 1.538461 0.384615 -0.384615
v 0.384615 0.384615 -0.384615
v 1.538461 0.385385 -0.384615
v 1.538461 0.385385 0.384615
v 0.384615 0.385385 -0.384615
v 0.384615 0.385385 0.384615
v 0.384615 0.384615 -0.384615
v 0.384615 0.384615 0.384615
v 1.538461 0.384615 -0.384615
v 1.538461 0.384615 0.384615
v 0.384615 0.385385 -0.384615
v 0.384615 0.385385 0.384615
v 0.384615 0.384615 -0.384615
v 0.384615 0.384615 0.384615
v 1.538461 0.385385 0.384615
v 1.538461 0.385385 -0.384615
v 1.538461 0.384615 0.384615
v 1.538461 0.384615 -0.384615
v 1.537692 0.384615 0.384615
v 1.538461 0.384615 0.384615
v 1.537692 -0.384615 0.384615
v 1.538461 -0.384615 0.384615
v 1.538461 0.384615 -0.384615
v 1.537692 0.384615 -0.384615
v 1.538461 -0.384615 -0.384615
v 1.537692 -0.384615 -0.384615
v 1.538461 0.384615 -0.384615
v 1.538461 0.384615 0.384615
v 1.537692 0.384615 -0.384615
v 1.537692 0.384615 0.384615
v 1.537692 -0.384615 -0.384615
v 1.537692 -0.384615 0.384615
v 1.538461 -0.384615 -0.384615
v 1.538461 -0.384615 0.384615
v 1.537692 0.384615 -0.384615
v 1.537692 0.384615 0.384615
v 1.537692 -0.384615 -0.384615
v 1.537692 -0.384615 0.384615
v 1.538461 0.384615 0.384615
v 1.538461 0.384615 -0.384615
v 1.538461 -0.384615 0.384615
v 1.538461 -0.384615 -0.384615
v 0.000000 0.384615 0.384615
v 0.384615 0.384615 0.384615
v 0.000000 -0.384615 0.384615
v 0.384615 -0.384615 0.384615
v 0.384615 0.384615 -0.384615
v -0.000000 0.384615 -0.384615
v 0.384615 -0.384615 -0.384615
v -0.000000 -0.384615 -0.384615
v 0.384615 0.384615 -0.384615
v 0.384615 0.384615 0.384615
v -0.000000 0.384615 -0.384615
v 0.000000 0.384615 0.384615
v -0.000000 -0.384615 -0.384615
v 0.000000 -0.384615 0.384615
v 0.384615 -0.384615 -0.384615
v 0.384615 -0.384615 0.384615
v -0.000000 0.384615 -0.384615
v 0.000000 0.384615 0.384615
v -0.000000 -0.384615 -0.384615
v 0.000000 -0.384615 0.384615
v 0.384615 0.384615 0.384615
v 0.384615 0.384615 -0.384615
v 0.384615 -0.384615 0.384615
v 0.384615 -0.384615 -0.384615
vn -0.0000 -0.0000 1.0000
vn -0.0000 -0.0000 -1.0000
vn -0.0000 1.0000 -0.0000
vn -0.0000 -1.0000 -0.0000
vn -1.0000 -0.0000 -0.0000
vn 1.0000 -0.0000 -0.0000
vt 0.000000 1.000000
vt 0.000000 0.875000
vt 0.187500 1.000000
vt 0.187500 0.875000
vt 0.000000 0.750000
vt 0.187500 0.750000
vt 0.000000 0.812500
vt 0.000000 0.625000
vt 0.187500 0.625000
vt 0.250000 1.000000
vt 0.250000 0.875000
vt 0.437500 1.000000
vt 0.437500 0.875000
vt 0.375000 0.687500
vt 0.375000 0.875000
vt 0.250000 0.687500
vt 0.125000 0.625000
vt 0.125000 0.437500
vt 0.000000 0.437500
vt 0.125000 1.000000
vt 0.250000 0.437500
vt 0.250000 0.625000
vt 0.500000 0.875000
vt 0.500000 0.687500
vt 0.375000 0.625000
vt 0.375000 0.500000
vt 0.250000 0.500000
vt 0.250000 0.375000
vt 0.312500 0.500000
vt 0.312500 0.375000
vt 0.500000 0.750000
vt 0.500000 0.625000
vt 0.562500 0.750000
vt 0.562500 0.625000
vt 0.500000 0.437500
vt 0.500000 0.500000
vt 0.375000 0.437500
vt 0.625000 0.625000
vt 0.625000 0.562500
vt 0.500000 0.562500
vt 0.625000 0.875000
vt 0.625000 0.750000
vt 0.500000 1.000000
vt 0.625000 1.000000
s 0
usemtl Material_0
f 1/1/1 3/2/1 2/3/1
f 3/2/1 4/4/1 2/3/1
f 5/2/2 7/5/2 6/4/2
f 7/5/2 8/6/2 6/4/2
f 9/7/3 11/1/3 10/7/3
f 11/1/3 12/1/3 10/7/3
f 13/1/4 15/7/4 14/1/4
f 15/7/4 16/7/4 14/1/4
f 17/1/5 19/2/5 18/1/5
f 19/2/5 20/2/5 18/1/5
f 21/1/6 23/2/6 22/1/6
f 23/2/6 24/2/6 22/1/6
f 25/5/1 27/8/1 26/6/1
f 27/8/1 28/9/1 26/6/1
f 29/10/2 31/11/2 30/12/2
f 31/11/2 32/13/2 30/12/2
f 33/7/3 35/1/3 34/7/3
f 35/1/3 36/1/3 34/7/3
f 37/1/4 39/7/4 38/1/4
f 39/7/4 40/7/4 38/1/4
f 41/1/5 43/2/5 42/1/5
f 43/2/5 44/2/5 42/1/5
f 45/1/6 47/2/6 46/1/6
f 47/2/6 48/2/6 46/1/6
f 49/1/1 51/1/1 50/3/1
f 51/1/1 52/3/1 50/3/1
f 53/1/2 55/1/2 54/3/2
f 55/1/2 56/3/2 54/3/2
f 57/14/3 59/15/3 58/16/3
f 59/15/3 60/11/3 58/16/3
f 61/17/4 63/18/4 62/8/4
f 63/18/4 64/19/4 62/8/4
f 65/1/5 67/1/5 66/20/5
f 67/1/5 68/20/5 66/20/5
f 69/1/6 71/1/6 70/20/6
f 71/1/6 72/20/6 70/20/6
f 73/1/1 75/1/1 74/3/1
f 75/1/1 76/3/1 74/3/1
f 77/1/2 79/1/2 78/3/2
f 79/1/2 80/3/2 78/3/2
f 81/21/3 83/22/3 82/18/3
f 83/22/3 84/17/3 82/18/3
f 85/23/4 87/24/4 86/15/4
f 87/24/4 88/14/4 86/15/4
f 89/1/5 91/1/5 90/20/5
f 91/1/5 92/20/5 90/20/5
f 93/1/6 95/1/6 94/20/6
f 95/1/6 96/20/6 94/20/6
f 97/1/1 99/2/1 98/1/1
f 99/2/1 100/2/1 98/1/1
f 101/1/2 103/2/2 102/1/2
f 103/2/2 104/2/2 102/1/2
f 105/20/3 107/20/3 106/1/3
f 107/20/3 108/1/3 106/1/3
f 109/20/4 111/20/4 110/1/4
f 111/20/4 112/1/4 110/1/4
f 113/25/5 115/26/5 114/22/5
f 115/26/5 116/27/5 114/22/5
f 117/22/6 119/27/6 118/25/6
f 119/27/6 120/26/6 118/25/6
f 121/27/1 123/28/1 122/29/1
f 123/28/1 124/30/1 122/29/1
f 125/31/2 127/32/2 126/33/2
f 127/32/2 128/34/2 126/33/2
f 129/35/3 131/36/3 130/37/3
f 131/36/3 132/26/3 130/37/3
f 133/38/4 135/39/4 134/32/4
f 135/39/4 136/40/4 134/32/4
f 137/23/5 139/31/5 138/41/5
f 139/31/5 140/42/5 138/41/5
f 141/43/6 143/23/6 142/44/6
f 143/23/6 144/41/6 142/44/6
