# Blender 4.3.0
# www.blender.org
mtllib lev.hk416stock.mtl
o attachmentModel
v 0.576923 0.576923 5.384615
v 0.576923 0.576923 0.769231
v 0.576923 -0.576923 5.384615
v 0.576923 -0.576923 0.769231
v -0.576923 0.576923 0.769231
v -0.576923 0.576923 5.384615
v -0.576923 -0.576923 0.769231
v -0.576923 -0.576923 5.384615
v -0.576923 0.576923 0.769231
v 0.576923 0.576923 0.769231
v -0.576923 0.576923 5.384615
v 0.576923 0.576923 5.384615
v -0.576923 -0.576923 5.384615
v 0.576923 -0.576923 5.384615
v -0.576923 -0.576923 0.769231
v 0.576923 -0.576923 0.769231
v -0.576923 0.576923 5.384615
v 0.576923 0.576923 5.384615
v -0.576923 -0.576923 5.384615
v 0.576923 -0.576923 5.384615
v 0.576923 0.576923 0.769231
v -0.576923 0.576923 0.769231
v 0.576923 -0.576923 0.769231
v -0.576923 -0.576923 0.769231
v 0.000769 -0.576923 5.000000
v 0.000769 -0.576923 0.769231
v 0.000769 -2.500000 5.000000
v 0.000769 -2.500000 0.769231
v -0.000000 -0.576923 0.769231
v -0.000000 -0.576923 5.000000
v -0.000000 -2.500000 0.769231
v -0.000000 -2.500000 5.000000
v -0.000000 -0.576923 0.769231
v 0.000769 -0.576923 0.769231
v -0.000000 -0.576923 5.000000
v 0.000769 -0.576923 5.000000
v -0.000000 -2.500000 5.000000
v 0.000769 -2.500000 5.000000
v -0.000000 -2.500000 0.769231
v 0.000769 -2.500000 0.769231
v -0.000000 -0.576923 5.000000
v 0.000769 -0.576923 5.000000
v -0.000000 -2.500000 5.000000
v 0.000769 -2.500000 5.000000
v 0.000769 -0.576923 0.769231
v -0.000000 -0.576923 0.769231
v 0.000769 -2.500000 0.769231
v -0.000000 -2.500000 0.769231
v 0.383846 -2.340688 4.390078
v 0.383846 -0.164974 2.214365
v 0.383846 -2.884616 3.846149
v 0.383846 -0.708902 1.670436
v -0.383846 -0.164974 2.214365
v -0.383846 -2.340688 4.390078
v -0.383846 -0.708902 1.670436
v -0.383846 -2.884616 3.846149
v -0.383846 -0.164974 2.214365
v 0.383846 -0.164974 2.214365
v -0.383846 -2.340688 4.390078
v 0.383846 -2.340688 4.390078
v -0.383846 -2.884616 3.846149
v 0.383846 -2.884616 3.846149
v -0.383846 -0.708902 1.670436
v 0.383846 -0.708902 1.670436
v -0.383846 -2.340688 4.390078
v 0.383846 -2.340688 4.390078
v -0.383846 -2.884616 3.846149
v 0.383846 -2.884616 3.846149
v 0.383846 -0.164974 2.214365
v -0.383846 -0.164974 2.214365
v 0.383846 -0.708902 1.670436
v -0.383846 -0.708902 1.670436
v -0.000000 0.543928 0.769231
v -0.000000 0.543928 0.000000
v 0.543928 0.000000 0.769231
v 0.543928 0.000000 0.000000
v -0.543928 -0.000000 0.000000
v -0.543928 -0.000000 0.769231
v 0.000000 -0.543928 0.000000
v 0.000000 -0.543928 0.769231
v -0.543928 -0.000000 0.000000
v -0.000000 0.543928 0.000000
v -0.543928 -0.000000 0.769231
v -0.000000 0.543928 0.769231
v 0.000000 -0.543928 0.769231
v 0.543928 0.000000 0.769231
v 0.000000 -0.543928 0.000000
v 0.543928 0.000000 0.000000
v -0.543928 -0.000000 0.769231
v -0.000000 0.543928 0.769231
v 0.000000 -0.543928 0.769231
v 0.543928 0.000000 0.769231
v -0.000000 0.543928 0.000000
v -0.543928 -0.000000 0.000000
v 0.543928 0.000000 0.000000
v 0.000000 -0.543928 0.000000
v 0.384615 -0.576923 2.692308
v 0.384615 -0.576923 1.153846
v 0.384615 -1.346154 2.692308
v 0.384615 -1.346154 1.153846
v -0.384615 -0.576923 1.153846
v -0.384615 -0.576923 2.692308
v -0.384615 -1.346154 1.153846
v -0.384615 -1.346154 2.692308
v -0.384615 -0.576923 1.153846
v 0.384615 -0.576923 1.153846
v -0.384615 -0.576923 2.692308
v 0.384615 -0.576923 2.692308
v -0.384615 -1.346154 2.692308
v 0.384615 -1.346154 2.692308
v -0.384615 -1.346154 1.153846
v 0.384615 -1.346154 1.153846
v -0.384615 -0.576923 2.692308
v 0.384615 -0.576923 2.692308
v -0.384615 -1.346154 2.692308
v 0.384615 -1.346154 2.692308
v 0.384615 -0.576923 1.153846
v -0.384615 -0.576923 1.153846
v 0.384615 -1.346154 1.153846
v -0.384615 -1.346154 1.153846
v 0.576923 -0.576923 5.384615
v 0.576923 -0.576923 5.000000
v 0.576923 -2.884615 5.384615
v 0.576923 -2.884615 5.000000
v -0.576923 -0.576923 5.000000
v -0.576923 -0.576923 5.384615
v -0.576923 -2.884615 5.000000
v -0.576923 -2.884615 5.384615
v -0.576923 -0.576923 5.000000
v 0.576923 -0.576923 5.000000
v -0.576923 -0.576923 5.384615
v 0.576923 -0.576923 5.384615
v -0.576923 -2.884615 5.384615
v 0.576923 -2.884615 5.384615
v -0.576923 -2.884615 5.000000
v 0.576923 -2.884615 5.000000
v -0.576923 -0.576923 5.384615
v 0.576923 -0.576923 5.384615
v -0.576923 -2.884615 5.384615
v 0.576923 -2.884615 5.384615
v 0.576923 -0.576923 5.000000
v -0.576923 -0.576923 5.000000
v 0.576923 -2.884615 5.000000
v -0.576923 -2.884615 5.000000
v 0.384615 -2.500000 4.999996
v 0.384615 -2.500000 3.846149
v 0.384615 -2.884615 4.999996
v 0.384615 -2.884615 3.846149
v -0.384615 -2.500000 3.846149
v -0.384615 -2.500000 4.999996
v -0.384615 -2.884615 3.846149
v -0.384615 -2.884615 4.999996
v -0.384615 -2.500000 3.846149
v 0.384615 -2.500000 3.846149
v -0.384615 -2.500000 4.999996
v 0.384615 -2.500000 4.999996
v -0.384615 -2.884615 4.999996
v 0.384615 -2.884615 4.999996
v -0.384615 -2.884615 3.846149
v 0.384615 -2.884615 3.846149
v -0.384615 -2.500000 4.999996
v 0.384615 -2.500000 4.999996
v -0.384615 -2.884615 4.999996
v 0.384615 -2.884615 4.999996
v 0.384615 -2.500000 3.846149
v -0.384615 -2.500000 3.846149
v 0.384615 -2.884615 3.846149
v -0.384615 -2.884615 3.846149
v 0.383846 -2.612652 4.662042
v 0.383846 -2.340688 4.390078
v 0.383846 -2.884616 4.390078
v 0.383846 -2.612652 4.118114
v -0.383846 -2.340688 4.390078
v -0.383846 -2.612652 4.662042
v -0.383846 -2.612652 4.118114
v -0.383846 -2.884616 4.390078
v -0.383846 -2.340688 4.390078
v 0.383846 -2.340688 4.390078
v -0.383846 -2.612652 4.662042
v 0.383846 -2.612652 4.662042
v -0.383846 -2.884616 4.390078
v 0.383846 -2.884616 4.390078
v -0.383846 -2.612652 4.118114
v 0.383846 -2.612652 4.118114
v -0.383846 -2.612652 4.662042
v 0.383846 -2.612652 4.662042
v -0.383846 -2.884616 4.390078
v 0.383846 -2.884616 4.390078
v 0.383846 -2.340688 4.390078
v -0.383846 -2.340688 4.390078
v 0.383846 -2.612652 4.118114
v -0.383846 -2.612652 4.118114
vn 1.0000 -0.0000 -0.0000
vn -1.0000 -0.0000 -0.0000
vn -0.0000 1.0000 -0.0000
vn -0.0000 -1.0000 -0.0000
vn -0.0000 -0.0000 1.0000
vn -0.0000 -0.0000 -1.0000
vn -0.0000 0.7071 0.7071
vn -0.0000 -0.7071 -0.7071
vn -0.0000 -0.7071 0.7071
vn -0.0000 0.7071 -0.7071
vn 0.7071 0.7071 -0.0000
vn -0.7071 -0.7071 -0.0000
vn -0.7071 0.7071 -0.0000
vn 0.7071 -0.7071 -0.0000
vt 0.750000 1.000000
vt 0.750000 0.906250
vt 0.375000 1.000000
vt 0.375000 0.906250
vt 0.468750 0.500000
vt 0.468750 0.875000
vt 0.375000 0.500000
vt 0.375000 0.875000
vt 0.093750 0.500000
vt 0.093750 0.125000
vt 0.000000 0.500000
vt 0.000000 0.125000
vt 0.562500 0.625000
vt 0.562500 0.531250
vt 0.656250 0.625000
vt 0.656250 0.531250
vt 0.312500 0.437500
vt 0.312500 0.343750
vt 0.406250 0.437500
vt 0.406250 0.343750
vt 0.000000 1.000000
vt 0.000000 0.843750
vt 0.343750 1.000000
vt 0.343750 0.843750
vt 0.000000 0.812500
vt 0.000000 0.656250
vt 0.343750 0.812500
vt 0.343750 0.656250
vt 0.250000 0.500000
vt 0.250000 0.437500
vt 0.500000 0.500000
vt 0.500000 0.437500
vt 0.500000 0.687500
vt 0.500000 0.625000
vt 0.750000 0.687500
vt 0.750000 0.625000
vt 0.562500 0.375000
vt 0.500000 0.375000
vt 0.312500 0.187500
vt 0.250000 0.187500
vt 0.687500 0.812500
vt 0.687500 0.750000
vt 0.750000 0.812500
vt 0.750000 0.750000
vt 0.187500 0.312500
vt 0.187500 0.250000
vt 0.250000 0.312500
vt 0.250000 0.250000
vt 0.312500 0.312500
vt 0.312500 0.250000
vt 0.375000 0.312500
vt 0.375000 0.250000
vt 0.687500 0.625000
vt 0.687500 0.562500
vt 0.750000 0.562500
vt 0.500000 0.250000
vt 0.500000 0.312500
vt 0.437500 0.250000
vt 0.437500 0.312500
vt 0.750000 0.500000
vt 0.687500 0.500000
vt 0.687500 0.687500
vt 0.562500 0.500000
vt 0.562500 0.437500
vt 0.687500 0.437500
vt 0.687500 0.375000
vt 0.437500 0.437500
vt 0.687500 0.875000
vt 0.625000 0.875000
vt 0.625000 0.750000
vt 0.750000 0.875000
vt 0.625000 0.687500
vt 0.625000 0.375000
vt 0.625000 0.187500
vt 0.656250 0.375000
vt 0.656250 0.187500
vt 0.125000 0.312500
vt 0.125000 0.125000
vt 0.156250 0.312500
vt 0.156250 0.125000
vt 0.781250 0.343750
vt 0.781250 0.375000
vt 0.687500 0.343750
vt 0.781250 0.312500
vt 0.781250 0.281250
vt 0.687500 0.312500
vt 0.687500 0.281250
vt 0.500000 0.875000
vt 0.593750 0.875000
vt 0.593750 0.687500
vt 0.125000 0.500000
vt 0.218750 0.500000
vt 0.218750 0.312500
vt 0.687500 0.468750
vt 0.781250 0.500000
vt 0.781250 0.468750
vt 0.687500 0.406250
vt 0.781250 0.437500
vt 0.781250 0.406250
vt 0.562500 0.281250
vt 0.500000 0.281250
vt 0.625000 0.281250
vt 0.750000 0.937500
vt 0.812500 0.937500
vt 0.812500 0.906250
vt 0.750000 0.968750
vt 0.812500 1.000000
vt 0.812500 0.968750
vt 0.312500 0.218750
vt 0.343750 0.250000
vt 0.343750 0.218750
vt 0.750000 0.656250
vt 0.781250 0.687500
vt 0.781250 0.656250
vt 0.812500 0.781250
vt 0.812500 0.812500
vt 0.750000 0.781250
vt 0.812500 0.750000
vt 0.812500 0.718750
vt 0.750000 0.718750
vt 0.187500 0.218750
vt 0.250000 0.218750
vt 0.750000 0.843750
vt 0.812500 0.875000
vt 0.812500 0.843750
s 0
usemtl Material_0
f 1/1/1 3/2/1 2/3/1
f 3/2/1 4/4/1 2/3/1
f 5/3/2 7/4/2 6/1/2
f 7/4/2 8/2/2 6/1/2
f 9/5/3 11/6/3 10/7/3
f 11/6/3 12/8/3 10/7/3
f 13/9/4 15/10/4 14/11/4
f 15/10/4 16/12/4 14/11/4
f 17/13/5 19/14/5 18/15/5
f 19/14/5 20/16/5 18/15/5
f 21/17/6 23/18/6 22/19/6
f 23/18/6 24/20/6 22/19/6
f 25/21/1 27/22/1 26/23/1
f 27/22/1 28/24/1 26/23/1
f 29/25/2 31/26/2 30/27/2
f 31/26/2 32/28/2 30/27/2
f 33/26/3 35/21/3 34/26/3
f 35/21/3 36/21/3 34/26/3
f 37/21/4 39/26/4 38/21/4
f 39/26/4 40/26/4 38/21/4
f 41/21/5 43/22/5 42/21/5
f 43/22/5 44/22/5 42/21/5
f 45/21/6 47/22/6 46/21/6
f 47/22/6 48/22/6 46/21/6
f 49/29/1 51/30/1 50/31/1
f 51/30/1 52/32/1 50/31/1
f 53/33/2 55/34/2 54/35/2
f 55/34/2 56/36/2 54/35/2
f 57/37/7 59/13/7 58/38/7
f 59/13/7 60/34/7 58/38/7
f 61/17/8 63/39/8 62/30/8
f 63/39/8 64/40/8 62/30/8
f 65/41/9 67/42/9 66/43/9
f 67/42/9 68/44/9 66/43/9
f 69/45/10 71/46/10 70/47/10
f 71/46/10 72/48/10 70/47/10
f 73/49/11 75/50/11 74/51/11
f 75/50/11 76/52/11 74/51/11
f 77/53/12 79/54/12 78/36/12
f 79/54/12 80/55/12 78/36/12
f 81/56/13 83/57/13 82/58/13
f 83/57/13 84/59/13 82/58/13
f 85/55/14 87/60/14 86/54/14
f 87/60/14 88/61/14 86/54/14
f 89/51/5 91/52/5 90/59/5
f 91/52/5 92/58/5 90/59/5
f 93/42/6 95/62/6 94/44/6
f 95/62/6 96/35/6 94/44/6
f 97/63/1 99/64/1 98/61/1
f 99/64/1 100/65/1 98/61/1
f 101/64/2 103/37/2 102/65/2
f 103/37/2 104/66/2 102/65/2
f 105/57/3 107/32/3 106/59/3
f 107/32/3 108/67/3 106/59/3
f 109/68/4 111/42/4 110/69/4
f 111/42/4 112/70/4 110/69/4
f 113/68/5 115/41/5 114/71/5
f 115/41/5 116/43/5 114/71/5
f 117/70/6 119/72/6 118/42/6
f 119/72/6 120/62/6 118/42/6
f 121/73/1 123/74/1 122/75/1
f 123/74/1 124/76/1 122/75/1
f 125/77/2 127/78/2 126/79/2
f 127/78/2 128/80/2 126/79/2
f 129/81/3 131/82/3 130/83/3
f 131/82/3 132/66/3 130/83/3
f 133/84/4 135/85/4 134/86/4
f 135/85/4 136/87/4 134/86/4
f 137/88/5 139/33/5 138/89/5
f 139/33/5 140/90/5 138/89/5
f 141/91/6 143/77/6 142/92/6
f 143/77/6 144/93/6 142/92/6
f 145/61/1 147/94/1 146/95/1
f 147/94/1 148/96/1 146/95/1
f 149/65/2 151/97/2 150/98/2
f 151/97/2 152/99/2 150/98/2
f 153/100/3 155/37/3 154/101/3
f 155/37/3 156/38/3 154/101/3
f 157/73/4 159/102/4 158/37/4
f 159/102/4 160/100/4 158/37/4
f 161/103/5 163/2/5 162/104/5
f 163/2/5 164/105/5 162/104/5
f 165/1/6 167/106/6 166/107/6
f 167/106/6 168/108/6 166/107/6
f 169/50/1 171/109/1 170/110/1
f 171/109/1 172/111/1 170/110/1
f 173/35/2 175/112/2 174/113/2
f 175/112/2 176/114/2 174/113/2
f 177/115/7 179/116/7 178/117/7
f 179/116/7 180/43/7 178/117/7
f 181/118/8 183/119/8 182/44/8
f 183/119/8 184/120/8 182/44/8
f 185/46/9 187/121/9 186/48/9
f 187/121/9 188/122/9 186/48/9
f 189/71/10 191/123/10 190/124/10
f 191/123/10 192/125/10 190/124/10
