# Blender 4.5.3 LTS
# www.blender.org
mtllib lev.p08stock.mtl
o attachmentModel
v 0.384615 0.576923 11.538462
v 0.384615 0.576923 0.000000
v 0.384615 -0.576923 11.538462
v 0.384615 -0.576923 0.000000
v -0.384615 0.576923 0.000000
v -0.384615 0.576923 11.538462
v -0.384615 -0.576923 0.000000
v -0.384615 -0.576923 11.538462
v -0.384615 0.576923 0.000000
v 0.384615 0.576923 0.000000
v -0.384615 0.576923 11.538462
v 0.384615 0.576923 11.538462
v -0.384615 -0.576923 11.538462
v 0.384615 -0.576923 11.538462
v -0.384615 -0.576923 0.000000
v 0.384615 -0.576923 0.000000
v -0.384615 0.576923 11.538462
v 0.384615 0.576923 11.538462
v -0.384615 -0.576923 11.538462
v 0.384615 -0.576923 11.538462
v 0.384615 0.576923 0.000000
v -0.384615 0.576923 0.000000
v 0.384615 -0.576923 0.000000
v -0.384615 -0.576923 0.000000
v 0.384615 -0.576923 11.538462
v 0.384615 -0.576923 6.923077
v 0.384615 -1.346154 11.538462
v 0.384615 -1.346154 6.923077
v -0.384615 -0.576923 6.923077
v -0.384615 -0.576923 11.538462
v -0.384615 -1.346154 6.923077
v -0.384615 -1.346154 11.538462
v -0.384615 -0.576923 6.923077
v 0.384615 -0.576923 6.923077
v -0.384615 -0.576923 11.538462
v 0.384615 -0.576923 11.538462
v -0.384615 -1.346154 11.538462
v 0.384615 -1.346154 11.538462
v -0.384615 -1.346154 6.923077
v 0.384615 -1.346154 6.923077
v -0.384615 -0.576923 11.538462
v 0.384615 -0.576923 11.538462
v -0.384615 -1.346154 11.538462
v 0.384615 -1.346154 11.538462
v 0.384615 -0.576923 6.923077
v -0.384615 -0.576923 6.923077
v 0.384615 -1.346154 6.923077
v -0.384615 -1.346154 6.923077
v 0.383846 -0.635478 7.217449
v 0.383846 0.247638 5.085419
v 0.383846 -1.346154 6.923077
v 0.383846 -0.463039 4.791047
v -0.383846 0.247638 5.085419
v -0.383846 -0.635478 7.217449
v -0.383846 -0.463039 4.791047
v -0.383846 -1.346154 6.923077
v -0.383846 0.247638 5.085419
v 0.383846 0.247638 5.085419
v -0.383846 -0.635478 7.217449
v 0.383846 -0.635478 7.217449
v -0.383846 -1.346154 6.923077
v 0.383846 -1.346154 6.923077
v -0.383846 -0.463039 4.791047
v 0.383846 -0.463039 4.791047
v -0.383846 -0.635478 7.217449
v 0.383846 -0.635478 7.217449
v -0.383846 -1.346154 6.923077
v 0.383846 -1.346154 6.923077
v 0.383846 0.247638 5.085419
v -0.383846 0.247638 5.085419
v 0.383846 -0.463039 4.791047
v -0.383846 -0.463039 4.791047
v 0.961538 0.865385 7.692307
v 0.961538 0.865385 0.769231
v 0.961538 -0.288462 7.692307
v 0.961538 -0.288462 0.769231
v 0.192308 0.865385 0.769231
v 0.192308 0.865385 7.692307
v 0.192308 -0.288462 0.769231
v 0.192308 -0.288462 7.692307
v 0.192308 0.865385 0.769231
v 0.961538 0.865385 0.769231
v 0.192308 0.865385 7.692307
v 0.961538 0.865385 7.692307
v 0.192308 -0.288462 7.692307
v 0.961538 -0.288462 7.692307
v 0.192308 -0.288462 0.769231
v 0.961538 -0.288462 0.769231
v 0.192308 0.865385 7.692307
v 0.961538 0.865385 7.692307
v 0.192308 -0.288462 7.692307
v 0.961538 -0.288462 7.692307
v 0.961538 0.865385 0.769231
v 0.192308 0.865385 0.769231
v 0.961538 -0.288462 0.769231
v 0.192308 -0.288462 0.769231
v 0.960000 -0.376293 8.133865
v 0.960000 0.801194 5.291160
v 0.960000 -1.442308 7.692307
v 0.960000 -0.264821 4.849601
v 0.192308 0.801194 5.291160
v 0.192308 -0.376293 8.133865
v 0.192308 -0.264821 4.849601
v 0.192308 -1.442308 7.692307
v 0.192308 0.801194 5.291160
v 0.960000 0.801194 5.291160
v 0.192308 -0.376293 8.133865
v 0.960000 -0.376293 8.133865
v 0.192308 -1.442308 7.692307
v 0.960000 -1.442308 7.692307
v 0.192308 -0.264821 4.849601
v 0.960000 -0.264821 4.849601
v 0.192308 -0.376293 8.133865
v 0.960000 -0.376293 8.133865
v 0.192308 -1.442308 7.692307
v 0.960000 -1.442308 7.692307
v 0.960000 0.801194 5.291160
v 0.192308 0.801194 5.291160
v 0.960000 -0.264821 4.849601
v 0.192308 -0.264821 4.849601
v 0.961538 1.250000 10.769231
v 0.961538 1.250000 7.692307
v 0.961538 -2.211539 10.769231
v 0.961538 -2.211539 7.692307
v 0.192308 1.250000 7.692307
v 0.192308 1.250000 10.769231
v 0.192308 -2.211539 7.692307
v 0.192308 -2.211539 10.769231
v 0.192308 1.250000 7.692307
v 0.961538 1.250000 7.692307
v 0.192308 1.250000 10.769231
v 0.961538 1.250000 10.769231
v 0.192308 -2.211539 10.769231
v 0.961538 -2.211539 10.769231
v 0.192308 -2.211539 7.692307
v 0.961538 -2.211539 7.692307
v 0.192308 1.250000 10.769231
v 0.961538 1.250000 10.769231
v 0.192308 -2.211539 10.769231
v 0.961538 -2.211539 10.769231
v 0.961538 1.250000 7.692307
v 0.192308 1.250000 7.692307
v 0.961538 -2.211539 7.692307
v 0.192308 -2.211539 7.692307
v 1.153846 1.442308 11.923077
v 1.153846 1.442308 10.769231
v 1.153846 -2.403846 11.923077
v 1.153846 -2.403846 10.769231
v 0.000000 1.442308 10.769231
v 0.000000 1.442308 11.923077
v 0.000000 -2.403846 10.769231
v 0.000000 -2.403846 11.923077
v 0.000000 1.442308 10.769231
v 1.153846 1.442308 10.769231
v 0.000000 1.442308 11.923077
v 1.153846 1.442308 11.923077
v 0.000000 -2.403846 11.923077
v 1.153846 -2.403846 11.923077
v 0.000000 -2.403846 10.769231
v 1.153846 -2.403846 10.769231
v 0.000000 1.442308 11.923077
v 1.153846 1.442308 11.923077
v 0.000000 -2.403846 11.923077
v 1.153846 -2.403846 11.923077
v 1.153846 1.442308 10.769231
v 0.000000 1.442308 10.769231
v 1.153846 -2.403846 10.769231
v 0.000000 -2.403846 10.769231
v 1.154615 1.442308 10.769231
v 1.154615 1.442308 8.846154
v 1.154615 -2.403846 10.769231
v 1.154615 -2.403846 8.846154
v 1.153846 1.442308 8.846154
v 1.153846 1.442308 10.769231
v 1.153846 -2.403846 8.846154
v 1.153846 -2.403846 10.769231
v 1.153846 1.442308 8.846154
v 1.154615 1.442308 8.846154
v 1.153846 1.442308 10.769231
v 1.154615 1.442308 10.769231
v 1.153846 -2.403846 10.769231
v 1.154615 -2.403846 10.769231
v 1.153846 -2.403846 8.846154
v 1.154615 -2.403846 8.846154
v 1.153846 1.442308 10.769231
v 1.154615 1.442308 10.769231
v 1.153846 -2.403846 10.769231
v 1.154615 -2.403846 10.769231
v 1.154615 1.442308 8.846154
v 1.153846 1.442308 8.846154
v 1.154615 -2.403846 8.846154
v 1.153846 -2.403846 8.846154
v 1.153846 1.443077 10.769231
v 1.153846 1.443077 9.615385
v 1.153846 1.442308 10.769231
v 1.153846 1.442308 9.615385
v 0.384615 1.443077 9.615385
v 0.384615 1.443077 10.769231
v 0.384615 1.442308 9.615385
v 0.384615 1.442308 10.769231
v 0.384615 1.443077 9.615385
v 1.153846 1.443077 9.615385
v 0.384615 1.443077 10.769231
v 1.153846 1.443077 10.769231
v 0.384615 1.442308 10.769231
v 1.153846 1.442308 10.769231
v 0.384615 1.442308 9.615385
v 1.153846 1.442308 9.615385
v 0.384615 1.443077 10.769231
v 1.153846 1.443077 10.769231
v 0.384615 1.442308 10.769231
v 1.153846 1.442308 10.769231
v 1.153846 1.443077 9.615385
v 0.384615 1.443077 9.615385
v 1.153846 1.442308 9.615385
v 0.384615 1.442308 9.615385
v 1.153846 -2.403077 10.769231
v 1.153846 -2.403077 9.615385
v 1.153846 -2.403846 10.769231
v 1.153846 -2.403846 9.615385
v 0.384615 -2.403077 9.615385
v 0.384615 -2.403077 10.769231
v 0.384615 -2.403846 9.615385
v 0.384615 -2.403846 10.769231
v 0.384615 -2.403077 9.615385
v 1.153846 -2.403077 9.615385
v 0.384615 -2.403077 10.769231
v 1.153846 -2.403077 10.769231
v 0.384615 -2.403846 10.769231
v 1.153846 -2.403846 10.769231
v 0.384615 -2.403846 9.615385
v 1.153846 -2.403846 9.615385
v 0.384615 -2.403077 10.769231
v 1.153846 -2.403077 10.769231
v 0.384615 -2.403846 10.769231
v 1.153846 -2.403846 10.769231
v 1.153846 -2.403077 9.615385
v 0.384615 -2.403077 9.615385
v 1.153846 -2.403846 9.615385
v 0.384615 -2.403846 9.615385
v 0.384615 1.346154 11.538462
v 0.384615 1.346154 5.384615
v 0.384615 0.576923 11.538462
v 0.384615 0.576923 5.384615
v -0.384615 1.346154 5.384615
v -0.384615 1.346154 11.538462
v -0.384615 0.576923 5.384615
v -0.384615 0.576923 11.538462
v -0.384615 1.346154 5.384615
v 0.384615 1.346154 5.384615
v -0.384615 1.346154 11.538462
v 0.384615 1.346154 11.538462
v -0.384615 0.576923 11.538462
v 0.384615 0.576923 11.538462
v -0.384615 0.576923 5.384615
v 0.384615 0.576923 5.384615
v -0.384615 1.346154 11.538462
v 0.384615 1.346154 11.538462
v -0.384615 0.576923 11.538462
v 0.384615 0.576923 11.538462
v 0.384615 1.346154 5.384615
v -0.384615 1.346154 5.384615
v 0.384615 0.576923 5.384615
v -0.384615 0.576923 5.384615
v 0.383846 1.346155 5.384616
v 0.383846 0.530262 4.568723
v 0.383846 0.802227 5.928544
v 0.383846 -0.013666 5.112652
v -0.383846 0.530262 4.568723
v -0.383846 1.346155 5.384616
v -0.383846 -0.013666 5.112652
v -0.383846 0.802227 5.928544
v -0.383846 0.530262 4.568723
v 0.383846 0.530262 4.568723
v -0.383846 1.346155 5.384616
v 0.383846 1.346155 5.384616
v -0.383846 0.802227 5.928544
v 0.383846 0.802227 5.928544
v -0.383846 -0.013666 5.112652
v 0.383846 -0.013666 5.112652
v -0.383846 1.346155 5.384616
v 0.383846 1.346155 5.384616
v -0.383846 0.802227 5.928544
v 0.383846 0.802227 5.928544
v 0.383846 0.530262 4.568723
v -0.383846 0.530262 4.568723
v 0.383846 -0.013666 5.112652
v -0.383846 -0.013666 5.112652
vn 1.0000 -0.0000 -0.0000
vn -1.0000 -0.0000 -0.0000
vn -0.0000 1.0000 -0.0000
vn -0.0000 -1.0000 -0.0000
vn -0.0000 -0.0000 1.0000
vn -0.0000 -0.0000 -1.0000
vn -0.0000 0.9239 0.3827
vn -0.0000 -0.9239 -0.3827
vn -0.0000 -0.3827 0.9239
vn -0.0000 0.3827 -0.9239
vn -0.0000 0.7071 -0.7071
vn -0.0000 -0.7071 0.7071
vn -0.0000 0.7071 0.7071
vn -0.0000 -0.7071 -0.7071
vt 0.000000 1.000000
vt 0.000000 0.953125
vt 0.468750 1.000000
vt 0.468750 0.953125
vt 0.000000 0.937500
vt 0.000000 0.890625
vt 0.468750 0.937500
vt 0.468750 0.890625
vt 0.281250 0.406250
vt 0.281250 0.875000
vt 0.250000 0.406250
vt 0.250000 0.875000
vt 0.031250 0.718750
vt 0.031250 0.250000
vt 0.000000 0.718750
vt 0.000000 0.250000
vt 0.562500 0.625000
vt 0.562500 0.578125
vt 0.593750 0.625000
vt 0.593750 0.578125
vt 0.218750 0.437500
vt 0.218750 0.390625
vt 0.250000 0.437500
vt 0.250000 0.390625
vt 0.437500 0.687500
vt 0.437500 0.656250
vt 0.625000 0.687500
vt 0.625000 0.656250
vt 0.437500 0.625000
vt 0.625000 0.625000
vt 0.468750 0.437500
vt 0.468750 0.625000
vt 0.437500 0.437500
vt 0.406250 0.531250
vt 0.406250 0.343750
vt 0.375000 0.531250
vt 0.375000 0.343750
vt 0.593750 0.812500
vt 0.593750 0.781250
vt 0.625000 0.812500
vt 0.625000 0.781250
vt 0.187500 0.406250
vt 0.187500 0.375000
vt 0.218750 0.406250
vt 0.218750 0.375000
vt 0.531250 0.500000
vt 0.531250 0.468750
vt 0.625000 0.500000
vt 0.625000 0.468750
vt 0.531250 0.437500
vt 0.625000 0.437500
vt 0.500000 0.375000
vt 0.500000 0.468750
vt 0.468750 0.375000
vt 0.468750 0.468750
vt 0.593750 0.875000
vt 0.562500 0.875000
vt 0.562500 0.781250
vt 0.593750 0.593750
vt 0.625000 0.593750
vt 0.250000 0.375000
vt 0.281250 0.375000
vt 0.281250 0.828125
vt 0.562500 0.828125
vt 0.281250 0.812500
vt 0.281250 0.765625
vt 0.562500 0.812500
vt 0.562500 0.765625
vt 0.250000 0.718750
vt 0.218750 0.718750
vt 0.312500 0.750000
vt 0.312500 0.468750
vt 0.281250 0.750000
vt 0.281250 0.468750
vt 0.562500 0.562500
vt 0.562500 0.515625
vt 0.593750 0.562500
vt 0.593750 0.515625
vt 0.437500 0.390625
vt 0.468750 0.390625
vt 0.593750 1.000000
vt 0.593750 0.953125
vt 0.593750 0.937500
vt 0.593750 0.890625
vt 0.531250 0.625000
vt 0.500000 0.500000
vt 0.500000 0.625000
vt 0.531250 0.375000
vt 0.562500 0.437500
vt 0.562500 0.390625
vt 0.593750 0.437500
vt 0.593750 0.390625
vt 0.531250 0.390625
vt 0.000000 0.875000
vt 0.000000 0.734375
vt 0.125000 0.875000
vt 0.125000 0.734375
vt 0.250000 0.734375
vt 0.312500 0.343750
vt 0.281250 0.343750
vt 0.562500 0.500000
vt 0.406250 0.390625
vt 0.437500 0.531250
vt 0.468750 0.484375
vt 0.500000 0.484375
vt 0.031250 0.562500
vt 0.031250 0.406250
vt 0.078125 0.562500
vt 0.078125 0.406250
vt 0.156250 0.562500
vt 0.156250 0.406250
vt 0.203125 0.562500
vt 0.203125 0.406250
vt 0.609375 0.734375
vt 0.609375 0.781250
vt 0.562500 0.734375
vt 0.359375 0.437500
vt 0.359375 0.390625
vt 0.312500 0.437500
vt 0.312500 0.390625
vt 0.093750 0.562500
vt 0.093750 0.406250
vt 0.140625 0.562500
vt 0.140625 0.406250
vt 0.375000 0.687500
vt 0.421875 0.687500
vt 0.421875 0.531250
vt 0.109375 0.718750
vt 0.109375 0.562500
vt 0.000000 0.921875
vt 0.000000 0.843750
vt 0.046875 1.000000
vt 0.625000 0.953125
vt 0.625000 1.000000
vt 0.031250 1.000000
vt 0.625000 0.890625
vt 0.625000 0.937500
vt 0.312500 0.718750
vt 0.562500 0.750000
vt 0.562500 0.718750
vt 0.312500 0.687500
vt 0.562500 0.687500
vt 0.343750 0.437500
vt 0.343750 0.687500
vt 0.375000 0.437500
vt 0.593750 0.531250
vt 0.625000 0.562500
vt 0.625000 0.531250
vt 0.609375 0.718750
vt 0.609375 0.687500
vt 0.093750 0.375000
vt 0.140625 0.375000
vt 0.625000 0.828125
vt 0.625000 0.875000
vt 0.593750 0.828125
vt 0.187500 0.359375
vt 0.156250 0.359375
vt 0.593750 0.406250
vt 0.625000 0.406250
vt 0.593750 0.500000
s 0
usemtl Material_0
f 1/1/1 3/2/1 2/3/1
f 3/2/1 4/4/1 2/3/1
f 5/5/2 7/6/2 6/7/2
f 7/6/2 8/8/2 6/7/2
f 9/9/3 11/10/3 10/11/3
f 11/10/3 12/12/3 10/11/3
f 13/13/4 15/14/4 14/15/4
f 15/14/4 16/16/4 14/15/4
f 17/17/5 19/18/5 18/19/5
f 19/18/5 20/20/5 18/19/5
f 21/21/6 23/22/6 22/23/6
f 23/22/6 24/24/6 22/23/6
f 25/25/1 27/26/1 26/27/1
f 27/26/1 28/28/1 26/27/1
f 29/26/2 31/29/2 30/28/2
f 31/29/2 32/30/2 30/28/2
f 33/31/3 35/32/3 34/33/3
f 35/32/3 36/29/3 34/33/3
f 37/34/4 39/35/4 38/36/4
f 39/35/4 40/37/4 38/36/4
f 41/38/5 43/39/5 42/40/5
f 43/39/5 44/41/5 42/40/5
f 45/42/6 47/43/6 46/44/6
f 47/43/6 48/45/6 46/44/6
f 49/46/1 51/47/1 50/48/1
f 51/47/1 52/49/1 50/48/1
f 53/47/2 55/50/2 54/49/2
f 55/50/2 56/51/2 54/49/2
f 57/52/7 59/53/7 58/54/7
f 59/53/7 60/55/7 58/54/7
f 61/56/8 63/39/8 62/57/8
f 63/39/8 64/58/8 62/57/8
f 65/19/9 67/59/9 66/30/9
f 67/59/9 68/60/9 66/30/9
f 69/11/10 71/61/10 70/9/10
f 71/61/10 72/62/10 70/9/10
f 73/10/1 75/63/1 74/57/1
f 75/63/1 76/64/1 74/57/1
f 77/65/2 79/66/2 78/67/2
f 79/66/2 80/68/2 78/67/2
f 81/23/3 83/69/3 82/21/3
f 83/69/3 84/70/3 82/21/3
f 85/71/4 87/72/4 86/73/4
f 87/72/4 88/74/4 86/73/4
f 89/75/5 91/76/5 90/77/5
f 91/76/5 92/78/5 90/77/5
f 93/33/6 95/79/6 94/31/6
f 95/79/6 96/80/6 94/31/6
f 97/3/1 99/4/1 98/81/1
f 99/4/1 100/82/1 98/81/1
f 101/7/2 103/8/2 102/83/2
f 103/8/2 104/84/2 102/83/2
f 105/46/7 107/85/7 106/86/7
f 107/85/7 108/87/7 106/86/7
f 109/46/8 111/88/8 110/86/8
f 111/88/8 112/52/8 110/86/8
f 113/89/9 115/90/9 114/91/9
f 115/90/9 116/92/9 114/91/9
f 117/50/10 119/93/10 118/89/10
f 119/93/10 120/90/10 118/89/10
f 121/94/1 123/95/1 122/96/1
f 123/95/1 124/97/1 122/96/1
f 125/96/2 127/97/2 126/12/2
f 127/97/2 128/98/2 126/12/2
f 129/99/3 131/72/3 130/100/3
f 131/72/3 132/74/3 130/100/3
f 133/17/4 135/101/4 134/85/4
f 135/101/4 136/46/4 134/85/4
f 137/34/5 139/102/5 138/103/5
f 139/102/5 140/79/5 138/103/5
f 141/32/6 143/104/6 142/87/6
f 143/104/6 144/105/6 142/87/6
f 145/106/1 147/107/1 146/108/1
f 147/107/1 148/109/1 146/108/1
f 149/110/2 151/111/2 150/112/2
f 151/111/2 152/113/2 150/112/2
f 153/114/3 155/115/3 154/116/3
f 155/115/3 156/58/3 154/116/3
f 157/117/4 159/118/4 158/119/4
f 159/118/4 160/120/4 158/119/4
f 161/121/5 163/122/5 162/123/5
f 163/122/5 164/124/5 162/123/5
f 165/125/6 167/36/6 166/126/6
f 167/36/6 168/127/6 166/126/6
f 169/13/1 171/106/1 170/128/1
f 171/106/1 172/129/1 170/128/1
f 173/128/2 175/129/2 174/13/2
f 175/129/2 176/106/2 174/13/2
f 177/130/3 179/1/3 178/130/3
f 179/1/3 180/1/3 178/130/3
f 181/1/4 183/130/4 182/1/4
f 183/130/4 184/130/4 182/1/4
f 185/1/5 187/131/5 186/1/5
f 187/131/5 188/131/5 186/1/5
f 189/1/6 191/131/6 190/1/6
f 191/131/6 192/131/6 190/1/6
f 193/1/1 195/1/1 194/132/1
f 195/1/1 196/132/1 194/132/1
f 197/1/2 199/1/2 198/132/2
f 199/1/2 200/132/2 198/132/2
f 201/133/3 203/134/3 202/82/3
f 203/134/3 204/81/3 202/82/3
f 205/134/4 207/133/4 206/81/4
f 207/133/4 208/82/4 206/81/4
f 209/1/5 211/1/5 210/135/5
f 211/1/5 212/135/5 210/135/5
f 213/1/6 215/1/6 214/135/6
f 215/1/6 216/135/6 214/135/6
f 217/1/1 219/1/1 218/132/1
f 219/1/1 220/132/1 218/132/1
f 221/1/2 223/1/2 222/132/2
f 223/1/2 224/132/2 222/132/2
f 225/136/3 227/137/3 226/84/3
f 227/137/3 228/83/3 226/84/3
f 229/137/4 231/136/4 230/83/4
f 231/136/4 232/84/4 230/83/4
f 233/1/5 235/1/5 234/135/5
f 235/1/5 236/135/5 234/135/5
f 237/1/6 239/1/6 238/135/6
f 239/1/6 240/135/6 238/135/6
f 241/71/1 243/138/1 242/139/1
f 243/138/1 244/140/1 242/139/1
f 245/138/2 247/141/2 246/140/2
f 247/141/2 248/142/2 246/140/2
f 249/143/3 251/144/3 250/119/3
f 251/144/3 252/141/3 250/119/3
f 253/125/4 255/145/4 254/144/4
f 255/145/4 256/143/4 254/144/4
f 257/77/5 259/146/5 258/147/5
f 259/146/5 260/148/5 258/147/5
f 261/59/6 263/77/6 262/60/6
f 263/77/6 264/147/6 262/60/6
f 265/140/1 267/142/1 266/149/1
f 267/142/1 268/150/1 266/149/1
f 269/122/2 271/151/2 270/124/2
f 271/151/2 272/152/2 270/124/2
f 273/153/11 275/154/11 274/155/11
f 275/154/11 276/56/11 274/155/11
f 277/42/12 279/156/12 278/111/12
f 279/156/12 280/157/12 278/111/12
f 281/91/13 283/158/13 282/51/13
f 283/158/13 284/159/13 282/51/13
f 285/146/14 287/160/14 286/148/14
f 287/160/14 288/48/14 286/148/14
