# Blender 4.2.3 LTS
# www.blender.org
mtllib lev.rpk16comp.mtl
o attachmentModel
v 3.076154 0.384615 0.384615
v 3.076923 0.384615 0.384615
v 3.076154 -0.384615 0.384615
v 3.076923 -0.384615 0.384615
v 3.076923 0.384615 -0.384616
v 3.076154 0.384615 -0.384616
v 3.076923 -0.384615 -0.384616
v 3.076154 -0.384615 -0.384616
v 3.076923 0.384615 -0.384616
v 3.076923 0.384615 0.384615
v 3.076154 0.384615 -0.384616
v 3.076154 0.384615 0.384615
v 3.076154 -0.384615 -0.384616
v 3.076154 -0.384615 0.384615
v 3.076923 -0.384615 -0.384616
v 3.076923 -0.384615 0.384615
v 3.076154 0.384615 -0.384616
v 3.076154 0.384615 0.384615
v 3.076154 -0.384615 -0.384616
v 3.076154 -0.384615 0.384615
v 3.076923 0.384615 0.384615
v 3.076923 0.384615 -0.384616
v 3.076923 -0.384615 0.384615
v 3.076923 -0.384615 -0.384616
v 0.000000 0.384615 0.384615
v 1.923077 0.384615 0.384615
v 0.000000 -0.384615 0.384615
v 1.923077 -0.384615 0.384615
v 1.923077 0.384615 -0.384616
v -0.000000 0.384615 -0.384615
v 1.923077 -0.384615 -0.384616
v -0.000000 -0.384615 -0.384615
v 1.923077 0.384615 -0.384616
v 1.923077 0.384615 0.384615
v -0.000000 0.384615 -0.384615
v 0.000000 0.384615 0.384615
v -0.000000 -0.384615 -0.384615
v 0.000000 -0.384615 0.384615
v 1.923077 -0.384615 -0.384616
v 1.923077 -0.384615 0.384615
v -0.000000 0.384615 -0.384615
v 0.000000 0.384615 0.384615
v -0.000000 -0.384615 -0.384615
v 0.000000 -0.384615 0.384615
v 1.923077 0.384615 0.384615
v 1.923077 0.384615 -0.384616
v 1.923077 -0.384615 0.384615
v 1.923077 -0.384615 -0.384616
v 1.923077 0.385385 -0.000000
v 3.076923 0.385385 -0.000001
v 1.923077 0.384615 -0.000000
v 3.076923 0.384615 -0.000001
v 3.076923 0.385385 -0.384616
v 1.923077 0.385385 -0.384616
v 3.076923 0.384615 -0.384616
v 1.923077 0.384615 -0.384616
v 3.076923 0.385385 -0.384616
v 3.076923 0.385385 -0.000001
v 1.923077 0.385385 -0.384616
v 1.923077 0.385385 -0.000000
v 1.923077 0.384615 -0.384616
v 1.923077 0.384615 -0.000000
v 3.076923 0.384615 -0.384616
v 3.076923 0.384615 -0.000001
v 1.923077 0.385385 -0.384616
v 1.923077 0.385385 -0.000000
v 1.923077 0.384615 -0.384616
v 1.923077 0.384615 -0.000000
v 3.076923 0.385385 -0.000001
v 3.076923 0.385385 -0.384616
v 3.076923 0.384615 -0.000001
v 3.076923 0.384615 -0.384616
v 1.923077 0.384615 0.385384
v 3.076923 0.384615 0.385384
v 1.923077 0.000000 0.385384
v 3.076923 0.000000 0.385384
v 3.076923 0.384615 0.384615
v 1.923077 0.384615 0.384615
v 3.076923 0.000000 0.384615
v 1.923077 0.000000 0.384615
v 3.076923 0.384615 0.384615
v 3.076923 0.384615 0.385384
v 1.923077 0.384615 0.384615
v 1.923077 0.384615 0.385384
v 1.923077 0.000000 0.384615
v 1.923077 0.000000 0.385384
v 3.076923 0.000000 0.384615
v 3.076923 0.000000 0.385384
v 1.923077 0.384615 0.384615
v 1.923077 0.384615 0.385384
v 1.923077 0.000000 0.384615
v 1.923077 0.000000 0.385384
v 3.076923 0.384615 0.385384
v 3.076923 0.384615 0.384615
v 3.076923 0.000000 0.385384
v 3.076923 0.000000 0.384615
v 1.923077 0.000000 -0.383847
v 3.076923 0.000000 -0.383847
v 1.923077 -0.384615 -0.383847
v 3.076923 -0.384615 -0.383847
v 3.076923 0.000000 -0.384616
v 1.923077 0.000000 -0.384616
v 3.076923 -0.384615 -0.384616
v 1.923077 -0.384615 -0.384616
v 3.076923 0.000000 -0.384616
v 3.076923 0.000000 -0.383847
v 1.923077 0.000000 -0.384616
v 1.923077 0.000000 -0.383847
v 1.923077 -0.384615 -0.384616
v 1.923077 -0.384615 -0.383847
v 3.076923 -0.384615 -0.384616
v 3.076923 -0.384615 -0.383847
v 1.923077 0.000000 -0.384616
v 1.923077 0.000000 -0.383847
v 1.923077 -0.384615 -0.384616
v 1.923077 -0.384615 -0.383847
v 3.076923 0.000000 -0.383847
v 3.076923 0.000000 -0.384616
v 3.076923 -0.384615 -0.383847
v 3.076923 -0.384615 -0.384616
v 1.923077 -0.383846 0.384615
v 3.076923 -0.383846 0.384615
v 1.923077 -0.384615 0.384615
v 3.076923 -0.384615 0.384615
v 3.076923 -0.383846 -0.000001
v 1.923077 -0.383846 -0.000000
v 3.076923 -0.384615 -0.000001
v 1.923077 -0.384615 -0.000000
v 3.076923 -0.383846 -0.000001
v 3.076923 -0.383846 0.384615
v 1.923077 -0.383846 -0.000000
v 1.923077 -0.383846 0.384615
v 1.923077 -0.384615 -0.000000
v 1.923077 -0.384615 0.384615
v 3.076923 -0.384615 -0.000001
v 3.076923 -0.384615 0.384615
v 1.923077 -0.383846 -0.000000
v 1.923077 -0.383846 0.384615
v 1.923077 -0.384615 -0.000000
v 1.923077 -0.384615 0.384615
v 3.076923 -0.383846 0.384615
v 3.076923 -0.383846 -0.000001
v 3.076923 -0.384615 0.384615
v 3.076923 -0.384615 -0.000001
vn -0.0000 -0.0000 1.0000
vn -0.0000 -0.0000 -1.0000
vn -0.0000 1.0000 -0.0000
vn -0.0000 -1.0000 -0.0000
vn -1.0000 -0.0000 -0.0000
vn 1.0000 -0.0000 -0.0000
vt 0.312500 1.000000
vt 0.312500 0.875000
vt 0.500000 1.000000
vt 0.500000 0.875000
vt 0.000000 0.875000
vt 0.000000 0.750000
vt 0.187500 0.875000
vt 0.187500 0.750000
vt 0.125000 0.250000
vt 0.125000 0.437500
vt 0.000000 0.250000
vt 0.000000 0.437500
vt 0.250000 0.437500
vt 0.250000 0.250000
vt 0.250000 0.750000
vt 0.250000 0.625000
vt 0.375000 0.750000
vt 0.375000 0.625000
vt 0.000000 1.000000
vt 0.500000 0.750000
vt 0.125000 0.750000
vt 0.250000 0.500000
vt 0.375000 0.500000
vt 0.062500 0.250000
vt 0.062500 0.437500
vt 0.312500 0.937500
vt 0.500000 0.937500
vt 0.000000 0.812500
vt 0.187500 0.812500
vt 0.187500 0.437500
vt 0.187500 0.250000
s 0
usemtl Material_0.001
f 1/1/1 3/2/1 2/3/1
f 3/2/1 4/4/1 2/3/1
f 5/5/2 7/6/2 6/7/2
f 7/6/2 8/8/2 6/7/2
f 9/9/3 11/10/3 10/11/3
f 11/10/3 12/12/3 10/11/3
f 13/13/4 15/14/4 14/10/4
f 15/14/4 16/9/4 14/10/4
f 17/15/5 19/16/5 18/17/5
f 19/16/5 20/18/5 18/17/5
f 21/15/6 23/16/6 22/17/6
f 23/16/6 24/18/6 22/17/6
f 25/19/1 27/5/1 26/1/1
f 27/5/1 28/2/1 26/1/1
f 29/7/2 31/8/2 30/4/2
f 31/8/2 32/20/2 30/4/2
f 33/10/3 35/21/3 34/12/3
f 35/21/3 36/6/3 34/12/3
f 37/15/4 39/13/4 38/21/4
f 39/13/4 40/10/4 38/21/4
f 41/16/5 43/22/5 42/18/5
f 43/22/5 44/23/5 42/18/5
f 45/15/6 47/16/6 46/17/6
f 47/16/6 48/18/6 46/17/6
f 49/9/1 51/10/1 50/24/1
f 51/10/1 52/25/1 50/24/1
f 53/9/2 55/10/2 54/24/2
f 55/10/2 56/25/2 54/24/2
f 57/9/3 59/10/3 58/24/3
f 59/10/3 60/25/3 58/24/3
f 61/9/4 63/10/4 62/24/4
f 63/10/4 64/25/4 62/24/4
f 65/9/5 67/10/5 66/24/5
f 67/10/5 68/25/5 66/24/5
f 69/9/6 71/10/6 70/24/6
f 71/10/6 72/25/6 70/24/6
f 73/1/1 75/26/1 74/3/1
f 75/26/1 76/27/1 74/3/1
f 77/1/2 79/26/2 78/3/2
f 79/26/2 80/27/2 78/3/2
f 81/1/3 83/26/3 82/3/3
f 83/26/3 84/27/3 82/3/3
f 85/1/4 87/26/4 86/3/4
f 87/26/4 88/27/4 86/3/4
f 89/1/5 91/26/5 90/3/5
f 91/26/5 92/27/5 90/3/5
f 93/1/6 95/26/6 94/3/6
f 95/26/6 96/27/6 94/3/6
f 97/28/1 99/6/1 98/29/1
f 99/6/1 100/8/1 98/29/1
f 101/28/2 103/6/2 102/29/2
f 103/6/2 104/8/2 102/29/2
f 105/28/3 107/6/3 106/29/3
f 107/6/3 108/8/3 106/29/3
f 109/28/4 111/6/4 110/29/4
f 111/6/4 112/8/4 110/29/4
f 113/28/5 115/6/5 114/29/5
f 115/6/5 116/8/5 114/29/5
f 117/28/6 119/6/6 118/29/6
f 119/6/6 120/8/6 118/29/6
f 121/30/1 123/31/1 122/10/1
f 123/31/1 124/9/1 122/10/1
f 125/30/2 127/31/2 126/10/2
f 127/31/2 128/9/2 126/10/2
f 129/30/3 131/31/3 130/10/3
f 131/31/3 132/9/3 130/10/3
f 133/30/4 135/31/4 134/10/4
f 135/31/4 136/9/4 134/10/4
f 137/30/5 139/31/5 138/10/5
f 139/31/5 140/9/5 138/10/5
f 141/30/6 143/31/6 142/10/6
f 143/31/6 144/9/6 142/10/6
