# Blender 4.5.1 LTS
# www.blender.org
mtllib lev.scarlcomp.mtl
o attachmentModel
v 0.000000 0.384615 0.384615
v 0.384615 0.384615 0.384615
v 0.000000 -0.384615 0.384615
v 0.384615 -0.384615 0.384615
v 0.384615 0.384615 -0.384615
v -0.000000 0.384615 -0.384615
v 0.384615 -0.384615 -0.384615
v -0.000000 -0.384615 -0.384615
v 0.384615 0.384615 -0.384615
v 0.384615 0.384615 0.384615
v -0.000000 0.384615 -0.384615
v 0.000000 0.384615 0.384615
v -0.000000 -0.384615 -0.384615
v 0.000000 -0.384615 0.384615
v 0.384615 -0.384615 -0.384615
v 0.384615 -0.384615 0.384615
v -0.000000 0.384615 -0.384615
v 0.000000 0.384615 0.384615
v -0.000000 -0.384615 -0.384615
v 0.000000 -0.384615 0.384615
v 0.384615 0.384615 0.384615
v 0.384615 0.384615 -0.384615
v 0.384615 -0.384615 0.384615
v 0.384615 -0.384615 -0.384615
v 0.769231 0.384615 0.384615
v 1.923077 0.384615 0.384615
v 0.769231 -0.384615 0.384615
v 1.923077 -0.384615 0.384615
v 1.923077 0.384615 -0.384615
v 0.769231 0.384615 -0.384615
v 1.923077 -0.384615 -0.384615
v 0.769231 -0.384615 -0.384615
v 1.923077 0.384615 -0.384615
v 1.923077 0.384615 0.384615
v 0.769231 0.384615 -0.384615
v 0.769231 0.384615 0.384615
v 0.769231 -0.384615 -0.384615
v 0.769231 -0.384615 0.384615
v 1.923077 -0.384615 -0.384615
v 1.923077 -0.384615 0.384615
v 0.769231 0.384615 -0.384615
v 0.769231 0.384615 0.384615
v 0.769231 -0.384615 -0.384615
v 0.769231 -0.384615 0.384615
v 1.923077 0.384615 0.384615
v 1.923077 0.384615 -0.384615
v 1.923077 -0.384615 0.384615
v 1.923077 -0.384615 -0.384615
v 0.384615 0.543928 -0.000000
v 0.769231 0.543928 -0.000000
v 0.384615 0.000000 0.543928
v 0.769231 0.000000 0.543928
v 0.769231 -0.000000 -0.543928
v 0.384615 -0.000000 -0.543928
v 0.769231 -0.543928 0.000000
v 0.384615 -0.543928 0.000000
v 0.769231 -0.000000 -0.543928
v 0.769231 0.543928 -0.000000
v 0.384615 -0.000000 -0.543928
v 0.384615 0.543928 -0.000000
v 0.384615 -0.543928 0.000000
v 0.384615 0.000000 0.543928
v 0.769231 -0.543928 0.000000
v 0.769231 0.000000 0.543928
v 0.384615 -0.000000 -0.543928
v 0.384615 0.543928 -0.000000
v 0.384615 -0.543928 0.000000
v 0.384615 0.000000 0.543928
v 0.769231 0.543928 -0.000000
v 0.769231 -0.000000 -0.543928
v 0.769231 0.000000 0.543928
v 0.769231 -0.543928 0.000000
v 1.923077 -0.383846 0.192308
v 3.076923 -0.383846 0.192308
v 1.923077 -0.384615 0.192308
v 3.076923 -0.384615 0.192308
v 3.076923 -0.383846 -0.192308
v 1.923077 -0.383846 -0.192308
v 3.076923 -0.384615 -0.192308
v 1.923077 -0.384615 -0.192308
v 3.076923 -0.383846 -0.192308
v 3.076923 -0.383846 0.192308
v 1.923077 -0.383846 -0.192308
v 1.923077 -0.383846 0.192308
v 1.923077 -0.384615 -0.192308
v 1.923077 -0.384615 0.192308
v 3.076923 -0.384615 -0.192308
v 3.076923 -0.384615 0.192308
v 1.923077 -0.383846 -0.192308
v 1.923077 -0.383846 0.192308
v 1.923077 -0.384615 -0.192308
v 1.923077 -0.384615 0.192308
v 3.076923 -0.383846 0.192308
v 3.076923 -0.383846 -0.192308
v 3.076923 -0.384615 0.192308
v 3.076923 -0.384615 -0.192308
v 1.923077 0.384615 -0.383846
v 3.076923 0.384615 -0.383846
v 1.923077 0.000000 -0.383846
v 3.076923 0.000000 -0.383846
v 3.076923 0.384615 -0.384615
v 1.923077 0.384615 -0.384615
v 3.076923 0.000000 -0.384615
v 1.923077 0.000000 -0.384615
v 3.076923 0.384615 -0.384615
v 3.076923 0.384615 -0.383846
v 1.923077 0.384615 -0.384615
v 1.923077 0.384615 -0.383846
v 1.923077 0.000000 -0.384615
v 1.923077 0.000000 -0.383846
v 3.076923 0.000000 -0.384615
v 3.076923 0.000000 -0.383846
v 1.923077 0.384615 -0.384615
v 1.923077 0.384615 -0.383846
v 1.923077 0.000000 -0.384615
v 1.923077 0.000000 -0.383846
v 3.076923 0.384615 -0.383846
v 3.076923 0.384615 -0.384615
v 3.076923 0.000000 -0.383846
v 3.076923 0.000000 -0.384615
v 1.923077 0.384615 0.385385
v 3.076923 0.384615 0.385384
v 1.923077 0.000000 0.385385
v 3.076923 0.000000 0.385384
v 3.076923 0.384615 0.384615
v 1.923077 0.384615 0.384615
v 3.076923 0.000000 0.384615
v 1.923077 0.000000 0.384615
v 3.076923 0.384615 0.384615
v 3.076923 0.384615 0.385384
v 1.923077 0.384615 0.384615
v 1.923077 0.384615 0.385385
v 1.923077 0.000000 0.384615
v 1.923077 0.000000 0.385385
v 3.076923 0.000000 0.384615
v 3.076923 0.000000 0.385384
v 1.923077 0.384615 0.384615
v 1.923077 0.384615 0.385385
v 1.923077 0.000000 0.384615
v 1.923077 0.000000 0.385385
v 3.076923 0.384615 0.385384
v 3.076923 0.384615 0.384615
v 3.076923 0.000000 0.385384
v 3.076923 0.000000 0.384615
vn -0.0000 -0.0000 1.0000
vn -0.0000 -0.0000 -1.0000
vn -0.0000 1.0000 -0.0000
vn -0.0000 -1.0000 -0.0000
vn -1.0000 -0.0000 -0.0000
vn 1.0000 -0.0000 -0.0000
vn -0.0000 0.7071 0.7071
vn -0.0000 -0.7071 -0.7071
vn -0.0000 0.7071 -0.7071
vn -0.0000 -0.7071 0.7071
vt 0.375000 0.375000
vt 0.375000 0.250000
vt 0.437500 0.375000
vt 0.437500 0.250000
vt 0.500000 0.375000
vt 0.500000 0.250000
vt 0.562500 0.375000
vt 0.562500 0.250000
vt 0.750000 0.437500
vt 0.750000 0.500000
vt 0.625000 0.437500
vt 0.625000 0.500000
vt 0.750000 0.375000
vt 0.750000 0.312500
vt 0.625000 0.375000
vt 0.625000 0.312500
vt 0.375000 0.625000
vt 0.375000 0.500000
vt 0.500000 0.625000
vt 0.500000 0.500000
vt 0.250000 0.625000
vt 0.250000 0.500000
vt 0.125000 0.750000
vt 0.125000 0.625000
vt 0.312500 0.750000
vt 0.312500 0.625000
vt 0.375000 1.000000
vt 0.375000 0.875000
vt 0.562500 1.000000
vt 0.562500 0.875000
vt 0.250000 0.437500
vt 0.125000 0.437500
vt 0.500000 0.875000
vt 0.500000 0.687500
vt 0.375000 0.687500
vt 0.500000 0.750000
vt 0.625000 0.875000
vt 0.625000 0.750000
vt 0.000000 0.500000
vt 0.000000 0.375000
vt 0.125000 0.500000
vt 0.125000 0.375000
vt 0.000000 1.000000
vt 0.000000 0.875000
vt 0.062500 1.000000
vt 0.062500 0.875000
vt 0.000000 0.750000
vt 0.062500 0.750000
vt 0.125000 0.687500
vt 0.000000 0.687500
vt 0.375000 0.812500
vt 0.375000 0.750000
vt 0.250000 0.812500
vt 0.250000 0.750000
vt 0.625000 0.625000
vt 0.250000 0.375000
vt 0.187500 1.000000
vt 0.062500 0.187500
vt 0.062500 0.375000
vt 0.000000 0.187500
vt 0.687500 1.000000
vt 0.687500 0.812500
vt 0.625000 1.000000
vt 0.625000 0.812500
vt 0.125000 0.312500
vt 0.312500 0.375000
vt 0.312500 0.312500
vt 0.625000 0.687500
vt 0.812500 0.750000
vt 0.812500 0.687500
vt 0.000000 0.812500
vt 0.000000 0.937500
vt 0.375000 0.437500
vt 0.562500 0.500000
vt 0.562500 0.437500
vt 0.500000 0.562500
vt 0.687500 0.625000
vt 0.687500 0.562500
s 0
usemtl Material_0
f 1/1/1 3/2/1 2/3/1
f 3/2/1 4/4/1 2/3/1
f 5/5/2 7/6/2 6/7/2
f 7/6/2 8/8/2 6/7/2
f 9/9/3 11/10/3 10/11/3
f 11/10/3 12/12/3 10/11/3
f 13/13/4 15/14/4 14/15/4
f 15/14/4 16/16/4 14/15/4
f 17/17/5 19/18/5 18/19/5
f 19/18/5 20/20/5 18/19/5
f 21/21/6 23/22/6 22/17/6
f 23/22/6 24/18/6 22/17/6
f 25/23/1 27/24/1 26/25/1
f 27/24/1 28/26/1 26/25/1
f 29/27/2 31/28/2 30/29/2
f 31/28/2 32/30/2 30/29/2
f 33/31/3 35/21/3 34/32/3
f 35/21/3 36/24/3 34/32/3
f 37/33/4 39/34/4 38/28/4
f 39/34/4 40/35/4 38/28/4
f 41/33/5 43/36/5 42/37/5
f 43/36/5 44/38/5 42/37/5
f 45/39/6 47/40/6 46/41/6
f 47/40/6 48/42/6 46/41/6
f 49/43/7 51/44/7 50/45/7
f 51/44/7 52/46/7 50/45/7
f 53/44/8 55/47/8 54/46/8
f 55/47/8 56/48/8 54/46/8
f 57/49/9 59/23/9 58/50/9
f 59/23/9 60/47/9 58/50/9
f 61/51/10 63/52/10 62/53/10
f 63/52/10 64/54/10 62/53/10
f 65/36/5 67/19/5 66/38/5
f 67/19/5 68/55/5 66/38/5
f 69/22/6 71/56/6 70/18/6
f 71/56/6 72/1/6 70/18/6
f 73/43/1 75/43/1 74/57/1
f 75/43/1 76/57/1 74/57/1
f 77/43/2 79/43/2 78/57/2
f 79/43/2 80/57/2 78/57/2
f 81/58/3 83/59/3 82/60/3
f 83/59/3 84/40/3 82/60/3
f 85/61/4 87/62/4 86/63/4
f 87/62/4 88/64/4 86/63/4
f 89/43/5 91/43/5 90/45/5
f 91/43/5 92/45/5 90/45/5
f 93/43/6 95/43/6 94/45/6
f 95/43/6 96/45/6 94/45/6
f 97/42/1 99/65/1 98/66/1
f 99/65/1 100/67/1 98/66/1
f 101/38/2 103/68/2 102/69/2
f 103/68/2 104/70/2 102/69/2
f 105/71/3 107/43/3 106/71/3
f 107/43/3 108/43/3 106/71/3
f 109/43/4 111/71/4 110/43/4
f 111/71/4 112/71/4 110/43/4
f 113/43/5 115/72/5 114/43/5
f 115/72/5 116/72/5 114/43/5
f 117/43/6 119/72/6 118/43/6
f 119/72/6 120/72/6 118/43/6
f 121/18/1 123/73/1 122/74/1
f 123/73/1 124/75/1 122/74/1
f 125/19/2 127/76/2 126/77/2
f 127/76/2 128/78/2 126/77/2
f 129/71/3 131/43/3 130/71/3
f 131/43/3 132/43/3 130/71/3
f 133/43/4 135/71/4 134/43/4
f 135/71/4 136/71/4 134/43/4
f 137/43/5 139/72/5 138/43/5
f 139/72/5 140/72/5 138/43/5
f 141/43/6 143/72/6 142/43/6
f 143/72/6 144/72/6 142/43/6
