# Blender 4.3.2
# www.blender.org
mtllib lev.g3stock.mtl
o attachmentModel
v 0.576923 0.384615 1.153846
v 0.576923 0.384615 0.000000
v 0.576923 -1.153846 1.153846
v 0.576923 -1.153846 0.000000
v -0.576923 0.384615 0.000000
v -0.576923 0.384615 1.153846
v -0.576923 -1.153846 0.000000
v -0.576923 -1.153846 1.153846
v -0.576923 0.384615 0.000000
v 0.576923 0.384615 0.000000
v -0.576923 0.384615 1.153846
v 0.576923 0.384615 1.153846
v -0.576923 -1.153846 1.153846
v 0.576923 -1.153846 1.153846
v -0.576923 -1.153846 0.000000
v 0.576923 -1.153846 0.000000
v -0.576923 0.384615 1.153846
v 0.576923 0.384615 1.153846
v -0.576923 -1.153846 1.153846
v 0.576923 -1.153846 1.153846
v 0.576923 0.384615 0.000000
v -0.576923 0.384615 0.000000
v 0.576923 -1.153846 0.000000
v -0.576923 -1.153846 0.000000
v 0.576923 0.384615 1.538462
v 0.576923 0.384615 1.153846
v 0.576923 -1.153846 1.538462
v 0.576923 -1.153846 1.153846
v -0.576923 0.384615 1.153846
v -0.576923 0.384615 1.538462
v -0.576923 -1.153846 1.153846
v -0.576923 -1.153846 1.538462
v -0.576923 0.384615 1.153846
v 0.576923 0.384615 1.153846
v -0.576923 0.384615 1.538462
v 0.576923 0.384615 1.538462
v -0.576923 -1.153846 1.538462
v 0.576923 -1.153846 1.538462
v -0.576923 -1.153846 1.153846
v 0.576923 -1.153846 1.153846
v -0.576923 0.384615 1.538462
v 0.576923 0.384615 1.538462
v -0.576923 -1.153846 1.538462
v 0.576923 -1.153846 1.538462
v 0.576923 0.384615 1.153846
v -0.576923 0.384615 1.153846
v 0.576923 -1.153846 1.153846
v -0.576923 -1.153846 1.153846
v 0.769231 0.576923 1.153846
v 0.769231 0.576923 0.000000
v 0.769231 -0.576923 1.153846
v 0.769231 -0.576923 0.000000
v -0.769231 0.576923 0.000000
v -0.769231 0.576923 1.153846
v -0.769231 -0.576923 0.000000
v -0.769231 -0.576923 1.153846
v -0.769231 0.576923 0.000000
v 0.769231 0.576923 0.000000
v -0.769231 0.576923 1.153846
v 0.769231 0.576923 1.153846
v -0.769231 -0.576923 1.153846
v 0.769231 -0.576923 1.153846
v -0.769231 -0.576923 0.000000
v 0.769231 -0.576923 0.000000
v -0.769231 0.576923 1.153846
v 0.769231 0.576923 1.153846
v -0.769231 -0.576923 1.153846
v 0.769231 -0.576923 1.153846
v 0.769231 0.576923 0.000000
v -0.769231 0.576923 0.000000
v 0.769231 -0.576923 0.000000
v -0.769231 -0.576923 0.000000
v 0.576154 1.153846 0.769231
v 0.576154 0.608325 0.223709
v 0.576154 0.384616 1.538462
v 0.576154 -0.160906 0.992940
v -0.576154 0.608325 0.223709
v -0.576154 1.153846 0.769231
v -0.576154 -0.160906 0.992940
v -0.576154 0.384616 1.538462
v -0.576154 0.608325 0.223709
v 0.576154 0.608325 0.223709
v -0.576154 1.153846 0.769231
v 0.576154 1.153846 0.769231
v -0.576154 0.384616 1.538462
v 0.576154 0.384616 1.538462
v -0.576154 -0.160906 0.992940
v 0.576154 -0.160906 0.992940
v -0.576154 1.153846 0.769231
v 0.576154 1.153846 0.769231
v -0.576154 0.384616 1.538462
v 0.576154 0.384616 1.538462
v 0.576154 0.608325 0.223709
v -0.576154 0.608325 0.223709
v 0.576154 -0.160906 0.992940
v -0.576154 -0.160906 0.992940
v 0.576923 1.153846 0.769231
v 0.576923 1.153846 0.000000
v 0.576923 0.384615 0.769231
v 0.576923 0.384615 0.000000
v -0.576923 1.153846 0.000000
v -0.576923 1.153846 0.769231
v -0.576923 0.384615 0.000000
v -0.576923 0.384615 0.769231
v -0.576923 1.153846 0.000000
v 0.576923 1.153846 0.000000
v -0.576923 1.153846 0.769231
v 0.576923 1.153846 0.769231
v -0.576923 0.384615 0.769231
v 0.576923 0.384615 0.769231
v -0.576923 0.384615 0.000000
v 0.576923 0.384615 0.000000
v -0.576923 1.153846 0.769231
v 0.576923 1.153846 0.769231
v -0.576923 0.384615 0.769231
v 0.576923 0.384615 0.769231
v 0.576923 1.153846 0.000000
v -0.576923 1.153846 0.000000
v 0.576923 0.384615 0.000000
v -0.576923 0.384615 0.000000
v 0.576923 0.384615 6.923077
v 0.576923 0.384615 1.538462
v 0.576923 -1.153846 6.923077
v 0.576923 -1.153846 1.538462
v -0.576923 0.384615 1.538462
v -0.576923 0.384615 6.923077
v -0.576923 -1.153846 1.538462
v -0.576923 -1.153846 6.923077
v -0.576923 0.384615 1.538462
v 0.576923 0.384615 1.538462
v -0.576923 0.384615 6.923077
v 0.576923 0.384615 6.923077
v -0.576923 -1.153846 6.923077
v 0.576923 -1.153846 6.923077
v -0.576923 -1.153846 1.538462
v 0.576923 -1.153846 1.538462
v -0.576923 0.384615 6.923077
v 0.576923 0.384615 6.923077
v -0.576923 -1.153846 6.923077
v 0.576923 -1.153846 6.923077
v 0.576923 0.384615 1.538462
v -0.576923 0.384615 1.538462
v 0.576923 -1.153846 1.538462
v -0.576923 -1.153846 1.538462
v 0.576154 -2.010909 7.364635
v 0.576154 0.049695 2.389899
v 0.576154 -3.076924 6.923077
v 0.576154 -1.016320 1.948341
v -0.576154 0.049695 2.389899
v -0.576154 -2.010909 7.364635
v -0.576154 -1.016320 1.948341
v -0.576154 -3.076924 6.923077
v -0.576154 0.049695 2.389899
v 0.576154 0.049695 2.389899
v -0.576154 -2.010909 7.364635
v 0.576154 -2.010909 7.364635
v -0.576154 -3.076924 6.923077
v 0.576154 -3.076924 6.923077
v -0.576154 -1.016320 1.948341
v 0.576154 -1.016320 1.948341
v -0.576154 -2.010909 7.364635
v 0.576154 -2.010909 7.364635
v -0.576154 -3.076924 6.923077
v 0.576154 -3.076924 6.923077
v 0.576154 0.049695 2.389899
v -0.576154 0.049695 2.389899
v 0.576154 -1.016320 1.948341
v -0.576154 -1.016320 1.948341
v 0.576923 0.384615 7.692307
v 0.576923 0.384615 6.923077
v 0.576923 -3.076923 7.692307
v 0.576923 -3.076923 6.923077
v -0.576923 0.384615 6.923077
v -0.576923 0.384615 7.692307
v -0.576923 -3.076923 6.923077
v -0.576923 -3.076923 7.692307
v -0.576923 0.384615 6.923077
v 0.576923 0.384615 6.923077
v -0.576923 0.384615 7.692307
v 0.576923 0.384615 7.692307
v -0.576923 -3.076923 7.692307
v 0.576923 -3.076923 7.692307
v -0.576923 -3.076923 6.923077
v 0.576923 -3.076923 6.923077
v -0.576923 0.384615 7.692307
v 0.576923 0.384615 7.692307
v -0.576923 -3.076923 7.692307
v 0.576923 -3.076923 7.692307
v 0.576923 0.384615 6.923077
v -0.576923 0.384615 6.923077
v 0.576923 -3.076923 6.923077
v -0.576923 -3.076923 6.923077
v 0.576923 -1.153846 6.923077
v 0.576923 -1.153846 4.615385
v 0.576923 -2.307692 6.923077
v 0.576923 -2.307692 4.615385
v -0.576923 -1.153846 4.615385
v -0.576923 -1.153846 6.923077
v -0.576923 -2.307692 4.615385
v -0.576923 -2.307692 6.923077
v -0.576923 -1.153846 4.615385
v 0.576923 -1.153846 4.615385
v -0.576923 -1.153846 6.923077
v 0.576923 -1.153846 6.923077
v -0.576923 -2.307692 6.923077
v 0.576923 -2.307692 6.923077
v -0.576923 -2.307692 4.615385
v 0.576923 -2.307692 4.615385
v -0.576923 -1.153846 6.923077
v 0.576923 -1.153846 6.923077
v -0.576923 -2.307692 6.923077
v 0.576923 -2.307692 6.923077
v 0.576923 -1.153846 4.615385
v -0.576923 -1.153846 4.615385
v 0.576923 -2.307692 4.615385
v -0.576923 -2.307692 4.615385
vn 1.0000 -0.0000 -0.0000
vn -1.0000 -0.0000 -0.0000
vn -0.0000 1.0000 -0.0000
vn -0.0000 -1.0000 -0.0000
vn -0.0000 -0.0000 1.0000
vn -0.0000 -0.0000 -1.0000
vn -0.0000 0.7071 -0.7071
vn -0.0000 -0.7071 0.7071
vn -0.0000 0.7071 0.7071
vn -0.0000 -0.7071 -0.7071
vn -0.0000 0.9239 0.3827
vn -0.0000 -0.9239 -0.3827
vn -0.0000 -0.3827 0.9239
vn -0.0000 0.3827 -0.9239
vt 0.406250 0.875000
vt 0.406250 0.812500
vt 0.453125 0.875000
vt 0.453125 0.812500
vt 0.312500 0.593750
vt 0.312500 0.531250
vt 0.359375 0.593750
vt 0.359375 0.531250
vt 0.484375 0.703125
vt 0.484375 0.750000
vt 0.437500 0.703125
vt 0.437500 0.750000
vt 0.484375 0.687500
vt 0.484375 0.640625
vt 0.437500 0.687500
vt 0.437500 0.640625
vt 0.250000 0.593750
vt 0.250000 0.531250
vt 0.296875 0.593750
vt 0.296875 0.531250
vt 0.406250 0.937500
vt 0.453125 0.937500
vt 0.093750 0.500000
vt 0.093750 0.437500
vt 0.109375 0.500000
vt 0.109375 0.437500
vt 0.500000 0.718750
vt 0.500000 0.656250
vt 0.515625 0.718750
vt 0.515625 0.656250
vt 0.359375 0.484375
vt 0.359375 0.500000
vt 0.312500 0.484375
vt 0.312500 0.500000
vt 0.546875 0.656250
vt 0.546875 0.640625
vt 0.500000 0.640625
vt 0.375000 0.656250
vt 0.375000 0.593750
vt 0.421875 0.656250
vt 0.421875 0.593750
vt 0.375000 0.718750
vt 0.421875 0.718750
vt 0.437500 1.000000
vt 0.437500 0.953125
vt 0.484375 1.000000
vt 0.484375 0.953125
vt 0.437500 0.812500
vt 0.437500 0.765625
vt 0.484375 0.812500
vt 0.484375 0.765625
vt 0.375000 0.953125
vt 0.375000 1.000000
vt 0.437500 0.781250
vt 0.437500 0.734375
vt 0.375000 0.781250
vt 0.375000 0.734375
vt 0.343750 0.843750
vt 0.343750 0.796875
vt 0.406250 0.843750
vt 0.406250 0.796875
vt 0.343750 0.906250
vt 0.343750 0.859375
vt 0.406250 0.906250
vt 0.406250 0.859375
vt 0.500000 1.000000
vt 0.500000 0.953125
vt 0.531250 1.000000
vt 0.531250 0.953125
vt 0.062500 0.500000
vt 0.062500 0.453125
vt 0.093750 0.453125
vt 0.546875 0.781250
vt 0.546875 0.812500
vt 0.500000 0.781250
vt 0.500000 0.812500
vt 0.546875 0.750000
vt 0.500000 0.750000
vt 0.437500 0.562500
vt 0.437500 0.515625
vt 0.484375 0.562500
vt 0.484375 0.515625
vt 0.437500 0.625000
vt 0.437500 0.578125
vt 0.484375 0.625000
vt 0.484375 0.578125
vt 0.312500 0.906250
vt 0.312500 0.875000
vt 0.343750 0.875000
vt 0.343750 0.781250
vt 0.343750 0.750000
vt 0.375000 0.750000
vt 0.421875 0.500000
vt 0.421875 0.531250
vt 0.375000 0.500000
vt 0.375000 0.531250
vt 0.046875 0.500000
vt 0.046875 0.468750
vt 0.000000 0.500000
vt 0.000000 0.468750
vt 0.250000 0.500000
vt 0.296875 0.500000
vt 0.000000 1.000000
vt 0.000000 0.937500
vt 0.218750 1.000000
vt 0.218750 0.937500
vt 0.000000 0.875000
vt 0.218750 0.875000
vt 0.046875 0.656250
vt 0.046875 0.875000
vt 0.000000 0.656250
vt 0.109375 0.875000
vt 0.109375 0.656250
vt 0.062500 0.875000
vt 0.062500 0.656250
vt 0.000000 0.562500
vt 0.046875 0.562500
vt 0.125000 0.875000
vt 0.125000 0.828125
vt 0.343750 0.828125
vt 0.125000 0.812500
vt 0.125000 0.765625
vt 0.343750 0.812500
vt 0.343750 0.765625
vt 0.171875 0.531250
vt 0.171875 0.750000
vt 0.125000 0.531250
vt 0.125000 0.750000
vt 0.234375 0.750000
vt 0.234375 0.531250
vt 0.187500 0.750000
vt 0.187500 0.531250
vt 0.187500 0.484375
vt 0.234375 0.484375
vt 0.468750 0.875000
vt 0.468750 0.828125
vt 0.515625 0.875000
vt 0.515625 0.828125
vt 0.062500 0.515625
vt 0.093750 0.656250
vt 0.093750 0.515625
vt 0.125000 0.656250
vt 0.125000 0.515625
vt 0.296875 0.468750
vt 0.250000 0.468750
vt 0.546875 0.718750
vt 0.312500 0.750000
vt 0.312500 0.609375
vt 0.359375 0.750000
vt 0.359375 0.609375
vt 0.250000 0.750000
vt 0.250000 0.609375
vt 0.296875 0.750000
vt 0.296875 0.609375
vt 0.218750 0.953125
vt 0.312500 1.000000
vt 0.312500 0.953125
vt 0.218750 0.890625
vt 0.312500 0.937500
vt 0.312500 0.890625
vt 0.359375 0.906250
vt 0.359375 1.000000
vt 0.125000 0.484375
vt 0.171875 0.484375
vt 0.468750 0.937500
vt 0.468750 0.890625
vt 0.515625 0.937500
vt 0.515625 0.890625
s 0
usemtl Material_0
f 1/1/1 3/2/1 2/3/1
f 3/2/1 4/4/1 2/3/1
f 5/5/2 7/6/2 6/7/2
f 7/6/2 8/8/2 6/7/2
f 9/9/3 11/10/3 10/11/3
f 11/10/3 12/12/3 10/11/3
f 13/13/4 15/14/4 14/15/4
f 15/14/4 16/16/4 14/15/4
f 17/17/5 19/18/5 18/19/5
f 19/18/5 20/20/5 18/19/5
f 21/21/6 23/1/6 22/22/6
f 23/1/6 24/3/6 22/22/6
f 25/23/1 27/24/1 26/25/1
f 27/24/1 28/26/1 26/25/1
f 29/27/2 31/28/2 30/29/2
f 31/28/2 32/30/2 30/29/2
f 33/31/3 35/32/3 34/33/3
f 35/32/3 36/34/3 34/33/3
f 37/35/4 39/36/4 38/28/4
f 39/36/4 40/37/4 38/28/4
f 41/38/5 43/39/5 42/40/5
f 43/39/5 44/41/5 42/40/5
f 45/42/6 47/38/6 46/43/6
f 47/38/6 48/40/6 46/43/6
f 49/44/1 51/45/1 50/46/1
f 51/45/1 52/47/1 50/46/1
f 53/48/2 55/49/2 54/50/2
f 55/49/2 56/51/2 54/50/2
f 57/45/3 59/44/3 58/52/3
f 59/44/3 60/53/3 58/52/3
f 61/54/4 63/55/4 62/56/4
f 63/55/4 64/57/4 62/56/4
f 65/58/5 67/59/5 66/60/5
f 67/59/5 68/61/5 66/60/5
f 69/62/6 71/63/6 70/64/6
f 71/63/6 72/65/6 70/64/6
f 73/66/1 75/67/1 74/68/1
f 75/67/1 76/69/1 74/68/1
f 77/70/2 79/71/2 78/23/2
f 79/71/2 80/72/2 78/23/2
f 81/73/7 83/74/7 82/75/7
f 83/74/7 84/76/7 82/75/7
f 85/73/8 87/77/8 86/75/8
f 87/77/8 88/78/8 86/75/8
f 89/79/9 91/80/9 90/81/9
f 91/80/9 92/82/9 90/81/9
f 93/83/10 95/84/10 94/85/10
f 95/84/10 96/86/10 94/85/10
f 97/87/1 99/88/1 98/62/1
f 99/88/1 100/89/1 98/62/1
f 101/90/2 103/91/2 102/56/2
f 103/91/2 104/92/2 102/56/2
f 105/93/3 107/94/3 106/95/3
f 107/94/3 108/96/3 106/95/3
f 109/97/4 111/98/4 110/99/4
f 111/98/4 112/100/4 110/99/4
f 113/6/5 115/34/5 114/8/5
f 115/34/5 116/32/5 114/8/5
f 117/18/6 119/101/6 118/20/6
f 119/101/6 120/102/6 118/20/6
f 121/103/1 123/104/1 122/105/1
f 123/104/1 124/106/1 122/105/1
f 125/104/2 127/107/2 126/106/2
f 127/107/2 128/108/2 126/106/2
f 129/109/3 131/110/3 130/111/3
f 131/110/3 132/107/3 130/111/3
f 133/112/4 135/113/4 134/114/4
f 135/113/4 136/115/4 134/114/4
f 137/116/5 139/99/5 138/117/5
f 139/99/5 140/97/5 138/117/5
f 141/39/6 143/96/6 142/41/6
f 143/96/6 144/94/6 142/41/6
f 145/118/1 147/119/1 146/89/1
f 147/119/1 148/120/1 146/89/1
f 149/121/2 151/122/2 150/123/2
f 151/122/2 152/124/2 150/123/2
f 153/125/11 155/126/11 154/127/11
f 155/126/11 156/128/11 154/127/11
f 157/129/12 159/130/12 158/131/12
f 159/130/12 160/132/12 158/131/12
f 161/132/13 163/133/13 162/130/13
f 163/133/13 164/134/13 162/130/13
f 165/135/14 167/136/14 166/137/14
f 167/136/14 168/138/14 166/137/14
f 169/115/1 171/139/1 170/140/1
f 171/139/1 172/141/1 170/140/1
f 173/140/2 175/141/2 174/142/2
f 175/141/2 176/143/2 174/142/2
f 177/144/3 179/102/3 178/145/3
f 179/102/3 180/101/3 178/145/3
f 181/77/4 183/146/4 182/78/4
f 183/146/4 184/27/4 182/78/4
f 185/147/5 187/148/5 186/149/5
f 187/148/5 188/150/5 186/149/5
f 189/151/6 191/152/6 190/153/6
f 191/152/6 192/154/6 190/153/6
f 193/105/1 195/155/1 194/156/1
f 195/155/1 196/157/1 194/156/1
f 197/106/2 199/158/2 198/159/2
f 199/158/2 200/160/2 198/159/2
f 201/161/3 203/162/3 202/87/3
f 203/162/3 204/156/3 202/87/3
f 205/109/4 207/117/4 206/111/4
f 207/117/4 208/116/4 206/111/4
f 209/127/5 211/163/5 210/125/5
f 211/163/5 212/164/5 210/125/5
f 213/165/6 215/166/6 214/167/6
f 215/166/6 216/168/6 214/167/6
