# Blender 4.3.2
# www.blender.org
mtllib lev.kedrstock.mtl
o attachmentModel
v -5.551954 -2.636817 0.576923
v -0.221879 -0.429026 0.576923
v -5.551659 -2.637527 0.576923
v -0.221585 -0.429737 0.576923
v -0.221879 -0.429026 -0.576923
v -5.551954 -2.636817 -0.576924
v -0.221585 -0.429737 -0.576923
v -5.551659 -2.637527 -0.576924
v -0.221879 -0.429026 -0.576923
v -0.221879 -0.429026 0.576923
v -5.551954 -2.636817 -0.576924
v -5.551954 -2.636817 0.576923
v -5.551659 -2.637527 -0.576924
v -5.551659 -2.637527 0.576923
v -0.221585 -0.429737 -0.576923
v -0.221585 -0.429737 0.576923
v -5.551954 -2.636817 -0.576924
v -5.551954 -2.636817 0.576923
v -5.551659 -2.637527 -0.576924
v -5.551659 -2.637527 0.576923
v -0.221879 -0.429026 0.576923
v -0.221879 -0.429026 -0.576923
v -0.221585 -0.429737 0.576923
v -0.221585 -0.429737 -0.576923
v -5.846031 -1.926850 -0.576155
v -0.515957 0.280940 -0.576154
v -5.551660 -2.637527 -0.576155
v -0.221585 -0.429737 -0.576154
v -0.515957 0.280940 -0.576923
v -5.846031 -1.926850 -0.576924
v -0.221585 -0.429737 -0.576923
v -5.551660 -2.637527 -0.576924
v -0.515957 0.280940 -0.576923
v -0.515957 0.280940 -0.576154
v -5.846031 -1.926850 -0.576924
v -5.846031 -1.926850 -0.576155
v -5.551660 -2.637527 -0.576924
v -5.551660 -2.637527 -0.576155
v -0.221585 -0.429737 -0.576923
v -0.221585 -0.429737 -0.576154
v -5.846031 -1.926850 -0.576924
v -5.846031 -1.926850 -0.576155
v -5.551660 -2.637527 -0.576924
v -5.551660 -2.637527 -0.576155
v -0.515957 0.280940 -0.576154
v -0.515957 0.280940 -0.576923
v -0.221585 -0.429737 -0.576154
v -0.221585 -0.429737 -0.576923
v -5.846031 -1.926850 0.577692
v -0.515957 0.280940 0.577692
v -5.551660 -2.637527 0.577692
v -0.221585 -0.429737 0.577692
v -0.515957 0.280940 0.576923
v -5.846031 -1.926850 0.576923
v -0.221585 -0.429737 0.576923
v -5.551660 -2.637527 0.576923
v -0.515957 0.280940 0.576923
v -0.515957 0.280940 0.577692
v -5.846031 -1.926850 0.576923
v -5.846031 -1.926850 0.577692
v -5.551660 -2.637527 0.576923
v -5.551660 -2.637527 0.577692
v -0.221585 -0.429737 0.576923
v -0.221585 -0.429737 0.577692
v -5.846031 -1.926850 0.576923
v -5.846031 -1.926850 0.577692
v -5.551660 -2.637527 0.576923
v -5.551660 -2.637527 0.577692
v -0.515957 0.280940 0.577692
v -0.515957 0.280940 0.576923
v -0.221585 -0.429737 0.577692
v -0.221585 -0.429737 0.576923
v -5.846032 0.380843 0.576923
v -4.307570 0.380843 0.576923
v -5.846032 -1.926850 0.576923
v -4.307570 -1.926849 0.576923
v -4.307570 0.380843 0.576154
v -5.846032 0.380843 0.576153
v -4.307570 -1.926849 0.576154
v -5.846032 -1.926850 0.576153
v -4.307570 0.380843 0.576154
v -4.307570 0.380843 0.576923
v -5.846032 0.380843 0.576153
v -5.846032 0.380843 0.576923
v -5.846032 -1.926850 0.576153
v -5.846032 -1.926850 0.576923
v -4.307570 -1.926849 0.576154
v -4.307570 -1.926849 0.576923
v -5.846032 0.380843 0.576153
v -5.846032 0.380843 0.576923
v -5.846032 -1.926850 0.576153
v -5.846032 -1.926850 0.576923
v -4.307570 0.380843 0.576923
v -4.307570 0.380843 0.576154
v -4.307570 -1.926849 0.576923
v -4.307570 -1.926849 0.576154
v -5.846032 0.380843 -0.575385
v -4.307570 0.380843 -0.575385
v -5.846032 -1.926850 -0.575385
v -4.307570 -1.926849 -0.575385
v -4.307570 0.380843 -0.576154
v -5.846032 0.380843 -0.576154
v -4.307570 -1.926849 -0.576154
v -5.846032 -1.926850 -0.576155
v -4.307570 0.380843 -0.576154
v -4.307570 0.380843 -0.575385
v -5.846032 0.380843 -0.576154
v -5.846032 0.380843 -0.575385
v -5.846032 -1.926850 -0.576155
v -5.846032 -1.926850 -0.575385
v -4.307570 -1.926849 -0.576154
v -4.307570 -1.926849 -0.575385
v -5.846032 0.380843 -0.576154
v -5.846032 0.380843 -0.575385
v -5.846032 -1.926850 -0.576155
v -5.846032 -1.926850 -0.575385
v -4.307570 0.380843 -0.575385
v -4.307570 0.380843 -0.576154
v -4.307570 -1.926849 -0.575385
v -4.307570 -1.926849 -0.576154
v -5.846800 0.380843 0.576923
v -5.846032 0.380843 0.576923
v -5.846801 -1.926849 0.576923
v -5.846032 -1.926850 0.576923
v -5.846032 0.380843 -0.576924
v -5.846800 0.380843 -0.576924
v -5.846032 -1.926850 -0.576924
v -5.846801 -1.926849 -0.576924
v -5.846032 0.380843 -0.576924
v -5.846032 0.380843 0.576923
v -5.846800 0.380843 -0.576924
v -5.846800 0.380843 0.576923
v -5.846801 -1.926849 -0.576924
v -5.846801 -1.926849 0.576923
v -5.846032 -1.926850 -0.576924
v -5.846032 -1.926850 0.576923
v -5.846800 0.380843 -0.576924
v -5.846800 0.380843 0.576923
v -5.846801 -1.926849 -0.576924
v -5.846801 -1.926849 0.576923
v -5.846032 0.380843 0.576923
v -5.846032 0.380843 -0.576924
v -5.846032 -1.926850 0.576923
v -5.846032 -1.926850 -0.576924
v -0.515957 0.280940 0.576154
v -0.160619 0.428126 0.576154
v -0.221585 -0.429737 0.576154
v 0.133753 -0.282551 0.576154
v -0.160619 0.428126 -0.576154
v -0.515957 0.280940 -0.576154
v 0.133753 -0.282551 -0.576154
v -0.221585 -0.429737 -0.576154
v -0.160619 0.428126 -0.576154
v -0.160619 0.428126 0.576154
v -0.515957 0.280940 -0.576154
v -0.515957 0.280940 0.576154
v -0.221585 -0.429737 -0.576154
v -0.221585 -0.429737 0.576154
v 0.133753 -0.282551 -0.576154
v 0.133753 -0.282551 0.576154
v -0.515957 0.280940 -0.576154
v -0.515957 0.280940 0.576154
v -0.221585 -0.429737 -0.576154
v -0.221585 -0.429737 0.576154
v -0.160619 0.428126 0.576154
v -0.160619 0.428126 -0.576154
v 0.133753 -0.282551 0.576154
v 0.133753 -0.282551 -0.576154
v -5.846743 -1.927144 0.576923
v -5.846031 -1.926850 0.576923
v -5.552371 -2.637821 0.576923
v -5.551660 -2.637527 0.576923
v -5.846031 -1.926850 -0.576924
v -5.846743 -1.927144 -0.576924
v -5.551660 -2.637527 -0.576924
v -5.552371 -2.637821 -0.576924
v -5.846031 -1.926850 -0.576924
v -5.846031 -1.926850 0.576923
v -5.846743 -1.927144 -0.576924
v -5.846743 -1.927144 0.576923
v -5.552371 -2.637821 -0.576924
v -5.552371 -2.637821 0.576923
v -5.551660 -2.637527 -0.576924
v -5.551660 -2.637527 0.576923
v -5.846743 -1.927144 -0.576924
v -5.846743 -1.927144 0.576923
v -5.552371 -2.637821 -0.576924
v -5.552371 -2.637821 0.576923
v -5.846031 -1.926850 0.576923
v -5.846031 -1.926850 -0.576924
v -5.551660 -2.637527 0.576923
v -5.551660 -2.637527 -0.576924
vn -0.0000 -0.0000 1.0000
vn -0.0000 -0.0000 -1.0000
vn -0.3827 0.9239 -0.0000
vn 0.3827 -0.9239 -0.0000
vn -0.9239 -0.3827 -0.0000
vn 0.9239 0.3827 -0.0000
vn -0.0000 1.0000 -0.0000
vn -0.0000 -1.0000 -0.0000
vn -1.0000 -0.0000 -0.0000
vn 1.0000 -0.0000 -0.0000
vn 0.0004 1.0000 -0.0000
vt 0.000000 1.000000
vt 0.468750 1.000000
vt 0.093750 0.531250
vt 0.093750 1.000000
vt 0.000000 0.531250
vt 0.218750 1.000000
vt 0.218750 0.531250
vt 0.125000 1.000000
vt 0.125000 0.531250
vt 0.250000 1.000000
vt 0.250000 0.937500
vt 0.718750 1.000000
vt 0.718750 0.937500
vt 0.250000 0.875000
vt 0.718750 0.875000
vt 0.000000 0.937500
vt 0.250000 0.812500
vt 0.718750 0.812500
vt 0.250000 0.750000
vt 0.718750 0.750000
vt 0.250000 0.562500
vt 0.250000 0.375000
vt 0.375000 0.562500
vt 0.375000 0.375000
vt 0.500000 0.562500
vt 0.500000 0.375000
vt 0.000000 0.875000
vt 0.000000 0.812500
vt 0.375000 0.750000
vt 0.500000 0.750000
vt 0.125000 0.500000
vt 0.125000 0.312500
vt 0.218750 0.500000
vt 0.218750 0.312500
vt 0.000000 0.500000
vt 0.000000 0.312500
vt 0.093750 0.500000
vt 0.093750 0.312500
vt 0.250000 0.312500
vt 0.281250 0.375000
vt 0.281250 0.312500
vt 0.625000 0.750000
vt 0.625000 0.687500
vt 0.656250 0.750000
vt 0.656250 0.687500
vt 0.593750 0.468750
vt 0.593750 0.500000
vt 0.500000 0.468750
vt 0.500000 0.500000
vt 0.593750 0.437500
vt 0.593750 0.406250
vt 0.500000 0.437500
vt 0.500000 0.406250
vt 0.500000 0.687500
vt 0.500000 0.625000
vt 0.593750 0.687500
vt 0.593750 0.625000
vt 0.593750 0.750000
vt 0.593750 0.562500
s 0
usemtl Material_0.001
f 1/1/1 3/1/1 2/2/1
f 3/1/1 4/2/1 2/2/1
f 5/1/2 7/1/2 6/2/2
f 7/1/2 8/2/2 6/2/2
f 9/3/3 11/4/3 10/5/3
f 11/4/3 12/1/3 10/5/3
f 13/6/4 15/7/4 14/8/4
f 15/7/4 16/9/4 14/8/4
f 17/1/5 19/1/5 18/4/5
f 19/1/5 20/4/5 18/4/5
f 21/1/6 23/1/6 22/4/6
f 23/1/6 24/4/6 22/4/6
f 25/10/1 27/11/1 26/12/1
f 27/11/1 28/13/1 26/12/1
f 29/11/2 31/14/2 30/13/2
f 31/14/2 32/15/2 30/13/2
f 33/5/3 35/1/3 34/5/3
f 35/1/3 36/1/3 34/5/3
f 37/1/4 39/5/4 38/1/4
f 39/5/4 40/5/4 38/1/4
f 41/1/5 43/16/5 42/1/5
f 43/16/5 44/16/5 42/1/5
f 45/1/6 47/16/6 46/1/6
f 47/16/6 48/16/6 46/1/6
f 49/14/1 51/17/1 50/15/1
f 51/17/1 52/18/1 50/15/1
f 53/17/2 55/19/2 54/18/2
f 55/19/2 56/20/2 54/18/2
f 57/5/3 59/1/3 58/5/3
f 59/1/3 60/1/3 58/5/3
f 61/1/4 63/5/4 62/1/4
f 63/5/4 64/5/4 62/1/4
f 65/1/5 67/16/5 66/1/5
f 67/16/5 68/16/5 66/1/5
f 69/1/6 71/16/6 70/1/6
f 71/16/6 72/16/6 70/1/6
f 73/21/1 75/22/1 74/23/1
f 75/22/1 76/24/1 74/23/1
f 77/23/2 79/24/2 78/25/2
f 79/24/2 80/26/2 78/25/2
f 81/27/7 83/1/7 82/27/7
f 83/1/7 84/1/7 82/27/7
f 85/1/8 87/27/8 86/1/8
f 87/27/8 88/27/8 86/1/8
f 89/1/9 91/28/9 90/1/9
f 91/28/9 92/28/9 90/1/9
f 93/1/10 95/28/10 94/1/10
f 95/28/10 96/28/10 94/1/10
f 97/19/1 99/21/1 98/29/1
f 99/21/1 100/23/1 98/29/1
f 101/29/2 103/23/2 102/30/2
f 103/23/2 104/25/2 102/30/2
f 105/27/7 107/1/7 106/27/7
f 107/1/7 108/1/7 106/27/7
f 109/1/8 111/27/8 110/1/8
f 111/27/8 112/27/8 110/1/8
f 113/1/9 115/28/9 114/1/9
f 115/28/9 116/28/9 114/1/9
f 117/1/10 119/28/10 118/1/10
f 119/28/10 120/28/10 118/1/10
f 121/1/1 123/28/1 122/1/1
f 123/28/1 124/28/1 122/1/1
f 125/1/2 127/28/2 126/1/2
f 127/28/2 128/28/2 126/1/2
f 129/4/11 131/4/11 130/1/11
f 131/4/7 132/1/7 130/1/7
f 133/4/8 135/4/8 134/1/8
f 135/4/8 136/1/8 134/1/8
f 137/31/9 139/32/9 138/33/9
f 139/32/9 140/34/9 138/33/9
f 141/35/10 143/36/10 142/37/10
f 143/36/10 144/38/10 142/37/10
f 145/22/1 147/39/1 146/40/1
f 147/39/1 148/41/1 146/40/1
f 149/42/2 151/43/2 150/44/2
f 151/43/2 152/45/2 150/44/2
f 153/46/3 155/47/3 154/48/3
f 155/47/3 156/49/3 154/48/3
f 157/50/4 159/51/4 158/52/4
f 159/51/4 160/53/4 158/52/4
f 161/54/5 163/55/5 162/56/5
f 163/55/5 164/57/5 162/56/5
f 165/30/6 167/54/6 166/58/6
f 167/54/6 168/56/6 166/58/6
f 169/1/1 171/16/1 170/1/1
f 171/16/1 172/16/1 170/1/1
f 173/1/2 175/16/2 174/1/2
f 175/16/2 176/16/2 174/1/2
f 177/4/3 179/4/3 178/1/3
f 179/4/3 180/1/3 178/1/3
f 181/4/4 183/4/4 182/1/4
f 183/4/4 184/1/4 182/1/4
f 185/25/5 187/49/5 186/59/5
f 187/49/5 188/47/5 186/59/5
f 189/55/6 191/25/6 190/57/6
f 191/25/6 192/59/6 190/57/6
