# Blender 4.2.1 LTS
# www.blender.org
mtllib lev.ak12sup.mtl
o attachmentModel
v 0.000000 0.576923 0.576923
v 6.153846 0.576923 0.576922
v 0.000000 -0.576923 0.576923
v 6.153846 -0.576923 0.576922
v 6.153846 0.576923 -0.576924
v -0.000000 0.576923 -0.576923
v 6.153846 -0.576923 -0.576924
v -0.000000 -0.576923 -0.576923
v 6.153846 0.576923 -0.576924
v 6.153846 0.576923 0.576922
v -0.000000 0.576923 -0.576923
v 0.000000 0.576923 0.576923
v -0.000000 -0.576923 -0.576923
v 0.000000 -0.576923 0.576923
v 6.153846 -0.576923 -0.576924
v 6.153846 -0.576923 0.576922
v -0.000000 0.576923 -0.576923
v 0.000000 0.576923 0.576923
v -0.000000 -0.576923 -0.576923
v 0.000000 -0.576923 0.576923
v 6.153846 0.576923 0.576922
v 6.153846 0.576923 -0.576924
v 6.153846 -0.576923 0.576922
v 6.153846 -0.576923 -0.576924
v 5.961538 0.543928 -0.000001
v 6.346153 0.543928 -0.000001
v 5.961538 0.000000 0.543927
v 6.346153 0.000000 0.543927
v 6.346153 -0.000000 -0.543930
v 5.961538 -0.000000 -0.543930
v 6.346153 -0.543928 -0.000001
v 5.961538 -0.543928 -0.000001
v 6.346153 -0.000000 -0.543930
v 6.346153 0.543928 -0.000001
v 5.961538 -0.000000 -0.543930
v 5.961538 0.543928 -0.000001
v 5.961538 -0.543928 -0.000001
v 5.961538 0.000000 0.543927
v 6.346153 -0.543928 -0.000001
v 6.346153 0.000000 0.543927
v 5.961538 -0.000000 -0.543930
v 5.961538 0.543928 -0.000001
v 5.961538 -0.543928 -0.000001
v 5.961538 0.000000 0.543927
v 6.346153 0.543928 -0.000001
v 6.346153 -0.000000 -0.543930
v 6.346153 0.000000 0.543927
v 6.346153 -0.543928 -0.000001
vn -0.0000 -0.0000 1.0000
vn -0.0000 -0.0000 -1.0000
vn -0.0000 1.0000 -0.0000
vn -0.0000 -1.0000 -0.0000
vn -1.0000 -0.0000 -0.0000
vn 1.0000 -0.0000 -0.0000
vn -0.0000 0.7071 0.7071
vn -0.0000 -0.7071 -0.7071
vn -0.0000 0.7071 -0.7071
vn -0.0000 -0.7071 0.7071
vt 0.500000 0.875000
vt 0.500000 0.781250
vt 0.000000 0.875000
vt 0.000000 0.781250
vt 0.093750 0.250000
vt 0.093750 0.750000
vt 0.000000 0.250000
vt 0.000000 0.750000
vt 0.218750 0.750000
vt 0.218750 0.250000
vt 0.125000 0.750000
vt 0.125000 0.250000
vt 0.250000 0.625000
vt 0.250000 0.531250
vt 0.343750 0.625000
vt 0.343750 0.531250
vt 0.250000 0.750000
vt 0.250000 0.656250
vt 0.343750 0.750000
vt 0.343750 0.656250
vt 0.375000 0.625000
vt 0.375000 0.562500
vt 0.406250 0.625000
vt 0.406250 0.562500
vt 0.437500 0.750000
vt 0.437500 0.687500
vt 0.468750 0.750000
vt 0.468750 0.687500
vt 0.500000 0.656250
vt 0.500000 0.687500
vt 0.437500 0.656250
vt 0.437500 0.562500
vt 0.437500 0.531250
vt 0.375000 0.531250
vt 0.375000 0.687500
vt 0.437500 0.625000
vt 0.375000 0.750000
s 0
usemtl Material_0.002
f 1/1/1 3/2/1 2/3/1
f 3/2/1 4/4/1 2/3/1
f 5/3/2 7/4/2 6/1/2
f 7/4/2 8/2/2 6/1/2
f 9/5/3 11/6/3 10/7/3
f 11/6/3 12/8/3 10/7/3
f 13/9/4 15/10/4 14/11/4
f 15/10/4 16/12/4 14/11/4
f 17/13/5 19/14/5 18/15/5
f 19/14/5 20/16/5 18/15/5
f 21/17/6 23/18/6 22/19/6
f 23/18/6 24/20/6 22/19/6
f 25/21/7 27/22/7 26/23/7
f 27/22/7 28/24/7 26/23/7
f 29/25/8 31/26/8 30/27/8
f 31/26/8 32/28/8 30/27/8
f 33/29/9 35/30/9 34/31/9
f 35/30/9 36/26/9 34/31/9
f 37/32/10 39/33/10 38/22/10
f 39/33/10 40/34/10 38/22/10
f 41/35/5 43/21/5 42/26/5
f 43/21/5 44/36/5 42/26/5
f 45/37/6 47/35/6 46/25/6
f 47/35/6 48/26/6 46/25/6
