# Blender 4.3.2
# www.blender.org
mtllib lev.4x34.mtl
o attachmentModel
v -0.769231 1.153846 0.384616
v 0.769231 1.153846 0.384615
v -0.769231 0.000000 0.384616
v 0.769231 0.000000 0.384615
v 0.769231 1.153846 -0.384616
v -0.769231 1.153846 -0.384615
v 0.769231 0.000000 -0.384616
v -0.769231 0.000000 -0.384615
v 0.769231 1.153846 -0.384616
v 0.769231 1.153846 0.384615
v -0.769231 1.153846 -0.384615
v -0.769231 1.153846 0.384616
v -0.769231 0.000000 -0.384615
v -0.769231 0.000000 0.384616
v 0.769231 0.000000 -0.384616
v 0.769231 0.000000 0.384615
v -0.769231 1.153846 -0.384615
v -0.769231 1.153846 0.384616
v -0.769231 0.000000 -0.384615
v -0.769231 0.000000 0.384616
v 0.769231 1.153846 0.384615
v 0.769231 1.153846 -0.384616
v 0.769231 0.000000 0.384615
v 0.769231 0.000000 -0.384616
v -1.538461 1.269231 0.543929
v 3.461538 1.269231 0.543928
v -1.538461 0.725302 0.000000
v 3.461538 0.725302 -0.000001
v 3.461538 1.813159 -0.000000
v -1.538461 1.813159 0.000001
v 3.461538 1.269231 -0.543929
v -1.538462 1.269231 -0.543928
v 3.461538 1.813159 -0.000000
v 3.461538 1.269231 0.543928
v -1.538461 1.813159 0.000001
v -1.538461 1.269231 0.543929
v -1.538462 1.269231 -0.543928
v -1.538461 0.725302 0.000000
v 3.461538 1.269231 -0.543929
v 3.461538 0.725302 -0.000001
v -1.538461 1.813159 0.000001
v -1.538461 1.269231 0.543929
v -1.538462 1.269231 -0.543928
v -1.538461 0.725302 0.000000
v 3.461538 1.269231 0.543928
v 3.461538 1.813159 -0.000000
v 3.461538 0.725302 -0.000001
v 3.461538 1.269231 -0.543929
v 0.769231 2.038462 0.384615
v 1.538462 2.038462 0.384615
v 0.769231 1.269231 0.384615
v 1.538462 1.269231 0.384615
v 1.538461 2.038462 -0.384616
v 0.769231 2.038462 -0.384616
v 1.538461 1.269231 -0.384616
v 0.769231 1.269231 -0.384616
v 1.538461 2.038462 -0.384616
v 1.538462 2.038462 0.384615
v 0.769231 2.038462 -0.384616
v 0.769231 2.038462 0.384615
v 0.769231 1.269231 -0.384616
v 0.769231 1.269231 0.384615
v 1.538461 1.269231 -0.384616
v 1.538462 1.269231 0.384615
v 0.769231 2.038462 -0.384616
v 0.769231 2.038462 0.384615
v 0.769231 1.269231 -0.384616
v 0.769231 1.269231 0.384615
v 1.538462 2.038462 0.384615
v 1.538461 2.038462 -0.384616
v 1.538462 1.269231 0.384615
v 1.538461 1.269231 -0.384616
v 0.769231 1.653846 -0.000000
v 1.538461 1.653846 -0.000000
v 0.769231 0.884615 -0.000000
v 1.538461 0.884615 -0.000000
v 1.538461 1.653846 -0.769231
v 0.769231 1.653846 -0.769231
v 1.538461 0.884615 -0.769231
v 0.769231 0.884615 -0.769231
v 1.538461 1.653846 -0.769231
v 1.538461 1.653846 -0.000000
v 0.769231 1.653846 -0.769231
v 0.769231 1.653846 -0.000000
v 0.769231 0.884615 -0.769231
v 0.769231 0.884615 -0.000000
v 1.538461 0.884615 -0.769231
v 1.538461 0.884615 -0.000000
v 0.769231 1.653846 -0.769231
v 0.769231 1.653846 -0.000000
v 0.769231 0.884615 -0.769231
v 0.769231 0.884615 -0.000000
v 1.538461 1.653846 -0.000000
v 1.538461 1.653846 -0.769231
v 1.538461 0.884615 -0.000000
v 1.538461 0.884615 -0.769231
v -3.461538 1.846154 0.577693
v -1.538461 1.846154 0.577693
v -3.461538 0.692308 0.577693
v -1.538461 0.692308 0.577693
v -1.538461 1.846154 0.576923
v -3.461538 1.846154 0.576924
v -1.538461 0.692308 0.576923
v -3.461538 0.692308 0.576924
v -1.538461 1.846154 0.576923
v -1.538461 1.846154 0.577693
v -3.461538 1.846154 0.576924
v -3.461538 1.846154 0.577693
v -3.461538 0.692308 0.576924
v -3.461538 0.692308 0.577693
v -1.538461 0.692308 0.576923
v -1.538461 0.692308 0.577693
v -3.461538 1.846154 0.576924
v -3.461538 1.846154 0.577693
v -3.461538 0.692308 0.576924
v -3.461538 0.692308 0.577693
v -1.538461 1.846154 0.577693
v -1.538461 1.846154 0.576923
v -1.538461 0.692308 0.577693
v -1.538461 0.692308 0.576923
v 3.461538 1.846154 0.576922
v 5.000000 1.846154 0.576922
v 3.461538 0.692308 0.576922
v 5.000000 0.692308 0.576922
v 5.000000 1.846154 -0.576924
v 3.461538 1.846154 -0.576924
v 5.000000 0.692308 -0.576924
v 3.461538 0.692308 -0.576924
v 5.000000 1.846154 -0.576924
v 5.000000 1.846154 0.576922
v 3.461538 1.846154 -0.576924
v 3.461538 1.846154 0.576922
v 3.461538 0.692308 -0.576924
v 3.461538 0.692308 0.576922
v 5.000000 0.692308 -0.576924
v 5.000000 0.692308 0.576922
v 3.461538 1.846154 -0.576924
v 3.461538 1.846154 0.576922
v 3.461538 0.692308 -0.576924
v 3.461538 0.692308 0.576922
v 5.000000 1.846154 0.576922
v 5.000000 1.846154 -0.576924
v 5.000000 0.692308 0.576922
v 5.000000 0.692308 -0.576924
v -3.461538 1.846923 0.576924
v -1.538461 1.846923 0.576923
v -3.461538 1.846154 0.576924
v -1.538461 1.846154 0.576923
v -1.538462 1.846923 -0.576923
v -3.461538 1.846923 -0.576922
v -1.538462 1.846154 -0.576923
v -3.461538 1.846154 -0.576922
v -1.538462 1.846923 -0.576923
v -1.538461 1.846923 0.576923
v -3.461538 1.846923 -0.576922
v -3.461538 1.846923 0.576924
v -3.461538 1.846154 -0.576922
v -3.461538 1.846154 0.576924
v -1.538462 1.846154 -0.576923
v -1.538461 1.846154 0.576923
v -3.461538 1.846923 -0.576922
v -3.461538 1.846923 0.576924
v -3.461538 1.846154 -0.576922
v -3.461538 1.846154 0.576924
v -1.538461 1.846923 0.576923
v -1.538462 1.846923 -0.576923
v -1.538461 1.846154 0.576923
v -1.538462 1.846154 -0.576923
v -1.539230 1.846154 0.576923
v -1.538461 1.846154 0.576923
v -1.539230 0.692308 0.576923
v -1.538461 0.692308 0.576923
v -1.538462 1.846154 -0.576923
v -1.539231 1.846154 -0.576923
v -1.538462 0.692308 -0.576923
v -1.539231 0.692308 -0.576923
v -1.538462 1.846154 -0.576923
v -1.538461 1.846154 0.576923
v -1.539231 1.846154 -0.576923
v -1.539230 1.846154 0.576923
v -1.539231 0.692308 -0.576923
v -1.539230 0.692308 0.576923
v -1.538462 0.692308 -0.576923
v -1.538461 0.692308 0.576923
v -1.539231 1.846154 -0.576923
v -1.539230 1.846154 0.576923
v -1.539231 0.692308 -0.576923
v -1.539230 0.692308 0.576923
v -1.538461 1.846154 0.576923
v -1.538462 1.846154 -0.576923
v -1.538461 0.692308 0.576923
v -1.538462 0.692308 -0.576923
v -3.461538 0.693077 0.576924
v -1.538461 0.693077 0.576923
v -3.461538 0.692308 0.576924
v -1.538461 0.692308 0.576923
v -1.538462 0.693077 -0.576923
v -3.461538 0.693077 -0.576922
v -1.538462 0.692308 -0.576923
v -3.461538 0.692308 -0.576922
v -1.538462 0.693077 -0.576923
v -1.538461 0.693077 0.576923
v -3.461538 0.693077 -0.576922
v -3.461538 0.693077 0.576924
v -3.461538 0.692308 -0.576922
v -3.461538 0.692308 0.576924
v -1.538462 0.692308 -0.576923
v -1.538461 0.692308 0.576923
v -3.461538 0.693077 -0.576922
v -3.461538 0.693077 0.576924
v -3.461538 0.692308 -0.576922
v -3.461538 0.692308 0.576924
v -1.538461 0.693077 0.576923
v -1.538462 0.693077 -0.576923
v -1.538461 0.692308 0.576923
v -1.538462 0.692308 -0.576923
v -3.461538 1.846154 -0.576153
v -1.538462 1.846154 -0.576154
v -3.461538 0.692308 -0.576153
v -1.538462 0.692308 -0.576154
v -1.538462 1.846154 -0.576923
v -3.461538 1.846154 -0.576922
v -1.538462 0.692308 -0.576923
v -3.461538 0.692308 -0.576922
v -1.538462 1.846154 -0.576923
v -1.538462 1.846154 -0.576154
v -3.461538 1.846154 -0.576922
v -3.461538 1.846154 -0.576153
v -3.461538 0.692308 -0.576922
v -3.461538 0.692308 -0.576153
v -1.538462 0.692308 -0.576923
v -1.538462 0.692308 -0.576154
v -3.461538 1.846154 -0.576922
v -3.461538 1.846154 -0.576153
v -3.461538 0.692308 -0.576922
v -3.461538 0.692308 -0.576153
v -1.538462 1.846154 -0.576154
v -1.538462 1.846154 -0.576923
v -1.538462 0.692308 -0.576154
v -1.538462 0.692308 -0.576923
v -3.462307 0.846154 0.576924
v -3.461538 0.846154 0.576924
v -3.462307 0.692308 0.576924
v -3.461538 0.692308 0.576924
v -3.461538 0.846154 -0.576922
v -3.462307 0.846154 -0.576922
v -3.461538 0.692308 -0.576922
v -3.462307 0.692308 -0.576922
v -3.461538 0.846154 -0.576922
v -3.461538 0.846154 0.576924
v -3.462307 0.846154 -0.576922
v -3.462307 0.846154 0.576924
v -3.462307 0.692308 -0.576922
v -3.462307 0.692308 0.576924
v -3.461538 0.692308 -0.576922
v -3.461538 0.692308 0.576924
v -3.462307 0.846154 -0.576922
v -3.462307 0.846154 0.576924
v -3.462307 0.692308 -0.576922
v -3.462307 0.692308 0.576924
v -3.461538 0.846154 0.576924
v -3.461538 0.846154 -0.576922
v -3.461538 0.692308 0.576924
v -3.461538 0.692308 -0.576922
v -3.462307 1.846154 0.576924
v -3.461538 1.846154 0.576924
v -3.462307 1.692308 0.576924
v -3.461538 1.692308 0.576924
v -3.461538 1.846154 -0.576922
v -3.462307 1.846154 -0.576922
v -3.461538 1.692308 -0.576922
v -3.462307 1.692308 -0.576922
v -3.461538 1.846154 -0.576922
v -3.461538 1.846154 0.576924
v -3.462307 1.846154 -0.576922
v -3.462307 1.846154 0.576924
v -3.462307 1.692308 -0.576922
v -3.462307 1.692308 0.576924
v -3.461538 1.692308 -0.576922
v -3.461538 1.692308 0.576924
v -3.462307 1.846154 -0.576922
v -3.462307 1.846154 0.576924
v -3.462307 1.692308 -0.576922
v -3.462307 1.692308 0.576924
v -3.461538 1.846154 0.576924
v -3.461538 1.846154 -0.576922
v -3.461538 1.692308 0.576924
v -3.461538 1.692308 -0.576922
v -3.462307 1.692308 -0.423076
v -3.461538 1.692308 -0.423076
v -3.462307 0.846154 -0.423076
v -3.461538 0.846154 -0.423076
v -3.461538 1.692308 -0.576922
v -3.462307 1.692308 -0.576922
v -3.461538 0.846154 -0.576922
v -3.462307 0.846154 -0.576922
v -3.461538 1.692308 -0.576922
v -3.461538 1.692308 -0.423076
v -3.462307 1.692308 -0.576922
v -3.462307 1.692308 -0.423076
v -3.462307 0.846154 -0.576922
v -3.462307 0.846154 -0.423076
v -3.461538 0.846154 -0.576922
v -3.461538 0.846154 -0.423076
v -3.462307 1.692308 -0.576922
v -3.462307 1.692308 -0.423076
v -3.462307 0.846154 -0.576922
v -3.462307 0.846154 -0.423076
v -3.461538 1.692308 -0.423076
v -3.461538 1.692308 -0.576922
v -3.461538 0.846154 -0.423076
v -3.461538 0.846154 -0.576922
v -3.462307 1.692308 0.576924
v -3.461538 1.692308 0.576924
v -3.462307 0.846154 0.576924
v -3.461538 0.846154 0.576924
v -3.461538 1.692308 0.423078
v -3.462307 1.692308 0.423078
v -3.461538 0.846154 0.423078
v -3.462307 0.846154 0.423078
v -3.461538 1.692308 0.423078
v -3.461538 1.692308 0.576924
v -3.462307 1.692308 0.423078
v -3.462307 1.692308 0.576924
v -3.462307 0.846154 0.423078
v -3.462307 0.846154 0.576924
v -3.461538 0.846154 0.423078
v -3.461538 0.846154 0.576924
v -3.462307 1.692308 0.423078
v -3.462307 1.692308 0.576924
v -3.462307 0.846154 0.423078
v -3.462307 0.846154 0.576924
v -3.461538 1.692308 0.576924
v -3.461538 1.692308 0.423078
v -3.461538 0.846154 0.576924
v -3.461538 0.846154 0.423078
v -3.443077 1.846154 0.576924
v -3.442307 1.846154 0.576924
v -3.443077 0.692308 0.576924
v -3.442307 0.692308 0.576924
v -3.442307 1.846154 -0.576922
v -3.443077 1.846154 -0.576922
v -3.442307 0.692308 -0.576922
v -3.443077 0.692308 -0.576922
v -3.442307 1.846154 -0.576922
v -3.442307 1.846154 0.576924
v -3.443077 1.846154 -0.576922
v -3.443077 1.846154 0.576924
v -3.443077 0.692308 -0.576922
v -3.443077 0.692308 0.576924
v -3.442307 0.692308 -0.576922
v -3.442307 0.692308 0.576924
v -3.443077 1.846154 -0.576922
v -3.443077 1.846154 0.576924
v -3.443077 0.692308 -0.576922
v -3.443077 0.692308 0.576924
v -3.442307 1.846154 0.576924
v -3.442307 1.846154 -0.576922
v -3.442307 0.692308 0.576924
v -3.442307 0.692308 -0.576922
v -0.576923 0.193077 0.769231
v 0.576923 0.193077 0.769231
v -0.576923 0.192308 0.769231
v 0.576923 0.192308 0.769231
v 0.576923 0.193077 0.384615
v -0.576923 0.193077 0.384615
v 0.576923 0.192308 0.384615
v -0.576923 0.192308 0.384615
v 0.576923 0.193077 0.384615
v 0.576923 0.193077 0.769231
v -0.576923 0.193077 0.384615
v -0.576923 0.193077 0.769231
v -0.576923 0.192308 0.384615
v -0.576923 0.192308 0.769231
v 0.576923 0.192308 0.384615
v 0.576923 0.192308 0.769231
v -0.576923 0.193077 0.384615
v -0.576923 0.193077 0.769231
v -0.576923 0.192308 0.384615
v -0.576923 0.192308 0.769231
v 0.576923 0.193077 0.769231
v 0.576923 0.193077 0.384615
v 0.576923 0.192308 0.769231
v 0.576923 0.192308 0.384615
vn -0.0000 -0.0000 1.0000
vn -0.0000 -0.0000 -1.0000
vn -0.0000 1.0000 -0.0000
vn -0.0000 -1.0000 -0.0000
vn -1.0000 -0.0000 -0.0000
vn 1.0000 -0.0000 -0.0000
vn -0.0000 -0.7071 0.7071
vn -0.0000 0.7071 -0.7071
vn -0.0000 0.7071 0.7071
vn -0.0000 -0.7071 -0.7071
vt 0.437500 0.562500
vt 0.437500 0.468750
vt 0.562500 0.562500
vt 0.562500 0.468750
vt 0.250000 0.500000
vt 0.250000 0.406250
vt 0.375000 0.500000
vt 0.375000 0.406250
vt 0.312500 0.500000
vt 0.312500 0.625000
vt 0.250000 0.625000
vt 0.750000 0.625000
vt 0.750000 0.500000
vt 0.687500 0.625000
vt 0.687500 0.500000
vt 0.562500 0.312500
vt 0.562500 0.218750
vt 0.625000 0.312500
vt 0.625000 0.218750
vt 0.500000 0.312500
vt 0.500000 0.218750
vt 0.000000 1.000000
vt 0.000000 0.937500
vt 0.406250 1.000000
vt 0.406250 0.937500
vt 0.000000 0.875000
vt 0.406250 0.875000
vt 0.062500 0.468750
vt 0.062500 0.875000
vt 0.000000 0.468750
vt 0.125000 0.875000
vt 0.125000 0.468750
vt 0.750000 0.812500
vt 0.750000 0.750000
vt 0.812500 0.812500
vt 0.812500 0.750000
vt 0.750000 0.875000
vt 0.812500 0.875000
vt 0.562500 0.875000
vt 0.562500 0.812500
vt 0.625000 0.875000
vt 0.625000 0.812500
vt 0.687500 0.437500
vt 0.750000 0.437500
vt 0.687500 0.250000
vt 0.687500 0.312500
vt 0.625000 0.250000
vt 0.750000 0.312500
vt 0.750000 0.250000
vt 0.625000 0.625000
vt 0.625000 0.562500
vt 0.687500 0.562500
vt 0.375000 0.437500
vt 0.437500 0.500000
vt 0.437500 0.437500
vt 0.750000 0.687500
vt 0.812500 0.687500
vt 0.812500 0.625000
vt 0.812500 0.562500
vt 0.750000 0.562500
vt 0.812500 0.500000
vt 0.312500 0.250000
vt 0.312500 0.187500
vt 0.375000 0.250000
vt 0.375000 0.187500
vt 0.250000 0.250000
vt 0.250000 0.187500
vt 0.125000 0.781250
vt 0.281250 0.875000
vt 0.281250 0.781250
vt 0.125000 0.750000
vt 0.125000 0.656250
vt 0.281250 0.750000
vt 0.281250 0.656250
vt 0.000000 0.843750
vt 0.000000 0.906250
vt 0.000000 0.437500
vt 0.000000 0.343750
vt 0.125000 0.437500
vt 0.125000 0.343750
vt 0.562500 1.000000
vt 0.562500 0.906250
vt 0.687500 1.000000
vt 0.687500 0.906250
vt 0.218750 0.312500
vt 0.218750 0.437500
vt 0.125000 0.312500
vt 0.468750 0.437500
vt 0.468750 0.312500
vt 0.375000 0.312500
vt 0.500000 0.437500
vt 0.500000 0.343750
vt 0.593750 0.437500
vt 0.593750 0.343750
vt 0.656250 0.562500
vt 0.656250 0.468750
vt 0.156250 1.000000
vt 0.406250 0.718750
vt 0.312500 0.718750
vt 0.312500 0.875000
vt 0.406250 0.687500
vt 0.406250 0.531250
vt 0.312500 0.687500
vt 0.312500 0.531250
vt 0.093750 1.000000
vt 0.250000 0.375000
vt 0.250000 0.281250
vt 0.343750 0.375000
vt 0.343750 0.281250
vt 0.625000 0.781250
vt 0.718750 0.875000
vt 0.718750 0.781250
vt 0.218750 0.468750
vt 0.218750 0.625000
vt 0.125000 0.625000
vt 0.531250 1.000000
vt 0.531250 0.843750
vt 0.437500 1.000000
vt 0.437500 0.843750
vt 0.437500 0.812500
vt 0.437500 0.718750
vt 0.593750 0.812500
vt 0.593750 0.718750
vt 0.437500 0.687500
vt 0.437500 0.593750
vt 0.593750 0.687500
vt 0.593750 0.593750
vt 0.000000 0.968750
vt 0.750000 0.406250
vt 0.843750 0.437500
vt 0.843750 0.406250
vt 0.750000 0.468750
vt 0.843750 0.500000
vt 0.843750 0.468750
vt 0.750000 0.375000
vt 0.750000 0.343750
vt 0.843750 0.375000
vt 0.843750 0.343750
vt 0.718750 0.250000
vt 0.718750 0.218750
vt 0.031250 1.000000
vt 0.062500 0.187500
vt 0.062500 0.125000
vt 0.093750 0.187500
vt 0.093750 0.125000
vt 0.812500 1.000000
vt 0.812500 0.937500
vt 0.843750 1.000000
vt 0.843750 0.937500
vt 0.125000 0.187500
vt 0.125000 0.125000
vt 0.156250 0.187500
vt 0.156250 0.125000
vt 0.843750 0.875000
vt 0.625000 0.437500
vt 0.625000 0.343750
vt 0.718750 0.437500
vt 0.718750 0.343750
vt 0.625000 0.750000
vt 0.625000 0.656250
vt 0.718750 0.750000
vt 0.718750 0.656250
vt 0.781250 0.218750
vt 0.781250 0.312500
vt 0.750000 0.218750
vt 0.031250 0.187500
vt 0.031250 0.093750
vt 0.000000 0.187500
vt 0.000000 0.093750
s 0
usemtl Material_0.002
f 1/1/1 3/2/1 2/3/1
f 3/2/1 4/4/1 2/3/1
f 5/5/2 7/6/2 6/7/2
f 7/6/2 8/8/2 6/7/2
f 9/9/3 11/10/3 10/5/3
f 11/10/3 12/11/3 10/5/3
f 13/12/4 15/13/4 14/14/4
f 15/13/4 16/15/4 14/14/4
f 17/16/5 19/17/5 18/18/5
f 19/17/5 20/19/5 18/18/5
f 21/20/6 23/21/6 22/16/6
f 23/21/6 24/17/6 22/16/6
f 25/22/7 27/23/7 26/24/7
f 27/23/7 28/25/7 26/24/7
f 29/23/8 31/26/8 30/25/8
f 31/26/8 32/27/8 30/25/8
f 33/28/9 35/29/9 34/30/9
f 35/29/9 36/26/9 34/30/9
f 37/31/10 39/32/10 38/29/10
f 39/32/10 40/28/10 38/29/10
f 41/33/5 43/34/5 42/35/5
f 43/34/5 44/36/5 42/35/5
f 45/37/6 47/33/6 46/38/6
f 47/33/6 48/35/6 46/38/6
f 49/39/1 51/40/1 50/41/1
f 51/40/1 52/42/1 50/41/1
f 53/15/2 55/43/2 54/13/2
f 55/43/2 56/44/2 54/13/2
f 57/45/3 59/46/3 58/47/3
f 59/46/3 60/18/3 58/47/3
f 61/48/4 63/49/4 62/46/4
f 63/49/4 64/45/4 62/46/4
f 65/50/5 67/51/5 66/14/5
f 67/51/5 68/52/5 66/14/5
f 69/7/6 71/53/6 70/54/6
f 71/53/6 72/55/6 70/54/6
f 73/34/1 75/56/1 74/36/1
f 75/56/1 76/57/1 74/36/1
f 77/56/2 79/12/2 78/57/2
f 79/12/2 80/58/2 78/57/2
f 81/59/3 83/58/3 82/60/3
f 83/58/3 84/12/3 82/60/3
f 85/59/4 87/61/4 86/60/4
f 87/61/4 88/13/4 86/60/4
f 89/62/5 91/63/5 90/64/5
f 91/63/5 92/65/5 90/64/5
f 93/66/6 95/67/6 94/62/6
f 95/67/6 96/63/6 94/62/6
f 97/31/1 99/68/1 98/69/1
f 99/68/1 100/70/1 98/69/1
f 101/71/2 103/72/2 102/73/2
f 103/72/2 104/74/2 102/73/2
f 105/75/3 107/22/3 106/75/3
f 107/22/3 108/22/3 106/75/3
f 109/22/4 111/75/4 110/22/4
f 111/75/4 112/75/4 110/22/4
f 113/22/5 115/76/5 114/22/5
f 115/76/5 116/76/5 114/22/5
f 117/22/6 119/76/6 118/22/6
f 119/76/6 120/76/6 118/22/6
f 121/77/1 123/78/1 122/79/1
f 123/78/1 124/80/1 122/79/1
f 125/81/2 127/82/2 126/83/2
f 127/82/2 128/84/2 126/83/2
f 129/85/3 131/86/3 130/87/3
f 131/86/3 132/79/3 130/87/3
f 133/88/4 135/89/4 134/53/4
f 135/89/4 136/90/4 134/53/4
f 137/91/5 139/92/5 138/93/5
f 139/92/5 140/94/5 138/93/5
f 141/3/6 143/4/6 142/95/6
f 143/4/6 144/96/6 142/95/6
f 145/22/1 147/22/1 146/97/1
f 147/22/1 148/97/1 146/97/1
f 149/22/2 151/22/2 150/97/2
f 151/22/2 152/97/2 150/97/2
f 153/98/3 155/27/3 154/99/3
f 155/27/3 156/100/3 154/99/3
f 157/101/4 159/102/4 158/103/4
f 159/102/4 160/104/4 158/103/4
f 161/22/5 163/22/5 162/105/5
f 163/22/5 164/105/5 162/105/5
f 165/22/6 167/22/6 166/105/6
f 167/22/6 168/105/6 166/105/6
f 169/22/1 171/76/1 170/22/1
f 171/76/1 172/76/1 170/22/1
f 173/22/2 175/76/2 174/22/2
f 175/76/2 176/76/2 174/22/2
f 177/105/3 179/105/3 178/22/3
f 179/105/3 180/22/3 178/22/3
f 181/105/4 183/105/4 182/22/4
f 183/105/4 184/22/4 182/22/4
f 185/106/5 187/107/5 186/108/5
f 187/107/5 188/109/5 186/108/5
f 189/41/6 191/110/6 190/111/6
f 191/110/6 192/112/6 190/111/6
f 193/22/1 195/22/1 194/97/1
f 195/22/1 196/97/1 194/97/1
f 197/22/2 199/22/2 198/97/2
f 199/22/2 200/97/2 198/97/2
f 201/113/3 203/114/3 202/32/3
f 203/114/3 204/115/3 202/32/3
f 205/116/4 207/117/4 206/118/4
f 207/117/4 208/119/4 206/118/4
f 209/22/5 211/22/5 210/105/5
f 211/22/5 212/105/5 210/105/5
f 213/22/6 215/22/6 214/105/6
f 215/22/6 216/105/6 214/105/6
f 217/120/1 219/121/1 218/122/1
f 219/121/1 220/123/1 218/122/1
f 221/124/2 223/125/2 222/126/2
f 223/125/2 224/127/2 222/126/2
f 225/75/3 227/22/3 226/75/3
f 227/22/3 228/22/3 226/75/3
f 229/22/4 231/75/4 230/22/4
f 231/75/4 232/75/4 230/22/4
f 233/22/5 235/76/5 234/22/5
f 235/76/5 236/76/5 234/22/5
f 237/22/6 239/76/6 238/22/6
f 239/76/6 240/76/6 238/22/6
f 241/22/1 243/128/1 242/22/1
f 243/128/1 244/128/1 242/22/1
f 245/22/2 247/128/2 246/22/2
f 247/128/2 248/128/2 246/22/2
f 249/105/3 251/105/3 250/22/3
f 251/105/3 252/22/3 250/22/3
f 253/105/4 255/105/4 254/22/4
f 255/105/4 256/22/4 254/22/4
f 257/44/5 259/129/5 258/130/5
f 259/129/5 260/131/5 258/130/5
f 261/13/6 263/132/6 262/133/6
f 263/132/6 264/134/6 262/133/6
f 265/22/1 267/128/1 266/22/1
f 267/128/1 268/128/1 266/22/1
f 269/22/2 271/128/2 270/22/2
f 271/128/2 272/128/2 270/22/2
f 273/105/3 275/105/3 274/22/3
f 275/105/3 276/22/3 274/22/3
f 277/105/4 279/105/4 278/22/4
f 279/105/4 280/22/4 278/22/4
f 281/135/5 283/136/5 282/137/5
f 283/136/5 284/138/5 282/137/5
f 285/47/6 287/19/6 286/139/6
f 287/19/6 288/140/6 286/139/6
f 289/22/1 291/23/1 290/22/1
f 291/23/1 292/23/1 290/22/1
f 293/22/2 295/23/2 294/22/2
f 295/23/2 296/23/2 294/22/2
f 297/141/3 299/141/3 298/22/3
f 299/141/3 300/22/3 298/22/3
f 301/141/4 303/141/4 302/22/4
f 303/141/4 304/22/4 302/22/4
f 305/142/5 307/143/5 306/144/5
f 307/143/5 308/145/5 306/144/5
f 309/146/6 311/147/6 310/148/6
f 311/147/6 312/149/6 310/148/6
f 313/22/1 315/23/1 314/22/1
f 315/23/1 316/23/1 314/22/1
f 317/22/2 319/23/2 318/22/2
f 319/23/2 320/23/2 318/22/2
f 321/141/3 323/141/3 322/22/3
f 323/141/3 324/22/3 322/22/3
f 325/141/4 327/141/4 326/22/4
f 327/141/4 328/22/4 326/22/4
f 329/150/5 331/151/5 330/152/5
f 331/151/5 332/153/5 330/152/5
f 333/147/6 335/38/6 334/149/6
f 335/38/6 336/154/6 334/149/6
f 337/22/1 339/76/1 338/22/1
f 339/76/1 340/76/1 338/22/1
f 341/22/2 343/76/2 342/22/2
f 343/76/2 344/76/2 342/22/2
f 345/105/3 347/105/3 346/22/3
f 347/105/3 348/22/3 346/22/3
f 349/105/4 351/105/4 350/22/4
f 351/105/4 352/22/4 350/22/4
f 353/155/5 355/156/5 354/157/5
f 355/156/5 356/158/5 354/157/5
f 357/159/6 359/160/6 358/161/6
f 359/160/6 360/162/6 358/161/6
f 361/22/1 363/22/1 362/105/1
f 363/22/1 364/105/1 362/105/1
f 365/22/2 367/22/2 366/105/2
f 367/22/2 368/105/2 366/105/2
f 369/163/3 371/164/3 370/165/3
f 371/164/3 372/48/3 370/165/3
f 373/166/4 375/167/4 374/168/4
f 375/167/4 376/169/4 374/168/4
f 377/22/5 379/22/5 378/141/5
f 379/22/5 380/141/5 378/141/5
f 381/22/6 383/22/6 382/141/6
f 383/22/6 384/141/6 382/141/6
o overlaySolidModel
v -3.454615 1.846154 0.576924
v -3.453846 1.846154 0.576924
v -3.454615 0.692308 0.576924
v -3.453846 0.692308 0.576924
v -3.453846 1.846154 -0.576922
v -3.454615 1.846154 -0.576922
v -3.453846 0.692308 -0.576922
v -3.454615 0.692308 -0.576922
v -3.453846 1.846154 -0.576922
v -3.453846 1.846154 0.576924
v -3.454615 1.846154 -0.576922
v -3.454615 1.846154 0.576924
v -3.454615 0.692308 -0.576922
v -3.454615 0.692308 0.576924
v -3.453846 0.692308 -0.576922
v -3.453846 0.692308 0.576924
v -3.454615 1.846154 -0.576922
v -3.454615 1.846154 0.576924
v -3.454615 0.692308 -0.576922
v -3.454615 0.692308 0.576924
v -3.453846 1.846154 0.576924
v -3.453846 1.846154 -0.576922
v -3.453846 0.692308 0.576924
v -3.453846 0.692308 -0.576922
vn -0.0000 -0.0000 1.0000
vn -0.0000 -0.0000 -1.0000
vn -0.0000 1.0000 -0.0000
vn -0.0000 -1.0000 -0.0000
vn -1.0000 -0.0000 -0.0000
vn 1.0000 -0.0000 -0.0000
vt 0.906250 0.093750
vt 0.906250 0.000000
vt 1.000000 0.093750
vt 1.000000 0.000000
s 0
usemtl Material_0.002
f 385/170/11 387/171/11 386/172/11
f 387/171/11 388/173/11 386/172/11
f 389/170/12 391/171/12 390/172/12
f 391/171/12 392/173/12 390/172/12
f 393/170/13 395/171/13 394/172/13
f 395/171/13 396/173/13 394/172/13
f 397/170/14 399/171/14 398/172/14
f 399/171/14 400/173/14 398/172/14
f 401/170/15 403/171/15 402/172/15
f 403/171/15 404/173/15 402/172/15
f 405/170/16 407/171/16 406/172/16
f 407/171/16 408/173/16 406/172/16
o scopeModel
v -3.446923 1.846154 0.576923
v -3.446154 1.846154 0.576923
v -3.446923 0.692308 0.576923
v -3.446154 0.692308 0.576923
v -3.446154 1.846154 -0.576923
v -3.446923 1.846154 -0.576923
v -3.446154 0.692308 -0.576923
v -3.446923 0.692308 -0.576923
v -3.446154 1.846154 -0.576923
v -3.446154 1.846154 0.576923
v -3.446923 1.846154 -0.576923
v -3.446923 1.846154 0.576923
v -3.446923 0.692308 -0.576923
v -3.446923 0.692308 0.576923
v -3.446154 0.692308 -0.576923
v -3.446154 0.692308 0.576923
v -3.446923 1.846154 -0.576923
v -3.446923 1.846154 0.576923
v -3.446923 0.692308 -0.576923
v -3.446923 0.692308 0.576923
v -3.446154 1.846154 0.576923
v -3.446154 1.846154 -0.576923
v -3.446154 0.692308 0.576923
v -3.446154 0.692308 -0.576923
vn -0.0000 -0.0000 1.0000
vn -0.0000 -0.0000 -1.0000
vn -0.0000 1.0000 -0.0000
vn -0.0000 -1.0000 -0.0000
vn -1.0000 -0.0000 -0.0000
vn 1.0000 -0.0000 -0.0000
vt 0.906250 0.093750
vt 0.906250 0.000000
vt 1.000000 0.093750
vt 1.000000 0.000000
s 0
usemtl Material_0.003
f 409/174/17 411/175/17 410/176/17
f 411/175/17 412/177/17 410/176/17
f 413/174/18 415/175/18 414/176/18
f 415/175/18 416/177/18 414/176/18
f 417/174/19 419/175/19 418/176/19
f 419/175/19 420/177/19 418/176/19
f 421/174/20 423/175/20 422/176/20
f 423/175/20 424/177/20 422/176/20
f 425/174/21 427/175/21 426/176/21
f 427/175/21 428/177/21 426/176/21
f 429/174/22 431/175/22 430/176/22
f 431/175/22 432/177/22 430/176/22
