# Blender 4.2.3 LTS
# www.blender.org
mtllib lev.f2000comp.mtl
o attachmentModel
v 0.000000 0.384615 0.384615
v 2.692307 0.384615 0.384615
v 0.000000 -0.384615 0.384615
v 2.692307 -0.384615 0.384615
v 2.692307 0.384615 -0.384616
v -0.000000 0.384615 -0.384615
v 2.692307 -0.384615 -0.384616
v -0.000000 -0.384615 -0.384615
v 2.692307 0.384615 -0.384616
v 2.692307 0.384615 0.384615
v -0.000000 0.384615 -0.384615
v 0.000000 0.384615 0.384615
v -0.000000 -0.384615 -0.384615
v 0.000000 -0.384615 0.384615
v 2.692307 -0.384615 -0.384616
v 2.692307 -0.384615 0.384615
v -0.000000 0.384615 -0.384615
v 0.000000 0.384615 0.384615
v -0.000000 -0.384615 -0.384615
v 0.000000 -0.384615 0.384615
v 2.692307 0.384615 0.384615
v 2.692307 0.384615 -0.384616
v 2.692307 -0.384615 0.384615
v 2.692307 -0.384615 -0.384616
vn -0.0000 -0.0000 1.0000
vn -0.0000 -0.0000 -1.0000
vn -0.0000 1.0000 -0.0000
vn -0.0000 -1.0000 -0.0000
vn -1.0000 -0.0000 -0.0000
vn 1.0000 -0.0000 -0.0000
vt 0.000000 1.000000
vt 0.000000 0.875000
vt 0.437500 1.000000
vt 0.437500 0.875000
vt 0.000000 0.750000
vt 0.437500 0.750000
vt 0.125000 0.312500
vt 0.125000 0.750000
vt 0.000000 0.312500
vt 0.250000 0.750000
vt 0.250000 0.312500
vt 0.250000 0.625000
vt 0.250000 0.500000
vt 0.375000 0.625000
vt 0.375000 0.500000
vt 0.375000 0.750000
s 0
usemtl Material_0.002
f 1/1/1 3/2/1 2/3/1
f 3/2/1 4/4/1 2/3/1
f 5/2/2 7/5/2 6/4/2
f 7/5/2 8/6/2 6/4/2
f 9/7/3 11/8/3 10/9/3
f 11/8/3 12/5/3 10/9/3
f 13/10/4 15/11/4 14/8/4
f 15/11/4 16/7/4 14/8/4
f 17/12/5 19/13/5 18/14/5
f 19/13/5 20/15/5 18/14/5
f 21/10/6 23/12/6 22/16/6
f 23/12/6 24/14/6 22/16/6
