# Blender 4.2.1 LTS
# www.blender.org
mtllib lev.6p69sup.mtl
o attachmentModel
v 0.000000 0.576923 0.576923
v 0.384615 0.576923 0.576923
v 0.000000 -0.576923 0.576923
v 0.384615 -0.576923 0.576923
v 0.384615 0.576923 -0.576923
v -0.000000 0.576923 -0.576923
v 0.384615 -0.576923 -0.576923
v -0.000000 -0.576923 -0.576923
v 0.384615 0.576923 -0.576923
v 0.384615 0.576923 0.576923
v -0.000000 0.576923 -0.576923
v 0.000000 0.576923 0.576923
v -0.000000 -0.576923 -0.576923
v 0.000000 -0.576923 0.576923
v 0.384615 -0.576923 -0.576923
v 0.384615 -0.576923 0.576923
v -0.000000 0.576923 -0.576923
v 0.000000 0.576923 0.576923
v -0.000000 -0.576923 -0.576923
v 0.000000 -0.576923 0.576923
v 0.384615 0.576923 0.576923
v 0.384615 0.576923 -0.576923
v 0.384615 -0.576923 0.576923
v 0.384615 -0.576923 -0.576923
v 0.384615 0.769231 0.769231
v 4.615384 0.769231 0.769231
v 0.384615 -0.769231 0.769231
v 4.615384 -0.769231 0.769231
v 4.615384 0.769231 -0.769231
v 0.384615 0.769231 -0.769231
v 4.615384 -0.769231 -0.769231
v 0.384615 -0.769231 -0.769231
v 4.615384 0.769231 -0.769231
v 4.615384 0.769231 0.769231
v 0.384615 0.769231 -0.769231
v 0.384615 0.769231 0.769231
v 0.384615 -0.769231 -0.769231
v 0.384615 -0.769231 0.769231
v 4.615384 -0.769231 -0.769231
v 4.615384 -0.769231 0.769231
v 0.384615 0.769231 -0.769231
v 0.384615 0.769231 0.769231
v 0.384615 -0.769231 -0.769231
v 0.384615 -0.769231 0.769231
v 4.615384 0.769231 0.769231
v 4.615384 0.769231 -0.769231
v 4.615384 -0.769231 0.769231
v 4.615384 -0.769231 -0.769231
v 4.615384 -0.000000 0.543928
v 5.769230 -0.000000 0.543928
v 4.615384 -0.543928 -0.000000
v 5.769230 -0.543928 -0.000000
v 5.769230 0.543928 -0.000000
v 4.615384 0.543928 -0.000000
v 5.769230 0.000000 -0.543929
v 4.615384 0.000000 -0.543929
v 5.769230 0.543928 -0.000000
v 5.769230 -0.000000 0.543928
v 4.615384 0.543928 -0.000000
v 4.615384 -0.000000 0.543928
v 4.615384 0.000000 -0.543929
v 4.615384 -0.543928 -0.000000
v 5.769230 0.000000 -0.543929
v 5.769230 -0.543928 -0.000000
v 4.615384 0.543928 -0.000000
v 4.615384 -0.000000 0.543928
v 4.615384 0.000000 -0.543929
v 4.615384 -0.543928 -0.000000
v 5.769230 -0.000000 0.543928
v 5.769230 0.543928 -0.000000
v 5.769230 -0.543928 -0.000000
v 5.769230 0.000000 -0.543929
vn -0.0000 -0.0000 1.0000
vn -0.0000 -0.0000 -1.0000
vn -0.0000 1.0000 -0.0000
vn -0.0000 -1.0000 -0.0000
vn -1.0000 -0.0000 -0.0000
vn 1.0000 -0.0000 -0.0000
vn -0.0000 -0.7071 0.7071
vn -0.0000 0.7071 -0.7071
vn -0.0000 0.7071 0.7071
vn -0.0000 -0.7071 -0.7071
vt 0.500000 0.875000
vt 0.500000 0.781250
vt 0.531250 0.875000
vt 0.531250 0.781250
vt 0.250000 0.500000
vt 0.250000 0.406250
vt 0.281250 0.500000
vt 0.281250 0.406250
vt 0.593750 0.718750
vt 0.593750 0.750000
vt 0.500000 0.718750
vt 0.500000 0.750000
vt 0.406250 0.500000
vt 0.406250 0.468750
vt 0.312500 0.500000
vt 0.312500 0.468750
vt 0.250000 0.625000
vt 0.250000 0.531250
vt 0.343750 0.625000
vt 0.343750 0.531250
vt 0.375000 0.875000
vt 0.375000 0.781250
vt 0.468750 0.875000
vt 0.468750 0.781250
vt 0.000000 1.000000
vt 0.000000 0.875000
vt 0.343750 1.000000
vt 0.343750 0.875000
vt 0.000000 0.750000
vt 0.343750 0.750000
vt 0.125000 0.406250
vt 0.125000 0.750000
vt 0.000000 0.406250
vt 0.250000 0.750000
vt 0.375000 1.000000
vt 0.500000 1.000000
vt 0.375000 0.750000
vt 0.375000 0.625000
vt 0.375000 0.687500
vt 0.468750 0.750000
vt 0.468750 0.687500
vt 0.468750 0.625000
vt 0.437500 0.531250
vt 0.437500 0.625000
vt 0.375000 0.531250
vt 0.500000 0.625000
vt 0.500000 0.531250
vt 0.500000 0.937500
vt 0.562500 0.937500
vt 0.562500 0.875000
vt 0.562500 1.000000
s 0
usemtl Material_0
f 1/1/1 3/2/1 2/3/1
f 3/2/1 4/4/1 2/3/1
f 5/5/2 7/6/2 6/7/2
f 7/6/2 8/8/2 6/7/2
f 9/9/3 11/10/3 10/11/3
f 11/10/3 12/12/3 10/11/3
f 13/13/4 15/14/4 14/15/4
f 15/14/4 16/16/4 14/15/4
f 17/17/5 19/18/5 18/19/5
f 19/18/5 20/20/5 18/19/5
f 21/21/6 23/22/6 22/23/6
f 23/22/6 24/24/6 22/23/6
f 25/25/1 27/26/1 26/27/1
f 27/26/1 28/28/1 26/27/1
f 29/26/2 31/29/2 30/28/2
f 31/29/2 32/30/2 30/28/2
f 33/31/3 35/32/3 34/33/3
f 35/32/3 36/29/3 34/33/3
f 37/34/4 39/6/4 38/32/4
f 39/6/4 40/31/4 38/32/4
f 41/35/5 43/21/5 42/36/5
f 43/21/5 44/1/5 42/36/5
f 45/34/6 47/17/6 46/37/6
f 47/17/6 48/38/6 46/37/6
f 49/37/7 51/39/7 50/40/7
f 51/39/7 52/41/7 50/40/7
f 53/39/8 55/38/8 54/41/8
f 55/38/8 56/42/8 54/41/8
f 57/43/9 59/44/9 58/45/9
f 59/44/9 60/38/9 58/45/9
f 61/46/10 63/47/10 62/44/10
f 63/47/10 64/43/10 62/44/10
f 65/48/5 67/1/5 66/49/5
f 67/1/5 68/50/5 66/49/5
f 69/36/6 71/48/6 70/51/6
f 71/48/6 72/49/6 70/51/6
