# Blender 4.2.3 LTS
# www.blender.org
mtllib lev.dtk1.mtl
o attachmentModel
v 0.000000 0.384615 0.384615
v 0.769231 0.384615 0.384615
v 0.000000 -0.384615 0.384615
v 0.769231 -0.384615 0.384615
v 0.769231 0.384615 -0.384616
v -0.000000 0.384615 -0.384615
v 0.769231 -0.384615 -0.384616
v -0.000000 -0.384615 -0.384615
v 0.769231 0.384615 -0.384616
v 0.769231 0.384615 0.384615
v -0.000000 0.384615 -0.384615
v 0.000000 0.384615 0.384615
v -0.000000 -0.384615 -0.384615
v 0.000000 -0.384615 0.384615
v 0.769231 -0.384615 -0.384616
v 0.769231 -0.384615 0.384615
v -0.000000 0.384615 -0.384615
v 0.000000 0.384615 0.384615
v -0.000000 -0.384615 -0.384615
v 0.000000 -0.384615 0.384615
v 0.769231 0.384615 0.384615
v 0.769231 0.384615 -0.384616
v 0.769231 -0.384615 0.384615
v 0.769231 -0.384615 -0.384616
v 2.306923 0.384615 0.576923
v 2.307692 0.384615 0.576923
v 2.306923 -0.384615 0.576923
v 2.307692 -0.384615 0.576923
v 2.307692 0.384615 -0.576923
v 2.306923 0.384615 -0.576923
v 2.307692 -0.384615 -0.576923
v 2.306923 -0.384615 -0.576923
v 2.307692 0.384615 -0.576923
v 2.307692 0.384615 0.576923
v 2.306923 0.384615 -0.576923
v 2.306923 0.384615 0.576923
v 2.306923 -0.384615 -0.576923
v 2.306923 -0.384615 0.576923
v 2.307692 -0.384615 -0.576923
v 2.307692 -0.384615 0.576923
v 2.306923 0.384615 -0.576923
v 2.306923 0.384615 0.576923
v 2.306923 -0.384615 -0.576923
v 2.306923 -0.384615 0.576923
v 2.307692 0.384615 0.576923
v 2.307692 0.384615 -0.576923
v 2.307692 -0.384615 0.576923
v 2.307692 -0.384615 -0.576923
v 0.769231 -0.383846 0.576923
v 2.692307 -0.383846 0.576922
v 0.769231 -0.384615 0.576923
v 2.692307 -0.384615 0.576922
v 2.692307 -0.383846 -0.576924
v 0.769231 -0.383846 -0.576923
v 2.692307 -0.384615 -0.576924
v 0.769231 -0.384615 -0.576923
v 2.692307 -0.383846 -0.576924
v 2.692307 -0.383846 0.576922
v 0.769231 -0.383846 -0.576923
v 0.769231 -0.383846 0.576923
v 0.769231 -0.384615 -0.576923
v 0.769231 -0.384615 0.576923
v 2.692307 -0.384615 -0.576924
v 2.692307 -0.384615 0.576922
v 0.769231 -0.383846 -0.576923
v 0.769231 -0.383846 0.576923
v 0.769231 -0.384615 -0.576923
v 0.769231 -0.384615 0.576923
v 2.692307 -0.383846 0.576922
v 2.692307 -0.383846 -0.576924
v 2.692307 -0.384615 0.576922
v 2.692307 -0.384615 -0.576924
v 0.769231 0.385385 0.576923
v 2.692307 0.385385 0.576922
v 0.769231 0.384615 0.576923
v 2.692307 0.384615 0.576922
v 2.692307 0.385385 -0.576924
v 0.769231 0.385385 -0.576923
v 2.692307 0.384615 -0.576924
v 0.769231 0.384615 -0.576923
v 2.692307 0.385385 -0.576924
v 2.692307 0.385385 0.576922
v 0.769231 0.385385 -0.576923
v 0.769231 0.385385 0.576923
v 0.769231 0.384615 -0.576923
v 0.769231 0.384615 0.576923
v 2.692307 0.384615 -0.576924
v 2.692307 0.384615 0.576922
v 0.769231 0.385385 -0.576923
v 0.769231 0.385385 0.576923
v 0.769231 0.384615 -0.576923
v 0.769231 0.384615 0.576923
v 2.692307 0.385385 0.576922
v 2.692307 0.385385 -0.576924
v 2.692307 0.384615 0.576922
v 2.692307 0.384615 -0.576924
v 0.769231 0.384615 0.577692
v 2.692307 0.384615 0.577691
v 0.769231 -0.384615 0.577692
v 2.692307 -0.384615 0.577691
v 2.692307 0.384615 0.576922
v 0.769231 0.384615 0.576923
v 2.692307 -0.384615 0.576922
v 0.769231 -0.384615 0.576923
v 2.692307 0.384615 0.576922
v 2.692307 0.384615 0.577691
v 0.769231 0.384615 0.576923
v 0.769231 0.384615 0.577692
v 0.769231 -0.384615 0.576923
v 0.769231 -0.384615 0.577692
v 2.692307 -0.384615 0.576922
v 2.692307 -0.384615 0.577691
v 0.769231 0.384615 0.576923
v 0.769231 0.384615 0.577692
v 0.769231 -0.384615 0.576923
v 0.769231 -0.384615 0.577692
v 2.692307 0.384615 0.577691
v 2.692307 0.384615 0.576922
v 2.692307 -0.384615 0.577691
v 2.692307 -0.384615 0.576922
v 0.769231 0.384615 -0.576154
v 2.692307 0.384615 -0.576155
v 0.769231 -0.384615 -0.576154
v 2.692307 -0.384615 -0.576155
v 2.692307 0.384615 -0.576924
v 0.769231 0.384615 -0.576923
v 2.692307 -0.384615 -0.576924
v 0.769231 -0.384615 -0.576923
v 2.692307 0.384615 -0.576924
v 2.692307 0.384615 -0.576155
v 0.769231 0.384615 -0.576923
v 0.769231 0.384615 -0.576154
v 0.769231 -0.384615 -0.576923
v 0.769231 -0.384615 -0.576154
v 2.692307 -0.384615 -0.576924
v 2.692307 -0.384615 -0.576155
v 0.769231 0.384615 -0.576923
v 0.769231 0.384615 -0.576154
v 0.769231 -0.384615 -0.576923
v 0.769231 -0.384615 -0.576154
v 2.692307 0.384615 -0.576155
v 2.692307 0.384615 -0.576924
v 2.692307 -0.384615 -0.576155
v 2.692307 -0.384615 -0.576924
v 0.768462 0.384615 0.576923
v 0.769231 0.384615 0.576923
v 0.768462 -0.384615 0.576923
v 0.769231 -0.384615 0.576923
v 0.769231 0.384615 -0.576923
v 0.768462 0.384615 -0.576923
v 0.769231 -0.384615 -0.576923
v 0.768462 -0.384615 -0.576923
v 0.769231 0.384615 -0.576923
v 0.769231 0.384615 0.576923
v 0.768462 0.384615 -0.576923
v 0.768462 0.384615 0.576923
v 0.768462 -0.384615 -0.576923
v 0.768462 -0.384615 0.576923
v 0.769231 -0.384615 -0.576923
v 0.769231 -0.384615 0.576923
v 0.768462 0.384615 -0.576923
v 0.768462 0.384615 0.576923
v 0.768462 -0.384615 -0.576923
v 0.768462 -0.384615 0.576923
v 0.769231 0.384615 0.576923
v 0.769231 0.384615 -0.576923
v 0.769231 -0.384615 0.576923
v 0.769231 -0.384615 -0.576923
vn -0.0000 -0.0000 1.0000
vn -0.0000 -0.0000 -1.0000
vn -0.0000 1.0000 -0.0000
vn -0.0000 -1.0000 -0.0000
vn -1.0000 -0.0000 -0.0000
vn 1.0000 -0.0000 -0.0000
vt 0.125000 0.250000
vt 0.125000 0.125000
vt 0.250000 0.250000
vt 0.250000 0.125000
vt 0.375000 0.250000
vt 0.375000 0.125000
vt 0.500000 0.250000
vt 0.500000 0.125000
vt 0.625000 0.125000
vt 0.625000 0.250000
vt 0.875000 0.500000
vt 0.875000 0.375000
vt 0.750000 0.500000
vt 0.750000 0.375000
vt 0.000000 0.250000
vt 0.000000 0.125000
vt 0.000000 1.000000
vt 0.000000 0.875000
vt 0.187500 1.000000
vt 0.500000 0.500000
vt 0.500000 0.375000
vt 0.687500 0.500000
vt 0.687500 0.375000
vt 0.312500 1.000000
vt 0.437500 0.687500
vt 0.437500 1.000000
vt 0.250000 0.687500
vt 0.250000 1.000000
vt 0.187500 0.312500
vt 0.187500 0.625000
vt 0.000000 0.312500
vt 0.000000 0.625000
vt 0.500000 1.000000
vt 0.500000 0.875000
vt 0.812500 1.000000
vt 0.812500 0.875000
vt 0.000000 0.687500
vt 0.812500 0.625000
vt 0.812500 0.500000
vt 0.500000 0.625000
vt 0.687500 0.250000
s 0
usemtl Material_0
f 1/1/1 3/2/1 2/3/1
f 3/2/1 4/4/1 2/3/1
f 5/5/2 7/6/2 6/7/2
f 7/6/2 8/8/2 6/7/2
f 9/9/3 11/10/3 10/8/3
f 11/10/3 12/7/3 10/8/3
f 13/11/4 15/12/4 14/13/4
f 15/12/4 16/14/4 14/13/4
f 17/3/5 19/4/5 18/5/5
f 19/4/5 20/6/5 18/5/5
f 21/15/6 23/16/6 22/1/6
f 23/16/6 24/2/6 22/1/6
f 25/17/1 27/18/1 26/17/1
f 27/18/1 28/18/1 26/17/1
f 29/17/2 31/18/2 30/17/2
f 31/18/2 32/18/2 30/17/2
f 33/19/3 35/19/3 34/17/3
f 35/19/3 36/17/3 34/17/3
f 37/19/4 39/19/4 38/17/4
f 39/19/4 40/17/4 38/17/4
f 41/20/5 43/21/5 42/22/5
f 43/21/5 44/23/5 42/22/5
f 45/20/6 47/21/6 46/22/6
f 47/21/6 48/23/6 46/22/6
f 49/17/1 51/17/1 50/24/1
f 51/17/1 52/24/1 50/24/1
f 53/17/2 55/17/2 54/24/2
f 55/17/2 56/24/2 54/24/2
f 57/25/3 59/26/3 58/27/3
f 59/26/3 60/28/3 58/27/3
f 61/26/4 63/25/4 62/28/4
f 63/25/4 64/27/4 62/28/4
f 65/17/5 67/17/5 66/19/5
f 67/17/5 68/19/5 66/19/5
f 69/17/6 71/17/6 70/19/6
f 71/17/6 72/19/6 70/19/6
f 73/17/1 75/17/1 74/24/1
f 75/17/1 76/24/1 74/24/1
f 77/17/2 79/17/2 78/24/2
f 79/17/2 80/24/2 78/24/2
f 81/29/3 83/30/3 82/31/3
f 83/30/3 84/32/3 82/31/3
f 85/30/4 87/29/4 86/32/4
f 87/29/4 88/31/4 86/32/4
f 89/17/5 91/17/5 90/19/5
f 91/17/5 92/19/5 90/19/5
f 93/17/6 95/17/6 94/19/6
f 95/17/6 96/19/6 94/19/6
f 97/33/1 99/34/1 98/35/1
f 99/34/1 100/36/1 98/35/1
f 101/35/2 103/36/2 102/33/2
f 103/36/2 104/34/2 102/33/2
f 105/37/3 107/17/3 106/37/3
f 107/17/3 108/17/3 106/37/3
f 109/17/4 111/37/4 110/17/4
f 111/37/4 112/37/4 110/17/4
f 113/17/5 115/18/5 114/17/5
f 115/18/5 116/18/5 114/17/5
f 117/17/6 119/18/6 118/17/6
f 119/18/6 120/18/6 118/17/6
f 121/38/1 123/39/1 122/40/1
f 123/39/1 124/20/1 122/40/1
f 125/40/2 127/20/2 126/38/2
f 127/20/2 128/39/2 126/38/2
f 129/37/3 131/17/3 130/37/3
f 131/17/3 132/17/3 130/37/3
f 133/17/4 135/37/4 134/17/4
f 135/37/4 136/37/4 134/17/4
f 137/17/5 139/18/5 138/17/5
f 139/18/5 140/18/5 138/17/5
f 141/17/6 143/18/6 142/17/6
f 143/18/6 144/18/6 142/17/6
f 145/17/1 147/18/1 146/17/1
f 147/18/1 148/18/1 146/17/1
f 149/17/2 151/18/2 150/17/2
f 151/18/2 152/18/2 150/17/2
f 153/19/3 155/19/3 154/17/3
f 155/19/3 156/17/3 154/17/3
f 157/19/4 159/19/4 158/17/4
f 159/19/4 160/17/4 158/17/4
f 161/21/5 163/7/5 162/23/5
f 163/7/5 164/41/5 162/23/5
f 165/21/6 167/7/6 166/23/6
f 167/7/6 168/41/6 166/23/6
