# Blender 4.4.0
# www.blender.org
mtllib lev.deltapoint.mtl
o attachmentModel
v -0.769231 0.384615 0.576923
v 0.769231 0.384615 0.576923
v -0.769231 0.000000 0.576923
v 0.769231 0.000000 0.576923
v 0.769231 0.384615 -0.576923
v -0.769231 0.384615 -0.576923
v 0.769231 0.000000 -0.576923
v -0.769231 0.000000 -0.576923
v 0.769231 0.384615 -0.576923
v 0.769231 0.384615 0.576923
v -0.769231 0.384615 -0.576923
v -0.769231 0.384615 0.576923
v -0.769231 0.000000 -0.576923
v -0.769231 0.000000 0.576923
v 0.769231 0.000000 -0.576923
v 0.769231 0.000000 0.576923
v -0.769231 0.384615 -0.576923
v -0.769231 0.384615 0.576923
v -0.769231 0.000000 -0.576923
v -0.769231 0.000000 0.576923
v 0.769231 0.384615 0.576923
v 0.769231 0.384615 -0.576923
v 0.769231 0.000000 0.576923
v 0.769231 0.000000 -0.576923
v 0.000000 1.153846 0.673846
v 0.769231 1.153846 0.673846
v 0.000000 0.384615 0.673846
v 0.769231 0.384615 0.673846
v 0.769231 1.153846 0.673077
v 0.000000 1.153846 0.673077
v 0.769231 0.384615 0.673077
v 0.000000 0.384615 0.673077
v 0.769231 1.153846 0.673077
v 0.769231 1.153846 0.673846
v 0.000000 1.153846 0.673077
v 0.000000 1.153846 0.673846
v 0.000000 0.384615 0.673077
v 0.000000 0.384615 0.673846
v 0.769231 0.384615 0.673077
v 0.769231 0.384615 0.673846
v 0.000000 1.153846 0.673077
v 0.000000 1.153846 0.673846
v 0.000000 0.384615 0.673077
v 0.000000 0.384615 0.673846
v 0.769231 1.153846 0.673846
v 0.769231 1.153846 0.673077
v 0.769231 0.384615 0.673846
v 0.769231 0.384615 0.673077
v 0.000000 0.385385 0.673077
v 0.769231 0.385385 0.673077
v 0.000000 0.384615 0.673077
v 0.769231 0.384615 0.673077
v 0.769231 0.385385 -0.673077
v -0.000000 0.385385 -0.673077
v 0.769231 0.384615 -0.673077
v -0.000000 0.384615 -0.673077
v 0.769231 0.385385 -0.673077
v 0.769231 0.385385 0.673077
v -0.000000 0.385385 -0.673077
v 0.000000 0.385385 0.673077
v -0.000000 0.384615 -0.673077
v 0.000000 0.384615 0.673077
v 0.769231 0.384615 -0.673077
v 0.769231 0.384615 0.673077
v -0.000000 0.385385 -0.673077
v 0.000000 0.385385 0.673077
v -0.000000 0.384615 -0.673077
v 0.000000 0.384615 0.673077
v 0.769231 0.385385 0.673077
v 0.769231 0.385385 -0.673077
v 0.769231 0.384615 0.673077
v 0.769231 0.384615 -0.673077
v 0.384616 1.154615 0.673077
v 0.769231 1.154615 0.673077
v 0.384616 1.153846 0.673077
v 0.769231 1.153846 0.673077
v 0.769231 1.154615 -0.673077
v 0.384615 1.154615 -0.673077
v 0.769231 1.153846 -0.673077
v 0.384615 1.153846 -0.673077
v 0.769231 1.154615 -0.673077
v 0.769231 1.154615 0.673077
v 0.384615 1.154615 -0.673077
v 0.384616 1.154615 0.673077
v 0.384615 1.153846 -0.673077
v 0.384616 1.153846 0.673077
v 0.769231 1.153846 -0.673077
v 0.769231 1.153846 0.673077
v 0.384615 1.154615 -0.673077
v 0.384616 1.154615 0.673077
v 0.384615 1.153846 -0.673077
v 0.384616 1.153846 0.673077
v 0.769231 1.154615 0.673077
v 0.769231 1.154615 -0.673077
v 0.769231 1.153846 0.673077
v 0.769231 1.153846 -0.673077
v -0.000000 1.153846 -0.672308
v 0.769231 1.153846 -0.672308
v -0.000000 0.384615 -0.672308
v 0.769231 0.384615 -0.672308
v 0.769231 1.153846 -0.673077
v -0.000000 1.153846 -0.673077
v 0.769231 0.384615 -0.673077
v -0.000000 0.384615 -0.673077
v 0.769231 1.153846 -0.673077
v 0.769231 1.153846 -0.672308
v -0.000000 1.153846 -0.673077
v -0.000000 1.153846 -0.672308
v -0.000000 0.384615 -0.673077
v -0.000000 0.384615 -0.672308
v 0.769231 0.384615 -0.673077
v 0.769231 0.384615 -0.672308
v -0.000000 1.153846 -0.673077
v -0.000000 1.153846 -0.672308
v -0.000000 0.384615 -0.673077
v -0.000000 0.384615 -0.672308
v 0.769231 1.153846 -0.672308
v 0.769231 1.153846 -0.673077
v 0.769231 0.384615 -0.672308
v 0.769231 0.384615 -0.673077
v -0.384615 0.192308 0.769231
v 0.384616 0.192308 0.769231
v -0.384615 -0.192308 0.769231
v 0.384616 -0.192308 0.769231
v 0.384615 0.192308 -0.769231
v -0.384616 0.192308 -0.769231
v 0.384615 -0.192308 -0.769231
v -0.384616 -0.192308 -0.769231
v 0.384615 0.192308 -0.769231
v 0.384616 0.192308 0.769231
v -0.384616 0.192308 -0.769231
v -0.384615 0.192308 0.769231
v -0.384616 -0.192308 -0.769231
v -0.384615 -0.192308 0.769231
v 0.384615 -0.192308 -0.769231
v 0.384616 -0.192308 0.769231
v -0.384616 0.192308 -0.769231
v -0.384615 0.192308 0.769231
v -0.384616 -0.192308 -0.769231
v -0.384615 -0.192308 0.769231
v 0.384616 0.192308 0.769231
v 0.384615 0.192308 -0.769231
v 0.384616 -0.192308 0.769231
v 0.384615 -0.192308 -0.769231
vn -0.0000 -0.0000 1.0000
vn -0.0000 -0.0000 -1.0000
vn -0.0000 1.0000 -0.0000
vn -0.0000 -1.0000 -0.0000
vn -1.0000 -0.0000 -0.0000
vn 1.0000 -0.0000 -0.0000
vt 0.000000 0.500000
vt 0.000000 0.437500
vt 0.250000 0.500000
vt 0.250000 0.437500
vt 0.500000 1.000000
vt 0.500000 0.937500
vt 0.750000 1.000000
vt 0.750000 0.937500
vt 0.187500 0.750000
vt 0.187500 1.000000
vt 0.000000 0.750000
vt 0.000000 1.000000
vt 0.187500 0.500000
vt 0.625000 0.625000
vt 0.625000 0.562500
vt 0.812500 0.625000
vt 0.812500 0.562500
vt 0.375000 0.375000
vt 0.375000 0.312500
vt 0.562500 0.375000
vt 0.562500 0.312500
vt 0.500000 0.750000
vt 0.500000 0.625000
vt 0.625000 0.750000
vt 0.500000 0.500000
vt 0.625000 0.500000
vt 0.000000 0.875000
vt 0.125000 1.000000
vt 0.250000 0.625000
vt 0.250000 0.750000
vt 0.250000 1.000000
vt 0.062500 1.000000
vt 0.125000 0.312500
vt 0.125000 0.375000
vt 0.875000 0.750000
vt 0.875000 0.687500
vt 0.625000 0.687500
vt 0.500000 0.375000
vt 0.625000 0.375000
vt 0.000000 0.375000
vt 0.000000 0.250000
vt 0.125000 0.250000
vt 0.625000 0.437500
vt 0.750000 0.500000
vt 0.750000 0.437500
vt 0.625000 0.312500
vt 0.750000 0.375000
vt 0.750000 0.312500
vt 0.500000 0.875000
vt 0.250000 0.875000
vt 0.500000 0.437500
vt 0.500000 0.812500
vt 0.750000 0.875000
vt 0.750000 0.812500
s 0
usemtl Material_0
f 1/1/1 3/2/1 2/3/1
f 3/2/1 4/4/1 2/3/1
f 5/5/2 7/6/2 6/7/2
f 7/6/2 8/8/2 6/7/2
f 9/9/3 11/10/3 10/11/3
f 11/10/3 12/12/3 10/11/3
f 13/9/4 15/13/4 14/11/4
f 15/13/4 16/1/4 14/11/4
f 17/14/5 19/15/5 18/16/5
f 19/15/5 20/17/5 18/16/5
f 21/18/6 23/19/6 22/20/6
f 23/19/6 24/21/6 22/20/6
f 25/22/1 27/23/1 26/24/1
f 27/23/1 28/14/1 26/24/1
f 29/23/2 31/25/2 30/14/2
f 31/25/2 32/26/2 30/14/2
f 33/27/3 35/12/3 34/27/3
f 35/12/3 36/12/3 34/27/3
f 37/12/4 39/27/4 38/12/4
f 39/27/4 40/27/4 38/12/4
f 41/12/5 43/27/5 42/12/5
f 43/27/5 44/27/5 42/12/5
f 45/12/6 47/27/6 46/12/6
f 47/27/6 48/27/6 46/12/6
f 49/12/1 51/12/1 50/28/1
f 51/12/1 52/28/1 50/28/1
f 53/12/2 55/12/2 54/28/2
f 55/12/2 56/28/2 54/28/2
f 57/23/3 59/22/3 58/29/3
f 59/22/3 60/30/3 58/29/3
f 61/23/4 63/25/4 62/29/4
f 63/25/4 64/3/4 62/29/4
f 65/12/5 67/12/5 66/31/5
f 67/12/5 68/31/5 66/31/5
f 69/12/6 71/12/6 70/31/6
f 71/12/6 72/31/6 70/31/6
f 73/12/1 75/12/1 74/32/1
f 75/12/1 76/32/1 74/32/1
f 77/12/2 79/12/2 78/32/2
f 79/12/2 80/32/2 78/32/2
f 81/19/3 83/18/3 82/33/3
f 83/18/3 84/34/3 82/33/3
f 85/35/4 87/36/4 86/24/4
f 87/36/4 88/37/4 86/24/4
f 89/12/5 91/12/5 90/31/5
f 91/12/5 92/31/5 90/31/5
f 93/12/6 95/12/6 94/31/6
f 95/12/6 96/31/6 94/31/6
f 97/25/1 99/38/1 98/26/1
f 99/38/1 100/39/1 98/26/1
f 101/40/2 103/41/2 102/34/2
f 103/41/2 104/42/2 102/34/2
f 105/27/3 107/12/3 106/27/3
f 107/12/3 108/12/3 106/27/3
f 109/12/4 111/27/4 110/12/4
f 111/27/4 112/27/4 110/12/4
f 113/12/5 115/27/5 114/12/5
f 115/27/5 116/27/5 114/12/5
f 117/12/6 119/27/6 118/12/6
f 119/27/6 120/27/6 118/12/6
f 121/26/1 123/43/1 122/44/1
f 123/43/1 124/45/1 122/44/1
f 125/39/2 127/46/2 126/47/2
f 127/46/2 128/48/2 126/47/2
f 129/49/3 131/5/3 130/50/3
f 131/5/3 132/31/3 130/50/3
f 133/49/4 135/22/4 134/50/4
f 135/22/4 136/30/4 134/50/4
f 137/3/5 139/4/5 138/25/5
f 139/4/5 140/51/5 138/25/5
f 141/49/6 143/52/6 142/53/6
f 143/52/6 144/54/6 142/53/6
o overlaySolidModel
v 0.576154 1.153846 0.673077
v 0.576923 1.153846 0.673077
v 0.576154 0.384615 0.673077
v 0.576923 0.384615 0.673077
v 0.576923 1.153846 -0.673077
v 0.576154 1.153846 -0.673077
v 0.576923 0.384615 -0.673077
v 0.576154 0.384615 -0.673077
v 0.576923 1.153846 -0.673077
v 0.576923 1.153846 0.673077
v 0.576154 1.153846 -0.673077
v 0.576154 1.153846 0.673077
v 0.576154 0.384615 -0.673077
v 0.576154 0.384615 0.673077
v 0.576923 0.384615 -0.673077
v 0.576923 0.384615 0.673077
v 0.576154 1.153846 -0.673077
v 0.576154 1.153846 0.673077
v 0.576154 0.384615 -0.673077
v 0.576154 0.384615 0.673077
v 0.576923 1.153846 0.673077
v 0.576923 1.153846 -0.673077
v 0.576923 0.384615 0.673077
v 0.576923 0.384615 -0.673077
vn -0.0000 -0.0000 1.0000
vn -0.0000 -0.0000 -1.0000
vn -0.0000 1.0000 -0.0000
vn -0.0000 -1.0000 -0.0000
vn -1.0000 -0.0000 -0.0000
vn 1.0000 -0.0000 -0.0000
vt 0.875000 0.125000
vt 0.875000 0.000000
vt 1.000000 0.125000
vt 1.000000 0.000000
s 0
usemtl Material_0
f 145/55/7 147/56/7 146/57/7
f 147/56/7 148/58/7 146/57/7
f 149/55/8 151/56/8 150/57/8
f 151/56/8 152/58/8 150/57/8
f 153/55/9 155/56/9 154/57/9
f 155/56/9 156/58/9 154/57/9
f 157/55/10 159/56/10 158/57/10
f 159/56/10 160/58/10 158/57/10
f 161/55/11 163/56/11 162/57/11
f 163/56/11 164/58/11 162/57/11
f 165/55/12 167/56/12 166/57/12
f 167/56/12 168/58/12 166/57/12
o scopeModel
v 0.576923 1.153846 0.673077
v 0.577692 1.153846 0.673077
v 0.576923 0.384615 0.673077
v 0.577692 0.384615 0.673077
v 0.577692 1.153846 -0.673077
v 0.576923 1.153846 -0.673077
v 0.577692 0.384615 -0.673077
v 0.576923 0.384615 -0.673077
v 0.577692 1.153846 -0.673077
v 0.577692 1.153846 0.673077
v 0.576923 1.153846 -0.673077
v 0.576923 1.153846 0.673077
v 0.576923 0.384615 -0.673077
v 0.576923 0.384615 0.673077
v 0.577692 0.384615 -0.673077
v 0.577692 0.384615 0.673077
v 0.576923 1.153846 -0.673077
v 0.576923 1.153846 0.673077
v 0.576923 0.384615 -0.673077
v 0.576923 0.384615 0.673077
v 0.577692 1.153846 0.673077
v 0.577692 1.153846 -0.673077
v 0.577692 0.384615 0.673077
v 0.577692 0.384615 -0.673077
vn -0.0000 -0.0000 1.0000
vn -0.0000 -0.0000 -1.0000
vn -0.0000 1.0000 -0.0000
vn -0.0000 -1.0000 -0.0000
vn -1.0000 -0.0000 -0.0000
vn 1.0000 -0.0000 -0.0000
vt 0.875000 0.125000
vt 0.875000 0.000000
vt 1.000000 0.125000
vt 1.000000 0.000000
s 0
usemtl Material_0
f 169/59/13 171/60/13 170/61/13
f 171/60/13 172/62/13 170/61/13
f 173/59/14 175/60/14 174/61/14
f 175/60/14 176/62/14 174/61/14
f 177/59/15 179/60/15 178/61/15
f 179/60/15 180/62/15 178/61/15
f 181/59/16 183/60/16 182/61/16
f 183/60/16 184/62/16 182/61/16
f 185/59/17 187/60/17 186/61/17
f 187/60/17 188/62/17 186/61/17
f 189/59/18 191/60/18 190/61/18
f 191/60/18 192/62/18 190/61/18
