# Blender 4.3.2
# www.blender.org
mtllib lev.sr1mag.mtl
o ammoModel
v 0.000000 0.000000 0.383154
v 1.538462 0.000000 0.383154
v 0.000000 -0.384615 0.383154
v 1.538462 -0.384615 0.383154
v 1.538461 0.000000 -0.384539
v -0.000000 0.000000 -0.384538
v 1.538461 -0.384615 -0.384539
v -0.000000 -0.384615 -0.384538
v 1.538461 0.000000 -0.384539
v 1.538462 0.000000 0.383154
v -0.000000 0.000000 -0.384538
v 0.000000 0.000000 0.383154
v -0.000000 -0.384615 -0.384538
v 0.000000 -0.384615 0.383154
v 1.538461 -0.384615 -0.384539
v 1.538462 -0.384615 0.383154
v -0.000000 0.000000 -0.384538
v 0.000000 0.000000 0.383154
v -0.000000 -0.384615 -0.384538
v 0.000000 -0.384615 0.383154
v 1.538462 0.000000 0.383154
v 1.538461 0.000000 -0.384539
v 1.538462 -0.384615 0.383154
v 1.538461 -0.384615 -0.384539
v 1.170381 3.230265 0.384615
v 1.177488 3.227322 0.384615
v -0.007107 0.387559 0.384615
v 0.000000 0.384615 0.384615
v 1.177488 3.227322 -0.384616
v 1.170381 3.230265 -0.384616
v -0.000000 0.384615 -0.384615
v -0.007107 0.387559 -0.384615
v 1.177488 3.227322 -0.384616
v 1.177488 3.227322 0.384615
v 1.170381 3.230265 -0.384616
v 1.170381 3.230265 0.384615
v -0.007107 0.387559 -0.384615
v -0.007107 0.387559 0.384615
v -0.000000 0.384615 -0.384615
v 0.000000 0.384615 0.384615
v 1.170381 3.230265 -0.384616
v 1.170381 3.230265 0.384615
v -0.007107 0.387559 -0.384615
v -0.007107 0.387559 0.384615
v 1.177488 3.227322 0.384615
v 1.177488 3.227322 -0.384616
v 0.000000 0.384615 0.384615
v -0.000000 0.384615 -0.384615
v 2.236396 2.788707 0.384615
v 2.243502 2.785764 0.384615
v 1.058908 -0.053999 0.384615
v 1.066015 -0.056943 0.384615
v 2.243502 2.785764 -0.384616
v 2.236396 2.788707 -0.384616
v 1.066015 -0.056943 -0.384616
v 1.058908 -0.053999 -0.384616
v 2.243502 2.785764 -0.384616
v 2.243502 2.785764 0.384615
v 2.236396 2.788707 -0.384616
v 2.236396 2.788707 0.384615
v 1.058908 -0.053999 -0.384616
v 1.058908 -0.053999 0.384615
v 1.066015 -0.056943 -0.384616
v 1.066015 -0.056943 0.384615
v 2.236396 2.788707 -0.384616
v 2.236396 2.788707 0.384615
v 1.058908 -0.053999 -0.384616
v 1.058908 -0.053999 0.384615
v 2.243502 2.785764 0.384615
v 2.243502 2.785764 -0.384616
v 1.066015 -0.056943 0.384615
v 1.066015 -0.056943 -0.384616
v 1.177488 3.227322 0.392307
v 2.243502 2.785764 0.392307
v 0.000000 0.384615 0.392308
v 1.066015 -0.056943 0.392307
v 2.243502 2.785764 0.384615
v 1.177488 3.227322 0.384615
v 1.066015 -0.056943 0.384615
v 0.000000 0.384615 0.384615
v 2.243502 2.785764 0.384615
v 2.243502 2.785764 0.392307
v 1.177488 3.227322 0.384615
v 1.177488 3.227322 0.392307
v 0.000000 0.384615 0.384615
v 0.000000 0.384615 0.392308
v 1.066015 -0.056943 0.384615
v 1.066015 -0.056943 0.392307
v 1.177488 3.227322 0.384615
v 1.177488 3.227322 0.392307
v 0.000000 0.384615 0.384615
v 0.000000 0.384615 0.392308
v 2.243502 2.785764 0.392307
v 2.243502 2.785764 0.384615
v 1.066015 -0.056943 0.392307
v 1.066015 -0.056943 0.384615
v 1.177488 3.227322 -0.376923
v 2.243502 2.785764 -0.376924
v -0.000000 0.384615 -0.376923
v 1.066015 -0.056943 -0.376923
v 2.243502 2.785764 -0.384616
v 1.177488 3.227322 -0.384616
v 1.066015 -0.056943 -0.384616
v -0.000000 0.384615 -0.384615
v 2.243502 2.785764 -0.384616
v 2.243502 2.785764 -0.376924
v 1.177488 3.227322 -0.384616
v 1.177488 3.227322 -0.376923
v -0.000000 0.384615 -0.384615
v -0.000000 0.384615 -0.376923
v 1.066015 -0.056943 -0.384616
v 1.066015 -0.056943 -0.376923
v 1.177488 3.227322 -0.384616
v 1.177488 3.227322 -0.376923
v -0.000000 0.384615 -0.384615
v -0.000000 0.384615 -0.376923
v 2.243502 2.785764 -0.376924
v 2.243502 2.785764 -0.384616
v 1.066015 -0.056943 -0.376923
v 1.066015 -0.056943 -0.384616
v 0.000000 0.384615 0.383154
v 1.153846 0.384615 0.383154
v 0.000000 -0.000000 0.383154
v 1.153846 -0.000000 0.383154
v 1.153846 0.384615 -0.384539
v -0.000000 0.384615 -0.384538
v 1.153846 -0.000000 -0.384539
v -0.000000 -0.000000 -0.384538
v 1.153846 0.384615 -0.384539
v 1.153846 0.384615 0.383154
v -0.000000 0.384615 -0.384538
v 0.000000 0.384615 0.383154
v -0.000000 -0.000000 -0.384538
v 0.000000 -0.000000 0.383154
v 1.153846 -0.000000 -0.384539
v 1.153846 -0.000000 0.383154
v -0.000000 0.384615 -0.384538
v 0.000000 0.384615 0.383154
v -0.000000 -0.000000 -0.384538
v 0.000000 -0.000000 0.383154
v 1.153846 0.384615 0.383154
v 1.153846 0.384615 -0.384539
v 1.153846 -0.000000 0.383154
v 1.153846 -0.000000 -0.384539
vn -0.0000 -0.0000 1.0000
vn -0.0000 -0.0000 -1.0000
vn -0.0000 1.0000 -0.0000
vn -0.0000 -1.0000 -0.0000
vn -1.0000 -0.0000 -0.0000
vn 1.0000 -0.0000 -0.0000
vn 0.3827 0.9239 -0.0000
vn -0.3827 -0.9239 -0.0000
vn -0.9239 0.3827 -0.0000
vn 0.9239 -0.3827 -0.0000
vt 0.375000 0.500000
vt 0.375000 0.468750
vt 0.500000 0.500000
vt 0.500000 0.468750
vt 0.500000 0.625000
vt 0.500000 0.593750
vt 0.625000 0.625000
vt 0.625000 0.593750
vt 0.250000 0.375000
vt 0.250000 0.500000
vt 0.187500 0.375000
vt 0.187500 0.500000
vt 0.312500 0.500000
vt 0.312500 0.375000
vt 0.625000 0.812500
vt 0.625000 0.781250
vt 0.687500 0.812500
vt 0.687500 0.781250
vt 0.187500 0.343750
vt 0.250000 0.343750
vt 0.375000 1.000000
vt 0.375000 0.750000
vt 0.406250 1.000000
vt 0.406250 0.750000
vt 0.406250 0.500000
vt 0.562500 0.406250
vt 0.562500 0.437500
vt 0.500000 0.406250
vt 0.500000 0.437500
vt 0.625000 0.500000
vt 0.625000 0.468750
vt 0.562500 0.500000
vt 0.562500 0.468750
vt 0.187500 0.750000
vt 0.250000 0.750000
vt 0.125000 0.750000
vt 0.125000 0.500000
vt 0.437500 1.000000
vt 0.437500 0.750000
vt 0.468750 1.000000
vt 0.468750 0.750000
vt 0.437500 0.500000
vt 0.468750 0.500000
vt 0.625000 0.406250
vt 0.625000 0.437500
vt 0.687500 1.000000
vt 0.687500 0.968750
vt 0.625000 1.000000
vt 0.625000 0.968750
vt 0.312500 0.750000
vt 0.343750 1.000000
vt 0.343750 0.750000
vt 0.250000 1.000000
vt 0.125000 1.000000
vt 0.218750 1.000000
vt 0.218750 0.750000
vt 0.531250 0.468750
vt 0.531250 0.562500
vt 0.500000 0.562500
vt 0.593750 1.000000
vt 0.593750 0.906250
vt 0.562500 1.000000
vt 0.562500 0.906250
vt 0.281250 0.750000
vt 0.281250 0.500000
vt 0.031250 0.750000
vt 0.031250 0.500000
vt 0.062500 0.750000
vt 0.062500 0.500000
vt 0.593750 0.781250
vt 0.593750 0.875000
vt 0.562500 0.781250
vt 0.562500 0.875000
vt 0.593750 0.750000
vt 0.593750 0.656250
vt 0.562500 0.750000
vt 0.562500 0.656250
vt 0.125000 0.250000
vt 0.156250 0.500000
vt 0.156250 0.250000
vt 0.062500 0.250000
vt 0.093750 0.500000
vt 0.093750 0.250000
vt 0.375000 0.437500
vt 0.375000 0.406250
vt 0.468750 0.437500
vt 0.468750 0.406250
vt 0.562500 0.562500
vt 0.562500 0.531250
vt 0.656250 0.562500
vt 0.656250 0.531250
vt 0.500000 0.656250
vt 0.500000 0.750000
vt 0.312500 0.406250
vt 0.625000 0.875000
vt 0.625000 0.843750
vt 0.687500 0.875000
vt 0.687500 0.843750
vt 0.625000 0.937500
vt 0.625000 0.906250
vt 0.687500 0.937500
vt 0.687500 0.906250
s 0
usemtl Material_0
f 1/1/1 3/2/1 2/3/1
f 3/2/1 4/4/1 2/3/1
f 5/5/2 7/6/2 6/7/2
f 7/6/2 8/8/2 6/7/2
f 9/9/3 11/10/3 10/11/3
f 11/10/3 12/12/3 10/11/3
f 13/13/4 15/14/4 14/10/4
f 15/14/4 16/9/4 14/10/4
f 17/15/5 19/16/5 18/17/5
f 19/16/5 20/18/5 18/17/5
f 21/11/6 23/19/6 22/9/6
f 23/19/6 24/20/6 22/9/6
f 25/21/1 27/22/1 26/23/1
f 27/22/1 28/24/1 26/23/1
f 29/22/2 31/1/2 30/24/2
f 31/1/2 32/25/2 30/24/2
f 33/26/7 35/27/7 34/28/7
f 35/27/7 36/29/7 34/28/7
f 37/30/8 39/31/8 38/32/8
f 39/31/8 40/33/8 38/32/8
f 41/34/9 43/12/9 42/35/9
f 43/12/9 44/10/9 42/35/9
f 45/36/10 47/37/10 46/34/10
f 47/37/10 48/12/10 46/34/10
f 49/38/1 51/39/1 50/40/1
f 51/39/1 52/41/1 50/40/1
f 53/39/2 55/42/2 54/41/2
f 55/42/2 56/43/2 54/41/2
f 57/44/7 59/45/7 58/26/7
f 59/45/7 60/27/7 58/26/7
f 61/46/8 63/47/8 62/48/8
f 63/47/8 64/49/8 62/48/8
f 65/50/9 67/13/9 66/22/9
f 67/13/9 68/1/9 66/22/9
f 69/35/10 71/10/10 70/50/10
f 71/10/10 72/13/10 70/50/10
f 73/51/1 75/52/1 74/53/1
f 75/52/1 76/35/1 74/53/1
f 77/54/2 79/36/2 78/55/2
f 79/36/2 80/56/2 78/55/2
f 81/57/7 83/58/7 82/4/7
f 83/58/7 84/59/7 82/4/7
f 85/60/8 87/61/8 86/62/8
f 87/61/8 88/63/8 86/62/8
f 89/64/9 91/65/9 90/50/9
f 91/65/9 92/13/9 90/50/9
f 93/66/10 95/67/10 94/68/10
f 95/67/10 96/69/10 94/68/10
f 97/51/1 99/52/1 98/53/1
f 99/52/1 100/35/1 98/53/1
f 101/53/2 103/35/2 102/51/2
f 103/35/2 104/52/2 102/51/2
f 105/70/7 107/71/7 106/72/7
f 107/71/7 108/73/7 106/72/7
f 109/74/8 111/75/8 110/76/8
f 111/75/8 112/77/8 110/76/8
f 113/37/9 115/78/9 114/79/9
f 115/78/9 116/80/9 114/79/9
f 117/69/10 119/81/10 118/82/10
f 119/81/10 120/83/10 118/82/10
f 121/84/1 123/85/1 122/86/1
f 123/85/1 124/87/1 122/86/1
f 125/88/2 127/89/2 126/90/2
f 127/89/2 128/91/2 126/90/2
f 129/77/3 131/76/3 130/92/3
f 131/76/3 132/93/3 130/92/3
f 133/1/4 135/85/4 134/13/4
f 135/85/4 136/94/4 134/13/4
f 137/95/5 139/96/5 138/97/5
f 139/96/5 140/98/5 138/97/5
f 141/99/6 143/100/6 142/101/6
f 143/100/6 144/102/6 142/101/6
o bulletModel_0
v 1.138497 3.090870 0.365384
v 1.831407 2.803857 0.365384
v 0.947155 2.628930 0.365384
v 1.640065 2.341918 0.365384
v 1.831407 2.803857 -0.134616
v 1.138497 3.090870 -0.134616
v 1.640065 2.341918 -0.134616
v 0.947155 2.628930 -0.134616
v 1.831407 2.803857 -0.134616
v 1.831407 2.803857 0.365384
v 1.138497 3.090870 -0.134616
v 1.138497 3.090870 0.365384
v 0.947155 2.628930 -0.134616
v 0.947155 2.628930 0.365384
v 1.640065 2.341918 -0.134616
v 1.640065 2.341918 0.365384
v 1.138497 3.090870 -0.134616
v 1.138497 3.090870 0.365384
v 0.947155 2.628930 -0.134616
v 0.947155 2.628930 0.365384
v 1.831407 2.803857 0.365384
v 1.831407 2.803857 -0.134616
v 1.640065 2.341918 0.365384
v 1.640065 2.341918 -0.134616
v 1.816688 2.768323 0.326923
v 2.172026 2.621137 0.326923
v 1.654783 2.377451 0.326923
v 2.010122 2.230265 0.326923
v 2.172026 2.621137 -0.096154
v 1.816688 2.768323 -0.096154
v 2.010122 2.230265 -0.096154
v 1.654783 2.377451 -0.096154
v 2.172026 2.621137 -0.096154
v 2.172026 2.621137 0.326923
v 1.816688 2.768323 -0.096154
v 1.816688 2.768323 0.326923
v 1.654783 2.377451 -0.096154
v 1.654783 2.377451 0.326923
v 2.010122 2.230265 -0.096154
v 2.010122 2.230265 0.326923
v 1.816688 2.768323 -0.096154
v 1.816688 2.768323 0.326923
v 1.654783 2.377451 -0.096154
v 1.654783 2.377451 0.326923
v 2.172026 2.621137 0.326923
v 2.172026 2.621137 -0.096154
v 2.010122 2.230265 0.326923
v 2.010122 2.230265 -0.096154
v 1.226808 3.304073 0.134615
v 1.919718 3.017060 0.134615
v 1.035467 2.842133 0.134615
v 1.728376 2.555120 0.134615
v 1.919718 3.017060 -0.365385
v 1.226808 3.304073 -0.365385
v 1.728376 2.555120 -0.365385
v 1.035467 2.842133 -0.365385
v 1.919718 3.017060 -0.365385
v 1.919718 3.017060 0.134615
v 1.226808 3.304073 -0.365385
v 1.226808 3.304073 0.134615
v 1.035467 2.842133 -0.365385
v 1.035467 2.842133 0.134615
v 1.728376 2.555120 -0.365385
v 1.728376 2.555120 0.134615
v 1.226808 3.304073 -0.365385
v 1.226808 3.304073 0.134615
v 1.035467 2.842133 -0.365385
v 1.035467 2.842133 0.134615
v 1.919718 3.017060 0.134615
v 1.919718 3.017060 -0.365385
v 1.728376 2.555120 0.134615
v 1.728376 2.555120 -0.365385
v 1.904999 2.981526 0.096154
v 2.260338 2.834341 0.096154
v 1.743095 2.590654 0.096154
v 2.098433 2.443468 0.096154
v 2.260338 2.834341 -0.326923
v 1.904999 2.981526 -0.326923
v 2.098433 2.443468 -0.326923
v 1.743095 2.590654 -0.326923
v 2.260338 2.834341 -0.326923
v 2.260338 2.834341 0.096154
v 1.904999 2.981526 -0.326923
v 1.904999 2.981526 0.096154
v 1.743095 2.590654 -0.326923
v 1.743095 2.590654 0.096154
v 2.098433 2.443468 -0.326923
v 2.098433 2.443468 0.096154
v 1.904999 2.981526 -0.326923
v 1.904999 2.981526 0.096154
v 1.743095 2.590654 -0.326923
v 1.743095 2.590654 0.096154
v 2.260338 2.834341 0.096154
v 2.260338 2.834341 -0.326923
v 2.098433 2.443468 0.096154
v 2.098433 2.443468 -0.326923
vn -0.0000 -0.0000 1.0000
vn -0.0000 -0.0000 -1.0000
vn 0.3827 0.9239 -0.0000
vn -0.3827 -0.9239 -0.0000
vn -0.9239 0.3827 -0.0000
vn 0.9239 -0.3827 -0.0000
vt 0.250000 0.375000
vt 0.250000 0.343750
vt 0.312500 0.375000
vt 0.312500 0.343750
vt 0.625000 0.750000
vt 0.625000 0.718750
vt 0.687500 0.750000
vt 0.687500 0.718750
vt 0.343750 0.312500
vt 0.343750 0.375000
vt 0.312500 0.312500
vt 0.656250 0.687500
vt 0.656250 0.625000
vt 0.625000 0.687500
vt 0.625000 0.625000
vt 0.625000 0.375000
vt 0.625000 0.343750
vt 0.656250 0.375000
vt 0.656250 0.343750
vt 0.625000 0.437500
vt 0.625000 0.406250
vt 0.656250 0.437500
vt 0.656250 0.406250
vt 0.687500 0.937500
vt 0.687500 0.906250
vt 0.718750 0.937500
vt 0.718750 0.906250
vt 0.187500 0.312500
vt 0.187500 0.281250
vt 0.218750 0.312500
vt 0.218750 0.281250
vt 0.718750 0.781250
vt 0.718750 0.812500
vt 0.687500 0.781250
vt 0.687500 0.812500
vt 0.281250 0.312500
vt 0.281250 0.281250
vt 0.250000 0.312500
vt 0.250000 0.281250
vt 0.687500 0.875000
vt 0.687500 0.843750
vt 0.718750 0.875000
vt 0.718750 0.843750
vt 0.687500 1.000000
vt 0.687500 0.968750
vt 0.718750 1.000000
vt 0.718750 0.968750
vt 0.375000 0.375000
vt 0.375000 0.343750
vt 0.437500 0.375000
vt 0.437500 0.343750
vt 0.625000 0.593750
vt 0.687500 0.625000
vt 0.687500 0.593750
vt 0.468750 0.312500
vt 0.468750 0.375000
vt 0.437500 0.312500
vt 0.531250 0.375000
vt 0.531250 0.312500
vt 0.500000 0.375000
vt 0.500000 0.312500
vt 0.312500 0.281250
vt 0.343750 0.281250
vt 0.718750 0.750000
vt 0.718750 0.718750
vt 0.375000 0.312500
vt 0.375000 0.281250
vt 0.406250 0.312500
vt 0.406250 0.281250
vt 0.437500 0.281250
vt 0.468750 0.281250
vt 0.718750 0.531250
vt 0.718750 0.562500
vt 0.687500 0.531250
vt 0.687500 0.562500
vt 0.531250 0.281250
vt 0.500000 0.281250
vt 0.718750 0.625000
vt 0.718750 0.593750
vt 0.687500 0.687500
vt 0.687500 0.656250
vt 0.718750 0.687500
vt 0.718750 0.656250
s 0
usemtl Material_0
f 145/103/11 147/104/11 146/105/11
f 147/104/11 148/106/11 146/105/11
f 149/107/12 151/108/12 150/109/12
f 151/108/12 152/110/12 150/109/12
f 153/111/13 155/112/13 154/113/13
f 155/112/13 156/105/13 154/113/13
f 157/114/14 159/115/14 158/116/14
f 159/115/14 160/117/14 158/116/14
f 161/118/15 163/119/15 162/120/15
f 163/119/15 164/121/15 162/120/15
f 165/122/16 167/123/16 166/124/16
f 167/123/16 168/125/16 166/124/16
f 169/126/11 171/127/11 170/128/11
f 171/127/11 172/129/11 170/128/11
f 173/130/12 175/131/12 174/132/12
f 175/131/12 176/133/12 174/132/12
f 177/134/13 179/135/13 178/136/13
f 179/135/13 180/137/13 178/136/13
f 181/138/14 183/139/14 182/140/14
f 183/139/14 184/141/14 182/140/14
f 185/142/15 187/143/15 186/144/15
f 187/143/15 188/145/15 186/144/15
f 189/146/16 191/147/16 190/148/16
f 191/147/16 192/149/16 190/148/16
f 193/150/11 195/151/11 194/152/11
f 195/151/11 196/153/11 194/152/11
f 197/117/12 199/154/12 198/155/12
f 199/154/12 200/156/12 198/155/12
f 201/157/13 203/158/13 202/159/13
f 203/158/13 204/152/13 202/159/13
f 205/160/14 207/161/14 206/162/14
f 207/161/14 208/163/14 206/162/14
f 209/113/15 211/164/15 210/111/15
f 211/164/15 212/165/15 210/111/15
f 213/109/16 215/110/16 214/166/16
f 215/110/16 216/167/16 214/166/16
f 217/168/11 219/169/11 218/170/11
f 219/169/11 220/171/11 218/170/11
f 221/159/12 223/172/12 222/157/12
f 223/172/12 224/173/12 222/157/12
f 225/174/13 227/175/13 226/176/13
f 227/175/13 228/177/13 226/176/13
f 229/161/14 231/178/14 230/163/14
f 231/178/14 232/179/14 230/163/14
f 233/155/15 235/156/15 234/180/15
f 235/156/15 236/181/15 234/180/15
f 237/182/16 239/183/16 238/184/16
f 239/183/16 240/185/16 238/184/16
o bulletModel_17
v 1.152235 1.156258 -0.384616
v 1.507573 1.009072 -0.384616
v 1.005049 0.800920 -0.384616
v 1.360387 0.653734 -0.384616
v 1.507573 1.009072 -0.385385
v 1.152235 1.156258 -0.385385
v 1.360387 0.653734 -0.385385
v 1.005049 0.800920 -0.385385
v 1.507573 1.009072 -0.385385
v 1.507573 1.009072 -0.384616
v 1.152235 1.156258 -0.385385
v 1.152235 1.156258 -0.384616
v 1.005049 0.800920 -0.385385
v 1.005049 0.800920 -0.384616
v 1.360387 0.653734 -0.385385
v 1.360387 0.653734 -0.384616
v 1.152235 1.156258 -0.385385
v 1.152235 1.156258 -0.384616
v 1.005049 0.800920 -0.385385
v 1.005049 0.800920 -0.384616
v 1.507573 1.009072 -0.384616
v 1.507573 1.009072 -0.385385
v 1.360387 0.653734 -0.384616
v 1.360387 0.653734 -0.385385
v 0.441558 1.450630 -0.384616
v 0.796896 1.303444 -0.384616
v 0.294372 1.095292 -0.384616
v 0.649710 0.948106 -0.384616
v 0.796896 1.303444 -0.385385
v 0.441558 1.450630 -0.385385
v 0.649710 0.948106 -0.385385
v 0.294372 1.095292 -0.385385
v 0.796896 1.303444 -0.385385
v 0.796896 1.303444 -0.384616
v 0.441558 1.450630 -0.385385
v 0.441558 1.450630 -0.384616
v 0.294372 1.095292 -0.385385
v 0.294372 1.095292 -0.384616
v 0.649710 0.948106 -0.385385
v 0.649710 0.948106 -0.384616
v 0.441558 1.450630 -0.385385
v 0.441558 1.450630 -0.384616
v 0.294372 1.095292 -0.385385
v 0.294372 1.095292 -0.384616
v 0.796896 1.303444 -0.384616
v 0.796896 1.303444 -0.385385
v 0.649710 0.948106 -0.384616
v 0.649710 0.948106 -0.385385
v 1.152235 1.156258 0.393077
v 1.507573 1.009072 0.393077
v 1.005049 0.800920 0.393077
v 1.360387 0.653734 0.393077
v 1.507573 1.009072 0.392308
v 1.152235 1.156258 0.392308
v 1.360387 0.653734 0.392308
v 1.005049 0.800920 0.392308
v 1.507573 1.009072 0.392308
v 1.507573 1.009072 0.393077
v 1.152235 1.156258 0.392308
v 1.152235 1.156258 0.393077
v 1.005049 0.800920 0.392308
v 1.005049 0.800920 0.393077
v 1.360387 0.653734 0.392308
v 1.360387 0.653734 0.393077
v 1.152235 1.156258 0.392308
v 1.152235 1.156258 0.393077
v 1.005049 0.800920 0.392308
v 1.005049 0.800920 0.393077
v 1.507573 1.009072 0.393077
v 1.507573 1.009072 0.392308
v 1.360387 0.653734 0.393077
v 1.360387 0.653734 0.392308
v 0.441558 1.450630 0.393077
v 0.796896 1.303444 0.393077
v 0.294372 1.095292 0.393077
v 0.649710 0.948106 0.393077
v 0.796896 1.303444 0.392308
v 0.441558 1.450630 0.392308
v 0.649710 0.948106 0.392308
v 0.294372 1.095292 0.392308
v 0.796896 1.303444 0.392308
v 0.796896 1.303444 0.393077
v 0.441558 1.450630 0.392308
v 0.441558 1.450630 0.393077
v 0.294372 1.095292 0.392308
v 0.294372 1.095292 0.393077
v 0.649710 0.948106 0.392308
v 0.649710 0.948106 0.393077
v 0.441558 1.450630 0.392308
v 0.441558 1.450630 0.393077
v 0.294372 1.095292 0.392308
v 0.294372 1.095292 0.393077
v 0.796896 1.303444 0.393077
v 0.796896 1.303444 0.392308
v 0.649710 0.948106 0.393077
v 0.649710 0.948106 0.392308
vn -0.0000 -0.0000 1.0000
vn -0.0000 -0.0000 -1.0000
vn 0.3827 0.9239 -0.0000
vn -0.3827 -0.9239 -0.0000
vn -0.9239 0.3827 -0.0000
vn 0.9239 -0.3827 -0.0000
vt 0.625000 0.500000
vt 0.625000 0.468750
vt 0.656250 0.500000
vt 0.656250 0.468750
vt 0.562500 0.375000
vt 0.562500 0.343750
vt 0.593750 0.375000
vt 0.593750 0.343750
vt 0.000000 0.968750
vt 0.000000 1.000000
vt 0.625000 0.375000
vt 0.625000 0.343750
s 0
usemtl Material_0
f 241/186/17 243/187/17 242/188/17
f 243/187/17 244/189/17 242/188/17
f 245/190/18 247/191/18 246/192/18
f 247/191/18 248/193/18 246/192/18
f 249/194/19 251/195/19 250/194/19
f 251/195/19 252/195/19 250/194/19
f 253/195/20 255/194/20 254/195/20
f 255/194/20 256/194/20 254/195/20
f 257/195/21 259/194/21 258/195/21
f 259/194/21 260/194/21 258/195/21
f 261/195/22 263/194/22 262/195/22
f 263/194/22 264/194/22 262/195/22
f 265/192/17 267/193/17 266/196/17
f 267/193/17 268/197/17 266/196/17
f 269/192/18 271/193/18 270/196/18
f 271/193/18 272/197/18 270/196/18
f 273/192/19 275/193/19 274/196/19
f 275/193/19 276/197/19 274/196/19
f 277/192/20 279/193/20 278/196/20
f 279/193/20 280/197/20 278/196/20
f 281/192/21 283/193/21 282/196/21
f 283/193/21 284/197/21 282/196/21
f 285/192/22 287/193/22 286/196/22
f 287/193/22 288/197/22 286/196/22
f 289/190/17 291/191/17 290/192/17
f 291/191/17 292/193/17 290/192/17
f 293/190/18 295/191/18 294/192/18
f 295/191/18 296/193/18 294/192/18
f 297/194/19 299/195/19 298/194/19
f 299/195/19 300/195/19 298/194/19
f 301/195/20 303/194/20 302/195/20
f 303/194/20 304/194/20 302/195/20
f 305/195/21 307/194/21 306/195/21
f 307/194/21 308/194/21 306/195/21
f 309/195/22 311/194/22 310/195/22
f 311/194/22 312/194/22 310/195/22
f 313/192/17 315/193/17 314/196/17
f 315/193/17 316/197/17 314/196/17
f 317/192/18 319/193/18 318/196/18
f 319/193/18 320/197/18 318/196/18
f 321/192/19 323/193/19 322/196/19
f 323/193/19 324/197/19 322/196/19
f 325/192/20 327/193/20 326/196/20
f 327/193/20 328/197/20 326/196/20
f 329/192/21 331/193/21 330/196/21
f 331/193/21 332/197/21 330/196/21
f 333/192/22 335/193/22 334/196/22
f 335/193/22 336/197/22 334/196/22
o bulletModel_1
v 1.030302 2.871983 -0.384616
v 1.385640 2.724797 -0.384616
v 0.883116 2.516645 -0.384616
v 1.238454 2.369459 -0.384616
v 1.385640 2.724797 -0.385385
v 1.030302 2.871983 -0.385385
v 1.238454 2.369459 -0.385385
v 0.883116 2.516645 -0.385385
v 1.385640 2.724797 -0.385385
v 1.385640 2.724797 -0.384616
v 1.030302 2.871983 -0.385385
v 1.030302 2.871983 -0.384616
v 0.883116 2.516645 -0.385385
v 0.883116 2.516645 -0.384616
v 1.238454 2.369459 -0.385385
v 1.238454 2.369459 -0.384616
v 1.030302 2.871983 -0.385385
v 1.030302 2.871983 -0.384616
v 0.883116 2.516645 -0.385385
v 0.883116 2.516645 -0.384616
v 1.385640 2.724797 -0.384616
v 1.385640 2.724797 -0.385385
v 1.238454 2.369459 -0.384616
v 1.238454 2.369459 -0.385385
v 1.740978 2.577611 -0.384616
v 2.096317 2.430425 -0.384616
v 1.593792 2.222273 -0.384616
v 1.949131 2.075087 -0.384616
v 2.096317 2.430425 -0.385385
v 1.740978 2.577611 -0.385385
v 1.949131 2.075087 -0.385385
v 1.593792 2.222273 -0.385385
v 2.096317 2.430425 -0.385385
v 2.096317 2.430425 -0.384616
v 1.740978 2.577611 -0.385385
v 1.740978 2.577611 -0.384616
v 1.593792 2.222273 -0.385385
v 1.593792 2.222273 -0.384616
v 1.949131 2.075087 -0.385385
v 1.949131 2.075087 -0.384616
v 1.740978 2.577611 -0.385385
v 1.740978 2.577611 -0.384616
v 1.593792 2.222273 -0.385385
v 1.593792 2.222273 -0.384616
v 2.096317 2.430425 -0.384616
v 2.096317 2.430425 -0.385385
v 1.949131 2.075087 -0.384616
v 1.949131 2.075087 -0.385385
v 1.740978 2.577611 0.393077
v 2.096317 2.430425 0.393077
v 1.593792 2.222273 0.393077
v 1.949131 2.075087 0.393077
v 2.096317 2.430425 0.392307
v 1.740978 2.577611 0.392307
v 1.949131 2.075087 0.392307
v 1.593792 2.222273 0.392307
v 2.096317 2.430425 0.392307
v 2.096317 2.430425 0.393077
v 1.740978 2.577611 0.392307
v 1.740978 2.577611 0.393077
v 1.593792 2.222273 0.392307
v 1.593792 2.222273 0.393077
v 1.949131 2.075087 0.392307
v 1.949131 2.075087 0.393077
v 1.740978 2.577611 0.392307
v 1.740978 2.577611 0.393077
v 1.593792 2.222273 0.392307
v 1.593792 2.222273 0.393077
v 2.096317 2.430425 0.393077
v 2.096317 2.430425 0.392307
v 1.949131 2.075087 0.393077
v 1.949131 2.075087 0.392307
v 1.030302 2.871983 0.393077
v 1.385640 2.724797 0.393077
v 0.883116 2.516645 0.393077
v 1.238454 2.369459 0.393077
v 1.385640 2.724797 0.392307
v 1.030302 2.871983 0.392308
v 1.238454 2.369459 0.392308
v 0.883116 2.516645 0.392308
v 1.385640 2.724797 0.392307
v 1.385640 2.724797 0.393077
v 1.030302 2.871983 0.392308
v 1.030302 2.871983 0.393077
v 0.883116 2.516645 0.392308
v 0.883116 2.516645 0.393077
v 1.238454 2.369459 0.392308
v 1.238454 2.369459 0.393077
v 1.030302 2.871983 0.392308
v 1.030302 2.871983 0.393077
v 0.883116 2.516645 0.392308
v 0.883116 2.516645 0.393077
v 1.385640 2.724797 0.393077
v 1.385640 2.724797 0.392307
v 1.238454 2.369459 0.393077
v 1.238454 2.369459 0.392308
vn -0.0000 -0.0000 1.0000
vn -0.0000 -0.0000 -1.0000
vn 0.3827 0.9239 -0.0000
vn -0.3827 -0.9239 -0.0000
vn -0.9239 0.3827 -0.0000
vn 0.9239 -0.3827 -0.0000
vt 0.593750 0.375000
vt 0.593750 0.343750
vt 0.625000 0.375000
vt 0.625000 0.343750
vt 0.625000 0.500000
vt 0.625000 0.468750
vt 0.656250 0.500000
vt 0.656250 0.468750
vt 0.562500 0.375000
vt 0.562500 0.343750
vt 0.000000 0.968750
vt 0.000000 1.000000
s 0
usemtl Material_0
f 337/198/23 339/199/23 338/200/23
f 339/199/23 340/201/23 338/200/23
f 341/198/24 343/199/24 342/200/24
f 343/199/24 344/201/24 342/200/24
f 345/198/25 347/199/25 346/200/25
f 347/199/25 348/201/25 346/200/25
f 349/198/26 351/199/26 350/200/26
f 351/199/26 352/201/26 350/200/26
f 353/198/27 355/199/27 354/200/27
f 355/199/27 356/201/27 354/200/27
f 357/198/28 359/199/28 358/200/28
f 359/199/28 360/201/28 358/200/28
f 361/202/23 363/203/23 362/204/23
f 363/203/23 364/205/23 362/204/23
f 365/206/24 367/207/24 366/198/24
f 367/207/24 368/199/24 366/198/24
f 369/208/25 371/209/25 370/208/25
f 371/209/25 372/209/25 370/208/25
f 373/209/26 375/208/26 374/209/26
f 375/208/26 376/208/26 374/209/26
f 377/209/27 379/208/27 378/209/27
f 379/208/27 380/208/27 378/209/27
f 381/209/28 383/208/28 382/209/28
f 383/208/28 384/208/28 382/209/28
f 385/206/23 387/207/23 386/198/23
f 387/207/23 388/199/23 386/198/23
f 389/206/24 391/207/24 390/198/24
f 391/207/24 392/199/24 390/198/24
f 393/208/25 395/209/25 394/208/25
f 395/209/25 396/209/25 394/208/25
f 397/209/26 399/208/26 398/209/26
f 399/208/26 400/208/26 398/209/26
f 401/209/27 403/208/27 402/209/27
f 403/208/27 404/208/27 402/209/27
f 405/209/28 407/208/28 406/209/28
f 407/208/28 408/208/28 406/209/28
f 409/198/23 411/199/23 410/200/23
f 411/199/23 412/201/23 410/200/23
f 413/198/24 415/199/24 414/200/24
f 415/199/24 416/201/24 414/200/24
f 417/198/25 419/199/25 418/200/25
f 419/199/25 420/201/25 418/200/25
f 421/198/26 423/199/26 422/200/26
f 423/199/26 424/201/26 422/200/26
f 425/198/27 427/199/27 426/200/27
f 427/199/27 428/201/27 426/200/27
f 429/198/28 431/199/28 430/200/28
f 431/199/28 432/201/28 430/200/28
o bulletModel_8
v 1.446607 1.866935 0.393077
v 1.801945 1.719749 0.393077
v 1.299421 1.511597 0.393077
v 1.654759 1.364411 0.393077
v 1.801945 1.719749 0.392308
v 1.446607 1.866935 0.392308
v 1.654759 1.364411 0.392308
v 1.299421 1.511597 0.392308
v 1.801945 1.719749 0.392308
v 1.801945 1.719749 0.393077
v 1.446607 1.866935 0.392308
v 1.446607 1.866935 0.393077
v 1.299421 1.511597 0.392308
v 1.299421 1.511597 0.393077
v 1.654759 1.364411 0.392308
v 1.654759 1.364411 0.393077
v 1.446607 1.866935 0.392308
v 1.446607 1.866935 0.393077
v 1.299421 1.511597 0.392308
v 1.299421 1.511597 0.393077
v 1.801945 1.719749 0.393077
v 1.801945 1.719749 0.392308
v 1.654759 1.364411 0.393077
v 1.654759 1.364411 0.392308
v 1.446606 1.866935 -0.384616
v 1.801945 1.719749 -0.384616
v 1.299420 1.511597 -0.384616
v 1.654759 1.364411 -0.384616
v 1.801945 1.719749 -0.385385
v 1.446606 1.866935 -0.385385
v 1.654759 1.364411 -0.385385
v 1.299420 1.511597 -0.385385
v 1.801945 1.719749 -0.385385
v 1.801945 1.719749 -0.384616
v 1.446606 1.866935 -0.385385
v 1.446606 1.866935 -0.384616
v 1.299420 1.511597 -0.385385
v 1.299420 1.511597 -0.384616
v 1.654759 1.364411 -0.385385
v 1.654759 1.364411 -0.384616
v 1.446606 1.866935 -0.385385
v 1.446606 1.866935 -0.384616
v 1.299420 1.511597 -0.385385
v 1.299420 1.511597 -0.384616
v 1.801945 1.719749 -0.384616
v 1.801945 1.719749 -0.385385
v 1.654759 1.364411 -0.384616
v 1.654759 1.364411 -0.385385
v 0.735930 2.161307 -0.384616
v 1.091268 2.014121 -0.384616
v 0.588744 1.805969 -0.384616
v 0.944082 1.658783 -0.384616
v 1.091268 2.014121 -0.385385
v 0.735930 2.161307 -0.385385
v 0.944082 1.658783 -0.385385
v 0.588744 1.805969 -0.385385
v 1.091268 2.014121 -0.385385
v 1.091268 2.014121 -0.384616
v 0.735930 2.161307 -0.385385
v 0.735930 2.161307 -0.384616
v 0.588744 1.805969 -0.385385
v 0.588744 1.805969 -0.384616
v 0.944082 1.658783 -0.385385
v 0.944082 1.658783 -0.384616
v 0.735930 2.161307 -0.385385
v 0.735930 2.161307 -0.384616
v 0.588744 1.805969 -0.385385
v 0.588744 1.805969 -0.384616
v 1.091268 2.014121 -0.384616
v 1.091268 2.014121 -0.385385
v 0.944082 1.658783 -0.384616
v 0.944082 1.658783 -0.385385
v 0.735930 2.161307 0.393077
v 1.091268 2.014121 0.393077
v 0.588744 1.805969 0.393077
v 0.944082 1.658783 0.393077
v 1.091268 2.014121 0.392308
v 0.735930 2.161307 0.392308
v 0.944082 1.658783 0.392308
v 0.588744 1.805969 0.392308
v 1.091268 2.014121 0.392308
v 1.091268 2.014121 0.393077
v 0.735930 2.161307 0.392308
v 0.735930 2.161307 0.393077
v 0.588744 1.805969 0.392308
v 0.588744 1.805969 0.393077
v 0.944082 1.658783 0.392308
v 0.944082 1.658783 0.393077
v 0.735930 2.161307 0.392308
v 0.735930 2.161307 0.393077
v 0.588744 1.805969 0.392308
v 0.588744 1.805969 0.393077
v 1.091268 2.014121 0.393077
v 1.091268 2.014121 0.392308
v 0.944082 1.658783 0.393077
v 0.944082 1.658783 0.392308
vn -0.0000 -0.0000 1.0000
vn -0.0000 -0.0000 -1.0000
vn 0.3827 0.9239 -0.0000
vn -0.3827 -0.9239 -0.0000
vn -0.9239 0.3827 -0.0000
vn 0.9239 -0.3827 -0.0000
vt 0.562500 0.375000
vt 0.562500 0.343750
vt 0.593750 0.375000
vt 0.593750 0.343750
vt 0.000000 0.968750
vt 0.000000 1.000000
vt 0.625000 0.500000
vt 0.625000 0.468750
vt 0.656250 0.500000
vt 0.656250 0.468750
vt 0.625000 0.375000
vt 0.625000 0.343750
s 0
usemtl Material_0
f 433/210/29 435/211/29 434/212/29
f 435/211/29 436/213/29 434/212/29
f 437/210/30 439/211/30 438/212/30
f 439/211/30 440/213/30 438/212/30
f 441/214/31 443/215/31 442/214/31
f 443/215/31 444/215/31 442/214/31
f 445/215/32 447/214/32 446/215/32
f 447/214/32 448/214/32 446/215/32
f 449/215/33 451/214/33 450/215/33
f 451/214/33 452/214/33 450/215/33
f 453/215/34 455/214/34 454/215/34
f 455/214/34 456/214/34 454/215/34
f 457/216/29 459/217/29 458/218/29
f 459/217/29 460/219/29 458/218/29
f 461/210/30 463/211/30 462/212/30
f 463/211/30 464/213/30 462/212/30
f 465/214/31 467/215/31 466/214/31
f 467/215/31 468/215/31 466/214/31
f 469/215/32 471/214/32 470/215/32
f 471/214/32 472/214/32 470/215/32
f 473/215/33 475/214/33 474/215/33
f 475/214/33 476/214/33 474/215/33
f 477/215/34 479/214/34 478/215/34
f 479/214/34 480/214/34 478/215/34
f 481/212/29 483/213/29 482/220/29
f 483/213/29 484/221/29 482/220/29
f 485/212/30 487/213/30 486/220/30
f 487/213/30 488/221/30 486/220/30
f 489/212/31 491/213/31 490/220/31
f 491/213/31 492/221/31 490/220/31
f 493/212/32 495/213/32 494/220/32
f 495/213/32 496/221/32 494/220/32
f 497/212/33 499/213/33 498/220/33
f 499/213/33 500/221/33 498/220/33
f 501/212/34 503/213/34 502/220/34
f 503/213/34 504/221/34 502/220/34
f 505/212/29 507/213/29 506/220/29
f 507/213/29 508/221/29 506/220/29
f 509/212/30 511/213/30 510/220/30
f 511/213/30 512/221/30 510/220/30
f 513/212/31 515/213/31 514/220/31
f 515/213/31 516/221/31 514/220/31
f 517/212/32 519/213/32 518/220/32
f 519/213/32 520/221/32 518/220/32
f 521/212/33 523/213/33 522/220/33
f 523/213/33 524/221/33 522/220/33
f 525/212/34 527/213/34 526/220/34
f 527/213/34 528/221/34 526/220/34
