# Blender 5.0.1
# www.blender.org
mtllib lev.glockmag17.mtl
o bulletModel_1
v 0.728500 0.166708 0.211538
v 1.113115 0.166708 0.211538
v 0.728500 -0.256369 0.211538
v 1.113115 -0.256369 0.211538
v 1.113115 0.166708 -0.211539
v 0.728500 0.166708 -0.211539
v 1.113115 -0.256369 -0.211539
v 0.728500 -0.256369 -0.211539
v 1.113115 0.166708 -0.211539
v 1.113115 0.166708 0.211538
v 0.728500 0.166708 -0.211539
v 0.728500 0.166708 0.211538
v 0.728500 -0.256369 -0.211539
v 0.728500 -0.256369 0.211538
v 1.113115 -0.256369 -0.211539
v 1.113115 -0.256369 0.211538
v 0.728500 0.166708 -0.211539
v 0.728500 0.166708 0.211538
v 0.728500 -0.256369 -0.211539
v 0.728500 -0.256369 0.211538
v 1.113115 0.166708 0.211538
v 1.113115 0.166708 -0.211539
v 1.113115 -0.256369 0.211538
v 1.113115 -0.256369 -0.211539
v 0.074654 0.205169 0.250000
v 0.805423 0.205169 0.250000
v 0.074654 -0.294831 0.250000
v 0.805423 -0.294831 0.250000
v 0.805423 0.205169 -0.250000
v 0.074654 0.205169 -0.250000
v 0.805423 -0.294831 -0.250000
v 0.074654 -0.294831 -0.250000
v 0.805423 0.205169 -0.250000
v 0.805423 0.205169 0.250000
v 0.074654 0.205169 -0.250000
v 0.074654 0.205169 0.250000
v 0.074654 -0.294831 -0.250000
v 0.074654 -0.294831 0.250000
v 0.805423 -0.294831 -0.250000
v 0.805423 -0.294831 0.250000
v 0.074654 0.205169 -0.250000
v 0.074654 0.205169 0.250000
v 0.074654 -0.294831 -0.250000
v 0.074654 -0.294831 0.250000
v 0.805423 0.205169 0.250000
v 0.805423 0.205169 -0.250000
v 0.805423 -0.294831 0.250000
v 0.805423 -0.294831 -0.250000
vn -0.0000 -0.0000 1.0000
vn -0.0000 -0.0000 -1.0000
vn -0.0000 1.0000 -0.0000
vn -0.0000 -1.0000 -0.0000
vn -1.0000 -0.0000 -0.0000
vn 1.0000 -0.0000 -0.0000
vt 0.000000 0.437500
vt 0.000000 0.406250
vt 0.031250 0.437500
vt 0.031250 0.406250
vt 0.062500 0.437500
vt 0.062500 0.406250
vt 0.093750 0.437500
vt 0.093750 0.406250
vt 0.593750 0.906250
vt 0.593750 0.937500
vt 0.562500 0.906250
vt 0.562500 0.937500
vt 0.156250 0.437500
vt 0.156250 0.406250
vt 0.125000 0.437500
vt 0.125000 0.406250
vt 0.562500 1.000000
vt 0.562500 0.968750
vt 0.593750 1.000000
vt 0.593750 0.968750
vt 0.500000 0.500000
vt 0.500000 0.468750
vt 0.531250 0.500000
vt 0.531250 0.468750
vt 0.437500 0.812500
vt 0.437500 0.781250
vt 0.500000 0.812500
vt 0.500000 0.781250
vt 0.250000 0.562500
vt 0.250000 0.531250
vt 0.312500 0.562500
vt 0.312500 0.531250
vt 0.343750 0.500000
vt 0.343750 0.562500
vt 0.312500 0.500000
vt 0.406250 0.562500
vt 0.406250 0.500000
vt 0.375000 0.562500
vt 0.375000 0.500000
vt 0.500000 0.562500
vt 0.500000 0.531250
vt 0.531250 0.562500
vt 0.531250 0.531250
vt 0.437500 0.500000
vt 0.437500 0.468750
vt 0.468750 0.500000
vt 0.468750 0.468750
s 0
usemtl Material_0.002
f 1/1/1 3/2/1 2/3/1
f 3/2/1 4/4/1 2/3/1
f 5/5/2 7/6/2 6/7/2
f 7/6/2 8/8/2 6/7/2
f 9/9/3 11/10/3 10/11/3
f 11/10/3 12/12/3 10/11/3
f 13/13/4 15/14/4 14/15/4
f 15/14/4 16/16/4 14/15/4
f 17/17/5 19/18/5 18/19/5
f 19/18/5 20/20/5 18/19/5
f 21/21/6 23/22/6 22/23/6
f 23/22/6 24/24/6 22/23/6
f 25/25/1 27/26/1 26/27/1
f 27/26/1 28/28/1 26/27/1
f 29/29/2 31/30/2 30/31/2
f 31/30/2 32/32/2 30/31/2
f 33/33/3 35/34/3 34/35/3
f 35/34/3 36/31/3 34/35/3
f 37/36/4 39/37/4 38/38/4
f 39/37/4 40/39/4 38/38/4
f 41/40/5 43/41/5 42/42/5
f 43/41/5 44/43/5 42/42/5
f 45/44/6 47/45/6 46/46/6
f 47/45/6 48/47/6 46/46/6
o bulletModel_2
v 0.593885 -0.217908 0.211538
v 0.978500 -0.217908 0.211538
v 0.593885 -0.640985 0.211538
v 0.978500 -0.640985 0.211538
v 0.978500 -0.217908 -0.211539
v 0.593885 -0.217908 -0.211539
v 0.978500 -0.640985 -0.211539
v 0.593885 -0.640985 -0.211539
v 0.978500 -0.217908 -0.211539
v 0.978500 -0.217908 0.211538
v 0.593885 -0.217908 -0.211539
v 0.593885 -0.217908 0.211538
v 0.593885 -0.640985 -0.211539
v 0.593885 -0.640985 0.211538
v 0.978500 -0.640985 -0.211539
v 0.978500 -0.640985 0.211538
v 0.593885 -0.217908 -0.211539
v 0.593885 -0.217908 0.211538
v 0.593885 -0.640985 -0.211539
v 0.593885 -0.640985 0.211538
v 0.978500 -0.217908 0.211538
v 0.978500 -0.217908 -0.211539
v 0.978500 -0.640985 0.211538
v 0.978500 -0.640985 -0.211539
v -0.059961 -0.179446 0.250000
v 0.670808 -0.179446 0.250000
v -0.059961 -0.679446 0.250000
v 0.670808 -0.679446 0.250000
v 0.670808 -0.179446 -0.250000
v -0.059962 -0.179446 -0.250000
v 0.670808 -0.679446 -0.250000
v -0.059962 -0.679446 -0.250000
v 0.670808 -0.179446 -0.250000
v 0.670808 -0.179446 0.250000
v -0.059962 -0.179446 -0.250000
v -0.059961 -0.179446 0.250000
v -0.059962 -0.679446 -0.250000
v -0.059961 -0.679446 0.250000
v 0.670808 -0.679446 -0.250000
v 0.670808 -0.679446 0.250000
v -0.059962 -0.179446 -0.250000
v -0.059961 -0.179446 0.250000
v -0.059962 -0.679446 -0.250000
v -0.059961 -0.679446 0.250000
v 0.670808 -0.179446 0.250000
v 0.670808 -0.179446 -0.250000
v 0.670808 -0.679446 0.250000
v 0.670808 -0.679446 -0.250000
vn -0.0000 -0.0000 1.0000
vn -0.0000 -0.0000 -1.0000
vn -0.0000 1.0000 -0.0000
vn -0.0000 -1.0000 -0.0000
vn -1.0000 -0.0000 -0.0000
vn 1.0000 -0.0000 -0.0000
vt 0.250000 0.437500
vt 0.250000 0.406250
vt 0.281250 0.437500
vt 0.281250 0.406250
vt 0.312500 0.437500
vt 0.312500 0.406250
vt 0.343750 0.437500
vt 0.343750 0.406250
vt 0.593750 0.656250
vt 0.593750 0.687500
vt 0.562500 0.656250
vt 0.562500 0.687500
vt 0.406250 0.437500
vt 0.406250 0.406250
vt 0.375000 0.437500
vt 0.375000 0.406250
vt 0.562500 0.750000
vt 0.562500 0.718750
vt 0.593750 0.750000
vt 0.593750 0.718750
vt 0.562500 0.812500
vt 0.562500 0.781250
vt 0.593750 0.812500
vt 0.593750 0.781250
vt 0.437500 0.625000
vt 0.437500 0.593750
vt 0.500000 0.625000
vt 0.500000 0.593750
vt 0.437500 0.562500
vt 0.437500 0.531250
vt 0.500000 0.562500
vt 0.500000 0.531250
vt 0.031250 0.437500
vt 0.031250 0.500000
vt 0.000000 0.437500
vt 0.000000 0.500000
vt 0.531250 1.000000
vt 0.531250 0.937500
vt 0.500000 1.000000
vt 0.500000 0.937500
vt 0.187500 0.437500
vt 0.187500 0.406250
vt 0.218750 0.437500
vt 0.218750 0.406250
vt 0.562500 0.875000
vt 0.562500 0.843750
vt 0.593750 0.875000
vt 0.593750 0.843750
s 0
usemtl Material_0.002
f 49/48/7 51/49/7 50/50/7
f 51/49/7 52/51/7 50/50/7
f 53/52/8 55/53/8 54/54/8
f 55/53/8 56/55/8 54/54/8
f 57/56/9 59/57/9 58/58/9
f 59/57/9 60/59/9 58/58/9
f 61/60/10 63/61/10 62/62/10
f 63/61/10 64/63/10 62/62/10
f 65/64/11 67/65/11 66/66/11
f 67/65/11 68/67/11 66/66/11
f 69/68/12 71/69/12 70/70/12
f 71/69/12 72/71/12 70/70/12
f 73/72/7 75/73/7 74/74/7
f 75/73/7 76/75/7 74/74/7
f 77/76/8 79/77/8 78/78/8
f 79/77/8 80/79/8 78/78/8
f 81/80/9 83/81/9 82/82/9
f 83/81/9 84/83/9 82/82/9
f 85/84/10 87/85/10 86/86/10
f 87/85/10 88/87/10 86/86/10
f 89/88/11 91/89/11 90/90/11
f 91/89/11 92/91/11 90/90/11
f 93/92/12 95/93/12 94/94/12
f 95/93/12 96/95/12 94/94/12
o bulletModel_3
v -0.226770 -0.530526 -0.000769
v -0.226059 -0.530820 -0.000769
v -0.373956 -0.885864 -0.000769
v -0.373245 -0.886158 -0.000769
v -0.226059 -0.530820 -0.385385
v -0.226770 -0.530526 -0.385385
v -0.373245 -0.886158 -0.385385
v -0.373956 -0.885864 -0.385385
v -0.226059 -0.530820 -0.385385
v -0.226059 -0.530820 -0.000769
v -0.226770 -0.530526 -0.385385
v -0.226770 -0.530526 -0.000769
v -0.373956 -0.885864 -0.385385
v -0.373956 -0.885864 -0.000769
v -0.373245 -0.886158 -0.385385
v -0.373245 -0.886158 -0.000769
v -0.226770 -0.530526 -0.385385
v -0.226770 -0.530526 -0.000769
v -0.373956 -0.885864 -0.385385
v -0.373956 -0.885864 -0.000769
v -0.226059 -0.530820 -0.000769
v -0.226059 -0.530820 -0.385385
v -0.373245 -0.886158 -0.000769
v -0.373245 -0.886158 -0.385385
vn -0.0000 -0.0000 1.0000
vn -0.0000 -0.0000 -1.0000
vn 0.3827 0.9239 -0.0000
vn -0.3827 -0.9239 -0.0000
vn -0.9239 0.3827 -0.0000
vn 0.9239 -0.3827 -0.0000
vt 0.000000 1.000000
vt 0.000000 0.968750
vt 0.031250 1.000000
vt 0.500000 0.875000
vt 0.500000 0.843750
vt 0.531250 0.875000
vt 0.531250 0.843750
vt 0.125000 0.500000
vt 0.125000 0.468750
vt 0.156250 0.500000
vt 0.156250 0.468750
s 0
usemtl Material_0.002
f 97/96/13 99/97/13 98/96/13
f 99/97/13 100/97/13 98/96/13
f 101/96/14 103/97/14 102/96/14
f 103/97/14 104/97/14 102/96/14
f 105/98/15 107/98/15 106/96/15
f 107/98/15 108/96/15 106/96/15
f 109/98/16 111/98/16 110/96/16
f 111/98/16 112/96/16 110/96/16
f 113/99/17 115/100/17 114/101/17
f 115/100/17 116/102/17 114/101/17
f 117/103/18 119/104/18 118/105/18
f 119/104/18 120/106/18 118/105/18
o bulletModel_11
v -0.815514 -1.951879 -0.000769
v -0.814803 -1.952173 -0.000769
v -0.962700 -2.307217 -0.000769
v -0.961989 -2.307512 -0.000769
v -0.814803 -1.952173 -0.385385
v -0.815514 -1.951879 -0.385385
v -0.961989 -2.307512 -0.385385
v -0.962700 -2.307217 -0.385385
v -0.814803 -1.952173 -0.385385
v -0.814803 -1.952173 -0.000769
v -0.815514 -1.951879 -0.385385
v -0.815514 -1.951879 -0.000769
v -0.962700 -2.307217 -0.385385
v -0.962700 -2.307217 -0.000769
v -0.961989 -2.307512 -0.385385
v -0.961989 -2.307512 -0.000769
v -0.815514 -1.951879 -0.385385
v -0.815514 -1.951879 -0.000769
v -0.962700 -2.307217 -0.385385
v -0.962700 -2.307217 -0.000769
v -0.814803 -1.952173 -0.000769
v -0.814803 -1.952173 -0.385385
v -0.961989 -2.307512 -0.000769
v -0.961989 -2.307512 -0.385385
vn -0.0000 -0.0000 1.0000
vn -0.0000 -0.0000 -1.0000
vn 0.3827 0.9239 -0.0000
vn -0.3827 -0.9239 -0.0000
vn -0.9239 0.3827 -0.0000
vn 0.9239 -0.3827 -0.0000
vt 0.000000 1.000000
vt 0.000000 0.968750
vt 0.031250 1.000000
vt 0.500000 0.812500
vt 0.500000 0.781250
vt 0.531250 0.812500
vt 0.531250 0.781250
vt 0.187500 0.500000
vt 0.187500 0.468750
vt 0.218750 0.500000
vt 0.218750 0.468750
s 0
usemtl Material_0.002
f 121/107/19 123/108/19 122/107/19
f 123/108/19 124/108/19 122/107/19
f 125/107/20 127/108/20 126/107/20
f 127/108/20 128/108/20 126/107/20
f 129/109/21 131/109/21 130/107/21
f 131/109/21 132/107/21 130/107/21
f 133/109/22 135/109/22 134/107/22
f 135/109/22 136/107/22 134/107/22
f 137/110/23 139/111/23 138/112/23
f 139/111/23 140/113/23 138/112/23
f 141/114/24 143/115/24 142/116/24
f 143/115/24 144/117/24 142/116/24
o bulletModel_7
v -0.521142 -1.241202 -0.000769
v -0.520431 -1.241497 -0.000769
v -0.668328 -1.596541 -0.000769
v -0.667617 -1.596835 -0.000769
v -0.520431 -1.241497 -0.385385
v -0.521142 -1.241202 -0.385385
v -0.667617 -1.596835 -0.385385
v -0.668328 -1.596541 -0.385385
v -0.520431 -1.241497 -0.385385
v -0.520431 -1.241497 -0.000769
v -0.521142 -1.241202 -0.385385
v -0.521142 -1.241202 -0.000769
v -0.668328 -1.596541 -0.385385
v -0.668328 -1.596541 -0.000769
v -0.667617 -1.596835 -0.385385
v -0.667617 -1.596835 -0.000769
v -0.521142 -1.241202 -0.385385
v -0.521142 -1.241202 -0.000769
v -0.668328 -1.596541 -0.385385
v -0.668328 -1.596541 -0.000769
v -0.520431 -1.241497 -0.000769
v -0.520431 -1.241497 -0.385385
v -0.667617 -1.596835 -0.000769
v -0.667617 -1.596835 -0.385385
vn -0.0000 -0.0000 1.0000
vn -0.0000 -0.0000 -1.0000
vn 0.3827 0.9239 -0.0000
vn -0.3827 -0.9239 -0.0000
vn -0.9239 0.3827 -0.0000
vn 0.9239 -0.3827 -0.0000
vt 0.000000 1.000000
vt 0.000000 0.968750
vt 0.031250 1.000000
vt 0.500000 0.750000
vt 0.500000 0.718750
vt 0.531250 0.750000
vt 0.531250 0.718750
vt 0.250000 0.500000
vt 0.250000 0.468750
vt 0.281250 0.500000
vt 0.281250 0.468750
s 0
usemtl Material_0.002
f 145/118/25 147/119/25 146/118/25
f 147/119/25 148/119/25 146/118/25
f 149/118/26 151/119/26 150/118/26
f 151/119/26 152/119/26 150/118/26
f 153/120/27 155/120/27 154/118/27
f 155/120/27 156/118/27 154/118/27
f 157/120/28 159/120/28 158/118/28
f 159/120/28 160/118/28 158/118/28
f 161/121/29 163/122/29 162/123/29
f 163/122/29 164/124/29 162/123/29
f 165/125/30 167/126/30 166/127/30
f 167/126/30 168/128/30 166/127/30
o bulletModel_10
v -0.668328 -1.596541 0.383846
v -0.667617 -1.596835 0.383846
v -0.815514 -1.951879 0.383846
v -0.814803 -1.952173 0.383846
v -0.667617 -1.596835 -0.000769
v -0.668328 -1.596541 -0.000769
v -0.814803 -1.952173 -0.000769
v -0.815514 -1.951879 -0.000769
v -0.667617 -1.596835 -0.000769
v -0.667617 -1.596835 0.383846
v -0.668328 -1.596541 -0.000769
v -0.668328 -1.596541 0.383846
v -0.815514 -1.951879 -0.000769
v -0.815514 -1.951879 0.383846
v -0.814803 -1.952173 -0.000769
v -0.814803 -1.952173 0.383846
v -0.668328 -1.596541 -0.000769
v -0.668328 -1.596541 0.383846
v -0.815514 -1.951879 -0.000769
v -0.815514 -1.951879 0.383846
v -0.667617 -1.596835 0.383846
v -0.667617 -1.596835 -0.000769
v -0.814803 -1.952173 0.383846
v -0.814803 -1.952173 -0.000769
vn -0.0000 -0.0000 1.0000
vn -0.0000 -0.0000 -1.0000
vn 0.3827 0.9239 -0.0000
vn -0.3827 -0.9239 -0.0000
vn -0.9239 0.3827 -0.0000
vn 0.9239 -0.3827 -0.0000
vt 0.000000 1.000000
vt 0.000000 0.968750
vt 0.031250 1.000000
vt 0.500000 0.687500
vt 0.500000 0.656250
vt 0.531250 0.687500
vt 0.531250 0.656250
vt 0.312500 0.500000
vt 0.312500 0.468750
vt 0.343750 0.500000
vt 0.343750 0.468750
s 0
usemtl Material_0.002
f 169/129/31 171/130/31 170/129/31
f 171/130/31 172/130/31 170/129/31
f 173/129/32 175/130/32 174/129/32
f 175/130/32 176/130/32 174/129/32
f 177/131/33 179/131/33 178/129/33
f 179/131/33 180/129/33 178/129/33
f 181/131/34 183/131/34 182/129/34
f 183/131/34 184/129/34 182/129/34
f 185/132/35 187/133/35 186/134/35
f 187/133/35 188/135/35 186/134/35
f 189/136/36 191/137/36 190/138/36
f 191/137/36 192/139/36 190/138/36
o bulletModel_6
v -0.373956 -0.885864 0.383846
v -0.373245 -0.886158 0.383846
v -0.521142 -1.241202 0.383846
v -0.520431 -1.241497 0.383846
v -0.373245 -0.886158 -0.000769
v -0.373956 -0.885864 -0.000769
v -0.520431 -1.241497 -0.000769
v -0.521142 -1.241202 -0.000769
v -0.373245 -0.886158 -0.000769
v -0.373245 -0.886158 0.383846
v -0.373956 -0.885864 -0.000769
v -0.373956 -0.885864 0.383846
v -0.521142 -1.241202 -0.000769
v -0.521142 -1.241202 0.383846
v -0.520431 -1.241497 -0.000769
v -0.520431 -1.241497 0.383846
v -0.373956 -0.885864 -0.000769
v -0.373956 -0.885864 0.383846
v -0.521142 -1.241202 -0.000769
v -0.521142 -1.241202 0.383846
v -0.373245 -0.886158 0.383846
v -0.373245 -0.886158 -0.000769
v -0.520431 -1.241497 0.383846
v -0.520431 -1.241497 -0.000769
vn -0.0000 -0.0000 1.0000
vn -0.0000 -0.0000 -1.0000
vn 0.3827 0.9239 -0.0000
vn -0.3827 -0.9239 -0.0000
vn -0.9239 0.3827 -0.0000
vn 0.9239 -0.3827 -0.0000
vt 0.000000 1.000000
vt 0.000000 0.968750
vt 0.031250 1.000000
vt 0.500000 0.937500
vt 0.500000 0.906250
vt 0.531250 0.937500
vt 0.531250 0.906250
vt 0.062500 0.500000
vt 0.062500 0.468750
vt 0.093750 0.500000
vt 0.093750 0.468750
s 0
usemtl Material_0.002
f 193/140/37 195/141/37 194/140/37
f 195/141/37 196/141/37 194/140/37
f 197/140/38 199/141/38 198/140/38
f 199/141/38 200/141/38 198/140/38
f 201/142/39 203/142/39 202/140/39
f 203/142/39 204/140/39 202/140/39
f 205/142/40 207/142/40 206/140/40
f 207/142/40 208/140/40 206/140/40
f 209/143/41 211/144/41 210/145/41
f 211/144/41 212/146/41 210/145/41
f 213/147/42 215/148/42 214/149/42
f 215/148/42 216/150/42 214/149/42
o bulletModel_14
v -0.962700 -2.307217 0.383846
v -0.961989 -2.307512 0.383846
v -1.109886 -2.662556 0.383846
v -1.109175 -2.662850 0.383846
v -0.961989 -2.307512 -0.000769
v -0.962700 -2.307217 -0.000769
v -1.109175 -2.662850 -0.000769
v -1.109886 -2.662556 -0.000769
v -0.961989 -2.307512 -0.000769
v -0.961989 -2.307512 0.383846
v -0.962700 -2.307217 -0.000769
v -0.962700 -2.307217 0.383846
v -1.109886 -2.662556 -0.000769
v -1.109886 -2.662556 0.383846
v -1.109175 -2.662850 -0.000769
v -1.109175 -2.662850 0.383846
v -0.962700 -2.307217 -0.000769
v -0.962700 -2.307217 0.383846
v -1.109886 -2.662556 -0.000769
v -1.109886 -2.662556 0.383846
v -0.961989 -2.307512 0.383846
v -0.961989 -2.307512 -0.000769
v -1.109175 -2.662850 0.383846
v -1.109175 -2.662850 -0.000769
vn -0.0000 -0.0000 1.0000
vn -0.0000 -0.0000 -1.0000
vn 0.3827 0.9239 -0.0000
vn -0.3827 -0.9239 -0.0000
vn -0.9239 0.3827 -0.0000
vn 0.9239 -0.3827 -0.0000
vt 0.000000 1.000000
vt 0.000000 0.968750
vt 0.031250 1.000000
vt 0.500000 0.687500
vt 0.500000 0.656250
vt 0.531250 0.687500
vt 0.531250 0.656250
vt 0.312500 0.500000
vt 0.312500 0.468750
vt 0.343750 0.500000
vt 0.343750 0.468750
s 0
usemtl Material_0.002
f 217/151/43 219/152/43 218/151/43
f 219/152/43 220/152/43 218/151/43
f 221/151/44 223/152/44 222/151/44
f 223/152/44 224/152/44 222/151/44
f 225/153/45 227/153/45 226/151/45
f 227/153/45 228/151/45 226/151/45
f 229/153/46 231/153/46 230/151/46
f 231/153/46 232/151/46 230/151/46
f 233/154/47 235/155/47 234/156/47
f 235/155/47 236/157/47 234/156/47
f 237/158/48 239/159/48 238/160/48
f 239/159/48 240/161/48 238/160/48
o ammoModel
v -1.250369 -3.020638 0.584615
v 0.115015 -3.020638 0.584615
v -1.250369 -3.412946 0.584615
v 0.115015 -3.412946 0.584615
v 0.115015 -3.020638 -0.600000
v -1.250369 -3.020638 -0.600000
v 0.115015 -3.412946 -0.600000
v -1.250369 -3.412946 -0.600000
v 0.115015 -3.020638 -0.600000
v 0.115015 -3.020638 0.584615
v -1.250369 -3.020638 -0.600000
v -1.250369 -3.020638 0.584615
v -1.250369 -3.412946 -0.600000
v -1.250369 -3.412946 0.584615
v 0.115015 -3.412946 -0.600000
v 0.115015 -3.412946 0.584615
v -1.250369 -3.020638 -0.600000
v -1.250369 -3.020638 0.584615
v -1.250369 -3.412946 -0.600000
v -1.250369 -3.412946 0.584615
v 0.115015 -3.020638 0.584615
v 0.115015 -3.020638 -0.600000
v 0.115015 -3.412946 0.584615
v 0.115015 -3.412946 -0.600000
v -0.072882 -0.177964 0.383846
v 0.993132 -0.619521 0.383846
v -1.250370 -3.020670 0.383846
v -0.184355 -3.462228 0.383846
v 0.993132 -0.619521 -0.385385
v -0.072882 -0.177964 -0.385385
v -0.184355 -3.462228 -0.385385
v -1.250370 -3.020670 -0.385385
v 0.993132 -0.619521 -0.385385
v 0.993132 -0.619521 0.383846
v -0.072882 -0.177964 -0.385385
v -0.072882 -0.177964 0.383846
v -1.250370 -3.020670 -0.385385
v -1.250370 -3.020670 0.383846
v -0.184355 -3.462228 -0.385385
v -0.184355 -3.462228 0.383846
v -0.072882 -0.177964 -0.385385
v -0.072882 -0.177964 0.383846
v -1.250370 -3.020670 -0.385385
v -1.250370 -3.020670 0.383846
v 0.993132 -0.619521 0.383846
v 0.993132 -0.619521 -0.385385
v -0.184355 -3.462228 0.383846
v -0.184355 -3.462228 -0.385385
v 1.139608 -0.263889 0.307692
v 1.140318 -0.264183 0.307692
v 0.992422 -0.619227 0.307692
v 0.993132 -0.619521 0.307692
v 1.140318 -0.264183 -0.307692
v 1.139608 -0.263889 -0.307692
v 0.993132 -0.619521 -0.307692
v 0.992422 -0.619227 -0.307692
v 1.140318 -0.264183 -0.307692
v 1.140318 -0.264183 0.307692
v 1.139608 -0.263889 -0.307692
v 1.139608 -0.263889 0.307692
v 0.992422 -0.619227 -0.307692
v 0.992422 -0.619227 0.307692
v 0.993132 -0.619521 -0.307692
v 0.993132 -0.619521 0.307692
v 1.139608 -0.263889 -0.307692
v 1.139608 -0.263889 0.307692
v 0.992422 -0.619227 -0.307692
v 0.992422 -0.619227 0.307692
v 1.140318 -0.264183 0.307692
v 1.140318 -0.264183 -0.307692
v 0.993132 -0.619521 0.307692
v 0.993132 -0.619521 -0.307692
v 0.147897 0.355044 -0.306923
v 1.213911 -0.086514 -0.306923
v -0.072882 -0.177964 -0.306923
v 0.993132 -0.619521 -0.306923
v 1.213911 -0.086514 -0.307692
v 0.147897 0.355044 -0.307692
v 0.993132 -0.619521 -0.307692
v -0.072882 -0.177964 -0.307692
v 1.213911 -0.086514 -0.307692
v 1.213911 -0.086514 -0.306923
v 0.147897 0.355044 -0.307692
v 0.147897 0.355044 -0.306923
v -0.072882 -0.177964 -0.307692
v -0.072882 -0.177964 -0.306923
v 0.993132 -0.619521 -0.307692
v 0.993132 -0.619521 -0.306923
v 0.147897 0.355044 -0.307692
v 0.147897 0.355044 -0.306923
v -0.072882 -0.177964 -0.307692
v -0.072882 -0.177964 -0.306923
v 1.213911 -0.086514 -0.306923
v 1.213911 -0.086514 -0.307692
v 0.993132 -0.619521 -0.306923
v 0.993132 -0.619521 -0.307692
v 0.147897 0.355044 0.308462
v 1.213911 -0.086514 0.308461
v -0.072882 -0.177964 0.308462
v 0.993132 -0.619521 0.308461
v 1.213911 -0.086514 0.307692
v 0.147897 0.355044 0.307692
v 0.993132 -0.619521 0.307692
v -0.072882 -0.177964 0.307692
v 1.213911 -0.086514 0.307692
v 1.213911 -0.086514 0.308461
v 0.147897 0.355044 0.307692
v 0.147897 0.355044 0.308462
v -0.072882 -0.177964 0.307692
v -0.072882 -0.177964 0.308462
v 0.993132 -0.619521 0.307692
v 0.993132 -0.619521 0.308461
v 0.147897 0.355044 0.307692
v 0.147897 0.355044 0.308462
v -0.072882 -0.177964 0.307692
v -0.072882 -0.177964 0.308462
v 1.213911 -0.086514 0.308461
v 1.213911 -0.086514 0.307692
v 0.993132 -0.619521 0.308461
v 0.993132 -0.619521 0.307692
v -0.392508 -2.959703 0.383846
v -0.037169 -3.106889 0.383846
v -0.466100 -3.137372 0.383846
v -0.110762 -3.284559 0.383846
v -0.037169 -3.106889 -0.385385
v -0.392508 -2.959703 -0.385385
v -0.110762 -3.284559 -0.385385
v -0.466100 -3.137372 -0.385385
v -0.037169 -3.106889 -0.385385
v -0.037169 -3.106889 0.383846
v -0.392508 -2.959703 -0.385385
v -0.392508 -2.959703 0.383846
v -0.466100 -3.137372 -0.385385
v -0.466100 -3.137372 0.383846
v -0.110762 -3.284559 -0.385385
v -0.110762 -3.284559 0.383846
v -0.392508 -2.959703 -0.385385
v -0.392508 -2.959703 0.383846
v -0.466100 -3.137372 -0.385385
v -0.466100 -3.137372 0.383846
v -0.037169 -3.106889 0.383846
v -0.037169 -3.106889 -0.385385
v -0.110762 -3.284559 0.383846
v -0.110762 -3.284559 -0.385385
vn -0.0000 -0.0000 1.0000
vn -0.0000 -0.0000 -1.0000
vn -0.0000 1.0000 -0.0000
vn -0.0000 -1.0000 -0.0000
vn -1.0000 -0.0000 -0.0000
vn 1.0000 -0.0000 -0.0000
vn 0.3827 0.9239 -0.0000
vn -0.3827 -0.9239 -0.0000
vn -0.9239 0.3827 -0.0000
vn 0.9239 -0.3827 -0.0000
vn -0.0001 -0.0000 1.0000
vn -0.0001 -0.0000 -1.0000
vn -0.3826 -0.9239 -0.0000
vt 0.125000 0.625000
vt 0.125000 0.593750
vt 0.218750 0.625000
vt 0.218750 0.593750
vt 0.281250 0.625000
vt 0.281250 0.593750
vt 0.375000 0.625000
vt 0.375000 0.593750
vt 0.156250 0.656250
vt 0.156250 0.750000
vt 0.062500 0.656250
vt 0.062500 0.750000
vt 0.281250 0.750000
vt 0.281250 0.656250
vt 0.187500 0.750000
vt 0.187500 0.656250
vt 0.375000 0.687500
vt 0.375000 0.656250
vt 0.468750 0.687500
vt 0.468750 0.656250
vt 0.375000 0.750000
vt 0.375000 0.718750
vt 0.468750 0.750000
vt 0.468750 0.718750
vt 0.000000 1.000000
vt 0.000000 0.750000
vt 0.093750 1.000000
vt 0.093750 0.750000
vt 0.125000 1.000000
vt 0.125000 0.750000
vt 0.218750 1.000000
vt 0.218750 0.750000
vt 0.312500 0.656250
vt 0.312500 0.750000
vt 0.125000 0.531250
vt 0.062500 0.625000
vt 0.062500 0.531250
vt 0.250000 1.000000
vt 0.250000 0.750000
vt 0.312500 1.000000
vt 0.000000 0.500000
vt 0.062500 0.500000
vt 0.000000 0.968750
vt 0.062500 1.000000
vt 0.437500 1.000000
vt 0.437500 0.968750
vt 0.500000 1.000000
vt 0.500000 0.968750
vt 0.437500 0.625000
vt 0.437500 0.593750
vt 0.406250 0.937500
vt 0.406250 0.875000
vt 0.312500 0.937500
vt 0.312500 0.875000
vt 0.312500 0.921875
vt 0.406250 0.921875
vt 0.000000 0.906250
vt 0.000000 0.937500
vt 0.312500 0.859375
vt 0.312500 0.812500
vt 0.406250 0.859375
vt 0.406250 0.812500
vt 0.375000 0.500000
vt 0.375000 0.468750
vt 0.406250 0.500000
vt 0.406250 0.468750
vt 0.500000 0.625000
vt 0.500000 0.593750
vt 0.531250 0.625000
vt 0.531250 0.593750
vt 0.500000 0.843750
vt 0.500000 0.875000
vt 0.437500 0.843750
vt 0.437500 0.875000
vt 0.250000 0.562500
vt 0.250000 0.531250
vt 0.187500 0.562500
vt 0.187500 0.531250
vt 0.125000 0.562500
vt 0.437500 0.937500
vt 0.437500 0.906250
vt 0.500000 0.937500
vt 0.500000 0.906250
s 0
usemtl Material_0.007
f 241/162/49 243/163/49 242/164/49
f 243/163/49 244/165/49 242/164/49
f 245/166/50 247/167/50 246/168/50
f 247/167/50 248/169/50 246/168/50
f 249/170/51 251/171/51 250/172/51
f 251/171/51 252/173/51 250/172/51
f 253/174/52 255/175/52 254/176/52
f 255/175/52 256/177/52 254/176/52
f 257/178/53 259/179/53 258/180/53
f 259/179/53 260/181/53 258/180/53
f 261/182/54 263/183/54 262/184/54
f 263/183/54 264/185/54 262/184/54
f 265/186/49 267/187/49 266/188/49
f 267/187/49 268/189/49 266/188/49
f 269/190/50 271/191/50 270/192/50
f 271/191/50 272/193/50 270/192/50
f 273/179/55 275/182/55 274/194/55
f 275/182/55 276/195/55 274/194/55
f 277/162/56 279/196/56 278/197/56
f 279/196/56 280/198/56 278/197/56
f 281/199/57 283/200/57 282/201/57
f 283/200/57 284/195/57 282/201/57
f 285/187/58 287/202/58 286/173/58
f 287/202/58 288/203/58 286/173/58
f 289/186/59 291/204/59 290/186/59
f 291/204/49 292/204/49 290/186/49
f 293/186/50 295/204/50 294/186/50
f 295/204/60 296/204/60 294/186/60
f 297/205/55 299/205/55 298/186/55
f 299/205/55 300/186/55 298/186/55
f 301/205/61 303/205/61 302/186/61
f 303/205/61 304/186/61 302/186/61
f 305/206/57 307/207/57 306/208/57
f 307/207/57 308/209/57 306/208/57
f 309/168/58 311/169/58 310/210/58
f 311/169/58 312/211/58 310/210/58
f 313/212/49 315/213/49 314/214/49
f 315/213/49 316/215/49 314/214/49
f 317/216/50 319/215/50 318/217/50
f 319/215/50 320/213/50 318/217/50
f 321/218/55 323/186/55 322/218/55
f 323/186/55 324/186/55 322/218/55
f 325/186/56 327/218/56 326/186/56
f 327/218/56 328/218/56 326/186/56
f 329/186/57 331/219/57 330/186/57
f 331/219/57 332/219/57 330/186/57
f 333/186/58 335/219/58 334/186/58
f 335/219/58 336/219/58 334/186/58
f 337/220/49 339/221/49 338/222/49
f 339/221/49 340/223/49 338/222/49
f 341/222/50 343/223/50 342/220/50
f 343/223/50 344/221/50 342/220/50
f 345/218/55 347/186/55 346/218/55
f 347/186/55 348/186/55 346/218/55
f 349/186/56 351/218/56 350/186/56
f 351/218/56 352/218/56 350/186/56
f 353/186/57 355/219/57 354/186/57
f 355/219/57 356/219/57 354/186/57
f 357/186/58 359/219/58 358/186/58
f 359/219/58 360/219/58 358/186/58
f 361/224/49 363/225/49 362/226/49
f 363/225/49 364/227/49 362/226/49
f 365/228/50 367/229/50 366/230/50
f 367/229/50 368/231/50 366/230/50
f 369/232/55 371/233/55 370/234/55
f 371/233/55 372/235/55 370/234/55
f 373/236/56 375/237/56 374/238/56
f 375/237/56 376/239/56 374/238/56
f 377/240/57 379/196/57 378/238/57
f 379/196/57 380/239/57 378/238/57
f 381/241/58 383/242/58 382/243/58
f 383/242/58 384/244/58 382/243/58
