# Blender 4.4.1
# www.blender.org
mtllib lev.m700mag10.mtl
o ammoModel
v -0.000000 0.000000 -0.383846
v 2.307692 0.000000 -0.383847
v -0.000000 -4.615385 -0.383846
v 2.307692 -4.615385 -0.383847
v 2.307692 0.000000 -0.384616
v -0.000000 0.000000 -0.384615
v 2.307692 -4.615385 -0.384616
v -0.000000 -4.615385 -0.384615
v 2.307692 0.000000 -0.384616
v 2.307692 0.000000 -0.383847
v -0.000000 0.000000 -0.384615
v -0.000000 0.000000 -0.383846
v -0.000000 -4.615385 -0.384615
v -0.000000 -4.615385 -0.383846
v 2.307692 -4.615385 -0.384616
v 2.307692 -4.615385 -0.383847
v -0.000000 0.000000 -0.384615
v -0.000000 0.000000 -0.383846
v -0.000000 -4.615385 -0.384615
v -0.000000 -4.615385 -0.383846
v 2.307692 0.000000 -0.383847
v 2.307692 0.000000 -0.384616
v 2.307692 -4.615385 -0.383847
v 2.307692 -4.615385 -0.384616
v 0.000000 -4.614615 0.384615
v 2.307692 -4.614615 0.384615
v 0.000000 -4.615385 0.384615
v 2.307692 -4.615385 0.384615
v 2.307692 -4.614615 -0.384616
v -0.000000 -4.614615 -0.384615
v 2.307692 -4.615385 -0.384616
v -0.000000 -4.615385 -0.384615
v 2.307692 -4.614615 -0.384616
v 2.307692 -4.614615 0.384615
v -0.000000 -4.614615 -0.384615
v 0.000000 -4.614615 0.384615
v -0.000000 -4.615385 -0.384615
v 0.000000 -4.615385 0.384615
v 2.307692 -4.615385 -0.384616
v 2.307692 -4.615385 0.384615
v -0.000000 -4.614615 -0.384615
v 0.000000 -4.614615 0.384615
v -0.000000 -4.615385 -0.384615
v 0.000000 -4.615385 0.384615
v 2.307692 -4.614615 0.384615
v 2.307692 -4.614615 -0.384616
v 2.307692 -4.615385 0.384615
v 2.307692 -4.615385 -0.384616
v -0.000769 0.000000 0.384615
v 0.000000 0.000000 0.384615
v -0.000769 -4.615385 0.384615
v 0.000000 -4.615385 0.384615
v -0.000000 0.000000 -0.384615
v -0.000769 0.000000 -0.384615
v -0.000000 -4.615385 -0.384615
v -0.000769 -4.615385 -0.384615
v -0.000000 0.000000 -0.384615
v 0.000000 0.000000 0.384615
v -0.000769 0.000000 -0.384615
v -0.000769 0.000000 0.384615
v -0.000769 -4.615385 -0.384615
v -0.000769 -4.615385 0.384615
v -0.000000 -4.615385 -0.384615
v 0.000000 -4.615385 0.384615
v -0.000769 0.000000 -0.384615
v -0.000769 0.000000 0.384615
v -0.000769 -4.615385 -0.384615
v -0.000769 -4.615385 0.384615
v 0.000000 0.000000 0.384615
v -0.000000 0.000000 -0.384615
v 0.000000 -4.615385 0.384615
v -0.000000 -4.615385 -0.384615
v 0.000000 0.000000 0.385385
v 2.307692 0.000000 0.385384
v 0.000000 -4.615385 0.385385
v 2.307692 -4.615385 0.385384
v 2.307692 0.000000 0.384615
v 0.000000 0.000000 0.384615
v 2.307692 -4.615385 0.384615
v 0.000000 -4.615385 0.384615
v 2.307692 0.000000 0.384615
v 2.307692 0.000000 0.385384
v 0.000000 0.000000 0.384615
v 0.000000 0.000000 0.385385
v 0.000000 -4.615385 0.384615
v 0.000000 -4.615385 0.385385
v 2.307692 -4.615385 0.384615
v 2.307692 -4.615385 0.385384
v 0.000000 0.000000 0.384615
v 0.000000 0.000000 0.385385
v 0.000000 -4.615385 0.384615
v 0.000000 -4.615385 0.385385
v 2.307692 0.000000 0.385384
v 2.307692 0.000000 0.384615
v 2.307692 -4.615385 0.385384
v 2.307692 -4.615385 0.384615
v 2.306923 0.000000 0.384615
v 2.307692 0.000000 0.384615
v 2.306923 -4.615385 0.384615
v 2.307692 -4.615385 0.384615
v 2.307692 0.000000 -0.384616
v 2.306923 0.000000 -0.384616
v 2.307692 -4.615385 -0.384616
v 2.306923 -4.615385 -0.384616
v 2.307692 0.000000 -0.384616
v 2.307692 0.000000 0.384615
v 2.306923 0.000000 -0.384616
v 2.306923 0.000000 0.384615
v 2.306923 -4.615385 -0.384616
v 2.306923 -4.615385 0.384615
v 2.307692 -4.615385 -0.384616
v 2.307692 -4.615385 0.384615
v 2.306923 0.000000 -0.384616
v 2.306923 0.000000 0.384615
v 2.306923 -4.615385 -0.384616
v 2.306923 -4.615385 0.384615
v 2.307692 0.000000 0.384615
v 2.307692 0.000000 -0.384616
v 2.307692 -4.615385 0.384615
v 2.307692 -4.615385 -0.384616
v 0.000000 -0.576154 0.384615
v 2.307692 -0.576154 0.384615
v 0.000000 -0.576923 0.384615
v 2.307692 -0.576923 0.384615
v 2.307692 -0.576154 -0.384616
v -0.000000 -0.576154 -0.384615
v 2.307692 -0.576923 -0.384616
v -0.000000 -0.576923 -0.384615
v 2.307692 -0.576154 -0.384616
v 2.307692 -0.576154 0.384615
v -0.000000 -0.576154 -0.384615
v 0.000000 -0.576154 0.384615
v -0.000000 -0.576923 -0.384615
v 0.000000 -0.576923 0.384615
v 2.307692 -0.576923 -0.384616
v 2.307692 -0.576923 0.384615
v -0.000000 -0.576154 -0.384615
v 0.000000 -0.576154 0.384615
v -0.000000 -0.576923 -0.384615
v 0.000000 -0.576923 0.384615
v 2.307692 -0.576154 0.384615
v 2.307692 -0.576154 -0.384616
v 2.307692 -0.576923 0.384615
v 2.307692 -0.576923 -0.384616
vn -0.0000 -0.0000 1.0000
vn -0.0000 -0.0000 -1.0000
vn -0.0000 1.0000 -0.0000
vn -0.0000 -1.0000 -0.0000
vn -1.0000 -0.0000 -0.0000
vn 1.0000 -0.0000 -0.0000
vt 0.000000 1.000000
vt 0.000000 0.625000
vt 0.187500 1.000000
vt 0.187500 0.625000
vt 0.375000 1.000000
vt 0.375000 0.625000
vt 0.000000 0.812500
vt 0.500000 0.437500
vt 0.500000 0.625000
vt 0.437500 0.437500
vt 0.437500 0.625000
vt 0.562500 0.625000
vt 0.562500 0.437500
vt 0.062500 1.000000
vt 0.250000 0.625000
vt 0.250000 0.250000
vt 0.312500 0.625000
vt 0.312500 0.250000
vt 0.187500 0.250000
vt 0.562500 1.000000
vt 0.375000 0.250000
vt 0.437500 0.250000
vt 0.625000 0.812500
vt 0.625000 1.000000
vt 0.562500 0.812500
vt 0.625000 0.625000
s 0
usemtl Material_0.002
f 1/1/1 3/2/1 2/3/1
f 3/2/1 4/4/1 2/3/1
f 5/3/2 7/4/2 6/5/2
f 7/4/2 8/6/2 6/5/2
f 9/7/3 11/1/3 10/7/3
f 11/1/3 12/1/3 10/7/3
f 13/1/4 15/7/4 14/1/4
f 15/7/4 16/7/4 14/1/4
f 17/1/5 19/2/5 18/1/5
f 19/2/5 20/2/5 18/1/5
f 21/1/6 23/2/6 22/1/6
f 23/2/6 24/2/6 22/1/6
f 25/1/1 27/1/1 26/3/1
f 27/1/1 28/3/1 26/3/1
f 29/1/2 31/1/2 30/3/2
f 31/1/2 32/3/2 30/3/2
f 33/8/3 35/9/3 34/10/3
f 35/9/3 36/11/3 34/10/3
f 37/12/4 39/13/4 38/9/4
f 39/13/4 40/8/4 38/9/4
f 41/1/5 43/1/5 42/14/5
f 43/1/5 44/14/5 42/14/5
f 45/1/6 47/1/6 46/14/6
f 47/1/6 48/14/6 46/14/6
f 49/1/1 51/2/1 50/1/1
f 51/2/1 52/2/1 50/1/1
f 53/1/2 55/2/2 54/1/2
f 55/2/2 56/2/2 54/1/2
f 57/14/3 59/14/3 58/1/3
f 59/14/3 60/1/3 58/1/3
f 61/14/4 63/14/4 62/1/4
f 63/14/4 64/1/4 62/1/4
f 65/15/5 67/16/5 66/17/5
f 67/16/5 68/18/5 66/17/5
f 69/4/6 71/19/6 70/15/6
f 71/19/6 72/16/6 70/15/6
f 73/5/1 75/6/1 74/3/1
f 75/6/1 76/4/1 74/3/1
f 77/5/2 79/6/2 78/20/2
f 79/6/2 80/12/2 78/20/2
f 81/7/3 83/1/3 82/7/3
f 83/1/3 84/1/3 82/7/3
f 85/1/4 87/7/4 86/1/4
f 87/7/4 88/7/4 86/1/4
f 89/1/5 91/2/5 90/1/5
f 91/2/5 92/2/5 90/1/5
f 93/1/6 95/2/6 94/1/6
f 95/2/6 96/2/6 94/1/6
f 97/1/1 99/2/1 98/1/1
f 99/2/1 100/2/1 98/1/1
f 101/1/2 103/2/2 102/1/2
f 103/2/2 104/2/2 102/1/2
f 105/14/3 107/14/3 106/1/3
f 107/14/3 108/1/3 106/1/3
f 109/14/4 111/14/4 110/1/4
f 111/14/4 112/1/4 110/1/4
f 113/6/5 115/21/5 114/11/5
f 115/21/5 116/22/5 114/11/5
f 117/17/6 119/18/6 118/6/6
f 119/18/6 120/21/6 118/6/6
f 121/1/1 123/1/1 122/3/1
f 123/1/1 124/3/1 122/3/1
f 125/1/2 127/1/2 126/3/2
f 127/1/2 128/3/2 126/3/2
f 129/23/3 131/24/3 130/25/3
f 131/24/3 132/20/3 130/25/3
f 133/23/4 135/26/4 134/25/4
f 135/26/4 136/12/4 134/25/4
f 137/1/5 139/1/5 138/14/5
f 139/1/5 140/14/5 138/14/5
f 141/1/6 143/1/6 142/14/6
f 143/1/6 144/14/6 142/14/6
o bulletModel_0
v 0.019231 0.115385 0.288462
v 1.538461 0.115385 0.288461
v 0.019231 -0.461538 0.288462
v 1.538461 -0.461538 0.288461
v 1.538461 0.115385 -0.288462
v 0.019231 0.115385 -0.288462
v 1.538461 -0.461538 -0.288462
v 0.019231 -0.461538 -0.288462
v 1.538461 0.115385 -0.288462
v 1.538461 0.115385 0.288461
v 0.019231 0.115385 -0.288462
v 0.019231 0.115385 0.288462
v 0.019231 -0.461538 -0.288462
v 0.019231 -0.461538 0.288462
v 1.538461 -0.461538 -0.288462
v 1.538461 -0.461538 0.288461
v 0.019231 0.115385 -0.288462
v 0.019231 0.115385 0.288462
v 0.019231 -0.461538 -0.288462
v 0.019231 -0.461538 0.288462
v 1.538461 0.115385 0.288461
v 1.538461 0.115385 -0.288462
v 1.538461 -0.461538 0.288461
v 1.538461 -0.461538 -0.288462
v 1.923077 -0.365385 0.192307
v 2.288461 -0.365385 0.192307
v 1.923077 -0.750000 0.192307
v 2.288461 -0.750000 0.192307
v 2.288461 -0.365385 -0.192308
v 1.923077 -0.365385 -0.192308
v 2.288461 -0.750000 -0.192308
v 1.923077 -0.750000 -0.192308
v 2.288461 -0.365385 -0.192308
v 2.288461 -0.365385 0.192307
v 1.923077 -0.365385 -0.192308
v 1.923077 -0.365385 0.192307
v 1.923077 -0.750000 -0.192308
v 1.923077 -0.750000 0.192307
v 2.288461 -0.750000 -0.192308
v 2.288461 -0.750000 0.192307
v 1.923077 -0.365385 -0.192308
v 1.923077 -0.365385 0.192307
v 1.923077 -0.750000 -0.192308
v 1.923077 -0.750000 0.192307
v 2.288461 -0.365385 0.192307
v 2.288461 -0.365385 -0.192308
v 2.288461 -0.750000 0.192307
v 2.288461 -0.750000 -0.192308
v 1.538461 0.057692 0.230769
v 1.923077 0.057692 0.230769
v 1.538461 -0.403846 0.230769
v 1.923077 -0.403846 0.230769
v 1.923077 0.057692 -0.230770
v 1.538461 0.057692 -0.230770
v 1.923077 -0.403846 -0.230770
v 1.538461 -0.403846 -0.230770
v 1.923077 0.057692 -0.230770
v 1.923077 0.057692 0.230769
v 1.538461 0.057692 -0.230770
v 1.538461 0.057692 0.230769
v 1.538461 -0.403846 -0.230770
v 1.538461 -0.403846 0.230769
v 1.923077 -0.403846 -0.230770
v 1.923077 -0.403846 0.230769
v 1.538461 0.057692 -0.230770
v 1.538461 0.057692 0.230769
v 1.538461 -0.403846 -0.230770
v 1.538461 -0.403846 0.230769
v 1.923077 0.057692 0.230769
v 1.923077 0.057692 -0.230770
v 1.923077 -0.403846 0.230769
v 1.923077 -0.403846 -0.230770
v 1.923077 0.019231 0.192307
v 2.288461 0.019231 0.192307
v 1.923077 -0.365385 0.192307
v 2.288461 -0.365385 0.192307
v 2.288461 0.019231 -0.192308
v 1.923077 0.019231 -0.192308
v 2.288461 -0.365385 -0.192308
v 1.923077 -0.365385 -0.192308
v 2.288461 0.019231 -0.192308
v 2.288461 0.019231 0.192307
v 1.923077 0.019231 -0.192308
v 1.923077 0.019231 0.192307
v 1.923077 -0.365385 -0.192308
v 1.923077 -0.365385 0.192307
v 2.288461 -0.365385 -0.192308
v 2.288461 -0.365385 0.192307
v 1.923077 0.019231 -0.192308
v 1.923077 0.019231 0.192307
v 1.923077 -0.365385 -0.192308
v 1.923077 -0.365385 0.192307
v 2.288461 0.019231 0.192307
v 2.288461 0.019231 -0.192308
v 2.288461 -0.365385 0.192307
v 2.288461 -0.365385 -0.192308
v 0.019231 -0.269231 0.288462
v 1.538461 -0.269231 0.288461
v 0.019231 -0.846154 0.288462
v 1.538461 -0.846154 0.288461
v 1.538461 -0.269231 -0.288462
v 0.019231 -0.269231 -0.288462
v 1.538461 -0.846154 -0.288462
v 0.019231 -0.846154 -0.288462
v 1.538461 -0.269231 -0.288462
v 1.538461 -0.269231 0.288461
v 0.019231 -0.269231 -0.288462
v 0.019231 -0.269231 0.288462
v 0.019231 -0.846154 -0.288462
v 0.019231 -0.846154 0.288462
v 1.538461 -0.846154 -0.288462
v 1.538461 -0.846154 0.288461
v 0.019231 -0.269231 -0.288462
v 0.019231 -0.269231 0.288462
v 0.019231 -0.846154 -0.288462
v 0.019231 -0.846154 0.288462
v 1.538461 -0.269231 0.288461
v 1.538461 -0.269231 -0.288462
v 1.538461 -0.846154 0.288461
v 1.538461 -0.846154 -0.288462
v 1.538461 -0.326923 0.230769
v 1.923077 -0.326923 0.230769
v 1.538461 -0.788462 0.230769
v 1.923077 -0.788462 0.230769
v 1.923077 -0.326923 -0.230770
v 1.538461 -0.326923 -0.230770
v 1.923077 -0.788462 -0.230770
v 1.538461 -0.788462 -0.230770
v 1.923077 -0.326923 -0.230770
v 1.923077 -0.326923 0.230769
v 1.538461 -0.326923 -0.230770
v 1.538461 -0.326923 0.230769
v 1.538461 -0.788462 -0.230770
v 1.538461 -0.788462 0.230769
v 1.923077 -0.788462 -0.230770
v 1.923077 -0.788462 0.230769
v 1.538461 -0.326923 -0.230770
v 1.538461 -0.326923 0.230769
v 1.538461 -0.788462 -0.230770
v 1.538461 -0.788462 0.230769
v 1.923077 -0.326923 0.230769
v 1.923077 -0.326923 -0.230770
v 1.923077 -0.788462 0.230769
v 1.923077 -0.788462 -0.230770
vn -0.0000 -0.0000 1.0000
vn -0.0000 -0.0000 -1.0000
vn -0.0000 1.0000 -0.0000
vn -0.0000 -1.0000 -0.0000
vn -1.0000 -0.0000 -0.0000
vn 1.0000 -0.0000 -0.0000
vt 0.562500 0.625000
vt 0.562500 0.562500
vt 0.687500 0.625000
vt 0.687500 0.562500
vt 0.437500 0.437500
vt 0.437500 0.375000
vt 0.562500 0.437500
vt 0.562500 0.375000
vt 0.625000 0.437500
vt 0.625000 0.562500
vt 0.625000 0.312500
vt 0.562500 0.312500
vt 0.625000 0.687500
vt 0.625000 0.625000
vt 0.687500 0.687500
vt 0.625000 0.750000
vt 0.687500 0.750000
vt 0.687500 1.000000
vt 0.687500 0.968750
vt 0.718750 1.000000
vt 0.718750 0.968750
vt 0.687500 0.875000
vt 0.687500 0.843750
vt 0.718750 0.875000
vt 0.718750 0.843750
vt 0.718750 0.781250
vt 0.718750 0.812500
vt 0.687500 0.781250
vt 0.687500 0.812500
vt 0.718750 0.750000
vt 0.718750 0.718750
vt 0.687500 0.718750
vt 0.687500 0.937500
vt 0.687500 0.906250
vt 0.718750 0.937500
vt 0.718750 0.906250
vt 0.625000 0.375000
vt 0.625000 0.343750
vt 0.656250 0.375000
vt 0.656250 0.343750
vt 0.687500 0.593750
vt 0.718750 0.625000
vt 0.718750 0.593750
vt 0.500000 0.312500
vt 0.500000 0.281250
vt 0.531250 0.312500
vt 0.531250 0.281250
vt 0.718750 0.468750
vt 0.718750 0.500000
vt 0.687500 0.468750
vt 0.687500 0.500000
vt 0.593750 0.312500
vt 0.593750 0.281250
vt 0.562500 0.281250
vt 0.437500 0.312500
vt 0.437500 0.281250
vt 0.468750 0.312500
vt 0.468750 0.281250
vt 0.687500 0.656250
vt 0.718750 0.687500
vt 0.718750 0.656250
vt 0.625000 0.281250
vt 0.656250 0.312500
vt 0.656250 0.281250
vt 0.687500 0.312500
vt 0.687500 0.281250
vt 0.718750 0.312500
vt 0.718750 0.281250
vt 0.031250 0.218750
vt 0.031250 0.250000
vt 0.000000 0.218750
vt 0.000000 0.250000
vt 0.781250 1.000000
vt 0.781250 0.968750
vt 0.750000 1.000000
vt 0.750000 0.968750
vt 0.687500 0.375000
vt 0.687500 0.343750
vt 0.718750 0.375000
vt 0.718750 0.343750
vt 0.687500 0.437500
vt 0.687500 0.406250
vt 0.718750 0.437500
vt 0.718750 0.406250
vt 0.437500 0.343750
vt 0.562500 0.343750
vt 0.625000 0.531250
vt 0.750000 0.562500
vt 0.750000 0.531250
vt 0.625000 0.875000
vt 0.625000 1.000000
vt 0.625000 0.406250
vt 0.625000 0.500000
vt 0.625000 0.468750
vt 0.750000 0.937500
vt 0.750000 0.906250
vt 0.781250 0.937500
vt 0.781250 0.906250
vt 0.750000 0.875000
vt 0.750000 0.843750
vt 0.781250 0.875000
vt 0.781250 0.843750
vt 0.218750 0.218750
vt 0.218750 0.250000
vt 0.187500 0.218750
vt 0.187500 0.250000
vt 0.781250 0.812500
vt 0.781250 0.781250
vt 0.750000 0.812500
vt 0.750000 0.781250
vt 0.125000 0.250000
vt 0.125000 0.218750
vt 0.156250 0.250000
vt 0.156250 0.218750
vt 0.062500 0.250000
vt 0.062500 0.218750
vt 0.093750 0.250000
vt 0.093750 0.218750
s 0
usemtl Material_0.002
f 145/27/7 147/28/7 146/29/7
f 147/28/7 148/30/7 146/29/7
f 149/31/8 151/32/8 150/33/8
f 151/32/8 152/34/8 150/33/8
f 153/35/9 155/36/9 154/33/9
f 155/36/9 156/28/9 154/33/9
f 157/35/10 159/37/10 158/33/10
f 159/37/10 160/38/10 158/33/10
f 161/39/11 163/40/11 162/41/11
f 163/40/11 164/29/11 162/41/11
f 165/42/12 167/39/12 166/43/12
f 167/39/12 168/41/12 166/43/12
f 169/44/7 171/45/7 170/46/7
f 171/45/7 172/47/7 170/46/7
f 173/48/8 175/49/8 174/50/8
f 175/49/8 176/51/8 174/50/8
f 177/52/9 179/53/9 178/54/9
f 179/53/9 180/55/9 178/54/9
f 181/56/10 183/57/10 182/43/10
f 183/57/10 184/58/10 182/43/10
f 185/59/11 187/60/11 186/61/11
f 187/60/11 188/62/11 186/61/11
f 189/63/12 191/64/12 190/65/12
f 191/64/12 192/66/12 190/65/12
f 193/29/7 195/67/7 194/68/7
f 195/67/7 196/69/7 194/68/7
f 197/70/8 199/71/8 198/72/8
f 199/71/8 200/73/8 198/72/8
f 201/74/9 203/75/9 202/76/9
f 203/75/9 204/77/9 202/76/9
f 205/78/10 207/79/10 206/38/10
f 207/79/10 208/80/10 206/38/10
f 209/81/11 211/82/11 210/83/11
f 211/82/11 212/84/11 210/83/11
f 213/41/12 215/85/12 214/86/12
f 215/85/12 216/87/12 214/86/12
f 217/37/7 219/88/7 218/89/7
f 219/88/7 220/90/7 218/89/7
f 221/91/8 223/92/8 222/93/8
f 223/92/8 224/94/8 222/93/8
f 225/95/9 227/96/9 226/97/9
f 227/96/9 228/98/9 226/97/9
f 229/99/10 231/100/10 230/101/10
f 231/100/10 232/102/10 230/101/10
f 233/103/11 235/104/11 234/105/11
f 235/104/11 236/106/11 234/105/11
f 237/107/12 239/108/12 238/109/12
f 239/108/12 240/110/12 238/109/12
f 241/32/7 243/111/7 242/34/7
f 243/111/7 244/112/7 242/34/7
f 245/36/8 247/113/8 246/114/8
f 247/113/8 248/115/8 246/114/8
f 249/48/9 251/44/9 250/116/9
f 251/44/9 252/117/9 250/116/9
f 253/48/10 255/43/10 254/116/10
f 255/43/10 256/42/10 254/116/10
f 257/35/11 259/118/11 258/107/11
f 259/118/11 260/108/11 258/107/11
f 261/119/12 263/120/12 262/77/12
f 263/120/12 264/76/12 262/77/12
f 265/121/7 267/122/7 266/123/7
f 267/122/7 268/124/7 266/123/7
f 269/125/8 271/126/8 270/127/8
f 271/126/8 272/128/8 270/127/8
f 273/129/9 275/130/9 274/131/9
f 275/130/9 276/132/9 274/131/9
f 277/133/10 279/134/10 278/135/10
f 279/134/10 280/136/10 278/135/10
f 281/137/11 283/138/11 282/139/11
f 283/138/11 284/140/11 282/139/11
f 285/141/12 287/142/12 286/143/12
f 287/142/12 288/144/12 286/143/12
