# Blender 4.4.3
# www.blender.org
mtllib lev.mp5mag40.mtl
o ammoModel
v -0.000000 0.384615 -0.383846
v 1.153846 0.384615 -0.383846
v -0.000000 0.000000 -0.383846
v 1.153846 0.000000 -0.383846
v 1.153846 0.384615 -0.384616
v -0.000000 0.384615 -0.384615
v 1.153846 0.000000 -0.384616
v -0.000000 0.000000 -0.384615
v 1.153846 0.384615 -0.384616
v 1.153846 0.384615 -0.383846
v -0.000000 0.384615 -0.384615
v -0.000000 0.384615 -0.383846
v -0.000000 0.000000 -0.384615
v -0.000000 0.000000 -0.383846
v 1.153846 0.000000 -0.384616
v 1.153846 0.000000 -0.383846
v -0.000000 0.384615 -0.384615
v -0.000000 0.384615 -0.383846
v -0.000000 0.000000 -0.384615
v -0.000000 0.000000 -0.383846
v 1.153846 0.384615 -0.383846
v 1.153846 0.384615 -0.384616
v 1.153846 0.000000 -0.383846
v 1.153846 0.000000 -0.384616
v -0.000769 0.384615 0.384615
v 0.000000 0.384615 0.384615
v -0.000769 0.000000 0.384615
v 0.000000 0.000000 0.384615
v -0.000000 0.384615 -0.384615
v -0.000769 0.384615 -0.384615
v -0.000000 0.000000 -0.384615
v -0.000769 0.000000 -0.384615
v -0.000000 0.384615 -0.384615
v 0.000000 0.384615 0.384615
v -0.000769 0.384615 -0.384615
v -0.000769 0.384615 0.384615
v -0.000769 0.000000 -0.384615
v -0.000769 0.000000 0.384615
v -0.000000 0.000000 -0.384615
v 0.000000 0.000000 0.384615
v -0.000769 0.384615 -0.384615
v -0.000769 0.384615 0.384615
v -0.000769 0.000000 -0.384615
v -0.000769 0.000000 0.384615
v 0.000000 0.384615 0.384615
v -0.000000 0.384615 -0.384615
v 0.000000 0.000000 0.384615
v -0.000000 0.000000 -0.384615
v -0.000000 0.769231 -0.383846
v 0.769231 0.769231 -0.383846
v -0.000000 0.384615 -0.383846
v 0.769231 0.384615 -0.383846
v 0.769231 0.769231 -0.384616
v -0.000000 0.769231 -0.384615
v 0.769231 0.384615 -0.384616
v -0.000000 0.384615 -0.384615
v 0.769231 0.769231 -0.384616
v 0.769231 0.769231 -0.383846
v -0.000000 0.769231 -0.384615
v -0.000000 0.769231 -0.383846
v -0.000000 0.384615 -0.384615
v -0.000000 0.384615 -0.383846
v 0.769231 0.384615 -0.384616
v 0.769231 0.384615 -0.383846
v -0.000000 0.769231 -0.384615
v -0.000000 0.769231 -0.383846
v -0.000000 0.384615 -0.384615
v -0.000000 0.384615 -0.383846
v 0.769231 0.769231 -0.383846
v 0.769231 0.769231 -0.384616
v 0.769231 0.384615 -0.383846
v 0.769231 0.384615 -0.384616
v 0.000000 -0.000000 0.385385
v 1.153846 -0.000000 0.385384
v 0.000000 -2.692308 0.385385
v 1.153846 -2.692308 0.385384
v 1.153846 -0.000000 -0.384616
v -0.000000 -0.000000 -0.384615
v 1.153846 -2.692308 -0.384616
v -0.000000 -2.692308 -0.384615
v 1.153846 -0.000000 -0.384616
v 1.153846 -0.000000 0.385384
v -0.000000 -0.000000 -0.384615
v 0.000000 -0.000000 0.385385
v -0.000000 -2.692308 -0.384615
v 0.000000 -2.692308 0.385385
v 1.153846 -2.692308 -0.384616
v 1.153846 -2.692308 0.385384
v -0.000000 -0.000000 -0.384615
v 0.000000 -0.000000 0.385385
v -0.000000 -2.692308 -0.384615
v 0.000000 -2.692308 0.385385
v 1.153846 -0.000000 0.385384
v 1.153846 -0.000000 -0.384616
v 1.153846 -2.692308 0.385384
v 1.153846 -2.692308 -0.384616
v -0.000003 -2.692311 0.376923
v 1.066011 -2.250753 0.376923
v 1.471856 -6.245694 0.376923
v 2.537871 -5.804136 0.376923
v 1.066011 -2.250753 -0.376923
v -0.000004 -2.692311 -0.376923
v 2.537871 -5.804136 -0.376924
v 1.471856 -6.245694 -0.376923
v 1.066011 -2.250753 -0.376923
v 1.066011 -2.250753 0.376923
v -0.000004 -2.692311 -0.376923
v -0.000003 -2.692311 0.376923
v 1.471856 -6.245694 -0.376923
v 1.471856 -6.245694 0.376923
v 2.537871 -5.804136 -0.376924
v 2.537871 -5.804136 0.376923
v -0.000004 -2.692311 -0.376923
v -0.000003 -2.692311 0.376923
v 1.471856 -6.245694 -0.376923
v 1.471856 -6.245694 0.376923
v 1.066011 -2.250753 0.376923
v 1.066011 -2.250753 -0.376923
v 2.537871 -5.804136 0.376923
v 2.537871 -5.804136 -0.376924
v 0.000000 0.384615 0.385385
v 1.153846 0.384615 0.385384
v 0.000000 0.000000 0.385385
v 1.153846 0.000000 0.385384
v 1.153846 0.384615 0.384615
v 0.000000 0.384615 0.384615
v 1.153846 0.000000 0.384615
v 0.000000 0.000000 0.384615
v 1.153846 0.384615 0.384615
v 1.153846 0.384615 0.385384
v 0.000000 0.384615 0.384615
v 0.000000 0.384615 0.385385
v 0.000000 0.000000 0.384615
v 0.000000 0.000000 0.385385
v 1.153846 0.000000 0.384615
v 1.153846 0.000000 0.385384
v 0.000000 0.384615 0.384615
v 0.000000 0.384615 0.385385
v 0.000000 0.000000 0.384615
v 0.000000 0.000000 0.385385
v 1.153846 0.384615 0.385384
v 1.153846 0.384615 0.384615
v 1.153846 0.000000 0.385384
v 1.153846 0.000000 0.384615
v 1.153077 0.384615 0.384615
v 1.153846 0.384615 0.384615
v 1.153077 0.000000 0.384615
v 1.153846 0.000000 0.384615
v 1.153846 0.384615 -0.384616
v 1.153077 0.384615 -0.384616
v 1.153846 0.000000 -0.384616
v 1.153077 0.000000 -0.384616
v 1.153846 0.384615 -0.384616
v 1.153846 0.384615 0.384615
v 1.153077 0.384615 -0.384616
v 1.153077 0.384615 0.384615
v 1.153077 0.000000 -0.384616
v 1.153077 0.000000 0.384615
v 1.153846 0.000000 -0.384616
v 1.153846 0.000000 0.384615
v 1.153077 0.384615 -0.384616
v 1.153077 0.384615 0.384615
v 1.153077 0.000000 -0.384616
v 1.153077 0.000000 0.384615
v 1.153846 0.384615 0.384615
v 1.153846 0.384615 -0.384616
v 1.153846 0.000000 0.384615
v 1.153846 0.000000 -0.384616
v 0.000000 0.769231 0.385385
v 0.769231 0.769231 0.385384
v 0.000000 0.384615 0.385385
v 0.769231 0.384615 0.385384
v 0.769231 0.769231 0.384615
v 0.000000 0.769231 0.384615
v 0.769231 0.384615 0.384615
v 0.000000 0.384615 0.384615
v 0.769231 0.769231 0.384615
v 0.769231 0.769231 0.385384
v 0.000000 0.769231 0.384615
v 0.000000 0.769231 0.385385
v 0.000000 0.384615 0.384615
v 0.000000 0.384615 0.385385
v 0.769231 0.384615 0.384615
v 0.769231 0.384615 0.385384
v 0.000000 0.769231 0.384615
v 0.000000 0.769231 0.385385
v 0.000000 0.384615 0.384615
v 0.000000 0.384615 0.385385
v 0.769231 0.769231 0.385384
v 0.769231 0.769231 0.384615
v 0.769231 0.384615 0.385384
v 0.769231 0.384615 0.384615
vn -0.0000 -0.0000 1.0000
vn -0.0000 -0.0000 -1.0000
vn -0.0000 1.0000 -0.0000
vn -0.0000 -1.0000 -0.0000
vn -1.0000 -0.0000 -0.0000
vn 1.0000 -0.0000 -0.0000
vn -0.3827 0.9239 -0.0000
vn 0.3827 -0.9239 -0.0000
vn -0.9239 -0.3827 -0.0000
vn 0.9239 0.3827 -0.0000
vt 0.437500 1.000000
vt 0.437500 0.968750
vt 0.531250 1.000000
vt 0.531250 0.968750
vt 0.437500 0.937500
vt 0.437500 0.906250
vt 0.531250 0.937500
vt 0.531250 0.906250
vt 0.000000 0.906250
vt 0.000000 1.000000
vt 0.000000 0.968750
vt 0.062500 1.000000
vt 0.437500 0.687500
vt 0.437500 0.656250
vt 0.500000 0.687500
vt 0.500000 0.656250
vt 0.437500 0.750000
vt 0.437500 0.718750
vt 0.500000 0.750000
vt 0.500000 0.718750
vt 0.250000 0.500000
vt 0.250000 0.468750
vt 0.312500 0.500000
vt 0.312500 0.468750
vt 0.562500 0.750000
vt 0.562500 0.718750
vt 0.000000 0.937500
vt 0.343750 0.750000
vt 0.343750 0.531250
vt 0.250000 0.750000
vt 0.250000 0.531250
vt 0.375000 0.656250
vt 0.375000 0.750000
vt 0.437500 0.625000
vt 0.437500 0.531250
vt 0.375000 0.625000
vt 0.375000 0.531250
vt 0.187500 0.687500
vt 0.187500 0.468750
vt 0.250000 0.687500
vt 0.125000 0.687500
vt 0.125000 0.468750
vt 0.218750 1.000000
vt 0.218750 0.687500
vt 0.125000 1.000000
vt 0.375000 0.906250
vt 0.375000 1.000000
vt 0.437500 0.875000
vt 0.437500 0.781250
vt 0.375000 0.875000
vt 0.375000 0.781250
vt 0.062500 0.687500
vt 0.062500 0.375000
vt 0.125000 0.375000
vt 0.000000 0.687500
vt 0.000000 0.375000
vt 0.437500 0.843750
vt 0.531250 0.875000
vt 0.531250 0.843750
vt 0.437500 0.812500
vt 0.531250 0.812500
vt 0.531250 0.781250
vt 0.562500 0.687500
vt 0.562500 0.656250
vt 0.375000 0.500000
vt 0.375000 0.468750
vt 0.437500 0.593750
vt 0.500000 0.625000
vt 0.500000 0.593750
vt 0.437500 0.562500
vt 0.500000 0.562500
vt 0.500000 0.531250
s 0
usemtl Material_0.004
f 1/1/1 3/2/1 2/3/1
f 3/2/1 4/4/1 2/3/1
f 5/5/2 7/6/2 6/7/2
f 7/6/2 8/8/2 6/7/2
f 9/9/3 11/10/3 10/9/3
f 11/10/3 12/10/3 10/9/3
f 13/10/4 15/9/4 14/10/4
f 15/9/4 16/9/4 14/10/4
f 17/10/5 19/11/5 18/10/5
f 19/11/5 20/11/5 18/10/5
f 21/10/6 23/11/6 22/10/6
f 23/11/6 24/11/6 22/10/6
f 25/10/1 27/11/1 26/10/1
f 27/11/1 28/11/1 26/10/1
f 29/10/2 31/11/2 30/10/2
f 31/11/2 32/11/2 30/10/2
f 33/12/3 35/12/3 34/10/3
f 35/12/3 36/10/3 34/10/3
f 37/12/4 39/12/4 38/10/4
f 39/12/4 40/10/4 38/10/4
f 41/13/5 43/14/5 42/15/5
f 43/14/5 44/16/5 42/15/5
f 45/17/6 47/18/6 46/19/6
f 47/18/6 48/20/6 46/19/6
f 49/21/1 51/22/1 50/23/1
f 51/22/1 52/24/1 50/23/1
f 53/19/2 55/20/2 54/25/2
f 55/20/2 56/26/2 54/25/2
f 57/27/3 59/10/3 58/27/3
f 59/10/3 60/10/3 58/27/3
f 61/10/4 63/27/4 62/10/4
f 63/27/4 64/27/4 62/10/4
f 65/10/5 67/11/5 66/10/5
f 67/11/5 68/11/5 66/10/5
f 69/10/6 71/11/6 70/10/6
f 71/11/6 72/11/6 70/10/6
f 73/28/1 75/29/1 74/30/1
f 75/29/1 76/31/1 74/30/1
f 77/30/2 79/31/2 78/28/2
f 79/31/2 80/29/2 78/28/2
f 81/14/3 83/17/3 82/32/3
f 83/17/3 84/33/3 82/32/3
f 85/34/4 87/35/4 86/36/4
f 87/35/4 88/37/4 86/36/4
f 89/38/5 91/39/5 90/40/5
f 91/39/5 92/22/5 90/40/5
f 93/41/6 95/42/6 94/38/6
f 95/42/6 96/39/6 94/38/6
f 97/43/1 99/44/1 98/45/1
f 99/44/1 100/41/1 98/45/1
f 101/45/2 103/41/2 102/43/2
f 103/41/2 104/44/2 102/43/2
f 105/6/7 107/1/7 106/46/7
f 107/1/7 108/47/7 106/46/7
f 109/48/8 111/49/8 110/50/8
f 111/49/8 112/51/8 110/50/8
f 113/52/9 115/53/9 114/41/9
f 115/53/9 116/54/9 114/41/9
f 117/55/10 119/56/10 118/52/10
f 119/56/10 120/53/10 118/52/10
f 121/48/1 123/57/1 122/58/1
f 123/57/1 124/59/1 122/58/1
f 125/60/2 127/49/2 126/61/2
f 127/49/2 128/62/2 126/61/2
f 129/9/3 131/10/3 130/9/3
f 131/10/3 132/10/3 130/9/3
f 133/10/4 135/9/4 134/10/4
f 135/9/4 136/9/4 134/10/4
f 137/10/5 139/11/5 138/10/5
f 139/11/5 140/11/5 138/10/5
f 141/10/6 143/11/6 142/10/6
f 143/11/6 144/11/6 142/10/6
f 145/10/1 147/11/1 146/10/1
f 147/11/1 148/11/1 146/10/1
f 149/10/2 151/11/2 150/10/2
f 151/11/2 152/11/2 150/10/2
f 153/12/3 155/12/3 154/10/3
f 155/12/3 156/10/3 154/10/3
f 157/12/4 159/12/4 158/10/4
f 159/12/4 160/10/4 158/10/4
f 161/15/5 163/16/5 162/63/5
f 163/16/5 164/64/5 162/63/5
f 165/23/6 167/24/6 166/65/6
f 167/24/6 168/66/6 166/65/6
f 169/34/1 171/67/1 170/68/1
f 171/67/1 172/69/1 170/68/1
f 173/70/2 175/35/2 174/71/2
f 175/35/2 176/72/2 174/71/2
f 177/27/3 179/10/3 178/27/3
f 179/10/3 180/10/3 178/27/3
f 181/10/4 183/27/4 182/10/4
f 183/27/4 184/27/4 182/10/4
f 185/10/5 187/11/5 186/10/5
f 187/11/5 188/11/5 186/10/5
f 189/10/6 191/11/6 190/10/6
f 191/11/6 192/11/6 190/10/6
o bulletModel_0
v 0.763869 0.593185 0.307692
v 1.148485 0.593185 0.307692
v 0.763869 0.170108 0.307692
v 1.148485 0.170108 0.307692
v 1.148484 0.593185 -0.115385
v 0.763869 0.593185 -0.115385
v 1.148484 0.170108 -0.115385
v 0.763869 0.170108 -0.115385
v 1.148484 0.593185 -0.115385
v 1.148485 0.593185 0.307692
v 0.763869 0.593185 -0.115385
v 0.763869 0.593185 0.307692
v 0.763869 0.170108 -0.115385
v 0.763869 0.170108 0.307692
v 1.148484 0.170108 -0.115385
v 1.148485 0.170108 0.307692
v 0.763869 0.593185 -0.115385
v 0.763869 0.593185 0.307692
v 0.763869 0.170108 -0.115385
v 0.763869 0.170108 0.307692
v 1.148485 0.593185 0.307692
v 1.148484 0.593185 -0.115385
v 1.148485 0.170108 0.307692
v 1.148484 0.170108 -0.115385
v 0.013869 0.631646 0.346154
v 0.763869 0.631646 0.346154
v 0.013869 0.131646 0.346154
v 0.763869 0.131646 0.346154
v 0.763869 0.631646 -0.153846
v 0.013869 0.631646 -0.153846
v 0.763869 0.131646 -0.153846
v 0.013869 0.131646 -0.153846
v 0.763869 0.631646 -0.153846
v 0.763869 0.631646 0.346154
v 0.013869 0.631646 -0.153846
v 0.013869 0.631646 0.346154
v 0.013869 0.131646 -0.153846
v 0.013869 0.131646 0.346154
v 0.763869 0.131646 -0.153846
v 0.763869 0.131646 0.346154
v 0.013869 0.631646 -0.153846
v 0.013869 0.631646 0.346154
v 0.013869 0.131646 -0.153846
v 0.013869 0.131646 0.346154
v 0.763869 0.631646 0.346154
v 0.763869 0.631646 -0.153846
v 0.763869 0.131646 0.346154
v 0.763869 0.131646 -0.153846
vn -0.0000 -0.0000 1.0000
vn -0.0000 -0.0000 -1.0000
vn -0.0000 1.0000 -0.0000
vn -0.0000 -1.0000 -0.0000
vn -1.0000 -0.0000 -0.0000
vn 1.0000 -0.0000 -0.0000
vt 0.312500 0.312500
vt 0.312500 0.281250
vt 0.343750 0.312500
vt 0.343750 0.281250
vt 0.375000 0.312500
vt 0.375000 0.281250
vt 0.406250 0.312500
vt 0.406250 0.281250
vt 0.718750 0.593750
vt 0.718750 0.625000
vt 0.687500 0.593750
vt 0.687500 0.625000
vt 0.468750 0.312500
vt 0.468750 0.281250
vt 0.437500 0.312500
vt 0.437500 0.281250
vt 0.687500 0.687500
vt 0.687500 0.656250
vt 0.718750 0.687500
vt 0.718750 0.656250
vt 0.687500 0.750000
vt 0.687500 0.718750
vt 0.718750 0.750000
vt 0.718750 0.718750
vt 0.375000 0.500000
vt 0.375000 0.468750
vt 0.437500 0.500000
vt 0.437500 0.468750
vt 0.500000 0.625000
vt 0.500000 0.593750
vt 0.562500 0.625000
vt 0.562500 0.593750
vt 0.468750 0.437500
vt 0.468750 0.500000
vt 0.437500 0.437500
vt 0.531250 0.562500
vt 0.531250 0.500000
vt 0.500000 0.562500
vt 0.500000 0.500000
vt 0.500000 0.312500
vt 0.500000 0.281250
vt 0.531250 0.312500
vt 0.531250 0.281250
vt 0.687500 0.562500
vt 0.687500 0.531250
vt 0.718750 0.562500
vt 0.718750 0.531250
s 0
usemtl Material_0.004
f 193/73/11 195/74/11 194/75/11
f 195/74/11 196/76/11 194/75/11
f 197/77/12 199/78/12 198/79/12
f 199/78/12 200/80/12 198/79/12
f 201/81/13 203/82/13 202/83/13
f 203/82/13 204/84/13 202/83/13
f 205/85/14 207/86/14 206/87/14
f 207/86/14 208/88/14 206/87/14
f 209/89/15 211/90/15 210/91/15
f 211/90/15 212/92/15 210/91/15
f 213/93/16 215/94/16 214/95/16
f 215/94/16 216/96/16 214/95/16
f 217/97/11 219/98/11 218/99/11
f 219/98/11 220/100/11 218/99/11
f 221/101/12 223/102/12 222/103/12
f 223/102/12 224/104/12 222/103/12
f 225/105/13 227/106/13 226/107/13
f 227/106/13 228/99/13 226/107/13
f 229/108/14 231/109/14 230/110/14
f 231/109/14 232/111/14 230/110/14
f 233/112/15 235/113/15 234/114/15
f 235/113/15 236/115/15 234/114/15
f 237/116/16 239/117/16 238/118/16
f 239/117/16 240/119/16 238/118/16
o bulletModel_1
v 0.763869 0.400877 0.115384
v 1.148484 0.400877 0.115384
v 0.763869 -0.022200 0.115384
v 1.148484 -0.022200 0.115384
v 1.148484 0.400877 -0.307693
v 0.763869 0.400877 -0.307692
v 1.148484 -0.022200 -0.307693
v 0.763869 -0.022200 -0.307692
v 1.148484 0.400877 -0.307693
v 1.148484 0.400877 0.115384
v 0.763869 0.400877 -0.307692
v 0.763869 0.400877 0.115384
v 0.763869 -0.022200 -0.307692
v 0.763869 -0.022200 0.115384
v 1.148484 -0.022200 -0.307693
v 1.148484 -0.022200 0.115384
v 0.763869 0.400877 -0.307692
v 0.763869 0.400877 0.115384
v 0.763869 -0.022200 -0.307692
v 0.763869 -0.022200 0.115384
v 1.148484 0.400877 0.115384
v 1.148484 0.400877 -0.307693
v 1.148484 -0.022200 0.115384
v 1.148484 -0.022200 -0.307693
v 0.013869 0.439338 0.153846
v 0.763869 0.439338 0.153846
v 0.013869 -0.060662 0.153846
v 0.763869 -0.060662 0.153846
v 0.763869 0.439338 -0.346154
v 0.013869 0.439338 -0.346154
v 0.763869 -0.060662 -0.346154
v 0.013869 -0.060662 -0.346154
v 0.763869 0.439338 -0.346154
v 0.763869 0.439338 0.153846
v 0.013869 0.439338 -0.346154
v 0.013869 0.439338 0.153846
v 0.013869 -0.060662 -0.346154
v 0.013869 -0.060662 0.153846
v 0.763869 -0.060662 -0.346154
v 0.763869 -0.060662 0.153846
v 0.013869 0.439338 -0.346154
v 0.013869 0.439338 0.153846
v 0.013869 -0.060662 -0.346154
v 0.013869 -0.060662 0.153846
v 0.763869 0.439338 0.153846
v 0.763869 0.439338 -0.346154
v 0.763869 -0.060662 0.153846
v 0.763869 -0.060662 -0.346154
vn -0.0000 -0.0000 1.0000
vn -0.0000 -0.0000 -1.0000
vn -0.0000 1.0000 -0.0000
vn -0.0000 -1.0000 -0.0000
vn -1.0000 -0.0000 -0.0000
vn 1.0000 -0.0000 -0.0000
vt 0.625000 0.312500
vt 0.625000 0.281250
vt 0.656250 0.312500
vt 0.656250 0.281250
vt 0.687500 0.312500
vt 0.687500 0.281250
vt 0.718750 0.312500
vt 0.718750 0.281250
vt 0.031250 0.218750
vt 0.031250 0.250000
vt 0.000000 0.218750
vt 0.000000 0.250000
vt 0.781250 1.000000
vt 0.781250 0.968750
vt 0.750000 1.000000
vt 0.750000 0.968750
vt 0.687500 0.375000
vt 0.687500 0.343750
vt 0.718750 0.375000
vt 0.718750 0.343750
vt 0.687500 0.437500
vt 0.687500 0.406250
vt 0.718750 0.437500
vt 0.718750 0.406250
vt 0.500000 0.500000
vt 0.500000 0.468750
vt 0.562500 0.500000
vt 0.562500 0.468750
vt 0.562500 1.000000
vt 0.562500 0.968750
vt 0.625000 1.000000
vt 0.625000 0.968750
vt 0.593750 0.875000
vt 0.593750 0.937500
vt 0.562500 0.875000
vt 0.562500 0.937500
vt 0.156250 0.437500
vt 0.156250 0.375000
vt 0.125000 0.437500
vt 0.125000 0.375000
vt 0.562500 0.312500
vt 0.562500 0.281250
vt 0.593750 0.312500
vt 0.593750 0.281250
vt 0.687500 0.500000
vt 0.687500 0.468750
vt 0.718750 0.500000
vt 0.718750 0.468750
s 0
usemtl Material_0.004
f 241/120/17 243/121/17 242/122/17
f 243/121/17 244/123/17 242/122/17
f 245/124/18 247/125/18 246/126/18
f 247/125/18 248/127/18 246/126/18
f 249/128/19 251/129/19 250/130/19
f 251/129/19 252/131/19 250/130/19
f 253/132/20 255/133/20 254/134/20
f 255/133/20 256/135/20 254/134/20
f 257/136/21 259/137/21 258/138/21
f 259/137/21 260/139/21 258/138/21
f 261/140/22 263/141/22 262/142/22
f 263/141/22 264/143/22 262/142/22
f 265/144/17 267/145/17 266/146/17
f 267/145/17 268/147/17 266/146/17
f 269/148/18 271/149/18 270/150/18
f 271/149/18 272/151/18 270/150/18
f 273/152/19 275/153/19 274/154/19
f 275/153/19 276/155/19 274/154/19
f 277/156/20 279/157/20 278/158/20
f 279/157/20 280/159/20 278/158/20
f 281/160/21 283/161/21 282/162/21
f 283/161/21 284/163/21 282/162/21
f 285/164/22 287/165/22 286/166/22
f 287/165/22 288/167/22 286/166/22
o bulletModel_33
v 0.796892 -3.611140 -0.376923
v 1.152231 -3.463954 -0.376923
v 0.944078 -3.966478 -0.376923
v 1.299416 -3.819292 -0.376923
v 1.152231 -3.463954 -0.377693
v 0.796892 -3.611140 -0.377693
v 1.299416 -3.819292 -0.377693
v 0.944078 -3.966478 -0.377693
v 1.152231 -3.463954 -0.377693
v 1.152231 -3.463954 -0.376923
v 0.796892 -3.611140 -0.377693
v 0.796892 -3.611140 -0.376923
v 0.944078 -3.966478 -0.377693
v 0.944078 -3.966478 -0.376923
v 1.299416 -3.819292 -0.377693
v 1.299416 -3.819292 -0.376923
v 0.796892 -3.611140 -0.377693
v 0.796892 -3.611140 -0.376923
v 0.944078 -3.966478 -0.377693
v 0.944078 -3.966478 -0.376923
v 1.152231 -3.463954 -0.376923
v 1.152231 -3.463954 -0.377693
v 1.299416 -3.819292 -0.376923
v 1.299416 -3.819292 -0.377693
vn -0.0000 -0.0000 1.0000
vn -0.0000 -0.0000 -1.0000
vn -0.3827 0.9239 -0.0000
vn 0.3827 -0.9239 -0.0000
vn -0.9239 -0.3827 -0.0000
vn 0.9239 0.3827 -0.0000
vt 0.562500 0.812500
vt 0.562500 0.781250
vt 0.593750 0.812500
vt 0.593750 0.781250
vt 0.250000 0.437500
vt 0.250000 0.406250
vt 0.281250 0.437500
vt 0.281250 0.406250
vt 0.000000 0.968750
vt 0.000000 1.000000
s 0
usemtl Material_0.004
f 289/168/23 291/169/23 290/170/23
f 291/169/23 292/171/23 290/170/23
f 293/172/24 295/173/24 294/174/24
f 295/173/24 296/175/24 294/174/24
f 297/176/25 299/177/25 298/176/25
f 299/177/25 300/177/25 298/176/25
f 301/177/26 303/176/26 302/177/26
f 303/176/26 304/176/26 302/177/26
f 305/177/27 307/176/27 306/177/27
f 307/176/27 308/176/27 306/177/27
f 309/177/28 311/176/28 310/177/28
f 311/176/28 312/176/28 310/177/28
o bulletModel_31
v 0.649706 -3.255801 -0.376923
v 1.005045 -3.108615 -0.376923
v 0.796892 -3.611140 -0.376923
v 1.152231 -3.463954 -0.376923
v 1.005045 -3.108615 -0.377693
v 0.649706 -3.255801 -0.377693
v 1.152231 -3.463954 -0.377693
v 0.796892 -3.611140 -0.377693
v 1.005045 -3.108615 -0.377693
v 1.005045 -3.108615 -0.376923
v 0.649706 -3.255801 -0.377693
v 0.649706 -3.255801 -0.376923
v 0.796892 -3.611140 -0.377693
v 0.796892 -3.611140 -0.376923
v 1.152231 -3.463954 -0.377693
v 1.152231 -3.463954 -0.376923
v 0.649706 -3.255801 -0.377693
v 0.649706 -3.255801 -0.376923
v 0.796892 -3.611140 -0.377693
v 0.796892 -3.611140 -0.376923
v 1.005045 -3.108615 -0.376923
v 1.005045 -3.108615 -0.377693
v 1.152231 -3.463954 -0.376923
v 1.152231 -3.463954 -0.377693
vn -0.0000 -0.0000 1.0000
vn -0.0000 -0.0000 -1.0000
vn -0.3827 0.9239 -0.0000
vn 0.3827 -0.9239 -0.0000
vn -0.9239 -0.3827 -0.0000
vn 0.9239 0.3827 -0.0000
vt 0.562500 0.750000
vt 0.562500 0.718750
vt 0.593750 0.750000
vt 0.593750 0.718750
vt 0.312500 0.437500
vt 0.312500 0.406250
vt 0.343750 0.437500
vt 0.343750 0.406250
vt 0.000000 0.968750
vt 0.000000 1.000000
s 0
usemtl Material_0.004
f 313/178/29 315/179/29 314/180/29
f 315/179/29 316/181/29 314/180/29
f 317/182/30 319/183/30 318/184/30
f 319/183/30 320/185/30 318/184/30
f 321/186/31 323/187/31 322/186/31
f 323/187/31 324/187/31 322/186/31
f 325/187/32 327/186/32 326/187/32
f 327/186/32 328/186/32 326/187/32
f 329/187/33 331/186/33 330/187/33
f 331/186/33 332/186/33 330/187/33
f 333/187/34 335/186/34 334/187/34
f 335/186/34 336/186/34 334/187/34
o bulletModel_29
v 0.502520 -2.900463 -0.376923
v 0.857859 -2.753277 -0.376923
v 0.649706 -3.255801 -0.376923
v 1.005045 -3.108615 -0.376923
v 0.857859 -2.753277 -0.377693
v 0.502520 -2.900463 -0.377693
v 1.005045 -3.108615 -0.377693
v 0.649706 -3.255801 -0.377693
v 0.857859 -2.753277 -0.377693
v 0.857859 -2.753277 -0.376923
v 0.502520 -2.900463 -0.377693
v 0.502520 -2.900463 -0.376923
v 0.649706 -3.255801 -0.377693
v 0.649706 -3.255801 -0.376923
v 1.005045 -3.108615 -0.377693
v 1.005045 -3.108615 -0.376923
v 0.502520 -2.900463 -0.377693
v 0.502520 -2.900463 -0.376923
v 0.649706 -3.255801 -0.377693
v 0.649706 -3.255801 -0.376923
v 0.857859 -2.753277 -0.376923
v 0.857859 -2.753277 -0.377693
v 1.005045 -3.108615 -0.376923
v 1.005045 -3.108615 -0.377693
vn -0.0000 -0.0000 1.0000
vn -0.0000 -0.0000 -1.0000
vn -0.3827 0.9239 -0.0000
vn 0.3827 -0.9239 -0.0000
vn -0.9239 -0.3827 -0.0000
vn 0.9239 0.3827 -0.0000
vt 0.250000 0.375000
vt 0.250000 0.343750
vt 0.281250 0.375000
vt 0.281250 0.343750
vt 0.625000 0.750000
vt 0.625000 0.718750
vt 0.656250 0.750000
vt 0.656250 0.718750
vt 0.000000 0.968750
vt 0.000000 1.000000
s 0
usemtl Material_0.004
f 337/188/35 339/189/35 338/190/35
f 339/189/35 340/191/35 338/190/35
f 341/192/36 343/193/36 342/194/36
f 343/193/36 344/195/36 342/194/36
f 345/196/37 347/197/37 346/196/37
f 347/197/37 348/197/37 346/196/37
f 349/197/38 351/196/38 350/197/38
f 351/196/38 352/196/38 350/197/38
f 353/197/39 355/196/39 354/197/39
f 355/196/39 356/196/39 354/197/39
f 357/197/40 359/196/40 358/197/40
f 359/196/40 360/196/40 358/197/40
o bulletModel_27
v 0.355334 -2.545125 -0.376923
v 0.710673 -2.397939 -0.376923
v 0.502520 -2.900463 -0.376923
v 0.857859 -2.753277 -0.376923
v 0.710673 -2.397939 -0.377693
v 0.355334 -2.545125 -0.377692
v 0.857859 -2.753277 -0.377693
v 0.502520 -2.900463 -0.377693
v 0.710673 -2.397939 -0.377693
v 0.710673 -2.397939 -0.376923
v 0.355334 -2.545125 -0.377692
v 0.355334 -2.545125 -0.376923
v 0.502520 -2.900463 -0.377693
v 0.502520 -2.900463 -0.376923
v 0.857859 -2.753277 -0.377693
v 0.857859 -2.753277 -0.376923
v 0.355334 -2.545125 -0.377692
v 0.355334 -2.545125 -0.376923
v 0.502520 -2.900463 -0.377693
v 0.502520 -2.900463 -0.376923
v 0.710673 -2.397939 -0.376923
v 0.710673 -2.397939 -0.377693
v 0.857859 -2.753277 -0.376923
v 0.857859 -2.753277 -0.377693
vn -0.0000 -0.0000 1.0000
vn -0.0000 -0.0000 -1.0000
vn -0.3827 0.9239 -0.0000
vn 0.3827 -0.9239 -0.0000
vn -0.9239 -0.3827 -0.0000
vn 0.9239 0.3827 -0.0000
vt 0.312500 0.375000
vt 0.312500 0.343750
vt 0.343750 0.375000
vt 0.343750 0.343750
vt 0.625000 0.687500
vt 0.625000 0.656250
vt 0.656250 0.687500
vt 0.656250 0.656250
vt 0.000000 0.968750
vt 0.000000 1.000000
s 0
usemtl Material_0.004
f 361/198/41 363/199/41 362/200/41
f 363/199/41 364/201/41 362/200/41
f 365/202/42 367/203/42 366/204/42
f 367/203/42 368/205/42 366/204/42
f 369/206/43 371/207/43 370/206/43
f 371/207/43 372/207/43 370/206/43
f 373/207/44 375/206/44 374/207/44
f 375/206/44 376/206/44 374/207/44
f 377/207/45 379/206/45 378/207/45
f 379/206/45 380/206/45 378/207/45
f 381/207/46 383/206/46 382/207/46
f 383/206/46 384/206/46 382/207/46
o bulletModel_23
v 0.384615 -1.923077 -0.384615
v 0.769231 -1.923077 -0.384616
v 0.384615 -2.307692 -0.384615
v 0.769231 -2.307692 -0.384616
v 0.769231 -1.923077 -0.385385
v 0.384615 -1.923077 -0.385385
v 0.769231 -2.307692 -0.385385
v 0.384615 -2.307692 -0.385385
v 0.769231 -1.923077 -0.385385
v 0.769231 -1.923077 -0.384616
v 0.384615 -1.923077 -0.385385
v 0.384615 -1.923077 -0.384615
v 0.384615 -2.307692 -0.385385
v 0.384615 -2.307692 -0.384615
v 0.769231 -2.307692 -0.385385
v 0.769231 -2.307692 -0.384616
v 0.384615 -1.923077 -0.385385
v 0.384615 -1.923077 -0.384615
v 0.384615 -2.307692 -0.385385
v 0.384615 -2.307692 -0.384615
v 0.769231 -1.923077 -0.384616
v 0.769231 -1.923077 -0.385385
v 0.769231 -2.307692 -0.384616
v 0.769231 -2.307692 -0.385385
vn -0.0000 -0.0000 1.0000
vn -0.0000 -0.0000 -1.0000
vn -0.0000 1.0000 -0.0000
vn -0.0000 -1.0000 -0.0000
vn -1.0000 -0.0000 -0.0000
vn 1.0000 -0.0000 -0.0000
vt 0.125000 0.375000
vt 0.125000 0.343750
vt 0.156250 0.375000
vt 0.156250 0.343750
vt 0.625000 0.875000
vt 0.625000 0.843750
vt 0.656250 0.875000
vt 0.656250 0.843750
vt 0.000000 0.968750
vt 0.000000 1.000000
s 0
usemtl Material_0.004
f 385/208/47 387/209/47 386/210/47
f 387/209/47 388/211/47 386/210/47
f 389/212/48 391/213/48 390/214/48
f 391/213/48 392/215/48 390/214/48
f 393/216/49 395/217/49 394/216/49
f 395/217/49 396/217/49 394/216/49
f 397/217/50 399/216/50 398/217/50
f 399/216/50 400/216/50 398/217/50
f 401/217/51 403/216/51 402/217/51
f 403/216/51 404/216/51 402/217/51
f 405/217/52 407/216/52 406/217/52
f 407/216/52 408/216/52 406/217/52
o bulletModel_25
v 0.384615 -2.307692 -0.384615
v 0.769231 -2.307692 -0.384616
v 0.384615 -2.692308 -0.384615
v 0.769231 -2.692308 -0.384616
v 0.769231 -2.307692 -0.385385
v 0.384615 -2.307692 -0.385385
v 0.769231 -2.692308 -0.385385
v 0.384615 -2.692308 -0.385385
v 0.769231 -2.307692 -0.385385
v 0.769231 -2.307692 -0.384616
v 0.384615 -2.307692 -0.385385
v 0.384615 -2.307692 -0.384615
v 0.384615 -2.692308 -0.385385
v 0.384615 -2.692308 -0.384615
v 0.769231 -2.692308 -0.385385
v 0.769231 -2.692308 -0.384616
v 0.384615 -2.307692 -0.385385
v 0.384615 -2.307692 -0.384615
v 0.384615 -2.692308 -0.385385
v 0.384615 -2.692308 -0.384615
v 0.769231 -2.307692 -0.384616
v 0.769231 -2.307692 -0.385385
v 0.769231 -2.692308 -0.384616
v 0.769231 -2.692308 -0.385385
vn -0.0000 -0.0000 1.0000
vn -0.0000 -0.0000 -1.0000
vn -0.0000 1.0000 -0.0000
vn -0.0000 -1.0000 -0.0000
vn -1.0000 -0.0000 -0.0000
vn 1.0000 -0.0000 -0.0000
vt 0.562500 0.875000
vt 0.562500 0.843750
vt 0.593750 0.875000
vt 0.593750 0.843750
vt 0.187500 0.437500
vt 0.187500 0.406250
vt 0.218750 0.437500
vt 0.218750 0.406250
vt 0.000000 0.968750
vt 0.000000 1.000000
s 0
usemtl Material_0.004
f 409/218/53 411/219/53 410/220/53
f 411/219/53 412/221/53 410/220/53
f 413/222/54 415/223/54 414/224/54
f 415/223/54 416/225/54 414/224/54
f 417/226/55 419/227/55 418/226/55
f 419/227/55 420/227/55 418/226/55
f 421/227/56 423/226/56 422/227/56
f 423/226/56 424/226/56 422/227/56
f 425/227/57 427/226/57 426/227/57
f 427/226/57 428/226/57 426/227/57
f 429/227/58 431/226/58 430/227/58
f 431/226/58 432/226/58 430/227/58
o bulletModel_19
v 0.384615 -1.153846 -0.384615
v 0.769231 -1.153846 -0.384616
v 0.384615 -1.538462 -0.384615
v 0.769231 -1.538462 -0.384616
v 0.769231 -1.153846 -0.385385
v 0.384615 -1.153846 -0.385385
v 0.769231 -1.538462 -0.385385
v 0.384615 -1.538462 -0.385385
v 0.769231 -1.153846 -0.385385
v 0.769231 -1.153846 -0.384616
v 0.384615 -1.153846 -0.385385
v 0.384615 -1.153846 -0.384615
v 0.384615 -1.538462 -0.385385
v 0.384615 -1.538462 -0.384615
v 0.769231 -1.538462 -0.385385
v 0.769231 -1.538462 -0.384616
v 0.384615 -1.153846 -0.385385
v 0.384615 -1.153846 -0.384615
v 0.384615 -1.538462 -0.385385
v 0.384615 -1.538462 -0.384615
v 0.769231 -1.153846 -0.384616
v 0.769231 -1.153846 -0.385385
v 0.769231 -1.538462 -0.384616
v 0.769231 -1.538462 -0.385385
vn -0.0000 -0.0000 1.0000
vn -0.0000 -0.0000 -1.0000
vn -0.0000 1.0000 -0.0000
vn -0.0000 -1.0000 -0.0000
vn -1.0000 -0.0000 -0.0000
vn 1.0000 -0.0000 -0.0000
vt 0.000000 0.375000
vt 0.000000 0.343750
vt 0.031250 0.375000
vt 0.031250 0.343750
vt 0.625000 1.000000
vt 0.625000 0.968750
vt 0.656250 1.000000
vt 0.656250 0.968750
vt 0.000000 0.968750
vt 0.000000 1.000000
s 0
usemtl Material_0.004
f 433/228/59 435/229/59 434/230/59
f 435/229/59 436/231/59 434/230/59
f 437/232/60 439/233/60 438/234/60
f 439/233/60 440/235/60 438/234/60
f 441/236/61 443/237/61 442/236/61
f 443/237/61 444/237/61 442/236/61
f 445/237/62 447/236/62 446/237/62
f 447/236/62 448/236/62 446/237/62
f 449/237/63 451/236/63 450/237/63
f 451/236/63 452/236/63 450/237/63
f 453/237/64 455/236/64 454/237/64
f 455/236/64 456/236/64 454/237/64
o bulletModel_21
v 0.384615 -1.538462 -0.384615
v 0.769231 -1.538462 -0.384616
v 0.384615 -1.923077 -0.384615
v 0.769231 -1.923077 -0.384616
v 0.769231 -1.538462 -0.385385
v 0.384615 -1.538462 -0.385385
v 0.769231 -1.923077 -0.385385
v 0.384615 -1.923077 -0.385385
v 0.769231 -1.538462 -0.385385
v 0.769231 -1.538462 -0.384616
v 0.384615 -1.538462 -0.385385
v 0.384615 -1.538462 -0.384615
v 0.384615 -1.923077 -0.385385
v 0.384615 -1.923077 -0.384615
v 0.769231 -1.923077 -0.385385
v 0.769231 -1.923077 -0.384616
v 0.384615 -1.538462 -0.385385
v 0.384615 -1.538462 -0.384615
v 0.384615 -1.923077 -0.385385
v 0.384615 -1.923077 -0.384615
v 0.769231 -1.538462 -0.384616
v 0.769231 -1.538462 -0.385385
v 0.769231 -1.923077 -0.384616
v 0.769231 -1.923077 -0.385385
vn -0.0000 -0.0000 1.0000
vn -0.0000 -0.0000 -1.0000
vn -0.0000 1.0000 -0.0000
vn -0.0000 -1.0000 -0.0000
vn -1.0000 -0.0000 -0.0000
vn 1.0000 -0.0000 -0.0000
vt 0.062500 0.375000
vt 0.062500 0.343750
vt 0.093750 0.375000
vt 0.093750 0.343750
vt 0.625000 0.937500
vt 0.625000 0.906250
vt 0.656250 0.937500
vt 0.656250 0.906250
vt 0.000000 0.968750
vt 0.000000 1.000000
s 0
usemtl Material_0.004
f 457/238/65 459/239/65 458/240/65
f 459/239/65 460/241/65 458/240/65
f 461/242/66 463/243/66 462/244/66
f 463/243/66 464/245/66 462/244/66
f 465/246/67 467/247/67 466/246/67
f 467/247/67 468/247/67 466/246/67
f 469/247/68 471/246/68 470/247/68
f 471/246/68 472/246/68 470/247/68
f 473/247/69 475/246/69 474/247/69
f 475/246/69 476/246/69 474/247/69
f 477/247/70 479/246/70 478/247/70
f 479/246/70 480/246/70 478/247/70
o bulletModel_35
v 0.944078 -3.966478 -0.376923
v 1.299416 -3.819292 -0.376923
v 1.091264 -4.321816 -0.376923
v 1.446602 -4.174630 -0.376923
v 1.299416 -3.819292 -0.377693
v 0.944078 -3.966478 -0.377693
v 1.446602 -4.174630 -0.377693
v 1.091264 -4.321816 -0.377693
v 1.299416 -3.819292 -0.377693
v 1.299416 -3.819292 -0.376923
v 0.944078 -3.966478 -0.377693
v 0.944078 -3.966478 -0.376923
v 1.091264 -4.321816 -0.377693
v 1.091264 -4.321816 -0.376923
v 1.446602 -4.174630 -0.377693
v 1.446602 -4.174630 -0.376923
v 0.944078 -3.966478 -0.377693
v 0.944078 -3.966478 -0.376923
v 1.091264 -4.321816 -0.377693
v 1.091264 -4.321816 -0.376923
v 1.299416 -3.819292 -0.376923
v 1.299416 -3.819292 -0.377693
v 1.446602 -4.174630 -0.376923
v 1.446602 -4.174630 -0.377693
vn -0.0000 -0.0000 1.0000
vn -0.0000 -0.0000 -1.0000
vn -0.3827 0.9239 -0.0000
vn 0.3827 -0.9239 -0.0000
vn -0.9239 -0.3827 -0.0000
vn 0.9239 0.3827 -0.0000
vt 0.562500 0.625000
vt 0.562500 0.593750
vt 0.593750 0.625000
vt 0.593750 0.593750
vt 0.437500 0.437500
vt 0.437500 0.406250
vt 0.468750 0.437500
vt 0.468750 0.406250
vt 0.000000 0.968750
vt 0.000000 1.000000
s 0
usemtl Material_0.004
f 481/248/71 483/249/71 482/250/71
f 483/249/71 484/251/71 482/250/71
f 485/252/72 487/253/72 486/254/72
f 487/253/72 488/255/72 486/254/72
f 489/256/73 491/257/73 490/256/73
f 491/257/73 492/257/73 490/256/73
f 493/257/74 495/256/74 494/257/74
f 495/256/74 496/256/74 494/257/74
f 497/257/75 499/256/75 498/257/75
f 499/256/75 500/256/75 498/257/75
f 501/257/76 503/256/76 502/257/76
f 503/256/76 504/256/76 502/257/76
o bulletModel_39
v 1.091264 -4.321816 -0.376923
v 1.446602 -4.174630 -0.376923
v 1.238450 -4.677154 -0.376923
v 1.593788 -4.529968 -0.376923
v 1.446602 -4.174630 -0.377693
v 1.091264 -4.321816 -0.377693
v 1.593788 -4.529968 -0.377693
v 1.238450 -4.677154 -0.377693
v 1.446602 -4.174630 -0.377693
v 1.446602 -4.174630 -0.376923
v 1.091264 -4.321816 -0.377693
v 1.091264 -4.321816 -0.376923
v 1.238450 -4.677154 -0.377693
v 1.238450 -4.677154 -0.376923
v 1.593788 -4.529968 -0.377693
v 1.593788 -4.529968 -0.376923
v 1.091264 -4.321816 -0.377693
v 1.091264 -4.321816 -0.376923
v 1.238450 -4.677154 -0.377693
v 1.238450 -4.677154 -0.376923
v 1.446602 -4.174630 -0.376923
v 1.446602 -4.174630 -0.377693
v 1.593788 -4.529968 -0.376923
v 1.593788 -4.529968 -0.377693
vn -0.0000 -0.0000 1.0000
vn -0.0000 -0.0000 -1.0000
vn -0.3827 0.9239 -0.0000
vn 0.3827 -0.9239 -0.0000
vn -0.9239 -0.3827 -0.0000
vn 0.9239 0.3827 -0.0000
vt 0.562500 0.687500
vt 0.562500 0.656250
vt 0.593750 0.687500
vt 0.593750 0.656250
vt 0.375000 0.437500
vt 0.375000 0.406250
vt 0.406250 0.437500
vt 0.406250 0.406250
vt 0.000000 0.968750
vt 0.000000 1.000000
s 0
usemtl Material_0.004
f 505/258/77 507/259/77 506/260/77
f 507/259/77 508/261/77 506/260/77
f 509/262/78 511/263/78 510/264/78
f 511/263/78 512/265/78 510/264/78
f 513/266/79 515/267/79 514/266/79
f 515/267/79 516/267/79 514/266/79
f 517/267/80 519/266/80 518/267/80
f 519/266/80 520/266/80 518/267/80
f 521/267/81 523/266/81 522/267/81
f 523/266/81 524/266/81 522/267/81
f 525/267/82 527/266/82 526/267/82
f 527/266/82 528/266/82 526/267/82
o bulletModel_17
v 0.384615 -0.769231 -0.384615
v 0.769231 -0.769231 -0.384616
v 0.384615 -1.153846 -0.384615
v 0.769231 -1.153846 -0.384616
v 0.769231 -0.769231 -0.385385
v 0.384615 -0.769231 -0.385385
v 0.769231 -1.153846 -0.385385
v 0.384615 -1.153846 -0.385385
v 0.769231 -0.769231 -0.385385
v 0.769231 -0.769231 -0.384616
v 0.384615 -0.769231 -0.385385
v 0.384615 -0.769231 -0.384615
v 0.384615 -1.153846 -0.385385
v 0.384615 -1.153846 -0.384615
v 0.769231 -1.153846 -0.385385
v 0.769231 -1.153846 -0.384616
v 0.384615 -0.769231 -0.385385
v 0.384615 -0.769231 -0.384615
v 0.384615 -1.153846 -0.385385
v 0.384615 -1.153846 -0.384615
v 0.769231 -0.769231 -0.384616
v 0.769231 -0.769231 -0.385385
v 0.769231 -1.153846 -0.384616
v 0.769231 -1.153846 -0.385385
vn -0.0000 -0.0000 1.0000
vn -0.0000 -0.0000 -1.0000
vn -0.0000 1.0000 -0.0000
vn -0.0000 -1.0000 -0.0000
vn -1.0000 -0.0000 -0.0000
vn 1.0000 -0.0000 -0.0000
vt 0.562500 0.500000
vt 0.562500 0.468750
vt 0.593750 0.500000
vt 0.593750 0.468750
vt 0.562500 0.437500
vt 0.562500 0.406250
vt 0.593750 0.437500
vt 0.593750 0.406250
vt 0.000000 0.968750
vt 0.000000 1.000000
s 0
usemtl Material_0.004
f 529/268/83 531/269/83 530/270/83
f 531/269/83 532/271/83 530/270/83
f 533/272/84 535/273/84 534/274/84
f 535/273/84 536/275/84 534/274/84
f 537/276/85 539/277/85 538/276/85
f 539/277/85 540/277/85 538/276/85
f 541/277/86 543/276/86 542/277/86
f 543/276/86 544/276/86 542/277/86
f 545/277/87 547/276/87 546/277/87
f 547/276/87 548/276/87 546/277/87
f 549/277/88 551/276/88 550/277/88
f 551/276/88 552/276/88 550/277/88
o bulletModel_38
v 1.091264 -4.321816 0.378461
v 1.446603 -4.174630 0.378461
v 1.238450 -4.677154 0.378461
v 1.593788 -4.529968 0.378461
v 1.446603 -4.174630 0.377692
v 1.091264 -4.321816 0.377692
v 1.593788 -4.529968 0.377692
v 1.238450 -4.677154 0.377692
v 1.446603 -4.174630 0.377692
v 1.446603 -4.174630 0.378461
v 1.091264 -4.321816 0.377692
v 1.091264 -4.321816 0.378461
v 1.238450 -4.677154 0.377692
v 1.238450 -4.677154 0.378461
v 1.593788 -4.529968 0.377692
v 1.593788 -4.529968 0.378461
v 1.091264 -4.321816 0.377692
v 1.091264 -4.321816 0.378461
v 1.238450 -4.677154 0.377692
v 1.238450 -4.677154 0.378461
v 1.446603 -4.174630 0.378461
v 1.446603 -4.174630 0.377692
v 1.593788 -4.529968 0.378461
v 1.593788 -4.529968 0.377692
vn -0.0000 -0.0000 1.0000
vn -0.0000 -0.0000 -1.0000
vn -0.3827 0.9239 -0.0000
vn 0.3827 -0.9239 -0.0000
vn -0.9239 -0.3827 -0.0000
vn 0.9239 0.3827 -0.0000
vt 0.687500 0.812500
vt 0.687500 0.781250
vt 0.718750 0.812500
vt 0.718750 0.781250
vt 0.250000 0.312500
vt 0.250000 0.281250
vt 0.281250 0.312500
vt 0.281250 0.281250
vt 0.000000 0.968750
vt 0.000000 1.000000
s 0
usemtl Material_0.004
f 553/278/89 555/279/89 554/280/89
f 555/279/89 556/281/89 554/280/89
f 557/282/90 559/283/90 558/284/90
f 559/283/90 560/285/90 558/284/90
f 561/286/91 563/287/91 562/286/91
f 563/287/91 564/287/91 562/286/91
f 565/287/92 567/286/92 566/287/92
f 567/286/92 568/286/92 566/287/92
f 569/287/93 571/286/93 570/287/93
f 571/286/93 572/286/93 570/287/93
f 573/287/94 575/286/94 574/287/94
f 575/286/94 576/286/94 574/287/94
o bulletModel_34
v 0.944078 -3.966478 0.378461
v 1.299417 -3.819292 0.378461
v 1.091264 -4.321816 0.378461
v 1.446603 -4.174630 0.378461
v 1.299417 -3.819292 0.377692
v 0.944078 -3.966478 0.377692
v 1.446603 -4.174630 0.377692
v 1.091264 -4.321816 0.377692
v 1.299417 -3.819292 0.377692
v 1.299417 -3.819292 0.378461
v 0.944078 -3.966478 0.377692
v 0.944078 -3.966478 0.378461
v 1.091264 -4.321816 0.377692
v 1.091264 -4.321816 0.378461
v 1.446603 -4.174630 0.377692
v 1.446603 -4.174630 0.378461
v 0.944078 -3.966478 0.377692
v 0.944078 -3.966478 0.378461
v 1.091264 -4.321816 0.377692
v 1.091264 -4.321816 0.378461
v 1.299417 -3.819292 0.378461
v 1.299417 -3.819292 0.377692
v 1.446603 -4.174630 0.378461
v 1.446603 -4.174630 0.377692
vn -0.0000 -0.0000 1.0000
vn -0.0000 -0.0000 -1.0000
vn -0.3827 0.9239 -0.0000
vn 0.3827 -0.9239 -0.0000
vn -0.9239 -0.3827 -0.0000
vn 0.9239 0.3827 -0.0000
vt 0.687500 0.875000
vt 0.687500 0.843750
vt 0.718750 0.875000
vt 0.718750 0.843750
vt 0.187500 0.312500
vt 0.187500 0.281250
vt 0.218750 0.312500
vt 0.218750 0.281250
vt 0.000000 0.968750
vt 0.000000 1.000000
s 0
usemtl Material_0.004
f 577/288/95 579/289/95 578/290/95
f 579/289/95 580/291/95 578/290/95
f 581/292/96 583/293/96 582/294/96
f 583/293/96 584/295/96 582/294/96
f 585/296/97 587/297/97 586/296/97
f 587/297/97 588/297/97 586/296/97
f 589/297/98 591/296/98 590/297/98
f 591/296/98 592/296/98 590/297/98
f 593/297/99 595/296/99 594/297/99
f 595/296/99 596/296/99 594/297/99
f 597/297/100 599/296/100 598/297/100
f 599/296/100 600/296/100 598/297/100
o bulletModel_32
v 0.796892 -3.611140 0.378461
v 1.152231 -3.463954 0.378461
v 0.944078 -3.966478 0.378461
v 1.299417 -3.819292 0.378461
v 1.152231 -3.463954 0.377692
v 0.796892 -3.611140 0.377692
v 1.299417 -3.819292 0.377692
v 0.944078 -3.966478 0.377692
v 1.152231 -3.463954 0.377692
v 1.152231 -3.463954 0.378461
v 0.796892 -3.611140 0.377692
v 0.796892 -3.611140 0.378461
v 0.944078 -3.966478 0.377692
v 0.944078 -3.966478 0.378461
v 1.299417 -3.819292 0.377692
v 1.299417 -3.819292 0.378461
v 0.796892 -3.611140 0.377692
v 0.796892 -3.611140 0.378461
v 0.944078 -3.966478 0.377692
v 0.944078 -3.966478 0.378461
v 1.152231 -3.463954 0.378461
v 1.152231 -3.463954 0.377692
v 1.299417 -3.819292 0.378461
v 1.299417 -3.819292 0.377692
vn -0.0000 -0.0000 1.0000
vn -0.0000 -0.0000 -1.0000
vn -0.3827 0.9239 -0.0000
vn 0.3827 -0.9239 -0.0000
vn -0.9239 -0.3827 -0.0000
vn 0.9239 0.3827 -0.0000
vt 0.187500 0.375000
vt 0.187500 0.343750
vt 0.218750 0.375000
vt 0.218750 0.343750
vt 0.625000 0.812500
vt 0.625000 0.781250
vt 0.656250 0.812500
vt 0.656250 0.781250
vt 0.000000 0.968750
vt 0.000000 1.000000
s 0
usemtl Material_0.004
f 601/298/101 603/299/101 602/300/101
f 603/299/101 604/301/101 602/300/101
f 605/302/102 607/303/102 606/304/102
f 607/303/102 608/305/102 606/304/102
f 609/306/103 611/307/103 610/306/103
f 611/307/103 612/307/103 610/306/103
f 613/307/104 615/306/104 614/307/104
f 615/306/104 616/306/104 614/307/104
f 617/307/105 619/306/105 618/307/105
f 619/306/105 620/306/105 618/307/105
f 621/307/106 623/306/106 622/307/106
f 623/306/106 624/306/106 622/307/106
o bulletModel_30
v 0.649706 -3.255801 0.378461
v 1.005045 -3.108615 0.378461
v 0.796892 -3.611140 0.378461
v 1.152231 -3.463954 0.378461
v 1.005045 -3.108615 0.377692
v 0.649706 -3.255801 0.377692
v 1.152231 -3.463954 0.377692
v 0.796892 -3.611140 0.377692
v 1.005045 -3.108615 0.377692
v 1.005045 -3.108615 0.378461
v 0.649706 -3.255801 0.377692
v 0.649706 -3.255801 0.378461
v 0.796892 -3.611140 0.377692
v 0.796892 -3.611140 0.378461
v 1.152231 -3.463954 0.377692
v 1.152231 -3.463954 0.378461
v 0.649706 -3.255801 0.377692
v 0.649706 -3.255801 0.378461
v 0.796892 -3.611140 0.377692
v 0.796892 -3.611140 0.378461
v 1.005045 -3.108615 0.378461
v 1.005045 -3.108615 0.377692
v 1.152231 -3.463954 0.378461
v 1.152231 -3.463954 0.377692
vn -0.0000 -0.0000 1.0000
vn -0.0000 -0.0000 -1.0000
vn -0.3827 0.9239 -0.0000
vn 0.3827 -0.9239 -0.0000
vn -0.9239 -0.3827 -0.0000
vn 0.9239 0.3827 -0.0000
vt 0.562500 0.562500
vt 0.562500 0.531250
vt 0.593750 0.562500
vt 0.593750 0.531250
vt 0.500000 0.437500
vt 0.500000 0.406250
vt 0.531250 0.437500
vt 0.531250 0.406250
vt 0.000000 0.968750
vt 0.000000 1.000000
s 0
usemtl Material_0.004
f 625/308/107 627/309/107 626/310/107
f 627/309/107 628/311/107 626/310/107
f 629/312/108 631/313/108 630/314/108
f 631/313/108 632/315/108 630/314/108
f 633/316/109 635/317/109 634/316/109
f 635/317/109 636/317/109 634/316/109
f 637/317/110 639/316/110 638/317/110
f 639/316/110 640/316/110 638/317/110
f 641/317/111 643/316/111 642/317/111
f 643/316/111 644/316/111 642/317/111
f 645/317/112 647/316/112 646/317/112
f 647/316/112 648/316/112 646/317/112
o bulletModel_28
v 0.502521 -2.900463 0.378461
v 0.857859 -2.753277 0.378461
v 0.649706 -3.255801 0.378461
v 1.005045 -3.108615 0.378461
v 0.857859 -2.753277 0.377692
v 0.502521 -2.900463 0.377692
v 1.005045 -3.108615 0.377692
v 0.649706 -3.255801 0.377692
v 0.857859 -2.753277 0.377692
v 0.857859 -2.753277 0.378461
v 0.502521 -2.900463 0.377692
v 0.502521 -2.900463 0.378461
v 0.649706 -3.255801 0.377692
v 0.649706 -3.255801 0.378461
v 1.005045 -3.108615 0.377692
v 1.005045 -3.108615 0.378461
v 0.502521 -2.900463 0.377692
v 0.502521 -2.900463 0.378461
v 0.649706 -3.255801 0.377692
v 0.649706 -3.255801 0.378461
v 0.857859 -2.753277 0.378461
v 0.857859 -2.753277 0.377692
v 1.005045 -3.108615 0.378461
v 1.005045 -3.108615 0.377692
vn -0.0000 -0.0000 1.0000
vn -0.0000 -0.0000 -1.0000
vn -0.3827 0.9239 -0.0000
vn 0.3827 -0.9239 -0.0000
vn -0.9239 -0.3827 -0.0000
vn 0.9239 0.3827 -0.0000
vt 0.687500 0.937500
vt 0.687500 0.906250
vt 0.718750 0.937500
vt 0.718750 0.906250
vt 0.125000 0.312500
vt 0.125000 0.281250
vt 0.156250 0.312500
vt 0.156250 0.281250
vt 0.000000 0.968750
vt 0.000000 1.000000
s 0
usemtl Material_0.004
f 649/318/113 651/319/113 650/320/113
f 651/319/113 652/321/113 650/320/113
f 653/322/114 655/323/114 654/324/114
f 655/323/114 656/325/114 654/324/114
f 657/326/115 659/327/115 658/326/115
f 659/327/115 660/327/115 658/326/115
f 661/327/116 663/326/116 662/327/116
f 663/326/116 664/326/116 662/327/116
f 665/327/117 667/326/117 666/327/117
f 667/326/117 668/326/117 666/327/117
f 669/327/118 671/326/118 670/327/118
f 671/326/118 672/326/118 670/327/118
o bulletModel_26
v 0.355335 -2.545125 0.378461
v 0.710673 -2.397939 0.378461
v 0.502521 -2.900463 0.378461
v 0.857859 -2.753277 0.378461
v 0.710673 -2.397939 0.377692
v 0.355335 -2.545125 0.377692
v 0.857859 -2.753277 0.377692
v 0.502521 -2.900463 0.377692
v 0.710673 -2.397939 0.377692
v 0.710673 -2.397939 0.378461
v 0.355335 -2.545125 0.377692
v 0.355335 -2.545125 0.378461
v 0.502521 -2.900463 0.377692
v 0.502521 -2.900463 0.378461
v 0.857859 -2.753277 0.377692
v 0.857859 -2.753277 0.378461
v 0.355335 -2.545125 0.377692
v 0.355335 -2.545125 0.378461
v 0.502521 -2.900463 0.377692
v 0.502521 -2.900463 0.378461
v 0.710673 -2.397939 0.378461
v 0.710673 -2.397939 0.377692
v 0.857859 -2.753277 0.378461
v 0.857859 -2.753277 0.377692
vn -0.0000 -0.0000 1.0000
vn -0.0000 -0.0000 -1.0000
vn -0.3827 0.9239 -0.0000
vn 0.3827 -0.9239 -0.0000
vn -0.9239 -0.3827 -0.0000
vn 0.9239 0.3827 -0.0000
vt 0.375000 0.375000
vt 0.375000 0.343750
vt 0.406250 0.375000
vt 0.406250 0.343750
vt 0.625000 0.625000
vt 0.625000 0.593750
vt 0.656250 0.625000
vt 0.656250 0.593750
vt 0.000000 0.968750
vt 0.000000 1.000000
s 0
usemtl Material_0.004
f 673/328/119 675/329/119 674/330/119
f 675/329/119 676/331/119 674/330/119
f 677/332/120 679/333/120 678/334/120
f 679/333/120 680/335/120 678/334/120
f 681/336/121 683/337/121 682/336/121
f 683/337/121 684/337/121 682/336/121
f 685/337/122 687/336/122 686/337/122
f 687/336/122 688/336/122 686/337/122
f 689/337/123 691/336/123 690/337/123
f 691/336/123 692/336/123 690/337/123
f 693/337/124 695/336/124 694/337/124
f 695/336/124 696/336/124 694/337/124
o bulletModel_24
v 0.384615 -2.307692 0.386154
v 0.769231 -2.307692 0.386154
v 0.384615 -2.692308 0.386154
v 0.769231 -2.692308 0.386154
v 0.769231 -2.307692 0.385384
v 0.384615 -2.307692 0.385385
v 0.769231 -2.692308 0.385384
v 0.384615 -2.692308 0.385385
v 0.769231 -2.307692 0.385384
v 0.769231 -2.307692 0.386154
v 0.384615 -2.307692 0.385385
v 0.384615 -2.307692 0.386154
v 0.384615 -2.692308 0.385385
v 0.384615 -2.692308 0.386154
v 0.769231 -2.692308 0.385384
v 0.769231 -2.692308 0.386154
v 0.384615 -2.307692 0.385385
v 0.384615 -2.307692 0.386154
v 0.384615 -2.692308 0.385385
v 0.384615 -2.692308 0.386154
v 0.769231 -2.307692 0.386154
v 0.769231 -2.307692 0.385384
v 0.769231 -2.692308 0.386154
v 0.769231 -2.692308 0.385384
vn -0.0000 -0.0000 1.0000
vn -0.0000 -0.0000 -1.0000
vn -0.0000 1.0000 -0.0000
vn -0.0000 -1.0000 -0.0000
vn -1.0000 -0.0000 -0.0000
vn 1.0000 -0.0000 -0.0000
vt 0.687500 1.000000
vt 0.687500 0.968750
vt 0.718750 1.000000
vt 0.718750 0.968750
vt 0.062500 0.312500
vt 0.062500 0.281250
vt 0.093750 0.312500
vt 0.093750 0.281250
vt 0.000000 0.968750
vt 0.000000 1.000000
s 0
usemtl Material_0.004
f 697/338/125 699/339/125 698/340/125
f 699/339/125 700/341/125 698/340/125
f 701/342/126 703/343/126 702/344/126
f 703/343/126 704/345/126 702/344/126
f 705/346/127 707/347/127 706/346/127
f 707/347/127 708/347/127 706/346/127
f 709/347/128 711/346/128 710/347/128
f 711/346/128 712/346/128 710/347/128
f 713/347/129 715/346/129 714/347/129
f 715/346/129 716/346/129 714/347/129
f 717/347/130 719/346/130 718/347/130
f 719/346/130 720/346/130 718/347/130
o bulletModel_22
v 0.384615 -1.923077 0.386154
v 0.769231 -1.923077 0.386154
v 0.384615 -2.307692 0.386154
v 0.769231 -2.307692 0.386154
v 0.769231 -1.923077 0.385384
v 0.384615 -1.923077 0.385385
v 0.769231 -2.307692 0.385384
v 0.384615 -2.307692 0.385385
v 0.769231 -1.923077 0.385384
v 0.769231 -1.923077 0.386154
v 0.384615 -1.923077 0.385385
v 0.384615 -1.923077 0.386154
v 0.384615 -2.307692 0.385385
v 0.384615 -2.307692 0.386154
v 0.769231 -2.307692 0.385384
v 0.769231 -2.307692 0.386154
v 0.384615 -1.923077 0.385385
v 0.384615 -1.923077 0.386154
v 0.384615 -2.307692 0.385385
v 0.384615 -2.307692 0.386154
v 0.769231 -1.923077 0.386154
v 0.769231 -1.923077 0.385384
v 0.769231 -2.307692 0.386154
v 0.769231 -2.307692 0.385384
vn -0.0000 -0.0000 1.0000
vn -0.0000 -0.0000 -1.0000
vn -0.0000 1.0000 -0.0000
vn -0.0000 -1.0000 -0.0000
vn -1.0000 -0.0000 -0.0000
vn 1.0000 -0.0000 -0.0000
vt 0.625000 0.375000
vt 0.625000 0.343750
vt 0.656250 0.375000
vt 0.656250 0.343750
vt 0.000000 0.312500
vt 0.000000 0.281250
vt 0.031250 0.312500
vt 0.031250 0.281250
vt 0.000000 0.968750
vt 0.000000 1.000000
s 0
usemtl Material_0.004
f 721/348/131 723/349/131 722/350/131
f 723/349/131 724/351/131 722/350/131
f 725/352/132 727/353/132 726/354/132
f 727/353/132 728/355/132 726/354/132
f 729/356/133 731/357/133 730/356/133
f 731/357/133 732/357/133 730/356/133
f 733/357/134 735/356/134 734/357/134
f 735/356/134 736/356/134 734/357/134
f 737/357/135 739/356/135 738/357/135
f 739/356/135 740/356/135 738/357/135
f 741/357/136 743/356/136 742/357/136
f 743/356/136 744/356/136 742/357/136
o bulletModel_20
v 0.384615 -1.538462 0.386154
v 0.769231 -1.538462 0.386154
v 0.384615 -1.923077 0.386154
v 0.769231 -1.923077 0.386154
v 0.769231 -1.538462 0.385384
v 0.384615 -1.538462 0.385385
v 0.769231 -1.923077 0.385384
v 0.384615 -1.923077 0.385385
v 0.769231 -1.538462 0.385384
v 0.769231 -1.538462 0.386154
v 0.384615 -1.538462 0.385385
v 0.384615 -1.538462 0.386154
v 0.384615 -1.923077 0.385385
v 0.384615 -1.923077 0.386154
v 0.769231 -1.923077 0.385384
v 0.769231 -1.923077 0.386154
v 0.384615 -1.538462 0.385385
v 0.384615 -1.538462 0.386154
v 0.384615 -1.923077 0.385385
v 0.384615 -1.923077 0.386154
v 0.769231 -1.538462 0.386154
v 0.769231 -1.538462 0.385384
v 0.769231 -1.923077 0.386154
v 0.769231 -1.923077 0.385384
vn -0.0000 -0.0000 1.0000
vn -0.0000 -0.0000 -1.0000
vn -0.0000 1.0000 -0.0000
vn -0.0000 -1.0000 -0.0000
vn -1.0000 -0.0000 -0.0000
vn 1.0000 -0.0000 -0.0000
vt 0.562500 0.375000
vt 0.562500 0.343750
vt 0.593750 0.375000
vt 0.593750 0.343750
vt 0.625000 0.437500
vt 0.625000 0.406250
vt 0.656250 0.437500
vt 0.656250 0.406250
vt 0.000000 0.968750
vt 0.000000 1.000000
s 0
usemtl Material_0.004
f 745/358/137 747/359/137 746/360/137
f 747/359/137 748/361/137 746/360/137
f 749/362/138 751/363/138 750/364/138
f 751/363/138 752/365/138 750/364/138
f 753/366/139 755/367/139 754/366/139
f 755/367/139 756/367/139 754/366/139
f 757/367/140 759/366/140 758/367/140
f 759/366/140 760/366/140 758/367/140
f 761/367/141 763/366/141 762/367/141
f 763/366/141 764/366/141 762/367/141
f 765/367/142 767/366/142 766/367/142
f 767/366/142 768/366/142 766/367/142
o bulletModel_18
v 0.384615 -1.153846 0.386154
v 0.769231 -1.153846 0.386154
v 0.384615 -1.538462 0.386154
v 0.769231 -1.538462 0.386154
v 0.769231 -1.153846 0.385384
v 0.384615 -1.153846 0.385385
v 0.769231 -1.538462 0.385384
v 0.384615 -1.538462 0.385385
v 0.769231 -1.153846 0.385384
v 0.769231 -1.153846 0.386154
v 0.384615 -1.153846 0.385385
v 0.384615 -1.153846 0.386154
v 0.384615 -1.538462 0.385385
v 0.384615 -1.538462 0.386154
v 0.769231 -1.538462 0.385384
v 0.769231 -1.538462 0.386154
v 0.384615 -1.153846 0.385385
v 0.384615 -1.153846 0.386154
v 0.384615 -1.538462 0.385385
v 0.384615 -1.538462 0.386154
v 0.769231 -1.153846 0.386154
v 0.769231 -1.153846 0.385384
v 0.769231 -1.538462 0.386154
v 0.769231 -1.538462 0.385384
vn -0.0000 -0.0000 1.0000
vn -0.0000 -0.0000 -1.0000
vn -0.0000 1.0000 -0.0000
vn -0.0000 -1.0000 -0.0000
vn -1.0000 -0.0000 -0.0000
vn 1.0000 -0.0000 -0.0000
vt 0.500000 0.375000
vt 0.500000 0.343750
vt 0.531250 0.375000
vt 0.531250 0.343750
vt 0.625000 0.500000
vt 0.625000 0.468750
vt 0.656250 0.500000
vt 0.656250 0.468750
vt 0.000000 0.968750
vt 0.000000 1.000000
s 0
usemtl Material_0.004
f 769/368/143 771/369/143 770/370/143
f 771/369/143 772/371/143 770/370/143
f 773/372/144 775/373/144 774/374/144
f 775/373/144 776/375/144 774/374/144
f 777/376/145 779/377/145 778/376/145
f 779/377/145 780/377/145 778/376/145
f 781/377/146 783/376/146 782/377/146
f 783/376/146 784/376/146 782/377/146
f 785/377/147 787/376/147 786/377/147
f 787/376/147 788/376/147 786/377/147
f 789/377/148 791/376/148 790/377/148
f 791/376/148 792/376/148 790/377/148
o bulletModel_16
v 0.384615 -0.769231 0.386154
v 0.769231 -0.769231 0.386154
v 0.384615 -1.153846 0.386154
v 0.769231 -1.153846 0.386154
v 0.769231 -0.769231 0.385384
v 0.384615 -0.769231 0.385385
v 0.769231 -1.153846 0.385384
v 0.384615 -1.153846 0.385385
v 0.769231 -0.769231 0.385384
v 0.769231 -0.769231 0.386154
v 0.384615 -0.769231 0.385385
v 0.384615 -0.769231 0.386154
v 0.384615 -1.153846 0.385385
v 0.384615 -1.153846 0.386154
v 0.769231 -1.153846 0.385384
v 0.769231 -1.153846 0.386154
v 0.384615 -0.769231 0.385385
v 0.384615 -0.769231 0.386154
v 0.384615 -1.153846 0.385385
v 0.384615 -1.153846 0.386154
v 0.769231 -0.769231 0.386154
v 0.769231 -0.769231 0.385384
v 0.769231 -1.153846 0.386154
v 0.769231 -1.153846 0.385384
vn -0.0000 -0.0000 1.0000
vn -0.0000 -0.0000 -1.0000
vn -0.0000 1.0000 -0.0000
vn -0.0000 -1.0000 -0.0000
vn -1.0000 -0.0000 -0.0000
vn 1.0000 -0.0000 -0.0000
vt 0.437500 0.375000
vt 0.437500 0.343750
vt 0.468750 0.375000
vt 0.468750 0.343750
vt 0.625000 0.562500
vt 0.625000 0.531250
vt 0.656250 0.562500
vt 0.656250 0.531250
vt 0.000000 0.968750
vt 0.000000 1.000000
s 0
usemtl Material_0.004
f 793/378/149 795/379/149 794/380/149
f 795/379/149 796/381/149 794/380/149
f 797/382/150 799/383/150 798/384/150
f 799/383/150 800/385/150 798/384/150
f 801/386/151 803/387/151 802/386/151
f 803/387/151 804/387/151 802/386/151
f 805/387/152 807/386/152 806/387/152
f 807/386/152 808/386/152 806/387/152
f 809/387/153 811/386/153 810/387/153
f 811/386/153 812/386/153 810/387/153
f 813/387/154 815/386/154 814/387/154
f 815/386/154 816/386/154 814/387/154
