# Blender 4.3.2
# www.blender.org
mtllib lev.ak308magn.mtl
o ammoModel
v -0.002945 -3.839049 0.383846
v 1.960228 -3.025877 0.383846
v 0.336825 -4.659327 0.383846
v 2.299998 -3.846153 0.383846
v 1.960228 -3.025877 -0.383847
v -0.002945 -3.839049 -0.383846
v 2.299998 -3.846153 -0.383847
v 0.336825 -4.659327 -0.383846
v 1.960228 -3.025877 -0.383847
v 1.960228 -3.025877 0.383846
v -0.002945 -3.839049 -0.383846
v -0.002945 -3.839049 0.383846
v 0.336825 -4.659327 -0.383846
v 0.336825 -4.659327 0.383846
v 2.299998 -3.846153 -0.383847
v 2.299998 -3.846153 0.383846
v -0.002945 -3.839049 -0.383846
v -0.002945 -3.839049 0.383846
v 0.336825 -4.659327 -0.383846
v 0.336825 -4.659327 0.383846
v 1.960228 -3.025877 0.383846
v 1.960228 -3.025877 -0.383847
v 2.299998 -3.846153 0.383846
v 2.299998 -3.846153 -0.383847
v 0.000000 -0.000000 -0.376923
v 2.307693 -0.000000 -0.376923
v -0.000000 -3.846154 -0.376923
v 2.307692 -3.846154 -0.376924
v 2.307693 -0.000000 -0.384616
v 0.000000 -0.000000 -0.384615
v 2.307692 -3.846154 -0.384616
v -0.000000 -3.846154 -0.384616
v 2.307693 -0.000000 -0.384616
v 2.307693 -0.000000 -0.376923
v 0.000000 -0.000000 -0.384615
v 0.000000 -0.000000 -0.376923
v -0.000000 -3.846154 -0.384616
v -0.000000 -3.846154 -0.376923
v 2.307692 -3.846154 -0.384616
v 2.307692 -3.846154 -0.376924
v 0.000000 -0.000000 -0.384615
v 0.000000 -0.000000 -0.376923
v -0.000000 -3.846154 -0.384616
v -0.000000 -3.846154 -0.376923
v 2.307693 -0.000000 -0.376923
v 2.307693 -0.000000 -0.384616
v 2.307692 -3.846154 -0.376924
v 2.307692 -3.846154 -0.384616
v -0.007692 -0.000000 0.384615
v 0.000000 -0.000000 0.384615
v -0.007692 -3.846154 0.384615
v -0.000000 -3.846154 0.384615
v 0.000000 -0.000000 -0.384615
v -0.007692 -0.000000 -0.384615
v -0.000000 -3.846154 -0.384616
v -0.007692 -3.846154 -0.384616
v 0.000000 -0.000000 -0.384615
v 0.000000 -0.000000 0.384615
v -0.007692 -0.000000 -0.384615
v -0.007692 -0.000000 0.384615
v -0.007692 -3.846154 -0.384616
v -0.007692 -3.846154 0.384615
v -0.000000 -3.846154 -0.384616
v -0.000000 -3.846154 0.384615
v -0.007692 -0.000000 -0.384615
v -0.007692 -0.000000 0.384615
v -0.007692 -3.846154 -0.384616
v -0.007692 -3.846154 0.384615
v 0.000000 -0.000000 0.384615
v 0.000000 -0.000000 -0.384615
v -0.000000 -3.846154 0.384615
v -0.000000 -3.846154 -0.384616
v 0.000000 -0.000000 0.392308
v 2.307693 -0.000000 0.392308
v -0.000000 -3.846154 0.392308
v 2.307693 -3.846154 0.392307
v 2.307693 -0.000000 0.384615
v 0.000000 -0.000000 0.384615
v 2.307693 -3.846154 0.384615
v -0.000000 -3.846154 0.384615
v 2.307693 -0.000000 0.384615
v 2.307693 -0.000000 0.392308
v 0.000000 -0.000000 0.384615
v 0.000000 -0.000000 0.392308
v -0.000000 -3.846154 0.384615
v -0.000000 -3.846154 0.392308
v 2.307693 -3.846154 0.384615
v 2.307693 -3.846154 0.392307
v 0.000000 -0.000000 0.384615
v 0.000000 -0.000000 0.392308
v -0.000000 -3.846154 0.384615
v -0.000000 -3.846154 0.392308
v 2.307693 -0.000000 0.392308
v 2.307693 -0.000000 0.384615
v 2.307693 -3.846154 0.392307
v 2.307693 -3.846154 0.384615
v 2.300000 -0.000000 0.384615
v 2.307693 -0.000000 0.384615
v 2.300000 -3.846154 0.384615
v 2.307693 -3.846154 0.384615
v 2.307693 -0.000000 -0.384616
v 2.300000 -0.000000 -0.384616
v 2.307692 -3.846154 -0.384616
v 2.300000 -3.846154 -0.384616
v 2.307693 -0.000000 -0.384616
v 2.307693 -0.000000 0.384615
v 2.300000 -0.000000 -0.384616
v 2.300000 -0.000000 0.384615
v 2.300000 -3.846154 -0.384616
v 2.300000 -3.846154 0.384615
v 2.307692 -3.846154 -0.384616
v 2.307693 -3.846154 0.384615
v 2.300000 -0.000000 -0.384616
v 2.300000 -0.000000 0.384615
v 2.300000 -3.846154 -0.384616
v 2.300000 -3.846154 0.384615
v 2.307693 -0.000000 0.384615
v 2.307693 -0.000000 -0.384616
v 2.307693 -3.846154 0.384615
v 2.307692 -3.846154 -0.384616
vn -0.0000 -0.0000 1.0000
vn -0.0000 -0.0000 -1.0000
vn -0.3827 0.9239 -0.0000
vn 0.3827 -0.9239 -0.0000
vn -0.9239 -0.3827 -0.0000
vn 0.9239 0.3827 -0.0000
vn -0.0000 1.0000 -0.0000
vn -0.0000 -1.0000 -0.0000
vn -1.0000 -0.0000 -0.0000
vn 1.0000 -0.0000 -0.0000
vt 0.250000 0.687500
vt 0.250000 0.625000
vt 0.437500 0.687500
vt 0.437500 0.625000
vt 0.375000 1.000000
vt 0.375000 0.937500
vt 0.562500 1.000000
vt 0.562500 0.937500
vt 0.437500 0.750000
vt 0.437500 0.937500
vt 0.375000 0.750000
vt 0.312500 0.625000
vt 0.312500 0.437500
vt 0.250000 0.437500
vt 0.625000 0.812500
vt 0.625000 0.750000
vt 0.687500 0.812500
vt 0.687500 0.750000
vt 0.375000 0.687500
vt 0.000000 1.000000
vt 0.000000 0.687500
vt 0.187500 1.000000
vt 0.187500 0.687500
vt 0.218750 0.187500
vt 0.218750 0.375000
vt 0.187500 0.187500
vt 0.187500 0.375000
vt 0.656250 0.562500
vt 0.656250 0.375000
vt 0.625000 0.562500
vt 0.625000 0.375000
vt 0.343750 1.000000
vt 0.343750 0.687500
vt 0.312500 0.312500
vt 0.343750 0.625000
vt 0.343750 0.312500
vt 0.437500 0.968750
vt 0.437500 1.000000
vt 0.375000 0.968750
vt 0.750000 0.750000
vt 0.750000 0.718750
vt 0.687500 0.718750
vt 0.062500 0.687500
vt 0.062500 0.375000
vt 0.125000 0.687500
vt 0.125000 0.375000
vt 0.000000 0.375000
vt 0.656250 0.187500
vt 0.625000 0.187500
vt 0.031250 0.312500
vt 0.031250 0.125000
vt 0.000000 0.312500
vt 0.000000 0.125000
vt 0.500000 0.937500
vt 0.500000 0.625000
vt 0.531250 0.937500
vt 0.531250 0.625000
vt 0.562500 0.687500
vt 0.593750 1.000000
vt 0.593750 0.687500
vt 0.250000 0.125000
vt 0.281250 0.437500
vt 0.281250 0.125000
vt 0.375000 0.281250
vt 0.375000 0.312500
vt 0.312500 0.281250
vt 0.750000 0.687500
vt 0.750000 0.656250
vt 0.687500 0.687500
vt 0.687500 0.656250
vt 0.250000 0.375000
s 0
usemtl Material_0
f 1/1/1 3/2/1 2/3/1
f 3/2/1 4/4/1 2/3/1
f 5/5/2 7/6/2 6/7/2
f 7/6/2 8/8/2 6/7/2
f 9/9/3 11/10/3 10/11/3
f 11/10/3 12/6/3 10/11/3
f 13/12/4 15/13/4 14/2/4
f 15/13/4 16/14/4 14/2/4
f 17/15/5 19/16/5 18/17/5
f 19/16/5 20/18/5 18/17/5
f 21/11/6 23/19/6 22/9/6
f 23/19/6 24/3/6 22/9/6
f 25/20/1 27/21/1 26/22/1
f 27/21/1 28/23/1 26/22/1
f 29/22/2 31/23/2 30/5/2
f 31/23/2 32/19/2 30/5/2
f 33/24/7 35/25/7 34/26/7
f 35/25/7 36/27/7 34/26/7
f 37/28/8 39/29/8 38/30/8
f 39/29/8 40/31/8 38/30/8
f 41/32/9 43/33/9 42/5/9
f 43/33/9 44/19/9 42/5/9
f 45/12/10 47/34/10 46/35/10
f 47/34/10 48/36/10 46/35/10
f 49/32/1 51/33/1 50/5/1
f 51/33/1 52/19/1 50/5/1
f 53/32/2 55/33/2 54/5/2
f 55/33/2 56/19/2 54/5/2
f 57/37/7 59/38/7 58/39/7
f 59/38/7 60/5/7 58/39/7
f 61/40/8 63/41/8 62/18/8
f 63/41/8 64/42/8 62/18/8
f 65/43/9 67/44/9 66/45/9
f 67/44/9 68/46/9 66/45/9
f 69/21/10 71/47/10 70/43/10
f 71/47/10 72/44/10 70/43/10
f 73/5/1 75/19/1 74/22/1
f 75/19/1 76/23/1 74/22/1
f 77/22/2 79/23/2 78/5/2
f 79/23/2 80/19/2 78/5/2
f 81/48/7 83/29/7 82/49/7
f 83/29/7 84/31/7 82/49/7
f 85/50/8 87/51/8 86/52/8
f 87/51/8 88/53/8 86/52/8
f 89/32/9 91/33/9 90/5/9
f 91/33/9 92/19/9 90/5/9
f 93/54/10 95/55/10 94/56/10
f 95/55/10 96/57/10 94/56/10
f 97/7/1 99/58/1 98/59/1
f 99/58/1 100/60/1 98/59/1
f 101/14/2 103/61/2 102/62/2
f 103/61/2 104/63/2 102/62/2
f 105/64/7 107/65/7 106/66/7
f 107/65/7 108/34/7 106/66/7
f 109/67/8 111/68/8 110/69/8
f 111/68/8 112/70/8 110/69/8
f 113/23/9 115/27/9 114/1/9
f 115/27/9 116/71/9 114/1/9
f 117/45/10 119/46/10 118/23/10
f 119/46/10 120/27/10 118/23/10
o bulletModel_9
v 1.923077 -1.153846 -0.384616
v 2.307692 -1.153846 -0.384616
v 1.923077 -1.538462 -0.384616
v 2.307692 -1.538462 -0.384616
v 2.307692 -1.153846 -0.385385
v 1.923077 -1.153846 -0.385385
v 2.307692 -1.538462 -0.385385
v 1.923077 -1.538462 -0.385385
v 2.307692 -1.153846 -0.385385
v 2.307692 -1.153846 -0.384616
v 1.923077 -1.153846 -0.385385
v 1.923077 -1.153846 -0.384616
v 1.923077 -1.538462 -0.385385
v 1.923077 -1.538462 -0.384616
v 2.307692 -1.538462 -0.385385
v 2.307692 -1.538462 -0.384616
v 1.923077 -1.153846 -0.385385
v 1.923077 -1.153846 -0.384616
v 1.923077 -1.538462 -0.385385
v 1.923077 -1.538462 -0.384616
v 2.307692 -1.153846 -0.384616
v 2.307692 -1.153846 -0.385385
v 2.307692 -1.538462 -0.384616
v 2.307692 -1.538462 -0.385385
v 1.923077 -1.153846 0.393076
v 2.307692 -1.153846 0.393076
v 1.923077 -1.538462 0.393076
v 2.307692 -1.538462 0.393076
v 2.307692 -1.153846 0.392307
v 1.923077 -1.153846 0.392307
v 2.307692 -1.538462 0.392307
v 1.923077 -1.538462 0.392307
v 2.307692 -1.153846 0.392307
v 2.307692 -1.153846 0.393076
v 1.923077 -1.153846 0.392307
v 1.923077 -1.153846 0.393076
v 1.923077 -1.538462 0.392307
v 1.923077 -1.538462 0.393076
v 2.307692 -1.538462 0.392307
v 2.307692 -1.538462 0.393076
v 1.923077 -1.153846 0.392307
v 1.923077 -1.153846 0.393076
v 1.923077 -1.538462 0.392307
v 1.923077 -1.538462 0.393076
v 2.307692 -1.153846 0.393076
v 2.307692 -1.153846 0.392307
v 2.307692 -1.538462 0.393076
v 2.307692 -1.538462 0.392307
vn -0.0000 -0.0000 1.0000
vn -0.0000 -0.0000 -1.0000
vn -0.0000 1.0000 -0.0000
vn -0.0000 -1.0000 -0.0000
vn -1.0000 -0.0000 -0.0000
vn 1.0000 -0.0000 -0.0000
vt 0.593750 1.000000
vt 0.593750 0.968750
vt 0.625000 1.000000
vt 0.625000 0.968750
s 0
usemtl Material_0
f 121/72/11 123/73/11 122/74/11
f 123/73/11 124/75/11 122/74/11
f 125/72/12 127/73/12 126/74/12
f 127/73/12 128/75/12 126/74/12
f 129/72/13 131/73/13 130/74/13
f 131/73/13 132/75/13 130/74/13
f 133/72/14 135/73/14 134/74/14
f 135/73/14 136/75/14 134/74/14
f 137/72/15 139/73/15 138/74/15
f 139/73/15 140/75/15 138/74/15
f 141/72/16 143/73/16 142/74/16
f 143/73/16 144/75/16 142/74/16
f 145/72/11 147/73/11 146/74/11
f 147/73/11 148/75/11 146/74/11
f 149/72/12 151/73/12 150/74/12
f 151/73/12 152/75/12 150/74/12
f 153/72/13 155/73/13 154/74/13
f 155/73/13 156/75/13 154/74/13
f 157/72/14 159/73/14 158/74/14
f 159/73/14 160/75/14 158/74/14
f 161/72/15 163/73/15 162/74/15
f 163/73/15 164/75/15 162/74/15
f 165/72/16 167/73/16 166/74/16
f 167/73/16 168/75/16 166/74/16
o bulletModel_19
v 1.923077 -2.692308 -0.384616
v 2.307692 -2.692308 -0.384616
v 1.923077 -3.076923 -0.384616
v 2.307692 -3.076923 -0.384616
v 2.307692 -2.692308 -0.385385
v 1.923077 -2.692308 -0.385385
v 2.307692 -3.076923 -0.385385
v 1.923077 -3.076923 -0.385385
v 2.307692 -2.692308 -0.385385
v 2.307692 -2.692308 -0.384616
v 1.923077 -2.692308 -0.385385
v 1.923077 -2.692308 -0.384616
v 1.923077 -3.076923 -0.385385
v 1.923077 -3.076923 -0.384616
v 2.307692 -3.076923 -0.385385
v 2.307692 -3.076923 -0.384616
v 1.923077 -2.692308 -0.385385
v 1.923077 -2.692308 -0.384616
v 1.923077 -3.076923 -0.385385
v 1.923077 -3.076923 -0.384616
v 2.307692 -2.692308 -0.384616
v 2.307692 -2.692308 -0.385385
v 2.307692 -3.076923 -0.384616
v 2.307692 -3.076923 -0.385385
v 1.923077 -2.692308 0.393076
v 2.307692 -2.692308 0.393076
v 1.923077 -3.076923 0.393076
v 2.307692 -3.076923 0.393076
v 2.307692 -2.692308 0.392307
v 1.923077 -2.692308 0.392307
v 2.307692 -3.076923 0.392307
v 1.923077 -3.076923 0.392307
v 2.307692 -2.692308 0.392307
v 2.307692 -2.692308 0.393076
v 1.923077 -2.692308 0.392307
v 1.923077 -2.692308 0.393076
v 1.923077 -3.076923 0.392307
v 1.923077 -3.076923 0.393076
v 2.307692 -3.076923 0.392307
v 2.307692 -3.076923 0.393076
v 1.923077 -2.692308 0.392307
v 1.923077 -2.692308 0.393076
v 1.923077 -3.076923 0.392307
v 1.923077 -3.076923 0.393076
v 2.307692 -2.692308 0.393076
v 2.307692 -2.692308 0.392307
v 2.307692 -3.076923 0.393076
v 2.307692 -3.076923 0.392307
vn -0.0000 -0.0000 1.0000
vn -0.0000 -0.0000 -1.0000
vn -0.0000 1.0000 -0.0000
vn -0.0000 -1.0000 -0.0000
vn -1.0000 -0.0000 -0.0000
vn 1.0000 -0.0000 -0.0000
vt 0.000000 1.000000
vt 0.000000 0.687500
vt 0.187500 1.000000
vt 0.187500 0.687500
vt 0.593750 1.000000
vt 0.593750 0.968750
vt 0.625000 1.000000
vt 0.625000 0.968750
vt 0.218750 0.187500
vt 0.218750 0.375000
vt 0.187500 0.187500
vt 0.187500 0.375000
vt 0.656250 0.562500
vt 0.656250 0.375000
vt 0.625000 0.562500
vt 0.625000 0.375000
vt 0.343750 1.000000
vt 0.343750 0.687500
vt 0.375000 1.000000
vt 0.375000 0.687500
vt 0.312500 0.625000
vt 0.312500 0.312500
vt 0.343750 0.625000
vt 0.343750 0.312500
s 0
usemtl Material_0
f 169/76/17 171/77/17 170/78/17
f 171/77/17 172/79/17 170/78/17
f 173/80/18 175/81/18 174/82/18
f 175/81/18 176/83/18 174/82/18
f 177/84/19 179/85/19 178/86/19
f 179/85/19 180/87/19 178/86/19
f 181/88/20 183/89/20 182/90/20
f 183/89/20 184/91/20 182/90/20
f 185/92/21 187/93/21 186/94/21
f 187/93/21 188/95/21 186/94/21
f 189/96/22 191/97/22 190/98/22
f 191/97/22 192/99/22 190/98/22
f 193/80/17 195/81/17 194/82/17
f 195/81/17 196/83/17 194/82/17
f 197/80/18 199/81/18 198/82/18
f 199/81/18 200/83/18 198/82/18
f 201/80/19 203/81/19 202/82/19
f 203/81/19 204/83/19 202/82/19
f 205/80/20 207/81/20 206/82/20
f 207/81/20 208/83/20 206/82/20
f 209/80/21 211/81/21 210/82/21
f 211/81/21 212/83/21 210/82/21
f 213/80/22 215/81/22 214/82/22
f 215/81/22 216/83/22 214/82/22
o bulletModel_14
v 1.923077 -1.923077 0.393076
v 2.307692 -1.923077 0.393076
v 1.923077 -2.307692 0.393076
v 2.307692 -2.307692 0.393076
v 2.307692 -1.923077 0.392307
v 1.923077 -1.923077 0.392307
v 2.307692 -2.307692 0.392307
v 1.923077 -2.307692 0.392307
v 2.307692 -1.923077 0.392307
v 2.307692 -1.923077 0.393076
v 1.923077 -1.923077 0.392307
v 1.923077 -1.923077 0.393076
v 1.923077 -2.307692 0.392307
v 1.923077 -2.307692 0.393076
v 2.307692 -2.307692 0.392307
v 2.307692 -2.307692 0.393076
v 1.923077 -1.923077 0.392307
v 1.923077 -1.923077 0.393076
v 1.923077 -2.307692 0.392307
v 1.923077 -2.307692 0.393076
v 2.307692 -1.923077 0.393076
v 2.307692 -1.923077 0.392307
v 2.307692 -2.307692 0.393076
v 2.307692 -2.307692 0.392307
v 1.923077 -1.923077 -0.384616
v 2.307692 -1.923077 -0.384616
v 1.923077 -2.307692 -0.384616
v 2.307692 -2.307692 -0.384616
v 2.307692 -1.923077 -0.385385
v 1.923077 -1.923077 -0.385385
v 2.307692 -2.307692 -0.385385
v 1.923077 -2.307692 -0.385385
v 2.307692 -1.923077 -0.385385
v 2.307692 -1.923077 -0.384616
v 1.923077 -1.923077 -0.385385
v 1.923077 -1.923077 -0.384616
v 1.923077 -2.307692 -0.385385
v 1.923077 -2.307692 -0.384616
v 2.307692 -2.307692 -0.385385
v 2.307692 -2.307692 -0.384616
v 1.923077 -1.923077 -0.385385
v 1.923077 -1.923077 -0.384616
v 1.923077 -2.307692 -0.385385
v 1.923077 -2.307692 -0.384616
v 2.307692 -1.923077 -0.384616
v 2.307692 -1.923077 -0.385385
v 2.307692 -2.307692 -0.384616
v 2.307692 -2.307692 -0.385385
vn -0.0000 -0.0000 1.0000
vn -0.0000 -0.0000 -1.0000
vn -0.0000 1.0000 -0.0000
vn -0.0000 -1.0000 -0.0000
vn -1.0000 -0.0000 -0.0000
vn 1.0000 -0.0000 -0.0000
vt 0.593750 1.000000
vt 0.593750 0.968750
vt 0.625000 1.000000
vt 0.625000 0.968750
s 0
usemtl Material_0
f 217/100/23 219/101/23 218/102/23
f 219/101/23 220/103/23 218/102/23
f 221/100/24 223/101/24 222/102/24
f 223/101/24 224/103/24 222/102/24
f 225/100/25 227/101/25 226/102/25
f 227/101/25 228/103/25 226/102/25
f 229/100/26 231/101/26 230/102/26
f 231/101/26 232/103/26 230/102/26
f 233/100/27 235/101/27 234/102/27
f 235/101/27 236/103/27 234/102/27
f 237/100/28 239/101/28 238/102/28
f 239/101/28 240/103/28 238/102/28
f 241/100/23 243/101/23 242/102/23
f 243/101/23 244/103/23 242/102/23
f 245/100/24 247/101/24 246/102/24
f 247/101/24 248/103/24 246/102/24
f 249/100/25 251/101/25 250/102/25
f 251/101/25 252/103/25 250/102/25
f 253/100/26 255/101/26 254/102/26
f 255/101/26 256/103/26 254/102/26
f 257/100/27 259/101/27 258/102/27
f 259/101/27 260/103/27 258/102/27
f 261/100/28 263/101/28 262/102/28
f 263/101/28 264/103/28 262/102/28
o bulletModel_0
v 1.923077 -0.384615 0.393076
v 2.307692 -0.384615 0.393076
v 1.923077 -0.769231 0.393076
v 2.307692 -0.769231 0.393076
v 2.307692 -0.384615 0.392307
v 1.923077 -0.384615 0.392307
v 2.307692 -0.769231 0.392307
v 1.923077 -0.769231 0.392307
v 2.307692 -0.384615 0.392307
v 2.307692 -0.384615 0.393076
v 1.923077 -0.384615 0.392307
v 1.923077 -0.384615 0.393076
v 1.923077 -0.769231 0.392307
v 1.923077 -0.769231 0.393076
v 2.307692 -0.769231 0.392307
v 2.307692 -0.769231 0.393076
v 1.923077 -0.384615 0.392307
v 1.923077 -0.384615 0.393076
v 1.923077 -0.769231 0.392307
v 1.923077 -0.769231 0.393076
v 2.307692 -0.384615 0.393076
v 2.307692 -0.384615 0.392307
v 2.307692 -0.769231 0.393076
v 2.307692 -0.769231 0.392307
v 1.923077 -0.403846 0.134615
v 2.269231 -0.403846 0.134615
v 1.923077 -0.788462 0.134615
v 2.269231 -0.788462 0.134615
v 2.269231 -0.403846 -0.250000
v 1.923077 -0.403846 -0.250000
v 2.269231 -0.788462 -0.250000
v 1.923077 -0.788462 -0.250000
v 2.269231 -0.403846 -0.250000
v 2.269231 -0.403846 0.134615
v 1.923077 -0.403846 -0.250000
v 1.923077 -0.403846 0.134615
v 1.923077 -0.788462 -0.250000
v 1.923077 -0.788462 0.134615
v 2.269231 -0.788462 -0.250000
v 2.269231 -0.788462 0.134615
v 1.923077 -0.403846 -0.250000
v 1.923077 -0.403846 0.134615
v 1.923077 -0.788462 -0.250000
v 1.923077 -0.788462 0.134615
v 2.269231 -0.403846 0.134615
v 2.269231 -0.403846 -0.250000
v 2.269231 -0.788462 0.134615
v 2.269231 -0.788462 -0.250000
v 0.038462 0.076923 0.365385
v 1.538462 0.076923 0.365384
v 0.038462 -0.500000 0.365385
v 1.538462 -0.500000 0.365384
v 1.538461 0.076923 -0.211539
v 0.038461 0.076923 -0.211538
v 1.538461 -0.500000 -0.211539
v 0.038461 -0.500000 -0.211538
v 1.538461 0.076923 -0.211539
v 1.538462 0.076923 0.365384
v 0.038461 0.076923 -0.211538
v 0.038462 0.076923 0.365385
v 0.038461 -0.500000 -0.211538
v 0.038462 -0.500000 0.365385
v 1.538461 -0.500000 -0.211539
v 1.538462 -0.500000 0.365384
v 0.038461 0.076923 -0.211538
v 0.038462 0.076923 0.365385
v 0.038461 -0.500000 -0.211538
v 0.038462 -0.500000 0.365385
v 1.538462 0.076923 0.365384
v 1.538461 0.076923 -0.211539
v 1.538462 -0.500000 0.365384
v 1.538461 -0.500000 -0.211539
v 1.538462 0.019231 0.307692
v 1.923077 0.019231 0.307692
v 1.538462 -0.442308 0.307692
v 1.923077 -0.442308 0.307692
v 1.923077 0.019231 -0.153847
v 1.538461 0.019231 -0.153846
v 1.923077 -0.442308 -0.153847
v 1.538461 -0.442308 -0.153846
v 1.923077 0.019231 -0.153847
v 1.923077 0.019231 0.307692
v 1.538461 0.019231 -0.153846
v 1.538462 0.019231 0.307692
v 1.538461 -0.442308 -0.153846
v 1.538462 -0.442308 0.307692
v 1.923077 -0.442308 -0.153847
v 1.923077 -0.442308 0.307692
v 1.538461 0.019231 -0.153846
v 1.538462 0.019231 0.307692
v 1.538461 -0.442308 -0.153846
v 1.538462 -0.442308 0.307692
v 1.923077 0.019231 0.307692
v 1.923077 0.019231 -0.153847
v 1.923077 -0.442308 0.307692
v 1.923077 -0.442308 -0.153847
v 1.923077 -0.019231 0.269230
v 2.269231 -0.019231 0.269230
v 1.923077 -0.403846 0.269230
v 2.269231 -0.403846 0.269230
v 2.269231 -0.019231 -0.115385
v 1.923077 -0.019231 -0.115385
v 2.269231 -0.403846 -0.115385
v 1.923077 -0.403846 -0.115385
v 2.269231 -0.019231 -0.115385
v 2.269231 -0.019231 0.269230
v 1.923077 -0.019231 -0.115385
v 1.923077 -0.019231 0.269230
v 1.923077 -0.403846 -0.115385
v 1.923077 -0.403846 0.269230
v 2.269231 -0.403846 -0.115385
v 2.269231 -0.403846 0.269230
v 1.923077 -0.019231 -0.115385
v 1.923077 -0.019231 0.269230
v 1.923077 -0.403846 -0.115385
v 1.923077 -0.403846 0.269230
v 2.269231 -0.019231 0.269230
v 2.269231 -0.019231 -0.115385
v 2.269231 -0.403846 0.269230
v 2.269231 -0.403846 -0.115385
v 0.038462 -0.307692 0.230769
v 1.538461 -0.307692 0.230769
v 0.038462 -0.884615 0.230769
v 1.538461 -0.884615 0.230769
v 1.538461 -0.307692 -0.346154
v 0.038461 -0.307692 -0.346154
v 1.538461 -0.884615 -0.346154
v 0.038461 -0.884615 -0.346154
v 1.538461 -0.307692 -0.346154
v 1.538461 -0.307692 0.230769
v 0.038461 -0.307692 -0.346154
v 0.038462 -0.307692 0.230769
v 0.038461 -0.884615 -0.346154
v 0.038462 -0.884615 0.230769
v 1.538461 -0.884615 -0.346154
v 1.538461 -0.884615 0.230769
v 0.038461 -0.307692 -0.346154
v 0.038462 -0.307692 0.230769
v 0.038461 -0.884615 -0.346154
v 0.038462 -0.884615 0.230769
v 1.538461 -0.307692 0.230769
v 1.538461 -0.307692 -0.346154
v 1.538461 -0.884615 0.230769
v 1.538461 -0.884615 -0.346154
v 1.538461 -0.365385 0.173077
v 1.923077 -0.365385 0.173077
v 1.538461 -0.826923 0.173077
v 1.923077 -0.826923 0.173077
v 1.923077 -0.365385 -0.288462
v 1.538461 -0.365385 -0.288462
v 1.923077 -0.826923 -0.288462
v 1.538461 -0.826923 -0.288462
v 1.923077 -0.365385 -0.288462
v 1.923077 -0.365385 0.173077
v 1.538461 -0.365385 -0.288462
v 1.538461 -0.365385 0.173077
v 1.538461 -0.826923 -0.288462
v 1.538461 -0.826923 0.173077
v 1.923077 -0.826923 -0.288462
v 1.923077 -0.826923 0.173077
v 1.538461 -0.365385 -0.288462
v 1.538461 -0.365385 0.173077
v 1.538461 -0.826923 -0.288462
v 1.538461 -0.826923 0.173077
v 1.923077 -0.365385 0.173077
v 1.923077 -0.365385 -0.288462
v 1.923077 -0.826923 0.173077
v 1.923077 -0.826923 -0.288462
v 1.923077 -0.384615 -0.384616
v 2.307692 -0.384615 -0.384616
v 1.923077 -0.769231 -0.384616
v 2.307692 -0.769231 -0.384616
v 2.307692 -0.384615 -0.385385
v 1.923077 -0.384615 -0.385385
v 2.307692 -0.769231 -0.385385
v 1.923077 -0.769231 -0.385385
v 2.307692 -0.384615 -0.385385
v 2.307692 -0.384615 -0.384616
v 1.923077 -0.384615 -0.385385
v 1.923077 -0.384615 -0.384616
v 1.923077 -0.769231 -0.385385
v 1.923077 -0.769231 -0.384616
v 2.307692 -0.769231 -0.385385
v 2.307692 -0.769231 -0.384616
v 1.923077 -0.384615 -0.385385
v 1.923077 -0.384615 -0.384616
v 1.923077 -0.769231 -0.385385
v 1.923077 -0.769231 -0.384616
v 2.307692 -0.384615 -0.384616
v 2.307692 -0.384615 -0.385385
v 2.307692 -0.769231 -0.384616
v 2.307692 -0.769231 -0.385385
vn -0.0000 -0.0000 1.0000
vn -0.0000 -0.0000 -1.0000
vn -0.0000 1.0000 -0.0000
vn -0.0000 -1.0000 -0.0000
vn -1.0000 -0.0000 -0.0000
vn 1.0000 -0.0000 -0.0000
vt 0.593750 1.000000
vt 0.593750 0.968750
vt 0.625000 1.000000
vt 0.625000 0.968750
vt 0.687500 0.625000
vt 0.687500 0.593750
vt 0.718750 0.625000
vt 0.718750 0.593750
vt 0.687500 0.562500
vt 0.687500 0.531250
vt 0.718750 0.562500
vt 0.718750 0.531250
vt 0.531250 0.281250
vt 0.531250 0.312500
vt 0.500000 0.281250
vt 0.500000 0.312500
vt 0.718750 0.500000
vt 0.718750 0.468750
vt 0.687500 0.500000
vt 0.687500 0.468750
vt 0.437500 0.312500
vt 0.437500 0.281250
vt 0.468750 0.312500
vt 0.468750 0.281250
vt 0.375000 0.312500
vt 0.375000 0.281250
vt 0.406250 0.312500
vt 0.406250 0.281250
vt 0.562500 0.687500
vt 0.562500 0.625000
vt 0.687500 0.687500
vt 0.562500 0.562500
vt 0.625000 0.437500
vt 0.625000 0.562500
vt 0.562500 0.437500
vt 0.625000 0.312500
vt 0.562500 0.312500
vt 0.062500 0.312500
vt 0.062500 0.250000
vt 0.125000 0.312500
vt 0.125000 0.250000
vt 0.625000 0.750000
vt 0.625000 0.687500
vt 0.687500 0.750000
vt 0.687500 0.437500
vt 0.687500 0.406250
vt 0.718750 0.437500
vt 0.718750 0.406250
vt 0.687500 0.312500
vt 0.687500 0.281250
vt 0.718750 0.312500
vt 0.718750 0.281250
vt 0.781250 0.968750
vt 0.781250 1.000000
vt 0.750000 0.968750
vt 0.750000 1.000000
vt 0.093750 0.250000
vt 0.093750 0.218750
vt 0.062500 0.218750
vt 0.687500 0.375000
vt 0.687500 0.343750
vt 0.718750 0.375000
vt 0.718750 0.343750
vt 0.562500 0.281250
vt 0.593750 0.312500
vt 0.593750 0.281250
vt 0.125000 0.218750
vt 0.156250 0.250000
vt 0.156250 0.218750
vt 0.750000 0.812500
vt 0.750000 0.781250
vt 0.781250 0.812500
vt 0.781250 0.781250
vt 0.781250 0.718750
vt 0.781250 0.750000
vt 0.750000 0.718750
vt 0.750000 0.750000
vt 0.343750 0.250000
vt 0.343750 0.218750
vt 0.312500 0.250000
vt 0.312500 0.218750
vt 0.750000 0.875000
vt 0.750000 0.843750
vt 0.781250 0.875000
vt 0.781250 0.843750
vt 0.750000 0.937500
vt 0.750000 0.906250
vt 0.781250 0.937500
vt 0.781250 0.906250
vt 0.000000 0.375000
vt 0.000000 0.312500
vt 0.125000 0.375000
vt 0.625000 0.937500
vt 0.687500 0.812500
vt 0.687500 0.937500
vt 0.625000 0.812500
vt 0.187500 0.375000
vt 0.187500 0.250000
vt 0.687500 0.875000
vt 0.375000 0.250000
vt 0.375000 0.218750
vt 0.406250 0.250000
vt 0.406250 0.218750
vt 0.437500 0.250000
vt 0.437500 0.218750
vt 0.468750 0.250000
vt 0.468750 0.218750
vt 0.781250 0.531250
vt 0.781250 0.562500
vt 0.750000 0.531250
vt 0.750000 0.562500
vt 0.531250 0.250000
vt 0.531250 0.218750
vt 0.500000 0.250000
vt 0.500000 0.218750
vt 0.750000 0.625000
vt 0.750000 0.593750
vt 0.781250 0.625000
vt 0.781250 0.593750
vt 0.750000 0.687500
vt 0.750000 0.656250
vt 0.781250 0.687500
vt 0.781250 0.656250
s 0
usemtl Material_0
f 265/104/29 267/105/29 266/106/29
f 267/105/29 268/107/29 266/106/29
f 269/104/30 271/105/30 270/106/30
f 271/105/30 272/107/30 270/106/30
f 273/104/31 275/105/31 274/106/31
f 275/105/31 276/107/31 274/106/31
f 277/104/32 279/105/32 278/106/32
f 279/105/32 280/107/32 278/106/32
f 281/104/33 283/105/33 282/106/33
f 283/105/33 284/107/33 282/106/33
f 285/104/34 287/105/34 286/106/34
f 287/105/34 288/107/34 286/106/34
f 289/108/29 291/109/29 290/110/29
f 291/109/29 292/111/29 290/110/29
f 293/112/30 295/113/30 294/114/30
f 295/113/30 296/115/30 294/114/30
f 297/116/31 299/117/31 298/118/31
f 299/117/31 300/119/31 298/118/31
f 301/120/32 303/121/32 302/122/32
f 303/121/32 304/123/32 302/122/32
f 305/124/33 307/125/33 306/126/33
f 307/125/33 308/127/33 306/126/33
f 309/128/34 311/129/34 310/130/34
f 311/129/34 312/131/34 310/130/34
f 313/132/29 315/133/29 314/134/29
f 315/133/29 316/108/29 314/134/29
f 317/133/30 319/135/30 318/108/30
f 319/135/30 320/112/30 318/108/30
f 321/136/31 323/137/31 322/138/31
f 323/137/31 324/135/31 322/138/31
f 325/136/32 327/139/32 326/138/32
f 327/139/32 328/140/32 326/138/32
f 329/141/33 331/142/33 330/143/33
f 331/142/33 332/144/33 330/143/33
f 333/145/34 335/146/34 334/147/34
f 335/146/34 336/134/34 334/147/34
f 337/148/29 339/149/29 338/150/29
f 339/149/29 340/151/29 338/150/29
f 341/152/30 343/153/30 342/154/30
f 343/153/30 344/155/30 342/154/30
f 345/156/31 347/157/31 346/158/31
f 347/157/31 348/159/31 346/158/31
f 349/160/32 351/161/32 350/142/32
f 351/161/32 352/162/32 350/142/32
f 353/163/33 355/164/33 354/165/33
f 355/164/33 356/166/33 354/165/33
f 357/140/34 359/167/34 358/168/34
f 359/167/34 360/169/34 358/168/34
f 361/144/29 363/170/29 362/171/29
f 363/170/29 364/172/29 362/171/29
f 365/173/30 367/174/30 366/175/30
f 367/174/30 368/176/30 366/175/30
f 369/177/31 371/178/31 370/179/31
f 371/178/31 372/180/31 370/179/31
f 373/181/32 375/182/32 374/183/32
f 375/182/32 376/184/32 374/183/32
f 377/185/33 379/186/33 378/187/33
f 379/186/33 380/188/33 378/187/33
f 381/189/34 383/190/34 382/191/34
f 383/190/34 384/192/34 382/191/34
f 385/193/29 387/194/29 386/195/29
f 387/194/29 388/143/29 386/195/29
f 389/106/30 391/196/30 390/159/30
f 391/196/30 392/189/30 390/159/30
f 393/197/31 395/198/31 394/199/31
f 395/198/31 396/196/31 394/199/31
f 397/200/32 399/201/32 398/195/32
f 399/201/32 400/144/32 398/195/32
f 401/202/33 403/197/33 402/185/33
f 403/197/33 404/173/33 402/185/33
f 405/198/34 407/202/34 406/189/34
f 407/202/34 408/185/34 406/189/34
f 409/203/29 411/204/29 410/205/29
f 411/204/29 412/206/29 410/205/29
f 413/207/30 415/208/30 414/209/30
f 415/208/30 416/210/30 414/209/30
f 417/211/31 419/212/31 418/213/31
f 419/212/31 420/214/31 418/213/31
f 421/215/32 423/216/32 422/217/32
f 423/216/32 424/218/32 422/217/32
f 425/219/33 427/220/33 426/221/33
f 427/220/33 428/222/33 426/221/33
f 429/223/34 431/224/34 430/225/34
f 431/224/34 432/226/34 430/225/34
f 433/104/29 435/105/29 434/106/29
f 435/105/29 436/107/29 434/106/29
f 437/104/30 439/105/30 438/106/30
f 439/105/30 440/107/30 438/106/30
f 441/104/31 443/105/31 442/106/31
f 443/105/31 444/107/31 442/106/31
f 445/104/32 447/105/32 446/106/32
f 447/105/32 448/107/32 446/106/32
f 449/104/33 451/105/33 450/106/33
f 451/105/33 452/107/33 450/106/33
f 453/104/34 455/105/34 454/106/34
f 455/105/34 456/107/34 454/106/34
