# Blender 4.3.2
# www.blender.org
mtllib lev.svdmag20.mtl
o ammoModel
v -0.000769 0.000000 0.576923
v 0.000000 0.000000 0.576923
v -0.000769 -1.153846 0.576923
v 0.000000 -1.153846 0.576923
v -0.000000 0.000000 -0.576923
v -0.000769 0.000000 -0.576923
v -0.000000 -1.153846 -0.576923
v -0.000769 -1.153846 -0.576923
v -0.000000 0.000000 -0.576923
v 0.000000 0.000000 0.576923
v -0.000769 0.000000 -0.576923
v -0.000769 0.000000 0.576923
v -0.000769 -1.153846 -0.576923
v -0.000769 -1.153846 0.576923
v -0.000000 -1.153846 -0.576923
v 0.000000 -1.153846 0.576923
v -0.000769 0.000000 -0.576923
v -0.000769 0.000000 0.576923
v -0.000769 -1.153846 -0.576923
v -0.000769 -1.153846 0.576923
v 0.000000 0.000000 0.576923
v -0.000000 0.000000 -0.576923
v 0.000000 -1.153846 0.576923
v -0.000000 -1.153846 -0.576923
v 0.000000 0.000000 0.577692
v 2.692307 0.000000 0.577692
v 0.000000 -1.153846 0.577692
v 2.692307 -1.153846 0.577692
v 2.692307 0.000000 0.576923
v 0.000000 0.000000 0.576923
v 2.692307 -1.153846 0.576923
v 0.000000 -1.153846 0.576923
v 2.692307 0.000000 0.576923
v 2.692307 0.000000 0.577692
v 0.000000 0.000000 0.576923
v 0.000000 0.000000 0.577692
v 0.000000 -1.153846 0.576923
v 0.000000 -1.153846 0.577692
v 2.692307 -1.153846 0.576923
v 2.692307 -1.153846 0.577692
v 0.000000 0.000000 0.576923
v 0.000000 0.000000 0.577692
v 0.000000 -1.153846 0.576923
v 0.000000 -1.153846 0.577692
v 2.692307 0.000000 0.577692
v 2.692307 0.000000 0.576923
v 2.692307 -1.153846 0.577692
v 2.692307 -1.153846 0.576923
v 0.440789 -2.219863 0.576154
v 2.750487 -1.263155 0.576154
v 1.176719 -3.996555 0.576154
v 3.486417 -3.039846 0.576154
v 2.750487 -1.263155 -0.576154
v 0.440789 -2.219863 -0.576154
v 3.486417 -3.039846 -0.576154
v 1.176719 -3.996555 -0.576154
v 2.750487 -1.263155 -0.576154
v 2.750487 -1.263155 0.576154
v 0.440789 -2.219863 -0.576154
v 0.440789 -2.219863 0.576154
v 1.176719 -3.996555 -0.576154
v 1.176719 -3.996555 0.576154
v 3.486417 -3.039846 -0.576154
v 3.486417 -3.039846 0.576154
v 0.440789 -2.219863 -0.576154
v 0.440789 -2.219863 0.576154
v 1.176719 -3.996555 -0.576154
v 1.176719 -3.996555 0.576154
v 2.750487 -1.263155 0.576154
v 2.750487 -1.263155 -0.576154
v 3.486417 -3.039846 0.576154
v 3.486417 -3.039846 -0.576154
v 2.691538 0.000000 0.576923
v 2.692307 0.000000 0.576923
v 2.691538 -1.153846 0.576923
v 2.692307 -1.153846 0.576923
v 2.692307 0.000000 -0.576923
v 2.691538 0.000000 -0.576923
v 2.692307 -1.153846 -0.576923
v 2.691538 -1.153846 -0.576923
v 2.692307 0.000000 -0.576923
v 2.692307 0.000000 0.576923
v 2.691538 0.000000 -0.576923
v 2.691538 0.000000 0.576923
v 2.691538 -1.153846 -0.576923
v 2.691538 -1.153846 0.576923
v 2.692307 -1.153846 -0.576923
v 2.692307 -1.153846 0.576923
v 2.691538 0.000000 -0.576923
v 2.691538 0.000000 0.576923
v 2.691538 -1.153846 -0.576923
v 2.691538 -1.153846 0.576923
v 2.692307 0.000000 0.576923
v 2.692307 0.000000 -0.576923
v 2.692307 -1.153846 0.576923
v 2.692307 -1.153846 -0.576923
v -0.000000 0.000000 -0.576154
v 2.692307 0.000000 -0.576154
v -0.000000 -1.153846 -0.576154
v 2.692307 -1.153846 -0.576154
v 2.692307 0.000000 -0.576923
v -0.000000 0.000000 -0.576923
v 2.692307 -1.153846 -0.576923
v -0.000000 -1.153846 -0.576923
v 2.692307 0.000000 -0.576923
v 2.692307 0.000000 -0.576154
v -0.000000 0.000000 -0.576923
v -0.000000 0.000000 -0.576154
v -0.000000 -1.153846 -0.576923
v -0.000000 -1.153846 -0.576154
v 2.692307 -1.153846 -0.576923
v 2.692307 -1.153846 -0.576154
v -0.000000 0.000000 -0.576923
v -0.000000 0.000000 -0.576154
v -0.000000 -1.153846 -0.576923
v -0.000000 -1.153846 -0.576154
v 2.692307 0.000000 -0.576154
v 2.692307 0.000000 -0.576923
v 2.692307 -1.153846 -0.576154
v 2.692307 -1.153846 -0.576923
v -0.000769 -1.153848 0.576154
v 2.308929 -0.197140 0.576154
v 0.440789 -2.219863 0.576154
v 2.750487 -1.263155 0.576154
v 2.308929 -0.197140 -0.576154
v -0.000769 -1.153848 -0.576154
v 2.750487 -1.263155 -0.576154
v 0.440789 -2.219863 -0.576154
v 2.308929 -0.197140 -0.576154
v 2.308929 -0.197140 0.576154
v -0.000769 -1.153848 -0.576154
v -0.000769 -1.153848 0.576154
v 0.440789 -2.219863 -0.576154
v 0.440789 -2.219863 0.576154
v 2.750487 -1.263155 -0.576154
v 2.750487 -1.263155 0.576154
v -0.000769 -1.153848 -0.576154
v -0.000769 -1.153848 0.576154
v 0.440789 -2.219863 -0.576154
v 0.440789 -2.219863 0.576154
v 2.308929 -0.197140 0.576154
v 2.308929 -0.197140 -0.576154
v 2.750487 -1.263155 0.576154
v 2.750487 -1.263155 -0.576154
vn -0.0000 -0.0000 1.0000
vn -0.0000 -0.0000 -1.0000
vn -0.0000 1.0000 -0.0000
vn -0.0000 -1.0000 -0.0000
vn -1.0000 -0.0000 -0.0000
vn 1.0000 -0.0000 -0.0000
vn -0.3827 0.9239 -0.0000
vn 0.3827 -0.9239 -0.0000
vn -0.9239 -0.3827 -0.0000
vn 0.9239 0.3827 -0.0000
vt 0.000000 1.000000
vt 0.000000 0.906250
vt 0.093750 1.000000
vt 0.500000 0.375000
vt 0.500000 0.281250
vt 0.593750 0.375000
vt 0.593750 0.281250
vt 0.375000 0.375000
vt 0.375000 0.281250
vt 0.468750 0.375000
vt 0.468750 0.281250
vt 0.250000 1.000000
vt 0.250000 0.906250
vt 0.468750 1.000000
vt 0.468750 0.906250
vt 0.250000 0.875000
vt 0.250000 0.781250
vt 0.468750 0.875000
vt 0.468750 0.781250
vt 0.000000 0.781250
vt 0.000000 0.843750
vt 0.218750 1.000000
vt 0.218750 0.843750
vt 0.000000 0.812500
vt 0.000000 0.656250
vt 0.218750 0.812500
vt 0.218750 0.656250
vt 0.343750 0.531250
vt 0.343750 0.750000
vt 0.250000 0.531250
vt 0.250000 0.750000
vt 0.093750 0.625000
vt 0.093750 0.406250
vt 0.000000 0.625000
vt 0.000000 0.406250
vt 0.625000 1.000000
vt 0.625000 0.843750
vt 0.718750 1.000000
vt 0.718750 0.843750
vt 0.000000 0.375000
vt 0.000000 0.218750
vt 0.093750 0.375000
vt 0.093750 0.218750
vt 0.625000 0.687500
vt 0.625000 0.593750
vt 0.718750 0.687500
vt 0.718750 0.593750
vt 0.250000 0.375000
vt 0.250000 0.281250
vt 0.343750 0.375000
vt 0.343750 0.281250
vt 0.250000 0.500000
vt 0.250000 0.406250
vt 0.468750 0.500000
vt 0.468750 0.406250
vt 0.500000 0.500000
vt 0.500000 0.406250
vt 0.718750 0.500000
vt 0.718750 0.406250
vt 0.375000 0.750000
vt 0.375000 0.656250
vt 0.593750 0.750000
vt 0.593750 0.656250
vt 0.375000 0.625000
vt 0.375000 0.531250
vt 0.593750 0.625000
vt 0.593750 0.531250
vt 0.218750 0.406250
vt 0.218750 0.625000
vt 0.125000 0.406250
vt 0.125000 0.625000
vt 0.593750 1.000000
vt 0.593750 0.781250
vt 0.500000 1.000000
vt 0.500000 0.781250
vt 0.625000 0.812500
vt 0.625000 0.718750
vt 0.718750 0.812500
vt 0.718750 0.718750
vt 0.125000 0.375000
vt 0.125000 0.281250
vt 0.218750 0.375000
vt 0.218750 0.281250
s 0
usemtl Material_0.001
f 1/1/1 3/2/1 2/1/1
f 3/2/1 4/2/1 2/1/1
f 5/1/2 7/2/2 6/1/2
f 7/2/2 8/2/2 6/1/2
f 9/3/3 11/3/3 10/1/3
f 11/3/3 12/1/3 10/1/3
f 13/3/4 15/3/4 14/1/4
f 15/3/4 16/1/4 14/1/4
f 17/4/5 19/5/5 18/6/5
f 19/5/5 20/7/5 18/6/5
f 21/8/6 23/9/6 22/10/6
f 23/9/6 24/11/6 22/10/6
f 25/12/1 27/13/1 26/14/1
f 27/13/1 28/15/1 26/14/1
f 29/16/2 31/17/2 30/18/2
f 31/17/2 32/19/2 30/18/2
f 33/20/3 35/1/3 34/20/3
f 35/1/3 36/1/3 34/20/3
f 37/1/4 39/20/4 38/1/4
f 39/20/4 40/20/4 38/1/4
f 41/1/5 43/2/5 42/1/5
f 43/2/5 44/2/5 42/1/5
f 45/1/6 47/2/6 46/1/6
f 47/2/6 48/2/6 46/1/6
f 49/1/1 51/21/1 50/22/1
f 51/21/1 52/23/1 50/22/1
f 53/24/2 55/25/2 54/26/2
f 55/25/2 56/27/2 54/26/2
f 57/28/7 59/29/7 58/30/7
f 59/29/7 60/31/7 58/30/7
f 61/32/8 63/33/8 62/34/8
f 63/33/8 64/35/8 62/34/8
f 65/36/9 67/37/9 66/38/9
f 67/37/9 68/39/9 66/38/9
f 69/40/10 71/41/10 70/42/10
f 71/41/10 72/43/10 70/42/10
f 73/1/1 75/2/1 74/1/1
f 75/2/1 76/2/1 74/1/1
f 77/1/2 79/2/2 78/1/2
f 79/2/2 80/2/2 78/1/2
f 81/3/3 83/3/3 82/1/3
f 83/3/3 84/1/3 82/1/3
f 85/3/4 87/3/4 86/1/4
f 87/3/4 88/1/4 86/1/4
f 89/44/5 91/45/5 90/46/5
f 91/45/5 92/47/5 90/46/5
f 93/48/6 95/49/6 94/50/6
f 95/49/6 96/51/6 94/50/6
f 97/52/1 99/53/1 98/54/1
f 99/53/1 100/55/1 98/54/1
f 101/56/2 103/57/2 102/58/2
f 103/57/2 104/59/2 102/58/2
f 105/20/3 107/1/3 106/20/3
f 107/1/3 108/1/3 106/20/3
f 109/1/4 111/20/4 110/1/4
f 111/20/4 112/20/4 110/1/4
f 113/1/5 115/2/5 114/1/5
f 115/2/5 116/2/5 114/1/5
f 117/1/6 119/2/6 118/1/6
f 119/2/6 120/2/6 118/1/6
f 121/60/1 123/61/1 122/62/1
f 123/61/1 124/63/1 122/62/1
f 125/64/2 127/65/2 126/66/2
f 127/65/2 128/67/2 126/66/2
f 129/68/7 131/69/7 130/70/7
f 131/69/7 132/71/7 130/70/7
f 133/72/8 135/73/8 134/74/8
f 135/73/8 136/75/8 134/74/8
f 137/76/9 139/77/9 138/78/9
f 139/77/9 140/79/9 138/78/9
f 141/80/10 143/81/10 142/82/10
f 143/81/10 144/83/10 142/82/10
o bulletModel_0
v 0.038462 0.134615 0.500000
v 1.192308 0.134615 0.500000
v 0.038462 -0.519231 0.500000
v 1.192308 -0.519231 0.500000
v 1.192308 0.134615 -0.153846
v 0.038462 0.134615 -0.153846
v 1.192308 -0.519231 -0.153846
v 0.038462 -0.519231 -0.153846
v 1.192308 0.134615 -0.153846
v 1.192308 0.134615 0.500000
v 0.038462 0.134615 -0.153846
v 0.038462 0.134615 0.500000
v 0.038462 -0.519231 -0.153846
v 0.038462 -0.519231 0.500000
v 1.192308 -0.519231 -0.153846
v 1.192308 -0.519231 0.500000
v 0.038462 0.134615 -0.153846
v 0.038462 0.134615 0.500000
v 0.038462 -0.519231 -0.153846
v 0.038462 -0.519231 0.500000
v 1.192308 0.134615 0.500000
v 1.192308 0.134615 -0.153846
v 1.192308 -0.519231 0.500000
v 1.192308 -0.519231 -0.153846
v 2.096153 0.211538 -0.000000
v 2.673077 0.211538 -0.000001
v 2.096153 -0.211538 -0.000000
v 2.673077 -0.211538 -0.000001
v 2.673077 0.211538 -0.423077
v 2.096153 0.211538 -0.423077
v 2.673077 -0.211538 -0.423077
v 2.096153 -0.211538 -0.423077
v 2.673077 0.211538 -0.423077
v 2.673077 0.211538 -0.000001
v 2.096153 0.211538 -0.423077
v 2.096153 0.211538 -0.000000
v 2.096153 -0.211538 -0.423077
v 2.096153 -0.211538 -0.000000
v 2.673077 -0.211538 -0.423077
v 2.673077 -0.211538 -0.000001
v 2.096153 0.211538 -0.423077
v 2.096153 0.211538 -0.000000
v 2.096153 -0.211538 -0.423077
v 2.096153 -0.211538 -0.000000
v 2.673077 0.211538 -0.000001
v 2.673077 0.211538 -0.423077
v 2.673077 -0.211538 -0.000001
v 2.673077 -0.211538 -0.423077
v 1.000000 0.288462 0.076923
v 2.153846 0.288462 0.076923
v 1.000000 -0.288462 0.076923
v 2.153846 -0.288462 0.076923
v 2.153846 0.288462 -0.500000
v 1.000000 0.288462 -0.500000
v 2.153846 -0.288462 -0.500000
v 1.000000 -0.288462 -0.500000
v 2.153846 0.288462 -0.500000
v 2.153846 0.288462 0.076923
v 1.000000 0.288462 -0.500000
v 1.000000 0.288462 0.076923
v 1.000000 -0.288462 -0.500000
v 1.000000 -0.288462 0.076923
v 2.153846 -0.288462 -0.500000
v 2.153846 -0.288462 0.076923
v 1.000000 0.288462 -0.500000
v 1.000000 0.288462 0.076923
v 1.000000 -0.288462 -0.500000
v 1.000000 -0.288462 0.076923
v 2.153846 0.288462 0.076923
v 2.153846 0.288462 -0.500000
v 2.153846 -0.288462 0.076923
v 2.153846 -0.288462 -0.500000
v 0.038462 0.326923 0.115385
v 1.192308 0.326923 0.115384
v 0.038462 -0.326923 0.115385
v 1.192308 -0.326923 0.115384
v 1.192307 0.326923 -0.538462
v 0.038461 0.326923 -0.538461
v 1.192307 -0.326923 -0.538462
v 0.038461 -0.326923 -0.538461
v 1.192307 0.326923 -0.538462
v 1.192308 0.326923 0.115384
v 0.038461 0.326923 -0.538461
v 0.038462 0.326923 0.115385
v 0.038461 -0.326923 -0.538461
v 0.038462 -0.326923 0.115385
v 1.192307 -0.326923 -0.538462
v 1.192308 -0.326923 0.115384
v 0.038461 0.326923 -0.538461
v 0.038462 0.326923 0.115385
v 0.038461 -0.326923 -0.538461
v 0.038462 -0.326923 0.115385
v 1.192308 0.326923 0.115384
v 1.192307 0.326923 -0.538462
v 1.192308 -0.326923 0.115384
v 1.192307 -0.326923 -0.538462
v 1.000000 0.096154 0.461538
v 2.153846 0.096154 0.461538
v 1.000000 -0.480769 0.461538
v 2.153846 -0.480769 0.461538
v 2.153846 0.096154 -0.115385
v 1.000000 0.096154 -0.115385
v 2.153846 -0.480769 -0.115385
v 1.000000 -0.480769 -0.115385
v 2.153846 0.096154 -0.115385
v 2.153846 0.096154 0.461538
v 1.000000 0.096154 -0.115385
v 1.000000 0.096154 0.461538
v 1.000000 -0.480769 -0.115385
v 1.000000 -0.480769 0.461538
v 2.153846 -0.480769 -0.115385
v 2.153846 -0.480769 0.461538
v 1.000000 0.096154 -0.115385
v 1.000000 0.096154 0.461538
v 1.000000 -0.480769 -0.115385
v 1.000000 -0.480769 0.461538
v 2.153846 0.096154 0.461538
v 2.153846 0.096154 -0.115385
v 2.153846 -0.480769 0.461538
v 2.153846 -0.480769 -0.115385
v 2.096153 0.019231 0.384615
v 2.673077 0.019231 0.384615
v 2.096153 -0.403846 0.384615
v 2.673077 -0.403846 0.384615
v 2.673077 0.019231 -0.038462
v 2.096153 0.019231 -0.038462
v 2.673077 -0.403846 -0.038462
v 2.096153 -0.403846 -0.038462
v 2.673077 0.019231 -0.038462
v 2.673077 0.019231 0.384615
v 2.096153 0.019231 -0.038462
v 2.096153 0.019231 0.384615
v 2.096153 -0.403846 -0.038462
v 2.096153 -0.403846 0.384615
v 2.673077 -0.403846 -0.038462
v 2.673077 -0.403846 0.384615
v 2.096153 0.019231 -0.038462
v 2.096153 0.019231 0.384615
v 2.096153 -0.403846 -0.038462
v 2.096153 -0.403846 0.384615
v 2.673077 0.019231 0.384615
v 2.673077 0.019231 -0.038462
v 2.673077 -0.403846 0.384615
v 2.673077 -0.403846 -0.038462
vn -0.0000 -0.0000 1.0000
vn -0.0000 -0.0000 -1.0000
vn -0.0000 1.0000 -0.0000
vn -0.0000 -1.0000 -0.0000
vn -1.0000 -0.0000 -0.0000
vn 1.0000 -0.0000 -0.0000
vt 0.187500 0.250000
vt 0.187500 0.187500
vt 0.281250 0.250000
vt 0.281250 0.187500
vt 0.750000 0.750000
vt 0.750000 0.687500
vt 0.843750 0.750000
vt 0.843750 0.687500
vt 0.375000 0.156250
vt 0.375000 0.250000
vt 0.312500 0.156250
vt 0.312500 0.250000
vt 0.812500 0.687500
vt 0.812500 0.593750
vt 0.750000 0.593750
vt 0.062500 0.187500
vt 0.062500 0.125000
vt 0.125000 0.187500
vt 0.125000 0.125000
vt 0.000000 0.187500
vt 0.000000 0.125000
vt 0.812500 0.812500
vt 0.812500 0.781250
vt 0.875000 0.812500
vt 0.875000 0.781250
vt 0.250000 0.187500
vt 0.250000 0.156250
vt 0.312500 0.187500
vt 0.843750 0.625000
vt 0.812500 0.625000
vt 0.406250 0.187500
vt 0.406250 0.125000
vt 0.375000 0.187500
vt 0.375000 0.125000
vt 0.625000 0.187500
vt 0.625000 0.156250
vt 0.656250 0.187500
vt 0.656250 0.156250
vt 0.812500 0.437500
vt 0.812500 0.406250
vt 0.843750 0.437500
vt 0.843750 0.406250
vt 0.625000 0.562500
vt 0.625000 0.500000
vt 0.718750 0.562500
vt 0.718750 0.500000
vt 0.625000 0.375000
vt 0.625000 0.312500
vt 0.718750 0.375000
vt 0.718750 0.312500
vt 0.687500 0.218750
vt 0.687500 0.312500
vt 0.625000 0.218750
vt 0.750000 0.312500
vt 0.750000 0.218750
vt 0.750000 0.375000
vt 0.812500 0.375000
vt 0.812500 0.312500
vt 0.562500 0.250000
vt 0.562500 0.187500
vt 0.625000 0.250000
vt 0.750000 1.000000
vt 0.750000 0.937500
vt 0.843750 1.000000
vt 0.843750 0.937500
vt 0.750000 0.875000
vt 0.843750 0.875000
vt 0.187500 0.156250
vt 0.125000 0.156250
vt 0.125000 0.250000
vt 0.812500 0.875000
vt 0.750000 0.781250
vt 0.750000 0.250000
vt 0.750000 0.187500
vt 0.812500 0.250000
vt 0.812500 0.187500
vt 0.468750 0.250000
vt 0.468750 0.187500
vt 0.750000 0.562500
vt 0.750000 0.500000
vt 0.843750 0.562500
vt 0.843750 0.500000
vt 0.562500 0.156250
vt 0.500000 0.156250
vt 0.500000 0.250000
vt 0.812500 0.500000
vt 0.750000 0.406250
vt 0.187500 0.125000
vt 0.250000 0.125000
vt 0.875000 0.875000
vt 0.875000 0.625000
vt 0.875000 0.593750
vt 0.437500 0.187500
vt 0.437500 0.156250
vt 0.500000 0.187500
vt 0.593750 0.187500
vt 0.593750 0.125000
vt 0.562500 0.125000
vt 0.687500 0.187500
vt 0.687500 0.156250
vt 0.718750 0.187500
vt 0.718750 0.156250
vt 0.812500 0.343750
vt 0.843750 0.375000
vt 0.843750 0.343750
s 0
usemtl Material_0.001
f 145/84/11 147/85/11 146/86/11
f 147/85/11 148/87/11 146/86/11
f 149/88/12 151/89/12 150/90/12
f 151/89/12 152/91/12 150/90/12
f 153/92/13 155/93/13 154/94/13
f 155/93/13 156/95/13 154/94/13
f 157/96/14 159/97/14 158/89/14
f 159/97/14 160/98/14 158/89/14
f 161/99/15 163/100/15 162/101/15
f 163/100/15 164/102/15 162/101/15
f 165/103/16 167/104/16 166/99/16
f 167/104/16 168/100/16 166/99/16
f 169/105/11 171/106/11 170/107/11
f 171/106/11 172/108/11 170/107/11
f 173/109/12 175/110/12 174/111/12
f 175/110/12 176/94/12 174/111/12
f 177/112/13 179/91/13 178/113/13
f 179/91/13 180/96/13 178/113/13
f 181/114/14 183/115/14 182/116/14
f 183/115/14 184/117/14 182/116/14
f 185/118/15 187/119/15 186/120/15
f 187/119/15 188/121/15 186/120/15
f 189/122/16 191/123/16 190/124/16
f 191/123/16 192/125/16 190/124/16
f 193/126/11 195/127/11 194/128/11
f 195/127/11 196/129/11 194/128/11
f 197/130/12 199/131/12 198/132/12
f 199/131/12 200/133/12 198/132/12
f 201/134/13 203/135/13 202/136/13
f 203/135/13 204/131/13 202/136/13
f 205/137/14 207/138/14 206/135/14
f 207/138/14 208/134/14 206/135/14
f 209/139/15 211/137/15 210/140/15
f 211/137/15 212/141/15 210/140/15
f 213/142/16 215/143/16 214/144/16
f 215/143/16 216/118/16 214/144/16
f 217/145/11 219/146/11 218/147/11
f 219/146/11 220/148/11 218/147/11
f 221/146/12 223/149/12 222/148/12
f 223/149/12 224/150/12 222/148/12
f 225/151/13 227/84/13 226/152/13
f 227/84/13 228/153/13 226/152/13
f 229/154/14 231/106/14 230/149/14
f 231/106/14 232/155/14 230/149/14
f 233/156/15 235/157/15 234/158/15
f 235/157/15 236/159/15 234/158/15
f 237/137/16 239/156/16 238/141/16
f 239/156/16 240/158/16 238/141/16
f 241/93/11 243/116/11 242/160/11
f 243/116/11 244/161/11 242/160/11
f 245/162/12 247/163/12 246/164/12
f 247/163/12 248/165/12 246/164/12
f 249/166/13 251/142/13 250/167/13
f 251/142/13 252/168/13 250/167/13
f 253/169/14 255/123/14 254/163/14
f 255/123/14 256/170/14 254/163/14
f 257/85/15 259/171/15 258/109/15
f 259/171/15 260/172/15 258/109/15
f 261/154/16 263/105/16 262/173/16
f 263/105/16 264/107/16 262/173/16
f 265/113/11 267/97/11 266/174/11
f 267/97/11 268/175/11 266/174/11
f 269/176/12 271/177/12 270/178/12
f 271/177/12 272/167/12 270/178/12
f 273/124/13 275/165/13 274/122/13
f 275/165/13 276/169/13 274/122/13
f 277/179/14 279/180/14 278/143/14
f 279/180/14 280/181/14 278/143/14
f 281/182/15 283/183/15 282/184/15
f 283/183/15 284/185/15 282/184/15
f 285/140/16 287/186/16 286/187/16
f 287/186/16 288/188/16 286/187/16
