# Blender 4.5.3 LTS
# www.blender.org
mtllib lev.127ashmag20.mtl
o ammoModel
v -0.000769 0.769231 0.576923
v 0.000000 0.769231 0.576923
v -0.000769 -0.384615 0.576923
v 0.000000 -0.384615 0.576923
v -0.000000 0.769231 -0.576923
v -0.000769 0.769231 -0.576923
v -0.000000 -0.384615 -0.576923
v -0.000769 -0.384615 -0.576923
v -0.000000 0.769231 -0.576923
v 0.000000 0.769231 0.576923
v -0.000769 0.769231 -0.576923
v -0.000769 0.769231 0.576923
v -0.000769 -0.384615 -0.576923
v -0.000769 -0.384615 0.576923
v -0.000000 -0.384615 -0.576923
v 0.000000 -0.384615 0.576923
v -0.000769 0.769231 -0.576923
v -0.000769 0.769231 0.576923
v -0.000769 -0.384615 -0.576923
v -0.000769 -0.384615 0.576923
v 0.000000 0.769231 0.576923
v -0.000000 0.769231 -0.576923
v 0.000000 -0.384615 0.576923
v -0.000000 -0.384615 -0.576923
v 0.000000 -0.384615 0.576923
v 2.692307 -0.384615 0.576923
v 0.000000 -2.307692 0.576923
v 2.692307 -2.307692 0.576923
v 2.692307 -0.384615 -0.576923
v -0.000000 -0.384615 -0.576923
v 2.692307 -2.307692 -0.576923
v -0.000000 -2.307692 -0.576923
v 2.692307 -0.384615 -0.576923
v 2.692307 -0.384615 0.576923
v -0.000000 -0.384615 -0.576923
v 0.000000 -0.384615 0.576923
v -0.000000 -2.307692 -0.576923
v 0.000000 -2.307692 0.576923
v 2.692307 -2.307692 -0.576923
v 2.692307 -2.307692 0.576923
v -0.000000 -0.384615 -0.576923
v 0.000000 -0.384615 0.576923
v -0.000000 -2.307692 -0.576923
v 0.000000 -2.307692 0.576923
v 2.692307 -0.384615 0.576923
v 2.692307 -0.384615 -0.576923
v 2.692307 -2.307692 0.576923
v 2.692307 -2.307692 -0.576923
v 0.000001 -2.307693 0.576154
v 2.487368 -1.277391 0.576154
v 1.471860 -5.861076 0.576154
v 3.959228 -4.830774 0.576154
v 2.487368 -1.277391 -0.576154
v 0.000001 -2.307693 -0.576154
v 3.959228 -4.830774 -0.576154
v 1.471860 -5.861076 -0.576154
v 2.487368 -1.277391 -0.576154
v 2.487368 -1.277391 0.576154
v 0.000001 -2.307693 -0.576154
v 0.000001 -2.307693 0.576154
v 1.471860 -5.861076 -0.576154
v 1.471860 -5.861076 0.576154
v 3.959228 -4.830774 -0.576154
v 3.959228 -4.830774 0.576154
v 0.000001 -2.307693 -0.576154
v 0.000001 -2.307693 0.576154
v 1.471860 -5.861076 -0.576154
v 1.471860 -5.861076 0.576154
v 2.487368 -1.277391 0.576154
v 2.487368 -1.277391 -0.576154
v 3.959228 -4.830774 0.576154
v 3.959228 -4.830774 -0.576154
v 2.691538 0.384615 0.576923
v 2.692307 0.384615 0.576923
v 2.691538 -0.384615 0.576923
v 2.692307 -0.384615 0.576923
v 2.692307 0.384615 -0.576923
v 2.691538 0.384615 -0.576923
v 2.692307 -0.384615 -0.576923
v 2.691538 -0.384615 -0.576923
v 2.692307 0.384615 -0.576923
v 2.692307 0.384615 0.576923
v 2.691538 0.384615 -0.576923
v 2.691538 0.384615 0.576923
v 2.691538 -0.384615 -0.576923
v 2.691538 -0.384615 0.576923
v 2.692307 -0.384615 -0.576923
v 2.692307 -0.384615 0.576923
v 2.691538 0.384615 -0.576923
v 2.691538 0.384615 0.576923
v 2.691538 -0.384615 -0.576923
v 2.691538 -0.384615 0.576923
v 2.692307 0.384615 0.576923
v 2.692307 0.384615 -0.576923
v 2.692307 -0.384615 0.576923
v 2.692307 -0.384615 -0.576923
v 0.000000 0.769231 0.577692
v 2.692307 0.769231 0.577692
v 0.000000 -0.384615 0.577692
v 2.692307 -0.384615 0.577692
v 2.692307 0.769231 0.576923
v 0.000000 0.769231 0.576923
v 2.692307 -0.384615 0.576923
v 0.000000 -0.384615 0.576923
v 2.692307 0.769231 0.576923
v 2.692307 0.769231 0.577692
v 0.000000 0.769231 0.576923
v 0.000000 0.769231 0.577692
v 0.000000 -0.384615 0.576923
v 0.000000 -0.384615 0.577692
v 2.692307 -0.384615 0.576923
v 2.692307 -0.384615 0.577692
v 0.000000 0.769231 0.576923
v 0.000000 0.769231 0.577692
v 0.000000 -0.384615 0.576923
v 0.000000 -0.384615 0.577692
v 2.692307 0.769231 0.577692
v 2.692307 0.769231 0.576923
v 2.692307 -0.384615 0.577692
v 2.692307 -0.384615 0.576923
v -0.000000 0.769231 -0.576154
v 2.692307 0.769231 -0.576154
v -0.000000 -0.384615 -0.576154
v 2.692307 -0.384615 -0.576154
v 2.692307 0.769231 -0.576923
v -0.000000 0.769231 -0.576923
v 2.692307 -0.384615 -0.576923
v -0.000000 -0.384615 -0.576923
v 2.692307 0.769231 -0.576923
v 2.692307 0.769231 -0.576154
v -0.000000 0.769231 -0.576923
v -0.000000 0.769231 -0.576154
v -0.000000 -0.384615 -0.576923
v -0.000000 -0.384615 -0.576154
v 2.692307 -0.384615 -0.576923
v 2.692307 -0.384615 -0.576154
v -0.000000 0.769231 -0.576923
v -0.000000 0.769231 -0.576154
v -0.000000 -0.384615 -0.576923
v -0.000000 -0.384615 -0.576154
v 2.692307 0.769231 -0.576154
v 2.692307 0.769231 -0.576923
v 2.692307 -0.384615 -0.576154
v 2.692307 -0.384615 -0.576923
vn -0.0000 -0.0000 1.0000
vn -0.0000 -0.0000 -1.0000
vn -0.0000 1.0000 -0.0000
vn -0.0000 -1.0000 -0.0000
vn -1.0000 -0.0000 -0.0000
vn 1.0000 -0.0000 -0.0000
vn -0.3827 0.9239 -0.0000
vn 0.3827 -0.9239 -0.0000
vn -0.9239 -0.3827 -0.0000
vn 0.9239 0.3827 -0.0000
vt 0.000000 1.000000
vt 0.000000 0.906250
vt 0.093750 1.000000
vt 0.625000 0.187500
vt 0.625000 0.093750
vt 0.718750 0.187500
vt 0.718750 0.093750
vt 0.812500 0.500000
vt 0.812500 0.406250
vt 0.906250 0.500000
vt 0.906250 0.406250
vt 0.000000 0.687500
vt 0.000000 0.531250
vt 0.218750 0.687500
vt 0.218750 0.531250
vt 0.250000 0.687500
vt 0.250000 0.531250
vt 0.468750 0.687500
vt 0.468750 0.531250
vt 0.218750 0.281250
vt 0.218750 0.500000
vt 0.125000 0.281250
vt 0.125000 0.500000
vt 0.343750 0.500000
vt 0.343750 0.281250
vt 0.250000 0.500000
vt 0.250000 0.281250
vt 0.500000 0.312500
vt 0.500000 0.156250
vt 0.593750 0.312500
vt 0.593750 0.156250
vt 0.625000 0.625000
vt 0.625000 0.468750
vt 0.718750 0.625000
vt 0.718750 0.468750
vt 0.218750 1.000000
vt 0.250000 1.000000
vt 0.468750 1.000000
vt 0.593750 0.468750
vt 0.593750 0.687500
vt 0.500000 0.468750
vt 0.500000 0.687500
vt 0.468750 0.500000
vt 0.468750 0.281250
vt 0.375000 0.500000
vt 0.375000 0.281250
vt 0.500000 1.000000
vt 0.593750 1.000000
vt 0.000000 0.500000
vt 0.000000 0.187500
vt 0.093750 0.500000
vt 0.093750 0.187500
vt 0.000000 0.937500
vt 0.812500 0.312500
vt 0.812500 0.250000
vt 0.906250 0.312500
vt 0.906250 0.250000
vt 0.812500 0.375000
vt 0.906250 0.375000
vt 0.500000 0.437500
vt 0.500000 0.343750
vt 0.718750 0.437500
vt 0.718750 0.343750
vt 0.625000 1.000000
vt 0.625000 0.906250
vt 0.843750 1.000000
vt 0.843750 0.906250
vt 0.000000 0.781250
vt 0.625000 0.875000
vt 0.625000 0.781250
vt 0.843750 0.875000
vt 0.843750 0.781250
vt 0.625000 0.750000
vt 0.625000 0.656250
vt 0.843750 0.750000
vt 0.843750 0.656250
s 0
usemtl Material_0
f 1/1/1 3/2/1 2/1/1
f 3/2/1 4/2/1 2/1/1
f 5/1/2 7/2/2 6/1/2
f 7/2/2 8/2/2 6/1/2
f 9/3/3 11/3/3 10/1/3
f 11/3/3 12/1/3 10/1/3
f 13/3/4 15/3/4 14/1/4
f 15/3/4 16/1/4 14/1/4
f 17/4/5 19/5/5 18/6/5
f 19/5/5 20/7/5 18/6/5
f 21/8/6 23/9/6 22/10/6
f 23/9/6 24/11/6 22/10/6
f 25/12/1 27/13/1 26/14/1
f 27/13/1 28/15/1 26/14/1
f 29/16/2 31/17/2 30/18/2
f 31/17/2 32/19/2 30/18/2
f 33/20/3 35/21/3 34/22/3
f 35/21/3 36/23/3 34/22/3
f 37/24/4 39/25/4 38/26/4
f 39/25/4 40/27/4 38/26/4
f 41/28/5 43/29/5 42/30/5
f 43/29/5 44/31/5 42/30/5
f 45/32/6 47/33/6 46/34/6
f 47/33/6 48/35/6 46/34/6
f 49/1/1 51/12/1 50/36/1
f 51/12/1 52/14/1 50/36/1
f 53/37/2 55/16/2 54/38/2
f 55/16/2 56/18/2 54/38/2
f 57/39/7 59/40/7 58/41/7
f 59/40/7 60/42/7 58/41/7
f 61/43/8 63/44/8 62/45/8
f 63/44/8 64/46/8 62/45/8
f 65/47/9 67/42/9 66/48/9
f 67/42/9 68/40/9 66/48/9
f 69/49/10 71/50/10 70/51/10
f 71/50/10 72/52/10 70/51/10
f 73/1/1 75/53/1 74/1/1
f 75/53/1 76/53/1 74/1/1
f 77/1/2 79/53/2 78/1/2
f 79/53/2 80/53/2 78/1/2
f 81/3/3 83/3/3 82/1/3
f 83/3/3 84/1/3 82/1/3
f 85/3/4 87/3/4 86/1/4
f 87/3/4 88/1/4 86/1/4
f 89/54/5 91/55/5 90/56/5
f 91/55/5 92/57/5 90/56/5
f 93/58/6 95/54/6 94/59/6
f 95/54/6 96/56/6 94/59/6
f 97/60/1 99/61/1 98/62/1
f 99/61/1 100/63/1 98/62/1
f 101/64/2 103/65/2 102/66/2
f 103/65/2 104/67/2 102/66/2
f 105/68/3 107/1/3 106/68/3
f 107/1/3 108/1/3 106/68/3
f 109/1/4 111/68/4 110/1/4
f 111/68/4 112/68/4 110/1/4
f 113/1/5 115/2/5 114/1/5
f 115/2/5 116/2/5 114/1/5
f 117/1/6 119/2/6 118/1/6
f 119/2/6 120/2/6 118/1/6
f 121/69/1 123/70/1 122/71/1
f 123/70/1 124/72/1 122/71/1
f 125/73/2 127/74/2 126/75/2
f 127/74/2 128/76/2 126/75/2
f 129/68/3 131/1/3 130/68/3
f 131/1/3 132/1/3 130/68/3
f 133/1/4 135/68/4 134/1/4
f 135/68/4 136/68/4 134/1/4
f 137/1/5 139/2/5 138/1/5
f 139/2/5 140/2/5 138/1/5
f 141/1/6 143/2/6 142/1/6
f 143/2/6 144/2/6 142/1/6
o bulletModel_0
v 1.961538 0.942308 0.500000
v 2.653846 0.942308 0.500000
v 1.961538 0.403846 0.500000
v 2.653846 0.403846 0.500000
v 2.653846 0.942308 -0.038462
v 1.961538 0.942308 -0.038462
v 2.653846 0.403846 -0.038462
v 1.961538 0.403846 -0.038462
v 2.653846 0.942308 -0.038462
v 2.653846 0.942308 0.500000
v 1.961538 0.942308 -0.038462
v 1.961538 0.942308 0.500000
v 1.961538 0.403846 -0.038462
v 1.961538 0.403846 0.500000
v 2.653846 0.403846 -0.038462
v 2.653846 0.403846 0.500000
v 1.961538 0.942308 -0.038462
v 1.961538 0.942308 0.500000
v 1.961538 0.403846 -0.038462
v 1.961538 0.403846 0.500000
v 2.653846 0.942308 0.500000
v 2.653846 0.942308 -0.038462
v 2.653846 0.403846 0.500000
v 2.653846 0.403846 -0.038462
v 0.038462 0.980769 0.538461
v 2.153846 0.980769 0.538461
v 0.038462 0.365385 0.538461
v 2.153846 0.365385 0.538461
v 2.153846 0.980769 -0.076923
v 0.038462 0.980769 -0.076923
v 2.153846 0.365385 -0.076923
v 0.038462 0.365385 -0.076923
v 2.153846 0.980769 -0.076923
v 2.153846 0.980769 0.538461
v 0.038462 0.980769 -0.076923
v 0.038462 0.980769 0.538461
v 0.038462 0.365385 -0.076923
v 0.038462 0.365385 0.538461
v 2.153846 0.365385 -0.076923
v 2.153846 0.365385 0.538461
v 0.038462 0.980769 -0.076923
v 0.038462 0.980769 0.538461
v 0.038462 0.365385 -0.076923
v 0.038462 0.365385 0.538461
v 2.153846 0.980769 0.538461
v 2.153846 0.980769 -0.076923
v 2.153846 0.365385 0.538461
v 2.153846 0.365385 -0.076923
vn -0.0000 -0.0000 1.0000
vn -0.0000 -0.0000 -1.0000
vn -0.0000 1.0000 -0.0000
vn -0.0000 -1.0000 -0.0000
vn -1.0000 -0.0000 -0.0000
vn 1.0000 -0.0000 -0.0000
vt 0.750000 0.125000
vt 0.750000 0.093750
vt 0.812500 0.125000
vt 0.812500 0.093750
vt 0.875000 0.250000
vt 0.875000 0.218750
vt 0.937500 0.250000
vt 0.937500 0.218750
vt 0.843750 0.062500
vt 0.843750 0.125000
vt 0.812500 0.062500
vt 0.906250 0.187500
vt 0.906250 0.125000
vt 0.875000 0.187500
vt 0.875000 0.125000
vt 0.125000 0.062500
vt 0.125000 0.031250
vt 0.156250 0.062500
vt 0.156250 0.031250
vt 0.937500 0.937500
vt 0.937500 0.906250
vt 0.968750 0.937500
vt 0.968750 0.906250
vt 0.625000 0.250000
vt 0.625000 0.187500
vt 0.812500 0.250000
vt 0.812500 0.187500
vt 0.000000 0.187500
vt 0.000000 0.125000
vt 0.187500 0.187500
vt 0.187500 0.125000
vt 0.250000 0.000000
vt 0.250000 0.187500
vt 0.187500 0.000000
vt 0.312500 0.187500
vt 0.312500 0.000000
vt 0.062500 0.125000
vt 0.062500 0.062500
vt 0.125000 0.125000
vt 0.875000 1.000000
vt 0.875000 0.937500
vt 0.937500 1.000000
s 0
usemtl Material_0
f 145/77/11 147/78/11 146/79/11
f 147/78/11 148/80/11 146/79/11
f 149/81/12 151/82/12 150/83/12
f 151/82/12 152/84/12 150/83/12
f 153/85/13 155/86/13 154/87/13
f 155/86/13 156/79/13 154/87/13
f 157/88/14 159/89/14 158/90/14
f 159/89/14 160/91/14 158/90/14
f 161/92/15 163/93/15 162/94/15
f 163/93/15 164/95/15 162/94/15
f 165/96/16 167/97/16 166/98/16
f 167/97/16 168/99/16 166/98/16
f 169/100/11 171/101/11 170/102/11
f 171/101/11 172/103/11 170/102/11
f 173/104/12 175/105/12 174/106/12
f 175/105/12 176/107/12 174/106/12
f 177/108/13 179/109/13 178/110/13
f 179/109/13 180/106/13 178/110/13
f 181/111/14 183/112/14 182/109/14
f 183/112/14 184/108/14 182/109/14
f 185/113/15 187/114/15 186/115/15
f 187/114/15 188/92/15 186/115/15
f 189/116/16 191/117/16 190/118/16
f 191/117/16 192/96/16 190/118/16
o bulletModel_2
v 1.961538 0.384615 0.500000
v 2.653846 0.384615 0.500000
v 1.961538 -0.153846 0.500000
v 2.653846 -0.153846 0.500000
v 2.653846 0.384615 -0.038462
v 1.961538 0.384615 -0.038462
v 2.653846 -0.153846 -0.038462
v 1.961538 -0.153846 -0.038462
v 2.653846 0.384615 -0.038462
v 2.653846 0.384615 0.500000
v 1.961538 0.384615 -0.038462
v 1.961538 0.384615 0.500000
v 1.961538 -0.153846 -0.038462
v 1.961538 -0.153846 0.500000
v 2.653846 -0.153846 -0.038462
v 2.653846 -0.153846 0.500000
v 1.961538 0.384615 -0.038462
v 1.961538 0.384615 0.500000
v 1.961538 -0.153846 -0.038462
v 1.961538 -0.153846 0.500000
v 2.653846 0.384615 0.500000
v 2.653846 0.384615 -0.038462
v 2.653846 -0.153846 0.500000
v 2.653846 -0.153846 -0.038462
v 0.038462 0.423077 0.538461
v 2.153846 0.423077 0.538461
v 0.038462 -0.192308 0.538461
v 2.153846 -0.192308 0.538461
v 2.153846 0.423077 -0.076923
v 0.038462 0.423077 -0.076923
v 2.153846 -0.192308 -0.076923
v 0.038462 -0.192308 -0.076923
v 2.153846 0.423077 -0.076923
v 2.153846 0.423077 0.538461
v 0.038462 0.423077 -0.076923
v 0.038462 0.423077 0.538461
v 0.038462 -0.192308 -0.076923
v 0.038462 -0.192308 0.538461
v 2.153846 -0.192308 -0.076923
v 2.153846 -0.192308 0.538461
v 0.038462 0.423077 -0.076923
v 0.038462 0.423077 0.538461
v 0.038462 -0.192308 -0.076923
v 0.038462 -0.192308 0.538461
v 2.153846 0.423077 0.538461
v 2.153846 0.423077 -0.076923
v 2.153846 -0.192308 0.538461
v 2.153846 -0.192308 -0.076923
vn -0.0000 -0.0000 1.0000
vn -0.0000 -0.0000 -1.0000
vn -0.0000 1.0000 -0.0000
vn -0.0000 -1.0000 -0.0000
vn -1.0000 -0.0000 -0.0000
vn 1.0000 -0.0000 -0.0000
vt 0.875000 0.937500
vt 0.875000 0.906250
vt 0.937500 0.937500
vt 0.937500 0.906250
vt 0.125000 0.125000
vt 0.125000 0.093750
vt 0.187500 0.125000
vt 0.187500 0.093750
vt 0.906250 0.812500
vt 0.906250 0.875000
vt 0.875000 0.812500
vt 0.875000 0.875000
vt 0.906250 0.750000
vt 0.875000 0.750000
vt 0.000000 0.062500
vt 0.000000 0.031250
vt 0.031250 0.062500
vt 0.031250 0.031250
vt 0.875000 0.125000
vt 0.875000 0.093750
vt 0.906250 0.125000
vt 0.906250 0.093750
vt 0.625000 0.312500
vt 0.625000 0.250000
vt 0.812500 0.312500
vt 0.812500 0.250000
vt 0.125000 0.250000
vt 0.125000 0.187500
vt 0.312500 0.250000
vt 0.312500 0.187500
vt 0.375000 0.062500
vt 0.375000 0.250000
vt 0.312500 0.062500
vt 0.437500 0.250000
vt 0.437500 0.062500
vt 0.812500 0.187500
vt 0.875000 0.250000
vt 0.875000 0.187500
vt 0.750000 0.187500
vt 0.750000 0.125000
vt 0.812500 0.125000
s 0
usemtl Material_0
f 193/119/17 195/120/17 194/121/17
f 195/120/17 196/122/17 194/121/17
f 197/123/18 199/124/18 198/125/18
f 199/124/18 200/126/18 198/125/18
f 201/127/19 203/128/19 202/129/19
f 203/128/19 204/130/19 202/129/19
f 205/127/20 207/131/20 206/129/20
f 207/131/20 208/132/20 206/129/20
f 209/133/21 211/134/21 210/135/21
f 211/134/21 212/136/21 210/135/21
f 213/137/22 215/138/22 214/139/22
f 215/138/22 216/140/22 214/139/22
f 217/141/17 219/142/17 218/143/17
f 219/142/17 220/144/17 218/143/17
f 221/145/18 223/146/18 222/147/18
f 223/146/18 224/148/18 222/147/18
f 225/149/19 227/150/19 226/151/19
f 227/150/19 228/147/19 226/151/19
f 229/152/20 231/153/20 230/150/20
f 231/153/20 232/149/20 230/150/20
f 233/144/21 235/154/21 234/155/21
f 235/154/21 236/156/21 234/155/21
f 237/157/22 239/158/22 238/154/22
f 239/158/22 240/159/22 238/154/22
o bulletModel_1
v 0.038462 0.711538 0.057692
v 2.153846 0.711538 0.057692
v 0.038462 0.096154 0.057692
v 2.153846 0.096154 0.057692
v 2.153846 0.711538 -0.557692
v 0.038462 0.711538 -0.557692
v 2.153846 0.096154 -0.557692
v 0.038462 0.096154 -0.557692
v 2.153846 0.711538 -0.557692
v 2.153846 0.711538 0.057692
v 0.038462 0.711538 -0.557692
v 0.038462 0.711538 0.057692
v 0.038462 0.096154 -0.557692
v 0.038462 0.096154 0.057692
v 2.153846 0.096154 -0.557692
v 2.153846 0.096154 0.057692
v 0.038462 0.711538 -0.557692
v 0.038462 0.711538 0.057692
v 0.038462 0.096154 -0.557692
v 0.038462 0.096154 0.057692
v 2.153846 0.711538 0.057692
v 2.153846 0.711538 -0.557692
v 2.153846 0.096154 0.057692
v 2.153846 0.096154 -0.557692
v 1.961538 0.673077 0.019231
v 2.653846 0.673077 0.019231
v 1.961538 0.134615 0.019231
v 2.653846 0.134615 0.019231
v 2.653846 0.673077 -0.519231
v 1.961538 0.673077 -0.519231
v 2.653846 0.134615 -0.519231
v 1.961538 0.134615 -0.519231
v 2.653846 0.673077 -0.519231
v 2.653846 0.673077 0.019231
v 1.961538 0.673077 -0.519231
v 1.961538 0.673077 0.019231
v 1.961538 0.134615 -0.519231
v 1.961538 0.134615 0.019231
v 2.653846 0.134615 -0.519231
v 2.653846 0.134615 0.019231
v 1.961538 0.673077 -0.519231
v 1.961538 0.673077 0.019231
v 1.961538 0.134615 -0.519231
v 1.961538 0.134615 0.019231
v 2.653846 0.673077 0.019231
v 2.653846 0.673077 -0.519231
v 2.653846 0.134615 0.019231
v 2.653846 0.134615 -0.519231
vn -0.0000 -0.0000 1.0000
vn -0.0000 -0.0000 -1.0000
vn -0.0000 1.0000 -0.0000
vn -0.0000 -1.0000 -0.0000
vn -1.0000 -0.0000 -0.0000
vn 1.0000 -0.0000 -0.0000
vt 0.750000 0.625000
vt 0.750000 0.562500
vt 0.937500 0.625000
vt 0.937500 0.562500
vt 0.750000 0.500000
vt 0.937500 0.500000
vt 0.500000 0.062500
vt 0.500000 0.250000
vt 0.437500 0.062500
vt 0.437500 0.250000
vt 0.812500 0.500000
vt 0.812500 0.312500
vt 0.750000 0.312500
vt 0.000000 0.125000
vt 0.000000 0.062500
vt 0.062500 0.125000
vt 0.062500 0.062500
vt 0.812500 0.187500
vt 0.812500 0.125000
vt 0.875000 0.187500
vt 0.875000 0.125000
vt 0.875000 0.750000
vt 0.875000 0.718750
vt 0.937500 0.750000
vt 0.937500 0.718750
vt 0.875000 0.687500
vt 0.875000 0.656250
vt 0.937500 0.687500
vt 0.937500 0.656250
vt 0.531250 0.062500
vt 0.531250 0.125000
vt 0.500000 0.125000
vt 0.593750 0.125000
vt 0.593750 0.062500
vt 0.562500 0.125000
vt 0.562500 0.062500
vt 0.062500 0.031250
vt 0.093750 0.062500
vt 0.093750 0.031250
vt 0.937500 1.000000
vt 0.937500 0.968750
vt 0.968750 1.000000
vt 0.968750 0.968750
s 0
usemtl Material_0
f 241/160/23 243/161/23 242/162/23
f 243/161/23 244/163/23 242/162/23
f 245/161/24 247/164/24 246/163/24
f 247/164/24 248/165/24 246/163/24
f 249/166/25 251/167/25 250/168/25
f 251/167/25 252/169/25 250/168/25
f 253/170/26 255/171/26 254/164/26
f 255/171/26 256/172/26 254/164/26
f 257/173/27 259/174/27 258/175/27
f 259/174/27 260/176/27 258/175/27
f 261/177/28 263/178/28 262/179/28
f 263/178/28 264/180/28 262/179/28
f 265/181/23 267/182/23 266/183/23
f 267/182/23 268/184/23 266/183/23
f 269/185/24 271/186/24 270/187/24
f 271/186/24 272/188/24 270/187/24
f 273/189/25 275/190/25 274/166/25
f 275/190/25 276/191/25 274/166/25
f 277/192/26 279/193/26 278/194/26
f 279/193/26 280/195/26 278/194/26
f 281/176/27 283/196/27 282/197/27
f 283/196/27 284/198/27 282/197/27
f 285/199/28 287/200/28 286/201/28
f 287/200/28 288/202/28 286/201/28
