# Blender 5.0.1
# www.blender.org
mtllib lev.ar10pmag25.mtl
o ammoModel
v -0.000000 0.769231 -0.383846
v 2.307692 0.769231 -0.383847
v -0.000000 0.000000 -0.383846
v 2.307692 0.000000 -0.383847
v 2.307692 0.769231 -0.384616
v -0.000000 0.769231 -0.384615
v 2.307692 0.000000 -0.384616
v -0.000000 0.000000 -0.384615
v 2.307692 0.769231 -0.384616
v 2.307692 0.769231 -0.383847
v -0.000000 0.769231 -0.384615
v -0.000000 0.769231 -0.383846
v -0.000000 0.000000 -0.384615
v -0.000000 0.000000 -0.383846
v 2.307692 0.000000 -0.384616
v 2.307692 0.000000 -0.383847
v -0.000000 0.769231 -0.384615
v -0.000000 0.769231 -0.383846
v -0.000000 0.000000 -0.384615
v -0.000000 0.000000 -0.383846
v 2.307692 0.769231 -0.383847
v 2.307692 0.769231 -0.384616
v 2.307692 0.000000 -0.383847
v 2.307692 0.000000 -0.384616
v 0.000000 0.769231 0.385385
v 2.307692 0.769231 0.385384
v 0.000000 0.000000 0.385385
v 2.307692 0.000000 0.385384
v 2.307692 0.769231 0.384615
v 0.000000 0.769231 0.384615
v 2.307692 0.000000 0.384615
v 0.000000 0.000000 0.384615
v 2.307692 0.769231 0.384615
v 2.307692 0.769231 0.385384
v 0.000000 0.769231 0.384615
v 0.000000 0.769231 0.385385
v 0.000000 0.000000 0.384615
v 0.000000 0.000000 0.385385
v 2.307692 0.000000 0.384615
v 2.307692 0.000000 0.385384
v 0.000000 0.769231 0.384615
v 0.000000 0.769231 0.385385
v 0.000000 0.000000 0.384615
v 0.000000 0.000000 0.385385
v 2.307692 0.769231 0.385384
v 2.307692 0.769231 0.384615
v 2.307692 0.000000 0.385384
v 2.307692 0.000000 0.384615
v 0.000000 0.000000 0.384615
v 2.307692 0.000000 0.384615
v 0.000000 -4.615385 0.384615
v 2.307692 -4.615385 0.384615
v 2.307692 0.000000 -0.384616
v -0.000000 0.000000 -0.384615
v 2.307692 -4.615385 -0.384616
v -0.000000 -4.615385 -0.384615
v 2.307692 0.000000 -0.384616
v 2.307692 0.000000 0.384615
v -0.000000 0.000000 -0.384615
v 0.000000 0.000000 0.384615
v -0.000000 -4.615385 -0.384615
v 0.000000 -4.615385 0.384615
v 2.307692 -4.615385 -0.384616
v 2.307692 -4.615385 0.384615
v -0.000000 0.000000 -0.384615
v 0.000000 0.000000 0.384615
v -0.000000 -4.615385 -0.384615
v 0.000000 -4.615385 0.384615
v 2.307692 0.000000 0.384615
v 2.307692 0.000000 -0.384616
v 2.307692 -4.615385 0.384615
v 2.307692 -4.615385 -0.384616
v 2.306923 0.384615 0.384615
v 2.307692 0.384615 0.384615
v 2.306923 0.000000 0.384615
v 2.307692 0.000000 0.384615
v 2.307692 0.384615 -0.384616
v 2.306923 0.384615 -0.384616
v 2.307692 0.000000 -0.384616
v 2.306923 0.000000 -0.384616
v 2.307692 0.384615 -0.384616
v 2.307692 0.384615 0.384615
v 2.306923 0.384615 -0.384616
v 2.306923 0.384615 0.384615
v 2.306923 0.000000 -0.384616
v 2.306923 0.000000 0.384615
v 2.307692 0.000000 -0.384616
v 2.307692 0.000000 0.384615
v 2.306923 0.384615 -0.384616
v 2.306923 0.384615 0.384615
v 2.306923 0.000000 -0.384616
v 2.306923 0.000000 0.384615
v 2.307692 0.384615 0.384615
v 2.307692 0.384615 -0.384616
v 2.307692 0.000000 0.384615
v 2.307692 0.000000 -0.384616
v -0.000769 0.384615 0.384615
v 0.000000 0.384615 0.384615
v -0.000769 0.000000 0.384615
v 0.000000 0.000000 0.384615
v -0.000000 0.384615 -0.384615
v -0.000769 0.384615 -0.384615
v -0.000000 0.000000 -0.384615
v -0.000769 0.000000 -0.384615
v -0.000000 0.384615 -0.384615
v 0.000000 0.384615 0.384615
v -0.000769 0.384615 -0.384615
v -0.000769 0.384615 0.384615
v -0.000769 0.000000 -0.384615
v -0.000769 0.000000 0.384615
v -0.000000 0.000000 -0.384615
v 0.000000 0.000000 0.384615
v -0.000769 0.384615 -0.384615
v -0.000769 0.384615 0.384615
v -0.000769 0.000000 -0.384615
v -0.000769 0.000000 0.384615
v 0.000000 0.384615 0.384615
v -0.000000 0.384615 -0.384615
v 0.000000 0.000000 0.384615
v -0.000000 0.000000 -0.384615
vn -0.0000 -0.0000 1.0000
vn -0.0000 -0.0000 -1.0000
vn -0.0000 1.0000 -0.0000
vn -0.0000 -1.0000 -0.0000
vn -1.0000 -0.0000 -0.0000
vn 1.0000 -0.0000 -0.0000
vt 0.437500 1.000000
vt 0.437500 0.937500
vt 0.625000 1.000000
vt 0.625000 0.937500
vt 0.062500 0.562500
vt 0.062500 0.500000
vt 0.250000 0.562500
vt 0.250000 0.500000
vt 0.000000 0.812500
vt 0.000000 1.000000
vt 0.000000 0.937500
vt 0.062500 0.625000
vt 0.250000 0.625000
vt 0.437500 0.625000
vt 0.437500 0.562500
vt 0.000000 0.625000
vt 0.187500 1.000000
vt 0.187500 0.625000
vt 0.375000 1.000000
vt 0.375000 0.625000
vt 0.500000 0.750000
vt 0.500000 0.937500
vt 0.437500 0.750000
vt 0.312500 0.562500
vt 0.312500 0.375000
vt 0.250000 0.375000
vt 0.000000 0.250000
vt 0.062500 0.250000
vt 0.000000 0.968750
vt 0.062500 1.000000
vt 0.500000 0.500000
vt 0.500000 0.468750
vt 0.562500 0.500000
vt 0.562500 0.468750
vt 0.500000 0.562500
vt 0.500000 0.531250
vt 0.562500 0.562500
vt 0.562500 0.531250
vt 0.125000 0.437500
vt 0.125000 0.406250
vt 0.187500 0.437500
vt 0.187500 0.406250
vt 0.062500 0.437500
vt 0.062500 0.406250
s 0
usemtl Material_0
f 1/1/1 3/2/1 2/3/1
f 3/2/1 4/4/1 2/3/1
f 5/5/2 7/6/2 6/7/2
f 7/6/2 8/8/2 6/7/2
f 9/9/3 11/10/3 10/9/3
f 11/10/3 12/10/3 10/9/3
f 13/10/4 15/9/4 14/10/4
f 15/9/4 16/9/4 14/10/4
f 17/10/5 19/11/5 18/10/5
f 19/11/5 20/11/5 18/10/5
f 21/10/6 23/11/6 22/10/6
f 23/11/6 24/11/6 22/10/6
f 25/12/1 27/5/1 26/13/1
f 27/5/1 28/7/1 26/13/1
f 29/13/2 31/7/2 30/14/2
f 31/7/2 32/15/2 30/14/2
f 33/9/3 35/10/3 34/9/3
f 35/10/3 36/10/3 34/9/3
f 37/10/4 39/9/4 38/10/4
f 39/9/4 40/9/4 38/10/4
f 41/10/5 43/11/5 42/10/5
f 43/11/5 44/11/5 42/10/5
f 45/10/6 47/11/6 46/10/6
f 47/11/6 48/11/6 46/10/6
f 49/10/1 51/16/1 50/17/1
f 51/16/1 52/18/1 50/17/1
f 53/17/2 55/18/2 54/19/2
f 55/18/2 56/20/2 54/19/2
f 57/21/3 59/22/3 58/23/3
f 59/22/3 60/2/3 58/23/3
f 61/24/4 63/25/4 62/7/4
f 63/25/4 64/26/4 62/7/4
f 65/19/5 67/20/5 66/1/5
f 67/20/5 68/14/5 66/1/5
f 69/16/6 71/27/6 70/12/6
f 71/27/6 72/28/6 70/12/6
f 73/10/1 75/29/1 74/10/1
f 75/29/1 76/29/1 74/10/1
f 77/10/2 79/29/2 78/10/2
f 79/29/2 80/29/2 78/10/2
f 81/30/3 83/30/3 82/10/3
f 83/30/3 84/10/3 82/10/3
f 85/30/4 87/30/4 86/10/4
f 87/30/4 88/10/4 86/10/4
f 89/31/5 91/32/5 90/33/5
f 91/32/5 92/34/5 90/33/5
f 93/35/6 95/36/6 94/37/6
f 95/36/6 96/38/6 94/37/6
f 97/10/1 99/29/1 98/10/1
f 99/29/1 100/29/1 98/10/1
f 101/10/2 103/29/2 102/10/2
f 103/29/2 104/29/2 102/10/2
f 105/30/3 107/30/3 106/10/3
f 107/30/3 108/10/3 106/10/3
f 109/30/4 111/30/4 110/10/4
f 111/30/4 112/10/4 110/10/4
f 113/39/5 115/40/5 114/41/5
f 115/40/5 116/42/5 114/41/5
f 117/43/6 119/44/6 118/39/6
f 119/44/6 120/40/6 118/39/6
o bulletModel_15
v 0.384615 -1.923077 0.393077
v 0.769231 -1.923077 0.393077
v 0.384615 -2.307692 0.393077
v 0.769231 -2.307692 0.393077
v 0.769231 -1.923077 0.392308
v 0.384615 -1.923077 0.392308
v 0.769231 -2.307692 0.392308
v 0.384615 -2.307692 0.392308
v 0.769231 -1.923077 0.392308
v 0.769231 -1.923077 0.393077
v 0.384615 -1.923077 0.392308
v 0.384615 -1.923077 0.393077
v 0.384615 -2.307692 0.392308
v 0.384615 -2.307692 0.393077
v 0.769231 -2.307692 0.392308
v 0.769231 -2.307692 0.393077
v 0.384615 -1.923077 0.392308
v 0.384615 -1.923077 0.393077
v 0.384615 -2.307692 0.392308
v 0.384615 -2.307692 0.393077
v 0.769231 -1.923077 0.393077
v 0.769231 -1.923077 0.392308
v 0.769231 -2.307692 0.393077
v 0.769231 -2.307692 0.392308
vn -0.0000 -0.0000 1.0000
vn -0.0000 -0.0000 -1.0000
vn -0.0000 1.0000 -0.0000
vn -0.0000 -1.0000 -0.0000
vn -1.0000 -0.0000 -0.0000
vn 1.0000 -0.0000 -0.0000
vt 0.625000 0.500000
vt 0.625000 0.468750
vt 0.656250 0.500000
vt 0.656250 0.468750
vt 0.562500 0.375000
vt 0.562500 0.343750
vt 0.593750 0.375000
vt 0.593750 0.343750
vt 0.000000 0.968750
vt 0.000000 1.000000
s 0
usemtl Material_0
f 121/45/7 123/46/7 122/47/7
f 123/46/7 124/48/7 122/47/7
f 125/49/8 127/50/8 126/51/8
f 127/50/8 128/52/8 126/51/8
f 129/53/9 131/54/9 130/53/9
f 131/54/9 132/54/9 130/53/9
f 133/54/10 135/53/10 134/54/10
f 135/53/10 136/53/10 134/54/10
f 137/54/11 139/53/11 138/54/11
f 139/53/11 140/53/11 138/54/11
f 141/54/12 143/53/12 142/54/12
f 143/53/12 144/53/12 142/54/12
o bulletModel_17
v 0.384615 -2.307692 0.393077
v 0.769231 -2.307692 0.393077
v 0.384615 -2.692308 0.393077
v 0.769231 -2.692308 0.393077
v 0.769231 -2.307692 0.392308
v 0.384615 -2.307692 0.392308
v 0.769231 -2.692308 0.392308
v 0.384615 -2.692308 0.392308
v 0.769231 -2.307692 0.392308
v 0.769231 -2.307692 0.393077
v 0.384615 -2.307692 0.392308
v 0.384615 -2.307692 0.393077
v 0.384615 -2.692308 0.392308
v 0.384615 -2.692308 0.393077
v 0.769231 -2.692308 0.392308
v 0.769231 -2.692308 0.393077
v 0.384615 -2.307692 0.392308
v 0.384615 -2.307692 0.393077
v 0.384615 -2.692308 0.392308
v 0.384615 -2.692308 0.393077
v 0.769231 -2.307692 0.393077
v 0.769231 -2.307692 0.392308
v 0.769231 -2.692308 0.393077
v 0.769231 -2.692308 0.392308
vn -0.0000 -0.0000 1.0000
vn -0.0000 -0.0000 -1.0000
vn -0.0000 1.0000 -0.0000
vn -0.0000 -1.0000 -0.0000
vn -1.0000 -0.0000 -0.0000
vn 1.0000 -0.0000 -0.0000
vt 0.625000 0.437500
vt 0.625000 0.406250
vt 0.656250 0.437500
vt 0.656250 0.406250
vt 0.625000 0.375000
vt 0.625000 0.343750
vt 0.656250 0.375000
vt 0.656250 0.343750
vt 0.000000 0.968750
vt 0.000000 1.000000
s 0
usemtl Material_0
f 145/55/13 147/56/13 146/57/13
f 147/56/13 148/58/13 146/57/13
f 149/59/14 151/60/14 150/61/14
f 151/60/14 152/62/14 150/61/14
f 153/63/15 155/64/15 154/63/15
f 155/64/15 156/64/15 154/63/15
f 157/64/16 159/63/16 158/64/16
f 159/63/16 160/63/16 158/64/16
f 161/64/17 163/63/17 162/64/17
f 163/63/17 164/63/17 162/64/17
f 165/64/18 167/63/18 166/64/18
f 167/63/18 168/63/18 166/64/18
o bulletModel_19
v 0.384615 -2.692308 0.393077
v 0.769231 -2.692308 0.393077
v 0.384615 -3.076923 0.393077
v 0.769231 -3.076923 0.393077
v 0.769231 -2.692308 0.392308
v 0.384615 -2.692308 0.392308
v 0.769231 -3.076923 0.392308
v 0.384615 -3.076923 0.392308
v 0.769231 -2.692308 0.392308
v 0.769231 -2.692308 0.393077
v 0.384615 -2.692308 0.392308
v 0.384615 -2.692308 0.393077
v 0.384615 -3.076923 0.392308
v 0.384615 -3.076923 0.393077
v 0.769231 -3.076923 0.392308
v 0.769231 -3.076923 0.393077
v 0.384615 -2.692308 0.392308
v 0.384615 -2.692308 0.393077
v 0.384615 -3.076923 0.392308
v 0.384615 -3.076923 0.393077
v 0.769231 -2.692308 0.393077
v 0.769231 -2.692308 0.392308
v 0.769231 -3.076923 0.393077
v 0.769231 -3.076923 0.392308
vn -0.0000 -0.0000 1.0000
vn -0.0000 -0.0000 -1.0000
vn -0.0000 1.0000 -0.0000
vn -0.0000 -1.0000 -0.0000
vn -1.0000 -0.0000 -0.0000
vn 1.0000 -0.0000 -0.0000
vt 0.687500 0.812500
vt 0.687500 0.781250
vt 0.718750 0.812500
vt 0.718750 0.781250
vt 0.250000 0.312500
vt 0.250000 0.281250
vt 0.281250 0.312500
vt 0.281250 0.281250
vt 0.000000 0.968750
vt 0.000000 1.000000
s 0
usemtl Material_0
f 169/65/19 171/66/19 170/67/19
f 171/66/19 172/68/19 170/67/19
f 173/69/20 175/70/20 174/71/20
f 175/70/20 176/72/20 174/71/20
f 177/73/21 179/74/21 178/73/21
f 179/74/21 180/74/21 178/73/21
f 181/74/22 183/73/22 182/74/22
f 183/73/22 184/73/22 182/74/22
f 185/74/23 187/73/23 186/74/23
f 187/73/23 188/73/23 186/74/23
f 189/74/24 191/73/24 190/74/24
f 191/73/24 192/73/24 190/74/24
o bulletModel_21
v 0.384615 -3.076923 0.393077
v 0.769231 -3.076923 0.393077
v 0.384615 -3.461539 0.393077
v 0.769231 -3.461539 0.393077
v 0.769231 -3.076923 0.392308
v 0.384615 -3.076923 0.392308
v 0.769231 -3.461539 0.392308
v 0.384615 -3.461539 0.392308
v 0.769231 -3.076923 0.392308
v 0.769231 -3.076923 0.393077
v 0.384615 -3.076923 0.392308
v 0.384615 -3.076923 0.393077
v 0.384615 -3.461539 0.392308
v 0.384615 -3.461539 0.393077
v 0.769231 -3.461539 0.392308
v 0.769231 -3.461539 0.393077
v 0.384615 -3.076923 0.392308
v 0.384615 -3.076923 0.393077
v 0.384615 -3.461539 0.392308
v 0.384615 -3.461539 0.393077
v 0.769231 -3.076923 0.393077
v 0.769231 -3.076923 0.392308
v 0.769231 -3.461539 0.393077
v 0.769231 -3.461539 0.392308
vn -0.0000 -0.0000 1.0000
vn -0.0000 -0.0000 -1.0000
vn -0.0000 1.0000 -0.0000
vn -0.0000 -1.0000 -0.0000
vn -1.0000 -0.0000 -0.0000
vn 1.0000 -0.0000 -0.0000
vt 0.687500 0.875000
vt 0.687500 0.843750
vt 0.718750 0.875000
vt 0.718750 0.843750
vt 0.187500 0.312500
vt 0.187500 0.281250
vt 0.218750 0.312500
vt 0.218750 0.281250
vt 0.000000 0.968750
vt 0.000000 1.000000
s 0
usemtl Material_0
f 193/75/25 195/76/25 194/77/25
f 195/76/25 196/78/25 194/77/25
f 197/79/26 199/80/26 198/81/26
f 199/80/26 200/82/26 198/81/26
f 201/83/27 203/84/27 202/83/27
f 203/84/27 204/84/27 202/83/27
f 205/84/28 207/83/28 206/84/28
f 207/83/28 208/83/28 206/84/28
f 209/84/29 211/83/29 210/84/29
f 211/83/29 212/83/29 210/84/29
f 213/84/30 215/83/30 214/84/30
f 215/83/30 216/83/30 214/84/30
o bulletModel_16
v 0.384615 -1.923077 -0.391539
v 0.769231 -1.923077 -0.391539
v 0.384615 -2.307692 -0.391539
v 0.769231 -2.307692 -0.391539
v 0.769231 -1.923077 -0.392308
v 0.384615 -1.923077 -0.392308
v 0.769231 -2.307692 -0.392308
v 0.384615 -2.307692 -0.392308
v 0.769231 -1.923077 -0.392308
v 0.769231 -1.923077 -0.391539
v 0.384615 -1.923077 -0.392308
v 0.384615 -1.923077 -0.391539
v 0.384615 -2.307692 -0.392308
v 0.384615 -2.307692 -0.391539
v 0.769231 -2.307692 -0.392308
v 0.769231 -2.307692 -0.391539
v 0.384615 -1.923077 -0.392308
v 0.384615 -1.923077 -0.391539
v 0.384615 -2.307692 -0.392308
v 0.384615 -2.307692 -0.391539
v 0.769231 -1.923077 -0.391539
v 0.769231 -1.923077 -0.392308
v 0.769231 -2.307692 -0.391539
v 0.769231 -2.307692 -0.392308
vn -0.0000 -0.0000 1.0000
vn -0.0000 -0.0000 -1.0000
vn -0.0000 1.0000 -0.0000
vn -0.0000 -1.0000 -0.0000
vn -1.0000 -0.0000 -0.0000
vn 1.0000 -0.0000 -0.0000
vt 0.625000 0.625000
vt 0.625000 0.593750
vt 0.656250 0.625000
vt 0.656250 0.593750
vt 0.437500 0.375000
vt 0.437500 0.343750
vt 0.468750 0.375000
vt 0.468750 0.343750
vt 0.000000 0.968750
vt 0.000000 1.000000
s 0
usemtl Material_0
f 217/85/31 219/86/31 218/87/31
f 219/86/31 220/88/31 218/87/31
f 221/89/32 223/90/32 222/91/32
f 223/90/32 224/92/32 222/91/32
f 225/93/33 227/94/33 226/93/33
f 227/94/33 228/94/33 226/93/33
f 229/94/34 231/93/34 230/94/34
f 231/93/34 232/93/34 230/94/34
f 233/94/35 235/93/35 234/94/35
f 235/93/35 236/93/35 234/94/35
f 237/94/36 239/93/36 238/94/36
f 239/93/36 240/93/36 238/94/36
o bulletModel_18
v 0.384615 -2.307692 -0.391539
v 0.769231 -2.307692 -0.391539
v 0.384615 -2.692308 -0.391539
v 0.769231 -2.692308 -0.391539
v 0.769231 -2.307692 -0.392308
v 0.384615 -2.307692 -0.392308
v 0.769231 -2.692308 -0.392308
v 0.384615 -2.692308 -0.392308
v 0.769231 -2.307692 -0.392308
v 0.769231 -2.307692 -0.391539
v 0.384615 -2.307692 -0.392308
v 0.384615 -2.307692 -0.391539
v 0.384615 -2.692308 -0.392308
v 0.384615 -2.692308 -0.391539
v 0.769231 -2.692308 -0.392308
v 0.769231 -2.692308 -0.391539
v 0.384615 -2.307692 -0.392308
v 0.384615 -2.307692 -0.391539
v 0.384615 -2.692308 -0.392308
v 0.384615 -2.692308 -0.391539
v 0.769231 -2.307692 -0.391539
v 0.769231 -2.307692 -0.392308
v 0.769231 -2.692308 -0.391539
v 0.769231 -2.692308 -0.392308
vn -0.0000 -0.0000 1.0000
vn -0.0000 -0.0000 -1.0000
vn -0.0000 1.0000 -0.0000
vn -0.0000 -1.0000 -0.0000
vn -1.0000 -0.0000 -0.0000
vn 1.0000 -0.0000 -0.0000
vt 0.625000 0.562500
vt 0.625000 0.531250
vt 0.656250 0.562500
vt 0.656250 0.531250
vt 0.500000 0.375000
vt 0.500000 0.343750
vt 0.531250 0.375000
vt 0.531250 0.343750
vt 0.000000 0.968750
vt 0.000000 1.000000
s 0
usemtl Material_0
f 241/95/37 243/96/37 242/97/37
f 243/96/37 244/98/37 242/97/37
f 245/99/38 247/100/38 246/101/38
f 247/100/38 248/102/38 246/101/38
f 249/103/39 251/104/39 250/103/39
f 251/104/39 252/104/39 250/103/39
f 253/104/40 255/103/40 254/104/40
f 255/103/40 256/103/40 254/104/40
f 257/104/41 259/103/41 258/104/41
f 259/103/41 260/103/41 258/104/41
f 261/104/42 263/103/42 262/104/42
f 263/103/42 264/103/42 262/104/42
o bulletModel_20
v 0.384615 -2.692308 -0.391539
v 0.769231 -2.692308 -0.391539
v 0.384615 -3.076923 -0.391539
v 0.769231 -3.076923 -0.391539
v 0.769231 -2.692308 -0.392308
v 0.384615 -2.692308 -0.392308
v 0.769231 -3.076923 -0.392308
v 0.384615 -3.076923 -0.392308
v 0.769231 -2.692308 -0.392308
v 0.769231 -2.692308 -0.391539
v 0.384615 -2.692308 -0.392308
v 0.384615 -2.692308 -0.391539
v 0.384615 -3.076923 -0.392308
v 0.384615 -3.076923 -0.391539
v 0.769231 -3.076923 -0.392308
v 0.769231 -3.076923 -0.391539
v 0.384615 -2.692308 -0.392308
v 0.384615 -2.692308 -0.391539
v 0.384615 -3.076923 -0.392308
v 0.384615 -3.076923 -0.391539
v 0.769231 -2.692308 -0.391539
v 0.769231 -2.692308 -0.392308
v 0.769231 -3.076923 -0.391539
v 0.769231 -3.076923 -0.392308
vn -0.0000 -0.0000 1.0000
vn -0.0000 -0.0000 -1.0000
vn -0.0000 1.0000 -0.0000
vn -0.0000 -1.0000 -0.0000
vn -1.0000 -0.0000 -0.0000
vn 1.0000 -0.0000 -0.0000
vt 0.687500 0.937500
vt 0.687500 0.906250
vt 0.718750 0.937500
vt 0.718750 0.906250
vt 0.125000 0.312500
vt 0.125000 0.281250
vt 0.156250 0.312500
vt 0.156250 0.281250
vt 0.000000 0.968750
vt 0.000000 1.000000
s 0
usemtl Material_0
f 265/105/43 267/106/43 266/107/43
f 267/106/43 268/108/43 266/107/43
f 269/109/44 271/110/44 270/111/44
f 271/110/44 272/112/44 270/111/44
f 273/113/45 275/114/45 274/113/45
f 275/114/45 276/114/45 274/113/45
f 277/114/46 279/113/46 278/114/46
f 279/113/46 280/113/46 278/114/46
f 281/114/47 283/113/47 282/114/47
f 283/113/47 284/113/47 282/114/47
f 285/114/48 287/113/48 286/114/48
f 287/113/48 288/113/48 286/114/48
o bulletModel_22
v 0.384615 -3.076923 -0.391539
v 0.769231 -3.076923 -0.391539
v 0.384615 -3.461539 -0.391539
v 0.769231 -3.461539 -0.391539
v 0.769231 -3.076923 -0.392308
v 0.384615 -3.076923 -0.392308
v 0.769231 -3.461539 -0.392308
v 0.384615 -3.461539 -0.392308
v 0.769231 -3.076923 -0.392308
v 0.769231 -3.076923 -0.391539
v 0.384615 -3.076923 -0.392308
v 0.384615 -3.076923 -0.391539
v 0.384615 -3.461539 -0.392308
v 0.384615 -3.461539 -0.391539
v 0.769231 -3.461539 -0.392308
v 0.769231 -3.461539 -0.391539
v 0.384615 -3.076923 -0.392308
v 0.384615 -3.076923 -0.391539
v 0.384615 -3.461539 -0.392308
v 0.384615 -3.461539 -0.391539
v 0.769231 -3.076923 -0.391539
v 0.769231 -3.076923 -0.392308
v 0.769231 -3.461539 -0.391539
v 0.769231 -3.461539 -0.392308
vn -0.0000 -0.0000 1.0000
vn -0.0000 -0.0000 -1.0000
vn -0.0000 1.0000 -0.0000
vn -0.0000 -1.0000 -0.0000
vn -1.0000 -0.0000 -0.0000
vn 1.0000 -0.0000 -0.0000
vt 0.687500 1.000000
vt 0.687500 0.968750
vt 0.718750 1.000000
vt 0.718750 0.968750
vt 0.062500 0.312500
vt 0.062500 0.281250
vt 0.093750 0.312500
vt 0.093750 0.281250
vt 0.000000 0.968750
vt 0.000000 1.000000
s 0
usemtl Material_0
f 289/115/49 291/116/49 290/117/49
f 291/116/49 292/118/49 290/117/49
f 293/119/50 295/120/50 294/121/50
f 295/120/50 296/122/50 294/121/50
f 297/123/51 299/124/51 298/123/51
f 299/124/51 300/124/51 298/123/51
f 301/124/52 303/123/52 302/124/52
f 303/123/52 304/123/52 302/124/52
f 305/124/53 307/123/53 306/124/53
f 307/123/53 308/123/53 306/124/53
f 309/124/54 311/123/54 310/124/54
f 311/123/54 312/123/54 310/124/54
o bulletModel_2
v 1.923077 0.423077 0.134615
v 2.269231 0.423077 0.134615
v 1.923077 0.038462 0.134615
v 2.269231 0.038462 0.134615
v 2.269231 0.423077 -0.250000
v 1.923077 0.423077 -0.250000
v 2.269231 0.038462 -0.250000
v 1.923077 0.038462 -0.250000
v 2.269231 0.423077 -0.250000
v 2.269231 0.423077 0.134615
v 1.923077 0.423077 -0.250000
v 1.923077 0.423077 0.134615
v 1.923077 0.038462 -0.250000
v 1.923077 0.038462 0.134615
v 2.269231 0.038462 -0.250000
v 2.269231 0.038462 0.134615
v 1.923077 0.423077 -0.250000
v 1.923077 0.423077 0.134615
v 1.923077 0.038462 -0.250000
v 1.923077 0.038462 0.134615
v 2.269231 0.423077 0.134615
v 2.269231 0.423077 -0.250000
v 2.269231 0.038462 0.134615
v 2.269231 0.038462 -0.250000
v 1.538461 0.461538 0.173077
v 1.923077 0.461538 0.173077
v 1.538461 -0.000000 0.173077
v 1.923077 -0.000000 0.173077
v 1.923077 0.461538 -0.288462
v 1.538461 0.461538 -0.288462
v 1.923077 -0.000000 -0.288462
v 1.538461 -0.000000 -0.288462
v 1.923077 0.461538 -0.288462
v 1.923077 0.461538 0.173077
v 1.538461 0.461538 -0.288462
v 1.538461 0.461538 0.173077
v 1.538461 -0.000000 -0.288462
v 1.538461 -0.000000 0.173077
v 1.923077 -0.000000 -0.288462
v 1.923077 -0.000000 0.173077
v 1.538461 0.461538 -0.288462
v 1.538461 0.461538 0.173077
v 1.538461 -0.000000 -0.288462
v 1.538461 -0.000000 0.173077
v 1.923077 0.461538 0.173077
v 1.923077 0.461538 -0.288462
v 1.923077 -0.000000 0.173077
v 1.923077 -0.000000 -0.288462
v 0.038462 0.519231 0.230769
v 1.538461 0.519231 0.230769
v 0.038462 -0.057692 0.230769
v 1.538461 -0.057692 0.230769
v 1.538461 0.519231 -0.346154
v 0.038461 0.519231 -0.346154
v 1.538461 -0.057692 -0.346154
v 0.038461 -0.057692 -0.346154
v 1.538461 0.519231 -0.346154
v 1.538461 0.519231 0.230769
v 0.038461 0.519231 -0.346154
v 0.038462 0.519231 0.230769
v 0.038461 -0.057692 -0.346154
v 0.038462 -0.057692 0.230769
v 1.538461 -0.057692 -0.346154
v 1.538461 -0.057692 0.230769
v 0.038461 0.519231 -0.346154
v 0.038462 0.519231 0.230769
v 0.038461 -0.057692 -0.346154
v 0.038462 -0.057692 0.230769
v 1.538461 0.519231 0.230769
v 1.538461 0.519231 -0.346154
v 1.538461 -0.057692 0.230769
v 1.538461 -0.057692 -0.346154
vn -0.0000 -0.0000 1.0000
vn -0.0000 -0.0000 -1.0000
vn -0.0000 1.0000 -0.0000
vn -0.0000 -1.0000 -0.0000
vn -1.0000 -0.0000 -0.0000
vn 1.0000 -0.0000 -0.0000
vt 0.562500 0.812500
vt 0.562500 0.781250
vt 0.593750 0.812500
vt 0.593750 0.781250
vt 0.312500 0.437500
vt 0.312500 0.406250
vt 0.343750 0.437500
vt 0.343750 0.406250
vt 0.593750 0.656250
vt 0.593750 0.687500
vt 0.562500 0.656250
vt 0.562500 0.687500
vt 0.406250 0.437500
vt 0.406250 0.406250
vt 0.375000 0.437500
vt 0.375000 0.406250
vt 0.562500 0.750000
vt 0.562500 0.718750
vt 0.593750 0.750000
vt 0.593750 0.718750
vt 0.562500 0.875000
vt 0.562500 0.843750
vt 0.593750 0.875000
vt 0.593750 0.843750
vt 0.437500 0.437500
vt 0.437500 0.406250
vt 0.468750 0.437500
vt 0.468750 0.406250
vt 0.500000 0.437500
vt 0.500000 0.406250
vt 0.531250 0.437500
vt 0.531250 0.406250
vt 0.593750 0.468750
vt 0.593750 0.500000
vt 0.562500 0.468750
vt 0.562500 0.500000
vt 0.593750 0.437500
vt 0.593750 0.406250
vt 0.562500 0.437500
vt 0.562500 0.406250
vt 0.562500 0.562500
vt 0.562500 0.531250
vt 0.593750 0.562500
vt 0.593750 0.531250
vt 0.562500 0.625000
vt 0.562500 0.593750
vt 0.593750 0.625000
vt 0.593750 0.593750
vt 0.437500 0.750000
vt 0.437500 0.687500
vt 0.312500 0.562500
vt 0.312500 0.500000
vt 0.437500 0.562500
vt 0.437500 0.500000
vt 0.500000 0.562500
vt 0.500000 0.687500
vt 0.500000 0.625000
vt 0.375000 0.500000
s 0
usemtl Material_0
f 313/125/55 315/126/55 314/127/55
f 315/126/55 316/128/55 314/127/55
f 317/129/56 319/130/56 318/131/56
f 319/130/56 320/132/56 318/131/56
f 321/133/57 323/134/57 322/135/57
f 323/134/57 324/136/57 322/135/57
f 325/137/58 327/138/58 326/139/58
f 327/138/58 328/140/58 326/139/58
f 329/141/59 331/142/59 330/143/59
f 331/142/59 332/144/59 330/143/59
f 333/145/60 335/146/60 334/147/60
f 335/146/60 336/148/60 334/147/60
f 337/149/55 339/150/55 338/151/55
f 339/150/55 340/152/55 338/151/55
f 341/153/56 343/154/56 342/155/56
f 343/154/56 344/156/56 342/155/56
f 345/157/57 347/158/57 346/159/57
f 347/158/57 348/160/57 346/159/57
f 349/161/58 351/162/58 350/163/58
f 351/162/58 352/164/58 350/163/58
f 353/165/59 355/166/59 354/167/59
f 355/166/59 356/168/59 354/167/59
f 357/169/60 359/170/60 358/171/60
f 359/170/60 360/172/60 358/171/60
f 361/173/55 363/174/55 362/141/55
f 363/174/55 364/136/55 362/141/55
f 365/175/56 367/176/56 366/177/56
f 367/176/56 368/178/56 366/177/56
f 369/179/57 371/180/57 370/177/57
f 371/180/57 372/174/57 370/177/57
f 373/179/58 375/153/58 374/177/58
f 375/153/58 376/149/58 374/177/58
f 377/180/59 379/181/59 378/136/59
f 379/181/59 380/169/59 378/136/59
f 381/176/60 383/129/60 382/182/60
f 383/129/60 384/139/60 382/182/60
o bulletModel_1
v 1.923077 0.615385 0.269230
v 2.269231 0.615385 0.269230
v 1.923077 0.230769 0.269230
v 2.269231 0.230769 0.269230
v 2.269231 0.615385 -0.115385
v 1.923077 0.615385 -0.115385
v 2.269231 0.230769 -0.115385
v 1.923077 0.230769 -0.115385
v 2.269231 0.615385 -0.115385
v 2.269231 0.615385 0.269230
v 1.923077 0.615385 -0.115385
v 1.923077 0.615385 0.269230
v 1.923077 0.230769 -0.115385
v 1.923077 0.230769 0.269230
v 2.269231 0.230769 -0.115385
v 2.269231 0.230769 0.269230
v 1.923077 0.615385 -0.115385
v 1.923077 0.615385 0.269230
v 1.923077 0.230769 -0.115385
v 1.923077 0.230769 0.269230
v 2.269231 0.615385 0.269230
v 2.269231 0.615385 -0.115385
v 2.269231 0.230769 0.269230
v 2.269231 0.230769 -0.115385
v 0.038462 0.711538 0.365385
v 1.538462 0.711538 0.365384
v 0.038462 0.134615 0.365385
v 1.538462 0.134615 0.365384
v 1.538461 0.711538 -0.211539
v 0.038461 0.711538 -0.211538
v 1.538461 0.134615 -0.211539
v 0.038461 0.134615 -0.211538
v 1.538461 0.711538 -0.211539
v 1.538462 0.711538 0.365384
v 0.038461 0.711538 -0.211538
v 0.038462 0.711538 0.365385
v 0.038461 0.134615 -0.211538
v 0.038462 0.134615 0.365385
v 1.538461 0.134615 -0.211539
v 1.538462 0.134615 0.365384
v 0.038461 0.711538 -0.211538
v 0.038462 0.711538 0.365385
v 0.038461 0.134615 -0.211538
v 0.038462 0.134615 0.365385
v 1.538462 0.711538 0.365384
v 1.538461 0.711538 -0.211539
v 1.538462 0.134615 0.365384
v 1.538461 0.134615 -0.211539
v 1.538462 0.653846 0.307692
v 1.923077 0.653846 0.307692
v 1.538462 0.192308 0.307692
v 1.923077 0.192308 0.307692
v 1.923077 0.653846 -0.153847
v 1.538461 0.653846 -0.153846
v 1.923077 0.192308 -0.153847
v 1.538461 0.192308 -0.153846
v 1.923077 0.653846 -0.153847
v 1.923077 0.653846 0.307692
v 1.538461 0.653846 -0.153846
v 1.538462 0.653846 0.307692
v 1.538461 0.192308 -0.153846
v 1.538462 0.192308 0.307692
v 1.923077 0.192308 -0.153847
v 1.923077 0.192308 0.307692
v 1.538461 0.653846 -0.153846
v 1.538462 0.653846 0.307692
v 1.538461 0.192308 -0.153846
v 1.538462 0.192308 0.307692
v 1.923077 0.653846 0.307692
v 1.923077 0.653846 -0.153847
v 1.923077 0.192308 0.307692
v 1.923077 0.192308 -0.153847
vn -0.0000 -0.0000 1.0000
vn -0.0000 -0.0000 -1.0000
vn -0.0000 1.0000 -0.0000
vn -0.0000 -1.0000 -0.0000
vn -1.0000 -0.0000 -0.0000
vn 1.0000 -0.0000 -0.0000
vt 0.250000 0.375000
vt 0.250000 0.343750
vt 0.281250 0.375000
vt 0.281250 0.343750
vt 0.312500 0.375000
vt 0.312500 0.343750
vt 0.343750 0.375000
vt 0.343750 0.343750
vt 0.656250 0.656250
vt 0.656250 0.687500
vt 0.625000 0.656250
vt 0.625000 0.687500
vt 0.406250 0.375000
vt 0.406250 0.343750
vt 0.375000 0.375000
vt 0.375000 0.343750
vt 0.625000 0.750000
vt 0.625000 0.718750
vt 0.656250 0.750000
vt 0.656250 0.718750
vt 0.625000 0.812500
vt 0.625000 0.781250
vt 0.656250 0.812500
vt 0.656250 0.781250
vt 0.062500 0.500000
vt 0.062500 0.437500
vt 0.187500 0.500000
vt 0.187500 0.437500
vt 0.500000 0.937500
vt 0.500000 0.875000
vt 0.625000 0.937500
vt 0.625000 0.875000
vt 0.562500 0.750000
vt 0.562500 0.875000
vt 0.500000 0.750000
vt 0.250000 0.500000
vt 0.187500 0.375000
vt 0.500000 0.625000
vt 0.500000 0.562500
vt 0.562500 0.625000
vt 0.562500 0.562500
vt 0.375000 0.500000
vt 0.375000 0.437500
vt 0.437500 0.500000
vt 0.437500 0.437500
vt 0.062500 0.375000
vt 0.062500 0.343750
vt 0.093750 0.375000
vt 0.093750 0.343750
vt 0.125000 0.375000
vt 0.125000 0.343750
vt 0.156250 0.375000
vt 0.156250 0.343750
vt 0.656250 0.843750
vt 0.656250 0.875000
vt 0.625000 0.843750
vt 0.218750 0.375000
vt 0.218750 0.343750
vt 0.187500 0.343750
vt 0.625000 0.906250
vt 0.656250 0.937500
vt 0.656250 0.906250
vt 0.625000 1.000000
vt 0.625000 0.968750
vt 0.656250 1.000000
vt 0.656250 0.968750
s 0
usemtl Material_0
f 385/183/61 387/184/61 386/185/61
f 387/184/61 388/186/61 386/185/61
f 389/187/62 391/188/62 390/189/62
f 391/188/62 392/190/62 390/189/62
f 393/191/63 395/192/63 394/193/63
f 395/192/63 396/194/63 394/193/63
f 397/195/64 399/196/64 398/197/64
f 399/196/64 400/198/64 398/197/64
f 401/199/65 403/200/65 402/201/65
f 403/200/65 404/202/65 402/201/65
f 405/203/66 407/204/66 406/205/66
f 407/204/66 408/206/66 406/205/66
f 409/207/61 411/208/61 410/209/61
f 411/208/61 412/210/61 410/209/61
f 413/211/62 415/212/62 414/213/62
f 415/212/62 416/214/62 414/213/62
f 417/215/63 419/216/63 418/217/63
f 419/216/63 420/212/63 418/217/63
f 421/218/64 423/183/64 422/209/64
f 423/183/64 424/219/64 422/209/64
f 425/220/65 427/221/65 426/222/65
f 427/221/65 428/223/65 426/222/65
f 429/224/66 431/225/66 430/226/66
f 431/225/66 432/227/66 430/226/66
f 433/228/61 435/229/61 434/230/61
f 435/229/61 436/231/61 434/230/61
f 437/232/62 439/233/62 438/234/62
f 439/233/62 440/235/62 438/234/62
f 441/236/63 443/237/63 442/238/63
f 443/237/63 444/214/63 442/238/63
f 445/239/64 447/240/64 446/219/64
f 447/240/64 448/241/64 446/219/64
f 449/213/65 451/242/65 450/243/65
f 451/242/65 452/244/65 450/243/65
f 453/245/66 455/246/66 454/247/66
f 455/246/66 456/248/66 454/247/66
