# Blender 5.0.1
# www.blender.org
mtllib lev.glockmag32.mtl
o bulletModel_3
v -0.226770 -0.530526 -0.000769
v -0.226059 -0.530820 -0.000769
v -0.373956 -0.885864 -0.000769
v -0.373245 -0.886158 -0.000769
v -0.226059 -0.530820 -0.385385
v -0.226770 -0.530526 -0.385385
v -0.373245 -0.886158 -0.385385
v -0.373956 -0.885864 -0.385385
v -0.226059 -0.530820 -0.385385
v -0.226059 -0.530820 -0.000769
v -0.226770 -0.530526 -0.385385
v -0.226770 -0.530526 -0.000769
v -0.373956 -0.885864 -0.385385
v -0.373956 -0.885864 -0.000769
v -0.373245 -0.886158 -0.385385
v -0.373245 -0.886158 -0.000769
v -0.226770 -0.530526 -0.385385
v -0.226770 -0.530526 -0.000769
v -0.373956 -0.885864 -0.385385
v -0.373956 -0.885864 -0.000769
v -0.226059 -0.530820 -0.000769
v -0.226059 -0.530820 -0.385385
v -0.373245 -0.886158 -0.000769
v -0.373245 -0.886158 -0.385385
vn -0.0000 -0.0000 1.0000
vn -0.0000 -0.0000 -1.0000
vn 0.3827 0.9239 -0.0000
vn -0.3827 -0.9239 -0.0000
vn -0.9239 0.3827 -0.0000
vn 0.9239 -0.3827 -0.0000
vt 0.000000 1.000000
vt 0.000000 0.968750
vt 0.031250 1.000000
vt 0.312500 0.437500
vt 0.312500 0.406250
vt 0.343750 0.437500
vt 0.343750 0.406250
vt 0.562500 0.750000
vt 0.562500 0.718750
vt 0.593750 0.750000
vt 0.593750 0.718750
s 0
usemtl Material_0.003
f 1/1/1 3/2/1 2/1/1
f 3/2/1 4/2/1 2/1/1
f 5/1/2 7/2/2 6/1/2
f 7/2/2 8/2/2 6/1/2
f 9/3/3 11/3/3 10/1/3
f 11/3/3 12/1/3 10/1/3
f 13/3/4 15/3/4 14/1/4
f 15/3/4 16/1/4 14/1/4
f 17/4/5 19/5/5 18/6/5
f 19/5/5 20/7/5 18/6/5
f 21/8/6 23/9/6 22/10/6
f 23/9/6 24/11/6 22/10/6
o bulletModel_11
v -0.815514 -1.951879 -0.000769
v -0.814803 -1.952173 -0.000769
v -0.962700 -2.307217 -0.000769
v -0.961989 -2.307512 -0.000769
v -0.814803 -1.952173 -0.385385
v -0.815514 -1.951879 -0.385385
v -0.961989 -2.307512 -0.385385
v -0.962700 -2.307217 -0.385385
v -0.814803 -1.952173 -0.385385
v -0.814803 -1.952173 -0.000769
v -0.815514 -1.951879 -0.385385
v -0.815514 -1.951879 -0.000769
v -0.962700 -2.307217 -0.385385
v -0.962700 -2.307217 -0.000769
v -0.961989 -2.307512 -0.385385
v -0.961989 -2.307512 -0.000769
v -0.815514 -1.951879 -0.385385
v -0.815514 -1.951879 -0.000769
v -0.962700 -2.307217 -0.385385
v -0.962700 -2.307217 -0.000769
v -0.814803 -1.952173 -0.000769
v -0.814803 -1.952173 -0.385385
v -0.961989 -2.307512 -0.000769
v -0.961989 -2.307512 -0.385385
vn -0.0000 -0.0000 1.0000
vn -0.0000 -0.0000 -1.0000
vn 0.3827 0.9239 -0.0000
vn -0.3827 -0.9239 -0.0000
vn -0.9239 0.3827 -0.0000
vn 0.9239 -0.3827 -0.0000
vt 0.000000 1.000000
vt 0.000000 0.968750
vt 0.031250 1.000000
vt 0.375000 0.437500
vt 0.375000 0.406250
vt 0.406250 0.437500
vt 0.406250 0.406250
vt 0.562500 0.687500
vt 0.562500 0.656250
vt 0.593750 0.687500
vt 0.593750 0.656250
s 0
usemtl Material_0.003
f 25/12/7 27/13/7 26/12/7
f 27/13/7 28/13/7 26/12/7
f 29/12/8 31/13/8 30/12/8
f 31/13/8 32/13/8 30/12/8
f 33/14/9 35/14/9 34/12/9
f 35/14/9 36/12/9 34/12/9
f 37/14/10 39/14/10 38/12/10
f 39/14/10 40/12/10 38/12/10
f 41/15/11 43/16/11 42/17/11
f 43/16/11 44/18/11 42/17/11
f 45/19/12 47/20/12 46/21/12
f 47/20/12 48/22/12 46/21/12
o bulletModel_7
v -0.521142 -1.241202 -0.000769
v -0.520431 -1.241497 -0.000769
v -0.668328 -1.596541 -0.000769
v -0.667617 -1.596835 -0.000769
v -0.520431 -1.241497 -0.385385
v -0.521142 -1.241202 -0.385385
v -0.667617 -1.596835 -0.385385
v -0.668328 -1.596541 -0.385385
v -0.520431 -1.241497 -0.385385
v -0.520431 -1.241497 -0.000769
v -0.521142 -1.241202 -0.385385
v -0.521142 -1.241202 -0.000769
v -0.668328 -1.596541 -0.385385
v -0.668328 -1.596541 -0.000769
v -0.667617 -1.596835 -0.385385
v -0.667617 -1.596835 -0.000769
v -0.521142 -1.241202 -0.385385
v -0.521142 -1.241202 -0.000769
v -0.668328 -1.596541 -0.385385
v -0.668328 -1.596541 -0.000769
v -0.520431 -1.241497 -0.000769
v -0.520431 -1.241497 -0.385385
v -0.667617 -1.596835 -0.000769
v -0.667617 -1.596835 -0.385385
vn -0.0000 -0.0000 1.0000
vn -0.0000 -0.0000 -1.0000
vn 0.3827 0.9239 -0.0000
vn -0.3827 -0.9239 -0.0000
vn -0.9239 0.3827 -0.0000
vn 0.9239 -0.3827 -0.0000
vt 0.000000 1.000000
vt 0.000000 0.968750
vt 0.031250 1.000000
vt 0.437500 0.437500
vt 0.437500 0.406250
vt 0.468750 0.437500
vt 0.468750 0.406250
vt 0.562500 0.625000
vt 0.562500 0.593750
vt 0.593750 0.625000
vt 0.593750 0.593750
s 0
usemtl Material_0.003
f 49/23/13 51/24/13 50/23/13
f 51/24/13 52/24/13 50/23/13
f 53/23/14 55/24/14 54/23/14
f 55/24/14 56/24/14 54/23/14
f 57/25/15 59/25/15 58/23/15
f 59/25/15 60/23/15 58/23/15
f 61/25/16 63/25/16 62/23/16
f 63/25/16 64/23/16 62/23/16
f 65/26/17 67/27/17 66/28/17
f 67/27/17 68/29/17 66/28/17
f 69/30/18 71/31/18 70/32/18
f 71/31/18 72/33/18 70/32/18
o bulletModel_6
v -0.373956 -0.885864 0.383846
v -0.373245 -0.886158 0.383846
v -0.521142 -1.241202 0.383846
v -0.520431 -1.241497 0.383846
v -0.373245 -0.886158 -0.000769
v -0.373956 -0.885864 -0.000769
v -0.520431 -1.241497 -0.000769
v -0.521142 -1.241202 -0.000769
v -0.373245 -0.886158 -0.000769
v -0.373245 -0.886158 0.383846
v -0.373956 -0.885864 -0.000769
v -0.373956 -0.885864 0.383846
v -0.521142 -1.241202 -0.000769
v -0.521142 -1.241202 0.383846
v -0.520431 -1.241497 -0.000769
v -0.520431 -1.241497 0.383846
v -0.373956 -0.885864 -0.000769
v -0.373956 -0.885864 0.383846
v -0.521142 -1.241202 -0.000769
v -0.521142 -1.241202 0.383846
v -0.373245 -0.886158 0.383846
v -0.373245 -0.886158 -0.000769
v -0.520431 -1.241497 0.383846
v -0.520431 -1.241497 -0.000769
vn -0.0000 -0.0000 1.0000
vn -0.0000 -0.0000 -1.0000
vn 0.3827 0.9239 -0.0000
vn -0.3827 -0.9239 -0.0000
vn -0.9239 0.3827 -0.0000
vn 0.9239 -0.3827 -0.0000
vt 0.000000 1.000000
vt 0.000000 0.968750
vt 0.031250 1.000000
vt 0.500000 0.437500
vt 0.500000 0.406250
vt 0.531250 0.437500
vt 0.531250 0.406250
vt 0.562500 0.562500
vt 0.562500 0.531250
vt 0.593750 0.562500
vt 0.593750 0.531250
s 0
usemtl Material_0.003
f 73/34/19 75/35/19 74/34/19
f 75/35/19 76/35/19 74/34/19
f 77/34/20 79/35/20 78/34/20
f 79/35/20 80/35/20 78/34/20
f 81/36/21 83/36/21 82/34/21
f 83/36/21 84/34/21 82/34/21
f 85/36/22 87/36/22 86/34/22
f 87/36/22 88/34/22 86/34/22
f 89/37/23 91/38/23 90/39/23
f 91/38/23 92/40/23 90/39/23
f 93/41/24 95/42/24 94/43/24
f 95/42/24 96/44/24 94/43/24
o bulletModel_10
v -0.668328 -1.596541 0.383846
v -0.667617 -1.596835 0.383846
v -0.815514 -1.951879 0.383846
v -0.814803 -1.952173 0.383846
v -0.667617 -1.596835 -0.000769
v -0.668328 -1.596541 -0.000769
v -0.814803 -1.952173 -0.000769
v -0.815514 -1.951879 -0.000769
v -0.667617 -1.596835 -0.000769
v -0.667617 -1.596835 0.383846
v -0.668328 -1.596541 -0.000769
v -0.668328 -1.596541 0.383846
v -0.815514 -1.951879 -0.000769
v -0.815514 -1.951879 0.383846
v -0.814803 -1.952173 -0.000769
v -0.814803 -1.952173 0.383846
v -0.668328 -1.596541 -0.000769
v -0.668328 -1.596541 0.383846
v -0.815514 -1.951879 -0.000769
v -0.815514 -1.951879 0.383846
v -0.667617 -1.596835 0.383846
v -0.667617 -1.596835 -0.000769
v -0.814803 -1.952173 0.383846
v -0.814803 -1.952173 -0.000769
vn -0.0000 -0.0000 1.0000
vn -0.0000 -0.0000 -1.0000
vn 0.3827 0.9239 -0.0000
vn -0.3827 -0.9239 -0.0000
vn -0.9239 0.3827 -0.0000
vn 0.9239 -0.3827 -0.0000
vt 0.000000 1.000000
vt 0.000000 0.968750
vt 0.031250 1.000000
vt 0.562500 0.437500
vt 0.562500 0.406250
vt 0.593750 0.437500
vt 0.593750 0.406250
vt 0.562500 0.500000
vt 0.562500 0.468750
vt 0.593750 0.500000
vt 0.593750 0.468750
s 0
usemtl Material_0.003
f 97/45/25 99/46/25 98/45/25
f 99/46/25 100/46/25 98/45/25
f 101/45/26 103/46/26 102/45/26
f 103/46/26 104/46/26 102/45/26
f 105/47/27 107/47/27 106/45/27
f 107/47/27 108/45/27 106/45/27
f 109/47/28 111/47/28 110/45/28
f 111/47/28 112/45/28 110/45/28
f 113/48/29 115/49/29 114/50/29
f 115/49/29 116/51/29 114/50/29
f 117/52/30 119/53/30 118/54/30
f 119/53/30 120/55/30 118/54/30
o bulletModel_14
v -0.962700 -2.307217 0.383846
v -0.961989 -2.307512 0.383846
v -1.109886 -2.662556 0.383846
v -1.109175 -2.662850 0.383846
v -0.961989 -2.307512 -0.000769
v -0.962700 -2.307217 -0.000769
v -1.109175 -2.662850 -0.000769
v -1.109886 -2.662556 -0.000769
v -0.961989 -2.307512 -0.000769
v -0.961989 -2.307512 0.383846
v -0.962700 -2.307217 -0.000769
v -0.962700 -2.307217 0.383846
v -1.109886 -2.662556 -0.000769
v -1.109886 -2.662556 0.383846
v -1.109175 -2.662850 -0.000769
v -1.109175 -2.662850 0.383846
v -0.962700 -2.307217 -0.000769
v -0.962700 -2.307217 0.383846
v -1.109886 -2.662556 -0.000769
v -1.109886 -2.662556 0.383846
v -0.961989 -2.307512 0.383846
v -0.961989 -2.307512 -0.000769
v -1.109175 -2.662850 0.383846
v -1.109175 -2.662850 -0.000769
vn -0.0000 -0.0000 1.0000
vn -0.0000 -0.0000 -1.0000
vn 0.3827 0.9239 -0.0000
vn -0.3827 -0.9239 -0.0000
vn -0.9239 0.3827 -0.0000
vn 0.9239 -0.3827 -0.0000
vt 0.000000 1.000000
vt 0.000000 0.968750
vt 0.031250 1.000000
vt 0.625000 1.000000
vt 0.625000 0.968750
vt 0.656250 1.000000
vt 0.656250 0.968750
vt 0.000000 0.375000
vt 0.000000 0.343750
vt 0.031250 0.375000
vt 0.031250 0.343750
s 0
usemtl Material_0.003
f 121/56/31 123/57/31 122/56/31
f 123/57/31 124/57/31 122/56/31
f 125/56/32 127/57/32 126/56/32
f 127/57/32 128/57/32 126/56/32
f 129/58/33 131/58/33 130/56/33
f 131/58/33 132/56/33 130/56/33
f 133/58/34 135/58/34 134/56/34
f 135/58/34 136/56/34 134/56/34
f 137/59/35 139/60/35 138/61/35
f 139/60/35 140/62/35 138/61/35
f 141/63/36 143/64/36 142/65/36
f 143/64/36 144/66/36 142/65/36
o bulletModel_19
v -1.404258 -3.373232 -0.000769
v -1.403547 -3.373526 -0.000769
v -1.551444 -3.728570 -0.000769
v -1.550733 -3.728865 -0.000769
v -1.403547 -3.373526 -0.385384
v -1.404258 -3.373232 -0.385384
v -1.550733 -3.728865 -0.385384
v -1.551444 -3.728570 -0.385384
v -1.403547 -3.373526 -0.385384
v -1.403547 -3.373526 -0.000769
v -1.404258 -3.373232 -0.385384
v -1.404258 -3.373232 -0.000769
v -1.551444 -3.728570 -0.385384
v -1.551444 -3.728570 -0.000769
v -1.550733 -3.728865 -0.385384
v -1.550733 -3.728865 -0.000769
v -1.404258 -3.373232 -0.385384
v -1.404258 -3.373232 -0.000769
v -1.551444 -3.728570 -0.385384
v -1.551444 -3.728570 -0.000769
v -1.403547 -3.373526 -0.000769
v -1.403547 -3.373526 -0.385384
v -1.550733 -3.728865 -0.000769
v -1.550733 -3.728865 -0.385384
vn -0.0000 -0.0000 1.0000
vn -0.0000 -0.0000 -1.0000
vn 0.3827 0.9239 -0.0000
vn -0.3827 -0.9239 -0.0000
vn -0.9239 0.3827 -0.0000
vn 0.9239 -0.3827 -0.0000
vt 0.000000 1.000000
vt 0.000000 0.968750
vt 0.031250 1.000000
vt 0.625000 0.937500
vt 0.625000 0.906250
vt 0.656250 0.937500
vt 0.656250 0.906250
vt 0.062500 0.375000
vt 0.062500 0.343750
vt 0.093750 0.375000
vt 0.093750 0.343750
s 0
usemtl Material_0.003
f 145/67/37 147/68/37 146/67/37
f 147/68/37 148/68/37 146/67/37
f 149/67/38 151/68/38 150/67/38
f 151/68/38 152/68/38 150/67/38
f 153/69/39 155/69/39 154/67/39
f 155/69/39 156/67/39 154/67/39
f 157/69/40 159/69/40 158/67/40
f 159/69/40 160/67/40 158/67/40
f 161/70/41 163/71/41 162/72/41
f 163/71/41 164/73/41 162/72/41
f 165/74/42 167/75/42 166/76/42
f 167/75/42 168/77/42 166/76/42
o bulletModel_18
v -1.257072 -3.017894 0.383846
v -1.256361 -3.018188 0.383846
v -1.404258 -3.373232 0.383846
v -1.403547 -3.373526 0.383846
v -1.256361 -3.018188 -0.000769
v -1.257072 -3.017894 -0.000769
v -1.403547 -3.373526 -0.000769
v -1.404258 -3.373232 -0.000769
v -1.256361 -3.018188 -0.000769
v -1.256361 -3.018188 0.383846
v -1.257072 -3.017894 -0.000769
v -1.257072 -3.017894 0.383846
v -1.404258 -3.373232 -0.000769
v -1.404258 -3.373232 0.383846
v -1.403547 -3.373526 -0.000769
v -1.403547 -3.373526 0.383846
v -1.257072 -3.017894 -0.000769
v -1.257072 -3.017894 0.383846
v -1.404258 -3.373232 -0.000769
v -1.404258 -3.373232 0.383846
v -1.256361 -3.018188 0.383846
v -1.256361 -3.018188 -0.000769
v -1.403547 -3.373526 0.383846
v -1.403547 -3.373526 -0.000769
vn -0.0000 -0.0000 1.0000
vn -0.0000 -0.0000 -1.0000
vn 0.3827 0.9239 -0.0000
vn -0.3827 -0.9239 -0.0000
vn -0.9239 0.3827 -0.0000
vn 0.9239 -0.3827 -0.0000
vt 0.000000 1.000000
vt 0.000000 0.968750
vt 0.031250 1.000000
vt 0.625000 0.875000
vt 0.625000 0.843750
vt 0.656250 0.875000
vt 0.656250 0.843750
vt 0.125000 0.375000
vt 0.125000 0.343750
vt 0.156250 0.375000
vt 0.156250 0.343750
s 0
usemtl Material_0.003
f 169/78/43 171/79/43 170/78/43
f 171/79/43 172/79/43 170/78/43
f 173/78/44 175/79/44 174/78/44
f 175/79/44 176/79/44 174/78/44
f 177/80/45 179/80/45 178/78/45
f 179/80/45 180/78/45 178/78/45
f 181/80/46 183/80/46 182/78/46
f 183/80/46 184/78/46 182/78/46
f 185/81/47 187/82/47 186/83/47
f 187/82/47 188/84/47 186/83/47
f 189/85/48 191/86/48 190/87/48
f 191/86/48 192/88/48 190/87/48
o bulletModel_22
v -1.551444 -3.728570 0.383847
v -1.550733 -3.728865 0.383847
v -1.698629 -4.083909 0.383847
v -1.697919 -4.084203 0.383847
v -1.550733 -3.728865 -0.000769
v -1.551444 -3.728570 -0.000769
v -1.697919 -4.084203 -0.000769
v -1.698629 -4.083909 -0.000769
v -1.550733 -3.728865 -0.000769
v -1.550733 -3.728865 0.383847
v -1.551444 -3.728570 -0.000769
v -1.551444 -3.728570 0.383847
v -1.698629 -4.083909 -0.000769
v -1.698629 -4.083909 0.383847
v -1.697919 -4.084203 -0.000769
v -1.697919 -4.084203 0.383847
v -1.551444 -3.728570 -0.000769
v -1.551444 -3.728570 0.383847
v -1.698629 -4.083909 -0.000769
v -1.698629 -4.083909 0.383847
v -1.550733 -3.728865 0.383847
v -1.550733 -3.728865 -0.000769
v -1.697919 -4.084203 0.383847
v -1.697919 -4.084203 -0.000769
vn -0.0000 -0.0000 1.0000
vn -0.0000 -0.0000 -1.0000
vn 0.3827 0.9239 -0.0000
vn -0.3827 -0.9239 -0.0000
vn -0.9239 0.3827 -0.0000
vn 0.9239 -0.3827 -0.0000
vt 0.000000 1.000000
vt 0.000000 0.968750
vt 0.031250 1.000000
vt 0.625000 0.812500
vt 0.625000 0.781250
vt 0.656250 0.812500
vt 0.656250 0.781250
vt 0.187500 0.375000
vt 0.187500 0.343750
vt 0.218750 0.375000
vt 0.218750 0.343750
s 0
usemtl Material_0.003
f 193/89/49 195/90/49 194/89/49
f 195/90/49 196/90/49 194/89/49
f 197/89/50 199/90/50 198/89/50
f 199/90/50 200/90/50 198/89/50
f 201/91/51 203/91/51 202/89/51
f 203/91/51 204/89/51 202/89/51
f 205/91/52 207/91/52 206/89/52
f 207/91/52 208/89/52 206/89/52
f 209/92/53 211/93/53 210/94/53
f 211/93/53 212/95/53 210/94/53
f 213/96/54 215/97/54 214/98/54
f 215/97/54 216/99/54 214/98/54
o bulletModel_26
v -1.845816 -4.439247 0.383847
v -1.845105 -4.439541 0.383847
v -1.993001 -4.794585 0.383847
v -1.992291 -4.794879 0.383847
v -1.845105 -4.439541 -0.000769
v -1.845816 -4.439247 -0.000769
v -1.992291 -4.794879 -0.000769
v -1.993001 -4.794585 -0.000769
v -1.845105 -4.439541 -0.000769
v -1.845105 -4.439541 0.383847
v -1.845816 -4.439247 -0.000769
v -1.845816 -4.439247 0.383847
v -1.993001 -4.794585 -0.000769
v -1.993001 -4.794585 0.383847
v -1.992291 -4.794879 -0.000769
v -1.992291 -4.794879 0.383847
v -1.845816 -4.439247 -0.000769
v -1.845816 -4.439247 0.383847
v -1.993001 -4.794585 -0.000769
v -1.993001 -4.794585 0.383847
v -1.845105 -4.439541 0.383847
v -1.845105 -4.439541 -0.000769
v -1.992291 -4.794879 0.383847
v -1.992291 -4.794879 -0.000769
vn -0.0000 -0.0000 1.0000
vn -0.0000 -0.0000 -1.0000
vn 0.3827 0.9239 -0.0000
vn -0.3827 -0.9239 -0.0000
vn -0.9239 0.3827 -0.0000
vn 0.9239 -0.3827 -0.0000
vt 0.000000 1.000000
vt 0.000000 0.968750
vt 0.031250 1.000000
vt 0.625000 0.750000
vt 0.625000 0.718750
vt 0.656250 0.750000
vt 0.656250 0.718750
vt 0.250000 0.375000
vt 0.250000 0.343750
vt 0.281250 0.375000
vt 0.281250 0.343750
s 0
usemtl Material_0.003
f 217/100/55 219/101/55 218/100/55
f 219/101/55 220/101/55 218/100/55
f 221/100/56 223/101/56 222/100/56
f 223/101/56 224/101/56 222/100/56
f 225/102/57 227/102/57 226/100/57
f 227/102/57 228/100/57 226/100/57
f 229/102/58 231/102/58 230/100/58
f 231/102/58 232/100/58 230/100/58
f 233/103/59 235/104/59 234/105/59
f 235/104/59 236/106/59 234/105/59
f 237/107/60 239/108/60 238/109/60
f 239/108/60 240/110/60 238/109/60
o bulletModel_30
v -2.140187 -5.149923 0.383847
v -2.139477 -5.150218 0.383847
v -2.287373 -5.505261 0.383847
v -2.286663 -5.505556 0.383847
v -2.139477 -5.150218 -0.000769
v -2.140187 -5.149923 -0.000769
v -2.286663 -5.505556 -0.000769
v -2.287373 -5.505261 -0.000769
v -2.139477 -5.150218 -0.000769
v -2.139477 -5.150218 0.383847
v -2.140187 -5.149923 -0.000769
v -2.140187 -5.149923 0.383847
v -2.287373 -5.505261 -0.000769
v -2.287373 -5.505261 0.383847
v -2.286663 -5.505556 -0.000769
v -2.286663 -5.505556 0.383847
v -2.140187 -5.149923 -0.000769
v -2.140187 -5.149923 0.383847
v -2.287373 -5.505261 -0.000769
v -2.287373 -5.505261 0.383847
v -2.139477 -5.150218 0.383847
v -2.139477 -5.150218 -0.000769
v -2.286663 -5.505556 0.383847
v -2.286663 -5.505556 -0.000769
vn -0.0000 -0.0000 1.0000
vn -0.0000 -0.0000 -1.0000
vn 0.3827 0.9239 -0.0000
vn -0.3827 -0.9239 -0.0000
vn -0.9239 0.3827 -0.0000
vn 0.9239 -0.3827 -0.0000
vt 0.000000 1.000000
vt 0.000000 0.968750
vt 0.031250 1.000000
vt 0.625000 0.687500
vt 0.625000 0.656250
vt 0.656250 0.687500
vt 0.656250 0.656250
vt 0.312500 0.375000
vt 0.312500 0.343750
vt 0.343750 0.375000
vt 0.343750 0.343750
s 0
usemtl Material_0.003
f 241/111/61 243/112/61 242/111/61
f 243/112/61 244/112/61 242/111/61
f 245/111/62 247/112/62 246/111/62
f 247/112/62 248/112/62 246/111/62
f 249/113/63 251/113/63 250/111/63
f 251/113/63 252/111/63 250/111/63
f 253/113/64 255/113/64 254/111/64
f 255/113/64 256/111/64 254/111/64
f 257/114/65 259/115/65 258/116/65
f 259/115/65 260/117/65 258/116/65
f 261/118/66 263/119/66 262/120/66
f 263/119/66 264/121/66 262/120/66
o bulletModel_23
v -1.698629 -4.083909 -0.000769
v -1.697919 -4.084203 -0.000769
v -1.845816 -4.439247 -0.000769
v -1.845105 -4.439541 -0.000769
v -1.697919 -4.084203 -0.385384
v -1.698629 -4.083909 -0.385384
v -1.845105 -4.439541 -0.385384
v -1.845816 -4.439247 -0.385384
v -1.697919 -4.084203 -0.385384
v -1.697919 -4.084203 -0.000769
v -1.698629 -4.083909 -0.385384
v -1.698629 -4.083909 -0.000769
v -1.845816 -4.439247 -0.385384
v -1.845816 -4.439247 -0.000769
v -1.845105 -4.439541 -0.385384
v -1.845105 -4.439541 -0.000769
v -1.698629 -4.083909 -0.385384
v -1.698629 -4.083909 -0.000769
v -1.845816 -4.439247 -0.385384
v -1.845816 -4.439247 -0.000769
v -1.697919 -4.084203 -0.000769
v -1.697919 -4.084203 -0.385384
v -1.845105 -4.439541 -0.000769
v -1.845105 -4.439541 -0.385384
vn -0.0000 -0.0000 1.0000
vn -0.0000 -0.0000 -1.0000
vn 0.3827 0.9239 -0.0000
vn -0.3827 -0.9239 -0.0000
vn -0.9239 0.3827 -0.0000
vn 0.9239 -0.3827 -0.0000
vt 0.000000 1.000000
vt 0.000000 0.968750
vt 0.031250 1.000000
vt 0.625000 0.625000
vt 0.625000 0.593750
vt 0.656250 0.625000
vt 0.656250 0.593750
vt 0.375000 0.375000
vt 0.375000 0.343750
vt 0.406250 0.375000
vt 0.406250 0.343750
s 0
usemtl Material_0.003
f 265/122/67 267/123/67 266/122/67
f 267/123/67 268/123/67 266/122/67
f 269/122/68 271/123/68 270/122/68
f 271/123/68 272/123/68 270/122/68
f 273/124/69 275/124/69 274/122/69
f 275/124/69 276/122/69 274/122/69
f 277/124/70 279/124/70 278/122/70
f 279/124/70 280/122/70 278/122/70
f 281/125/71 283/126/71 282/127/71
f 283/126/71 284/128/71 282/127/71
f 285/129/72 287/130/72 286/131/72
f 287/130/72 288/132/72 286/131/72
o bulletModel_27
v -1.993001 -4.794585 -0.000769
v -1.992291 -4.794879 -0.000769
v -2.140187 -5.149923 -0.000769
v -2.139477 -5.150218 -0.000769
v -1.992291 -4.794879 -0.385384
v -1.993001 -4.794585 -0.385384
v -2.139477 -5.150218 -0.385384
v -2.140187 -5.149923 -0.385384
v -1.992291 -4.794879 -0.385384
v -1.992291 -4.794879 -0.000769
v -1.993001 -4.794585 -0.385384
v -1.993001 -4.794585 -0.000769
v -2.140187 -5.149923 -0.385384
v -2.140187 -5.149923 -0.000769
v -2.139477 -5.150218 -0.385384
v -2.139477 -5.150218 -0.000769
v -1.993001 -4.794585 -0.385384
v -1.993001 -4.794585 -0.000769
v -2.140187 -5.149923 -0.385384
v -2.140187 -5.149923 -0.000769
v -1.992291 -4.794879 -0.000769
v -1.992291 -4.794879 -0.385384
v -2.139477 -5.150218 -0.000769
v -2.139477 -5.150218 -0.385384
vn -0.0000 -0.0000 1.0000
vn -0.0000 -0.0000 -1.0000
vn 0.3827 0.9239 -0.0000
vn -0.3827 -0.9239 -0.0000
vn -0.9239 0.3827 -0.0000
vn 0.9239 -0.3827 -0.0000
vt 0.000000 1.000000
vt 0.000000 0.968750
vt 0.031250 1.000000
vt 0.625000 0.562500
vt 0.625000 0.531250
vt 0.656250 0.562500
vt 0.656250 0.531250
vt 0.437500 0.375000
vt 0.437500 0.343750
vt 0.468750 0.375000
vt 0.468750 0.343750
s 0
usemtl Material_0.003
f 289/133/73 291/134/73 290/133/73
f 291/134/73 292/134/73 290/133/73
f 293/133/74 295/134/74 294/133/74
f 295/134/74 296/134/74 294/133/74
f 297/135/75 299/135/75 298/133/75
f 299/135/75 300/133/75 298/133/75
f 301/135/76 303/135/76 302/133/76
f 303/135/76 304/133/76 302/133/76
f 305/136/77 307/137/77 306/138/77
f 307/137/77 308/139/77 306/138/77
f 309/140/78 311/141/78 310/142/78
f 311/141/78 312/143/78 310/142/78
o bulletModel_15
v -1.109886 -2.662556 -0.000769
v -1.109175 -2.662850 -0.000769
v -1.257072 -3.017894 -0.000769
v -1.256361 -3.018188 -0.000769
v -1.109175 -2.662850 -0.385384
v -1.109886 -2.662556 -0.385384
v -1.256361 -3.018188 -0.385384
v -1.257072 -3.017894 -0.385384
v -1.109175 -2.662850 -0.385384
v -1.109175 -2.662850 -0.000769
v -1.109886 -2.662556 -0.385384
v -1.109886 -2.662556 -0.000769
v -1.257072 -3.017894 -0.385384
v -1.257072 -3.017894 -0.000769
v -1.256361 -3.018188 -0.385384
v -1.256361 -3.018188 -0.000769
v -1.109886 -2.662556 -0.385384
v -1.109886 -2.662556 -0.000769
v -1.257072 -3.017894 -0.385384
v -1.257072 -3.017894 -0.000769
v -1.109175 -2.662850 -0.000769
v -1.109175 -2.662850 -0.385384
v -1.256361 -3.018188 -0.000769
v -1.256361 -3.018188 -0.385384
vn -0.0000 -0.0000 1.0000
vn -0.0000 -0.0000 -1.0000
vn 0.3827 0.9239 -0.0000
vn -0.3827 -0.9239 -0.0000
vn -0.9239 0.3827 -0.0000
vn 0.9239 -0.3827 -0.0000
vt 0.000000 1.000000
vt 0.000000 0.968750
vt 0.031250 1.000000
vt 0.625000 0.500000
vt 0.625000 0.468750
vt 0.656250 0.500000
vt 0.656250 0.468750
vt 0.500000 0.375000
vt 0.500000 0.343750
vt 0.531250 0.375000
vt 0.531250 0.343750
s 0
usemtl Material_0.003
f 313/144/79 315/145/79 314/144/79
f 315/145/79 316/145/79 314/144/79
f 317/144/80 319/145/80 318/144/80
f 319/145/80 320/145/80 318/144/80
f 321/146/81 323/146/81 322/144/81
f 323/146/81 324/144/81 322/144/81
f 325/146/82 327/146/82 326/144/82
f 327/146/82 328/144/82 326/144/82
f 329/147/83 331/148/83 330/149/83
f 331/148/83 332/150/83 330/149/83
f 333/151/84 335/152/84 334/153/84
f 335/152/84 336/154/84 334/153/84
o ammoModel
v -2.427853 -5.863377 0.606923
v -1.062469 -5.863377 0.606923
v -2.427853 -6.255685 0.606923
v -1.062469 -6.255685 0.606923
v -1.062469 -5.863377 -0.577692
v -2.427854 -5.863377 -0.577692
v -1.062469 -6.255685 -0.577692
v -2.427854 -6.255685 -0.577692
v -1.062469 -5.863377 -0.577692
v -1.062469 -5.863377 0.606923
v -2.427854 -5.863377 -0.577692
v -2.427853 -5.863377 0.606923
v -2.427854 -6.255685 -0.577692
v -2.427853 -6.255685 0.606923
v -1.062469 -6.255685 -0.577692
v -1.062469 -6.255685 0.606923
v -2.427854 -5.863377 -0.577692
v -2.427853 -5.863377 0.606923
v -2.427854 -6.255685 -0.577692
v -2.427853 -6.255685 0.606923
v -1.062469 -5.863377 0.606923
v -1.062469 -5.863377 -0.577692
v -1.062469 -6.255685 0.606923
v -1.062469 -6.255685 -0.577692
v 1.139608 -0.263889 0.307692
v 1.140319 -0.264183 0.307692
v 0.992422 -0.619227 0.307692
v 0.993133 -0.619521 0.307692
v 1.140318 -0.264183 -0.307693
v 1.139608 -0.263889 -0.307693
v 0.993132 -0.619521 -0.307692
v 0.992422 -0.619227 -0.307692
v 1.140318 -0.264183 -0.307693
v 1.140319 -0.264183 0.307692
v 1.139608 -0.263889 -0.307693
v 1.139608 -0.263889 0.307692
v 0.992422 -0.619227 -0.307692
v 0.992422 -0.619227 0.307692
v 0.993132 -0.619521 -0.307692
v 0.993133 -0.619521 0.307692
v 1.139608 -0.263889 -0.307693
v 1.139608 -0.263889 0.307692
v 0.992422 -0.619227 -0.307692
v 0.992422 -0.619227 0.307692
v 1.140319 -0.264183 0.307692
v 1.140318 -0.264183 -0.307693
v 0.993133 -0.619521 0.307692
v 0.993132 -0.619521 -0.307692
v 0.147897 0.355044 -0.306923
v 1.213911 -0.086514 -0.306923
v -0.072882 -0.177964 -0.306923
v 0.993132 -0.619521 -0.306923
v 1.213911 -0.086514 -0.307693
v 0.147897 0.355044 -0.307692
v 0.993132 -0.619521 -0.307692
v -0.072882 -0.177964 -0.307692
v 1.213911 -0.086514 -0.307693
v 1.213911 -0.086514 -0.306923
v 0.147897 0.355044 -0.307692
v 0.147897 0.355044 -0.306923
v -0.072882 -0.177964 -0.307692
v -0.072882 -0.177964 -0.306923
v 0.993132 -0.619521 -0.307692
v 0.993132 -0.619521 -0.306923
v 0.147897 0.355044 -0.307692
v 0.147897 0.355044 -0.306923
v -0.072882 -0.177964 -0.307692
v -0.072882 -0.177964 -0.306923
v 1.213911 -0.086514 -0.306923
v 1.213911 -0.086514 -0.307693
v 0.993132 -0.619521 -0.306923
v 0.993132 -0.619521 -0.307692
v 0.147897 0.355044 0.308461
v 1.213911 -0.086514 0.308461
v -0.072882 -0.177964 0.308462
v 0.993133 -0.619521 0.308461
v 1.213911 -0.086514 0.307692
v 0.147897 0.355044 0.307692
v 0.993133 -0.619521 0.307692
v -0.072882 -0.177964 0.307692
v 1.213911 -0.086514 0.307692
v 1.213911 -0.086514 0.308461
v 0.147897 0.355044 0.307692
v 0.147897 0.355044 0.308461
v -0.072882 -0.177964 0.307692
v -0.072882 -0.177964 0.308462
v 0.993133 -0.619521 0.307692
v 0.993133 -0.619521 0.308461
v 0.147897 0.355044 0.307692
v 0.147897 0.355044 0.308461
v -0.072882 -0.177964 0.307692
v -0.072882 -0.177964 0.308462
v 1.213911 -0.086514 0.308461
v 1.213911 -0.086514 0.307692
v 0.993133 -0.619521 0.308461
v 0.993133 -0.619521 0.307692
v -0.072882 -0.177964 0.383846
v 0.993133 -0.619521 0.383846
v -2.427857 -5.863376 0.383847
v -1.361843 -6.304934 0.383846
v 0.993132 -0.619521 -0.385385
v -0.072882 -0.177964 -0.385385
v -1.361843 -6.304934 -0.385384
v -2.427857 -5.863376 -0.385384
v 0.993132 -0.619521 -0.385385
v 0.993133 -0.619521 0.383846
v -0.072882 -0.177964 -0.385385
v -0.072882 -0.177964 0.383846
v -2.427857 -5.863376 -0.385384
v -2.427857 -5.863376 0.383847
v -1.361843 -6.304934 -0.385384
v -1.361843 -6.304934 0.383846
v -0.072882 -0.177964 -0.385385
v -0.072882 -0.177964 0.383846
v -2.427857 -5.863376 -0.385384
v -2.427857 -5.863376 0.383847
v 0.993133 -0.619521 0.383846
v 0.993132 -0.619521 -0.385385
v -1.361843 -6.304934 0.383846
v -1.361843 -6.304934 -0.385384
v -1.569995 -5.802409 0.383846
v -1.214657 -5.949595 0.383846
v -1.643588 -5.980079 0.383846
v -1.288250 -6.127264 0.383846
v -1.214657 -5.949595 -0.385384
v -1.569995 -5.802409 -0.385384
v -1.288250 -6.127264 -0.385384
v -1.643588 -5.980079 -0.385384
v -1.214657 -5.949595 -0.385384
v -1.214657 -5.949595 0.383846
v -1.569995 -5.802409 -0.385384
v -1.569995 -5.802409 0.383846
v -1.643588 -5.980079 -0.385384
v -1.643588 -5.980079 0.383846
v -1.288250 -6.127264 -0.385384
v -1.288250 -6.127264 0.383846
v -1.569995 -5.802409 -0.385384
v -1.569995 -5.802409 0.383846
v -1.643588 -5.980079 -0.385384
v -1.643588 -5.980079 0.383846
v -1.214657 -5.949595 0.383846
v -1.214657 -5.949595 -0.385384
v -1.288250 -6.127264 0.383846
v -1.288250 -6.127264 -0.385384
vn -0.0000 -0.0000 1.0000
vn -0.0000 -0.0000 -1.0000
vn -0.0000 1.0000 -0.0000
vn -0.0000 -1.0000 -0.0000
vn -1.0000 -0.0000 -0.0000
vn 1.0000 -0.0000 -0.0000
vn -0.0001 -0.0000 1.0000
vn -0.0001 -0.0000 -1.0000
vn 0.3827 0.9239 -0.0000
vn -0.3826 -0.9239 -0.0000
vn -0.9239 0.3827 -0.0000
vn 0.9239 -0.3827 -0.0000
vn -0.3827 -0.9239 -0.0000
vt 0.062500 0.500000
vt 0.062500 0.468750
vt 0.187500 0.500000
vt 0.187500 0.468750
vt 0.500000 0.875000
vt 0.500000 0.843750
vt 0.625000 0.875000
vt 0.625000 0.843750
vt 0.468750 0.875000
vt 0.468750 1.000000
vt 0.375000 0.875000
vt 0.375000 1.000000
vt 0.468750 0.750000
vt 0.375000 0.750000
vt 0.500000 0.812500
vt 0.500000 0.781250
vt 0.593750 0.812500
vt 0.593750 0.781250
vt 0.281250 0.500000
vt 0.281250 0.468750
vt 0.000000 1.000000
vt 0.000000 0.968750
vt 0.062500 1.000000
vt 0.312500 0.500000
vt 0.312500 0.468750
vt 0.375000 0.500000
vt 0.375000 0.468750
vt 0.500000 0.750000
vt 0.500000 0.718750
vt 0.562500 0.750000
vt 0.562500 0.718750
vt 0.375000 0.687500
vt 0.468750 0.687500
vt 0.375000 0.671875
vt 0.375000 0.625000
vt 0.468750 0.671875
vt 0.468750 0.625000
vt 0.000000 0.906250
vt 0.000000 0.937500
vt 0.375000 0.609375
vt 0.375000 0.562500
vt 0.468750 0.609375
vt 0.468750 0.562500
vt 0.468750 0.500000
vt 0.000000 0.500000
vt 0.093750 1.000000
vt 0.093750 0.500000
vt 0.125000 1.000000
vt 0.125000 0.500000
vt 0.218750 1.000000
vt 0.218750 0.500000
vt 0.062500 0.406250
vt 0.000000 0.406250
vt 0.562500 1.000000
vt 0.562500 0.906250
vt 0.500000 1.000000
vt 0.500000 0.906250
vt 0.312500 1.000000
vt 0.250000 1.000000
vt 0.250000 0.500000
vt 0.562500 0.375000
vt 0.562500 0.343750
vt 0.593750 0.375000
vt 0.593750 0.343750
vt 0.625000 0.437500
vt 0.625000 0.406250
vt 0.656250 0.437500
vt 0.656250 0.406250
vt 0.562500 0.593750
vt 0.562500 0.625000
vt 0.500000 0.593750
vt 0.500000 0.625000
vt 0.500000 0.500000
vt 0.500000 0.468750
vt 0.437500 0.500000
vt 0.437500 0.468750
vt 0.500000 0.687500
vt 0.500000 0.656250
vt 0.562500 0.687500
vt 0.562500 0.656250
s 0
usemtl Material_0.003
f 337/155/85 339/156/85 338/157/85
f 339/156/85 340/158/85 338/157/85
f 341/159/86 343/160/86 342/161/86
f 343/160/86 344/162/86 342/161/86
f 345/163/87 347/164/87 346/165/87
f 347/164/87 348/166/87 346/165/87
f 349/163/88 351/167/88 350/165/88
f 351/167/88 352/168/88 350/165/88
f 353/169/89 355/170/89 354/171/89
f 355/170/89 356/172/89 354/171/89
f 357/157/90 359/158/90 358/173/90
f 359/158/90 360/174/90 358/173/90
f 361/175/91 363/176/91 362/175/91
f 363/176/85 364/176/85 362/175/85
f 365/175/86 367/176/86 366/175/86
f 367/176/92 368/176/92 366/175/92
f 369/177/93 371/177/93 370/175/93
f 371/177/93 372/175/93 370/175/93
f 373/177/94 375/177/94 374/175/94
f 375/177/94 376/175/94 374/175/94
f 377/178/95 379/179/95 378/180/95
f 379/179/95 380/181/95 378/180/95
f 381/182/96 383/183/96 382/184/96
f 383/183/96 384/185/96 382/184/96
f 385/168/85 387/186/85 386/167/85
f 387/186/85 388/187/85 386/167/85
f 389/188/86 391/189/86 390/190/86
f 391/189/86 392/191/86 390/190/86
f 393/192/93 395/175/93 394/192/93
f 395/175/93 396/175/93 394/192/93
f 397/175/97 399/192/97 398/175/97
f 399/192/97 400/192/97 398/175/97
f 401/175/95 403/193/95 402/175/95
f 403/193/95 404/193/95 402/175/95
f 405/175/96 407/193/96 406/175/96
f 407/193/96 408/193/96 406/175/96
f 409/194/85 411/195/85 410/196/85
f 411/195/85 412/197/85 410/196/85
f 413/195/86 415/180/86 414/197/86
f 415/180/86 416/198/86 414/197/86
f 417/192/93 419/175/93 418/192/93
f 419/175/93 420/175/93 418/192/93
f 421/175/97 423/192/97 422/175/97
f 423/192/97 424/192/97 422/175/97
f 425/175/95 427/193/95 426/175/95
f 427/193/95 428/193/95 426/175/95
f 429/175/96 431/193/96 430/175/96
f 431/193/96 432/193/96 430/175/96
f 433/175/85 435/199/85 434/200/85
f 435/199/85 436/201/85 434/200/85
f 437/202/86 439/203/86 438/204/86
f 439/203/86 440/205/86 438/204/86
f 441/206/93 443/155/93 442/207/93
f 443/155/93 444/199/93 442/207/93
f 445/208/97 447/209/97 446/210/97
f 447/209/97 448/211/97 446/210/97
f 449/212/95 451/178/95 450/166/95
f 451/178/95 452/180/95 450/166/95
f 453/213/96 455/214/96 454/212/96
f 455/214/96 456/178/96 454/212/96
f 457/215/85 459/216/85 458/217/85
f 459/216/85 460/218/85 458/217/85
f 461/219/86 463/220/86 462/221/86
f 463/220/86 464/222/86 462/221/86
f 465/223/93 467/224/93 466/225/93
f 467/224/93 468/226/93 466/225/93
f 469/227/97 471/228/97 470/229/97
f 471/228/97 472/230/97 470/229/97
f 473/180/95 475/181/95 474/229/95
f 475/181/95 476/230/95 474/229/95
f 477/231/96 479/232/96 478/233/96
f 479/232/96 480/234/96 478/233/96
o bulletModel_1
v 0.074654 0.205169 0.250000
v 0.805423 0.205169 0.250000
v 0.074654 -0.294831 0.250000
v 0.805423 -0.294831 0.250000
v 0.805423 0.205169 -0.250000
v 0.074654 0.205169 -0.250000
v 0.805423 -0.294831 -0.250000
v 0.074654 -0.294831 -0.250000
v 0.805423 0.205169 -0.250000
v 0.805423 0.205169 0.250000
v 0.074654 0.205169 -0.250000
v 0.074654 0.205169 0.250000
v 0.074654 -0.294831 -0.250000
v 0.074654 -0.294831 0.250000
v 0.805423 -0.294831 -0.250000
v 0.805423 -0.294831 0.250000
v 0.074654 0.205169 -0.250000
v 0.074654 0.205169 0.250000
v 0.074654 -0.294831 -0.250000
v 0.074654 -0.294831 0.250000
v 0.805423 0.205169 0.250000
v 0.805423 0.205169 -0.250000
v 0.805423 -0.294831 0.250000
v 0.805423 -0.294831 -0.250000
v 0.728500 0.166708 0.211538
v 1.113115 0.166708 0.211538
v 0.728500 -0.256369 0.211538
v 1.113115 -0.256369 0.211538
v 1.113115 0.166708 -0.211539
v 0.728500 0.166708 -0.211539
v 1.113115 -0.256369 -0.211539
v 0.728500 -0.256369 -0.211539
v 1.113115 0.166708 -0.211539
v 1.113115 0.166708 0.211538
v 0.728500 0.166708 -0.211539
v 0.728500 0.166708 0.211538
v 0.728500 -0.256369 -0.211539
v 0.728500 -0.256369 0.211538
v 1.113115 -0.256369 -0.211539
v 1.113115 -0.256369 0.211538
v 0.728500 0.166708 -0.211539
v 0.728500 0.166708 0.211538
v 0.728500 -0.256369 -0.211539
v 0.728500 -0.256369 0.211538
v 1.113115 0.166708 0.211538
v 1.113115 0.166708 -0.211539
v 1.113115 -0.256369 0.211538
v 1.113115 -0.256369 -0.211539
vn -0.0000 -0.0000 1.0000
vn -0.0000 -0.0000 -1.0000
vn -0.0000 1.0000 -0.0000
vn -0.0000 -1.0000 -0.0000
vn -1.0000 -0.0000 -0.0000
vn 1.0000 -0.0000 -0.0000
vt 0.500000 0.562500
vt 0.500000 0.531250
vt 0.562500 0.562500
vt 0.562500 0.531250
vt 0.500000 0.500000
vt 0.500000 0.468750
vt 0.562500 0.500000
vt 0.562500 0.468750
vt 0.593750 0.937500
vt 0.593750 1.000000
vt 0.562500 0.937500
vt 0.562500 1.000000
vt 0.093750 0.437500
vt 0.093750 0.375000
vt 0.062500 0.437500
vt 0.062500 0.375000
vt 0.000000 0.312500
vt 0.000000 0.281250
vt 0.031250 0.312500
vt 0.031250 0.281250
vt 0.625000 0.375000
vt 0.625000 0.343750
vt 0.656250 0.375000
vt 0.656250 0.343750
vt 0.062500 0.312500
vt 0.062500 0.281250
vt 0.093750 0.312500
vt 0.093750 0.281250
vt 0.125000 0.312500
vt 0.125000 0.281250
vt 0.156250 0.312500
vt 0.156250 0.281250
vt 0.718750 0.843750
vt 0.718750 0.875000
vt 0.687500 0.843750
vt 0.687500 0.875000
vt 0.218750 0.312500
vt 0.218750 0.281250
vt 0.187500 0.312500
vt 0.187500 0.281250
vt 0.687500 0.937500
vt 0.687500 0.906250
vt 0.718750 0.937500
vt 0.718750 0.906250
vt 0.687500 1.000000
vt 0.687500 0.968750
vt 0.718750 1.000000
vt 0.718750 0.968750
s 0
usemtl Material_0.003
f 481/235/98 483/236/98 482/237/98
f 483/236/98 484/238/98 482/237/98
f 485/239/99 487/240/99 486/241/99
f 487/240/99 488/242/99 486/241/99
f 489/243/100 491/244/100 490/245/100
f 491/244/100 492/246/100 490/245/100
f 493/247/101 495/248/101 494/249/101
f 495/248/101 496/250/101 494/249/101
f 497/251/102 499/252/102 498/253/102
f 499/252/102 500/254/102 498/253/102
f 501/255/103 503/256/103 502/257/103
f 503/256/103 504/258/103 502/257/103
f 505/259/98 507/260/98 506/261/98
f 507/260/98 508/262/98 506/261/98
f 509/263/99 511/264/99 510/265/99
f 511/264/99 512/266/99 510/265/99
f 513/267/100 515/268/100 514/269/100
f 515/268/100 516/270/100 514/269/100
f 517/271/101 519/272/101 518/273/101
f 519/272/101 520/274/101 518/273/101
f 521/275/102 523/276/102 522/277/102
f 523/276/102 524/278/102 522/277/102
f 525/279/103 527/280/103 526/281/103
f 527/280/103 528/282/103 526/281/103
o bulletModel_2
v 0.593885 -0.217908 0.211538
v 0.978500 -0.217908 0.211538
v 0.593885 -0.640985 0.211538
v 0.978500 -0.640985 0.211538
v 0.978500 -0.217908 -0.211539
v 0.593885 -0.217908 -0.211539
v 0.978500 -0.640985 -0.211539
v 0.593885 -0.640985 -0.211539
v 0.978500 -0.217908 -0.211539
v 0.978500 -0.217908 0.211538
v 0.593885 -0.217908 -0.211539
v 0.593885 -0.217908 0.211538
v 0.593885 -0.640985 -0.211539
v 0.593885 -0.640985 0.211538
v 0.978500 -0.640985 -0.211539
v 0.978500 -0.640985 0.211538
v 0.593885 -0.217908 -0.211539
v 0.593885 -0.217908 0.211538
v 0.593885 -0.640985 -0.211539
v 0.593885 -0.640985 0.211538
v 0.978500 -0.217908 0.211538
v 0.978500 -0.217908 -0.211539
v 0.978500 -0.640985 0.211538
v 0.978500 -0.640985 -0.211539
v -0.059961 -0.179446 0.250000
v 0.670808 -0.179446 0.250000
v -0.059961 -0.679446 0.250000
v 0.670808 -0.679446 0.250000
v 0.670808 -0.179446 -0.250000
v -0.059962 -0.179446 -0.250000
v 0.670808 -0.679446 -0.250000
v -0.059962 -0.679446 -0.250000
v 0.670808 -0.179446 -0.250000
v 0.670808 -0.179446 0.250000
v -0.059962 -0.179446 -0.250000
v -0.059961 -0.179446 0.250000
v -0.059962 -0.679446 -0.250000
v -0.059961 -0.679446 0.250000
v 0.670808 -0.679446 -0.250000
v 0.670808 -0.679446 0.250000
v -0.059962 -0.179446 -0.250000
v -0.059961 -0.179446 0.250000
v -0.059962 -0.679446 -0.250000
v -0.059961 -0.679446 0.250000
v 0.670808 -0.179446 0.250000
v 0.670808 -0.179446 -0.250000
v 0.670808 -0.679446 0.250000
v 0.670808 -0.679446 -0.250000
vn -0.0000 -0.0000 1.0000
vn -0.0000 -0.0000 -1.0000
vn -0.0000 1.0000 -0.0000
vn -0.0000 -1.0000 -0.0000
vn -1.0000 -0.0000 -0.0000
vn 1.0000 -0.0000 -0.0000
vt 0.312500 0.312500
vt 0.312500 0.281250
vt 0.343750 0.312500
vt 0.343750 0.281250
vt 0.375000 0.312500
vt 0.375000 0.281250
vt 0.406250 0.312500
vt 0.406250 0.281250
vt 0.718750 0.593750
vt 0.718750 0.625000
vt 0.687500 0.593750
vt 0.687500 0.625000
vt 0.468750 0.312500
vt 0.468750 0.281250
vt 0.437500 0.312500
vt 0.437500 0.281250
vt 0.687500 0.687500
vt 0.687500 0.656250
vt 0.718750 0.687500
vt 0.718750 0.656250
vt 0.687500 0.750000
vt 0.687500 0.718750
vt 0.718750 0.750000
vt 0.718750 0.718750
vt 0.562500 0.937500
vt 0.562500 0.906250
vt 0.625000 0.937500
vt 0.625000 0.906250
vt 0.125000 0.437500
vt 0.125000 0.406250
vt 0.187500 0.437500
vt 0.187500 0.406250
vt 0.218750 0.375000
vt 0.218750 0.437500
vt 0.187500 0.375000
vt 0.281250 0.437500
vt 0.281250 0.375000
vt 0.250000 0.437500
vt 0.250000 0.375000
vt 0.250000 0.312500
vt 0.250000 0.281250
vt 0.281250 0.312500
vt 0.281250 0.281250
vt 0.687500 0.812500
vt 0.687500 0.781250
vt 0.718750 0.812500
vt 0.718750 0.781250
s 0
usemtl Material_0.003
f 529/283/104 531/284/104 530/285/104
f 531/284/104 532/286/104 530/285/104
f 533/287/105 535/288/105 534/289/105
f 535/288/105 536/290/105 534/289/105
f 537/291/106 539/292/106 538/293/106
f 539/292/106 540/294/106 538/293/106
f 541/295/107 543/296/107 542/297/107
f 543/296/107 544/298/107 542/297/107
f 545/299/108 547/300/108 546/301/108
f 547/300/108 548/302/108 546/301/108
f 549/303/109 551/304/109 550/305/109
f 551/304/109 552/306/109 550/305/109
f 553/307/104 555/308/104 554/309/104
f 555/308/104 556/310/104 554/309/104
f 557/311/105 559/312/105 558/313/105
f 559/312/105 560/314/105 558/313/105
f 561/315/106 563/316/106 562/317/106
f 563/316/106 564/313/106 562/317/106
f 565/318/107 567/319/107 566/320/107
f 567/319/107 568/321/107 566/320/107
f 569/322/108 571/323/108 570/324/108
f 571/323/108 572/325/108 570/324/108
f 573/326/109 575/327/109 574/328/109
f 575/327/109 576/329/109 574/328/109
