# Blender 4.3.2
# www.blender.org
mtllib lev.apsmag20.mtl
o ammoModel
v 0.000000 -3.845385 0.381154
v 1.538462 -3.845385 0.381154
v 0.000000 -3.846154 0.381154
v 1.538462 -3.846154 0.381154
v 1.538461 -3.845385 -0.384231
v -0.000000 -3.845385 -0.384231
v 1.538461 -3.846154 -0.384231
v -0.000000 -3.846154 -0.384231
v 1.538461 -3.845385 -0.384231
v 1.538462 -3.845385 0.381154
v -0.000000 -3.845385 -0.384231
v 0.000000 -3.845385 0.381154
v -0.000000 -3.846154 -0.384231
v 0.000000 -3.846154 0.381154
v 1.538461 -3.846154 -0.384231
v 1.538462 -3.846154 0.381154
v -0.000000 -3.845385 -0.384231
v 0.000000 -3.845385 0.381154
v -0.000000 -3.846154 -0.384231
v 0.000000 -3.846154 0.381154
v 1.538462 -3.845385 0.381154
v 1.538461 -3.845385 -0.384231
v 1.538462 -3.846154 0.381154
v 1.538461 -3.846154 -0.384231
v -0.000769 0.000000 0.384615
v 0.000000 0.000000 0.384615
v -0.000769 -3.846154 0.384615
v 0.000000 -3.846154 0.384615
v -0.000000 0.000000 -0.384615
v -0.000769 0.000000 -0.384615
v -0.000000 -3.846154 -0.384615
v -0.000769 -3.846154 -0.384615
v -0.000000 0.000000 -0.384615
v 0.000000 0.000000 0.384615
v -0.000769 0.000000 -0.384615
v -0.000769 0.000000 0.384615
v -0.000769 -3.846154 -0.384615
v -0.000769 -3.846154 0.384615
v -0.000000 -3.846154 -0.384615
v 0.000000 -3.846154 0.384615
v -0.000769 0.000000 -0.384615
v -0.000769 0.000000 0.384615
v -0.000769 -3.846154 -0.384615
v -0.000769 -3.846154 0.384615
v 0.000000 0.000000 0.384615
v -0.000000 0.000000 -0.384615
v 0.000000 -3.846154 0.384615
v -0.000000 -3.846154 -0.384615
v -0.000000 0.000000 -0.380000
v 1.153846 0.000000 -0.380000
v -0.000000 -3.846154 -0.380000
v 1.153846 -3.846154 -0.380000
v 1.153846 0.000000 -0.380769
v -0.000000 0.000000 -0.380769
v 1.153846 -3.846154 -0.380769
v -0.000000 -3.846154 -0.380769
v 1.153846 0.000000 -0.380769
v 1.153846 0.000000 -0.380000
v -0.000000 0.000000 -0.380769
v -0.000000 0.000000 -0.380000
v -0.000000 -3.846154 -0.380769
v -0.000000 -3.846154 -0.380000
v 1.153846 -3.846154 -0.380769
v 1.153846 -3.846154 -0.380000
v -0.000000 0.000000 -0.380769
v -0.000000 0.000000 -0.380000
v -0.000000 -3.846154 -0.380769
v -0.000000 -3.846154 -0.380000
v 1.153846 0.000000 -0.380000
v 1.153846 0.000000 -0.380769
v 1.153846 -3.846154 -0.380000
v 1.153846 -3.846154 -0.380769
v 0.000000 0.000000 0.381538
v 1.153846 0.000000 0.381538
v 0.000000 -3.846154 0.381538
v 1.153846 -3.846154 0.381538
v 1.153846 0.000000 0.380769
v 0.000000 0.000000 0.380769
v 1.153846 -3.846154 0.380769
v 0.000000 -3.846154 0.380769
v 1.153846 0.000000 0.380769
v 1.153846 0.000000 0.381538
v 0.000000 0.000000 0.380769
v 0.000000 0.000000 0.381538
v 0.000000 -3.846154 0.380769
v 0.000000 -3.846154 0.381538
v 1.153846 -3.846154 0.380769
v 1.153846 -3.846154 0.381538
v 0.000000 0.000000 0.380769
v 0.000000 0.000000 0.381538
v 0.000000 -3.846154 0.380769
v 0.000000 -3.846154 0.381538
v 1.153846 0.000000 0.381538
v 1.153846 0.000000 0.380769
v 1.153846 -3.846154 0.381538
v 1.153846 -3.846154 0.380769
v 1.153077 0.000000 0.384615
v 1.153846 0.000000 0.384615
v 1.153077 -3.846154 0.384615
v 1.153846 -3.846154 0.384615
v 1.153846 0.000000 -0.384616
v 1.153077 0.000000 -0.384616
v 1.153846 -3.846154 -0.384616
v 1.153077 -3.846154 -0.384616
v 1.153846 0.000000 -0.384616
v 1.153846 0.000000 0.384615
v 1.153077 0.000000 -0.384616
v 1.153077 0.000000 0.384615
v 1.153077 -3.846154 -0.384616
v 1.153077 -3.846154 0.384615
v 1.153846 -3.846154 -0.384616
v 1.153846 -3.846154 0.384615
v 1.153077 0.000000 -0.384616
v 1.153077 0.000000 0.384615
v 1.153077 -3.846154 -0.384616
v 1.153077 -3.846154 0.384615
v 1.153846 0.000000 0.384615
v 1.153846 0.000000 -0.384616
v 1.153846 -3.846154 0.384615
v 1.153846 -3.846154 -0.384616
vn -0.0000 -0.0000 1.0000
vn -0.0000 -0.0000 -1.0000
vn -0.0000 1.0000 -0.0000
vn -0.0000 -1.0000 -0.0000
vn -1.0000 -0.0000 -0.0000
vn 1.0000 -0.0000 -0.0000
vt 0.000000 1.000000
vt 0.125000 1.000000
vt 0.437500 0.875000
vt 0.437500 1.000000
vt 0.375000 0.875000
vt 0.375000 1.000000
vt 0.437500 0.750000
vt 0.375000 0.750000
vt 0.062500 1.000000
vt 0.000000 0.687500
vt 0.187500 0.687500
vt 0.187500 0.375000
vt 0.250000 0.687500
vt 0.250000 0.375000
vt 0.125000 0.687500
vt 0.125000 0.375000
vt 0.093750 1.000000
vt 0.093750 0.687500
vt 0.218750 1.000000
vt 0.218750 0.687500
vt 0.000000 0.906250
vt 0.250000 1.000000
vt 0.343750 1.000000
vt 0.343750 0.687500
vt 0.000000 0.375000
vt 0.093750 0.375000
vt 0.312500 0.687500
vt 0.312500 0.375000
vt 0.375000 0.687500
vt 0.375000 0.375000
s 0
usemtl Material_0
f 1/1/1 3/1/1 2/2/1
f 3/1/1 4/2/1 2/2/1
f 5/1/2 7/1/2 6/2/2
f 7/1/2 8/2/2 6/2/2
f 9/3/3 11/4/3 10/5/3
f 11/4/3 12/6/3 10/5/3
f 13/3/4 15/7/4 14/5/4
f 15/7/4 16/8/4 14/5/4
f 17/1/5 19/1/5 18/9/5
f 19/1/5 20/9/5 18/9/5
f 21/1/6 23/1/6 22/9/6
f 23/1/6 24/9/6 22/9/6
f 25/1/1 27/10/1 26/1/1
f 27/10/1 28/10/1 26/1/1
f 29/1/2 31/10/2 30/1/2
f 31/10/2 32/10/2 30/1/2
f 33/9/3 35/9/3 34/1/3
f 35/9/3 36/1/3 34/1/3
f 37/9/4 39/9/4 38/1/4
f 39/9/4 40/1/4 38/1/4
f 41/11/5 43/12/5 42/13/5
f 43/12/5 44/14/5 42/13/5
f 45/15/6 47/16/6 46/11/6
f 47/16/6 48/12/6 46/11/6
f 49/1/1 51/10/1 50/17/1
f 51/10/1 52/18/1 50/17/1
f 53/2/2 55/15/2 54/19/2
f 55/15/2 56/20/2 54/19/2
f 57/21/3 59/1/3 58/21/3
f 59/1/3 60/1/3 58/21/3
f 61/1/4 63/21/4 62/1/4
f 63/21/4 64/21/4 62/1/4
f 65/1/5 67/10/5 66/1/5
f 67/10/5 68/10/5 66/1/5
f 69/1/6 71/10/6 70/1/6
f 71/10/6 72/10/6 70/1/6
f 73/22/1 75/13/1 74/23/1
f 75/13/1 76/24/1 74/23/1
f 77/10/2 79/25/2 78/18/2
f 79/25/2 80/26/2 78/18/2
f 81/21/3 83/1/3 82/21/3
f 83/1/3 84/1/3 82/21/3
f 85/1/4 87/21/4 86/1/4
f 87/21/4 88/21/4 86/1/4
f 89/1/5 91/10/5 90/1/5
f 91/10/5 92/10/5 90/1/5
f 93/1/6 95/10/6 94/1/6
f 95/10/6 96/10/6 94/1/6
f 97/1/1 99/10/1 98/1/1
f 99/10/1 100/10/1 98/1/1
f 101/1/2 103/10/2 102/1/2
f 103/10/2 104/10/2 102/1/2
f 105/9/3 107/9/3 106/1/3
f 107/9/3 108/1/3 106/1/3
f 109/9/4 111/9/4 110/1/4
f 111/9/4 112/1/4 110/1/4
f 113/27/5 115/28/5 114/29/5
f 115/28/5 116/30/5 114/29/5
f 117/13/6 119/14/6 118/27/6
f 119/14/6 120/28/6 118/27/6
o bulletModel_0
v 0.082085 -0.088692 0.346154
v 0.851315 -0.088692 0.346154
v 0.082085 -0.588692 0.346154
v 0.851315 -0.588692 0.346154
v 0.851315 -0.088692 -0.153846
v 0.082085 -0.088692 -0.153846
v 0.851315 -0.588692 -0.153846
v 0.082085 -0.588692 -0.153846
v 0.851315 -0.088692 -0.153846
v 0.851315 -0.088692 0.346154
v 0.082085 -0.088692 -0.153846
v 0.082085 -0.088692 0.346154
v 0.082085 -0.588692 -0.153846
v 0.082085 -0.588692 0.346154
v 0.851315 -0.588692 -0.153846
v 0.851315 -0.588692 0.346154
v 0.082085 -0.088692 -0.153846
v 0.082085 -0.088692 0.346154
v 0.082085 -0.588692 -0.153846
v 0.082085 -0.588692 0.346154
v 0.851315 -0.088692 0.346154
v 0.851315 -0.088692 -0.153846
v 0.851315 -0.588692 0.346154
v 0.851315 -0.588692 -0.153846
v 0.082085 0.199769 0.134615
v 0.851315 0.199769 0.134615
v 0.082085 -0.300231 0.134615
v 0.851315 -0.300231 0.134615
v 0.851315 0.199769 -0.365385
v 0.082085 0.199769 -0.365385
v 0.851315 -0.300231 -0.365385
v 0.082085 -0.300231 -0.365385
v 0.851315 0.199769 -0.365385
v 0.851315 0.199769 0.134615
v 0.082085 0.199769 -0.365385
v 0.082085 0.199769 0.134615
v 0.082085 -0.300231 -0.365385
v 0.082085 -0.300231 0.134615
v 0.851315 -0.300231 -0.365385
v 0.851315 -0.300231 0.134615
v 0.082085 0.199769 -0.365385
v 0.082085 0.199769 0.134615
v 0.082085 -0.300231 -0.365385
v 0.082085 -0.300231 0.134615
v 0.851315 0.199769 0.134615
v 0.851315 0.199769 -0.365385
v 0.851315 -0.300231 0.134615
v 0.851315 -0.300231 -0.365385
v 0.716700 0.161308 0.096154
v 1.101315 0.161308 0.096154
v 0.716700 -0.261769 0.096154
v 1.101315 -0.261769 0.096154
v 1.101315 0.161308 -0.326923
v 0.716700 0.161308 -0.326923
v 1.101315 -0.261769 -0.326923
v 0.716700 -0.261769 -0.326923
v 1.101315 0.161308 -0.326923
v 1.101315 0.161308 0.096154
v 0.716700 0.161308 -0.326923
v 0.716700 0.161308 0.096154
v 0.716700 -0.261769 -0.326923
v 0.716700 -0.261769 0.096154
v 1.101315 -0.261769 -0.326923
v 1.101315 -0.261769 0.096154
v 0.716700 0.161308 -0.326923
v 0.716700 0.161308 0.096154
v 0.716700 -0.261769 -0.326923
v 0.716700 -0.261769 0.096154
v 1.101315 0.161308 0.096154
v 1.101315 0.161308 -0.326923
v 1.101315 -0.261769 0.096154
v 1.101315 -0.261769 -0.326923
v 0.716700 -0.127154 0.307692
v 1.101315 -0.127154 0.307692
v 0.716700 -0.550231 0.307692
v 1.101315 -0.550231 0.307692
v 1.101315 -0.127154 -0.115385
v 0.716700 -0.127154 -0.115385
v 1.101315 -0.550231 -0.115385
v 0.716700 -0.550231 -0.115385
v 1.101315 -0.127154 -0.115385
v 1.101315 -0.127154 0.307692
v 0.716700 -0.127154 -0.115385
v 0.716700 -0.127154 0.307692
v 0.716700 -0.550231 -0.115385
v 0.716700 -0.550231 0.307692
v 1.101315 -0.550231 -0.115385
v 1.101315 -0.550231 0.307692
v 0.716700 -0.127154 -0.115385
v 0.716700 -0.127154 0.307692
v 0.716700 -0.550231 -0.115385
v 0.716700 -0.550231 0.307692
v 1.101315 -0.127154 0.307692
v 1.101315 -0.127154 -0.115385
v 1.101315 -0.550231 0.307692
v 1.101315 -0.550231 -0.115385
vn -0.0000 -0.0000 1.0000
vn -0.0000 -0.0000 -1.0000
vn -0.0000 1.0000 -0.0000
vn -0.0000 -1.0000 -0.0000
vn -1.0000 -0.0000 -0.0000
vn 1.0000 -0.0000 -0.0000
vt 0.437500 0.937500
vt 0.437500 0.906250
vt 0.500000 0.937500
vt 0.500000 0.906250
vt 0.437500 0.875000
vt 0.437500 0.843750
vt 0.500000 0.875000
vt 0.500000 0.843750
vt 0.468750 0.750000
vt 0.468750 0.812500
vt 0.437500 0.750000
vt 0.437500 0.812500
vt 0.468750 0.687500
vt 0.437500 0.687500
vt 0.500000 0.687500
vt 0.500000 0.656250
vt 0.531250 0.687500
vt 0.531250 0.656250
vt 0.500000 0.750000
vt 0.500000 0.718750
vt 0.531250 0.750000
vt 0.531250 0.718750
vt 0.375000 0.750000
vt 0.375000 0.718750
vt 0.437500 0.718750
vt 0.375000 0.687500
vt 0.375000 0.656250
vt 0.437500 0.656250
vt 0.406250 0.562500
vt 0.406250 0.625000
vt 0.375000 0.562500
vt 0.375000 0.625000
vt 0.468750 1.000000
vt 0.468750 0.937500
vt 0.437500 1.000000
vt 0.375000 0.531250
vt 0.406250 0.531250
vt 0.468750 0.656250
vt 0.437500 0.562500
vt 0.437500 0.531250
vt 0.468750 0.562500
vt 0.468750 0.531250
vt 0.531250 0.937500
vt 0.531250 0.906250
vt 0.531250 0.843750
vt 0.531250 0.875000
vt 0.531250 0.812500
vt 0.531250 0.781250
vt 0.500000 0.812500
vt 0.500000 0.781250
vt 0.500000 1.000000
vt 0.500000 0.968750
vt 0.531250 1.000000
vt 0.531250 0.968750
vt 0.437500 0.625000
vt 0.437500 0.593750
vt 0.468750 0.625000
vt 0.468750 0.593750
vt 0.500000 0.625000
vt 0.500000 0.593750
vt 0.531250 0.625000
vt 0.531250 0.593750
vt 0.500000 0.562500
vt 0.500000 0.531250
vt 0.531250 0.562500
vt 0.531250 0.531250
vt 0.531250 0.468750
vt 0.531250 0.500000
vt 0.500000 0.468750
vt 0.500000 0.500000
vt 0.593750 1.000000
vt 0.593750 0.968750
vt 0.562500 1.000000
vt 0.562500 0.968750
vt 0.437500 0.500000
vt 0.437500 0.468750
vt 0.468750 0.500000
vt 0.468750 0.468750
vt 0.375000 0.500000
vt 0.375000 0.468750
vt 0.406250 0.500000
vt 0.406250 0.468750
s 0
usemtl Material_0
f 121/31/7 123/32/7 122/33/7
f 123/32/7 124/34/7 122/33/7
f 125/35/8 127/36/8 126/37/8
f 127/36/8 128/38/8 126/37/8
f 129/39/9 131/40/9 130/41/9
f 131/40/9 132/42/9 130/41/9
f 133/39/10 135/43/10 134/41/10
f 135/43/10 136/44/10 134/41/10
f 137/45/11 139/46/11 138/47/11
f 139/46/11 140/48/11 138/47/11
f 141/49/12 143/50/12 142/51/12
f 143/50/12 144/52/12 142/51/12
f 145/53/7 147/54/7 146/41/7
f 147/54/7 148/55/7 146/41/7
f 149/56/8 151/57/8 150/44/8
f 151/57/8 152/58/8 150/44/8
f 153/59/9 155/60/9 154/61/9
f 155/60/9 156/62/9 154/61/9
f 157/63/10 159/64/10 158/65/10
f 159/64/10 160/31/10 158/65/10
f 161/61/11 163/66/11 162/59/11
f 163/66/11 164/67/11 162/59/11
f 165/44/12 167/58/12 166/43/12
f 167/58/12 168/68/12 166/43/12
f 169/69/7 171/70/7 170/71/7
f 171/70/7 172/72/7 170/71/7
f 173/33/8 175/34/8 174/73/8
f 175/34/8 176/74/8 174/73/8
f 177/75/9 179/76/9 178/38/9
f 179/76/9 180/37/9 178/38/9
f 181/77/10 183/78/10 182/79/10
f 183/78/10 184/80/10 182/79/10
f 185/81/11 187/82/11 186/83/11
f 187/82/11 188/84/11 186/83/11
f 189/85/12 191/86/12 190/87/12
f 191/86/12 192/88/12 190/87/12
f 193/89/7 195/90/7 194/91/7
f 195/90/7 196/92/7 194/91/7
f 197/93/8 199/94/8 198/95/8
f 199/94/8 200/96/8 198/95/8
f 201/97/9 203/98/9 202/99/9
f 203/98/9 204/100/9 202/99/9
f 205/101/10 207/102/10 206/103/10
f 207/102/10 208/104/10 206/103/10
f 209/105/11 211/106/11 210/107/11
f 211/106/11 212/108/11 210/107/11
f 213/109/12 215/110/12 214/111/12
f 215/110/12 216/112/12 214/111/12
o bulletModel_7
v -0.000000 -0.769231 -0.383846
v 0.769231 -0.769231 -0.383846
v -0.000000 -1.153846 -0.383846
v 0.769231 -1.153846 -0.383846
v 0.769231 -0.769231 -0.384616
v -0.000000 -0.769231 -0.384615
v 0.769231 -1.153846 -0.384616
v -0.000000 -1.153846 -0.384615
v 0.769231 -0.769231 -0.384616
v 0.769231 -0.769231 -0.383846
v -0.000000 -0.769231 -0.384615
v -0.000000 -0.769231 -0.383846
v -0.000000 -1.153846 -0.384615
v -0.000000 -1.153846 -0.383846
v 0.769231 -1.153846 -0.384616
v 0.769231 -1.153846 -0.383846
v -0.000000 -0.769231 -0.384615
v -0.000000 -0.769231 -0.383846
v -0.000000 -1.153846 -0.384615
v -0.000000 -1.153846 -0.383846
v 0.769231 -0.769231 -0.383846
v 0.769231 -0.769231 -0.384616
v 0.769231 -1.153846 -0.383846
v 0.769231 -1.153846 -0.384616
vn -0.0000 -0.0000 1.0000
vn -0.0000 -0.0000 -1.0000
vn -0.0000 1.0000 -0.0000
vn -0.0000 -1.0000 -0.0000
vn -1.0000 -0.0000 -0.0000
vn 1.0000 -0.0000 -0.0000
vt 0.437500 0.687500
vt 0.437500 0.656250
vt 0.468750 0.687500
vt 0.468750 0.656250
s 0
usemtl Material_0
f 217/113/13 219/114/13 218/115/13
f 219/114/13 220/116/13 218/115/13
f 221/113/14 223/114/14 222/115/14
f 223/114/14 224/116/14 222/115/14
f 225/113/15 227/114/15 226/115/15
f 227/114/15 228/116/15 226/115/15
f 229/113/16 231/114/16 230/115/16
f 231/114/16 232/116/16 230/115/16
f 233/113/17 235/114/17 234/115/17
f 235/114/17 236/116/17 234/115/17
f 237/113/18 239/114/18 238/115/18
f 239/114/18 240/116/18 238/115/18
o bulletModel_9
v -0.000000 -1.153846 -0.383846
v 0.769231 -1.153846 -0.383846
v -0.000000 -1.538462 -0.383846
v 0.769231 -1.538462 -0.383846
v 0.769231 -1.153846 -0.384616
v -0.000000 -1.153846 -0.384615
v 0.769231 -1.538462 -0.384616
v -0.000000 -1.538462 -0.384615
v 0.769231 -1.153846 -0.384616
v 0.769231 -1.153846 -0.383846
v -0.000000 -1.153846 -0.384615
v -0.000000 -1.153846 -0.383846
v -0.000000 -1.538462 -0.384615
v -0.000000 -1.538462 -0.383846
v 0.769231 -1.538462 -0.384616
v 0.769231 -1.538462 -0.383846
v -0.000000 -1.153846 -0.384615
v -0.000000 -1.153846 -0.383846
v -0.000000 -1.538462 -0.384615
v -0.000000 -1.538462 -0.383846
v 0.769231 -1.153846 -0.383846
v 0.769231 -1.153846 -0.384616
v 0.769231 -1.538462 -0.383846
v 0.769231 -1.538462 -0.384616
vn -0.0000 -0.0000 1.0000
vn -0.0000 -0.0000 -1.0000
vn -0.0000 1.0000 -0.0000
vn -0.0000 -1.0000 -0.0000
vn -1.0000 -0.0000 -0.0000
vn 1.0000 -0.0000 -0.0000
vt 0.406250 0.687500
vt 0.406250 0.656250
vt 0.437500 0.687500
vt 0.437500 0.656250
s 0
usemtl Material_0
f 241/117/19 243/118/19 242/119/19
f 243/118/19 244/120/19 242/119/19
f 245/117/20 247/118/20 246/119/20
f 247/118/20 248/120/20 246/119/20
f 249/117/21 251/118/21 250/119/21
f 251/118/21 252/120/21 250/119/21
f 253/117/22 255/118/22 254/119/22
f 255/118/22 256/120/22 254/119/22
f 257/117/23 259/118/23 258/119/23
f 259/118/23 260/120/23 258/119/23
f 261/117/24 263/118/24 262/119/24
f 263/118/24 264/120/24 262/119/24
o bulletModel_11
v -0.000000 -1.538462 -0.383846
v 0.769231 -1.538462 -0.383846
v -0.000000 -1.923077 -0.383846
v 0.769231 -1.923077 -0.383846
v 0.769231 -1.538462 -0.384616
v -0.000000 -1.538462 -0.384615
v 0.769231 -1.923077 -0.384616
v -0.000000 -1.923077 -0.384615
v 0.769231 -1.538462 -0.384616
v 0.769231 -1.538462 -0.383846
v -0.000000 -1.538462 -0.384615
v -0.000000 -1.538462 -0.383846
v -0.000000 -1.923077 -0.384615
v -0.000000 -1.923077 -0.383846
v 0.769231 -1.923077 -0.384616
v 0.769231 -1.923077 -0.383846
v -0.000000 -1.538462 -0.384615
v -0.000000 -1.538462 -0.383846
v -0.000000 -1.923077 -0.384615
v -0.000000 -1.923077 -0.383846
v 0.769231 -1.538462 -0.383846
v 0.769231 -1.538462 -0.384616
v 0.769231 -1.923077 -0.383846
v 0.769231 -1.923077 -0.384616
vn -0.0000 -0.0000 1.0000
vn -0.0000 -0.0000 -1.0000
vn -0.0000 1.0000 -0.0000
vn -0.0000 -1.0000 -0.0000
vn -1.0000 -0.0000 -0.0000
vn 1.0000 -0.0000 -0.0000
vt 0.437500 0.687500
vt 0.437500 0.656250
vt 0.468750 0.687500
vt 0.468750 0.656250
s 0
usemtl Material_0
f 265/121/25 267/122/25 266/123/25
f 267/122/25 268/124/25 266/123/25
f 269/121/26 271/122/26 270/123/26
f 271/122/26 272/124/26 270/123/26
f 273/121/27 275/122/27 274/123/27
f 275/122/27 276/124/27 274/123/27
f 277/121/28 279/122/28 278/123/28
f 279/122/28 280/124/28 278/123/28
f 281/121/29 283/122/29 282/123/29
f 283/122/29 284/124/29 282/123/29
f 285/121/30 287/122/30 286/123/30
f 287/122/30 288/124/30 286/123/30
o bulletModel_13
v -0.000000 -1.923077 -0.383846
v 0.769231 -1.923077 -0.383846
v -0.000000 -2.307692 -0.383846
v 0.769231 -2.307692 -0.383846
v 0.769231 -1.923077 -0.384616
v -0.000000 -1.923077 -0.384615
v 0.769231 -2.307692 -0.384616
v -0.000000 -2.307692 -0.384615
v 0.769231 -1.923077 -0.384616
v 0.769231 -1.923077 -0.383846
v -0.000000 -1.923077 -0.384615
v -0.000000 -1.923077 -0.383846
v -0.000000 -2.307692 -0.384615
v -0.000000 -2.307692 -0.383846
v 0.769231 -2.307692 -0.384616
v 0.769231 -2.307692 -0.383846
v -0.000000 -1.923077 -0.384615
v -0.000000 -1.923077 -0.383846
v -0.000000 -2.307692 -0.384615
v -0.000000 -2.307692 -0.383846
v 0.769231 -1.923077 -0.383846
v 0.769231 -1.923077 -0.384616
v 0.769231 -2.307692 -0.383846
v 0.769231 -2.307692 -0.384616
vn -0.0000 -0.0000 1.0000
vn -0.0000 -0.0000 -1.0000
vn -0.0000 1.0000 -0.0000
vn -0.0000 -1.0000 -0.0000
vn -1.0000 -0.0000 -0.0000
vn 1.0000 -0.0000 -0.0000
vt 0.406250 0.687500
vt 0.406250 0.656250
vt 0.437500 0.687500
vt 0.437500 0.656250
s 0
usemtl Material_0
f 289/125/31 291/126/31 290/127/31
f 291/126/31 292/128/31 290/127/31
f 293/125/32 295/126/32 294/127/32
f 295/126/32 296/128/32 294/127/32
f 297/125/33 299/126/33 298/127/33
f 299/126/33 300/128/33 298/127/33
f 301/125/34 303/126/34 302/127/34
f 303/126/34 304/128/34 302/127/34
f 305/125/35 307/126/35 306/127/35
f 307/126/35 308/128/35 306/127/35
f 309/125/36 311/126/36 310/127/36
f 311/126/36 312/128/36 310/127/36
o bulletModel_15
v -0.000000 -2.307692 -0.383846
v 0.769231 -2.307692 -0.383846
v -0.000000 -2.692308 -0.383846
v 0.769231 -2.692308 -0.383846
v 0.769231 -2.307692 -0.384616
v -0.000000 -2.307692 -0.384615
v 0.769231 -2.692308 -0.384616
v -0.000000 -2.692308 -0.384615
v 0.769231 -2.307692 -0.384616
v 0.769231 -2.307692 -0.383846
v -0.000000 -2.307692 -0.384615
v -0.000000 -2.307692 -0.383846
v -0.000000 -2.692308 -0.384615
v -0.000000 -2.692308 -0.383846
v 0.769231 -2.692308 -0.384616
v 0.769231 -2.692308 -0.383846
v -0.000000 -2.307692 -0.384615
v -0.000000 -2.307692 -0.383846
v -0.000000 -2.692308 -0.384615
v -0.000000 -2.692308 -0.383846
v 0.769231 -2.307692 -0.383846
v 0.769231 -2.307692 -0.384616
v 0.769231 -2.692308 -0.383846
v 0.769231 -2.692308 -0.384616
vn -0.0000 -0.0000 1.0000
vn -0.0000 -0.0000 -1.0000
vn -0.0000 1.0000 -0.0000
vn -0.0000 -1.0000 -0.0000
vn -1.0000 -0.0000 -0.0000
vn 1.0000 -0.0000 -0.0000
vt 0.437500 0.687500
vt 0.437500 0.656250
vt 0.468750 0.687500
vt 0.468750 0.656250
s 0
usemtl Material_0
f 313/129/37 315/130/37 314/131/37
f 315/130/37 316/132/37 314/131/37
f 317/129/38 319/130/38 318/131/38
f 319/130/38 320/132/38 318/131/38
f 321/129/39 323/130/39 322/131/39
f 323/130/39 324/132/39 322/131/39
f 325/129/40 327/130/40 326/131/40
f 327/130/40 328/132/40 326/131/40
f 329/129/41 331/130/41 330/131/41
f 331/130/41 332/132/41 330/131/41
f 333/129/42 335/130/42 334/131/42
f 335/130/42 336/132/42 334/131/42
o bulletModel_17
v -0.000000 -2.692308 -0.383846
v 0.769231 -2.692308 -0.383846
v -0.000000 -3.076923 -0.383846
v 0.769231 -3.076923 -0.383846
v 0.769231 -2.692308 -0.384616
v -0.000000 -2.692308 -0.384615
v 0.769231 -3.076923 -0.384616
v -0.000000 -3.076923 -0.384615
v 0.769231 -2.692308 -0.384616
v 0.769231 -2.692308 -0.383846
v -0.000000 -2.692308 -0.384615
v -0.000000 -2.692308 -0.383846
v -0.000000 -3.076923 -0.384615
v -0.000000 -3.076923 -0.383846
v 0.769231 -3.076923 -0.384616
v 0.769231 -3.076923 -0.383846
v -0.000000 -2.692308 -0.384615
v -0.000000 -2.692308 -0.383846
v -0.000000 -3.076923 -0.384615
v -0.000000 -3.076923 -0.383846
v 0.769231 -2.692308 -0.383846
v 0.769231 -2.692308 -0.384616
v 0.769231 -3.076923 -0.383846
v 0.769231 -3.076923 -0.384616
vn -0.0000 -0.0000 1.0000
vn -0.0000 -0.0000 -1.0000
vn -0.0000 1.0000 -0.0000
vn -0.0000 -1.0000 -0.0000
vn -1.0000 -0.0000 -0.0000
vn 1.0000 -0.0000 -0.0000
vt 0.406250 0.687500
vt 0.406250 0.656250
vt 0.437500 0.687500
vt 0.437500 0.656250
s 0
usemtl Material_0
f 337/133/43 339/134/43 338/135/43
f 339/134/43 340/136/43 338/135/43
f 341/133/44 343/134/44 342/135/44
f 343/134/44 344/136/44 342/135/44
f 345/133/45 347/134/45 346/135/45
f 347/134/45 348/136/45 346/135/45
f 349/133/46 351/134/46 350/135/46
f 351/134/46 352/136/46 350/135/46
f 353/133/47 355/134/47 354/135/47
f 355/134/47 356/136/47 354/135/47
f 357/133/48 359/134/48 358/135/48
f 359/134/48 360/136/48 358/135/48
o bulletModel_19
v -0.000000 -3.076923 -0.383846
v 0.769231 -3.076923 -0.383846
v -0.000000 -3.461539 -0.383846
v 0.769231 -3.461539 -0.383846
v 0.769231 -3.076923 -0.384616
v -0.000000 -3.076923 -0.384615
v 0.769231 -3.461539 -0.384616
v -0.000000 -3.461539 -0.384615
v 0.769231 -3.076923 -0.384616
v 0.769231 -3.076923 -0.383846
v -0.000000 -3.076923 -0.384615
v -0.000000 -3.076923 -0.383846
v -0.000000 -3.461539 -0.384615
v -0.000000 -3.461539 -0.383846
v 0.769231 -3.461539 -0.384616
v 0.769231 -3.461539 -0.383846
v -0.000000 -3.076923 -0.384615
v -0.000000 -3.076923 -0.383846
v -0.000000 -3.461539 -0.384615
v -0.000000 -3.461539 -0.383846
v 0.769231 -3.076923 -0.383846
v 0.769231 -3.076923 -0.384616
v 0.769231 -3.461539 -0.383846
v 0.769231 -3.461539 -0.384616
vn -0.0000 -0.0000 1.0000
vn -0.0000 -0.0000 -1.0000
vn -0.0000 1.0000 -0.0000
vn -0.0000 -1.0000 -0.0000
vn -1.0000 -0.0000 -0.0000
vn 1.0000 -0.0000 -0.0000
vt 0.437500 0.687500
vt 0.437500 0.656250
vt 0.468750 0.687500
vt 0.468750 0.656250
s 0
usemtl Material_0
f 361/137/49 363/138/49 362/139/49
f 363/138/49 364/140/49 362/139/49
f 365/137/50 367/138/50 366/139/50
f 367/138/50 368/140/50 366/139/50
f 369/137/51 371/138/51 370/139/51
f 371/138/51 372/140/51 370/139/51
f 373/137/52 375/138/52 374/139/52
f 375/138/52 376/140/52 374/139/52
f 377/137/53 379/138/53 378/139/53
f 379/138/53 380/140/53 378/139/53
f 381/137/54 383/138/54 382/139/54
f 383/138/54 384/140/54 382/139/54
o bulletModel_18
v 0.000000 -3.076923 0.385385
v 0.769231 -3.076923 0.385384
v 0.000000 -3.461539 0.385385
v 0.769231 -3.461539 0.385384
v 0.769231 -3.076923 0.384615
v 0.000000 -3.076923 0.384615
v 0.769231 -3.461539 0.384615
v 0.000000 -3.461539 0.384615
v 0.769231 -3.076923 0.384615
v 0.769231 -3.076923 0.385384
v 0.000000 -3.076923 0.384615
v 0.000000 -3.076923 0.385385
v 0.000000 -3.461539 0.384615
v 0.000000 -3.461539 0.385385
v 0.769231 -3.461539 0.384615
v 0.769231 -3.461539 0.385384
v 0.000000 -3.076923 0.384615
v 0.000000 -3.076923 0.385385
v 0.000000 -3.461539 0.384615
v 0.000000 -3.461539 0.385385
v 0.769231 -3.076923 0.385384
v 0.769231 -3.076923 0.384615
v 0.769231 -3.461539 0.385384
v 0.769231 -3.461539 0.384615
vn -0.0000 -0.0000 1.0000
vn -0.0000 -0.0000 -1.0000
vn -0.0000 1.0000 -0.0000
vn -0.0000 -1.0000 -0.0000
vn -1.0000 -0.0000 -0.0000
vn 1.0000 -0.0000 -0.0000
vt 0.437500 0.687500
vt 0.437500 0.656250
vt 0.468750 0.687500
vt 0.468750 0.656250
s 0
usemtl Material_0
f 385/141/55 387/142/55 386/143/55
f 387/142/55 388/144/55 386/143/55
f 389/141/56 391/142/56 390/143/56
f 391/142/56 392/144/56 390/143/56
f 393/141/57 395/142/57 394/143/57
f 395/142/57 396/144/57 394/143/57
f 397/141/58 399/142/58 398/143/58
f 399/142/58 400/144/58 398/143/58
f 401/141/59 403/142/59 402/143/59
f 403/142/59 404/144/59 402/143/59
f 405/141/60 407/142/60 406/143/60
f 407/142/60 408/144/60 406/143/60
o bulletModel_16
v 0.000000 -2.692308 0.385385
v 0.769231 -2.692308 0.385384
v 0.000000 -3.076923 0.385385
v 0.769231 -3.076923 0.385384
v 0.769231 -2.692308 0.384615
v 0.000000 -2.692308 0.384615
v 0.769231 -3.076923 0.384615
v 0.000000 -3.076923 0.384615
v 0.769231 -2.692308 0.384615
v 0.769231 -2.692308 0.385384
v 0.000000 -2.692308 0.384615
v 0.000000 -2.692308 0.385385
v 0.000000 -3.076923 0.384615
v 0.000000 -3.076923 0.385385
v 0.769231 -3.076923 0.384615
v 0.769231 -3.076923 0.385384
v 0.000000 -2.692308 0.384615
v 0.000000 -2.692308 0.385385
v 0.000000 -3.076923 0.384615
v 0.000000 -3.076923 0.385385
v 0.769231 -2.692308 0.385384
v 0.769231 -2.692308 0.384615
v 0.769231 -3.076923 0.385384
v 0.769231 -3.076923 0.384615
vn -0.0000 -0.0000 1.0000
vn -0.0000 -0.0000 -1.0000
vn -0.0000 1.0000 -0.0000
vn -0.0000 -1.0000 -0.0000
vn -1.0000 -0.0000 -0.0000
vn 1.0000 -0.0000 -0.0000
vt 0.406250 0.687500
vt 0.406250 0.656250
vt 0.437500 0.687500
vt 0.437500 0.656250
s 0
usemtl Material_0
f 409/145/61 411/146/61 410/147/61
f 411/146/61 412/148/61 410/147/61
f 413/145/62 415/146/62 414/147/62
f 415/146/62 416/148/62 414/147/62
f 417/145/63 419/146/63 418/147/63
f 419/146/63 420/148/63 418/147/63
f 421/145/64 423/146/64 422/147/64
f 423/146/64 424/148/64 422/147/64
f 425/145/65 427/146/65 426/147/65
f 427/146/65 428/148/65 426/147/65
f 429/145/66 431/146/66 430/147/66
f 431/146/66 432/148/66 430/147/66
o bulletModel_14
v 0.000000 -2.307692 0.385385
v 0.769231 -2.307692 0.385384
v 0.000000 -2.692308 0.385385
v 0.769231 -2.692308 0.385384
v 0.769231 -2.307692 0.384615
v 0.000000 -2.307692 0.384615
v 0.769231 -2.692308 0.384615
v 0.000000 -2.692308 0.384615
v 0.769231 -2.307692 0.384615
v 0.769231 -2.307692 0.385384
v 0.000000 -2.307692 0.384615
v 0.000000 -2.307692 0.385385
v 0.000000 -2.692308 0.384615
v 0.000000 -2.692308 0.385385
v 0.769231 -2.692308 0.384615
v 0.769231 -2.692308 0.385384
v 0.000000 -2.307692 0.384615
v 0.000000 -2.307692 0.385385
v 0.000000 -2.692308 0.384615
v 0.000000 -2.692308 0.385385
v 0.769231 -2.307692 0.385384
v 0.769231 -2.307692 0.384615
v 0.769231 -2.692308 0.385384
v 0.769231 -2.692308 0.384615
vn -0.0000 -0.0000 1.0000
vn -0.0000 -0.0000 -1.0000
vn -0.0000 1.0000 -0.0000
vn -0.0000 -1.0000 -0.0000
vn -1.0000 -0.0000 -0.0000
vn 1.0000 -0.0000 -0.0000
vt 0.437500 0.687500
vt 0.437500 0.656250
vt 0.468750 0.687500
vt 0.468750 0.656250
s 0
usemtl Material_0
f 433/149/67 435/150/67 434/151/67
f 435/150/67 436/152/67 434/151/67
f 437/149/68 439/150/68 438/151/68
f 439/150/68 440/152/68 438/151/68
f 441/149/69 443/150/69 442/151/69
f 443/150/69 444/152/69 442/151/69
f 445/149/70 447/150/70 446/151/70
f 447/150/70 448/152/70 446/151/70
f 449/149/71 451/150/71 450/151/71
f 451/150/71 452/152/71 450/151/71
f 453/149/72 455/150/72 454/151/72
f 455/150/72 456/152/72 454/151/72
o bulletModel_12
v 0.000000 -1.923077 0.385385
v 0.769231 -1.923077 0.385384
v 0.000000 -2.307692 0.385385
v 0.769231 -2.307692 0.385384
v 0.769231 -1.923077 0.384615
v 0.000000 -1.923077 0.384615
v 0.769231 -2.307692 0.384615
v 0.000000 -2.307692 0.384615
v 0.769231 -1.923077 0.384615
v 0.769231 -1.923077 0.385384
v 0.000000 -1.923077 0.384615
v 0.000000 -1.923077 0.385385
v 0.000000 -2.307692 0.384615
v 0.000000 -2.307692 0.385385
v 0.769231 -2.307692 0.384615
v 0.769231 -2.307692 0.385384
v 0.000000 -1.923077 0.384615
v 0.000000 -1.923077 0.385385
v 0.000000 -2.307692 0.384615
v 0.000000 -2.307692 0.385385
v 0.769231 -1.923077 0.385384
v 0.769231 -1.923077 0.384615
v 0.769231 -2.307692 0.385384
v 0.769231 -2.307692 0.384615
vn -0.0000 -0.0000 1.0000
vn -0.0000 -0.0000 -1.0000
vn -0.0000 1.0000 -0.0000
vn -0.0000 -1.0000 -0.0000
vn -1.0000 -0.0000 -0.0000
vn 1.0000 -0.0000 -0.0000
vt 0.406250 0.687500
vt 0.406250 0.656250
vt 0.437500 0.687500
vt 0.437500 0.656250
s 0
usemtl Material_0
f 457/153/73 459/154/73 458/155/73
f 459/154/73 460/156/73 458/155/73
f 461/153/74 463/154/74 462/155/74
f 463/154/74 464/156/74 462/155/74
f 465/153/75 467/154/75 466/155/75
f 467/154/75 468/156/75 466/155/75
f 469/153/76 471/154/76 470/155/76
f 471/154/76 472/156/76 470/155/76
f 473/153/77 475/154/77 474/155/77
f 475/154/77 476/156/77 474/155/77
f 477/153/78 479/154/78 478/155/78
f 479/154/78 480/156/78 478/155/78
o bulletModel_10
v 0.000000 -1.538462 0.385385
v 0.769231 -1.538462 0.385384
v 0.000000 -1.923077 0.385385
v 0.769231 -1.923077 0.385384
v 0.769231 -1.538462 0.384615
v 0.000000 -1.538462 0.384615
v 0.769231 -1.923077 0.384615
v 0.000000 -1.923077 0.384615
v 0.769231 -1.538462 0.384615
v 0.769231 -1.538462 0.385384
v 0.000000 -1.538462 0.384615
v 0.000000 -1.538462 0.385385
v 0.000000 -1.923077 0.384615
v 0.000000 -1.923077 0.385385
v 0.769231 -1.923077 0.384615
v 0.769231 -1.923077 0.385384
v 0.000000 -1.538462 0.384615
v 0.000000 -1.538462 0.385385
v 0.000000 -1.923077 0.384615
v 0.000000 -1.923077 0.385385
v 0.769231 -1.538462 0.385384
v 0.769231 -1.538462 0.384615
v 0.769231 -1.923077 0.385384
v 0.769231 -1.923077 0.384615
vn -0.0000 -0.0000 1.0000
vn -0.0000 -0.0000 -1.0000
vn -0.0000 1.0000 -0.0000
vn -0.0000 -1.0000 -0.0000
vn -1.0000 -0.0000 -0.0000
vn 1.0000 -0.0000 -0.0000
vt 0.437500 0.687500
vt 0.437500 0.656250
vt 0.468750 0.687500
vt 0.468750 0.656250
s 0
usemtl Material_0
f 481/157/79 483/158/79 482/159/79
f 483/158/79 484/160/79 482/159/79
f 485/157/80 487/158/80 486/159/80
f 487/158/80 488/160/80 486/159/80
f 489/157/81 491/158/81 490/159/81
f 491/158/81 492/160/81 490/159/81
f 493/157/82 495/158/82 494/159/82
f 495/158/82 496/160/82 494/159/82
f 497/157/83 499/158/83 498/159/83
f 499/158/83 500/160/83 498/159/83
f 501/157/84 503/158/84 502/159/84
f 503/158/84 504/160/84 502/159/84
o bulletModel_8
v 0.000000 -1.153846 0.385385
v 0.769231 -1.153846 0.385384
v 0.000000 -1.538462 0.385385
v 0.769231 -1.538462 0.385384
v 0.769231 -1.153846 0.384615
v 0.000000 -1.153846 0.384615
v 0.769231 -1.538462 0.384615
v 0.000000 -1.538462 0.384615
v 0.769231 -1.153846 0.384615
v 0.769231 -1.153846 0.385384
v 0.000000 -1.153846 0.384615
v 0.000000 -1.153846 0.385385
v 0.000000 -1.538462 0.384615
v 0.000000 -1.538462 0.385385
v 0.769231 -1.538462 0.384615
v 0.769231 -1.538462 0.385384
v 0.000000 -1.153846 0.384615
v 0.000000 -1.153846 0.385385
v 0.000000 -1.538462 0.384615
v 0.000000 -1.538462 0.385385
v 0.769231 -1.153846 0.385384
v 0.769231 -1.153846 0.384615
v 0.769231 -1.538462 0.385384
v 0.769231 -1.538462 0.384615
vn -0.0000 -0.0000 1.0000
vn -0.0000 -0.0000 -1.0000
vn -0.0000 1.0000 -0.0000
vn -0.0000 -1.0000 -0.0000
vn -1.0000 -0.0000 -0.0000
vn 1.0000 -0.0000 -0.0000
vt 0.406250 0.687500
vt 0.406250 0.656250
vt 0.437500 0.687500
vt 0.437500 0.656250
s 0
usemtl Material_0
f 505/161/85 507/162/85 506/163/85
f 507/162/85 508/164/85 506/163/85
f 509/161/86 511/162/86 510/163/86
f 511/162/86 512/164/86 510/163/86
f 513/161/87 515/162/87 514/163/87
f 515/162/87 516/164/87 514/163/87
f 517/161/88 519/162/88 518/163/88
f 519/162/88 520/164/88 518/163/88
f 521/161/89 523/162/89 522/163/89
f 523/162/89 524/164/89 522/163/89
f 525/161/90 527/162/90 526/163/90
f 527/162/90 528/164/90 526/163/90
o bulletModel_6
v 0.000000 -0.769231 0.385385
v 0.769231 -0.769231 0.385384
v 0.000000 -1.153846 0.385385
v 0.769231 -1.153846 0.385384
v 0.769231 -0.769231 0.384615
v 0.000000 -0.769231 0.384615
v 0.769231 -1.153846 0.384615
v 0.000000 -1.153846 0.384615
v 0.769231 -0.769231 0.384615
v 0.769231 -0.769231 0.385384
v 0.000000 -0.769231 0.384615
v 0.000000 -0.769231 0.385385
v 0.000000 -1.153846 0.384615
v 0.000000 -1.153846 0.385385
v 0.769231 -1.153846 0.384615
v 0.769231 -1.153846 0.385384
v 0.000000 -0.769231 0.384615
v 0.000000 -0.769231 0.385385
v 0.000000 -1.153846 0.384615
v 0.000000 -1.153846 0.385385
v 0.769231 -0.769231 0.385384
v 0.769231 -0.769231 0.384615
v 0.769231 -1.153846 0.385384
v 0.769231 -1.153846 0.384615
vn -0.0000 -0.0000 1.0000
vn -0.0000 -0.0000 -1.0000
vn -0.0000 1.0000 -0.0000
vn -0.0000 -1.0000 -0.0000
vn -1.0000 -0.0000 -0.0000
vn 1.0000 -0.0000 -0.0000
vt 0.437500 0.687500
vt 0.437500 0.656250
vt 0.468750 0.687500
vt 0.468750 0.656250
s 0
usemtl Material_0
f 529/165/91 531/166/91 530/167/91
f 531/166/91 532/168/91 530/167/91
f 533/165/92 535/166/92 534/167/92
f 535/166/92 536/168/92 534/167/92
f 537/165/93 539/166/93 538/167/93
f 539/166/93 540/168/93 538/167/93
f 541/165/94 543/166/94 542/167/94
f 543/166/94 544/168/94 542/167/94
f 545/165/95 547/166/95 546/167/95
f 547/166/95 548/168/95 546/167/95
f 549/165/96 551/166/96 550/167/96
f 551/166/96 552/168/96 550/167/96
