# Blender 4.3.2
# www.blender.org
mtllib lev.sr2mag20.mtl
o ammoModel
v 0.000000 -3.453846 0.384615
v 1.153846 -3.453846 0.384615
v 0.000000 -3.461539 0.384615
v 1.153846 -3.461539 0.384615
v 1.153846 -3.453846 -0.384616
v -0.000000 -3.453846 -0.384615
v 1.153846 -3.461539 -0.384616
v -0.000000 -3.461539 -0.384615
v 1.153846 -3.453846 -0.384616
v 1.153846 -3.453846 0.384615
v -0.000000 -3.453846 -0.384615
v 0.000000 -3.453846 0.384615
v -0.000000 -3.461539 -0.384615
v 0.000000 -3.461539 0.384615
v 1.153846 -3.461539 -0.384616
v 1.153846 -3.461539 0.384615
v -0.000000 -3.453846 -0.384615
v 0.000000 -3.453846 0.384615
v -0.000000 -3.461539 -0.384615
v 0.000000 -3.461539 0.384615
v 1.153846 -3.453846 0.384615
v 1.153846 -3.453846 -0.384616
v 1.153846 -3.461539 0.384615
v 1.153846 -3.461539 -0.384616
v -0.007692 0.000003 0.384615
v 0.000000 0.000003 0.384615
v -0.007692 -3.461536 0.384615
v 0.000000 -3.461536 0.384615
v -0.000000 0.000003 -0.384615
v -0.007692 0.000003 -0.384615
v -0.000000 -3.461536 -0.384615
v -0.007692 -3.461536 -0.384615
v -0.000000 0.000003 -0.384615
v 0.000000 0.000003 0.384615
v -0.007692 0.000003 -0.384615
v -0.007692 0.000003 0.384615
v -0.007692 -3.461536 -0.384615
v -0.007692 -3.461536 0.384615
v -0.000000 -3.461536 -0.384615
v 0.000000 -3.461536 0.384615
v -0.007692 0.000003 -0.384615
v -0.007692 0.000003 0.384615
v -0.007692 -3.461536 -0.384615
v -0.007692 -3.461536 0.384615
v 0.000000 0.000003 0.384615
v -0.000000 0.000003 -0.384615
v 0.000000 -3.461536 0.384615
v -0.000000 -3.461536 -0.384615
v -0.000000 0.000000 -0.376923
v 1.153846 0.000000 -0.376923
v -0.000000 -3.461539 -0.376923
v 1.153846 -3.461539 -0.376923
v 1.153846 0.000000 -0.384616
v -0.000000 0.000000 -0.384615
v 1.153846 -3.461539 -0.384616
v -0.000000 -3.461539 -0.384615
v 1.153846 0.000000 -0.384616
v 1.153846 0.000000 -0.376923
v -0.000000 0.000000 -0.384615
v -0.000000 0.000000 -0.376923
v -0.000000 -3.461539 -0.384615
v -0.000000 -3.461539 -0.376923
v 1.153846 -3.461539 -0.384616
v 1.153846 -3.461539 -0.376923
v -0.000000 0.000000 -0.384615
v -0.000000 0.000000 -0.376923
v -0.000000 -3.461539 -0.384615
v -0.000000 -3.461539 -0.376923
v 1.153846 0.000000 -0.376923
v 1.153846 0.000000 -0.384616
v 1.153846 -3.461539 -0.376923
v 1.153846 -3.461539 -0.384616
v 1.146154 0.000000 0.384615
v 1.153846 0.000000 0.384615
v 1.146154 -3.461539 0.384615
v 1.153846 -3.461539 0.384615
v 1.153846 0.000000 -0.384616
v 1.146154 0.000000 -0.384616
v 1.153846 -3.461539 -0.384616
v 1.146154 -3.461539 -0.384616
v 1.153846 0.000000 -0.384616
v 1.153846 0.000000 0.384615
v 1.146154 0.000000 -0.384616
v 1.146154 0.000000 0.384615
v 1.146154 -3.461539 -0.384616
v 1.146154 -3.461539 0.384615
v 1.153846 -3.461539 -0.384616
v 1.153846 -3.461539 0.384615
v 1.146154 0.000000 -0.384616
v 1.146154 0.000000 0.384615
v 1.146154 -3.461539 -0.384616
v 1.146154 -3.461539 0.384615
v 1.153846 0.000000 0.384615
v 1.153846 0.000000 -0.384616
v 1.153846 -3.461539 0.384615
v 1.153846 -3.461539 -0.384616
v 0.000000 0.000000 0.392308
v 1.153846 0.000000 0.392307
v 0.000000 -3.461539 0.392308
v 1.153846 -3.461539 0.392307
v 1.153846 0.000000 0.384615
v 0.000000 0.000000 0.384615
v 1.153846 -3.461539 0.384615
v 0.000000 -3.461539 0.384615
v 1.153846 0.000000 0.384615
v 1.153846 0.000000 0.392307
v 0.000000 0.000000 0.384615
v 0.000000 0.000000 0.392308
v 0.000000 -3.461539 0.384615
v 0.000000 -3.461539 0.392308
v 1.153846 -3.461539 0.384615
v 1.153846 -3.461539 0.392307
v 0.000000 0.000000 0.384615
v 0.000000 0.000000 0.392308
v 0.000000 -3.461539 0.384615
v 0.000000 -3.461539 0.392308
v 1.153846 0.000000 0.392307
v 1.153846 0.000000 0.384615
v 1.153846 -3.461539 0.392307
v 1.153846 -3.461539 0.384615
vn -0.0000 -0.0000 1.0000
vn -0.0000 -0.0000 -1.0000
vn -0.0000 1.0000 -0.0000
vn -0.0000 -1.0000 -0.0000
vn -1.0000 -0.0000 -0.0000
vn 1.0000 -0.0000 -0.0000
vt 0.625000 0.875000
vt 0.625000 0.843750
vt 0.718750 0.875000
vt 0.718750 0.843750
vt 0.187500 0.375000
vt 0.187500 0.343750
vt 0.281250 0.375000
vt 0.281250 0.343750
vt 0.062500 0.281250
vt 0.062500 0.375000
vt 0.000000 0.281250
vt 0.000000 0.375000
vt 0.687500 1.000000
vt 0.687500 0.906250
vt 0.625000 1.000000
vt 0.625000 0.906250
vt 0.437500 0.375000
vt 0.437500 0.343750
vt 0.500000 0.375000
vt 0.500000 0.343750
vt 0.625000 0.625000
vt 0.625000 0.593750
vt 0.687500 0.625000
vt 0.687500 0.593750
vt 0.375000 1.000000
vt 0.375000 0.718750
vt 0.406250 1.000000
vt 0.406250 0.718750
vt 0.375000 0.687500
vt 0.375000 0.406250
vt 0.406250 0.687500
vt 0.406250 0.406250
vt 0.687500 0.656250
vt 0.687500 0.687500
vt 0.625000 0.656250
vt 0.625000 0.687500
vt 0.375000 0.375000
vt 0.375000 0.343750
vt 0.187500 0.687500
vt 0.187500 0.406250
vt 0.250000 0.687500
vt 0.250000 0.406250
vt 0.125000 0.687500
vt 0.125000 0.406250
vt 0.000000 1.000000
vt 0.000000 0.718750
vt 0.093750 1.000000
vt 0.093750 0.718750
vt 0.125000 1.000000
vt 0.125000 0.718750
vt 0.218750 1.000000
vt 0.218750 0.718750
vt 0.093750 0.281250
vt 0.093750 0.375000
vt 0.156250 0.375000
vt 0.156250 0.281250
vt 0.125000 0.375000
vt 0.125000 0.281250
vt 0.437500 0.687500
vt 0.437500 0.406250
vt 0.468750 0.687500
vt 0.468750 0.406250
vt 0.437500 1.000000
vt 0.437500 0.718750
vt 0.468750 1.000000
vt 0.468750 0.718750
vt 0.500000 1.000000
vt 0.500000 0.718750
vt 0.531250 1.000000
vt 0.531250 0.718750
vt 0.500000 0.687500
vt 0.500000 0.406250
vt 0.531250 0.687500
vt 0.531250 0.406250
vt 0.687500 0.531250
vt 0.687500 0.562500
vt 0.625000 0.531250
vt 0.625000 0.562500
vt 0.562500 0.375000
vt 0.562500 0.343750
vt 0.312500 0.687500
vt 0.312500 0.406250
vt 0.250000 1.000000
vt 0.250000 0.718750
vt 0.343750 1.000000
vt 0.343750 0.718750
vt 0.000000 0.687500
vt 0.000000 0.406250
vt 0.093750 0.687500
vt 0.093750 0.406250
vt 0.656250 0.718750
vt 0.656250 0.812500
vt 0.625000 0.718750
vt 0.625000 0.812500
vt 0.343750 0.375000
vt 0.343750 0.281250
vt 0.312500 0.375000
vt 0.312500 0.281250
vt 0.218750 0.687500
vt 0.218750 0.406250
vt 0.343750 0.687500
vt 0.343750 0.406250
s 0
usemtl Material_0.002
f 1/1/1 3/2/1 2/3/1
f 3/2/1 4/4/1 2/3/1
f 5/5/2 7/6/2 6/7/2
f 7/6/2 8/8/2 6/7/2
f 9/9/3 11/10/3 10/11/3
f 11/10/3 12/12/3 10/11/3
f 13/13/4 15/14/4 14/15/4
f 15/14/4 16/16/4 14/15/4
f 17/17/5 19/18/5 18/19/5
f 19/18/5 20/20/5 18/19/5
f 21/21/6 23/22/6 22/23/6
f 23/22/6 24/24/6 22/23/6
f 25/25/1 27/26/1 26/27/1
f 27/26/1 28/28/1 26/27/1
f 29/29/2 31/30/2 30/31/2
f 31/30/2 32/32/2 30/31/2
f 33/33/3 35/34/3 34/35/3
f 35/34/3 36/36/3 34/35/3
f 37/17/4 39/18/4 38/37/4
f 39/18/4 40/38/4 38/37/4
f 41/39/5 43/40/5 42/41/5
f 43/40/5 44/42/5 42/41/5
f 45/43/6 47/44/6 46/39/6
f 47/44/6 48/40/6 46/39/6
f 49/45/1 51/46/1 50/47/1
f 51/46/1 52/48/1 50/47/1
f 53/49/2 55/50/2 54/51/2
f 55/50/2 56/52/2 54/51/2
f 57/53/3 59/54/3 58/9/3
f 59/54/3 60/10/3 58/9/3
f 61/55/4 63/56/4 62/57/4
f 63/56/4 64/58/4 62/57/4
f 65/59/5 67/60/5 66/61/5
f 67/60/5 68/62/5 66/61/5
f 69/63/6 71/64/6 70/65/6
f 71/64/6 72/66/6 70/65/6
f 73/67/1 75/68/1 74/69/1
f 75/68/1 76/70/1 74/69/1
f 77/71/2 79/72/2 78/73/2
f 79/72/2 80/74/2 78/73/2
f 81/75/3 83/76/3 82/77/3
f 83/76/3 84/78/3 82/77/3
f 85/79/4 87/80/4 86/19/4
f 87/80/4 88/20/4 86/19/4
f 89/81/5 91/82/5 90/29/5
f 91/82/5 92/30/5 90/29/5
f 93/41/6 95/42/6 94/81/6
f 95/42/6 96/82/6 94/81/6
f 97/83/1 99/84/1 98/85/1
f 99/84/1 100/86/1 98/85/1
f 101/87/2 103/88/2 102/89/2
f 103/88/2 104/90/2 102/89/2
f 105/91/3 107/92/3 106/93/3
f 107/92/3 108/94/3 106/93/3
f 109/95/4 111/96/4 110/97/4
f 111/96/4 112/98/4 110/97/4
f 113/99/5 115/100/5 114/41/5
f 115/100/5 116/42/5 114/41/5
f 117/81/6 119/82/6 118/101/6
f 119/82/6 120/102/6 118/101/6
o bulletModel_0
v 0.000000 0.153846 0.134615
v 0.769231 0.153846 0.134615
v 0.000000 -0.346154 0.134615
v 0.769231 -0.346154 0.134615
v 0.769231 0.153846 -0.365385
v -0.000000 0.153846 -0.365385
v 0.769231 -0.346154 -0.365385
v -0.000000 -0.346154 -0.365385
v 0.769231 0.153846 -0.365385
v 0.769231 0.153846 0.134615
v -0.000000 0.153846 -0.365385
v 0.000000 0.153846 0.134615
v -0.000000 -0.346154 -0.365385
v 0.000000 -0.346154 0.134615
v 0.769231 -0.346154 -0.365385
v 0.769231 -0.346154 0.134615
v -0.000000 0.153846 -0.365385
v 0.000000 0.153846 0.134615
v -0.000000 -0.346154 -0.365385
v 0.000000 -0.346154 0.134615
v 0.769231 0.153846 0.134615
v 0.769231 0.153846 -0.365385
v 0.769231 -0.346154 0.134615
v 0.769231 -0.346154 -0.365385
v 0.769231 0.115385 0.096154
v 1.134615 0.115385 0.096154
v 0.769231 -0.307692 0.096154
v 1.134615 -0.307692 0.096154
v 1.134615 0.115385 -0.326923
v 0.769231 0.115385 -0.326923
v 1.134615 -0.307692 -0.326923
v 0.769231 -0.307692 -0.326923
v 1.134615 0.115385 -0.326923
v 1.134615 0.115385 0.096154
v 0.769231 0.115385 -0.326923
v 0.769231 0.115385 0.096154
v 0.769231 -0.307692 -0.326923
v 0.769231 -0.307692 0.096154
v 1.134615 -0.307692 -0.326923
v 1.134615 -0.307692 0.096154
v 0.769231 0.115385 -0.326923
v 0.769231 0.115385 0.096154
v 0.769231 -0.307692 -0.326923
v 0.769231 -0.307692 0.096154
v 1.134615 0.115385 0.096154
v 1.134615 0.115385 -0.326923
v 1.134615 -0.307692 0.096154
v 1.134615 -0.307692 -0.326923
v 0.000000 -0.038462 0.346154
v 0.769231 -0.038462 0.346154
v 0.000000 -0.538462 0.346154
v 0.769231 -0.538462 0.346154
v 0.769231 -0.038462 -0.153846
v -0.000000 -0.038462 -0.153846
v 0.769231 -0.538462 -0.153846
v -0.000000 -0.538462 -0.153846
v 0.769231 -0.038462 -0.153846
v 0.769231 -0.038462 0.346154
v -0.000000 -0.038462 -0.153846
v 0.000000 -0.038462 0.346154
v -0.000000 -0.538462 -0.153846
v 0.000000 -0.538462 0.346154
v 0.769231 -0.538462 -0.153846
v 0.769231 -0.538462 0.346154
v -0.000000 -0.038462 -0.153846
v 0.000000 -0.038462 0.346154
v -0.000000 -0.538462 -0.153846
v 0.000000 -0.538462 0.346154
v 0.769231 -0.038462 0.346154
v 0.769231 -0.038462 -0.153846
v 0.769231 -0.538462 0.346154
v 0.769231 -0.538462 -0.153846
v 0.769231 -0.076923 0.307692
v 1.134615 -0.076923 0.307692
v 0.769231 -0.500000 0.307692
v 1.134615 -0.500000 0.307692
v 1.134615 -0.076923 -0.115385
v 0.769231 -0.076923 -0.115385
v 1.134615 -0.500000 -0.115385
v 0.769231 -0.500000 -0.115385
v 1.134615 -0.076923 -0.115385
v 1.134615 -0.076923 0.307692
v 0.769231 -0.076923 -0.115385
v 0.769231 -0.076923 0.307692
v 0.769231 -0.500000 -0.115385
v 0.769231 -0.500000 0.307692
v 1.134615 -0.500000 -0.115385
v 1.134615 -0.500000 0.307692
v 0.769231 -0.076923 -0.115385
v 0.769231 -0.076923 0.307692
v 0.769231 -0.500000 -0.115385
v 0.769231 -0.500000 0.307692
v 1.134615 -0.076923 0.307692
v 1.134615 -0.076923 -0.115385
v 1.134615 -0.500000 0.307692
v 1.134615 -0.500000 -0.115385
vn -0.0000 -0.0000 1.0000
vn -0.0000 -0.0000 -1.0000
vn -0.0000 1.0000 -0.0000
vn -0.0000 -1.0000 -0.0000
vn -1.0000 -0.0000 -0.0000
vn 1.0000 -0.0000 -0.0000
vt 0.625000 0.500000
vt 0.625000 0.468750
vt 0.687500 0.500000
vt 0.687500 0.468750
vt 0.562500 0.375000
vt 0.562500 0.343750
vt 0.625000 0.375000
vt 0.625000 0.343750
vt 0.656250 0.375000
vt 0.656250 0.437500
vt 0.625000 0.437500
vt 0.656250 0.312500
vt 0.625000 0.312500
vt 0.687500 0.750000
vt 0.687500 0.718750
vt 0.718750 0.750000
vt 0.718750 0.718750
vt 0.250000 0.312500
vt 0.250000 0.281250
vt 0.281250 0.312500
vt 0.281250 0.281250
vt 0.375000 0.312500
vt 0.375000 0.281250
vt 0.406250 0.312500
vt 0.406250 0.281250
vt 0.437500 0.312500
vt 0.437500 0.281250
vt 0.468750 0.312500
vt 0.468750 0.281250
vt 0.718750 0.531250
vt 0.718750 0.562500
vt 0.687500 0.531250
vt 0.687500 0.562500
vt 0.531250 0.312500
vt 0.531250 0.281250
vt 0.500000 0.312500
vt 0.500000 0.281250
vt 0.687500 0.625000
vt 0.687500 0.593750
vt 0.718750 0.625000
vt 0.718750 0.593750
vt 0.687500 0.687500
vt 0.687500 0.656250
vt 0.718750 0.687500
vt 0.718750 0.656250
vt 0.687500 1.000000
vt 0.687500 0.968750
vt 0.750000 1.000000
vt 0.750000 0.968750
vt 0.687500 0.937500
vt 0.687500 0.906250
vt 0.750000 0.937500
vt 0.750000 0.906250
vt 0.218750 0.250000
vt 0.218750 0.312500
vt 0.187500 0.250000
vt 0.187500 0.312500
vt 0.718750 0.812500
vt 0.687500 0.812500
vt 0.562500 0.312500
vt 0.562500 0.281250
vt 0.593750 0.312500
vt 0.593750 0.281250
vt 0.718750 0.500000
vt 0.718750 0.468750
vt 0.625000 0.281250
vt 0.656250 0.281250
vt 0.687500 0.312500
vt 0.687500 0.281250
vt 0.718750 0.312500
vt 0.718750 0.281250
vt 0.031250 0.218750
vt 0.031250 0.250000
vt 0.000000 0.218750
vt 0.000000 0.250000
vt 0.781250 1.000000
vt 0.781250 0.968750
vt 0.687500 0.375000
vt 0.687500 0.343750
vt 0.718750 0.375000
vt 0.718750 0.343750
vt 0.687500 0.437500
vt 0.687500 0.406250
vt 0.718750 0.437500
vt 0.718750 0.406250
s 0
usemtl Material_0.002
f 121/103/7 123/104/7 122/105/7
f 123/104/7 124/106/7 122/105/7
f 125/107/8 127/108/8 126/109/8
f 127/108/8 128/110/8 126/109/8
f 129/111/9 131/112/9 130/109/9
f 131/112/9 132/113/9 130/109/9
f 133/111/10 135/114/10 134/109/10
f 135/114/10 136/115/10 134/109/10
f 137/116/11 139/117/11 138/118/11
f 139/117/11 140/119/11 138/118/11
f 141/120/12 143/121/12 142/122/12
f 143/121/12 144/123/12 142/122/12
f 145/124/7 147/125/7 146/126/7
f 147/125/7 148/127/7 146/126/7
f 149/128/8 151/129/8 150/130/8
f 151/129/8 152/131/8 150/130/8
f 153/132/9 155/133/9 154/134/9
f 155/133/9 156/135/9 154/134/9
f 157/136/10 159/137/10 158/138/10
f 159/137/10 160/139/10 158/138/10
f 161/140/11 163/141/11 162/142/11
f 163/141/11 164/143/11 162/142/11
f 165/144/12 167/145/12 166/146/12
f 167/145/12 168/147/12 166/146/12
f 169/148/7 171/149/7 170/150/7
f 171/149/7 172/151/7 170/150/7
f 173/152/8 175/153/8 174/154/8
f 175/153/8 176/155/8 174/154/8
f 177/156/9 179/157/9 178/158/9
f 179/157/9 180/159/9 178/158/9
f 181/160/10 183/118/10 182/161/10
f 183/118/10 184/116/10 182/161/10
f 185/162/11 187/163/11 186/164/11
f 187/163/11 188/165/11 186/164/11
f 189/105/12 191/106/12 190/166/12
f 191/106/12 192/167/12 190/166/12
f 193/115/7 195/168/7 194/114/7
f 195/168/7 196/169/7 194/114/7
f 197/170/8 199/171/8 198/172/8
f 199/171/8 200/173/8 198/172/8
f 201/174/9 203/175/9 202/176/9
f 203/175/9 204/177/9 202/176/9
f 205/178/10 207/179/10 206/150/10
f 207/179/10 208/151/10 206/150/10
f 209/180/11 211/181/11 210/182/11
f 211/181/11 212/183/11 210/182/11
f 213/184/12 215/185/12 214/186/12
f 215/185/12 216/187/12 214/186/12
