# Blender 4.3.2
# www.blender.org
mtllib lev.pmmag.mtl
o ammoModel
v 0.000000 0.000769 0.381154
v 1.538462 0.000769 0.381154
v 0.000000 0.000000 0.381154
v 1.538462 0.000000 0.381154
v 1.538461 0.000769 -0.384231
v 0.000000 0.000769 -0.384231
v 1.538461 -0.000000 -0.384231
v 0.000000 -0.000000 -0.384231
v 1.538461 0.000769 -0.384231
v 1.538462 0.000769 0.381154
v 0.000000 0.000769 -0.384231
v 0.000000 0.000769 0.381154
v 0.000000 -0.000000 -0.384231
v 0.000000 0.000000 0.381154
v 1.538461 -0.000000 -0.384231
v 1.538462 0.000000 0.381154
v 0.000000 0.000769 -0.384231
v 0.000000 0.000769 0.381154
v 0.000000 -0.000000 -0.384231
v 0.000000 0.000000 0.381154
v 1.538462 0.000769 0.381154
v 1.538461 0.000769 -0.384231
v 1.538462 0.000000 0.381154
v 1.538461 -0.000000 -0.384231
v -0.000769 3.076923 0.384615
v 0.000000 3.076923 0.384615
v -0.000769 0.000000 0.384615
v 0.000000 0.000000 0.384615
v 0.000000 3.076923 -0.384615
v -0.000769 3.076923 -0.384615
v 0.000000 -0.000000 -0.384615
v -0.000769 -0.000000 -0.384615
v 0.000000 3.076923 -0.384615
v 0.000000 3.076923 0.384615
v -0.000769 3.076923 -0.384615
v -0.000769 3.076923 0.384615
v -0.000769 -0.000000 -0.384615
v -0.000769 0.000000 0.384615
v 0.000000 -0.000000 -0.384615
v 0.000000 0.000000 0.384615
v -0.000769 3.076923 -0.384615
v -0.000769 3.076923 0.384615
v -0.000769 -0.000000 -0.384615
v -0.000769 0.000000 0.384615
v 0.000000 3.076923 0.384615
v 0.000000 3.076923 -0.384615
v 0.000000 0.000000 0.384615
v 0.000000 -0.000000 -0.384615
v 0.000000 3.076923 -0.380000
v 1.153846 3.076923 -0.380000
v 0.000000 -0.000000 -0.380000
v 1.153846 -0.000000 -0.380000
v 1.153846 3.076923 -0.380769
v 0.000000 3.076923 -0.380769
v 1.153846 -0.000000 -0.380769
v 0.000000 -0.000000 -0.380769
v 1.153846 3.076923 -0.380769
v 1.153846 3.076923 -0.380000
v 0.000000 3.076923 -0.380769
v 0.000000 3.076923 -0.380000
v 0.000000 -0.000000 -0.380769
v 0.000000 -0.000000 -0.380000
v 1.153846 -0.000000 -0.380769
v 1.153846 -0.000000 -0.380000
v 0.000000 3.076923 -0.380769
v 0.000000 3.076923 -0.380000
v 0.000000 -0.000000 -0.380769
v 0.000000 -0.000000 -0.380000
v 1.153846 3.076923 -0.380000
v 1.153846 3.076923 -0.380769
v 1.153846 -0.000000 -0.380000
v 1.153846 -0.000000 -0.380769
v 0.000000 3.076923 0.381538
v 1.153846 3.076923 0.381538
v 0.000000 0.000000 0.381538
v 1.153846 0.000000 0.381538
v 1.153846 3.076923 0.380769
v 0.000000 3.076923 0.380769
v 1.153846 0.000000 0.380769
v 0.000000 0.000000 0.380769
v 1.153846 3.076923 0.380769
v 1.153846 3.076923 0.381538
v 0.000000 3.076923 0.380769
v 0.000000 3.076923 0.381538
v 0.000000 0.000000 0.380769
v 0.000000 0.000000 0.381538
v 1.153846 0.000000 0.380769
v 1.153846 0.000000 0.381538
v 0.000000 3.076923 0.380769
v 0.000000 3.076923 0.381538
v 0.000000 0.000000 0.380769
v 0.000000 0.000000 0.381538
v 1.153846 3.076923 0.381538
v 1.153846 3.076923 0.380769
v 1.153846 0.000000 0.381538
v 1.153846 0.000000 0.380769
v 1.153077 3.076923 0.384615
v 1.153846 3.076923 0.384615
v 1.153077 0.000000 0.384615
v 1.153846 0.000000 0.384615
v 1.153846 3.076923 -0.384616
v 1.153077 3.076923 -0.384616
v 1.153846 -0.000000 -0.384616
v 1.153077 -0.000000 -0.384616
v 1.153846 3.076923 -0.384616
v 1.153846 3.076923 0.384615
v 1.153077 3.076923 -0.384616
v 1.153077 3.076923 0.384615
v 1.153077 -0.000000 -0.384616
v 1.153077 0.000000 0.384615
v 1.153846 -0.000000 -0.384616
v 1.153846 0.000000 0.384615
v 1.153077 3.076923 -0.384616
v 1.153077 3.076923 0.384615
v 1.153077 -0.000000 -0.384616
v 1.153077 0.000000 0.384615
v 1.153846 3.076923 0.384615
v 1.153846 3.076923 -0.384616
v 1.153846 0.000000 0.384615
v 1.153846 -0.000000 -0.384616
vn -0.0000 -0.0000 1.0000
vn -0.0000 -0.0000 -1.0000
vn -0.0000 1.0000 -0.0000
vn -0.0000 -1.0000 -0.0000
vn -1.0000 -0.0000 -0.0000
vn 1.0000 -0.0000 -0.0000
vt 0.000000 1.000000
vt 0.062500 1.000000
vt 0.187500 0.562500
vt 0.187500 0.625000
vt 0.218750 0.562500
vt 0.218750 0.625000
vt 0.031250 1.000000
vt 0.000000 0.875000
vt 0.125000 0.781250
vt 0.125000 0.656250
vt 0.093750 0.781250
vt 0.093750 0.656250
vt 0.234375 0.875000
vt 0.234375 0.750000
vt 0.187500 0.875000
vt 0.187500 0.750000
vt 0.000000 0.953125
vt 0.156250 0.750000
vt 0.156250 0.625000
vt 0.125000 0.750000
vt 0.125000 0.625000
s 1
usemtl Material_0
f 1/1/1 3/1/1 2/2/1
f 3/1/1 4/2/1 2/2/1
f 5/1/2 7/1/2 6/2/2
f 7/1/2 8/2/2 6/2/2
f 9/3/3 11/4/3 10/5/3
f 11/4/3 12/6/3 10/5/3
f 13/4/4 15/3/4 14/6/4
f 15/3/4 16/5/4 14/6/4
f 17/1/5 19/1/5 18/7/5
f 19/1/5 20/7/5 18/7/5
f 21/1/6 23/1/6 22/7/6
f 23/1/6 24/7/6 22/7/6
f 25/1/1 27/8/1 26/1/1
f 27/8/1 28/8/1 26/1/1
f 29/1/2 31/8/2 30/1/2
f 31/8/2 32/8/2 30/1/2
f 33/7/3 35/7/3 34/1/3
f 35/7/3 36/1/3 34/1/3
f 37/7/4 39/7/4 38/1/4
f 39/7/4 40/1/4 38/1/4
f 41/9/5 43/10/5 42/11/5
f 43/10/5 44/12/5 42/11/5
f 45/11/6 47/12/6 46/9/6
f 47/12/6 48/10/6 46/9/6
f 49/13/1 51/14/1 50/15/1
f 51/14/1 52/16/1 50/15/1
f 53/15/2 55/16/2 54/13/2
f 55/16/2 56/14/2 54/13/2
f 57/17/3 59/1/3 58/17/3
f 59/1/3 60/1/3 58/17/3
f 61/1/4 63/17/4 62/1/4
f 63/17/4 64/17/4 62/1/4
f 65/1/5 67/8/5 66/1/5
f 67/8/5 68/8/5 66/1/5
f 69/1/6 71/8/6 70/1/6
f 71/8/6 72/8/6 70/1/6
f 73/13/1 75/14/1 74/15/1
f 75/14/1 76/16/1 74/15/1
f 77/15/2 79/16/2 78/13/2
f 79/16/2 80/14/2 78/13/2
f 81/17/3 83/1/3 82/17/3
f 83/1/3 84/1/3 82/17/3
f 85/1/4 87/17/4 86/1/4
f 87/17/4 88/17/4 86/1/4
f 89/1/5 91/8/5 90/1/5
f 91/8/5 92/8/5 90/1/5
f 93/1/6 95/8/6 94/1/6
f 95/8/6 96/8/6 94/1/6
f 97/1/1 99/8/1 98/1/1
f 99/8/1 100/8/1 98/1/1
f 101/1/2 103/8/2 102/1/2
f 103/8/2 104/8/2 102/1/2
f 105/7/3 107/7/3 106/1/3
f 107/7/3 108/1/3 106/1/3
f 109/7/4 111/7/4 110/1/4
f 111/7/4 112/1/4 110/1/4
f 113/18/5 115/19/5 114/20/5
f 115/19/5 116/21/5 114/20/5
f 117/20/6 119/21/6 118/18/6
f 119/21/6 120/19/6 118/18/6
o bulletModel_2
v 0.384615 2.692308 0.385385
v 1.153846 2.692308 0.385384
v 0.384615 2.307692 0.385385
v 1.153846 2.307692 0.385384
v 1.153846 2.692308 0.384615
v 0.384615 2.692308 0.384615
v 1.153846 2.307692 0.384615
v 0.384615 2.307692 0.384615
v 1.153846 2.692308 0.384615
v 1.153846 2.692308 0.385384
v 0.384615 2.692308 0.384615
v 0.384615 2.692308 0.385385
v 0.384615 2.307692 0.384615
v 0.384615 2.307692 0.385385
v 1.153846 2.307692 0.384615
v 1.153846 2.307692 0.385384
v 0.384615 2.692308 0.384615
v 0.384615 2.692308 0.385385
v 0.384615 2.307692 0.384615
v 0.384615 2.307692 0.385385
v 1.153846 2.692308 0.385384
v 1.153846 2.692308 0.384615
v 1.153846 2.307692 0.385384
v 1.153846 2.307692 0.384615
v 0.384615 2.692308 -0.383846
v 1.153846 2.692308 -0.383846
v 0.384615 2.307692 -0.383846
v 1.153846 2.307692 -0.383846
v 1.153846 2.692308 -0.384616
v 0.384615 2.692308 -0.384615
v 1.153846 2.307692 -0.384616
v 0.384615 2.307692 -0.384615
v 1.153846 2.692308 -0.384616
v 1.153846 2.692308 -0.383846
v 0.384615 2.692308 -0.384615
v 0.384615 2.692308 -0.383846
v 0.384615 2.307692 -0.384615
v 0.384615 2.307692 -0.383846
v 1.153846 2.307692 -0.384616
v 1.153846 2.307692 -0.383846
v 0.384615 2.692308 -0.384615
v 0.384615 2.692308 -0.383846
v 0.384615 2.307692 -0.384615
v 0.384615 2.307692 -0.383846
v 1.153846 2.692308 -0.383846
v 1.153846 2.692308 -0.384616
v 1.153846 2.307692 -0.383846
v 1.153846 2.307692 -0.384616
vn -0.0000 -0.0000 1.0000
vn -0.0000 -0.0000 -1.0000
vn -0.0000 1.0000 -0.0000
vn -0.0000 -1.0000 -0.0000
vn -1.0000 -0.0000 -0.0000
vn 1.0000 -0.0000 -0.0000
vt 0.031250 0.484375
vt 0.031250 0.468750
vt 0.000000 0.484375
vt 0.000000 0.468750
s 1
usemtl Material_0
f 121/22/7 123/23/7 122/24/7
f 123/23/7 124/25/7 122/24/7
f 125/24/8 127/25/8 126/22/8
f 127/25/8 128/23/8 126/22/8
f 129/24/9 131/25/9 130/22/9
f 131/25/9 132/23/9 130/22/9
f 133/24/10 135/25/10 134/22/10
f 135/25/10 136/23/10 134/22/10
f 137/24/11 139/25/11 138/22/11
f 139/25/11 140/23/11 138/22/11
f 141/24/12 143/25/12 142/22/12
f 143/25/12 144/23/12 142/22/12
f 145/24/7 147/25/7 146/22/7
f 147/25/7 148/23/7 146/22/7
f 149/24/8 151/25/8 150/22/8
f 151/25/8 152/23/8 150/22/8
f 153/24/9 155/25/9 154/22/9
f 155/25/9 156/23/9 154/22/9
f 157/24/10 159/25/10 158/22/10
f 159/25/10 160/23/10 158/22/10
f 161/24/11 163/25/11 162/22/11
f 163/25/11 164/23/11 162/22/11
f 165/24/12 167/25/12 166/22/12
f 167/25/12 168/23/12 166/22/12
o bulletModel_0
v 0.716700 3.238231 0.192308
v 1.101315 3.238231 0.192307
v 0.716700 2.815154 0.192308
v 1.101315 2.815154 0.192307
v 1.101315 3.238231 -0.230769
v 0.716700 3.238231 -0.230769
v 1.101315 2.815154 -0.230769
v 0.716700 2.815154 -0.230769
v 1.101315 3.238231 -0.230769
v 1.101315 3.238231 0.192307
v 0.716700 3.238231 -0.230769
v 0.716700 3.238231 0.192308
v 0.716700 2.815154 -0.230769
v 0.716700 2.815154 0.192308
v 1.101315 2.815154 -0.230769
v 1.101315 2.815154 0.192307
v 0.716700 3.238231 -0.230769
v 0.716700 3.238231 0.192308
v 0.716700 2.815154 -0.230769
v 0.716700 2.815154 0.192308
v 1.101315 3.238231 0.192307
v 1.101315 3.238231 -0.230769
v 1.101315 2.815154 0.192307
v 1.101315 2.815154 -0.230769
v 0.082085 3.276692 0.230769
v 0.851315 3.276692 0.230769
v 0.082085 2.776692 0.230769
v 0.851315 2.776692 0.230769
v 0.851315 3.276692 -0.269231
v 0.082085 3.276692 -0.269231
v 0.851315 2.776692 -0.269231
v 0.082085 2.776692 -0.269231
v 0.851315 3.276692 -0.269231
v 0.851315 3.276692 0.230769
v 0.082085 3.276692 -0.269231
v 0.082085 3.276692 0.230769
v 0.082085 2.776692 -0.269231
v 0.082085 2.776692 0.230769
v 0.851315 2.776692 -0.269231
v 0.851315 2.776692 0.230769
v 0.082085 3.276692 -0.269231
v 0.082085 3.276692 0.230769
v 0.082085 2.776692 -0.269231
v 0.082085 2.776692 0.230769
v 0.851315 3.276692 0.230769
v 0.851315 3.276692 -0.269231
v 0.851315 2.776692 0.230769
v 0.851315 2.776692 -0.269231
vn -0.0000 -0.0000 1.0000
vn -0.0000 -0.0000 -1.0000
vn -0.0000 1.0000 -0.0000
vn -0.0000 -1.0000 -0.0000
vn -1.0000 -0.0000 -0.0000
vn 1.0000 -0.0000 -0.0000
vt 0.031250 0.500000
vt 0.031250 0.484375
vt 0.046875 0.500000
vt 0.046875 0.484375
vt 0.062500 0.500000
vt 0.062500 0.484375
vt 0.078125 0.500000
vt 0.078125 0.484375
vt 0.515625 0.921875
vt 0.515625 0.937500
vt 0.500000 0.921875
vt 0.500000 0.937500
vt 0.109375 0.500000
vt 0.109375 0.484375
vt 0.093750 0.500000
vt 0.093750 0.484375
vt 0.500000 0.968750
vt 0.500000 0.953125
vt 0.515625 0.968750
vt 0.515625 0.953125
vt 0.000000 0.500000
vt 0.000000 0.484375
vt 0.015625 0.500000
vt 0.015625 0.484375
vt 0.437500 0.875000
vt 0.437500 0.859375
vt 0.468750 0.875000
vt 0.468750 0.859375
vt 0.437500 0.843750
vt 0.437500 0.828125
vt 0.468750 0.843750
vt 0.468750 0.828125
vt 0.203125 0.531250
vt 0.203125 0.562500
vt 0.187500 0.531250
vt 0.187500 0.562500
vt 0.453125 0.812500
vt 0.453125 0.781250
vt 0.437500 0.812500
vt 0.437500 0.781250
vt 0.125000 0.500000
vt 0.125000 0.484375
vt 0.140625 0.500000
vt 0.140625 0.484375
vt 0.500000 0.906250
vt 0.500000 0.890625
vt 0.515625 0.906250
vt 0.515625 0.890625
s 1
usemtl Material_0
f 169/26/13 171/27/13 170/28/13
f 171/27/13 172/29/13 170/28/13
f 173/30/14 175/31/14 174/32/14
f 175/31/14 176/33/14 174/32/14
f 177/34/15 179/35/15 178/36/15
f 179/35/15 180/37/15 178/36/15
f 181/38/16 183/39/16 182/40/16
f 183/39/16 184/41/16 182/40/16
f 185/42/17 187/43/17 186/44/17
f 187/43/17 188/45/17 186/44/17
f 189/46/18 191/47/18 190/48/18
f 191/47/18 192/49/18 190/48/18
f 193/50/13 195/51/13 194/52/13
f 195/51/13 196/53/13 194/52/13
f 197/54/14 199/55/14 198/56/14
f 199/55/14 200/57/14 198/56/14
f 201/58/15 203/59/15 202/60/15
f 203/59/15 204/61/15 202/60/15
f 205/62/16 207/63/16 206/64/16
f 207/63/16 208/65/16 206/64/16
f 209/66/17 211/67/17 210/68/17
f 211/67/17 212/69/17 210/68/17
f 213/70/18 215/71/18 214/72/18
f 215/71/18 216/73/18 214/72/18
o bulletModel_1
v 0.716700 2.853616 0.192308
v 1.101315 2.853616 0.192307
v 0.716700 2.430538 0.192308
v 1.101315 2.430538 0.192307
v 1.101315 2.853616 -0.230769
v 0.716700 2.853616 -0.230769
v 1.101315 2.430538 -0.230769
v 0.716700 2.430538 -0.230769
v 1.101315 2.853616 -0.230769
v 1.101315 2.853616 0.192307
v 0.716700 2.853616 -0.230769
v 0.716700 2.853616 0.192308
v 0.716700 2.430538 -0.230769
v 0.716700 2.430538 0.192308
v 1.101315 2.430538 -0.230769
v 1.101315 2.430538 0.192307
v 0.716700 2.853616 -0.230769
v 0.716700 2.853616 0.192308
v 0.716700 2.430538 -0.230769
v 0.716700 2.430538 0.192308
v 1.101315 2.853616 0.192307
v 1.101315 2.853616 -0.230769
v 1.101315 2.430538 0.192307
v 1.101315 2.430538 -0.230769
v 0.082085 2.892077 0.230769
v 0.851315 2.892077 0.230769
v 0.082085 2.392077 0.230769
v 0.851315 2.392077 0.230769
v 0.851315 2.892077 -0.269231
v 0.082085 2.892077 -0.269231
v 0.851315 2.392077 -0.269231
v 0.082085 2.392077 -0.269231
v 0.851315 2.892077 -0.269231
v 0.851315 2.892077 0.230769
v 0.082085 2.892077 -0.269231
v 0.082085 2.892077 0.230769
v 0.082085 2.392077 -0.269231
v 0.082085 2.392077 0.230769
v 0.851315 2.392077 -0.269231
v 0.851315 2.392077 0.230769
v 0.082085 2.892077 -0.269231
v 0.082085 2.892077 0.230769
v 0.082085 2.392077 -0.269231
v 0.082085 2.392077 0.230769
v 0.851315 2.892077 0.230769
v 0.851315 2.892077 -0.269231
v 0.851315 2.392077 0.230769
v 0.851315 2.392077 -0.269231
vn -0.0000 -0.0000 1.0000
vn -0.0000 -0.0000 -1.0000
vn -0.0000 1.0000 -0.0000
vn -0.0000 -1.0000 -0.0000
vn -1.0000 -0.0000 -0.0000
vn 1.0000 -0.0000 -0.0000
vt 0.031250 0.500000
vt 0.031250 0.484375
vt 0.046875 0.500000
vt 0.046875 0.484375
vt 0.062500 0.500000
vt 0.062500 0.484375
vt 0.078125 0.500000
vt 0.078125 0.484375
vt 0.515625 0.921875
vt 0.515625 0.937500
vt 0.500000 0.921875
vt 0.500000 0.937500
vt 0.109375 0.500000
vt 0.109375 0.484375
vt 0.093750 0.500000
vt 0.093750 0.484375
vt 0.500000 0.968750
vt 0.500000 0.953125
vt 0.515625 0.968750
vt 0.515625 0.953125
vt 0.000000 0.500000
vt 0.000000 0.484375
vt 0.015625 0.500000
vt 0.015625 0.484375
vt 0.437500 0.875000
vt 0.437500 0.859375
vt 0.468750 0.875000
vt 0.468750 0.859375
vt 0.437500 0.843750
vt 0.437500 0.828125
vt 0.468750 0.843750
vt 0.468750 0.828125
vt 0.203125 0.531250
vt 0.203125 0.562500
vt 0.187500 0.531250
vt 0.187500 0.562500
vt 0.453125 0.812500
vt 0.453125 0.781250
vt 0.437500 0.812500
vt 0.437500 0.781250
vt 0.125000 0.500000
vt 0.125000 0.484375
vt 0.140625 0.500000
vt 0.140625 0.484375
vt 0.500000 0.906250
vt 0.500000 0.890625
vt 0.515625 0.906250
vt 0.515625 0.890625
s 1
usemtl Material_0
f 217/74/19 219/75/19 218/76/19
f 219/75/19 220/77/19 218/76/19
f 221/78/20 223/79/20 222/80/20
f 223/79/20 224/81/20 222/80/20
f 225/82/21 227/83/21 226/84/21
f 227/83/21 228/85/21 226/84/21
f 229/86/22 231/87/22 230/88/22
f 231/87/22 232/89/22 230/88/22
f 233/90/23 235/91/23 234/92/23
f 235/91/23 236/93/23 234/92/23
f 237/94/24 239/95/24 238/96/24
f 239/95/24 240/97/24 238/96/24
f 241/98/19 243/99/19 242/100/19
f 243/99/19 244/101/19 242/100/19
f 245/102/20 247/103/20 246/104/20
f 247/103/20 248/105/20 246/104/20
f 249/106/21 251/107/21 250/108/21
f 251/107/21 252/109/21 250/108/21
f 253/110/22 255/111/22 254/112/22
f 255/111/22 256/113/22 254/112/22
f 257/114/23 259/115/23 258/116/23
f 259/115/23 260/117/23 258/116/23
f 261/118/24 263/119/24 262/120/24
f 263/119/24 264/121/24 262/120/24
o bulletModel_3
v 0.384615 2.307692 0.385385
v 1.153846 2.307692 0.385384
v 0.384615 1.923077 0.385385
v 1.153846 1.923077 0.385384
v 1.153846 2.307692 0.384615
v 0.384615 2.307692 0.384615
v 1.153846 1.923077 0.384615
v 0.384615 1.923077 0.384615
v 1.153846 2.307692 0.384615
v 1.153846 2.307692 0.385384
v 0.384615 2.307692 0.384615
v 0.384615 2.307692 0.385385
v 0.384615 1.923077 0.384615
v 0.384615 1.923077 0.385385
v 1.153846 1.923077 0.384615
v 1.153846 1.923077 0.385384
v 0.384615 2.307692 0.384615
v 0.384615 2.307692 0.385385
v 0.384615 1.923077 0.384615
v 0.384615 1.923077 0.385385
v 1.153846 2.307692 0.385384
v 1.153846 2.307692 0.384615
v 1.153846 1.923077 0.385384
v 1.153846 1.923077 0.384615
v 0.384615 2.307692 -0.383846
v 1.153846 2.307692 -0.383846
v 0.384615 1.923077 -0.383846
v 1.153846 1.923077 -0.383846
v 1.153846 2.307692 -0.384616
v 0.384615 2.307692 -0.384615
v 1.153846 1.923077 -0.384616
v 0.384615 1.923077 -0.384615
v 1.153846 2.307692 -0.384616
v 1.153846 2.307692 -0.383846
v 0.384615 2.307692 -0.384615
v 0.384615 2.307692 -0.383846
v 0.384615 1.923077 -0.384615
v 0.384615 1.923077 -0.383846
v 1.153846 1.923077 -0.384616
v 1.153846 1.923077 -0.383846
v 0.384615 2.307692 -0.384615
v 0.384615 2.307692 -0.383846
v 0.384615 1.923077 -0.384615
v 0.384615 1.923077 -0.383846
v 1.153846 2.307692 -0.383846
v 1.153846 2.307692 -0.384616
v 1.153846 1.923077 -0.383846
v 1.153846 1.923077 -0.384616
vn -0.0000 -0.0000 1.0000
vn -0.0000 -0.0000 -1.0000
vn -0.0000 1.0000 -0.0000
vn -0.0000 -1.0000 -0.0000
vn -1.0000 -0.0000 -0.0000
vn 1.0000 -0.0000 -0.0000
vt 0.031250 0.468750
vt 0.031250 0.453125
vt 0.000000 0.468750
vt 0.000000 0.453125
s 1
usemtl Material_0
f 265/122/25 267/123/25 266/124/25
f 267/123/25 268/125/25 266/124/25
f 269/124/26 271/125/26 270/122/26
f 271/125/26 272/123/26 270/122/26
f 273/124/27 275/125/27 274/122/27
f 275/125/27 276/123/27 274/122/27
f 277/124/28 279/125/28 278/122/28
f 279/125/28 280/123/28 278/122/28
f 281/124/29 283/125/29 282/122/29
f 283/125/29 284/123/29 282/122/29
f 285/124/30 287/125/30 286/122/30
f 287/125/30 288/123/30 286/122/30
f 289/124/25 291/125/25 290/122/25
f 291/125/25 292/123/25 290/122/25
f 293/124/26 295/125/26 294/122/26
f 295/125/26 296/123/26 294/122/26
f 297/124/27 299/125/27 298/122/27
f 299/125/27 300/123/27 298/122/27
f 301/124/28 303/125/28 302/122/28
f 303/125/28 304/123/28 302/122/28
f 305/124/29 307/125/29 306/122/29
f 307/125/29 308/123/29 306/122/29
f 309/124/30 311/125/30 310/122/30
f 311/125/30 312/123/30 310/122/30
o bulletModel_4
v 0.384615 1.923077 -0.383846
v 1.153846 1.923077 -0.383846
v 0.384615 1.538462 -0.383846
v 1.153846 1.538462 -0.383846
v 1.153846 1.923077 -0.384616
v 0.384615 1.923077 -0.384615
v 1.153846 1.538462 -0.384616
v 0.384615 1.538462 -0.384615
v 1.153846 1.923077 -0.384616
v 1.153846 1.923077 -0.383846
v 0.384615 1.923077 -0.384615
v 0.384615 1.923077 -0.383846
v 0.384615 1.538462 -0.384615
v 0.384615 1.538462 -0.383846
v 1.153846 1.538462 -0.384616
v 1.153846 1.538462 -0.383846
v 0.384615 1.923077 -0.384615
v 0.384615 1.923077 -0.383846
v 0.384615 1.538462 -0.384615
v 0.384615 1.538462 -0.383846
v 1.153846 1.923077 -0.383846
v 1.153846 1.923077 -0.384616
v 1.153846 1.538462 -0.383846
v 1.153846 1.538462 -0.384616
v 0.384615 1.923077 0.385385
v 1.153846 1.923077 0.385384
v 0.384615 1.538462 0.385385
v 1.153846 1.538462 0.385384
v 1.153846 1.923077 0.384615
v 0.384615 1.923077 0.384615
v 1.153846 1.538462 0.384615
v 0.384615 1.538462 0.384615
v 1.153846 1.923077 0.384615
v 1.153846 1.923077 0.385384
v 0.384615 1.923077 0.384615
v 0.384615 1.923077 0.385385
v 0.384615 1.538462 0.384615
v 0.384615 1.538462 0.385385
v 1.153846 1.538462 0.384615
v 1.153846 1.538462 0.385384
v 0.384615 1.923077 0.384615
v 0.384615 1.923077 0.385385
v 0.384615 1.538462 0.384615
v 0.384615 1.538462 0.385385
v 1.153846 1.923077 0.385384
v 1.153846 1.923077 0.384615
v 1.153846 1.538462 0.385384
v 1.153846 1.538462 0.384615
vn -0.0000 -0.0000 1.0000
vn -0.0000 -0.0000 -1.0000
vn -0.0000 1.0000 -0.0000
vn -0.0000 -1.0000 -0.0000
vn -1.0000 -0.0000 -0.0000
vn 1.0000 -0.0000 -0.0000
vt 0.000000 0.484375
vt 0.000000 0.468750
vt 0.031250 0.484375
vt 0.031250 0.468750
s 1
usemtl Material_0
f 313/126/31 315/127/31 314/128/31
f 315/127/31 316/129/31 314/128/31
f 317/126/32 319/127/32 318/128/32
f 319/127/32 320/129/32 318/128/32
f 321/126/33 323/127/33 322/128/33
f 323/127/33 324/129/33 322/128/33
f 325/126/34 327/127/34 326/128/34
f 327/127/34 328/129/34 326/128/34
f 329/126/35 331/127/35 330/128/35
f 331/127/35 332/129/35 330/128/35
f 333/126/36 335/127/36 334/128/36
f 335/127/36 336/129/36 334/128/36
f 337/128/31 339/129/31 338/126/31
f 339/129/31 340/127/31 338/126/31
f 341/126/32 343/127/32 342/128/32
f 343/127/32 344/129/32 342/128/32
f 345/126/33 347/127/33 346/128/33
f 347/127/33 348/129/33 346/128/33
f 349/126/34 351/127/34 350/128/34
f 351/127/34 352/129/34 350/128/34
f 353/126/35 355/127/35 354/128/35
f 355/127/35 356/129/35 354/128/35
f 357/126/36 359/127/36 358/128/36
f 359/127/36 360/129/36 358/128/36
o bulletModel_5
v 0.384615 1.538462 -0.383846
v 1.153846 1.538462 -0.383846
v 0.384615 1.153846 -0.383846
v 1.153846 1.153846 -0.383846
v 1.153846 1.538462 -0.384616
v 0.384615 1.538462 -0.384615
v 1.153846 1.153846 -0.384616
v 0.384615 1.153846 -0.384615
v 1.153846 1.538462 -0.384616
v 1.153846 1.538462 -0.383846
v 0.384615 1.538462 -0.384615
v 0.384615 1.538462 -0.383846
v 0.384615 1.153846 -0.384615
v 0.384615 1.153846 -0.383846
v 1.153846 1.153846 -0.384616
v 1.153846 1.153846 -0.383846
v 0.384615 1.538462 -0.384615
v 0.384615 1.538462 -0.383846
v 0.384615 1.153846 -0.384615
v 0.384615 1.153846 -0.383846
v 1.153846 1.538462 -0.383846
v 1.153846 1.538462 -0.384616
v 1.153846 1.153846 -0.383846
v 1.153846 1.153846 -0.384616
v 0.384615 1.538462 0.385385
v 1.153846 1.538462 0.385384
v 0.384615 1.153846 0.385385
v 1.153846 1.153846 0.385384
v 1.153846 1.538462 0.384615
v 0.384615 1.538462 0.384615
v 1.153846 1.153846 0.384615
v 0.384615 1.153846 0.384615
v 1.153846 1.538462 0.384615
v 1.153846 1.538462 0.385384
v 0.384615 1.538462 0.384615
v 0.384615 1.538462 0.385385
v 0.384615 1.153846 0.384615
v 0.384615 1.153846 0.385385
v 1.153846 1.153846 0.384615
v 1.153846 1.153846 0.385384
v 0.384615 1.538462 0.384615
v 0.384615 1.538462 0.385385
v 0.384615 1.153846 0.384615
v 0.384615 1.153846 0.385385
v 1.153846 1.538462 0.385384
v 1.153846 1.538462 0.384615
v 1.153846 1.153846 0.385384
v 1.153846 1.153846 0.384615
vn -0.0000 -0.0000 1.0000
vn -0.0000 -0.0000 -1.0000
vn -0.0000 1.0000 -0.0000
vn -0.0000 -1.0000 -0.0000
vn -1.0000 -0.0000 -0.0000
vn 1.0000 -0.0000 -0.0000
vt 0.000000 0.468750
vt 0.000000 0.453125
vt 0.031250 0.468750
vt 0.031250 0.453125
s 1
usemtl Material_0
f 361/130/37 363/131/37 362/132/37
f 363/131/37 364/133/37 362/132/37
f 365/130/38 367/131/38 366/132/38
f 367/131/38 368/133/38 366/132/38
f 369/130/39 371/131/39 370/132/39
f 371/131/39 372/133/39 370/132/39
f 373/130/40 375/131/40 374/132/40
f 375/131/40 376/133/40 374/132/40
f 377/130/41 379/131/41 378/132/41
f 379/131/41 380/133/41 378/132/41
f 381/130/42 383/131/42 382/132/42
f 383/131/42 384/133/42 382/132/42
f 385/132/37 387/133/37 386/130/37
f 387/133/37 388/131/37 386/130/37
f 389/130/38 391/131/38 390/132/38
f 391/131/38 392/133/38 390/132/38
f 393/130/39 395/131/39 394/132/39
f 395/131/39 396/133/39 394/132/39
f 397/130/40 399/131/40 398/132/40
f 399/131/40 400/133/40 398/132/40
f 401/130/41 403/131/41 402/132/41
f 403/131/41 404/133/41 402/132/41
f 405/130/42 407/131/42 406/132/42
f 407/131/42 408/133/42 406/132/42
o bulletModel_6
v 0.384615 1.153846 -0.383846
v 1.153846 1.153846 -0.383846
v 0.384615 0.769231 -0.383846
v 1.153846 0.769231 -0.383846
v 1.153846 1.153846 -0.384616
v 0.384615 1.153846 -0.384615
v 1.153846 0.769231 -0.384616
v 0.384615 0.769231 -0.384615
v 1.153846 1.153846 -0.384616
v 1.153846 1.153846 -0.383846
v 0.384615 1.153846 -0.384615
v 0.384615 1.153846 -0.383846
v 0.384615 0.769231 -0.384615
v 0.384615 0.769231 -0.383846
v 1.153846 0.769231 -0.384616
v 1.153846 0.769231 -0.383846
v 0.384615 1.153846 -0.384615
v 0.384615 1.153846 -0.383846
v 0.384615 0.769231 -0.384615
v 0.384615 0.769231 -0.383846
v 1.153846 1.153846 -0.383846
v 1.153846 1.153846 -0.384616
v 1.153846 0.769231 -0.383846
v 1.153846 0.769231 -0.384616
v 0.384615 1.153846 0.385385
v 1.153846 1.153846 0.385384
v 0.384615 0.769231 0.385385
v 1.153846 0.769231 0.385384
v 1.153846 1.153846 0.384615
v 0.384615 1.153846 0.384615
v 1.153846 0.769231 0.384615
v 0.384615 0.769231 0.384615
v 1.153846 1.153846 0.384615
v 1.153846 1.153846 0.385384
v 0.384615 1.153846 0.384615
v 0.384615 1.153846 0.385385
v 0.384615 0.769231 0.384615
v 0.384615 0.769231 0.385385
v 1.153846 0.769231 0.384615
v 1.153846 0.769231 0.385384
v 0.384615 1.153846 0.384615
v 0.384615 1.153846 0.385385
v 0.384615 0.769231 0.384615
v 0.384615 0.769231 0.385385
v 1.153846 1.153846 0.385384
v 1.153846 1.153846 0.384615
v 1.153846 0.769231 0.385384
v 1.153846 0.769231 0.384615
vn -0.0000 -0.0000 1.0000
vn -0.0000 -0.0000 -1.0000
vn -0.0000 1.0000 -0.0000
vn -0.0000 -1.0000 -0.0000
vn -1.0000 -0.0000 -0.0000
vn 1.0000 -0.0000 -0.0000
vt 0.000000 0.484375
vt 0.000000 0.468750
vt 0.031250 0.484375
vt 0.031250 0.468750
s 1
usemtl Material_0
f 409/134/43 411/135/43 410/136/43
f 411/135/43 412/137/43 410/136/43
f 413/134/44 415/135/44 414/136/44
f 415/135/44 416/137/44 414/136/44
f 417/134/45 419/135/45 418/136/45
f 419/135/45 420/137/45 418/136/45
f 421/134/46 423/135/46 422/136/46
f 423/135/46 424/137/46 422/136/46
f 425/134/47 427/135/47 426/136/47
f 427/135/47 428/137/47 426/136/47
f 429/134/48 431/135/48 430/136/48
f 431/135/48 432/137/48 430/136/48
f 433/136/43 435/137/43 434/134/43
f 435/137/43 436/135/43 434/134/43
f 437/134/44 439/135/44 438/136/44
f 439/135/44 440/137/44 438/136/44
f 441/134/45 443/135/45 442/136/45
f 443/135/45 444/137/45 442/136/45
f 445/134/46 447/135/46 446/136/46
f 447/135/46 448/137/46 446/136/46
f 449/134/47 451/135/47 450/136/47
f 451/135/47 452/137/47 450/136/47
f 453/134/48 455/135/48 454/136/48
f 455/135/48 456/137/48 454/136/48
o bulletModel_7
v 0.384615 0.769231 -0.383846
v 1.153846 0.769231 -0.383846
v 0.384615 0.384615 -0.383846
v 1.153846 0.384615 -0.383846
v 1.153846 0.769231 -0.384616
v 0.384615 0.769231 -0.384615
v 1.153846 0.384615 -0.384616
v 0.384615 0.384615 -0.384615
v 1.153846 0.769231 -0.384616
v 1.153846 0.769231 -0.383846
v 0.384615 0.769231 -0.384615
v 0.384615 0.769231 -0.383846
v 0.384615 0.384615 -0.384615
v 0.384615 0.384615 -0.383846
v 1.153846 0.384615 -0.384616
v 1.153846 0.384615 -0.383846
v 0.384615 0.769231 -0.384615
v 0.384615 0.769231 -0.383846
v 0.384615 0.384615 -0.384615
v 0.384615 0.384615 -0.383846
v 1.153846 0.769231 -0.383846
v 1.153846 0.769231 -0.384616
v 1.153846 0.384615 -0.383846
v 1.153846 0.384615 -0.384616
v 0.384615 0.769231 0.385385
v 1.153846 0.769231 0.385384
v 0.384615 0.384615 0.385385
v 1.153846 0.384615 0.385384
v 1.153846 0.769231 0.384615
v 0.384615 0.769231 0.384615
v 1.153846 0.384615 0.384615
v 0.384615 0.384615 0.384615
v 1.153846 0.769231 0.384615
v 1.153846 0.769231 0.385384
v 0.384615 0.769231 0.384615
v 0.384615 0.769231 0.385385
v 0.384615 0.384615 0.384615
v 0.384615 0.384615 0.385385
v 1.153846 0.384615 0.384615
v 1.153846 0.384615 0.385384
v 0.384615 0.769231 0.384615
v 0.384615 0.769231 0.385385
v 0.384615 0.384615 0.384615
v 0.384615 0.384615 0.385385
v 1.153846 0.769231 0.385384
v 1.153846 0.769231 0.384615
v 1.153846 0.384615 0.385384
v 1.153846 0.384615 0.384615
vn -0.0000 -0.0000 1.0000
vn -0.0000 -0.0000 -1.0000
vn -0.0000 1.0000 -0.0000
vn -0.0000 -1.0000 -0.0000
vn -1.0000 -0.0000 -0.0000
vn 1.0000 -0.0000 -0.0000
vt 0.000000 0.468750
vt 0.000000 0.453125
vt 0.031250 0.468750
vt 0.031250 0.453125
s 1
usemtl Material_0
f 457/138/49 459/139/49 458/140/49
f 459/139/49 460/141/49 458/140/49
f 461/138/50 463/139/50 462/140/50
f 463/139/50 464/141/50 462/140/50
f 465/138/51 467/139/51 466/140/51
f 467/139/51 468/141/51 466/140/51
f 469/138/52 471/139/52 470/140/52
f 471/139/52 472/141/52 470/140/52
f 473/138/53 475/139/53 474/140/53
f 475/139/53 476/141/53 474/140/53
f 477/138/54 479/139/54 478/140/54
f 479/139/54 480/141/54 478/140/54
f 481/140/49 483/141/49 482/138/49
f 483/141/49 484/139/49 482/138/49
f 485/138/50 487/139/50 486/140/50
f 487/139/50 488/141/50 486/140/50
f 489/138/51 491/139/51 490/140/51
f 491/139/51 492/141/51 490/140/51
f 493/138/52 495/139/52 494/140/52
f 495/139/52 496/141/52 494/140/52
f 497/138/53 499/139/53 498/140/53
f 499/139/53 500/141/53 498/140/53
f 501/138/54 503/139/54 502/140/54
f 503/139/54 504/141/54 502/140/54
