# Blender 4.3.2
# www.blender.org
mtllib lev.g3mag30.mtl
o ammoModel
v 2.306923 0.000000 0.384615
v 2.307692 0.000000 0.384615
v 2.306923 -5.769231 0.384615
v 2.307692 -5.769231 0.384615
v 2.307692 0.000000 -0.384616
v 2.306923 0.000000 -0.384616
v 2.307692 -5.769231 -0.384616
v 2.306923 -5.769231 -0.384616
v 2.307692 0.000000 -0.384616
v 2.307692 0.000000 0.384615
v 2.306923 0.000000 -0.384616
v 2.306923 0.000000 0.384615
v 2.306923 -5.769231 -0.384616
v 2.306923 -5.769231 0.384615
v 2.307692 -5.769231 -0.384616
v 2.307692 -5.769231 0.384615
v 2.306923 0.000000 -0.384616
v 2.306923 0.000000 0.384615
v 2.306923 -5.769231 -0.384616
v 2.306923 -5.769231 0.384615
v 2.307692 0.000000 0.384615
v 2.307692 0.000000 -0.384616
v 2.307692 -5.769231 0.384615
v 2.307692 -5.769231 -0.384616
v 0.000000 -5.768462 0.384615
v 2.307692 -5.768462 0.384615
v 0.000000 -5.769231 0.384615
v 2.307692 -5.769231 0.384615
v 2.307692 -5.768462 -0.384616
v -0.000000 -5.768462 -0.384615
v 2.307692 -5.769231 -0.384616
v -0.000000 -5.769231 -0.384615
v 2.307692 -5.768462 -0.384616
v 2.307692 -5.768462 0.384615
v -0.000000 -5.768462 -0.384615
v 0.000000 -5.768462 0.384615
v -0.000000 -5.769231 -0.384615
v 0.000000 -5.769231 0.384615
v 2.307692 -5.769231 -0.384616
v 2.307692 -5.769231 0.384615
v -0.000000 -5.768462 -0.384615
v 0.000000 -5.768462 0.384615
v -0.000000 -5.769231 -0.384615
v 0.000000 -5.769231 0.384615
v 2.307692 -5.768462 0.384615
v 2.307692 -5.768462 -0.384616
v 2.307692 -5.769231 0.384615
v 2.307692 -5.769231 -0.384616
v -0.000000 0.000000 -0.383846
v 2.307692 0.000000 -0.383847
v -0.000000 -5.769231 -0.383846
v 2.307692 -5.769231 -0.383847
v 2.307692 0.000000 -0.384616
v -0.000000 0.000000 -0.384615
v 2.307692 -5.769231 -0.384616
v -0.000000 -5.769231 -0.384615
v 2.307692 0.000000 -0.384616
v 2.307692 0.000000 -0.383847
v -0.000000 0.000000 -0.384615
v -0.000000 0.000000 -0.383846
v -0.000000 -5.769231 -0.384615
v -0.000000 -5.769231 -0.383846
v 2.307692 -5.769231 -0.384616
v 2.307692 -5.769231 -0.383847
v -0.000000 0.000000 -0.384615
v -0.000000 0.000000 -0.383846
v -0.000000 -5.769231 -0.384615
v -0.000000 -5.769231 -0.383846
v 2.307692 0.000000 -0.383847
v 2.307692 0.000000 -0.384616
v 2.307692 -5.769231 -0.383847
v 2.307692 -5.769231 -0.384616
v 0.000000 0.000000 0.385385
v 2.307692 0.000000 0.385384
v 0.000000 -5.769231 0.385385
v 2.307692 -5.769231 0.385384
v 2.307692 0.000000 0.384615
v 0.000000 0.000000 0.384615
v 2.307692 -5.769231 0.384615
v 0.000000 -5.769231 0.384615
v 2.307692 0.000000 0.384615
v 2.307692 0.000000 0.385384
v 0.000000 0.000000 0.384615
v 0.000000 0.000000 0.385385
v 0.000000 -5.769231 0.384615
v 0.000000 -5.769231 0.385385
v 2.307692 -5.769231 0.384615
v 2.307692 -5.769231 0.385384
v 0.000000 0.000000 0.384615
v 0.000000 0.000000 0.385385
v 0.000000 -5.769231 0.384615
v 0.000000 -5.769231 0.385385
v 2.307692 0.000000 0.385384
v 2.307692 0.000000 0.384615
v 2.307692 -5.769231 0.385384
v 2.307692 -5.769231 0.384615
v -0.000769 0.000000 0.384615
v 0.000000 0.000000 0.384615
v -0.000769 -5.769231 0.384615
v 0.000000 -5.769231 0.384615
v -0.000000 0.000000 -0.384615
v -0.000769 0.000000 -0.384615
v -0.000000 -5.769231 -0.384615
v -0.000769 -5.769231 -0.384615
v -0.000000 0.000000 -0.384615
v 0.000000 0.000000 0.384615
v -0.000769 0.000000 -0.384615
v -0.000769 0.000000 0.384615
v -0.000769 -5.769231 -0.384615
v -0.000769 -5.769231 0.384615
v -0.000000 -5.769231 -0.384615
v 0.000000 -5.769231 0.384615
v -0.000769 0.000000 -0.384615
v -0.000769 0.000000 0.384615
v -0.000769 -5.769231 -0.384615
v -0.000769 -5.769231 0.384615
v 0.000000 0.000000 0.384615
v -0.000000 0.000000 -0.384615
v 0.000000 -5.769231 0.384615
v -0.000000 -5.769231 -0.384615
vn -0.0000 -0.0000 1.0000
vn -0.0000 -0.0000 -1.0000
vn -0.0000 1.0000 -0.0000
vn -0.0000 -1.0000 -0.0000
vn -1.0000 -0.0000 -0.0000
vn 1.0000 -0.0000 -0.0000
vt 0.000000 1.000000
vt 0.000000 0.531250
vt 0.062500 1.000000
vt 0.375000 0.500000
vt 0.375000 0.031250
vt 0.437500 0.500000
vt 0.437500 0.031250
vt 0.312500 0.500000
vt 0.312500 0.031250
vt 0.187500 1.000000
vt 0.500000 0.312500
vt 0.500000 0.500000
vt 0.437500 0.312500
vt 0.562500 0.500000
vt 0.562500 0.312500
vt 0.187500 0.531250
vt 0.375000 1.000000
vt 0.375000 0.531250
vt 0.000000 0.812500
vt 0.000000 0.500000
vt 0.000000 0.031250
vt 0.187500 0.500000
vt 0.187500 0.031250
vt 0.250000 0.500000
vt 0.250000 0.031250
s 0
usemtl Material_0
f 1/1/1 3/2/1 2/1/1
f 3/2/1 4/2/1 2/1/1
f 5/1/2 7/2/2 6/1/2
f 7/2/2 8/2/2 6/1/2
f 9/3/3 11/3/3 10/1/3
f 11/3/3 12/1/3 10/1/3
f 13/3/4 15/3/4 14/1/4
f 15/3/4 16/1/4 14/1/4
f 17/4/5 19/5/5 18/6/5
f 19/5/5 20/7/5 18/6/5
f 21/8/6 23/9/6 22/4/6
f 23/9/6 24/5/6 22/4/6
f 25/1/1 27/1/1 26/10/1
f 27/1/1 28/10/1 26/10/1
f 29/1/2 31/1/2 30/10/2
f 31/1/2 32/10/2 30/10/2
f 33/11/3 35/12/3 34/13/3
f 35/12/3 36/6/3 34/13/3
f 37/14/4 39/15/4 38/12/4
f 39/15/4 40/11/4 38/12/4
f 41/1/5 43/1/5 42/3/5
f 43/1/5 44/3/5 42/3/5
f 45/1/6 47/1/6 46/3/6
f 47/1/6 48/3/6 46/3/6
f 49/1/1 51/2/1 50/10/1
f 51/2/1 52/16/1 50/10/1
f 53/10/2 55/16/2 54/17/2
f 55/16/2 56/18/2 54/17/2
f 57/19/3 59/1/3 58/19/3
f 59/1/3 60/1/3 58/19/3
f 61/1/4 63/19/4 62/1/4
f 63/19/4 64/19/4 62/1/4
f 65/1/5 67/2/5 66/1/5
f 67/2/5 68/2/5 66/1/5
f 69/1/6 71/2/6 70/1/6
f 71/2/6 72/2/6 70/1/6
f 73/17/1 75/18/1 74/10/1
f 75/18/1 76/16/1 74/10/1
f 77/20/2 79/21/2 78/22/2
f 79/21/2 80/23/2 78/22/2
f 81/19/3 83/1/3 82/19/3
f 83/1/3 84/1/3 82/19/3
f 85/1/4 87/19/4 86/1/4
f 87/19/4 88/19/4 86/1/4
f 89/1/5 91/2/5 90/1/5
f 91/2/5 92/2/5 90/1/5
f 93/1/6 95/2/6 94/1/6
f 95/2/6 96/2/6 94/1/6
f 97/1/1 99/2/1 98/1/1
f 99/2/1 100/2/1 98/1/1
f 101/1/2 103/2/2 102/1/2
f 103/2/2 104/2/2 102/1/2
f 105/3/3 107/3/3 106/1/3
f 107/3/3 108/1/3 106/1/3
f 109/3/4 111/3/4 110/1/4
f 111/3/4 112/1/4 110/1/4
f 113/24/5 115/25/5 114/8/5
f 115/25/5 116/9/5 114/8/5
f 117/22/6 119/23/6 118/24/6
f 119/23/6 120/25/6 118/24/6
o bulletModel_0
v 1.923077 -0.096154 0.288461
v 2.288461 -0.096154 0.288461
v 1.923077 -0.480769 0.288461
v 2.288461 -0.480769 0.288461
v 2.288461 -0.096154 -0.096154
v 1.923077 -0.096154 -0.096154
v 2.288461 -0.480769 -0.096154
v 1.923077 -0.480769 -0.096154
v 2.288461 -0.096154 -0.096154
v 2.288461 -0.096154 0.288461
v 1.923077 -0.096154 -0.096154
v 1.923077 -0.096154 0.288461
v 1.923077 -0.480769 -0.096154
v 1.923077 -0.480769 0.288461
v 2.288461 -0.480769 -0.096154
v 2.288461 -0.480769 0.288461
v 1.923077 -0.096154 -0.096154
v 1.923077 -0.096154 0.288461
v 1.923077 -0.480769 -0.096154
v 1.923077 -0.480769 0.288461
v 2.288461 -0.096154 0.288461
v 2.288461 -0.096154 -0.096154
v 2.288461 -0.480769 0.288461
v 2.288461 -0.480769 -0.096154
v 1.538462 -0.057692 0.326923
v 1.923077 -0.057692 0.326923
v 1.538462 -0.519231 0.326923
v 1.923077 -0.519231 0.326923
v 1.923077 -0.057692 -0.134616
v 1.538461 -0.057692 -0.134616
v 1.923077 -0.519231 -0.134616
v 1.538461 -0.519231 -0.134616
v 1.923077 -0.057692 -0.134616
v 1.923077 -0.057692 0.326923
v 1.538461 -0.057692 -0.134616
v 1.538462 -0.057692 0.326923
v 1.538461 -0.519231 -0.134616
v 1.538462 -0.519231 0.326923
v 1.923077 -0.519231 -0.134616
v 1.923077 -0.519231 0.326923
v 1.538461 -0.057692 -0.134616
v 1.538462 -0.057692 0.326923
v 1.538461 -0.519231 -0.134616
v 1.538462 -0.519231 0.326923
v 1.923077 -0.057692 0.326923
v 1.923077 -0.057692 -0.134616
v 1.923077 -0.519231 0.326923
v 1.923077 -0.519231 -0.134616
v 0.019231 0.000000 0.384615
v 1.538462 0.000000 0.384615
v 0.019231 -0.576923 0.384615
v 1.538462 -0.576923 0.384615
v 1.538461 0.000000 -0.192308
v 0.019231 0.000000 -0.192308
v 1.538461 -0.576923 -0.192308
v 0.019231 -0.576923 -0.192308
v 1.538461 0.000000 -0.192308
v 1.538462 0.000000 0.384615
v 0.019231 0.000000 -0.192308
v 0.019231 0.000000 0.384615
v 0.019231 -0.576923 -0.192308
v 0.019231 -0.576923 0.384615
v 1.538461 -0.576923 -0.192308
v 1.538462 -0.576923 0.384615
v 0.019231 0.000000 -0.192308
v 0.019231 0.000000 0.384615
v 0.019231 -0.576923 -0.192308
v 0.019231 -0.576923 0.384615
v 1.538462 0.000000 0.384615
v 1.538461 0.000000 -0.192308
v 1.538462 -0.576923 0.384615
v 1.538461 -0.576923 -0.192308
v 1.923077 -0.480769 0.115384
v 2.288461 -0.480769 0.115384
v 1.923077 -0.865385 0.115384
v 2.288461 -0.865385 0.115384
v 2.288461 -0.480769 -0.269231
v 1.923077 -0.480769 -0.269231
v 2.288461 -0.865385 -0.269231
v 1.923077 -0.865385 -0.269231
v 2.288461 -0.480769 -0.269231
v 2.288461 -0.480769 0.115384
v 1.923077 -0.480769 -0.269231
v 1.923077 -0.480769 0.115384
v 1.923077 -0.865385 -0.269231
v 1.923077 -0.865385 0.115384
v 2.288461 -0.865385 -0.269231
v 2.288461 -0.865385 0.115384
v 1.923077 -0.480769 -0.269231
v 1.923077 -0.480769 0.115384
v 1.923077 -0.865385 -0.269231
v 1.923077 -0.865385 0.115384
v 2.288461 -0.480769 0.115384
v 2.288461 -0.480769 -0.269231
v 2.288461 -0.865385 0.115384
v 2.288461 -0.865385 -0.269231
v 1.538461 -0.442308 0.153846
v 1.923077 -0.442308 0.153846
v 1.538461 -0.903846 0.153846
v 1.923077 -0.903846 0.153846
v 1.923077 -0.442308 -0.307693
v 1.538461 -0.442308 -0.307693
v 1.923077 -0.903846 -0.307693
v 1.538461 -0.903846 -0.307693
v 1.923077 -0.442308 -0.307693
v 1.923077 -0.442308 0.153846
v 1.538461 -0.442308 -0.307693
v 1.538461 -0.442308 0.153846
v 1.538461 -0.903846 -0.307693
v 1.538461 -0.903846 0.153846
v 1.923077 -0.903846 -0.307693
v 1.923077 -0.903846 0.153846
v 1.538461 -0.442308 -0.307693
v 1.538461 -0.442308 0.153846
v 1.538461 -0.903846 -0.307693
v 1.538461 -0.903846 0.153846
v 1.923077 -0.442308 0.153846
v 1.923077 -0.442308 -0.307693
v 1.923077 -0.903846 0.153846
v 1.923077 -0.903846 -0.307693
v 0.019231 -0.384615 0.211538
v 1.538461 -0.384615 0.211538
v 0.019231 -0.961538 0.211538
v 1.538461 -0.961538 0.211538
v 1.538461 -0.384615 -0.365385
v 0.019231 -0.384615 -0.365385
v 1.538461 -0.961538 -0.365385
v 0.019231 -0.961538 -0.365385
v 1.538461 -0.384615 -0.365385
v 1.538461 -0.384615 0.211538
v 0.019231 -0.384615 -0.365385
v 0.019231 -0.384615 0.211538
v 0.019231 -0.961538 -0.365385
v 0.019231 -0.961538 0.211538
v 1.538461 -0.961538 -0.365385
v 1.538461 -0.961538 0.211538
v 0.019231 -0.384615 -0.365385
v 0.019231 -0.384615 0.211538
v 0.019231 -0.961538 -0.365385
v 0.019231 -0.961538 0.211538
v 1.538461 -0.384615 0.211538
v 1.538461 -0.384615 -0.365385
v 1.538461 -0.961538 0.211538
v 1.538461 -0.961538 -0.365385
vn -0.0000 -0.0000 1.0000
vn -0.0000 -0.0000 -1.0000
vn -0.0000 1.0000 -0.0000
vn -0.0000 -1.0000 -0.0000
vn -1.0000 -0.0000 -0.0000
vn 1.0000 -0.0000 -0.0000
vt 0.562500 0.312500
vt 0.562500 0.281250
vt 0.593750 0.312500
vt 0.593750 0.281250
vt 0.625000 0.312500
vt 0.625000 0.281250
vt 0.656250 0.312500
vt 0.656250 0.281250
vt 0.718750 0.343750
vt 0.718750 0.375000
vt 0.687500 0.343750
vt 0.687500 0.375000
vt 0.718750 0.312500
vt 0.718750 0.281250
vt 0.687500 0.312500
vt 0.687500 0.281250
vt 0.687500 0.437500
vt 0.687500 0.406250
vt 0.718750 0.437500
vt 0.718750 0.406250
vt 0.687500 0.500000
vt 0.687500 0.468750
vt 0.718750 0.500000
vt 0.718750 0.468750
vt 0.687500 0.687500
vt 0.687500 0.656250
vt 0.718750 0.687500
vt 0.718750 0.656250
vt 0.437500 0.312500
vt 0.437500 0.281250
vt 0.468750 0.312500
vt 0.468750 0.281250
vt 0.718750 0.531250
vt 0.718750 0.562500
vt 0.687500 0.531250
vt 0.687500 0.562500
vt 0.531250 0.312500
vt 0.531250 0.281250
vt 0.500000 0.312500
vt 0.500000 0.281250
vt 0.687500 0.625000
vt 0.687500 0.593750
vt 0.718750 0.625000
vt 0.718750 0.593750
vt 0.687500 0.750000
vt 0.687500 0.718750
vt 0.718750 0.750000
vt 0.718750 0.718750
vt 0.562500 1.000000
vt 0.562500 0.937500
vt 0.687500 1.000000
vt 0.687500 0.937500
vt 0.562500 0.875000
vt 0.687500 0.875000
vt 0.625000 0.750000
vt 0.625000 0.875000
vt 0.562500 0.750000
vt 0.625000 0.625000
vt 0.562500 0.625000
vt 0.625000 0.687500
vt 0.625000 0.375000
vt 0.625000 0.343750
vt 0.656250 0.375000
vt 0.656250 0.343750
vt 0.687500 0.906250
vt 0.718750 0.937500
vt 0.718750 0.906250
vt 0.718750 0.843750
vt 0.718750 0.875000
vt 0.687500 0.843750
vt 0.718750 0.812500
vt 0.718750 0.781250
vt 0.687500 0.812500
vt 0.687500 0.781250
vt 0.687500 0.968750
vt 0.718750 1.000000
vt 0.718750 0.968750
vt 0.625000 0.437500
vt 0.625000 0.406250
vt 0.656250 0.437500
vt 0.656250 0.406250
vt 0.750000 0.937500
vt 0.750000 0.906250
vt 0.781250 0.937500
vt 0.781250 0.906250
vt 0.750000 0.812500
vt 0.750000 0.781250
vt 0.781250 0.812500
vt 0.781250 0.781250
vt 0.781250 0.718750
vt 0.781250 0.750000
vt 0.750000 0.718750
vt 0.750000 0.750000
vt 0.781250 0.687500
vt 0.781250 0.656250
vt 0.750000 0.687500
vt 0.750000 0.656250
vt 0.750000 0.875000
vt 0.750000 0.843750
vt 0.781250 0.875000
vt 0.781250 0.843750
vt 0.750000 1.000000
vt 0.750000 0.968750
vt 0.781250 1.000000
vt 0.781250 0.968750
vt 0.562500 0.562500
vt 0.562500 0.500000
vt 0.625000 0.500000
vt 0.562500 0.375000
s 0
usemtl Material_0
f 121/26/7 123/27/7 122/28/7
f 123/27/7 124/29/7 122/28/7
f 125/30/8 127/31/8 126/32/8
f 127/31/8 128/33/8 126/32/8
f 129/34/9 131/35/9 130/36/9
f 131/35/9 132/37/9 130/36/9
f 133/38/10 135/39/10 134/40/10
f 135/39/10 136/41/10 134/40/10
f 137/42/11 139/43/11 138/44/11
f 139/43/11 140/45/11 138/44/11
f 141/46/12 143/47/12 142/48/12
f 143/47/12 144/49/12 142/48/12
f 145/50/7 147/51/7 146/52/7
f 147/51/7 148/53/7 146/52/7
f 149/54/8 151/55/8 150/56/8
f 151/55/8 152/57/8 150/56/8
f 153/58/9 155/59/9 154/60/9
f 155/59/9 156/61/9 154/60/9
f 157/62/10 159/63/10 158/64/10
f 159/63/10 160/65/10 158/64/10
f 161/66/11 163/67/11 162/68/11
f 163/67/11 164/69/11 162/68/11
f 165/70/12 167/71/12 166/72/12
f 167/71/12 168/73/12 166/72/12
f 169/74/7 171/75/7 170/76/7
f 171/75/7 172/77/7 170/76/7
f 173/75/8 175/78/8 174/77/8
f 175/78/8 176/79/8 174/77/8
f 177/80/9 179/81/9 178/82/9
f 179/81/9 180/78/9 178/82/9
f 181/80/10 183/83/10 182/82/10
f 183/83/10 184/84/10 182/82/10
f 185/85/11 187/83/11 186/50/11
f 187/83/11 188/66/11 186/50/11
f 189/80/12 191/85/12 190/70/12
f 191/85/12 192/50/12 190/70/12
f 193/86/7 195/87/7 194/88/7
f 195/87/7 196/89/7 194/88/7
f 197/77/8 199/90/8 198/91/8
f 199/90/8 200/92/8 198/91/8
f 201/93/9 203/94/9 202/95/9
f 203/94/9 204/79/9 202/95/9
f 205/96/10 207/97/10 206/98/10
f 207/97/10 208/99/10 206/98/10
f 209/76/11 211/100/11 210/101/11
f 211/100/11 212/102/11 210/101/11
f 213/103/12 215/104/12 214/105/12
f 215/104/12 216/106/12 214/105/12
f 217/107/7 219/108/7 218/109/7
f 219/108/7 220/110/7 218/109/7
f 221/111/8 223/112/8 222/113/8
f 223/112/8 224/114/8 222/113/8
f 225/115/9 227/116/9 226/117/9
f 227/116/9 228/118/9 226/117/9
f 229/119/10 231/120/10 230/121/10
f 231/120/10 232/122/10 230/121/10
f 233/123/11 235/124/11 234/125/11
f 235/124/11 236/126/11 234/125/11
f 237/127/12 239/128/12 238/129/12
f 239/128/12 240/130/12 238/129/12
f 241/84/7 243/131/7 242/66/7
f 243/131/7 244/61/7 242/66/7
f 245/131/8 247/132/8 246/61/8
f 247/132/8 248/46/8 246/61/8
f 249/86/9 251/133/9 250/134/9
f 251/133/9 252/132/9 250/134/9
f 253/79/10 255/70/10 254/81/10
f 255/70/10 256/80/10 254/81/10
f 257/134/11 259/26/11 258/86/11
f 259/26/11 260/30/11 258/86/11
f 261/133/12 263/103/12 262/46/12
f 263/103/12 264/42/12 262/46/12
