# Blender 4.4.3
# www.blender.org
mtllib lev.9x39mag10.mtl
o bulletModel_0
v 0.805144 1.136886 0.038462
v 1.462520 1.409180 0.038461
v 0.952330 0.781548 0.038461
v 1.609706 1.053842 0.038461
v 1.462520 1.409180 -0.346154
v 0.805144 1.136886 -0.346154
v 1.609706 1.053842 -0.346154
v 0.952330 0.781548 -0.346154
v 1.462520 1.409180 -0.346154
v 1.462520 1.409180 0.038461
v 0.805144 1.136886 -0.346154
v 0.805144 1.136886 0.038462
v 0.952330 0.781548 -0.346154
v 0.952330 0.781548 0.038461
v 1.609706 1.053842 -0.346154
v 1.609706 1.053842 0.038461
v 0.805144 1.136886 -0.346154
v 0.805144 1.136886 0.038462
v 0.952330 0.781548 -0.346154
v 0.952330 0.781548 0.038461
v 1.462520 1.409180 0.038461
v 1.462520 1.409180 -0.346154
v 1.609706 1.053842 0.038461
v 1.609706 1.053842 -0.346154
v -0.232697 0.727814 0.057692
v 1.028754 1.250324 0.057692
v -0.070793 0.336942 0.057692
v 1.190658 0.859452 0.057692
v 1.028754 1.250324 -0.365385
v -0.232697 0.727814 -0.365385
v 1.190658 0.859452 -0.365385
v -0.070793 0.336942 -0.365385
v 1.028754 1.250324 -0.365385
v 1.028754 1.250324 0.057692
v -0.232697 0.727814 -0.365385
v -0.232697 0.727814 0.057692
v -0.070793 0.336942 -0.365385
v -0.070793 0.336942 0.057692
v 1.190658 0.859452 -0.365385
v 1.190658 0.859452 0.057692
v -0.232697 0.727814 -0.365385
v -0.232697 0.727814 0.057692
v -0.070793 0.336942 -0.365385
v -0.070793 0.336942 0.057692
v 1.028754 1.250324 0.057692
v 1.028754 1.250324 -0.365385
v 1.190658 0.859452 0.057692
v 1.190658 0.859452 -0.365385
vn -0.0000 -0.0000 1.0000
vn -0.0000 -0.0000 -1.0000
vn -0.3827 0.9239 -0.0000
vn 0.3827 -0.9239 -0.0000
vn -0.9239 -0.3827 -0.0000
vn 0.9239 0.3827 -0.0000
vt 0.437500 0.875000
vt 0.437500 0.843750
vt 0.500000 0.875000
vt 0.500000 0.843750
vt 0.437500 0.625000
vt 0.437500 0.593750
vt 0.500000 0.625000
vt 0.500000 0.593750
vt 0.468750 0.500000
vt 0.468750 0.562500
vt 0.437500 0.500000
vt 0.437500 0.562500
vt 0.031250 0.500000
vt 0.031250 0.437500
vt 0.000000 0.500000
vt 0.000000 0.437500
vt 0.062500 0.437500
vt 0.062500 0.406250
vt 0.093750 0.437500
vt 0.093750 0.406250
vt 0.562500 1.000000
vt 0.562500 0.968750
vt 0.593750 1.000000
vt 0.593750 0.968750
vt 0.187500 0.625000
vt 0.187500 0.593750
vt 0.312500 0.625000
vt 0.312500 0.593750
vt 0.375000 0.812500
vt 0.375000 0.781250
vt 0.500000 0.812500
vt 0.500000 0.781250
vt 0.343750 0.500000
vt 0.343750 0.625000
vt 0.312500 0.500000
vt 0.406250 0.625000
vt 0.406250 0.500000
vt 0.375000 0.625000
vt 0.375000 0.500000
vt 0.500000 0.562500
vt 0.500000 0.531250
vt 0.531250 0.562500
vt 0.531250 0.531250
vt 0.437500 0.468750
vt 0.468750 0.468750
s 0
usemtl Material_0.001
f 1/1/1 3/2/1 2/3/1
f 3/2/1 4/4/1 2/3/1
f 5/5/2 7/6/2 6/7/2
f 7/6/2 8/8/2 6/7/2
f 9/9/3 11/10/3 10/11/3
f 11/10/3 12/12/3 10/11/3
f 13/13/4 15/14/4 14/15/4
f 15/14/4 16/16/4 14/15/4
f 17/17/5 19/18/5 18/19/5
f 19/18/5 20/20/5 18/19/5
f 21/21/6 23/22/6 22/23/6
f 23/22/6 24/24/6 22/23/6
f 25/25/1 27/26/1 26/27/1
f 27/26/1 28/28/1 26/27/1
f 29/29/2 31/30/2 30/31/2
f 31/30/2 32/32/2 30/31/2
f 33/33/3 35/34/3 34/35/3
f 35/34/3 36/27/3 34/35/3
f 37/36/4 39/37/4 38/38/4
f 39/37/4 40/39/4 38/38/4
f 41/40/5 43/41/5 42/42/5
f 43/41/5 44/43/5 42/42/5
f 45/11/6 47/44/6 46/9/6
f 47/44/6 48/45/6 46/9/6
o bulletModel_1
v 0.878737 0.959217 0.365385
v 1.536113 1.231511 0.365385
v 1.025923 0.603879 0.365385
v 1.683298 0.876173 0.365384
v 1.536113 1.231511 -0.019231
v 0.878737 0.959217 -0.019231
v 1.683298 0.876173 -0.019231
v 1.025923 0.603879 -0.019231
v 1.536113 1.231511 -0.019231
v 1.536113 1.231511 0.365385
v 0.878737 0.959217 -0.019231
v 0.878737 0.959217 0.365385
v 1.025923 0.603879 -0.019231
v 1.025923 0.603879 0.365385
v 1.683298 0.876173 -0.019231
v 1.683298 0.876173 0.365384
v 0.878737 0.959217 -0.019231
v 0.878737 0.959217 0.365385
v 1.025923 0.603879 -0.019231
v 1.025923 0.603879 0.365385
v 1.536113 1.231511 0.365385
v 1.536113 1.231511 -0.019231
v 1.683298 0.876173 0.365384
v 1.683298 0.876173 -0.019231
v -0.159104 0.550144 0.384615
v 1.102347 1.072655 0.384615
v 0.002800 0.159272 0.384615
v 1.264251 0.681783 0.384615
v 1.102347 1.072655 -0.038462
v -0.159104 0.550144 -0.038462
v 1.264251 0.681783 -0.038462
v 0.002800 0.159272 -0.038462
v 1.102347 1.072655 -0.038462
v 1.102347 1.072655 0.384615
v -0.159104 0.550144 -0.038462
v -0.159104 0.550144 0.384615
v 0.002800 0.159272 -0.038462
v 0.002800 0.159272 0.384615
v 1.264251 0.681783 -0.038462
v 1.264251 0.681783 0.384615
v -0.159104 0.550144 -0.038462
v -0.159104 0.550144 0.384615
v 0.002800 0.159272 -0.038462
v 0.002800 0.159272 0.384615
v 1.102347 1.072655 0.384615
v 1.102347 1.072655 -0.038462
v 1.264251 0.681783 0.384615
v 1.264251 0.681783 -0.038462
vn -0.0000 -0.0000 1.0000
vn -0.0000 -0.0000 -1.0000
vn -0.3827 0.9239 -0.0000
vn 0.3827 -0.9239 -0.0000
vn -0.9239 -0.3827 -0.0000
vn 0.9239 0.3827 -0.0000
vt 0.062500 0.500000
vt 0.062500 0.468750
vt 0.125000 0.500000
vt 0.125000 0.468750
vt 0.500000 0.875000
vt 0.500000 0.843750
vt 0.562500 0.875000
vt 0.562500 0.843750
vt 0.531250 0.750000
vt 0.531250 0.812500
vt 0.500000 0.750000
vt 0.500000 0.812500
vt 0.531250 0.687500
vt 0.500000 0.687500
vt 0.125000 0.437500
vt 0.125000 0.406250
vt 0.156250 0.437500
vt 0.156250 0.406250
vt 0.562500 0.937500
vt 0.562500 0.906250
vt 0.593750 0.937500
vt 0.593750 0.906250
vt 0.437500 1.000000
vt 0.437500 0.968750
vt 0.562500 1.000000
vt 0.562500 0.968750
vt 0.437500 0.937500
vt 0.437500 0.906250
vt 0.218750 0.437500
vt 0.218750 0.562500
vt 0.187500 0.437500
vt 0.187500 0.562500
vt 0.281250 0.562500
vt 0.281250 0.437500
vt 0.250000 0.562500
vt 0.250000 0.437500
vt 0.000000 0.437500
vt 0.000000 0.406250
vt 0.031250 0.437500
vt 0.031250 0.406250
vt 0.500000 0.500000
vt 0.500000 0.468750
vt 0.531250 0.500000
vt 0.531250 0.468750
s 0
usemtl Material_0.001
f 49/46/7 51/47/7 50/48/7
f 51/47/7 52/49/7 50/48/7
f 53/50/8 55/51/8 54/52/8
f 55/51/8 56/53/8 54/52/8
f 57/54/9 59/55/9 58/56/9
f 59/55/9 60/57/9 58/56/9
f 61/54/10 63/58/10 62/56/10
f 63/58/10 64/59/10 62/56/10
f 65/60/11 67/61/11 66/62/11
f 67/61/11 68/63/11 66/62/11
f 69/64/12 71/65/12 70/66/12
f 71/65/12 72/67/12 70/66/12
f 73/68/7 75/69/7 74/70/7
f 75/69/7 76/71/7 74/70/7
f 77/72/8 79/73/8 78/64/8
f 79/73/8 80/65/8 78/64/8
f 81/74/9 83/75/9 82/76/9
f 83/75/9 84/77/9 82/76/9
f 85/78/10 87/79/10 86/80/10
f 87/79/10 88/81/10 86/80/10
f 89/82/11 91/83/11 90/84/11
f 91/83/11 92/85/11 90/84/11
f 93/86/12 95/87/12 94/88/12
f 95/87/12 96/89/12 94/88/12
o ammoModel
v 0.000000 -0.000000 0.384615
v 1.762478 0.730042 0.384615
v 1.030302 -2.487368 0.384615
v 2.792780 -1.757326 0.384615
v 1.762478 0.730042 -0.384616
v -0.000000 0.000000 -0.384615
v 2.792780 -1.757326 -0.384616
v 1.030302 -2.487368 -0.384616
v 1.762478 0.730042 -0.384616
v 1.762478 0.730042 0.384615
v -0.000000 0.000000 -0.384615
v 0.000000 -0.000000 0.384615
v 1.030302 -2.487368 -0.384616
v 1.030302 -2.487368 0.384615
v 2.792780 -1.757326 -0.384616
v 2.792780 -1.757326 0.384615
v -0.000000 0.000000 -0.384615
v 0.000000 -0.000000 0.384615
v 1.030302 -2.487368 -0.384616
v 1.030302 -2.487368 0.384615
v 1.762478 0.730042 0.384615
v 1.762478 0.730042 -0.384616
v 2.792780 -1.757326 0.384615
v 2.792780 -1.757326 -0.384616
v -0.294372 0.710676 0.385385
v 1.468106 1.440719 0.385385
v -0.000000 -0.000000 0.385385
v 1.762478 0.730042 0.385385
v 1.468106 1.440719 0.384615
v -0.294372 0.710676 0.384616
v 1.762478 0.730042 0.384615
v -0.000000 -0.000000 0.384615
v 1.468106 1.440719 0.384615
v 1.468106 1.440719 0.385385
v -0.294372 0.710676 0.384616
v -0.294372 0.710676 0.385385
v -0.000000 -0.000000 0.384615
v -0.000000 -0.000000 0.385385
v 1.762478 0.730042 0.384615
v 1.762478 0.730042 0.385385
v -0.294372 0.710676 0.384616
v -0.294372 0.710676 0.385385
v -0.000000 -0.000000 0.384615
v -0.000000 -0.000000 0.385385
v 1.468106 1.440719 0.385385
v 1.468106 1.440719 0.384615
v 1.762478 0.730042 0.385385
v 1.762478 0.730042 0.384615
v -0.294372 0.710676 -0.383846
v 1.468106 1.440719 -0.383846
v -0.000000 -0.000000 -0.383846
v 1.762478 0.730042 -0.383846
v 1.468106 1.440719 -0.384616
v -0.294372 0.710676 -0.384615
v 1.762478 0.730042 -0.384616
v -0.000000 -0.000000 -0.384615
v 1.468106 1.440719 -0.384616
v 1.468106 1.440719 -0.383846
v -0.294372 0.710676 -0.384615
v -0.294372 0.710676 -0.383846
v -0.000000 -0.000000 -0.384615
v -0.000000 -0.000000 -0.383846
v 1.762478 0.730042 -0.384616
v 1.762478 0.730042 -0.383846
v -0.294372 0.710676 -0.384615
v -0.294372 0.710676 -0.383846
v -0.000000 -0.000000 -0.384615
v -0.000000 -0.000000 -0.383846
v 1.468106 1.440719 -0.383846
v 1.468106 1.440719 -0.384616
v 1.762478 0.730042 -0.383846
v 1.762478 0.730042 -0.384616
v -0.147897 0.355044 0.384615
v -0.147186 0.355338 0.384615
v -0.000711 -0.000295 0.384615
v -0.000000 -0.000000 0.384615
v -0.147186 0.355338 -0.384615
v -0.147897 0.355044 -0.384615
v -0.000000 -0.000000 -0.384615
v -0.000711 -0.000295 -0.384615
v -0.147186 0.355338 -0.384615
v -0.147186 0.355338 0.384615
v -0.147897 0.355044 -0.384615
v -0.147897 0.355044 0.384615
v -0.000711 -0.000295 -0.384615
v -0.000711 -0.000295 0.384615
v -0.000000 -0.000000 -0.384615
v -0.000000 -0.000000 0.384615
v -0.147897 0.355044 -0.384615
v -0.147897 0.355044 0.384615
v -0.000711 -0.000295 -0.384615
v -0.000711 -0.000295 0.384615
v -0.147186 0.355338 0.384615
v -0.147186 0.355338 -0.384615
v -0.000000 -0.000000 0.384615
v -0.000000 -0.000000 -0.384615
v 1.614581 1.085086 0.384615
v 1.615292 1.085380 0.384615
v 1.761767 0.729748 0.384615
v 1.762478 0.730042 0.384615
v 1.615292 1.085380 -0.384616
v 1.614581 1.085086 -0.384616
v 1.762478 0.730042 -0.384616
v 1.761767 0.729748 -0.384616
v 1.615292 1.085380 -0.384616
v 1.615292 1.085380 0.384615
v 1.614581 1.085086 -0.384616
v 1.614581 1.085086 0.384615
v 1.761767 0.729748 -0.384616
v 1.761767 0.729748 0.384615
v 1.762478 0.730042 -0.384616
v 1.762478 0.730042 0.384615
v 1.614581 1.085086 -0.384616
v 1.614581 1.085086 0.384615
v 1.761767 0.729748 -0.384616
v 1.761767 0.729748 0.384615
v 1.615292 1.085380 0.384615
v 1.615292 1.085380 -0.384616
v 1.762478 0.730042 0.384615
v 1.762478 0.730042 -0.384616
vn -0.0000 -0.0000 1.0000
vn -0.0000 -0.0000 -1.0000
vn -0.3827 0.9239 -0.0000
vn 0.3827 -0.9239 -0.0000
vn -0.9239 -0.3827 -0.0000
vn 0.9239 0.3827 -0.0000
vt 0.000000 1.000000
vt 0.000000 0.781250
vt 0.156250 1.000000
vt 0.156250 0.781250
vt 0.187500 1.000000
vt 0.187500 0.781250
vt 0.343750 1.000000
vt 0.343750 0.781250
vt 0.437500 0.843750
vt 0.437500 1.000000
vt 0.375000 0.843750
vt 0.375000 1.000000
vt 0.187500 0.625000
vt 0.187500 0.468750
vt 0.125000 0.625000
vt 0.125000 0.468750
vt 0.062500 0.750000
vt 0.062500 0.531250
vt 0.125000 0.750000
vt 0.125000 0.531250
vt 0.000000 0.750000
vt 0.000000 0.531250
vt 0.312500 0.750000
vt 0.312500 0.687500
vt 0.468750 0.750000
vt 0.468750 0.687500
vt 0.312500 0.625000
vt 0.468750 0.625000
vt 0.000000 0.843750
vt 0.000000 0.937500
vt 0.125000 0.687500
vt 0.281250 0.750000
vt 0.281250 0.687500
vt 0.281250 0.625000
vt 0.000000 0.968750
vt 0.062500 1.000000
vt 0.500000 0.625000
vt 0.500000 0.593750
vt 0.562500 0.625000
vt 0.562500 0.593750
vt 0.375000 0.500000
vt 0.375000 0.468750
vt 0.437500 0.500000
vt 0.437500 0.468750
vt 0.500000 0.687500
vt 0.500000 0.656250
vt 0.562500 0.687500
vt 0.562500 0.656250
vt 0.312500 0.500000
vt 0.312500 0.468750
s 0
usemtl Material_0.001
f 97/90/13 99/91/13 98/92/13
f 99/91/13 100/93/13 98/92/13
f 101/94/14 103/95/14 102/96/14
f 103/95/14 104/97/14 102/96/14
f 105/98/15 107/99/15 106/100/15
f 107/99/15 108/101/15 106/100/15
f 109/102/16 111/103/16 110/104/16
f 111/103/16 112/105/16 110/104/16
f 113/106/17 115/107/17 114/108/17
f 115/107/17 116/109/17 114/108/17
f 117/110/18 119/111/18 118/106/18
f 119/111/18 120/107/18 118/106/18
f 121/112/13 123/113/13 122/114/13
f 123/113/13 124/115/13 122/114/13
f 125/113/14 127/116/14 126/115/14
f 127/116/14 128/117/14 126/115/14
f 129/118/15 131/90/15 130/118/15
f 131/90/15 132/90/15 130/118/15
f 133/90/16 135/118/16 134/90/16
f 135/118/16 136/118/16 134/90/16
f 137/90/17 139/119/17 138/90/17
f 139/119/17 140/119/17 138/90/17
f 141/90/18 143/119/18 142/90/18
f 143/119/18 144/119/18 142/90/18
f 145/108/13 147/120/13 146/121/13
f 147/120/13 148/122/13 146/121/13
f 149/120/14 151/104/14 150/122/14
f 151/104/14 152/123/14 150/122/14
f 153/118/15 155/90/15 154/118/15
f 155/90/15 156/90/15 154/118/15
f 157/90/16 159/118/16 158/90/16
f 159/118/16 160/118/16 158/90/16
f 161/90/17 163/119/17 162/90/17
f 163/119/17 164/119/17 162/90/17
f 165/90/18 167/119/18 166/90/18
f 167/119/18 168/119/18 166/90/18
f 169/90/13 171/124/13 170/90/13
f 171/124/13 172/124/13 170/90/13
f 173/90/14 175/124/14 174/90/14
f 175/124/14 176/124/14 174/90/14
f 177/125/15 179/125/15 178/90/15
f 179/125/15 180/90/15 178/90/15
f 181/125/16 183/125/16 182/90/16
f 183/125/16 184/90/16 182/90/16
f 185/126/17 187/127/17 186/128/17
f 187/127/17 188/129/17 186/128/17
f 189/130/18 191/131/18 190/132/18
f 191/131/18 192/133/18 190/132/18
f 193/90/13 195/124/13 194/90/13
f 195/124/13 196/124/13 194/90/13
f 197/90/14 199/124/14 198/90/14
f 199/124/14 200/124/14 198/90/14
f 201/125/15 203/125/15 202/90/15
f 203/125/15 204/90/15 202/90/15
f 205/125/16 207/125/16 206/90/16
f 207/125/16 208/90/16 206/90/16
f 209/134/17 211/135/17 210/136/17
f 211/135/17 212/137/17 210/136/17
f 213/138/18 215/139/18 214/130/18
f 215/139/18 216/131/18 214/130/18
