# Blender 4.3.2
# www.blender.org
mtllib lev.hk417mag10.mtl
o ammoModel
v 2.306923 0.000000 0.384615
v 2.307692 0.000000 0.384615
v 2.306923 -1.538462 0.384615
v 2.307692 -1.538462 0.384615
v 2.307692 0.000000 -0.384616
v 2.306923 0.000000 -0.384616
v 2.307692 -1.538462 -0.384616
v 2.306923 -1.538462 -0.384616
v 2.307692 0.000000 -0.384616
v 2.307692 0.000000 0.384615
v 2.306923 0.000000 -0.384616
v 2.306923 0.000000 0.384615
v 2.306923 -1.538462 -0.384616
v 2.306923 -1.538462 0.384615
v 2.307692 -1.538462 -0.384616
v 2.307692 -1.538462 0.384615
v 2.306923 0.000000 -0.384616
v 2.306923 0.000000 0.384615
v 2.306923 -1.538462 -0.384616
v 2.306923 -1.538462 0.384615
v 2.307692 0.000000 0.384615
v 2.307692 0.000000 -0.384616
v 2.307692 -1.538462 0.384615
v 2.307692 -1.538462 -0.384616
v 0.000000 0.000000 0.385385
v 2.307692 0.000000 0.385384
v 0.000000 -1.538462 0.385385
v 2.307692 -1.538462 0.385384
v 2.307692 0.000000 0.384615
v 0.000000 0.000000 0.384615
v 2.307692 -1.538462 0.384615
v 0.000000 -1.538462 0.384615
v 2.307692 0.000000 0.384615
v 2.307692 0.000000 0.385384
v 0.000000 0.000000 0.384615
v 0.000000 0.000000 0.385385
v 0.000000 -1.538462 0.384615
v 0.000000 -1.538462 0.385385
v 2.307692 -1.538462 0.384615
v 2.307692 -1.538462 0.385384
v 0.000000 0.000000 0.384615
v 0.000000 0.000000 0.385385
v 0.000000 -1.538462 0.384615
v 0.000000 -1.538462 0.385385
v 2.307692 0.000000 0.385384
v 2.307692 0.000000 0.384615
v 2.307692 -1.538462 0.385384
v 2.307692 -1.538462 0.384615
v -0.000000 0.000000 -0.383846
v 2.307692 0.000000 -0.383847
v -0.000000 -1.538462 -0.383846
v 2.307692 -1.538462 -0.383847
v 2.307692 0.000000 -0.384616
v -0.000000 0.000000 -0.384615
v 2.307692 -1.538462 -0.384616
v -0.000000 -1.538462 -0.384615
v 2.307692 0.000000 -0.384616
v 2.307692 0.000000 -0.383847
v -0.000000 0.000000 -0.384615
v -0.000000 0.000000 -0.383846
v -0.000000 -1.538462 -0.384615
v -0.000000 -1.538462 -0.383846
v 2.307692 -1.538462 -0.384616
v 2.307692 -1.538462 -0.383847
v -0.000000 0.000000 -0.384615
v -0.000000 0.000000 -0.383846
v -0.000000 -1.538462 -0.384615
v -0.000000 -1.538462 -0.383846
v 2.307692 0.000000 -0.383847
v 2.307692 0.000000 -0.384616
v 2.307692 -1.538462 -0.383847
v 2.307692 -1.538462 -0.384616
v -0.000769 0.000000 0.384615
v 0.000000 0.000000 0.384615
v -0.000769 -1.538462 0.384615
v 0.000000 -1.538462 0.384615
v -0.000000 0.000000 -0.384615
v -0.000769 0.000000 -0.384615
v -0.000000 -1.538462 -0.384615
v -0.000769 -1.538462 -0.384615
v -0.000000 0.000000 -0.384615
v 0.000000 0.000000 0.384615
v -0.000769 0.000000 -0.384615
v -0.000769 0.000000 0.384615
v -0.000769 -1.538462 -0.384615
v -0.000769 -1.538462 0.384615
v -0.000000 -1.538462 -0.384615
v 0.000000 -1.538462 0.384615
v -0.000769 0.000000 -0.384615
v -0.000769 0.000000 0.384615
v -0.000769 -1.538462 -0.384615
v -0.000769 -1.538462 0.384615
v 0.000000 0.000000 0.384615
v -0.000000 0.000000 -0.384615
v 0.000000 -1.538462 0.384615
v -0.000000 -1.538462 -0.384615
v 0.000001 -1.538462 0.383846
v 2.132030 -0.655347 0.383846
v 0.441559 -2.604477 0.383846
v 2.573588 -1.721361 0.383846
v 2.132030 -0.655347 -0.383847
v 0.000001 -1.538462 -0.383846
v 2.573588 -1.721361 -0.383847
v 0.441558 -2.604477 -0.383846
v 2.132030 -0.655347 -0.383847
v 2.132030 -0.655347 0.383846
v 0.000001 -1.538462 -0.383846
v 0.000001 -1.538462 0.383846
v 0.441558 -2.604477 -0.383846
v 0.441559 -2.604477 0.383846
v 2.573588 -1.721361 -0.383847
v 2.573588 -1.721361 0.383846
v 0.000001 -1.538462 -0.383846
v 0.000001 -1.538462 0.383846
v 0.441558 -2.604477 -0.383846
v 0.441559 -2.604477 0.383846
v 2.132030 -0.655347 0.383846
v 2.132030 -0.655347 -0.383847
v 2.573588 -1.721361 0.383846
v 2.573588 -1.721361 -0.383847
vn -0.0000 -0.0000 1.0000
vn -0.0000 -0.0000 -1.0000
vn -0.0000 1.0000 -0.0000
vn -0.0000 -1.0000 -0.0000
vn -1.0000 -0.0000 -0.0000
vn 1.0000 -0.0000 -0.0000
vn -0.3827 0.9239 -0.0000
vn 0.3827 -0.9239 -0.0000
vn -0.9239 -0.3827 -0.0000
vn 0.9239 0.3827 -0.0000
vt 0.000000 1.000000
vt 0.000000 0.812500
vt 0.062500 1.000000
vt 0.312500 0.625000
vt 0.312500 0.437500
vt 0.375000 0.625000
vt 0.375000 0.437500
vt 0.250000 0.625000
vt 0.250000 0.500000
vt 0.312500 0.500000
vt 0.000000 0.875000
vt 0.187500 1.000000
vt 0.187500 0.875000
vt 0.000000 0.625000
vt 0.187500 0.812500
vt 0.187500 0.625000
vt 0.375000 1.000000
vt 0.375000 0.812500
vt 0.187500 0.687500
vt 0.375000 0.687500
vt 0.437500 0.875000
vt 0.437500 0.750000
vt 0.500000 0.875000
vt 0.500000 0.750000
vt 0.375000 0.500000
vt 0.437500 0.687500
vt 0.437500 0.500000
vt 0.000000 0.593750
vt 0.000000 0.500000
vt 0.187500 0.593750
vt 0.187500 0.500000
vt 0.375000 0.968750
vt 0.375000 0.875000
vt 0.562500 0.968750
vt 0.562500 0.875000
vt 0.250000 0.437500
vt 0.187500 0.437500
vt 0.437500 0.531250
vt 0.437500 0.437500
vt 0.500000 0.531250
vt 0.500000 0.437500
vt 0.437500 0.656250
vt 0.437500 0.562500
vt 0.500000 0.656250
vt 0.500000 0.562500
s 0
usemtl Material_0.001
f 1/1/1 3/2/1 2/1/1
f 3/2/1 4/2/1 2/1/1
f 5/1/2 7/2/2 6/1/2
f 7/2/2 8/2/2 6/1/2
f 9/3/3 11/3/3 10/1/3
f 11/3/3 12/1/3 10/1/3
f 13/3/4 15/3/4 14/1/4
f 15/3/4 16/1/4 14/1/4
f 17/4/5 19/5/5 18/6/5
f 19/5/5 20/7/5 18/6/5
f 21/8/6 23/9/6 22/4/6
f 23/9/6 24/10/6 22/4/6
f 25/1/1 27/11/1 26/12/1
f 27/11/1 28/13/1 26/12/1
f 29/2/2 31/14/2 30/15/2
f 31/14/2 32/16/2 30/15/2
f 33/2/3 35/1/3 34/2/3
f 35/1/3 36/1/3 34/2/3
f 37/1/4 39/2/4 38/1/4
f 39/2/4 40/2/4 38/1/4
f 41/1/5 43/2/5 42/1/5
f 43/2/5 44/2/5 42/1/5
f 45/1/6 47/2/6 46/1/6
f 47/2/6 48/2/6 46/1/6
f 49/12/1 51/15/1 50/17/1
f 51/15/1 52/18/1 50/17/1
f 53/15/2 55/19/2 54/18/2
f 55/19/2 56/20/2 54/18/2
f 57/2/3 59/1/3 58/2/3
f 59/1/3 60/1/3 58/2/3
f 61/1/4 63/2/4 62/1/4
f 63/2/4 64/2/4 62/1/4
f 65/1/5 67/2/5 66/1/5
f 67/2/5 68/2/5 66/1/5
f 69/1/6 71/2/6 70/1/6
f 71/2/6 72/2/6 70/1/6
f 73/1/1 75/2/1 74/1/1
f 75/2/1 76/2/1 74/1/1
f 77/1/2 79/2/2 78/1/2
f 79/2/2 80/2/2 78/1/2
f 81/3/3 83/3/3 82/1/3
f 83/3/3 84/1/3 82/1/3
f 85/3/4 87/3/4 86/1/4
f 87/3/4 88/1/4 86/1/4
f 89/21/5 91/22/5 90/23/5
f 91/22/5 92/24/5 90/23/5
f 93/20/6 95/25/6 94/26/6
f 95/25/6 96/27/6 94/26/6
f 97/28/1 99/29/1 98/30/1
f 99/29/1 100/31/1 98/30/1
f 101/32/2 103/33/2 102/34/2
f 103/33/2 104/35/2 102/34/2
f 105/26/7 107/21/7 106/20/7
f 107/21/7 108/33/7 106/20/7
f 109/8/8 111/36/8 110/16/8
f 111/36/8 112/37/8 110/16/8
f 113/38/9 115/39/9 114/40/9
f 115/39/9 116/41/9 114/40/9
f 117/42/10 119/43/10 118/44/10
f 119/43/10 120/45/10 118/44/10
o bulletModel_0
v 1.538462 0.134615 0.326923
v 1.923077 0.134615 0.326923
v 1.538462 -0.326923 0.326923
v 1.923077 -0.326923 0.326923
v 1.923077 0.134615 -0.134616
v 1.538461 0.134615 -0.134616
v 1.923077 -0.326923 -0.134616
v 1.538461 -0.326923 -0.134616
v 1.923077 0.134615 -0.134616
v 1.923077 0.134615 0.326923
v 1.538461 0.134615 -0.134616
v 1.538462 0.134615 0.326923
v 1.538461 -0.326923 -0.134616
v 1.538462 -0.326923 0.326923
v 1.923077 -0.326923 -0.134616
v 1.923077 -0.326923 0.326923
v 1.538461 0.134615 -0.134616
v 1.538462 0.134615 0.326923
v 1.538461 -0.326923 -0.134616
v 1.538462 -0.326923 0.326923
v 1.923077 0.134615 0.326923
v 1.923077 0.134615 -0.134616
v 1.923077 -0.326923 0.326923
v 1.923077 -0.326923 -0.134616
v 1.903846 0.096154 0.288461
v 2.288461 0.096154 0.288461
v 1.903846 -0.288462 0.288461
v 2.288461 -0.288462 0.288461
v 2.288461 0.096154 -0.096154
v 1.903846 0.096154 -0.096154
v 2.288461 -0.288462 -0.096154
v 1.903846 -0.288462 -0.096154
v 2.288461 0.096154 -0.096154
v 2.288461 0.096154 0.288461
v 1.903846 0.096154 -0.096154
v 1.903846 0.096154 0.288461
v 1.903846 -0.288462 -0.096154
v 1.903846 -0.288462 0.288461
v 2.288461 -0.288462 -0.096154
v 2.288461 -0.288462 0.288461
v 1.903846 0.096154 -0.096154
v 1.903846 0.096154 0.288461
v 1.903846 -0.288462 -0.096154
v 1.903846 -0.288462 0.288461
v 2.288461 0.096154 0.288461
v 2.288461 0.096154 -0.096154
v 2.288461 -0.288462 0.288461
v 2.288461 -0.288462 -0.096154
v 0.019231 -0.019231 0.211538
v 1.557692 -0.019231 0.211538
v 0.019231 -0.596154 0.211538
v 1.557692 -0.596154 0.211538
v 1.557692 -0.019231 -0.365385
v 0.019231 -0.019231 -0.365385
v 1.557692 -0.596154 -0.365385
v 0.019231 -0.596154 -0.365385
v 1.557692 -0.019231 -0.365385
v 1.557692 -0.019231 0.211538
v 0.019231 -0.019231 -0.365385
v 0.019231 -0.019231 0.211538
v 0.019231 -0.596154 -0.365385
v 0.019231 -0.596154 0.211538
v 1.557692 -0.596154 -0.365385
v 1.557692 -0.596154 0.211538
v 0.019231 -0.019231 -0.365385
v 0.019231 -0.019231 0.211538
v 0.019231 -0.596154 -0.365385
v 0.019231 -0.596154 0.211538
v 1.557692 -0.019231 0.211538
v 1.557692 -0.019231 -0.365385
v 1.557692 -0.596154 0.211538
v 1.557692 -0.596154 -0.365385
v 1.538461 -0.076923 0.153846
v 1.923077 -0.076923 0.153846
v 1.538461 -0.538462 0.153846
v 1.923077 -0.538462 0.153846
v 1.923077 -0.076923 -0.307693
v 1.538461 -0.076923 -0.307693
v 1.923077 -0.538462 -0.307693
v 1.538461 -0.538462 -0.307693
v 1.923077 -0.076923 -0.307693
v 1.923077 -0.076923 0.153846
v 1.538461 -0.076923 -0.307693
v 1.538461 -0.076923 0.153846
v 1.538461 -0.538462 -0.307693
v 1.538461 -0.538462 0.153846
v 1.923077 -0.538462 -0.307693
v 1.923077 -0.538462 0.153846
v 1.538461 -0.076923 -0.307693
v 1.538461 -0.076923 0.153846
v 1.538461 -0.538462 -0.307693
v 1.538461 -0.538462 0.153846
v 1.923077 -0.076923 0.153846
v 1.923077 -0.076923 -0.307693
v 1.923077 -0.538462 0.153846
v 1.923077 -0.538462 -0.307693
v 1.903846 -0.115385 0.115384
v 2.288461 -0.115385 0.115384
v 1.903846 -0.500000 0.115384
v 2.288461 -0.500000 0.115384
v 2.288461 -0.115385 -0.269231
v 1.903846 -0.115385 -0.269231
v 2.288461 -0.500000 -0.269231
v 1.903846 -0.500000 -0.269231
v 2.288461 -0.115385 -0.269231
v 2.288461 -0.115385 0.115384
v 1.903846 -0.115385 -0.269231
v 1.903846 -0.115385 0.115384
v 1.903846 -0.500000 -0.269231
v 1.903846 -0.500000 0.115384
v 2.288461 -0.500000 -0.269231
v 2.288461 -0.500000 0.115384
v 1.903846 -0.115385 -0.269231
v 1.903846 -0.115385 0.115384
v 1.903846 -0.500000 -0.269231
v 1.903846 -0.500000 0.115384
v 2.288461 -0.115385 0.115384
v 2.288461 -0.115385 -0.269231
v 2.288461 -0.500000 0.115384
v 2.288461 -0.500000 -0.269231
v 0.019231 0.192308 0.384615
v 1.557692 0.192308 0.384615
v 0.019231 -0.384615 0.384615
v 1.557692 -0.384615 0.384615
v 1.557692 0.192308 -0.192308
v 0.019231 0.192308 -0.192308
v 1.557692 -0.384615 -0.192308
v 0.019231 -0.384615 -0.192308
v 1.557692 0.192308 -0.192308
v 1.557692 0.192308 0.384615
v 0.019231 0.192308 -0.192308
v 0.019231 0.192308 0.384615
v 0.019231 -0.384615 -0.192308
v 0.019231 -0.384615 0.384615
v 1.557692 -0.384615 -0.192308
v 1.557692 -0.384615 0.384615
v 0.019231 0.192308 -0.192308
v 0.019231 0.192308 0.384615
v 0.019231 -0.384615 -0.192308
v 0.019231 -0.384615 0.384615
v 1.557692 0.192308 0.384615
v 1.557692 0.192308 -0.192308
v 1.557692 -0.384615 0.384615
v 1.557692 -0.384615 -0.192308
vn -0.0000 -0.0000 1.0000
vn -0.0000 -0.0000 -1.0000
vn -0.0000 1.0000 -0.0000
vn -0.0000 -1.0000 -0.0000
vn -1.0000 -0.0000 -0.0000
vn 1.0000 -0.0000 -0.0000
vt 0.562500 0.812500
vt 0.562500 0.781250
vt 0.593750 0.812500
vt 0.593750 0.781250
vt 0.562500 0.750000
vt 0.562500 0.718750
vt 0.593750 0.750000
vt 0.593750 0.718750
vt 0.343750 0.406250
vt 0.343750 0.437500
vt 0.312500 0.406250
vt 0.312500 0.437500
vt 0.468750 0.437500
vt 0.468750 0.406250
vt 0.437500 0.437500
vt 0.437500 0.406250
vt 0.250000 0.437500
vt 0.250000 0.406250
vt 0.281250 0.437500
vt 0.281250 0.406250
vt 0.187500 0.437500
vt 0.187500 0.406250
vt 0.218750 0.437500
vt 0.218750 0.406250
vt 0.500000 0.437500
vt 0.500000 0.406250
vt 0.531250 0.437500
vt 0.531250 0.406250
vt 0.562500 0.437500
vt 0.562500 0.406250
vt 0.593750 0.437500
vt 0.593750 0.406250
vt 0.031250 0.343750
vt 0.031250 0.375000
vt 0.000000 0.343750
vt 0.000000 0.375000
vt 0.656250 1.000000
vt 0.656250 0.968750
vt 0.625000 1.000000
vt 0.625000 0.968750
vt 0.562500 0.500000
vt 0.562500 0.468750
vt 0.593750 0.500000
vt 0.593750 0.468750
vt 0.562500 0.562500
vt 0.562500 0.531250
vt 0.593750 0.562500
vt 0.593750 0.531250
vt 0.500000 0.687500
vt 0.500000 0.625000
vt 0.625000 0.687500
vt 0.625000 0.625000
vt 0.500000 0.562500
vt 0.625000 0.562500
vt 0.437500 0.375000
vt 0.437500 0.500000
vt 0.375000 0.375000
vt 0.375000 0.500000
vt 0.562500 0.937500
vt 0.562500 0.875000
vt 0.625000 0.937500
vt 0.625000 0.875000
vt 0.062500 0.437500
vt 0.062500 0.375000
vt 0.125000 0.437500
vt 0.125000 0.375000
vt 0.625000 0.906250
vt 0.656250 0.937500
vt 0.656250 0.906250
vt 0.625000 0.843750
vt 0.656250 0.875000
vt 0.656250 0.843750
vt 0.218750 0.343750
vt 0.218750 0.375000
vt 0.187500 0.343750
vt 0.187500 0.375000
vt 0.656250 0.812500
vt 0.656250 0.781250
vt 0.625000 0.812500
vt 0.625000 0.781250
vt 0.125000 0.343750
vt 0.156250 0.375000
vt 0.156250 0.343750
vt 0.062500 0.343750
vt 0.093750 0.375000
vt 0.093750 0.343750
vt 0.625000 0.750000
vt 0.625000 0.718750
vt 0.656250 0.750000
vt 0.656250 0.718750
vt 0.625000 0.656250
vt 0.656250 0.687500
vt 0.656250 0.656250
vt 0.406250 0.343750
vt 0.406250 0.375000
vt 0.375000 0.343750
vt 0.656250 0.625000
vt 0.656250 0.593750
vt 0.625000 0.593750
vt 0.312500 0.375000
vt 0.312500 0.343750
vt 0.343750 0.375000
vt 0.343750 0.343750
vt 0.250000 0.375000
vt 0.250000 0.343750
vt 0.281250 0.375000
vt 0.281250 0.343750
vt 0.000000 0.500000
vt 0.000000 0.437500
vt 0.125000 0.500000
vt 0.500000 0.875000
vt 0.500000 0.812500
vt 0.187500 0.500000
vt 0.562500 0.687500
vt 0.562500 1.000000
s 0
usemtl Material_0.001
f 121/46/11 123/47/11 122/48/11
f 123/47/11 124/49/11 122/48/11
f 125/50/12 127/51/12 126/52/12
f 127/51/12 128/53/12 126/52/12
f 129/54/13 131/55/13 130/56/13
f 131/55/13 132/57/13 130/56/13
f 133/58/14 135/59/14 134/60/14
f 135/59/14 136/61/14 134/60/14
f 137/62/15 139/63/15 138/64/15
f 139/63/15 140/65/15 138/64/15
f 141/66/16 143/67/16 142/68/16
f 143/67/16 144/69/16 142/68/16
f 145/70/11 147/71/11 146/72/11
f 147/71/11 148/73/11 146/72/11
f 149/74/12 151/75/12 150/76/12
f 151/75/12 152/77/12 150/76/12
f 153/78/13 155/79/13 154/80/13
f 155/79/13 156/81/13 154/80/13
f 157/82/14 159/83/14 158/84/14
f 159/83/14 160/85/14 158/84/14
f 161/86/15 163/87/15 162/88/15
f 163/87/15 164/89/15 162/88/15
f 165/90/16 167/91/16 166/92/16
f 167/91/16 168/93/16 166/92/16
f 169/94/11 171/95/11 170/96/11
f 171/95/11 172/97/11 170/96/11
f 173/95/12 175/98/12 174/97/12
f 175/98/12 176/99/12 174/97/12
f 177/100/13 179/101/13 178/102/13
f 179/101/13 180/103/13 178/102/13
f 181/90/14 183/74/14 182/98/14
f 183/74/14 184/70/14 182/98/14
f 185/104/15 187/105/15 186/106/15
f 187/105/15 188/107/15 186/106/15
f 189/108/16 191/109/16 190/110/16
f 191/109/16 192/111/16 190/110/16
f 193/106/11 195/112/11 194/113/11
f 195/112/11 196/114/11 194/113/11
f 197/107/12 199/115/12 198/116/12
f 199/115/12 200/117/12 198/116/12
f 201/118/13 203/119/13 202/120/13
f 203/119/13 204/121/13 202/120/13
f 205/122/14 207/123/14 206/124/14
f 207/123/14 208/125/14 206/124/14
f 209/111/15 211/126/15 210/127/15
f 211/126/15 212/128/15 210/127/15
f 213/109/16 215/129/16 214/130/16
f 215/129/16 216/131/16 214/130/16
f 217/132/11 219/133/11 218/134/11
f 219/133/11 220/135/11 218/134/11
f 221/96/12 223/136/12 222/137/12
f 223/136/12 224/138/12 222/137/12
f 225/139/13 227/140/13 226/141/13
f 227/140/13 228/102/13 226/141/13
f 229/142/14 231/143/14 230/97/14
f 231/143/14 232/144/14 230/97/14
f 233/145/15 235/146/15 234/147/15
f 235/146/15 236/148/15 234/147/15
f 237/149/16 239/150/16 238/151/16
f 239/150/16 240/152/16 238/151/16
f 241/153/11 243/154/11 242/155/11
f 243/154/11 244/110/11 242/155/11
f 245/156/12 247/157/12 246/107/12
f 247/157/12 248/124/12 246/107/12
f 249/121/13 251/158/13 250/111/13
f 251/158/13 252/155/13 250/111/13
f 253/46/14 255/159/14 254/157/14
f 255/159/14 256/94/14 254/157/14
f 257/160/15 259/104/15 258/84/15
f 259/104/15 260/106/15 258/84/15
f 261/154/16 263/81/16 262/108/16
f 263/81/16 264/109/16 262/108/16
