# Blender 4.5.3 LTS
# www.blender.org
mtllib lev.p08mag32.mtl
o ammoModel
v 0.384615 0.384615 -0.287692
v 1.153846 0.384615 -0.287693
v 0.384615 0.000000 -0.287692
v 1.153846 0.000000 -0.287693
v 1.153846 0.384615 -0.288462
v 0.384615 0.384615 -0.288462
v 1.153846 0.000000 -0.288462
v 0.384615 0.000000 -0.288462
v 1.153846 0.384615 -0.288462
v 1.153846 0.384615 -0.287693
v 0.384615 0.384615 -0.288462
v 0.384615 0.384615 -0.287692
v 0.384615 0.000000 -0.288462
v 0.384615 0.000000 -0.287692
v 1.153846 0.000000 -0.288462
v 1.153846 0.000000 -0.287693
v 0.384615 0.384615 -0.288462
v 0.384615 0.384615 -0.287692
v 0.384615 0.000000 -0.288462
v 0.384615 0.000000 -0.287692
v 1.153846 0.384615 -0.287693
v 1.153846 0.384615 -0.288462
v 1.153846 0.000000 -0.287693
v 1.153846 0.000000 -0.288462
v 0.000000 0.000000 0.288462
v 1.153846 0.000000 0.288461
v 0.000000 -3.461539 0.288462
v 1.153846 -3.461539 0.288461
v 1.153846 0.000000 -0.288462
v -0.000000 0.000000 -0.288462
v 1.153846 -3.461539 -0.288462
v -0.000000 -3.461539 -0.288462
v 1.153846 0.000000 -0.288462
v 1.153846 0.000000 0.288461
v -0.000000 0.000000 -0.288462
v 0.000000 0.000000 0.288462
v -0.000000 -3.461539 -0.288462
v 0.000000 -3.461539 0.288462
v 1.153846 -3.461539 -0.288462
v 1.153846 -3.461539 0.288461
v -0.000000 0.000000 -0.288462
v 0.000000 0.000000 0.288462
v -0.000000 -3.461539 -0.288462
v 0.000000 -3.461539 0.288462
v 1.153846 0.000000 0.288461
v 1.153846 0.000000 -0.288462
v 1.153846 -3.461539 0.288461
v 1.153846 -3.461539 -0.288462
v 0.815893 -4.277431 0.288461
v 1.631786 -3.461538 0.288461
v 2.719642 -6.181179 0.288461
v 3.535535 -5.365287 0.288461
v 1.631785 -3.461538 -2.403846
v 0.815893 -4.277431 -2.403846
v 3.535534 -5.365287 -2.403847
v 2.719642 -6.181179 -2.403847
v 1.631785 -3.461538 -2.403846
v 1.631786 -3.461538 0.288461
v 0.815893 -4.277431 -2.403846
v 0.815893 -4.277431 0.288461
v 2.719642 -6.181179 -2.403847
v 2.719642 -6.181179 0.288461
v 3.535534 -5.365287 -2.403847
v 3.535535 -5.365287 0.288461
v 0.815893 -4.277431 -2.403846
v 0.815893 -4.277431 0.288461
v 2.719642 -6.181179 -2.403847
v 2.719642 -6.181179 0.288461
v 1.631786 -3.461538 0.288461
v 1.631785 -3.461538 -2.403846
v 3.535535 -5.365287 0.288461
v 3.535534 -5.365287 -2.403847
v 0.801751 -4.291573 0.096154
v 0.802295 -4.291029 0.096154
v 2.433536 -5.923357 0.096153
v 2.434080 -5.922813 0.096153
v 0.802295 -4.291029 -2.211539
v 0.801751 -4.291573 -2.211539
v 2.434079 -5.922813 -2.211539
v 2.433536 -5.923357 -2.211539
v 0.802295 -4.291029 -2.211539
v 0.802295 -4.291029 0.096154
v 0.801751 -4.291573 -2.211539
v 0.801751 -4.291573 0.096154
v 2.433536 -5.923357 -2.211539
v 2.433536 -5.923357 0.096153
v 2.434079 -5.922813 -2.211539
v 2.434080 -5.922813 0.096153
v 0.801751 -4.291573 -2.211539
v 0.801751 -4.291573 0.096154
v 2.433536 -5.923357 -2.211539
v 2.433536 -5.923357 0.096153
v 0.802295 -4.291029 0.096154
v 0.802295 -4.291029 -2.211539
v 2.434080 -5.922813 0.096153
v 2.434079 -5.922813 -2.211539
v 0.000001 -3.461538 0.287692
v 0.815893 -2.645646 0.287692
v 0.815893 -4.277431 0.287692
v 1.631786 -3.461538 0.287692
v 0.815893 -2.645646 -0.287692
v 0.000001 -3.461538 -0.287692
v 1.631786 -3.461538 -0.287693
v 0.815893 -4.277431 -0.287692
v 0.815893 -2.645646 -0.287692
v 0.815893 -2.645646 0.287692
v 0.000001 -3.461538 -0.287692
v 0.000001 -3.461538 0.287692
v 0.815893 -4.277431 -0.287692
v 0.815893 -4.277431 0.287692
v 1.631786 -3.461538 -0.287693
v 1.631786 -3.461538 0.287692
v 0.000001 -3.461538 -0.287692
v 0.000001 -3.461538 0.287692
v 0.815893 -4.277431 -0.287692
v 0.815893 -4.277431 0.287692
v 0.815893 -2.645646 0.287692
v 0.815893 -2.645646 -0.287692
v 1.631786 -3.461538 0.287692
v 1.631786 -3.461538 -0.287693
v 1.153077 0.384615 0.288461
v 1.153846 0.384615 0.288461
v 1.153077 0.000000 0.288461
v 1.153846 0.000000 0.288461
v 1.153846 0.384615 -0.288462
v 1.153077 0.384615 -0.288462
v 1.153846 0.000000 -0.288462
v 1.153077 0.000000 -0.288462
v 1.153846 0.384615 -0.288462
v 1.153846 0.384615 0.288461
v 1.153077 0.384615 -0.288462
v 1.153077 0.384615 0.288461
v 1.153077 0.000000 -0.288462
v 1.153077 0.000000 0.288461
v 1.153846 0.000000 -0.288462
v 1.153846 0.000000 0.288461
v 1.153077 0.384615 -0.288462
v 1.153077 0.384615 0.288461
v 1.153077 0.000000 -0.288462
v 1.153077 0.000000 0.288461
v 1.153846 0.384615 0.288461
v 1.153846 0.384615 -0.288462
v 1.153846 0.000000 0.288461
v 1.153846 0.000000 -0.288462
v 0.384615 0.384615 0.289231
v 1.153846 0.384615 0.289230
v 0.384615 0.000000 0.289231
v 1.153846 0.000000 0.289230
v 1.153846 0.384615 0.288461
v 0.384615 0.384615 0.288461
v 1.153846 0.000000 0.288461
v 0.384615 0.000000 0.288461
v 1.153846 0.384615 0.288461
v 1.153846 0.384615 0.289230
v 0.384615 0.384615 0.288461
v 0.384615 0.384615 0.289231
v 0.384615 0.000000 0.288461
v 0.384615 0.000000 0.289231
v 1.153846 0.000000 0.288461
v 1.153846 0.000000 0.289230
v 0.384615 0.384615 0.288461
v 0.384615 0.384615 0.289231
v 0.384615 0.000000 0.288461
v 0.384615 0.000000 0.289231
v 1.153846 0.384615 0.289230
v 1.153846 0.384615 0.288461
v 1.153846 0.000000 0.289230
v 1.153846 0.000000 0.288461
vn -0.0000 -0.0000 1.0000
vn -0.0000 -0.0000 -1.0000
vn -0.0000 1.0000 -0.0000
vn -0.0000 -1.0000 -0.0000
vn -1.0000 -0.0000 -0.0000
vn 1.0000 -0.0000 -0.0000
vn -0.7071 0.7071 -0.0000
vn 0.7071 -0.7071 -0.0000
vn -0.7071 -0.7071 -0.0000
vn 0.7071 0.7071 -0.0000
vn -0.7069 0.7073 -0.0000
vn 0.7069 -0.7073 -0.0000
vn 0.7072 -0.7070 -0.0000
vt 0.687500 1.000000
vt 0.687500 0.968750
vt 0.750000 1.000000
vt 0.750000 0.968750
vt 0.687500 0.937500
vt 0.687500 0.906250
vt 0.750000 0.937500
vt 0.750000 0.906250
vt 0.000000 0.937500
vt 0.000000 1.000000
vt 0.000000 0.968750
vt 0.250000 0.625000
vt 0.250000 0.343750
vt 0.343750 0.625000
vt 0.343750 0.343750
vt 0.375000 0.625000
vt 0.375000 0.343750
vt 0.468750 0.625000
vt 0.468750 0.343750
vt 0.625000 0.781250
vt 0.625000 0.875000
vt 0.562500 0.781250
vt 0.562500 0.875000
vt 0.687500 0.875000
vt 0.687500 0.781250
vt 0.187500 0.500000
vt 0.187500 0.218750
vt 0.250000 0.500000
vt 0.250000 0.218750
vt 0.125000 0.500000
vt 0.125000 0.218750
vt 0.437500 1.000000
vt 0.437500 0.781250
vt 0.531250 1.000000
vt 0.531250 0.781250
vt 0.000000 0.500000
vt 0.000000 0.281250
vt 0.093750 0.500000
vt 0.093750 0.281250
vt 0.656250 0.656250
vt 0.656250 0.750000
vt 0.437500 0.656250
vt 0.437500 0.750000
vt 0.718750 0.625000
vt 0.718750 0.531250
vt 0.500000 0.625000
vt 0.500000 0.531250
vt 0.000000 0.750000
vt 0.000000 0.531250
vt 0.218750 0.750000
vt 0.218750 0.531250
vt 0.000000 0.781250
vt 0.218750 1.000000
vt 0.218750 0.781250
vt 0.000000 0.812500
vt 0.187500 1.000000
vt 0.250000 0.812500
vt 0.437500 0.812500
vt 0.437500 0.625000
vt 0.250000 1.000000
vt 0.500000 0.500000
vt 0.500000 0.406250
vt 0.593750 0.500000
vt 0.593750 0.406250
vt 0.562500 1.000000
vt 0.562500 0.906250
vt 0.656250 1.000000
vt 0.656250 0.906250
vt 0.593750 0.281250
vt 0.593750 0.375000
vt 0.562500 0.281250
vt 0.562500 0.375000
vt 0.656250 0.375000
vt 0.656250 0.281250
vt 0.625000 0.375000
vt 0.625000 0.281250
vt 0.625000 0.500000
vt 0.625000 0.406250
vt 0.656250 0.500000
vt 0.656250 0.406250
vt 0.500000 0.375000
vt 0.500000 0.281250
vt 0.531250 0.375000
vt 0.531250 0.281250
vt 0.062500 1.000000
vt 0.687500 0.812500
vt 0.750000 0.812500
vt 0.750000 0.781250
vt 0.687500 0.843750
vt 0.750000 0.875000
vt 0.750000 0.843750
vt 0.250000 0.312500
vt 0.250000 0.281250
vt 0.312500 0.312500
vt 0.312500 0.281250
vt 0.687500 0.750000
vt 0.687500 0.718750
vt 0.750000 0.750000
vt 0.750000 0.718750
s 0
usemtl Material_0
f 1/1/1 3/2/1 2/3/1
f 3/2/1 4/4/1 2/3/1
f 5/5/2 7/6/2 6/7/2
f 7/6/2 8/8/2 6/7/2
f 9/9/3 11/10/3 10/9/3
f 11/10/3 12/10/3 10/9/3
f 13/10/4 15/9/4 14/10/4
f 15/9/4 16/9/4 14/10/4
f 17/10/5 19/11/5 18/10/5
f 19/11/5 20/11/5 18/10/5
f 21/10/6 23/11/6 22/10/6
f 23/11/6 24/11/6 22/10/6
f 25/12/1 27/13/1 26/14/1
f 27/13/1 28/15/1 26/14/1
f 29/16/2 31/17/2 30/18/2
f 31/17/2 32/19/2 30/18/2
f 33/20/3 35/21/3 34/22/3
f 35/21/3 36/23/3 34/22/3
f 37/24/4 39/25/4 38/21/4
f 39/25/4 40/20/4 38/21/4
f 41/26/5 43/27/5 42/28/5
f 43/27/5 44/29/5 42/28/5
f 45/30/6 47/31/6 46/26/6
f 47/31/6 48/27/6 46/26/6
f 49/32/1 51/33/1 50/34/1
f 51/33/1 52/35/1 50/34/1
f 53/36/2 55/37/2 54/38/2
f 55/37/2 56/39/2 54/38/2
f 57/40/7 59/41/7 58/42/7
f 59/41/7 60/43/7 58/42/7
f 61/44/8 63/45/8 62/46/8
f 63/45/8 64/47/8 62/46/8
f 65/48/9 67/49/9 66/50/9
f 67/49/9 68/51/9 66/50/9
f 69/10/10 71/52/10 70/53/10
f 71/52/10 72/54/10 70/53/10
f 73/10/1 75/55/1 74/10/1
f 75/55/1 76/55/1 74/10/1
f 77/10/2 79/55/2 78/10/2
f 79/55/2 80/55/2 78/10/2
f 81/56/11 83/56/11 82/10/11
f 83/56/11 84/10/11 82/10/11
f 85/56/12 87/56/12 86/10/12
f 87/56/13 88/10/13 86/10/13
f 89/57/9 91/12/9 90/58/9
f 91/12/9 92/59/9 90/58/9
f 93/60/10 95/57/10 94/32/10
f 95/57/10 96/58/10 94/32/10
f 97/61/1 99/62/1 98/63/1
f 99/62/1 100/64/1 98/63/1
f 101/65/2 103/66/2 102/67/2
f 103/66/2 104/68/2 102/67/2
f 105/69/7 107/70/7 106/71/7
f 107/70/7 108/72/7 106/71/7
f 109/73/8 111/74/8 110/75/8
f 111/74/8 112/76/8 110/75/8
f 113/77/9 115/78/9 114/79/9
f 115/78/9 116/80/9 114/79/9
f 117/81/10 119/82/10 118/83/10
f 119/82/10 120/84/10 118/83/10
f 121/10/1 123/11/1 122/10/1
f 123/11/1 124/11/1 122/10/1
f 125/10/2 127/11/2 126/10/2
f 127/11/2 128/11/2 126/10/2
f 129/85/3 131/85/3 130/10/3
f 131/85/3 132/10/3 130/10/3
f 133/85/4 135/85/4 134/10/4
f 135/85/4 136/10/4 134/10/4
f 137/86/5 139/25/5 138/87/5
f 139/25/5 140/88/5 138/87/5
f 141/24/6 143/89/6 142/90/6
f 143/89/6 144/91/6 142/90/6
f 145/92/1 147/93/1 146/94/1
f 147/93/1 148/95/1 146/94/1
f 149/96/2 151/97/2 150/98/2
f 151/97/2 152/99/2 150/98/2
f 153/9/3 155/10/3 154/9/3
f 155/10/3 156/10/3 154/9/3
f 157/10/4 159/9/4 158/10/4
f 159/9/4 160/9/4 158/10/4
f 161/10/5 163/11/5 162/10/5
f 163/11/5 164/11/5 162/10/5
f 165/10/6 167/11/6 166/10/6
f 167/11/6 168/11/6 166/10/6
o bulletModel_0
v 0.628018 0.381944 0.211538
v 0.983357 0.529130 0.211538
v 0.789923 -0.008928 0.211538
v 1.145261 0.138258 0.211538
v 0.983357 0.529130 -0.211539
v 0.628018 0.381944 -0.211539
v 1.145261 0.138258 -0.211539
v 0.789923 -0.008928 -0.211539
v 0.983357 0.529130 -0.211539
v 0.983357 0.529130 0.211538
v 0.628018 0.381944 -0.211539
v 0.628018 0.381944 0.211538
v 0.789923 -0.008928 -0.211539
v 0.789923 -0.008928 0.211538
v 1.145261 0.138258 -0.211539
v 1.145261 0.138258 0.211538
v 0.628018 0.381944 -0.211539
v 0.628018 0.381944 0.211538
v 0.789923 -0.008928 -0.211539
v 0.789923 -0.008928 0.211538
v 0.983357 0.529130 0.211538
v 0.983357 0.529130 -0.211539
v 1.145261 0.138258 0.211538
v 1.145261 0.138258 -0.211539
v -0.026309 0.152544 0.250000
v 0.684367 0.446916 0.250000
v 0.165032 -0.309396 0.250000
v 0.875709 -0.015024 0.250000
v 0.684367 0.446916 -0.250000
v -0.026309 0.152544 -0.250000
v 0.875709 -0.015024 -0.250000
v 0.165032 -0.309396 -0.250000
v 0.684367 0.446916 -0.250000
v 0.684367 0.446916 0.250000
v -0.026309 0.152544 -0.250000
v -0.026309 0.152544 0.250000
v 0.165032 -0.309396 -0.250000
v 0.165032 -0.309396 0.250000
v 0.875709 -0.015024 -0.250000
v 0.875709 -0.015024 0.250000
v -0.026309 0.152544 -0.250000
v -0.026309 0.152544 0.250000
v 0.165032 -0.309396 -0.250000
v 0.165032 -0.309396 0.250000
v 0.684367 0.446916 0.250000
v 0.684367 0.446916 -0.250000
v 0.875709 -0.015024 0.250000
v 0.875709 -0.015024 -0.250000
vn -0.0000 -0.0000 1.0000
vn -0.0000 -0.0000 -1.0000
vn -0.3827 0.9239 -0.0000
vn 0.3827 -0.9239 -0.0000
vn -0.9239 -0.3827 -0.0000
vn 0.9239 0.3827 -0.0000
vt 0.687500 0.312500
vt 0.687500 0.281250
vt 0.718750 0.312500
vt 0.718750 0.281250
vt 0.750000 1.000000
vt 0.750000 0.968750
vt 0.781250 1.000000
vt 0.781250 0.968750
vt 0.093750 0.218750
vt 0.093750 0.250000
vt 0.062500 0.218750
vt 0.062500 0.250000
vt 0.781250 0.937500
vt 0.781250 0.906250
vt 0.750000 0.937500
vt 0.750000 0.906250
vt 0.000000 0.250000
vt 0.000000 0.218750
vt 0.031250 0.250000
vt 0.031250 0.218750
vt 0.687500 0.375000
vt 0.687500 0.343750
vt 0.718750 0.375000
vt 0.718750 0.343750
vt 0.312500 0.312500
vt 0.312500 0.281250
vt 0.375000 0.312500
vt 0.375000 0.281250
vt 0.687500 0.687500
vt 0.687500 0.656250
vt 0.750000 0.687500
vt 0.750000 0.656250
vt 0.406250 0.250000
vt 0.406250 0.312500
vt 0.375000 0.250000
vt 0.468750 0.312500
vt 0.468750 0.250000
vt 0.437500 0.312500
vt 0.437500 0.250000
vt 0.687500 0.437500
vt 0.687500 0.406250
vt 0.718750 0.437500
vt 0.718750 0.406250
vt 0.687500 0.500000
vt 0.687500 0.468750
vt 0.718750 0.500000
vt 0.718750 0.468750
s 0
usemtl Material_0
f 169/100/14 171/101/14 170/102/14
f 171/101/14 172/103/14 170/102/14
f 173/104/15 175/105/15 174/106/15
f 175/105/15 176/107/15 174/106/15
f 177/108/16 179/109/16 178/110/16
f 179/109/16 180/111/16 178/110/16
f 181/112/17 183/113/17 182/114/17
f 183/113/17 184/115/17 182/114/17
f 185/116/18 187/117/18 186/118/18
f 187/117/18 188/119/18 186/118/18
f 189/120/19 191/121/19 190/122/19
f 191/121/19 192/123/19 190/122/19
f 193/124/14 195/125/14 194/126/14
f 195/125/14 196/127/14 194/126/14
f 197/128/15 199/129/15 198/130/15
f 199/129/15 200/131/15 198/130/15
f 201/132/16 203/133/16 202/134/16
f 203/133/16 204/126/16 202/134/16
f 205/135/17 207/136/17 206/137/17
f 207/136/17 208/138/17 206/137/17
f 209/139/18 211/140/18 210/141/18
f 211/140/18 212/142/18 210/141/18
f 213/143/19 215/144/19 214/145/19
f 215/144/19 216/146/19 214/145/19
