# Blender 4.3.2
# www.blender.org
mtllib lev.m1911mag.mtl
o ammoModel
v 0.000000 0.000769 0.381154
v 1.538462 0.000769 0.381154
v 0.000000 -0.000000 0.381154
v 1.538462 -0.000000 0.381154
v 1.538461 0.000769 -0.384231
v -0.000000 0.000769 -0.384231
v 1.538461 -0.000000 -0.384231
v -0.000000 -0.000000 -0.384231
v 1.538461 0.000769 -0.384231
v 1.538462 0.000769 0.381154
v -0.000000 0.000769 -0.384231
v 0.000000 0.000769 0.381154
v -0.000000 -0.000000 -0.384231
v 0.000000 -0.000000 0.381154
v 1.538461 -0.000000 -0.384231
v 1.538462 -0.000000 0.381154
v -0.000000 0.000769 -0.384231
v 0.000000 0.000769 0.381154
v -0.000000 -0.000000 -0.384231
v 0.000000 -0.000000 0.381154
v 1.538462 0.000769 0.381154
v 1.538461 0.000769 -0.384231
v 1.538462 -0.000000 0.381154
v 1.538461 -0.000000 -0.384231
v -0.000769 3.076923 0.384615
v 0.000000 3.076923 0.384615
v -0.000769 -0.000000 0.384615
v 0.000000 -0.000000 0.384615
v -0.000000 3.076923 -0.384615
v -0.000769 3.076923 -0.384615
v -0.000000 -0.000000 -0.384615
v -0.000769 -0.000000 -0.384615
v -0.000000 3.076923 -0.384615
v 0.000000 3.076923 0.384615
v -0.000769 3.076923 -0.384615
v -0.000769 3.076923 0.384615
v -0.000769 -0.000000 -0.384615
v -0.000769 -0.000000 0.384615
v -0.000000 -0.000000 -0.384615
v 0.000000 -0.000000 0.384615
v -0.000769 3.076923 -0.384615
v -0.000769 3.076923 0.384615
v -0.000769 -0.000000 -0.384615
v -0.000769 -0.000000 0.384615
v 0.000000 3.076923 0.384615
v -0.000000 3.076923 -0.384615
v 0.000000 -0.000000 0.384615
v -0.000000 -0.000000 -0.384615
v -0.000000 3.076923 -0.380000
v 1.153846 3.076923 -0.380000
v -0.000000 -0.000000 -0.380000
v 1.153846 -0.000000 -0.380000
v 1.153846 3.076923 -0.380769
v -0.000000 3.076923 -0.380769
v 1.153846 -0.000000 -0.380769
v -0.000000 -0.000000 -0.380769
v 1.153846 3.076923 -0.380769
v 1.153846 3.076923 -0.380000
v -0.000000 3.076923 -0.380769
v -0.000000 3.076923 -0.380000
v -0.000000 -0.000000 -0.380769
v -0.000000 -0.000000 -0.380000
v 1.153846 -0.000000 -0.380769
v 1.153846 -0.000000 -0.380000
v -0.000000 3.076923 -0.380769
v -0.000000 3.076923 -0.380000
v -0.000000 -0.000000 -0.380769
v -0.000000 -0.000000 -0.380000
v 1.153846 3.076923 -0.380000
v 1.153846 3.076923 -0.380769
v 1.153846 -0.000000 -0.380000
v 1.153846 -0.000000 -0.380769
v 0.000000 3.076923 0.381538
v 1.153846 3.076923 0.381538
v 0.000000 -0.000000 0.381538
v 1.153846 -0.000000 0.381538
v 1.153846 3.076923 0.380769
v 0.000000 3.076923 0.380769
v 1.153846 -0.000000 0.380769
v 0.000000 -0.000000 0.380769
v 1.153846 3.076923 0.380769
v 1.153846 3.076923 0.381538
v 0.000000 3.076923 0.380769
v 0.000000 3.076923 0.381538
v 0.000000 -0.000000 0.380769
v 0.000000 -0.000000 0.381538
v 1.153846 -0.000000 0.380769
v 1.153846 -0.000000 0.381538
v 0.000000 3.076923 0.380769
v 0.000000 3.076923 0.381538
v 0.000000 -0.000000 0.380769
v 0.000000 -0.000000 0.381538
v 1.153846 3.076923 0.381538
v 1.153846 3.076923 0.380769
v 1.153846 -0.000000 0.381538
v 1.153846 -0.000000 0.380769
v 1.153077 3.076923 0.384615
v 1.153846 3.076923 0.384615
v 1.153077 -0.000000 0.384615
v 1.153846 -0.000000 0.384615
v 1.153846 3.076923 -0.384616
v 1.153077 3.076923 -0.384616
v 1.153846 -0.000000 -0.384616
v 1.153077 -0.000000 -0.384616
v 1.153846 3.076923 -0.384616
v 1.153846 3.076923 0.384615
v 1.153077 3.076923 -0.384616
v 1.153077 3.076923 0.384615
v 1.153077 -0.000000 -0.384616
v 1.153077 -0.000000 0.384615
v 1.153846 -0.000000 -0.384616
v 1.153846 -0.000000 0.384615
v 1.153077 3.076923 -0.384616
v 1.153077 3.076923 0.384615
v 1.153077 -0.000000 -0.384616
v 1.153077 -0.000000 0.384615
v 1.153846 3.076923 0.384615
v 1.153846 3.076923 -0.384616
v 1.153846 -0.000000 0.384615
v 1.153846 -0.000000 -0.384616
vn -0.0000 -0.0000 1.0000
vn -0.0000 -0.0000 -1.0000
vn -0.0000 1.0000 -0.0000
vn -0.0000 -1.0000 -0.0000
vn -1.0000 -0.0000 -0.0000
vn 1.0000 -0.0000 -0.0000
vt 0.000000 1.000000
vt 0.062500 1.000000
vt 0.250000 0.531250
vt 0.250000 0.593750
vt 0.218750 0.531250
vt 0.218750 0.593750
vt 0.437500 0.718750
vt 0.437500 0.656250
vt 0.406250 0.718750
vt 0.406250 0.656250
vt 0.031250 1.000000
vt 0.062500 0.656250
vt 0.062500 0.531250
vt 0.093750 0.656250
vt 0.093750 0.531250
vt 0.187500 1.000000
vt 0.187500 0.875000
vt 0.234375 1.000000
vt 0.234375 0.875000
vt 0.187500 0.750000
vt 0.234375 0.750000
vt 0.125000 0.656250
vt 0.125000 0.531250
s 0
usemtl Material_0.001
f 1/1/1 3/1/1 2/2/1
f 3/1/1 4/2/1 2/2/1
f 5/1/2 7/1/2 6/2/2
f 7/1/2 8/2/2 6/2/2
f 9/3/3 11/4/3 10/5/3
f 11/4/3 12/6/3 10/5/3
f 13/7/4 15/8/4 14/9/4
f 15/8/4 16/10/4 14/9/4
f 17/1/5 19/1/5 18/11/5
f 19/1/5 20/11/5 18/11/5
f 21/1/6 23/1/6 22/11/6
f 23/1/6 24/11/6 22/11/6
f 25/12/1 27/13/1 26/14/1
f 27/13/1 28/15/1 26/14/1
f 29/12/2 31/13/2 30/14/2
f 31/13/2 32/15/2 30/14/2
f 33/12/3 35/13/3 34/14/3
f 35/13/3 36/15/3 34/14/3
f 37/12/4 39/13/4 38/14/4
f 39/13/4 40/15/4 38/14/4
f 41/12/5 43/13/5 42/14/5
f 43/13/5 44/15/5 42/14/5
f 45/12/6 47/13/6 46/14/6
f 47/13/6 48/15/6 46/14/6
f 49/16/1 51/17/1 50/18/1
f 51/17/1 52/19/1 50/18/1
f 53/16/2 55/17/2 54/18/2
f 55/17/2 56/19/2 54/18/2
f 57/16/3 59/17/3 58/18/3
f 59/17/3 60/19/3 58/18/3
f 61/16/4 63/17/4 62/18/4
f 63/17/4 64/19/4 62/18/4
f 65/16/5 67/17/5 66/18/5
f 67/17/5 68/19/5 66/18/5
f 69/16/6 71/17/6 70/18/6
f 71/17/6 72/19/6 70/18/6
f 73/17/1 75/20/1 74/19/1
f 75/20/1 76/21/1 74/19/1
f 77/17/2 79/20/2 78/19/2
f 79/20/2 80/21/2 78/19/2
f 81/17/3 83/20/3 82/19/3
f 83/20/3 84/21/3 82/19/3
f 85/17/4 87/20/4 86/19/4
f 87/20/4 88/21/4 86/19/4
f 89/17/5 91/20/5 90/19/5
f 91/20/5 92/21/5 90/19/5
f 93/17/6 95/20/6 94/19/6
f 95/20/6 96/21/6 94/19/6
f 97/14/1 99/15/1 98/22/1
f 99/15/1 100/23/1 98/22/1
f 101/14/2 103/15/2 102/22/2
f 103/15/2 104/23/2 102/22/2
f 105/14/3 107/15/3 106/22/3
f 107/15/3 108/23/3 106/22/3
f 109/14/4 111/15/4 110/22/4
f 111/15/4 112/23/4 110/22/4
f 113/14/5 115/15/5 114/22/5
f 115/15/5 116/23/5 114/22/5
f 117/14/6 119/15/6 118/22/6
f 119/15/6 120/23/6 118/22/6
o bulletModel_0
v 0.012485 3.239892 0.230769
v 0.781715 3.239892 0.230769
v 0.012485 2.739892 0.230769
v 0.781715 2.739892 0.230769
v 0.781715 3.239892 -0.269231
v 0.012485 3.239892 -0.269231
v 0.781715 2.739892 -0.269231
v 0.012485 2.739892 -0.269231
v 0.781715 3.239892 -0.269231
v 0.781715 3.239892 0.230769
v 0.012485 3.239892 -0.269231
v 0.012485 3.239892 0.230769
v 0.012485 2.739892 -0.269231
v 0.012485 2.739892 0.230769
v 0.781715 2.739892 -0.269231
v 0.781715 2.739892 0.230769
v 0.012485 3.239892 -0.269231
v 0.012485 3.239892 0.230769
v 0.012485 2.739892 -0.269231
v 0.012485 2.739892 0.230769
v 0.781715 3.239892 0.230769
v 0.781715 3.239892 -0.269231
v 0.781715 2.739892 0.230769
v 0.781715 2.739892 -0.269231
v 0.762485 3.201431 0.192308
v 1.147100 3.201431 0.192307
v 0.762485 2.778354 0.192308
v 1.147100 2.778354 0.192307
v 1.147100 3.201431 -0.230769
v 0.762484 3.201431 -0.230769
v 1.147100 2.778354 -0.230769
v 0.762484 2.778354 -0.230769
v 1.147100 3.201431 -0.230769
v 1.147100 3.201431 0.192307
v 0.762484 3.201431 -0.230769
v 0.762485 3.201431 0.192308
v 0.762484 2.778354 -0.230769
v 0.762485 2.778354 0.192308
v 1.147100 2.778354 -0.230769
v 1.147100 2.778354 0.192307
v 0.762484 3.201431 -0.230769
v 0.762485 3.201431 0.192308
v 0.762484 2.778354 -0.230769
v 0.762485 2.778354 0.192308
v 1.147100 3.201431 0.192307
v 1.147100 3.201431 -0.230769
v 1.147100 2.778354 0.192307
v 1.147100 2.778354 -0.230769
v 0.769231 3.076923 -0.383846
v 1.153846 3.076923 -0.383846
v 0.769231 2.692308 -0.383846
v 1.153846 2.692308 -0.383846
v 1.153846 3.076923 -0.384616
v 0.769231 3.076923 -0.384616
v 1.153846 2.692308 -0.384616
v 0.769231 2.692308 -0.384616
v 1.153846 3.076923 -0.384616
v 1.153846 3.076923 -0.383846
v 0.769231 3.076923 -0.384616
v 0.769231 3.076923 -0.383846
v 0.769231 2.692308 -0.384616
v 0.769231 2.692308 -0.383846
v 1.153846 2.692308 -0.384616
v 1.153846 2.692308 -0.383846
v 0.769231 3.076923 -0.384616
v 0.769231 3.076923 -0.383846
v 0.769231 2.692308 -0.384616
v 0.769231 2.692308 -0.383846
v 1.153846 3.076923 -0.383846
v 1.153846 3.076923 -0.384616
v 1.153846 2.692308 -0.383846
v 1.153846 2.692308 -0.384616
v 0.769231 3.076923 0.385384
v 1.153846 3.076923 0.385384
v 0.769231 2.692308 0.385384
v 1.153846 2.692308 0.385384
v 1.153846 3.076923 0.384615
v 0.769231 3.076923 0.384615
v 1.153846 2.692308 0.384615
v 0.769231 2.692308 0.384615
v 1.153846 3.076923 0.384615
v 1.153846 3.076923 0.385384
v 0.769231 3.076923 0.384615
v 0.769231 3.076923 0.385384
v 0.769231 2.692308 0.384615
v 0.769231 2.692308 0.385384
v 1.153846 2.692308 0.384615
v 1.153846 2.692308 0.385384
v 0.769231 3.076923 0.384615
v 0.769231 3.076923 0.385384
v 0.769231 2.692308 0.384615
v 0.769231 2.692308 0.385384
v 1.153846 3.076923 0.385384
v 1.153846 3.076923 0.384615
v 1.153846 2.692308 0.385384
v 1.153846 2.692308 0.384615
vn -0.0000 -0.0000 1.0000
vn -0.0000 -0.0000 -1.0000
vn -0.0000 1.0000 -0.0000
vn -0.0000 -1.0000 -0.0000
vn -1.0000 -0.0000 -0.0000
vn 1.0000 -0.0000 -0.0000
vt 0.406250 0.500000
vt 0.406250 0.484375
vt 0.437500 0.500000
vt 0.437500 0.484375
vt 0.500000 0.593750
vt 0.500000 0.578125
vt 0.531250 0.593750
vt 0.531250 0.578125
vt 0.453125 0.468750
vt 0.453125 0.500000
vt 0.437500 0.468750
vt 0.515625 0.562500
vt 0.515625 0.531250
vt 0.500000 0.562500
vt 0.500000 0.531250
vt 0.562500 0.750000
vt 0.562500 0.734375
vt 0.578125 0.750000
vt 0.578125 0.734375
vt 0.250000 0.437500
vt 0.250000 0.421875
vt 0.265625 0.437500
vt 0.265625 0.421875
vt 0.562500 0.718750
vt 0.562500 0.703125
vt 0.578125 0.718750
vt 0.578125 0.703125
vt 0.562500 0.687500
vt 0.562500 0.671875
vt 0.578125 0.687500
vt 0.578125 0.671875
vt 0.359375 0.421875
vt 0.359375 0.437500
vt 0.343750 0.421875
vt 0.343750 0.437500
vt 0.578125 0.656250
vt 0.578125 0.640625
vt 0.562500 0.656250
vt 0.562500 0.640625
vt 0.312500 0.437500
vt 0.312500 0.421875
vt 0.328125 0.437500
vt 0.328125 0.421875
vt 0.281250 0.437500
vt 0.281250 0.421875
vt 0.296875 0.437500
vt 0.296875 0.421875
vt 0.000000 0.406250
vt 0.000000 0.390625
vt 0.015625 0.406250
vt 0.015625 0.390625
s 0
usemtl Material_0.001
f 121/24/7 123/25/7 122/26/7
f 123/25/7 124/27/7 122/26/7
f 125/28/8 127/29/8 126/30/8
f 127/29/8 128/31/8 126/30/8
f 129/32/9 131/33/9 130/34/9
f 131/33/9 132/26/9 130/34/9
f 133/35/10 135/36/10 134/37/10
f 135/36/10 136/38/10 134/37/10
f 137/39/11 139/40/11 138/41/11
f 139/40/11 140/42/11 138/41/11
f 141/43/12 143/44/12 142/45/12
f 143/44/12 144/46/12 142/45/12
f 145/47/7 147/48/7 146/49/7
f 147/48/7 148/50/7 146/49/7
f 149/51/8 151/52/8 150/53/8
f 151/52/8 152/54/8 150/53/8
f 153/55/9 155/56/9 154/57/9
f 155/56/9 156/58/9 154/57/9
f 157/59/10 159/60/10 158/61/10
f 159/60/10 160/62/10 158/61/10
f 161/63/11 163/64/11 162/65/11
f 163/64/11 164/66/11 162/65/11
f 165/67/12 167/68/12 166/69/12
f 167/68/12 168/70/12 166/69/12
f 169/71/7 171/72/7 170/73/7
f 171/72/7 172/74/7 170/73/7
f 173/71/8 175/72/8 174/73/8
f 175/72/8 176/74/8 174/73/8
f 177/71/9 179/72/9 178/73/9
f 179/72/9 180/74/9 178/73/9
f 181/71/10 183/72/10 182/73/10
f 183/72/10 184/74/10 182/73/10
f 185/71/11 187/72/11 186/73/11
f 187/72/11 188/74/11 186/73/11
f 189/71/12 191/72/12 190/73/12
f 191/72/12 192/74/12 190/73/12
f 193/73/7 195/74/7 194/71/7
f 195/74/7 196/72/7 194/71/7
f 197/73/8 199/74/8 198/71/8
f 199/74/8 200/72/8 198/71/8
f 201/73/9 203/74/9 202/71/9
f 203/74/9 204/72/9 202/71/9
f 205/73/10 207/74/10 206/71/10
f 207/74/10 208/72/10 206/71/10
f 209/73/11 211/74/11 210/71/11
f 211/74/11 212/72/11 210/71/11
f 213/73/12 215/74/12 214/71/12
f 215/74/12 216/72/12 214/71/12
o bulletModel_1
v 0.012485 2.855277 0.230769
v 0.781715 2.855277 0.230769
v 0.012485 2.355277 0.230769
v 0.781715 2.355277 0.230769
v 0.781715 2.855277 -0.269231
v 0.012485 2.855277 -0.269231
v 0.781715 2.355277 -0.269231
v 0.012485 2.355277 -0.269231
v 0.781715 2.855277 -0.269231
v 0.781715 2.855277 0.230769
v 0.012485 2.855277 -0.269231
v 0.012485 2.855277 0.230769
v 0.012485 2.355277 -0.269231
v 0.012485 2.355277 0.230769
v 0.781715 2.355277 -0.269231
v 0.781715 2.355277 0.230769
v 0.012485 2.855277 -0.269231
v 0.012485 2.855277 0.230769
v 0.012485 2.355277 -0.269231
v 0.012485 2.355277 0.230769
v 0.781715 2.855277 0.230769
v 0.781715 2.855277 -0.269231
v 0.781715 2.355277 0.230769
v 0.781715 2.355277 -0.269231
v 0.762485 2.816815 0.192308
v 1.147100 2.816815 0.192307
v 0.762485 2.393739 0.192308
v 1.147100 2.393739 0.192307
v 1.147100 2.816815 -0.230769
v 0.762484 2.816815 -0.230769
v 1.147100 2.393739 -0.230769
v 0.762484 2.393739 -0.230769
v 1.147100 2.816815 -0.230769
v 1.147100 2.816815 0.192307
v 0.762484 2.816815 -0.230769
v 0.762485 2.816815 0.192308
v 0.762484 2.393739 -0.230769
v 0.762485 2.393739 0.192308
v 1.147100 2.393739 -0.230769
v 1.147100 2.393739 0.192307
v 0.762484 2.816815 -0.230769
v 0.762485 2.816815 0.192308
v 0.762484 2.393739 -0.230769
v 0.762485 2.393739 0.192308
v 1.147100 2.816815 0.192307
v 1.147100 2.816815 -0.230769
v 1.147100 2.393739 0.192307
v 1.147100 2.393739 -0.230769
vn -0.0000 -0.0000 1.0000
vn -0.0000 -0.0000 -1.0000
vn -0.0000 1.0000 -0.0000
vn -0.0000 -1.0000 -0.0000
vn -1.0000 -0.0000 -0.0000
vn 1.0000 -0.0000 -0.0000
vt 0.468750 0.500000
vt 0.468750 0.484375
vt 0.500000 0.500000
vt 0.500000 0.484375
vt 0.500000 0.531250
vt 0.500000 0.515625
vt 0.531250 0.531250
vt 0.531250 0.515625
vt 0.515625 0.468750
vt 0.515625 0.500000
vt 0.500000 0.468750
vt 0.015625 0.468750
vt 0.015625 0.437500
vt 0.000000 0.468750
vt 0.000000 0.437500
vt 0.562500 0.625000
vt 0.562500 0.609375
vt 0.578125 0.625000
vt 0.578125 0.609375
vt 0.375000 0.437500
vt 0.375000 0.421875
vt 0.390625 0.437500
vt 0.390625 0.421875
vt 0.562500 0.593750
vt 0.562500 0.578125
vt 0.578125 0.593750
vt 0.578125 0.578125
vt 0.562500 0.562500
vt 0.562500 0.546875
vt 0.578125 0.562500
vt 0.578125 0.546875
vt 0.484375 0.421875
vt 0.484375 0.437500
vt 0.468750 0.421875
vt 0.468750 0.437500
vt 0.578125 0.531250
vt 0.578125 0.515625
vt 0.562500 0.531250
vt 0.562500 0.515625
vt 0.437500 0.437500
vt 0.437500 0.421875
vt 0.453125 0.437500
vt 0.453125 0.421875
vt 0.406250 0.437500
vt 0.406250 0.421875
vt 0.421875 0.437500
vt 0.421875 0.421875
s 0
usemtl Material_0.001
f 217/75/13 219/76/13 218/77/13
f 219/76/13 220/78/13 218/77/13
f 221/79/14 223/80/14 222/81/14
f 223/80/14 224/82/14 222/81/14
f 225/83/15 227/84/15 226/85/15
f 227/84/15 228/77/15 226/85/15
f 229/86/16 231/87/16 230/88/16
f 231/87/16 232/89/16 230/88/16
f 233/90/17 235/91/17 234/92/17
f 235/91/17 236/93/17 234/92/17
f 237/94/18 239/95/18 238/96/18
f 239/95/18 240/97/18 238/96/18
f 241/98/13 243/99/13 242/100/13
f 243/99/13 244/101/13 242/100/13
f 245/102/14 247/103/14 246/104/14
f 247/103/14 248/105/14 246/104/14
f 249/106/15 251/107/15 250/108/15
f 251/107/15 252/109/15 250/108/15
f 253/110/16 255/111/16 254/112/16
f 255/111/16 256/113/16 254/112/16
f 257/114/17 259/115/17 258/116/17
f 259/115/17 260/117/17 258/116/17
f 261/118/18 263/119/18 262/120/18
f 263/119/18 264/121/18 262/120/18
o bulletModel_4
v 0.769231 1.538462 -0.383846
v 1.153846 1.538462 -0.383846
v 0.769231 1.153846 -0.383846
v 1.153846 1.153846 -0.383846
v 1.153846 1.538462 -0.384616
v 0.769231 1.538462 -0.384616
v 1.153846 1.153846 -0.384616
v 0.769231 1.153846 -0.384616
v 1.153846 1.538462 -0.384616
v 1.153846 1.538462 -0.383846
v 0.769231 1.538462 -0.384616
v 0.769231 1.538462 -0.383846
v 0.769231 1.153846 -0.384616
v 0.769231 1.153846 -0.383846
v 1.153846 1.153846 -0.384616
v 1.153846 1.153846 -0.383846
v 0.769231 1.538462 -0.384616
v 0.769231 1.538462 -0.383846
v 0.769231 1.153846 -0.384616
v 0.769231 1.153846 -0.383846
v 1.153846 1.538462 -0.383846
v 1.153846 1.538462 -0.384616
v 1.153846 1.153846 -0.383846
v 1.153846 1.153846 -0.384616
v 0.769231 1.538462 0.385384
v 1.153846 1.538462 0.385384
v 0.769231 1.153846 0.385384
v 1.153846 1.153846 0.385384
v 1.153846 1.538462 0.384615
v 0.769231 1.538462 0.384615
v 1.153846 1.153846 0.384615
v 0.769231 1.153846 0.384615
v 1.153846 1.538462 0.384615
v 1.153846 1.538462 0.385384
v 0.769231 1.538462 0.384615
v 0.769231 1.538462 0.385384
v 0.769231 1.153846 0.384615
v 0.769231 1.153846 0.385384
v 1.153846 1.153846 0.384615
v 1.153846 1.153846 0.385384
v 0.769231 1.538462 0.384615
v 0.769231 1.538462 0.385384
v 0.769231 1.153846 0.384615
v 0.769231 1.153846 0.385384
v 1.153846 1.538462 0.385384
v 1.153846 1.538462 0.384615
v 1.153846 1.153846 0.385384
v 1.153846 1.153846 0.384615
vn -0.0000 -0.0000 1.0000
vn -0.0000 -0.0000 -1.0000
vn -0.0000 1.0000 -0.0000
vn -0.0000 -1.0000 -0.0000
vn -1.0000 -0.0000 -0.0000
vn 1.0000 -0.0000 -0.0000
vt 0.000000 0.406250
vt 0.000000 0.390625
vt 0.015625 0.406250
vt 0.015625 0.390625
s 0
usemtl Material_0.001
f 265/122/19 267/123/19 266/124/19
f 267/123/19 268/125/19 266/124/19
f 269/122/20 271/123/20 270/124/20
f 271/123/20 272/125/20 270/124/20
f 273/122/21 275/123/21 274/124/21
f 275/123/21 276/125/21 274/124/21
f 277/122/22 279/123/22 278/124/22
f 279/123/22 280/125/22 278/124/22
f 281/122/23 283/123/23 282/124/23
f 283/123/23 284/125/23 282/124/23
f 285/122/24 287/123/24 286/124/24
f 287/123/24 288/125/24 286/124/24
f 289/124/19 291/125/19 290/122/19
f 291/125/19 292/123/19 290/122/19
f 293/124/20 295/125/20 294/122/20
f 295/125/20 296/123/20 294/122/20
f 297/124/21 299/125/21 298/122/21
f 299/125/21 300/123/21 298/122/21
f 301/124/22 303/125/22 302/122/22
f 303/125/22 304/123/22 302/122/22
f 305/124/23 307/125/23 306/122/23
f 307/125/23 308/123/23 306/122/23
f 309/124/24 311/125/24 310/122/24
f 311/125/24 312/123/24 310/122/24
o bulletModel_2
v 0.769231 2.307692 0.385384
v 1.153846 2.307692 0.385384
v 0.769231 1.923077 0.385384
v 1.153846 1.923077 0.385384
v 1.153846 2.307692 0.384615
v 0.769231 2.307692 0.384615
v 1.153846 1.923077 0.384615
v 0.769231 1.923077 0.384615
v 1.153846 2.307692 0.384615
v 1.153846 2.307692 0.385384
v 0.769231 2.307692 0.384615
v 0.769231 2.307692 0.385384
v 0.769231 1.923077 0.384615
v 0.769231 1.923077 0.385384
v 1.153846 1.923077 0.384615
v 1.153846 1.923077 0.385384
v 0.769231 2.307692 0.384615
v 0.769231 2.307692 0.385384
v 0.769231 1.923077 0.384615
v 0.769231 1.923077 0.385384
v 1.153846 2.307692 0.385384
v 1.153846 2.307692 0.384615
v 1.153846 1.923077 0.385384
v 1.153846 1.923077 0.384615
v 0.769231 2.307692 -0.383846
v 1.153846 2.307692 -0.383846
v 0.769231 1.923077 -0.383846
v 1.153846 1.923077 -0.383846
v 1.153846 2.307692 -0.384616
v 0.769231 2.307692 -0.384616
v 1.153846 1.923077 -0.384616
v 0.769231 1.923077 -0.384616
v 1.153846 2.307692 -0.384616
v 1.153846 2.307692 -0.383846
v 0.769231 2.307692 -0.384616
v 0.769231 2.307692 -0.383846
v 0.769231 1.923077 -0.384616
v 0.769231 1.923077 -0.383846
v 1.153846 1.923077 -0.384616
v 1.153846 1.923077 -0.383846
v 0.769231 2.307692 -0.384616
v 0.769231 2.307692 -0.383846
v 0.769231 1.923077 -0.384616
v 0.769231 1.923077 -0.383846
v 1.153846 2.307692 -0.383846
v 1.153846 2.307692 -0.384616
v 1.153846 1.923077 -0.383846
v 1.153846 1.923077 -0.384616
vn -0.0000 -0.0000 1.0000
vn -0.0000 -0.0000 -1.0000
vn -0.0000 1.0000 -0.0000
vn -0.0000 -1.0000 -0.0000
vn -1.0000 -0.0000 -0.0000
vn 1.0000 -0.0000 -0.0000
vt 0.046875 0.406250
vt 0.046875 0.390625
vt 0.031250 0.406250
vt 0.031250 0.390625
s 0
usemtl Material_0.001
f 313/126/25 315/127/25 314/128/25
f 315/127/25 316/129/25 314/128/25
f 317/126/26 319/127/26 318/128/26
f 319/127/26 320/129/26 318/128/26
f 321/126/27 323/127/27 322/128/27
f 323/127/27 324/129/27 322/128/27
f 325/126/28 327/127/28 326/128/28
f 327/127/28 328/129/28 326/128/28
f 329/126/29 331/127/29 330/128/29
f 331/127/29 332/129/29 330/128/29
f 333/126/30 335/127/30 334/128/30
f 335/127/30 336/129/30 334/128/30
f 337/128/25 339/129/25 338/126/25
f 339/129/25 340/127/25 338/126/25
f 341/128/26 343/129/26 342/126/26
f 343/129/26 344/127/26 342/126/26
f 345/128/27 347/129/27 346/126/27
f 347/129/27 348/127/27 346/126/27
f 349/128/28 351/129/28 350/126/28
f 351/129/28 352/127/28 350/126/28
f 353/128/29 355/129/29 354/126/29
f 355/129/29 356/127/29 354/126/29
f 357/128/30 359/129/30 358/126/30
f 359/129/30 360/127/30 358/126/30
o bulletModel_6
v 0.769231 0.769231 0.385384
v 1.153846 0.769231 0.385384
v 0.769231 0.384615 0.385384
v 1.153846 0.384615 0.385384
v 1.153846 0.769231 0.384615
v 0.769231 0.769231 0.384615
v 1.153846 0.384615 0.384615
v 0.769231 0.384615 0.384615
v 1.153846 0.769231 0.384615
v 1.153846 0.769231 0.385384
v 0.769231 0.769231 0.384615
v 0.769231 0.769231 0.385384
v 0.769231 0.384615 0.384615
v 0.769231 0.384615 0.385384
v 1.153846 0.384615 0.384615
v 1.153846 0.384615 0.385384
v 0.769231 0.769231 0.384615
v 0.769231 0.769231 0.385384
v 0.769231 0.384615 0.384615
v 0.769231 0.384615 0.385384
v 1.153846 0.769231 0.385384
v 1.153846 0.769231 0.384615
v 1.153846 0.384615 0.385384
v 1.153846 0.384615 0.384615
v 0.769231 0.769231 -0.383846
v 1.153846 0.769231 -0.383846
v 0.769231 0.384615 -0.383846
v 1.153846 0.384615 -0.383846
v 1.153846 0.769231 -0.384616
v 0.769231 0.769231 -0.384616
v 1.153846 0.384615 -0.384616
v 0.769231 0.384615 -0.384616
v 1.153846 0.769231 -0.384616
v 1.153846 0.769231 -0.383846
v 0.769231 0.769231 -0.384616
v 0.769231 0.769231 -0.383846
v 0.769231 0.384615 -0.384616
v 0.769231 0.384615 -0.383846
v 1.153846 0.384615 -0.384616
v 1.153846 0.384615 -0.383846
v 0.769231 0.769231 -0.384616
v 0.769231 0.769231 -0.383846
v 0.769231 0.384615 -0.384616
v 0.769231 0.384615 -0.383846
v 1.153846 0.769231 -0.383846
v 1.153846 0.769231 -0.384616
v 1.153846 0.384615 -0.383846
v 1.153846 0.384615 -0.384616
vn -0.0000 -0.0000 1.0000
vn -0.0000 -0.0000 -1.0000
vn -0.0000 1.0000 -0.0000
vn -0.0000 -1.0000 -0.0000
vn -1.0000 -0.0000 -0.0000
vn 1.0000 -0.0000 -0.0000
vt 0.046875 0.406250
vt 0.046875 0.390625
vt 0.031250 0.406250
vt 0.031250 0.390625
s 0
usemtl Material_0.001
f 361/130/31 363/131/31 362/132/31
f 363/131/31 364/133/31 362/132/31
f 365/130/32 367/131/32 366/132/32
f 367/131/32 368/133/32 366/132/32
f 369/130/33 371/131/33 370/132/33
f 371/131/33 372/133/33 370/132/33
f 373/130/34 375/131/34 374/132/34
f 375/131/34 376/133/34 374/132/34
f 377/130/35 379/131/35 378/132/35
f 379/131/35 380/133/35 378/132/35
f 381/130/36 383/131/36 382/132/36
f 383/131/36 384/133/36 382/132/36
f 385/132/31 387/133/31 386/130/31
f 387/133/31 388/131/31 386/130/31
f 389/132/32 391/133/32 390/130/32
f 391/133/32 392/131/32 390/130/32
f 393/132/33 395/133/33 394/130/33
f 395/133/33 396/131/33 394/130/33
f 397/132/34 399/133/34 398/130/34
f 399/133/34 400/131/34 398/130/34
f 401/132/35 403/133/35 402/130/35
f 403/133/35 404/131/35 402/130/35
f 405/132/36 407/133/36 406/130/36
f 407/133/36 408/131/36 406/130/36
