# Blender 4.5.1 LTS
# www.blender.org
mtllib lev.x25mag50.mtl
o bulletModel_0
v 1.538462 0.653846 0.307692
v 1.923077 0.653846 0.307692
v 1.538462 0.192308 0.307692
v 1.923077 0.192308 0.307692
v 1.923077 0.653846 -0.153847
v 1.538461 0.653846 -0.153846
v 1.923077 0.192308 -0.153847
v 1.538461 0.192308 -0.153846
v 1.923077 0.653846 -0.153847
v 1.923077 0.653846 0.307692
v 1.538461 0.653846 -0.153846
v 1.538462 0.653846 0.307692
v 1.538461 0.192308 -0.153846
v 1.538462 0.192308 0.307692
v 1.923077 0.192308 -0.153847
v 1.923077 0.192308 0.307692
v 1.538461 0.653846 -0.153846
v 1.538462 0.653846 0.307692
v 1.538461 0.192308 -0.153846
v 1.538462 0.192308 0.307692
v 1.923077 0.653846 0.307692
v 1.923077 0.653846 -0.153847
v 1.923077 0.192308 0.307692
v 1.923077 0.192308 -0.153847
v 0.038462 0.711538 0.365385
v 1.538462 0.711538 0.365384
v 0.038462 0.134615 0.365385
v 1.538462 0.134615 0.365384
v 1.538461 0.711538 -0.211539
v 0.038461 0.711538 -0.211538
v 1.538461 0.134615 -0.211539
v 0.038461 0.134615 -0.211538
v 1.538461 0.711538 -0.211539
v 1.538462 0.711538 0.365384
v 0.038461 0.711538 -0.211538
v 0.038462 0.711538 0.365385
v 0.038461 0.134615 -0.211538
v 0.038462 0.134615 0.365385
v 1.538461 0.134615 -0.211539
v 1.538462 0.134615 0.365384
v 0.038461 0.711538 -0.211538
v 0.038462 0.711538 0.365385
v 0.038461 0.134615 -0.211538
v 0.038462 0.134615 0.365385
v 1.538462 0.711538 0.365384
v 1.538461 0.711538 -0.211539
v 1.538462 0.134615 0.365384
v 1.538461 0.134615 -0.211539
v 1.923077 0.615385 0.269230
v 2.269231 0.615385 0.269230
v 1.923077 0.230769 0.269230
v 2.269231 0.230769 0.269230
v 2.269231 0.615385 -0.115385
v 1.923077 0.615385 -0.115385
v 2.269231 0.230769 -0.115385
v 1.923077 0.230769 -0.115385
v 2.269231 0.615385 -0.115385
v 2.269231 0.615385 0.269230
v 1.923077 0.615385 -0.115385
v 1.923077 0.615385 0.269230
v 1.923077 0.230769 -0.115385
v 1.923077 0.230769 0.269230
v 2.269231 0.230769 -0.115385
v 2.269231 0.230769 0.269230
v 1.923077 0.615385 -0.115385
v 1.923077 0.615385 0.269230
v 1.923077 0.230769 -0.115385
v 1.923077 0.230769 0.269230
v 2.269231 0.615385 0.269230
v 2.269231 0.615385 -0.115385
v 2.269231 0.230769 0.269230
v 2.269231 0.230769 -0.115385
vn -0.0000 -0.0000 1.0000
vn -0.0000 -0.0000 -1.0000
vn -0.0000 1.0000 -0.0000
vn -0.0000 -1.0000 -0.0000
vn -1.0000 -0.0000 -0.0000
vn 1.0000 -0.0000 -0.0000
vt 0.750000 0.875000
vt 0.750000 0.843750
vt 0.781250 0.875000
vt 0.781250 0.843750
vt 0.750000 0.812500
vt 0.750000 0.781250
vt 0.781250 0.812500
vt 0.781250 0.781250
vt 0.281250 0.218750
vt 0.281250 0.250000
vt 0.250000 0.218750
vt 0.250000 0.250000
vt 0.781250 0.750000
vt 0.781250 0.718750
vt 0.750000 0.750000
vt 0.750000 0.718750
vt 0.187500 0.250000
vt 0.187500 0.218750
vt 0.218750 0.250000
vt 0.218750 0.218750
vt 0.125000 0.250000
vt 0.125000 0.218750
vt 0.156250 0.250000
vt 0.156250 0.218750
vt 0.562500 0.500000
vt 0.562500 0.437500
vt 0.687500 0.500000
vt 0.687500 0.437500
vt 0.562500 0.375000
vt 0.687500 0.375000
vt 0.062500 0.250000
vt 0.062500 0.375000
vt 0.000000 0.250000
vt 0.000000 0.375000
vt 0.125000 0.375000
vt 0.562500 0.312500
vt 0.625000 0.375000
vt 0.625000 0.312500
vt 0.625000 0.687500
vt 0.625000 0.625000
vt 0.687500 0.687500
vt 0.687500 0.625000
vt 0.750000 0.687500
vt 0.750000 0.656250
vt 0.781250 0.687500
vt 0.781250 0.656250
vt 0.750000 0.625000
vt 0.750000 0.593750
vt 0.781250 0.625000
vt 0.781250 0.593750
vt 0.468750 0.218750
vt 0.468750 0.250000
vt 0.437500 0.218750
vt 0.437500 0.250000
vt 0.781250 0.562500
vt 0.781250 0.531250
vt 0.750000 0.562500
vt 0.750000 0.531250
vt 0.375000 0.250000
vt 0.375000 0.218750
vt 0.406250 0.250000
vt 0.406250 0.218750
vt 0.312500 0.250000
vt 0.312500 0.218750
vt 0.343750 0.250000
vt 0.343750 0.218750
s 0
usemtl Material_0.001
f 1/1/1 3/2/1 2/3/1
f 3/2/1 4/4/1 2/3/1
f 5/5/2 7/6/2 6/7/2
f 7/6/2 8/8/2 6/7/2
f 9/9/3 11/10/3 10/11/3
f 11/10/3 12/12/3 10/11/3
f 13/13/4 15/14/4 14/15/4
f 15/14/4 16/16/4 14/15/4
f 17/17/5 19/18/5 18/19/5
f 19/18/5 20/20/5 18/19/5
f 21/21/6 23/22/6 22/23/6
f 23/22/6 24/24/6 22/23/6
f 25/25/1 27/26/1 26/27/1
f 27/26/1 28/28/1 26/27/1
f 29/26/2 31/29/2 30/28/2
f 31/29/2 32/30/2 30/28/2
f 33/31/3 35/32/3 34/33/3
f 35/32/3 36/34/3 34/33/3
f 37/35/4 39/21/4 38/32/4
f 39/21/4 40/31/4 38/32/4
f 41/29/5 43/36/5 42/37/5
f 43/36/5 44/38/5 42/37/5
f 45/39/6 47/40/6 46/41/6
f 47/40/6 48/42/6 46/41/6
f 49/43/1 51/44/1 50/45/1
f 51/44/1 52/46/1 50/45/1
f 53/47/2 55/48/2 54/49/2
f 55/48/2 56/50/2 54/49/2
f 57/51/3 59/52/3 58/53/3
f 59/52/3 60/54/3 58/53/3
f 61/55/4 63/56/4 62/57/4
f 63/56/4 64/58/4 62/57/4
f 65/59/5 67/60/5 66/61/5
f 67/60/5 68/62/5 66/61/5
f 69/63/6 71/64/6 70/65/6
f 71/64/6 72/66/6 70/65/6
o bulletModel_1
v 0.038462 0.519231 0.230769
v 1.538461 0.519231 0.230769
v 0.038462 -0.057692 0.230769
v 1.538461 -0.057692 0.230769
v 1.538461 0.519231 -0.346154
v 0.038461 0.519231 -0.346154
v 1.538461 -0.057692 -0.346154
v 0.038461 -0.057692 -0.346154
v 1.538461 0.519231 -0.346154
v 1.538461 0.519231 0.230769
v 0.038461 0.519231 -0.346154
v 0.038462 0.519231 0.230769
v 0.038461 -0.057692 -0.346154
v 0.038462 -0.057692 0.230769
v 1.538461 -0.057692 -0.346154
v 1.538461 -0.057692 0.230769
v 0.038461 0.519231 -0.346154
v 0.038462 0.519231 0.230769
v 0.038461 -0.057692 -0.346154
v 0.038462 -0.057692 0.230769
v 1.538461 0.519231 0.230769
v 1.538461 0.519231 -0.346154
v 1.538461 -0.057692 0.230769
v 1.538461 -0.057692 -0.346154
v 1.923077 0.423077 0.134615
v 2.269231 0.423077 0.134615
v 1.923077 0.038462 0.134615
v 2.269231 0.038462 0.134615
v 2.269231 0.423077 -0.250000
v 1.923077 0.423077 -0.250000
v 2.269231 0.038462 -0.250000
v 1.923077 0.038462 -0.250000
v 2.269231 0.423077 -0.250000
v 2.269231 0.423077 0.134615
v 1.923077 0.423077 -0.250000
v 1.923077 0.423077 0.134615
v 1.923077 0.038462 -0.250000
v 1.923077 0.038462 0.134615
v 2.269231 0.038462 -0.250000
v 2.269231 0.038462 0.134615
v 1.923077 0.423077 -0.250000
v 1.923077 0.423077 0.134615
v 1.923077 0.038462 -0.250000
v 1.923077 0.038462 0.134615
v 2.269231 0.423077 0.134615
v 2.269231 0.423077 -0.250000
v 2.269231 0.038462 0.134615
v 2.269231 0.038462 -0.250000
v 1.538461 0.461538 0.173077
v 1.923077 0.461538 0.173077
v 1.538461 -0.000000 0.173077
v 1.923077 -0.000000 0.173077
v 1.923077 0.461538 -0.288462
v 1.538461 0.461538 -0.288462
v 1.923077 -0.000000 -0.288462
v 1.538461 -0.000000 -0.288462
v 1.923077 0.461538 -0.288462
v 1.923077 0.461538 0.173077
v 1.538461 0.461538 -0.288462
v 1.538461 0.461538 0.173077
v 1.538461 -0.000000 -0.288462
v 1.538461 -0.000000 0.173077
v 1.923077 -0.000000 -0.288462
v 1.923077 -0.000000 0.173077
v 1.538461 0.461538 -0.288462
v 1.538461 0.461538 0.173077
v 1.538461 -0.000000 -0.288462
v 1.538461 -0.000000 0.173077
v 1.923077 0.461538 0.173077
v 1.923077 0.461538 -0.288462
v 1.923077 -0.000000 0.173077
v 1.923077 -0.000000 -0.288462
vn -0.0000 -0.0000 1.0000
vn -0.0000 -0.0000 -1.0000
vn -0.0000 1.0000 -0.0000
vn -0.0000 -1.0000 -0.0000
vn -1.0000 -0.0000 -0.0000
vn 1.0000 -0.0000 -0.0000
vt 0.625000 0.812500
vt 0.625000 0.750000
vt 0.750000 0.812500
vt 0.750000 0.750000
vt 0.625000 0.687500
vt 0.750000 0.687500
vt 0.187500 0.250000
vt 0.187500 0.375000
vt 0.125000 0.250000
vt 0.125000 0.375000
vt 0.437500 0.375000
vt 0.437500 0.250000
vt 0.375000 0.375000
vt 0.375000 0.250000
vt 0.687500 0.687500
vt 0.687500 0.625000
vt 0.750000 0.625000
vt 0.625000 0.375000
vt 0.625000 0.312500
vt 0.687500 0.375000
vt 0.687500 0.312500
vt 0.687500 0.281250
vt 0.718750 0.312500
vt 0.718750 0.281250
vt 0.750000 1.000000
vt 0.750000 0.968750
vt 0.781250 1.000000
vt 0.781250 0.968750
vt 0.093750 0.218750
vt 0.093750 0.250000
vt 0.062500 0.218750
vt 0.062500 0.250000
vt 0.781250 0.937500
vt 0.781250 0.906250
vt 0.750000 0.937500
vt 0.750000 0.906250
vt 0.000000 0.250000
vt 0.000000 0.218750
vt 0.031250 0.250000
vt 0.031250 0.218750
vt 0.687500 0.343750
vt 0.718750 0.375000
vt 0.718750 0.343750
vt 0.750000 0.500000
vt 0.750000 0.468750
vt 0.781250 0.500000
vt 0.781250 0.468750
vt 0.750000 0.437500
vt 0.750000 0.406250
vt 0.781250 0.437500
vt 0.781250 0.406250
vt 0.656250 0.218750
vt 0.656250 0.250000
vt 0.625000 0.218750
vt 0.625000 0.250000
vt 0.781250 0.375000
vt 0.781250 0.343750
vt 0.750000 0.375000
vt 0.750000 0.343750
vt 0.562500 0.250000
vt 0.562500 0.218750
vt 0.593750 0.250000
vt 0.593750 0.218750
vt 0.500000 0.250000
vt 0.500000 0.218750
vt 0.531250 0.250000
vt 0.531250 0.218750
s 0
usemtl Material_0.001
f 73/67/7 75/68/7 74/69/7
f 75/68/7 76/70/7 74/69/7
f 77/68/8 79/71/8 78/70/8
f 79/71/8 80/72/8 78/70/8
f 81/73/9 83/74/9 82/75/9
f 83/74/9 84/76/9 82/75/9
f 85/77/10 87/78/10 86/79/10
f 87/78/10 88/80/10 86/79/10
f 89/81/11 91/82/11 90/72/11
f 91/82/11 92/83/11 90/72/11
f 93/84/12 95/85/12 94/86/12
f 95/85/12 96/87/12 94/86/12
f 97/87/7 99/88/7 98/89/7
f 99/88/7 100/90/7 98/89/7
f 101/91/8 103/92/8 102/93/8
f 103/92/8 104/94/8 102/93/8
f 105/95/9 107/96/9 106/97/9
f 107/96/9 108/98/9 106/97/9
f 109/99/10 111/100/10 110/101/10
f 111/100/10 112/102/10 110/101/10
f 113/103/11 115/104/11 114/105/11
f 115/104/11 116/106/11 114/105/11
f 117/86/12 119/107/12 118/108/12
f 119/107/12 120/109/12 118/108/12
f 121/110/7 123/111/7 122/112/7
f 123/111/7 124/113/7 122/112/7
f 125/114/8 127/115/8 126/116/8
f 127/115/8 128/117/8 126/116/8
f 129/118/9 131/119/9 130/120/9
f 131/119/9 132/121/9 130/120/9
f 133/122/10 135/123/10 134/124/10
f 135/123/10 136/125/10 134/124/10
f 137/126/11 139/127/11 138/128/11
f 139/127/11 140/129/11 138/128/11
f 141/130/12 143/131/12 142/132/12
f 143/131/12 144/133/12 142/132/12
o ammoModel
v 2.306923 0.384615 0.384615
v 2.307692 0.384615 0.384615
v 2.306923 0.000000 0.384615
v 2.307692 0.000000 0.384615
v 2.307692 0.384615 -0.384616
v 2.306923 0.384615 -0.384616
v 2.307692 0.000000 -0.384616
v 2.306923 0.000000 -0.384616
v 2.307692 0.384615 -0.384616
v 2.307692 0.384615 0.384615
v 2.306923 0.384615 -0.384616
v 2.306923 0.384615 0.384615
v 2.306923 0.000000 -0.384616
v 2.306923 0.000000 0.384615
v 2.307692 0.000000 -0.384616
v 2.307692 0.000000 0.384615
v 2.306923 0.384615 -0.384616
v 2.306923 0.384615 0.384615
v 2.306923 0.000000 -0.384616
v 2.306923 0.000000 0.384615
v 2.307692 0.384615 0.384615
v 2.307692 0.384615 -0.384616
v 2.307692 0.000000 0.384615
v 2.307692 0.000000 -0.384616
v -0.000769 -1.060519 0.000000
v 2.308461 -1.060519 -0.000000
v -0.000769 -2.692304 1.631785
v 2.308461 -2.692304 1.631785
v 2.308461 -2.692304 -1.631785
v -0.000770 -2.692304 -1.631784
v 2.308461 -4.324089 0.000000
v -0.000769 -4.324089 0.000001
v 2.308461 -2.692304 -1.631785
v 2.308461 -1.060519 -0.000000
v -0.000770 -2.692304 -1.631784
v -0.000769 -1.060519 0.000000
v -0.000769 -4.324089 0.000001
v -0.000769 -2.692304 1.631785
v 2.308461 -4.324089 0.000000
v 2.308461 -2.692304 1.631785
v -0.000770 -2.692304 -1.631784
v -0.000769 -1.060519 0.000000
v -0.000769 -4.324089 0.000001
v -0.000769 -2.692304 1.631785
v 2.308461 -1.060519 -0.000000
v 2.308461 -2.692304 -1.631785
v 2.308461 -2.692304 1.631785
v 2.308461 -4.324089 0.000000
v 2.307692 -1.730769 0.961538
v 3.076923 -1.730769 0.961538
v 2.307692 -3.653846 0.961538
v 3.076923 -3.653846 0.961538
v 3.076923 -1.730769 -0.961539
v 2.307692 -1.730769 -0.961539
v 3.076923 -3.653846 -0.961539
v 2.307692 -3.653846 -0.961539
v 3.076923 -1.730769 -0.961539
v 3.076923 -1.730769 0.961538
v 2.307692 -1.730769 -0.961539
v 2.307692 -1.730769 0.961538
v 2.307692 -3.653846 -0.961539
v 2.307692 -3.653846 0.961538
v 3.076923 -3.653846 -0.961539
v 3.076923 -3.653846 0.961538
v 2.307692 -1.730769 -0.961539
v 2.307692 -1.730769 0.961538
v 2.307692 -3.653846 -0.961539
v 2.307692 -3.653846 0.961538
v 3.076923 -1.730769 0.961538
v 3.076923 -1.730769 -0.961539
v 3.076923 -3.653846 0.961538
v 3.076923 -3.653846 -0.961539
v 0.000000 0.769231 0.385385
v 2.307692 0.769231 0.385384
v 0.000000 0.000000 0.385385
v 2.307692 0.000000 0.385384
v 2.307692 0.769231 0.384615
v 0.000000 0.769231 0.384615
v 2.307692 0.000000 0.384615
v 0.000000 0.000000 0.384615
v 2.307692 0.769231 0.384615
v 2.307692 0.769231 0.385384
v 0.000000 0.769231 0.384615
v 0.000000 0.769231 0.385385
v 0.000000 0.000000 0.384615
v 0.000000 0.000000 0.385385
v 2.307692 0.000000 0.384615
v 2.307692 0.000000 0.385384
v 0.000000 0.769231 0.384615
v 0.000000 0.769231 0.385385
v 0.000000 0.000000 0.384615
v 0.000000 0.000000 0.385385
v 2.307692 0.769231 0.385384
v 2.307692 0.769231 0.384615
v 2.307692 0.000000 0.385384
v 2.307692 0.000000 0.384615
v -0.000000 0.769231 -0.383846
v 2.307692 0.769231 -0.383847
v -0.000000 0.000000 -0.383846
v 2.307692 0.000000 -0.383847
v 2.307692 0.769231 -0.384616
v -0.000000 0.769231 -0.384615
v 2.307692 0.000000 -0.384616
v -0.000000 0.000000 -0.384615
v 2.307692 0.769231 -0.384616
v 2.307692 0.769231 -0.383847
v -0.000000 0.769231 -0.384615
v -0.000000 0.769231 -0.383846
v -0.000000 0.000000 -0.384615
v -0.000000 0.000000 -0.383846
v 2.307692 0.000000 -0.384616
v 2.307692 0.000000 -0.383847
v -0.000000 0.769231 -0.384615
v -0.000000 0.769231 -0.383846
v -0.000000 0.000000 -0.384615
v -0.000000 0.000000 -0.383846
v 2.307692 0.769231 -0.383847
v 2.307692 0.769231 -0.384616
v 2.307692 0.000000 -0.383847
v 2.307692 0.000000 -0.384616
v 0.000000 0.000000 0.384615
v 2.307692 0.000000 0.384615
v 0.000000 -1.538462 0.384615
v 2.307692 -1.538462 0.384615
v 2.307692 0.000000 -0.384616
v -0.000000 0.000000 -0.384615
v 2.307692 -1.538462 -0.384616
v -0.000000 -1.538462 -0.384615
v 2.307692 0.000000 -0.384616
v 2.307692 0.000000 0.384615
v -0.000000 0.000000 -0.384615
v 0.000000 0.000000 0.384615
v -0.000000 -1.538462 -0.384615
v 0.000000 -1.538462 0.384615
v 2.307692 -1.538462 -0.384616
v 2.307692 -1.538462 0.384615
v -0.000000 0.000000 -0.384615
v 0.000000 0.000000 0.384615
v -0.000000 -1.538462 -0.384615
v 0.000000 -1.538462 0.384615
v 2.307692 0.000000 0.384615
v 2.307692 0.000000 -0.384616
v 2.307692 -1.538462 0.384615
v 2.307692 -1.538462 -0.384616
v -0.000769 0.384615 0.384615
v 0.000000 0.384615 0.384615
v -0.000769 0.000000 0.384615
v 0.000000 0.000000 0.384615
v -0.000000 0.384615 -0.384615
v -0.000769 0.384615 -0.384615
v -0.000000 0.000000 -0.384615
v -0.000769 0.000000 -0.384615
v -0.000000 0.384615 -0.384615
v 0.000000 0.384615 0.384615
v -0.000769 0.384615 -0.384615
v -0.000769 0.384615 0.384615
v -0.000769 0.000000 -0.384615
v -0.000769 0.000000 0.384615
v -0.000000 0.000000 -0.384615
v 0.000000 0.000000 0.384615
v -0.000769 0.384615 -0.384615
v -0.000769 0.384615 0.384615
v -0.000769 0.000000 -0.384615
v -0.000769 0.000000 0.384615
v 0.000000 0.384615 0.384615
v -0.000000 0.384615 -0.384615
v 0.000000 0.000000 0.384615
v -0.000000 0.000000 -0.384615
vn -0.0000 -0.0000 1.0000
vn -0.0000 -0.0000 -1.0000
vn -0.0000 1.0000 -0.0000
vn -0.0000 -1.0000 -0.0000
vn -1.0000 -0.0000 -0.0000
vn 1.0000 -0.0000 -0.0000
vn -0.0000 0.7071 0.7071
vn -0.0000 -0.7071 -0.7071
vn -0.0000 0.7071 -0.7071
vn -0.0000 -0.7071 0.7071
vt 0.000000 1.000000
vt 0.000000 0.968750
vt 0.062500 1.000000
vt 0.562500 0.312500
vt 0.562500 0.281250
vt 0.625000 0.312500
vt 0.625000 0.281250
vt 0.687500 0.500000
vt 0.687500 0.468750
vt 0.750000 0.500000
vt 0.750000 0.468750
vt 0.000000 0.812500
vt 0.000000 0.625000
vt 0.187500 0.812500
vt 0.187500 0.625000
vt 0.375000 0.812500
vt 0.375000 0.625000
vt 0.187500 0.437500
vt 0.000000 0.437500
vt 0.562500 1.000000
vt 0.562500 0.812500
vt 0.375000 1.000000
vt 0.187500 1.000000
vt 0.250000 0.437500
vt 0.250000 0.281250
vt 0.312500 0.437500
vt 0.312500 0.281250
vt 0.375000 0.437500
vt 0.375000 0.281250
vt 0.718750 0.562500
vt 0.718750 0.625000
vt 0.562500 0.562500
vt 0.562500 0.625000
vt 0.718750 0.500000
vt 0.562500 0.500000
vt 0.375000 0.656250
vt 0.531250 0.812500
vt 0.531250 0.656250
vt 0.187500 0.468750
vt 0.343750 0.625000
vt 0.343750 0.468750
vt 0.000000 0.375000
vt 0.187500 0.375000
vt 0.562500 0.937500
vt 0.750000 1.000000
vt 0.750000 0.937500
vt 0.000000 0.937500
vt 0.562500 0.875000
vt 0.750000 0.875000
vt 0.750000 0.812500
vt 0.375000 0.500000
vt 0.375000 0.375000
vt 0.562500 0.375000
vt 0.250000 0.250000
vt 0.187500 0.250000
vt 0.625000 0.812500
vt 0.625000 0.625000
vt 0.500000 0.375000
vt 0.500000 0.250000
vt 0.562500 0.250000
vt 0.437500 0.375000
vt 0.437500 0.250000
vt 0.687500 0.312500
vt 0.687500 0.281250
vt 0.687500 0.437500
vt 0.687500 0.406250
vt 0.750000 0.437500
vt 0.750000 0.406250
s 0
usemtl Material_0.001
f 145/134/13 147/135/13 146/134/13
f 147/135/13 148/135/13 146/134/13
f 149/134/14 151/135/14 150/134/14
f 151/135/14 152/135/14 150/134/14
f 153/136/15 155/136/15 154/134/15
f 155/136/15 156/134/15 154/134/15
f 157/136/16 159/136/16 158/134/16
f 159/136/16 160/134/16 158/134/16
f 161/137/17 163/138/17 162/139/17
f 163/138/17 164/140/17 162/139/17
f 165/141/18 167/142/18 166/143/18
f 167/142/18 168/144/18 166/143/18
f 169/145/19 171/146/19 170/147/19
f 171/146/19 172/148/19 170/147/19
f 173/147/20 175/148/20 174/149/20
f 175/148/20 176/150/20 174/149/20
f 177/151/21 179/148/21 178/152/21
f 179/148/21 180/146/21 178/152/21
f 181/153/22 183/154/22 182/155/22
f 183/154/22 184/149/22 182/155/22
f 185/156/17 187/147/17 186/155/17
f 187/147/17 188/149/17 186/155/17
f 189/134/18 191/145/18 190/156/18
f 191/145/18 192/147/18 190/156/18
f 193/157/13 195/158/13 194/159/13
f 195/158/13 196/160/13 194/159/13
f 197/159/14 199/160/14 198/161/14
f 199/160/14 200/162/14 198/161/14
f 201/163/15 203/164/15 202/165/15
f 203/164/15 204/166/15 202/165/15
f 205/163/16 207/167/16 206/165/16
f 207/167/16 208/168/16 206/165/16
f 209/149/17 211/169/17 210/170/17
f 211/169/17 212/171/17 210/170/17
f 213/148/18 215/172/18 214/173/18
f 215/172/18 216/174/18 214/173/18
f 217/152/13 219/175/13 218/151/13
f 219/175/13 220/176/13 218/151/13
f 221/153/14 223/177/14 222/178/14
f 223/177/14 224/179/14 222/178/14
f 225/145/15 227/134/15 226/145/15
f 227/134/15 228/134/15 226/145/15
f 229/134/16 231/145/16 230/134/16
f 231/145/16 232/145/16 230/134/16
f 233/134/17 235/180/17 234/134/17
f 235/180/17 236/180/17 234/134/17
f 237/134/18 239/180/18 238/134/18
f 239/180/18 240/180/18 238/134/18
f 241/177/13 243/181/13 242/179/13
f 243/181/13 244/182/13 242/179/13
f 245/181/14 247/154/14 246/182/14
f 247/154/14 248/183/14 246/182/14
f 249/145/15 251/134/15 250/145/15
f 251/134/15 252/134/15 250/145/15
f 253/134/16 255/145/16 254/134/16
f 255/145/16 256/145/16 254/134/16
f 257/134/17 259/180/17 258/134/17
f 259/180/17 260/180/17 258/134/17
f 261/134/18 263/180/18 262/134/18
f 263/180/18 264/180/18 262/134/18
f 265/150/13 267/184/13 266/166/13
f 267/184/13 268/168/13 266/166/13
f 269/184/14 271/185/14 270/168/14
f 271/185/14 272/186/14 270/168/14
f 273/187/15 275/157/15 274/188/15
f 275/157/15 276/151/15 274/188/15
f 277/189/16 279/190/16 278/154/16
f 279/190/16 280/166/16 278/154/16
f 281/191/17 283/192/17 282/186/17
f 283/192/17 284/193/17 282/186/17
f 285/194/18 287/195/18 286/191/18
f 287/195/18 288/192/18 286/191/18
f 289/134/13 291/135/13 290/134/13
f 291/135/13 292/135/13 290/134/13
f 293/134/14 295/135/14 294/134/14
f 295/135/14 296/135/14 294/134/14
f 297/136/15 299/136/15 298/134/15
f 299/136/15 300/134/15 298/134/15
f 301/136/16 303/136/16 302/134/16
f 303/136/16 304/134/16 302/134/16
f 305/139/17 307/140/17 306/196/17
f 307/140/17 308/197/17 306/196/17
f 309/198/18 311/199/18 310/200/18
f 311/199/18 312/201/18 310/200/18
o bulletModel_14
v 0.383846 -1.603430 -0.544945
v 1.154616 -1.603430 -0.544945
v 0.383846 -1.603974 -0.544402
v 1.154616 -1.603974 -0.544402
v 1.154616 -1.875394 -0.816910
v 0.383846 -1.875394 -0.816910
v 1.154616 -1.875938 -0.816366
v 0.383846 -1.875938 -0.816366
v 1.154616 -1.875394 -0.816910
v 1.154616 -1.603430 -0.544945
v 0.383846 -1.875394 -0.816910
v 0.383846 -1.603430 -0.544945
v 0.383846 -1.875938 -0.816366
v 0.383846 -1.603974 -0.544402
v 1.154616 -1.875938 -0.816366
v 1.154616 -1.603974 -0.544402
v 0.383846 -1.875394 -0.816910
v 0.383846 -1.603430 -0.544945
v 0.383846 -1.875938 -0.816366
v 0.383846 -1.603974 -0.544402
v 1.154616 -1.603430 -0.544945
v 1.154616 -1.875394 -0.816910
v 1.154616 -1.603974 -0.544402
v 1.154616 -1.875938 -0.816366
vn -0.0000 0.7071 0.7071
vn -0.0000 -0.7071 -0.7071
vn -0.0000 0.7071 -0.7071
vn -0.0000 -0.7071 0.7071
vn -1.0000 -0.0000 -0.0000
vn 1.0000 -0.0000 -0.0000
vt 0.000000 0.812500
vt 0.000000 0.625000
vt 0.187500 0.812500
vt 0.187500 0.625000
vt 0.375000 0.812500
vt 0.375000 0.625000
vt 0.718750 0.687500
vt 0.718750 0.718750
vt 0.687500 0.687500
vt 0.687500 0.718750
vt 0.562500 1.000000
vt 0.562500 0.812500
vt 0.375000 1.000000
vt 0.187500 1.000000
vt 0.000000 1.000000
s 0
usemtl Material_0.001
f 313/202/23 315/203/23 314/204/23
f 315/203/23 316/205/23 314/204/23
f 317/204/24 319/205/24 318/206/24
f 319/205/24 320/207/24 318/206/24
f 321/208/25 323/209/25 322/210/25
f 323/209/25 324/211/25 322/210/25
f 325/212/26 327/213/26 326/214/26
f 327/213/26 328/206/26 326/214/26
f 329/215/27 331/204/27 330/214/27
f 331/204/27 332/206/27 330/214/27
f 333/216/28 335/202/28 334/215/28
f 335/202/28 336/204/28 334/215/28
o bulletModel_18
v 0.383847 -2.147358 -1.088874
v 1.154616 -2.147358 -1.088874
v 0.383847 -2.147902 -1.088330
v 1.154616 -2.147902 -1.088330
v 1.154616 -2.419322 -1.360838
v 0.383847 -2.419322 -1.360838
v 1.154616 -2.419866 -1.360294
v 0.383847 -2.419866 -1.360294
v 1.154616 -2.419322 -1.360838
v 1.154616 -2.147358 -1.088874
v 0.383847 -2.419322 -1.360838
v 0.383847 -2.147358 -1.088874
v 0.383847 -2.419866 -1.360294
v 0.383847 -2.147902 -1.088330
v 1.154616 -2.419866 -1.360294
v 1.154616 -2.147902 -1.088330
v 0.383847 -2.419322 -1.360838
v 0.383847 -2.147358 -1.088874
v 0.383847 -2.419866 -1.360294
v 0.383847 -2.147902 -1.088330
v 1.154616 -2.147358 -1.088874
v 1.154616 -2.419322 -1.360838
v 1.154616 -2.147902 -1.088330
v 1.154616 -2.419866 -1.360294
vn -0.0000 0.7071 0.7071
vn -0.0000 -0.7071 -0.7071
vn -0.0000 0.7071 -0.7071
vn -0.0000 -0.7071 0.7071
vn -1.0000 -0.0000 -0.0000
vn 1.0000 -0.0000 -0.0000
vt 0.000000 0.812500
vt 0.000000 0.625000
vt 0.187500 0.812500
vt 0.187500 0.625000
vt 0.375000 0.812500
vt 0.375000 0.625000
vt 0.781250 0.718750
vt 0.781250 0.750000
vt 0.750000 0.718750
vt 0.750000 0.750000
vt 0.562500 1.000000
vt 0.562500 0.812500
vt 0.375000 1.000000
vt 0.187500 1.000000
vt 0.000000 1.000000
s 0
usemtl Material_0.001
f 337/217/29 339/218/29 338/219/29
f 339/218/29 340/220/29 338/219/29
f 341/219/30 343/220/30 342/221/30
f 343/220/30 344/222/30 342/221/30
f 345/223/31 347/224/31 346/225/31
f 347/224/31 348/226/31 346/225/31
f 349/227/32 351/228/32 350/229/32
f 351/228/32 352/221/32 350/229/32
f 353/230/33 355/219/33 354/229/33
f 355/219/33 356/221/33 354/229/33
f 357/231/34 359/217/34 358/230/34
f 359/217/34 360/219/34 358/230/34
o bulletModel_12
v 1.537693 -1.331466 -0.272981
v 1.923846 -1.331466 -0.272981
v 1.537693 -1.332010 -0.272437
v 1.923846 -1.332010 -0.272437
v 1.923846 -1.603430 -0.544945
v 1.537693 -1.603430 -0.544945
v 1.923846 -1.603974 -0.544401
v 1.537693 -1.603974 -0.544401
v 1.923846 -1.603430 -0.544945
v 1.923846 -1.331466 -0.272981
v 1.537693 -1.603430 -0.544945
v 1.537693 -1.331466 -0.272981
v 1.537693 -1.603974 -0.544401
v 1.537693 -1.332010 -0.272437
v 1.923846 -1.603974 -0.544401
v 1.923846 -1.332010 -0.272437
v 1.537693 -1.603430 -0.544945
v 1.537693 -1.331466 -0.272981
v 1.537693 -1.603974 -0.544401
v 1.537693 -1.332010 -0.272437
v 1.923846 -1.331466 -0.272981
v 1.923846 -1.603430 -0.544945
v 1.923846 -1.332010 -0.272437
v 1.923846 -1.603974 -0.544401
vn -0.0000 0.7071 0.7071
vn -0.0000 -0.7071 -0.7071
vn -0.0000 0.7071 -0.7071
vn -0.0000 -0.7071 0.7071
vn -1.0000 -0.0000 -0.0000
vn 1.0000 -0.0000 -0.0000
vt 0.000000 0.812500
vt 0.000000 0.625000
vt 0.187500 0.812500
vt 0.187500 0.625000
vt 0.375000 0.812500
vt 0.375000 0.625000
vt 0.781250 0.718750
vt 0.781250 0.750000
vt 0.750000 0.718750
vt 0.750000 0.750000
vt 0.562500 1.000000
vt 0.562500 0.812500
vt 0.375000 1.000000
vt 0.187500 1.000000
vt 0.000000 1.000000
s 0
usemtl Material_0.001
f 361/232/35 363/233/35 362/234/35
f 363/233/35 364/235/35 362/234/35
f 365/234/36 367/235/36 366/236/36
f 367/235/36 368/237/36 366/236/36
f 369/238/37 371/239/37 370/240/37
f 371/239/37 372/241/37 370/240/37
f 373/242/38 375/243/38 374/244/38
f 375/243/38 376/236/38 374/244/38
f 377/245/39 379/234/39 378/244/39
f 379/234/39 380/236/39 378/244/39
f 381/246/40 383/232/40 382/245/40
f 383/232/40 384/234/40 382/245/40
o bulletModel_16
v 1.537693 -1.875394 -0.816909
v 1.923847 -1.875394 -0.816909
v 1.537693 -1.875938 -0.816366
v 1.923847 -1.875938 -0.816366
v 1.923847 -2.147358 -1.088874
v 1.537693 -2.147358 -1.088874
v 1.923847 -2.147902 -1.088330
v 1.537693 -2.147902 -1.088330
v 1.923847 -2.147358 -1.088874
v 1.923847 -1.875394 -0.816909
v 1.537693 -2.147358 -1.088874
v 1.537693 -1.875394 -0.816909
v 1.537693 -2.147902 -1.088330
v 1.537693 -1.875938 -0.816366
v 1.923847 -2.147902 -1.088330
v 1.923847 -1.875938 -0.816366
v 1.537693 -2.147358 -1.088874
v 1.537693 -1.875394 -0.816909
v 1.537693 -2.147902 -1.088330
v 1.537693 -1.875938 -0.816366
v 1.923847 -1.875394 -0.816909
v 1.923847 -2.147358 -1.088874
v 1.923847 -1.875938 -0.816366
v 1.923847 -2.147902 -1.088330
vn -0.0000 0.7071 0.7071
vn -0.0000 -0.7071 -0.7071
vn -0.0000 0.7071 -0.7071
vn -0.0000 -0.7071 0.7071
vn -1.0000 -0.0000 -0.0000
vn 1.0000 -0.0000 -0.0000
vt 0.000000 0.812500
vt 0.000000 0.625000
vt 0.187500 0.812500
vt 0.187500 0.625000
vt 0.375000 0.812500
vt 0.375000 0.625000
vt 0.781250 0.718750
vt 0.781250 0.750000
vt 0.750000 0.718750
vt 0.750000 0.750000
vt 0.562500 1.000000
vt 0.562500 0.812500
vt 0.375000 1.000000
vt 0.187500 1.000000
vt 0.000000 1.000000
s 0
usemtl Material_0.001
f 385/247/41 387/248/41 386/249/41
f 387/248/41 388/250/41 386/249/41
f 389/249/42 391/250/42 390/251/42
f 391/250/42 392/252/42 390/251/42
f 393/253/43 395/254/43 394/255/43
f 395/254/43 396/256/43 394/255/43
f 397/257/44 399/258/44 398/259/44
f 399/258/44 400/251/44 398/259/44
f 401/260/45 403/249/45 402/259/45
f 403/249/45 404/251/45 402/259/45
f 405/261/46 407/247/46 406/260/46
f 407/247/46 408/249/46 406/260/46
o bulletModel_20
v 1.923847 -2.692445 -1.632873
v 1.537693 -2.692445 -1.632873
v 1.923847 -2.964409 -1.360909
v 1.537693 -2.964409 -1.360909
v 1.923847 -2.692445 -1.632873
v 1.923847 -2.420481 -1.360909
v 1.537693 -2.692445 -1.632873
v 1.537693 -2.420481 -1.360909
vn -0.0000 -0.7071 -0.7071
vn -0.0000 0.7071 -0.7071
vt 0.750000 0.750000
vt 0.750000 0.718750
vt 0.781250 0.750000
vt 0.781250 0.718750
s 0
usemtl Material_0.001
f 409/262/47 411/263/47 410/264/47
f 411/263/47 412/265/47 410/264/47
f 413/265/48 415/264/48 414/263/48
f 415/264/48 416/262/48 414/263/48
o bulletModel_48
v 1.537693 -1.603430 0.544945
v 1.923846 -1.603430 0.544945
v 1.537693 -1.603974 0.544401
v 1.923846 -1.603974 0.544401
v 1.923846 -1.331466 0.272981
v 1.537692 -1.331466 0.272981
v 1.923846 -1.332010 0.272437
v 1.537692 -1.332010 0.272437
v 1.923846 -1.331466 0.272981
v 1.923846 -1.603430 0.544945
v 1.537692 -1.331466 0.272981
v 1.537693 -1.603430 0.544945
v 1.537692 -1.332010 0.272437
v 1.537693 -1.603974 0.544401
v 1.923846 -1.332010 0.272437
v 1.923846 -1.603974 0.544401
v 1.537692 -1.331466 0.272981
v 1.537693 -1.603430 0.544945
v 1.537692 -1.332010 0.272437
v 1.537693 -1.603974 0.544401
v 1.923846 -1.603430 0.544945
v 1.923846 -1.331466 0.272981
v 1.923846 -1.603974 0.544401
v 1.923846 -1.332010 0.272437
vn -0.0000 -0.7071 0.7071
vn -0.0000 0.7071 -0.7071
vn -0.0000 0.7071 0.7071
vn -0.0000 -0.7071 -0.7071
vn -1.0000 -0.0000 -0.0000
vn 1.0000 -0.0000 -0.0000
vt 0.375000 0.812500
vt 0.375000 0.625000
vt 0.187500 0.812500
vt 0.187500 0.625000
vt 0.000000 0.812500
vt 0.000000 0.625000
vt 0.750000 0.718750
vt 0.750000 0.750000
vt 0.781250 0.718750
vt 0.781250 0.750000
vt 0.375000 1.000000
vt 0.562500 1.000000
vt 0.562500 0.812500
vt 0.187500 1.000000
vt 0.000000 1.000000
s 0
usemtl Material_0.001
f 417/266/49 419/267/49 418/268/49
f 419/267/49 420/269/49 418/268/49
f 421/268/50 423/269/50 422/270/50
f 423/269/50 424/271/50 422/270/50
f 425/272/51 427/273/51 426/274/51
f 427/273/51 428/275/51 426/274/51
f 429/276/52 431/266/52 430/277/52
f 431/266/52 432/278/52 430/277/52
f 433/276/53 435/266/53 434/279/53
f 435/266/53 436/268/53 434/279/53
f 437/279/54 439/268/54 438/280/54
f 439/268/54 440/270/54 438/280/54
o bulletModel_44
v 1.537693 -2.147358 1.088874
v 1.923846 -2.147358 1.088874
v 1.537693 -2.147902 1.088330
v 1.923846 -2.147902 1.088330
v 1.923846 -1.875394 0.816909
v 1.537693 -1.875394 0.816909
v 1.923846 -1.875938 0.816365
v 1.537693 -1.875938 0.816365
v 1.923846 -1.875394 0.816909
v 1.923846 -2.147358 1.088874
v 1.537693 -1.875394 0.816909
v 1.537693 -2.147358 1.088874
v 1.537693 -1.875938 0.816365
v 1.537693 -2.147902 1.088330
v 1.923846 -1.875938 0.816365
v 1.923846 -2.147902 1.088330
v 1.537693 -1.875394 0.816909
v 1.537693 -2.147358 1.088874
v 1.537693 -1.875938 0.816365
v 1.537693 -2.147902 1.088330
v 1.923846 -2.147358 1.088874
v 1.923846 -1.875394 0.816909
v 1.923846 -2.147902 1.088330
v 1.923846 -1.875938 0.816365
vn -0.0000 -0.7071 0.7071
vn -0.0000 0.7071 -0.7071
vn -0.0000 0.7071 0.7071
vn -0.0000 -0.7071 -0.7071
vn -1.0000 -0.0000 -0.0000
vn 1.0000 -0.0000 -0.0000
vt 0.375000 0.812500
vt 0.375000 0.625000
vt 0.187500 0.812500
vt 0.187500 0.625000
vt 0.000000 0.812500
vt 0.000000 0.625000
vt 0.750000 0.718750
vt 0.750000 0.750000
vt 0.781250 0.718750
vt 0.781250 0.750000
vt 0.375000 1.000000
vt 0.562500 1.000000
vt 0.562500 0.812500
vt 0.187500 1.000000
vt 0.000000 1.000000
s 0
usemtl Material_0.001
f 441/281/55 443/282/55 442/283/55
f 443/282/55 444/284/55 442/283/55
f 445/283/56 447/284/56 446/285/56
f 447/284/56 448/286/56 446/285/56
f 449/287/57 451/288/57 450/289/57
f 451/288/57 452/290/57 450/289/57
f 453/291/58 455/281/58 454/292/58
f 455/281/58 456/293/58 454/292/58
f 457/291/59 459/281/59 458/294/59
f 459/281/59 460/283/59 458/294/59
f 461/294/60 463/283/60 462/295/60
f 463/283/60 464/285/60 462/295/60
o bulletModel_46
v 0.383846 -1.875394 0.816909
v 1.154616 -1.875394 0.816909
v 0.383846 -1.875938 0.816366
v 1.154616 -1.875938 0.816365
v 1.154616 -1.603430 0.544945
v 0.383846 -1.603430 0.544945
v 1.154616 -1.603974 0.544401
v 0.383846 -1.603974 0.544402
v 1.154616 -1.603430 0.544945
v 1.154616 -1.875394 0.816909
v 0.383846 -1.603430 0.544945
v 0.383846 -1.875394 0.816909
v 0.383846 -1.603974 0.544402
v 0.383846 -1.875938 0.816366
v 1.154616 -1.603974 0.544401
v 1.154616 -1.875938 0.816365
v 0.383846 -1.603430 0.544945
v 0.383846 -1.875394 0.816909
v 0.383846 -1.603974 0.544402
v 0.383846 -1.875938 0.816366
v 1.154616 -1.875394 0.816909
v 1.154616 -1.603430 0.544945
v 1.154616 -1.875938 0.816365
v 1.154616 -1.603974 0.544401
vn -0.0000 -0.7071 0.7071
vn -0.0000 0.7071 -0.7071
vn -0.0000 0.7071 0.7071
vn -0.0000 -0.7071 -0.7071
vn -1.0000 -0.0000 -0.0000
vn 1.0000 -0.0000 -0.0000
vt 0.375000 0.812500
vt 0.375000 0.625000
vt 0.187500 0.812500
vt 0.187500 0.625000
vt 0.000000 0.812500
vt 0.000000 0.625000
vt 0.687500 0.687500
vt 0.687500 0.718750
vt 0.718750 0.687500
vt 0.718750 0.718750
vt 0.375000 1.000000
vt 0.562500 1.000000
vt 0.562500 0.812500
vt 0.187500 1.000000
vt 0.000000 1.000000
s 0
usemtl Material_0.001
f 465/296/61 467/297/61 466/298/61
f 467/297/61 468/299/61 466/298/61
f 469/298/62 471/299/62 470/300/62
f 471/299/62 472/301/62 470/300/62
f 473/302/63 475/303/63 474/304/63
f 475/303/63 476/305/63 474/304/63
f 477/306/64 479/296/64 478/307/64
f 479/296/64 480/308/64 478/307/64
f 481/306/65 483/296/65 482/309/65
f 483/296/65 484/298/65 482/309/65
f 485/309/66 487/298/66 486/310/66
f 487/298/66 488/300/66 486/310/66
o bulletModel_42
v 0.383846 -2.419323 1.360838
v 1.154616 -2.419323 1.360838
v 0.383846 -2.419867 1.360294
v 1.154616 -2.419867 1.360294
v 1.154616 -2.147358 1.088874
v 0.383846 -2.147358 1.088874
v 1.154616 -2.147902 1.088330
v 0.383846 -2.147902 1.088330
v 1.154616 -2.147358 1.088874
v 1.154616 -2.419323 1.360838
v 0.383846 -2.147358 1.088874
v 0.383846 -2.419323 1.360838
v 0.383846 -2.147902 1.088330
v 0.383846 -2.419867 1.360294
v 1.154616 -2.147902 1.088330
v 1.154616 -2.419867 1.360294
v 0.383846 -2.147358 1.088874
v 0.383846 -2.419323 1.360838
v 0.383846 -2.147902 1.088330
v 0.383846 -2.419867 1.360294
v 1.154616 -2.419323 1.360838
v 1.154616 -2.147358 1.088874
v 1.154616 -2.419867 1.360294
v 1.154616 -2.147902 1.088330
vn -0.0000 -0.7071 0.7071
vn -0.0000 0.7071 -0.7071
vn -0.0000 0.7071 0.7071
vn -0.0000 -0.7071 -0.7071
vn -1.0000 -0.0000 -0.0000
vn 1.0000 -0.0000 -0.0000
vt 0.375000 0.812500
vt 0.375000 0.625000
vt 0.187500 0.812500
vt 0.187500 0.625000
vt 0.000000 0.812500
vt 0.000000 0.625000
vt 0.687500 0.687500
vt 0.687500 0.718750
vt 0.718750 0.687500
vt 0.718750 0.718750
vt 0.375000 1.000000
vt 0.562500 1.000000
vt 0.562500 0.812500
vt 0.187500 1.000000
vt 0.000000 1.000000
s 0
usemtl Material_0.001
f 489/311/67 491/312/67 490/313/67
f 491/312/67 492/314/67 490/313/67
f 493/313/68 495/314/68 494/315/68
f 495/314/68 496/316/68 494/315/68
f 497/317/69 499/318/69 498/319/69
f 499/318/69 500/320/69 498/319/69
f 501/321/70 503/311/70 502/322/70
f 503/311/70 504/323/70 502/322/70
f 505/321/71 507/311/71 506/324/71
f 507/311/71 508/313/71 506/324/71
f 509/324/72 511/313/72 510/325/72
f 511/313/72 512/315/72 510/325/72
o bulletModel_28
v 1.537692 -4.053150 -0.272981
v 1.923846 -4.053150 -0.272981
v 1.537692 -4.053694 -0.273525
v 1.923846 -4.053694 -0.273525
v 1.923846 -3.781186 -0.544945
v 1.537692 -3.781186 -0.544945
v 1.923846 -3.781729 -0.545489
v 1.537692 -3.781729 -0.545489
v 1.923846 -3.781186 -0.544945
v 1.923846 -4.053150 -0.272981
v 1.537692 -3.781186 -0.544945
v 1.537692 -4.053150 -0.272981
v 1.537692 -3.781729 -0.545489
v 1.537692 -4.053694 -0.273525
v 1.923846 -3.781729 -0.545489
v 1.923846 -4.053694 -0.273525
v 1.537692 -3.781186 -0.544945
v 1.537692 -4.053150 -0.272981
v 1.537692 -3.781729 -0.545489
v 1.537692 -4.053694 -0.273525
v 1.923846 -4.053150 -0.272981
v 1.923846 -3.781186 -0.544945
v 1.923846 -4.053694 -0.273525
v 1.923846 -3.781729 -0.545489
vn -0.0000 -0.7071 0.7071
vn -0.0000 0.7071 -0.7071
vn -0.0000 0.7071 0.7071
vn -0.0000 -0.7071 -0.7071
vn -1.0000 -0.0000 -0.0000
vn 1.0000 -0.0000 -0.0000
vt 0.000000 0.625000
vt 0.000000 0.812500
vt 0.187500 0.625000
vt 0.187500 0.812500
vt 0.375000 0.625000
vt 0.375000 0.812500
vt 0.562500 0.812500
vt 0.562500 1.000000
vt 0.375000 1.000000
vt 0.781250 0.750000
vt 0.781250 0.718750
vt 0.750000 0.750000
vt 0.750000 0.718750
vt 0.187500 1.000000
vt 0.000000 1.000000
s 0
usemtl Material_0.001
f 513/326/73 515/327/73 514/328/73
f 515/327/73 516/329/73 514/328/73
f 517/328/74 519/329/74 518/330/74
f 519/329/74 520/331/74 518/330/74
f 521/332/75 523/333/75 522/331/75
f 523/333/75 524/334/75 522/331/75
f 525/335/76 527/336/76 526/337/76
f 527/336/76 528/338/76 526/337/76
f 529/329/77 531/339/77 530/331/77
f 531/339/77 532/334/77 530/331/77
f 533/327/78 535/340/78 534/329/78
f 535/340/78 536/339/78 534/329/78
o bulletModel_26
v 0.383846 -3.781186 -0.544946
v 1.154615 -3.781186 -0.544946
v 0.383846 -3.781729 -0.545489
v 1.154615 -3.781729 -0.545489
v 1.154615 -3.509222 -0.816910
v 0.383846 -3.509221 -0.816910
v 1.154615 -3.509765 -0.817454
v 0.383846 -3.509765 -0.817454
v 1.154615 -3.509222 -0.816910
v 1.154615 -3.781186 -0.544946
v 0.383846 -3.509221 -0.816910
v 0.383846 -3.781186 -0.544946
v 0.383846 -3.509765 -0.817454
v 0.383846 -3.781729 -0.545489
v 1.154615 -3.509765 -0.817454
v 1.154615 -3.781729 -0.545489
v 0.383846 -3.509221 -0.816910
v 0.383846 -3.781186 -0.544946
v 0.383846 -3.509765 -0.817454
v 0.383846 -3.781729 -0.545489
v 1.154615 -3.781186 -0.544946
v 1.154615 -3.509222 -0.816910
v 1.154615 -3.781729 -0.545489
v 1.154615 -3.509765 -0.817454
vn -0.0000 -0.7071 0.7071
vn -0.0000 0.7071 -0.7071
vn -0.0000 0.7071 0.7071
vn -0.0000 -0.7071 -0.7071
vn -1.0000 -0.0000 -0.0000
vn 1.0000 -0.0000 -0.0000
vt 0.000000 0.625000
vt 0.000000 0.812500
vt 0.187500 0.625000
vt 0.187500 0.812500
vt 0.375000 0.625000
vt 0.375000 0.812500
vt 0.562500 0.812500
vt 0.562500 1.000000
vt 0.375000 1.000000
vt 0.718750 0.718750
vt 0.718750 0.687500
vt 0.687500 0.718750
vt 0.687500 0.687500
vt 0.187500 1.000000
vt 0.000000 1.000000
s 0
usemtl Material_0.001
f 537/341/79 539/342/79 538/343/79
f 539/342/79 540/344/79 538/343/79
f 541/343/80 543/344/80 542/345/80
f 543/344/80 544/346/80 542/345/80
f 545/347/81 547/348/81 546/346/81
f 547/348/81 548/349/81 546/346/81
f 549/350/82 551/351/82 550/352/82
f 551/351/82 552/353/82 550/352/82
f 553/344/83 555/354/83 554/346/83
f 555/354/83 556/349/83 554/346/83
f 557/342/84 559/355/84 558/344/84
f 559/355/84 560/354/84 558/344/84
o bulletModel_24
v 1.537692 -3.509222 -0.816910
v 1.923846 -3.509222 -0.816910
v 1.537692 -3.509765 -0.817454
v 1.923846 -3.509765 -0.817454
v 1.923846 -3.237257 -1.088874
v 1.537692 -3.237257 -1.088874
v 1.923846 -3.237801 -1.089418
v 1.537692 -3.237801 -1.089418
v 1.923846 -3.237257 -1.088874
v 1.923846 -3.509222 -0.816910
v 1.537692 -3.237257 -1.088874
v 1.537692 -3.509222 -0.816910
v 1.537692 -3.237801 -1.089418
v 1.537692 -3.509765 -0.817454
v 1.923846 -3.237801 -1.089418
v 1.923846 -3.509765 -0.817454
v 1.537692 -3.237257 -1.088874
v 1.537692 -3.509222 -0.816910
v 1.537692 -3.237801 -1.089418
v 1.537692 -3.509765 -0.817454
v 1.923846 -3.509222 -0.816910
v 1.923846 -3.237257 -1.088874
v 1.923846 -3.509765 -0.817454
v 1.923846 -3.237801 -1.089418
vn -0.0000 -0.7071 0.7071
vn -0.0000 0.7071 -0.7071
vn -0.0000 0.7071 0.7071
vn -0.0000 -0.7071 -0.7071
vn -1.0000 -0.0000 -0.0000
vn 1.0000 -0.0000 -0.0000
vt 0.000000 0.625000
vt 0.000000 0.812500
vt 0.187500 0.625000
vt 0.187500 0.812500
vt 0.375000 0.625000
vt 0.375000 0.812500
vt 0.562500 0.812500
vt 0.562500 1.000000
vt 0.375000 1.000000
vt 0.781250 0.750000
vt 0.781250 0.718750
vt 0.750000 0.750000
vt 0.750000 0.718750
vt 0.187500 1.000000
vt 0.000000 1.000000
s 0
usemtl Material_0.001
f 561/356/85 563/357/85 562/358/85
f 563/357/85 564/359/85 562/358/85
f 565/358/86 567/359/86 566/360/86
f 567/359/86 568/361/86 566/360/86
f 569/362/87 571/363/87 570/361/87
f 571/363/87 572/364/87 570/361/87
f 573/365/88 575/366/88 574/367/88
f 575/366/88 576/368/88 574/367/88
f 577/359/89 579/369/89 578/361/89
f 579/369/89 580/364/89 578/361/89
f 581/357/90 583/370/90 582/359/90
f 583/370/90 584/369/90 582/359/90
o bulletModel_22
v 0.383846 -3.237257 -1.088874
v 1.154615 -3.237257 -1.088874
v 0.383846 -3.237801 -1.089418
v 1.154615 -3.237801 -1.089418
v 1.154615 -2.965293 -1.360838
v 0.383846 -2.965293 -1.360838
v 1.154615 -2.965837 -1.361382
v 0.383846 -2.965837 -1.361382
v 1.154615 -2.965293 -1.360838
v 1.154615 -3.237257 -1.088874
v 0.383846 -2.965293 -1.360838
v 0.383846 -3.237257 -1.088874
v 0.383846 -2.965837 -1.361382
v 0.383846 -3.237801 -1.089418
v 1.154615 -2.965837 -1.361382
v 1.154615 -3.237801 -1.089418
v 0.383846 -2.965293 -1.360838
v 0.383846 -3.237257 -1.088874
v 0.383846 -2.965837 -1.361382
v 0.383846 -3.237801 -1.089418
v 1.154615 -3.237257 -1.088874
v 1.154615 -2.965293 -1.360838
v 1.154615 -3.237801 -1.089418
v 1.154615 -2.965837 -1.361382
vn -0.0000 -0.7071 0.7071
vn -0.0000 0.7071 -0.7071
vn -0.0000 0.7071 0.7071
vn -0.0000 -0.7071 -0.7071
vn -1.0000 -0.0000 -0.0000
vn 1.0000 -0.0000 -0.0000
vt 0.000000 0.625000
vt 0.000000 0.812500
vt 0.187500 0.625000
vt 0.187500 0.812500
vt 0.375000 0.625000
vt 0.375000 0.812500
vt 0.562500 0.812500
vt 0.562500 1.000000
vt 0.375000 1.000000
vt 0.718750 0.718750
vt 0.718750 0.687500
vt 0.687500 0.718750
vt 0.687500 0.687500
vt 0.187500 1.000000
vt 0.000000 1.000000
s 0
usemtl Material_0.001
f 585/371/91 587/372/91 586/373/91
f 587/372/91 588/374/91 586/373/91
f 589/373/92 591/374/92 590/375/92
f 591/374/92 592/376/92 590/375/92
f 593/377/93 595/378/93 594/376/93
f 595/378/93 596/379/93 594/376/93
f 597/380/94 599/381/94 598/382/94
f 599/381/94 600/383/94 598/382/94
f 601/374/95 603/384/95 602/376/95
f 603/384/95 604/379/95 602/376/95
f 605/372/96 607/385/96 606/374/96
f 607/385/96 608/384/96 606/374/96
o bulletModel_30
v 0.383846 -4.054167 0.270876
v 1.154615 -4.054167 0.270876
v 0.383846 -4.326131 -0.001088
v 1.154615 -4.326131 -0.001088
v 0.383846 -4.054167 -0.273052
v 0.383846 -4.054167 -0.273052
v 0.383846 -4.326131 -0.001088
v 1.154615 -4.054167 -0.273052
v 1.154615 -4.326131 -0.001088
v 0.383846 -4.326131 -0.001088
vn -0.0000 -0.7071 0.7071
vn -0.0000 -0.7071 -0.7071
vt 0.718750 0.718750
vt 0.718750 0.687500
vt 0.687500 0.718750
vt 0.687500 0.687500
s 0
usemtl Material_0.001
f 609/386/97 611/387/97 610/388/97
f 611/387/97 612/389/97 610/388/97
f 614/386/98 616/387/98 615/388/98
f 616/387/98 617/389/98 615/388/98
o bulletModel_38
v 0.383846 -2.965293 1.360838
v 1.154615 -2.965293 1.360838
v 0.383846 -2.965837 1.361382
v 1.154615 -2.965837 1.361382
v 1.154615 -3.237257 1.088874
v 0.383846 -3.237257 1.088874
v 1.154615 -3.237801 1.089417
v 0.383846 -3.237801 1.089418
v 1.154615 -3.237257 1.088874
v 1.154615 -2.965293 1.360838
v 0.383846 -3.237257 1.088874
v 0.383846 -2.965293 1.360838
v 0.383846 -3.237801 1.089418
v 0.383846 -2.965837 1.361382
v 1.154615 -3.237801 1.089417
v 1.154615 -2.965837 1.361382
v 0.383846 -3.237257 1.088874
v 0.383846 -2.965293 1.360838
v 0.383846 -3.237801 1.089418
v 0.383846 -2.965837 1.361382
v 1.154615 -2.965293 1.360838
v 1.154615 -3.237257 1.088874
v 1.154615 -2.965837 1.361382
v 1.154615 -3.237801 1.089417
vn -0.0000 0.7071 0.7071
vn -0.0000 -0.7071 -0.7071
vn -0.0000 0.7071 -0.7071
vn -0.0000 -0.7071 0.7071
vn -1.0000 -0.0000 -0.0000
vn 1.0000 -0.0000 -0.0000
vt 0.375000 0.625000
vt 0.375000 0.812500
vt 0.187500 0.625000
vt 0.187500 0.812500
vt 0.000000 0.625000
vt 0.000000 0.812500
vt 0.375000 1.000000
vt 0.562500 0.812500
vt 0.562500 1.000000
vt 0.687500 0.718750
vt 0.687500 0.687500
vt 0.718750 0.718750
vt 0.718750 0.687500
vt 0.187500 1.000000
vt 0.000000 1.000000
s 0
usemtl Material_0.001
f 619/390/99 621/391/99 620/392/99
f 621/391/99 622/393/99 620/392/99
f 623/392/100 625/393/100 624/394/100
f 625/393/100 626/395/100 624/394/100
f 627/391/101 629/396/101 628/397/101
f 629/396/101 630/398/101 628/397/101
f 631/399/102 633/400/102 632/401/102
f 633/400/102 634/402/102 632/401/102
f 635/391/103 637/396/103 636/393/103
f 637/396/103 638/403/103 636/393/103
f 639/393/104 641/403/104 640/395/104
f 641/403/104 642/404/104 640/395/104
o bulletModel_40
v 1.537693 -2.692446 1.632873
v 1.923846 -2.692446 1.632873
v 1.537693 -2.964410 1.360909
v 1.923846 -2.964410 1.360909
v 1.923846 -2.420481 1.360909
v 1.923846 -2.420481 1.360909
v 1.923846 -2.692446 1.632873
v 1.537693 -2.420481 1.360909
v 1.537693 -2.692446 1.632873
v 1.923846 -2.964410 1.360909
v 1.537693 -2.964410 1.360909
v 1.923846 -2.692446 1.632873
vn -0.0000 -0.7071 0.7071
vn -0.0000 0.7071 0.7071
vt 0.781250 0.750000
vt 0.781250 0.718750
vt 0.750000 0.750000
vt 0.750000 0.718750
s 0
usemtl Material_0.001
f 643/405/105 645/406/105 644/407/105
f 645/406/105 646/408/105 644/407/105
f 648/408/106 650/407/106 649/406/106
f 650/407/106 651/405/106 649/406/106
o bulletModel_36
v 1.537693 -3.237257 1.088874
v 1.923846 -3.237257 1.088874
v 1.537693 -3.237801 1.089418
v 1.923846 -3.237801 1.089418
v 1.923846 -3.509222 0.816910
v 1.537693 -3.509222 0.816910
v 1.923846 -3.509765 0.817454
v 1.537693 -3.509765 0.817454
v 1.923846 -3.509222 0.816910
v 1.923846 -3.237257 1.088874
v 1.537693 -3.509222 0.816910
v 1.537693 -3.237257 1.088874
v 1.537693 -3.509765 0.817454
v 1.537693 -3.237801 1.089418
v 1.923846 -3.509765 0.817454
v 1.923846 -3.237801 1.089418
v 1.537693 -3.509222 0.816910
v 1.537693 -3.237257 1.088874
v 1.537693 -3.509765 0.817454
v 1.537693 -3.237801 1.089418
v 1.923846 -3.237257 1.088874
v 1.923846 -3.509222 0.816910
v 1.923846 -3.237801 1.089418
v 1.923846 -3.509765 0.817454
vn -0.0000 0.7071 0.7071
vn -0.0000 -0.7071 -0.7071
vn -0.0000 0.7071 -0.7071
vn -0.0000 -0.7071 0.7071
vn -1.0000 -0.0000 -0.0000
vn 1.0000 -0.0000 -0.0000
vt 0.375000 0.625000
vt 0.375000 0.812500
vt 0.187500 0.625000
vt 0.187500 0.812500
vt 0.000000 0.625000
vt 0.000000 0.812500
vt 0.375000 1.000000
vt 0.562500 0.812500
vt 0.562500 1.000000
vt 0.750000 0.750000
vt 0.750000 0.718750
vt 0.781250 0.750000
vt 0.781250 0.718750
vt 0.187500 1.000000
vt 0.000000 1.000000
s 0
usemtl Material_0.001
f 655/409/107 657/410/107 656/411/107
f 657/410/107 658/412/107 656/411/107
f 659/411/108 661/412/108 660/413/108
f 661/412/108 662/414/108 660/413/108
f 663/410/109 665/415/109 664/416/109
f 665/415/109 666/417/109 664/416/109
f 667/418/110 669/419/110 668/420/110
f 669/419/110 670/421/110 668/420/110
f 671/410/111 673/415/111 672/412/111
f 673/415/111 674/422/111 672/412/111
f 675/412/112 677/422/112 676/414/112
f 677/422/112 678/423/112 676/414/112
o bulletModel_34
v 0.383847 -3.509221 0.816910
v 1.154616 -3.509221 0.816910
v 0.383847 -3.509765 0.817454
v 1.154616 -3.509765 0.817454
v 1.154616 -3.781185 0.544946
v 0.383847 -3.781186 0.544946
v 1.154616 -3.781729 0.545489
v 0.383847 -3.781729 0.545489
v 1.154616 -3.781185 0.544946
v 1.154616 -3.509221 0.816910
v 0.383847 -3.781186 0.544946
v 0.383847 -3.509221 0.816910
v 0.383847 -3.781729 0.545489
v 0.383847 -3.509765 0.817454
v 1.154616 -3.781729 0.545489
v 1.154616 -3.509765 0.817454
v 0.383847 -3.781186 0.544946
v 0.383847 -3.509221 0.816910
v 0.383847 -3.781729 0.545489
v 0.383847 -3.509765 0.817454
v 1.154616 -3.509221 0.816910
v 1.154616 -3.781185 0.544946
v 1.154616 -3.509765 0.817454
v 1.154616 -3.781729 0.545489
vn -0.0000 0.7071 0.7071
vn -0.0000 -0.7071 -0.7071
vn -0.0000 0.7071 -0.7071
vn -0.0000 -0.7071 0.7071
vn -1.0000 -0.0000 -0.0000
vn 1.0000 -0.0000 -0.0000
vt 0.375000 0.625000
vt 0.375000 0.812500
vt 0.187500 0.625000
vt 0.187500 0.812500
vt 0.000000 0.625000
vt 0.000000 0.812500
vt 0.375000 1.000000
vt 0.562500 0.812500
vt 0.562500 1.000000
vt 0.687500 0.718750
vt 0.687500 0.687500
vt 0.718750 0.718750
vt 0.718750 0.687500
vt 0.187500 1.000000
vt 0.000000 1.000000
s 0
usemtl Material_0.001
f 679/424/113 681/425/113 680/426/113
f 681/425/113 682/427/113 680/426/113
f 683/426/114 685/427/114 684/428/114
f 685/427/114 686/429/114 684/428/114
f 687/425/115 689/430/115 688/431/115
f 689/430/115 690/432/115 688/431/115
f 691/433/116 693/434/116 692/435/116
f 693/434/116 694/436/116 692/435/116
f 695/425/117 697/430/117 696/427/117
f 697/430/117 698/437/117 696/427/117
f 699/427/118 701/437/118 700/429/118
f 701/437/118 702/438/118 700/429/118
o bulletModel_32
v 1.537693 -3.781185 0.544946
v 1.923847 -3.781185 0.544946
v 1.537693 -3.781729 0.545490
v 1.923847 -3.781729 0.545490
v 1.923847 -4.053150 0.272982
v 1.537693 -4.053150 0.272982
v 1.923847 -4.053693 0.273525
v 1.537693 -4.053693 0.273525
v 1.923847 -4.053150 0.272982
v 1.923847 -3.781185 0.544946
v 1.537693 -4.053150 0.272982
v 1.537693 -3.781185 0.544946
v 1.537693 -4.053693 0.273525
v 1.537693 -3.781729 0.545490
v 1.923847 -4.053693 0.273525
v 1.923847 -3.781729 0.545490
v 1.537693 -4.053150 0.272982
v 1.537693 -3.781185 0.544946
v 1.537693 -4.053693 0.273525
v 1.537693 -3.781729 0.545490
v 1.923847 -3.781185 0.544946
v 1.923847 -4.053150 0.272982
v 1.923847 -3.781729 0.545490
v 1.923847 -4.053693 0.273525
vn -0.0000 0.7071 0.7071
vn -0.0000 -0.7071 -0.7071
vn -0.0000 0.7071 -0.7071
vn -0.0000 -0.7071 0.7071
vn -1.0000 -0.0000 -0.0000
vn 1.0000 -0.0000 -0.0000
vt 0.375000 0.625000
vt 0.375000 0.812500
vt 0.187500 0.625000
vt 0.187500 0.812500
vt 0.000000 0.625000
vt 0.000000 0.812500
vt 0.375000 1.000000
vt 0.562500 0.812500
vt 0.562500 1.000000
vt 0.750000 0.750000
vt 0.750000 0.718750
vt 0.781250 0.750000
vt 0.781250 0.718750
vt 0.187500 1.000000
vt 0.000000 1.000000
s 0
usemtl Material_0.001
f 703/439/119 705/440/119 704/441/119
f 705/440/119 706/442/119 704/441/119
f 707/441/120 709/442/120 708/443/120
f 709/442/120 710/444/120 708/443/120
f 711/440/121 713/445/121 712/446/121
f 713/445/121 714/447/121 712/446/121
f 715/448/122 717/449/122 716/450/122
f 717/449/122 718/451/122 716/450/122
f 719/440/123 721/445/123 720/442/123
f 721/445/123 722/452/123 720/442/123
f 723/442/124 725/452/124 724/444/124
f 725/452/124 726/453/124 724/444/124
