# Blender 5.2.0 LTS
# www.blender.org
mtllib lev.gtl21.mtl
o laserModel
v 0.935396 0.042990 1.150016
v 25.743086 0.042990 1.150011
v 0.935396 -0.149318 1.150016
v 25.743086 -0.149318 1.150011
v 25.743086 0.042990 1.149242
v 0.935396 0.042990 1.149247
v 25.743086 -0.149318 1.149242
v 0.935396 -0.149318 1.149247
v 25.743086 0.042990 1.149242
v 25.743086 0.042990 1.150011
v 0.935396 0.042990 1.149247
v 0.935396 0.042990 1.150016
v 0.935396 -0.149318 1.149247
v 0.935396 -0.149318 1.150016
v 25.743086 -0.149318 1.149242
v 25.743086 -0.149318 1.150011
v 0.935396 0.042990 1.149247
v 0.935396 0.042990 1.150016
v 0.935396 -0.149318 1.149247
v 0.935396 -0.149318 1.150016
v 25.743086 0.042990 1.150011
v 25.743086 0.042990 1.149242
v 25.743086 -0.149318 1.150011
v 25.743086 -0.149318 1.149242
vn -0.0000 -0.0000 1.0000
vn -0.0000 -0.0000 -1.0000
vn -0.0000 1.0000 -0.0000
vn -0.0000 -1.0000 -0.0000
vn -1.0000 -0.0000 -0.0000
vn 1.0000 -0.0000 -0.0000
vt 0.000000 1.000000
vt 0.000000 0.984375
vt 1.000000 1.000000
vt 1.000000 0.984375
vt 0.000000 0.000000
s 1
usemtl Material_1.001
f 1/1/1 3/2/1 2/3/1
f 3/2/1 4/4/1 2/3/1
f 5/1/2 7/2/2 6/3/2
f 7/2/2 8/4/2 6/3/2
f 9/1/3 11/5/3 10/1/3
f 11/5/3 12/5/3 10/1/3
f 13/1/4 15/5/4 14/1/4
f 15/5/4 16/5/4 14/1/4
f 17/1/5 19/2/5 18/1/5
f 19/2/5 20/2/5 18/1/5
f 21/1/6 23/2/6 22/1/6
f 23/2/6 24/2/6 22/1/6
o attachmentModel
v -0.384615 0.576923 0.192308
v 0.384615 0.576923 0.192308
v -0.384615 -0.576923 0.192308
v 0.384615 -0.576923 0.192308
v 0.384615 0.576923 -0.000000
v -0.384615 0.576923 0.000000
v 0.384615 -0.576923 -0.000000
v -0.384615 -0.576923 0.000000
v 0.384615 0.576923 -0.000000
v 0.384615 0.576923 0.192308
v -0.384615 0.576923 0.000000
v -0.384615 0.576923 0.192308
v -0.384615 -0.576923 0.000000
v -0.384615 -0.576923 0.192308
v 0.384615 -0.576923 -0.000000
v 0.384615 -0.576923 0.192308
v -0.384615 0.576923 0.000000
v -0.384615 0.576923 0.192308
v -0.384615 -0.576923 0.000000
v -0.384615 -0.576923 0.192308
v 0.384615 0.576923 0.192308
v 0.384615 0.576923 -0.000000
v 0.384615 -0.576923 0.192308
v 0.384615 -0.576923 -0.000000
v -0.769231 0.576923 0.961538
v 0.769231 0.576923 0.961538
v -0.769231 -0.576923 0.961538
v 0.769231 -0.576923 0.961538
v 0.769231 0.576923 0.192308
v -0.769231 0.576923 0.192308
v 0.769231 -0.576923 0.192308
v -0.769231 -0.576923 0.192308
v 0.769231 0.576923 0.192308
v 0.769231 0.576923 0.961538
v -0.769231 0.576923 0.192308
v -0.769231 0.576923 0.961538
v -0.769231 -0.576923 0.192308
v -0.769231 -0.576923 0.961538
v 0.769231 -0.576923 0.192308
v 0.769231 -0.576923 0.961538
v -0.769231 0.576923 0.192308
v -0.769231 0.576923 0.961538
v -0.769231 -0.576923 0.192308
v -0.769231 -0.576923 0.961538
v 0.769231 0.576923 0.961538
v 0.769231 0.576923 0.192308
v 0.769231 -0.576923 0.961538
v 0.769231 -0.576923 0.192308
v -0.961538 0.384615 0.961538
v -0.769231 0.384615 0.961538
v -0.961538 -0.384615 0.961538
v -0.769231 -0.384615 0.961538
v -0.769231 0.384615 0.192308
v -0.961538 0.384615 0.192308
v -0.769231 -0.384615 0.192308
v -0.961538 -0.384615 0.192308
v -0.769231 0.384615 0.192308
v -0.769231 0.384615 0.961538
v -0.961538 0.384615 0.192308
v -0.961538 0.384615 0.961538
v -0.961538 -0.384615 0.192308
v -0.961538 -0.384615 0.961538
v -0.769231 -0.384615 0.192308
v -0.769231 -0.384615 0.961538
v -0.961538 0.384615 0.192308
v -0.961538 0.384615 0.961538
v -0.961538 -0.384615 0.192308
v -0.961538 -0.384615 0.961538
v -0.769231 0.384615 0.961538
v -0.769231 0.384615 0.192308
v -0.769231 -0.384615 0.961538
v -0.769231 -0.384615 0.192308
v -0.768461 0.351623 1.538461
v 0.770000 0.351623 1.538461
v -0.768461 -0.417608 1.538461
v 0.770000 -0.417608 1.538461
v 0.770000 0.351623 0.769231
v -0.768461 0.351623 0.769231
v 0.770000 -0.417608 0.769231
v -0.768461 -0.417608 0.769231
v 0.770000 0.351623 0.769231
v 0.770000 0.351623 1.538461
v -0.768461 0.351623 0.769231
v -0.768461 0.351623 1.538461
v -0.768461 -0.417608 0.769231
v -0.768461 -0.417608 1.538461
v 0.770000 -0.417608 0.769231
v 0.770000 -0.417608 1.538461
v -0.768461 0.351623 0.769231
v -0.768461 0.351623 1.538461
v -0.768461 -0.417608 0.769231
v -0.768461 -0.417608 1.538461
v 0.770000 0.351623 1.538461
v 0.770000 0.351623 0.769231
v 0.770000 -0.417608 1.538461
v 0.770000 -0.417608 0.769231
v 0.770000 0.351623 0.961538
v 0.962308 0.351623 0.961538
v 0.770000 -0.417608 0.961538
v 0.962308 -0.417608 0.961538
v 0.962308 0.351623 0.192308
v 0.770000 0.351623 0.192308
v 0.962308 -0.417608 0.192308
v 0.770000 -0.417608 0.192308
v 0.962308 0.351623 0.192308
v 0.962308 0.351623 0.961538
v 0.770000 0.351623 0.192308
v 0.770000 0.351623 0.961538
v 0.770000 -0.417608 0.192308
v 0.770000 -0.417608 0.961538
v 0.962308 -0.417608 0.192308
v 0.962308 -0.417608 0.961538
v 0.770000 0.351623 0.192308
v 0.770000 0.351623 0.961538
v 0.770000 -0.417608 0.192308
v 0.770000 -0.417608 0.961538
v 0.962308 0.351623 0.961538
v 0.962308 0.351623 0.192308
v 0.962308 -0.417608 0.961538
v 0.962308 -0.417608 0.192308
v 0.770000 0.159315 1.346154
v 0.962308 0.159315 1.346154
v 0.770000 -0.225300 1.346154
v 0.962308 -0.225300 1.346154
v 0.962308 0.159315 0.961538
v 0.770000 0.159315 0.961538
v 0.962308 -0.225300 0.961538
v 0.770000 -0.225300 0.961538
v 0.962308 0.159315 0.961538
v 0.962308 0.159315 1.346154
v 0.770000 0.159315 0.961538
v 0.770000 0.159315 1.346154
v 0.770000 -0.225300 0.961538
v 0.770000 -0.225300 1.346154
v 0.962308 -0.225300 0.961538
v 0.962308 -0.225300 1.346154
v 0.770000 0.159315 0.961538
v 0.770000 0.159315 1.346154
v 0.770000 -0.225300 0.961538
v 0.770000 -0.225300 1.346154
v 0.962308 0.159315 1.346154
v 0.962308 0.159315 0.961538
v 0.962308 -0.225300 1.346154
v 0.962308 -0.225300 0.961538
vn -0.0000 -0.0000 1.0000
vn -0.0000 -0.0000 -1.0000
vn -0.0000 1.0000 -0.0000
vn -0.0000 -1.0000 -0.0000
vn -1.0000 -0.0000 -0.0000
vn 1.0000 -0.0000 -0.0000
vt 0.500000 0.750000
vt 0.500000 0.562500
vt 0.625000 0.750000
vt 0.625000 0.562500
vt 0.375000 0.500000
vt 0.375000 0.312500
vt 0.500000 0.500000
vt 0.500000 0.312500
vt 0.812500 0.875000
vt 0.812500 1.000000
vt 0.750000 0.875000
vt 0.750000 1.000000
vt 0.187500 0.250000
vt 0.187500 0.125000
vt 0.125000 0.250000
vt 0.125000 0.125000
vt 0.000000 0.250000
vt 0.000000 0.062500
vt 0.062500 0.250000
vt 0.062500 0.062500
vt 0.625000 0.500000
vt 0.625000 0.312500
vt 0.687500 0.500000
vt 0.687500 0.312500
vt 0.000000 1.000000
vt 0.000000 0.812500
vt 0.250000 1.000000
vt 0.250000 0.812500
vt 0.000000 0.750000
vt 0.000000 0.562500
vt 0.250000 0.750000
vt 0.250000 0.562500
vt 0.375000 0.750000
vt 0.375000 1.000000
vt 0.250000 0.500000
vt 0.250000 0.312500
vt 0.125000 0.500000
vt 0.125000 0.312500
vt 0.750000 0.750000
vt 0.812500 0.750000
vt 0.250000 0.250000
vt 0.250000 0.125000
vt 0.312500 0.250000
vt 0.312500 0.125000
vt 0.875000 0.687500
vt 0.875000 0.750000
vt 0.750000 0.687500
vt 0.500000 0.250000
vt 0.500000 0.187500
vt 0.375000 0.250000
vt 0.375000 0.187500
vt 0.625000 1.000000
vt 0.625000 0.875000
vt 0.500000 0.375000
vt 0.625000 0.375000
vt 0.375000 0.875000
vt 0.000000 0.500000
vt 0.625000 0.625000
vt 0.750000 0.625000
vt 0.750000 0.500000
vt 0.812500 0.625000
vt 0.812500 0.500000
vt 0.500000 0.125000
vt 0.562500 0.250000
vt 0.562500 0.125000
vt 0.875000 0.437500
vt 0.875000 0.500000
vt 0.750000 0.437500
vt 0.750000 0.250000
vt 0.750000 0.187500
vt 0.625000 0.250000
vt 0.625000 0.187500
vt 0.812500 0.250000
vt 0.812500 0.187500
vt 0.125000 0.062500
vt 0.187500 0.062500
vt 0.937500 0.812500
vt 0.937500 0.875000
vt 0.875000 0.812500
vt 0.875000 0.875000
vt 0.312500 0.062500
vt 0.250000 0.062500
vt 0.875000 1.000000
vt 0.875000 0.937500
vt 0.937500 1.000000
vt 0.937500 0.937500
vt 0.750000 0.375000
vt 0.750000 0.312500
vt 0.812500 0.375000
vt 0.812500 0.312500
s 0
usemtl Material_0.004
f 25/6/7 27/7/7 26/8/7
f 27/7/7 28/9/7 26/8/7
f 29/10/8 31/11/8 30/12/8
f 31/11/8 32/13/8 30/12/8
f 33/14/9 35/15/9 34/16/9
f 35/15/9 36/17/9 34/16/9
f 37/18/10 39/19/10 38/20/10
f 39/19/10 40/21/10 38/20/10
f 41/22/11 43/23/11 42/24/11
f 43/23/11 44/25/11 42/24/11
f 45/26/12 47/27/12 46/28/12
f 47/27/12 48/29/12 46/28/12
f 49/30/7 51/31/7 50/32/7
f 51/31/7 52/33/7 50/32/7
f 53/34/8 55/35/8 54/36/8
f 55/35/8 56/37/8 54/36/8
f 57/38/9 59/39/9 58/36/9
f 59/39/9 60/32/9 58/36/9
f 61/38/10 63/10/10 62/36/10
f 63/10/10 64/40/10 62/36/10
f 65/40/11 67/41/11 66/10/11
f 67/41/11 68/11/11 66/10/11
f 69/42/12 71/43/12 70/40/12
f 71/43/12 72/41/12 70/40/12
f 73/16/7 75/44/7 74/14/7
f 75/44/7 76/45/7 74/14/7
f 77/46/8 79/47/8 78/48/8
f 79/47/8 80/49/8 78/48/8
f 81/50/9 83/51/9 82/52/9
f 83/51/9 84/44/9 82/52/9
f 85/53/10 87/54/10 86/55/10
f 87/54/10 88/56/10 86/55/10
f 89/57/11 91/58/11 90/17/11
f 91/58/11 92/16/11 90/17/11
f 93/12/12 95/59/12 94/26/12
f 95/59/12 96/60/12 94/26/12
f 97/39/7 99/61/7 98/57/7
f 99/61/7 100/58/7 98/57/7
f 101/61/8 103/38/8 102/58/8
f 103/38/8 104/8/8 102/58/8
f 105/12/9 107/6/9 106/10/9
f 107/6/9 108/38/9 106/10/9
f 109/42/10 111/20/10 110/62/10
f 111/20/10 112/22/10 110/62/10
f 113/8/11 115/63/11 114/44/11
f 115/63/11 116/64/11 114/44/11
f 117/58/12 119/8/12 118/16/12
f 119/8/12 120/44/12 118/16/12
f 121/64/7 123/65/7 122/66/7
f 123/65/7 124/67/7 122/66/7
f 125/53/8 127/68/8 126/69/8
f 127/68/8 128/70/8 126/69/8
f 129/71/9 131/72/9 130/73/9
f 131/72/9 132/65/9 130/73/9
f 133/74/10 135/75/10 134/76/10
f 135/75/10 136/77/10 134/76/10
f 137/59/11 139/53/11 138/60/11
f 139/53/11 140/76/11 138/60/11
f 141/63/12 143/26/12 142/64/12
f 143/26/12 144/65/12 142/64/12
f 145/74/7 147/75/7 146/78/7
f 147/75/7 148/79/7 146/78/7
f 149/21/8 151/80/8 150/19/8
f 151/80/8 152/81/8 150/19/8
f 153/82/9 155/83/9 154/84/9
f 155/83/9 156/85/9 154/84/9
f 157/49/10 159/86/10 158/47/10
f 159/86/10 160/87/10 158/47/10
f 161/88/11 163/89/11 162/90/11
f 163/89/11 164/91/11 162/90/11
f 165/92/12 167/93/12 166/94/12
f 167/93/12 168/95/12 166/94/12
