# Blender 5.2.0 LTS
# www.blender.org
mtllib lev.ncstarbluelaser.mtl
o laserModel
v 1.493204 0.060449 0.773874
v 26.300894 0.060449 0.773869
v 1.493204 -0.131859 0.773874
v 26.300894 -0.131859 0.773869
v 26.300894 0.060449 0.773100
v 1.493204 0.060449 0.773105
v 26.300894 -0.131859 0.773100
v 1.493204 -0.131859 0.773105
v 26.300894 0.060449 0.773100
v 26.300894 0.060449 0.773869
v 1.493204 0.060449 0.773105
v 1.493204 0.060449 0.773874
v 1.493204 -0.131859 0.773105
v 1.493204 -0.131859 0.773874
v 26.300894 -0.131859 0.773100
v 26.300894 -0.131859 0.773869
v 1.493204 0.060449 0.773105
v 1.493204 0.060449 0.773874
v 1.493204 -0.131859 0.773105
v 1.493204 -0.131859 0.773874
v 26.300894 0.060449 0.773869
v 26.300894 0.060449 0.773100
v 26.300894 -0.131859 0.773869
v 26.300894 -0.131859 0.773100
vn -0.0000 -0.0000 1.0000
vn -0.0000 -0.0000 -1.0000
vn -0.0000 1.0000 -0.0000
vn -0.0000 -1.0000 -0.0000
vn -1.0000 -0.0000 -0.0000
vn 1.0000 -0.0000 -0.0000
vt 0.000000 1.000000
vt 0.000000 0.984375
vt 1.000000 1.000000
vt 1.000000 0.984375
vt 0.000000 0.000000
s 1
usemtl Material_1.001
f 1/1/1 3/2/1 2/3/1
f 3/2/1 4/4/1 2/3/1
f 5/1/2 7/2/2 6/3/2
f 7/2/2 8/4/2 6/3/2
f 9/1/3 11/5/3 10/1/3
f 11/5/3 12/5/3 10/1/3
f 13/1/4 15/5/4 14/1/4
f 15/5/4 16/5/4 14/1/4
f 17/1/5 19/2/5 18/1/5
f 19/2/5 20/2/5 18/1/5
f 21/1/6 23/2/6 22/1/6
f 23/2/6 24/2/6 22/1/6
o attachmentModel
v -0.384615 0.576923 0.384615
v 0.769231 0.576923 0.384615
v -0.384615 -0.576923 0.384615
v 0.769231 -0.576923 0.384615
v 0.769231 0.576923 -0.000000
v -0.384615 0.576923 0.000000
v 0.769231 -0.576923 -0.000000
v -0.384615 -0.576923 0.000000
v 0.769231 0.576923 -0.000000
v 0.769231 0.576923 0.384615
v -0.384615 0.576923 0.000000
v -0.384615 0.576923 0.384615
v -0.384615 -0.576923 0.000000
v -0.384615 -0.576923 0.384615
v 0.769231 -0.576923 -0.000000
v 0.769231 -0.576923 0.384615
v -0.384615 0.576923 0.000000
v -0.384615 0.576923 0.384615
v -0.384615 -0.576923 0.000000
v -0.384615 -0.576923 0.384615
v 0.769231 0.576923 0.384615
v 0.769231 0.576923 -0.000000
v 0.769231 -0.576923 0.384615
v 0.769231 -0.576923 -0.000000
v -1.153077 0.351623 1.153846
v 1.539231 0.351623 1.153846
v -1.153077 -0.417608 1.153846
v 1.539231 -0.417608 1.153846
v 1.539231 0.351623 0.384615
v -1.153077 0.351623 0.384615
v 1.539231 -0.417608 0.384615
v -1.153077 -0.417608 0.384615
v 1.539231 0.351623 0.384615
v 1.539231 0.351623 1.153846
v -1.153077 0.351623 0.384615
v -1.153077 0.351623 1.153846
v -1.153077 -0.417608 0.384615
v -1.153077 -0.417608 1.153846
v 1.539231 -0.417608 0.384615
v 1.539231 -0.417608 1.153846
v -1.153077 0.351623 0.384615
v -1.153077 0.351623 1.153846
v -1.153077 -0.417608 0.384615
v -1.153077 -0.417608 1.153846
v 1.539231 0.351623 1.153846
v 1.539231 0.351623 0.384615
v 1.539231 -0.417608 1.153846
v 1.539231 -0.417608 0.384615
vn -0.0000 -0.0000 1.0000
vn -0.0000 -0.0000 -1.0000
vn -0.0000 1.0000 -0.0000
vn -0.0000 -1.0000 -0.0000
vn -1.0000 -0.0000 -0.0000
vn 1.0000 -0.0000 -0.0000
vt 0.250000 0.750000
vt 0.250000 0.562500
vt 0.437500 0.750000
vt 0.437500 0.562500
vt 0.500000 1.000000
vt 0.500000 0.812500
vt 0.687500 1.000000
vt 0.687500 0.812500
vt 0.312500 0.187500
vt 0.312500 0.375000
vt 0.250000 0.187500
vt 0.250000 0.375000
vt 0.687500 0.750000
vt 0.687500 0.562500
vt 0.625000 0.750000
vt 0.625000 0.562500
vt 0.500000 0.625000
vt 0.500000 0.437500
vt 0.562500 0.625000
vt 0.562500 0.437500
vt 0.375000 0.500000
vt 0.375000 0.312500
vt 0.437500 0.500000
vt 0.437500 0.312500
vt 0.000000 1.000000
vt 0.000000 0.875000
vt 0.437500 1.000000
vt 0.437500 0.875000
vt 0.000000 0.750000
vt 0.125000 0.312500
vt 0.125000 0.750000
vt 0.000000 0.312500
vt 0.250000 0.312500
vt 0.500000 0.750000
vt 0.625000 0.625000
vt 0.250000 0.500000
vt 0.375000 0.375000
s 0
usemtl Material_0.002
f 25/6/7 27/7/7 26/8/7
f 27/7/7 28/9/7 26/8/7
f 29/10/8 31/11/8 30/12/8
f 31/11/8 32/13/8 30/12/8
f 33/14/9 35/15/9 34/16/9
f 35/15/9 36/17/9 34/16/9
f 37/18/10 39/19/10 38/20/10
f 39/19/10 40/21/10 38/20/10
f 41/22/11 43/23/11 42/24/11
f 43/23/11 44/25/11 42/24/11
f 45/26/12 47/27/12 46/28/12
f 47/27/12 48/29/12 46/28/12
f 49/30/7 51/31/7 50/32/7
f 51/31/7 52/33/7 50/32/7
f 53/31/8 55/34/8 54/33/8
f 55/34/8 56/8/8 54/33/8
f 57/35/9 59/36/9 58/37/9
f 59/36/9 60/34/9 58/37/9
f 61/6/10 63/38/10 62/36/10
f 63/38/10 64/35/10 62/36/10
f 65/39/11 67/22/11 66/20/11
f 67/22/11 68/40/11 66/20/11
f 69/41/12 71/17/12 70/26/12
f 71/17/12 72/42/12 70/26/12
