# Blender 5.2.0 LTS
# www.blender.org
mtllib lev.la5bpeq.mtl
o laserModel
v 1.493204 -0.129723 0.612912
v 26.300894 -0.129723 0.612907
v 1.493204 -0.322031 0.612912
v 26.300894 -0.322031 0.612907
v 26.300894 -0.129723 0.612138
v 1.493204 -0.129723 0.612143
v 26.300894 -0.322031 0.612138
v 1.493204 -0.322031 0.612143
v 26.300894 -0.129723 0.612138
v 26.300894 -0.129723 0.612907
v 1.493204 -0.129723 0.612143
v 1.493204 -0.129723 0.612912
v 1.493204 -0.322031 0.612143
v 1.493204 -0.322031 0.612912
v 26.300894 -0.322031 0.612138
v 26.300894 -0.322031 0.612907
v 1.493204 -0.129723 0.612143
v 1.493204 -0.129723 0.612912
v 1.493204 -0.322031 0.612143
v 1.493204 -0.322031 0.612912
v 26.300894 -0.129723 0.612907
v 26.300894 -0.129723 0.612138
v 26.300894 -0.322031 0.612907
v 26.300894 -0.322031 0.612138
vn -0.0000 -0.0000 1.0000
vn -0.0000 -0.0000 -1.0000
vn -0.0000 1.0000 -0.0000
vn -0.0000 -1.0000 -0.0000
vn -1.0000 -0.0000 -0.0000
vn 1.0000 -0.0000 -0.0000
vt 0.000000 1.000000
vt 0.000000 0.984375
vt 1.000000 1.000000
vt 1.000000 0.984375
vt 0.000000 0.000000
s 1
usemtl Material_1.001
f 1/1/1 3/2/1 2/3/1
f 3/2/1 4/4/1 2/3/1
f 5/1/2 7/2/2 6/3/2
f 7/2/2 8/4/2 6/3/2
f 9/1/3 11/5/3 10/1/3
f 11/5/3 12/5/3 10/1/3
f 13/1/4 15/5/4 14/1/4
f 15/5/4 16/5/4 14/1/4
f 17/1/5 19/2/5 18/1/5
f 19/2/5 20/2/5 18/1/5
f 21/1/6 23/2/6 22/1/6
f 23/2/6 24/2/6 22/1/6
o attachmentModel
v -1.346154 0.769231 0.192308
v 1.346154 0.769231 0.192308
v -1.346154 -0.769231 0.192308
v 1.346154 -0.769231 0.192308
v 1.346154 0.769231 -0.000000
v -1.346154 0.769231 0.000000
v 1.346154 -0.769231 -0.000000
v -1.346154 -0.769231 0.000000
v 1.346154 0.769231 -0.000000
v 1.346154 0.769231 0.192308
v -1.346154 0.769231 0.000000
v -1.346154 0.769231 0.192308
v -1.346154 -0.769231 0.000000
v -1.346154 -0.769231 0.192308
v 1.346154 -0.769231 -0.000000
v 1.346154 -0.769231 0.192308
v -1.346154 0.769231 0.000000
v -1.346154 0.769231 0.192308
v -1.346154 -0.769231 0.000000
v -1.346154 -0.769231 0.192308
v 1.346154 0.769231 0.192308
v 1.346154 0.769231 -0.000000
v 1.346154 -0.769231 0.192308
v 1.346154 -0.769231 -0.000000
v -1.346154 0.769231 0.961539
v 1.346153 0.769231 0.961539
v -1.346154 -0.769231 0.961539
v 1.346153 -0.769231 0.961539
v 1.346153 0.769231 0.192308
v -1.346154 0.769231 0.192308
v 1.346153 -0.769231 0.192308
v -1.346154 -0.769231 0.192308
v 1.346153 0.769231 0.192308
v 1.346153 0.769231 0.961539
v -1.346154 0.769231 0.192308
v -1.346154 0.769231 0.961539
v -1.346154 -0.769231 0.192308
v -1.346154 -0.769231 0.961539
v 1.346153 -0.769231 0.192308
v 1.346153 -0.769231 0.961539
v -1.346154 0.769231 0.192308
v -1.346154 0.769231 0.961539
v -1.346154 -0.769231 0.192308
v -1.346154 -0.769231 0.961539
v 1.346153 0.769231 0.961539
v 1.346153 0.769231 0.192308
v 1.346153 -0.769231 0.961539
v 1.346153 -0.769231 0.192308
v -1.730769 -0.000000 0.962308
v -1.346154 -0.000000 0.962308
v -1.730769 -0.769231 0.962308
v -1.346154 -0.769231 0.962308
v -1.346154 -0.000000 0.961539
v -1.730769 -0.000000 0.961539
v -1.346154 -0.769231 0.961539
v -1.730769 -0.769231 0.961539
v -1.346154 -0.000000 0.961539
v -1.346154 -0.000000 0.962308
v -1.730769 -0.000000 0.961539
v -1.730769 -0.000000 0.962308
v -1.730769 -0.769231 0.961539
v -1.730769 -0.769231 0.962308
v -1.346154 -0.769231 0.961539
v -1.346154 -0.769231 0.962308
v -1.730769 -0.000000 0.961539
v -1.730769 -0.000000 0.962308
v -1.730769 -0.769231 0.961539
v -1.730769 -0.769231 0.962308
v -1.346154 -0.000000 0.962308
v -1.346154 -0.000000 0.961539
v -1.346154 -0.769231 0.962308
v -1.346154 -0.769231 0.961539
v -1.350000 0.769231 0.966978
v 1.350000 0.769231 0.966978
v -1.350000 0.219863 0.417610
v 1.350000 0.219863 0.417610
v 1.350000 1.318598 0.417610
v -1.350000 1.318598 0.417611
v 1.350000 0.769231 -0.131757
v -1.350000 0.769231 -0.131757
v 1.350000 1.318598 0.417610
v 1.350000 0.769231 0.966978
v -1.350000 1.318598 0.417611
v -1.350000 0.769231 0.966978
v -1.350000 0.769231 -0.131757
v -1.350000 0.219863 0.417610
v 1.350000 0.769231 -0.131757
v 1.350000 0.219863 0.417610
v -1.350000 1.318598 0.417611
v -1.350000 0.769231 0.966978
v -1.350000 0.769231 -0.131757
v -1.350000 0.219863 0.417610
v 1.350000 0.769231 0.966978
v 1.350000 1.318598 0.417610
v 1.350000 0.219863 0.417610
v 1.350000 0.769231 -0.131757
v 1.346154 1.057692 0.706072
v 1.730769 1.057692 0.706072
v 1.346154 0.480769 0.706072
v 1.730769 0.480769 0.706072
v 1.730769 1.057692 0.129149
v 1.346154 1.057692 0.129149
v 1.730769 0.480769 0.129149
v 1.346154 0.480769 0.129149
v 1.730769 1.057692 0.129149
v 1.730769 1.057692 0.706072
v 1.346154 1.057692 0.129149
v 1.346154 1.057692 0.706072
v 1.346154 0.480769 0.129149
v 1.346154 0.480769 0.706072
v 1.730769 0.480769 0.129149
v 1.730769 0.480769 0.706072
v 1.346154 1.057692 0.129149
v 1.346154 1.057692 0.706072
v 1.346154 0.480769 0.129149
v 1.346154 0.480769 0.706072
v 1.730769 1.057692 0.706072
v 1.730769 1.057692 0.129149
v 1.730769 0.480769 0.706072
v 1.730769 0.480769 0.129149
v 1.737692 0.961538 0.609918
v 1.738461 0.961538 0.609918
v 1.737692 0.576923 0.609918
v 1.738461 0.576923 0.609918
v 1.738461 0.961538 0.225302
v 1.737692 0.961538 0.225302
v 1.738461 0.576923 0.225302
v 1.737692 0.576923 0.225302
v 1.738461 0.961538 0.225302
v 1.738461 0.961538 0.609918
v 1.737692 0.961538 0.225302
v 1.737692 0.961538 0.609918
v 1.737692 0.576923 0.225302
v 1.737692 0.576923 0.609918
v 1.738461 0.576923 0.225302
v 1.738461 0.576923 0.609918
v 1.737692 0.961538 0.225302
v 1.737692 0.961538 0.609918
v 1.737692 0.576923 0.225302
v 1.737692 0.576923 0.609918
v 1.738461 0.961538 0.609918
v 1.738461 0.961538 0.225302
v 1.738461 0.576923 0.609918
v 1.738461 0.576923 0.225302
v -1.730769 1.153846 0.802226
v -1.346154 1.153846 0.802226
v -1.730769 0.384615 0.802226
v -1.346154 0.384615 0.802226
v -1.346154 1.153846 0.032995
v -1.730769 1.153846 0.032995
v -1.346154 0.384615 0.032995
v -1.730769 0.384615 0.032995
v -1.346154 1.153846 0.032995
v -1.346154 1.153846 0.802226
v -1.730769 1.153846 0.032995
v -1.730769 1.153846 0.802226
v -1.730769 0.384615 0.032995
v -1.730769 0.384615 0.802226
v -1.346154 0.384615 0.032995
v -1.346154 0.384615 0.802226
v -1.730769 1.153846 0.032995
v -1.730769 1.153846 0.802226
v -1.730769 0.384615 0.032995
v -1.730769 0.384615 0.802226
v -1.346154 1.153846 0.802226
v -1.346154 1.153846 0.032995
v -1.346154 0.384615 0.802226
v -1.346154 0.384615 0.032995
v 0.384615 0.079656 0.612651
v 1.538461 0.079656 0.612651
v 0.384615 -0.192308 0.884615
v 1.538461 -0.192308 0.884615
v 1.538461 -0.464272 0.068723
v 0.384615 -0.464272 0.068723
v 1.538461 -0.736236 0.340687
v 0.384615 -0.736236 0.340687
v 1.538461 -0.464272 0.068723
v 1.538461 0.079656 0.612651
v 0.384615 -0.464272 0.068723
v 0.384615 0.079656 0.612651
v 0.384615 -0.736236 0.340687
v 0.384615 -0.192308 0.884615
v 1.538461 -0.736236 0.340687
v 1.538461 -0.192308 0.884615
v 0.384615 -0.464272 0.068723
v 0.384615 0.079656 0.612651
v 0.384615 -0.736236 0.340687
v 0.384615 -0.192308 0.884615
v 1.538461 0.079656 0.612651
v 1.538461 -0.464272 0.068723
v 1.538461 -0.192308 0.884615
v 1.538461 -0.736236 0.340687
v -1.153846 -0.192308 1.153846
v -0.769231 -0.192308 1.153846
v -1.153846 -0.576923 1.153846
v -0.769231 -0.576923 1.153846
v -0.769231 -0.192308 0.961539
v -1.153846 -0.192308 0.961539
v -0.769231 -0.576923 0.961539
v -1.153846 -0.576923 0.961539
v -0.769231 -0.192308 0.961539
v -0.769231 -0.192308 1.153846
v -1.153846 -0.192308 0.961539
v -1.153846 -0.192308 1.153846
v -1.153846 -0.576923 0.961539
v -1.153846 -0.576923 1.153846
v -0.769231 -0.576923 0.961539
v -0.769231 -0.576923 1.153846
v -1.153846 -0.192308 0.961539
v -1.153846 -0.192308 1.153846
v -1.153846 -0.576923 0.961539
v -1.153846 -0.576923 1.153846
v -0.769231 -0.192308 1.153846
v -0.769231 -0.192308 0.961539
v -0.769231 -0.576923 1.153846
v -0.769231 -0.576923 0.961539
v -0.769231 0.576923 0.970000
v -0.192308 0.576923 0.970000
v -0.769231 0.000000 0.970000
v -0.192308 0.000000 0.970000
v -0.192308 0.576923 0.969231
v -0.769231 0.576923 0.969231
v -0.192308 0.000000 0.969231
v -0.769231 0.000000 0.969231
v -0.192308 0.576923 0.969231
v -0.192308 0.576923 0.970000
v -0.769231 0.576923 0.969231
v -0.769231 0.576923 0.970000
v -0.769231 0.000000 0.969231
v -0.769231 0.000000 0.970000
v -0.192308 0.000000 0.969231
v -0.192308 0.000000 0.970000
v -0.769231 0.576923 0.969231
v -0.769231 0.576923 0.970000
v -0.769231 0.000000 0.969231
v -0.769231 0.000000 0.970000
v -0.192308 0.576923 0.970000
v -0.192308 0.576923 0.969231
v -0.192308 0.000000 0.970000
v -0.192308 0.000000 0.969231
v -0.192308 1.423077 0.576923
v 0.192308 1.423077 0.576923
v -0.192308 1.038462 0.576923
v 0.192308 1.038462 0.576923
v 0.192308 1.423077 0.192308
v -0.192308 1.423077 0.192308
v 0.192308 1.038462 0.192308
v -0.192308 1.038462 0.192308
v 0.192308 1.423077 0.192308
v 0.192308 1.423077 0.576923
v -0.192308 1.423077 0.192308
v -0.192308 1.423077 0.576923
v -0.192308 1.038462 0.192308
v -0.192308 1.038462 0.576923
v 0.192308 1.038462 0.192308
v 0.192308 1.038462 0.576923
v -0.192308 1.423077 0.192308
v -0.192308 1.423077 0.576923
v -0.192308 1.038462 0.192308
v -0.192308 1.038462 0.576923
v 0.192308 1.423077 0.576923
v 0.192308 1.423077 0.192308
v 0.192308 1.038462 0.576923
v 0.192308 1.038462 0.192308
v -0.192308 0.769231 1.153846
v 0.192308 0.769231 1.153846
v -0.192308 0.384615 1.153846
v 0.192308 0.384615 1.153846
v 0.192308 0.769231 0.769231
v -0.192308 0.769231 0.769231
v 0.192308 0.384615 0.769231
v -0.192308 0.384615 0.769231
v 0.192308 0.769231 0.769231
v 0.192308 0.769231 1.153846
v -0.192308 0.769231 0.769231
v -0.192308 0.769231 1.153846
v -0.192308 0.384615 0.769231
v -0.192308 0.384615 1.153846
v 0.192308 0.384615 0.769231
v 0.192308 0.384615 1.153846
v -0.192308 0.769231 0.769231
v -0.192308 0.769231 1.153846
v -0.192308 0.384615 0.769231
v -0.192308 0.384615 1.153846
v 0.192308 0.769231 1.153846
v 0.192308 0.769231 0.769231
v 0.192308 0.384615 1.153846
v 0.192308 0.384615 0.769231
vn -0.0000 -0.0000 1.0000
vn -0.0000 -0.0000 -1.0000
vn -0.0000 1.0000 -0.0000
vn -0.0000 -1.0000 -0.0000
vn -1.0000 -0.0000 -0.0000
vn 1.0000 -0.0000 -0.0000
vn -0.0000 -0.7071 0.7071
vn -0.0000 0.7071 -0.7071
vn -0.0000 0.7071 0.7071
vn -0.0000 -0.7071 -0.7071
vt 0.000000 0.750000
vt 0.000000 0.625000
vt 0.218750 0.750000
vt 0.218750 0.625000
vt 0.250000 1.000000
vt 0.250000 0.875000
vt 0.468750 1.000000
vt 0.468750 0.875000
vt 0.093750 0.343750
vt 0.093750 0.562500
vt 0.062500 0.343750
vt 0.062500 0.562500
vt 0.156250 0.562500
vt 0.156250 0.343750
vt 0.125000 0.562500
vt 0.125000 0.343750
vt 0.375000 0.562500
vt 0.375000 0.437500
vt 0.406250 0.562500
vt 0.406250 0.437500
vt 0.437500 0.687500
vt 0.437500 0.562500
vt 0.468750 0.687500
vt 0.468750 0.562500
vt 0.000000 1.000000
vt 0.000000 0.875000
vt 0.218750 1.000000
vt 0.218750 0.875000
vt 0.312500 0.656250
vt 0.312500 0.875000
vt 0.250000 0.656250
vt 0.375000 0.875000
vt 0.375000 0.656250
vt 0.000000 0.562500
vt 0.000000 0.437500
vt 0.062500 0.437500
vt 0.312500 0.625000
vt 0.312500 0.500000
vt 0.375000 0.625000
vt 0.375000 0.500000
vt 0.437500 0.500000
vt 0.437500 0.437500
vt 0.468750 0.500000
vt 0.468750 0.437500
vt 0.500000 0.562500
vt 0.500000 0.500000
vt 0.531250 0.562500
vt 0.531250 0.500000
vt 0.000000 0.968750
vt 0.000000 0.937500
vt 0.218750 0.562500
vt 0.375000 0.812500
vt 0.593750 0.875000
vt 0.593750 0.812500
vt 0.437500 0.593750
vt 0.437500 0.812500
vt 0.375000 0.593750
vt 0.312500 0.406250
vt 0.250000 0.625000
vt 0.250000 0.406250
vt 0.500000 1.000000
vt 0.500000 0.937500
vt 0.562500 1.000000
vt 0.562500 0.937500
vt 0.500000 0.437500
vt 0.531250 0.437500
vt 0.000000 0.375000
vt 0.031250 0.437500
vt 0.031250 0.375000
vt 0.625000 0.968750
vt 0.625000 1.000000
vt 0.562500 0.968750
vt 0.625000 0.937500
vt 0.625000 0.906250
vt 0.562500 0.906250
vt 0.500000 0.812500
vt 0.500000 0.750000
vt 0.562500 0.812500
vt 0.562500 0.750000
vt 0.500000 0.875000
vt 0.562500 0.875000
vt 0.031250 1.000000
vt 0.500000 0.406250
vt 0.531250 0.406250
vt 0.562500 0.562500
vt 0.562500 0.531250
vt 0.593750 0.562500
vt 0.593750 0.531250
vt 0.187500 0.437500
vt 0.187500 0.375000
vt 0.218750 0.437500
vt 0.218750 0.375000
vt 0.593750 0.750000
vt 0.625000 0.718750
vt 0.625000 0.750000
vt 0.562500 0.718750
vt 0.375000 0.406250
vt 0.312500 0.437500
vt 0.500000 0.687500
vt 0.562500 0.687500
vt 0.500000 0.656250
vt 0.593750 0.687500
vt 0.593750 0.656250
vt 0.500000 0.625000
vt 0.500000 0.593750
vt 0.593750 0.625000
vt 0.593750 0.593750
vt 0.250000 0.468750
vt 0.250000 0.562500
vt 0.187500 0.468750
vt 0.187500 0.562500
vt 0.500000 0.718750
vt 0.437500 0.718750
vt 0.437500 0.406250
vt 0.562500 0.437500
vt 0.562500 0.406250
vt 0.593750 0.437500
vt 0.593750 0.406250
vt 0.656250 1.000000
vt 0.656250 0.968750
vt 0.656250 0.906250
vt 0.656250 0.937500
vt 0.656250 0.875000
vt 0.656250 0.843750
vt 0.625000 0.875000
vt 0.625000 0.843750
vt 0.000000 0.343750
vt 0.031250 0.343750
vt 0.562500 0.500000
vt 0.562500 0.468750
vt 0.593750 0.500000
vt 0.593750 0.468750
vt 0.625000 0.437500
vt 0.625000 0.375000
vt 0.687500 0.437500
vt 0.687500 0.375000
vt 0.625000 0.812500
vt 0.625000 0.781250
vt 0.656250 0.812500
vt 0.656250 0.781250
vt 0.656250 0.750000
vt 0.656250 0.718750
vt 0.343750 0.343750
vt 0.343750 0.375000
vt 0.312500 0.343750
vt 0.312500 0.375000
vt 0.656250 0.687500
vt 0.656250 0.656250
vt 0.625000 0.687500
vt 0.625000 0.656250
vt 0.250000 0.375000
vt 0.250000 0.343750
vt 0.281250 0.375000
vt 0.281250 0.343750
vt 0.187500 0.343750
vt 0.218750 0.343750
vt 0.625000 0.625000
vt 0.625000 0.593750
vt 0.656250 0.625000
vt 0.656250 0.593750
vt 0.625000 0.562500
vt 0.625000 0.531250
vt 0.656250 0.562500
vt 0.656250 0.531250
vt 0.531250 0.343750
vt 0.531250 0.375000
vt 0.500000 0.343750
vt 0.500000 0.375000
vt 0.656250 0.500000
vt 0.656250 0.468750
vt 0.625000 0.500000
vt 0.625000 0.468750
vt 0.437500 0.375000
vt 0.437500 0.343750
vt 0.468750 0.375000
vt 0.468750 0.343750
vt 0.375000 0.375000
vt 0.375000 0.343750
vt 0.406250 0.375000
vt 0.406250 0.343750
s 0
usemtl Material_0.003
f 25/6/7 27/7/7 26/8/7
f 27/7/7 28/9/7 26/8/7
f 29/10/8 31/11/8 30/12/8
f 31/11/8 32/13/8 30/12/8
f 33/14/9 35/15/9 34/16/9
f 35/15/9 36/17/9 34/16/9
f 37/18/10 39/19/10 38/20/10
f 39/19/10 40/21/10 38/20/10
f 41/22/11 43/23/11 42/24/11
f 43/23/11 44/25/11 42/24/11
f 45/26/12 47/27/12 46/28/12
f 47/27/12 48/29/12 46/28/12
f 49/30/7 51/31/7 50/32/7
f 51/31/7 52/33/7 50/32/7
f 53/31/8 55/6/8 54/33/8
f 55/6/8 56/8/8 54/33/8
f 57/34/9 59/35/9 58/36/9
f 59/35/9 60/11/9 58/36/9
f 61/37/10 63/38/10 62/35/10
f 63/38/10 64/34/10 62/35/10
f 65/39/11 67/40/11 66/17/11
f 67/40/11 68/41/11 66/17/11
f 69/42/12 71/43/12 70/44/12
f 71/43/12 72/45/12 70/44/12
f 73/46/7 75/47/7 74/48/7
f 75/47/7 76/49/7 74/48/7
f 77/50/8 79/51/8 78/52/8
f 79/51/8 80/53/8 78/52/8
f 81/54/9 83/30/9 82/54/9
f 83/30/9 84/30/9 82/54/9
f 85/30/10 87/54/10 86/30/10
f 87/54/10 88/54/10 86/30/10
f 89/30/11 91/55/11 90/30/11
f 91/55/11 92/55/11 90/30/11
f 93/30/12 95/55/12 94/30/12
f 95/55/12 96/55/12 94/30/12
f 97/7/13 99/39/13 98/9/13
f 99/39/13 100/56/13 98/9/13
f 101/37/14 103/57/14 102/58/14
f 103/57/14 104/59/14 102/58/14
f 105/60/15 107/61/15 106/62/15
f 107/61/15 108/57/15 106/62/15
f 109/42/16 111/63/16 110/64/16
f 111/63/16 112/65/16 110/64/16
f 113/66/11 115/67/11 114/68/11
f 115/67/11 116/69/11 114/68/11
f 117/27/12 119/46/12 118/50/12
f 119/46/12 120/51/12 118/50/12
f 121/51/7 123/70/7 122/53/7
f 123/70/7 124/71/7 122/53/7
f 125/40/8 127/72/8 126/73/8
f 127/72/8 128/74/8 126/73/8
f 129/75/9 131/76/9 130/77/9
f 131/76/9 132/68/9 130/77/9
f 133/78/10 135/79/10 134/69/10
f 135/79/10 136/80/10 134/69/10
f 137/81/11 139/82/11 138/83/11
f 139/82/11 140/84/11 138/83/11
f 141/67/12 143/85/12 142/69/12
f 143/85/12 144/86/12 142/69/12
f 145/30/7 147/54/7 146/30/7
f 147/54/7 148/54/7 146/30/7
f 149/30/8 151/54/8 150/30/8
f 151/54/8 152/54/8 150/30/8
f 153/87/9 155/87/9 154/30/9
f 155/87/9 156/30/9 154/30/9
f 157/87/10 159/87/10 158/30/10
f 159/87/10 160/30/10 158/30/10
f 161/70/11 163/88/11 162/71/11
f 163/88/11 164/89/11 162/71/11
f 165/90/12 167/91/12 166/92/12
f 167/91/12 168/93/12 166/92/12
f 169/94/7 171/95/7 170/96/7
f 171/95/7 172/97/7 170/96/7
f 173/83/8 175/84/8 174/59/8
f 175/84/8 176/98/8 174/59/8
f 177/99/9 179/100/9 178/101/9
f 179/100/9 180/84/9 178/101/9
f 181/23/10 183/102/10 182/103/10
f 183/102/10 184/63/10 182/103/10
f 185/43/11 187/103/11 186/45/11
f 187/103/11 188/23/11 186/45/11
f 189/82/12 191/104/12 190/84/12
f 191/104/12 192/105/12 190/84/12
f 193/104/15 195/106/15 194/107/15
f 195/106/15 196/108/15 194/107/15
f 197/109/16 199/110/16 198/111/16
f 199/110/16 200/112/16 198/111/16
f 201/113/14 203/114/14 202/115/14
f 203/114/14 204/116/14 202/115/14
f 205/81/13 207/117/13 206/61/13
f 207/117/13 208/118/13 206/61/13
f 209/47/11 211/119/11 210/70/11
f 211/119/11 212/88/11 210/70/11
f 213/23/12 215/102/12 214/47/12
f 215/102/12 216/119/12 214/47/12
f 217/120/7 219/121/7 218/122/7
f 219/121/7 220/123/7 218/122/7
f 221/76/8 223/75/8 222/124/8
f 223/75/8 224/125/8 222/124/8
f 225/126/9 227/127/9 226/79/9
f 227/127/9 228/78/9 226/79/9
f 229/128/10 231/129/10 230/130/10
f 231/129/10 232/131/10 230/130/10
f 233/72/11 235/132/11 234/74/11
f 235/132/11 236/133/11 234/74/11
f 237/134/12 239/135/12 238/136/12
f 239/135/12 240/137/12 238/136/12
f 241/138/7 243/139/7 242/140/7
f 243/139/7 244/141/7 242/140/7
f 245/76/8 247/75/8 246/124/8
f 247/75/8 248/125/8 246/124/8
f 249/126/9 251/127/9 250/79/9
f 251/127/9 252/78/9 250/79/9
f 253/128/10 255/129/10 254/130/10
f 255/129/10 256/131/10 254/130/10
f 257/72/11 259/132/11 258/74/11
f 259/132/11 260/133/11 258/74/11
f 261/134/12 263/135/12 262/136/12
f 263/135/12 264/137/12 262/136/12
f 265/142/7 267/143/7 266/144/7
f 267/143/7 268/145/7 266/144/7
f 269/100/8 271/99/8 270/146/8
f 271/99/8 272/147/8 270/146/8
f 273/148/9 275/149/9 274/150/9
f 275/149/9 276/151/9 274/150/9
f 277/152/10 279/153/10 278/154/10
f 279/153/10 280/155/10 278/154/10
f 281/156/11 283/157/11 282/158/11
f 283/157/11 284/159/11 282/158/11
f 285/95/12 287/160/12 286/97/12
f 287/160/12 288/161/12 286/97/12
f 289/162/7 291/163/7 290/164/7
f 291/163/7 292/165/7 290/164/7
f 293/166/8 295/167/8 294/168/8
f 295/167/8 296/169/8 294/168/8
f 297/170/9 299/171/9 298/172/9
f 299/171/9 300/173/9 298/172/9
f 301/174/10 303/175/10 302/176/10
f 303/175/10 304/177/10 302/176/10
f 305/178/11 307/179/11 306/180/11
f 307/179/11 308/181/11 306/180/11
f 309/182/12 311/183/12 310/184/12
f 311/183/12 312/185/12 310/184/12
