# Blender 5.2.0 LTS
# www.blender.org
mtllib lev.ogl.mtl
o laserModel
v 1.563069 -0.462015 0.301747
v 26.370758 -0.462015 0.301742
v 1.563069 -0.654323 0.301747
v 26.370758 -0.654323 0.301742
v 26.370758 -0.462015 0.300973
v 1.563069 -0.462015 0.300978
v 26.370758 -0.654323 0.300973
v 1.563069 -0.654323 0.300978
v 26.370758 -0.462015 0.300973
v 26.370758 -0.462015 0.301742
v 1.563069 -0.462015 0.300978
v 1.563069 -0.462015 0.301747
v 1.563069 -0.654323 0.300978
v 1.563069 -0.654323 0.301747
v 26.370758 -0.654323 0.300973
v 26.370758 -0.654323 0.301742
v 1.563069 -0.462015 0.300978
v 1.563069 -0.462015 0.301747
v 1.563069 -0.654323 0.300978
v 1.563069 -0.654323 0.301747
v 26.370758 -0.462015 0.301742
v 26.370758 -0.462015 0.300973
v 26.370758 -0.654323 0.301742
v 26.370758 -0.654323 0.300973
vn -0.0000 -0.0000 1.0000
vn -0.0000 -0.0000 -1.0000
vn -0.0000 1.0000 -0.0000
vn -0.0000 -1.0000 -0.0000
vn -1.0000 -0.0000 -0.0000
vn 1.0000 -0.0000 -0.0000
vt 0.000000 1.000000
vt 0.000000 0.984375
vt 1.000000 1.000000
vt 1.000000 0.984375
vt 0.000000 0.000000
s 1
usemtl Material_1.001
f 1/1/1 3/2/1 2/3/1
f 3/2/1 4/4/1 2/3/1
f 5/1/2 7/2/2 6/3/2
f 7/2/2 8/4/2 6/3/2
f 9/1/3 11/5/3 10/1/3
f 11/5/3 12/5/3 10/1/3
f 13/1/4 15/5/4 14/1/4
f 15/5/4 16/5/4 14/1/4
f 17/1/5 19/2/5 18/1/5
f 19/2/5 20/2/5 18/1/5
f 21/1/6 23/2/6 22/1/6
f 23/2/6 24/2/6 22/1/6
o attachmentModel
v -1.538461 0.961538 1.153846
v 1.538461 0.961538 1.153846
v -1.538461 -0.961538 1.153846
v 1.538461 -0.961538 1.153846
v 1.538461 0.961538 -0.000000
v -1.538461 0.961538 0.000000
v 1.538461 -0.961538 -0.000000
v -1.538461 -0.961538 0.000000
v 1.538461 0.961538 -0.000000
v 1.538461 0.961538 1.153846
v -1.538461 0.961538 0.000000
v -1.538461 0.961538 1.153846
v -1.538461 -0.961538 0.000000
v -1.538461 -0.961538 1.153846
v 1.538461 -0.961538 -0.000000
v 1.538461 -0.961538 1.153846
v -1.538461 0.961538 0.000000
v -1.538461 0.961538 1.153846
v -1.538461 -0.961538 0.000000
v -1.538461 -0.961538 1.153846
v 1.538461 0.961538 1.153846
v 1.538461 0.961538 -0.000000
v 1.538461 -0.961538 1.153846
v 1.538461 -0.961538 -0.000000
v -1.442308 0.288462 1.162308
v -0.865385 0.288462 1.162308
v -1.442308 -0.288462 1.162308
v -0.865385 -0.288462 1.162308
v -0.865385 0.288462 1.161538
v -1.442308 0.288462 1.161538
v -0.865385 -0.288462 1.161538
v -1.442308 -0.288462 1.161538
v -0.865385 0.288462 1.161538
v -0.865385 0.288462 1.162308
v -1.442308 0.288462 1.161538
v -1.442308 0.288462 1.162308
v -1.442308 -0.288462 1.161538
v -1.442308 -0.288462 1.162308
v -0.865385 -0.288462 1.161538
v -0.865385 -0.288462 1.162308
v -1.442308 0.288462 1.161538
v -1.442308 0.288462 1.162308
v -1.442308 -0.288462 1.161538
v -1.442308 -0.288462 1.162308
v -0.865385 0.288462 1.162308
v -0.865385 0.288462 1.161538
v -0.865385 -0.288462 1.162308
v -0.865385 -0.288462 1.161538
v 0.769231 -0.577217 1.153135
v 1.538461 -0.577217 1.153135
v 0.769231 -0.576923 1.153846
v 1.538461 -0.576923 1.153846
v 1.538461 -1.643232 1.594693
v 0.769231 -1.643232 1.594693
v 1.538461 -1.642938 1.595404
v 0.769231 -1.642938 1.595404
v 1.538461 -1.643232 1.594693
v 1.538461 -0.577217 1.153135
v 0.769231 -1.643232 1.594693
v 0.769231 -0.577217 1.153135
v 0.769231 -1.642938 1.595404
v 0.769231 -0.576923 1.153846
v 1.538461 -1.642938 1.595404
v 1.538461 -0.576923 1.153846
v 0.769231 -1.643232 1.594693
v 0.769231 -0.577217 1.153135
v 0.769231 -1.642938 1.595404
v 0.769231 -0.576923 1.153846
v 1.538461 -0.577217 1.153135
v 1.538461 -1.643232 1.594693
v 1.538461 -0.576923 1.153846
v 1.538461 -1.642938 1.595404
v 1.545385 0.769231 1.038461
v 1.546154 0.769231 1.038461
v 1.545385 0.000000 1.038461
v 1.546154 0.000000 1.038461
v 1.546154 0.769231 0.269231
v 1.545385 0.769231 0.269231
v 1.546154 0.000000 0.269231
v 1.545385 0.000000 0.269231
v 1.546154 0.769231 0.269231
v 1.546154 0.769231 1.038461
v 1.545385 0.769231 0.269231
v 1.545385 0.769231 1.038461
v 1.545385 0.000000 0.269231
v 1.545385 0.000000 1.038461
v 1.546154 0.000000 0.269231
v 1.546154 0.000000 1.038461
v 1.545385 0.769231 0.269231
v 1.545385 0.769231 1.038461
v 1.545385 0.000000 0.269231
v 1.545385 0.000000 1.038461
v 1.546154 0.769231 1.038461
v 1.546154 0.769231 0.269231
v 1.546154 0.000000 1.038461
v 1.546154 0.000000 0.269231
v 1.545385 -0.384615 0.884615
v 1.546154 -0.384615 0.884615
v 1.545385 -0.769231 0.884615
v 1.546154 -0.769231 0.884615
v 1.546154 -0.384615 0.115385
v 1.545385 -0.384615 0.115385
v 1.546154 -0.769231 0.115385
v 1.545385 -0.769231 0.115385
v 1.546154 -0.384615 0.115385
v 1.546154 -0.384615 0.884615
v 1.545385 -0.384615 0.115385
v 1.545385 -0.384615 0.884615
v 1.545385 -0.769231 0.115385
v 1.545385 -0.769231 0.884615
v 1.546154 -0.769231 0.115385
v 1.546154 -0.769231 0.884615
v 1.545385 -0.384615 0.115385
v 1.545385 -0.384615 0.884615
v 1.545385 -0.769231 0.115385
v 1.545385 -0.769231 0.884615
v 1.546154 -0.384615 0.884615
v 1.546154 -0.384615 0.115385
v 1.546154 -0.769231 0.884615
v 1.546154 -0.769231 0.115385
v 0.576920 0.543928 1.162308
v 1.120848 -0.000000 1.162308
v -0.238973 -0.271964 1.162308
v 0.304955 -0.815892 1.162308
v 1.120848 -0.000000 1.161538
v 0.576920 0.543928 1.161538
v 0.304955 -0.815892 1.161538
v -0.238973 -0.271964 1.161538
v 1.120848 -0.000000 1.161538
v 1.120848 -0.000000 1.162308
v 0.576920 0.543928 1.161538
v 0.576920 0.543928 1.162308
v -0.238973 -0.271964 1.161538
v -0.238973 -0.271964 1.162308
v 0.304955 -0.815892 1.161538
v 0.304955 -0.815892 1.162308
v 0.576920 0.543928 1.161538
v 0.576920 0.543928 1.162308
v -0.238973 -0.271964 1.161538
v -0.238973 -0.271964 1.162308
v 1.120848 -0.000000 1.162308
v 1.120848 -0.000000 1.161538
v 0.304955 -0.815892 1.162308
v 0.304955 -0.815892 1.161538
v -2.115384 -0.384616 1.120851
v -1.346154 -0.384616 1.120851
v -2.115384 -0.928544 0.576923
v -1.346154 -0.928544 0.576923
v -1.346154 0.159313 0.576923
v -2.115384 0.159313 0.576923
v -1.346154 -0.384615 0.032995
v -2.115384 -0.384615 0.032995
v -1.346154 0.159313 0.576923
v -1.346154 -0.384616 1.120851
v -2.115384 0.159313 0.576923
v -2.115384 -0.384616 1.120851
v -2.115384 -0.384615 0.032995
v -2.115384 -0.928544 0.576923
v -1.346154 -0.384615 0.032995
v -1.346154 -0.928544 0.576923
v -2.115384 0.159313 0.576923
v -2.115384 -0.384616 1.120851
v -2.115384 -0.384615 0.032995
v -2.115384 -0.928544 0.576923
v -1.346154 -0.384616 1.120851
v -1.346154 0.159313 0.576923
v -1.346154 -0.928544 0.576923
v -1.346154 -0.384615 0.032995
v -1.730769 0.961538 1.153846
v -1.538461 0.961538 1.153846
v -1.730769 -0.192308 1.153846
v -1.538461 -0.192308 1.153846
v -1.538461 0.961538 0.000000
v -1.730769 0.961538 0.000000
v -1.538461 -0.192308 0.000000
v -1.730769 -0.192308 0.000000
v -1.538461 0.961538 0.000000
v -1.538461 0.961538 1.153846
v -1.730769 0.961538 0.000000
v -1.730769 0.961538 1.153846
v -1.730769 -0.192308 0.000000
v -1.730769 -0.192308 1.153846
v -1.538461 -0.192308 0.000000
v -1.538461 -0.192308 1.153846
v -1.730769 0.961538 0.000000
v -1.730769 0.961538 1.153846
v -1.730769 -0.192308 0.000000
v -1.730769 -0.192308 1.153846
v -1.538461 0.961538 1.153846
v -1.538461 0.961538 0.000000
v -1.538461 -0.192308 1.153846
v -1.538461 -0.192308 0.000000
v -1.923077 0.576923 0.769231
v -1.538461 0.576923 0.769231
v -1.923077 0.192308 0.769231
v -1.538461 0.192308 0.769231
v -1.538461 0.576923 0.384615
v -1.923077 0.576923 0.384615
v -1.538461 0.192308 0.384615
v -1.923077 0.192308 0.384615
v -1.538461 0.576923 0.384615
v -1.538461 0.576923 0.769231
v -1.923077 0.576923 0.384615
v -1.923077 0.576923 0.769231
v -1.923077 0.192308 0.384615
v -1.923077 0.192308 0.769231
v -1.538461 0.192308 0.384615
v -1.538461 0.192308 0.769231
v -1.923077 0.576923 0.384615
v -1.923077 0.576923 0.769231
v -1.923077 0.192308 0.384615
v -1.923077 0.192308 0.769231
v -1.538461 0.576923 0.769231
v -1.538461 0.576923 0.384615
v -1.538461 0.192308 0.769231
v -1.538461 0.192308 0.384615
vn -0.0000 -0.0000 1.0000
vn -0.0000 -0.0000 -1.0000
vn -0.0000 1.0000 -0.0000
vn -0.0000 -1.0000 -0.0000
vn -1.0000 -0.0000 -0.0000
vn 1.0000 -0.0000 -0.0000
vn -0.0000 0.9239 -0.3827
vn -0.0000 0.9239 -0.3826
vn -0.0000 -0.9240 0.3824
vn -0.0000 -0.9239 0.3827
vn -0.0000 -0.3827 -0.9239
vn -0.0000 0.3827 0.9239
vn -1.0000 -0.0001 -0.0000
vn 1.0000 -0.0001 -0.0000
vn 0.7072 0.7070 -0.0000
vn 0.7070 0.7072 -0.0000
vn -0.7072 -0.7070 -0.0000
vn -0.7070 -0.7072 -0.0000
vn -0.7071 0.7071 -0.0000
vn 0.7071 -0.7071 -0.0000
vn -0.0000 -0.7071 0.7071
vn -0.0000 0.7071 -0.7071
vn -0.0000 0.7071 0.7071
vn -0.0000 -0.7071 -0.7071
vt 0.000000 1.000000
vt 0.000000 0.843750
vt 0.250000 1.000000
vt 0.250000 0.843750
vt 0.000000 0.812500
vt 0.000000 0.656250
vt 0.250000 0.812500
vt 0.250000 0.656250
vt 0.343750 0.750000
vt 0.343750 1.000000
vt 0.250000 0.750000
vt 0.343750 0.500000
vt 0.250000 0.500000
vt 0.375000 1.000000
vt 0.375000 0.843750
vt 0.468750 1.000000
vt 0.468750 0.843750
vt 0.000000 0.625000
vt 0.000000 0.468750
vt 0.093750 0.625000
vt 0.093750 0.468750
vt 0.500000 1.000000
vt 0.500000 0.937500
vt 0.562500 1.000000
vt 0.562500 0.937500
vt 0.500000 0.875000
vt 0.562500 0.875000
vt 0.000000 0.937500
vt 0.062500 1.000000
vt 0.468750 0.625000
vt 0.468750 0.687500
vt 0.375000 0.625000
vt 0.375000 0.687500
vt 0.468750 0.562500
vt 0.375000 0.562500
vt 0.093750 1.000000
vt 0.500000 0.812500
vt 0.562500 0.812500
vt 0.125000 0.500000
vt 0.125000 0.437500
vt 0.187500 0.500000
vt 0.187500 0.437500
vt 0.000000 0.968750
vt 0.125000 0.406250
vt 0.187500 0.406250
vt 0.562500 0.906250
vt 0.625000 0.937500
vt 0.625000 0.906250
vt 0.375000 0.468750
vt 0.437500 0.562500
vt 0.437500 0.468750
vt 0.500000 0.562500
vt 0.500000 0.468750
vt 0.000000 0.906250
vt 0.500000 0.750000
vt 0.562500 0.750000
vt 0.500000 0.687500
vt 0.562500 0.687500
vt 0.375000 0.437500
vt 0.375000 0.500000
vt 0.312500 0.437500
vt 0.312500 0.500000
vt 0.562500 0.625000
vt 0.500000 0.625000
vt 0.250000 0.437500
vt 0.500000 0.531250
vt 0.531250 0.625000
vt 0.531250 0.531250
vt 0.500000 0.500000
vt 0.500000 0.406250
vt 0.531250 0.500000
vt 0.531250 0.406250
vt 0.093750 0.406250
vt 0.093750 0.437500
vt 0.000000 0.406250
vt 0.000000 0.437500
vt 0.656250 1.000000
vt 0.656250 0.968750
vt 0.562500 0.968750
vt 0.375000 0.812500
vt 0.375000 0.718750
vt 0.468750 0.812500
vt 0.468750 0.718750
vt 0.125000 0.625000
vt 0.125000 0.531250
vt 0.218750 0.625000
vt 0.218750 0.531250
vt 0.218750 0.437500
vt 0.218750 0.406250
vt 0.250000 0.406250
vt 0.281250 0.437500
vt 0.281250 0.406250
vt 0.593750 0.718750
vt 0.593750 0.750000
vt 0.562500 0.718750
vt 0.343750 0.437500
vt 0.343750 0.406250
vt 0.312500 0.406250
vt 0.562500 0.781250
vt 0.593750 0.812500
vt 0.593750 0.781250
vt 0.562500 0.843750
vt 0.593750 0.875000
vt 0.593750 0.843750
s 0
usemtl Material_0.001
f 25/6/7 27/7/7 26/8/7
f 27/7/7 28/9/7 26/8/7
f 29/10/8 31/11/8 30/12/8
f 31/11/8 32/13/8 30/12/8
f 33/14/9 35/15/9 34/16/9
f 35/15/9 36/8/9 34/16/9
f 37/14/10 39/17/10 38/16/10
f 39/17/10 40/18/10 38/16/10
f 41/19/11 43/20/11 42/21/11
f 43/20/11 44/22/11 42/21/11
f 45/23/12 47/24/12 46/25/12
f 47/24/12 48/26/12 46/25/12
f 49/27/7 51/28/7 50/29/7
f 51/28/7 52/30/7 50/29/7
f 53/28/8 55/31/8 54/30/8
f 55/31/8 56/32/8 54/30/8
f 57/6/9 59/33/9 58/6/9
f 59/33/9 60/33/9 58/6/9
f 61/6/10 63/33/10 62/6/10
f 63/33/10 64/33/10 62/6/10
f 65/6/11 67/33/11 66/6/11
f 67/33/11 68/33/11 66/6/11
f 69/6/12 71/33/12 70/6/12
f 71/33/12 72/33/12 70/6/12
f 73/6/13 75/6/13 74/34/13
f 75/6/14 76/34/14 74/34/14
f 77/6/15 79/6/15 78/34/15
f 79/6/16 80/34/16 78/34/16
f 81/35/17 83/36/17 82/37/17
f 83/36/17 84/38/17 82/37/17
f 85/35/18 87/39/18 86/37/18
f 87/39/18 88/40/18 86/37/18
f 89/6/19 91/6/19 90/41/19
f 91/6/11 92/41/11 90/41/11
f 93/6/12 95/6/12 94/41/12
f 95/6/20 96/41/20 94/41/20
f 97/6/7 99/33/7 98/6/7
f 99/33/7 100/33/7 98/6/7
f 101/6/8 103/33/8 102/6/8
f 103/33/8 104/33/8 102/6/8
f 105/6/9 107/6/9 106/34/9
f 107/6/9 108/34/9 106/34/9
f 109/6/10 111/6/10 110/34/10
f 111/6/10 112/34/10 110/34/10
f 113/31/11 115/42/11 114/32/11
f 115/42/11 116/43/11 114/32/11
f 117/44/12 119/45/12 118/46/12
f 119/45/12 120/47/12 118/46/12
f 121/6/7 123/48/7 122/6/7
f 123/48/7 124/48/7 122/6/7
f 125/6/8 127/48/8 126/6/8
f 127/48/8 128/48/8 126/6/8
f 129/6/9 131/6/9 130/34/9
f 131/6/9 132/34/9 130/34/9
f 133/6/10 135/6/10 134/34/10
f 135/6/10 136/34/10 134/34/10
f 137/45/11 139/49/11 138/47/11
f 139/49/11 140/50/11 138/47/11
f 141/30/12 143/51/12 142/52/12
f 143/51/12 144/53/12 142/52/12
f 145/40/7 147/54/7 146/55/7
f 147/54/7 148/56/7 146/55/7
f 149/55/8 151/56/8 150/57/8
f 151/56/8 152/58/8 150/57/8
f 153/6/21 155/33/21 154/6/21
f 155/33/22 156/33/22 154/6/22
f 157/6/23 159/33/23 158/6/23
f 159/33/24 160/33/24 158/6/24
f 161/6/25 163/59/25 162/6/25
f 163/59/25 164/59/25 162/6/25
f 165/6/26 167/59/26 166/6/26
f 167/59/26 168/59/26 166/6/26
f 169/42/27 171/60/27 170/43/27
f 171/60/27 172/61/27 170/43/27
f 173/60/28 175/62/28 174/61/28
f 175/62/28 176/63/28 174/61/28
f 177/64/29 179/65/29 178/66/29
f 179/65/29 180/67/29 178/66/29
f 181/63/30 183/68/30 182/62/30
f 183/68/30 184/69/30 182/62/30
f 185/18/11 187/70/11 186/67/11
f 187/70/11 188/66/11 186/67/11
f 189/46/12 191/47/12 190/18/12
f 191/47/12 192/70/12 190/18/12
f 193/69/7 195/71/7 194/72/7
f 195/71/7 196/73/7 194/72/7
f 197/74/8 199/75/8 198/76/8
f 199/75/8 200/77/8 198/76/8
f 201/78/9 203/79/9 202/80/9
f 203/79/9 204/81/9 202/80/9
f 205/82/10 207/83/10 206/29/10
f 207/83/10 208/84/10 206/29/10
f 209/85/11 211/86/11 210/87/11
f 211/86/11 212/88/11 210/87/11
f 213/89/12 215/90/12 214/91/12
f 215/90/12 216/92/12 214/91/12
f 217/47/7 219/50/7 218/93/7
f 219/50/7 220/94/7 218/93/7
f 221/70/8 223/95/8 222/96/8
f 223/95/8 224/97/8 222/96/8
f 225/98/9 227/99/9 226/100/9
f 227/99/9 228/61/9 226/100/9
f 229/101/10 231/102/10 230/66/10
f 231/102/10 232/103/10 230/66/10
f 233/43/11 235/104/11 234/105/11
f 235/104/11 236/106/11 234/105/11
f 237/32/12 239/107/12 238/108/12
f 239/107/12 240/109/12 238/108/12
