# Blender 4.4.3
# www.blender.org
mtllib lev.og7v.mtl
o bulletModel
v -0.846154 0.054393 0.000000
v 0.769231 0.054393 -0.000000
v -0.846154 0.000000 0.054393
v 0.769231 -0.000000 0.054393
v 0.769231 -0.000000 -0.054393
v -0.846154 0.000000 -0.054393
v 0.769231 -0.054393 -0.000000
v -0.846154 -0.054393 0.000000
v 0.769231 -0.000000 -0.054393
v 0.769231 0.054393 -0.000000
v -0.846154 0.000000 -0.054393
v -0.846154 0.054393 0.000000
v -0.846154 -0.054393 0.000000
v -0.846154 0.000000 0.054393
v 0.769231 -0.054393 -0.000000
v 0.769231 -0.000000 0.054393
v -0.846154 0.000000 -0.054393
v -0.846154 0.054393 0.000000
v -0.846154 -0.054393 0.000000
v -0.846154 0.000000 0.054393
v 0.769231 0.054393 -0.000000
v 0.769231 -0.000000 -0.054393
v 0.769231 -0.000000 0.054393
v 0.769231 -0.054393 -0.000000
vn -0.0000 0.7071 0.7071
vn -0.0000 -0.7071 -0.7071
vn -0.0000 0.7071 -0.7071
vn -0.0000 -0.7071 0.7071
vn -1.0000 -0.0000 -0.0000
vn 1.0000 -0.0000 -0.0000
vt 0.062500 0.937500
vt 0.062500 0.921875
vt 0.390625 0.937500
vt 0.390625 0.921875
vt 0.062500 0.906250
vt 0.390625 0.906250
vt 0.078125 0.578125
vt 0.078125 0.906250
vt 0.062500 0.578125
vt 0.093750 0.906250
vt 0.093750 0.578125
vt 0.015625 0.500000
vt 0.015625 0.484375
vt 0.031250 0.500000
vt 0.031250 0.484375
vt 0.500000 1.000000
vt 0.500000 0.984375
vt 0.515625 1.000000
vt 0.515625 0.984375
s 0
usemtl Material_0
f 1/1/1 3/2/1 2/3/1
f 3/2/1 4/4/1 2/3/1
f 5/2/2 7/5/2 6/4/2
f 7/5/2 8/6/2 6/4/2
f 9/7/3 11/8/3 10/9/3
f 11/8/3 12/5/3 10/9/3
f 13/10/4 15/11/4 14/8/4
f 15/11/4 16/7/4 14/8/4
f 17/12/5 19/13/5 18/14/5
f 19/13/5 20/15/5 18/14/5
f 21/16/6 23/17/6 22/18/6
f 23/17/6 24/19/6 22/18/6
