# Blender 4.2.2 LTS
# www.blender.org
mtllib lev.vog25.mtl
o bulletModel
v -1.406917 0.769231 0.769231
v 1.285390 0.769231 0.769231
v -1.406917 -0.769230 0.769231
v 1.285390 -0.769230 0.769231
v 1.285390 0.769231 -0.769231
v -1.406917 0.769231 -0.769231
v 1.285390 -0.769230 -0.769231
v -1.406917 -0.769230 -0.769231
v 1.285390 0.769231 -0.769231
v 1.285390 0.769231 0.769231
v -1.406917 0.769231 -0.769231
v -1.406917 0.769231 0.769231
v -1.406917 -0.769230 -0.769231
v -1.406917 -0.769230 0.769231
v 1.285390 -0.769230 -0.769231
v 1.285390 -0.769230 0.769231
v -1.406917 0.769231 -0.769231
v -1.406917 0.769231 0.769231
v -1.406917 -0.769230 -0.769231
v -1.406917 -0.769230 0.769231
v 1.285390 0.769231 0.769231
v 1.285390 0.769231 -0.769231
v 1.285390 -0.769230 0.769231
v 1.285390 -0.769230 -0.769231
v 1.285390 0.576923 0.576923
v 1.670006 0.576923 0.576923
v 1.285390 -0.576923 0.576923
v 1.670006 -0.576923 0.576923
v 1.670006 0.576923 -0.576923
v 1.285390 0.576923 -0.576923
v 1.670006 -0.576923 -0.576923
v 1.285390 -0.576923 -0.576923
v 1.670006 0.576923 -0.576923
v 1.670006 0.576923 0.576923
v 1.285390 0.576923 -0.576923
v 1.285390 0.576923 0.576923
v 1.285390 -0.576923 -0.576923
v 1.285390 -0.576923 0.576923
v 1.670006 -0.576923 -0.576923
v 1.670006 -0.576923 0.576923
v 1.285390 0.576923 -0.576923
v 1.285390 0.576923 0.576923
v 1.285390 -0.576923 -0.576923
v 1.285390 -0.576923 0.576923
v 1.670006 0.576923 0.576923
v 1.670006 0.576923 -0.576923
v 1.670006 -0.576923 0.576923
v 1.670006 -0.576923 -0.576923
v -2.176148 0.000000 0.543928
v -1.406917 0.000000 0.543928
v -2.176148 -0.543928 -0.000000
v -1.406917 -0.543928 -0.000000
v -1.406917 0.543929 0.000000
v -2.176148 0.543929 0.000000
v -1.406917 0.000000 -0.543928
v -2.176148 0.000000 -0.543928
v -1.406917 0.543929 0.000000
v -1.406917 0.000000 0.543928
v -2.176148 0.543929 0.000000
v -2.176148 0.000000 0.543928
v -2.176148 0.000000 -0.543928
v -2.176148 -0.543928 -0.000000
v -1.406917 0.000000 -0.543928
v -1.406917 -0.543928 -0.000000
v -2.176148 0.543929 0.000000
v -2.176148 0.000000 0.543928
v -2.176148 0.000000 -0.543928
v -2.176148 -0.543928 -0.000000
v -1.406917 0.000000 0.543928
v -1.406917 0.543929 0.000000
v -1.406917 -0.543928 -0.000000
v -1.406917 0.000000 -0.543928
vn -0.0000 -0.0000 1.0000
vn -0.0000 -0.0000 -1.0000
vn -0.0000 1.0000 -0.0000
vn -0.0000 -1.0000 -0.0000
vn -1.0000 -0.0000 -0.0000
vn 1.0000 -0.0000 -0.0000
vn -0.0000 -0.7071 0.7071
vn -0.0000 0.7071 -0.7071
vn -0.0000 0.7071 0.7071
vn -0.0000 -0.7071 -0.7071
vt 0.343750 0.750000
vt 0.343750 0.687500
vt 0.453125 0.750000
vt 0.453125 0.687500
vt 0.343750 0.625000
vt 0.453125 0.625000
vt 0.406250 0.515625
vt 0.406250 0.625000
vt 0.343750 0.515625
vt 0.125000 0.593750
vt 0.125000 0.484375
vt 0.062500 0.593750
vt 0.062500 0.484375
vt 0.562500 0.781250
vt 0.562500 0.718750
vt 0.625000 0.781250
vt 0.625000 0.718750
vt 0.562500 0.843750
vt 0.625000 0.843750
vt 0.468750 0.281250
vt 0.468750 0.234375
vt 0.484375 0.281250
vt 0.484375 0.234375
vt 0.718750 0.343750
vt 0.718750 0.296875
vt 0.734375 0.343750
vt 0.734375 0.296875
vt 0.734375 0.265625
vt 0.734375 0.281250
vt 0.687500 0.265625
vt 0.687500 0.281250
vt 0.796875 1.000000
vt 0.796875 0.984375
vt 0.750000 1.000000
vt 0.750000 0.984375
vt 0.625000 0.937500
vt 0.625000 0.890625
vt 0.671875 0.937500
vt 0.671875 0.890625
vt 0.062500 0.375000
vt 0.062500 0.328125
vt 0.109375 0.375000
vt 0.109375 0.328125
vt 0.687500 0.687500
vt 0.687500 0.656250
vt 0.718750 0.687500
vt 0.718750 0.656250
vt 0.687500 0.625000
vt 0.687500 0.593750
vt 0.718750 0.625000
vt 0.718750 0.593750
vt 0.437500 0.281250
vt 0.437500 0.312500
vt 0.406250 0.281250
vt 0.406250 0.312500
vt 0.718750 0.562500
vt 0.687500 0.562500
vt 0.687500 0.718750
vt 0.718750 0.718750
s 0
usemtl Material_0
f 1/1/1 3/2/1 2/3/1
f 3/2/1 4/4/1 2/3/1
f 5/2/2 7/5/2 6/4/2
f 7/5/2 8/6/2 6/4/2
f 9/7/3 11/8/3 10/9/3
f 11/8/3 12/5/3 10/9/3
f 13/10/4 15/11/4 14/12/4
f 15/11/4 16/13/4 14/12/4
f 17/14/5 19/15/5 18/16/5
f 19/15/5 20/17/5 18/16/5
f 21/18/6 23/14/6 22/19/6
f 23/14/6 24/16/6 22/19/6
f 25/20/1 27/21/1 26/22/1
f 27/21/1 28/23/1 26/22/1
f 29/24/2 31/25/2 30/26/2
f 31/25/2 32/27/2 30/26/2
f 33/28/3 35/29/3 34/30/3
f 35/29/3 36/31/3 34/30/3
f 37/32/4 39/33/4 38/34/4
f 39/33/4 40/35/4 38/34/4
f 41/36/5 43/37/5 42/38/5
f 43/37/5 44/39/5 42/38/5
f 45/40/6 47/41/6 46/42/6
f 47/41/6 48/43/6 46/42/6
f 49/44/7 51/45/7 50/46/7
f 51/45/7 52/47/7 50/46/7
f 53/48/8 55/49/8 54/50/8
f 55/49/8 56/51/8 54/50/8
f 57/52/9 59/53/9 58/54/9
f 59/53/9 60/55/9 58/54/9
f 61/51/10 63/56/10 62/49/10
f 63/56/10 64/57/10 62/49/10
f 65/45/5 67/48/5 66/47/5
f 67/48/5 68/50/5 66/47/5
f 69/58/6 71/44/6 70/59/6
f 71/44/6 72/46/6 70/59/6
