# Blender 4.4.3
# www.blender.org
mtllib lev.pg7vl.mtl
o bulletModel
v 0.000000 1.903205 1.904293
v 4.615386 1.903205 1.904293
v -0.000000 -1.904293 -1.903205
v 4.615385 -1.904293 -1.903206
v 4.615386 1.903749 1.903749
v 0.000000 1.903749 1.903749
v 4.615385 -1.903749 -1.903750
v -0.000000 -1.903749 -1.903749
v 4.615386 1.903749 1.903749
v 4.615386 1.903205 1.904293
v 0.000000 1.903749 1.903749
v 0.000000 1.903205 1.904293
v -0.000000 -1.903749 -1.903749
v -0.000000 -1.904293 -1.903205
v 4.615385 -1.903749 -1.903750
v 4.615385 -1.904293 -1.903206
v 0.000000 1.903749 1.903749
v 0.000000 1.903205 1.904293
v -0.000000 -1.903749 -1.903749
v -0.000000 -1.904293 -1.903205
v 4.615386 1.903205 1.904293
v 4.615386 1.903749 1.903749
v 4.615385 -1.904293 -1.903206
v 4.615385 -1.903749 -1.903750
v 8.461539 0.576923 0.576922
v 10.000001 0.576923 0.576922
v 8.461539 -0.576923 0.576923
v 10.000001 -0.576923 0.576922
v 10.000001 0.576923 -0.576924
v 8.461539 0.576923 -0.576924
v 10.000001 -0.576923 -0.576924
v 8.461539 -0.576923 -0.576924
v 10.000001 0.576923 -0.576924
v 10.000001 0.576923 0.576922
v 8.461539 0.576923 -0.576924
v 8.461539 0.576923 0.576922
v 8.461539 -0.576923 -0.576924
v 8.461539 -0.576923 0.576923
v 10.000001 -0.576923 -0.576924
v 10.000001 -0.576923 0.576922
v 8.461539 0.576923 -0.576924
v 8.461539 0.576923 0.576922
v 8.461539 -0.576923 -0.576924
v 8.461539 -0.576923 0.576923
v 10.000001 0.576923 0.576922
v 10.000001 0.576923 -0.576924
v 10.000001 -0.576923 0.576922
v 10.000001 -0.576923 -0.576924
v 10.000001 0.000000 1.087856
v 13.076925 0.000000 1.087856
v 10.000001 -1.087856 -0.000001
v 13.076925 -1.087856 -0.000001
v 13.076925 1.087857 -0.000001
v 10.000001 1.087857 -0.000001
v 13.076925 0.000000 -1.087858
v 10.000001 0.000000 -1.087857
v 13.076925 1.087857 -0.000001
v 13.076925 0.000000 1.087856
v 10.000001 1.087857 -0.000001
v 10.000001 0.000000 1.087856
v 10.000001 0.000000 -1.087857
v 10.000001 -1.087856 -0.000001
v 13.076925 0.000000 -1.087858
v 13.076925 -1.087856 -0.000001
v 10.000001 1.087857 -0.000001
v 10.000001 0.000000 1.087856
v 10.000001 0.000000 -1.087857
v 10.000001 -1.087856 -0.000001
v 13.076925 0.000000 1.087856
v 13.076925 1.087857 -0.000001
v 13.076925 -1.087856 -0.000001
v 13.076925 0.000000 -1.087858
v 13.076925 0.576923 0.576922
v 14.615387 0.576924 0.576922
v 13.076925 -0.576923 0.576922
v 14.615387 -0.576923 0.576922
v 14.615387 0.576923 -0.576924
v 13.076925 0.576923 -0.576924
v 14.615387 -0.576923 -0.576924
v 13.076925 -0.576923 -0.576924
v 14.615387 0.576923 -0.576924
v 14.615387 0.576924 0.576922
v 13.076925 0.576923 -0.576924
v 13.076925 0.576923 0.576922
v 13.076925 -0.576923 -0.576924
v 13.076925 -0.576923 0.576922
v 14.615387 -0.576923 -0.576924
v 14.615387 -0.576923 0.576922
v 13.076925 0.576923 -0.576924
v 13.076925 0.576923 0.576922
v 13.076925 -0.576923 -0.576924
v 13.076925 -0.576923 0.576922
v 14.615387 0.576924 0.576922
v 14.615387 0.576923 -0.576924
v 14.615387 -0.576923 0.576922
v 14.615387 -0.576923 -0.576924
v 4.615385 0.543929 -0.000001
v 16.153849 0.543929 -0.000001
v 4.615385 0.000000 0.543928
v 16.153849 0.000001 0.543927
v 16.153849 0.000000 -0.543930
v 4.615385 0.000000 -0.543929
v 16.153849 -0.543928 -0.000001
v 4.615385 -0.543928 -0.000000
v 16.153849 0.000000 -0.543930
v 16.153849 0.543929 -0.000001
v 4.615385 0.000000 -0.543929
v 4.615385 0.543929 -0.000001
v 4.615385 -0.543928 -0.000000
v 4.615385 0.000000 0.543928
v 16.153849 -0.543928 -0.000001
v 16.153849 0.000001 0.543927
v 4.615385 0.000000 -0.543929
v 4.615385 0.543929 -0.000001
v 4.615385 -0.543928 -0.000000
v 4.615385 0.000000 0.543928
v 16.153849 0.543929 -0.000001
v 16.153849 0.000000 -0.543930
v 16.153849 0.000001 0.543927
v 16.153849 -0.543928 -0.000001
v -0.000000 1.904293 -1.903206
v 4.615385 1.904293 -1.903206
v 0.000000 -1.903205 1.904294
v 4.615385 -1.903205 1.904293
v 4.615385 1.903749 -1.903750
v -0.000000 1.903749 -1.903750
v 4.615385 -1.903749 1.903749
v 0.000000 -1.903749 1.903750
v 4.615385 1.903749 -1.903750
v 4.615385 1.904293 -1.903206
v -0.000000 1.903749 -1.903750
v -0.000000 1.904293 -1.903206
v 0.000000 -1.903749 1.903750
v 0.000000 -1.903205 1.904294
v 4.615385 -1.903749 1.903749
v 4.615385 -1.903205 1.904293
v -0.000000 1.903749 -1.903750
v -0.000000 1.904293 -1.903206
v 0.000000 -1.903749 1.903750
v 0.000000 -1.903205 1.904294
v 4.615385 1.904293 -1.903206
v 4.615385 1.903749 -1.903750
v 4.615385 -1.903205 1.904293
v 4.615385 -1.903749 1.903749
vn -0.0000 -0.7071 0.7071
vn -0.0000 0.7071 -0.7071
vn -0.0000 0.7071 0.7071
vn -0.0000 -0.7071 -0.7071
vn -1.0000 -0.0000 -0.0000
vn 1.0000 -0.0000 -0.0000
vn -0.0000 -0.0000 1.0000
vn -0.0000 -0.0000 -1.0000
vn -0.0000 1.0000 -0.0000
vn -0.0000 -1.0000 -0.0000
vt 0.375000 0.781250
vt 0.375000 1.000000
vt 0.187500 0.781250
vt 0.187500 1.000000
vt 0.000000 0.812500
vt 0.000000 1.000000
vt 0.000000 0.781250
vt 0.250000 0.656250
vt 0.250000 0.609375
vt 0.312500 0.656250
vt 0.312500 0.609375
vt 0.375000 0.953125
vt 0.437500 1.000000
vt 0.437500 0.953125
vt 0.421875 0.875000
vt 0.421875 0.937500
vt 0.375000 0.875000
vt 0.375000 0.937500
vt 0.421875 0.812500
vt 0.375000 0.812500
vt 0.312500 0.593750
vt 0.312500 0.546875
vt 0.359375 0.593750
vt 0.359375 0.546875
vt 0.250000 0.593750
vt 0.250000 0.546875
vt 0.296875 0.593750
vt 0.296875 0.546875
vt 0.062500 0.718750
vt 0.062500 0.656250
vt 0.187500 0.718750
vt 0.187500 0.656250
vt 0.312500 0.718750
vt 0.375000 0.593750
vt 0.375000 0.718750
vt 0.125000 0.656250
vt 0.125000 0.531250
vt 0.062500 0.531250
vt 0.187500 0.593750
vt 0.125000 0.593750
vt 0.375000 0.671875
vt 0.437500 0.718750
vt 0.437500 0.671875
vt 0.375000 0.656250
vt 0.375000 0.609375
vt 0.437500 0.656250
vt 0.437500 0.609375
vt 0.171875 0.531250
vt 0.171875 0.593750
vt 0.234375 0.593750
vt 0.234375 0.531250
vt 0.187500 0.531250
vt 0.484375 1.000000
vt 0.484375 0.953125
vt 0.375000 0.546875
vt 0.421875 0.593750
vt 0.421875 0.546875
vt 0.000000 0.750000
vt 0.468750 0.781250
vt 0.468750 0.750000
vt 0.000000 0.718750
vt 0.468750 0.718750
vt 0.031250 0.250000
vt 0.031250 0.718750
vt 0.000000 0.250000
vt 0.062500 0.250000
vt 0.406250 0.812500
vt 0.406250 0.781250
vt 0.437500 0.812500
vt 0.437500 0.781250
s 0
usemtl Material_0.001
f 1/1/1 3/2/1 2/3/1
f 3/2/1 4/4/1 2/3/1
f 5/4/2 7/3/2 6/2/2
f 7/3/2 8/1/2 6/2/2
f 9/5/3 11/6/3 10/5/3
f 11/6/3 12/6/3 10/5/3
f 13/6/4 15/5/4 14/6/4
f 15/5/4 16/5/4 14/6/4
f 17/6/5 19/7/5 18/6/5
f 19/7/5 20/7/5 18/6/5
f 21/6/6 23/7/6 22/6/6
f 23/7/6 24/7/6 22/6/6
f 25/8/7 27/9/7 26/10/7
f 27/9/7 28/11/7 26/10/7
f 29/2/8 31/12/8 30/13/8
f 31/12/8 32/14/8 30/13/8
f 33/15/9 35/16/9 34/17/9
f 35/16/9 36/18/9 34/17/9
f 37/15/10 39/19/10 38/17/10
f 39/19/10 40/20/10 38/17/10
f 41/21/5 43/22/5 42/23/5
f 43/22/5 44/24/5 42/23/5
f 45/25/6 47/26/6 46/27/6
f 47/26/6 48/28/6 46/27/6
f 49/29/1 51/30/1 50/31/1
f 51/30/1 52/32/1 50/31/1
f 53/31/2 55/32/2 54/33/2
f 55/32/2 56/10/2 54/33/2
f 57/34/3 59/35/3 58/21/3
f 59/35/3 60/33/3 58/21/3
f 61/36/4 63/37/4 62/30/4
f 63/37/4 64/38/4 62/30/4
f 65/32/5 67/39/5 66/8/5
f 67/39/5 68/25/5 66/8/5
f 69/36/6 71/40/6 70/32/6
f 71/40/6 72/39/6 70/32/6
f 73/35/7 75/41/7 74/42/7
f 75/41/7 76/43/7 74/42/7
f 77/44/8 79/45/8 78/46/8
f 79/45/8 80/47/8 78/46/8
f 81/48/9 83/49/9 82/37/9
f 83/49/9 84/40/9 82/37/9
f 85/50/10 87/51/10 86/39/10
f 87/51/10 88/52/10 86/39/10
f 89/13/5 91/14/5 90/53/5
f 91/14/5 92/54/5 90/53/5
f 93/34/6 95/55/6 94/56/6
f 95/55/6 96/57/6 94/56/6
f 97/7/3 99/58/3 98/59/3
f 99/58/3 100/60/3 98/59/3
f 101/58/4 103/61/4 102/60/4
f 103/61/4 104/62/4 102/60/4
f 105/63/2 107/64/2 106/65/2
f 107/64/2 108/61/2 106/65/2
f 109/29/1 111/66/1 110/64/1
f 111/66/1 112/63/1 110/64/1
f 113/67/5 115/68/5 114/69/5
f 115/68/5 116/70/5 114/69/5
f 117/20/6 119/1/6 118/67/6
f 119/1/6 120/68/6 118/67/6
f 121/1/3 123/2/3 122/3/3
f 123/2/3 124/4/3 122/3/3
f 125/4/4 127/3/4 126/2/4
f 127/3/4 128/1/4 126/2/4
f 129/5/2 131/6/2 130/5/2
f 131/6/2 132/6/2 130/5/2
f 133/6/1 135/5/1 134/6/1
f 135/5/1 136/5/1 134/6/1
f 137/6/5 139/7/5 138/6/5
f 139/7/5 140/7/5 138/6/5
f 141/6/6 143/7/6 142/6/6
f 143/7/6 144/7/6 142/6/6
