# Blender 5.0.0
# www.blender.org
mtllib lev.signal_red.mtl
o bulletModel
v -3.830769 1.538462 1.538462
v 5.746153 1.538462 1.538461
v -3.830769 -1.538462 1.538462
v 5.746153 -1.538462 1.538461
v 5.746153 1.538462 -1.538462
v -3.830769 1.538462 -1.538461
v 5.746153 -1.538462 -1.538462
v -3.830769 -1.538462 -1.538461
v 5.746153 1.538462 -1.538462
v 5.746153 1.538462 1.538461
v -3.830769 1.538462 -1.538461
v -3.830769 1.538462 1.538462
v -3.830769 -1.538462 -1.538461
v -3.830769 -1.538462 1.538462
v 5.746153 -1.538462 -1.538462
v 5.746153 -1.538462 1.538461
v -3.830769 1.538462 -1.538461
v -3.830769 1.538462 1.538462
v -3.830769 -1.538462 -1.538461
v -3.830769 -1.538462 1.538462
v 5.746153 1.538462 1.538461
v 5.746153 1.538462 -1.538462
v 5.746153 -1.538462 1.538461
v 5.746153 -1.538462 -1.538462
v 6.703846 -2.307692 -2.307692
v -8.619230 -2.307692 -2.307692
v 6.703846 2.307692 -2.307692
v -8.619230 2.307692 -2.307692
v -8.619230 -2.307692 2.307692
v 6.703846 -2.307692 2.307692
v -8.619230 2.307692 2.307692
v 6.703846 2.307692 2.307692
v -8.619230 -2.307692 2.307692
v -8.619230 -2.307692 -2.307692
v 6.703846 -2.307692 2.307692
v 6.703846 -2.307692 -2.307692
v 6.703846 2.307692 2.307692
v 6.703846 2.307692 -2.307692
v -8.619230 2.307692 2.307692
v -8.619230 2.307692 -2.307692
v 6.703846 -2.307692 2.307692
v 6.703846 -2.307692 -2.307692
v 6.703846 2.307692 2.307692
v 6.703846 2.307692 -2.307692
v -8.619230 -2.307692 -2.307692
v -8.619230 -2.307692 2.307692
v -8.619230 2.307692 -2.307692
v -8.619230 2.307692 2.307692
vn -0.0000 -0.0000 1.0000
vn -0.0000 -0.0000 -1.0000
vn -0.0000 1.0000 -0.0000
vn -0.0000 -1.0000 -0.0000
vn -1.0000 -0.0000 -0.0000
vn 1.0000 -0.0000 -0.0000
vt 0.375000 0.625000
vt 0.375000 0.500000
vt 0.687500 0.625000
vt 0.687500 0.500000
vt 0.500000 1.000000
vt 0.500000 0.875000
vt 0.812500 1.000000
vt 0.812500 0.875000
vt 0.500000 0.187500
vt 0.500000 0.500000
vt 0.375000 0.187500
vt 0.625000 0.500000
vt 0.625000 0.187500
vt 0.687500 0.750000
vt 0.812500 0.750000
vt 0.812500 0.625000
vt 0.687500 0.875000
vt 0.000000 1.000000
vt 0.000000 0.812500
vt 0.500000 0.812500
vt 0.000000 0.625000
vt 0.500000 0.625000
vt 0.187500 0.125000
vt 0.187500 0.625000
vt 0.000000 0.125000
vt 0.375000 0.125000
vt 0.625000 0.312500
vt 0.812500 0.500000
vt 0.812500 0.312500
vt 0.500000 0.687500
vt 0.687500 0.687500
s 0
usemtl Material_0.003
f 1/1/1 3/2/1 2/3/1
f 3/2/1 4/4/1 2/3/1
f 5/5/2 7/6/2 6/7/2
f 7/6/2 8/8/2 6/7/2
f 9/9/3 11/10/3 10/11/3
f 11/10/3 12/2/3 10/11/3
f 13/12/4 15/13/4 14/10/4
f 15/13/4 16/9/4 14/10/4
f 17/14/5 19/3/5 18/15/5
f 19/3/5 20/16/5 18/15/5
f 21/17/6 23/14/6 22/8/6
f 23/14/6 24/15/6 22/8/6
f 25/18/1 27/19/1 26/5/1
f 27/19/1 28/20/1 26/5/1
f 29/19/2 31/21/2 30/20/2
f 31/21/2 32/22/2 30/20/2
f 33/23/3 35/24/3 34/25/3
f 35/24/3 36/21/3 34/25/3
f 37/1/4 39/26/4 38/24/4
f 39/26/4 40/23/4 38/24/4
f 41/12/5 43/27/5 42/28/5
f 43/27/5 44/29/5 42/28/5
f 45/6/6 47/30/6 46/17/6
f 47/30/6 48/31/6 46/17/6
