# Blender 5.1.2
# www.blender.org
mtllib lev.modulscorpion_backpack.mtl
o backpackModel
v 4.285714 -0.238095 -2.380952
v 4.285714 -0.238096 2.380952
v 4.285714 6.904762 -2.380951
v 4.285714 6.904761 2.380953
v -4.285714 -0.238096 2.380952
v -4.285714 -0.238095 -2.380952
v -4.285714 6.904761 2.380953
v -4.285714 6.904762 -2.380951
v -4.285714 -0.238096 2.380952
v 4.285714 -0.238096 2.380952
v -4.285714 -0.238095 -2.380952
v 4.285714 -0.238095 -2.380952
v -4.285714 6.904762 -2.380951
v 4.285714 6.904762 -2.380951
v -4.285714 6.904761 2.380953
v 4.285714 6.904761 2.380953
v -4.285714 -0.238095 -2.380952
v 4.285714 -0.238095 -2.380952
v -4.285714 6.904762 -2.380951
v 4.285714 6.904762 -2.380951
v 4.285714 -0.238096 2.380952
v -4.285714 -0.238096 2.380952
v 4.285714 6.904761 2.380953
v -4.285714 6.904761 2.380953
v -4.276190 6.895237 2.371429
v -4.276190 6.895238 -2.371428
v -4.276190 -0.228572 2.371428
v -4.276190 -0.228571 -2.371428
v 4.276190 6.895238 -2.371428
v 4.276190 6.895237 2.371429
v 4.276190 -0.228571 -2.371428
v 4.276190 -0.228572 2.371428
v 4.276190 6.895238 -2.371428
v -4.276190 6.895238 -2.371428
v 4.276190 6.895237 2.371429
v -4.276190 6.895237 2.371429
v 4.276190 -0.228572 2.371428
v -4.276190 -0.228572 2.371428
v 4.276190 -0.228571 -2.371428
v -4.276190 -0.228571 -2.371428
v 4.276190 6.895237 2.371429
v -4.276190 6.895237 2.371429
v 4.276190 -0.228572 2.371428
v -4.276190 -0.228572 2.371428
v -4.276190 6.895238 -2.371428
v 4.276190 6.895238 -2.371428
v -4.276190 -0.228571 -2.371428
v 4.276190 -0.228571 -2.371428
v 3.809524 -1.428570 -6.904762
v 3.809524 -1.428571 -2.142857
v 3.809524 11.904763 -6.904760
v 3.809524 11.904762 -2.142855
v -3.809524 -1.428571 -2.142857
v -3.809524 -1.428570 -6.904762
v -3.809524 11.904762 -2.142855
v -3.809524 11.904763 -6.904760
v -3.809524 -1.428571 -2.142857
v 3.809524 -1.428571 -2.142857
v -3.809524 -1.428570 -6.904762
v 3.809524 -1.428570 -6.904762
v -3.809524 11.904763 -6.904760
v 3.809524 11.904763 -6.904760
v -3.809524 11.904762 -2.142855
v 3.809524 11.904762 -2.142855
v -3.809524 -1.428570 -6.904762
v 3.809524 -1.428570 -6.904762
v -3.809524 11.904763 -6.904760
v 3.809524 11.904763 -6.904760
v 3.809524 -1.428571 -2.142857
v -3.809524 -1.428571 -2.142857
v 3.809524 11.904762 -2.142855
v -3.809524 11.904762 -2.142855
v 3.904762 -1.523808 -7.000000
v 3.904762 -1.523809 -2.047619
v 3.904762 12.000001 -6.999998
v 3.904762 12.000000 -2.047617
v -3.904762 -1.523809 -2.047619
v -3.904762 -1.523808 -7.000000
v -3.904762 12.000000 -2.047617
v -3.904762 12.000001 -6.999998
v -3.904762 -1.523809 -2.047619
v 3.904762 -1.523809 -2.047619
v -3.904762 -1.523808 -7.000000
v 3.904762 -1.523808 -7.000000
v -3.904762 12.000001 -6.999998
v 3.904762 12.000001 -6.999998
v -3.904762 12.000000 -2.047617
v 3.904762 12.000000 -2.047617
v -3.904762 -1.523808 -7.000000
v 3.904762 -1.523808 -7.000000
v -3.904762 12.000001 -6.999998
v 3.904762 12.000001 -6.999998
v 3.904762 -1.523809 -2.047619
v -3.904762 -1.523809 -2.047619
v 3.904762 12.000000 -2.047617
v -3.904762 12.000000 -2.047617
v -3.895238 11.990477 -2.057141
v -3.895238 11.990478 -6.990474
v -3.895238 -1.514285 -2.057143
v -3.895238 -1.514285 -6.990476
v 3.895238 11.990478 -6.990474
v 3.895238 11.990477 -2.057141
v 3.895238 -1.514285 -6.990476
v 3.895238 -1.514285 -2.057143
v 3.895238 11.990478 -6.990474
v -3.895238 11.990478 -6.990474
v 3.895238 11.990477 -2.057141
v -3.895238 11.990477 -2.057141
v 3.895238 -1.514285 -2.057143
v -3.895238 -1.514285 -2.057143
v 3.895238 -1.514285 -6.990476
v -3.895238 -1.514285 -6.990476
v 3.895238 11.990477 -2.057141
v -3.895238 11.990477 -2.057141
v 3.895238 -1.514285 -2.057143
v -3.895238 -1.514285 -2.057143
v -3.895238 11.990478 -6.990474
v 3.895238 11.990478 -6.990474
v -3.895238 -1.514285 -6.990476
v 3.895238 -1.514285 -6.990476
v 2.857143 -2.857142 -5.952382
v 2.857143 -2.857142 -3.095239
v 2.857143 -0.952380 -5.952381
v 2.857143 -0.952380 -3.095238
v -2.857143 -2.857142 -3.095239
v -2.857143 -2.857142 -5.952382
v -2.857143 -0.952380 -3.095238
v -2.857143 -0.952380 -5.952381
v -2.857143 -2.857142 -3.095239
v 2.857143 -2.857142 -3.095239
v -2.857143 -2.857142 -5.952382
v 2.857143 -2.857142 -5.952382
v -2.857143 -0.952380 -5.952381
v 2.857143 -0.952380 -5.952381
v -2.857143 -0.952380 -3.095238
v 2.857143 -0.952380 -3.095238
v -2.857143 -2.857142 -5.952382
v 2.857143 -2.857142 -5.952382
v -2.857143 -0.952380 -5.952381
v 2.857143 -0.952380 -5.952381
v 2.857143 -2.857142 -3.095239
v -2.857143 -2.857142 -3.095239
v 2.857143 -0.952380 -3.095238
v -2.857143 -0.952380 -3.095238
v 4.285714 8.571428 -2.142856
v 4.285714 8.571428 2.619049
v 4.285714 12.380953 -2.142855
v 4.285714 12.380953 2.619050
v 3.333333 8.571428 2.619049
v 3.333333 8.571428 -2.142856
v 3.333333 12.380953 2.619050
v 3.333333 12.380953 -2.142855
v 3.333333 8.571428 2.619049
v 4.285714 8.571428 2.619049
v 3.333333 8.571428 -2.142856
v 4.285714 8.571428 -2.142856
v 3.333333 12.380953 -2.142855
v 4.285714 12.380953 -2.142855
v 3.333333 12.380953 2.619050
v 4.285714 12.380953 2.619050
v 3.333333 8.571428 -2.142856
v 4.285714 8.571428 -2.142856
v 3.333333 12.380953 -2.142855
v 4.285714 12.380953 -2.142855
v 4.285714 8.571428 2.619049
v 3.333333 8.571428 2.619049
v 4.285714 12.380953 2.619050
v 3.333333 12.380953 2.619050
v -3.333333 8.571428 -2.142856
v -3.333333 8.571428 2.619049
v -3.333333 12.380953 -2.142855
v -3.333333 12.380953 2.619050
v -4.285714 8.571428 2.619049
v -4.285714 8.571428 -2.142856
v -4.285714 12.380953 2.619050
v -4.285714 12.380953 -2.142855
v -4.285714 8.571428 2.619049
v -3.333333 8.571428 2.619049
v -4.285714 8.571428 -2.142856
v -3.333333 8.571428 -2.142856
v -4.285714 12.380953 -2.142855
v -3.333333 12.380953 -2.142855
v -4.285714 12.380953 2.619050
v -3.333333 12.380953 2.619050
v -4.285714 8.571428 -2.142856
v -3.333333 8.571428 -2.142856
v -4.285714 12.380953 -2.142855
v -3.333333 12.380953 -2.142855
v -3.333333 8.571428 2.619049
v -4.285714 8.571428 2.619049
v -3.333333 12.380953 2.619050
v -4.285714 12.380953 2.619050
v 3.333333 8.571428 2.618097
v 3.333333 8.571428 2.619049
v 3.333333 12.380953 2.618097
v 3.333333 12.380953 2.619050
v -3.333333 8.571428 2.619049
v -3.333333 8.571428 2.618097
v -3.333333 12.380953 2.619050
v -3.333333 12.380953 2.618097
v -3.333333 8.571428 2.619049
v 3.333333 8.571428 2.619049
v -3.333333 8.571428 2.618097
v 3.333333 8.571428 2.618097
v -3.333333 12.380953 2.618097
v 3.333333 12.380953 2.618097
v -3.333333 12.380953 2.619050
v 3.333333 12.380953 2.619050
v -3.333333 8.571428 2.618097
v 3.333333 8.571428 2.618097
v -3.333333 12.380953 2.618097
v 3.333333 12.380953 2.618097
v 3.333333 8.571428 2.619049
v -3.333333 8.571428 2.619049
v 3.333333 12.380953 2.619050
v -3.333333 12.380953 2.619050
vn 1.0000 -0.0000 -0.0000
vn -1.0000 -0.0000 -0.0000
vn -0.0000 -1.0000 -0.0000
vn -0.0000 1.0000 -0.0000
vn -0.0000 -0.0000 -1.0000
vn -0.0000 -0.0000 1.0000
vt 0.140625 0.562500
vt 0.140625 0.437500
vt 0.218750 0.562500
vt 0.218750 0.437500
vt 0.468750 1.000000
vt 0.468750 0.875000
vt 0.546875 1.000000
vt 0.546875 0.875000
vt 0.140625 0.484375
vt 0.000000 0.484375
vt 0.000000 0.562500
vt 0.546875 0.562500
vt 0.546875 0.484375
vt 0.406250 0.562500
vt 0.406250 0.484375
vt 0.250000 0.875000
vt 0.250000 0.750000
vt 0.390625 0.875000
vt 0.390625 0.750000
vt 0.250000 1.000000
vt 0.390625 1.000000
vt 0.250000 0.531250
vt 0.328125 0.750000
vt 0.328125 0.531250
vt 0.406250 0.750000
vt 0.406250 0.531250
vt 0.593750 0.796875
vt 0.593750 0.875000
vt 0.468750 0.796875
vt 0.343750 0.531250
vt 0.343750 0.453125
vt 0.218750 0.531250
vt 0.218750 0.453125
vt 0.125000 1.000000
vt 0.125000 0.781250
vt 0.250000 0.781250
vt 0.000000 1.000000
vt 0.000000 0.781250
vt 0.390625 0.781250
vt 0.468750 0.781250
vt 0.406250 0.781250
vt 0.484375 0.781250
vt 0.484375 0.562500
vt 0.609375 0.718750
vt 0.609375 0.796875
vt 0.484375 0.718750
vt 0.484375 0.796875
vt 0.609375 0.640625
vt 0.484375 0.640625
vt 0.125000 0.562500
vt 0.250000 0.562500
vt 0.343750 0.500000
vt 0.390625 0.531250
vt 0.390625 0.500000
vt 0.546875 0.515625
vt 0.593750 0.515625
vt 0.593750 0.484375
vt 0.640625 0.890625
vt 0.640625 0.937500
vt 0.546875 0.890625
vt 0.546875 0.937500
vt 0.312500 0.453125
vt 0.312500 0.406250
vt 0.218750 0.406250
vt 0.546875 0.546875
vt 0.640625 0.546875
vt 0.640625 0.515625
vt 0.546875 0.578125
vt 0.640625 0.578125
vt 0.343750 0.484375
vt 0.343750 0.421875
vt 0.421875 0.484375
vt 0.421875 0.421875
vt 0.500000 0.484375
vt 0.500000 0.421875
vt 0.125000 0.406250
vt 0.125000 0.484375
vt 0.109375 0.406250
vt 0.109375 0.484375
vt 0.140625 0.406250
vt 0.156250 0.437500
vt 0.156250 0.375000
vt 0.171875 0.437500
vt 0.171875 0.375000
vt 0.140625 0.375000
vt 0.578125 0.484375
vt 0.578125 0.421875
vt 0.625000 1.000000
vt 0.625000 0.937500
vt 0.328125 0.375000
vt 0.328125 0.453125
vt 0.312500 0.375000
vt 0.343750 0.375000
vt 0.187500 0.437500
vt 0.187500 0.375000
vt 0.203125 0.437500
vt 0.203125 0.375000
vt 0.000000 0.937500
vt 0.109375 1.000000
vt 0.000000 0.421875
vt 0.109375 0.421875
vt 0.484375 0.578125
vt 0.593750 0.640625
vt 0.593750 0.578125
s 0
usemtl Material_0
f 1/1/1 3/2/1 2/3/1
f 3/2/1 4/4/1 2/3/1
f 5/5/2 7/6/2 6/7/2
f 7/6/2 8/8/2 6/7/2
f 9/9/3 11/1/3 10/10/3
f 11/1/3 12/11/3 10/10/3
f 13/12/4 15/13/4 14/14/4
f 15/13/4 16/15/4 14/14/4
f 17/16/5 19/17/5 18/18/5
f 19/17/5 20/19/5 18/18/5
f 21/20/6 23/16/6 22/21/6
f 23/16/6 24/18/6 22/21/6
f 25/6/1 27/5/1 26/8/1
f 27/5/1 28/7/1 26/8/1
f 29/2/2 31/1/2 30/4/2
f 31/1/2 32/3/2 30/4/2
f 33/14/3 35/15/3 34/12/3
f 35/15/3 36/13/3 34/12/3
f 37/10/4 39/11/4 38/9/4
f 39/11/4 40/1/4 38/9/4
f 41/16/5 43/20/5 42/18/5
f 43/20/5 44/21/5 42/18/5
f 45/17/6 47/16/6 46/19/6
f 47/16/6 48/18/6 46/19/6
f 49/17/1 51/22/1 50/23/1
f 51/22/1 52/24/1 50/23/1
f 53/23/2 55/24/2 54/25/2
f 55/24/2 56/26/2 54/25/2
f 57/27/3 59/28/3 58/29/3
f 59/28/3 60/6/3 58/29/3
f 61/30/4 63/31/4 62/32/4
f 63/31/4 64/33/4 62/32/4
f 65/34/5 67/35/5 66/20/5
f 67/35/5 68/36/5 66/20/5
f 69/37/6 71/38/6 70/34/6
f 71/38/6 72/35/6 70/34/6
f 73/21/1 75/39/1 74/5/1
f 75/39/1 76/40/1 74/5/1
f 77/41/2 79/14/2 78/42/2
f 79/14/2 80/43/2 78/42/2
f 81/44/3 83/45/3 82/46/3
f 83/45/3 84/47/3 82/46/3
f 85/44/4 87/48/4 86/46/4
f 87/48/4 88/49/4 86/46/4
f 89/35/5 91/50/5 90/36/5
f 91/50/5 92/51/5 90/36/5
f 93/38/6 95/11/6 94/35/6
f 95/11/6 96/50/6 94/35/6
f 97/14/1 99/41/1 98/43/1
f 99/41/1 100/42/1 98/43/1
f 101/39/2 103/21/2 102/40/2
f 103/21/2 104/5/2 102/40/2
f 105/46/3 107/49/3 106/44/3
f 107/49/3 108/48/3 106/44/3
f 109/46/4 111/47/4 110/44/4
f 111/47/4 112/45/4 110/44/4
f 113/11/5 115/38/5 114/50/5
f 115/38/5 116/35/5 114/50/5
f 117/50/6 119/35/6 118/51/6
f 119/35/6 120/36/6 118/51/6
f 121/30/1 123/52/1 122/53/1
f 123/52/1 124/54/1 122/53/1
f 125/55/2 127/13/2 126/56/2
f 127/13/2 128/57/2 126/56/2
f 129/58/3 131/59/3 130/60/3
f 131/59/3 132/61/3 130/60/3
f 133/62/4 135/63/4 134/33/4
f 135/63/4 136/64/4 134/33/4
f 137/65/5 139/55/5 138/66/5
f 139/55/5 140/67/5 138/66/5
f 141/68/6 143/65/6 142/69/6
f 143/65/6 144/66/6 142/69/6
f 145/70/1 147/71/1 146/72/1
f 147/71/1 148/73/1 146/72/1
f 149/72/2 151/73/2 150/74/2
f 151/73/2 152/75/2 150/74/2
f 153/76/3 155/77/3 154/78/3
f 155/77/3 156/79/3 154/78/3
f 157/9/4 159/80/4 158/77/4
f 159/80/4 160/76/4 158/77/4
f 161/81/5 163/82/5 162/83/5
f 163/82/5 164/84/5 162/83/5
f 165/2/6 167/85/6 166/81/6
f 167/85/6 168/82/6 166/81/6
f 169/74/1 171/75/1 170/86/1
f 171/75/1 172/87/1 170/86/1
f 173/7/2 175/61/2 174/88/2
f 175/61/2 176/89/2 174/88/2
f 177/90/3 179/91/3 178/92/3
f 179/91/3 180/62/3 178/92/3
f 181/31/4 183/93/4 182/91/4
f 183/93/4 184/90/4 182/91/4
f 185/94/5 187/95/5 186/96/5
f 187/95/5 188/97/5 186/96/5
f 189/83/6 191/84/6 190/94/6
f 191/84/6 192/95/6 190/94/6
f 193/37/1 195/98/1 194/37/1
f 195/98/1 196/98/1 194/37/1
f 197/37/2 199/98/2 198/37/2
f 199/98/2 200/98/2 198/37/2
f 201/99/3 203/99/3 202/37/3
f 203/99/3 204/37/3 202/37/3
f 205/37/4 207/37/4 206/99/4
f 207/37/4 208/99/4 206/99/4
f 209/10/5 211/100/5 210/79/5
f 211/100/5 212/101/5 210/79/5
f 213/49/6 215/102/6 214/103/6
f 215/102/6 216/104/6 214/103/6
