# Blender 5.0.1
# www.blender.org
mtllib lev.d10.mtl
o elytraOffModel
v 3.523810 -0.666667 -8.049598
v 3.523810 -0.666667 -2.906741
v 3.523810 2.571429 -8.049598
v 3.523810 2.571429 -2.906741
v -3.523810 -0.666667 -2.906741
v -3.523810 -0.666667 -8.049598
v -3.523810 2.571429 -2.906741
v -3.523810 2.571429 -8.049598
v -3.523810 -0.666667 -2.906741
v 3.523810 -0.666667 -2.906741
v -3.523810 -0.666667 -8.049598
v 3.523810 -0.666667 -8.049598
v -3.523810 2.571429 -8.049598
v 3.523810 2.571429 -8.049598
v -3.523810 2.571429 -2.906741
v 3.523810 2.571429 -2.906741
v -3.523810 -0.666667 -8.049598
v 3.523810 -0.666667 -8.049598
v -3.523810 2.571429 -8.049598
v 3.523810 2.571429 -8.049598
v 3.523810 -0.666667 -2.906741
v -3.523810 -0.666667 -2.906741
v 3.523810 2.571429 -2.906741
v -3.523810 2.571429 -2.906741
v 4.285714 1.904762 -8.478169
v 4.285714 1.904762 -2.763884
v 4.285714 11.428572 -8.478169
v 4.285714 11.428572 -2.763884
v -4.285714 1.904762 -2.763884
v -4.285714 1.904762 -8.478169
v -4.285714 11.428572 -2.763884
v -4.285714 11.428572 -8.478169
v -4.285714 1.904762 -2.763884
v 4.285714 1.904762 -2.763884
v -4.285714 1.904762 -8.478169
v 4.285714 1.904762 -8.478169
v -4.285714 11.428572 -8.478169
v 4.285714 11.428572 -8.478169
v -4.285714 11.428572 -2.763884
v 4.285714 11.428572 -2.763884
v -4.285714 1.904762 -8.478169
v 4.285714 1.904762 -8.478169
v -4.285714 11.428572 -8.478169
v 4.285714 11.428572 -8.478169
v 4.285714 1.904762 -2.763884
v -4.285714 1.904762 -2.763884
v 4.285714 11.428572 -2.763884
v -4.285714 11.428572 -2.763884
v 4.476190 1.714286 -8.763884
v 4.476190 1.714286 -2.668646
v 4.476190 11.619047 -8.763884
v 4.476190 11.619047 -2.668646
v -4.476190 1.714286 -2.668646
v -4.476190 1.714286 -8.763884
v -4.476190 11.619047 -2.668646
v -4.476190 11.619047 -8.763884
v -4.476190 1.714286 -2.668646
v 4.476190 1.714286 -2.668646
v -4.476190 1.714286 -8.763884
v 4.476190 1.714286 -8.763884
v -4.476190 11.619047 -8.763884
v 4.476190 11.619047 -8.763884
v -4.476190 11.619047 -2.668646
v 4.476190 11.619047 -2.668646
v -4.476190 1.714286 -8.763884
v 4.476190 1.714286 -8.763884
v -4.476190 11.619047 -8.763884
v 4.476190 11.619047 -8.763884
v 4.476190 1.714286 -2.668646
v -4.476190 1.714286 -2.668646
v 4.476190 11.619047 -2.668646
v -4.476190 11.619047 -2.668646
v 3.333333 -0.476190 -7.763884
v 3.333333 -0.476190 -3.001979
v 3.333333 2.380952 -7.763884
v 3.333333 2.380952 -3.001979
v -3.333333 -0.476190 -3.001979
v -3.333333 -0.476190 -7.763884
v -3.333333 2.380952 -3.001979
v -3.333333 2.380952 -7.763884
v -3.333333 -0.476190 -3.001979
v 3.333333 -0.476190 -3.001979
v -3.333333 -0.476190 -7.763884
v 3.333333 -0.476190 -7.763884
v -3.333333 2.380952 -7.763884
v 3.333333 2.380952 -7.763884
v -3.333333 2.380952 -3.001979
v 3.333333 2.380952 -3.001979
v -3.333333 -0.476190 -7.763884
v 3.333333 -0.476190 -7.763884
v -3.333333 2.380952 -7.763884
v 3.333333 2.380952 -7.763884
v 3.333333 -0.476190 -3.001979
v -3.333333 -0.476190 -3.001979
v 3.333333 2.380952 -3.001979
v -3.333333 2.380952 -3.001979
vn 1.0000 -0.0000 -0.0000
vn -1.0000 -0.0000 -0.0000
vn -0.0000 -1.0000 -0.0000
vn -0.0000 1.0000 -0.0000
vn -0.0000 -0.0000 -1.0000
vn -0.0000 -0.0000 1.0000
vt 0.640625 0.253906
vt 0.640625 0.242188
vt 0.660156 0.253906
vt 0.660156 0.242188
vt 0.679688 0.253906
vt 0.679688 0.242188
vt 0.753906 0.292969
vt 0.753906 0.312500
vt 0.726562 0.292969
vt 0.726562 0.312500
vt 0.730469 0.273438
vt 0.730469 0.253906
vt 0.703125 0.273438
vt 0.703125 0.253906
vt 0.742188 0.269531
vt 0.742188 0.257812
vt 0.769531 0.269531
vt 0.769531 0.257812
vt 0.742188 0.281250
vt 0.769531 0.281250
vt 0.468750 0.406250
vt 0.468750 0.367188
vt 0.492188 0.406250
vt 0.492188 0.367188
vt 0.367188 0.281250
vt 0.367188 0.242188
vt 0.390625 0.281250
vt 0.390625 0.242188
vt 0.511719 0.257812
vt 0.511719 0.281250
vt 0.476562 0.257812
vt 0.476562 0.281250
vt 0.546875 0.281250
vt 0.546875 0.257812
vt 0.691406 0.312500
vt 0.691406 0.273438
vt 0.726562 0.273438
vt 0.656250 0.312500
vt 0.656250 0.273438
vt 0.429688 0.281250
vt 0.429688 0.242188
vt 0.453125 0.281250
vt 0.453125 0.242188
vt 0.476562 0.242188
vt 0.582031 0.257812
vt 0.582031 0.281250
vt 0.617188 0.281250
vt 0.617188 0.257812
vt 0.191406 0.281250
vt 0.191406 0.242188
vt 0.226562 0.281250
vt 0.226562 0.242188
vt 0.156250 0.281250
vt 0.156250 0.242188
vt 0.593750 0.257812
vt 0.593750 0.246094
vt 0.613281 0.257812
vt 0.613281 0.246094
vt 0.742188 0.246094
vt 0.761719 0.257812
vt 0.761719 0.246094
vt 0.675781 0.253906
vt 0.675781 0.273438
vt 0.648438 0.253906
vt 0.648438 0.273438
vt 0.742188 0.292969
vt 0.769531 0.292969
vt 0.441406 0.359375
vt 0.441406 0.347656
vt 0.468750 0.359375
vt 0.468750 0.347656
s 0
usemtl Material_0
f 1/1/1 3/2/1 2/3/1
f 3/2/1 4/4/1 2/3/1
f 5/3/2 7/4/2 6/5/2
f 7/4/2 8/6/2 6/5/2
f 9/7/3 11/8/3 10/9/3
f 11/8/3 12/10/3 10/9/3
f 13/11/4 15/12/4 14/13/4
f 15/12/4 16/14/4 14/13/4
f 17/15/5 19/16/5 18/17/5
f 19/16/5 20/18/5 18/17/5
f 21/19/6 23/15/6 22/20/6
f 23/15/6 24/17/6 22/20/6
f 25/21/1 27/22/1 26/23/1
f 27/22/1 28/24/1 26/23/1
f 29/25/2 31/26/2 30/27/2
f 31/26/2 32/28/2 30/27/2
f 33/29/3 35/30/3 34/31/3
f 35/30/3 36/32/3 34/31/3
f 37/33/4 39/34/4 38/30/4
f 39/34/4 40/29/4 38/30/4
f 41/35/5 43/36/5 42/10/5
f 43/36/5 44/37/5 42/10/5
f 45/38/6 47/39/6 46/35/6
f 47/39/6 48/36/6 46/35/6
f 49/40/1 51/41/1 50/42/1
f 51/41/1 52/43/1 50/42/1
f 53/42/2 55/43/2 54/32/2
f 55/43/2 56/44/2 54/32/2
f 57/45/3 59/46/3 58/34/3
f 59/46/3 60/33/3 58/34/3
f 61/47/4 63/48/4 62/46/4
f 63/48/4 64/45/4 62/46/4
f 65/49/5 67/50/5 66/51/5
f 67/50/5 68/52/5 66/51/5
f 69/53/6 71/54/6 70/49/6
f 71/54/6 72/50/6 70/49/6
f 73/55/1 75/56/1 74/57/1
f 75/56/1 76/58/1 74/57/1
f 77/16/2 79/59/2 78/60/2
f 79/59/2 80/61/2 78/60/2
f 81/62/3 83/63/3 82/64/3
f 83/63/3 84/65/3 82/64/3
f 85/13/4 87/14/4 86/63/4
f 87/14/4 88/62/4 86/63/4
f 89/66/5 91/19/5 90/67/5
f 91/19/5 92/20/5 90/67/5
f 93/68/6 95/69/6 94/70/6
f 95/69/6 96/71/6 94/70/6
o backpackModel
v 4.285714 -0.476190 -2.859122
v 4.285714 -0.476190 2.855164
v 4.285714 11.904762 -2.859122
v 4.285714 11.904762 2.855164
v -4.285714 -0.476190 2.855164
v -4.285714 -0.476190 -2.859122
v -4.285714 11.904762 2.855164
v -4.285714 11.904762 -2.859122
v -4.285714 -0.476190 2.855164
v 4.285714 -0.476190 2.855164
v -4.285714 -0.476190 -2.859122
v 4.285714 -0.476190 -2.859122
v -4.285714 11.904762 -2.859122
v 4.285714 11.904762 -2.859122
v -4.285714 11.904762 2.855164
v 4.285714 11.904762 2.855164
v -4.285714 -0.476190 -2.859122
v 4.285714 -0.476190 -2.859122
v -4.285714 11.904762 -2.859122
v 4.285714 11.904762 -2.859122
v 4.285714 -0.476190 2.855164
v -4.285714 -0.476190 2.855164
v 4.285714 11.904762 2.855164
v -4.285714 11.904762 2.855164
vn 1.0000 -0.0000 -0.0000
vn -1.0000 -0.0000 -0.0000
vn -0.0000 -1.0000 -0.0000
vn -0.0000 1.0000 -0.0000
vn -0.0000 -0.0000 -1.0000
vn -0.0000 -0.0000 1.0000
vt 0.390625 0.281250
vt 0.390625 0.234375
vt 0.410156 0.281250
vt 0.410156 0.234375
vt 0.429688 0.281250
vt 0.429688 0.234375
vt 0.500000 0.347656
vt 0.500000 0.367188
vt 0.468750 0.347656
vt 0.468750 0.367188
vt 0.648438 0.281250
vt 0.648438 0.261719
vt 0.617188 0.281250
vt 0.617188 0.261719
vt 0.437500 0.406250
vt 0.437500 0.359375
vt 0.468750 0.406250
vt 0.468750 0.359375
vt 0.406250 0.406250
vt 0.406250 0.359375
s 0
usemtl Material_0
f 97/72/7 99/73/7 98/74/7
f 99/73/7 100/75/7 98/74/7
f 101/74/8 103/75/8 102/76/8
f 103/75/8 104/77/8 102/76/8
f 105/78/9 107/79/9 106/80/9
f 107/79/9 108/81/9 106/80/9
f 109/82/10 111/83/10 110/84/10
f 111/83/10 112/85/10 110/84/10
f 113/86/11 115/87/11 114/88/11
f 115/87/11 116/89/11 114/88/11
f 117/90/12 119/91/12 118/86/12
f 119/91/12 120/87/12 118/86/12
o elytraOnModel
v 4.476190 1.714286 -5.906741
v 4.476190 1.714286 -2.668646
v 4.476190 11.619047 -5.906741
v 4.476190 11.619047 -2.668646
v -4.476190 1.714286 -2.668646
v -4.476190 1.714286 -5.906741
v -4.476190 11.619047 -2.668646
v -4.476190 11.619047 -5.906741
v -4.476190 1.714286 -2.668646
v 4.476190 1.714286 -2.668646
v -4.476190 1.714286 -5.906741
v 4.476190 1.714286 -5.906741
v -4.476190 11.619047 -5.906741
v 4.476190 11.619047 -5.906741
v -4.476190 11.619047 -2.668646
v 4.476190 11.619047 -2.668646
v -4.476190 1.714286 -5.906741
v 4.476190 1.714286 -5.906741
v -4.476190 11.619047 -5.906741
v 4.476190 11.619047 -5.906741
v 4.476190 1.714286 -2.668646
v -4.476190 1.714286 -2.668646
v 4.476190 11.619047 -2.668646
v -4.476190 11.619047 -2.668646
v 4.285714 1.904762 -5.621027
v 4.285714 1.904762 -2.763884
v 4.285714 11.428572 -5.621027
v 4.285714 11.428572 -2.763884
v -4.285714 1.904762 -2.763884
v -4.285714 1.904762 -5.621027
v -4.285714 11.428572 -2.763884
v -4.285714 11.428572 -5.621027
v -4.285714 1.904762 -2.763884
v 4.285714 1.904762 -2.763884
v -4.285714 1.904762 -5.621027
v 4.285714 1.904762 -5.621027
v -4.285714 11.428572 -5.621027
v 4.285714 11.428572 -5.621027
v -4.285714 11.428572 -2.763884
v 4.285714 11.428572 -2.763884
v -4.285714 1.904762 -5.621027
v 4.285714 1.904762 -5.621027
v -4.285714 11.428572 -5.621027
v 4.285714 11.428572 -5.621027
v 4.285714 1.904762 -2.763884
v -4.285714 1.904762 -2.763884
v 4.285714 11.428572 -2.763884
v -4.285714 11.428572 -2.763884
v 19.047619 -11.535202 -91.501472
v 19.047619 -46.730610 -76.923058
v 19.047619 -8.619522 -84.462395
v 19.047619 -43.814930 -69.883980
v -19.047619 -46.730610 -76.923058
v -19.047619 -11.535202 -91.501472
v -19.047619 -43.814930 -69.883980
v -19.047619 -8.619522 -84.462395
v -19.047619 -46.730610 -76.923058
v 19.047619 -46.730610 -76.923058
v -19.047619 -11.535202 -91.501472
v 19.047619 -11.535202 -91.501472
v -19.047619 -8.619522 -84.462395
v 19.047619 -8.619522 -84.462395
v -19.047619 -43.814930 -69.883980
v 19.047619 -43.814930 -69.883980
v -19.047619 -11.535202 -91.501472
v 19.047619 -11.535202 -91.501472
v -19.047619 -8.619522 -84.462395
v 19.047619 -8.619522 -84.462395
v 19.047619 -46.730610 -76.923058
v -19.047619 -46.730610 -76.923058
v 19.047619 -43.814930 -69.883980
v -19.047619 -43.814930 -69.883980
v 30.476191 1.939102 -88.835915
v 30.476191 -54.373554 -65.510452
v 30.476191 7.770470 -74.757751
v 30.476191 -48.542187 -51.432285
v -30.476191 -54.373554 -65.510452
v -30.476191 1.939102 -88.835915
v -30.476191 -48.542187 -51.432285
v -30.476191 7.770470 -74.757751
v -30.476191 -54.373554 -65.510452
v 30.476191 -54.373554 -65.510452
v -30.476191 1.939102 -88.835915
v 30.476191 1.939102 -88.835915
v -30.476191 7.770470 -74.757751
v 30.476191 7.770470 -74.757751
v -30.476191 -48.542187 -51.432285
v 30.476191 -48.542187 -51.432285
v -30.476191 1.939102 -88.835915
v 30.476191 1.939102 -88.835915
v -30.476191 7.770470 -74.757751
v 30.476191 7.770470 -74.757751
v 30.476191 -54.373554 -65.510452
v -30.476191 -54.373554 -65.510452
v 30.476191 -48.542187 -51.432285
v -30.476191 -48.542187 -51.432285
v 30.476191 -48.541550 -51.432991
v 30.476191 -48.542194 -51.432289
v 30.476191 4.823288 -2.533126
v 30.476191 4.822645 -2.532424
v -30.476191 -48.542194 -51.432289
v -30.476191 -48.541550 -51.432991
v -30.476191 4.822645 -2.532424
v -30.476191 4.823288 -2.533126
v -30.476191 -48.542194 -51.432289
v 30.476191 -48.542194 -51.432289
v -30.476191 -48.541550 -51.432991
v 30.476191 -48.541550 -51.432991
v -30.476191 4.823288 -2.533126
v 30.476191 4.823288 -2.533126
v -30.476191 4.822645 -2.532424
v 30.476191 4.822645 -2.532424
v -30.476191 -48.541550 -51.432991
v 30.476191 -48.541550 -51.432991
v -30.476191 4.823288 -2.533126
v 30.476191 4.823288 -2.533126
v 30.476191 -48.542194 -51.432289
v -30.476191 -48.542194 -51.432289
v 30.476191 4.822645 -2.532424
v -30.476191 4.822645 -2.532424
v 30.476191 7.771414 -74.757706
v 30.476191 7.770462 -74.757751
v 30.476191 4.614203 -2.445647
v 30.476191 4.613252 -2.445688
v -30.476191 7.770462 -74.757751
v -30.476191 7.771414 -74.757706
v -30.476191 4.613252 -2.445688
v -30.476191 4.614203 -2.445647
v -30.476191 7.770462 -74.757751
v 30.476191 7.770462 -74.757751
v -30.476191 7.771414 -74.757706
v 30.476191 7.771414 -74.757706
v -30.476191 4.614203 -2.445647
v 30.476191 4.614203 -2.445647
v -30.476191 4.613252 -2.445688
v 30.476191 4.613252 -2.445688
v -30.476191 7.771414 -74.757706
v 30.476191 7.771414 -74.757706
v -30.476191 4.614203 -2.445647
v 30.476191 4.614203 -2.445647
v 30.476191 7.770462 -74.757751
v -30.476191 7.770462 -74.757751
v 30.476191 4.613252 -2.445688
v -30.476191 4.613252 -2.445688
vn 1.0000 -0.0000 -0.0000
vn -1.0000 -0.0000 -0.0000
vn -0.0000 -1.0000 -0.0000
vn -0.0000 1.0000 -0.0000
vn -0.0000 -0.0000 -1.0000
vn -0.0000 -0.0000 1.0000
vn -0.0000 -0.3827 -0.9239
vn -0.0000 0.3827 0.9239
vn -0.0000 0.9239 -0.3827
vn -0.0000 -0.9239 0.3827
vn -0.0000 -0.7379 -0.6749
vn -0.0000 -0.7341 -0.6790
vn -0.0000 0.7375 0.6753
vn -0.0000 0.7373 0.6756
vn -0.0000 0.6756 -0.7373
vn -0.0000 -0.6756 0.7373
vn -0.0000 0.0504 -0.9987
vn -0.0000 -0.0436 0.9990
vn -0.0000 0.9990 0.0436
vn -0.0000 -0.9990 -0.0436
vt 0.628906 0.261719
vt 0.628906 0.222656
vt 0.640625 0.261719
vt 0.640625 0.222656
vt 0.476562 0.257812
vt 0.476562 0.218750
vt 0.488281 0.257812
vt 0.488281 0.218750
vt 0.558594 0.246094
vt 0.558594 0.257812
vt 0.523438 0.246094
vt 0.523438 0.257812
vt 0.593750 0.257812
vt 0.593750 0.246094
vt 0.332031 0.281250
vt 0.332031 0.242188
vt 0.367188 0.281250
vt 0.367188 0.242188
vt 0.296875 0.281250
vt 0.296875 0.242188
vt 0.730469 0.292969
vt 0.730469 0.253906
vt 0.742188 0.292969
vt 0.742188 0.253906
vt 0.617188 0.261719
vt 0.617188 0.222656
vt 0.441406 0.347656
vt 0.441406 0.359375
vt 0.406250 0.347656
vt 0.406250 0.359375
vt 0.488281 0.246094
vt 0.261719 0.281250
vt 0.261719 0.242188
vt 0.226562 0.281250
vt 0.226562 0.242188
vt 0.656250 0.406250
vt 0.656250 0.375000
vt 0.812500 0.406250
vt 0.812500 0.375000
vt 0.656250 0.343750
vt 0.656250 0.312500
vt 0.812500 0.343750
vt 0.812500 0.312500
vt 0.656250 0.500000
vt 0.500000 0.343750
vt 0.500000 0.500000
vt 0.156250 0.406250
vt 0.156250 0.250000
vt 0.000000 0.406250
vt 0.000000 0.250000
vt 0.656250 0.437500
vt 0.812500 0.437500
vt 0.156250 0.343750
vt 0.156250 0.281250
vt 0.406250 0.343750
vt 0.406250 0.281250
vt 0.906250 0.500000
vt 0.906250 0.437500
vt 0.750000 0.750000
vt 0.750000 1.000000
vt 0.500000 0.750000
vt 0.500000 1.000000
vt 0.750000 0.500000
vt 0.656250 0.281250
vt 0.406250 0.406250
vt 0.000000 1.000000
vt 0.000000 0.703125
vt 0.250000 1.000000
vt 0.250000 0.703125
vt 0.500000 0.703125
vt 0.250000 0.406250
vt 0.500000 0.406250
s 0
usemtl Material_0
f 121/92/13 123/93/13 122/94/13
f 123/93/13 124/95/13 122/94/13
f 125/96/14 127/97/14 126/98/14
f 127/97/14 128/99/14 126/98/14
f 129/100/15 131/101/15 130/102/15
f 131/101/15 132/103/15 130/102/15
f 133/104/16 135/105/16 134/101/16
f 135/105/16 136/100/16 134/101/16
f 137/106/17 139/107/17 138/108/17
f 139/107/17 140/109/17 138/108/17
f 141/110/18 143/111/18 142/106/18
f 143/111/18 144/107/18 142/106/18
f 145/112/13 147/113/13 146/114/13
f 147/113/13 148/115/13 146/114/13
f 149/116/14 151/117/14 150/92/14
f 151/117/14 152/93/14 150/92/14
f 153/118/15 155/119/15 154/120/15
f 155/119/15 156/121/15 154/120/15
f 157/103/16 159/102/16 158/98/16
f 159/102/16 160/122/16 158/98/16
f 161/123/17 163/124/17 162/110/17
f 163/124/17 164/111/17 162/110/17
f 165/125/18 167/126/18 166/123/18
f 167/126/18 168/124/18 166/123/18
f 169/127/13 171/128/13 170/129/13
f 171/128/13 172/130/13 170/129/13
f 173/131/14 175/132/14 174/133/14
f 175/132/14 176/134/14 174/133/14
f 177/131/19 179/135/19 178/136/19
f 179/135/19 180/137/19 178/136/19
f 181/138/20 183/139/20 182/140/20
f 183/139/20 184/141/20 182/140/20
f 185/128/21 187/131/21 186/130/21
f 187/131/21 188/133/21 186/130/21
f 189/142/22 191/127/22 190/143/22
f 191/127/22 192/129/22 190/143/22
f 193/144/13 195/145/13 194/146/13
f 195/145/13 196/147/13 194/146/13
f 197/135/14 199/142/14 198/148/14
f 199/142/14 200/149/14 198/148/14
f 201/150/19 203/151/19 202/152/19
f 203/151/19 204/153/19 202/152/19
f 205/150/20 207/154/20 206/152/20
f 207/154/20 208/137/20 206/152/20
f 209/146/21 211/147/21 210/131/21
f 211/147/21 212/155/21 210/131/21
f 213/138/22 215/144/22 214/156/22
f 215/144/22 216/146/22 214/156/22
f 217/157/13 219/158/13 218/157/13
f 219/158/13 220/158/13 218/157/13
f 221/157/14 223/158/14 222/157/14
f 223/158/14 224/158/14 222/157/14
f 225/159/23 227/159/23 226/157/23
f 227/159/24 228/157/24 226/157/24
f 229/159/25 231/159/25 230/157/25
f 231/159/26 232/157/26 230/157/26
f 233/159/27 235/160/27 234/153/27
f 235/160/27 236/161/27 234/153/27
f 237/157/28 239/158/28 238/159/28
f 239/158/28 240/160/28 238/159/28
f 241/157/13 243/158/13 242/157/13
f 243/158/13 244/158/13 242/157/13
f 245/157/14 247/158/14 246/157/14
f 247/158/14 248/158/14 246/157/14
f 249/159/29 251/159/29 250/157/29
f 251/159/29 252/157/29 250/157/29
f 253/159/30 255/159/30 254/157/30
f 255/159/30 256/157/30 254/157/30
f 257/160/31 259/162/31 258/161/31
f 259/162/31 260/163/31 258/161/31
f 261/158/32 263/140/32 262/160/32
f 263/140/32 264/162/32 262/160/32
