# Blender 4.1.1
# www.blender.org
mtllib vesh.mtl
o backpackModel
v 3.809524 -0.000001 -7.738847
v 3.809524 -0.000000 -2.024561
v 3.809524 8.571427 -7.738848
v 3.809524 8.571428 -2.024562
v -3.809524 -0.000000 -2.024561
v -3.809524 -0.000001 -7.738847
v -3.809524 8.571428 -2.024562
v -3.809524 8.571427 -7.738848
v -3.809524 -0.000000 -2.024561
v 3.809524 -0.000000 -2.024561
v -3.809524 -0.000001 -7.738847
v 3.809524 -0.000001 -7.738847
v -3.809524 8.571427 -7.738848
v 3.809524 8.571427 -7.738848
v -3.809524 8.571428 -2.024562
v 3.809524 8.571428 -2.024562
v -3.809524 -0.000001 -7.738847
v 3.809524 -0.000001 -7.738847
v -3.809524 8.571427 -7.738848
v 3.809524 8.571427 -7.738848
v 3.809524 -0.000000 -2.024561
v -3.809524 -0.000000 -2.024561
v 3.809524 8.571428 -2.024562
v -3.809524 8.571428 -2.024562
v 4.000000 -0.190477 -7.929323
v 4.000000 -0.190476 -1.834085
v 4.000000 8.761904 -7.929324
v 4.000000 8.761905 -1.834086
v -4.000000 -0.190476 -1.834085
v -4.000000 -0.190477 -7.929323
v -4.000000 8.761905 -1.834086
v -4.000000 8.761904 -7.929324
v -4.000000 -0.190476 -1.834085
v 4.000000 -0.190476 -1.834085
v -4.000000 -0.190477 -7.929323
v 4.000000 -0.190477 -7.929323
v -4.000000 8.761904 -7.929324
v 4.000000 8.761904 -7.929324
v -4.000000 8.761905 -1.834086
v 4.000000 8.761905 -1.834086
v -4.000000 -0.190477 -7.929323
v 4.000000 -0.190477 -7.929323
v -4.000000 8.761904 -7.929324
v 4.000000 8.761904 -7.929324
v 4.000000 -0.190476 -1.834085
v -4.000000 -0.190476 -1.834085
v 4.000000 8.761905 -1.834086
v -4.000000 8.761905 -1.834086
v -3.999048 8.760953 -1.835039
v -3.999048 8.760952 -7.928372
v -3.999048 -0.189524 -1.835037
v -3.999048 -0.189525 -7.928371
v 3.999048 8.760952 -7.928372
v 3.999048 8.760953 -1.835039
v 3.999048 -0.189525 -7.928371
v 3.999048 -0.189524 -1.835037
v 3.999048 8.760952 -7.928372
v -3.999048 8.760952 -7.928372
v 3.999048 8.760953 -1.835039
v -3.999048 8.760953 -1.835039
v 3.999048 -0.189524 -1.835037
v -3.999048 -0.189524 -1.835037
v 3.999048 -0.189525 -7.928371
v -3.999048 -0.189525 -7.928371
v 3.999048 8.760953 -1.835039
v -3.999048 8.760953 -1.835039
v 3.999048 -0.189524 -1.835037
v -3.999048 -0.189524 -1.835037
v -3.999048 8.760952 -7.928372
v 3.999048 8.760952 -7.928372
v -3.999048 -0.189525 -7.928371
v 3.999048 -0.189525 -7.928371
v 0.952381 -0.952382 -5.834085
v 0.952381 -0.952382 -3.929323
v 0.952381 0.952380 -5.834085
v 0.952381 0.952380 -3.929323
v -0.952381 -0.952382 -3.929323
v -0.952381 -0.952382 -5.834085
v -0.952381 0.952380 -3.929323
v -0.952381 0.952380 -5.834085
v -0.952381 -0.952382 -3.929323
v 0.952381 -0.952382 -3.929323
v -0.952381 -0.952382 -5.834085
v 0.952381 -0.952382 -5.834085
v -0.952381 0.952380 -5.834085
v 0.952381 0.952380 -5.834085
v -0.952381 0.952380 -3.929323
v 0.952381 0.952380 -3.929323
v -0.952381 -0.952382 -5.834085
v 0.952381 -0.952382 -5.834085
v -0.952381 0.952380 -5.834085
v 0.952381 0.952380 -5.834085
v 0.952381 -0.952382 -3.929323
v -0.952381 -0.952382 -3.929323
v 0.952381 0.952380 -3.929323
v -0.952381 0.952380 -3.929323
v 2.380952 1.904761 -8.691227
v 2.380952 1.904761 -7.738847
v 2.380952 3.809522 -8.691228
v 2.380952 3.809523 -7.738847
v -2.380952 1.904761 -7.738847
v -2.380952 1.904761 -8.691227
v -2.380952 3.809523 -7.738847
v -2.380952 3.809522 -8.691228
v -2.380952 1.904761 -7.738847
v 2.380952 1.904761 -7.738847
v -2.380952 1.904761 -8.691227
v 2.380952 1.904761 -8.691227
v -2.380952 3.809522 -8.691228
v 2.380952 3.809522 -8.691228
v -2.380952 3.809523 -7.738847
v 2.380952 3.809523 -7.738847
v -2.380952 1.904761 -8.691227
v 2.380952 1.904761 -8.691227
v -2.380952 3.809522 -8.691228
v 2.380952 3.809522 -8.691228
v 2.380952 1.904761 -7.738847
v -2.380952 1.904761 -7.738847
v 2.380952 3.809523 -7.738847
v -2.380952 3.809523 -7.738847
v 1.904762 3.809522 -8.691228
v 1.904762 3.809523 -7.738847
v 1.904762 6.666665 -8.691228
v 1.904762 6.666666 -7.738848
v -1.904762 3.809523 -7.738847
v -1.904762 3.809522 -8.691228
v -1.904762 6.666666 -7.738848
v -1.904762 6.666665 -8.691228
v -1.904762 3.809523 -7.738847
v 1.904762 3.809523 -7.738847
v -1.904762 3.809522 -8.691228
v 1.904762 3.809522 -8.691228
v -1.904762 6.666665 -8.691228
v 1.904762 6.666665 -8.691228
v -1.904762 6.666666 -7.738848
v 1.904762 6.666666 -7.738848
v -1.904762 3.809522 -8.691228
v 1.904762 3.809522 -8.691228
v -1.904762 6.666665 -8.691228
v 1.904762 6.666665 -8.691228
v 1.904762 3.809523 -7.738847
v -1.904762 3.809523 -7.738847
v 1.904762 6.666666 -7.738848
v -1.904762 6.666666 -7.738848
v 1.428571 -2.857144 -6.310275
v 1.428571 -2.857143 -3.453132
v 1.428571 -0.952382 -6.310275
v 1.428571 -0.952381 -3.453132
v -1.428571 -2.857143 -3.453132
v -1.428571 -2.857144 -6.310275
v -1.428571 -0.952381 -3.453132
v -1.428571 -0.952382 -6.310275
v -1.428571 -2.857143 -3.453132
v 1.428571 -2.857143 -3.453132
v -1.428571 -2.857144 -6.310275
v 1.428571 -2.857144 -6.310275
v -1.428571 -0.952382 -6.310275
v 1.428571 -0.952382 -6.310275
v -1.428571 -0.952381 -3.453132
v 1.428571 -0.952381 -3.453132
v -1.428571 -2.857144 -6.310275
v 1.428571 -2.857144 -6.310275
v -1.428571 -0.952382 -6.310275
v 1.428571 -0.952382 -6.310275
v 1.428571 -2.857143 -3.453132
v -1.428571 -2.857143 -3.453132
v 1.428571 -0.952381 -3.453132
v -1.428571 -0.952381 -3.453132
v 4.047619 -0.238096 -2.024561
v 4.047619 -0.238095 2.261153
v 4.047619 6.904761 -2.024562
v 4.047619 6.904762 2.261152
v 3.095238 -0.238095 2.261153
v 3.095238 -0.238096 -2.024561
v 3.095238 6.904762 2.261152
v 3.095238 6.904761 -2.024562
v 3.095238 -0.238095 2.261153
v 4.047619 -0.238095 2.261153
v 3.095238 -0.238096 -2.024561
v 4.047619 -0.238096 -2.024561
v 3.095238 6.904761 -2.024562
v 4.047619 6.904761 -2.024562
v 3.095238 6.904762 2.261152
v 4.047619 6.904762 2.261152
v 3.095238 -0.238096 -2.024561
v 4.047619 -0.238096 -2.024561
v 3.095238 6.904761 -2.024562
v 4.047619 6.904761 -2.024562
v 4.047619 -0.238095 2.261153
v 3.095238 -0.238095 2.261153
v 4.047619 6.904762 2.261152
v 3.095238 6.904762 2.261152
v -3.095238 -0.238096 -2.024561
v -3.095238 -0.238095 2.261153
v -3.095238 6.904761 -2.024562
v -3.095238 6.904762 2.261152
v -4.047619 -0.238095 2.261153
v -4.047619 -0.238096 -2.024561
v -4.047619 6.904762 2.261152
v -4.047619 6.904761 -2.024562
v -4.047619 -0.238095 2.261153
v -3.095238 -0.238095 2.261153
v -4.047619 -0.238096 -2.024561
v -3.095238 -0.238096 -2.024561
v -4.047619 6.904761 -2.024562
v -3.095238 6.904761 -2.024562
v -4.047619 6.904762 2.261152
v -3.095238 6.904762 2.261152
v -4.047619 -0.238096 -2.024561
v -3.095238 -0.238096 -2.024561
v -4.047619 6.904761 -2.024562
v -3.095238 6.904761 -2.024562
v -3.095238 -0.238095 2.261153
v -4.047619 -0.238095 2.261153
v -3.095238 6.904762 2.261152
v -4.047619 6.904762 2.261152
v 3.333333 3.571429 2.236391
v 3.333333 3.571429 2.237343
v 3.333333 4.523810 2.236391
v 3.333333 4.523810 2.237343
v -3.333333 3.571429 2.237343
v -3.333333 3.571429 2.236391
v -3.333333 4.523810 2.237343
v -3.333333 4.523810 2.236391
v -3.333333 3.571429 2.237343
v 3.333333 3.571429 2.237343
v -3.333333 3.571429 2.236391
v 3.333333 3.571429 2.236391
v -3.333333 4.523810 2.236391
v 3.333333 4.523810 2.236391
v -3.333333 4.523810 2.237343
v 3.333333 4.523810 2.237343
v -3.333333 3.571429 2.236391
v 3.333333 3.571429 2.236391
v -3.333333 4.523810 2.236391
v 3.333333 4.523810 2.236391
v 3.333333 3.571429 2.237343
v -3.333333 3.571429 2.237343
v 3.333333 4.523810 2.237343
v -3.333333 4.523810 2.237343
vn 1.0000 -0.0000 -0.0000
vn -1.0000 -0.0000 -0.0000
vn -0.0000 -1.0000 -0.0000
vn -0.0000 1.0000 -0.0000
vn -0.0000 -0.0000 -1.0000
vn -0.0000 -0.0000 1.0000
vt 0.343750 0.859375
vt 0.343750 0.718750
vt 0.250000 0.859375
vt 0.250000 0.718750
vt 0.312500 0.625000
vt 0.312500 0.718750
vt 0.187500 0.625000
vt 0.187500 0.718750
vt 0.437500 0.718750
vt 0.437500 0.625000
vt 0.125000 1.000000
vt 0.125000 0.859375
vt 0.250000 1.000000
vt 0.000000 1.000000
vt 0.000000 0.859375
vt 0.000000 0.718750
vt 0.000000 0.578125
vt 0.093750 0.718750
vt 0.093750 0.578125
vt 0.468750 0.906250
vt 0.468750 1.000000
vt 0.343750 0.906250
vt 0.343750 1.000000
vt 0.468750 0.812500
vt 0.343750 0.812500
vt 0.125000 0.718750
vt 0.468750 0.546875
vt 0.468750 0.515625
vt 0.500000 0.546875
vt 0.500000 0.515625
vt 0.484375 0.968750
vt 0.484375 0.937500
vt 0.515625 0.968750
vt 0.515625 0.937500
vt 0.515625 0.906250
vt 0.484375 0.906250
vt 0.515625 0.875000
vt 0.484375 0.875000
vt 0.484375 1.000000
vt 0.515625 1.000000
vt 0.437500 0.531250
vt 0.437500 0.500000
vt 0.468750 0.531250
vt 0.468750 0.500000
vt 0.140625 0.515625
vt 0.140625 0.484375
vt 0.156250 0.515625
vt 0.156250 0.484375
vt 0.484375 0.812500
vt 0.484375 0.781250
vt 0.500000 0.812500
vt 0.500000 0.781250
vt 0.546875 0.828125
vt 0.546875 0.843750
vt 0.468750 0.828125
vt 0.468750 0.843750
vt 0.546875 0.812500
vt 0.078125 0.578125
vt 0.078125 0.546875
vt 0.156250 0.578125
vt 0.156250 0.546875
vt 0.406250 0.750000
vt 0.406250 0.718750
vt 0.484375 0.750000
vt 0.484375 0.718750
vt 0.109375 0.515625
vt 0.109375 0.468750
vt 0.125000 0.515625
vt 0.125000 0.468750
vt 0.140625 0.468750
vt 0.546875 0.859375
vt 0.546875 0.875000
vt 0.484375 0.859375
vt 0.484375 0.843750
vt 0.343750 0.765625
vt 0.406250 0.765625
vt 0.406250 0.812500
vt 0.437500 0.687500
vt 0.437500 0.656250
vt 0.484375 0.687500
vt 0.484375 0.656250
vt 0.109375 0.546875
vt 0.468750 0.578125
vt 0.468750 0.625000
vt 0.421875 0.578125
vt 0.421875 0.625000
vt 0.421875 0.531250
vt 0.484375 0.625000
vt 0.343750 0.625000
vt 0.343750 0.500000
vt 0.421875 0.500000
vt 0.000000 0.453125
vt 0.078125 0.453125
vt 0.484375 0.546875
vt 0.437500 0.453125
vt 0.421875 0.453125
vt 0.093750 0.546875
vt 0.093750 0.421875
vt 0.109375 0.421875
vt 0.078125 0.421875
vt 0.187500 0.500000
vt 0.265625 0.625000
vt 0.265625 0.500000
vt 0.484375 0.921875
vt 0.468750 0.921875
vt 0.171875 0.578125
vt 0.171875 0.453125
vt 0.187500 0.578125
vt 0.187500 0.453125
vt 0.000000 0.968750
vt 0.078125 1.000000
vt 0.500000 0.796875
vt 0.609375 0.812500
vt 0.609375 0.796875
s 0
usemtl Material_0.010
f 1/1/1 3/2/1 2/3/1
f 3/2/1 4/4/1 2/3/1
f 5/3/2 7/4/2 6/1/2
f 7/4/2 8/2/2 6/1/2
f 9/5/3 11/6/3 10/7/3
f 11/6/3 12/8/3 10/7/3
f 13/9/4 15/10/4 14/6/4
f 15/10/4 16/5/4 14/6/4
f 17/11/5 19/12/5 18/13/5
f 19/12/5 20/3/5 18/13/5
f 21/14/6 23/15/6 22/11/6
f 23/15/6 24/12/6 22/11/6
f 25/16/1 27/17/1 26/18/1
f 27/17/1 28/19/1 26/18/1
f 29/18/2 31/19/2 30/16/2
f 31/19/2 32/17/2 30/16/2
f 33/20/3 35/21/3 34/22/3
f 35/21/3 36/23/3 34/22/3
f 37/20/4 39/24/4 38/22/4
f 39/24/4 40/25/4 38/22/4
f 41/12/5 43/26/5 42/3/5
f 43/26/5 44/4/5 42/3/5
f 45/15/6 47/16/6 46/12/6
f 47/16/6 48/26/6 46/12/6
f 49/19/1 51/18/1 50/17/1
f 51/18/1 52/16/1 50/17/1
f 53/17/2 55/16/2 54/19/2
f 55/16/2 56/18/2 54/19/2
f 57/22/3 59/25/3 58/20/3
f 59/25/3 60/24/3 58/20/3
f 61/22/4 63/23/4 62/20/4
f 63/23/4 64/21/4 62/20/4
f 65/16/5 67/15/5 66/26/5
f 67/15/5 68/12/5 66/26/5
f 69/26/6 71/12/6 70/4/6
f 71/12/6 72/3/6 70/4/6
f 73/27/1 75/28/1 74/29/1
f 75/28/1 76/30/1 74/29/1
f 77/31/2 79/32/2 78/33/2
f 79/32/2 80/34/2 78/33/2
f 81/35/3 83/34/3 82/36/3
f 83/34/3 84/32/3 82/36/3
f 85/35/4 87/37/4 86/36/4
f 87/37/4 88/38/4 86/36/4
f 89/39/5 91/31/5 90/40/5
f 91/31/5 92/33/5 90/40/5
f 93/41/6 95/42/6 94/43/6
f 95/42/6 96/44/6 94/43/6
f 97/45/1 99/46/1 98/47/1
f 99/46/1 100/48/1 98/47/1
f 101/49/2 103/50/2 102/51/2
f 103/50/2 104/52/2 102/51/2
f 105/53/3 107/54/3 106/55/3
f 107/54/3 108/56/3 106/55/3
f 109/53/4 111/57/4 110/55/4
f 111/57/4 112/24/4 110/55/4
f 113/58/5 115/59/5 114/60/5
f 115/59/5 116/61/5 114/60/5
f 117/62/6 119/63/6 118/64/6
f 119/63/6 120/65/6 118/64/6
f 121/66/1 123/67/1 122/68/1
f 123/67/1 124/69/1 122/68/1
f 125/68/2 127/69/2 126/45/2
f 127/69/2 128/70/2 126/45/2
f 129/71/3 131/72/3 130/73/3
f 131/72/3 132/38/3 130/73/3
f 133/71/4 135/54/4 134/73/4
f 135/54/4 136/74/4 134/73/4
f 137/75/5 139/2/5 138/76/5
f 139/2/5 140/63/5 138/76/5
f 141/25/6 143/75/6 142/77/6
f 143/75/6 144/76/6 142/77/6
f 145/78/1 147/79/1 146/80/1
f 147/79/1 148/81/1 146/80/1
f 149/82/2 151/66/2 150/61/2
f 151/66/2 152/47/2 150/61/2
f 153/83/3 155/84/3 154/85/3
f 155/84/3 156/86/3 154/85/3
f 157/83/4 159/43/4 158/85/4
f 159/43/4 160/87/4 158/85/4
f 161/79/5 163/10/5 162/81/5
f 163/10/5 164/88/5 162/81/5
f 165/9/6 167/78/6 166/65/6
f 167/78/6 168/80/6 166/65/6
f 169/89/1 171/90/1 170/86/1
f 171/90/1 172/91/1 170/86/1
f 173/17/2 175/92/2 174/58/2
f 175/92/2 176/93/2 174/58/2
f 177/94/3 179/88/3 178/27/3
f 179/88/3 180/84/3 178/27/3
f 181/41/4 183/95/4 182/87/4
f 183/95/4 184/96/4 182/87/4
f 185/97/5 187/98/5 186/82/5
f 187/98/5 188/99/5 186/82/5
f 189/59/6 191/100/6 190/97/6
f 191/100/6 192/98/6 190/97/6
f 193/7/1 195/101/1 194/102/1
f 195/101/1 196/103/1 194/102/1
f 197/102/2 199/103/2 198/89/2
f 199/103/2 200/90/2 198/89/2
f 201/104/3 203/39/3 202/105/3
f 203/39/3 204/21/3 202/105/3
f 205/104/4 207/74/4 206/105/4
f 207/74/4 208/56/4 206/105/4
f 209/106/5 211/107/5 210/108/5
f 211/107/5 212/109/5 210/108/5
f 213/59/6 215/100/6 214/97/6
f 215/100/6 216/98/6 214/97/6
f 217/14/1 219/110/1 218/14/1
f 219/110/1 220/110/1 218/14/1
f 221/14/2 223/110/2 222/14/2
f 223/110/2 224/110/2 222/14/2
f 225/111/3 227/111/3 226/14/3
f 227/111/3 228/14/3 226/14/3
f 229/111/4 231/111/4 230/14/4
f 231/111/4 232/14/4 230/14/4
f 233/51/5 235/112/5 234/113/5
f 235/112/5 236/114/5 234/113/5
f 237/113/6 239/114/6 238/51/6
f 239/114/6 240/112/6 238/51/6
