# Blender 5.2.0 LTS
# www.blender.org
mtllib lev.hortkvm30.mtl
o overlaySolidModel
v -4.031538 2.307692 1.153846
v -4.030768 2.307692 1.153846
v -4.031538 1.153846 1.153846
v -4.030768 1.153846 1.153846
v -4.030768 2.307692 -0.000000
v -4.031538 2.307692 -0.000000
v -4.030768 1.153846 -0.000000
v -4.031538 1.153846 -0.000000
v -4.030768 2.307692 -0.000000
v -4.030768 2.307692 1.153846
v -4.031538 2.307692 -0.000000
v -4.031538 2.307692 1.153846
v -4.031538 1.153846 -0.000000
v -4.031538 1.153846 1.153846
v -4.030768 1.153846 -0.000000
v -4.030768 1.153846 1.153846
v -4.031538 2.307692 -0.000000
v -4.031538 2.307692 1.153846
v -4.031538 1.153846 -0.000000
v -4.031538 1.153846 1.153846
v -4.030768 2.307692 1.153846
v -4.030768 2.307692 -0.000000
v -4.030768 1.153846 1.153846
v -4.030768 1.153846 -0.000000
vn -0.0000 -0.0000 1.0000
vn -0.0000 -0.0000 -1.0000
vn -0.0000 1.0000 -0.0000
vn -0.0000 -1.0000 -0.0000
vn -1.0000 -0.0000 -0.0000
vn 1.0000 -0.0000 -0.0000
vt 0.000000 1.000000
vt 0.000000 0.953125
vt 0.046875 1.000000
vt 0.343750 0.875000
vt 0.343750 0.828125
vt 0.390625 0.875000
vt 0.390625 0.828125
vt 0.343750 0.937500
vt 0.343750 0.890625
vt 0.390625 0.937500
vt 0.390625 0.890625
s 1
usemtl Material_0.002
f 1/1/1 3/2/1 2/1/1
f 3/2/1 4/2/1 2/1/1
f 5/1/2 7/2/2 6/1/2
f 7/2/2 8/2/2 6/1/2
f 9/3/3 11/3/3 10/1/3
f 11/3/3 12/1/3 10/1/3
f 13/3/4 15/3/4 14/1/4
f 15/3/4 16/1/4 14/1/4
f 17/4/5 19/5/5 18/6/5
f 19/5/5 20/7/5 18/6/5
f 21/8/6 23/9/6 22/10/6
f 23/9/6 24/11/6 22/10/6
o scopeModel
v -4.023846 2.307692 1.153846
v -4.023077 2.307692 1.153846
v -4.023846 1.153846 1.153846
v -4.023077 1.153846 1.153846
v -4.023077 2.307692 -0.000000
v -4.023846 2.307692 -0.000000
v -4.023077 1.153846 -0.000000
v -4.023846 1.153846 -0.000000
v -4.023077 2.307692 -0.000000
v -4.023077 2.307692 1.153846
v -4.023846 2.307692 -0.000000
v -4.023846 2.307692 1.153846
v -4.023846 1.153846 -0.000000
v -4.023846 1.153846 1.153846
v -4.023077 1.153846 -0.000000
v -4.023077 1.153846 1.153846
v -4.023846 2.307692 -0.000000
v -4.023846 2.307692 1.153846
v -4.023846 1.153846 -0.000000
v -4.023846 1.153846 1.153846
v -4.023077 2.307692 1.153846
v -4.023077 2.307692 -0.000000
v -4.023077 1.153846 1.153846
v -4.023077 1.153846 -0.000000
vn -0.0000 -0.0000 1.0000
vn -0.0000 -0.0000 -1.0000
vn -0.0000 1.0000 -0.0000
vn -0.0000 -1.0000 -0.0000
vn -1.0000 -0.0000 -0.0000
vn 1.0000 -0.0000 -0.0000
vt 0.000000 1.000000
vt 0.000000 0.953125
vt 0.046875 1.000000
vt 0.343750 1.000000
vt 0.343750 0.953125
vt 0.390625 1.000000
vt 0.390625 0.953125
vt 0.312500 0.687500
vt 0.312500 0.640625
vt 0.359375 0.687500
vt 0.359375 0.640625
s 1
usemtl Material_0.002
f 25/12/7 27/13/7 26/12/7
f 27/13/7 28/13/7 26/12/7
f 29/12/8 31/13/8 30/12/8
f 31/13/8 32/13/8 30/12/8
f 33/14/9 35/14/9 34/12/9
f 35/14/9 36/12/9 34/12/9
f 37/14/10 39/14/10 38/12/10
f 39/14/10 40/12/10 38/12/10
f 41/15/11 43/16/11 42/17/11
f 43/16/11 44/18/11 42/17/11
f 45/19/12 47/20/12 46/21/12
f 47/20/12 48/22/12 46/21/12
o attachmentModel
v 1.154615 1.922308 1.345384
v 1.922308 1.922308 1.345384
v 1.154615 1.539231 1.345384
v 1.922308 1.539231 1.345384
v 1.922308 1.922308 -0.383846
v 1.154615 1.922308 -0.383846
v 1.922308 1.539231 -0.383846
v 1.154615 1.539231 -0.383846
v 1.922308 1.922308 -0.383846
v 1.922308 1.922308 1.345384
v 1.154615 1.922308 -0.383846
v 1.154615 1.922308 1.345384
v 1.154615 1.539231 -0.383846
v 1.154615 1.539231 1.345384
v 1.922308 1.539231 -0.383846
v 1.922308 1.539231 1.345384
v 1.154615 1.922308 -0.383846
v 1.154615 1.922308 1.345384
v 1.154615 1.539231 -0.383846
v 1.154615 1.539231 1.345384
v 1.922308 1.922308 1.345384
v 1.922308 1.922308 -0.383846
v 1.922308 1.539231 1.345384
v 1.922308 1.539231 -0.383846
v -1.538461 0.000000 0.000000
v 1.538461 0.000000 -0.000000
v -1.538461 -0.769231 0.000000
v 1.538461 -0.769231 -0.000000
v 1.538461 0.000000 -0.384615
v -1.538461 0.000000 -0.384615
v 1.538461 -0.769231 -0.384615
v -1.538461 -0.769231 -0.384615
v 1.538461 0.000000 -0.384615
v 1.538461 0.000000 -0.000000
v -1.538461 0.000000 -0.384615
v -1.538461 0.000000 0.000000
v -1.538461 -0.769231 -0.384615
v -1.538461 -0.769231 0.000000
v 1.538461 -0.769231 -0.384615
v 1.538461 -0.769231 -0.000000
v -1.538461 0.000000 -0.384615
v -1.538461 0.000000 0.000000
v -1.538461 -0.769231 -0.384615
v -1.538461 -0.769231 0.000000
v 1.538461 0.000000 -0.000000
v 1.538461 0.000000 -0.384615
v 1.538461 -0.769231 -0.000000
v 1.538461 -0.769231 -0.384615
v -1.538461 1.538462 -0.383846
v 1.923077 1.538462 -0.383846
v -1.538461 0.000000 -0.383846
v 1.923077 0.000000 -0.383846
v 1.923077 1.538462 -0.384615
v -1.538461 1.538462 -0.384615
v 1.923077 0.000000 -0.384615
v -1.538461 0.000000 -0.384615
v 1.923077 1.538462 -0.384615
v 1.923077 1.538462 -0.383846
v -1.538461 1.538462 -0.384615
v -1.538461 1.538462 -0.383846
v -1.538461 0.000000 -0.384615
v -1.538461 0.000000 -0.383846
v 1.923077 0.000000 -0.384615
v 1.923077 0.000000 -0.383846
v -1.538461 1.538462 -0.384615
v -1.538461 1.538462 -0.383846
v -1.538461 0.000000 -0.384615
v -1.538461 0.000000 -0.383846
v 1.923077 1.538462 -0.383846
v 1.923077 1.538462 -0.384615
v 1.923077 0.000000 -0.383846
v 1.923077 0.000000 -0.384615
v 1.153846 2.307692 1.153846
v 1.923077 2.307692 1.153846
v 1.153846 1.153846 1.153846
v 1.923077 1.153846 1.153846
v 1.923077 2.307692 -0.000000
v 1.153846 2.307692 -0.000000
v 1.923077 1.153846 -0.000000
v 1.153846 1.153846 -0.000000
v 1.923077 2.307692 -0.000000
v 1.923077 2.307692 1.153846
v 1.153846 2.307692 -0.000000
v 1.153846 2.307692 1.153846
v 1.153846 1.153846 -0.000000
v 1.153846 1.153846 1.153846
v 1.923077 1.153846 -0.000000
v 1.923077 1.153846 1.153846
v 1.153846 2.307692 -0.000000
v 1.153846 2.307692 1.153846
v 1.153846 1.153846 -0.000000
v 1.153846 1.153846 1.153846
v 1.923077 2.307692 1.153846
v 1.923077 2.307692 -0.000000
v 1.923077 1.153846 1.153846
v 1.923077 1.153846 -0.000000
v -0.192308 2.115385 0.000000
v 0.576923 2.115385 -0.000000
v -0.192308 1.346154 0.000000
v 0.576923 1.346154 -0.000000
v 0.576923 2.115385 -0.384615
v -0.192308 2.115385 -0.384615
v 0.576923 1.346154 -0.384615
v -0.192308 1.346154 -0.384615
v 0.576923 2.115385 -0.384615
v 0.576923 2.115385 -0.000000
v -0.192308 2.115385 -0.384615
v -0.192308 2.115385 0.000000
v -0.192308 1.346154 -0.384615
v -0.192308 1.346154 0.000000
v 0.576923 1.346154 -0.384615
v 0.576923 1.346154 -0.000000
v -0.192308 2.115385 -0.384615
v -0.192308 2.115385 0.000000
v -0.192308 1.346154 -0.384615
v -0.192308 1.346154 0.000000
v 0.576923 2.115385 -0.000000
v 0.576923 2.115385 -0.384615
v 0.576923 1.346154 -0.000000
v 0.576923 1.346154 -0.384615
v -0.192308 2.115385 1.730769
v 0.576923 2.115385 1.730769
v -0.192308 1.346154 1.730769
v 0.576923 1.346154 1.730769
v 0.576923 2.115385 0.961538
v -0.192308 2.115385 0.961538
v 0.576923 1.346154 0.961538
v -0.192308 1.346154 0.961538
v 0.576923 2.115385 0.961538
v 0.576923 2.115385 1.730769
v -0.192308 2.115385 0.961538
v -0.192308 2.115385 1.730769
v -0.192308 1.346154 0.961538
v -0.192308 1.346154 1.730769
v 0.576923 1.346154 0.961538
v 0.576923 1.346154 1.730769
v -0.192308 2.115385 0.961538
v -0.192308 2.115385 1.730769
v -0.192308 1.346154 0.961538
v -0.192308 1.346154 1.730769
v 0.576923 2.115385 1.730769
v 0.576923 2.115385 0.961538
v 0.576923 1.346154 1.730769
v 0.576923 1.346154 0.961538
v -0.192308 2.884615 0.961538
v 0.576923 2.884615 0.961538
v -0.192308 2.115385 0.961538
v 0.576923 2.115385 0.961538
v 0.576923 2.884615 0.192308
v -0.192308 2.884615 0.192308
v 0.576923 2.115385 0.192308
v -0.192308 2.115385 0.192308
v 0.576923 2.884615 0.192308
v 0.576923 2.884615 0.961538
v -0.192308 2.884615 0.192308
v -0.192308 2.884615 0.961538
v -0.192308 2.115385 0.192308
v -0.192308 2.115385 0.961538
v 0.576923 2.115385 0.192308
v 0.576923 2.115385 0.961538
v -0.192308 2.884615 0.192308
v -0.192308 2.884615 0.961538
v -0.192308 2.115385 0.192308
v -0.192308 2.115385 0.961538
v 0.576923 2.884615 0.961538
v 0.576923 2.884615 0.192308
v 0.576923 2.115385 0.961538
v 0.576923 2.115385 0.192308
v -1.538461 2.307692 1.153846
v -0.769231 2.307692 1.153846
v -1.538461 1.153846 1.153846
v -0.769231 1.153846 1.153846
v -0.769231 2.307692 0.000000
v -1.538461 2.307692 0.000000
v -0.769231 1.153846 0.000000
v -1.538461 1.153846 0.000000
v -0.769231 2.307692 0.000000
v -0.769231 2.307692 1.153846
v -1.538461 2.307692 0.000000
v -1.538461 2.307692 1.153846
v -1.538461 1.153846 0.000000
v -1.538461 1.153846 1.153846
v -0.769231 1.153846 0.000000
v -0.769231 1.153846 1.153846
v -1.538461 2.307692 0.000000
v -1.538461 2.307692 1.153846
v -1.538461 1.153846 0.000000
v -1.538461 1.153846 1.153846
v -0.769231 2.307692 1.153846
v -0.769231 2.307692 0.000000
v -0.769231 1.153846 1.153846
v -0.769231 1.153846 0.000000
v -4.038461 2.307692 1.154615
v -2.500000 2.307692 1.154615
v -4.038461 1.153846 1.154615
v -2.500000 1.153846 1.154615
v -2.500000 2.307692 1.153846
v -4.038461 2.307692 1.153846
v -2.500000 1.153846 1.153846
v -4.038461 1.153846 1.153846
v -2.500000 2.307692 1.153846
v -2.500000 2.307692 1.154615
v -4.038461 2.307692 1.153846
v -4.038461 2.307692 1.154615
v -4.038461 1.153846 1.153846
v -4.038461 1.153846 1.154615
v -2.500000 1.153846 1.153846
v -2.500000 1.153846 1.154615
v -4.038461 2.307692 1.153846
v -4.038461 2.307692 1.154615
v -4.038461 1.153846 1.153846
v -4.038461 1.153846 1.154615
v -2.500000 2.307692 1.154615
v -2.500000 2.307692 1.153846
v -2.500000 1.153846 1.154615
v -2.500000 1.153846 1.153846
v -4.011538 2.300000 1.146154
v -3.950000 2.300000 1.146154
v -4.011538 1.161538 1.146154
v -3.950000 1.161538 1.146154
v -3.950000 2.300000 0.007692
v -4.011538 2.300000 0.007692
v -3.950000 1.161538 0.007692
v -4.011538 1.161538 0.007692
v -3.950000 2.300000 0.007692
v -3.950000 2.300000 1.146154
v -4.011538 2.300000 0.007692
v -4.011538 2.300000 1.146154
v -4.011538 1.161538 0.007692
v -4.011538 1.161538 1.146154
v -3.950000 1.161538 0.007692
v -3.950000 1.161538 1.146154
v -4.011538 2.300000 0.007692
v -4.011538 2.300000 1.146154
v -4.011538 1.161538 0.007692
v -4.011538 1.161538 1.146154
v -3.950000 2.300000 1.146154
v -3.950000 2.300000 0.007692
v -3.950000 1.161538 1.146154
v -3.950000 1.161538 0.007692
v -2.500769 2.307692 1.153846
v -2.500000 2.307692 1.153846
v -2.500769 1.153846 1.153846
v -2.500000 1.153846 1.153846
v -2.500000 2.307692 0.000000
v -2.500769 2.307692 0.000000
v -2.500000 1.153846 0.000000
v -2.500769 1.153846 0.000000
v -2.500000 2.307692 0.000000
v -2.500000 2.307692 1.153846
v -2.500769 2.307692 0.000000
v -2.500769 2.307692 1.153846
v -2.500769 1.153846 0.000000
v -2.500769 1.153846 1.153846
v -2.500000 1.153846 0.000000
v -2.500000 1.153846 1.153846
v -2.500769 2.307692 0.000000
v -2.500769 2.307692 1.153846
v -2.500769 1.153846 0.000000
v -2.500769 1.153846 1.153846
v -2.500000 2.307692 1.153846
v -2.500000 2.307692 0.000000
v -2.500000 1.153846 1.153846
v -2.500000 1.153846 0.000000
v -2.500000 2.211539 1.057692
v -1.730769 2.211539 1.057692
v -2.500000 1.250000 1.057692
v -1.730769 1.250000 1.057692
v -1.730769 2.211539 0.096154
v -2.500000 2.211539 0.096154
v -1.730769 1.250000 0.096154
v -2.500000 1.250000 0.096154
v -1.730769 2.211539 0.096154
v -1.730769 2.211539 1.057692
v -2.500000 2.211539 0.096154
v -2.500000 2.211539 1.057692
v -2.500000 1.250000 0.096154
v -2.500000 1.250000 1.057692
v -1.730769 1.250000 0.096154
v -1.730769 1.250000 1.057692
v -2.500000 2.211539 0.096154
v -2.500000 2.211539 1.057692
v -2.500000 1.250000 0.096154
v -2.500000 1.250000 1.057692
v -1.730769 2.211539 1.057692
v -1.730769 2.211539 0.096154
v -1.730769 1.250000 1.057692
v -1.730769 1.250000 0.096154
v -0.384615 2.307692 1.153846
v 0.769231 2.307692 1.153846
v -0.384615 1.153846 1.153846
v 0.769231 1.153846 1.153846
v 0.769231 2.307692 -0.000000
v -0.384615 2.307692 0.000000
v 0.769231 1.153846 -0.000000
v -0.384615 1.153846 0.000000
v 0.769231 2.307692 -0.000000
v 0.769231 2.307692 1.153846
v -0.384615 2.307692 0.000000
v -0.384615 2.307692 1.153846
v -0.384615 1.153846 0.000000
v -0.384615 1.153846 1.153846
v 0.769231 1.153846 -0.000000
v 0.769231 1.153846 1.153846
v -0.384615 2.307692 0.000000
v -0.384615 2.307692 1.153846
v -0.384615 1.153846 0.000000
v -0.384615 1.153846 1.153846
v 0.769231 2.307692 1.153846
v 0.769231 2.307692 -0.000000
v 0.769231 1.153846 1.153846
v 0.769231 1.153846 -0.000000
v -4.038461 1.154615 1.153846
v -2.500000 1.154615 1.153846
v -4.038461 1.153846 1.153846
v -2.500000 1.153846 1.153846
v -2.500000 1.154615 0.000000
v -4.038461 1.154615 0.000000
v -2.500000 1.153846 0.000000
v -4.038461 1.153846 0.000000
v -2.500000 1.154615 0.000000
v -2.500000 1.154615 1.153846
v -4.038461 1.154615 0.000000
v -4.038461 1.154615 1.153846
v -4.038461 1.153846 0.000000
v -4.038461 1.153846 1.153846
v -2.500000 1.153846 0.000000
v -2.500000 1.153846 1.153846
v -4.038461 1.154615 0.000000
v -4.038461 1.154615 1.153846
v -4.038461 1.153846 0.000000
v -4.038461 1.153846 1.153846
v -2.500000 1.154615 1.153846
v -2.500000 1.154615 0.000000
v -2.500000 1.153846 1.153846
v -2.500000 1.153846 0.000000
v -4.038461 2.307692 0.000769
v -2.500000 2.307692 0.000769
v -4.038461 1.153846 0.000769
v -2.500000 1.153846 0.000769
v -2.500000 2.307692 0.000000
v -4.038461 2.307692 0.000000
v -2.500000 1.153846 0.000000
v -4.038461 1.153846 0.000000
v -2.500000 2.307692 0.000000
v -2.500000 2.307692 0.000769
v -4.038461 2.307692 0.000000
v -4.038461 2.307692 0.000769
v -4.038461 1.153846 0.000000
v -4.038461 1.153846 0.000769
v -2.500000 1.153846 0.000000
v -2.500000 1.153846 0.000769
v -4.038461 2.307692 0.000000
v -4.038461 2.307692 0.000769
v -4.038461 1.153846 0.000000
v -4.038461 1.153846 0.000769
v -2.500000 2.307692 0.000769
v -2.500000 2.307692 0.000000
v -2.500000 1.153846 0.000769
v -2.500000 1.153846 0.000000
v -4.038461 2.308461 1.153846
v -2.500000 2.308461 1.153846
v -4.038461 2.307692 1.153846
v -2.500000 2.307692 1.153846
v -2.500000 2.308461 0.000000
v -4.038461 2.308461 0.000000
v -2.500000 2.307692 0.000000
v -4.038461 2.307692 0.000000
v -2.500000 2.308461 0.000000
v -2.500000 2.308461 1.153846
v -4.038461 2.308461 0.000000
v -4.038461 2.308461 1.153846
v -4.038461 2.307692 0.000000
v -4.038461 2.307692 1.153846
v -2.500000 2.307692 0.000000
v -2.500000 2.307692 1.153846
v -4.038461 2.308461 0.000000
v -4.038461 2.308461 1.153846
v -4.038461 2.307692 0.000000
v -4.038461 2.307692 1.153846
v -2.500000 2.308461 1.153846
v -2.500000 2.308461 0.000000
v -2.500000 2.307692 1.153846
v -2.500000 2.307692 0.000000
v -4.039230 2.307692 1.038462
v -4.038461 2.307692 1.038462
v -4.039230 2.192308 1.038462
v -4.038461 2.192308 1.038462
v -4.038461 2.307692 0.115385
v -4.039230 2.307692 0.115385
v -4.038461 2.192308 0.115385
v -4.039230 2.192308 0.115385
v -4.038461 2.307692 0.115385
v -4.038461 2.307692 1.038462
v -4.039230 2.307692 0.115385
v -4.039230 2.307692 1.038462
v -4.039230 2.192308 0.115385
v -4.039230 2.192308 1.038462
v -4.038461 2.192308 0.115385
v -4.038461 2.192308 1.038462
v -4.039230 2.307692 0.115385
v -4.039230 2.307692 1.038462
v -4.039230 2.192308 0.115385
v -4.039230 2.192308 1.038462
v -4.038461 2.307692 1.038462
v -4.038461 2.307692 0.115385
v -4.038461 2.192308 1.038462
v -4.038461 2.192308 0.115385
v -4.039230 2.307692 0.115385
v -4.038461 2.307692 0.115385
v -4.039230 1.153846 0.115385
v -4.038461 1.153846 0.115385
v -4.038461 2.307692 0.000000
v -4.039230 2.307692 0.000000
v -4.038461 1.153846 0.000000
v -4.039230 1.153846 0.000000
v -4.038461 2.307692 0.000000
v -4.038461 2.307692 0.115385
v -4.039230 2.307692 0.000000
v -4.039230 2.307692 0.115385
v -4.039230 1.153846 0.000000
v -4.039230 1.153846 0.115385
v -4.038461 1.153846 0.000000
v -4.038461 1.153846 0.115385
v -4.039230 2.307692 0.000000
v -4.039230 2.307692 0.115385
v -4.039230 1.153846 0.000000
v -4.039230 1.153846 0.115385
v -4.038461 2.307692 0.115385
v -4.038461 2.307692 0.000000
v -4.038461 1.153846 0.115385
v -4.038461 1.153846 0.000000
v -4.039230 1.269231 1.038462
v -4.038461 1.269231 1.038462
v -4.039230 1.153846 1.038462
v -4.038461 1.153846 1.038462
v -4.038461 1.269231 0.115385
v -4.039230 1.269231 0.115385
v -4.038461 1.153846 0.115385
v -4.039230 1.153846 0.115385
v -4.038461 1.269231 0.115385
v -4.038461 1.269231 1.038462
v -4.039230 1.269231 0.115385
v -4.039230 1.269231 1.038462
v -4.039230 1.153846 0.115385
v -4.039230 1.153846 1.038462
v -4.038461 1.153846 0.115385
v -4.038461 1.153846 1.038462
v -4.039230 1.269231 0.115385
v -4.039230 1.269231 1.038462
v -4.039230 1.153846 0.115385
v -4.039230 1.153846 1.038462
v -4.038461 1.269231 1.038462
v -4.038461 1.269231 0.115385
v -4.038461 1.153846 1.038462
v -4.038461 1.153846 0.115385
v -4.039230 2.307692 1.153846
v -4.038461 2.307692 1.153846
v -4.039230 1.153846 1.153846
v -4.038461 1.153846 1.153846
v -4.038461 2.307692 1.038462
v -4.039230 2.307692 1.038462
v -4.038461 1.153846 1.038462
v -4.039230 1.153846 1.038462
v -4.038461 2.307692 1.038462
v -4.038461 2.307692 1.153846
v -4.039230 2.307692 1.038462
v -4.039230 2.307692 1.153846
v -4.039230 1.153846 1.038462
v -4.039230 1.153846 1.153846
v -4.038461 1.153846 1.038462
v -4.038461 1.153846 1.153846
v -4.039230 2.307692 1.038462
v -4.039230 2.307692 1.153846
v -4.039230 1.153846 1.038462
v -4.039230 1.153846 1.153846
v -4.038461 2.307692 1.153846
v -4.038461 2.307692 1.038462
v -4.038461 1.153846 1.153846
v -4.038461 1.153846 1.038462
v -1.730769 1.730765 1.120852
v 3.653846 1.730765 1.120852
v -1.730769 1.186837 0.576923
v 3.653846 1.186837 0.576923
v 3.653846 2.274694 0.576923
v -1.730769 2.274694 0.576923
v 3.653846 1.730766 0.032995
v -1.730769 1.730766 0.032995
v 3.653846 2.274694 0.576923
v 3.653846 1.730765 1.120852
v -1.730769 2.274694 0.576923
v -1.730769 1.730765 1.120852
v -1.730769 1.730766 0.032995
v -1.730769 1.186837 0.576923
v 3.653846 1.730766 0.032995
v 3.653846 1.186837 0.576923
v -1.730769 2.274694 0.576923
v -1.730769 1.730765 1.120852
v -1.730769 1.730766 0.032995
v -1.730769 1.186837 0.576923
v 3.653846 1.730765 1.120852
v 3.653846 2.274694 0.576923
v 3.653846 1.186837 0.576923
v 3.653846 1.730766 0.032995
v -1.537692 1.922308 1.345384
v -0.770000 1.922308 1.345384
v -1.537692 1.539231 1.345384
v -0.770000 1.539231 1.345384
v -0.770000 1.922308 -0.383846
v -1.537692 1.922308 -0.383846
v -0.770000 1.539231 -0.383846
v -1.537692 1.539231 -0.383846
v -0.770000 1.922308 -0.383846
v -0.770000 1.922308 1.345384
v -1.537692 1.922308 -0.383846
v -1.537692 1.922308 1.345384
v -1.537692 1.539231 -0.383846
v -1.537692 1.539231 1.345384
v -0.770000 1.539231 -0.383846
v -0.770000 1.539231 1.345384
v -1.537692 1.922308 -0.383846
v -1.537692 1.922308 1.345384
v -1.537692 1.539231 -0.383846
v -1.537692 1.539231 1.345384
v -0.770000 1.922308 1.345384
v -0.770000 1.922308 -0.383846
v -0.770000 1.539231 1.345384
v -0.770000 1.539231 -0.383846
vn -0.0000 -0.0000 1.0000
vn -0.0000 -0.0000 -1.0000
vn -0.0000 1.0000 -0.0000
vn -0.0000 -1.0000 -0.0000
vn -1.0000 -0.0000 -0.0000
vn 1.0000 -0.0000 -0.0000
vn -0.0000 -0.7071 0.7071
vn -0.0000 0.7071 -0.7071
vn -0.0000 0.7071 0.7071
vn -0.0000 -0.7071 -0.7071
vt 0.375000 0.531250
vt 0.375000 0.515625
vt 0.406250 0.531250
vt 0.406250 0.515625
vt 0.468750 0.625000
vt 0.468750 0.609375
vt 0.500000 0.625000
vt 0.500000 0.609375
vt 0.062500 0.562500
vt 0.062500 0.593750
vt 0.000000 0.562500
vt 0.000000 0.593750
vt 0.468750 1.000000
vt 0.468750 0.968750
vt 0.406250 1.000000
vt 0.406250 0.968750
vt 0.437500 0.687500
vt 0.437500 0.671875
vt 0.500000 0.687500
vt 0.500000 0.671875
vt 0.312500 0.562500
vt 0.312500 0.546875
vt 0.375000 0.562500
vt 0.375000 0.546875
vt 0.156250 1.000000
vt 0.156250 0.968750
vt 0.281250 1.000000
vt 0.281250 0.968750
vt 0.156250 0.937500
vt 0.281250 0.937500
vt 0.265625 0.500000
vt 0.265625 0.625000
vt 0.250000 0.500000
vt 0.250000 0.625000
vt 0.390625 0.750000
vt 0.390625 0.625000
vt 0.375000 0.750000
vt 0.375000 0.625000
vt 0.468750 0.875000
vt 0.468750 0.843750
vt 0.484375 0.875000
vt 0.484375 0.843750
vt 0.125000 0.531250
vt 0.125000 0.500000
vt 0.140625 0.531250
vt 0.140625 0.500000
vt 0.140625 0.937500
vt 0.140625 0.875000
vt 0.000000 0.937500
vt 0.000000 0.875000
vt 0.000000 0.859375
vt 0.000000 1.000000
vt 0.406250 0.921875
vt 0.437500 0.968750
vt 0.437500 0.921875
vt 0.406250 0.906250
vt 0.406250 0.859375
vt 0.437500 0.906250
vt 0.437500 0.859375
vt 0.453125 0.812500
vt 0.453125 0.843750
vt 0.406250 0.812500
vt 0.406250 0.843750
vt 0.453125 0.750000
vt 0.453125 0.718750
vt 0.406250 0.750000
vt 0.406250 0.718750
vt 0.125000 0.687500
vt 0.125000 0.640625
vt 0.171875 0.687500
vt 0.171875 0.640625
vt 0.062500 0.687500
vt 0.062500 0.640625
vt 0.109375 0.687500
vt 0.109375 0.640625
vt 0.062500 0.531250
vt 0.093750 0.562500
vt 0.093750 0.531250
vt 0.437500 0.937500
vt 0.468750 0.937500
vt 0.468750 0.906250
vt 0.203125 0.500000
vt 0.203125 0.531250
vt 0.187500 0.500000
vt 0.187500 0.531250
vt 0.484375 0.812500
vt 0.484375 0.781250
vt 0.468750 0.812500
vt 0.468750 0.781250
vt 0.156250 0.531250
vt 0.156250 0.500000
vt 0.171875 0.531250
vt 0.171875 0.500000
vt 0.406250 0.562500
vt 0.437500 0.562500
vt 0.437500 0.531250
vt 0.468750 0.562500
vt 0.468750 0.531250
vt 0.031250 0.500000
vt 0.031250 0.531250
vt 0.000000 0.500000
vt 0.000000 0.531250
vt 0.500000 1.000000
vt 0.500000 0.968750
vt 0.437500 0.593750
vt 0.468750 0.593750
vt 0.437500 0.625000
vt 0.437500 0.875000
vt 0.437500 0.843750
vt 0.187500 0.562500
vt 0.156250 0.562500
vt 0.218750 0.562500
vt 0.218750 0.531250
vt 0.125000 0.562500
vt 0.281250 0.593750
vt 0.281250 0.546875
vt 0.312500 0.593750
vt 0.406250 0.671875
vt 0.437500 0.718750
vt 0.359375 0.562500
vt 0.359375 0.593750
vt 0.453125 0.656250
vt 0.453125 0.625000
vt 0.406250 0.656250
vt 0.406250 0.625000
vt 0.312500 0.812500
vt 0.312500 0.765625
vt 0.359375 0.812500
vt 0.359375 0.765625
vt 0.187500 0.687500
vt 0.187500 0.640625
vt 0.234375 0.687500
vt 0.234375 0.640625
vt 0.156250 0.890625
vt 0.218750 0.937500
vt 0.218750 0.890625
vt 0.062500 0.812500
vt 0.062500 0.765625
vt 0.125000 0.812500
vt 0.125000 0.765625
vt 0.000000 0.953125
vt 0.046875 1.000000
vt 0.312500 0.750000
vt 0.312500 0.703125
vt 0.359375 0.750000
vt 0.359375 0.703125
vt 0.250000 0.687500
vt 0.250000 0.640625
vt 0.296875 0.687500
vt 0.296875 0.640625
vt 0.125000 0.625000
vt 0.125000 0.578125
vt 0.171875 0.625000
vt 0.171875 0.578125
vt 0.062500 0.625000
vt 0.062500 0.578125
vt 0.109375 0.625000
vt 0.109375 0.578125
vt 0.375000 0.593750
vt 0.406250 0.593750
vt 0.406250 0.546875
vt 0.406250 0.578125
vt 0.437500 0.578125
vt 0.046875 0.531250
vt 0.046875 0.562500
vt 0.484375 0.968750
vt 0.484375 0.937500
vt 0.375000 0.812500
vt 0.375000 0.765625
vt 0.421875 0.812500
vt 0.421875 0.765625
vt 0.187500 0.625000
vt 0.187500 0.578125
vt 0.234375 0.625000
vt 0.234375 0.578125
vt 0.250000 0.812500
vt 0.250000 0.765625
vt 0.296875 0.812500
vt 0.296875 0.765625
vt 0.281250 0.953125
vt 0.328125 1.000000
vt 0.328125 0.953125
vt 0.328125 0.890625
vt 0.328125 0.937500
vt 0.281250 0.890625
vt 0.328125 0.875000
vt 0.328125 0.828125
vt 0.281250 0.875000
vt 0.281250 0.828125
vt 0.250000 0.750000
vt 0.250000 0.703125
vt 0.296875 0.750000
vt 0.296875 0.703125
vt 0.187500 0.750000
vt 0.187500 0.703125
vt 0.234375 0.750000
vt 0.234375 0.703125
vt 0.062500 1.000000
vt 0.171875 0.750000
vt 0.171875 0.812500
vt 0.125000 0.750000
vt 0.234375 0.812500
vt 0.187500 0.812500
vt 0.218750 0.875000
vt 0.218750 0.828125
vt 0.109375 0.750000
vt 0.062500 0.750000
vt 0.000000 0.984375
vt 0.031250 1.000000
vt 0.473437 0.750000
vt 0.473437 0.734375
vt 0.510938 0.750000
vt 0.510938 0.734375
vt 0.218750 0.515625
vt 0.250000 0.531250
vt 0.250000 0.515625
vt 0.015625 1.000000
vt 0.062500 0.484375
vt 0.078125 0.531250
vt 0.078125 0.484375
vt 0.031250 0.484375
vt 0.046875 0.484375
vt 0.281250 0.531250
vt 0.281250 0.515625
vt 0.312500 0.531250
vt 0.312500 0.515625
vt 0.093750 0.484375
vt 0.109375 0.531250
vt 0.109375 0.484375
vt 0.468750 0.890625
vt 0.484375 0.890625
vt 0.000000 0.843750
vt 0.218750 0.843750
vt 0.000000 0.812500
vt 0.218750 0.812500
vt 0.031250 0.593750
vt 0.031250 0.812500
vt 0.250000 0.562500
vt 0.437500 0.812500
vt 0.437500 0.781250
vt 0.343750 0.531250
vt 0.343750 0.515625
vt 0.468750 0.656250
vt 0.468750 0.640625
vt 0.500000 0.656250
vt 0.500000 0.640625
vt 0.343750 0.593750
vt 0.343750 0.625000
vt 0.281250 0.625000
vt 0.437500 0.703125
vt 0.500000 0.718750
vt 0.500000 0.703125
vt 0.437500 0.765625
vt 0.500000 0.781250
vt 0.500000 0.765625
s 0
usemtl Material_0
f 49/23/13 51/24/13 50/25/13
f 51/24/13 52/26/13 50/25/13
f 53/27/14 55/28/14 54/29/14
f 55/28/14 56/30/14 54/29/14
f 57/31/15 59/32/15 58/33/15
f 59/32/15 60/34/15 58/33/15
f 61/35/16 63/36/16 62/37/16
f 63/36/16 64/38/16 62/37/16
f 65/39/17 67/40/17 66/41/17
f 67/40/17 68/42/17 66/41/17
f 69/43/18 71/44/18 70/45/18
f 71/44/18 72/46/18 70/45/18
f 73/47/13 75/48/13 74/49/13
f 75/48/13 76/50/13 74/49/13
f 77/48/14 79/51/14 78/50/14
f 79/51/14 80/52/14 78/50/14
f 81/53/15 83/54/15 82/55/15
f 83/54/15 84/56/15 82/55/15
f 85/57/16 87/58/16 86/59/16
f 87/58/16 88/60/16 86/59/16
f 89/61/17 91/62/17 90/63/17
f 91/62/17 92/64/17 90/63/17
f 93/65/18 95/66/18 94/67/18
f 95/66/18 96/68/18 94/67/18
f 97/69/13 99/70/13 98/71/13
f 99/70/13 100/72/13 98/71/13
f 101/71/14 103/72/14 102/69/14
f 103/72/14 104/70/14 102/69/14
f 105/73/15 107/74/15 106/73/15
f 107/74/15 108/74/15 106/73/15
f 109/74/16 111/73/16 110/74/16
f 111/73/16 112/73/16 110/74/16
f 113/74/17 115/71/17 114/74/17
f 115/71/17 116/71/17 114/74/17
f 117/74/18 119/71/18 118/74/18
f 119/71/18 120/71/18 118/74/18
f 121/38/13 123/75/13 122/76/13
f 123/75/13 124/77/13 122/76/13
f 125/78/14 127/79/14 126/80/14
f 127/79/14 128/81/14 126/80/14
f 129/82/15 131/83/15 130/84/15
f 131/83/15 132/85/15 130/84/15
f 133/86/16 135/87/16 134/88/16
f 135/87/16 136/89/16 134/88/16
f 137/90/17 139/91/17 138/92/17
f 139/91/17 140/93/17 138/92/17
f 141/94/18 143/95/18 142/96/18
f 143/95/18 144/97/18 142/96/18
f 145/31/13 147/98/13 146/99/13
f 147/98/13 148/100/13 146/99/13
f 149/101/14 151/80/14 150/102/14
f 151/80/14 152/103/14 150/102/14
f 153/104/15 155/105/15 154/106/15
f 155/105/15 156/107/15 154/106/15
f 157/108/16 159/109/16 158/110/16
f 159/109/16 160/111/16 158/110/16
f 161/62/17 163/110/17 162/64/17
f 163/110/17 164/108/17 162/64/17
f 165/112/18 167/113/18 166/114/18
f 167/113/18 168/115/18 166/114/18
f 169/116/13 171/25/13 170/117/13
f 171/25/13 172/118/13 170/117/13
f 173/117/14 175/118/14 174/119/14
f 175/118/14 176/120/14 174/119/14
f 177/121/15 179/122/15 178/123/15
f 179/122/15 180/124/15 178/123/15
f 181/125/16 183/126/16 182/35/16
f 183/126/16 184/36/16 182/35/16
f 185/127/17 187/117/17 186/128/17
f 187/117/17 188/119/17 186/128/17
f 189/129/18 191/127/18 190/27/18
f 191/127/18 192/128/18 190/27/18
f 193/80/13 195/130/13 194/103/13
f 195/130/13 196/61/13 194/103/13
f 197/130/14 199/131/14 198/61/14
f 199/131/14 200/62/14 198/61/14
f 201/107/15 203/132/15 202/112/15
f 203/132/15 204/133/15 202/112/15
f 205/134/16 207/135/16 206/132/16
f 207/135/16 208/107/16 206/132/16
f 209/136/17 211/65/17 210/133/17
f 211/65/17 212/112/17 210/133/17
f 213/99/18 215/100/18 214/136/18
f 215/100/18 216/65/18 214/136/18
f 217/137/13 219/138/13 218/139/13
f 219/138/13 220/44/13 218/139/13
f 221/89/14 223/140/14 222/141/14
f 223/140/14 224/40/14 222/141/14
f 225/142/15 227/143/15 226/43/15
f 227/143/15 228/139/15 226/43/15
f 229/144/16 231/145/16 230/146/16
f 231/145/16 232/147/16 230/146/16
f 233/148/17 235/149/17 234/150/17
f 235/149/17 236/151/17 234/150/17
f 237/152/18 239/153/18 238/154/18
f 239/153/18 240/155/18 238/154/18
f 241/51/13 243/156/13 242/157/13
f 243/156/13 244/158/13 242/157/13
f 245/159/14 247/160/14 246/161/14
f 247/160/14 248/162/14 246/161/14
f 249/71/15 251/74/15 250/71/15
f 251/74/15 252/74/15 250/71/15
f 253/74/16 255/71/16 254/74/16
f 255/71/16 256/71/16 254/74/16
f 257/74/17 259/163/17 258/74/17
f 259/163/17 260/163/17 258/74/17
f 261/74/18 263/163/18 262/74/18
f 263/163/18 264/163/18 262/74/18
f 265/74/13 267/163/13 266/74/13
f 267/163/13 268/163/13 266/74/13
f 269/74/14 271/163/14 270/74/14
f 271/163/14 272/163/14 270/74/14
f 273/164/15 275/164/15 274/74/15
f 275/164/15 276/74/15 274/74/15
f 277/164/16 279/164/16 278/74/16
f 279/164/16 280/74/16 278/74/16
f 281/165/17 283/166/17 282/167/17
f 283/166/17 284/168/17 282/167/17
f 285/169/18 287/170/18 286/171/18
f 287/170/18 288/172/18 286/171/18
f 289/74/13 291/163/13 290/74/13
f 291/163/13 292/163/13 290/74/13
f 293/74/14 295/163/14 294/74/14
f 295/163/14 296/163/14 294/74/14
f 297/164/15 299/164/15 298/74/15
f 299/164/15 300/74/15 298/74/15
f 301/164/16 303/164/16 302/74/16
f 303/164/16 304/74/16 302/74/16
f 305/173/17 307/174/17 306/175/17
f 307/174/17 308/176/17 306/175/17
f 309/177/18 311/178/18 310/179/18
f 311/178/18 312/180/18 310/179/18
f 313/181/13 315/46/13 314/182/13
f 315/46/13 316/183/13 314/182/13
f 317/147/14 319/184/14 318/129/14
f 319/184/14 320/185/14 318/129/14
f 321/186/15 323/187/15 322/124/15
f 323/187/15 324/33/15 322/124/15
f 325/188/16 327/189/16 326/76/16
f 327/189/16 328/101/16 326/76/16
f 329/190/17 331/191/17 330/192/17
f 331/191/17 332/193/17 330/192/17
f 333/194/18 335/195/18 334/196/18
f 335/195/18 336/197/18 334/196/18
f 337/198/13 339/199/13 338/200/13
f 339/199/13 340/201/13 338/200/13
f 341/49/14 343/202/14 342/203/14
f 343/202/14 344/204/14 342/203/14
f 345/205/15 347/206/15 346/207/15
f 347/206/15 348/52/15 346/207/15
f 349/208/16 351/209/16 350/210/16
f 351/209/16 352/211/16 350/210/16
f 353/212/17 355/213/17 354/214/17
f 355/213/17 356/215/17 354/214/17
f 357/216/18 359/217/18 358/218/18
f 359/217/18 360/219/18 358/218/18
f 361/74/13 363/74/13 362/220/13
f 363/74/13 364/220/13 362/220/13
f 365/74/14 367/74/14 366/220/14
f 367/74/14 368/220/14 366/220/14
f 369/221/15 371/222/15 370/223/15
f 371/222/15 372/161/15 370/223/15
f 373/224/16 375/218/16 374/225/16
f 375/218/16 376/216/16 374/225/16
f 377/74/17 379/74/17 378/164/17
f 379/74/17 380/164/17 378/164/17
f 381/74/18 383/74/18 382/164/18
f 383/74/18 384/164/18 382/164/18
f 385/157/13 387/158/13 386/52/13
f 387/158/13 388/207/13 386/52/13
f 389/226/14 391/227/14 390/210/14
f 391/227/14 392/211/14 390/210/14
f 393/71/15 395/74/15 394/71/15
f 395/74/15 396/74/15 394/71/15
f 397/74/16 399/71/16 398/74/16
f 399/71/16 400/71/16 398/74/16
f 401/74/17 403/163/17 402/74/17
f 403/163/17 404/163/17 402/74/17
f 405/74/18 407/163/18 406/74/18
f 407/163/18 408/163/18 406/74/18
f 409/74/13 411/74/13 410/220/13
f 411/74/13 412/220/13 410/220/13
f 413/74/14 415/74/14 414/220/14
f 415/74/14 416/220/14 414/220/14
f 417/96/15 419/228/15 418/94/15
f 419/228/15 420/229/15 418/94/15
f 421/221/16 423/92/16 422/223/16
f 423/92/16 424/90/16 422/223/16
f 425/74/17 427/74/17 426/164/17
f 427/74/17 428/164/17 426/164/17
f 429/74/18 431/74/18 430/164/18
f 431/74/18 432/164/18 430/164/18
f 433/74/13 435/230/13 434/74/13
f 435/230/13 436/230/13 434/74/13
f 437/74/14 439/230/14 438/74/14
f 439/230/14 440/230/14 438/74/14
f 441/231/15 443/231/15 442/74/15
f 443/231/15 444/74/15 442/74/15
f 445/231/16 447/231/16 446/74/16
f 447/231/16 448/74/16 446/74/16
f 449/232/17 451/233/17 450/234/17
f 451/233/17 452/235/17 450/234/17
f 453/135/18 455/236/18 454/237/18
f 455/236/18 456/238/18 454/237/18
f 457/74/13 459/163/13 458/74/13
f 459/163/13 460/163/13 458/74/13
f 461/74/14 463/163/14 462/74/14
f 463/163/14 464/163/14 462/74/14
f 465/239/15 467/239/15 466/74/15
f 467/239/15 468/74/15 466/74/15
f 469/239/16 471/239/16 470/74/16
f 471/239/16 472/74/16 470/74/16
f 473/98/17 475/240/17 474/241/17
f 475/240/17 476/242/17 474/241/17
f 477/122/18 479/243/18 478/186/18
f 479/243/18 480/244/18 478/186/18
f 481/74/13 483/230/13 482/74/13
f 483/230/13 484/230/13 482/74/13
f 485/74/14 487/230/14 486/74/14
f 487/230/14 488/230/14 486/74/14
f 489/231/15 491/231/15 490/74/15
f 491/231/15 492/74/15 490/74/15
f 493/231/16 495/231/16 494/74/16
f 495/231/16 496/74/16 494/74/16
f 497/232/17 499/233/17 498/234/17
f 499/233/17 500/235/17 498/234/17
f 501/245/18 503/246/18 502/247/18
f 503/246/18 504/248/18 502/247/18
f 505/74/13 507/163/13 506/74/13
f 507/163/13 508/163/13 506/74/13
f 509/74/14 511/163/14 510/74/14
f 511/163/14 512/163/14 510/74/14
f 513/239/15 515/239/15 514/74/15
f 515/239/15 516/74/15 514/74/15
f 517/239/16 519/239/16 518/74/16
f 519/239/16 520/74/16 518/74/16
f 521/100/17 523/249/17 522/250/17
f 523/249/17 524/251/17 522/250/17
f 525/102/18 527/252/18 526/189/18
f 527/252/18 528/253/18 526/189/18
f 529/72/19 531/254/19 530/226/19
f 531/254/19 532/255/19 530/226/19
f 533/254/20 535/256/20 534/255/20
f 535/256/20 536/257/20 534/255/20
f 537/258/21 539/259/21 538/34/21
f 539/259/21 540/256/21 538/34/21
f 541/159/22 543/32/22 542/259/22
f 543/32/22 544/258/22 542/259/22
f 545/134/17 547/135/17 546/260/17
f 547/135/17 548/237/17 546/260/17
f 549/261/18 551/262/18 550/110/18
f 551/262/18 552/111/18 550/110/18
f 553/263/13 555/264/13 554/23/13
f 555/264/13 556/24/13 554/23/13
f 557/265/14 559/266/14 558/267/14
f 559/266/14 560/268/14 558/267/14
f 561/269/15 563/270/15 562/137/15
f 563/270/15 564/271/15 562/137/15
f 565/147/16 567/182/16 566/270/16
f 567/182/16 568/269/16 566/270/16
f 569/141/17 571/272/17 570/273/17
f 571/272/17 572/274/17 570/273/17
f 573/262/18 575/275/18 574/276/18
f 575/275/18 576/277/18 574/276/18
