# Blender 5.1.2
# www.blender.org
mtllib lev.targetring.mtl
o attachmentModel
v -1.538461 0.384615 0.576923
v 1.538461 0.384615 0.576923
v -1.538461 -0.192308 0.576923
v 1.538461 -0.192308 0.576923
v 1.538461 0.384615 -0.576923
v -1.538461 0.384615 -0.576923
v 1.538461 -0.192308 -0.576923
v -1.538461 -0.192308 -0.576923
v 1.538461 0.384615 -0.576923
v 1.538461 0.384615 0.576923
v -1.538461 0.384615 -0.576923
v -1.538461 0.384615 0.576923
v -1.538461 -0.192308 -0.576923
v -1.538461 -0.192308 0.576923
v 1.538461 -0.192308 -0.576923
v 1.538461 -0.192308 0.576923
v -1.538461 0.384615 -0.576923
v -1.538461 0.384615 0.576923
v -1.538461 -0.192308 -0.576923
v -1.538461 -0.192308 0.576923
v 1.538461 0.384615 0.576923
v 1.538461 0.384615 -0.576923
v 1.538461 -0.192308 0.576923
v 1.538461 -0.192308 -0.576923
v -0.384615 1.153846 0.577692
v 1.538461 1.153846 0.577692
v -0.384615 0.384615 0.577692
v 1.538461 0.384615 0.577692
v 1.538461 1.153846 0.576923
v -0.384615 1.153846 0.576923
v 1.538461 0.384615 0.576923
v -0.384615 0.384615 0.576923
v 1.538461 1.153846 0.576923
v 1.538461 1.153846 0.577692
v -0.384615 1.153846 0.576923
v -0.384615 1.153846 0.577692
v -0.384615 0.384615 0.576923
v -0.384615 0.384615 0.577692
v 1.538461 0.384615 0.576923
v 1.538461 0.384615 0.577692
v -0.384615 1.153846 0.576923
v -0.384615 1.153846 0.577692
v -0.384615 0.384615 0.576923
v -0.384615 0.384615 0.577692
v 1.538461 1.153846 0.577692
v 1.538461 1.153846 0.576923
v 1.538461 0.384615 0.577692
v 1.538461 0.384615 0.576923
v -0.384615 1.153846 -0.576154
v 1.538461 1.153846 -0.576154
v -0.384615 0.384615 -0.576154
v 1.538461 0.384615 -0.576154
v 1.538461 1.153846 -0.576923
v -0.384615 1.153846 -0.576923
v 1.538461 0.384615 -0.576923
v -0.384615 0.384615 -0.576923
v 1.538461 1.153846 -0.576923
v 1.538461 1.153846 -0.576154
v -0.384615 1.153846 -0.576923
v -0.384615 1.153846 -0.576154
v -0.384615 0.384615 -0.576923
v -0.384615 0.384615 -0.576154
v 1.538461 0.384615 -0.576923
v 1.538461 0.384615 -0.576154
v -0.384615 1.153846 -0.576923
v -0.384615 1.153846 -0.576154
v -0.384615 0.384615 -0.576923
v -0.384615 0.384615 -0.576154
v 1.538461 1.153846 -0.576154
v 1.538461 1.153846 -0.576923
v 1.538461 0.384615 -0.576154
v 1.538461 0.384615 -0.576923
v 0.192308 1.154615 0.576923
v 1.346154 1.154615 0.576923
v 0.192308 1.153846 0.576923
v 1.346154 1.153846 0.576923
v 1.346154 1.154615 -0.576923
v 0.192308 1.154615 -0.576923
v 1.346154 1.153846 -0.576923
v 0.192308 1.153846 -0.576923
v 1.346154 1.154615 -0.576923
v 1.346154 1.154615 0.576923
v 0.192308 1.154615 -0.576923
v 0.192308 1.154615 0.576923
v 0.192308 1.153846 -0.576923
v 0.192308 1.153846 0.576923
v 1.346154 1.153846 -0.576923
v 1.346154 1.153846 0.576923
v 0.192308 1.154615 -0.576923
v 0.192308 1.154615 0.576923
v 0.192308 1.153846 -0.576923
v 0.192308 1.153846 0.576923
v 1.346154 1.154615 0.576923
v 1.346154 1.154615 -0.576923
v 1.346154 1.153846 0.576923
v 1.346154 1.153846 -0.576923
vn -0.0000 -0.0000 1.0000
vn -0.0000 -0.0000 -1.0000
vn -0.0000 1.0000 -0.0000
vn -0.0000 -1.0000 -0.0000
vn -1.0000 -0.0000 -0.0000
vn 1.0000 -0.0000 -0.0000
vt 0.250000 0.812500
vt 0.250000 0.765625
vt 0.500000 0.812500
vt 0.500000 0.765625
vt 0.312500 0.750000
vt 0.312500 0.703125
vt 0.562500 0.750000
vt 0.562500 0.703125
vt 0.093750 0.750000
vt 0.093750 1.000000
vt 0.000000 0.750000
vt 0.000000 1.000000
vt 0.218750 1.000000
vt 0.218750 0.750000
vt 0.125000 1.000000
vt 0.125000 0.750000
vt 0.437500 1.000000
vt 0.437500 0.953125
vt 0.531250 1.000000
vt 0.531250 0.953125
vt 0.000000 0.562500
vt 0.000000 0.515625
vt 0.093750 0.562500
vt 0.093750 0.515625
vt 0.000000 0.687500
vt 0.156250 0.750000
vt 0.156250 0.687500
vt 0.250000 1.000000
vt 0.250000 0.937500
vt 0.406250 1.000000
vt 0.406250 0.937500
vt 0.000000 0.843750
vt 0.000000 0.937500
vt 0.250000 0.875000
vt 0.406250 0.875000
vt 0.406250 0.812500
vt 0.281250 0.656250
vt 0.281250 0.750000
vt 0.187500 0.656250
vt 0.187500 0.750000
vt 0.093750 0.687500
vt 0.093750 0.593750
vt 0.000000 0.593750
s 0
usemtl Material_0.001
f 1/1/1 3/2/1 2/3/1
f 3/2/1 4/4/1 2/3/1
f 5/5/2 7/6/2 6/7/2
f 7/6/2 8/8/2 6/7/2
f 9/9/3 11/10/3 10/11/3
f 11/10/3 12/12/3 10/11/3
f 13/13/4 15/14/4 14/15/4
f 15/14/4 16/16/4 14/15/4
f 17/17/5 19/18/5 18/19/5
f 19/18/5 20/20/5 18/19/5
f 21/21/6 23/22/6 22/23/6
f 23/22/6 24/24/6 22/23/6
f 25/11/1 27/25/1 26/26/1
f 27/25/1 28/27/1 26/26/1
f 29/28/2 31/29/2 30/30/2
f 31/29/2 32/31/2 30/30/2
f 33/32/3 35/12/3 34/32/3
f 35/12/3 36/12/3 34/32/3
f 37/12/4 39/32/4 38/12/4
f 39/32/4 40/32/4 38/12/4
f 41/12/5 43/33/5 42/12/5
f 43/33/5 44/33/5 42/12/5
f 45/12/6 47/33/6 46/12/6
f 47/33/6 48/33/6 46/12/6
f 49/29/1 51/34/1 50/31/1
f 51/34/1 52/35/1 50/31/1
f 53/34/2 55/1/2 54/35/2
f 55/1/2 56/36/2 54/35/2
f 57/32/3 59/12/3 58/32/3
f 59/12/3 60/12/3 58/32/3
f 61/12/4 63/32/4 62/12/4
f 63/32/4 64/32/4 62/12/4
f 65/12/5 67/33/5 66/12/5
f 67/33/5 68/33/5 66/12/5
f 69/12/6 71/33/6 70/12/6
f 71/33/6 72/33/6 70/12/6
f 73/12/1 75/12/1 74/10/1
f 75/12/1 76/10/1 74/10/1
f 77/12/2 79/12/2 78/10/2
f 79/12/2 80/10/2 78/10/2
f 81/37/3 83/38/3 82/39/3
f 83/38/3 84/40/3 82/39/3
f 85/41/4 87/42/4 86/25/4
f 87/42/4 88/43/4 86/25/4
f 89/12/5 91/12/5 90/10/5
f 91/12/5 92/10/5 90/10/5
f 93/12/6 95/12/6 94/10/6
f 95/12/6 96/10/6 94/10/6
o overlaySolidModel
v 0.960769 1.153846 0.576923
v 0.961538 1.153846 0.576923
v 0.960769 0.384615 0.576923
v 0.961538 0.384615 0.576923
v 0.961538 1.153846 -0.576923
v 0.960769 1.153846 -0.576923
v 0.961538 0.384615 -0.576923
v 0.960769 0.384615 -0.576923
v 0.961538 1.153846 -0.576923
v 0.961538 1.153846 0.576923
v 0.960769 1.153846 -0.576923
v 0.960769 1.153846 0.576923
v 0.960769 0.384615 -0.576923
v 0.960769 0.384615 0.576923
v 0.961538 0.384615 -0.576923
v 0.961538 0.384615 0.576923
v 0.960769 1.153846 -0.576923
v 0.960769 1.153846 0.576923
v 0.960769 0.384615 -0.576923
v 0.960769 0.384615 0.576923
v 0.961538 1.153846 0.576923
v 0.961538 1.153846 -0.576923
v 0.961538 0.384615 0.576923
v 0.961538 0.384615 -0.576923
vn -0.0000 -0.0000 1.0000
vn -0.0000 -0.0000 -1.0000
vn -0.0000 1.0000 -0.0000
vn -0.0000 -1.0000 -0.0000
vn -1.0000 -0.0000 -0.0000
vn 1.0000 -0.0000 -0.0000
vt 0.906250 0.062500
vt 0.906250 0.000000
vt 1.000000 0.062500
vt 1.000000 0.000000
s 0
usemtl Material_0.001
f 97/44/7 99/45/7 98/46/7
f 99/45/7 100/47/7 98/46/7
f 101/44/8 103/45/8 102/46/8
f 103/45/8 104/47/8 102/46/8
f 105/44/9 107/45/9 106/46/9
f 107/45/9 108/47/9 106/46/9
f 109/44/10 111/45/10 110/46/10
f 111/45/10 112/47/10 110/46/10
f 113/44/11 115/45/11 114/46/11
f 115/45/11 116/47/11 114/46/11
f 117/44/12 119/45/12 118/46/12
f 119/45/12 120/47/12 118/46/12
o scopeModel
v 0.961538 1.153846 0.576923
v 0.962308 1.153846 0.576923
v 0.961538 0.384615 0.576923
v 0.962308 0.384615 0.576923
v 0.962308 1.153846 -0.576923
v 0.961538 1.153846 -0.576923
v 0.962308 0.384615 -0.576923
v 0.961538 0.384615 -0.576923
v 0.962308 1.153846 -0.576923
v 0.962308 1.153846 0.576923
v 0.961538 1.153846 -0.576923
v 0.961538 1.153846 0.576923
v 0.961538 0.384615 -0.576923
v 0.961538 0.384615 0.576923
v 0.962308 0.384615 -0.576923
v 0.962308 0.384615 0.576923
v 0.961538 1.153846 -0.576923
v 0.961538 1.153846 0.576923
v 0.961538 0.384615 -0.576923
v 0.961538 0.384615 0.576923
v 0.962308 1.153846 0.576923
v 0.962308 1.153846 -0.576923
v 0.962308 0.384615 0.576923
v 0.962308 0.384615 -0.576923
vn -0.0000 -0.0000 1.0000
vn -0.0000 -0.0000 -1.0000
vn -0.0000 1.0000 -0.0000
vn -0.0000 -1.0000 -0.0000
vn -1.0000 -0.0000 -0.0000
vn 1.0000 -0.0000 -0.0000
vt 0.906250 0.062500
vt 0.906250 0.000000
vt 1.000000 0.062500
vt 1.000000 0.000000
s 0
usemtl Material_0.001
f 121/48/13 123/49/13 122/50/13
f 123/49/13 124/51/13 122/50/13
f 125/48/14 127/49/14 126/50/14
f 127/49/14 128/51/14 126/50/14
f 129/48/15 131/49/15 130/50/15
f 131/49/15 132/51/15 130/50/15
f 133/48/16 135/49/16 134/50/16
f 135/49/16 136/51/16 134/50/16
f 137/48/17 139/49/17 138/50/17
f 139/49/17 140/51/17 138/50/17
f 141/48/18 143/49/18 142/50/18
f 143/49/18 144/51/18 142/50/18
