# Blender 4.2.3 LTS
# www.blender.org
mtllib lev.pkcomp.mtl
o attachmentModel
v 0.000000 0.384615 0.384615
v 0.384615 0.384615 0.384615
v 0.000000 -0.384615 0.384615
v 0.384615 -0.384615 0.384615
v 0.384615 0.384615 -0.384615
v -0.000000 0.384615 -0.384615
v 0.384615 -0.384615 -0.384615
v -0.000000 -0.384615 -0.384615
v 0.384615 0.384615 -0.384615
v 0.384615 0.384615 0.384615
v -0.000000 0.384615 -0.384615
v 0.000000 0.384615 0.384615
v -0.000000 -0.384615 -0.384615
v 0.000000 -0.384615 0.384615
v 0.384615 -0.384615 -0.384615
v 0.384615 -0.384615 0.384615
v -0.000000 0.384615 -0.384615
v 0.000000 0.384615 0.384615
v -0.000000 -0.384615 -0.384615
v 0.000000 -0.384615 0.384615
v 0.384615 0.384615 0.384615
v 0.384615 0.384615 -0.384615
v 0.384615 -0.384615 0.384615
v 0.384615 -0.384615 -0.384615
v 1.537692 0.384615 0.384615
v 1.538461 0.384615 0.384615
v 1.537692 -0.384615 0.384615
v 1.538461 -0.384615 0.384615
v 1.538461 0.384615 -0.384616
v 1.537692 0.384615 -0.384616
v 1.538461 -0.384615 -0.384616
v 1.537692 -0.384615 -0.384616
v 1.538461 0.384615 -0.384616
v 1.538461 0.384615 0.384615
v 1.537692 0.384615 -0.384616
v 1.537692 0.384615 0.384615
v 1.537692 -0.384615 -0.384616
v 1.537692 -0.384615 0.384615
v 1.538461 -0.384615 -0.384616
v 1.538461 -0.384615 0.384615
v 1.537692 0.384615 -0.384616
v 1.537692 0.384615 0.384615
v 1.537692 -0.384615 -0.384616
v 1.537692 -0.384615 0.384615
v 1.538461 0.384615 0.384615
v 1.538461 0.384615 -0.384616
v 1.538461 -0.384615 0.384615
v 1.538461 -0.384615 -0.384616
v 0.000000 -0.383846 0.384615
v 1.538462 -0.383846 0.384615
v 0.000000 -0.384615 0.384615
v 1.538462 -0.384615 0.384615
v 1.538461 -0.383846 -0.384616
v -0.000000 -0.383846 -0.384615
v 1.538461 -0.384615 -0.384616
v -0.000000 -0.384615 -0.384615
v 1.538461 -0.383846 -0.384616
v 1.538462 -0.383846 0.384615
v -0.000000 -0.383846 -0.384615
v 0.000000 -0.383846 0.384615
v -0.000000 -0.384615 -0.384615
v 0.000000 -0.384615 0.384615
v 1.538461 -0.384615 -0.384616
v 1.538462 -0.384615 0.384615
v -0.000000 -0.383846 -0.384615
v 0.000000 -0.383846 0.384615
v -0.000000 -0.384615 -0.384615
v 0.000000 -0.384615 0.384615
v 1.538462 -0.383846 0.384615
v 1.538461 -0.383846 -0.384616
v 1.538462 -0.384615 0.384615
v 1.538461 -0.384615 -0.384616
v 0.000000 0.385385 0.384615
v 1.538462 0.385385 0.384615
v 0.000000 0.384615 0.384615
v 1.538462 0.384615 0.384615
v 1.538461 0.385385 -0.384616
v -0.000000 0.385385 -0.384615
v 1.538461 0.384615 -0.384616
v -0.000000 0.384615 -0.384615
v 1.538461 0.385385 -0.384616
v 1.538462 0.385385 0.384615
v -0.000000 0.385385 -0.384615
v 0.000000 0.385385 0.384615
v -0.000000 0.384615 -0.384615
v 0.000000 0.384615 0.384615
v 1.538461 0.384615 -0.384616
v 1.538462 0.384615 0.384615
v -0.000000 0.385385 -0.384615
v 0.000000 0.385385 0.384615
v -0.000000 0.384615 -0.384615
v 0.000000 0.384615 0.384615
v 1.538462 0.385385 0.384615
v 1.538461 0.385385 -0.384616
v 1.538462 0.384615 0.384615
v 1.538461 0.384615 -0.384616
v 0.000000 0.384615 0.385385
v 1.538462 0.384615 0.385384
v 0.000000 -0.384615 0.385385
v 1.538462 -0.384615 0.385384
v 1.538462 0.384615 0.384615
v 0.000000 0.384615 0.384615
v 1.538462 -0.384615 0.384615
v 0.000000 -0.384615 0.384615
v 1.538462 0.384615 0.384615
v 1.538462 0.384615 0.385384
v 0.000000 0.384615 0.384615
v 0.000000 0.384615 0.385385
v 0.000000 -0.384615 0.384615
v 0.000000 -0.384615 0.385385
v 1.538462 -0.384615 0.384615
v 1.538462 -0.384615 0.385384
v 0.000000 0.384615 0.384615
v 0.000000 0.384615 0.385385
v 0.000000 -0.384615 0.384615
v 0.000000 -0.384615 0.385385
v 1.538462 0.384615 0.385384
v 1.538462 0.384615 0.384615
v 1.538462 -0.384615 0.385384
v 1.538462 -0.384615 0.384615
v -0.000000 0.384615 -0.383846
v 1.538461 0.384615 -0.383846
v -0.000000 -0.384615 -0.383846
v 1.538461 -0.384615 -0.383846
v 1.538461 0.384615 -0.384616
v -0.000000 0.384615 -0.384615
v 1.538461 -0.384615 -0.384616
v -0.000000 -0.384615 -0.384615
v 1.538461 0.384615 -0.384616
v 1.538461 0.384615 -0.383846
v -0.000000 0.384615 -0.384615
v -0.000000 0.384615 -0.383846
v -0.000000 -0.384615 -0.384615
v -0.000000 -0.384615 -0.383846
v 1.538461 -0.384615 -0.384616
v 1.538461 -0.384615 -0.383846
v -0.000000 0.384615 -0.384615
v -0.000000 0.384615 -0.383846
v -0.000000 -0.384615 -0.384615
v -0.000000 -0.384615 -0.383846
v 1.538461 0.384615 -0.383846
v 1.538461 0.384615 -0.384616
v 1.538461 -0.384615 -0.383846
v 1.538461 -0.384615 -0.384616
vn -0.0000 -0.0000 1.0000
vn -0.0000 -0.0000 -1.0000
vn -0.0000 1.0000 -0.0000
vn -0.0000 -1.0000 -0.0000
vn -1.0000 -0.0000 -0.0000
vn 1.0000 -0.0000 -0.0000
vt 0.250000 0.500000
vt 0.250000 0.375000
vt 0.312500 0.500000
vt 0.312500 0.375000
vt 0.500000 0.750000
vt 0.500000 0.625000
vt 0.562500 0.750000
vt 0.562500 0.625000
vt 0.500000 0.437500
vt 0.500000 0.500000
vt 0.375000 0.437500
vt 0.375000 0.500000
vt 0.625000 0.625000
vt 0.625000 0.562500
vt 0.500000 0.562500
vt 0.125000 0.500000
vt 0.125000 0.375000
vt 0.000000 0.500000
vt 0.000000 0.375000
vt 0.000000 1.000000
vt 0.000000 0.875000
vt 0.125000 1.000000
vt 0.375000 0.625000
vt 0.375000 0.750000
vt 0.250000 1.000000
vt 0.125000 0.750000
vt 0.000000 0.750000
vt 0.250000 0.750000
vt 0.375000 1.000000
vt 0.125000 0.625000
vt 0.375000 0.875000
vt 0.625000 1.000000
vt 0.625000 0.875000
vt 0.625000 0.750000
s 0
usemtl Material_0
f 1/1/1 3/2/1 2/3/1
f 3/2/1 4/4/1 2/3/1
f 5/5/2 7/6/2 6/7/2
f 7/6/2 8/8/2 6/7/2
f 9/9/3 11/10/3 10/11/3
f 11/10/3 12/12/3 10/11/3
f 13/13/4 15/14/4 14/6/4
f 15/14/4 16/15/4 14/6/4
f 17/16/5 19/17/5 18/1/5
f 19/17/5 20/2/5 18/1/5
f 21/18/6 23/19/6 22/16/6
f 23/19/6 24/17/6 22/16/6
f 25/20/1 27/21/1 26/20/1
f 27/21/1 28/21/1 26/20/1
f 29/20/2 31/21/2 30/20/2
f 31/21/2 32/21/2 30/20/2
f 33/22/3 35/22/3 34/20/3
f 35/22/3 36/20/3 34/20/3
f 37/22/4 39/22/4 38/20/4
f 39/22/4 40/20/4 38/20/4
f 41/23/5 43/12/5 42/6/5
f 43/12/5 44/10/5 42/6/5
f 45/24/6 47/23/6 46/5/6
f 47/23/6 48/6/6 46/5/6
f 49/20/1 51/20/1 50/25/1
f 51/20/1 52/25/1 50/25/1
f 53/20/2 55/20/2 54/25/2
f 55/20/2 56/25/2 54/25/2
f 57/26/3 59/22/3 58/27/3
f 59/22/3 60/20/3 58/27/3
f 61/25/4 63/28/4 62/22/4
f 63/28/4 64/26/4 62/22/4
f 65/20/5 67/20/5 66/22/5
f 67/20/5 68/22/5 66/22/5
f 69/20/6 71/20/6 70/22/6
f 71/20/6 72/22/6 70/22/6
f 73/20/1 75/20/1 74/25/1
f 75/20/1 76/25/1 74/25/1
f 77/20/2 79/20/2 78/25/2
f 79/20/2 80/25/2 78/25/2
f 81/16/3 83/26/3 82/18/3
f 83/26/3 84/27/3 82/18/3
f 85/29/4 87/24/4 86/25/4
f 87/24/4 88/28/4 86/25/4
f 89/20/5 91/20/5 90/22/5
f 91/20/5 92/22/5 90/22/5
f 93/20/6 95/20/6 94/22/6
f 95/20/6 96/22/6 94/22/6
f 97/26/1 99/30/1 98/24/1
f 99/30/1 100/23/1 98/24/1
f 101/29/2 103/31/2 102/32/2
f 103/31/2 104/33/2 102/32/2
f 105/27/3 107/20/3 106/27/3
f 107/20/3 108/20/3 106/27/3
f 109/20/4 111/27/4 110/20/4
f 111/27/4 112/27/4 110/20/4
f 113/20/5 115/21/5 114/20/5
f 115/21/5 116/21/5 114/20/5
f 117/20/6 119/21/6 118/20/6
f 119/21/6 120/21/6 118/20/6
f 121/30/1 123/16/1 122/23/1
f 123/16/1 124/12/1 122/23/1
f 125/31/2 127/24/2 126/33/2
f 127/24/2 128/34/2 126/33/2
f 129/27/3 131/20/3 130/27/3
f 131/20/3 132/20/3 130/27/3
f 133/20/4 135/27/4 134/20/4
f 135/27/4 136/27/4 134/20/4
f 137/20/5 139/21/5 138/20/5
f 139/21/5 140/21/5 138/20/5
f 141/20/6 143/21/6 142/20/6
f 143/21/6 144/21/6 142/20/6
