# Blender 4.2.0
# www.blender.org
mtllib lev.supkac76251.mtl
o attachmentModel
v 1.153846 0.576923 0.576923
v 6.923077 0.576923 0.576922
v 1.153846 -0.576923 0.576923
v 6.923077 -0.576923 0.576922
v 6.923077 0.576923 -0.576924
v 1.153846 0.576923 -0.576923
v 6.923077 -0.576923 -0.576924
v 1.153846 -0.576923 -0.576923
v 6.923077 0.576923 -0.576924
v 6.923077 0.576923 0.576922
v 1.153846 0.576923 -0.576923
v 1.153846 0.576923 0.576923
v 1.153846 -0.576923 -0.576923
v 1.153846 -0.576923 0.576923
v 6.923077 -0.576923 -0.576924
v 6.923077 -0.576923 0.576922
v 1.153846 0.576923 -0.576923
v 1.153846 0.576923 0.576923
v 1.153846 -0.576923 -0.576923
v 1.153846 -0.576923 0.576923
v 6.923077 0.576923 0.576922
v 6.923077 0.576923 -0.576924
v 6.923077 -0.576923 0.576922
v 6.923077 -0.576923 -0.576924
v 6.923077 0.543928 -0.000001
v 7.307692 0.543928 -0.000002
v 6.923077 0.000000 0.543927
v 7.307692 0.000000 0.543927
v 7.307692 -0.000000 -0.543930
v 6.923077 -0.000000 -0.543930
v 7.307692 -0.543928 -0.000001
v 6.923077 -0.543928 -0.000001
v 7.307692 -0.000000 -0.543930
v 7.307692 0.543928 -0.000002
v 6.923077 -0.000000 -0.543930
v 6.923077 0.543928 -0.000001
v 6.923077 -0.543928 -0.000001
v 6.923077 0.000000 0.543927
v 7.307692 -0.543928 -0.000001
v 7.307692 0.000000 0.543927
v 6.923077 -0.000000 -0.543930
v 6.923077 0.543928 -0.000001
v 6.923077 -0.543928 -0.000001
v 6.923077 0.000000 0.543927
v 7.307692 0.543928 -0.000002
v 7.307692 -0.000000 -0.543930
v 7.307692 0.000000 0.543927
v 7.307692 -0.543928 -0.000001
v 0.000000 -0.000000 0.815892
v 1.153846 -0.000000 0.815892
v -0.000000 -0.815892 -0.000000
v 1.153846 -0.815892 -0.000000
v 1.153846 0.815892 -0.000000
v 0.000000 0.815892 0.000000
v 1.153846 0.000000 -0.815893
v -0.000000 0.000000 -0.815892
v 1.153846 0.815892 -0.000000
v 1.153846 -0.000000 0.815892
v 0.000000 0.815892 0.000000
v 0.000000 -0.000000 0.815892
v -0.000000 0.000000 -0.815892
v -0.000000 -0.815892 -0.000000
v 1.153846 0.000000 -0.815893
v 1.153846 -0.815892 -0.000000
v 0.000000 0.815892 0.000000
v 0.000000 -0.000000 0.815892
v -0.000000 0.000000 -0.815892
v -0.000000 -0.815892 -0.000000
v 1.153846 -0.000000 0.815892
v 1.153846 0.815892 -0.000000
v 1.153846 -0.815892 -0.000000
v 1.153846 0.000000 -0.815893
vn -0.0000 -0.0000 1.0000
vn -0.0000 -0.0000 -1.0000
vn -0.0000 1.0000 -0.0000
vn -0.0000 -1.0000 -0.0000
vn -1.0000 -0.0000 -0.0000
vn 1.0000 -0.0000 -0.0000
vn -0.0000 0.7071 0.7071
vn -0.0000 -0.7071 -0.7071
vn -0.0000 0.7071 -0.7071
vn -0.0000 -0.7071 0.7071
vt 0.468750 0.875000
vt 0.468750 0.781250
vt 0.000000 0.875000
vt 0.000000 0.781250
vt 0.093750 0.281250
vt 0.093750 0.750000
vt 0.000000 0.281250
vt 0.000000 0.750000
vt 0.218750 0.750000
vt 0.218750 0.281250
vt 0.125000 0.750000
vt 0.125000 0.281250
vt 0.250000 0.625000
vt 0.250000 0.531250
vt 0.343750 0.625000
vt 0.343750 0.531250
vt 0.250000 0.750000
vt 0.250000 0.656250
vt 0.343750 0.750000
vt 0.343750 0.656250
vt 0.437500 0.500000
vt 0.437500 0.437500
vt 0.468750 0.500000
vt 0.468750 0.437500
vt 0.500000 0.562500
vt 0.500000 0.500000
vt 0.531250 0.562500
vt 0.531250 0.500000
vt 0.562500 0.468750
vt 0.562500 0.500000
vt 0.500000 0.468750
vt 0.437500 0.406250
vt 0.375000 0.437500
vt 0.375000 0.406250
vt 0.500000 0.625000
vt 0.562500 0.625000
vt 0.562500 0.562500
vt 0.375000 0.500000
vt 0.375000 0.625000
vt 0.375000 0.531250
vt 0.468750 0.625000
vt 0.468750 0.531250
vt 0.500000 0.875000
vt 0.500000 0.781250
vt 0.593750 0.875000
vt 0.593750 0.781250
vt 0.343750 0.406250
vt 0.343750 0.500000
vt 0.250000 0.406250
vt 0.250000 0.500000
vt 0.593750 0.750000
vt 0.593750 0.656250
vt 0.500000 0.750000
vt 0.500000 0.656250
vt 0.500000 1.000000
vt 0.500000 0.906250
vt 0.593750 1.000000
vt 0.593750 0.906250
vt 0.375000 0.750000
vt 0.375000 0.656250
vt 0.468750 0.750000
vt 0.468750 0.656250
s 0
usemtl Material_0
f 1/1/1 3/2/1 2/3/1
f 3/2/1 4/4/1 2/3/1
f 5/3/2 7/4/2 6/1/2
f 7/4/2 8/2/2 6/1/2
f 9/5/3 11/6/3 10/7/3
f 11/6/3 12/8/3 10/7/3
f 13/9/4 15/10/4 14/11/4
f 15/10/4 16/12/4 14/11/4
f 17/13/5 19/14/5 18/15/5
f 19/14/5 20/16/5 18/15/5
f 21/17/6 23/18/6 22/19/6
f 23/18/6 24/20/6 22/19/6
f 25/21/7 27/22/7 26/23/7
f 27/22/7 28/24/7 26/23/7
f 29/25/8 31/26/8 30/27/8
f 31/26/8 32/28/8 30/27/8
f 33/29/9 35/30/9 34/31/9
f 35/30/9 36/26/9 34/31/9
f 37/22/10 39/32/10 38/33/10
f 39/32/10 40/34/10 38/33/10
f 41/35/5 43/25/5 42/36/5
f 43/25/5 44/37/5 42/36/5
f 45/38/6 47/33/6 46/21/6
f 47/33/6 48/22/6 46/21/6
f 49/39/10 51/40/10 50/41/10
f 51/40/10 52/42/10 50/41/10
f 53/43/9 55/44/9 54/45/9
f 55/44/9 56/46/9 54/45/9
f 57/47/7 59/48/7 58/49/7
f 59/48/7 60/50/7 58/49/7
f 61/51/8 63/52/8 62/53/8
f 63/52/8 64/54/8 62/53/8
f 65/55/5 67/56/5 66/57/5
f 67/56/5 68/58/5 66/57/5
f 69/59/6 71/60/6 70/61/6
f 71/60/6 72/62/6 70/61/6
