# Blender 4.4.3
# www.blender.org
mtllib lev.sr3msup.mtl
o attachmentModel
v 0.000000 0.576923 0.576923
v 8.461537 0.576923 0.576921
v 0.000000 -0.576923 0.576923
v 8.461537 -0.576923 0.576921
v 8.461537 0.576923 -0.576925
v -0.000000 0.576923 -0.576923
v 8.461537 -0.576923 -0.576925
v -0.000000 -0.576923 -0.576923
v 8.461537 0.576923 -0.576925
v 8.461537 0.576923 0.576921
v -0.000000 0.576923 -0.576923
v 0.000000 0.576923 0.576923
v -0.000000 -0.576923 -0.576923
v 0.000000 -0.576923 0.576923
v 8.461537 -0.576923 -0.576925
v 8.461537 -0.576923 0.576921
v -0.000000 0.576923 -0.576923
v 0.000000 0.576923 0.576923
v -0.000000 -0.576923 -0.576923
v 0.000000 -0.576923 0.576923
v 8.461537 0.576923 0.576921
v 8.461537 0.576923 -0.576925
v 8.461537 -0.576923 0.576921
v 8.461537 -0.576923 -0.576925
v 8.461537 0.815892 -0.000002
v 9.230768 0.815892 -0.000002
v 8.461537 0.000000 0.815891
v 9.230768 0.000000 0.815891
v 9.230768 -0.000000 -0.815894
v 8.461537 -0.000000 -0.815894
v 9.230768 -0.815892 -0.000002
v 8.461537 -0.815892 -0.000002
v 9.230768 -0.000000 -0.815894
v 9.230768 0.815892 -0.000002
v 8.461537 -0.000000 -0.815894
v 8.461537 0.815892 -0.000002
v 8.461537 -0.815892 -0.000002
v 8.461537 0.000000 0.815891
v 9.230768 -0.815892 -0.000002
v 9.230768 0.000000 0.815891
v 8.461537 -0.000000 -0.815894
v 8.461537 0.815892 -0.000002
v 8.461537 -0.815892 -0.000002
v 8.461537 0.000000 0.815891
v 9.230768 0.815892 -0.000002
v 9.230768 -0.000000 -0.815894
v 9.230768 0.000000 0.815891
v 9.230768 -0.815892 -0.000002
v 9.230768 0.384615 0.384613
v 9.231538 0.384615 0.384613
v 9.230768 -0.384615 0.384613
v 9.231538 -0.384615 0.384613
v 9.231538 0.384615 -0.384617
v 9.230768 0.384615 -0.384617
v 9.231538 -0.384615 -0.384617
v 9.230768 -0.384615 -0.384617
v 9.231538 0.384615 -0.384617
v 9.231538 0.384615 0.384613
v 9.230768 0.384615 -0.384617
v 9.230768 0.384615 0.384613
v 9.230768 -0.384615 -0.384617
v 9.230768 -0.384615 0.384613
v 9.231538 -0.384615 -0.384617
v 9.231538 -0.384615 0.384613
v 9.230768 0.384615 -0.384617
v 9.230768 0.384615 0.384613
v 9.230768 -0.384615 -0.384617
v 9.230768 -0.384615 0.384613
v 9.231538 0.384615 0.384613
v 9.231538 0.384615 -0.384617
v 9.231538 -0.384615 0.384613
v 9.231538 -0.384615 -0.384617
vn -0.0000 -0.0000 1.0000
vn -0.0000 -0.0000 -1.0000
vn -0.0000 1.0000 -0.0000
vn -0.0000 -1.0000 -0.0000
vn -1.0000 -0.0000 -0.0000
vn 1.0000 -0.0000 -0.0000
vn -0.0000 0.7071 0.7071
vn -0.0000 -0.7071 -0.7071
vn -0.0000 0.7071 -0.7071
vn -0.0000 -0.7071 0.7071
vt 0.000000 1.000000
vt 0.000000 0.906250
vt 0.687500 1.000000
vt 0.687500 0.906250
vt 0.000000 0.875000
vt 0.000000 0.781250
vt 0.687500 0.875000
vt 0.687500 0.781250
vt 0.093750 0.062500
vt 0.093750 0.750000
vt 0.000000 0.062500
vt 0.000000 0.750000
vt 0.218750 0.750000
vt 0.218750 0.062500
vt 0.125000 0.750000
vt 0.125000 0.062500
vt 0.250000 0.625000
vt 0.250000 0.531250
vt 0.343750 0.625000
vt 0.343750 0.531250
vt 0.250000 0.750000
vt 0.250000 0.656250
vt 0.343750 0.750000
vt 0.343750 0.656250
vt 0.250000 0.500000
vt 0.250000 0.406250
vt 0.312500 0.500000
vt 0.312500 0.406250
vt 0.500000 0.750000
vt 0.500000 0.656250
vt 0.562500 0.750000
vt 0.562500 0.656250
vt 0.406250 0.437500
vt 0.406250 0.500000
vt 0.312500 0.437500
vt 0.593750 0.625000
vt 0.593750 0.562500
vt 0.500000 0.625000
vt 0.500000 0.562500
vt 0.375000 0.625000
vt 0.375000 0.531250
vt 0.468750 0.625000
vt 0.468750 0.531250
vt 0.375000 0.750000
vt 0.375000 0.656250
vt 0.468750 0.750000
vt 0.468750 0.656250
vt 0.000000 0.937500
vt 0.062500 1.000000
vt 0.500000 0.500000
vt 0.562500 0.562500
vt 0.562500 0.500000
vt 0.437500 0.500000
vt 0.437500 0.437500
vt 0.500000 0.437500
s 0
usemtl Material_0
f 1/1/1 3/2/1 2/3/1
f 3/2/1 4/4/1 2/3/1
f 5/5/2 7/6/2 6/7/2
f 7/6/2 8/8/2 6/7/2
f 9/9/3 11/10/3 10/11/3
f 11/10/3 12/12/3 10/11/3
f 13/13/4 15/14/4 14/15/4
f 15/14/4 16/16/4 14/15/4
f 17/17/5 19/18/5 18/19/5
f 19/18/5 20/20/5 18/19/5
f 21/21/6 23/22/6 22/23/6
f 23/22/6 24/24/6 22/23/6
f 25/25/7 27/26/7 26/27/7
f 27/26/7 28/28/7 26/27/7
f 29/29/8 31/30/8 30/31/8
f 31/30/8 32/32/8 30/31/8
f 33/33/9 35/34/9 34/35/9
f 35/34/9 36/27/9 34/35/9
f 37/36/10 39/37/10 38/38/10
f 39/37/10 40/39/10 38/38/10
f 41/40/5 43/41/5 42/42/5
f 43/41/5 44/43/5 42/42/5
f 45/44/6 47/45/6 46/46/6
f 47/45/6 48/47/6 46/46/6
f 49/1/1 51/48/1 50/1/1
f 51/48/1 52/48/1 50/1/1
f 53/1/2 55/48/2 54/1/2
f 55/48/2 56/48/2 54/1/2
f 57/49/3 59/49/3 58/1/3
f 59/49/3 60/1/3 58/1/3
f 61/49/4 63/49/4 62/1/4
f 63/49/4 64/1/4 62/1/4
f 65/39/5 67/50/5 66/51/5
f 67/50/5 68/52/5 66/51/5
f 69/53/6 71/54/6 70/50/6
f 71/54/6 72/55/6 70/50/6
