# Blender 5.1.2
# www.blender.org
mtllib lev.dedal3x12.mtl
o attachmentModel
v -1.738461 0.384615 0.584615
v 1.738461 0.384615 0.584615
v -1.738461 0.000000 0.584615
v 1.738461 0.000000 0.584615
v 1.738461 0.384615 -0.584615
v -1.738461 0.384615 -0.584615
v 1.738461 0.000000 -0.584615
v -1.738461 0.000000 -0.584615
v 1.738461 0.384615 -0.584615
v 1.738461 0.384615 0.584615
v -1.738461 0.384615 -0.584615
v -1.738461 0.384615 0.584615
v -1.738461 0.000000 -0.584615
v -1.738461 0.000000 0.584615
v 1.738461 0.000000 -0.584615
v 1.738461 0.000000 0.584615
v -1.738461 0.384615 -0.584615
v -1.738461 0.384615 0.584615
v -1.738461 0.000000 -0.584615
v -1.738461 0.000000 0.584615
v 1.738461 0.384615 0.584615
v 1.738461 0.384615 -0.584615
v 1.738461 0.000000 0.584615
v 1.738461 0.000000 -0.584615
v -0.961538 0.961538 -0.006923
v 0.961538 0.961538 -0.006923
v -0.961538 0.192308 -0.006923
v 0.961538 0.192308 -0.006923
v 0.961538 0.961538 -0.007692
v -0.961538 0.961538 -0.007692
v 0.961538 0.192308 -0.007692
v -0.961538 0.192308 -0.007692
v 0.961538 0.961538 -0.007692
v 0.961538 0.961538 -0.006923
v -0.961538 0.961538 -0.007692
v -0.961538 0.961538 -0.006923
v -0.961538 0.192308 -0.007692
v -0.961538 0.192308 -0.006923
v 0.961538 0.192308 -0.007692
v 0.961538 0.192308 -0.006923
v -0.961538 0.961538 -0.007692
v -0.961538 0.961538 -0.006923
v -0.961538 0.192308 -0.007692
v -0.961538 0.192308 -0.006923
v 0.961538 0.961538 -0.006923
v 0.961538 0.961538 -0.007692
v 0.961538 0.192308 -0.006923
v 0.961538 0.192308 -0.007692
v 0.961538 2.500000 0.576923
v 1.730769 2.500000 0.576923
v 0.961538 1.346154 0.576923
v 1.730769 1.346154 0.576923
v 1.730769 2.500000 -0.576923
v 0.961538 2.500000 -0.576923
v 1.730769 1.346154 -0.576923
v 0.961538 1.346154 -0.576923
v 1.730769 2.500000 -0.576923
v 1.730769 2.500000 0.576923
v 0.961538 2.500000 -0.576923
v 0.961538 2.500000 0.576923
v 0.961538 1.346154 -0.576923
v 0.961538 1.346154 0.576923
v 1.730769 1.346154 -0.576923
v 1.730769 1.346154 0.576923
v 0.961538 2.500000 -0.576923
v 0.961538 2.500000 0.576923
v 0.961538 1.346154 -0.576923
v 0.961538 1.346154 0.576923
v 1.730769 2.500000 0.576923
v 1.730769 2.500000 -0.576923
v 1.730769 1.346154 0.576923
v 1.730769 1.346154 -0.576923
v 0.961538 2.116154 0.769231
v 1.730769 2.116154 0.769231
v 0.961538 1.730769 0.769231
v 1.730769 1.730769 0.769231
v 1.730769 2.116154 -0.769231
v 0.961538 2.116154 -0.769231
v 1.730769 1.730769 -0.769231
v 0.961538 1.730769 -0.769231
v 1.730769 2.116154 -0.769231
v 1.730769 2.116154 0.769231
v 0.961538 2.116154 -0.769231
v 0.961538 2.116154 0.769231
v 0.961538 1.730769 -0.769231
v 0.961538 1.730769 0.769231
v 1.730769 1.730769 -0.769231
v 1.730769 1.730769 0.769231
v 0.961538 2.116154 -0.769231
v 0.961538 2.116154 0.769231
v 0.961538 1.730769 -0.769231
v 0.961538 1.730769 0.769231
v 1.730769 2.116154 0.769231
v 1.730769 2.116154 -0.769231
v 1.730769 1.730769 0.769231
v 1.730769 1.730769 -0.769231
v -1.730769 2.116154 0.769231
v -0.961538 2.116154 0.769231
v -1.730769 1.730769 0.769231
v -0.961538 1.730769 0.769231
v -0.961538 2.116154 -0.769231
v -1.730769 2.116154 -0.769231
v -0.961538 1.730769 -0.769231
v -1.730769 1.730769 -0.769231
v -0.961538 2.116154 -0.769231
v -0.961538 2.116154 0.769231
v -1.730769 2.116154 -0.769231
v -1.730769 2.116154 0.769231
v -1.730769 1.730769 -0.769231
v -1.730769 1.730769 0.769231
v -0.961538 1.730769 -0.769231
v -0.961538 1.730769 0.769231
v -1.730769 2.116154 -0.769231
v -1.730769 2.116154 0.769231
v -1.730769 1.730769 -0.769231
v -1.730769 1.730769 0.769231
v -0.961538 2.116154 0.769231
v -0.961538 2.116154 -0.769231
v -0.961538 1.730769 0.769231
v -0.961538 1.730769 -0.769231
v -0.000001 2.467003 -0.576923
v 0.543927 1.923075 -0.576923
v -0.543930 1.923075 -0.576923
v -0.000002 1.379147 -0.576923
v 0.543927 1.923075 -0.961538
v -0.000001 2.467003 -0.961538
v -0.000002 1.379147 -0.961538
v -0.543930 1.923075 -0.961538
v 0.543927 1.923075 -0.961538
v 0.543927 1.923075 -0.576923
v -0.000001 2.467003 -0.961538
v -0.000001 2.467003 -0.576923
v -0.543930 1.923075 -0.961538
v -0.543930 1.923075 -0.576923
v -0.000002 1.379147 -0.961538
v -0.000002 1.379147 -0.576923
v -0.000001 2.467003 -0.961538
v -0.000001 2.467003 -0.576923
v -0.543930 1.923075 -0.961538
v -0.543930 1.923075 -0.576923
v 0.543927 1.923075 -0.576923
v 0.543927 1.923075 -0.961538
v -0.000002 1.379147 -0.576923
v -0.000002 1.379147 -0.961538
v -0.000001 2.467003 1.153846
v 0.543927 1.923075 1.153846
v -0.543930 1.923075 1.153846
v -0.000002 1.379147 1.153846
v 0.543927 1.923075 0.384615
v -0.000001 2.467003 0.384615
v -0.000002 1.379147 0.384615
v -0.543930 1.923075 0.384615
v 0.543927 1.923075 0.384615
v 0.543927 1.923075 1.153846
v -0.000001 2.467003 0.384615
v -0.000001 2.467003 1.153846
v -0.543930 1.923075 0.384615
v -0.543930 1.923075 1.153846
v -0.000002 1.379147 0.384615
v -0.000002 1.379147 1.153846
v -0.000001 2.467003 0.384615
v -0.000001 2.467003 1.153846
v -0.543930 1.923075 0.384615
v -0.543930 1.923075 1.153846
v 0.543927 1.923075 1.153846
v 0.543927 1.923075 0.384615
v -0.000002 1.379147 1.153846
v -0.000002 1.379147 0.384615
v -3.461538 1.890082 -0.576923
v -2.692307 1.890082 -0.576923
v -3.461538 1.346154 -0.032995
v -2.692307 1.346154 -0.032995
v -2.692307 1.346154 -1.120851
v -3.461538 1.346154 -1.120851
v -2.692307 0.802225 -0.576923
v -3.461538 0.802225 -0.576923
v -2.692307 1.346154 -1.120851
v -2.692307 1.890082 -0.576923
v -3.461538 1.346154 -1.120851
v -3.461538 1.890082 -0.576923
v -3.461538 0.802225 -0.576923
v -3.461538 1.346154 -0.032995
v -2.692307 0.802225 -0.576923
v -2.692307 1.346154 -0.032995
v -3.461538 1.346154 -1.120851
v -3.461538 1.890082 -0.576923
v -3.461538 0.802225 -0.576923
v -3.461538 1.346154 -0.032995
v -2.692307 1.890082 -0.576923
v -2.692307 1.346154 -1.120851
v -2.692307 1.346154 -0.032995
v -2.692307 0.802225 -0.576923
v -3.846153 2.195041 -0.848888
v -2.692307 2.195041 -0.848888
v -3.846153 1.923077 -0.576923
v -2.692307 1.923077 -0.576923
v -2.692307 1.923077 -1.120852
v -3.846153 1.923077 -1.120852
v -2.692307 1.651113 -0.848887
v -3.846153 1.651113 -0.848887
v -2.692307 1.923077 -1.120852
v -2.692307 2.195041 -0.848888
v -3.846153 1.923077 -1.120852
v -3.846153 2.195041 -0.848888
v -3.846153 1.651113 -0.848887
v -3.846153 1.923077 -0.576923
v -2.692307 1.651113 -0.848887
v -2.692307 1.923077 -0.576923
v -3.846153 1.923077 -1.120852
v -3.846153 2.195041 -0.848888
v -3.846153 1.651113 -0.848887
v -3.846153 1.923077 -0.576923
v -2.692307 2.195041 -0.848888
v -2.692307 1.923077 -1.120852
v -2.692307 1.923077 -0.576923
v -2.692307 1.651113 -0.848887
v -0.543925 3.076923 -0.000000
v 0.000004 3.076923 0.543928
v -0.543925 2.307692 -0.000000
v 0.000004 2.307692 0.543928
v 0.543932 3.076923 0.000000
v 0.000004 3.076923 -0.543928
v 0.543932 2.307692 0.000000
v 0.000004 2.307692 -0.543928
v 0.543932 3.076923 0.000000
v 0.000004 3.076923 0.543928
v 0.000004 3.076923 -0.543928
v -0.543925 3.076923 -0.000000
v 0.000004 2.307692 -0.543928
v -0.543925 2.307692 -0.000000
v 0.543932 2.307692 0.000000
v 0.000004 2.307692 0.543928
v 0.000004 3.076923 -0.543928
v -0.543925 3.076923 -0.000000
v 0.000004 2.307692 -0.543928
v -0.543925 2.307692 -0.000000
v 0.000004 3.076923 0.543928
v 0.543932 3.076923 0.000000
v 0.000004 2.307692 0.543928
v 0.543932 2.307692 0.000000
v -0.576923 2.500000 0.576923
v 0.576923 2.500000 0.576923
v -0.576923 1.346154 0.576923
v 0.576923 1.346154 0.576923
v 0.576923 2.500000 -0.576923
v -0.576923 2.500000 -0.576923
v 0.576923 1.346154 -0.576923
v -0.576923 1.346154 -0.576923
v 0.576923 2.500000 -0.576923
v 0.576923 2.500000 0.576923
v -0.576923 2.500000 -0.576923
v -0.576923 2.500000 0.576923
v -0.576923 1.346154 -0.576923
v -0.576923 1.346154 0.576923
v 0.576923 1.346154 -0.576923
v 0.576923 1.346154 0.576923
v -0.576923 2.500000 -0.576923
v -0.576923 2.500000 0.576923
v -0.576923 1.346154 -0.576923
v -0.576923 1.346154 0.576923
v 0.576923 2.500000 0.576923
v 0.576923 2.500000 -0.576923
v 0.576923 1.346154 0.576923
v 0.576923 1.346154 -0.576923
v -1.730769 2.500000 0.576923
v -0.961538 2.500000 0.576923
v -1.730769 1.346154 0.576923
v -0.961538 1.346154 0.576923
v -0.961538 2.500000 -0.576923
v -1.730769 2.500000 -0.576923
v -0.961538 1.346154 -0.576923
v -1.730769 1.346154 -0.576923
v -0.961538 2.500000 -0.576923
v -0.961538 2.500000 0.576923
v -1.730769 2.500000 -0.576923
v -1.730769 2.500000 0.576923
v -1.730769 1.346154 -0.576923
v -1.730769 1.346154 0.576923
v -0.961538 1.346154 -0.576923
v -0.961538 1.346154 0.576923
v -1.730769 2.500000 -0.576923
v -1.730769 2.500000 0.576923
v -1.730769 1.346154 -0.576923
v -1.730769 1.346154 0.576923
v -0.961538 2.500000 0.576923
v -0.961538 2.500000 -0.576923
v -0.961538 1.346154 0.576923
v -0.961538 1.346154 -0.576923
v -4.212307 2.500000 0.576923
v -4.211538 2.500000 0.576923
v -4.212307 1.346154 0.576923
v -4.211538 1.346154 0.576923
v -4.211538 2.500000 -0.576923
v -4.212307 2.500000 -0.576923
v -4.211538 1.346154 -0.576923
v -4.212307 1.346154 -0.576923
v -4.211538 2.500000 -0.576923
v -4.211538 2.500000 0.576923
v -4.212307 2.500000 -0.576923
v -4.212307 2.500000 0.576923
v -4.212307 1.346154 -0.576923
v -4.212307 1.346154 0.576923
v -4.211538 1.346154 -0.576923
v -4.211538 1.346154 0.576923
v -4.212307 2.500000 -0.576923
v -4.212307 2.500000 0.576923
v -4.212307 1.346154 -0.576923
v -4.212307 1.346154 0.576923
v -4.211538 2.500000 0.576923
v -4.211538 2.500000 -0.576923
v -4.211538 1.346154 0.576923
v -4.211538 1.346154 -0.576923
v -4.230769 1.346923 0.576923
v -1.923077 1.346923 0.576923
v -4.230769 1.346154 0.576923
v -1.923077 1.346154 0.576923
v -1.923077 1.346923 -0.576923
v -4.230769 1.346923 -0.576923
v -1.923077 1.346154 -0.576923
v -4.230769 1.346154 -0.576923
v -1.923077 1.346923 -0.576923
v -1.923077 1.346923 0.576923
v -4.230769 1.346923 -0.576923
v -4.230769 1.346923 0.576923
v -4.230769 1.346154 -0.576923
v -4.230769 1.346154 0.576923
v -1.923077 1.346154 -0.576923
v -1.923077 1.346154 0.576923
v -4.230769 1.346923 -0.576923
v -4.230769 1.346923 0.576923
v -4.230769 1.346154 -0.576923
v -4.230769 1.346154 0.576923
v -1.923077 1.346923 0.576923
v -1.923077 1.346923 -0.576923
v -1.923077 1.346154 0.576923
v -1.923077 1.346154 -0.576923
v -4.230769 2.500000 0.577692
v -1.923077 2.500000 0.577692
v -4.230769 1.346154 0.577692
v -1.923077 1.346154 0.577692
v -1.923077 2.500000 0.576923
v -4.230769 2.500000 0.576923
v -1.923077 1.346154 0.576923
v -4.230769 1.346154 0.576923
v -1.923077 2.500000 0.576923
v -1.923077 2.500000 0.577692
v -4.230769 2.500000 0.576923
v -4.230769 2.500000 0.577692
v -4.230769 1.346154 0.576923
v -4.230769 1.346154 0.577692
v -1.923077 1.346154 0.576923
v -1.923077 1.346154 0.577692
v -4.230769 2.500000 0.576923
v -4.230769 2.500000 0.577692
v -4.230769 1.346154 0.576923
v -4.230769 1.346154 0.577692
v -1.923077 2.500000 0.577692
v -1.923077 2.500000 0.576923
v -1.923077 1.346154 0.577692
v -1.923077 1.346154 0.576923
v -4.230769 2.500000 -0.576154
v -1.923077 2.500000 -0.576154
v -4.230769 1.346154 -0.576154
v -1.923077 1.346154 -0.576154
v -1.923077 2.500000 -0.576923
v -4.230769 2.500000 -0.576923
v -1.923077 1.346154 -0.576923
v -4.230769 1.346154 -0.576923
v -1.923077 2.500000 -0.576923
v -1.923077 2.500000 -0.576154
v -4.230769 2.500000 -0.576923
v -4.230769 2.500000 -0.576154
v -4.230769 1.346154 -0.576923
v -4.230769 1.346154 -0.576154
v -1.923077 1.346154 -0.576923
v -1.923077 1.346154 -0.576154
v -4.230769 2.500000 -0.576923
v -4.230769 2.500000 -0.576154
v -4.230769 1.346154 -0.576923
v -4.230769 1.346154 -0.576154
v -1.923077 2.500000 -0.576154
v -1.923077 2.500000 -0.576923
v -1.923077 1.346154 -0.576154
v -1.923077 1.346154 -0.576923
v -4.230769 2.500769 0.576923
v -1.923077 2.500769 0.576923
v -4.230769 2.500000 0.576923
v -1.923077 2.500000 0.576923
v -1.923077 2.500769 -0.576923
v -4.230769 2.500769 -0.576923
v -1.923077 2.500000 -0.576923
v -4.230769 2.500000 -0.576923
v -1.923077 2.500769 -0.576923
v -1.923077 2.500769 0.576923
v -4.230769 2.500769 -0.576923
v -4.230769 2.500769 0.576923
v -4.230769 2.500000 -0.576923
v -4.230769 2.500000 0.576923
v -1.923077 2.500000 -0.576923
v -1.923077 2.500000 0.576923
v -4.230769 2.500769 -0.576923
v -4.230769 2.500769 0.576923
v -4.230769 2.500000 -0.576923
v -4.230769 2.500000 0.576923
v -1.923077 2.500769 0.576923
v -1.923077 2.500769 -0.576923
v -1.923077 2.500000 0.576923
v -1.923077 2.500000 -0.576923
v -1.923846 2.500000 0.576923
v -1.923077 2.500000 0.576923
v -1.923846 1.346154 0.576923
v -1.923077 1.346154 0.576923
v -1.923077 2.500000 -0.576923
v -1.923846 2.500000 -0.576923
v -1.923077 1.346154 -0.576923
v -1.923846 1.346154 -0.576923
v -1.923077 2.500000 -0.576923
v -1.923077 2.500000 0.576923
v -1.923846 2.500000 -0.576923
v -1.923846 2.500000 0.576923
v -1.923846 1.346154 -0.576923
v -1.923846 1.346154 0.576923
v -1.923077 1.346154 -0.576923
v -1.923077 1.346154 0.576923
v -1.923846 2.500000 -0.576923
v -1.923846 2.500000 0.576923
v -1.923846 1.346154 -0.576923
v -1.923846 1.346154 0.576923
v -1.923077 2.500000 0.576923
v -1.923077 2.500000 -0.576923
v -1.923077 1.346154 0.576923
v -1.923077 1.346154 -0.576923
v -4.231538 2.500000 -0.461538
v -4.230769 2.500000 -0.461538
v -4.231538 1.346154 -0.461538
v -4.230769 1.346154 -0.461538
v -4.230769 2.500000 -0.576923
v -4.231538 2.500000 -0.576923
v -4.230769 1.346154 -0.576923
v -4.231538 1.346154 -0.576923
v -4.230769 2.500000 -0.576923
v -4.230769 2.500000 -0.461538
v -4.231538 2.500000 -0.576923
v -4.231538 2.500000 -0.461538
v -4.231538 1.346154 -0.576923
v -4.231538 1.346154 -0.461538
v -4.230769 1.346154 -0.576923
v -4.230769 1.346154 -0.461538
v -4.231538 2.500000 -0.576923
v -4.231538 2.500000 -0.461538
v -4.231538 1.346154 -0.576923
v -4.231538 1.346154 -0.461538
v -4.230769 2.500000 -0.461538
v -4.230769 2.500000 -0.576923
v -4.230769 1.346154 -0.461538
v -4.230769 1.346154 -0.576923
v -4.231538 2.500000 0.576923
v -4.230769 2.500000 0.576923
v -4.231538 1.346154 0.576923
v -4.230769 1.346154 0.576923
v -4.230769 2.500000 0.461539
v -4.231538 2.500000 0.461539
v -4.230769 1.346154 0.461539
v -4.231538 1.346154 0.461539
v -4.230769 2.500000 0.461539
v -4.230769 2.500000 0.576923
v -4.231538 2.500000 0.461539
v -4.231538 2.500000 0.576923
v -4.231538 1.346154 0.461539
v -4.231538 1.346154 0.576923
v -4.230769 1.346154 0.461539
v -4.230769 1.346154 0.576923
v -4.231538 2.500000 0.461539
v -4.231538 2.500000 0.576923
v -4.231538 1.346154 0.461539
v -4.231538 1.346154 0.576923
v -4.230769 2.500000 0.576923
v -4.230769 2.500000 0.461539
v -4.230769 1.346154 0.576923
v -4.230769 1.346154 0.461539
v -4.231538 1.461538 0.461539
v -4.230769 1.461538 0.461539
v -4.231538 1.346154 0.461539
v -4.230769 1.346154 0.461539
v -4.230769 1.461538 -0.461538
v -4.231538 1.461538 -0.461538
v -4.230769 1.346154 -0.461538
v -4.231538 1.346154 -0.461538
v -4.230769 1.461538 -0.461538
v -4.230769 1.461538 0.461539
v -4.231538 1.461538 -0.461538
v -4.231538 1.461538 0.461539
v -4.231538 1.346154 -0.461538
v -4.231538 1.346154 0.461539
v -4.230769 1.346154 -0.461538
v -4.230769 1.346154 0.461539
v -4.231538 1.461538 -0.461538
v -4.231538 1.461538 0.461539
v -4.231538 1.346154 -0.461538
v -4.231538 1.346154 0.461539
v -4.230769 1.461538 0.461539
v -4.230769 1.461538 -0.461538
v -4.230769 1.346154 0.461539
v -4.230769 1.346154 -0.461538
v -4.231538 2.500000 0.461539
v -4.230769 2.500000 0.461539
v -4.231538 2.384615 0.461539
v -4.230769 2.384615 0.461539
v -4.230769 2.500000 -0.461538
v -4.231538 2.500000 -0.461538
v -4.230769 2.384615 -0.461538
v -4.231538 2.384615 -0.461538
v -4.230769 2.500000 -0.461538
v -4.230769 2.500000 0.461539
v -4.231538 2.500000 -0.461538
v -4.231538 2.500000 0.461539
v -4.231538 2.384615 -0.461538
v -4.231538 2.384615 0.461539
v -4.230769 2.384615 -0.461538
v -4.230769 2.384615 0.461539
v -4.231538 2.500000 -0.461538
v -4.231538 2.500000 0.461539
v -4.231538 2.384615 -0.461538
v -4.231538 2.384615 0.461539
v -4.230769 2.500000 0.461539
v -4.230769 2.500000 -0.461538
v -4.230769 2.384615 0.461539
v -4.230769 2.384615 -0.461538
v 1.923077 2.500000 0.576923
v 3.076923 2.500000 0.576923
v 1.923077 1.346154 0.576923
v 3.076923 1.346154 0.576923
v 3.076923 2.500000 -0.576923
v 1.923077 2.500000 -0.576923
v 3.076923 1.346154 -0.576923
v 1.923077 1.346154 -0.576923
v 3.076923 2.500000 -0.576923
v 3.076923 2.500000 0.576923
v 1.923077 2.500000 -0.576923
v 1.923077 2.500000 0.576923
v 1.923077 1.346154 -0.576923
v 1.923077 1.346154 0.576923
v 3.076923 1.346154 -0.576923
v 3.076923 1.346154 0.576923
v 1.923077 2.500000 -0.576923
v 1.923077 2.500000 0.576923
v 1.923077 1.346154 -0.576923
v 1.923077 1.346154 0.576923
v 3.076923 2.500000 0.576923
v 3.076923 2.500000 -0.576923
v 3.076923 1.346154 0.576923
v 3.076923 1.346154 -0.576923
v 3.076923 2.692308 0.769231
v 5.000000 2.692308 0.769231
v 3.076923 1.153846 0.769231
v 5.000000 1.153846 0.769231
v 5.000000 2.692308 -0.769231
v 3.076923 2.692308 -0.769231
v 5.000000 1.153846 -0.769231
v 3.076923 1.153846 -0.769231
v 5.000000 2.692308 -0.769231
v 5.000000 2.692308 0.769231
v 3.076923 2.692308 -0.769231
v 3.076923 2.692308 0.769231
v 3.076923 1.153846 -0.769231
v 3.076923 1.153846 0.769231
v 5.000000 1.153846 -0.769231
v 5.000000 1.153846 0.769231
v 3.076923 2.692308 -0.769231
v 3.076923 2.692308 0.769231
v 3.076923 1.153846 -0.769231
v 3.076923 1.153846 0.769231
v 5.000000 2.692308 0.769231
v 5.000000 2.692308 -0.769231
v 5.000000 1.153846 0.769231
v 5.000000 1.153846 -0.769231
v 0.961538 1.346154 0.384615
v 1.730769 1.346154 0.384615
v 0.961538 0.192308 0.384615
v 1.730769 0.192308 0.384615
v 1.730769 1.346154 -0.384615
v 0.961538 1.346154 -0.384615
v 1.730769 0.192308 -0.384615
v 0.961538 0.192308 -0.384615
v 1.730769 1.346154 -0.384615
v 1.730769 1.346154 0.384615
v 0.961538 1.346154 -0.384615
v 0.961538 1.346154 0.384615
v 0.961538 0.192308 -0.384615
v 0.961538 0.192308 0.384615
v 1.730769 0.192308 -0.384615
v 1.730769 0.192308 0.384615
v 0.961538 1.346154 -0.384615
v 0.961538 1.346154 0.384615
v 0.961538 0.192308 -0.384615
v 0.961538 0.192308 0.384615
v 1.730769 1.346154 0.384615
v 1.730769 1.346154 -0.384615
v 1.730769 0.192308 0.384615
v 1.730769 0.192308 -0.384615
v -1.730769 1.346154 0.384615
v -0.961538 1.346154 0.384615
v -1.730769 0.192308 0.384615
v -0.961538 0.192308 0.384615
v -0.961538 1.346154 -0.384615
v -1.730769 1.346154 -0.384615
v -0.961538 0.192308 -0.384615
v -1.730769 0.192308 -0.384615
v -0.961538 1.346154 -0.384615
v -0.961538 1.346154 0.384615
v -1.730769 1.346154 -0.384615
v -1.730769 1.346154 0.384615
v -1.730769 0.192308 -0.384615
v -1.730769 0.192308 0.384615
v -0.961538 0.192308 -0.384615
v -0.961538 0.192308 0.384615
v -1.730769 1.346154 -0.384615
v -1.730769 1.346154 0.384615
v -1.730769 0.192308 -0.384615
v -1.730769 0.192308 0.384615
v -0.961538 1.346154 0.384615
v -0.961538 1.346154 -0.384615
v -0.961538 0.192308 0.384615
v -0.961538 0.192308 -0.384615
v -1.923077 1.923080 0.543929
v 1.923077 1.923080 0.543929
v -1.923077 1.379152 0.000000
v 1.923077 1.379152 0.000000
v 1.923077 2.467009 0.000000
v -1.923077 2.467009 0.000001
v 1.923077 1.923081 -0.543928
v -1.923077 1.923081 -0.543928
v 1.923077 2.467009 0.000000
v 1.923077 1.923080 0.543929
v -1.923077 2.467009 0.000001
v -1.923077 1.923080 0.543929
v -1.923077 1.923081 -0.543928
v -1.923077 1.379152 0.000000
v 1.923077 1.923081 -0.543928
v 1.923077 1.379152 0.000000
v -1.923077 2.467009 0.000001
v -1.923077 1.923080 0.543929
v -1.923077 1.923081 -0.543928
v -1.923077 1.379152 0.000000
v 1.923077 1.923080 0.543929
v 1.923077 2.467009 0.000000
v 1.923077 1.379152 0.000000
v 1.923077 1.923081 -0.543928
v 3.579236 3.281051 0.771424
v 5.000589 2.692307 0.771424
v 3.578942 3.280340 0.771424
v 5.000295 2.691597 0.771424
v 5.000589 2.692307 -0.767038
v 3.579236 3.281051 -0.767038
v 5.000295 2.691597 -0.767038
v 3.578942 3.280340 -0.767038
v 5.000589 2.692307 -0.767038
v 5.000589 2.692307 0.771424
v 3.579236 3.281051 -0.767038
v 3.579236 3.281051 0.771424
v 3.578942 3.280340 -0.767038
v 3.578942 3.280340 0.771424
v 5.000295 2.691597 -0.767038
v 5.000295 2.691597 0.771424
v 3.579236 3.281051 -0.767038
v 3.579236 3.281051 0.771424
v 3.578942 3.280340 -0.767038
v 3.578942 3.280340 0.771424
v 5.000589 2.692307 0.771424
v 5.000589 2.692307 -0.767038
v 5.000295 2.691597 0.771424
v 5.000295 2.691597 -0.767038
v -4.230769 2.501421 0.579116
v -3.164754 2.942979 0.579116
v -4.230474 2.500710 0.579116
v -3.164460 2.942268 0.579116
v -3.164754 2.942979 -0.574730
v -4.230769 2.501421 -0.574730
v -3.164460 2.942268 -0.574730
v -4.230474 2.500710 -0.574730
v -3.164754 2.942979 -0.574730
v -3.164754 2.942979 0.579116
v -4.230769 2.501421 -0.574730
v -4.230769 2.501421 0.579116
v -4.230474 2.500710 -0.574730
v -4.230474 2.500710 0.579116
v -3.164460 2.942268 -0.574730
v -3.164460 2.942268 0.579116
v -4.230769 2.501421 -0.574730
v -4.230769 2.501421 0.579116
v -4.230474 2.500710 -0.574730
v -4.230474 2.500710 0.579116
v -3.164754 2.942979 0.579116
v -3.164754 2.942979 -0.574730
v -3.164460 2.942268 0.579116
v -3.164460 2.942268 -0.574730
vn -0.0000 -0.0000 1.0000
vn -0.0000 -0.0000 -1.0000
vn -0.0000 1.0000 -0.0000
vn -0.0000 -1.0000 -0.0000
vn -1.0000 -0.0000 -0.0000
vn 1.0000 -0.0000 -0.0000
vn 0.7071 0.7071 -0.0000
vn -0.7071 -0.7071 -0.0000
vn -0.7071 0.7071 -0.0000
vn 0.7071 -0.7071 -0.0000
vn -0.0000 0.7071 0.7071
vn -0.0000 -0.7071 -0.7071
vn -0.0000 0.7071 -0.7071
vn -0.0000 -0.7071 0.7071
vn -0.7071 -0.0000 0.7071
vn 0.7071 -0.0000 -0.7071
vn -0.7071 -0.0000 -0.7071
vn 0.7071 -0.0000 0.7071
vn 0.3827 0.9239 -0.0000
vn -0.3827 -0.9239 -0.0000
vn -0.9238 0.3829 -0.0000
vn 0.9241 -0.3822 -0.0000
vn 0.9238 -0.3829 -0.0000
vn 0.0001 -0.0000 1.0000
vn -0.0001 -0.0000 1.0000
vn -0.3827 0.9239 -0.0000
vn 0.3827 -0.9239 -0.0000
vn -0.9239 -0.3825 -0.0000
vn -0.9236 -0.3834 -0.0000
vn 0.9238 0.3830 -0.0000
vn 0.9239 0.3825 -0.0000
vt 0.343750 0.843750
vt 0.343750 0.828125
vt 0.484375 0.843750
vt 0.484375 0.828125
vt 0.343750 0.812500
vt 0.343750 0.796875
vt 0.484375 0.812500
vt 0.484375 0.796875
vt 0.046875 0.859375
vt 0.046875 1.000000
vt 0.000000 0.859375
vt 0.000000 1.000000
vt 0.109375 1.000000
vt 0.109375 0.859375
vt 0.062500 1.000000
vt 0.062500 0.859375
vt 0.531250 0.468750
vt 0.531250 0.453125
vt 0.578125 0.468750
vt 0.578125 0.453125
vt 0.531250 0.500000
vt 0.531250 0.484375
vt 0.578125 0.500000
vt 0.578125 0.484375
vt 0.312500 0.687500
vt 0.312500 0.656250
vt 0.390625 0.687500
vt 0.390625 0.656250
vt 0.343750 0.875000
vt 0.421875 0.875000
vt 0.421875 0.843750
vt 0.000000 0.921875
vt 0.000000 0.968750
vt 0.312500 0.531250
vt 0.312500 0.484375
vt 0.343750 0.531250
vt 0.343750 0.484375
vt 0.375000 0.531250
vt 0.375000 0.484375
vt 0.515625 0.656250
vt 0.515625 0.687500
vt 0.468750 0.656250
vt 0.468750 0.687500
vt 0.421875 0.531250
vt 0.421875 0.500000
vt 0.375000 0.500000
vt 0.187500 0.656250
vt 0.187500 0.609375
vt 0.234375 0.656250
vt 0.234375 0.609375
vt 0.000000 0.656250
vt 0.000000 0.609375
vt 0.046875 0.656250
vt 0.046875 0.609375
vt 0.562500 0.843750
vt 0.562500 0.828125
vt 0.593750 0.843750
vt 0.593750 0.828125
vt 0.187500 0.437500
vt 0.187500 0.421875
vt 0.218750 0.437500
vt 0.218750 0.421875
vt 0.281250 0.875000
vt 0.281250 0.906250
vt 0.218750 0.875000
vt 0.218750 0.906250
vt 0.406250 0.718750
vt 0.406250 0.687500
vt 0.343750 0.718750
vt 0.343750 0.687500
vt 0.500000 0.656250
vt 0.500000 0.640625
vt 0.562500 0.656250
vt 0.562500 0.640625
vt 0.500000 0.812500
vt 0.500000 0.796875
vt 0.562500 0.812500
vt 0.562500 0.796875
vt 0.593750 0.812500
vt 0.593750 0.796875
vt 0.250000 0.437500
vt 0.250000 0.421875
vt 0.500000 0.843750
vt 0.500000 0.875000
vt 0.437500 0.843750
vt 0.437500 0.875000
vt 0.531250 0.718750
vt 0.531250 0.687500
vt 0.468750 0.718750
vt 0.500000 0.625000
vt 0.500000 0.609375
vt 0.562500 0.625000
vt 0.562500 0.609375
vt 0.437500 0.500000
vt 0.437500 0.484375
vt 0.531250 0.562500
vt 0.531250 0.531250
vt 0.500000 0.562500
vt 0.500000 0.531250
vt 0.531250 0.593750
vt 0.500000 0.593750
vt 0.562500 0.718750
vt 0.562500 0.750000
vt 0.578125 0.718750
vt 0.578125 0.750000
vt 0.281250 0.437500
vt 0.281250 0.406250
vt 0.296875 0.437500
vt 0.296875 0.406250
vt 0.265625 0.437500
vt 0.265625 0.406250
vt 0.250000 0.406250
vt 0.578125 0.781250
vt 0.562500 0.781250
vt 0.500000 0.468750
vt 0.500000 0.437500
vt 0.468750 0.468750
vt 0.468750 0.437500
vt 0.437500 0.468750
vt 0.437500 0.437500
vt 0.562500 0.500000
vt 0.562500 0.531250
vt 0.531250 0.437500
vt 0.562500 0.562500
vt 0.562500 0.593750
vt 0.500000 0.500000
vt 0.031250 0.468750
vt 0.031250 0.437500
vt 0.062500 0.468750
vt 0.062500 0.437500
vt 0.562500 0.906250
vt 0.562500 0.937500
vt 0.531250 0.906250
vt 0.531250 0.937500
vt 0.562500 0.875000
vt 0.531250 0.875000
vt 0.000000 0.468750
vt 0.000000 0.437500
vt 0.562500 0.921875
vt 0.609375 0.937500
vt 0.609375 0.921875
vt 0.093750 0.437500
vt 0.093750 0.421875
vt 0.140625 0.437500
vt 0.140625 0.421875
vt 0.578125 0.859375
vt 0.578125 0.906250
vt 0.562500 0.859375
vt 0.171875 0.437500
vt 0.171875 0.390625
vt 0.156250 0.437500
vt 0.156250 0.390625
vt 0.375000 0.437500
vt 0.375000 0.421875
vt 0.390625 0.437500
vt 0.390625 0.421875
vt 0.578125 0.656250
vt 0.578125 0.640625
vt 0.531250 0.843750
vt 0.531250 0.812500
vt 0.218750 0.468750
vt 0.250000 0.468750
vt 0.531250 0.750000
vt 0.531250 0.781250
vt 0.187500 0.468750
vt 0.312500 0.609375
vt 0.359375 0.656250
vt 0.359375 0.609375
vt 0.062500 0.625000
vt 0.062500 0.578125
vt 0.109375 0.625000
vt 0.109375 0.578125
vt 0.421875 0.890625
vt 0.421875 0.937500
vt 0.375000 0.890625
vt 0.375000 0.937500
vt 0.171875 0.625000
vt 0.171875 0.578125
vt 0.125000 0.625000
vt 0.125000 0.578125
vt 0.375000 1.000000
vt 0.375000 0.953125
vt 0.421875 1.000000
vt 0.421875 0.953125
vt 0.343750 0.781250
vt 0.343750 0.734375
vt 0.390625 0.781250
vt 0.390625 0.734375
vt 0.437500 0.531250
vt 0.468750 0.531250
vt 0.468750 0.484375
vt 0.500000 0.484375
vt 0.546875 0.968750
vt 0.546875 1.000000
vt 0.500000 0.968750
vt 0.500000 1.000000
vt 0.546875 0.937500
vt 0.500000 0.937500
vt 0.375000 0.656250
vt 0.375000 0.609375
vt 0.421875 0.656250
vt 0.421875 0.609375
vt 0.250000 0.625000
vt 0.250000 0.578125
vt 0.296875 0.625000
vt 0.296875 0.578125
vt 0.000000 0.953125
vt 0.187500 0.593750
vt 0.187500 0.546875
vt 0.234375 0.593750
vt 0.234375 0.546875
vt 0.000000 0.593750
vt 0.000000 0.546875
vt 0.046875 0.593750
vt 0.046875 0.546875
vt 0.093750 1.000000
vt 0.234375 0.718750
vt 0.234375 0.812500
vt 0.187500 0.718750
vt 0.187500 0.812500
vt 0.265625 1.000000
vt 0.265625 0.906250
vt 0.218750 1.000000
vt 0.250000 0.812500
vt 0.250000 0.765625
vt 0.343750 0.765625
vt 0.250000 0.750000
vt 0.250000 0.703125
vt 0.343750 0.750000
vt 0.343750 0.703125
vt 0.000000 0.906250
vt 0.281250 1.000000
vt 0.281250 0.953125
vt 0.281250 0.937500
vt 0.281250 0.890625
vt 0.171875 0.687500
vt 0.171875 0.781250
vt 0.125000 0.687500
vt 0.125000 0.781250
vt 0.046875 0.750000
vt 0.000000 0.750000
vt 0.062500 0.562500
vt 0.062500 0.515625
vt 0.109375 0.562500
vt 0.109375 0.515625
vt 0.437500 1.000000
vt 0.437500 0.953125
vt 0.484375 1.000000
vt 0.484375 0.953125
vt 0.015625 1.000000
vt 0.562500 1.000000
vt 0.562500 0.953125
vt 0.578125 1.000000
vt 0.578125 0.953125
vt 0.000000 0.390625
vt 0.015625 0.437500
vt 0.015625 0.390625
vt 0.062500 0.390625
vt 0.078125 0.437500
vt 0.078125 0.390625
vt 0.031250 0.390625
vt 0.046875 0.437500
vt 0.046875 0.390625
vt 0.000000 0.984375
vt 0.031250 1.000000
vt 0.317187 0.453125
vt 0.317187 0.437500
vt 0.354688 0.453125
vt 0.354688 0.437500
vt 0.562500 0.703125
vt 0.593750 0.718750
vt 0.593750 0.703125
vt 0.562500 0.687500
vt 0.562500 0.671875
vt 0.593750 0.687500
vt 0.593750 0.671875
vt 0.125000 0.562500
vt 0.125000 0.515625
vt 0.171875 0.562500
vt 0.171875 0.515625
vt 0.437500 0.656250
vt 0.437500 0.609375
vt 0.484375 0.656250
vt 0.484375 0.609375
vt 0.484375 0.546875
vt 0.484375 0.593750
vt 0.437500 0.546875
vt 0.437500 0.593750
vt 0.046875 0.531250
vt 0.046875 0.484375
vt 0.000000 0.531250
vt 0.000000 0.484375
vt 0.250000 0.562500
vt 0.250000 0.515625
vt 0.296875 0.562500
vt 0.296875 0.515625
vt 0.437500 0.937500
vt 0.437500 0.890625
vt 0.484375 0.937500
vt 0.484375 0.890625
vt 0.125000 1.000000
vt 0.125000 0.937500
vt 0.203125 1.000000
vt 0.203125 0.937500
vt 0.125000 0.875000
vt 0.203125 0.875000
vt 0.187500 0.796875
vt 0.187500 0.875000
vt 0.125000 0.796875
vt 0.062500 0.843750
vt 0.062500 0.765625
vt 0.000000 0.843750
vt 0.000000 0.765625
vt 0.062500 0.687500
vt 0.250000 0.718750
vt 0.250000 0.656250
vt 0.500000 0.890625
vt 0.531250 0.890625
vt 0.125000 0.500000
vt 0.125000 0.453125
vt 0.156250 0.500000
vt 0.156250 0.453125
vt 0.343750 0.468750
vt 0.343750 0.437500
vt 0.312500 0.468750
vt 0.312500 0.437500
vt 0.093750 0.500000
vt 0.093750 0.453125
vt 0.062500 0.500000
vt 0.062500 0.453125
vt 0.187500 0.500000
vt 0.187500 0.453125
vt 0.281250 0.500000
vt 0.281250 0.453125
vt 0.312500 0.500000
vt 0.312500 0.453125
vt 0.531250 0.656250
vt 0.375000 0.468750
vt 0.250000 0.500000
vt 0.250000 0.453125
vt 0.500000 0.828125
vt 0.531250 0.828125
vt 0.187500 0.843750
vt 0.093750 0.687500
vt 0.093750 0.843750
vt 0.125000 0.843750
vt 0.406250 0.468750
vt 0.406250 0.437500
vt 0.187500 0.625000
vt 0.187500 0.687500
vt 0.312500 0.625000
vt 0.250000 0.687500
vt 0.234375 0.484375
vt 0.234375 0.531250
vt 0.187500 0.484375
vt 0.187500 0.531250
vt 0.515625 0.781250
vt 0.515625 0.734375
vt 0.468750 0.781250
vt 0.468750 0.734375
s 0
usemtl Material_0.001
f 1/1/1 3/2/1 2/3/1
f 3/2/1 4/4/1 2/3/1
f 5/5/2 7/6/2 6/7/2
f 7/6/2 8/8/2 6/7/2
f 9/9/3 11/10/3 10/11/3
f 11/10/3 12/12/3 10/11/3
f 13/13/4 15/14/4 14/15/4
f 15/14/4 16/16/4 14/15/4
f 17/17/5 19/18/5 18/19/5
f 19/18/5 20/20/5 18/19/5
f 21/21/6 23/22/6 22/23/6
f 23/22/6 24/24/6 22/23/6
f 25/25/1 27/26/1 26/27/1
f 27/26/1 28/28/1 26/27/1
f 29/29/2 31/1/2 30/30/2
f 31/1/2 32/31/2 30/30/2
f 33/32/3 35/12/3 34/32/3
f 35/12/3 36/12/3 34/32/3
f 37/12/4 39/32/4 38/12/4
f 39/32/4 40/32/4 38/12/4
f 41/12/5 43/33/5 42/12/5
f 43/33/5 44/33/5 42/12/5
f 45/12/6 47/33/6 46/12/6
f 47/33/6 48/33/6 46/12/6
f 49/34/1 51/35/1 50/36/1
f 51/35/1 52/37/1 50/36/1
f 53/36/2 55/37/2 54/38/2
f 55/37/2 56/39/2 54/38/2
f 57/40/3 59/41/3 58/42/3
f 59/41/3 60/43/3 58/42/3
f 61/44/4 63/45/4 62/38/4
f 63/45/4 64/46/4 62/38/4
f 65/47/5 67/48/5 66/49/5
f 67/48/5 68/50/5 66/49/5
f 69/51/6 71/52/6 70/53/6
f 71/52/6 72/54/6 70/53/6
f 73/55/1 75/56/1 74/57/1
f 75/56/1 76/58/1 74/57/1
f 77/59/2 79/60/2 78/61/2
f 79/60/2 80/62/2 78/61/2
f 81/63/3 83/64/3 82/65/3
f 83/64/3 84/66/3 82/65/3
f 85/67/4 87/68/4 86/69/4
f 87/68/4 88/70/4 86/69/4
f 89/71/5 91/72/5 90/73/5
f 91/72/5 92/74/5 90/73/5
f 93/75/6 95/76/6 94/77/6
f 95/76/6 96/78/6 94/77/6
f 97/77/1 99/78/1 98/79/1
f 99/78/1 100/80/1 98/79/1
f 101/61/2 103/62/2 102/81/2
f 103/62/2 104/82/2 102/81/2
f 105/83/3 107/84/3 106/85/3
f 107/84/3 108/86/3 106/85/3
f 109/87/4 111/88/4 110/89/4
f 111/88/4 112/43/4 110/89/4
f 113/90/5 115/91/5 114/92/5
f 115/91/5 116/93/5 114/92/5
f 117/46/6 119/39/6 118/94/6
f 119/39/6 120/95/6 118/94/6
f 121/96/1 123/97/1 122/98/1
f 123/97/1 124/99/1 122/98/1
f 125/100/2 127/96/2 126/101/2
f 127/96/2 128/98/2 126/101/2
f 129/102/7 131/103/7 130/104/7
f 131/103/7 132/105/7 130/104/7
f 133/106/8 135/107/8 134/108/8
f 135/107/8 136/109/8 134/108/8
f 137/110/9 139/111/9 138/81/9
f 139/111/9 140/112/9 138/81/9
f 141/113/10 143/105/10 142/114/10
f 143/105/10 144/103/10 142/114/10
f 145/115/1 147/116/1 146/117/1
f 147/116/1 148/118/1 146/117/1
f 149/117/2 151/118/2 150/119/2
f 151/118/2 152/120/2 150/119/2
f 153/21/7 155/97/7 154/121/7
f 155/97/7 156/122/7 154/121/7
f 157/115/8 159/116/8 158/17/8
f 159/116/8 160/123/8 158/17/8
f 161/124/9 163/122/9 162/96/9
f 163/122/9 164/97/9 162/96/9
f 165/125/10 167/124/10 166/100/10
f 167/124/10 168/96/10 166/100/10
f 169/126/11 171/115/11 170/21/11
f 171/115/11 172/17/11 170/21/11
f 173/127/12 175/128/12 174/129/12
f 175/128/12 176/130/12 174/129/12
f 177/131/13 179/132/13 178/133/13
f 179/132/13 180/134/13 178/133/13
f 181/131/14 183/135/14 182/133/14
f 183/135/14 184/136/14 182/133/14
f 185/137/5 187/138/5 186/127/5
f 187/138/5 188/128/5 186/127/5
f 189/99/6 191/126/6 190/97/6
f 191/126/6 192/21/6 190/97/6
f 193/132/11 195/139/11 194/140/11
f 195/139/11 196/141/11 194/140/11
f 197/142/12 199/143/12 198/144/12
f 199/143/12 200/145/12 198/144/12
f 201/146/13 203/147/13 202/148/13
f 203/147/13 204/131/13 202/148/13
f 205/149/14 207/150/14 206/151/14
f 207/150/14 208/152/14 206/151/14
f 209/153/5 211/154/5 210/155/5
f 211/154/5 212/156/5 210/155/5
f 213/73/6 215/74/6 214/157/6
f 215/74/6 216/158/6 214/157/6
f 217/159/15 219/160/15 218/55/15
f 219/160/15 220/77/15 218/55/15
f 221/161/16 223/61/16 222/162/16
f 223/61/16 224/81/16 222/162/16
f 225/103/3 227/114/3 226/163/3
f 227/114/3 228/164/3 226/163/3
f 229/103/4 231/102/4 230/163/4
f 231/102/4 232/87/4 230/163/4
f 233/165/17 235/59/17 234/161/17
f 235/59/17 236/61/17 234/161/17
f 237/136/18 239/159/18 238/135/18
f 239/159/18 240/55/18 238/135/18
f 241/26/1 243/166/1 242/167/1
f 243/166/1 244/168/1 242/167/1
f 245/169/2 247/170/2 246/171/2
f 247/170/2 248/172/2 246/171/2
f 249/173/3 251/174/3 250/175/3
f 251/174/3 252/176/3 250/175/3
f 253/177/4 255/178/4 254/179/4
f 255/178/4 256/180/4 254/179/4
f 257/181/5 259/182/5 258/183/5
f 259/182/5 260/184/5 258/183/5
f 261/185/6 263/186/6 262/187/6
f 263/186/6 264/188/6 262/187/6
f 265/189/1 267/95/1 266/190/1
f 267/95/1 268/191/1 266/190/1
f 269/190/2 271/191/2 270/99/2
f 271/191/2 272/192/2 270/99/2
f 273/193/3 275/194/3 274/195/3
f 275/194/3 276/196/3 274/195/3
f 277/193/4 279/197/4 278/195/4
f 279/197/4 280/198/4 278/195/4
f 281/199/5 283/200/5 282/201/5
f 283/200/5 284/202/5 282/201/5
f 285/203/6 287/204/6 286/205/6
f 287/204/6 288/206/6 286/205/6
f 289/12/1 291/207/1 290/12/1
f 291/207/1 292/207/1 290/12/1
f 293/12/2 295/207/2 294/12/2
f 295/207/2 296/207/2 294/12/2
f 297/10/3 299/10/3 298/12/3
f 299/10/3 300/12/3 298/12/3
f 301/10/4 303/10/4 302/12/4
f 303/10/4 304/12/4 302/12/4
f 305/208/5 307/209/5 306/210/5
f 307/209/5 308/211/5 306/210/5
f 309/212/6 311/213/6 310/214/6
f 311/213/6 312/215/6 310/214/6
f 313/12/1 315/12/1 314/216/1
f 315/12/1 316/216/1 314/216/1
f 317/12/2 319/12/2 318/216/2
f 319/12/2 320/216/2 318/216/2
f 321/217/3 323/218/3 322/219/3
f 323/218/3 324/220/3 322/219/3
f 325/221/4 327/222/4 326/223/4
f 327/222/4 328/66/4 326/223/4
f 329/12/5 331/12/5 330/10/5
f 331/12/5 332/10/5 330/10/5
f 333/12/6 335/12/6 334/10/6
f 335/12/6 336/10/6 334/10/6
f 337/224/1 339/225/1 338/5/1
f 339/225/1 340/226/1 338/5/1
f 341/227/2 343/228/2 342/229/2
f 343/228/2 344/230/2 342/229/2
f 345/231/3 347/12/3 346/231/3
f 347/12/3 348/12/3 346/231/3
f 349/12/4 351/231/4 350/12/4
f 351/231/4 352/231/4 350/12/4
f 353/12/5 355/207/5 354/12/5
f 355/207/5 356/207/5 354/12/5
f 357/12/6 359/207/6 358/12/6
f 359/207/6 360/207/6 358/12/6
f 361/232/1 363/233/1 362/181/1
f 363/233/1 364/182/1 362/181/1
f 365/234/2 367/235/2 366/176/2
f 367/235/2 368/175/2 366/176/2
f 369/231/3 371/12/3 370/231/3
f 371/12/3 372/12/3 370/231/3
f 373/12/4 375/231/4 374/12/4
f 375/231/4 376/231/4 374/12/4
f 377/12/5 379/207/5 378/12/5
f 379/207/5 380/207/5 378/12/5
f 381/12/6 383/207/6 382/12/6
f 383/207/6 384/207/6 382/12/6
f 385/12/1 387/12/1 386/216/1
f 387/12/1 388/216/1 386/216/1
f 389/12/2 391/12/2 390/216/2
f 391/12/2 392/216/2 390/216/2
f 393/236/3 395/237/3 394/238/3
f 395/237/3 396/239/3 394/238/3
f 397/240/4 399/53/4 398/241/4
f 399/53/4 400/51/4 398/241/4
f 401/12/5 403/12/5 402/10/5
f 403/12/5 404/10/5 402/10/5
f 405/12/6 407/12/6 406/10/6
f 407/12/6 408/10/6 406/10/6
f 409/12/1 411/207/1 410/12/1
f 411/207/1 412/207/1 410/12/1
f 413/12/2 415/207/2 414/12/2
f 415/207/2 416/207/2 414/12/2
f 417/10/3 419/10/3 418/12/3
f 419/10/3 420/12/3 418/12/3
f 421/10/4 423/10/4 422/12/4
f 423/10/4 424/12/4 422/12/4
f 425/242/5 427/243/5 426/244/5
f 427/243/5 428/245/5 426/244/5
f 429/246/6 431/247/6 430/248/6
f 431/247/6 432/249/6 430/248/6
f 433/12/1 435/207/1 434/12/1
f 435/207/1 436/207/1 434/12/1
f 437/12/2 439/207/2 438/12/2
f 439/207/2 440/207/2 438/12/2
f 441/250/3 443/250/3 442/12/3
f 443/250/3 444/12/3 442/12/3
f 445/250/4 447/250/4 446/12/4
f 447/250/4 448/12/4 446/12/4
f 449/251/5 451/252/5 450/253/5
f 451/252/5 452/254/5 450/253/5
f 453/138/6 455/255/6 454/256/6
f 455/255/6 456/257/6 454/256/6
f 457/12/1 459/207/1 458/12/1
f 459/207/1 460/207/1 458/12/1
f 461/12/2 463/207/2 462/12/2
f 463/207/2 464/207/2 462/12/2
f 465/250/3 467/250/3 466/12/3
f 467/250/3 468/12/3 466/12/3
f 469/250/4 471/250/4 470/12/4
f 471/250/4 472/12/4 470/12/4
f 473/130/5 475/258/5 474/259/5
f 475/258/5 476/260/5 474/259/5
f 477/128/6 479/261/6 478/262/6
f 479/261/6 480/263/6 478/262/6
f 481/12/1 483/264/1 482/12/1
f 483/264/1 484/264/1 482/12/1
f 485/12/2 487/264/2 486/12/2
f 487/264/2 488/264/2 486/12/2
f 489/265/3 491/265/3 490/12/3
f 491/265/3 492/12/3 490/12/3
f 493/265/4 495/265/4 494/12/4
f 495/265/4 496/12/4 494/12/4
f 497/266/5 499/267/5 498/268/5
f 499/267/5 500/269/5 498/268/5
f 501/102/6 503/270/6 502/271/6
f 503/270/6 504/272/6 502/271/6
f 505/12/1 507/264/1 506/12/1
f 507/264/1 508/264/1 506/12/1
f 509/12/2 511/264/2 510/12/2
f 511/264/2 512/264/2 510/12/2
f 513/265/3 515/265/3 514/12/3
f 515/265/3 516/12/3 514/12/3
f 517/265/4 519/265/4 518/12/4
f 519/265/4 520/12/4 518/12/4
f 521/266/5 523/267/5 522/268/5
f 523/267/5 524/269/5 522/268/5
f 525/273/6 527/274/6 526/275/6
f 527/274/6 528/276/6 526/275/6
f 529/277/1 531/278/1 530/279/1
f 531/278/1 532/280/1 530/279/1
f 533/281/2 535/282/2 534/283/2
f 535/282/2 536/284/2 534/283/2
f 537/285/3 539/286/3 538/287/3
f 539/286/3 540/288/3 538/287/3
f 541/289/4 543/290/4 542/291/4
f 543/290/4 544/292/4 542/291/4
f 545/293/5 547/294/5 546/295/5
f 547/294/5 548/296/5 546/295/5
f 549/297/6 551/298/6 550/299/6
f 551/298/6 552/300/6 550/299/6
f 553/301/1 555/302/1 554/303/1
f 555/302/1 556/304/1 554/303/1
f 557/302/2 559/305/2 558/304/2
f 559/305/2 560/306/2 558/304/2
f 561/307/3 563/308/3 562/309/3
f 563/308/3 564/305/3 562/309/3
f 565/310/4 567/311/4 566/312/4
f 567/311/4 568/313/4 566/312/4
f 569/314/5 571/169/5 570/238/5
f 571/169/5 572/179/5 570/238/5
f 573/219/6 575/47/6 574/315/6
f 575/47/6 576/316/6 574/315/6
f 577/198/1 579/317/1 578/134/1
f 579/317/1 580/318/1 578/134/1
f 581/319/2 583/320/2 582/321/2
f 583/320/2 584/322/2 582/321/2
f 585/273/3 587/102/3 586/88/3
f 587/102/3 588/87/3 586/88/3
f 589/323/4 591/324/4 590/325/4
f 591/324/4 592/326/4 590/325/4
f 593/327/5 595/328/5 594/319/5
f 595/328/5 596/320/5 594/319/5
f 597/329/6 599/330/6 598/327/6
f 599/330/6 600/328/6 598/327/6
f 601/321/1 603/322/1 602/331/1
f 603/322/1 604/332/1 602/331/1
f 605/333/2 607/334/2 606/335/2
f 607/334/2 608/336/2 606/335/2
f 609/73/3 611/273/3 610/337/3
f 611/273/3 612/88/3 610/337/3
f 613/338/4 615/153/4 614/323/4
f 615/153/4 616/324/4 614/323/4
f 617/339/5 619/340/5 618/333/5
f 619/340/5 620/334/5 618/333/5
f 621/84/6 623/341/6 622/136/6
f 623/341/6 624/342/6 622/136/6
f 625/308/14 627/343/14 626/29/14
f 627/343/14 628/1/14 626/29/14
f 629/343/13 631/220/13 630/1/13
f 631/220/13 632/5/13 630/1/13
f 633/344/11 635/345/11 634/314/11
f 635/345/11 636/310/11 634/314/11
f 637/346/12 639/238/12 638/345/12
f 639/238/12 640/344/12 638/345/12
f 641/347/5 643/348/5 642/119/5
f 643/348/5 644/120/5 642/119/5
f 645/338/6 647/153/6 646/347/6
f 647/153/6 648/348/6 646/347/6
f 649/12/1 651/12/1 650/15/1
f 651/12/1 652/15/1 650/15/1
f 653/12/2 655/12/2 654/15/2
f 655/12/2 656/15/2 654/15/2
f 657/349/19 659/350/19 658/179/19
f 659/350/19 660/238/19 658/179/19
f 661/25/20 663/351/20 662/352/20
f 663/351/20 664/203/20 662/352/20
f 665/12/21 667/12/21 666/15/21
f 667/12/21 668/15/21 666/15/21
f 669/12/22 671/12/22 670/15/22
f 671/12/23 672/15/23 670/15/23
f 673/12/24 675/12/24 674/10/24
f 675/12/25 676/10/25 674/10/25
f 677/12/2 679/12/2 678/10/2
f 679/12/2 680/10/2 678/10/2
f 681/353/26 683/354/26 682/355/26
f 683/354/26 684/356/26 682/355/26
f 685/357/27 687/358/27 686/359/27
f 687/358/27 688/360/27 686/359/27
f 689/12/28 691/12/28 690/10/28
f 691/12/29 692/10/29 690/10/29
f 693/12/30 695/12/30 694/10/30
f 695/12/31 696/10/31 694/10/31
o scopeModel
v -4.216153 2.500000 0.576923
v -4.215384 2.500000 0.576923
v -4.216153 1.346154 0.576923
v -4.215384 1.346154 0.576923
v -4.215384 2.500000 -0.576923
v -4.216153 2.500000 -0.576923
v -4.215384 1.346154 -0.576923
v -4.216153 1.346154 -0.576923
v -4.215384 2.500000 -0.576923
v -4.215384 2.500000 0.576923
v -4.216153 2.500000 -0.576923
v -4.216153 2.500000 0.576923
v -4.216153 1.346154 -0.576923
v -4.216153 1.346154 0.576923
v -4.215384 1.346154 -0.576923
v -4.215384 1.346154 0.576923
v -4.216153 2.500000 -0.576923
v -4.216153 2.500000 0.576923
v -4.216153 1.346154 -0.576923
v -4.216153 1.346154 0.576923
v -4.215384 2.500000 0.576923
v -4.215384 2.500000 -0.576923
v -4.215384 1.346154 0.576923
v -4.215384 1.346154 -0.576923
vn -0.0000 -0.0000 1.0000
vn -0.0000 -0.0000 -1.0000
vn -0.0000 1.0000 -0.0000
vn -0.0000 -1.0000 -0.0000
vn -1.0000 -0.0000 -0.0000
vn 1.0000 -0.0000 -0.0000
vt 0.875000 0.046875
vt 0.875000 0.000000
vt 0.921875 0.046875
vt 0.921875 0.000000
s 0
usemtl Material_0.001
f 697/361/32 699/362/32 698/363/32
f 699/362/32 700/364/32 698/363/32
f 701/361/33 703/362/33 702/363/33
f 703/362/33 704/364/33 702/363/33
f 705/361/34 707/362/34 706/363/34
f 707/362/34 708/364/34 706/363/34
f 709/361/35 711/362/35 710/363/35
f 711/362/35 712/364/35 710/363/35
f 713/361/36 715/362/36 714/363/36
f 715/362/36 716/364/36 714/363/36
f 717/361/37 719/362/37 718/363/37
f 719/362/37 720/364/37 718/363/37
o overlaySolidModel
v -4.223846 2.500000 0.576923
v -4.223076 2.500000 0.576923
v -4.223846 1.346154 0.576923
v -4.223076 1.346154 0.576923
v -4.223076 2.500000 -0.576923
v -4.223846 2.500000 -0.576923
v -4.223076 1.346154 -0.576923
v -4.223846 1.346154 -0.576923
v -4.223076 2.500000 -0.576923
v -4.223076 2.500000 0.576923
v -4.223846 2.500000 -0.576923
v -4.223846 2.500000 0.576923
v -4.223846 1.346154 -0.576923
v -4.223846 1.346154 0.576923
v -4.223076 1.346154 -0.576923
v -4.223076 1.346154 0.576923
v -4.223846 2.500000 -0.576923
v -4.223846 2.500000 0.576923
v -4.223846 1.346154 -0.576923
v -4.223846 1.346154 0.576923
v -4.223076 2.500000 0.576923
v -4.223076 2.500000 -0.576923
v -4.223076 1.346154 0.576923
v -4.223076 1.346154 -0.576923
vn -0.0000 -0.0000 1.0000
vn -0.0000 -0.0000 -1.0000
vn -0.0000 1.0000 -0.0000
vn -0.0000 -1.0000 -0.0000
vn -1.0000 -0.0000 -0.0000
vn 1.0000 -0.0000 -0.0000
vt 0.953125 0.046875
vt 0.953125 0.000000
vt 1.000000 0.046875
vt 1.000000 0.000000
s 0
usemtl Material_0.001
f 721/365/38 723/366/38 722/367/38
f 723/366/38 724/368/38 722/367/38
f 725/365/39 727/366/39 726/367/39
f 727/366/39 728/368/39 726/367/39
f 729/365/40 731/366/40 730/367/40
f 731/366/40 732/368/40 730/367/40
f 733/365/41 735/366/41 734/367/41
f 735/366/41 736/368/41 734/367/41
f 737/365/42 739/366/42 738/367/42
f 739/366/42 740/368/42 738/367/42
f 741/365/43 743/366/43 742/367/43
f 743/366/43 744/368/43 742/367/43
