# Blender 4.2.3 LTS
# www.blender.org
mtllib lev.lantacbmd.mtl
o attachmentModel
v 0.000000 0.384615 0.384615
v 0.384615 0.384615 0.384615
v 0.000000 -0.384615 0.384615
v 0.384615 -0.384615 0.384615
v 0.384615 0.384615 -0.384615
v -0.000000 0.384615 -0.384615
v 0.384615 -0.384615 -0.384615
v -0.000000 -0.384615 -0.384615
v 0.384615 0.384615 -0.384615
v 0.384615 0.384615 0.384615
v -0.000000 0.384615 -0.384615
v 0.000000 0.384615 0.384615
v -0.000000 -0.384615 -0.384615
v 0.000000 -0.384615 0.384615
v 0.384615 -0.384615 -0.384615
v 0.384615 -0.384615 0.384615
v -0.000000 0.384615 -0.384615
v 0.000000 0.384615 0.384615
v -0.000000 -0.384615 -0.384615
v 0.000000 -0.384615 0.384615
v 0.384615 0.384615 0.384615
v 0.384615 0.384615 -0.384615
v 0.384615 -0.384615 0.384615
v 0.384615 -0.384615 -0.384615
v 0.000000 -0.383846 0.384615
v 2.307692 -0.383846 0.384615
v 0.000000 -0.384615 0.384615
v 2.307692 -0.384615 0.384615
v 2.307692 -0.383846 -0.384616
v -0.000000 -0.383846 -0.384615
v 2.307692 -0.384615 -0.384616
v -0.000000 -0.384615 -0.384615
v 2.307692 -0.383846 -0.384616
v 2.307692 -0.383846 0.384615
v -0.000000 -0.383846 -0.384615
v 0.000000 -0.383846 0.384615
v -0.000000 -0.384615 -0.384615
v 0.000000 -0.384615 0.384615
v 2.307692 -0.384615 -0.384616
v 2.307692 -0.384615 0.384615
v -0.000000 -0.383846 -0.384615
v 0.000000 -0.383846 0.384615
v -0.000000 -0.384615 -0.384615
v 0.000000 -0.384615 0.384615
v 2.307692 -0.383846 0.384615
v 2.307692 -0.383846 -0.384616
v 2.307692 -0.384615 0.384615
v 2.307692 -0.384615 -0.384616
v 0.000000 0.385385 0.384615
v 2.307692 0.385385 0.384615
v 0.000000 0.384615 0.384615
v 2.307692 0.384615 0.384615
v 2.307692 0.385385 -0.384616
v -0.000000 0.385385 -0.384615
v 2.307692 0.384615 -0.384616
v -0.000000 0.384615 -0.384615
v 2.307692 0.385385 -0.384616
v 2.307692 0.385385 0.384615
v -0.000000 0.385385 -0.384615
v 0.000000 0.385385 0.384615
v -0.000000 0.384615 -0.384615
v 0.000000 0.384615 0.384615
v 2.307692 0.384615 -0.384616
v 2.307692 0.384615 0.384615
v -0.000000 0.385385 -0.384615
v 0.000000 0.385385 0.384615
v -0.000000 0.384615 -0.384615
v 0.000000 0.384615 0.384615
v 2.307692 0.385385 0.384615
v 2.307692 0.385385 -0.384616
v 2.307692 0.384615 0.384615
v 2.307692 0.384615 -0.384616
v 0.000000 0.384615 0.385385
v 2.307692 0.384615 0.385384
v 0.000000 -0.384615 0.385385
v 2.307692 -0.384615 0.385384
v 2.307692 0.384615 0.384615
v 0.000000 0.384615 0.384615
v 2.307692 -0.384615 0.384615
v 0.000000 -0.384615 0.384615
v 2.307692 0.384615 0.384615
v 2.307692 0.384615 0.385384
v 0.000000 0.384615 0.384615
v 0.000000 0.384615 0.385385
v 0.000000 -0.384615 0.384615
v 0.000000 -0.384615 0.385385
v 2.307692 -0.384615 0.384615
v 2.307692 -0.384615 0.385384
v 0.000000 0.384615 0.384615
v 0.000000 0.384615 0.385385
v 0.000000 -0.384615 0.384615
v 0.000000 -0.384615 0.385385
v 2.307692 0.384615 0.385384
v 2.307692 0.384615 0.384615
v 2.307692 -0.384615 0.385384
v 2.307692 -0.384615 0.384615
v -0.000000 0.384615 -0.383846
v 2.307692 0.384615 -0.383847
v -0.000000 -0.384615 -0.383846
v 2.307692 -0.384615 -0.383847
v 2.307692 0.384615 -0.384616
v -0.000000 0.384615 -0.384615
v 2.307692 -0.384615 -0.384616
v -0.000000 -0.384615 -0.384615
v 2.307692 0.384615 -0.384616
v 2.307692 0.384615 -0.383847
v -0.000000 0.384615 -0.384615
v -0.000000 0.384615 -0.383846
v -0.000000 -0.384615 -0.384615
v -0.000000 -0.384615 -0.383846
v 2.307692 -0.384615 -0.384616
v 2.307692 -0.384615 -0.383847
v -0.000000 0.384615 -0.384615
v -0.000000 0.384615 -0.383846
v -0.000000 -0.384615 -0.384615
v -0.000000 -0.384615 -0.383846
v 2.307692 0.384615 -0.383847
v 2.307692 0.384615 -0.384616
v 2.307692 -0.384615 -0.383847
v 2.307692 -0.384615 -0.384616
v 2.306923 0.384615 0.384615
v 2.307692 0.384615 0.384615
v 2.306923 -0.384615 0.384615
v 2.307692 -0.384615 0.384615
v 2.307692 0.384615 -0.384616
v 2.306923 0.384615 -0.384616
v 2.307692 -0.384615 -0.384616
v 2.306923 -0.384615 -0.384616
v 2.307692 0.384615 -0.384616
v 2.307692 0.384615 0.384615
v 2.306923 0.384615 -0.384616
v 2.306923 0.384615 0.384615
v 2.306923 -0.384615 -0.384616
v 2.306923 -0.384615 0.384615
v 2.307692 -0.384615 -0.384616
v 2.307692 -0.384615 0.384615
v 2.306923 0.384615 -0.384616
v 2.306923 0.384615 0.384615
v 2.306923 -0.384615 -0.384616
v 2.306923 -0.384615 0.384615
v 2.307692 0.384615 0.384615
v 2.307692 0.384615 -0.384616
v 2.307692 -0.384615 0.384615
v 2.307692 -0.384615 -0.384616
v 2.307692 -0.383846 0.192307
v 2.692307 -0.383846 0.192307
v 2.307692 -0.384615 0.192307
v 2.692307 -0.384615 0.192307
v 2.692307 -0.383846 -0.192308
v 2.307692 -0.383846 -0.192308
v 2.692307 -0.384615 -0.192308
v 2.307692 -0.384615 -0.192308
v 2.692307 -0.383846 -0.192308
v 2.692307 -0.383846 0.192307
v 2.307692 -0.383846 -0.192308
v 2.307692 -0.383846 0.192307
v 2.307692 -0.384615 -0.192308
v 2.307692 -0.384615 0.192307
v 2.692307 -0.384615 -0.192308
v 2.692307 -0.384615 0.192307
v 2.307692 -0.383846 -0.192308
v 2.307692 -0.383846 0.192307
v 2.307692 -0.384615 -0.192308
v 2.307692 -0.384615 0.192307
v 2.692307 -0.383846 0.192307
v 2.692307 -0.383846 -0.192308
v 2.692307 -0.384615 0.192307
v 2.692307 -0.384615 -0.192308
v 2.307692 0.384615 -0.383847
v 2.692307 0.384615 -0.383847
v 2.307692 0.000000 -0.383847
v 2.692307 0.000000 -0.383847
v 2.692307 0.384615 -0.384616
v 2.307692 0.384615 -0.384616
v 2.692307 0.000000 -0.384616
v 2.307692 0.000000 -0.384616
v 2.692307 0.384615 -0.384616
v 2.692307 0.384615 -0.383847
v 2.307692 0.384615 -0.384616
v 2.307692 0.384615 -0.383847
v 2.307692 0.000000 -0.384616
v 2.307692 0.000000 -0.383847
v 2.692307 0.000000 -0.384616
v 2.692307 0.000000 -0.383847
v 2.307692 0.384615 -0.384616
v 2.307692 0.384615 -0.383847
v 2.307692 0.000000 -0.384616
v 2.307692 0.000000 -0.383847
v 2.692307 0.384615 -0.383847
v 2.692307 0.384615 -0.384616
v 2.692307 0.000000 -0.383847
v 2.692307 0.000000 -0.384616
v 2.307692 0.384615 0.385384
v 2.692307 0.384615 0.385384
v 2.307692 0.000000 0.385384
v 2.692307 0.000000 0.385384
v 2.692307 0.384615 0.384615
v 2.307692 0.384615 0.384615
v 2.692307 0.000000 0.384615
v 2.307692 0.000000 0.384615
v 2.692307 0.384615 0.384615
v 2.692307 0.384615 0.385384
v 2.307692 0.384615 0.384615
v 2.307692 0.384615 0.385384
v 2.307692 0.000000 0.384615
v 2.307692 0.000000 0.385384
v 2.692307 0.000000 0.384615
v 2.692307 0.000000 0.385384
v 2.307692 0.384615 0.384615
v 2.307692 0.384615 0.385384
v 2.307692 0.000000 0.384615
v 2.307692 0.000000 0.385384
v 2.692307 0.384615 0.385384
v 2.692307 0.384615 0.384615
v 2.692307 0.000000 0.385384
v 2.692307 0.000000 0.384615
v 0.769231 0.576923 -0.576154
v 2.692308 0.576923 -0.576154
v 0.769231 -0.576923 -0.576154
v 2.692308 -0.576923 -0.576154
v 2.692308 0.576923 -0.576924
v 0.769231 0.576923 -0.576923
v 2.692308 -0.576923 -0.576924
v 0.769231 -0.576923 -0.576923
v 2.692308 0.576923 -0.576924
v 2.692308 0.576923 -0.576154
v 0.769231 0.576923 -0.576923
v 0.769231 0.576923 -0.576154
v 0.769231 -0.576923 -0.576923
v 0.769231 -0.576923 -0.576154
v 2.692308 -0.576923 -0.576924
v 2.692308 -0.576923 -0.576154
v 0.769231 0.576923 -0.576923
v 0.769231 0.576923 -0.576154
v 0.769231 -0.576923 -0.576923
v 0.769231 -0.576923 -0.576154
v 2.692308 0.576923 -0.576154
v 2.692308 0.576923 -0.576924
v 2.692308 -0.576923 -0.576154
v 2.692308 -0.576923 -0.576924
v 0.768462 0.576923 0.576923
v 0.769231 0.576923 0.576923
v 0.768462 -0.576923 0.576923
v 0.769231 -0.576923 0.576923
v 0.769231 0.576923 -0.576923
v 0.768462 0.576923 -0.576923
v 0.769231 -0.576923 -0.576923
v 0.768462 -0.576923 -0.576923
v 0.769231 0.576923 -0.576923
v 0.769231 0.576923 0.576923
v 0.768462 0.576923 -0.576923
v 0.768462 0.576923 0.576923
v 0.768462 -0.576923 -0.576923
v 0.768462 -0.576923 0.576923
v 0.769231 -0.576923 -0.576923
v 0.769231 -0.576923 0.576923
v 0.768462 0.576923 -0.576923
v 0.768462 0.576923 0.576923
v 0.768462 -0.576923 -0.576923
v 0.768462 -0.576923 0.576923
v 0.769231 0.576923 0.576923
v 0.769231 0.576923 -0.576923
v 0.769231 -0.576923 0.576923
v 0.769231 -0.576923 -0.576923
v 0.769231 0.577692 0.576923
v 2.692308 0.577692 0.576922
v 0.769231 0.576923 0.576923
v 2.692308 0.576923 0.576922
v 2.692308 0.577692 -0.576924
v 0.769231 0.577692 -0.576923
v 2.692308 0.576923 -0.576924
v 0.769231 0.576923 -0.576923
v 2.692308 0.577692 -0.576924
v 2.692308 0.577692 0.576922
v 0.769231 0.577692 -0.576923
v 0.769231 0.577692 0.576923
v 0.769231 0.576923 -0.576923
v 0.769231 0.576923 0.576923
v 2.692308 0.576923 -0.576924
v 2.692308 0.576923 0.576922
v 0.769231 0.577692 -0.576923
v 0.769231 0.577692 0.576923
v 0.769231 0.576923 -0.576923
v 0.769231 0.576923 0.576923
v 2.692308 0.577692 0.576922
v 2.692308 0.577692 -0.576924
v 2.692308 0.576923 0.576922
v 2.692308 0.576923 -0.576924
v 0.769231 -0.576154 0.576923
v 2.692308 -0.576154 0.576922
v 0.769231 -0.576923 0.576923
v 2.692308 -0.576923 0.576922
v 2.692308 -0.576154 -0.576924
v 0.769231 -0.576154 -0.576923
v 2.692308 -0.576923 -0.576924
v 0.769231 -0.576923 -0.576923
v 2.692308 -0.576154 -0.576924
v 2.692308 -0.576154 0.576922
v 0.769231 -0.576154 -0.576923
v 0.769231 -0.576154 0.576923
v 0.769231 -0.576923 -0.576923
v 0.769231 -0.576923 0.576923
v 2.692308 -0.576923 -0.576924
v 2.692308 -0.576923 0.576922
v 0.769231 -0.576154 -0.576923
v 0.769231 -0.576154 0.576923
v 0.769231 -0.576923 -0.576923
v 0.769231 -0.576923 0.576923
v 2.692308 -0.576154 0.576922
v 2.692308 -0.576154 -0.576924
v 2.692308 -0.576923 0.576922
v 2.692308 -0.576923 -0.576924
v 0.769231 0.576923 0.577692
v 2.692308 0.576923 0.577692
v 0.769231 -0.576923 0.577692
v 2.692308 -0.576923 0.577692
v 2.692308 0.576923 0.576922
v 0.769231 0.576923 0.576923
v 2.692308 -0.576923 0.576922
v 0.769231 -0.576923 0.576923
v 2.692308 0.576923 0.576922
v 2.692308 0.576923 0.577692
v 0.769231 0.576923 0.576923
v 0.769231 0.576923 0.577692
v 0.769231 -0.576923 0.576923
v 0.769231 -0.576923 0.577692
v 2.692308 -0.576923 0.576922
v 2.692308 -0.576923 0.577692
v 0.769231 0.576923 0.576923
v 0.769231 0.576923 0.577692
v 0.769231 -0.576923 0.576923
v 0.769231 -0.576923 0.577692
v 2.692308 0.576923 0.577692
v 2.692308 0.576923 0.576922
v 2.692308 -0.576923 0.577692
v 2.692308 -0.576923 0.576922
vn -0.0000 -0.0000 1.0000
vn -0.0000 -0.0000 -1.0000
vn -0.0000 1.0000 -0.0000
vn -0.0000 -1.0000 -0.0000
vn -1.0000 -0.0000 -0.0000
vn 1.0000 -0.0000 -0.0000
vt 0.437500 0.500000
vt 0.437500 0.437500
vt 0.468750 0.500000
vt 0.468750 0.437500
vt 0.500000 0.562500
vt 0.500000 0.500000
vt 0.531250 0.562500
vt 0.531250 0.500000
vt 0.562500 0.468750
vt 0.562500 0.500000
vt 0.500000 0.468750
vt 0.125000 0.437500
vt 0.125000 0.406250
vt 0.062500 0.437500
vt 0.062500 0.406250
vt 0.500000 0.687500
vt 0.500000 0.625000
vt 0.562500 0.687500
vt 0.562500 0.625000
vt 0.312500 0.500000
vt 0.312500 0.437500
vt 0.375000 0.500000
vt 0.375000 0.437500
vt 0.000000 1.000000
vt 0.187500 1.000000
vt 0.187500 0.562500
vt 0.187500 0.750000
vt 0.125000 0.562500
vt 0.125000 0.750000
vt 0.250000 0.625000
vt 0.250000 0.437500
vt 0.187500 0.625000
vt 0.187500 0.437500
vt 0.062500 1.000000
vt 0.312500 0.625000
vt 0.062500 0.562500
vt 0.062500 0.375000
vt 0.000000 0.562500
vt 0.000000 0.375000
vt 0.437500 1.000000
vt 0.437500 0.937500
vt 0.625000 1.000000
vt 0.625000 0.937500
vt 0.437500 0.875000
vt 0.625000 0.875000
vt 0.000000 0.812500
vt 0.000000 0.937500
vt 0.437500 0.812500
vt 0.625000 0.812500
vt 0.312500 0.562500
vt 0.562500 0.562500
vt 0.031250 1.000000
vt 0.156250 0.406250
vt 0.156250 0.437500
vt 0.218750 0.437500
vt 0.218750 0.406250
vt 0.187500 0.406250
vt 0.250000 0.406250
vt 0.281250 0.437500
vt 0.281250 0.406250
vt 0.312500 0.406250
vt 0.343750 0.437500
vt 0.343750 0.406250
vt 0.000000 0.968750
vt 0.562500 0.656250
vt 0.593750 0.687500
vt 0.593750 0.656250
vt 0.375000 0.406250
vt 0.406250 0.437500
vt 0.406250 0.406250
vt 0.000000 0.906250
vt 0.156250 1.000000
vt 0.156250 0.906250
vt 0.000000 0.875000
vt 0.000000 0.781250
vt 0.156250 0.875000
vt 0.156250 0.781250
vt 0.000000 0.843750
vt 0.093750 1.000000
vt 0.500000 0.812500
vt 0.500000 0.718750
vt 0.593750 0.812500
vt 0.593750 0.718750
vt 0.062500 0.468750
vt 0.156250 0.562500
vt 0.156250 0.468750
vt 0.281250 0.843750
vt 0.281250 1.000000
vt 0.187500 0.843750
vt 0.281250 0.812500
vt 0.281250 0.656250
vt 0.187500 0.812500
vt 0.187500 0.656250
vt 0.093750 0.593750
vt 0.093750 0.750000
vt 0.000000 0.593750
vt 0.000000 0.750000
vt 0.406250 1.000000
vt 0.406250 0.843750
vt 0.312500 1.000000
vt 0.312500 0.843750
vt 0.312500 0.812500
vt 0.312500 0.718750
vt 0.468750 0.812500
vt 0.468750 0.718750
vt 0.312500 0.687500
vt 0.312500 0.593750
vt 0.468750 0.687500
vt 0.468750 0.593750
s 0
usemtl Material_0
f 1/1/1 3/2/1 2/3/1
f 3/2/1 4/4/1 2/3/1
f 5/5/2 7/6/2 6/7/2
f 7/6/2 8/8/2 6/7/2
f 9/9/3 11/10/3 10/11/3
f 11/10/3 12/6/3 10/11/3
f 13/12/4 15/13/4 14/14/4
f 15/13/4 16/15/4 14/14/4
f 17/16/5 19/17/5 18/18/5
f 19/17/5 20/19/5 18/18/5
f 21/20/6 23/21/6 22/22/6
f 23/21/6 24/23/6 22/22/6
f 25/24/1 27/24/1 26/25/1
f 27/24/1 28/25/1 26/25/1
f 29/24/2 31/24/2 30/25/2
f 31/24/2 32/25/2 30/25/2
f 33/26/3 35/27/3 34/28/3
f 35/27/3 36/29/3 34/28/3
f 37/30/4 39/31/4 38/32/4
f 39/31/4 40/33/4 38/32/4
f 41/24/5 43/24/5 42/34/5
f 43/24/5 44/34/5 42/34/5
f 45/24/6 47/24/6 46/34/6
f 47/24/6 48/34/6 46/34/6
f 49/24/1 51/24/1 50/25/1
f 51/24/1 52/25/1 50/25/1
f 53/24/2 55/24/2 54/25/2
f 55/24/2 56/25/2 54/25/2
f 57/21/3 59/35/3 58/31/3
f 59/35/3 60/30/3 58/31/3
f 61/36/4 63/37/4 62/38/4
f 63/37/4 64/39/4 62/38/4
f 65/24/5 67/24/5 66/34/5
f 67/24/5 68/34/5 66/34/5
f 69/24/6 71/24/6 70/34/6
f 71/24/6 72/34/6 70/34/6
f 73/40/1 75/41/1 74/42/1
f 75/41/1 76/43/1 74/42/1
f 77/41/2 79/44/2 78/43/2
f 79/44/2 80/45/2 78/43/2
f 81/46/3 83/24/3 82/46/3
f 83/24/3 84/24/3 82/46/3
f 85/24/4 87/46/4 86/24/4
f 87/46/4 88/46/4 86/24/4
f 89/24/5 91/47/5 90/24/5
f 91/47/5 92/47/5 90/24/5
f 93/24/6 95/47/6 94/24/6
f 95/47/6 96/47/6 94/24/6
f 97/44/1 99/48/1 98/45/1
f 99/48/1 100/49/1 98/45/1
f 101/50/2 103/20/2 102/5/2
f 103/20/2 104/6/2 102/5/2
f 105/46/3 107/24/3 106/46/3
f 107/24/3 108/24/3 106/46/3
f 109/24/4 111/46/4 110/24/4
f 111/46/4 112/46/4 110/24/4
f 113/24/5 115/47/5 114/24/5
f 115/47/5 116/47/5 114/24/5
f 117/24/6 119/47/6 118/24/6
f 119/47/6 120/47/6 118/24/6
f 121/24/1 123/47/1 122/24/1
f 123/47/1 124/47/1 122/24/1
f 125/24/2 127/47/2 126/24/2
f 127/47/2 128/47/2 126/24/2
f 129/34/3 131/34/3 130/24/3
f 131/34/3 132/24/3 130/24/3
f 133/34/4 135/34/4 134/24/4
f 135/34/4 136/24/4 134/24/4
f 137/17/5 139/5/5 138/19/5
f 139/5/5 140/51/5 138/19/5
f 141/22/6 143/23/6 142/1/6
f 143/23/6 144/2/6 142/1/6
f 145/24/1 147/24/1 146/52/1
f 147/24/1 148/52/1 146/52/1
f 149/24/2 151/24/2 150/52/2
f 151/24/2 152/52/2 150/52/2
f 153/53/3 155/54/3 154/13/3
f 155/54/3 156/12/3 154/13/3
f 157/55/4 159/56/4 158/33/4
f 159/56/4 160/57/4 158/33/4
f 161/24/5 163/24/5 162/52/5
f 163/24/5 164/52/5 162/52/5
f 165/24/6 167/24/6 166/52/6
f 167/24/6 168/52/6 166/52/6
f 169/31/1 171/58/1 170/59/1
f 171/58/1 172/60/1 170/59/1
f 173/21/2 175/61/2 174/62/2
f 175/61/2 176/63/2 174/62/2
f 177/64/3 179/24/3 178/64/3
f 179/24/3 180/24/3 178/64/3
f 181/24/4 183/64/4 182/24/4
f 183/64/4 184/64/4 182/24/4
f 185/24/5 187/64/5 186/24/5
f 187/64/5 188/64/5 186/24/5
f 189/24/6 191/64/6 190/24/6
f 191/64/6 192/64/6 190/24/6
f 193/18/1 195/65/1 194/66/1
f 195/65/1 196/67/1 194/66/1
f 197/23/2 199/68/2 198/69/2
f 199/68/2 200/70/2 198/69/2
f 201/64/3 203/24/3 202/64/3
f 203/24/3 204/24/3 202/64/3
f 205/24/4 207/64/4 206/24/4
f 207/64/4 208/64/4 206/24/4
f 209/24/5 211/64/5 210/24/5
f 211/64/5 212/64/5 210/24/5
f 213/24/6 215/64/6 214/24/6
f 215/64/6 216/64/6 214/24/6
f 217/24/1 219/71/1 218/72/1
f 219/71/1 220/73/1 218/72/1
f 221/74/2 223/75/2 222/76/2
f 223/75/2 224/77/2 222/76/2
f 225/78/3 227/24/3 226/78/3
f 227/24/3 228/24/3 226/78/3
f 229/24/4 231/78/4 230/24/4
f 231/78/4 232/78/4 230/24/4
f 233/24/5 235/71/5 234/24/5
f 235/71/5 236/71/5 234/24/5
f 237/24/6 239/71/6 238/24/6
f 239/71/6 240/71/6 238/24/6
f 241/24/1 243/71/1 242/24/1
f 243/71/1 244/71/1 242/24/1
f 245/24/2 247/71/2 246/24/2
f 247/71/2 248/71/2 246/24/2
f 249/79/3 251/79/3 250/24/3
f 251/79/3 252/24/3 250/24/3
f 253/79/4 255/79/4 254/24/4
f 255/79/4 256/24/4 254/24/4
f 257/80/5 259/81/5 258/82/5
f 259/81/5 260/83/5 258/82/5
f 261/36/6 263/84/6 262/85/6
f 263/84/6 264/86/6 262/85/6
f 265/24/1 267/24/1 266/72/1
f 267/24/1 268/72/1 266/72/1
f 269/24/2 271/24/2 270/72/2
f 271/24/2 272/72/2 270/72/2
f 273/87/3 275/88/3 274/89/3
f 275/88/3 276/25/3 274/89/3
f 277/90/4 279/91/4 278/92/4
f 279/91/4 280/93/4 278/92/4
f 281/24/5 283/24/5 282/79/5
f 283/24/5 284/79/5 282/79/5
f 285/24/6 287/24/6 286/79/6
f 287/24/6 288/79/6 286/79/6
f 289/24/1 291/24/1 290/72/1
f 291/24/1 292/72/1 290/72/1
f 293/24/2 295/24/2 294/72/2
f 295/24/2 296/72/2 294/72/2
f 297/94/3 299/95/3 298/96/3
f 299/95/3 300/97/3 298/96/3
f 301/98/4 303/99/4 302/100/4
f 303/99/4 304/101/4 302/100/4
f 305/24/5 307/24/5 306/79/5
f 307/24/5 308/79/5 306/79/5
f 309/24/6 311/24/6 310/79/6
f 311/24/6 312/79/6 310/79/6
f 313/102/1 315/103/1 314/104/1
f 315/103/1 316/105/1 314/104/1
f 317/106/2 319/107/2 318/108/2
f 319/107/2 320/109/2 318/108/2
f 321/78/3 323/24/3 322/78/3
f 323/24/3 324/24/3 322/78/3
f 325/24/4 327/78/4 326/24/4
f 327/78/4 328/78/4 326/24/4
f 329/24/5 331/71/5 330/24/5
f 331/71/5 332/71/5 330/24/5
f 333/24/6 335/71/6 334/24/6
f 335/71/6 336/71/6 334/24/6
