# Blender 4.2.1 LTS
# www.blender.org
mtllib lev.binlen.mtl
o overlaySolidModel
v -0.000738 0.046875 0.046875
v -0.000676 0.046875 0.046875
v -0.000738 -0.046875 0.046875
v -0.000676 -0.046875 0.046875
v -0.000676 0.046875 -0.046875
v -0.000738 0.046875 -0.046875
v -0.000676 -0.046875 -0.046875
v -0.000738 -0.046875 -0.046875
v -0.000676 0.046875 -0.046875
v -0.000676 0.046875 0.046875
v -0.000738 0.046875 -0.046875
v -0.000738 0.046875 0.046875
v -0.000738 -0.046875 -0.046875
v -0.000738 -0.046875 0.046875
v -0.000676 -0.046875 -0.046875
v -0.000676 -0.046875 0.046875
v -0.000738 0.046875 -0.046875
v -0.000738 0.046875 0.046875
v -0.000738 -0.046875 -0.046875
v -0.000738 -0.046875 0.046875
v -0.000676 0.046875 0.046875
v -0.000676 0.046875 -0.046875
v -0.000676 -0.046875 0.046875
v -0.000676 -0.046875 -0.046875
vn -0.0000 -0.0000 1.0000
vn -0.0000 -0.0000 -1.0000
vn -0.0000 1.0000 -0.0000
vn -0.0000 -1.0000 -0.0000
vn -1.0000 -0.0000 -0.0000
vn 1.0000 -0.0000 -0.0000
vt 0.912177 0.087823
vt 0.912177 0.005927
vt 0.994073 0.087823
vt 0.994073 0.005927
vt 0.906250 0.093750
vt 0.906250 0.000000
vt 1.000000 0.093750
vt 1.000000 0.000000
s 0
usemtl Material_0.002
f 1/1/1 3/2/1 2/3/1
f 3/2/1 4/4/1 2/3/1
f 5/1/2 7/2/2 6/3/2
f 7/2/2 8/4/2 6/3/2
f 9/1/3 11/2/3 10/3/3
f 11/2/3 12/4/3 10/3/3
f 13/5/4 15/6/4 14/7/4
f 15/6/4 16/8/4 14/7/4
f 17/1/5 19/2/5 18/3/5
f 19/2/5 20/4/5 18/3/5
f 21/1/6 23/2/6 22/3/6
f 23/2/6 24/4/6 22/3/6
o scopeModel
v -0.000031 0.046875 0.046875
v 0.000031 0.046875 0.046875
v -0.000031 -0.046875 0.046875
v 0.000031 -0.046875 0.046875
v 0.000031 0.046875 -0.046875
v -0.000031 0.046875 -0.046875
v 0.000031 -0.046875 -0.046875
v -0.000031 -0.046875 -0.046875
v 0.000031 0.046875 -0.046875
v 0.000031 0.046875 0.046875
v -0.000031 0.046875 -0.046875
v -0.000031 0.046875 0.046875
v -0.000031 -0.046875 -0.046875
v -0.000031 -0.046875 0.046875
v 0.000031 -0.046875 -0.046875
v 0.000031 -0.046875 0.046875
v -0.000031 0.046875 -0.046875
v -0.000031 0.046875 0.046875
v -0.000031 -0.046875 -0.046875
v -0.000031 -0.046875 0.046875
v 0.000031 0.046875 0.046875
v 0.000031 0.046875 -0.046875
v 0.000031 -0.046875 0.046875
v 0.000031 -0.046875 -0.046875
vn -0.0000 -0.0000 1.0000
vn -0.0000 -0.0000 -1.0000
vn -0.0000 1.0000 -0.0000
vn -0.0000 -1.0000 -0.0000
vn -1.0000 -0.0000 -0.0000
vn 1.0000 -0.0000 -0.0000
vt 0.281250 0.093750
vt 0.281250 0.000000
vt 0.375000 0.093750
vt 0.375000 0.000000
s 0
usemtl Material_0.002
f 25/9/7 27/10/7 26/11/7
f 27/10/7 28/12/7 26/11/7
f 29/9/8 31/10/8 30/11/8
f 31/10/8 32/12/8 30/11/8
f 33/9/9 35/10/9 34/11/9
f 35/10/9 36/12/9 34/11/9
f 37/9/10 39/10/10 38/11/10
f 39/10/10 40/12/10 38/11/10
f 41/9/11 43/10/11 42/11/11
f 43/10/11 44/12/11 42/11/11
f 45/9/12 47/10/12 46/11/12
f 47/10/12 48/12/12 46/11/12
o attachmentModel
v 0.001258 0.046875 0.046875
v 0.001320 0.046875 0.046875
v 0.001258 -0.046875 0.046875
v 0.001320 -0.046875 0.046875
v 0.001320 0.046875 -0.046875
v 0.001258 0.046875 -0.046875
v 0.001320 -0.046875 -0.046875
v 0.001258 -0.046875 -0.046875
v 0.001320 0.046875 -0.046875
v 0.001320 0.046875 0.046875
v 0.001258 0.046875 -0.046875
v 0.001258 0.046875 0.046875
v 0.001258 -0.046875 -0.046875
v 0.001258 -0.046875 0.046875
v 0.001320 -0.046875 -0.046875
v 0.001320 -0.046875 0.046875
v 0.001258 0.046875 -0.046875
v 0.001258 0.046875 0.046875
v 0.001258 -0.046875 -0.046875
v 0.001258 -0.046875 0.046875
v 0.001320 0.046875 0.046875
v 0.001320 0.046875 -0.046875
v 0.001320 -0.046875 0.046875
v 0.001320 -0.046875 -0.046875
vn -0.0000 -0.0000 1.0000
vn -0.0000 -0.0000 -1.0000
vn -0.0000 1.0000 -0.0000
vn -0.0000 -1.0000 -0.0000
vn -1.0000 -0.0000 -0.0000
vn 1.0000 -0.0000 -0.0000
vt 0.912177 0.087823
vt 0.912177 0.005927
vt 0.994073 0.087823
vt 0.994073 0.005927
vt 0.906250 0.093750
vt 0.906250 0.000000
vt 1.000000 0.093750
vt 1.000000 0.000000
vt 0.537177 0.462823
vt 0.537177 0.380927
vt 0.619073 0.462823
vt 0.619073 0.380927
s 0
usemtl Material_0.001
f 49/13/13 51/14/13 50/15/13
f 51/14/13 52/16/13 50/15/13
f 53/13/14 55/14/14 54/15/14
f 55/14/14 56/16/14 54/15/14
f 57/13/15 59/14/15 58/15/15
f 59/14/15 60/16/15 58/15/15
f 61/17/16 63/18/16 62/19/16
f 63/18/16 64/20/16 62/19/16
f 65/21/17 67/22/17 66/23/17
f 67/22/17 68/24/17 66/23/17
f 69/21/18 71/22/18 70/23/18
f 71/22/18 72/24/18 70/23/18
