# Blender 4.4.0
# www.blender.org
mtllib lev.nightforce.mtl
o attachmentModel
v 1.153846 1.923077 0.576923
v 1.923077 1.923077 0.576923
v 1.153846 0.769231 0.576923
v 1.923077 0.769231 0.576923
v 1.923077 1.923077 -0.576923
v 1.153846 1.923077 -0.576923
v 1.923077 0.769231 -0.576923
v 1.153846 0.769231 -0.576923
v 1.923077 1.923077 -0.576923
v 1.923077 1.923077 0.576923
v 1.153846 1.923077 -0.576923
v 1.153846 1.923077 0.576923
v 1.153846 0.769231 -0.576923
v 1.153846 0.769231 0.576923
v 1.923077 0.769231 -0.576923
v 1.923077 0.769231 0.576923
v 1.153846 1.923077 -0.576923
v 1.153846 1.923077 0.576923
v 1.153846 0.769231 -0.576923
v 1.153846 0.769231 0.576923
v 1.923077 1.923077 0.576923
v 1.923077 1.923077 -0.576923
v 1.923077 0.769231 0.576923
v 1.923077 0.769231 -0.576923
v 1.153846 1.539231 0.769230
v 1.923077 1.539231 0.769230
v 1.153846 1.153846 0.769230
v 1.923077 1.153846 0.769230
v 1.923077 1.539231 -0.769231
v 1.153846 1.539231 -0.769231
v 1.923077 1.153846 -0.769231
v 1.153846 1.153846 -0.769231
v 1.923077 1.539231 -0.769231
v 1.923077 1.539231 0.769230
v 1.153846 1.539231 -0.769231
v 1.153846 1.539231 0.769230
v 1.153846 1.153846 -0.769231
v 1.153846 1.153846 0.769230
v 1.923077 1.153846 -0.769231
v 1.923077 1.153846 0.769230
v 1.153846 1.539231 -0.769231
v 1.153846 1.539231 0.769230
v 1.153846 1.153846 -0.769231
v 1.153846 1.153846 0.769230
v 1.923077 1.539231 0.769230
v 1.923077 1.539231 -0.769231
v 1.923077 1.153846 0.769230
v 1.923077 1.153846 -0.769231
v -1.538461 1.539231 0.769231
v -0.769231 1.539231 0.769231
v -1.538461 1.153846 0.769231
v -0.769231 1.153846 0.769231
v -0.769231 1.539231 -0.769231
v -1.538462 1.539231 -0.769230
v -0.769231 1.153846 -0.769231
v -1.538462 1.153846 -0.769230
v -0.769231 1.539231 -0.769231
v -0.769231 1.539231 0.769231
v -1.538462 1.539231 -0.769230
v -1.538461 1.539231 0.769231
v -1.538462 1.153846 -0.769230
v -1.538461 1.153846 0.769231
v -0.769231 1.153846 -0.769231
v -0.769231 1.153846 0.769231
v -1.538462 1.539231 -0.769230
v -1.538461 1.539231 0.769231
v -1.538462 1.153846 -0.769230
v -1.538461 1.153846 0.769231
v -0.769231 1.539231 0.769231
v -0.769231 1.539231 -0.769231
v -0.769231 1.153846 0.769231
v -0.769231 1.153846 -0.769231
v -0.384615 1.730769 0.769231
v 0.384616 1.730769 0.769231
v -0.384615 0.961538 0.769231
v 0.384616 0.961538 0.769231
v 0.384615 1.730769 -0.769231
v -0.384616 1.730769 -0.769231
v 0.384615 0.961538 -0.769231
v -0.384616 0.961538 -0.769231
v 0.384615 1.730769 -0.769231
v 0.384616 1.730769 0.769231
v -0.384616 1.730769 -0.769231
v -0.384615 1.730769 0.769231
v -0.384616 0.961538 -0.769231
v -0.384615 0.961538 0.769231
v 0.384615 0.961538 -0.769231
v 0.384616 0.961538 0.769231
v -0.384616 1.730769 -0.769231
v -0.384615 1.730769 0.769231
v -0.384616 0.961538 -0.769231
v -0.384615 0.961538 0.769231
v 0.384616 1.730769 0.769231
v 0.384615 1.730769 -0.769231
v 0.384616 0.961538 0.769231
v 0.384615 0.961538 -0.769231
v -0.384615 2.115385 0.384615
v 0.384615 2.115385 0.384615
v -0.384615 1.730769 0.384615
v 0.384615 1.730769 0.384615
v 0.384615 2.115385 -0.384615
v -0.384615 2.115385 -0.384615
v 0.384615 1.730769 -0.384615
v -0.384615 1.730769 -0.384615
v 0.384615 2.115385 -0.384615
v 0.384615 2.115385 0.384615
v -0.384615 2.115385 -0.384615
v -0.384615 2.115385 0.384615
v -0.384615 1.730769 -0.384615
v -0.384615 1.730769 0.384615
v 0.384615 1.730769 -0.384615
v 0.384615 1.730769 0.384615
v -0.384615 2.115385 -0.384615
v -0.384615 2.115385 0.384615
v -0.384615 1.730769 -0.384615
v -0.384615 1.730769 0.384615
v 0.384615 2.115385 0.384615
v 0.384615 2.115385 -0.384615
v 0.384615 1.730769 0.384615
v 0.384615 1.730769 -0.384615
v -1.538461 1.923077 0.576923
v -0.769231 1.923077 0.576923
v -1.538461 0.769231 0.576923
v -0.769231 0.769231 0.576923
v -0.769231 1.923077 -0.576923
v -1.538462 1.923077 -0.576923
v -0.769231 0.769231 -0.576923
v -1.538462 0.769231 -0.576923
v -0.769231 1.923077 -0.576923
v -0.769231 1.923077 0.576923
v -1.538462 1.923077 -0.576923
v -1.538461 1.923077 0.576923
v -1.538462 0.769231 -0.576923
v -1.538461 0.769231 0.576923
v -0.769231 0.769231 -0.576923
v -0.769231 0.769231 0.576923
v -1.538462 1.923077 -0.576923
v -1.538461 1.923077 0.576923
v -1.538462 0.769231 -0.576923
v -1.538461 0.769231 0.576923
v -0.769231 1.923077 0.576923
v -0.769231 1.923077 -0.576923
v -0.769231 0.769231 0.576923
v -0.769231 0.769231 -0.576923
v -4.596922 1.923077 0.576924
v -4.596153 1.923077 0.576924
v -4.596922 0.769231 0.576924
v -4.596153 0.769231 0.576924
v -4.596153 1.923077 -0.576922
v -4.596922 1.923077 -0.576922
v -4.596153 0.769231 -0.576922
v -4.596922 0.769231 -0.576922
v -4.596153 1.923077 -0.576922
v -4.596153 1.923077 0.576924
v -4.596922 1.923077 -0.576922
v -4.596922 1.923077 0.576924
v -4.596922 0.769231 -0.576922
v -4.596922 0.769231 0.576924
v -4.596153 0.769231 -0.576922
v -4.596153 0.769231 0.576924
v -4.596922 1.923077 -0.576922
v -4.596922 1.923077 0.576924
v -4.596922 0.769231 -0.576922
v -4.596922 0.769231 0.576924
v -4.596153 1.923077 0.576924
v -4.596153 1.923077 -0.576922
v -4.596153 0.769231 0.576924
v -4.596153 0.769231 -0.576922
v -4.616153 1.923077 -0.461538
v -4.615384 1.923077 -0.461538
v -4.616153 0.769231 -0.461538
v -4.615384 0.769231 -0.461538
v -4.615384 1.923077 -0.576922
v -4.616153 1.923077 -0.576922
v -4.615384 0.769231 -0.576922
v -4.616153 0.769231 -0.576922
v -4.615384 1.923077 -0.576922
v -4.615384 1.923077 -0.461538
v -4.616153 1.923077 -0.576922
v -4.616153 1.923077 -0.461538
v -4.616153 0.769231 -0.576922
v -4.616153 0.769231 -0.461538
v -4.615384 0.769231 -0.576922
v -4.615384 0.769231 -0.461538
v -4.616153 1.923077 -0.576922
v -4.616153 1.923077 -0.461538
v -4.616153 0.769231 -0.576922
v -4.616153 0.769231 -0.461538
v -4.615384 1.923077 -0.461538
v -4.615384 1.923077 -0.576922
v -4.615384 0.769231 -0.461538
v -4.615384 0.769231 -0.576922
v -4.616153 1.923077 0.576924
v -4.615384 1.923077 0.576924
v -4.616153 0.769231 0.576924
v -4.615384 0.769231 0.576924
v -4.615384 1.923077 0.461539
v -4.616153 1.923077 0.461539
v -4.615384 0.769231 0.461539
v -4.616153 0.769231 0.461539
v -4.615384 1.923077 0.461539
v -4.615384 1.923077 0.576924
v -4.616153 1.923077 0.461539
v -4.616153 1.923077 0.576924
v -4.616153 0.769231 0.461539
v -4.616153 0.769231 0.576924
v -4.615384 0.769231 0.461539
v -4.615384 0.769231 0.576924
v -4.616153 1.923077 0.461539
v -4.616153 1.923077 0.576924
v -4.616153 0.769231 0.461539
v -4.616153 0.769231 0.576924
v -4.615384 1.923077 0.576924
v -4.615384 1.923077 0.461539
v -4.615384 0.769231 0.576924
v -4.615384 0.769231 0.461539
v -4.616153 0.884615 0.461539
v -4.615384 0.884615 0.461539
v -4.616153 0.769231 0.461539
v -4.615384 0.769231 0.461539
v -4.615384 0.884615 -0.461538
v -4.616153 0.884615 -0.461538
v -4.615384 0.769231 -0.461538
v -4.616153 0.769231 -0.461538
v -4.615384 0.884615 -0.461538
v -4.615384 0.884615 0.461539
v -4.616153 0.884615 -0.461538
v -4.616153 0.884615 0.461539
v -4.616153 0.769231 -0.461538
v -4.616153 0.769231 0.461539
v -4.615384 0.769231 -0.461538
v -4.615384 0.769231 0.461539
v -4.616153 0.884615 -0.461538
v -4.616153 0.884615 0.461539
v -4.616153 0.769231 -0.461538
v -4.616153 0.769231 0.461539
v -4.615384 0.884615 0.461539
v -4.615384 0.884615 -0.461538
v -4.615384 0.769231 0.461539
v -4.615384 0.769231 -0.461538
v -4.616153 1.923077 0.461539
v -4.615384 1.923077 0.461539
v -4.616153 1.807692 0.461539
v -4.615384 1.807692 0.461539
v -4.615384 1.923077 -0.461538
v -4.616153 1.923077 -0.461538
v -4.615384 1.807692 -0.461538
v -4.616153 1.807692 -0.461538
v -4.615384 1.923077 -0.461538
v -4.615384 1.923077 0.461539
v -4.616153 1.923077 -0.461538
v -4.616153 1.923077 0.461539
v -4.616153 1.807692 -0.461538
v -4.616153 1.807692 0.461539
v -4.615384 1.807692 -0.461538
v -4.615384 1.807692 0.461539
v -4.616153 1.923077 -0.461538
v -4.616153 1.923077 0.461539
v -4.616153 1.807692 -0.461538
v -4.616153 1.807692 0.461539
v -4.615384 1.923077 0.461539
v -4.615384 1.923077 -0.461538
v -4.615384 1.807692 0.461539
v -4.615384 1.807692 -0.461538
v 2.692307 1.923077 0.576922
v 4.230769 1.923077 0.576922
v 2.692307 0.769231 0.576922
v 4.230769 0.769231 0.576922
v 4.230769 1.923077 -0.576924
v 2.692307 1.923077 -0.576924
v 4.230769 0.769231 -0.576924
v 2.692307 0.769231 -0.576924
v 4.230769 1.923077 -0.576924
v 4.230769 1.923077 0.576922
v 2.692307 1.923077 -0.576924
v 2.692307 1.923077 0.576922
v 2.692307 0.769231 -0.576924
v 2.692307 0.769231 0.576922
v 4.230769 0.769231 -0.576924
v 4.230769 0.769231 0.576922
v 2.692307 1.923077 -0.576924
v 2.692307 1.923077 0.576922
v 2.692307 0.769231 -0.576924
v 2.692307 0.769231 0.576922
v 4.230769 1.923077 0.576922
v 4.230769 1.923077 -0.576924
v 4.230769 0.769231 0.576922
v 4.230769 0.769231 -0.576924
v 4.230769 2.115385 0.769230
v 5.000000 2.115385 0.769230
v 4.230769 0.576923 0.769230
v 5.000000 0.576923 0.769230
v 5.000000 2.115385 -0.769232
v 4.230769 2.115385 -0.769232
v 5.000000 0.576923 -0.769232
v 4.230769 0.576923 -0.769232
v 5.000000 2.115385 -0.769232
v 5.000000 2.115385 0.769230
v 4.230769 2.115385 -0.769232
v 4.230769 2.115385 0.769230
v 4.230769 0.576923 -0.769232
v 4.230769 0.576923 0.769230
v 5.000000 0.576923 -0.769232
v 5.000000 0.576923 0.769230
v 4.230769 2.115385 -0.769232
v 4.230769 2.115385 0.769230
v 4.230769 0.576923 -0.769232
v 4.230769 0.576923 0.769230
v 5.000000 2.115385 0.769230
v 5.000000 2.115385 -0.769232
v 5.000000 0.576923 0.769230
v 5.000000 0.576923 -0.769232
v 1.153846 0.769231 0.384615
v 1.923077 0.769231 0.384615
v 1.153846 0.384615 0.384615
v 1.923077 0.384615 0.384615
v 1.923077 0.769231 -0.384616
v 1.153846 0.769231 -0.384616
v 1.923077 0.384615 -0.384616
v 1.153846 0.384615 -0.384616
v 1.923077 0.769231 -0.384616
v 1.923077 0.769231 0.384615
v 1.153846 0.769231 -0.384616
v 1.153846 0.769231 0.384615
v 1.153846 0.384615 -0.384616
v 1.153846 0.384615 0.384615
v 1.923077 0.384615 -0.384616
v 1.923077 0.384615 0.384615
v 1.153846 0.769231 -0.384616
v 1.153846 0.769231 0.384615
v 1.153846 0.384615 -0.384616
v 1.153846 0.384615 0.384615
v 1.923077 0.769231 0.384615
v 1.923077 0.769231 -0.384616
v 1.923077 0.384615 0.384615
v 1.923077 0.384615 -0.384616
v -1.538461 0.769231 0.384616
v -0.769231 0.769231 0.384616
v -1.538461 0.384615 0.384616
v -0.769231 0.384615 0.384616
v -0.769231 0.769231 -0.384615
v -1.538462 0.769231 -0.384615
v -0.769231 0.384615 -0.384615
v -1.538462 0.384615 -0.384615
v -0.769231 0.769231 -0.384615
v -0.769231 0.769231 0.384616
v -1.538462 0.769231 -0.384615
v -1.538461 0.769231 0.384616
v -1.538462 0.384615 -0.384615
v -1.538461 0.384615 0.384616
v -0.769231 0.384615 -0.384615
v -0.769231 0.384615 0.384616
v -1.538462 0.769231 -0.384615
v -1.538461 0.769231 0.384616
v -1.538462 0.384615 -0.384615
v -1.538461 0.384615 0.384616
v -0.769231 0.769231 0.384616
v -0.769231 0.769231 -0.384615
v -0.769231 0.384615 0.384616
v -0.769231 0.384615 -0.384615
v -2.307692 1.346154 0.543929
v 2.692307 1.346154 0.543928
v -2.307692 0.802226 0.000001
v 2.692307 0.802226 -0.000000
v 2.692307 1.890082 -0.000000
v -2.307692 1.890082 0.000001
v 2.692307 1.346154 -0.543929
v -2.307692 1.346154 -0.543928
v 2.692307 1.890082 -0.000000
v 2.692307 1.346154 0.543928
v -2.307692 1.890082 0.000001
v -2.307692 1.346154 0.543929
v -2.307692 1.346154 -0.543928
v -2.307692 0.802226 0.000001
v 2.692307 1.346154 -0.543929
v 2.692307 0.802226 -0.000000
v -2.307692 1.890082 0.000001
v -2.307692 1.346154 0.543929
v -2.307692 1.346154 -0.543928
v -2.307692 0.802226 0.000001
v 2.692307 1.346154 0.543928
v 2.692307 1.890082 -0.000000
v 2.692307 0.802226 -0.000000
v 2.692307 1.346154 -0.543929
v -1.538461 0.384615 0.769231
v -0.769231 0.384615 0.769231
v -1.538461 0.000000 0.769231
v -0.769231 0.000000 0.769231
v -0.769231 0.384615 -0.769231
v -1.538462 0.384615 -0.769230
v -0.769231 0.000000 -0.769231
v -1.538462 0.000000 -0.769230
v -0.769231 0.384615 -0.769231
v -0.769231 0.384615 0.769231
v -1.538462 0.384615 -0.769230
v -1.538461 0.384615 0.769231
v -1.538462 0.000000 -0.769230
v -1.538461 0.000000 0.769231
v -0.769231 0.000000 -0.769231
v -0.769231 0.000000 0.769231
v -1.538462 0.384615 -0.769230
v -1.538461 0.384615 0.769231
v -1.538462 0.000000 -0.769230
v -1.538461 0.000000 0.769231
v -0.769231 0.384615 0.769231
v -0.769231 0.384615 -0.769231
v -0.769231 0.000000 0.769231
v -0.769231 0.000000 -0.769231
v -2.308461 1.923077 0.576923
v -2.307692 1.923077 0.576923
v -2.308461 0.769231 0.576923
v -2.307692 0.769231 0.576923
v -2.307692 1.923077 -0.576923
v -2.308461 1.923077 -0.576923
v -2.307692 0.769231 -0.576923
v -2.308461 0.769231 -0.576923
v -2.307692 1.923077 -0.576923
v -2.307692 1.923077 0.576923
v -2.308461 1.923077 -0.576923
v -2.308461 1.923077 0.576923
v -2.308461 0.769231 -0.576923
v -2.308461 0.769231 0.576923
v -2.307692 0.769231 -0.576923
v -2.307692 0.769231 0.576923
v -2.308461 1.923077 -0.576923
v -2.308461 1.923077 0.576923
v -2.308461 0.769231 -0.576923
v -2.308461 0.769231 0.576923
v -2.307692 1.923077 0.576923
v -2.307692 1.923077 -0.576923
v -2.307692 0.769231 0.576923
v -2.307692 0.769231 -0.576923
v -4.615384 1.923846 0.576924
v -2.307692 1.923846 0.576923
v -4.615384 1.923077 0.576924
v -2.307692 1.923077 0.576923
v -2.307692 1.923846 -0.576923
v -4.615384 1.923846 -0.576922
v -2.307692 1.923077 -0.576923
v -4.615384 1.923077 -0.576922
v -2.307692 1.923846 -0.576923
v -2.307692 1.923846 0.576923
v -4.615384 1.923846 -0.576922
v -4.615384 1.923846 0.576924
v -4.615384 1.923077 -0.576922
v -4.615384 1.923077 0.576924
v -2.307692 1.923077 -0.576923
v -2.307692 1.923077 0.576923
v -4.615384 1.923846 -0.576922
v -4.615384 1.923846 0.576924
v -4.615384 1.923077 -0.576922
v -4.615384 1.923077 0.576924
v -2.307692 1.923846 0.576923
v -2.307692 1.923846 -0.576923
v -2.307692 1.923077 0.576923
v -2.307692 1.923077 -0.576923
v -4.615384 1.923077 -0.576153
v -2.307692 1.923077 -0.576153
v -4.615384 0.769231 -0.576153
v -2.307692 0.769231 -0.576153
v -2.307692 1.923077 -0.576923
v -4.615384 1.923077 -0.576922
v -2.307692 0.769231 -0.576923
v -4.615384 0.769231 -0.576922
v -2.307692 1.923077 -0.576923
v -2.307692 1.923077 -0.576153
v -4.615384 1.923077 -0.576922
v -4.615384 1.923077 -0.576153
v -4.615384 0.769231 -0.576922
v -4.615384 0.769231 -0.576153
v -2.307692 0.769231 -0.576923
v -2.307692 0.769231 -0.576153
v -4.615384 1.923077 -0.576922
v -4.615384 1.923077 -0.576153
v -4.615384 0.769231 -0.576922
v -4.615384 0.769231 -0.576153
v -2.307692 1.923077 -0.576153
v -2.307692 1.923077 -0.576923
v -2.307692 0.769231 -0.576153
v -2.307692 0.769231 -0.576923
v -4.615384 1.923077 0.577693
v -2.307692 1.923077 0.577693
v -4.615384 0.769231 0.577693
v -2.307692 0.769231 0.577693
v -2.307692 1.923077 0.576923
v -4.615384 1.923077 0.576924
v -2.307692 0.769231 0.576923
v -4.615384 0.769231 0.576924
v -2.307692 1.923077 0.576923
v -2.307692 1.923077 0.577693
v -4.615384 1.923077 0.576924
v -4.615384 1.923077 0.577693
v -4.615384 0.769231 0.576924
v -4.615384 0.769231 0.577693
v -2.307692 0.769231 0.576923
v -2.307692 0.769231 0.577693
v -4.615384 1.923077 0.576924
v -4.615384 1.923077 0.577693
v -4.615384 0.769231 0.576924
v -4.615384 0.769231 0.577693
v -2.307692 1.923077 0.577693
v -2.307692 1.923077 0.576923
v -2.307692 0.769231 0.577693
v -2.307692 0.769231 0.576923
v -4.615384 0.770000 0.576924
v -2.307692 0.770000 0.576923
v -4.615384 0.769231 0.576924
v -2.307692 0.769231 0.576923
v -2.307692 0.770000 -0.576923
v -4.615384 0.770000 -0.576922
v -2.307692 0.769231 -0.576923
v -4.615384 0.769231 -0.576922
v -2.307692 0.770000 -0.576923
v -2.307692 0.770000 0.576923
v -4.615384 0.770000 -0.576922
v -4.615384 0.770000 0.576924
v -4.615384 0.769231 -0.576922
v -4.615384 0.769231 0.576924
v -2.307692 0.769231 -0.576923
v -2.307692 0.769231 0.576923
v -4.615384 0.770000 -0.576922
v -4.615384 0.770000 0.576924
v -4.615384 0.769231 -0.576922
v -4.615384 0.769231 0.576924
v -2.307692 0.770000 0.576923
v -2.307692 0.770000 -0.576923
v -2.307692 0.769231 0.576923
v -2.307692 0.769231 -0.576923
v 1.153846 0.384615 0.769230
v 1.923077 0.384615 0.769230
v 1.153846 0.000000 0.769230
v 1.923077 0.000000 0.769230
v 1.923077 0.384615 -0.769231
v 1.153846 0.384615 -0.769231
v 1.923077 0.000000 -0.769231
v 1.153846 0.000000 -0.769231
v 1.923077 0.384615 -0.769231
v 1.923077 0.384615 0.769230
v 1.153846 0.384615 -0.769231
v 1.153846 0.384615 0.769230
v 1.153846 0.000000 -0.769231
v 1.153846 0.000000 0.769230
v 1.923077 0.000000 -0.769231
v 1.923077 0.000000 0.769230
v 1.153846 0.384615 -0.769231
v 1.153846 0.384615 0.769230
v 1.153846 0.000000 -0.769231
v 1.153846 0.000000 0.769230
v 1.923077 0.384615 0.769230
v 1.923077 0.384615 -0.769231
v 1.923077 0.000000 0.769230
v 1.923077 0.000000 -0.769231
v -2.884615 2.308461 0.192308
v -2.500000 2.308461 0.192308
v -2.884615 2.307692 0.192308
v -2.500000 2.307692 0.192308
v -2.500000 2.308461 -0.192307
v -2.884615 2.308461 -0.192307
v -2.500000 2.307692 -0.192307
v -2.884615 2.307692 -0.192307
v -2.500000 2.308461 -0.192307
v -2.500000 2.308461 0.192308
v -2.884615 2.308461 -0.192307
v -2.884615 2.308461 0.192308
v -2.884615 2.307692 -0.192307
v -2.884615 2.307692 0.192308
v -2.500000 2.307692 -0.192307
v -2.500000 2.307692 0.192308
v -2.884615 2.308461 -0.192307
v -2.884615 2.308461 0.192308
v -2.884615 2.307692 -0.192307
v -2.884615 2.307692 0.192308
v -2.500000 2.308461 0.192308
v -2.500000 2.308461 -0.192307
v -2.500000 2.307692 0.192308
v -2.500000 2.307692 -0.192307
v -2.884615 2.307692 0.193077
v -2.500000 2.307692 0.193077
v -2.884615 1.923077 0.193077
v -2.500000 1.923077 0.193077
v -2.500000 2.307692 0.192308
v -2.884615 2.307692 0.192308
v -2.500000 1.923077 0.192308
v -2.884615 1.923077 0.192308
v -2.500000 2.307692 0.192308
v -2.500000 2.307692 0.193077
v -2.884615 2.307692 0.192308
v -2.884615 2.307692 0.193077
v -2.884615 1.923077 0.192308
v -2.884615 1.923077 0.193077
v -2.500000 1.923077 0.192308
v -2.500000 1.923077 0.193077
v -2.884615 2.307692 0.192308
v -2.884615 2.307692 0.193077
v -2.884615 1.923077 0.192308
v -2.884615 1.923077 0.193077
v -2.500000 2.307692 0.193077
v -2.500000 2.307692 0.192308
v -2.500000 1.923077 0.193077
v -2.500000 1.923077 0.192308
v -2.884615 2.307692 -0.191538
v -2.500000 2.307692 -0.191538
v -2.884615 1.923077 -0.191538
v -2.500000 1.923077 -0.191538
v -2.500000 2.307692 -0.192307
v -2.884615 2.307692 -0.192307
v -2.500000 1.923077 -0.192307
v -2.884615 1.923077 -0.192307
v -2.500000 2.307692 -0.192307
v -2.500000 2.307692 -0.191538
v -2.884615 2.307692 -0.192307
v -2.884615 2.307692 -0.191538
v -2.884615 1.923077 -0.192307
v -2.884615 1.923077 -0.191538
v -2.500000 1.923077 -0.192307
v -2.500000 1.923077 -0.191538
v -2.884615 2.307692 -0.192307
v -2.884615 2.307692 -0.191538
v -2.884615 1.923077 -0.192307
v -2.884615 1.923077 -0.191538
v -2.500000 2.307692 -0.191538
v -2.500000 2.307692 -0.192307
v -2.500000 1.923077 -0.191538
v -2.500000 1.923077 -0.192307
vn -0.0000 -0.0000 1.0000
vn -0.0000 -0.0000 -1.0000
vn -0.0000 1.0000 -0.0000
vn -0.0000 -1.0000 -0.0000
vn -1.0000 -0.0000 -0.0000
vn 1.0000 -0.0000 -0.0000
vn -0.0000 -0.7071 0.7071
vn -0.0000 0.7071 -0.7071
vn -0.0000 0.7071 0.7071
vn -0.0000 -0.7071 -0.7071
vt 0.750000 0.375000
vt 0.750000 0.281250
vt 0.812500 0.375000
vt 0.812500 0.281250
vt 0.687500 0.250000
vt 0.687500 0.156250
vt 0.750000 0.250000
vt 0.750000 0.156250
vt 0.843750 0.187500
vt 0.843750 0.250000
vt 0.750000 0.187500
vt 0.093750 0.187500
vt 0.093750 0.125000
vt 0.000000 0.187500
vt 0.000000 0.125000
vt 0.625000 1.000000
vt 0.625000 0.906250
vt 0.718750 1.000000
vt 0.718750 0.906250
vt 0.375000 0.437500
vt 0.375000 0.343750
vt 0.468750 0.437500
vt 0.468750 0.343750
vt 0.875000 0.250000
vt 0.875000 0.218750
vt 0.937500 0.250000
vt 0.937500 0.218750
vt 0.812500 0.125000
vt 0.812500 0.093750
vt 0.875000 0.125000
vt 0.875000 0.093750
vt 0.875000 0.937500
vt 0.875000 1.000000
vt 0.750000 0.937500
vt 0.750000 1.000000
vt 0.875000 0.875000
vt 0.750000 0.875000
vt 0.875000 0.187500
vt 0.875000 0.156250
vt 0.812500 0.312500
vt 0.937500 0.312500
vt 0.937500 0.281250
vt 0.937500 0.187500
vt 0.937500 0.156250
vt 0.937500 0.125000
vt 0.937500 0.093750
vt 0.250000 0.187500
vt 0.250000 0.250000
vt 0.125000 0.187500
vt 0.125000 0.250000
vt 0.375000 0.250000
vt 0.375000 0.187500
vt 0.875000 0.968750
vt 1.000000 1.000000
vt 1.000000 0.968750
vt 0.000000 0.093750
vt 0.125000 0.125000
vt 0.125000 0.093750
vt 0.437500 0.187500
vt 0.437500 0.125000
vt 0.500000 0.187500
vt 0.500000 0.125000
vt 0.937500 0.937500
vt 0.937500 0.875000
vt 0.500000 0.250000
vt 0.875000 0.625000
vt 0.875000 0.562500
vt 0.750000 0.625000
vt 0.750000 0.562500
vt 0.750000 0.687500
vt 0.875000 0.687500
vt 0.750000 0.750000
vt 0.875000 0.750000
vt 0.062500 0.062500
vt 0.062500 0.031250
vt 0.125000 0.062500
vt 0.125000 0.031250
vt 0.187500 0.062500
vt 0.187500 0.031250
vt 0.937500 0.812500
vt 0.875000 0.812500
vt 0.250000 0.125000
vt 0.250000 0.062500
vt 0.187500 0.125000
vt 0.937500 0.906250
vt 1.000000 0.937500
vt 1.000000 0.906250
vt 0.000000 0.062500
vt 0.000000 0.031250
vt 0.187500 0.187500
vt 0.187500 0.093750
vt 0.812500 0.875000
vt 0.812500 0.781250
vt 0.875000 0.781250
vt 0.281250 0.125000
vt 0.281250 0.187500
vt 0.406250 0.187500
vt 0.406250 0.125000
vt 0.312500 0.187500
vt 0.312500 0.125000
vt 0.250000 0.375000
vt 0.250000 0.281250
vt 0.343750 0.375000
vt 0.343750 0.281250
vt 0.125000 0.375000
vt 0.125000 0.281250
vt 0.218750 0.375000
vt 0.218750 0.281250
vt 0.000000 1.000000
vt 0.000000 0.906250
vt 0.093750 1.000000
vt 0.625000 0.625000
vt 0.625000 0.531250
vt 0.718750 0.625000
vt 0.718750 0.531250
vt 0.625000 0.750000
vt 0.625000 0.656250
vt 0.718750 0.750000
vt 0.718750 0.656250
vt 0.031250 1.000000
vt 0.500000 0.031250
vt 0.531250 0.125000
vt 0.531250 0.031250
vt 0.437500 0.031250
vt 0.468750 0.125000
vt 0.468750 0.031250
vt 0.625000 0.125000
vt 0.625000 0.031250
vt 0.656250 0.125000
vt 0.656250 0.031250
vt 0.562500 0.125000
vt 0.562500 0.031250
vt 0.593750 0.125000
vt 0.593750 0.031250
vt 0.000000 0.968750
vt 0.062500 1.000000
vt 0.250000 0.031250
vt 0.937500 0.843750
vt 1.000000 0.875000
vt 1.000000 0.843750
vt 0.312500 0.062500
vt 0.312500 0.031250
vt 0.937500 0.781250
vt 1.000000 0.812500
vt 1.000000 0.781250
vt 0.500000 0.625000
vt 0.500000 0.531250
vt 0.500000 0.500000
vt 0.500000 0.406250
vt 0.625000 0.500000
vt 0.625000 0.406250
vt 0.093750 0.312500
vt 0.093750 0.437500
vt 0.000000 0.312500
vt 0.000000 0.437500
vt 0.656250 0.875000
vt 0.656250 0.750000
vt 0.562500 0.875000
vt 0.562500 0.750000
vt 0.000000 0.218750
vt 0.093750 0.218750
vt 0.625000 0.375000
vt 0.625000 0.281250
vt 0.718750 0.375000
vt 0.718750 0.281250
vt 0.750000 0.437500
vt 0.812500 0.562500
vt 0.812500 0.437500
vt 0.562500 0.250000
vt 0.687500 0.187500
vt 0.562500 0.187500
vt 0.875000 0.437500
vt 0.875000 0.375000
vt 0.500000 0.750000
vt 0.375000 0.562500
vt 0.500000 0.562500
vt 0.500000 0.437500
vt 0.375000 0.062500
vt 0.375000 0.031250
vt 0.437500 0.062500
vt 0.937500 0.750000
vt 0.937500 0.687500
vt 0.937500 0.656250
vt 1.000000 0.687500
vt 1.000000 0.656250
vt 0.937500 0.718750
vt 1.000000 0.750000
vt 1.000000 0.718750
vt 0.937500 0.562500
vt 0.937500 0.531250
vt 1.000000 0.562500
vt 1.000000 0.531250
vt 0.937500 0.437500
vt 0.937500 0.406250
vt 1.000000 0.437500
vt 1.000000 0.406250
vt 0.375000 0.125000
vt 0.937500 0.500000
vt 0.937500 0.468750
vt 1.000000 0.500000
vt 1.000000 0.468750
vt 0.937500 0.625000
vt 0.937500 0.593750
vt 1.000000 0.625000
vt 1.000000 0.593750
vt 0.000000 0.937500
vt 0.406250 1.000000
vt 0.406250 0.937500
vt 0.000000 0.875000
vt 0.406250 0.875000
vt 0.062500 0.468750
vt 0.062500 0.875000
vt 0.000000 0.468750
vt 0.125000 0.875000
vt 0.125000 0.468750
vt 0.875000 0.593750
vt 0.875000 0.406250
vt 0.500000 0.687500
vt 0.375000 0.687500
vt 0.375000 0.750000
vt 0.812500 0.812500
vt 0.687500 0.875000
vt 0.687500 0.812500
vt 0.812500 0.500000
vt 0.812500 0.468750
vt 0.812500 0.531250
vt 0.718750 0.500000
vt 0.718750 0.406250
vt 0.500000 0.375000
vt 0.500000 0.281250
vt 0.593750 0.375000
vt 0.593750 0.281250
vt 0.187500 1.000000
vt 0.218750 0.562500
vt 0.125000 0.562500
vt 0.343750 0.562500
vt 0.250000 0.562500
vt 0.375000 0.875000
vt 0.375000 0.781250
vt 0.562500 0.781250
vt 0.437500 1.000000
vt 0.437500 0.906250
vt 0.000000 0.812500
vt 0.125000 0.687500
vt 0.125000 0.593750
vt 0.312500 0.687500
vt 0.312500 0.593750
vt 0.500000 0.593750
vt 0.218750 0.687500
vt 0.218750 0.875000
vt 0.343750 0.875000
vt 0.343750 0.687500
vt 0.250000 0.875000
vt 0.250000 0.687500
vt 0.687500 0.125000
vt 0.687500 0.093750
vt 0.750000 0.125000
vt 0.750000 0.093750
vt 0.812500 0.750000
vt 0.687500 0.750000
vt 0.500000 0.312500
vt 0.375000 0.312500
vt 0.812500 0.343750
vt 0.937500 0.375000
vt 0.937500 0.343750
vt 0.562500 0.156250
vt 0.000000 0.000000
vt 0.031250 0.031250
vt 0.031250 0.000000
vt 0.062500 0.000000
s 0
usemtl Material_0.001
f 1/1/1 3/2/1 2/3/1
f 3/2/1 4/4/1 2/3/1
f 5/5/2 7/6/2 6/7/2
f 7/6/2 8/8/2 6/7/2
f 9/9/3 11/10/3 10/11/3
f 11/10/3 12/7/3 10/11/3
f 13/12/4 15/13/4 14/14/4
f 15/13/4 16/15/4 14/14/4
f 17/16/5 19/17/5 18/18/5
f 19/17/5 20/19/5 18/18/5
f 21/20/6 23/21/6 22/22/6
f 23/21/6 24/23/6 22/22/6
f 25/24/1 27/25/1 26/26/1
f 27/25/1 28/27/1 26/26/1
f 29/28/2 31/29/2 30/30/2
f 31/29/2 32/31/2 30/30/2
f 33/32/3 35/33/3 34/34/3
f 35/33/3 36/35/3 34/34/3
f 37/32/4 39/36/4 38/34/4
f 39/36/4 40/37/4 38/34/4
f 41/11/5 43/8/5 42/38/5
f 43/8/5 44/39/5 42/38/5
f 45/40/6 47/4/6 46/41/6
f 47/4/6 48/42/6 46/41/6
f 49/38/1 51/39/1 50/43/1
f 51/39/1 52/44/1 50/43/1
f 53/30/2 55/31/2 54/45/2
f 55/31/2 56/46/2 54/45/2
f 57/47/3 59/48/3 58/49/3
f 59/48/3 60/50/3 58/49/3
f 61/51/4 63/52/4 62/48/4
f 63/52/4 64/47/4 62/48/4
f 65/33/5 67/53/5 66/54/5
f 67/53/5 68/55/5 66/54/5
f 69/15/6 71/56/6 70/57/6
f 71/56/6 72/58/6 70/57/6
f 73/59/1 75/60/1 74/61/1
f 75/60/1 76/62/1 74/61/1
f 77/32/2 79/36/2 78/63/2
f 79/36/2 80/64/2 78/63/2
f 81/61/3 83/65/3 82/52/3
f 83/65/3 84/51/3 82/52/3
f 85/66/4 87/67/4 86/68/4
f 87/67/4 88/69/4 86/68/4
f 89/70/5 91/68/5 90/71/5
f 91/68/5 92/66/5 90/71/5
f 93/72/6 95/70/6 94/73/6
f 95/70/6 96/71/6 94/73/6
f 97/74/1 99/75/1 98/76/1
f 99/75/1 100/77/1 98/76/1
f 101/76/2 103/77/2 102/78/2
f 103/77/2 104/79/2 102/78/2
f 105/80/3 107/64/3 106/81/3
f 107/64/3 108/36/3 106/81/3
f 109/82/4 111/83/4 110/84/4
f 111/83/4 112/78/4 110/84/4
f 113/63/5 115/85/5 114/86/5
f 115/85/5 116/87/5 114/86/5
f 117/88/6 119/89/6 118/74/6
f 119/89/6 120/75/6 118/74/6
f 121/49/1 123/58/1 122/90/1
f 123/58/1 124/91/1 122/90/1
f 125/92/2 127/93/2 126/36/2
f 127/93/2 128/94/2 126/36/2
f 129/95/3 131/96/3 130/84/3
f 131/96/3 132/90/3 130/84/3
f 133/97/4 135/98/4 134/99/4
f 135/98/4 136/100/4 134/99/4
f 137/101/5 139/102/5 138/103/5
f 139/102/5 140/104/5 138/103/5
f 141/105/6 143/106/6 142/107/6
f 143/106/6 144/108/6 142/107/6
f 145/109/1 147/110/1 146/109/1
f 147/110/1 148/110/1 146/109/1
f 149/109/2 151/110/2 150/109/2
f 151/110/2 152/110/2 150/109/2
f 153/111/3 155/111/3 154/109/3
f 155/111/3 156/109/3 154/109/3
f 157/111/4 159/111/4 158/109/4
f 159/111/4 160/109/4 158/109/4
f 161/112/5 163/113/5 162/114/5
f 163/113/5 164/115/5 162/114/5
f 165/116/6 167/117/6 166/118/6
f 167/117/6 168/119/6 166/118/6
f 169/109/1 171/110/1 170/109/1
f 171/110/1 172/110/1 170/109/1
f 173/109/2 175/110/2 174/109/2
f 175/110/2 176/110/2 174/109/2
f 177/120/3 179/120/3 178/109/3
f 179/120/3 180/109/3 178/109/3
f 181/120/4 183/120/4 182/109/4
f 183/120/4 184/109/4 182/109/4
f 185/62/5 187/121/5 186/122/5
f 187/121/5 188/123/5 186/122/5
f 189/60/6 191/124/6 190/125/6
f 191/124/6 192/126/6 190/125/6
f 193/109/1 195/110/1 194/109/1
f 195/110/1 196/110/1 194/109/1
f 197/109/2 199/110/2 198/109/2
f 199/110/2 200/110/2 198/109/2
f 201/120/3 203/120/3 202/109/3
f 203/120/3 204/109/3 202/109/3
f 205/120/4 207/120/4 206/109/4
f 207/120/4 208/109/4 206/109/4
f 209/127/5 211/128/5 210/129/5
f 211/128/5 212/130/5 210/129/5
f 213/131/6 215/132/6 214/133/6
f 215/132/6 216/134/6 214/133/6
f 217/109/1 219/135/1 218/109/1
f 219/135/1 220/135/1 218/109/1
f 221/109/2 223/135/2 222/109/2
f 223/135/2 224/135/2 222/109/2
f 225/136/3 227/136/3 226/109/3
f 227/136/3 228/109/3 226/109/3
f 229/136/4 231/136/4 230/109/4
f 231/136/4 232/109/4 230/109/4
f 233/78/5 235/79/5 234/83/5
f 235/79/5 236/137/5 234/83/5
f 237/64/6 239/138/6 238/139/6
f 239/138/6 240/140/6 238/139/6
f 241/109/1 243/135/1 242/109/1
f 243/135/1 244/135/1 242/109/1
f 245/109/2 247/135/2 246/109/2
f 247/135/2 248/135/2 246/109/2
f 249/136/3 251/136/3 250/109/3
f 251/136/3 252/109/3 250/109/3
f 253/136/4 255/136/4 254/109/4
f 255/136/4 256/109/4 254/109/4
f 257/83/5 259/137/5 258/141/5
f 259/137/5 260/142/5 258/141/5
f 261/80/6 263/143/6 262/144/6
f 263/143/6 264/145/6 262/144/6
f 265/146/1 267/147/1 266/112/1
f 267/147/1 268/113/1 266/112/1
f 269/148/2 271/149/2 270/150/2
f 271/149/2 272/151/2 270/150/2
f 273/152/3 275/153/3 274/154/3
f 275/153/3 276/155/3 274/154/3
f 277/156/4 279/157/4 278/158/4
f 279/157/4 280/159/4 278/158/4
f 281/154/5 283/160/5 282/152/5
f 283/160/5 284/161/5 282/152/5
f 285/162/6 287/163/6 286/164/6
f 287/163/6 288/165/6 286/164/6
f 289/69/1 291/166/1 290/167/1
f 291/166/1 292/168/1 290/167/1
f 293/65/2 295/62/2 294/169/2
f 295/62/2 296/131/2 294/169/2
f 297/170/3 299/5/3 298/171/3
f 299/5/3 300/169/3 298/171/3
f 301/172/4 303/173/4 302/166/4
f 303/173/4 304/1/4 302/166/4
f 305/174/5 307/146/5 306/116/5
f 307/146/5 308/112/5 306/116/5
f 309/175/6 311/20/6 310/176/6
f 311/20/6 312/177/6 310/176/6
f 313/141/1 315/142/1 314/178/1
f 315/142/1 316/179/1 314/178/1
f 317/178/2 319/179/2 318/180/2
f 319/179/2 320/124/2 318/180/2
f 321/181/3 323/80/3 322/73/3
f 323/80/3 324/81/3 322/73/3
f 325/100/4 327/141/4 326/82/4
f 327/141/4 328/83/4 326/82/4
f 329/182/5 331/183/5 330/184/5
f 331/183/5 332/185/5 330/184/5
f 333/181/6 335/186/6 334/187/6
f 335/186/6 336/188/6 334/187/6
f 337/189/1 339/190/1 338/191/1
f 339/190/1 340/192/1 338/191/1
f 341/193/2 343/194/2 342/195/2
f 343/194/2 344/196/2 342/195/2
f 345/182/3 347/181/3 346/71/3
f 347/181/3 348/73/3 346/71/3
f 349/197/4 351/178/4 350/100/4
f 351/178/4 352/141/4 350/100/4
f 353/198/5 355/199/5 354/200/5
f 355/199/5 356/201/5 354/200/5
f 357/202/6 359/203/6 358/204/6
f 359/203/6 360/205/6 358/204/6
f 361/109/7 363/206/7 362/207/7
f 363/206/7 364/208/7 362/207/7
f 365/206/8 367/209/8 366/208/8
f 367/209/8 368/210/8 366/208/8
f 369/211/9 371/212/9 370/213/9
f 371/212/9 372/209/9 370/213/9
f 373/214/10 375/215/10 374/212/10
f 375/215/10 376/211/10 374/212/10
f 377/197/5 379/178/5 378/60/5
f 379/178/5 380/180/5 378/60/5
f 381/71/6 383/66/6 382/182/6
f 383/66/6 384/202/6 382/182/6
f 385/66/1 387/216/1 386/202/1
f 387/216/1 388/203/1 386/202/1
f 389/172/2 391/217/2 390/193/2
f 391/217/2 392/194/2 390/193/2
f 393/218/3 395/174/3 394/219/3
f 395/174/3 396/220/3 394/219/3
f 397/92/4 399/221/4 398/222/4
f 399/221/4 400/223/4 398/222/4
f 401/224/5 403/225/5 402/198/5
f 403/225/5 404/199/5 402/198/5
f 405/167/6 407/226/6 406/189/6
f 407/226/6 408/190/6 406/189/6
f 409/109/1 411/110/1 410/109/1
f 411/110/1 412/110/1 410/109/1
f 413/109/2 415/110/2 414/109/2
f 415/110/2 416/110/2 414/109/2
f 417/111/3 419/111/3 418/109/3
f 419/111/3 420/109/3 418/109/3
f 421/111/4 423/111/4 422/109/4
f 423/111/4 424/109/4 422/109/4
f 425/150/5 427/151/5 426/227/5
f 427/151/5 428/228/5 426/227/5
f 429/229/6 431/230/6 430/231/6
f 431/230/6 432/232/6 430/231/6
f 433/109/1 435/109/1 434/233/1
f 435/109/1 436/233/1 434/233/1
f 437/109/2 439/109/2 438/233/2
f 439/109/2 440/233/2 438/233/2
f 441/107/3 443/234/3 442/105/3
f 443/234/3 444/235/3 442/105/3
f 445/236/4 447/103/4 446/237/4
f 447/103/4 448/101/4 446/237/4
f 449/109/5 451/109/5 450/111/5
f 451/109/5 452/111/5 450/111/5
f 453/109/6 455/109/6 454/111/6
f 455/109/6 456/111/6 454/111/6
f 457/238/1 459/239/1 458/158/1
f 459/239/1 460/240/1 458/158/1
f 461/241/2 463/242/2 462/16/2
f 463/242/2 464/17/2 462/16/2
f 465/243/3 467/109/3 466/243/3
f 467/109/3 468/109/3 466/243/3
f 469/109/4 471/243/4 470/109/4
f 471/243/4 472/243/4 470/109/4
f 473/109/5 475/110/5 474/109/5
f 475/110/5 476/110/5 474/109/5
f 477/109/6 479/110/6 478/109/6
f 479/110/6 480/110/6 478/109/6
f 481/244/1 483/245/1 482/246/1
f 483/245/1 484/247/1 482/246/1
f 485/246/2 487/247/2 486/218/2
f 487/247/2 488/248/2 486/218/2
f 489/243/3 491/109/3 490/243/3
f 491/109/3 492/109/3 490/243/3
f 493/109/4 495/243/4 494/109/4
f 495/243/4 496/243/4 494/109/4
f 497/109/5 499/110/5 498/109/5
f 499/110/5 500/110/5 498/109/5
f 501/109/6 503/110/6 502/109/6
f 503/110/6 504/110/6 502/109/6
f 505/109/1 507/109/1 506/233/1
f 507/109/1 508/233/1 506/233/1
f 509/109/2 511/109/2 510/233/2
f 511/109/2 512/233/2 510/233/2
f 513/249/3 515/250/3 514/244/3
f 515/250/3 516/214/3 514/244/3
f 517/251/4 519/252/4 518/253/4
f 519/252/4 520/254/4 518/253/4
f 521/109/5 523/109/5 522/111/5
f 523/109/5 524/111/5 522/111/5
f 525/109/6 527/109/6 526/111/6
f 527/109/6 528/111/6 526/111/6
f 529/255/1 531/256/1 530/257/1
f 531/256/1 532/258/1 530/257/1
f 533/257/2 535/258/2 534/28/2
f 535/258/2 536/29/2 534/28/2
f 537/259/3 539/221/3 538/260/3
f 539/221/3 540/223/3 538/260/3
f 541/261/4 543/65/4 542/262/4
f 543/65/4 544/51/4 542/262/4
f 545/3/5 547/263/5 546/264/5
f 547/263/5 548/265/5 546/264/5
f 549/171/6 551/266/6 550/170/6
f 551/266/6 552/6/6 550/170/6
f 553/89/1 555/267/1 554/268/1
f 555/267/1 556/269/1 554/268/1
f 557/89/2 559/267/2 558/268/2
f 559/267/2 560/269/2 558/268/2
f 561/89/3 563/267/3 562/268/3
f 563/267/3 564/269/3 562/268/3
f 565/89/4 567/267/4 566/268/4
f 567/267/4 568/269/4 566/268/4
f 569/89/5 571/267/5 570/268/5
f 571/267/5 572/269/5 570/268/5
f 573/89/6 575/267/6 574/268/6
f 575/267/6 576/269/6 574/268/6
f 577/268/1 579/269/1 578/75/1
f 579/269/1 580/270/1 578/75/1
f 581/268/2 583/269/2 582/75/2
f 583/269/2 584/270/2 582/75/2
f 585/268/3 587/269/3 586/75/3
f 587/269/3 588/270/3 586/75/3
f 589/268/4 591/269/4 590/75/4
f 591/269/4 592/270/4 590/75/4
f 593/268/5 595/269/5 594/75/5
f 595/269/5 596/270/5 594/75/5
f 597/268/6 599/269/6 598/75/6
f 599/269/6 600/270/6 598/75/6
f 601/268/1 603/269/1 602/75/1
f 603/269/1 604/270/1 602/75/1
f 605/268/2 607/269/2 606/75/2
f 607/269/2 608/270/2 606/75/2
f 609/268/3 611/269/3 610/75/3
f 611/269/3 612/270/3 610/75/3
f 613/268/4 615/269/4 614/75/4
f 615/269/4 616/270/4 614/75/4
f 617/268/5 619/269/5 618/75/5
f 619/269/5 620/270/5 618/75/5
f 621/268/6 623/269/6 622/75/6
f 623/269/6 624/270/6 622/75/6
o scopeModel
v -4.600769 1.923077 0.576924
v -4.599999 1.923077 0.576924
v -4.600769 0.769231 0.576924
v -4.599999 0.769231 0.576924
v -4.599999 1.923077 -0.576922
v -4.600769 1.923077 -0.576922
v -4.599999 0.769231 -0.576922
v -4.600769 0.769231 -0.576922
v -4.599999 1.923077 -0.576922
v -4.599999 1.923077 0.576924
v -4.600769 1.923077 -0.576922
v -4.600769 1.923077 0.576924
v -4.600769 0.769231 -0.576922
v -4.600769 0.769231 0.576924
v -4.599999 0.769231 -0.576922
v -4.599999 0.769231 0.576924
v -4.600769 1.923077 -0.576922
v -4.600769 1.923077 0.576924
v -4.600769 0.769231 -0.576922
v -4.600769 0.769231 0.576924
v -4.599999 1.923077 0.576924
v -4.599999 1.923077 -0.576922
v -4.599999 0.769231 0.576924
v -4.599999 0.769231 -0.576922
vn -0.0000 -0.0000 1.0000
vn -0.0000 -0.0000 -1.0000
vn -0.0000 1.0000 -0.0000
vn -0.0000 -1.0000 -0.0000
vn -1.0000 -0.0000 -0.0000
vn 1.0000 -0.0000 -0.0000
vt 0.000000 1.000000
vt 0.000000 0.906250
vt 0.093750 1.000000
vt 0.906250 0.093750
vt 0.906250 0.000000
vt 1.000000 0.093750
vt 1.000000 0.000000
s 0
usemtl Material_0.001
f 625/271/11 627/272/11 626/271/11
f 627/272/11 628/272/11 626/271/11
f 629/271/12 631/272/12 630/271/12
f 631/272/12 632/272/12 630/271/12
f 633/273/13 635/273/13 634/271/13
f 635/273/13 636/271/13 634/271/13
f 637/273/14 639/273/14 638/271/14
f 639/273/14 640/271/14 638/271/14
f 641/274/15 643/275/15 642/276/15
f 643/275/15 644/277/15 642/276/15
f 645/274/16 647/275/16 646/276/16
f 647/275/16 648/277/16 646/276/16
o overlaySolidModel
v -4.608461 1.923077 0.576924
v -4.607692 1.923077 0.576924
v -4.608461 0.769231 0.576924
v -4.607692 0.769231 0.576924
v -4.607692 1.923077 -0.576922
v -4.608461 1.923077 -0.576922
v -4.607692 0.769231 -0.576922
v -4.608461 0.769231 -0.576922
v -4.607692 1.923077 -0.576922
v -4.607692 1.923077 0.576924
v -4.608461 1.923077 -0.576922
v -4.608461 1.923077 0.576924
v -4.608461 0.769231 -0.576922
v -4.608461 0.769231 0.576924
v -4.607692 0.769231 -0.576922
v -4.607692 0.769231 0.576924
v -4.608461 1.923077 -0.576922
v -4.608461 1.923077 0.576924
v -4.608461 0.769231 -0.576922
v -4.608461 0.769231 0.576924
v -4.607692 1.923077 0.576924
v -4.607692 1.923077 -0.576922
v -4.607692 0.769231 0.576924
v -4.607692 0.769231 -0.576922
vn -0.0000 -0.0000 1.0000
vn -0.0000 -0.0000 -1.0000
vn -0.0000 1.0000 -0.0000
vn -0.0000 -1.0000 -0.0000
vn -1.0000 -0.0000 -0.0000
vn 1.0000 -0.0000 -0.0000
vt 0.000000 1.000000
vt 0.000000 0.906250
vt 0.093750 1.000000
vt 0.906250 0.093750
vt 0.906250 0.000000
vt 1.000000 0.093750
vt 1.000000 0.000000
s 0
usemtl Material_0.001
f 649/278/17 651/279/17 650/278/17
f 651/279/17 652/279/17 650/278/17
f 653/278/18 655/279/18 654/278/18
f 655/279/18 656/279/18 654/278/18
f 657/280/19 659/280/19 658/278/19
f 659/280/19 660/278/19 658/278/19
f 661/280/20 663/280/20 662/278/20
f 663/280/20 664/278/20 662/278/20
f 665/281/21 667/282/21 666/283/21
f 667/282/21 668/284/21 666/283/21
f 669/281/22 671/282/22 670/283/22
f 671/282/22 672/284/22 670/283/22
