# Blender 4.2.0
# www.blender.org
mtllib lev.fnf2000optic.mtl
o attachmentModel
v -4.230769 1.730769 0.769232
v -3.461538 1.730769 0.769231
v -4.230769 0.576923 0.769232
v -3.461538 0.576923 0.769231
v -3.461538 1.730769 0.384616
v -4.230769 1.730769 0.384616
v -3.461538 0.576923 0.384616
v -4.230769 0.576923 0.384616
v -3.461538 1.730769 0.384616
v -3.461538 1.730769 0.769231
v -4.230769 1.730769 0.384616
v -4.230769 1.730769 0.769232
v -4.230769 0.576923 0.384616
v -4.230769 0.576923 0.769232
v -3.461538 0.576923 0.384616
v -3.461538 0.576923 0.769231
v -4.230769 1.730769 0.384616
v -4.230769 1.730769 0.769232
v -4.230769 0.576923 0.384616
v -4.230769 0.576923 0.769232
v -3.461538 1.730769 0.769231
v -3.461538 1.730769 0.384616
v -3.461538 0.576923 0.769231
v -3.461538 0.576923 0.384616
v -4.230769 1.730769 0.384616
v -3.461538 1.730769 0.384616
v -4.230769 1.346154 0.384616
v -3.461538 1.346154 0.384616
v -3.461538 1.730769 -0.384615
v -4.230769 1.730769 -0.384614
v -3.461538 1.346154 -0.384615
v -4.230769 1.346154 -0.384614
v -3.461538 1.730769 -0.384615
v -3.461538 1.730769 0.384616
v -4.230769 1.730769 -0.384614
v -4.230769 1.730769 0.384616
v -4.230769 1.346154 -0.384614
v -4.230769 1.346154 0.384616
v -3.461538 1.346154 -0.384615
v -3.461538 1.346154 0.384616
v -4.230769 1.730769 -0.384614
v -4.230769 1.730769 0.384616
v -4.230769 1.346154 -0.384614
v -4.230769 1.346154 0.384616
v -3.461538 1.730769 0.384616
v -3.461538 1.730769 -0.384615
v -3.461538 1.346154 0.384616
v -3.461538 1.346154 -0.384615
v -4.231538 0.576923 0.576924
v -4.230769 0.576923 0.576924
v -4.231538 0.384615 0.576924
v -4.230769 0.384615 0.576924
v -4.230769 0.576923 -0.576922
v -4.231538 0.576923 -0.576922
v -4.230769 0.384615 -0.576922
v -4.231538 0.384615 -0.576922
v -4.230769 0.576923 -0.576922
v -4.230769 0.576923 0.576924
v -4.231538 0.576923 -0.576922
v -4.231538 0.576923 0.576924
v -4.231538 0.384615 -0.576922
v -4.231538 0.384615 0.576924
v -4.230769 0.384615 -0.576922
v -4.230769 0.384615 0.576924
v -4.231538 0.576923 -0.576922
v -4.231538 0.576923 0.576924
v -4.231538 0.384615 -0.576922
v -4.231538 0.384615 0.576924
v -4.230769 0.576923 0.576924
v -4.230769 0.576923 -0.576922
v -4.230769 0.384615 0.576924
v -4.230769 0.384615 -0.576922
v -3.076923 1.538462 0.576924
v 2.307692 1.538462 0.576923
v -3.076923 0.000000 0.576924
v 2.307692 0.000000 0.576923
v 2.307692 1.538462 -0.576923
v -3.076923 1.538462 -0.576922
v 2.307692 0.000000 -0.576923
v -3.076923 0.000000 -0.576922
v 2.307692 1.538462 -0.576923
v 2.307692 1.538462 0.576923
v -3.076923 1.538462 -0.576922
v -3.076923 1.538462 0.576924
v -3.076923 0.000000 -0.576922
v -3.076923 0.000000 0.576924
v 2.307692 0.000000 -0.576923
v 2.307692 0.000000 0.576923
v -3.076923 1.538462 -0.576922
v -3.076923 1.538462 0.576924
v -3.076923 0.000000 -0.576922
v -3.076923 0.000000 0.576924
v 2.307692 1.538462 0.576923
v 2.307692 1.538462 -0.576923
v 2.307692 0.000000 0.576923
v 2.307692 0.000000 -0.576923
v -4.173846 1.538462 0.576924
v -4.173077 1.538462 0.576924
v -4.173846 0.384615 0.576924
v -4.173077 0.384615 0.576924
v -4.173077 1.538462 -0.576922
v -4.173846 1.538462 -0.576922
v -4.173077 0.384615 -0.576922
v -4.173846 0.384615 -0.576922
v -4.173077 1.538462 -0.576922
v -4.173077 1.538462 0.576924
v -4.173846 1.538462 -0.576922
v -4.173846 1.538462 0.576924
v -4.173846 0.384615 -0.576922
v -4.173846 0.384615 0.576924
v -4.173077 0.384615 -0.576922
v -4.173077 0.384615 0.576924
v -4.173846 1.538462 -0.576922
v -4.173846 1.538462 0.576924
v -4.173846 0.384615 -0.576922
v -4.173846 0.384615 0.576924
v -4.173077 1.538462 0.576924
v -4.173077 1.538462 -0.576922
v -4.173077 0.384615 0.576924
v -4.173077 0.384615 -0.576922
v 2.307692 0.384615 0.576923
v 3.461538 0.384615 0.576922
v 2.307692 0.000000 0.576923
v 3.461538 0.000000 0.576922
v 3.461538 0.384615 -0.576924
v 2.307692 0.384615 -0.576923
v 3.461538 0.000000 -0.576924
v 2.307692 0.000000 -0.576923
v 3.461538 0.384615 -0.576924
v 3.461538 0.384615 0.576922
v 2.307692 0.384615 -0.576923
v 2.307692 0.384615 0.576923
v 2.307692 0.000000 -0.576923
v 2.307692 0.000000 0.576923
v 3.461538 0.000000 -0.576924
v 3.461538 0.000000 0.576922
v 2.307692 0.384615 -0.576923
v 2.307692 0.384615 0.576923
v 2.307692 0.000000 -0.576923
v 2.307692 0.000000 0.576923
v 3.461538 0.384615 0.576922
v 3.461538 0.384615 -0.576924
v 3.461538 0.000000 0.576922
v 3.461538 0.000000 -0.576924
v 2.101717 1.200508 0.576153
v 2.373682 1.472472 0.576153
v 3.189574 0.112651 0.576153
v 3.461539 0.384616 0.576153
v 2.373682 1.472472 -0.576154
v 2.101717 1.200508 -0.576154
v 3.461539 0.384616 -0.576155
v 3.189574 0.112651 -0.576154
v 2.373682 1.472472 -0.576154
v 2.373682 1.472472 0.576153
v 2.101717 1.200508 -0.576154
v 2.101717 1.200508 0.576153
v 3.189574 0.112651 -0.576154
v 3.189574 0.112651 0.576153
v 3.461539 0.384616 -0.576155
v 3.461539 0.384616 0.576153
v 2.101717 1.200508 -0.576154
v 2.101717 1.200508 0.576153
v 3.189574 0.112651 -0.576154
v 3.189574 0.112651 0.576153
v 2.373682 1.472472 0.576153
v 2.373682 1.472472 -0.576154
v 3.461539 0.384616 0.576153
v 3.461539 0.384616 -0.576155
v 2.373682 0.384616 0.576153
v 2.645646 0.656580 0.576153
v 2.645646 0.112651 0.576153
v 2.917610 0.384616 0.576153
v 2.645646 0.656580 -0.576154
v 2.373682 0.384616 -0.576154
v 2.917610 0.384616 -0.576154
v 2.645646 0.112651 -0.576154
v 2.645646 0.656580 -0.576154
v 2.645646 0.656580 0.576153
v 2.373682 0.384616 -0.576154
v 2.373682 0.384616 0.576153
v 2.645646 0.112651 -0.576154
v 2.645646 0.112651 0.576153
v 2.917610 0.384616 -0.576154
v 2.917610 0.384616 0.576153
v 2.373682 0.384616 -0.576154
v 2.373682 0.384616 0.576153
v 2.645646 0.112651 -0.576154
v 2.645646 0.112651 0.576153
v 2.645646 0.656580 0.576153
v 2.645646 0.656580 -0.576154
v 2.917610 0.384616 0.576153
v 2.917610 0.384616 -0.576154
v 1.544168 1.186886 0.769230
v 2.088096 1.730814 0.769230
v 2.360060 0.370994 0.769230
v 2.903988 0.914922 0.769230
v 2.088095 1.730814 -0.769231
v 1.544167 1.186886 -0.769231
v 2.903988 0.914922 -0.769231
v 2.360060 0.370994 -0.769231
v 2.088095 1.730814 -0.769231
v 2.088096 1.730814 0.769230
v 1.544167 1.186886 -0.769231
v 1.544168 1.186886 0.769230
v 2.360060 0.370994 -0.769231
v 2.360060 0.370994 0.769230
v 2.903988 0.914922 -0.769231
v 2.903988 0.914922 0.769230
v 1.544167 1.186886 -0.769231
v 1.544168 1.186886 0.769230
v 2.360060 0.370994 -0.769231
v 2.360060 0.370994 0.769230
v 2.088096 1.730814 0.769230
v 2.088095 1.730814 -0.769231
v 2.903988 0.914922 0.769230
v 2.903988 0.914922 -0.769231
v -4.230769 1.730769 -0.384614
v -3.461538 1.730769 -0.384615
v -4.230769 0.576923 -0.384614
v -3.461538 0.576923 -0.384615
v -3.461539 1.730769 -0.769230
v -4.230769 1.730769 -0.769230
v -3.461539 0.576923 -0.769230
v -4.230769 0.576923 -0.769230
v -3.461539 1.730769 -0.769230
v -3.461538 1.730769 -0.384615
v -4.230769 1.730769 -0.769230
v -4.230769 1.730769 -0.384614
v -4.230769 0.576923 -0.769230
v -4.230769 0.576923 -0.384614
v -3.461539 0.576923 -0.769230
v -3.461538 0.576923 -0.384615
v -4.230769 1.730769 -0.769230
v -4.230769 1.730769 -0.384614
v -4.230769 0.576923 -0.769230
v -4.230769 0.576923 -0.384614
v -3.461538 1.730769 -0.384615
v -3.461539 1.730769 -0.769230
v -3.461538 0.576923 -0.384615
v -3.461539 0.576923 -0.769230
v -4.226733 1.538462 -0.576153
v -3.076923 1.538462 -0.576153
v -4.226733 0.384615 -0.576153
v -3.076923 0.384615 -0.576153
v -3.076923 1.538462 -0.576922
v -4.226733 1.538462 -0.576922
v -3.076923 0.384615 -0.576922
v -4.226733 0.384615 -0.576922
v -3.076923 1.538462 -0.576922
v -3.076923 1.538462 -0.576153
v -4.230769 1.538462 -0.576922
v -4.230769 1.538462 -0.576153
v -4.230769 0.384615 -0.576922
v -4.230769 0.384615 -0.576153
v -3.076923 0.384615 -0.576922
v -3.076923 0.384615 -0.576153
v -4.223244 1.538462 -0.576922
v -4.223244 1.538462 -0.576153
v -4.223244 0.384615 -0.576922
v -4.223244 0.384615 -0.576153
v -3.076923 1.538462 -0.576153
v -3.076923 1.538462 -0.576922
v -3.076923 0.384615 -0.576153
v -3.076923 0.384615 -0.576922
v 1.829754 0.384615 0.576153
v 2.101718 0.656580 0.576153
v 2.101718 0.112651 0.576153
v 2.373682 0.384616 0.576153
v 2.101718 0.656580 -0.576154
v 1.829754 0.384615 -0.576154
v 2.373682 0.384616 -0.576154
v 2.101718 0.112651 -0.576154
v 2.101718 0.656580 -0.576154
v 2.101718 0.656580 0.576153
v 1.829754 0.384615 -0.576154
v 1.829754 0.384615 0.576153
v 2.101718 0.112651 -0.576154
v 2.101718 0.112651 0.576153
v 2.373682 0.384616 -0.576154
v 2.373682 0.384616 0.576153
v 1.829754 0.384615 -0.576154
v 1.829754 0.384615 0.576153
v 2.101718 0.112651 -0.576154
v 2.101718 0.112651 0.576153
v 2.101718 0.656580 0.576153
v 2.101718 0.656580 -0.576154
v 2.373682 0.384616 0.576153
v 2.373682 0.384616 -0.576154
v -4.226733 1.538462 0.577693
v -3.076923 1.538462 0.577693
v -4.226733 0.384615 0.577693
v -3.076923 0.384615 0.577693
v -3.076923 1.538462 0.576924
v -4.226733 1.538462 0.576924
v -3.076923 0.384615 0.576924
v -4.226733 0.384615 0.576924
v -3.076923 1.538462 0.576924
v -3.076923 1.538462 0.577693
v -4.202473 1.538462 0.576924
v -4.202473 1.538462 0.577693
v -4.230769 0.384615 0.576924
v -4.230769 0.384615 0.577693
v -3.076923 0.384615 0.576924
v -3.076923 0.384615 0.577693
v -4.223244 1.538462 0.576924
v -4.223244 1.538462 0.577693
v -4.223244 0.384615 0.576924
v -4.230769 0.384615 0.577693
v -3.076923 1.538462 0.577693
v -3.076923 1.538462 0.576924
v -3.076923 0.384615 0.577693
v -3.076923 0.384615 0.576924
v -4.230769 1.539231 0.576924
v -3.076923 1.539231 0.576924
v -4.220213 1.538462 0.576924
v -3.066368 1.538462 0.576924
v -3.076923 1.539231 -0.576922
v -4.230769 1.539231 -0.576922
v -3.076923 1.538462 -0.576922
v -4.230769 1.538462 -0.576922
v -3.076923 1.539231 -0.576922
v -3.076923 1.539231 0.576924
v -4.226733 1.539231 -0.576922
v -4.226733 1.539231 0.576924
v -4.226733 1.538462 -0.576922
v -4.226733 1.538462 0.576924
v -3.076923 1.538462 -0.576922
v -3.076923 1.538462 0.576924
v -4.223244 1.539231 -0.576922
v -4.223244 1.539231 0.576924
v -4.212688 1.538462 -0.576922
v -4.220213 1.538462 0.576924
v -3.076923 1.539231 0.576924
v -3.076923 1.539231 -0.576922
v -3.076923 1.538462 0.576924
v -3.076923 1.538462 -0.576922
v -4.230769 0.386154 0.576924
v -3.076923 0.386154 0.576924
v -4.230769 0.385385 0.576924
v -3.076923 0.385385 0.576924
v -3.076923 0.386154 -0.576922
v -4.230769 0.386154 -0.576922
v -3.076923 0.385385 -0.576922
v -4.230769 0.385385 -0.576922
v -3.076923 0.386154 -0.576922
v -3.076923 0.386154 0.576924
v -4.230769 0.386154 -0.576922
v -4.230769 0.386154 0.576924
v -4.230769 0.385385 -0.576922
v -4.230769 0.385385 0.576924
v -3.076923 0.385385 -0.576922
v -3.076923 0.385385 0.576924
v -4.230769 0.386154 -0.576922
v -4.230769 0.386154 0.576924
v -4.230769 0.385385 -0.576922
v -4.230769 0.385385 0.576924
v -3.076923 0.386154 0.576924
v -3.076923 0.386154 -0.576922
v -3.076923 0.385385 0.576924
v -3.076923 0.385385 -0.576922
vn -0.0000 -0.0000 1.0000
vn -0.0000 -0.0000 -1.0000
vn -0.0000 1.0000 -0.0000
vn -0.0000 -1.0000 -0.0000
vn -1.0000 -0.0000 -0.0000
vn 1.0000 -0.0000 -0.0000
vn -0.7071 0.7071 -0.0000
vn 0.7071 -0.7071 -0.0000
vn -0.7071 -0.7071 -0.0000
vn 0.7071 0.7071 -0.0000
vn -0.1017 0.0007 -0.9948
vn -0.0727 -0.9974 -0.0000
vn -0.2461 -0.9692 -0.0016
vt 0.187500 0.312500
vt 0.187500 0.218750
vt 0.250000 0.312500
vt 0.250000 0.218750
vt 0.000000 0.250000
vt 0.000000 0.156250
vt 0.062500 0.250000
vt 0.062500 0.156250
vt 0.656250 0.125000
vt 0.656250 0.187500
vt 0.625000 0.125000
vt 0.625000 0.187500
vt 0.718750 0.187500
vt 0.718750 0.125000
vt 0.687500 0.187500
vt 0.687500 0.125000
vt 0.437500 0.250000
vt 0.437500 0.156250
vt 0.468750 0.250000
vt 0.468750 0.156250
vt 0.750000 0.625000
vt 0.750000 0.531250
vt 0.781250 0.625000
vt 0.781250 0.531250
vt 0.812500 0.187500
vt 0.812500 0.156250
vt 0.875000 0.187500
vt 0.875000 0.156250
vt 0.062500 0.125000
vt 0.062500 0.093750
vt 0.125000 0.125000
vt 0.125000 0.093750
vt 0.750000 0.750000
vt 0.750000 0.812500
vt 0.687500 0.750000
vt 0.687500 0.812500
vt 0.812500 0.812500
vt 0.812500 0.750000
vt 0.000000 0.125000
vt 0.000000 0.093750
vt 0.750000 0.187500
vt 0.750000 0.156250
vt 0.000000 1.000000
vt 0.000000 0.968750
vt 0.062500 1.000000
vt 0.562500 0.187500
vt 0.562500 0.156250
vt 0.625000 0.156250
vt 0.500000 0.187500
vt 0.500000 0.156250
vt 0.437500 0.875000
vt 0.437500 0.750000
vt 0.000000 0.875000
vt 0.000000 0.750000
vt 0.093750 0.312500
vt 0.093750 0.750000
vt 0.000000 0.312500
vt 0.218750 0.750000
vt 0.218750 0.312500
vt 0.125000 0.750000
vt 0.125000 0.312500
vt 0.250000 0.625000
vt 0.250000 0.500000
vt 0.343750 0.625000
vt 0.343750 0.500000
vt 0.250000 0.750000
vt 0.343750 0.750000
vt 0.000000 0.906250
vt 0.093750 1.000000
vt 0.375000 0.375000
vt 0.375000 0.281250
vt 0.468750 0.375000
vt 0.468750 0.281250
vt 0.625000 0.750000
vt 0.625000 0.656250
vt 0.718750 0.750000
vt 0.718750 0.656250
vt 0.750000 0.500000
vt 0.750000 0.468750
vt 0.843750 0.500000
vt 0.843750 0.468750
vt 0.625000 0.250000
vt 0.625000 0.218750
vt 0.718750 0.250000
vt 0.718750 0.218750
vt 0.718750 0.406250
vt 0.718750 0.500000
vt 0.625000 0.406250
vt 0.625000 0.500000
vt 0.718750 0.375000
vt 0.718750 0.281250
vt 0.625000 0.375000
vt 0.625000 0.281250
vt 0.750000 0.437500
vt 0.750000 0.406250
vt 0.843750 0.437500
vt 0.843750 0.406250
vt 0.500000 0.250000
vt 0.500000 0.218750
vt 0.593750 0.250000
vt 0.593750 0.218750
vt 0.250000 0.250000
vt 0.250000 0.125000
vt 0.281250 0.250000
vt 0.281250 0.125000
vt 0.781250 0.750000
vt 0.843750 0.343750
vt 0.843750 0.375000
vt 0.750000 0.343750
vt 0.750000 0.375000
vt 0.843750 0.312500
vt 0.843750 0.281250
vt 0.750000 0.312500
vt 0.750000 0.281250
vt 0.375000 0.625000
vt 0.375000 0.500000
vt 0.468750 0.625000
vt 0.468750 0.500000
vt 0.375000 0.750000
vt 0.468750 0.750000
vt 0.156250 0.125000
vt 0.156250 0.093750
vt 0.187500 0.125000
vt 0.187500 0.093750
vt 0.218750 0.125000
vt 0.218750 0.093750
vt 0.906250 0.906250
vt 0.906250 0.937500
vt 0.812500 0.906250
vt 0.812500 0.937500
vt 0.218750 0.187500
vt 0.218750 0.156250
vt 0.125000 0.187500
vt 0.125000 0.156250
vt 0.812500 1.000000
vt 0.812500 0.968750
vt 0.906250 1.000000
vt 0.906250 0.968750
vt 0.750000 0.250000
vt 0.750000 0.218750
vt 0.843750 0.250000
vt 0.843750 0.218750
vt 0.812500 0.843750
vt 0.750000 0.937500
vt 0.750000 0.843750
vt 0.125000 0.250000
vt 0.687500 1.000000
vt 0.687500 0.937500
vt 0.437500 0.781250
vt 0.562500 0.875000
vt 0.562500 0.781250
vt 0.437500 1.000000
vt 0.437500 0.906250
vt 0.562500 1.000000
vt 0.562500 0.906250
vt 0.687500 0.843750
vt 0.125000 0.218750
vt 0.843750 0.562500
vt 0.843750 0.625000
vt 0.812500 0.562500
vt 0.812500 0.625000
vt 0.812500 0.500000
vt 0.375000 0.250000
vt 0.375000 0.156250
vt 0.406250 0.250000
vt 0.406250 0.156250
vt 0.312500 0.250000
vt 0.312500 0.156250
vt 0.343750 0.250000
vt 0.343750 0.156250
vt 0.250000 0.406250
vt 0.343750 0.406250
vt 0.500000 0.750000
vt 0.500000 0.656250
vt 0.593750 0.750000
vt 0.593750 0.656250
vt 0.250000 0.093750
vt 0.281250 0.093750
vt 0.312500 0.125000
vt 0.312500 0.093750
vt 0.343750 0.125000
vt 0.343750 0.093750
vt 0.906250 0.718750
vt 0.906250 0.750000
vt 0.812500 0.718750
vt 0.906250 0.687500
vt 0.906250 0.656250
vt 0.812500 0.687500
vt 0.812500 0.656250
vt 0.812500 0.781250
vt 0.906250 0.812500
vt 0.906250 0.781250
vt 0.812500 0.875000
vt 0.906250 0.875000
vt 0.906250 0.843750
vt 0.375000 0.406250
vt 0.468750 0.406250
vt 0.500000 0.625000
vt 0.500000 0.531250
vt 0.593750 0.625000
vt 0.593750 0.531250
vt 0.593750 0.406250
vt 0.593750 0.500000
vt 0.500000 0.406250
vt 0.500000 0.500000
vt 0.656250 1.000000
vt 0.656250 0.906250
vt 0.656250 0.781250
vt 0.656250 0.875000
vt 0.343750 0.375000
vt 0.343750 0.281250
vt 0.250000 0.375000
vt 0.250000 0.281250
s 0
usemtl Material_0.002
f 1/1/1 3/2/1 2/3/1
f 3/2/1 4/4/1 2/3/1
f 5/5/2 7/6/2 6/7/2
f 7/6/2 8/8/2 6/7/2
f 9/9/3 11/10/3 10/11/3
f 11/10/3 12/12/3 10/11/3
f 13/13/4 15/14/4 14/15/4
f 15/14/4 16/16/4 14/15/4
f 17/17/5 19/18/5 18/19/5
f 19/18/5 20/20/5 18/19/5
f 21/21/6 23/22/6 22/23/6
f 23/22/6 24/24/6 22/23/6
f 25/25/1 27/26/1 26/27/1
f 27/26/1 28/28/1 26/27/1
f 29/29/2 31/30/2 30/31/2
f 31/30/2 32/32/2 30/31/2
f 33/33/3 35/34/3 34/35/3
f 35/34/3 36/36/3 34/35/3
f 37/37/4 39/38/4 38/34/4
f 39/38/4 40/33/4 38/34/4
f 41/39/5 43/40/5 42/29/5
f 43/40/5 44/30/5 42/29/5
f 45/41/6 47/42/6 46/25/6
f 47/42/6 48/26/6 46/25/6
f 49/43/1 51/44/1 50/43/1
f 51/44/1 52/44/1 50/43/1
f 53/43/2 55/44/2 54/43/2
f 55/44/2 56/44/2 54/43/2
f 57/45/3 59/45/3 58/43/3
f 59/45/3 60/43/3 58/43/3
f 61/45/4 63/45/4 62/43/4
f 63/45/4 64/43/4 62/43/4
f 65/46/5 67/47/5 66/12/5
f 67/47/5 68/48/5 66/12/5
f 69/49/6 71/50/6 70/46/6
f 71/50/6 72/47/6 70/46/6
f 73/51/1 75/52/1 74/53/1
f 75/52/1 76/54/1 74/53/1
f 77/53/2 79/54/2 78/51/2
f 79/54/2 80/52/2 78/51/2
f 81/55/3 83/56/3 82/57/3
f 83/56/3 84/54/3 82/57/3
f 85/58/4 87/59/4 86/60/4
f 87/59/4 88/61/4 86/60/4
f 89/62/5 91/63/5 90/64/5
f 91/63/5 92/65/5 90/64/5
f 93/66/6 95/62/6 94/67/6
f 95/62/6 96/64/6 94/67/6
f 97/43/1 99/68/1 98/43/1
f 99/68/1 100/68/1 98/43/1
f 101/43/2 103/68/2 102/43/2
f 103/68/2 104/68/2 102/43/2
f 105/69/3 107/69/3 106/43/3
f 107/69/3 108/43/3 106/43/3
f 109/69/4 111/69/4 110/43/4
f 111/69/4 112/43/4 110/43/4
f 113/70/5 115/71/5 114/72/5
f 115/71/5 116/73/5 114/72/5
f 117/74/6 119/75/6 118/76/6
f 119/75/6 120/77/6 118/76/6
f 121/78/1 123/79/1 122/80/1
f 123/79/1 124/81/1 122/80/1
f 125/82/2 127/83/2 126/84/2
f 127/83/2 128/85/2 126/84/2
f 129/86/3 131/87/3 130/88/3
f 131/87/3 132/89/3 130/88/3
f 133/90/4 135/91/4 134/92/4
f 135/91/4 136/93/4 134/92/4
f 137/94/5 139/95/5 138/96/5
f 139/95/5 140/97/5 138/96/5
f 141/98/6 143/99/6 142/100/6
f 143/99/6 144/101/6 142/100/6
f 145/102/1 147/103/1 146/104/1
f 147/103/1 148/105/1 146/104/1
f 149/33/2 151/21/2 150/106/2
f 151/21/2 152/23/2 150/106/2
f 153/107/7 155/108/7 154/109/7
f 155/108/7 156/110/7 154/109/7
f 157/111/8 159/112/8 158/113/8
f 159/112/8 160/114/8 158/113/8
f 161/115/9 163/116/9 162/117/9
f 163/116/9 164/118/9 162/117/9
f 165/119/10 167/115/10 166/120/10
f 167/115/10 168/117/10 166/120/10
f 169/31/1 171/32/1 170/121/1
f 171/32/1 172/122/1 170/121/1
f 173/123/2 175/124/2 174/125/2
f 175/124/2 176/126/2 174/125/2
f 177/127/7 179/128/7 178/129/7
f 179/128/7 180/130/7 178/129/7
f 181/131/8 183/132/8 182/133/8
f 183/132/8 184/134/8 182/133/8
f 185/135/9 187/136/9 186/137/9
f 187/136/9 188/138/9 186/137/9
f 189/139/10 191/140/10 190/141/10
f 191/140/10 192/142/10 190/141/10
f 193/130/1 195/143/1 194/144/1
f 195/143/1 196/145/1 194/144/1
f 197/144/2 199/145/2 198/130/2
f 199/145/2 200/143/2 198/130/2
f 201/146/7 203/61/7 202/5/7
f 203/61/7 204/57/7 202/5/7
f 205/135/8 207/130/8 206/147/8
f 207/130/8 208/148/8 206/147/8
f 209/51/9 211/149/9 210/150/9
f 211/149/9 212/151/9 210/150/9
f 213/152/10 215/153/10 214/154/10
f 215/153/10 216/155/10 214/154/10
f 217/148/1 219/156/1 218/144/1
f 219/156/1 220/145/1 218/144/1
f 221/61/2 223/157/2 222/1/2
f 223/157/2 224/2/2 222/1/2
f 225/158/3 227/159/3 226/160/3
f 227/159/3 228/161/3 226/160/3
f 229/158/4 231/80/4 230/160/4
f 231/80/4 232/162/4 230/160/4
f 233/163/5 235/164/5 234/165/5
f 235/164/5 236/166/5 234/165/5
f 237/167/6 239/168/6 238/169/6
f 239/168/6 240/170/6 238/169/6
f 241/63/1 243/171/1 242/65/1
f 243/171/1 244/172/1 242/65/1
f 245/173/2 247/174/2 246/175/2
f 247/174/2 248/176/2 246/175/2
f 249/68/3 251/43/3 250/68/3
f 251/43/3 252/43/3 250/68/3
f 253/43/4 255/68/4 254/43/4
f 255/68/4 256/68/4 254/43/4
f 257/43/5 259/68/5 258/43/5
f 259/68/5 260/68/5 258/43/5
f 261/43/6 263/68/6 262/43/6
f 263/68/6 264/68/6 262/43/6
f 265/103/1 267/177/1 266/105/1
f 267/177/1 268/178/1 266/105/1
f 269/179/2 271/180/2 270/181/2
f 271/180/2 272/182/2 270/181/2
f 273/183/7 275/184/7 274/185/7
f 275/184/7 276/38/7 274/185/7
f 277/186/8 279/187/8 278/188/8
f 279/187/8 280/189/8 278/188/8
f 281/37/9 283/190/9 282/191/9
f 283/190/9 284/192/9 282/191/9
f 285/193/10 287/143/10 286/194/10
f 287/143/10 288/195/10 286/194/10
f 289/116/1 291/196/1 290/118/1
f 291/196/1 292/197/1 290/118/1
f 293/198/2 295/199/2 294/200/2
f 295/199/2 296/201/2 294/200/2
f 297/68/3 299/43/3 298/68/3
f 299/43/3 300/43/3 298/68/3
f 301/43/4 303/68/4 302/43/4
f 303/68/4 304/68/4 302/43/4
f 305/43/5 307/68/5 306/43/5
f 307/68/11 308/68/11 306/43/11
f 309/43/6 311/68/6 310/43/6
f 311/68/6 312/68/6 310/43/6
f 313/43/1 315/43/1 314/69/1
f 315/43/1 316/69/1 314/69/1
f 317/43/2 319/43/2 318/69/2
f 319/43/2 320/69/2 318/69/2
f 321/202/3 323/203/3 322/204/3
f 323/203/3 324/205/3 322/204/3
f 325/206/4 327/207/4 326/154/4
f 327/207/4 328/155/4 326/154/4
f 329/43/12 331/43/12 330/69/12
f 331/43/13 332/69/13 330/69/13
f 333/43/6 335/43/6 334/69/6
f 335/43/6 336/69/6 334/69/6
f 337/43/1 339/43/1 338/69/1
f 339/43/1 340/69/1 338/69/1
f 341/43/2 343/43/2 342/69/2
f 343/43/2 344/69/2 342/69/2
f 345/208/3 347/209/3 346/151/3
f 347/209/3 348/150/3 346/151/3
f 349/210/4 351/211/4 350/212/4
f 351/211/4 352/213/4 350/212/4
f 353/43/5 355/43/5 354/69/5
f 355/43/5 356/69/5 354/69/5
f 357/43/6 359/43/6 358/69/6
f 359/43/6 360/69/6 358/69/6
o scopeModel
v -4.154615 1.538462 0.576924
v -4.153846 1.538462 0.576924
v -4.154615 0.384615 0.576924
v -4.153846 0.384615 0.576924
v -4.153846 1.538462 -0.576922
v -4.154615 1.538462 -0.576922
v -4.153846 0.384615 -0.576922
v -4.154615 0.384615 -0.576922
v -4.153846 1.538462 -0.576922
v -4.153846 1.538462 0.576924
v -4.154615 1.538462 -0.576922
v -4.154615 1.538462 0.576924
v -4.154615 0.384615 -0.576922
v -4.154615 0.384615 0.576924
v -4.153846 0.384615 -0.576922
v -4.153846 0.384615 0.576924
v -4.154615 1.538462 -0.576922
v -4.154615 1.538462 0.576924
v -4.154615 0.384615 -0.576922
v -4.154615 0.384615 0.576924
v -4.153846 1.538462 0.576924
v -4.153846 1.538462 -0.576922
v -4.153846 0.384615 0.576924
v -4.153846 0.384615 -0.576922
vn -0.0000 -0.0000 1.0000
vn -0.0000 -0.0000 -1.0000
vn -0.0000 1.0000 -0.0000
vn -0.0000 -1.0000 -0.0000
vn -1.0000 -0.0000 -0.0000
vn 1.0000 -0.0000 -0.0000
vt 0.000000 1.000000
vt 0.000000 0.906250
vt 0.093750 1.000000
vt 0.500000 0.375000
vt 0.500000 0.281250
vt 0.593750 0.375000
vt 0.593750 0.281250
vt 0.625000 0.625000
vt 0.625000 0.531250
vt 0.718750 0.625000
vt 0.718750 0.531250
s 0
usemtl Material_0.002
f 361/214/14 363/215/14 362/214/14
f 363/215/14 364/215/14 362/214/14
f 365/214/15 367/215/15 366/214/15
f 367/215/15 368/215/15 366/214/15
f 369/216/16 371/216/16 370/214/16
f 371/216/16 372/214/16 370/214/16
f 373/216/17 375/216/17 374/214/17
f 375/216/17 376/214/17 374/214/17
f 377/217/18 379/218/18 378/219/18
f 379/218/18 380/220/18 378/219/18
f 381/221/19 383/222/19 382/223/19
f 383/222/19 384/224/19 382/223/19
o overlaySolidModel
v -4.193077 1.538462 0.576924
v -4.192307 1.538462 0.576924
v -4.193077 0.384615 0.576924
v -4.192307 0.384615 0.576924
v -4.192307 1.538462 -0.576922
v -4.193077 1.538462 -0.576922
v -4.192307 0.384615 -0.576922
v -4.193077 0.384615 -0.576922
v -4.192307 1.538462 -0.576922
v -4.192307 1.538462 0.576924
v -4.193077 1.538462 -0.576922
v -4.193077 1.538462 0.576924
v -4.193077 0.384615 -0.576922
v -4.193077 0.384615 0.576924
v -4.192307 0.384615 -0.576922
v -4.192307 0.384615 0.576924
v -4.193077 1.538462 -0.576922
v -4.193077 1.538462 0.576924
v -4.193077 0.384615 -0.576922
v -4.193077 0.384615 0.576924
v -4.192307 1.538462 0.576924
v -4.192307 1.538462 -0.576922
v -4.192307 0.384615 0.576924
v -4.192307 0.384615 -0.576922
vn -0.0000 -0.0000 1.0000
vn -0.0000 -0.0000 -1.0000
vn -0.0000 1.0000 -0.0000
vn -0.0000 -1.0000 -0.0000
vn -1.0000 -0.0000 -0.0000
vn 1.0000 -0.0000 -0.0000
vt 0.000000 1.000000
vt 0.000000 0.906250
vt 0.093750 1.000000
vt 0.906250 0.093750
vt 0.906250 0.000000
vt 1.000000 0.093750
vt 1.000000 0.000000
s 0
usemtl Material_1
f 385/225/20 387/226/20 386/225/20
f 387/226/20 388/226/20 386/225/20
f 389/225/21 391/226/21 390/225/21
f 391/226/21 392/226/21 390/225/21
f 393/227/22 395/227/22 394/225/22
f 395/227/22 396/225/22 394/225/22
f 397/227/23 399/227/23 398/225/23
f 399/227/23 400/225/23 398/225/23
f 401/228/24 403/229/24 402/230/24
f 403/229/24 404/231/24 402/230/24
f 405/228/25 407/229/25 406/230/25
f 407/229/25 408/231/25 406/230/25
