# Blender 4.2.2 LTS
# www.blender.org
mtllib lev.krissstock.mtl
o attachmentModel
v 0.576923 0.576923 5.384615
v 0.576923 0.576923 0.769231
v 0.576923 -0.576923 5.384615
v 0.576923 -0.576923 0.769231
v -0.576923 0.576923 0.769231
v -0.576923 0.576923 5.384615
v -0.576923 -0.576923 0.769231
v -0.576923 -0.576923 5.384615
v -0.576923 0.576923 0.769231
v 0.576923 0.576923 0.769231
v -0.576923 0.576923 5.384615
v 0.576923 0.576923 5.384615
v -0.576923 -0.576923 5.384615
v 0.576923 -0.576923 5.384615
v -0.576923 -0.576923 0.769231
v 0.576923 -0.576923 0.769231
v -0.576923 0.576923 5.384615
v 0.576923 0.576923 5.384615
v -0.576923 -0.576923 5.384615
v 0.576923 -0.576923 5.384615
v 0.576923 0.576923 0.769231
v -0.576923 0.576923 0.769231
v 0.576923 -0.576923 0.769231
v -0.576923 -0.576923 0.769231
v 0.384615 -0.576923 5.384615
v 0.384615 -0.576923 5.000000
v 0.384615 -2.884615 5.384615
v 0.384615 -2.884615 5.000000
v -0.384615 -0.576923 5.000000
v -0.384615 -0.576923 5.384615
v -0.384615 -2.884615 5.000000
v -0.384615 -2.884615 5.384615
v -0.384615 -0.576923 5.000000
v 0.384615 -0.576923 5.000000
v -0.384615 -0.576923 5.384615
v 0.384615 -0.576923 5.384615
v -0.384615 -2.884615 5.384615
v 0.384615 -2.884615 5.384615
v -0.384615 -2.884615 5.000000
v 0.384615 -2.884615 5.000000
v -0.384615 -0.576923 5.384615
v 0.384615 -0.576923 5.384615
v -0.384615 -2.884615 5.384615
v 0.384615 -2.884615 5.384615
v 0.384615 -0.576923 5.000000
v -0.384615 -0.576923 5.000000
v 0.384615 -2.884615 5.000000
v -0.384615 -2.884615 5.000000
v -0.000000 0.543928 0.769231
v -0.000000 0.543928 0.000000
v 0.543928 0.000000 0.769231
v 0.543928 0.000000 0.000000
v -0.543928 -0.000000 0.000000
v -0.543928 -0.000000 0.769231
v 0.000000 -0.543928 0.000000
v 0.000000 -0.543928 0.769231
v -0.543928 -0.000000 0.000000
v -0.000000 0.543928 0.000000
v -0.543928 -0.000000 0.769231
v -0.000000 0.543928 0.769231
v 0.000000 -0.543928 0.769231
v 0.543928 0.000000 0.769231
v 0.000000 -0.543928 0.000000
v 0.543928 0.000000 0.000000
v -0.543928 -0.000000 0.769231
v -0.000000 0.543928 0.769231
v 0.000000 -0.543928 0.769231
v 0.543928 0.000000 0.769231
v -0.000000 0.543928 0.000000
v -0.543928 -0.000000 0.000000
v 0.543928 0.000000 0.000000
v 0.000000 -0.543928 0.000000
v 0.000769 -0.384615 5.192307
v 0.000769 -0.384615 1.346154
v 0.000769 -2.692308 5.192307
v 0.000769 -2.692308 1.346154
v -0.000000 -0.384615 1.346154
v -0.000000 -0.384615 5.192307
v -0.000000 -2.692308 1.346154
v -0.000000 -2.692308 5.192307
v -0.000000 -0.384615 1.346154
v 0.000769 -0.384615 1.346154
v -0.000000 -0.384615 5.192307
v 0.000769 -0.384615 5.192307
v -0.000000 -2.692308 5.192307
v 0.000769 -2.692308 5.192307
v -0.000000 -2.692308 1.346154
v 0.000769 -2.692308 1.346154
v -0.000000 -0.384615 5.192307
v 0.000769 -0.384615 5.192307
v -0.000000 -2.692308 5.192307
v 0.000769 -2.692308 5.192307
v 0.000769 -0.384615 1.346154
v -0.000000 -0.384615 1.346154
v 0.000769 -2.692308 1.346154
v -0.000000 -2.692308 1.346154
v 0.384615 -2.500000 5.000000
v 0.384615 -2.500000 4.230769
v 0.384615 -2.884615 5.000000
v 0.384615 -2.884615 4.230769
v -0.384615 -2.500000 4.230769
v -0.384615 -2.500000 5.000000
v -0.384615 -2.884615 4.230769
v -0.384615 -2.884615 5.000000
v -0.384615 -2.500000 4.230769
v 0.384615 -2.500000 4.230769
v -0.384615 -2.500000 5.000000
v 0.384615 -2.500000 5.000000
v -0.384615 -2.884615 5.000000
v 0.384615 -2.884615 5.000000
v -0.384615 -2.884615 4.230769
v 0.384615 -2.884615 4.230769
v -0.384615 -2.500000 5.000000
v 0.384615 -2.500000 5.000000
v -0.384615 -2.884615 5.000000
v 0.384615 -2.884615 5.000000
v 0.384615 -2.500000 4.230769
v -0.384615 -2.500000 4.230769
v 0.384615 -2.884615 4.230769
v -0.384615 -2.884615 4.230769
v 0.384615 -0.250062 3.555805
v 0.384615 -0.397248 3.200467
v 0.384615 -2.737429 4.586107
v 0.384615 -2.884615 4.230769
v -0.384615 -0.397248 3.200467
v -0.384615 -0.250062 3.555805
v -0.384615 -2.884615 4.230769
v -0.384615 -2.737429 4.586107
v -0.384615 -0.397248 3.200467
v 0.384615 -0.397248 3.200467
v -0.384615 -0.250062 3.555805
v 0.384615 -0.250062 3.555805
v -0.384615 -2.737429 4.586107
v 0.384615 -2.737429 4.586107
v -0.384615 -2.884615 4.230769
v 0.384615 -2.884615 4.230769
v -0.384615 -0.250062 3.555805
v 0.384615 -0.250062 3.555805
v -0.384615 -2.737429 4.586107
v 0.384615 -2.737429 4.586107
v 0.384615 -0.397248 3.200467
v -0.384615 -0.397248 3.200467
v 0.384615 -2.884615 4.230769
v -0.384615 -2.884615 4.230769
v 0.192308 -0.961538 5.192307
v 0.192308 -0.961538 4.423077
v 0.192308 -1.730769 5.192307
v 0.192308 -1.730769 4.423077
v -0.192308 -0.961538 4.423077
v -0.192308 -0.961538 5.192307
v -0.192308 -1.730769 4.423077
v -0.192308 -1.730769 5.192307
v -0.192308 -0.961538 4.423077
v 0.192308 -0.961538 4.423077
v -0.192308 -0.961538 5.192307
v 0.192308 -0.961538 5.192307
v -0.192308 -1.730769 5.192307
v 0.192308 -1.730769 5.192307
v -0.192308 -1.730769 4.423077
v 0.192308 -1.730769 4.423077
v -0.192308 -0.961538 5.192307
v 0.192308 -0.961538 5.192307
v -0.192308 -1.730769 5.192307
v 0.192308 -1.730769 5.192307
v 0.192308 -0.961538 4.423077
v -0.192308 -0.961538 4.423077
v 0.192308 -1.730769 4.423077
v -0.192308 -1.730769 4.423077
v 0.480769 -0.839606 3.254186
v 0.480769 -0.250862 1.832833
v 0.480769 -1.550282 2.959815
v 0.480769 -0.961538 1.538461
v -0.480769 -0.250862 1.832833
v -0.480769 -0.839606 3.254186
v -0.480769 -0.961538 1.538461
v -0.480769 -1.550282 2.959815
v -0.480769 -0.250862 1.832833
v 0.480769 -0.250862 1.832833
v -0.480769 -0.839606 3.254186
v 0.480769 -0.839606 3.254186
v -0.480769 -1.550282 2.959815
v 0.480769 -1.550282 2.959815
v -0.480769 -0.961538 1.538461
v 0.480769 -0.961538 1.538461
v -0.480769 -0.839606 3.254186
v 0.480769 -0.839606 3.254186
v -0.480769 -1.550282 2.959815
v 0.480769 -1.550282 2.959815
v 0.480769 -0.250862 1.832833
v -0.480769 -0.250862 1.832833
v 0.480769 -0.961538 1.538461
v -0.480769 -0.961538 1.538461
v 0.384615 -0.576923 3.461539
v 0.384615 -0.576923 0.769231
v 0.384615 -0.961539 3.461539
v 0.384615 -0.961539 0.769231
v -0.384615 -0.576923 0.769231
v -0.384615 -0.576923 3.461539
v -0.384615 -0.961539 0.769231
v -0.384615 -0.961539 3.461539
v -0.384615 -0.576923 0.769231
v 0.384615 -0.576923 0.769231
v -0.384615 -0.576923 3.461539
v 0.384615 -0.576923 3.461539
v -0.384615 -0.961539 3.461539
v 0.384615 -0.961539 3.461539
v -0.384615 -0.961539 0.769231
v 0.384615 -0.961539 0.769231
v -0.384615 -0.576923 3.461539
v 0.384615 -0.576923 3.461539
v -0.384615 -0.961539 3.461539
v 0.384615 -0.961539 3.461539
v 0.384615 -0.576923 0.769231
v -0.384615 -0.576923 0.769231
v 0.384615 -0.961539 0.769231
v -0.384615 -0.961539 0.769231
vn 1.0000 -0.0000 -0.0000
vn -1.0000 -0.0000 -0.0000
vn -0.0000 1.0000 -0.0000
vn -0.0000 -1.0000 -0.0000
vn -0.0000 -0.0000 1.0000
vn -0.0000 -0.0000 -1.0000
vn 0.7071 0.7071 -0.0000
vn -0.7071 -0.7071 -0.0000
vn -0.7071 0.7071 -0.0000
vn 0.7071 -0.7071 -0.0000
vn -0.0000 0.9239 -0.3827
vn -0.0000 -0.9239 0.3827
vn -0.0000 0.3827 0.9239
vn -0.0000 -0.3827 -0.9239
vn -0.0000 0.9239 0.3827
vn -0.0000 -0.9239 -0.3827
vn -0.0000 -0.3827 0.9239
vn -0.0000 0.3827 -0.9239
vt 0.312500 1.000000
vt 0.312500 0.906250
vt 0.687500 1.000000
vt 0.687500 0.906250
vt 0.312500 0.875000
vt 0.312500 0.781250
vt 0.687500 0.875000
vt 0.687500 0.781250
vt 0.406250 0.375000
vt 0.406250 0.750000
vt 0.312500 0.375000
vt 0.312500 0.750000
vt 0.093750 0.625000
vt 0.093750 0.250000
vt 0.000000 0.625000
vt 0.000000 0.250000
vt 0.125000 0.375000
vt 0.125000 0.281250
vt 0.218750 0.375000
vt 0.218750 0.281250
vt 0.500000 0.437500
vt 0.500000 0.343750
vt 0.593750 0.437500
vt 0.593750 0.343750
vt 0.687500 0.687500
vt 0.718750 0.875000
vt 0.718750 0.687500
vt 0.250000 0.312500
vt 0.250000 0.125000
vt 0.281250 0.312500
vt 0.281250 0.125000
vt 0.062500 0.218750
vt 0.062500 0.250000
vt 0.000000 0.218750
vt 0.125000 0.250000
vt 0.125000 0.218750
vt 0.437500 0.500000
vt 0.437500 0.312500
vt 0.500000 0.500000
vt 0.500000 0.312500
vt 0.500000 0.750000
vt 0.500000 0.562500
vt 0.562500 0.750000
vt 0.562500 0.562500
vt 0.437500 0.250000
vt 0.500000 0.250000
vt 0.562500 0.312500
vt 0.562500 0.250000
vt 0.750000 0.437500
vt 0.750000 0.500000
vt 0.687500 0.437500
vt 0.687500 0.500000
vt 0.625000 0.312500
vt 0.625000 0.250000
vt 0.687500 0.562500
vt 0.750000 0.562500
vt 0.312500 0.312500
vt 0.312500 0.250000
vt 0.375000 0.312500
vt 0.375000 0.250000
vt 0.000000 1.000000
vt 0.000000 0.812500
vt 0.312500 0.812500
vt 0.312500 0.625000
vt 0.000000 0.687500
vt 0.750000 0.875000
vt 0.750000 0.843750
vt 0.812500 0.875000
vt 0.812500 0.843750
vt 0.750000 0.812500
vt 0.750000 0.781250
vt 0.812500 0.812500
vt 0.812500 0.781250
vt 0.750000 0.375000
vt 0.687500 0.375000
vt 0.687500 0.312500
vt 0.687500 0.250000
vt 0.187500 0.250000
vt 0.187500 0.218750
vt 0.250000 0.250000
vt 0.250000 0.218750
vt 0.375000 0.375000
vt 0.375000 0.156250
vt 0.406250 0.156250
vt 0.625000 0.562500
vt 0.625000 0.343750
vt 0.656250 0.562500
vt 0.656250 0.343750
vt 0.812500 0.718750
vt 0.812500 0.750000
vt 0.750000 0.718750
vt 0.750000 0.750000
vt 0.375000 0.218750
vt 0.312500 0.218750
vt 0.187500 0.625000
vt 0.187500 0.406250
vt 0.250000 0.625000
vt 0.250000 0.406250
vt 0.125000 0.625000
vt 0.125000 0.406250
vt 0.750000 0.312500
vt 0.750000 0.250000
vt 0.531250 0.187500
vt 0.531250 0.250000
vt 0.500000 0.187500
vt 0.781250 0.500000
vt 0.781250 0.437500
vt 0.781250 0.562500
vt 0.437500 0.187500
vt 0.468750 0.250000
vt 0.468750 0.187500
vt 0.562500 0.625000
vt 0.687500 0.625000
vt 0.250000 0.375000
vt 0.593750 0.562500
vt 0.656250 0.750000
vt 0.656250 0.625000
vt 0.781250 0.625000
vt 0.781250 0.687500
vt 0.687500 0.968750
vt 0.906250 1.000000
vt 0.906250 0.968750
vt 0.687500 0.937500
vt 0.906250 0.937500
vt 0.906250 0.906250
vt 0.312500 0.406250
vt 0.500000 0.531250
vt 0.437500 0.750000
vt 0.437500 0.531250
vt 0.750000 0.406250
vt 0.812500 0.437500
vt 0.812500 0.406250
vt 0.562500 0.218750
vt 0.625000 0.218750
s 0
usemtl Material_0
f 1/1/1 3/2/1 2/3/1
f 3/2/1 4/4/1 2/3/1
f 5/5/2 7/6/2 6/7/2
f 7/6/2 8/8/2 6/7/2
f 9/9/3 11/10/3 10/11/3
f 11/10/3 12/12/3 10/11/3
f 13/13/4 15/14/4 14/15/4
f 15/14/4 16/16/4 14/15/4
f 17/17/5 19/18/5 18/19/5
f 19/18/5 20/20/5 18/19/5
f 21/21/6 23/22/6 22/23/6
f 23/22/6 24/24/6 22/23/6
f 25/7/1 27/25/1 26/26/1
f 27/25/1 28/27/1 26/26/1
f 29/28/2 31/29/2 30/30/2
f 31/29/2 32/31/2 30/30/2
f 33/32/3 35/33/3 34/34/3
f 35/33/3 36/16/3 34/34/3
f 37/35/4 39/36/4 38/33/4
f 39/36/4 40/32/4 38/33/4
f 41/37/5 43/38/5 42/39/5
f 43/38/5 44/40/5 42/39/5
f 45/41/6 47/42/6 46/43/6
f 47/42/6 48/44/6 46/43/6
f 49/38/7 51/45/7 50/40/7
f 51/45/7 52/46/7 50/40/7
f 53/40/8 55/46/8 54/47/8
f 55/46/8 56/48/8 54/47/8
f 57/49/9 59/50/9 58/51/9
f 59/50/9 60/52/9 58/51/9
f 61/53/10 63/54/10 62/47/10
f 63/54/10 64/48/10 62/47/10
f 65/55/5 67/52/5 66/56/5
f 67/52/5 68/50/5 66/56/5
f 69/57/6 71/58/6 70/59/6
f 71/58/6 72/60/6 70/59/6
f 73/61/1 75/62/1 74/1/1
f 75/62/1 76/63/1 74/1/1
f 77/62/2 79/15/2 78/63/2
f 79/15/2 80/64/2 78/63/2
f 81/65/3 83/61/3 82/65/3
f 83/61/3 84/61/3 82/65/3
f 85/61/4 87/65/4 86/61/4
f 87/65/4 88/65/4 86/61/4
f 89/61/5 91/62/5 90/61/5
f 91/62/5 92/62/5 90/61/5
f 93/61/6 95/62/6 94/61/6
f 95/62/6 96/62/6 94/61/6
f 97/66/1 99/67/1 98/68/1
f 99/67/1 100/69/1 98/68/1
f 101/70/2 103/71/2 102/72/2
f 103/71/2 104/73/2 102/72/2
f 105/74/3 107/49/3 106/75/3
f 107/49/3 108/51/3 106/75/3
f 109/76/4 111/77/4 110/53/4
f 111/77/4 112/54/4 110/53/4
f 113/78/5 115/79/5 114/80/5
f 115/79/5 116/81/5 114/80/5
f 117/35/6 119/36/6 118/78/6
f 119/36/6 120/79/6 118/78/6
f 121/82/1 123/83/1 122/9/1
f 123/83/1 124/84/1 122/9/1
f 125/85/2 127/86/2 126/87/2
f 127/86/2 128/88/2 126/87/2
f 129/89/11 131/90/11 130/91/11
f 131/90/11 132/92/11 130/91/11
f 133/60/12 135/93/12 134/58/12
f 135/93/12 136/94/12 134/58/12
f 137/95/13 139/96/13 138/97/13
f 139/96/13 140/98/13 138/97/13
f 141/99/14 143/100/14 142/95/14
f 143/100/14 144/96/14 142/95/14
f 145/75/1 147/76/1 146/74/1
f 147/76/1 148/101/1 146/74/1
f 149/76/2 151/77/2 150/101/2
f 151/77/2 152/102/2 150/101/2
f 153/103/3 155/104/3 154/105/3
f 155/104/3 156/46/3 154/105/3
f 157/106/4 159/107/4 158/50/4
f 159/107/4 160/49/4 158/50/4
f 161/56/5 163/50/5 162/108/5
f 163/50/5 164/106/5 162/108/5
f 165/45/6 167/109/6 166/110/6
f 167/109/6 168/111/6 166/110/6
f 169/112/1 171/44/1 170/113/1
f 171/44/1 172/55/1 170/113/1
f 173/114/2 175/28/2 174/82/2
f 175/28/2 176/59/2 174/82/2
f 177/23/15 179/115/15 178/21/15
f 179/115/15 180/42/15 178/21/15
f 181/116/16 183/117/16 182/43/16
f 183/117/16 184/112/16 182/43/16
f 185/113/17 187/55/17 186/118/17
f 187/55/17 188/108/17 186/118/17
f 189/25/18 191/113/18 190/119/18
f 191/113/18 192/118/18 190/119/18
f 193/3/1 195/120/1 194/121/1
f 195/120/1 196/122/1 194/121/1
f 197/123/2 199/4/2 198/124/2
f 199/4/2 200/125/2 198/124/2
f 201/126/3 203/64/3 202/98/3
f 203/64/3 204/97/3 202/98/3
f 205/41/4 207/127/4 206/128/4
f 207/127/4 208/129/4 206/128/4
f 209/49/5 211/130/5 210/131/5
f 211/130/5 212/132/5 210/131/5
f 213/48/6 215/133/6 214/54/6
f 215/133/6 216/134/6 214/54/6
