# Blender 4.2.3 LTS
# www.blender.org
mtllib lev.waffle.mtl
o attachmentModel
v 0.192308 0.576923 0.576923
v 5.576922 0.576923 0.576922
v 0.192308 -1.346154 0.576923
v 5.576922 -1.346154 0.576922
v 5.576922 0.576923 -0.576924
v 0.192308 0.576923 -0.576923
v 5.576922 -1.346154 -0.576924
v 0.192308 -1.346154 -0.576923
v 5.576922 0.576923 -0.576924
v 5.576922 0.576923 0.576922
v 0.192308 0.576923 -0.576923
v 0.192308 0.576923 0.576923
v 0.192308 -1.346154 -0.576923
v 0.192308 -1.346154 0.576923
v 5.576922 -1.346154 -0.576924
v 5.576922 -1.346154 0.576922
v 0.192308 0.576923 -0.576923
v 0.192308 0.576923 0.576923
v 0.192308 -1.346154 -0.576923
v 0.192308 -1.346154 0.576923
v 5.576922 0.576923 0.576922
v 5.576922 0.576923 -0.576924
v 5.576922 -1.346154 0.576922
v 5.576922 -1.346154 -0.576924
v 5.499999 0.384615 0.384614
v 5.692307 0.384615 0.384614
v 5.499999 -0.384615 0.384614
v 5.692307 -0.384615 0.384614
v 5.692307 0.384615 -0.384617
v 5.499999 0.384615 -0.384616
v 5.692307 -0.384615 -0.384617
v 5.499999 -0.384615 -0.384616
v 5.692307 0.384615 -0.384617
v 5.692307 0.384615 0.384614
v 5.499999 0.384615 -0.384616
v 5.499999 0.384615 0.384614
v 5.499999 -0.384615 -0.384616
v 5.499999 -0.384615 0.384614
v 5.692307 -0.384615 -0.384617
v 5.692307 -0.384615 0.384614
v 5.499999 0.384615 -0.384616
v 5.499999 0.384615 0.384614
v 5.499999 -0.384615 -0.384616
v 5.499999 -0.384615 0.384614
v 5.692307 0.384615 0.384614
v 5.692307 0.384615 -0.384617
v 5.692307 -0.384615 0.384614
v 5.692307 -0.384615 -0.384617
v 0.038462 0.384615 0.384615
v 0.230769 0.384615 0.384615
v 0.038462 -0.384615 0.384615
v 0.230769 -0.384615 0.384615
v 0.230769 0.384615 -0.384615
v 0.038461 0.384615 -0.384615
v 0.230769 -0.384615 -0.384615
v 0.038461 -0.384615 -0.384615
v 0.230769 0.384615 -0.384615
v 0.230769 0.384615 0.384615
v 0.038461 0.384615 -0.384615
v 0.038462 0.384615 0.384615
v 0.038461 -0.384615 -0.384615
v 0.038462 -0.384615 0.384615
v 0.230769 -0.384615 -0.384615
v 0.230769 -0.384615 0.384615
v 0.038461 0.384615 -0.384615
v 0.038462 0.384615 0.384615
v 0.038461 -0.384615 -0.384615
v 0.038462 -0.384615 0.384615
v 0.230769 0.384615 0.384615
v 0.230769 0.384615 -0.384615
v 0.230769 -0.384615 0.384615
v 0.230769 -0.384615 -0.384615
vn -0.0000 -0.0000 1.0000
vn -0.0000 -0.0000 -1.0000
vn -0.0000 1.0000 -0.0000
vn -0.0000 -1.0000 -0.0000
vn -1.0000 -0.0000 -0.0000
vn 1.0000 -0.0000 -0.0000
vt 0.437500 0.812500
vt 0.437500 0.656250
vt 0.000000 0.812500
vt 0.000000 0.656250
vt 0.093750 0.187500
vt 0.093750 0.625000
vt 0.000000 0.187500
vt 0.000000 0.625000
vt 0.218750 0.625000
vt 0.218750 0.187500
vt 0.125000 0.625000
vt 0.125000 0.187500
vt 0.375000 0.625000
vt 0.375000 0.468750
vt 0.468750 0.625000
vt 0.468750 0.468750
vt 0.250000 0.625000
vt 0.250000 0.468750
vt 0.343750 0.625000
vt 0.343750 0.468750
vt 0.437500 0.750000
vt 0.437500 0.687500
vt 0.468750 0.750000
vt 0.468750 0.687500
vt 0.437500 0.625000
vt 0.562500 0.968750
vt 0.562500 1.000000
vt 0.500000 0.968750
vt 0.500000 1.000000
vt 0.562500 0.937500
vt 0.562500 0.906250
vt 0.500000 0.937500
vt 0.500000 0.906250
vt 0.437500 0.937500
vt 0.437500 0.875000
vt 0.500000 0.875000
vt 0.437500 1.000000
vt 0.500000 0.812500
vt 0.531250 0.875000
vt 0.531250 0.812500
vt 0.500000 0.750000
vt 0.531250 0.750000
vt 0.562500 0.718750
vt 0.562500 0.750000
vt 0.500000 0.718750
vt 0.562500 0.687500
vt 0.562500 0.656250
vt 0.500000 0.687500
vt 0.500000 0.656250
s 0
usemtl Material_0.001
f 1/1/1 3/2/1 2/3/1
f 3/2/1 4/4/1 2/3/1
f 5/3/2 7/4/2 6/1/2
f 7/4/2 8/2/2 6/1/2
f 9/5/3 11/6/3 10/7/3
f 11/6/3 12/8/3 10/7/3
f 13/9/4 15/10/4 14/11/4
f 15/10/4 16/12/4 14/11/4
f 17/13/5 19/14/5 18/15/5
f 19/14/5 20/16/5 18/15/5
f 21/17/6 23/18/6 22/19/6
f 23/18/6 24/20/6 22/19/6
f 25/21/1 27/22/1 26/23/1
f 27/22/1 28/24/1 26/23/1
f 29/22/2 31/25/2 30/24/2
f 31/25/2 32/15/2 30/24/2
f 33/26/3 35/27/3 34/28/3
f 35/27/3 36/29/3 34/28/3
f 37/30/4 39/31/4 38/32/4
f 39/31/4 40/33/4 38/32/4
f 41/34/5 43/35/5 42/32/5
f 43/35/5 44/36/5 42/32/5
f 45/37/6 47/34/6 46/29/6
f 47/34/6 48/32/6 46/29/6
f 49/36/1 51/38/1 50/39/1
f 51/38/1 52/40/1 50/39/1
f 53/38/2 55/41/2 54/40/2
f 55/41/2 56/42/2 54/40/2
f 57/43/3 59/44/3 58/45/3
f 59/44/3 60/41/3 58/45/3
f 61/46/4 63/47/4 62/48/4
f 63/47/4 64/49/4 62/48/4
f 65/1/5 67/21/5 66/38/5
f 67/21/5 68/41/5 66/38/5
f 69/35/6 71/1/6 70/36/6
f 71/1/6 72/38/6 70/36/6
