# Blender 4.4.0
# www.blender.org
mtllib lev.rk0.mtl
o attachmentModel
v -0.769231 0.000000 0.769231
v 1.153846 0.000000 0.769231
v -0.769231 -0.769231 0.769231
v 1.153846 -0.769231 0.769231
v 1.153846 0.000000 -0.769231
v -0.769231 0.000000 -0.769231
v 1.153846 -0.769231 -0.769231
v -0.769231 -0.769231 -0.769231
v 1.153846 0.000000 -0.769231
v 1.153846 0.000000 0.769231
v -0.769231 0.000000 -0.769231
v -0.769231 0.000000 0.769231
v -0.769231 -0.769231 -0.769231
v -0.769231 -0.769231 0.769231
v 1.153846 -0.769231 -0.769231
v 1.153846 -0.769231 0.769231
v -0.769231 0.000000 -0.769231
v -0.769231 0.000000 0.769231
v -0.769231 -0.769231 -0.769231
v -0.769231 -0.769231 0.769231
v 1.153846 0.000000 0.769231
v 1.153846 0.000000 -0.769231
v 1.153846 -0.769231 0.769231
v 1.153846 -0.769231 -0.769231
v -0.769230 -0.769231 0.576923
v 0.769231 -0.769231 0.576923
v -0.769230 -1.153846 0.576923
v 0.769231 -1.153846 0.576923
v 0.769231 -0.769231 -0.576923
v -0.769230 -0.769231 -0.576923
v 0.769231 -1.153846 -0.576923
v -0.769230 -1.153846 -0.576923
v 0.769231 -0.769231 -0.576923
v 0.769231 -0.769231 0.576923
v -0.769230 -0.769231 -0.576923
v -0.769230 -0.769231 0.576923
v -0.769230 -1.153846 -0.576923
v -0.769230 -1.153846 0.576923
v 0.769231 -1.153846 -0.576923
v 0.769231 -1.153846 0.576923
v -0.769230 -0.769231 -0.576923
v -0.769230 -0.769231 0.576923
v -0.769230 -1.153846 -0.576923
v -0.769230 -1.153846 0.576923
v 0.769231 -0.769231 0.576923
v 0.769231 -0.769231 -0.576923
v 0.769231 -1.153846 0.576923
v 0.769231 -1.153846 -0.576923
v -0.769230 -1.153846 0.384615
v 0.384616 -1.153846 0.384615
v -0.769230 -3.461539 0.384615
v 0.384616 -3.461539 0.384615
v 0.384616 -1.153846 -0.769231
v -0.769230 -1.153846 -0.769231
v 0.384616 -3.461539 -0.769231
v -0.769230 -3.461539 -0.769231
v 0.384616 -1.153846 -0.769231
v 0.384616 -1.153846 0.384615
v -0.769230 -1.153846 -0.769231
v -0.769230 -1.153846 0.384615
v -0.769230 -3.461539 -0.769231
v -0.769230 -3.461539 0.384615
v 0.384616 -3.461539 -0.769231
v 0.384616 -3.461539 0.384615
v -0.769230 -1.153846 -0.769231
v -0.769230 -1.153846 0.384615
v -0.769230 -3.461539 -0.769231
v -0.769230 -3.461539 0.384615
v 0.384616 -1.153846 0.384615
v 0.384616 -1.153846 -0.769231
v 0.384616 -3.461539 0.384615
v 0.384616 -3.461539 -0.769231
vn -0.0000 -0.0000 1.0000
vn -0.0000 -0.0000 -1.0000
vn -0.0000 1.0000 -0.0000
vn -0.0000 -1.0000 -0.0000
vn -1.0000 -0.0000 -0.0000
vn 1.0000 -0.0000 -0.0000
vt 0.125000 0.625000
vt 0.125000 0.562500
vt 0.281250 0.625000
vt 0.281250 0.562500
vt 0.375000 0.875000
vt 0.375000 0.812500
vt 0.531250 0.875000
vt 0.531250 0.812500
vt 0.125000 0.843750
vt 0.125000 1.000000
vt 0.000000 0.843750
vt 0.000000 1.000000
vt 0.250000 1.000000
vt 0.250000 0.843750
vt 0.125000 0.500000
vt 0.250000 0.562500
vt 0.250000 0.500000
vt 0.375000 0.687500
vt 0.375000 0.625000
vt 0.500000 0.687500
vt 0.500000 0.625000
vt 0.437500 0.625000
vt 0.437500 0.593750
vt 0.562500 0.625000
vt 0.562500 0.593750
vt 0.437500 0.562500
vt 0.437500 0.531250
vt 0.562500 0.562500
vt 0.562500 0.531250
vt 0.093750 0.500000
vt 0.093750 0.625000
vt 0.000000 0.500000
vt 0.000000 0.625000
vt 0.468750 1.000000
vt 0.468750 0.875000
vt 0.375000 1.000000
vt 0.500000 1.000000
vt 0.500000 0.968750
vt 0.593750 1.000000
vt 0.593750 0.968750
vt 0.000000 0.468750
vt 0.093750 0.468750
vt 0.125000 0.812500
vt 0.218750 0.812500
vt 0.218750 0.625000
vt 0.250000 0.812500
vt 0.250000 0.625000
vt 0.343750 0.812500
vt 0.343750 0.625000
vt 0.468750 0.718750
vt 0.468750 0.812500
vt 0.375000 0.718750
vt 0.406250 0.625000
vt 0.406250 0.531250
vt 0.312500 0.625000
vt 0.312500 0.531250
vt 0.343750 1.000000
vt 0.000000 0.812500
vt 0.093750 0.812500
s 0
usemtl Material_0
f 1/1/1 3/2/1 2/3/1
f 3/2/1 4/4/1 2/3/1
f 5/5/2 7/6/2 6/7/2
f 7/6/2 8/8/2 6/7/2
f 9/9/3 11/10/3 10/11/3
f 11/10/3 12/12/3 10/11/3
f 13/13/4 15/14/4 14/10/4
f 15/14/4 16/9/4 14/10/4
f 17/2/5 19/15/5 18/16/5
f 19/15/5 20/17/5 18/16/5
f 21/18/6 23/19/6 22/20/6
f 23/19/6 24/21/6 22/20/6
f 25/22/1 27/23/1 26/24/1
f 27/23/1 28/25/1 26/24/1
f 29/26/2 31/27/2 30/28/2
f 31/27/2 32/29/2 30/28/2
f 33/30/3 35/31/3 34/32/3
f 35/31/3 36/33/3 34/32/3
f 37/34/4 39/35/4 38/36/4
f 39/35/4 40/5/4 38/36/4
f 41/37/5 43/38/5 42/39/5
f 43/38/5 44/40/5 42/39/5
f 45/32/6 47/41/6 46/30/6
f 47/41/6 48/42/6 46/30/6
f 49/43/1 51/1/1 50/44/1
f 51/1/1 52/45/1 50/44/1
f 53/46/2 55/47/2 54/48/2
f 55/47/2 56/49/2 54/48/2
f 57/50/3 59/51/3 58/52/3
f 59/51/3 60/6/3 58/52/3
f 61/53/4 63/54/4 62/55/4
f 63/54/4 64/56/4 62/55/4
f 65/13/5 67/46/5 66/57/5
f 67/46/5 68/48/5 66/57/5
f 69/58/6 71/33/6 70/59/6
f 71/33/6 72/31/6 70/59/6
