# Blender 5.2.0 LTS
# www.blender.org
mtllib lev.pu.mtl
o overlaySolidModel
v -3.839231 2.107692 1.146154
v -3.838461 2.107692 1.146154
v -3.839231 0.969231 1.146154
v -3.838461 0.969231 1.146154
v -3.838461 2.107692 0.007692
v -3.839231 2.107692 0.007692
v -3.838461 0.969231 0.007692
v -3.839231 0.969231 0.007692
v -3.838461 2.107692 0.007692
v -3.838461 2.107692 1.146154
v -3.839231 2.107692 0.007692
v -3.839231 2.107692 1.146154
v -3.839231 0.969231 0.007692
v -3.839231 0.969231 1.146154
v -3.838461 0.969231 0.007692
v -3.838461 0.969231 1.146154
v -3.839231 2.107692 0.007692
v -3.839231 2.107692 1.146154
v -3.839231 0.969231 0.007692
v -3.839231 0.969231 1.146154
v -3.838461 2.107692 1.146154
v -3.838461 2.107692 0.007692
v -3.838461 0.969231 1.146154
v -3.838461 0.969231 0.007692
vn -0.0000 -0.0000 1.0000
vn -0.0000 -0.0000 -1.0000
vn -0.0000 1.0000 -0.0000
vn -0.0000 -1.0000 -0.0000
vn -1.0000 -0.0000 -0.0000
vn 1.0000 -0.0000 -0.0000
vt 0.000000 1.000000
vt 0.000000 0.906250
vt 0.093750 1.000000
vt 0.906250 0.093750
vt 0.906250 0.000000
vt 1.000000 0.093750
vt 1.000000 0.000000
s 0
usemtl Material_0.001
f 1/1/1 3/2/1 2/1/1
f 3/2/1 4/2/1 2/1/1
f 5/1/2 7/2/2 6/1/2
f 7/2/2 8/2/2 6/1/2
f 9/3/3 11/3/3 10/1/3
f 11/3/3 12/1/3 10/1/3
f 13/3/4 15/3/4 14/1/4
f 15/3/4 16/1/4 14/1/4
f 17/4/5 19/5/5 18/6/5
f 19/5/5 20/7/5 18/6/5
f 21/4/6 23/5/6 22/6/6
f 23/5/6 24/7/6 22/6/6
o scopeModel
v -3.831538 2.107692 1.146154
v -3.830769 2.107692 1.146154
v -3.831538 0.969231 1.146154
v -3.830769 0.969231 1.146154
v -3.830769 2.107692 0.007692
v -3.831538 2.107692 0.007692
v -3.830769 0.969231 0.007692
v -3.831538 0.969231 0.007692
v -3.830769 2.107692 0.007692
v -3.830769 2.107692 1.146154
v -3.831538 2.107692 0.007692
v -3.831538 2.107692 1.146154
v -3.831538 0.969231 0.007692
v -3.831538 0.969231 1.146154
v -3.830769 0.969231 0.007692
v -3.830769 0.969231 1.146154
v -3.831538 2.107692 0.007692
v -3.831538 2.107692 1.146154
v -3.831538 0.969231 0.007692
v -3.831538 0.969231 1.146154
v -3.830769 2.107692 1.146154
v -3.830769 2.107692 0.007692
v -3.830769 0.969231 1.146154
v -3.830769 0.969231 0.007692
vn -0.0000 -0.0000 1.0000
vn -0.0000 -0.0000 -1.0000
vn -0.0000 1.0000 -0.0000
vn -0.0000 -1.0000 -0.0000
vn -1.0000 -0.0000 -0.0000
vn 1.0000 -0.0000 -0.0000
vt 0.000000 1.000000
vt 0.000000 0.906250
vt 0.093750 1.000000
vt 0.500000 0.093750
vt 0.500000 0.000000
vt 0.593750 0.093750
vt 0.593750 0.000000
s 0
usemtl Material_0.001
f 25/8/7 27/9/7 26/8/7
f 27/9/7 28/9/7 26/8/7
f 29/8/8 31/9/8 30/8/8
f 31/9/8 32/9/8 30/8/8
f 33/10/9 35/10/9 34/8/9
f 35/10/9 36/8/9 34/8/9
f 37/10/10 39/10/10 38/8/10
f 39/10/10 40/8/10 38/8/10
f 41/11/11 43/12/11 42/13/11
f 43/12/11 44/14/11 42/13/11
f 45/11/12 47/12/12 46/13/12
f 47/12/12 48/14/12 46/13/12
o attachmentModel
v -0.769231 1.538462 -0.383846
v 1.153846 1.538462 -0.383846
v -0.769231 0.000000 -0.383846
v 1.153846 0.000000 -0.383846
v 1.153846 1.538462 -0.384615
v -0.769231 1.538462 -0.384615
v 1.153846 0.000000 -0.384615
v -0.769231 0.000000 -0.384615
v 1.153846 1.538462 -0.384615
v 1.153846 1.538462 -0.383846
v -0.769231 1.538462 -0.384615
v -0.769231 1.538462 -0.383846
v -0.769231 0.000000 -0.384615
v -0.769231 0.000000 -0.383846
v 1.153846 0.000000 -0.384615
v 1.153846 0.000000 -0.383846
v -0.769231 1.538462 -0.384615
v -0.769231 1.538462 -0.383846
v -0.769231 0.000000 -0.384615
v -0.769231 0.000000 -0.383846
v 1.153846 1.538462 -0.383846
v 1.153846 1.538462 -0.384615
v 1.153846 0.000000 -0.383846
v 1.153846 0.000000 -0.384615
v -1.538461 0.000000 0.000000
v 1.538461 0.000000 -0.000000
v -1.538461 -0.769231 0.000000
v 1.538461 -0.769231 -0.000000
v 1.538461 0.000000 -0.384615
v -1.538461 0.000000 -0.384615
v 1.538461 -0.769231 -0.384615
v -1.538461 -0.769231 -0.384615
v 1.538461 0.000000 -0.384615
v 1.538461 0.000000 -0.000000
v -1.538461 0.000000 -0.384615
v -1.538461 0.000000 0.000000
v -1.538461 -0.769231 -0.384615
v -1.538461 -0.769231 0.000000
v 1.538461 -0.769231 -0.384615
v 1.538461 -0.769231 -0.000000
v -1.538461 0.000000 -0.384615
v -1.538461 0.000000 0.000000
v -1.538461 -0.769231 -0.384615
v -1.538461 -0.769231 0.000000
v 1.538461 0.000000 -0.000000
v 1.538461 0.000000 -0.384615
v 1.538461 -0.769231 -0.000000
v 1.538461 -0.769231 -0.384615
v -3.846153 2.115385 1.153846
v 1.538461 2.115385 1.153846
v -3.846153 0.961538 1.153846
v 1.538461 0.961538 1.153846
v 1.538461 2.115385 -0.000000
v -3.846153 2.115385 0.000000
v 1.538461 0.961538 -0.000000
v -3.846153 0.961538 0.000000
v 1.538461 2.115385 -0.000000
v 1.538461 2.115385 1.153846
v -3.846153 2.115385 0.000000
v -3.846153 2.115385 1.153846
v -3.846153 0.961538 0.000000
v -3.846153 0.961538 1.153846
v 1.538461 0.961538 -0.000000
v 1.538461 0.961538 1.153846
v -3.846153 2.115385 0.000000
v -3.846153 2.115385 1.153846
v -3.846153 0.961538 0.000000
v -3.846153 0.961538 1.153846
v 1.538461 2.115385 1.153846
v 1.538461 2.115385 -0.000000
v 1.538461 0.961538 1.153846
v 1.538461 0.961538 -0.000000
v -2.307692 1.923077 0.000000
v -1.538461 1.923077 0.000000
v -2.307692 1.153846 0.000000
v -1.538461 1.153846 0.000000
v -1.538461 1.923077 -0.384615
v -2.307692 1.923077 -0.384615
v -1.538461 1.153846 -0.384615
v -2.307692 1.153846 -0.384615
v -1.538461 1.923077 -0.384615
v -1.538461 1.923077 0.000000
v -2.307692 1.923077 -0.384615
v -2.307692 1.923077 0.000000
v -2.307692 1.153846 -0.384615
v -2.307692 1.153846 0.000000
v -1.538461 1.153846 -0.384615
v -1.538461 1.153846 0.000000
v -2.307692 1.923077 -0.384615
v -2.307692 1.923077 0.000000
v -2.307692 1.153846 -0.384615
v -2.307692 1.153846 0.000000
v -1.538461 1.923077 0.000000
v -1.538461 1.923077 -0.384615
v -1.538461 1.153846 0.000000
v -1.538461 1.153846 -0.384615
v -1.153846 1.923077 -0.192308
v -0.384615 1.923077 -0.192308
v -1.153846 1.153846 -0.192308
v -0.384615 1.153846 -0.192308
v -0.384615 1.923077 -0.384615
v -1.153846 1.923077 -0.384615
v -0.384615 1.153846 -0.384615
v -1.153846 1.153846 -0.384615
v -0.384615 1.923077 -0.384615
v -0.384615 1.923077 -0.192308
v -1.153846 1.923077 -0.384615
v -1.153846 1.923077 -0.192308
v -1.153846 1.153846 -0.384615
v -1.153846 1.153846 -0.192308
v -0.384615 1.153846 -0.384615
v -0.384615 1.153846 -0.192308
v -1.153846 1.923077 -0.384615
v -1.153846 1.923077 -0.192308
v -1.153846 1.153846 -0.384615
v -1.153846 1.153846 -0.192308
v -0.384615 1.923077 -0.192308
v -0.384615 1.923077 -0.384615
v -0.384615 1.153846 -0.192308
v -0.384615 1.153846 -0.384615
v 0.384615 1.923077 -0.192308
v 1.153846 1.923077 -0.192308
v 0.384615 1.153846 -0.192308
v 1.153846 1.153846 -0.192308
v 1.153846 1.923077 -0.384615
v 0.384615 1.923077 -0.384615
v 1.153846 1.153846 -0.384615
v 0.384615 1.153846 -0.384615
v 1.153846 1.923077 -0.384615
v 1.153846 1.923077 -0.192308
v 0.384615 1.923077 -0.384615
v 0.384615 1.923077 -0.192308
v 0.384615 1.153846 -0.384615
v 0.384615 1.153846 -0.192308
v 1.153846 1.153846 -0.384615
v 1.153846 1.153846 -0.192308
v 0.384615 1.923077 -0.384615
v 0.384615 1.923077 -0.192308
v 0.384615 1.153846 -0.384615
v 0.384615 1.153846 -0.192308
v 1.153846 1.923077 -0.192308
v 1.153846 1.923077 -0.384615
v 1.153846 1.153846 -0.192308
v 1.153846 1.153846 -0.384615
v -2.307692 2.500000 0.961538
v -1.538461 2.500000 0.961538
v -2.307692 2.115385 0.961538
v -1.538461 2.115385 0.961538
v -1.538461 2.500000 0.192308
v -2.307692 2.500000 0.192308
v -1.538461 2.115385 0.192308
v -2.307692 2.115385 0.192308
v -1.538461 2.500000 0.192308
v -1.538461 2.500000 0.961538
v -2.307692 2.500000 0.192308
v -2.307692 2.500000 0.961538
v -2.307692 2.115385 0.192308
v -2.307692 2.115385 0.961538
v -1.538461 2.115385 0.192308
v -1.538461 2.115385 0.961538
v -2.307692 2.500000 0.192308
v -2.307692 2.500000 0.961538
v -2.307692 2.115385 0.192308
v -2.307692 2.115385 0.961538
v -1.538461 2.500000 0.961538
v -1.538461 2.500000 0.192308
v -1.538461 2.115385 0.961538
v -1.538461 2.115385 0.192308
v -3.823846 2.107692 1.146154
v -3.823076 2.107692 1.146154
v -3.823846 0.969231 1.146154
v -3.823076 0.969231 1.146154
v -3.823076 2.107692 0.007692
v -3.823846 2.107692 0.007692
v -3.823076 0.969231 0.007692
v -3.823846 0.969231 0.007692
v -3.823076 2.107692 0.007692
v -3.823076 2.107692 1.146154
v -3.823846 2.107692 0.007692
v -3.823846 2.107692 1.146154
v -3.823846 0.969231 0.007692
v -3.823846 0.969231 1.146154
v -3.823076 0.969231 0.007692
v -3.823076 0.969231 1.146154
v -3.823846 2.107692 0.007692
v -3.823846 2.107692 1.146154
v -3.823846 0.969231 0.007692
v -3.823846 0.969231 1.146154
v -3.823076 2.107692 1.146154
v -3.823076 2.107692 0.007692
v -3.823076 0.969231 1.146154
v -3.823076 0.969231 0.007692
v -3.846923 2.115385 0.115385
v -3.846153 2.115385 0.115385
v -3.846923 0.961538 0.115385
v -3.846153 0.961538 0.115385
v -3.846153 2.115385 0.000000
v -3.846923 2.115385 0.000000
v -3.846153 0.961538 0.000000
v -3.846923 0.961538 0.000000
v -3.846153 2.115385 0.000000
v -3.846153 2.115385 0.115385
v -3.846923 2.115385 0.000000
v -3.846923 2.115385 0.115385
v -3.846923 0.961538 0.000000
v -3.846923 0.961538 0.115385
v -3.846153 0.961538 0.000000
v -3.846153 0.961538 0.115385
v -3.846923 2.115385 0.000000
v -3.846923 2.115385 0.115385
v -3.846923 0.961538 0.000000
v -3.846923 0.961538 0.115385
v -3.846153 2.115385 0.115385
v -3.846153 2.115385 0.000000
v -3.846153 0.961538 0.115385
v -3.846153 0.961538 0.000000
v -3.846923 2.115385 1.153846
v -3.846153 2.115385 1.153846
v -3.846923 0.961538 1.153846
v -3.846153 0.961538 1.153846
v -3.846153 2.115385 1.038462
v -3.846923 2.115385 1.038462
v -3.846153 0.961538 1.038462
v -3.846923 0.961538 1.038462
v -3.846153 2.115385 1.038462
v -3.846153 2.115385 1.153846
v -3.846923 2.115385 1.038462
v -3.846923 2.115385 1.153846
v -3.846923 0.961538 1.038462
v -3.846923 0.961538 1.153846
v -3.846153 0.961538 1.038462
v -3.846153 0.961538 1.153846
v -3.846923 2.115385 1.038462
v -3.846923 2.115385 1.153846
v -3.846923 0.961538 1.038462
v -3.846923 0.961538 1.153846
v -3.846153 2.115385 1.153846
v -3.846153 2.115385 1.038462
v -3.846153 0.961538 1.153846
v -3.846153 0.961538 1.038462
v -3.846923 1.076923 1.038462
v -3.846153 1.076923 1.038462
v -3.846923 0.961538 1.038462
v -3.846153 0.961538 1.038462
v -3.846153 1.076923 0.115385
v -3.846923 1.076923 0.115385
v -3.846153 0.961538 0.115385
v -3.846923 0.961538 0.115385
v -3.846153 1.076923 0.115385
v -3.846153 1.076923 1.038462
v -3.846923 1.076923 0.115385
v -3.846923 1.076923 1.038462
v -3.846923 0.961538 0.115385
v -3.846923 0.961538 1.038462
v -3.846153 0.961538 0.115385
v -3.846153 0.961538 1.038462
v -3.846923 1.076923 0.115385
v -3.846923 1.076923 1.038462
v -3.846923 0.961538 0.115385
v -3.846923 0.961538 1.038462
v -3.846153 1.076923 1.038462
v -3.846153 1.076923 0.115385
v -3.846153 0.961538 1.038462
v -3.846153 0.961538 0.115385
v -3.846923 2.115385 1.038462
v -3.846153 2.115385 1.038462
v -3.846923 2.000000 1.038462
v -3.846153 2.000000 1.038462
v -3.846153 2.115385 0.115385
v -3.846923 2.115385 0.115385
v -3.846153 2.000000 0.115385
v -3.846923 2.000000 0.115385
v -3.846153 2.115385 0.115385
v -3.846153 2.115385 1.038462
v -3.846923 2.115385 0.115385
v -3.846923 2.115385 1.038462
v -3.846923 2.000000 0.115385
v -3.846923 2.000000 1.038462
v -3.846153 2.000000 0.115385
v -3.846153 2.000000 1.038462
v -3.846923 2.115385 0.115385
v -3.846923 2.115385 1.038462
v -3.846923 2.000000 0.115385
v -3.846923 2.000000 1.038462
v -3.846153 2.115385 1.038462
v -3.846153 2.115385 0.115385
v -3.846153 2.000000 1.038462
v -3.846153 2.000000 0.115385
v 0.384615 2.307692 1.346154
v 1.153846 2.307692 1.346154
v 0.384615 0.769231 1.346154
v 1.153846 0.769231 1.346154
v 1.153846 2.307692 -0.192308
v 0.384615 2.307692 -0.192308
v 1.153846 0.769231 -0.192308
v 0.384615 0.769231 -0.192308
v 1.153846 2.307692 -0.192308
v 1.153846 2.307692 1.346154
v 0.384615 2.307692 -0.192308
v 0.384615 2.307692 1.346154
v 0.384615 0.769231 -0.192308
v 0.384615 0.769231 1.346154
v 1.153846 0.769231 -0.192308
v 1.153846 0.769231 1.346154
v 0.384615 2.307692 -0.192308
v 0.384615 2.307692 1.346154
v 0.384615 0.769231 -0.192308
v 0.384615 0.769231 1.346154
v 1.153846 2.307692 1.346154
v 1.153846 2.307692 -0.192308
v 1.153846 0.769231 1.346154
v 1.153846 0.769231 -0.192308
v -1.153846 2.307692 1.346154
v -0.384615 2.307692 1.346154
v -1.153846 0.769231 1.346154
v -0.384615 0.769231 1.346154
v -0.384615 2.307692 -0.192308
v -1.153846 2.307692 -0.192308
v -0.384615 0.769231 -0.192308
v -1.153846 0.769231 -0.192308
v -0.384615 2.307692 -0.192308
v -0.384615 2.307692 1.346154
v -1.153846 2.307692 -0.192308
v -1.153846 2.307692 1.346154
v -1.153846 0.769231 -0.192308
v -1.153846 0.769231 1.346154
v -0.384615 0.769231 -0.192308
v -0.384615 0.769231 1.346154
v -1.153846 2.307692 -0.192308
v -1.153846 2.307692 1.346154
v -1.153846 0.769231 -0.192308
v -1.153846 0.769231 1.346154
v -0.384615 2.307692 1.346154
v -0.384615 2.307692 -0.192308
v -0.384615 0.769231 1.346154
v -0.384615 0.769231 -0.192308
vn -0.0000 -0.0000 1.0000
vn -0.0000 -0.0000 -1.0000
vn -0.0000 1.0000 -0.0000
vn -0.0000 -1.0000 -0.0000
vn -1.0000 -0.0000 -0.0000
vn 1.0000 -0.0000 -0.0000
vt 0.250000 0.750000
vt 0.250000 0.625000
vt 0.406250 0.750000
vt 0.406250 0.625000
vt 0.250000 0.500000
vt 0.406250 0.500000
vt 0.000000 0.843750
vt 0.000000 1.000000
vt 0.000000 0.875000
vt 0.687500 0.937500
vt 0.687500 0.875000
vt 0.437500 0.937500
vt 0.437500 0.875000
vt 0.500000 0.625000
vt 0.500000 0.875000
vt 0.468750 0.625000
vt 0.468750 0.875000
vt 0.500000 0.375000
vt 0.437500 0.625000
vt 0.437500 0.375000
vt 0.000000 0.250000
vt 0.000000 0.187500
vt 0.031250 0.250000
vt 0.031250 0.187500
vt 0.718750 0.312500
vt 0.718750 0.250000
vt 0.750000 0.312500
vt 0.750000 0.250000
vt 0.000000 0.906250
vt 0.437500 1.000000
vt 0.437500 0.906250
vt 0.000000 0.781250
vt 0.437500 0.781250
vt 0.093750 0.312500
vt 0.093750 0.750000
vt 0.000000 0.312500
vt 0.000000 0.750000
vt 0.218750 0.750000
vt 0.218750 0.312500
vt 0.125000 0.750000
vt 0.125000 0.312500
vt 0.625000 0.875000
vt 0.625000 0.781250
vt 0.718750 0.875000
vt 0.718750 0.781250
vt 0.500000 0.500000
vt 0.500000 0.406250
vt 0.593750 0.500000
vt 0.593750 0.406250
vt 0.062500 0.250000
vt 0.062500 0.187500
vt 0.125000 0.250000
vt 0.125000 0.187500
vt 0.750000 0.875000
vt 0.750000 0.812500
vt 0.812500 0.875000
vt 0.812500 0.812500
vt 0.718750 0.187500
vt 0.687500 0.187500
vt 0.687500 0.250000
vt 0.781250 0.312500
vt 0.781250 0.250000
vt 0.625000 0.250000
vt 0.625000 0.187500
vt 0.656250 0.250000
vt 0.656250 0.187500
vt 0.562500 0.250000
vt 0.562500 0.187500
vt 0.593750 0.250000
vt 0.593750 0.187500
vt 0.750000 0.750000
vt 0.812500 0.750000
vt 0.250000 0.250000
vt 0.250000 0.187500
vt 0.312500 0.250000
vt 0.312500 0.187500
vt 0.843750 0.937500
vt 0.843750 1.000000
vt 0.812500 0.937500
vt 0.812500 1.000000
vt 0.093750 0.187500
vt 0.093750 0.125000
vt 0.062500 0.125000
vt 0.000000 0.125000
vt 0.031250 0.125000
vt 0.750000 0.187500
vt 0.781250 0.187500
vt 0.750000 0.687500
vt 0.812500 0.687500
vt 0.375000 0.250000
vt 0.375000 0.187500
vt 0.843750 0.812500
vt 0.843750 0.875000
vt 0.218750 0.187500
vt 0.218750 0.125000
vt 0.187500 0.187500
vt 0.187500 0.125000
vt 0.125000 0.125000
vt 0.156250 0.187500
vt 0.156250 0.125000
vt 0.250000 0.156250
vt 0.312500 0.156250
vt 0.375000 0.156250
vt 0.812500 0.625000
vt 0.750000 0.625000
vt 0.437500 0.250000
vt 0.437500 0.187500
vt 0.812500 0.718750
vt 0.875000 0.750000
vt 0.875000 0.718750
vt 0.812500 0.781250
vt 0.875000 0.812500
vt 0.875000 0.781250
vt 0.093750 1.000000
vt 0.625000 0.750000
vt 0.625000 0.656250
vt 0.718750 0.750000
vt 0.718750 0.656250
vt 0.250000 0.375000
vt 0.250000 0.281250
vt 0.343750 0.375000
vt 0.343750 0.281250
vt 0.031250 1.000000
vt 0.437500 0.156250
vt 0.468750 0.250000
vt 0.468750 0.156250
vt 0.750000 0.531250
vt 0.781250 0.625000
vt 0.781250 0.531250
vt 0.750000 0.500000
vt 0.750000 0.406250
vt 0.781250 0.500000
vt 0.781250 0.406250
vt 0.500000 0.250000
vt 0.500000 0.156250
vt 0.531250 0.250000
vt 0.531250 0.156250
vt 0.000000 0.968750
vt 0.062500 1.000000
vt 0.812500 0.656250
vt 0.875000 0.687500
vt 0.875000 0.656250
vt 0.812500 0.562500
vt 0.812500 0.531250
vt 0.875000 0.562500
vt 0.875000 0.531250
vt 0.812500 0.593750
vt 0.875000 0.625000
vt 0.875000 0.593750
vt 0.375000 0.500000
vt 0.375000 0.375000
vt 0.437500 0.500000
vt 0.625000 0.375000
vt 0.687500 0.375000
vt 0.687500 1.000000
vt 0.500000 0.750000
vt 0.187500 0.312500
vt 0.250000 0.312500
vt 0.812500 0.375000
vt 0.812500 0.312500
vt 0.687500 0.312500
vt 0.625000 0.625000
vt 0.625000 0.500000
s 0
usemtl Material_0.001
f 49/15/13 51/16/13 50/17/13
f 51/16/13 52/18/13 50/17/13
f 53/16/14 55/19/14 54/18/14
f 55/19/14 56/20/14 54/18/14
f 57/21/15 59/22/15 58/21/15
f 59/22/15 60/22/15 58/21/15
f 61/22/16 63/21/16 62/22/16
f 63/21/16 64/21/16 62/22/16
f 65/22/17 67/23/17 66/22/17
f 67/23/17 68/23/17 66/22/17
f 69/22/18 71/23/18 70/22/18
f 71/23/18 72/23/18 70/22/18
f 73/24/13 75/25/13 74/26/13
f 75/25/13 76/27/13 74/26/13
f 77/26/14 79/27/14 78/24/14
f 79/27/14 80/25/14 78/24/14
f 81/28/15 83/29/15 82/30/15
f 83/29/15 84/31/15 82/30/15
f 85/28/16 87/32/16 86/33/16
f 87/32/16 88/34/16 86/33/16
f 89/35/17 91/36/17 90/37/17
f 91/36/17 92/38/17 90/37/17
f 93/39/18 95/40/18 94/41/18
f 95/40/18 96/42/18 94/41/18
f 97/22/13 99/43/13 98/44/13
f 99/43/13 100/45/13 98/44/13
f 101/23/14 103/46/14 102/27/14
f 103/46/14 104/47/14 102/27/14
f 105/48/15 107/49/15 106/50/15
f 107/49/15 108/51/15 106/50/15
f 109/52/16 111/53/16 110/54/16
f 111/53/16 112/55/16 110/54/16
f 113/56/17 115/57/17 114/58/17
f 115/57/17 116/59/17 114/58/17
f 117/60/18 119/61/18 118/62/18
f 119/61/18 120/63/18 118/62/18
f 121/64/13 123/65/13 122/66/13
f 123/65/13 124/67/13 122/66/13
f 125/68/14 127/69/14 126/70/14
f 127/69/14 128/71/14 126/70/14
f 129/72/15 131/40/15 130/73/15
f 131/40/15 132/74/15 130/73/15
f 133/75/16 135/76/16 134/41/16
f 135/76/16 136/42/16 134/41/16
f 137/77/17 139/78/17 138/79/17
f 139/78/17 140/80/17 138/79/17
f 141/81/18 143/82/18 142/83/18
f 143/82/18 144/84/18 142/83/18
f 145/69/13 147/85/13 146/71/13
f 147/85/13 148/86/13 146/71/13
f 149/87/14 151/88/14 150/89/14
f 151/88/14 152/90/14 150/89/14
f 153/91/15 155/92/15 154/93/15
f 155/92/15 156/94/15 154/93/15
f 157/95/16 159/96/16 158/65/16
f 159/96/16 160/97/16 158/65/16
f 161/36/17 163/98/17 162/38/17
f 163/98/17 164/99/17 162/38/17
f 165/42/18 167/100/18 166/76/18
f 167/100/18 168/101/18 166/76/18
f 169/85/13 171/102/13 170/86/13
f 171/102/13 172/103/13 170/86/13
f 173/89/14 175/90/14 174/104/14
f 175/90/14 176/105/14 174/104/14
f 177/106/15 179/107/15 178/71/15
f 179/107/15 180/70/15 178/71/15
f 181/108/16 183/109/16 182/110/16
f 183/109/16 184/111/16 182/110/16
f 185/67/17 187/112/17 186/113/17
f 187/112/17 188/114/17 186/113/17
f 189/93/18 191/70/18 190/91/18
f 191/70/18 192/107/18 190/91/18
f 193/88/13 195/115/13 194/90/13
f 195/115/13 196/116/13 194/90/13
f 197/90/14 199/116/14 198/105/14
f 199/116/14 200/117/14 198/105/14
f 201/118/15 203/103/15 202/119/15
f 203/103/15 204/102/15 202/119/15
f 205/120/16 207/121/16 206/104/16
f 207/121/16 208/105/16 206/104/16
f 209/86/17 211/122/17 210/123/17
f 211/122/17 212/124/17 210/123/17
f 213/71/18 215/125/18 214/126/18
f 215/125/18 216/127/18 214/126/18
f 217/22/13 219/43/13 218/22/13
f 219/43/13 220/43/13 218/22/13
f 221/22/14 223/43/14 222/22/14
f 223/43/14 224/43/14 222/22/14
f 225/128/15 227/128/15 226/22/15
f 227/128/15 228/22/15 226/22/15
f 229/128/16 231/128/16 230/22/16
f 231/128/16 232/22/16 230/22/16
f 233/129/17 235/130/17 234/131/17
f 235/130/17 236/132/17 234/131/17
f 237/133/18 239/134/18 238/135/18
f 239/134/18 240/136/18 238/135/18
f 241/22/13 243/43/13 242/22/13
f 243/43/13 244/43/13 242/22/13
f 245/22/14 247/43/14 246/22/14
f 247/43/14 248/43/14 246/22/14
f 249/137/15 251/137/15 250/22/15
f 251/137/15 252/22/15 250/22/15
f 253/137/16 255/137/16 254/22/16
f 255/137/16 256/22/16 254/22/16
f 257/120/17 259/138/17 258/139/17
f 259/138/17 260/140/17 258/139/17
f 261/119/18 263/141/18 262/142/18
f 263/141/18 264/143/18 262/142/18
f 265/22/13 267/43/13 266/22/13
f 267/43/13 268/43/13 266/22/13
f 269/22/14 271/43/14 270/22/14
f 271/43/14 272/43/14 270/22/14
f 273/137/15 275/137/15 274/22/15
f 275/137/15 276/22/15 274/22/15
f 277/137/16 279/137/16 278/22/16
f 279/137/16 280/22/16 278/22/16
f 281/144/17 283/145/17 282/146/17
f 283/145/17 284/147/17 282/146/17
f 285/148/18 287/149/18 286/150/18
f 287/149/18 288/151/18 286/150/18
f 289/22/13 291/152/13 290/22/13
f 291/152/13 292/152/13 290/22/13
f 293/22/14 295/152/14 294/22/14
f 295/152/14 296/152/14 294/22/14
f 297/153/15 299/153/15 298/22/15
f 299/153/15 300/22/15 298/22/15
f 301/153/16 303/153/16 302/22/16
f 303/153/16 304/22/16 302/22/16
f 305/105/17 307/117/17 306/121/17
f 307/117/17 308/138/17 306/121/17
f 309/103/18 311/154/18 310/155/18
f 311/154/18 312/156/18 310/155/18
f 313/22/13 315/152/13 314/22/13
f 315/152/13 316/152/13 314/22/13
f 317/22/14 319/152/14 318/22/14
f 319/152/14 320/152/14 318/22/14
f 321/153/15 323/153/15 322/22/15
f 323/153/15 324/22/15 322/22/15
f 325/153/16 327/153/16 326/22/16
f 327/153/16 328/22/16 326/22/16
f 329/157/17 331/158/17 330/159/17
f 331/158/17 332/160/17 330/159/17
f 333/118/18 335/161/18 334/162/18
f 335/161/18 336/163/18 334/162/18
f 337/164/13 339/165/13 338/166/13
f 339/165/13 340/34/13 338/166/13
f 341/167/14 343/77/14 342/168/14
f 343/77/14 344/74/14 342/168/14
f 345/66/15 347/55/15 346/35/15
f 347/55/15 348/50/15 346/35/15
f 349/94/16 351/93/16 350/169/16
f 351/93/16 352/24/16 350/169/16
f 353/19/17 355/133/17 354/164/17
f 355/133/17 356/165/17 354/164/17
f 357/29/18 359/170/18 358/56/18
f 359/170/18 360/129/18 358/56/18
f 361/55/13 363/67/13 362/171/13
f 363/67/13 364/110/13 362/171/13
f 365/171/14 367/110/14 366/172/14
f 367/110/14 368/88/14 366/172/14
f 369/70/15 371/93/15 370/25/15
f 371/93/15 372/24/15 370/25/15
f 373/173/16 375/174/16 374/168/16
f 375/174/16 376/175/16 374/168/16
f 377/28/17 379/60/17 378/176/17
f 379/60/17 380/177/17 378/176/17
f 381/170/18 383/28/18 382/129/18
f 383/28/18 384/176/18 382/129/18
