# Blender 5.1.2
# www.blender.org
mtllib lev.elcan.mtl
o scopeModel
v -2.712307 1.730769 0.576923
v -2.711538 1.730769 0.576923
v -2.712307 0.576923 0.576923
v -2.711538 0.576923 0.576923
v -2.711538 1.730769 -0.576923
v -2.712307 1.730769 -0.576923
v -2.711538 0.576923 -0.576923
v -2.712307 0.576923 -0.576923
v -2.711538 1.730769 -0.576923
v -2.711538 1.730769 0.576923
v -2.712307 1.730769 -0.576923
v -2.712307 1.730769 0.576923
v -2.712307 0.576923 -0.576923
v -2.712307 0.576923 0.576923
v -2.711538 0.576923 -0.576923
v -2.711538 0.576923 0.576923
v -2.712307 1.730769 -0.576923
v -2.712307 1.730769 0.576923
v -2.712307 0.576923 -0.576923
v -2.712307 0.576923 0.576923
v -2.711538 1.730769 0.576923
v -2.711538 1.730769 -0.576923
v -2.711538 0.576923 0.576923
v -2.711538 0.576923 -0.576923
vn -0.0000 -0.0000 1.0000
vn -0.0000 -0.0000 -1.0000
vn -0.0000 1.0000 -0.0000
vn -0.0000 -1.0000 -0.0000
vn -1.0000 -0.0000 -0.0000
vn 1.0000 -0.0000 -0.0000
vt 0.906250 0.093750
vt 0.906250 0.000000
vt 1.000000 0.093750
vt 1.000000 0.000000
s 0
usemtl Material_0
f 1/1/1 3/2/1 2/3/1
f 3/2/1 4/4/1 2/3/1
f 5/1/2 7/2/2 6/3/2
f 7/2/2 8/4/2 6/3/2
f 9/1/3 11/2/3 10/3/3
f 11/2/3 12/4/3 10/3/3
f 13/1/4 15/2/4 14/3/4
f 15/2/4 16/4/4 14/3/4
f 17/1/5 19/2/5 18/3/5
f 19/2/5 20/4/5 18/3/5
f 21/1/6 23/2/6 22/3/6
f 23/2/6 24/4/6 22/3/6
o overlaySolidModel
v -2.731538 1.730769 0.576923
v -2.730769 1.730769 0.576923
v -2.731538 0.576923 0.576923
v -2.730769 0.576923 0.576923
v -2.730769 1.730769 -0.576923
v -2.731538 1.730769 -0.576923
v -2.730769 0.576923 -0.576923
v -2.731538 0.576923 -0.576923
v -2.730769 1.730769 -0.576923
v -2.730769 1.730769 0.576923
v -2.731538 1.730769 -0.576923
v -2.731538 1.730769 0.576923
v -2.731538 0.576923 -0.576923
v -2.731538 0.576923 0.576923
v -2.730769 0.576923 -0.576923
v -2.730769 0.576923 0.576923
v -2.731538 1.730769 -0.576923
v -2.731538 1.730769 0.576923
v -2.731538 0.576923 -0.576923
v -2.731538 0.576923 0.576923
v -2.730769 1.730769 0.576923
v -2.730769 1.730769 -0.576923
v -2.730769 0.576923 0.576923
v -2.730769 0.576923 -0.576923
vn -0.0000 -0.0000 1.0000
vn -0.0000 -0.0000 -1.0000
vn -0.0000 1.0000 -0.0000
vn -0.0000 -1.0000 -0.0000
vn -1.0000 -0.0000 -0.0000
vn 1.0000 -0.0000 -0.0000
vt 0.906250 0.093750
vt 0.906250 0.000000
vt 1.000000 0.093750
vt 1.000000 0.000000
s 0
usemtl Material_0
f 25/5/7 27/6/7 26/7/7
f 27/6/7 28/8/7 26/7/7
f 29/5/8 31/6/8 30/7/8
f 31/6/8 32/8/8 30/7/8
f 33/5/9 35/6/9 34/7/9
f 35/6/9 36/8/9 34/7/9
f 37/5/10 39/6/10 38/7/10
f 39/6/10 40/8/10 38/7/10
f 41/5/11 43/6/11 42/7/11
f 43/6/11 44/8/11 42/7/11
f 45/5/12 47/6/12 46/7/12
f 47/6/12 48/8/12 46/7/12
o attachmentModel
v 0.000000 0.289231 0.769231
v 1.153846 0.289231 0.769231
v 0.000000 0.288462 0.769231
v 1.153846 0.288462 0.769231
v 1.153846 0.289231 -0.769231
v -0.000000 0.289231 -0.769231
v 1.153846 0.288462 -0.769231
v -0.000000 0.288462 -0.769231
v 1.153846 0.289231 -0.769231
v 1.153846 0.289231 0.769231
v -0.000000 0.289231 -0.769231
v 0.000000 0.289231 0.769231
v -0.000000 0.288462 -0.769231
v 0.000000 0.288462 0.769231
v 1.153846 0.288462 -0.769231
v 1.153846 0.288462 0.769231
v -0.000000 0.289231 -0.769231
v 0.000000 0.289231 0.769231
v -0.000000 0.288462 -0.769231
v 0.000000 0.288462 0.769231
v 1.153846 0.289231 0.769231
v 1.153846 0.289231 -0.769231
v 1.153846 0.288462 0.769231
v 1.153846 0.288462 -0.769231
v 1.346154 0.576923 0.776923
v 2.115384 0.576923 0.776923
v 1.346154 -0.192308 0.776923
v 2.115384 -0.192308 0.776923
v 2.115384 0.576923 -0.776923
v 1.346154 0.576923 -0.776923
v 2.115384 -0.192308 -0.776923
v 1.346154 -0.192308 -0.776923
v 2.115384 0.576923 -0.776923
v 2.115384 0.576923 0.776923
v 1.346154 0.576923 -0.776923
v 1.346154 0.576923 0.776923
v 1.346154 -0.192308 -0.776923
v 1.346154 -0.192308 0.776923
v 2.115384 -0.192308 -0.776923
v 2.115384 -0.192308 0.776923
v 1.346154 0.576923 -0.776923
v 1.346154 0.576923 0.776923
v 1.346154 -0.192308 -0.776923
v 1.346154 -0.192308 0.776923
v 2.115384 0.576923 0.776923
v 2.115384 0.576923 -0.776923
v 2.115384 -0.192308 0.776923
v 2.115384 -0.192308 -0.776923
v -2.500000 1.923077 0.769231
v 1.346154 1.923077 0.769231
v -2.500000 0.384615 0.769231
v 1.346154 0.384615 0.769231
v 1.346154 1.923077 -0.769231
v -2.500000 1.923077 -0.769231
v 1.346154 0.384615 -0.769231
v -2.500000 0.384615 -0.769231
v 1.346154 1.923077 -0.769231
v 1.346154 1.923077 0.769231
v -2.500000 1.923077 -0.769231
v -2.500000 1.923077 0.769231
v -2.500000 0.384615 -0.769231
v -2.500000 0.384615 0.769231
v 1.346154 0.384615 -0.769231
v 1.346154 0.384615 0.769231
v -2.500000 1.923077 -0.769231
v -2.500000 1.923077 0.769231
v -2.500000 0.384615 -0.769231
v -2.500000 0.384615 0.769231
v 1.346154 1.923077 0.769231
v 1.346154 1.923077 -0.769231
v 1.346154 0.384615 0.769231
v 1.346154 0.384615 -0.769231
v -2.307692 2.115385 0.576923
v -1.923077 2.115385 0.576923
v -2.307692 1.923077 0.576923
v -1.923077 1.923077 0.576923
v -1.923077 2.115385 -0.576923
v -2.307692 2.115385 -0.576923
v -1.923077 1.923077 -0.576923
v -2.307692 1.923077 -0.576923
v -1.923077 2.115385 -0.576923
v -1.923077 2.115385 0.576923
v -2.307692 2.115385 -0.576923
v -2.307692 2.115385 0.576923
v -2.307692 1.923077 -0.576923
v -2.307692 1.923077 0.576923
v -1.923077 1.923077 -0.576923
v -1.923077 1.923077 0.576923
v -2.307692 2.115385 -0.576923
v -2.307692 2.115385 0.576923
v -2.307692 1.923077 -0.576923
v -2.307692 1.923077 0.576923
v -1.923077 2.115385 0.576923
v -1.923077 2.115385 -0.576923
v -1.923077 1.923077 0.576923
v -1.923077 1.923077 -0.576923
v 0.961538 2.115385 0.576923
v 1.346154 2.115385 0.576923
v 0.961538 1.923077 0.576923
v 1.346154 1.923077 0.576923
v 1.346154 2.115385 -0.576923
v 0.961538 2.115385 -0.576923
v 1.346154 1.923077 -0.576923
v 0.961538 1.923077 -0.576923
v 1.346154 2.115385 -0.576923
v 1.346154 2.115385 0.576923
v 0.961538 2.115385 -0.576923
v 0.961538 2.115385 0.576923
v 0.961538 1.923077 -0.576923
v 0.961538 1.923077 0.576923
v 1.346154 1.923077 -0.576923
v 1.346154 1.923077 0.576923
v 0.961538 2.115385 -0.576923
v 0.961538 2.115385 0.576923
v 0.961538 1.923077 -0.576923
v 0.961538 1.923077 0.576923
v 1.346154 2.115385 0.576923
v 1.346154 2.115385 -0.576923
v 1.346154 1.923077 0.576923
v 1.346154 1.923077 -0.576923
v -2.116153 2.500000 0.192308
v -2.115384 2.500000 0.192308
v -2.116153 2.423077 0.192308
v -2.115384 2.423077 0.192308
v -2.115384 2.500000 -0.192308
v -2.116153 2.500000 -0.192308
v -2.115384 2.423077 -0.192308
v -2.116153 2.423077 -0.192308
v -2.115384 2.500000 -0.192308
v -2.115384 2.500000 0.192308
v -2.116153 2.500000 -0.192308
v -2.116153 2.500000 0.192308
v -2.116153 2.423077 -0.192308
v -2.116153 2.423077 0.192308
v -2.115384 2.423077 -0.192308
v -2.115384 2.423077 0.192308
v -2.116153 2.500000 -0.192308
v -2.116153 2.500000 0.192308
v -2.116153 2.423077 -0.192308
v -2.116153 2.423077 0.192308
v -2.115384 2.500000 0.192308
v -2.115384 2.500000 -0.192308
v -2.115384 2.423077 0.192308
v -2.115384 2.423077 -0.192308
v -2.116153 2.423077 -0.115385
v -2.115384 2.423077 -0.115385
v -2.116153 2.192308 -0.115385
v -2.115384 2.192308 -0.115385
v -2.115384 2.423077 -0.192308
v -2.116153 2.423077 -0.192308
v -2.115384 2.192308 -0.192308
v -2.116153 2.192308 -0.192308
v -2.115384 2.423077 -0.192308
v -2.115384 2.423077 -0.115385
v -2.116153 2.423077 -0.192308
v -2.116153 2.423077 -0.115385
v -2.116153 2.192308 -0.192308
v -2.116153 2.192308 -0.115385
v -2.115384 2.192308 -0.192308
v -2.115384 2.192308 -0.115385
v -2.116153 2.423077 -0.192308
v -2.116153 2.423077 -0.115385
v -2.116153 2.192308 -0.192308
v -2.116153 2.192308 -0.115385
v -2.115384 2.423077 -0.115385
v -2.115384 2.423077 -0.192308
v -2.115384 2.192308 -0.115385
v -2.115384 2.192308 -0.192308
v -2.116153 2.423077 0.192308
v -2.115384 2.423077 0.192308
v -2.116153 2.192308 0.192308
v -2.115384 2.192308 0.192308
v -2.115384 2.423077 0.115385
v -2.116153 2.423077 0.115385
v -2.115384 2.192308 0.115385
v -2.116153 2.192308 0.115385
v -2.115384 2.423077 0.115385
v -2.115384 2.423077 0.192308
v -2.116153 2.423077 0.115385
v -2.116153 2.423077 0.192308
v -2.116153 2.192308 0.115385
v -2.116153 2.192308 0.192308
v -2.115384 2.192308 0.115385
v -2.115384 2.192308 0.192308
v -2.116153 2.423077 0.115385
v -2.116153 2.423077 0.192308
v -2.116153 2.192308 0.115385
v -2.116153 2.192308 0.192308
v -2.115384 2.423077 0.192308
v -2.115384 2.423077 0.115385
v -2.115384 2.192308 0.192308
v -2.115384 2.192308 0.115385
v -2.116153 2.192308 0.192308
v -2.115384 2.192308 0.192308
v -2.116153 2.115385 0.192308
v -2.115384 2.115385 0.192308
v -2.115384 2.192308 -0.192308
v -2.116153 2.192308 -0.192308
v -2.115384 2.115385 -0.192308
v -2.116153 2.115385 -0.192308
v -2.115384 2.192308 -0.192308
v -2.115384 2.192308 0.192308
v -2.116153 2.192308 -0.192308
v -2.116153 2.192308 0.192308
v -2.116153 2.115385 -0.192308
v -2.116153 2.115385 0.192308
v -2.115384 2.115385 -0.192308
v -2.115384 2.115385 0.192308
v -2.116153 2.192308 -0.192308
v -2.116153 2.192308 0.192308
v -2.116153 2.115385 -0.192308
v -2.116153 2.115385 0.192308
v -2.115384 2.192308 0.192308
v -2.115384 2.192308 -0.192308
v -2.115384 2.115385 0.192308
v -2.115384 2.115385 -0.192308
v 0.961538 2.500000 0.000769
v 1.346154 2.500000 0.000769
v 0.961538 2.115385 0.000769
v 1.346154 2.115385 0.000769
v 1.346154 2.500000 -0.000000
v 0.961538 2.500000 -0.000000
v 1.346154 2.115385 -0.000000
v 0.961538 2.115385 -0.000000
v 1.346154 2.500000 -0.000000
v 1.346154 2.500000 0.000769
v 0.961538 2.500000 -0.000000
v 0.961538 2.500000 0.000769
v 0.961538 2.115385 -0.000000
v 0.961538 2.115385 0.000769
v 1.346154 2.115385 -0.000000
v 1.346154 2.115385 0.000769
v 0.961538 2.500000 -0.000000
v 0.961538 2.500000 0.000769
v 0.961538 2.115385 -0.000000
v 0.961538 2.115385 0.000769
v 1.346154 2.500000 0.000769
v 1.346154 2.500000 -0.000000
v 1.346154 2.115385 0.000769
v 1.346154 2.115385 -0.000000
v -1.923077 1.538462 -0.769231
v -1.153846 1.538462 -0.769231
v -1.923077 0.769231 -0.769231
v -1.153846 0.769231 -0.769231
v -1.153846 1.538462 -1.153846
v -1.923077 1.538462 -1.153846
v -1.153846 0.769231 -1.153846
v -1.923077 0.769231 -1.153846
v -1.153846 1.538462 -1.153846
v -1.153846 1.538462 -0.769231
v -1.923077 1.538462 -1.153846
v -1.923077 1.538462 -0.769231
v -1.923077 0.769231 -1.153846
v -1.923077 0.769231 -0.769231
v -1.153846 0.769231 -1.153846
v -1.153846 0.769231 -0.769231
v -1.923077 1.538462 -1.153846
v -1.923077 1.538462 -0.769231
v -1.923077 0.769231 -1.153846
v -1.923077 0.769231 -0.769231
v -1.153846 1.538462 -0.769231
v -1.153846 1.538462 -1.153846
v -1.153846 0.769231 -0.769231
v -1.153846 0.769231 -1.153846
v -2.884615 1.923846 0.769231
v -2.500000 1.923846 0.769231
v -2.884615 1.923077 0.769231
v -2.500000 1.923077 0.769231
v -2.500000 1.923846 -0.769231
v -2.884615 1.923846 -0.769231
v -2.500000 1.923077 -0.769231
v -2.884615 1.923077 -0.769231
v -2.500000 1.923846 -0.769231
v -2.500000 1.923846 0.769231
v -2.884615 1.923846 -0.769231
v -2.884615 1.923846 0.769231
v -2.884615 1.923077 -0.769231
v -2.884615 1.923077 0.769231
v -2.500000 1.923077 -0.769231
v -2.500000 1.923077 0.769231
v -2.884615 1.923846 -0.769231
v -2.884615 1.923846 0.769231
v -2.884615 1.923077 -0.769231
v -2.884615 1.923077 0.769231
v -2.500000 1.923846 0.769231
v -2.500000 1.923846 -0.769231
v -2.500000 1.923077 0.769231
v -2.500000 1.923077 -0.769231
v -2.884615 1.731538 0.576923
v -2.692307 1.731538 0.576923
v -2.884615 1.730769 0.576923
v -2.692307 1.730769 0.576923
v -2.692307 1.731538 -0.576923
v -2.884615 1.731538 -0.576923
v -2.692307 1.730769 -0.576923
v -2.884615 1.730769 -0.576923
v -2.692307 1.731538 -0.576923
v -2.692307 1.731538 0.576923
v -2.884615 1.731538 -0.576923
v -2.884615 1.731538 0.576923
v -2.884615 1.730769 -0.576923
v -2.884615 1.730769 0.576923
v -2.692307 1.730769 -0.576923
v -2.692307 1.730769 0.576923
v -2.884615 1.731538 -0.576923
v -2.884615 1.731538 0.576923
v -2.884615 1.730769 -0.576923
v -2.884615 1.730769 0.576923
v -2.692307 1.731538 0.576923
v -2.692307 1.731538 -0.576923
v -2.692307 1.730769 0.576923
v -2.692307 1.730769 -0.576923
v -2.884615 0.577692 0.576923
v -2.692307 0.577692 0.576923
v -2.884615 0.576923 0.576923
v -2.692307 0.576923 0.576923
v -2.692307 0.577692 -0.576923
v -2.884615 0.577692 -0.576923
v -2.692307 0.576923 -0.576923
v -2.884615 0.576923 -0.576923
v -2.692307 0.577692 -0.576923
v -2.692307 0.577692 0.576923
v -2.884615 0.577692 -0.576923
v -2.884615 0.577692 0.576923
v -2.884615 0.576923 -0.576923
v -2.884615 0.576923 0.576923
v -2.692307 0.576923 -0.576923
v -2.692307 0.576923 0.576923
v -2.884615 0.577692 -0.576923
v -2.884615 0.577692 0.576923
v -2.884615 0.576923 -0.576923
v -2.884615 0.576923 0.576923
v -2.692307 0.577692 0.576923
v -2.692307 0.577692 -0.576923
v -2.692307 0.576923 0.576923
v -2.692307 0.576923 -0.576923
v -2.884615 0.385385 0.769231
v -2.500000 0.385385 0.769231
v -2.884615 0.384615 0.769231
v -2.500000 0.384615 0.769231
v -2.500000 0.385385 -0.769231
v -2.884615 0.385385 -0.769231
v -2.500000 0.384615 -0.769231
v -2.884615 0.384615 -0.769231
v -2.500000 0.385385 -0.769231
v -2.500000 0.385385 0.769231
v -2.884615 0.385385 -0.769231
v -2.884615 0.385385 0.769231
v -2.884615 0.384615 -0.769231
v -2.884615 0.384615 0.769231
v -2.500000 0.384615 -0.769231
v -2.500000 0.384615 0.769231
v -2.884615 0.385385 -0.769231
v -2.884615 0.385385 0.769231
v -2.884615 0.384615 -0.769231
v -2.884615 0.384615 0.769231
v -2.500000 0.385385 0.769231
v -2.500000 0.385385 -0.769231
v -2.500000 0.384615 0.769231
v -2.500000 0.384615 -0.769231
v -2.884615 1.923077 -0.768461
v -2.500000 1.923077 -0.768461
v -2.884615 0.384615 -0.768461
v -2.500000 0.384615 -0.768461
v -2.500000 1.923077 -0.769231
v -2.884615 1.923077 -0.769231
v -2.500000 0.384615 -0.769231
v -2.884615 0.384615 -0.769231
v -2.500000 1.923077 -0.769231
v -2.500000 1.923077 -0.768461
v -2.884615 1.923077 -0.769231
v -2.884615 1.923077 -0.768461
v -2.884615 0.384615 -0.769231
v -2.884615 0.384615 -0.768461
v -2.500000 0.384615 -0.769231
v -2.500000 0.384615 -0.768461
v -2.884615 1.923077 -0.769231
v -2.884615 1.923077 -0.768461
v -2.884615 0.384615 -0.769231
v -2.884615 0.384615 -0.768461
v -2.500000 1.923077 -0.768461
v -2.500000 1.923077 -0.769231
v -2.500000 0.384615 -0.768461
v -2.500000 0.384615 -0.769231
v -2.884615 1.923077 0.770000
v -2.500000 1.923077 0.770000
v -2.884615 0.384615 0.770000
v -2.500000 0.384615 0.770000
v -2.500000 1.923077 0.769231
v -2.884615 1.923077 0.769231
v -2.500000 0.384615 0.769231
v -2.884615 0.384615 0.769231
v -2.500000 1.923077 0.769231
v -2.500000 1.923077 0.770000
v -2.884615 1.923077 0.769231
v -2.884615 1.923077 0.770000
v -2.884615 0.384615 0.769231
v -2.884615 0.384615 0.770000
v -2.500000 0.384615 0.769231
v -2.500000 0.384615 0.770000
v -2.884615 1.923077 0.769231
v -2.884615 1.923077 0.770000
v -2.884615 0.384615 0.769231
v -2.884615 0.384615 0.770000
v -2.500000 1.923077 0.770000
v -2.500000 1.923077 0.769231
v -2.500000 0.384615 0.770000
v -2.500000 0.384615 0.769231
v -2.884615 1.730769 0.577692
v -2.692307 1.730769 0.577692
v -2.884615 0.576923 0.577692
v -2.692307 0.576923 0.577692
v -2.692307 1.730769 0.576923
v -2.884615 1.730769 0.576923
v -2.692307 0.576923 0.576923
v -2.884615 0.576923 0.576923
v -2.692307 1.730769 0.576923
v -2.692307 1.730769 0.577692
v -2.884615 1.730769 0.576923
v -2.884615 1.730769 0.577692
v -2.884615 0.576923 0.576923
v -2.884615 0.576923 0.577692
v -2.692307 0.576923 0.576923
v -2.692307 0.576923 0.577692
v -2.884615 1.730769 0.576923
v -2.884615 1.730769 0.577692
v -2.884615 0.576923 0.576923
v -2.884615 0.576923 0.577692
v -2.692307 1.730769 0.577692
v -2.692307 1.730769 0.576923
v -2.692307 0.576923 0.577692
v -2.692307 0.576923 0.576923
v -2.885384 1.923077 0.769231
v -2.884615 1.923077 0.769231
v -2.885384 0.384615 0.769231
v -2.884615 0.384615 0.769231
v -2.884615 1.923077 0.576923
v -2.885384 1.923077 0.576923
v -2.884615 0.384615 0.576923
v -2.885384 0.384615 0.576923
v -2.884615 1.923077 0.576923
v -2.884615 1.923077 0.769231
v -2.885384 1.923077 0.576923
v -2.885384 1.923077 0.769231
v -2.885384 0.384615 0.576923
v -2.885384 0.384615 0.769231
v -2.884615 0.384615 0.576923
v -2.884615 0.384615 0.769231
v -2.885384 1.923077 0.576923
v -2.885384 1.923077 0.769231
v -2.885384 0.384615 0.576923
v -2.885384 0.384615 0.769231
v -2.884615 1.923077 0.769231
v -2.884615 1.923077 0.576923
v -2.884615 0.384615 0.769231
v -2.884615 0.384615 0.576923
v -2.885384 1.923077 -0.576923
v -2.884615 1.923077 -0.576923
v -2.885384 0.384615 -0.576923
v -2.884615 0.384615 -0.576923
v -2.884615 1.923077 -0.769231
v -2.885384 1.923077 -0.769231
v -2.884615 0.384615 -0.769231
v -2.885384 0.384615 -0.769231
v -2.884615 1.923077 -0.769231
v -2.884615 1.923077 -0.576923
v -2.885384 1.923077 -0.769231
v -2.885384 1.923077 -0.576923
v -2.885384 0.384615 -0.769231
v -2.885384 0.384615 -0.576923
v -2.884615 0.384615 -0.769231
v -2.884615 0.384615 -0.576923
v -2.885384 1.923077 -0.769231
v -2.885384 1.923077 -0.576923
v -2.885384 0.384615 -0.769231
v -2.885384 0.384615 -0.576923
v -2.884615 1.923077 -0.576923
v -2.884615 1.923077 -0.769231
v -2.884615 0.384615 -0.576923
v -2.884615 0.384615 -0.769231
v -2.885384 1.923077 0.576923
v -2.884615 1.923077 0.576923
v -2.885384 1.730769 0.576923
v -2.884615 1.730769 0.576923
v -2.884615 1.923077 -0.576923
v -2.885384 1.923077 -0.576923
v -2.884615 1.730769 -0.576923
v -2.885384 1.730769 -0.576923
v -2.884615 1.923077 -0.576923
v -2.884615 1.923077 0.576923
v -2.885384 1.923077 -0.576923
v -2.885384 1.923077 0.576923
v -2.885384 1.730769 -0.576923
v -2.885384 1.730769 0.576923
v -2.884615 1.730769 -0.576923
v -2.884615 1.730769 0.576923
v -2.885384 1.923077 -0.576923
v -2.885384 1.923077 0.576923
v -2.885384 1.730769 -0.576923
v -2.885384 1.730769 0.576923
v -2.884615 1.923077 0.576923
v -2.884615 1.923077 -0.576923
v -2.884615 1.730769 0.576923
v -2.884615 1.730769 -0.576923
v -2.885384 0.576923 0.576923
v -2.884615 0.576923 0.576923
v -2.885384 0.384615 0.576923
v -2.884615 0.384615 0.576923
v -2.884615 0.576923 -0.576923
v -2.885384 0.576923 -0.576923
v -2.884615 0.384615 -0.576923
v -2.885384 0.384615 -0.576923
v -2.884615 0.576923 -0.576923
v -2.884615 0.576923 0.576923
v -2.885384 0.576923 -0.576923
v -2.885384 0.576923 0.576923
v -2.885384 0.384615 -0.576923
v -2.885384 0.384615 0.576923
v -2.884615 0.384615 -0.576923
v -2.884615 0.384615 0.576923
v -2.885384 0.576923 -0.576923
v -2.885384 0.576923 0.576923
v -2.885384 0.384615 -0.576923
v -2.885384 0.384615 0.576923
v -2.884615 0.576923 0.576923
v -2.884615 0.576923 -0.576923
v -2.884615 0.384615 0.576923
v -2.884615 0.384615 -0.576923
v -2.884615 1.730769 -0.576154
v -2.692307 1.730769 -0.576154
v -2.884615 0.576923 -0.576154
v -2.692307 0.576923 -0.576154
v -2.692307 1.730769 -0.576923
v -2.884615 1.730769 -0.576923
v -2.692307 0.576923 -0.576923
v -2.884615 0.576923 -0.576923
v -2.692307 1.730769 -0.576923
v -2.692307 1.730769 -0.576154
v -2.884615 1.730769 -0.576923
v -2.884615 1.730769 -0.576154
v -2.884615 0.576923 -0.576923
v -2.884615 0.576923 -0.576154
v -2.692307 0.576923 -0.576923
v -2.692307 0.576923 -0.576154
v -2.884615 1.730769 -0.576923
v -2.884615 1.730769 -0.576154
v -2.884615 0.576923 -0.576923
v -2.884615 0.576923 -0.576154
v -2.692307 1.730769 -0.576154
v -2.692307 1.730769 -0.576923
v -2.692307 0.576923 -0.576154
v -2.692307 0.576923 -0.576923
v -2.693077 1.730769 0.576923
v -2.692307 1.730769 0.576923
v -2.693077 0.576923 0.576923
v -2.692307 0.576923 0.576923
v -2.692307 1.730769 -0.576923
v -2.693077 1.730769 -0.576923
v -2.692307 0.576923 -0.576923
v -2.693077 0.576923 -0.576923
v -2.692307 1.730769 -0.576923
v -2.692307 1.730769 0.576923
v -2.693077 1.730769 -0.576923
v -2.693077 1.730769 0.576923
v -2.693077 0.576923 -0.576923
v -2.693077 0.576923 0.576923
v -2.692307 0.576923 -0.576923
v -2.692307 0.576923 0.576923
v -2.693077 1.730769 -0.576923
v -2.693077 1.730769 0.576923
v -2.693077 0.576923 -0.576923
v -2.693077 0.576923 0.576923
v -2.692307 1.730769 0.576923
v -2.692307 1.730769 -0.576923
v -2.692307 0.576923 0.576923
v -2.692307 0.576923 -0.576923
v 1.153846 1.730769 0.576923
v 1.923077 1.730769 0.576923
v 1.153846 0.576923 0.576923
v 1.923077 0.576923 0.576923
v 1.923077 1.730769 -0.576923
v 1.153846 1.730769 -0.576923
v 1.923077 0.576923 -0.576923
v 1.153846 0.576923 -0.576923
v 1.923077 1.730769 -0.576923
v 1.923077 1.730769 0.576923
v 1.153846 1.730769 -0.576923
v 1.153846 1.730769 0.576923
v 1.153846 0.576923 -0.576923
v 1.153846 0.576923 0.576923
v 1.923077 0.576923 -0.576923
v 1.923077 0.576923 0.576923
v 1.153846 1.730769 -0.576923
v 1.153846 1.730769 0.576923
v 1.153846 0.576923 -0.576923
v 1.153846 0.576923 0.576923
v 1.923077 1.730769 0.576923
v 1.923077 1.730769 -0.576923
v 1.923077 0.576923 0.576923
v 1.923077 0.576923 -0.576923
v 1.346154 1.923077 0.770000
v 1.730769 1.923077 0.770000
v 1.346154 0.384615 0.770000
v 1.730769 0.384615 0.770000
v 1.730769 1.923077 0.769231
v 1.346154 1.923077 0.769231
v 1.730769 0.384615 0.769231
v 1.346154 0.384615 0.769231
v 1.730769 1.923077 0.769231
v 1.730769 1.923077 0.770000
v 1.346154 1.923077 0.769231
v 1.346154 1.923077 0.770000
v 1.346154 0.384615 0.769231
v 1.346154 0.384615 0.770000
v 1.730769 0.384615 0.769231
v 1.730769 0.384615 0.770000
v 1.346154 1.923077 0.769231
v 1.346154 1.923077 0.770000
v 1.346154 0.384615 0.769231
v 1.346154 0.384615 0.770000
v 1.730769 1.923077 0.770000
v 1.730769 1.923077 0.769231
v 1.730769 0.384615 0.770000
v 1.730769 0.384615 0.769231
v 1.346154 1.923077 -0.768462
v 1.730769 1.923077 -0.768462
v 1.346154 0.384615 -0.768462
v 1.730769 0.384615 -0.768462
v 1.730769 1.923077 -0.769231
v 1.346154 1.923077 -0.769231
v 1.730769 0.384615 -0.769231
v 1.346154 0.384615 -0.769231
v 1.730769 1.923077 -0.769231
v 1.730769 1.923077 -0.768462
v 1.346154 1.923077 -0.769231
v 1.346154 1.923077 -0.768462
v 1.346154 0.384615 -0.769231
v 1.346154 0.384615 -0.768462
v 1.730769 0.384615 -0.769231
v 1.730769 0.384615 -0.768462
v 1.346154 1.923077 -0.769231
v 1.346154 1.923077 -0.768462
v 1.346154 0.384615 -0.769231
v 1.346154 0.384615 -0.768462
v 1.730769 1.923077 -0.768462
v 1.730769 1.923077 -0.769231
v 1.730769 0.384615 -0.768462
v 1.730769 0.384615 -0.769231
v 1.346154 1.923846 0.769231
v 1.730769 1.923846 0.769231
v 1.346154 1.923077 0.769231
v 1.730769 1.923077 0.769231
v 1.730769 1.923846 -0.769231
v 1.346154 1.923846 -0.769231
v 1.730769 1.923077 -0.769231
v 1.346154 1.923077 -0.769231
v 1.730769 1.923846 -0.769231
v 1.730769 1.923846 0.769231
v 1.346154 1.923846 -0.769231
v 1.346154 1.923846 0.769231
v 1.346154 1.923077 -0.769231
v 1.346154 1.923077 0.769231
v 1.730769 1.923077 -0.769231
v 1.730769 1.923077 0.769231
v 1.346154 1.923846 -0.769231
v 1.346154 1.923846 0.769231
v 1.346154 1.923077 -0.769231
v 1.346154 1.923077 0.769231
v 1.730769 1.923846 0.769231
v 1.730769 1.923846 -0.769231
v 1.730769 1.923077 0.769231
v 1.730769 1.923077 -0.769231
v -1.346154 0.192308 0.584615
v 1.346154 0.192308 0.584615
v -1.346154 -0.192308 0.584615
v 1.346154 -0.192308 0.584615
v 1.346154 0.192308 -0.584615
v -1.346154 0.192308 -0.584615
v 1.346154 -0.192308 -0.584615
v -1.346154 -0.192308 -0.584615
v 1.346154 0.192308 -0.584615
v 1.346154 0.192308 0.584615
v -1.346154 0.192308 -0.584615
v -1.346154 0.192308 0.584615
v -1.346154 -0.192308 -0.584615
v -1.346154 -0.192308 0.584615
v 1.346154 -0.192308 -0.584615
v 1.346154 -0.192308 0.584615
v -1.346154 0.192308 -0.584615
v -1.346154 0.192308 0.584615
v -1.346154 -0.192308 -0.584615
v -1.346154 -0.192308 0.584615
v 1.346154 0.192308 0.584615
v 1.346154 0.192308 -0.584615
v 1.346154 -0.192308 0.584615
v 1.346154 -0.192308 -0.584615
v -1.538461 0.384615 0.769231
v 0.000000 0.384615 0.769231
v -1.538461 0.192308 0.769231
v 0.000000 0.192308 0.769231
v -0.000000 0.384615 -0.769231
v -1.538461 0.384615 -0.769231
v -0.000000 0.192308 -0.769231
v -1.538461 0.192308 -0.769231
v -0.000000 0.384615 -0.769231
v 0.000000 0.384615 0.769231
v -1.538461 0.384615 -0.769231
v -1.538461 0.384615 0.769231
v -1.538461 0.192308 -0.769231
v -1.538461 0.192308 0.769231
v -0.000000 0.192308 -0.769231
v 0.000000 0.192308 0.769231
v -1.538461 0.384615 -0.769231
v -1.538461 0.384615 0.769231
v -1.538461 0.192308 -0.769231
v -1.538461 0.192308 0.769231
v 0.000000 0.384615 0.769231
v -0.000000 0.384615 -0.769231
v 0.000000 0.192308 0.769231
v -0.000000 0.192308 -0.769231
vn -0.0000 -0.0000 1.0000
vn -0.0000 -0.0000 -1.0000
vn -0.0000 1.0000 -0.0000
vn -0.0000 -1.0000 -0.0000
vn -1.0000 -0.0000 -0.0000
vn 1.0000 -0.0000 -0.0000
vt 0.000000 1.000000
vt 0.093750 1.000000
vt 0.250000 0.406250
vt 0.250000 0.500000
vt 0.375000 0.406250
vt 0.375000 0.500000
vt 0.500000 0.750000
vt 0.500000 0.656250
vt 0.625000 0.750000
vt 0.625000 0.656250
vt 0.125000 1.000000
vt 0.687500 0.937500
vt 0.687500 0.875000
vt 0.750000 0.937500
vt 0.750000 0.875000
vt 0.687500 0.812500
vt 0.750000 0.812500
vt 0.500000 0.312500
vt 0.500000 0.375000
vt 0.375000 0.312500
vt 0.375000 0.375000
vt 0.750000 0.625000
vt 0.750000 0.562500
vt 0.625000 0.625000
vt 0.625000 0.562500
vt 0.625000 0.687500
vt 0.750000 0.687500
vt 0.750000 0.750000
vt 0.000000 0.875000
vt 0.312500 1.000000
vt 0.312500 0.875000
vt 0.000000 0.750000
vt 0.312500 0.750000
vt 0.125000 0.437500
vt 0.125000 0.750000
vt 0.000000 0.437500
vt 0.250000 0.750000
vt 0.250000 0.437500
vt 0.375000 0.625000
vt 0.500000 0.625000
vt 0.500000 0.500000
vt 0.375000 0.750000
vt 0.125000 0.062500
vt 0.125000 0.031250
vt 0.156250 0.062500
vt 0.156250 0.031250
vt 0.187500 0.062500
vt 0.187500 0.031250
vt 0.218750 0.062500
vt 0.218750 0.031250
vt 0.468750 0.093750
vt 0.468750 0.125000
vt 0.375000 0.093750
vt 0.375000 0.125000
vt 0.968750 0.562500
vt 0.968750 0.531250
vt 0.875000 0.562500
vt 0.875000 0.531250
vt 0.875000 0.687500
vt 0.875000 0.656250
vt 0.968750 0.687500
vt 0.968750 0.656250
vt 0.875000 0.750000
vt 0.875000 0.718750
vt 0.968750 0.750000
vt 0.968750 0.718750
vt 0.937500 0.812500
vt 0.937500 0.781250
vt 0.968750 0.812500
vt 0.968750 0.781250
vt 0.250000 0.062500
vt 0.250000 0.031250
vt 0.281250 0.062500
vt 0.281250 0.031250
vt 0.968750 0.406250
vt 0.968750 0.437500
vt 0.875000 0.406250
vt 0.875000 0.437500
vt 0.968750 0.375000
vt 0.968750 0.343750
vt 0.875000 0.375000
vt 0.875000 0.343750
vt 0.875000 0.500000
vt 0.875000 0.468750
vt 0.968750 0.500000
vt 0.968750 0.468750
vt 0.500000 0.125000
vt 0.500000 0.093750
vt 0.593750 0.125000
vt 0.593750 0.093750
vt 0.000000 0.968750
vt 0.031250 1.000000
vt 0.875000 0.125000
vt 0.875000 0.093750
vt 0.906250 0.125000
vt 0.906250 0.093750
vt 0.812500 0.125000
vt 0.812500 0.093750
vt 0.843750 0.125000
vt 0.843750 0.093750
vt 0.437500 0.062500
vt 0.437500 0.031250
vt 0.468750 0.062500
vt 0.468750 0.031250
vt 0.937500 0.625000
vt 0.937500 0.593750
vt 0.968750 0.625000
vt 0.968750 0.593750
vt 0.562500 0.062500
vt 0.562500 0.031250
vt 0.593750 0.062500
vt 0.593750 0.031250
vt 0.500000 0.062500
vt 0.500000 0.031250
vt 0.531250 0.062500
vt 0.531250 0.031250
vt 0.375000 0.062500
vt 0.375000 0.031250
vt 0.406250 0.062500
vt 0.406250 0.031250
vt 0.312500 0.062500
vt 0.312500 0.031250
vt 0.343750 0.062500
vt 0.343750 0.031250
vt 0.000000 0.062500
vt 0.000000 0.031250
vt 0.031250 0.062500
vt 0.031250 0.031250
vt 0.062500 0.062500
vt 0.062500 0.031250
vt 0.093750 0.062500
vt 0.093750 0.031250
vt 0.812500 0.625000
vt 0.812500 0.562500
vt 0.812500 1.000000
vt 0.812500 0.937500
vt 0.875000 1.000000
vt 0.875000 0.937500
vt 0.906250 0.250000
vt 0.906250 0.312500
vt 0.875000 0.250000
vt 0.875000 0.312500
vt 0.781250 0.125000
vt 0.781250 0.062500
vt 0.750000 0.125000
vt 0.750000 0.062500
vt 0.687500 0.125000
vt 0.687500 0.062500
vt 0.718750 0.125000
vt 0.718750 0.062500
vt 0.687500 0.187500
vt 0.718750 0.187500
vt 0.875000 0.843750
vt 0.875000 0.875000
vt 0.750000 0.843750
vt 0.375000 0.250000
vt 0.375000 0.218750
vt 0.250000 0.250000
vt 0.250000 0.218750
vt 0.906250 0.593750
vt 0.906250 0.625000
vt 0.812500 0.593750
vt 0.906250 0.218750
vt 0.812500 0.250000
vt 0.812500 0.218750
vt 0.906250 0.156250
vt 0.906250 0.187500
vt 0.812500 0.156250
vt 0.812500 0.187500
vt 0.968750 1.000000
vt 0.968750 0.968750
vt 0.875000 0.968750
vt 0.750000 0.718750
vt 0.750000 0.656250
vt 0.125000 0.250000
vt 0.125000 0.125000
vt 0.156250 0.250000
vt 0.156250 0.125000
vt 0.406250 0.250000
vt 0.406250 0.125000
vt 0.437500 0.250000
vt 0.437500 0.125000
vt 0.468750 0.250000
vt 0.500000 0.250000
vt 0.531250 0.250000
vt 0.531250 0.125000
vt 0.312500 0.187500
vt 0.312500 0.093750
vt 0.343750 0.187500
vt 0.343750 0.093750
vt 0.812500 0.500000
vt 0.812500 0.406250
vt 0.843750 0.500000
vt 0.843750 0.406250
vt 0.000000 0.906250
vt 0.750000 0.375000
vt 0.750000 0.250000
vt 0.781250 0.375000
vt 0.781250 0.250000
vt 0.562500 0.250000
vt 0.562500 0.125000
vt 0.593750 0.250000
vt 0.000000 0.187500
vt 0.031250 0.187500
vt 0.875000 0.906250
vt 0.968750 0.937500
vt 0.968750 0.906250
vt 0.062500 0.125000
vt 0.062500 0.093750
vt 0.156250 0.093750
vt 0.187500 0.125000
vt 0.187500 0.093750
vt 0.281250 0.125000
vt 0.281250 0.093750
vt 0.968750 0.875000
vt 0.968750 0.843750
vt 0.625000 0.187500
vt 0.625000 0.093750
vt 0.656250 0.187500
vt 0.656250 0.093750
vt 0.812500 0.375000
vt 0.812500 0.281250
vt 0.843750 0.375000
vt 0.843750 0.281250
vt 0.500000 0.531250
vt 0.593750 0.625000
vt 0.593750 0.531250
vt 0.468750 0.500000
vt 0.468750 0.406250
vt 0.625000 0.500000
vt 0.625000 0.406250
vt 0.687500 0.500000
vt 0.687500 0.406250
vt 0.000000 0.312500
vt 0.000000 0.218750
vt 0.062500 0.312500
vt 0.062500 0.218750
vt 0.781250 0.937500
vt 0.781250 1.000000
vt 0.687500 1.000000
vt 0.156250 0.312500
vt 0.062500 0.250000
vt 0.000000 0.343750
vt 0.093750 0.437500
vt 0.093750 0.343750
vt 0.500000 0.406250
vt 0.593750 0.500000
vt 0.593750 0.406250
vt 0.187500 0.312500
vt 0.187500 0.187500
vt 0.218750 0.312500
vt 0.218750 0.187500
vt 0.625000 0.312500
vt 0.656250 0.312500
vt 0.687500 0.312500
vt 0.718750 0.312500
vt 0.093750 0.250000
vt 0.093750 0.125000
vt 0.812500 0.437500
vt 0.687500 0.437500
vt 0.750000 0.906250
vt 0.625000 0.531250
vt 0.843750 0.562500
vt 0.843750 0.531250
vt 0.500000 0.343750
vt 0.718750 0.375000
vt 0.718750 0.343750
vt 0.343750 0.531250
vt 0.343750 0.750000
vt 0.250000 0.531250
vt 0.406250 1.000000
vt 0.406250 0.781250
vt 0.312500 0.781250
vt 0.812500 0.812500
vt 0.812500 0.781250
vt 0.906250 0.812500
vt 0.906250 0.781250
vt 0.187500 0.156250
vt 0.281250 0.187500
vt 0.281250 0.156250
vt 0.375000 0.281250
vt 0.500000 0.281250
vt 0.687500 0.468750
vt 0.812500 0.468750
vt 0.562500 0.875000
vt 0.562500 1.000000
vt 0.437500 0.875000
vt 0.437500 1.000000
vt 0.562500 0.750000
vt 0.437500 0.750000
vt 0.625000 0.281250
vt 0.687500 0.781250
s 0
usemtl Material_0
f 49/9/13 51/9/13 50/10/13
f 51/9/13 52/10/13 50/10/13
f 53/9/14 55/9/14 54/10/14
f 55/9/14 56/10/14 54/10/14
f 57/11/15 59/12/15 58/13/15
f 59/12/15 60/14/15 58/13/15
f 61/15/16 63/16/16 62/17/16
f 63/16/16 64/18/16 62/17/16
f 65/9/17 67/9/17 66/19/17
f 67/9/17 68/19/17 66/19/17
f 69/9/18 71/9/18 70/19/18
f 71/9/18 72/19/18 70/19/18
f 73/20/13 75/21/13 74/22/13
f 75/21/13 76/23/13 74/22/13
f 77/21/14 79/24/14 78/23/14
f 79/24/14 80/25/14 78/23/14
f 81/26/15 83/27/15 82/28/15
f 83/27/15 84/29/15 82/28/15
f 85/30/16 87/31/16 86/32/16
f 87/31/16 88/33/16 86/32/16
f 89/34/17 91/32/17 90/35/17
f 91/32/17 92/30/17 90/35/17
f 93/17/18 95/34/18 94/36/18
f 95/34/18 96/35/18 94/36/18
f 97/9/13 99/37/13 98/38/13
f 99/37/13 100/39/13 98/38/13
f 101/37/14 103/40/14 102/39/14
f 103/40/14 104/41/14 102/39/14
f 105/42/15 107/43/15 106/44/15
f 107/43/15 108/40/15 106/44/15
f 109/45/16 111/46/16 110/43/16
f 111/46/16 112/42/16 110/43/16
f 113/47/17 115/14/17 114/48/17
f 115/14/17 116/49/17 114/48/17
f 117/50/18 119/47/18 118/15/18
f 119/47/18 120/48/18 118/15/18
f 121/51/13 123/52/13 122/53/13
f 123/52/13 124/54/13 122/53/13
f 125/55/14 127/56/14 126/57/14
f 127/56/14 128/58/14 126/57/14
f 129/59/15 131/60/15 130/61/15
f 131/60/15 132/62/15 130/61/15
f 133/63/16 135/64/16 134/65/16
f 135/64/16 136/66/16 134/65/16
f 137/67/17 139/68/17 138/69/17
f 139/68/17 140/70/17 138/69/17
f 141/71/18 143/72/18 142/73/18
f 143/72/18 144/74/18 142/73/18
f 145/75/13 147/76/13 146/77/13
f 147/76/13 148/78/13 146/77/13
f 149/79/14 151/80/14 150/81/14
f 151/80/14 152/82/14 150/81/14
f 153/83/15 155/84/15 154/85/15
f 155/84/15 156/86/15 154/85/15
f 157/87/16 159/88/16 158/89/16
f 159/88/16 160/90/16 158/89/16
f 161/91/17 163/92/17 162/93/17
f 163/92/17 164/94/17 162/93/17
f 165/95/18 167/96/18 166/97/18
f 167/96/18 168/98/18 166/97/18
f 169/9/13 171/99/13 170/9/13
f 171/99/13 172/99/13 170/9/13
f 173/9/14 175/99/14 174/9/14
f 175/99/14 176/99/14 174/9/14
f 177/100/15 179/100/15 178/9/15
f 179/100/15 180/9/15 178/9/15
f 181/100/16 183/100/16 182/9/16
f 183/100/16 184/9/16 182/9/16
f 185/101/17 187/102/17 186/103/17
f 187/102/17 188/104/17 186/103/17
f 189/105/18 191/106/18 190/107/18
f 191/106/18 192/108/18 190/107/18
f 193/9/13 195/99/13 194/9/13
f 195/99/13 196/99/13 194/9/13
f 197/9/14 199/99/14 198/9/14
f 199/99/14 200/99/14 198/9/14
f 201/100/15 203/100/15 202/9/15
f 203/100/15 204/9/15 202/9/15
f 205/100/16 207/100/16 206/9/16
f 207/100/16 208/9/16 206/9/16
f 209/109/17 211/110/17 210/111/17
f 211/110/17 212/112/17 210/111/17
f 213/113/18 215/114/18 214/115/18
f 215/114/18 216/116/18 214/115/18
f 217/9/13 219/99/13 218/9/13
f 219/99/13 220/99/13 218/9/13
f 221/9/14 223/99/14 222/9/14
f 223/99/14 224/99/14 222/9/14
f 225/100/15 227/100/15 226/9/15
f 227/100/15 228/9/15 226/9/15
f 229/100/16 231/100/16 230/9/16
f 231/100/16 232/9/16 230/9/16
f 233/117/17 235/118/17 234/119/17
f 235/118/17 236/120/17 234/119/17
f 237/121/18 239/122/18 238/123/18
f 239/122/18 240/124/18 238/123/18
f 241/9/13 243/99/13 242/9/13
f 243/99/13 244/99/13 242/9/13
f 245/9/14 247/99/14 246/9/14
f 247/99/14 248/99/14 246/9/14
f 249/100/15 251/100/15 250/9/15
f 251/100/15 252/9/15 250/9/15
f 253/100/16 255/100/16 254/9/16
f 255/100/16 256/9/16 254/9/16
f 257/125/17 259/126/17 258/127/17
f 259/126/17 260/128/17 258/127/17
f 261/129/18 263/130/18 262/131/18
f 263/130/18 264/132/18 262/131/18
f 265/133/13 267/134/13 266/135/13
f 267/134/13 268/136/13 266/135/13
f 269/137/14 271/138/14 270/139/14
f 271/138/14 272/140/14 270/139/14
f 273/99/15 275/9/15 274/99/15
f 275/9/15 276/9/15 274/99/15
f 277/9/16 279/99/16 278/9/16
f 279/99/16 280/99/16 278/9/16
f 281/9/17 283/99/17 282/9/17
f 283/99/17 284/99/17 282/9/17
f 285/9/18 287/99/18 286/9/18
f 287/99/18 288/99/18 286/9/18
f 289/30/13 291/31/13 290/141/13
f 291/31/13 292/142/13 290/141/13
f 293/143/14 295/144/14 294/145/14
f 295/144/14 296/146/14 294/145/14
f 297/147/15 299/148/15 298/149/15
f 299/148/15 300/150/15 298/149/15
f 301/151/16 303/152/16 302/153/16
f 303/152/16 304/154/16 302/153/16
f 305/155/17 307/156/17 306/157/17
f 307/156/17 308/158/17 306/157/17
f 309/159/18 311/155/18 310/160/18
f 311/155/18 312/157/18 310/160/18
f 313/9/13 315/9/13 314/100/13
f 315/9/13 316/100/13 314/100/13
f 317/9/14 319/9/14 318/100/14
f 319/9/14 320/100/14 318/100/14
f 321/161/15 323/162/15 322/163/15
f 323/162/15 324/23/15 322/163/15
f 325/164/16 327/165/16 326/166/16
f 327/165/16 328/167/16 326/166/16
f 329/9/17 331/9/17 330/19/17
f 331/9/17 332/19/17 330/19/17
f 333/9/18 335/9/18 334/19/18
f 335/9/18 336/19/18 334/19/18
f 337/9/13 339/9/13 338/100/13
f 339/9/13 340/100/13 338/100/13
f 341/9/14 343/9/14 342/100/14
f 343/9/14 344/100/14 342/100/14
f 345/168/15 347/169/15 346/170/15
f 347/169/15 348/141/15 346/170/15
f 349/147/16 351/171/16 350/172/16
f 351/171/16 352/173/16 350/172/16
f 353/9/17 355/9/17 354/10/17
f 355/9/17 356/10/17 354/10/17
f 357/9/18 359/9/18 358/10/18
f 359/9/18 360/10/18 358/10/18
f 361/9/13 363/9/13 362/100/13
f 363/9/13 364/100/13 362/100/13
f 365/9/14 367/9/14 366/100/14
f 367/9/14 368/100/14 366/100/14
f 369/174/15 371/175/15 370/176/15
f 371/175/15 372/177/15 370/176/15
f 373/178/16 375/179/16 374/145/16
f 375/179/16 376/180/16 374/145/16
f 377/9/17 379/9/17 378/10/17
f 379/9/17 380/10/17 378/10/17
f 381/9/18 383/9/18 382/10/18
f 383/9/18 384/10/18 382/10/18
f 385/9/13 387/9/13 386/100/13
f 387/9/13 388/100/13 386/100/13
f 389/9/14 391/9/14 390/100/14
f 391/9/14 392/100/14 390/100/14
f 393/72/15 395/71/15 394/181/15
f 395/71/15 396/36/15 394/181/15
f 397/67/16 399/68/16 398/35/16
f 399/68/16 400/182/16 398/35/16
f 401/9/17 403/9/17 402/19/17
f 403/9/17 404/19/17 402/19/17
f 405/9/18 407/9/18 406/19/18
f 407/9/18 408/19/18 406/19/18
f 409/183/13 411/184/13 410/185/13
f 411/184/13 412/186/13 410/185/13
f 413/164/14 415/62/14 414/187/14
f 415/62/14 416/188/14 414/187/14
f 417/99/15 419/9/15 418/99/15
f 419/9/15 420/9/15 418/99/15
f 421/9/16 423/99/16 422/9/16
f 423/99/16 424/99/16 422/9/16
f 425/9/17 427/37/17 426/9/17
f 427/37/17 428/37/17 426/9/17
f 429/9/18 431/37/18 430/9/18
f 431/37/18 432/37/18 430/9/18
f 433/189/13 435/190/13 434/191/13
f 435/190/13 436/60/13 434/191/13
f 437/192/14 439/95/14 438/193/14
f 439/95/14 440/194/14 438/193/14
f 441/99/15 443/9/15 442/99/15
f 443/9/15 444/9/15 442/99/15
f 445/9/16 447/99/16 446/9/16
f 447/99/16 448/99/16 446/9/16
f 449/9/17 451/37/17 450/9/17
f 451/37/17 452/37/17 450/9/17
f 453/9/18 455/37/18 454/9/18
f 455/37/18 456/37/18 454/9/18
f 457/195/13 459/196/13 458/197/13
f 459/196/13 460/198/13 458/197/13
f 461/199/14 463/200/14 462/201/14
f 463/200/14 464/202/14 462/201/14
f 465/99/15 467/9/15 466/99/15
f 467/9/15 468/9/15 466/99/15
f 469/9/16 471/99/16 470/9/16
f 471/99/16 472/99/16 470/9/16
f 473/9/17 475/203/17 474/9/17
f 475/203/17 476/203/17 474/9/17
f 477/9/18 479/203/18 478/9/18
f 479/203/18 480/203/18 478/9/18
f 481/9/13 483/37/13 482/9/13
f 483/37/13 484/37/13 482/9/13
f 485/9/14 487/37/14 486/9/14
f 487/37/14 488/37/14 486/9/14
f 489/100/15 491/100/15 490/9/15
f 491/100/15 492/9/15 490/9/15
f 493/100/16 495/100/16 494/9/16
f 495/100/16 496/9/16 494/9/16
f 497/204/17 499/205/17 498/206/17
f 499/205/17 500/207/17 498/206/17
f 501/208/18 503/209/18 502/210/18
f 503/209/18 504/97/18 502/210/18
f 505/9/13 507/37/13 506/9/13
f 507/37/13 508/37/13 506/9/13
f 509/9/14 511/37/14 510/9/14
f 511/37/14 512/37/14 510/9/14
f 513/100/15 515/100/15 514/9/15
f 515/100/15 516/9/15 514/9/15
f 517/100/16 519/100/16 518/9/16
f 519/100/16 520/9/16 518/9/16
f 521/211/17 523/133/17 522/212/17
f 523/133/17 524/135/17 522/212/17
f 525/205/18 527/153/18 526/207/18
f 527/153/18 528/151/18 526/207/18
f 529/9/13 531/99/13 530/9/13
f 531/99/13 532/99/13 530/9/13
f 533/9/14 535/99/14 534/9/14
f 535/99/14 536/99/14 534/9/14
f 537/10/15 539/10/15 538/9/15
f 539/10/15 540/9/15 538/9/15
f 541/10/16 543/10/16 542/9/16
f 543/10/16 544/9/16 542/9/16
f 545/146/17 547/213/17 546/214/17
f 547/213/17 548/215/17 546/214/17
f 549/216/18 551/217/18 550/186/18
f 551/217/18 552/218/18 550/186/18
f 553/9/13 555/99/13 554/9/13
f 555/99/13 556/99/13 554/9/13
f 557/9/14 559/99/14 558/9/14
f 559/99/14 560/99/14 558/9/14
f 561/10/15 563/10/15 562/9/15
f 563/10/15 564/9/15 562/9/15
f 565/10/16 567/10/16 566/9/16
f 567/10/16 568/9/16 566/9/16
f 569/219/17 571/220/17 570/221/17
f 571/220/17 572/222/17 570/221/17
f 573/162/18 575/161/18 574/223/18
f 575/161/18 576/224/18 574/223/18
f 577/225/13 579/226/13 578/227/13
f 579/226/13 580/228/13 578/227/13
f 581/229/14 583/230/14 582/231/14
f 583/230/14 584/232/14 582/231/14
f 585/99/15 587/9/15 586/99/15
f 587/9/15 588/9/15 586/99/15
f 589/9/16 591/99/16 590/9/16
f 591/99/16 592/99/16 590/9/16
f 593/9/17 595/203/17 594/9/17
f 595/203/17 596/203/17 594/9/17
f 597/9/18 599/203/18 598/9/18
f 599/203/18 600/203/18 598/9/18
f 601/9/13 603/203/13 602/9/13
f 603/203/13 604/203/13 602/9/13
f 605/9/14 607/203/14 606/9/14
f 607/203/14 608/203/14 606/9/14
f 609/10/15 611/10/15 610/9/15
f 611/10/15 612/9/15 610/9/15
f 613/10/16 615/10/16 614/9/16
f 615/10/16 616/9/16 614/9/16
f 617/48/17 619/233/17 618/234/17
f 619/233/17 620/235/17 618/234/17
f 621/14/18 623/13/18 622/236/18
f 623/13/18 624/237/18 622/236/18
f 625/238/13 627/239/13 626/240/13
f 627/239/13 628/241/13 626/240/13
f 629/242/14 631/243/14 630/244/14
f 631/243/14 632/245/14 630/244/14
f 633/246/15 635/247/15 634/20/15
f 635/247/15 636/248/15 634/20/15
f 637/249/16 639/185/16 638/244/16
f 639/185/16 640/250/16 638/244/16
f 641/44/17 643/251/17 642/252/17
f 643/251/17 644/253/17 642/252/17
f 645/49/18 647/254/18 646/255/18
f 647/254/18 648/256/18 646/255/18
f 649/257/13 651/258/13 650/259/13
f 651/258/13 652/260/13 650/259/13
f 653/261/14 655/225/14 654/262/14
f 655/225/14 656/227/14 654/262/14
f 657/99/15 659/9/15 658/99/15
f 659/9/15 660/9/15 658/99/15
f 661/9/16 663/99/16 662/9/16
f 663/99/16 664/99/16 662/9/16
f 665/9/17 667/37/17 666/9/17
f 667/37/17 668/37/17 666/9/17
f 669/9/18 671/37/18 670/9/18
f 671/37/18 672/37/18 670/9/18
f 673/263/13 675/159/13 674/264/13
f 675/159/13 676/160/13 674/264/13
f 677/250/14 679/216/14 678/265/14
f 679/216/14 680/266/14 678/265/14
f 681/99/15 683/9/15 682/99/15
f 683/9/15 684/9/15 682/99/15
f 685/9/16 687/99/16 686/9/16
f 687/99/16 688/99/16 686/9/16
f 689/9/17 691/37/17 690/9/17
f 691/37/17 692/37/17 690/9/17
f 693/9/18 695/37/18 694/9/18
f 695/37/18 696/37/18 694/9/18
f 697/9/13 699/9/13 698/100/13
f 699/9/13 700/100/13 698/100/13
f 701/9/14 703/9/14 702/100/14
f 703/9/14 704/100/14 702/100/14
f 705/200/15 707/267/15 706/241/15
f 707/267/15 708/268/15 706/241/15
f 709/146/16 711/213/16 710/22/16
f 711/213/16 712/269/16 710/22/16
f 713/9/17 715/9/17 714/19/17
f 715/9/17 716/19/17 714/19/17
f 717/9/18 719/9/18 718/19/18
f 719/9/18 720/19/18 718/19/18
f 721/33/13 723/270/13 722/271/13
f 723/270/13 724/272/13 722/271/13
f 725/27/14 727/273/14 726/274/14
f 727/273/14 728/275/14 726/274/14
f 729/276/15 731/277/15 730/278/15
f 731/277/15 732/45/15 730/278/15
f 733/279/16 735/280/16 734/38/16
f 735/280/16 736/281/16 734/38/16
f 737/282/17 739/283/17 738/284/17
f 739/283/17 740/285/17 738/284/17
f 741/258/18 743/286/18 742/287/18
f 743/286/18 744/288/18 742/287/18
f 745/28/13 747/289/13 746/26/13
f 747/289/13 748/290/13 746/26/13
f 749/240/14 751/291/14 750/199/14
f 751/291/14 752/292/14 750/199/14
f 753/293/15 755/294/15 754/295/15
f 755/294/15 756/296/15 754/295/15
f 757/293/16 759/297/16 758/295/16
f 759/297/16 760/298/16 758/295/16
f 761/26/17 763/290/17 762/261/17
f 763/290/17 764/299/17 762/261/17
f 765/24/18 767/300/18 766/282/18
f 767/300/18 768/283/18 766/282/18
