# Blender 4.4.0
# www.blender.org
mtllib lev.sv98m.mtl
o attachmentModel
v 0.000769 -1.576923 6.346154
v 0.000769 -1.576923 4.038462
v 0.000769 -2.730769 6.346154
v 0.000769 -2.730769 4.038462
v 0.000000 -1.576923 4.038462
v 0.000000 -1.576923 6.346154
v 0.000000 -2.730769 4.038462
v 0.000000 -2.730769 6.346154
v 0.000000 -1.576923 4.038462
v 0.000769 -1.576923 4.038462
v 0.000000 -1.576923 6.346154
v 0.000769 -1.576923 6.346154
v 0.000000 -2.730769 6.346154
v 0.000769 -2.730769 6.346154
v 0.000000 -2.730769 4.038462
v 0.000769 -2.730769 4.038462
v 0.000000 -1.576923 6.346154
v 0.000769 -1.576923 6.346154
v 0.000000 -2.730769 6.346154
v 0.000769 -2.730769 6.346154
v 0.000769 -1.576923 4.038462
v 0.000000 -1.576923 4.038462
v 0.000769 -2.730769 4.038462
v 0.000000 -2.730769 4.038462
v 0.576923 -0.615385 14.807693
v 0.576923 -0.615385 13.269231
v 0.576923 -3.692308 14.807693
v 0.576923 -3.692308 13.269231
v -0.576923 -0.615385 13.269231
v -0.576923 -0.615385 14.807693
v -0.576923 -3.692308 13.269231
v -0.576923 -3.692308 14.807693
v -0.576923 -0.615385 13.269231
v 0.576923 -0.615385 13.269231
v -0.576923 -0.615385 14.807693
v 0.576923 -0.615385 14.807693
v -0.576923 -3.692308 14.807693
v 0.576923 -3.692308 14.807693
v -0.576923 -3.692308 13.269231
v 0.576923 -3.692308 13.269231
v -0.576923 -0.615385 14.807693
v 0.576923 -0.615385 14.807693
v -0.576923 -3.692308 14.807693
v 0.576923 -3.692308 14.807693
v 0.576923 -0.615385 13.269231
v -0.576923 -0.615385 13.269231
v 0.576923 -3.692308 13.269231
v -0.576923 -3.692308 13.269231
v 0.576154 -0.627208 7.767506
v 0.576154 -0.038464 6.346153
v 0.576154 -1.337884 7.473134
v 0.576154 -0.749141 6.051781
v -0.576154 -0.038464 6.346153
v -0.576154 -0.627208 7.767506
v -0.576154 -0.749141 6.051781
v -0.576154 -1.337884 7.473134
v -0.576154 -0.038464 6.346153
v 0.576154 -0.038464 6.346153
v -0.576154 -0.627208 7.767506
v 0.576154 -0.627208 7.767506
v -0.576154 -1.337884 7.473134
v 0.576154 -1.337884 7.473134
v -0.576154 -0.749141 6.051781
v 0.576154 -0.749141 6.051781
v -0.576154 -0.627208 7.767506
v 0.576154 -0.627208 7.767506
v -0.576154 -1.337884 7.473134
v 0.576154 -1.337884 7.473134
v 0.576154 -0.038464 6.346153
v -0.576154 -0.038464 6.346153
v 0.576154 -0.749141 6.051781
v -0.576154 -0.749141 6.051781
v 0.673077 -0.423077 7.884615
v 0.673077 -0.423077 6.346154
v 0.673077 -1.576923 7.884615
v 0.673077 -1.576923 6.346154
v -0.673077 -0.423077 6.346154
v -0.673077 -0.423077 7.884615
v -0.673077 -1.576923 6.346154
v -0.673077 -1.576923 7.884615
v -0.673077 -0.423077 6.346154
v 0.673077 -0.423077 6.346154
v -0.673077 -0.423077 7.884615
v 0.673077 -0.423077 7.884615
v -0.673077 -1.576923 7.884615
v 0.673077 -1.576923 7.884615
v -0.673077 -1.576923 6.346154
v 0.673077 -1.576923 6.346154
v -0.673077 -0.423077 7.884615
v 0.673077 -0.423077 7.884615
v -0.673077 -1.576923 7.884615
v 0.673077 -1.576923 7.884615
v 0.673077 -0.423077 6.346154
v -0.673077 -0.423077 6.346154
v 0.673077 -1.576923 6.346154
v -0.673077 -1.576923 6.346154
v 0.576923 -0.230769 0.576923
v 0.576923 -0.230769 -5.192307
v 0.576923 -1.000000 0.576923
v 0.576923 -1.000000 -5.192307
v -0.576923 -0.230769 -5.192307
v -0.576923 -0.230769 0.576923
v -0.576923 -1.000000 -5.192307
v -0.576923 -1.000000 0.576923
v -0.576923 -0.230769 -5.192307
v 0.576923 -0.230769 -5.192307
v -0.576923 -0.230769 0.576923
v 0.576923 -0.230769 0.576923
v -0.576923 -1.000000 0.576923
v 0.576923 -1.000000 0.576923
v -0.576923 -1.000000 -5.192307
v 0.576923 -1.000000 -5.192307
v -0.576923 -0.230769 0.576923
v 0.576923 -0.230769 0.576923
v -0.576923 -1.000000 0.576923
v 0.576923 -1.000000 0.576923
v 0.576923 -0.230769 -5.192307
v -0.576923 -0.230769 -5.192307
v 0.576923 -1.000000 -5.192307
v -0.576923 -1.000000 -5.192307
v 0.384615 -1.576923 7.692307
v 0.384615 -1.576923 6.923077
v 0.384615 -2.346154 7.692307
v 0.384615 -2.346154 6.923077
v -0.384615 -1.576923 6.923077
v -0.384615 -1.576923 7.692307
v -0.384615 -2.346154 6.923077
v -0.384615 -2.346154 7.692307
v -0.384615 -1.576923 6.923077
v 0.384615 -1.576923 6.923077
v -0.384615 -1.576923 7.692307
v 0.384615 -1.576923 7.692307
v -0.384615 -2.346154 7.692307
v 0.384615 -2.346154 7.692307
v -0.384615 -2.346154 6.923077
v 0.384615 -2.346154 6.923077
v -0.384615 -1.576923 7.692307
v 0.384615 -1.576923 7.692307
v -0.384615 -2.346154 7.692307
v 0.384615 -2.346154 7.692307
v 0.384615 -1.576923 6.923077
v -0.384615 -1.576923 6.923077
v 0.384615 -2.346154 6.923077
v -0.384615 -2.346154 6.923077
v 0.673077 -0.038462 6.346154
v 0.673077 -0.038462 0.576923
v 0.673077 -1.576923 6.346154
v 0.673077 -1.576923 0.576923
v -0.673077 -0.038462 0.576923
v -0.673077 -0.038462 6.346154
v -0.673077 -1.576923 0.576923
v -0.673077 -1.576923 6.346154
v -0.673077 -0.038462 0.576923
v 0.673077 -0.038462 0.576923
v -0.673077 -0.038462 6.346154
v 0.673077 -0.038462 6.346154
v -0.673077 -1.576923 6.346154
v 0.673077 -1.576923 6.346154
v -0.673077 -1.576923 0.576923
v 0.673077 -1.576923 0.576923
v -0.673077 -0.038462 6.346154
v 0.673077 -0.038462 6.346154
v -0.673077 -1.576923 6.346154
v 0.673077 -1.576923 6.346154
v 0.673077 -0.038462 0.576923
v -0.673077 -0.038462 0.576923
v 0.673077 -1.576923 0.576923
v -0.673077 -1.576923 0.576923
v 0.673846 -0.807692 0.576923
v 0.673846 -0.807692 -5.192307
v 0.673846 -1.576923 0.576923
v 0.673846 -1.576923 -5.192307
v 0.673077 -0.807692 -5.192307
v 0.673077 -0.807692 0.576923
v 0.673077 -1.576923 -5.192307
v 0.673077 -1.576923 0.576923
v 0.673077 -0.807692 -5.192307
v 0.673846 -0.807692 -5.192307
v 0.673077 -0.807692 0.576923
v 0.673846 -0.807692 0.576923
v 0.673077 -1.576923 0.576923
v 0.673846 -1.576923 0.576923
v 0.673077 -1.576923 -5.192307
v 0.673846 -1.576923 -5.192307
v 0.673077 -0.807692 0.576923
v 0.673846 -0.807692 0.576923
v 0.673077 -1.576923 0.576923
v 0.673846 -1.576923 0.576923
v 0.673846 -0.807692 -5.192307
v 0.673077 -0.807692 -5.192307
v 0.673846 -1.576923 -5.192307
v 0.673077 -1.576923 -5.192307
v 0.673077 -0.806923 0.576923
v 0.673077 -0.806923 -5.192307
v 0.673077 -0.807692 0.576923
v 0.673077 -0.807692 -5.192307
v -0.673077 -0.806923 -5.192307
v -0.673077 -0.806923 0.576923
v -0.673077 -0.807692 -5.192307
v -0.673077 -0.807692 0.576923
v -0.673077 -0.806923 -5.192307
v 0.673077 -0.806923 -5.192307
v -0.673077 -0.806923 0.576923
v 0.673077 -0.806923 0.576923
v -0.673077 -0.807692 0.576923
v 0.673077 -0.807692 0.576923
v -0.673077 -0.807692 -5.192307
v 0.673077 -0.807692 -5.192307
v -0.673077 -0.806923 0.576923
v 0.673077 -0.806923 0.576923
v -0.673077 -0.807692 0.576923
v 0.673077 -0.807692 0.576923
v 0.673077 -0.806923 -5.192307
v -0.673077 -0.806923 -5.192307
v 0.673077 -0.807692 -5.192307
v -0.673077 -0.807692 -5.192307
v -0.672308 -0.807692 0.576923
v -0.672308 -0.807692 -5.192307
v -0.672308 -1.576923 0.576923
v -0.672308 -1.576923 -5.192307
v -0.673077 -0.807692 -5.192307
v -0.673077 -0.807692 0.576923
v -0.673077 -1.576923 -5.192307
v -0.673077 -1.576923 0.576923
v -0.673077 -0.807692 -5.192307
v -0.672308 -0.807692 -5.192307
v -0.673077 -0.807692 0.576923
v -0.672308 -0.807692 0.576923
v -0.673077 -1.576923 0.576923
v -0.672308 -1.576923 0.576923
v -0.673077 -1.576923 -5.192307
v -0.672308 -1.576923 -5.192307
v -0.673077 -0.807692 0.576923
v -0.672308 -0.807692 0.576923
v -0.673077 -1.576923 0.576923
v -0.672308 -1.576923 0.576923
v -0.672308 -0.807692 -5.192307
v -0.673077 -0.807692 -5.192307
v -0.672308 -1.576923 -5.192307
v -0.673077 -1.576923 -5.192307
v 0.543928 -1.000001 9.038462
v 0.543928 -1.000001 7.884615
v -0.000000 -1.543930 9.038462
v -0.000000 -1.543930 7.884615
v -0.000000 -0.456073 7.884615
v -0.000000 -0.456073 9.038462
v -0.543929 -1.000001 7.884615
v -0.543929 -1.000001 9.038462
v -0.000000 -0.456073 7.884615
v 0.543928 -1.000001 7.884615
v -0.000000 -0.456073 9.038462
v 0.543928 -1.000001 9.038462
v -0.543929 -1.000001 9.038462
v -0.000000 -1.543930 9.038462
v -0.543929 -1.000001 7.884615
v -0.000000 -1.543930 7.884615
v -0.000000 -0.456073 9.038462
v 0.543928 -1.000001 9.038462
v -0.543929 -1.000001 9.038462
v -0.000000 -1.543930 9.038462
v 0.543928 -1.000001 7.884615
v -0.000000 -0.456073 7.884615
v -0.000000 -1.543930 7.884615
v -0.543929 -1.000001 7.884615
v 0.576923 -0.230769 11.730769
v 0.576923 -0.230769 9.038462
v 0.576923 -1.769231 11.730769
v 0.576923 -1.769231 9.038462
v -0.576923 -0.230769 9.038462
v -0.576923 -0.230769 11.730769
v -0.576923 -1.769231 9.038462
v -0.576923 -1.769231 11.730769
v -0.576923 -0.230769 9.038462
v 0.576923 -0.230769 9.038462
v -0.576923 -0.230769 11.730769
v 0.576923 -0.230769 11.730769
v -0.576923 -1.769231 11.730769
v 0.576923 -1.769231 11.730769
v -0.576923 -1.769231 9.038462
v 0.576923 -1.769231 9.038462
v -0.576923 -0.230769 11.730769
v 0.576923 -0.230769 11.730769
v -0.576923 -1.769231 11.730769
v 0.576923 -1.769231 11.730769
v 0.576923 -0.230769 9.038462
v -0.576923 -0.230769 9.038462
v 0.576923 -1.769231 9.038462
v -0.576923 -1.769231 9.038462
v 0.384615 -1.769231 11.346154
v 0.384615 -1.769231 9.423077
v 0.384615 -2.538461 11.346154
v 0.384615 -2.538461 9.423077
v -0.384615 -1.769231 9.423077
v -0.384615 -1.769231 11.346154
v -0.384615 -2.538461 9.423077
v -0.384615 -2.538461 11.346154
v -0.384615 -1.769231 9.423077
v 0.384615 -1.769231 9.423077
v -0.384615 -1.769231 11.346154
v 0.384615 -1.769231 11.346154
v -0.384615 -2.538461 11.346154
v 0.384615 -2.538461 11.346154
v -0.384615 -2.538461 9.423077
v 0.384615 -2.538461 9.423077
v -0.384615 -1.769231 11.346154
v 0.384615 -1.769231 11.346154
v -0.384615 -2.538461 11.346154
v 0.384615 -2.538461 11.346154
v 0.384615 -1.769231 9.423077
v -0.384615 -1.769231 9.423077
v 0.384615 -2.538461 9.423077
v -0.384615 -2.538461 9.423077
v 0.576923 -0.615385 13.269231
v 0.576923 -0.615385 11.730769
v 0.576923 -1.769231 13.269231
v 0.576923 -1.769231 11.730769
v -0.576923 -0.615385 11.730769
v -0.576923 -0.615385 13.269231
v -0.576923 -1.769231 11.730769
v -0.576923 -1.769231 13.269231
v -0.576923 -0.615385 11.730769
v 0.576923 -0.615385 11.730769
v -0.576923 -0.615385 13.269231
v 0.576923 -0.615385 13.269231
v -0.576923 -1.769231 13.269231
v 0.576923 -1.769231 13.269231
v -0.576923 -1.769231 11.730769
v 0.576923 -1.769231 11.730769
v -0.576923 -0.615385 13.269231
v 0.576923 -0.615385 13.269231
v -0.576923 -1.769231 13.269231
v 0.576923 -1.769231 13.269231
v 0.576923 -0.615385 11.730769
v -0.576923 -0.615385 11.730769
v 0.576923 -1.769231 11.730769
v -0.576923 -1.769231 11.730769
v 0.384615 -2.923077 13.269231
v 0.384615 -2.923077 11.730769
v 0.384615 -3.692308 13.269231
v 0.384615 -3.692308 11.730769
v -0.384615 -2.923077 11.730769
v -0.384615 -2.923077 13.269231
v -0.384615 -3.692308 11.730769
v -0.384615 -3.692308 13.269231
v -0.384615 -2.923077 11.730769
v 0.384615 -2.923077 11.730769
v -0.384615 -2.923077 13.269231
v 0.384615 -2.923077 13.269231
v -0.384615 -3.692308 13.269231
v 0.384615 -3.692308 13.269231
v -0.384615 -3.692308 11.730769
v 0.384615 -3.692308 11.730769
v -0.384615 -2.923077 13.269231
v 0.384615 -2.923077 13.269231
v -0.384615 -3.692308 13.269231
v 0.384615 -3.692308 13.269231
v 0.384615 -2.923077 11.730769
v -0.384615 -2.923077 11.730769
v 0.384615 -3.692308 11.730769
v -0.384615 -3.692308 11.730769
v 0.000769 -1.384615 13.269231
v 0.000769 -1.384615 11.730769
v 0.000769 -2.923077 13.269231
v 0.000769 -2.923077 11.730769
v 0.000000 -1.384615 11.730769
v 0.000000 -1.384615 13.269231
v 0.000000 -2.923077 11.730769
v 0.000000 -2.923077 13.269231
v 0.000000 -1.384615 11.730769
v 0.000769 -1.384615 11.730769
v 0.000000 -1.384615 13.269231
v 0.000769 -1.384615 13.269231
v 0.000000 -2.923077 13.269231
v 0.000769 -2.923077 13.269231
v 0.000000 -2.923077 11.730769
v 0.000769 -2.923077 11.730769
v 0.000000 -1.384615 13.269231
v 0.000769 -1.384615 13.269231
v 0.000000 -2.923077 13.269231
v 0.000769 -2.923077 13.269231
v 0.000769 -1.384615 11.730769
v 0.000000 -1.384615 11.730769
v 0.000769 -2.923077 11.730769
v 0.000000 -2.923077 11.730769
v 0.576923 -0.038462 0.576923
v 0.576923 -0.038462 0.000000
v 0.576923 -0.230769 0.576923
v 0.576923 -0.230769 0.000000
v -0.576923 -0.038462 0.000000
v -0.576923 -0.038462 0.576923
v -0.576923 -0.230769 0.000000
v -0.576923 -0.230769 0.576923
v -0.576923 -0.038462 0.000000
v 0.576923 -0.038462 0.000000
v -0.576923 -0.038462 0.576923
v 0.576923 -0.038462 0.576923
v -0.576923 -0.230769 0.576923
v 0.576923 -0.230769 0.576923
v -0.576923 -0.230769 0.000000
v 0.576923 -0.230769 0.000000
v -0.576923 -0.038462 0.576923
v 0.576923 -0.038462 0.576923
v -0.576923 -0.230769 0.576923
v 0.576923 -0.230769 0.576923
v 0.576923 -0.038462 0.000000
v -0.576923 -0.038462 0.000000
v 0.576923 -0.230769 0.000000
v -0.576923 -0.230769 0.000000
v 0.576154 -0.987763 7.000372
v 0.576154 -1.576507 5.579019
v 0.576154 -3.830470 8.177860
v 0.576154 -4.419214 6.756507
v -0.576154 -1.576507 5.579019
v -0.576154 -0.987763 7.000372
v -0.576154 -4.419214 6.756507
v -0.576154 -3.830470 8.177860
v -0.576154 -1.576507 5.579019
v 0.576154 -1.576507 5.579019
v -0.576154 -0.987763 7.000372
v 0.576154 -0.987763 7.000372
v -0.576154 -3.830470 8.177860
v 0.576154 -3.830470 8.177860
v -0.576154 -4.419214 6.756507
v 0.576154 -4.419214 6.756507
v -0.576154 -0.987763 7.000372
v 0.576154 -0.987763 7.000372
v -0.576154 -3.830470 8.177860
v 0.576154 -3.830470 8.177860
v 0.576154 -1.576507 5.579019
v -0.576154 -1.576507 5.579019
v 0.576154 -4.419214 6.756507
v -0.576154 -4.419214 6.756507
vn 1.0000 -0.0000 -0.0000
vn -1.0000 -0.0000 -0.0000
vn -0.0000 1.0000 -0.0000
vn -0.0000 -1.0000 -0.0000
vn -0.0000 -0.0000 1.0000
vn -0.0000 -0.0000 -1.0000
vn -0.0000 0.9239 0.3827
vn -0.0000 -0.9239 -0.3827
vn -0.0000 -0.3827 0.9239
vn -0.0000 0.3827 -0.9239
vn 0.7071 -0.7071 -0.0000
vn -0.7071 0.7071 -0.0000
vn 0.7071 0.7071 -0.0000
vn -0.7071 -0.7071 -0.0000
vn -0.0000 0.9239 -0.3827
vn -0.0000 -0.9239 0.3827
vn -0.0000 0.3827 0.9239
vn -0.0000 -0.3827 -0.9239
vt 0.531250 0.687500
vt 0.531250 0.640625
vt 0.437500 0.687500
vt 0.437500 0.640625
vt 0.000000 0.906250
vt 0.000000 1.000000
vt 0.000000 0.953125
vt 0.312500 0.750000
vt 0.312500 0.625000
vt 0.375000 0.750000
vt 0.375000 0.625000
vt 0.000000 0.625000
vt 0.000000 0.500000
vt 0.062500 0.625000
vt 0.062500 0.500000
vt 0.171875 0.375000
vt 0.171875 0.437500
vt 0.125000 0.375000
vt 0.125000 0.437500
vt 0.234375 0.437500
vt 0.234375 0.375000
vt 0.187500 0.437500
vt 0.187500 0.375000
vt 0.375000 0.500000
vt 0.421875 0.625000
vt 0.421875 0.500000
vt 0.312500 0.500000
vt 0.359375 0.625000
vt 0.359375 0.500000
vt 0.562500 0.468750
vt 0.562500 0.437500
vt 0.625000 0.468750
vt 0.625000 0.437500
vt 0.593750 0.750000
vt 0.593750 0.718750
vt 0.656250 0.750000
vt 0.656250 0.718750
vt 0.046875 0.375000
vt 0.046875 0.437500
vt 0.000000 0.375000
vt 0.000000 0.437500
vt 0.109375 0.437500
vt 0.109375 0.375000
vt 0.062500 0.437500
vt 0.062500 0.375000
vt 0.625000 0.906250
vt 0.625000 0.875000
vt 0.671875 0.906250
vt 0.671875 0.875000
vt 0.093750 0.375000
vt 0.093750 0.343750
vt 0.140625 0.375000
vt 0.140625 0.343750
vt 0.437500 0.500000
vt 0.437500 0.453125
vt 0.500000 0.500000
vt 0.500000 0.453125
vt 0.562500 0.500000
vt 0.562500 0.453125
vt 0.250000 0.500000
vt 0.250000 0.437500
vt 0.187500 0.500000
vt 0.500000 0.562500
vt 0.500000 0.515625
vt 0.562500 0.562500
vt 0.562500 0.515625
vt 0.500000 0.625000
vt 0.500000 0.578125
vt 0.562500 0.625000
vt 0.562500 0.578125
vt 0.609375 0.968750
vt 0.609375 0.937500
vt 0.375000 0.968750
vt 0.375000 0.937500
vt 0.296875 0.765625
vt 0.296875 1.000000
vt 0.250000 0.765625
vt 0.250000 1.000000
vt 0.296875 0.750000
vt 0.296875 0.515625
vt 0.250000 0.750000
vt 0.250000 0.515625
vt 0.593750 0.500000
vt 0.593750 0.468750
vt 0.640625 0.500000
vt 0.640625 0.468750
vt 0.593750 0.656250
vt 0.593750 0.625000
vt 0.640625 0.656250
vt 0.640625 0.625000
vt 0.218750 0.375000
vt 0.218750 0.343750
vt 0.250000 0.375000
vt 0.250000 0.343750
vt 0.281250 0.375000
vt 0.281250 0.343750
vt 0.312500 0.343750
vt 0.312500 0.375000
vt 0.343750 0.375000
vt 0.343750 0.343750
vt 0.625000 0.781250
vt 0.625000 0.750000
vt 0.656250 0.781250
vt 0.625000 0.812500
vt 0.656250 0.812500
vt 0.000000 0.937500
vt 0.234375 1.000000
vt 0.234375 0.937500
vt 0.000000 0.875000
vt 0.234375 0.875000
vt 0.062500 0.640625
vt 0.062500 0.875000
vt 0.000000 0.640625
vt 0.125000 0.875000
vt 0.125000 0.640625
vt 0.437500 0.562500
vt 0.437500 0.625000
vt 0.375000 0.906250
vt 0.609375 0.906250
vt 0.000000 0.765625
vt 0.000000 0.968750
vt 0.187500 0.640625
vt 0.187500 0.875000
vt 0.250000 0.875000
vt 0.250000 0.640625
vt 0.062500 1.000000
vt 0.609375 0.843750
vt 0.609375 0.812500
vt 0.375000 0.843750
vt 0.375000 0.812500
vt 0.000000 0.343750
vt 0.046875 0.343750
vt 0.625000 1.000000
vt 0.625000 0.968750
vt 0.671875 1.000000
vt 0.671875 0.968750
vt 0.656250 0.921875
vt 0.656250 0.968750
vt 0.625000 0.921875
vt 0.093750 0.328125
vt 0.062500 0.328125
vt 0.187500 0.343750
vt 0.625000 0.843750
vt 0.656250 0.843750
vt 0.062500 0.562500
vt 0.171875 0.625000
vt 0.171875 0.562500
vt 0.484375 0.812500
vt 0.484375 0.750000
vt 0.109375 0.453125
vt 0.109375 0.562500
vt 0.062500 0.453125
vt 0.171875 0.453125
vt 0.125000 0.562500
vt 0.125000 0.453125
vt 0.531250 0.625000
vt 0.578125 0.687500
vt 0.578125 0.625000
vt 0.531250 0.750000
vt 0.578125 0.750000
vt 0.562500 0.593750
vt 0.640625 0.593750
vt 0.640625 0.562500
vt 0.468750 0.359375
vt 0.468750 0.437500
vt 0.437500 0.359375
vt 0.437500 0.437500
vt 0.593750 0.562500
vt 0.593750 0.484375
vt 0.562500 0.484375
vt 0.156250 0.375000
vt 0.156250 0.343750
vt 0.656250 0.875000
vt 0.562500 0.812500
vt 0.562500 0.765625
vt 0.625000 0.765625
vt 0.250000 0.390625
vt 0.312500 0.437500
vt 0.312500 0.390625
vt 0.359375 0.375000
vt 0.359375 0.437500
vt 0.421875 0.437500
vt 0.421875 0.375000
vt 0.375000 0.437500
vt 0.375000 0.375000
vt 0.531250 0.437500
vt 0.531250 0.390625
vt 0.578125 0.437500
vt 0.578125 0.390625
vt 0.468750 0.390625
vt 0.515625 0.437500
vt 0.515625 0.390625
vt 0.593750 0.687500
vt 0.656250 0.687500
vt 0.656250 0.656250
vt 0.625000 0.500000
vt 0.625000 0.562500
vt 0.625000 0.375000
vt 0.593750 0.437500
vt 0.593750 0.375000
vt 0.375000 0.343750
vt 0.406250 0.375000
vt 0.406250 0.343750
vt 0.500000 0.812500
vt 0.500000 0.750000
vt 0.562500 0.750000
vt 0.375000 0.953125
vt 0.390625 0.968750
vt 0.390625 0.953125
vt 0.375000 0.875000
vt 0.312500 0.875000
vt 0.421875 0.750000
vt 0.187500 0.625000
vt 0.234375 0.625000
vt 0.234375 0.500000
s 0
usemtl Material_0
f 1/1/1 3/2/1 2/3/1
f 3/2/1 4/4/1 2/3/1
f 5/3/2 7/4/2 6/1/2
f 7/4/2 8/2/2 6/1/2
f 9/5/3 11/6/3 10/5/3
f 11/6/3 12/6/3 10/5/3
f 13/6/4 15/5/4 14/6/4
f 15/5/4 16/5/4 14/6/4
f 17/6/5 19/7/5 18/6/5
f 19/7/5 20/7/5 18/6/5
f 21/6/6 23/7/6 22/6/6
f 23/7/6 24/7/6 22/6/6
f 25/8/1 27/9/1 26/10/1
f 27/9/1 28/11/1 26/10/1
f 29/12/2 31/13/2 30/14/2
f 31/13/2 32/15/2 30/14/2
f 33/16/3 35/17/3 34/18/3
f 35/17/3 36/19/3 34/18/3
f 37/20/4 39/21/4 38/22/4
f 39/21/4 40/23/4 38/22/4
f 41/11/5 43/24/5 42/25/5
f 43/24/5 44/26/5 42/25/5
f 45/9/6 47/27/6 46/28/6
f 47/27/6 48/29/6 46/28/6
f 49/30/1 51/31/1 50/32/1
f 51/31/1 52/33/1 50/32/1
f 53/34/2 55/35/2 54/36/2
f 55/35/2 56/37/2 54/36/2
f 57/38/7 59/39/7 58/40/7
f 59/39/7 60/41/7 58/40/7
f 61/42/8 63/43/8 62/44/8
f 63/43/8 64/45/8 62/44/8
f 65/46/9 67/47/9 66/48/9
f 67/47/9 68/49/9 66/48/9
f 69/50/10 71/51/10 70/52/10
f 71/51/10 72/53/10 70/52/10
f 73/54/1 75/55/1 74/56/1
f 75/55/1 76/57/1 74/56/1
f 77/56/2 79/57/2 78/58/2
f 79/57/2 80/59/2 78/58/2
f 81/44/3 83/15/3 82/41/3
f 83/15/3 84/13/3 82/41/3
f 85/60/4 87/61/4 86/62/4
f 87/61/4 88/22/4 86/62/4
f 89/63/5 91/64/5 90/65/5
f 91/64/5 92/66/5 90/65/5
f 93/67/6 95/68/6 94/69/6
f 95/68/6 96/70/6 94/69/6
f 97/71/1 99/72/1 98/73/1
f 99/72/1 100/74/1 98/73/1
f 101/73/2 103/74/2 102/71/2
f 103/74/2 104/72/2 102/71/2
f 105/75/3 107/76/3 106/77/3
f 107/76/3 108/78/3 106/77/3
f 109/79/4 111/80/4 110/81/4
f 111/80/4 112/82/4 110/81/4
f 113/83/5 115/84/5 114/85/5
f 115/84/5 116/86/5 114/85/5
f 117/87/6 119/88/6 118/89/6
f 119/88/6 120/90/6 118/89/6
f 121/91/1 123/92/1 122/93/1
f 123/92/1 124/94/1 122/93/1
f 125/93/2 127/94/2 126/95/2
f 127/94/2 128/96/2 126/95/2
f 129/97/3 131/98/3 130/96/3
f 131/98/3 132/95/3 130/96/3
f 133/99/4 135/100/4 134/98/4
f 135/100/4 136/97/4 134/98/4
f 137/101/5 139/102/5 138/103/5
f 139/102/5 140/36/5 138/103/5
f 141/104/6 143/101/6 142/105/6
f 143/101/6 144/103/6 142/105/6
f 145/6/1 147/106/1 146/107/1
f 147/106/1 148/108/1 146/107/1
f 149/106/2 151/109/2 150/108/2
f 151/109/2 152/110/2 150/108/2
f 153/111/3 155/112/3 154/113/3
f 155/112/3 156/109/3 154/113/3
f 157/114/4 159/115/4 158/112/4
f 159/115/4 160/111/4 158/112/4
f 161/116/5 163/54/5 162/63/5
f 163/54/5 164/56/5 162/63/5
f 165/117/6 167/116/6 166/67/6
f 167/116/6 168/63/6 166/67/6
f 169/74/1 171/118/1 170/72/1
f 171/118/1 172/119/1 170/72/1
f 173/72/2 175/119/2 174/74/2
f 175/119/2 176/118/2 174/74/2
f 177/120/3 179/6/3 178/120/3
f 179/6/3 180/6/3 178/120/3
f 181/6/4 183/120/4 182/6/4
f 183/120/4 184/120/4 182/6/4
f 185/6/5 187/121/5 186/6/5
f 187/121/5 188/121/5 186/6/5
f 189/6/6 191/121/6 190/6/6
f 191/121/6 192/121/6 190/6/6
f 193/6/1 195/6/1 194/107/1
f 195/6/1 196/107/1 194/107/1
f 197/6/2 199/6/2 198/107/2
f 199/6/2 200/107/2 198/107/2
f 201/122/3 203/123/3 202/115/3
f 203/123/3 204/114/3 202/115/3
f 205/124/4 207/125/4 206/123/4
f 207/125/4 208/122/4 206/123/4
f 209/6/5 211/6/5 210/126/5
f 211/6/5 212/126/5 210/126/5
f 213/6/6 215/6/6 214/126/6
f 215/6/6 216/126/6 214/126/6
f 217/127/1 219/128/1 218/129/1
f 219/128/1 220/130/1 218/129/1
f 221/129/2 223/130/2 222/127/2
f 223/130/2 224/128/2 222/127/2
f 225/120/3 227/6/3 226/120/3
f 227/6/3 228/6/3 226/120/3
f 229/6/4 231/120/4 230/6/4
f 231/120/4 232/120/4 230/6/4
f 233/6/5 235/121/5 234/6/5
f 235/121/5 236/121/5 234/6/5
f 237/6/6 239/121/6 238/6/6
f 239/121/6 240/121/6 238/6/6
f 241/40/11 243/131/11 242/38/11
f 243/131/11 244/132/11 242/38/11
f 245/133/12 247/134/12 246/135/12
f 247/134/12 248/136/12 246/135/12
f 249/137/13 251/138/13 250/139/13
f 251/138/13 252/134/13 250/139/13
f 253/50/14 255/140/14 254/45/14
f 255/140/14 256/141/14 254/45/14
f 257/23/5 259/142/5 258/91/5
f 259/142/5 260/92/5 258/91/5
f 261/143/6 263/104/6 262/144/6
f 263/104/6 264/105/6 262/144/6
f 265/14/1 267/145/1 266/146/1
f 267/145/1 268/147/1 266/146/1
f 269/130/2 271/10/2 270/148/2
f 271/10/2 272/149/2 270/148/2
f 273/150/3 275/151/3 274/152/3
f 275/151/3 276/145/3 274/152/3
f 277/147/4 279/153/4 278/154/4
f 279/153/4 280/155/4 278/154/4
f 281/1/5 283/156/5 282/157/5
f 283/156/5 284/158/5 282/157/5
f 285/159/6 287/1/6 286/160/6
f 287/1/6 288/157/6 286/160/6
f 289/69/1 291/161/1 290/90/1
f 291/161/1 292/162/1 290/90/1
f 293/161/2 295/65/2 294/162/2
f 295/65/2 296/163/2 294/162/2
f 297/164/3 299/165/3 298/166/3
f 299/165/3 300/167/3 298/166/3
f 301/168/4 303/169/4 302/65/4
f 303/169/4 304/170/4 302/65/4
f 305/171/5 307/172/5 306/23/5
f 307/172/5 308/142/5 306/23/5
f 309/47/6 311/143/6 310/173/6
f 311/143/6 312/144/6 310/173/6
f 313/174/1 315/175/1 314/104/1
f 315/175/1 316/176/1 314/104/1
f 317/61/2 319/177/2 318/178/2
f 319/177/2 320/179/2 318/178/2
f 321/180/3 323/181/3 322/98/3
f 323/181/3 324/178/3 322/98/3
f 325/182/4 327/183/4 326/184/4
f 327/183/4 328/185/4 326/184/4
f 329/186/5 331/187/5 330/188/5
f 331/187/5 332/189/5 330/188/5
f 333/165/6 335/190/6 334/191/6
f 335/190/6 336/192/6 334/191/6
f 337/35/1 339/193/1 338/37/1
f 339/193/1 340/194/1 338/37/1
f 341/193/2 343/87/2 342/194/2
f 343/87/2 344/195/2 342/194/2
f 345/196/3 347/197/3 346/83/3
f 347/197/3 348/168/3 346/83/3
f 349/33/4 351/198/4 350/199/4
f 351/198/4 352/200/4 350/199/4
f 353/185/5 355/201/5 354/202/5
f 355/201/5 356/203/5 354/202/5
f 357/99/6 359/100/6 358/185/6
f 359/100/6 360/201/6 358/185/6
f 361/204/1 363/205/1 362/174/1
f 363/205/1 364/206/1 362/174/1
f 365/60/2 367/61/2 366/27/2
f 367/61/2 368/178/2 366/27/2
f 369/106/3 371/6/3 370/106/3
f 371/6/3 372/6/3 370/106/3
f 373/6/4 375/106/4 374/6/4
f 375/106/4 376/106/4 374/6/4
f 377/6/5 379/106/5 378/6/5
f 379/106/5 380/106/5 378/6/5
f 381/6/6 383/106/6 382/6/6
f 383/106/6 384/106/6 382/6/6
f 385/73/1 387/207/1 386/208/1
f 387/207/1 388/209/1 386/208/1
f 389/73/2 391/207/2 390/208/2
f 391/207/2 392/209/2 390/208/2
f 393/73/3 395/207/3 394/208/3
f 395/207/3 396/209/3 394/208/3
f 397/73/4 399/207/4 398/208/4
f 399/207/4 400/209/4 398/208/4
f 401/73/5 403/207/5 402/208/5
f 403/207/5 404/209/5 402/208/5
f 405/73/6 407/207/6 406/208/6
f 407/207/6 408/209/6 406/208/6
f 409/210/1 411/10/1 410/211/1
f 411/10/1 412/8/1 410/211/1
f 413/211/2 415/8/2 414/210/2
f 415/8/2 416/10/2 414/210/2
f 417/181/15 419/29/15 418/178/15
f 419/29/15 420/27/15 418/178/15
f 421/26/16 423/182/16 422/24/16
f 423/182/16 424/184/16 422/24/16
f 425/10/17 427/11/17 426/212/17
f 427/11/17 428/25/17 426/212/17
f 429/213/18 431/62/18 430/214/18
f 431/62/18 432/215/18 430/214/18
