# Blender 4.2.2 LTS
# www.blender.org
mtllib lev.mp5lstock.mtl
o attachmentModel
v 0.775385 0.962308 1.153846
v 0.775385 0.962308 -0.000000
v 0.775385 -0.193077 1.153846
v 0.775385 -0.193077 -0.000000
v -0.770769 0.962308 -0.000000
v -0.770769 0.962308 1.153846
v -0.770769 -0.193077 -0.000000
v -0.770769 -0.193077 1.153846
v -0.770769 0.962308 -0.000000
v 0.775385 0.962308 -0.000000
v -0.770769 0.962308 1.153846
v 0.775385 0.962308 1.153846
v -0.770769 -0.193077 1.153846
v 0.775385 -0.193077 1.153846
v -0.770769 -0.193077 -0.000000
v 0.775385 -0.193077 -0.000000
v -0.770769 0.962308 1.153846
v 0.775385 0.962308 1.153846
v -0.770769 -0.193077 1.153846
v 0.775385 -0.193077 1.153846
v 0.775385 0.962308 -0.000000
v -0.770769 0.962308 -0.000000
v 0.775385 -0.193077 -0.000000
v -0.770769 -0.193077 -0.000000
v 0.583077 -0.183846 0.769231
v 0.583077 -0.183846 -0.000000
v 0.583077 -0.968462 0.769231
v 0.583077 -0.968462 -0.000000
v -0.578462 -0.183846 -0.000000
v -0.578462 -0.183846 0.769231
v -0.578462 -0.968462 -0.000000
v -0.578462 -0.968462 0.769231
v -0.578462 -0.183846 -0.000000
v 0.583077 -0.183846 -0.000000
v -0.578462 -0.183846 0.769231
v 0.583077 -0.183846 0.769231
v -0.578462 -0.968462 0.769231
v 0.583077 -0.968462 0.769231
v -0.578462 -0.968462 -0.000000
v 0.583077 -0.968462 -0.000000
v -0.578462 -0.183846 0.769231
v 0.583077 -0.183846 0.769231
v -0.578462 -0.968462 0.769231
v 0.583077 -0.968462 0.769231
v 0.583077 -0.183846 -0.000000
v -0.578462 -0.183846 -0.000000
v 0.583077 -0.968462 -0.000000
v -0.578462 -0.968462 -0.000000
v -0.576154 0.770000 5.000000
v -0.576154 0.770000 1.153846
v -0.576154 0.000769 5.000000
v -0.576154 0.000769 1.153846
v -0.576923 0.770000 1.153846
v -0.576923 0.770000 5.000000
v -0.576923 0.000769 1.153846
v -0.576923 0.000769 5.000000
v -0.576923 0.770000 1.153846
v -0.576154 0.770000 1.153846
v -0.576923 0.770000 5.000000
v -0.576154 0.770000 5.000000
v -0.576923 0.000769 5.000000
v -0.576154 0.000769 5.000000
v -0.576923 0.000769 1.153846
v -0.576154 0.000769 1.153846
v -0.576923 0.770000 5.000000
v -0.576154 0.770000 5.000000
v -0.576923 0.000769 5.000000
v -0.576154 0.000769 5.000000
v -0.576154 0.770000 1.153846
v -0.576923 0.770000 1.153846
v -0.576154 0.000769 1.153846
v -0.576923 0.000769 1.153846
v 0.769231 0.770000 6.538462
v 0.769231 0.770000 5.000000
v 0.769231 0.000769 6.538462
v 0.769231 0.000769 5.000000
v -0.769231 0.770000 5.000000
v -0.769231 0.770000 6.538462
v -0.769231 0.000769 5.000000
v -0.769231 0.000769 6.538462
v -0.769231 0.770000 5.000000
v 0.769231 0.770000 5.000000
v -0.769231 0.770000 6.538462
v 0.769231 0.770000 6.538462
v -0.769231 0.000769 6.538462
v 0.769231 0.000769 6.538462
v -0.769231 0.000769 5.000000
v 0.769231 0.000769 5.000000
v -0.769231 0.770000 6.538462
v 0.769231 0.770000 6.538462
v -0.769231 0.000769 6.538462
v 0.769231 0.000769 6.538462
v 0.769231 0.770000 5.000000
v -0.769231 0.770000 5.000000
v 0.769231 0.000769 5.000000
v -0.769231 0.000769 5.000000
v 0.576923 1.154615 6.923077
v 0.576923 1.154615 6.153846
v 0.576923 -1.922308 6.923077
v 0.576923 -1.922308 6.153846
v -0.576923 1.154615 6.153846
v -0.576923 1.154615 6.923077
v -0.576923 -1.922308 6.153846
v -0.576923 -1.922308 6.923077
v -0.576923 1.154615 6.153846
v 0.576923 1.154615 6.153846
v -0.576923 1.154615 6.923077
v 0.576923 1.154615 6.923077
v -0.576923 -1.922308 6.923077
v 0.576923 -1.922308 6.923077
v -0.576923 -1.922308 6.153846
v 0.576923 -1.922308 6.153846
v -0.576923 1.154615 6.923077
v 0.576923 1.154615 6.923077
v -0.576923 -1.922308 6.923077
v 0.576923 -1.922308 6.923077
v 0.576923 1.154615 6.153846
v -0.576923 1.154615 6.153846
v 0.576923 -1.922308 6.153846
v -0.576923 -1.922308 6.153846
v 0.576923 1.154557 6.153552
v 0.576923 0.712999 5.087537
v 0.576923 0.443881 6.447924
v 0.576923 0.002323 5.381908
v -0.576923 0.712999 5.087537
v -0.576923 1.154557 6.153552
v -0.576923 0.002323 5.381908
v -0.576923 0.443881 6.447924
v -0.576923 0.712999 5.087537
v 0.576923 0.712999 5.087537
v -0.576923 1.154557 6.153552
v 0.576923 1.154557 6.153552
v -0.576923 0.443881 6.447924
v 0.576923 0.443881 6.447924
v -0.576923 0.002323 5.381908
v 0.576923 0.002323 5.381908
v -0.576923 1.154557 6.153552
v 0.576923 1.154557 6.153552
v -0.576923 0.443881 6.447924
v 0.576923 0.443881 6.447924
v 0.576923 0.712999 5.087537
v -0.576923 0.712999 5.087537
v 0.576923 0.002323 5.381908
v -0.576923 0.002323 5.381908
v 0.577692 0.770000 5.000000
v 0.577692 0.770000 1.153846
v 0.577692 0.000769 5.000000
v 0.577692 0.000769 1.153846
v 0.576923 0.770000 1.153846
v 0.576923 0.770000 5.000000
v 0.576923 0.000769 1.153846
v 0.576923 0.000769 5.000000
v 0.576923 0.770000 1.153846
v 0.577692 0.770000 1.153846
v 0.576923 0.770000 5.000000
v 0.577692 0.770000 5.000000
v 0.576923 0.000769 5.000000
v 0.577692 0.000769 5.000000
v 0.576923 0.000769 1.153846
v 0.577692 0.000769 1.153846
v 0.576923 0.770000 5.000000
v 0.577692 0.770000 5.000000
v 0.576923 0.000769 5.000000
v 0.577692 0.000769 5.000000
v 0.577692 0.770000 1.153846
v 0.576923 0.770000 1.153846
v 0.577692 0.000769 1.153846
v 0.576923 0.000769 1.153846
v 0.276860 0.380808 1.923077
v 0.276860 0.380808 0.769231
v 0.004895 0.108844 1.923077
v 0.004895 0.108844 0.769231
v -0.000544 0.658211 0.769231
v -0.000544 0.658211 1.923077
v -0.272508 0.386247 0.769231
v -0.272508 0.386247 1.923077
v -0.000544 0.658211 0.769231
v 0.276860 0.380808 0.769231
v -0.000544 0.658211 1.923077
v 0.276860 0.380808 1.923077
v -0.272508 0.386247 1.923077
v 0.004895 0.108844 1.923077
v -0.272508 0.386247 0.769231
v 0.004895 0.108844 0.769231
v -0.000544 0.658211 1.923077
v 0.276860 0.380808 1.923077
v -0.272508 0.386247 1.923077
v 0.004895 0.108844 1.923077
v 0.276860 0.380808 0.769231
v -0.000544 0.658211 0.769231
v 0.004895 0.108844 0.769231
v -0.272508 0.386247 0.769231
v 0.583077 1.546923 0.769231
v 0.583077 1.546923 -0.000000
v 0.583077 0.762308 0.769231
v 0.583077 0.762308 -0.000000
v -0.578462 1.546923 -0.000000
v -0.578462 1.546923 0.769231
v -0.578462 0.762308 -0.000000
v -0.578462 0.762308 0.769231
v -0.578462 1.546923 -0.000000
v 0.583077 1.546923 -0.000000
v -0.578462 1.546923 0.769231
v 0.583077 1.546923 0.769231
v -0.578462 0.762308 0.769231
v 0.583077 0.762308 0.769231
v -0.578462 0.762308 -0.000000
v 0.583077 0.762308 -0.000000
v -0.578462 1.546923 0.769231
v 0.583077 1.546923 0.769231
v -0.578462 0.762308 0.769231
v 0.583077 0.762308 0.769231
v 0.583077 1.546923 -0.000000
v -0.578462 1.546923 -0.000000
v 0.583077 0.762308 -0.000000
v -0.578462 0.762308 -0.000000
v 0.576923 1.546279 0.765993
v 0.576923 1.399093 0.410654
v 0.576923 0.643720 1.139845
v 0.576923 0.496534 0.784507
v -0.576923 1.399093 0.410654
v -0.576923 1.546279 0.765993
v -0.576923 0.496534 0.784507
v -0.576923 0.643720 1.139845
v -0.576923 1.399093 0.410654
v 0.576923 1.399093 0.410654
v -0.576923 1.546279 0.765993
v 0.576923 1.546279 0.765993
v -0.576923 0.643720 1.139845
v 0.576923 0.643720 1.139845
v -0.576923 0.496534 0.784507
v 0.576923 0.496534 0.784507
v -0.576923 1.546279 0.765993
v 0.576923 1.546279 0.765993
v -0.576923 0.643720 1.139845
v 0.576923 0.643720 1.139845
v 0.576923 1.399093 0.410654
v -0.576923 1.399093 0.410654
v 0.576923 0.496534 0.784507
v -0.576923 0.496534 0.784507
v 0.576923 -0.065375 1.140434
v 0.576923 0.228997 0.429757
v 0.576923 -0.967935 0.766581
v 0.576923 -0.673563 0.055905
v -0.576923 0.228997 0.429757
v -0.576923 -0.065375 1.140434
v -0.576923 -0.673563 0.055905
v -0.576923 -0.967935 0.766581
v -0.576923 0.228997 0.429757
v 0.576923 0.228997 0.429757
v -0.576923 -0.065375 1.140434
v 0.576923 -0.065375 1.140434
v -0.576923 -0.967935 0.766581
v 0.576923 -0.967935 0.766581
v -0.576923 -0.673563 0.055905
v 0.576923 -0.673563 0.055905
v -0.576923 -0.065375 1.140434
v 0.576923 -0.065375 1.140434
v -0.576923 -0.967935 0.766581
v 0.576923 -0.967935 0.766581
v 0.576923 0.228997 0.429757
v -0.576923 0.228997 0.429757
v 0.576923 -0.673563 0.055905
v -0.576923 -0.673563 0.055905
vn 1.0000 -0.0000 -0.0000
vn -1.0000 -0.0000 -0.0000
vn -0.0000 1.0000 -0.0000
vn -0.0000 -1.0000 -0.0000
vn -0.0000 -0.0000 1.0000
vn -0.0000 -0.0000 -1.0000
vn -0.0000 0.9239 -0.3827
vn -0.0000 -0.9239 0.3827
vn -0.0000 0.3827 0.9239
vn -0.0000 -0.3827 -0.9239
vn 0.7071 -0.7071 -0.0000
vn -0.7071 0.7071 -0.0000
vn 0.7071 0.7071 -0.0000
vn -0.7071 -0.7071 -0.0000
vn -0.0000 0.9239 0.3827
vn -0.0000 -0.9239 -0.3827
vn -0.0000 -0.3827 0.9239
vn -0.0000 0.3827 -0.9239
vt 0.484375 0.640625
vt 0.484375 0.617188
vt 0.507812 0.640625
vt 0.507812 0.617188
vt 0.484375 0.609375
vt 0.484375 0.585938
vt 0.507812 0.609375
vt 0.507812 0.585938
vt 0.187500 0.523438
vt 0.187500 0.546875
vt 0.156250 0.523438
vt 0.156250 0.546875
vt 0.484375 0.828125
vt 0.484375 0.804688
vt 0.453125 0.828125
vt 0.453125 0.804688
vt 0.125000 0.546875
vt 0.125000 0.523438
vt 0.468750 0.953125
vt 0.468750 0.945312
vt 0.476562 0.953125
vt 0.476562 0.945312
vt 0.171875 0.437500
vt 0.171875 0.421875
vt 0.187500 0.437500
vt 0.187500 0.421875
vt 0.562500 0.828125
vt 0.562500 0.812500
vt 0.578125 0.828125
vt 0.578125 0.812500
vt 0.554688 0.453125
vt 0.554688 0.468750
vt 0.531250 0.453125
vt 0.531250 0.468750
vt 0.023438 0.453125
vt 0.023438 0.437500
vt 0.000000 0.453125
vt 0.000000 0.437500
vt 0.531250 0.484375
vt 0.554688 0.484375
vt 0.484375 0.953125
vt 0.484375 0.945312
vt 0.343750 0.968750
vt 0.343750 0.953125
vt 0.421875 0.968750
vt 0.421875 0.953125
vt 0.343750 0.937500
vt 0.421875 0.937500
vt 0.000000 0.921875
vt 0.000000 1.000000
vt 0.000000 0.984375
vt 0.515625 0.593750
vt 0.515625 0.578125
vt 0.546875 0.593750
vt 0.546875 0.578125
vt 0.437500 0.484375
vt 0.437500 0.468750
vt 0.468750 0.484375
vt 0.468750 0.468750
vt 0.437500 0.640625
vt 0.437500 0.671875
vt 0.406250 0.640625
vt 0.406250 0.671875
vt 0.437500 0.609375
vt 0.406250 0.609375
vt 0.515625 0.562500
vt 0.546875 0.562500
vt 0.406250 0.484375
vt 0.406250 0.468750
vt 0.296875 0.593750
vt 0.296875 0.531250
vt 0.312500 0.593750
vt 0.312500 0.531250
vt 0.406250 0.546875
vt 0.421875 0.609375
vt 0.421875 0.546875
vt 0.367188 0.453125
vt 0.367188 0.468750
vt 0.343750 0.453125
vt 0.343750 0.468750
vt 0.398438 0.468750
vt 0.398438 0.453125
vt 0.375000 0.468750
vt 0.375000 0.453125
vt 0.250000 0.687500
vt 0.250000 0.625000
vt 0.273438 0.687500
vt 0.273438 0.625000
vt 0.312500 0.812500
vt 0.312500 0.750000
vt 0.335938 0.812500
vt 0.335938 0.750000
vt 0.437500 0.453125
vt 0.460938 0.468750
vt 0.460938 0.453125
vt 0.531250 0.515625
vt 0.531250 0.500000
vt 0.554688 0.515625
vt 0.554688 0.500000
vt 0.445312 0.492188
vt 0.445312 0.515625
vt 0.421875 0.492188
vt 0.421875 0.515625
vt 0.507812 0.578125
vt 0.507812 0.554688
vt 0.484375 0.578125
vt 0.484375 0.554688
vt 0.468750 0.453125
vt 0.492188 0.468750
vt 0.492188 0.453125
vt 0.406250 0.453125
vt 0.429688 0.468750
vt 0.429688 0.453125
vt 0.343750 0.921875
vt 0.421875 0.921875
vt 0.375000 0.921875
vt 0.375000 0.906250
vt 0.453125 0.921875
vt 0.453125 0.906250
vt 0.421875 0.437500
vt 0.421875 0.429688
vt 0.445312 0.437500
vt 0.445312 0.429688
vt 0.453125 0.437500
vt 0.453125 0.429688
vt 0.476562 0.437500
vt 0.476562 0.429688
vt 0.570312 0.523438
vt 0.570312 0.546875
vt 0.562500 0.523438
vt 0.562500 0.546875
vt 0.492188 0.437500
vt 0.492188 0.414062
vt 0.484375 0.437500
vt 0.484375 0.414062
vt 0.593750 0.781250
vt 0.593750 0.773438
vt 0.601562 0.781250
vt 0.601562 0.773438
vt 0.218750 0.406250
vt 0.218750 0.398438
vt 0.226562 0.406250
vt 0.226562 0.398438
vt 0.203125 0.437500
vt 0.203125 0.421875
vt 0.562500 0.796875
vt 0.578125 0.796875
vt 0.117188 0.437500
vt 0.117188 0.453125
vt 0.093750 0.437500
vt 0.093750 0.453125
vt 0.570312 0.906250
vt 0.570312 0.890625
vt 0.546875 0.906250
vt 0.546875 0.890625
vt 0.546875 0.921875
vt 0.570312 0.921875
vt 0.562500 0.515625
vt 0.562500 0.492188
vt 0.570312 0.515625
vt 0.570312 0.492188
vt 0.500000 0.437500
vt 0.500000 0.414062
vt 0.507812 0.437500
vt 0.507812 0.414062
vt 0.539062 0.429688
vt 0.539062 0.437500
vt 0.515625 0.429688
vt 0.515625 0.437500
vt 0.585938 0.484375
vt 0.585938 0.476562
vt 0.562500 0.484375
vt 0.562500 0.476562
vt 0.062500 0.500000
vt 0.062500 0.476562
vt 0.085938 0.500000
vt 0.085938 0.476562
vt 0.484375 0.515625
vt 0.484375 0.492188
vt 0.507812 0.515625
vt 0.507812 0.492188
vt 0.546875 1.000000
vt 0.546875 0.976562
vt 0.562500 1.000000
vt 0.562500 0.976562
vt 0.031250 0.453125
vt 0.031250 0.429688
vt 0.046875 0.453125
vt 0.046875 0.429688
vt 0.570312 0.953125
vt 0.570312 0.968750
vt 0.546875 0.953125
vt 0.546875 0.968750
vt 0.570312 0.937500
vt 0.546875 0.937500
vt 0.484375 0.546875
vt 0.484375 0.523438
vt 0.507812 0.546875
vt 0.507812 0.523438
vt 0.453125 0.515625
vt 0.453125 0.492188
vt 0.476562 0.515625
vt 0.476562 0.492188
s 0
usemtl Material_0.001
f 1/1/1 3/2/1 2/3/1
f 3/2/1 4/4/1 2/3/1
f 5/5/2 7/6/2 6/7/2
f 7/6/2 8/8/2 6/7/2
f 9/9/3 11/10/3 10/11/3
f 11/10/3 12/12/3 10/11/3
f 13/13/4 15/14/4 14/15/4
f 15/14/4 16/16/4 14/15/4
f 17/17/5 19/18/5 18/12/5
f 19/18/5 20/11/5 18/12/5
f 21/19/6 23/20/6 22/21/6
f 23/20/6 24/22/6 22/21/6
f 25/23/1 27/24/1 26/25/1
f 27/24/1 28/26/1 26/25/1
f 29/27/2 31/28/2 30/29/2
f 31/28/2 32/30/2 30/29/2
f 33/31/3 35/32/3 34/33/3
f 35/32/3 36/34/3 34/33/3
f 37/35/4 39/36/4 38/37/4
f 39/36/4 40/38/4 38/37/4
f 41/39/5 43/34/5 42/40/5
f 43/34/5 44/32/5 42/40/5
f 45/21/6 47/22/6 46/41/6
f 47/22/6 48/42/6 46/41/6
f 49/43/1 51/44/1 50/45/1
f 51/44/1 52/46/1 50/45/1
f 53/44/2 55/47/2 54/46/2
f 55/47/2 56/48/2 54/46/2
f 57/49/3 59/50/3 58/49/3
f 59/50/3 60/50/3 58/49/3
f 61/50/4 63/49/4 62/50/4
f 63/49/4 64/49/4 62/50/4
f 65/50/5 67/51/5 66/50/5
f 67/51/5 68/51/5 66/50/5
f 69/50/6 71/51/6 70/50/6
f 71/51/6 72/51/6 70/50/6
f 73/52/1 75/53/1 74/54/1
f 75/53/1 76/55/1 74/54/1
f 77/56/2 79/57/2 78/58/2
f 79/57/2 80/59/2 78/58/2
f 81/60/3 83/61/3 82/62/3
f 83/61/3 84/63/3 82/62/3
f 85/60/4 87/64/4 86/62/4
f 87/64/4 88/65/4 86/62/4
f 89/53/5 91/66/5 90/55/5
f 91/66/5 92/67/5 90/55/5
f 93/68/6 95/69/6 94/56/6
f 95/69/6 96/57/6 94/56/6
f 97/70/1 99/71/1 98/72/1
f 99/71/1 100/73/1 98/72/1
f 101/65/2 103/74/2 102/75/2
f 103/74/2 104/76/2 102/75/2
f 105/77/3 107/78/3 106/79/3
f 107/78/3 108/80/3 106/79/3
f 109/81/4 111/82/4 110/83/4
f 111/82/4 112/84/4 110/83/4
f 113/85/5 115/86/5 114/87/5
f 115/86/5 116/88/5 114/87/5
f 117/89/6 119/90/6 118/91/6
f 119/90/6 120/92/6 118/91/6
f 121/57/1 123/93/1 122/94/1
f 123/93/1 124/95/1 122/94/1
f 125/96/2 127/97/2 126/98/2
f 127/97/2 128/99/2 126/98/2
f 129/100/7 131/101/7 130/102/7
f 131/101/7 132/103/7 130/102/7
f 133/104/8 135/105/8 134/106/8
f 135/105/8 136/107/8 134/106/8
f 137/59/9 139/108/9 138/109/9
f 139/108/9 140/110/9 138/109/9
f 141/69/10 143/111/10 142/112/10
f 143/111/10 144/113/10 142/112/10
f 145/47/1 147/114/1 146/48/1
f 147/114/1 148/115/1 146/48/1
f 149/116/2 151/117/2 150/118/2
f 151/117/2 152/119/2 150/118/2
f 153/49/3 155/50/3 154/49/3
f 155/50/3 156/50/3 154/49/3
f 157/50/4 159/49/4 158/50/4
f 159/49/4 160/49/4 158/50/4
f 161/50/5 163/51/5 162/50/5
f 163/51/5 164/51/5 162/50/5
f 165/50/6 167/51/6 166/50/6
f 167/51/6 168/51/6 166/50/6
f 169/120/11 171/121/11 170/122/11
f 171/121/11 172/123/11 170/122/11
f 173/124/12 175/125/12 174/126/12
f 175/125/12 176/127/12 174/126/12
f 177/128/13 179/129/13 178/130/13
f 179/129/13 180/131/13 178/130/13
f 181/132/14 183/133/14 182/134/14
f 183/133/14 184/135/14 182/134/14
f 185/136/5 187/137/5 186/138/5
f 187/137/5 188/139/5 186/138/5
f 189/140/6 191/141/6 190/142/6
f 191/141/6 192/143/6 190/142/6
f 193/25/1 195/26/1 194/144/1
f 195/26/1 196/145/1 194/144/1
f 197/28/2 199/146/2 198/30/2
f 199/146/2 200/147/2 198/30/2
f 201/148/3 203/149/3 202/150/3
f 203/149/3 204/151/3 202/150/3
f 205/152/4 207/153/4 206/154/4
f 207/153/4 208/155/4 206/154/4
f 209/156/5 211/154/5 210/157/5
f 211/154/5 212/152/5 210/157/5
f 213/21/6 215/22/6 214/41/6
f 215/22/6 216/42/6 214/41/6
f 217/158/1 219/159/1 218/160/1
f 219/159/1 220/161/1 218/160/1
f 221/162/2 223/163/2 222/164/2
f 223/163/2 224/165/2 222/164/2
f 225/166/7 227/167/7 226/168/7
f 227/167/7 228/169/7 226/168/7
f 229/170/8 231/171/8 230/172/8
f 231/171/8 232/173/8 230/172/8
f 233/174/9 235/175/9 234/176/9
f 235/175/9 236/177/9 234/176/9
f 237/178/10 239/179/10 238/180/10
f 239/179/10 240/181/10 238/180/10
f 241/182/1 243/183/1 242/184/1
f 243/183/1 244/185/1 242/184/1
f 245/186/2 247/187/2 246/188/2
f 247/187/2 248/189/2 246/188/2
f 249/190/15 251/191/15 250/192/15
f 251/191/15 252/193/15 250/192/15
f 253/190/16 255/194/16 254/192/16
f 255/194/16 256/195/16 254/192/16
f 257/196/17 259/197/17 258/198/17
f 259/197/17 260/199/17 258/198/17
f 261/200/18 263/201/18 262/202/18
f 263/201/18 264/203/18 262/202/18
