# Blender 4.1.1
# www.blender.org
mtllib sr2sup.mtl
o attachmentModel
v 0.000000 0.046875 0.046875
v 0.437500 0.046875 0.046875
v 0.000000 -0.046875 0.046875
v 0.437500 -0.046875 0.046875
v 0.437500 0.046875 -0.046875
v -0.000000 0.046875 -0.046875
v 0.437500 -0.046875 -0.046875
v -0.000000 -0.046875 -0.046875
v 0.437500 0.046875 -0.046875
v 0.437500 0.046875 0.046875
v -0.000000 0.046875 -0.046875
v 0.000000 0.046875 0.046875
v -0.000000 -0.046875 -0.046875
v 0.000000 -0.046875 0.046875
v 0.437500 -0.046875 -0.046875
v 0.437500 -0.046875 0.046875
v -0.000000 0.046875 -0.046875
v 0.000000 0.046875 0.046875
v -0.000000 -0.046875 -0.046875
v 0.000000 -0.046875 0.046875
v 0.437500 0.046875 0.046875
v 0.437500 0.046875 -0.046875
v 0.437500 -0.046875 0.046875
v 0.437500 -0.046875 -0.046875
vn -0.0000 -0.0000 1.0000
vn -0.0000 -0.0000 -1.0000
vn -0.0000 1.0000 -0.0000
vn -0.0000 -1.0000 -0.0000
vn -1.0000 -0.0000 -0.0000
vn 1.0000 -0.0000 -0.0000
vt 0.437500 0.875000
vt 0.437500 0.781250
vt 0.000000 0.875000
vt 0.000000 0.781250
vt 0.093750 0.312500
vt 0.093750 0.750000
vt 0.000000 0.312500
vt 0.000000 0.750000
vt 0.218750 0.750000
vt 0.218750 0.312500
vt 0.125000 0.750000
vt 0.125000 0.312500
vt 0.250000 0.625000
vt 0.250000 0.531250
vt 0.343750 0.625000
vt 0.343750 0.531250
vt 0.250000 0.750000
vt 0.250000 0.656250
vt 0.343750 0.750000
vt 0.343750 0.656250
s 0
usemtl Material_0.001
f 1/1/1 3/2/1 2/3/1
f 3/2/1 4/4/1 2/3/1
f 5/3/2 7/4/2 6/1/2
f 7/4/2 8/2/2 6/1/2
f 9/5/3 11/6/3 10/7/3
f 11/6/3 12/8/3 10/7/3
f 13/9/4 15/10/4 14/11/4
f 15/10/4 16/12/4 14/11/4
f 17/13/5 19/14/5 18/15/5
f 19/14/5 20/16/5 18/15/5
f 21/17/6 23/18/6 22/19/6
f 23/18/6 24/20/6 22/19/6
