# Blender 4.2.3 LTS
# www.blender.org
mtllib lev.lwdfh.mtl
o attachmentModel
v 0.000000 0.384615 0.384615
v 0.384615 0.384615 0.384615
v 0.000000 -0.384615 0.384615
v 0.384615 -0.384615 0.384615
v 0.384615 0.384615 -0.384615
v -0.000000 0.384615 -0.384615
v 0.384615 -0.384615 -0.384615
v -0.000000 -0.384615 -0.384615
v 0.384615 0.384615 -0.384615
v 0.384615 0.384615 0.384615
v -0.000000 0.384615 -0.384615
v 0.000000 0.384615 0.384615
v -0.000000 -0.384615 -0.384615
v 0.000000 -0.384615 0.384615
v 0.384615 -0.384615 -0.384615
v 0.384615 -0.384615 0.384615
v -0.000000 0.384615 -0.384615
v 0.000000 0.384615 0.384615
v -0.000000 -0.384615 -0.384615
v 0.000000 -0.384615 0.384615
v 0.384615 0.384615 0.384615
v 0.384615 0.384615 -0.384615
v 0.384615 -0.384615 0.384615
v 0.384615 -0.384615 -0.384615
v 1.537692 0.384615 0.384615
v 1.538461 0.384615 0.384615
v 1.537692 -0.384615 0.384615
v 1.538461 -0.384615 0.384615
v 1.538461 0.384615 -0.384616
v 1.537692 0.384615 -0.384616
v 1.538461 -0.384615 -0.384616
v 1.537692 -0.384615 -0.384616
v 1.538461 0.384615 -0.384616
v 1.538461 0.384615 0.384615
v 1.537692 0.384615 -0.384616
v 1.537692 0.384615 0.384615
v 1.537692 -0.384615 -0.384616
v 1.537692 -0.384615 0.384615
v 1.538461 -0.384615 -0.384616
v 1.538461 -0.384615 0.384615
v 1.537692 0.384615 -0.384616
v 1.537692 0.384615 0.384615
v 1.537692 -0.384615 -0.384616
v 1.537692 -0.384615 0.384615
v 1.538461 0.384615 0.384615
v 1.538461 0.384615 -0.384616
v 1.538461 -0.384615 0.384615
v 1.538461 -0.384615 -0.384616
v 0.384615 -0.383846 0.192308
v 1.538461 -0.383846 0.192307
v 0.384615 -0.384615 0.192308
v 1.538461 -0.384615 0.192307
v 1.538461 -0.383846 -0.192308
v 0.384615 -0.383846 -0.192308
v 1.538461 -0.384615 -0.192308
v 0.384615 -0.384615 -0.192308
v 1.538461 -0.383846 -0.192308
v 1.538461 -0.383846 0.192307
v 0.384615 -0.383846 -0.192308
v 0.384615 -0.383846 0.192308
v 0.384615 -0.384615 -0.192308
v 0.384615 -0.384615 0.192308
v 1.538461 -0.384615 -0.192308
v 1.538461 -0.384615 0.192307
v 0.384615 -0.383846 -0.192308
v 0.384615 -0.383846 0.192308
v 0.384615 -0.384615 -0.192308
v 0.384615 -0.384615 0.192308
v 1.538461 -0.383846 0.192307
v 1.538461 -0.383846 -0.192308
v 1.538461 -0.384615 0.192307
v 1.538461 -0.384615 -0.192308
v 0.384615 0.385385 0.192308
v 1.538461 0.385385 0.192307
v 0.384615 0.384615 0.192308
v 1.538461 0.384615 0.192307
v 1.538461 0.385385 -0.192308
v 0.384615 0.385385 -0.192308
v 1.538461 0.384615 -0.192308
v 0.384615 0.384615 -0.192308
v 1.538461 0.385385 -0.192308
v 1.538461 0.385385 0.192307
v 0.384615 0.385385 -0.192308
v 0.384615 0.385385 0.192308
v 0.384615 0.384615 -0.192308
v 0.384615 0.384615 0.192308
v 1.538461 0.384615 -0.192308
v 1.538461 0.384615 0.192307
v 0.384615 0.385385 -0.192308
v 0.384615 0.385385 0.192308
v 0.384615 0.384615 -0.192308
v 0.384615 0.384615 0.192308
v 1.538461 0.385385 0.192307
v 1.538461 0.385385 -0.192308
v 1.538461 0.384615 0.192307
v 1.538461 0.384615 -0.192308
v 0.384615 0.192308 0.385385
v 1.538462 0.192308 0.385384
v 0.384615 -0.192308 0.385385
v 1.538462 -0.192308 0.385384
v 1.538462 0.192308 0.384615
v 0.384615 0.192308 0.384615
v 1.538462 -0.192308 0.384615
v 0.384615 -0.192308 0.384615
v 1.538462 0.192308 0.384615
v 1.538462 0.192308 0.385384
v 0.384615 0.192308 0.384615
v 0.384615 0.192308 0.385385
v 0.384615 -0.192308 0.384615
v 0.384615 -0.192308 0.385385
v 1.538462 -0.192308 0.384615
v 1.538462 -0.192308 0.385384
v 0.384615 0.192308 0.384615
v 0.384615 0.192308 0.385385
v 0.384615 -0.192308 0.384615
v 0.384615 -0.192308 0.385385
v 1.538462 0.192308 0.385384
v 1.538462 0.192308 0.384615
v 1.538462 -0.192308 0.385384
v 1.538462 -0.192308 0.384615
v 0.384615 0.192308 -0.383846
v 1.538461 0.192308 -0.383846
v 0.384615 -0.192308 -0.383846
v 1.538461 -0.192308 -0.383846
v 1.538461 0.192308 -0.384616
v 0.384615 0.192308 -0.384615
v 1.538461 -0.192308 -0.384616
v 0.384615 -0.192308 -0.384615
v 1.538461 0.192308 -0.384616
v 1.538461 0.192308 -0.383846
v 0.384615 0.192308 -0.384615
v 0.384615 0.192308 -0.383846
v 0.384615 -0.192308 -0.384615
v 0.384615 -0.192308 -0.383846
v 1.538461 -0.192308 -0.384616
v 1.538461 -0.192308 -0.383846
v 0.384615 0.192308 -0.384615
v 0.384615 0.192308 -0.383846
v 0.384615 -0.192308 -0.384615
v 0.384615 -0.192308 -0.383846
v 1.538461 0.192308 -0.383846
v 1.538461 0.192308 -0.384616
v 1.538461 -0.192308 -0.383846
v 1.538461 -0.192308 -0.384616
vn -0.0000 -0.0000 1.0000
vn -0.0000 -0.0000 -1.0000
vn -0.0000 1.0000 -0.0000
vn -0.0000 -1.0000 -0.0000
vn -1.0000 -0.0000 -0.0000
vn 1.0000 -0.0000 -0.0000
vt 0.000000 0.500000
vt 0.000000 0.375000
vt 0.062500 0.500000
vt 0.062500 0.375000
vt 0.125000 0.500000
vt 0.125000 0.375000
vt 0.187500 0.500000
vt 0.187500 0.375000
vt 0.375000 0.437500
vt 0.375000 0.500000
vt 0.250000 0.437500
vt 0.250000 0.500000
vt 0.500000 0.500000
vt 0.500000 0.437500
vt 0.125000 0.875000
vt 0.125000 0.750000
vt 0.250000 0.875000
vt 0.250000 0.750000
vt 0.125000 1.000000
vt 0.250000 1.000000
vt 0.000000 1.000000
vt 0.000000 0.875000
vt 0.000000 0.750000
vt 0.187500 1.000000
vt 0.062500 0.562500
vt 0.062500 0.750000
vt 0.000000 0.562500
vt 0.312500 1.000000
vt 0.312500 0.812500
vt 0.250000 0.812500
vt 0.062500 1.000000
vt 0.187500 0.562500
vt 0.187500 0.750000
vt 0.125000 0.562500
vt 0.312500 0.750000
vt 0.312500 0.562500
vt 0.250000 0.562500
vt 0.375000 1.000000
vt 0.375000 0.937500
vt 0.562500 1.000000
vt 0.562500 0.937500
vt 0.375000 0.875000
vt 0.375000 0.812500
vt 0.562500 0.875000
vt 0.562500 0.812500
vt 0.000000 0.812500
vt 0.000000 0.937500
vt 0.375000 0.750000
vt 0.375000 0.687500
vt 0.562500 0.750000
vt 0.562500 0.687500
vt 0.375000 0.625000
vt 0.375000 0.562500
vt 0.562500 0.625000
vt 0.562500 0.562500
s 0
usemtl Material_0.002
f 1/1/1 3/2/1 2/3/1
f 3/2/1 4/4/1 2/3/1
f 5/5/2 7/6/2 6/7/2
f 7/6/2 8/8/2 6/7/2
f 9/9/3 11/10/3 10/11/3
f 11/10/3 12/12/3 10/11/3
f 13/13/4 15/14/4 14/10/4
f 15/14/4 16/9/4 14/10/4
f 17/15/5 19/16/5 18/17/5
f 19/16/5 20/18/5 18/17/5
f 21/19/6 23/15/6 22/20/6
f 23/15/6 24/17/6 22/20/6
f 25/21/1 27/22/1 26/21/1
f 27/22/1 28/22/1 26/21/1
f 29/21/2 31/22/2 30/21/2
f 31/22/2 32/22/2 30/21/2
f 33/19/3 35/19/3 34/21/3
f 35/19/3 36/21/3 34/21/3
f 37/19/4 39/19/4 38/21/4
f 39/19/4 40/21/4 38/21/4
f 41/22/5 43/23/5 42/15/5
f 43/23/5 44/16/5 42/15/5
f 45/21/6 47/22/6 46/19/6
f 47/22/6 48/15/6 46/19/6
f 49/21/1 51/21/1 50/24/1
f 51/21/1 52/24/1 50/24/1
f 53/21/2 55/21/2 54/24/2
f 55/21/2 56/24/2 54/24/2
f 57/25/3 59/26/3 58/27/3
f 59/26/3 60/23/3 58/27/3
f 61/28/4 63/29/4 62/20/4
f 63/29/4 64/30/4 62/20/4
f 65/21/5 67/21/5 66/31/5
f 67/21/5 68/31/5 66/31/5
f 69/21/6 71/21/6 70/31/6
f 71/21/6 72/31/6 70/31/6
f 73/21/1 75/21/1 74/24/1
f 75/21/1 76/24/1 74/24/1
f 77/21/2 79/21/2 78/24/2
f 79/21/2 80/24/2 78/24/2
f 81/32/3 83/33/3 82/34/3
f 83/33/3 84/16/3 82/34/3
f 85/35/4 87/36/4 86/18/4
f 87/36/4 88/37/4 86/18/4
f 89/21/5 91/21/5 90/31/5
f 91/21/5 92/31/5 90/31/5
f 93/21/6 95/21/6 94/31/6
f 95/21/6 96/31/6 94/31/6
f 97/38/1 99/39/1 98/40/1
f 99/39/1 100/41/1 98/40/1
f 101/42/2 103/43/2 102/44/2
f 103/43/2 104/45/2 102/44/2
f 105/46/3 107/21/3 106/46/3
f 107/21/3 108/21/3 106/46/3
f 109/21/4 111/46/4 110/21/4
f 111/46/4 112/46/4 110/21/4
f 113/21/5 115/47/5 114/21/5
f 115/47/5 116/47/5 114/21/5
f 117/21/6 119/47/6 118/21/6
f 119/47/6 120/47/6 118/21/6
f 121/48/1 123/49/1 122/50/1
f 123/49/1 124/51/1 122/50/1
f 125/52/2 127/53/2 126/54/2
f 127/53/2 128/55/2 126/54/2
f 129/46/3 131/21/3 130/46/3
f 131/21/3 132/21/3 130/46/3
f 133/21/4 135/46/4 134/21/4
f 135/46/4 136/46/4 134/21/4
f 137/21/5 139/47/5 138/21/5
f 139/47/5 140/47/5 138/21/5
f 141/21/6 143/47/6 142/21/6
f 143/47/6 144/47/6 142/21/6
