# Blender 4.4.0
# www.blender.org
mtllib lev.se5.mtl
o attachmentModel
v -1.538461 0.000000 0.769231
v 0.769231 0.000000 0.769231
v -1.538461 -0.384615 0.769231
v 0.769231 -0.384615 0.769231
v 0.769231 0.000000 -0.769231
v -1.538462 0.000000 -0.769230
v 0.769231 -0.384615 -0.769231
v -1.538462 -0.384615 -0.769230
v 0.769231 0.000000 -0.769231
v 0.769231 0.000000 0.769231
v -1.538462 0.000000 -0.769230
v -1.538461 0.000000 0.769231
v -1.538462 -0.384615 -0.769230
v -1.538461 -0.384615 0.769231
v 0.769231 -0.384615 -0.769231
v 0.769231 -0.384615 0.769231
v -1.538462 0.000000 -0.769230
v -1.538461 0.000000 0.769231
v -1.538462 -0.384615 -0.769230
v -1.538461 -0.384615 0.769231
v 0.769231 0.000000 0.769231
v 0.769231 0.000000 -0.769231
v 0.769231 -0.384615 0.769231
v 0.769231 -0.384615 -0.769231
v -2.063062 -1.585124 0.576923
v -0.431277 0.046662 0.576923
v -1.247169 -2.401016 0.576923
v 0.384616 -0.769231 0.576923
v -0.431277 0.046662 -0.576923
v -2.063062 -1.585124 -0.576923
v 0.384615 -0.769231 -0.576923
v -1.247169 -2.401016 -0.576923
v -0.431277 0.046662 -0.576923
v -0.431277 0.046662 0.576923
v -2.063062 -1.585124 -0.576923
v -2.063062 -1.585124 0.576923
v -1.247169 -2.401016 -0.576923
v -1.247169 -2.401016 0.576923
v 0.384615 -0.769231 -0.576923
v 0.384616 -0.769231 0.576923
v -2.063062 -1.585124 -0.576923
v -2.063062 -1.585124 0.576923
v -1.247169 -2.401016 -0.576923
v -1.247169 -2.401016 0.576923
v -0.431277 0.046662 0.576923
v -0.431277 0.046662 -0.576923
v 0.384616 -0.769231 0.576923
v 0.384615 -0.769231 -0.576923
v -0.769231 -0.384615 0.769231
v 0.384616 -0.384615 0.769231
v -0.769231 -0.769231 0.769231
v 0.384616 -0.769231 0.769231
v 0.384615 -0.384615 -0.769231
v -0.769231 -0.384615 -0.769231
v 0.384615 -0.769231 -0.769231
v -0.769231 -0.769231 -0.769231
v 0.384615 -0.384615 -0.769231
v 0.384616 -0.384615 0.769231
v -0.769231 -0.384615 -0.769231
v -0.769231 -0.384615 0.769231
v -0.769231 -0.769231 -0.769231
v -0.769231 -0.769231 0.769231
v 0.384615 -0.769231 -0.769231
v 0.384616 -0.769231 0.769231
v -0.769231 -0.384615 -0.769231
v -0.769231 -0.384615 0.769231
v -0.769231 -0.769231 -0.769231
v -0.769231 -0.769231 0.769231
v 0.384616 -0.384615 0.769231
v 0.384615 -0.384615 -0.769231
v 0.384616 -0.769231 0.769231
v 0.384615 -0.769231 -0.769231
v -1.346154 -0.384615 0.000770
v -0.192308 -0.384615 0.000769
v -1.346154 -1.538462 0.000770
v -0.192308 -1.538462 0.000769
v -0.192308 -0.384615 0.000000
v -1.346154 -0.384615 0.000000
v -0.192308 -1.538462 0.000000
v -1.346154 -1.538462 0.000000
v -0.192308 -0.384615 0.000000
v -0.192308 -0.384615 0.000769
v -1.346154 -0.384615 0.000000
v -1.346154 -0.384615 0.000770
v -1.346154 -1.538462 0.000000
v -1.346154 -1.538462 0.000770
v -0.192308 -1.538462 0.000000
v -0.192308 -1.538462 0.000769
v -1.346154 -0.384615 0.000000
v -1.346154 -0.384615 0.000770
v -1.346154 -1.538462 0.000000
v -1.346154 -1.538462 0.000770
v -0.192308 -0.384615 0.000769
v -0.192308 -0.384615 0.000000
v -0.192308 -1.538462 0.000769
v -0.192308 -1.538462 0.000000
vn -0.0000 -0.0000 1.0000
vn -0.0000 -0.0000 -1.0000
vn -0.0000 1.0000 -0.0000
vn -0.0000 -1.0000 -0.0000
vn -1.0000 -0.0000 -0.0000
vn 1.0000 -0.0000 -0.0000
vn -0.7071 0.7071 -0.0000
vn 0.7071 -0.7071 -0.0000
vn -0.7071 -0.7071 -0.0000
vn 0.7071 0.7071 -0.0000
vt 0.125000 0.562500
vt 0.125000 0.531250
vt 0.312500 0.562500
vt 0.312500 0.531250
vt 0.000000 0.500000
vt 0.000000 0.468750
vt 0.187500 0.500000
vt 0.187500 0.468750
vt 0.125000 0.812500
vt 0.125000 1.000000
vt 0.000000 0.812500
vt 0.000000 1.000000
vt 0.250000 1.000000
vt 0.250000 0.812500
vt 0.500000 0.937500
vt 0.500000 0.906250
vt 0.625000 0.937500
vt 0.625000 0.906250
vt 0.500000 1.000000
vt 0.500000 0.968750
vt 0.625000 1.000000
vt 0.625000 0.968750
vt 0.000000 0.718750
vt 0.187500 0.812500
vt 0.187500 0.718750
vt 0.375000 0.812500
vt 0.375000 0.718750
vt 0.343750 0.812500
vt 0.343750 1.000000
vt 0.093750 0.687500
vt 0.093750 0.500000
vt 0.000000 0.687500
vt 0.375000 0.625000
vt 0.375000 0.531250
vt 0.468750 0.625000
vt 0.468750 0.531250
vt 0.375000 0.750000
vt 0.375000 0.656250
vt 0.468750 0.750000
vt 0.468750 0.656250
vt 0.500000 0.812500
vt 0.500000 0.781250
vt 0.593750 0.812500
vt 0.593750 0.781250
vt 0.500000 0.750000
vt 0.500000 0.718750
vt 0.593750 0.750000
vt 0.593750 0.718750
vt 0.250000 0.593750
vt 0.250000 0.687500
vt 0.125000 0.593750
vt 0.125000 0.687500
vt 0.375000 0.687500
vt 0.375000 0.593750
vt 0.312500 0.500000
vt 0.312500 0.468750
vt 0.500000 0.875000
vt 0.500000 0.843750
vt 0.625000 0.875000
vt 0.625000 0.843750
vt 0.375000 1.000000
vt 0.375000 0.906250
vt 0.468750 1.000000
vt 0.468750 0.906250
vt 0.375000 0.875000
vt 0.375000 0.781250
vt 0.468750 0.875000
vt 0.468750 0.781250
vt 0.000000 0.906250
s 0
usemtl Material_0
f 1/1/1 3/2/1 2/3/1
f 3/2/1 4/4/1 2/3/1
f 5/5/2 7/6/2 6/7/2
f 7/6/2 8/8/2 6/7/2
f 9/9/3 11/10/3 10/11/3
f 11/10/3 12/12/3 10/11/3
f 13/13/4 15/14/4 14/10/4
f 15/14/4 16/9/4 14/10/4
f 17/15/5 19/16/5 18/17/5
f 19/16/5 20/18/5 18/17/5
f 21/19/6 23/20/6 22/21/6
f 23/20/6 24/22/6 22/21/6
f 25/11/1 27/23/1 26/24/1
f 27/23/1 28/25/1 26/24/1
f 29/24/2 31/25/2 30/26/2
f 31/25/2 32/27/2 30/26/2
f 33/28/7 35/29/7 34/14/7
f 35/29/7 36/13/7 34/14/7
f 37/30/8 39/31/8 38/32/8
f 39/31/8 40/5/8 38/32/8
f 41/33/9 43/34/9 42/35/9
f 43/34/9 44/36/9 42/35/9
f 45/37/10 47/38/10 46/39/10
f 47/38/10 48/40/10 46/39/10
f 49/41/1 51/42/1 50/43/1
f 51/42/1 52/44/1 50/43/1
f 53/45/2 55/46/2 54/47/2
f 55/46/2 56/48/2 54/47/2
f 57/49/3 59/50/3 58/51/3
f 59/50/3 60/52/3 58/51/3
f 61/53/4 63/54/4 62/50/4
f 63/54/4 64/49/4 62/50/4
f 65/7/5 67/8/5 66/55/5
f 67/8/5 68/56/5 66/55/5
f 69/57/6 71/58/6 70/59/6
f 71/58/6 72/60/6 70/59/6
f 73/61/1 75/62/1 74/63/1
f 75/62/1 76/64/1 74/63/1
f 77/65/2 79/66/2 78/67/2
f 79/66/2 80/68/2 78/67/2
f 81/69/3 83/12/3 82/69/3
f 83/12/3 84/12/3 82/69/3
f 85/12/4 87/69/4 86/12/4
f 87/69/4 88/69/4 86/12/4
f 89/12/5 91/69/5 90/12/5
f 91/69/5 92/69/5 90/12/5
f 93/12/6 95/69/6 94/12/6
f 95/69/6 96/69/6 94/12/6
