# Blender 5.0.1
# www.blender.org
mtllib lev.sa58lstock.mtl
o attachmentModel
v 0.961538 1.346154 0.192308
v 0.961538 1.346154 -0.576923
v 0.961538 -0.961538 0.192308
v 0.961538 -0.961538 -0.576923
v 0.192308 1.346154 -0.576923
v 0.192308 1.346154 0.192308
v 0.192308 -0.961538 -0.576923
v 0.192308 -0.961538 0.192308
v 0.192308 1.346154 -0.576923
v 0.961538 1.346154 -0.576923
v 0.192308 1.346154 0.192308
v 0.961538 1.346154 0.192308
v 0.192308 -0.961538 0.192308
v 0.961538 -0.961538 0.192308
v 0.192308 -0.961538 -0.576923
v 0.961538 -0.961538 -0.576923
v 0.192308 1.346154 0.192308
v 0.961538 1.346154 0.192308
v 0.192308 -0.961538 0.192308
v 0.961538 -0.961538 0.192308
v 0.961538 1.346154 -0.576923
v 0.192308 1.346154 -0.576923
v 0.961538 -0.961538 -0.576923
v 0.192308 -0.961538 -0.576923
v 0.145648 0.961538 1.008198
v 0.961540 0.961538 0.192306
v 0.145648 -0.576923 1.008198
v 0.961540 -0.576923 0.192306
v 0.417612 0.961538 -0.351622
v -0.398281 0.961538 0.464270
v 0.417612 -0.576923 -0.351622
v -0.398281 -0.576923 0.464270
v 0.417612 0.961538 -0.351622
v 0.961540 0.961538 0.192306
v -0.398281 0.961538 0.464270
v 0.145648 0.961538 1.008198
v -0.398281 -0.576923 0.464270
v 0.145648 -0.576923 1.008198
v 0.417612 -0.576923 -0.351622
v 0.961540 -0.576923 0.192306
v -0.398281 0.961538 0.464270
v 0.145648 0.961538 1.008198
v -0.398281 -0.576923 0.464270
v 0.145648 -0.576923 1.008198
v 0.961540 0.961538 0.192306
v 0.417612 0.961538 -0.351622
v 0.961540 -0.576923 0.192306
v 0.417612 -0.576923 -0.351622
v 0.384615 0.769231 6.538462
v 0.384615 0.769231 1.538462
v 0.384615 0.000000 6.538462
v 0.384615 0.000000 1.538462
v -0.384615 0.769231 1.538462
v -0.384615 0.769231 6.538462
v -0.384615 0.000000 1.538462
v -0.384615 0.000000 6.538462
v -0.384615 0.769231 1.538462
v 0.384615 0.769231 1.538462
v -0.384615 0.769231 6.538462
v 0.384615 0.769231 6.538462
v -0.384615 0.000000 6.538462
v 0.384615 0.000000 6.538462
v -0.384615 0.000000 1.538462
v 0.384615 0.000000 1.538462
v -0.384615 0.769231 6.538462
v 0.384615 0.769231 6.538462
v -0.384615 0.000000 6.538462
v 0.384615 0.000000 6.538462
v 0.384615 0.769231 1.538462
v -0.384615 0.769231 1.538462
v 0.384615 0.000000 1.538462
v -0.384615 0.000000 1.538462
v 0.384615 -0.384615 3.461539
v 0.384615 -0.384615 1.538462
v 0.384615 -1.153846 3.461539
v 0.384615 -1.153846 1.538462
v -0.384615 -0.384615 1.538462
v -0.384615 -0.384615 3.461539
v -0.384615 -1.153846 1.538462
v -0.384615 -1.153846 3.461539
v -0.384615 -0.384615 1.538462
v 0.384615 -0.384615 1.538462
v -0.384615 -0.384615 3.461539
v 0.384615 -0.384615 3.461539
v -0.384615 -1.153846 3.461539
v 0.384615 -1.153846 3.461539
v -0.384615 -1.153846 1.538462
v 0.384615 -1.153846 1.538462
v -0.384615 -0.384615 3.461539
v 0.384615 -0.384615 3.461539
v -0.384615 -1.153846 3.461539
v 0.384615 -1.153846 3.461539
v 0.384615 -0.384615 1.538462
v -0.384615 -0.384615 1.538462
v 0.384615 -1.153846 1.538462
v -0.384615 -1.153846 1.538462
v 0.376923 0.565102 2.190584
v 0.376923 1.153846 0.769231
v 0.376923 0.209764 2.043398
v 0.376923 0.798508 0.622045
v -0.376923 1.153846 0.769231
v -0.376923 0.565102 2.190584
v -0.376923 0.798508 0.622045
v -0.376923 0.209764 2.043398
v -0.376923 1.153846 0.769231
v 0.376923 1.153846 0.769231
v -0.376923 0.565102 2.190584
v 0.376923 0.565102 2.190584
v -0.376923 0.209764 2.043398
v 0.376923 0.209764 2.043398
v -0.376923 0.798508 0.622045
v 0.376923 0.798508 0.622045
v -0.376923 0.565102 2.190584
v 0.376923 0.565102 2.190584
v -0.376923 0.209764 2.043398
v 0.376923 0.209764 2.043398
v 0.376923 1.153846 0.769231
v -0.376923 1.153846 0.769231
v 0.376923 0.798508 0.622045
v -0.376923 0.798508 0.622045
v 0.384615 1.153846 0.769231
v 0.384615 1.153846 0.000000
v 0.384615 -0.769231 0.769231
v 0.384615 -0.769231 0.000000
v -0.384615 1.153846 0.000000
v -0.384615 1.153846 0.769231
v -0.384615 -0.769231 0.000000
v -0.384615 -0.769231 0.769231
v -0.384615 1.153846 0.000000
v 0.384615 1.153846 0.000000
v -0.384615 1.153846 0.769231
v 0.384615 1.153846 0.769231
v -0.384615 -0.769231 0.769231
v 0.384615 -0.769231 0.769231
v -0.384615 -0.769231 0.000000
v 0.384615 -0.769231 0.000000
v -0.384615 1.153846 0.769231
v 0.384615 1.153846 0.769231
v -0.384615 -0.769231 0.769231
v 0.384615 -0.769231 0.769231
v 0.384615 1.153846 0.000000
v -0.384615 1.153846 0.000000
v 0.384615 -0.769231 0.000000
v -0.384615 -0.769231 0.000000
v 0.384615 0.769231 1.538462
v 0.384615 0.769231 0.769231
v 0.384615 -1.153846 1.538462
v 0.384615 -1.153846 0.769231
v -0.384615 0.769231 0.769231
v -0.384615 0.769231 1.538462
v -0.384615 -1.153846 0.769231
v -0.384615 -1.153846 1.538462
v -0.384615 0.769231 0.769231
v 0.384615 0.769231 0.769231
v -0.384615 0.769231 1.538462
v 0.384615 0.769231 1.538462
v -0.384615 -1.153846 1.538462
v 0.384615 -1.153846 1.538462
v -0.384615 -1.153846 0.769231
v 0.384615 -1.153846 0.769231
v -0.384615 0.769231 1.538462
v 0.384615 0.769231 1.538462
v -0.384615 -1.153846 1.538462
v 0.384615 -1.153846 1.538462
v 0.384615 0.769231 0.769231
v -0.384615 0.769231 0.769231
v 0.384615 -1.153846 0.769231
v -0.384615 -1.153846 0.769231
v 0.000769 0.000000 3.461539
v 0.000769 0.000000 1.538462
v 0.000769 -0.384615 3.461539
v 0.000769 -0.384615 1.538462
v 0.000000 0.000000 1.538462
v 0.000000 0.000000 3.461539
v 0.000000 -0.384615 1.538462
v 0.000000 -0.384615 3.461539
v 0.000000 0.000000 1.538462
v 0.000769 0.000000 1.538462
v 0.000000 0.000000 3.461539
v 0.000769 0.000000 3.461539
v 0.000000 -0.384615 3.461539
v 0.000769 -0.384615 3.461539
v 0.000000 -0.384615 1.538462
v 0.000769 -0.384615 1.538462
v 0.000000 0.000000 3.461539
v 0.000769 0.000000 3.461539
v 0.000000 -0.384615 3.461539
v 0.000769 -0.384615 3.461539
v 0.000769 0.000000 1.538462
v 0.000000 0.000000 1.538462
v 0.000769 -0.384615 1.538462
v 0.000000 -0.384615 1.538462
v 0.383846 -1.856479 7.014921
v 0.383846 -0.384619 3.461539
v 0.383846 -2.567155 6.720550
v 0.383846 -1.095296 3.167167
v -0.383846 -0.384619 3.461539
v -0.383846 -1.856479 7.014921
v -0.383846 -1.095296 3.167167
v -0.383846 -2.567155 6.720550
v -0.383846 -0.384619 3.461539
v 0.383846 -0.384619 3.461539
v -0.383846 -1.856479 7.014921
v 0.383846 -1.856479 7.014921
v -0.383846 -2.567155 6.720550
v 0.383846 -2.567155 6.720550
v -0.383846 -1.095296 3.167167
v 0.383846 -1.095296 3.167167
v -0.383846 -1.856479 7.014921
v 0.383846 -1.856479 7.014921
v -0.383846 -2.567155 6.720550
v 0.383846 -2.567155 6.720550
v 0.383846 -0.384619 3.461539
v -0.383846 -0.384619 3.461539
v 0.383846 -1.095296 3.167167
v -0.383846 -1.095296 3.167167
v 0.576923 0.961538 7.307693
v 0.576923 0.961538 6.538462
v 0.576923 -2.884615 7.307693
v 0.576923 -2.884615 6.538462
v -0.576923 0.961538 6.538462
v -0.576923 0.961538 7.307693
v -0.576923 -2.884615 6.538462
v -0.576923 -2.884615 7.307693
v -0.576923 0.961538 6.538462
v 0.576923 0.961538 6.538462
v -0.576923 0.961538 7.307693
v 0.576923 0.961538 7.307693
v -0.576923 -2.884615 7.307693
v 0.576923 -2.884615 7.307693
v -0.576923 -2.884615 6.538462
v 0.576923 -2.884615 6.538462
v -0.576923 0.961538 7.307693
v 0.576923 0.961538 7.307693
v -0.576923 -2.884615 7.307693
v 0.576923 -2.884615 7.307693
v 0.576923 0.961538 6.538462
v -0.576923 0.961538 6.538462
v 0.576923 -2.884615 6.538462
v -0.576923 -2.884615 6.538462
vn 1.0000 -0.0000 -0.0000
vn -1.0000 -0.0000 -0.0000
vn -0.0000 1.0000 -0.0000
vn -0.0000 -1.0000 -0.0000
vn -0.0000 -0.0000 1.0000
vn -0.0000 -0.0000 -1.0000
vn 0.7071 -0.0000 0.7071
vn -0.7071 -0.0000 -0.7071
vn -0.7071 -0.0000 0.7071
vn 0.7071 -0.0000 -0.7071
vn -0.0000 0.9239 0.3827
vn -0.0000 -0.9239 -0.3827
vn -0.0000 -0.3827 0.9239
vn -0.0000 0.3827 -0.9239
vt 0.437500 0.750000
vt 0.437500 0.562500
vt 0.500000 0.750000
vt 0.500000 0.562500
vt 0.437500 0.375000
vt 0.500000 0.375000
vt 0.062500 0.187500
vt 0.062500 0.250000
vt 0.000000 0.187500
vt 0.000000 0.250000
vt 0.812500 1.000000
vt 0.812500 0.937500
vt 0.750000 1.000000
vt 0.750000 0.937500
vt 0.375000 0.562500
vt 0.375000 0.375000
vt 0.375000 0.750000
vt 0.500000 0.625000
vt 0.593750 0.750000
vt 0.593750 0.625000
vt 0.500000 0.500000
vt 0.593750 0.500000
vt 0.750000 0.656250
vt 0.750000 0.750000
vt 0.687500 0.656250
vt 0.687500 0.750000
vt 0.750000 0.625000
vt 0.750000 0.531250
vt 0.687500 0.625000
vt 0.687500 0.531250
vt 0.625000 0.375000
vt 0.625000 0.250000
vt 0.687500 0.375000
vt 0.687500 0.250000
vt 0.562500 0.375000
vt 0.562500 0.250000
vt 0.250000 1.000000
vt 0.250000 0.937500
vt 0.656250 1.000000
vt 0.656250 0.937500
vt 0.250000 0.875000
vt 0.656250 0.875000
vt 0.312500 0.468750
vt 0.312500 0.875000
vt 0.250000 0.468750
vt 0.062500 0.687500
vt 0.062500 0.281250
vt 0.000000 0.687500
vt 0.000000 0.281250
vt 0.750000 0.875000
vt 0.750000 0.812500
vt 0.812500 0.875000
vt 0.812500 0.812500
vt 0.500000 0.437500
vt 0.656250 0.500000
vt 0.656250 0.437500
vt 0.656250 0.375000
vt 0.312500 0.281250
vt 0.312500 0.437500
vt 0.250000 0.281250
vt 0.250000 0.437500
vt 0.375000 0.437500
vt 0.375000 0.281250
vt 0.250000 0.250000
vt 0.250000 0.187500
vt 0.312500 0.250000
vt 0.312500 0.187500
vt 0.812500 0.750000
vt 0.750000 0.718750
vt 0.875000 0.750000
vt 0.875000 0.718750
vt 0.750000 0.687500
vt 0.875000 0.687500
vt 0.875000 0.656250
vt 0.687500 0.875000
vt 0.687500 1.000000
vt 0.000000 0.156250
vt 0.062500 0.156250
vt 0.750000 0.250000
vt 0.750000 0.218750
vt 0.812500 0.250000
vt 0.812500 0.218750
vt 0.125000 0.375000
vt 0.125000 0.218750
vt 0.187500 0.375000
vt 0.187500 0.218750
vt 0.250000 0.375000
vt 0.250000 0.218750
vt 0.375000 0.187500
vt 0.375000 0.250000
vt 0.812500 0.625000
vt 0.812500 0.562500
vt 0.750000 0.562500
vt 0.625000 0.875000
vt 0.625000 0.718750
vt 0.687500 0.718750
vt 0.062500 0.375000
vt 0.062500 0.218750
vt 0.375000 0.218750
vt 0.437500 0.218750
vt 0.500000 0.218750
vt 0.562500 0.218750
vt 0.812500 0.500000
vt 0.750000 0.500000
vt 0.625000 0.187500
vt 0.562500 0.187500
vt 0.625000 0.687500
vt 0.625000 0.531250
vt 0.687500 0.687500
vt 0.687500 0.343750
vt 0.843750 0.375000
vt 0.843750 0.343750
vt 0.687500 0.312500
vt 0.687500 0.281250
vt 0.843750 0.312500
vt 0.843750 0.281250
vt 0.000000 0.843750
vt 0.000000 1.000000
vt 0.000000 0.968750
vt 0.312500 0.812500
vt 0.625000 0.812500
vt 0.312500 0.750000
vt 0.625000 0.750000
vt 0.125000 0.687500
vt 0.187500 0.687500
vt 0.687500 0.187500
vt 0.750000 0.187500
vt 0.250000 0.687500
vt 0.781250 0.437500
vt 0.781250 0.500000
vt 0.687500 0.437500
vt 0.687500 0.500000
vt 0.781250 0.375000
vt 0.125000 1.000000
vt 0.218750 1.000000
vt 0.218750 0.687500
vt 0.093750 1.000000
vt 0.093750 0.687500
s 0
usemtl Material_0.001
f 1/1/1 3/2/1 2/3/1
f 3/2/1 4/4/1 2/3/1
f 5/2/2 7/5/2 6/4/2
f 7/5/2 8/6/2 6/4/2
f 9/7/3 11/8/3 10/9/3
f 11/8/3 12/10/3 10/9/3
f 13/11/4 15/12/4 14/13/4
f 15/12/4 16/14/4 14/13/4
f 17/15/5 19/16/5 18/2/5
f 19/16/5 20/5/5 18/2/5
f 21/17/6 23/15/6 22/1/6
f 23/15/6 24/2/6 22/1/6
f 25/3/7 27/18/7 26/19/7
f 27/18/7 28/20/7 26/19/7
f 29/18/8 31/21/8 30/20/8
f 31/21/8 32/22/8 30/20/8
f 33/23/3 35/24/3 34/25/3
f 35/24/3 36/26/3 34/25/3
f 37/27/4 39/28/4 38/29/4
f 39/28/4 40/30/4 38/29/4
f 41/31/9 43/32/9 42/33/9
f 43/32/9 44/34/9 42/33/9
f 45/35/10 47/36/10 46/31/10
f 47/36/10 48/32/10 46/31/10
f 49/37/1 51/38/1 50/39/1
f 51/38/1 52/40/1 50/39/1
f 53/38/2 55/41/2 54/40/2
f 55/41/2 56/42/2 54/40/2
f 57/43/3 59/44/3 58/45/3
f 59/44/3 60/41/3 58/45/3
f 61/46/4 63/47/4 62/48/4
f 63/47/4 64/49/4 62/48/4
f 65/50/5 67/51/5 66/52/5
f 67/51/5 68/53/5 66/52/5
f 69/14/6 71/50/6 70/12/6
f 71/50/6 72/52/6 70/12/6
f 73/21/1 75/54/1 74/55/1
f 75/54/1 76/56/1 74/55/1
f 77/54/2 79/6/2 78/56/2
f 79/6/2 80/57/2 78/56/2
f 81/58/3 83/59/3 82/60/3
f 83/59/3 84/61/3 82/60/3
f 85/62/4 87/63/4 86/59/4
f 87/63/4 88/58/4 86/59/4
f 89/64/5 91/65/5 90/66/5
f 91/65/5 92/67/5 90/66/5
f 93/51/6 95/24/6 94/53/6
f 95/24/6 96/68/6 94/53/6
f 97/24/1 99/69/1 98/70/1
f 99/69/1 100/71/1 98/70/1
f 101/72/2 103/23/2 102/73/2
f 103/23/2 104/74/2 102/73/2
f 105/50/11 107/13/11 106/75/11
f 107/13/11 108/76/11 106/75/11
f 109/50/12 111/24/12 110/75/12
f 111/24/12 112/26/12 110/75/12
f 113/9/13 115/77/13 114/7/13
f 115/77/13 116/78/13 114/7/13
f 117/79/14 119/80/14 118/81/14
f 119/80/14 120/82/14 118/81/14
f 121/83/1 123/84/1 122/85/1
f 123/84/1 124/86/1 122/85/1
f 125/85/2 127/86/2 126/87/2
f 127/86/2 128/88/2 126/87/2
f 129/89/3 131/90/3 130/67/3
f 131/90/3 132/66/3 130/67/3
f 133/91/4 135/92/4 134/27/4
f 135/92/4 136/93/4 134/27/4
f 137/94/5 139/95/5 138/75/5
f 139/95/5 140/96/5 138/75/5
f 141/97/6 143/98/6 142/83/6
f 143/98/6 144/84/6 142/83/6
f 145/16/1 147/99/1 146/5/1
f 147/99/1 148/100/1 146/5/1
f 149/6/2 151/101/2 150/35/2
f 151/101/2 152/102/2 150/35/2
f 153/103/3 155/92/3 154/104/3
f 155/92/3 156/93/3 154/104/3
f 157/32/4 159/105/4 158/36/4
f 159/105/4 160/106/4 158/36/4
f 161/5/5 163/100/5 162/6/5
f 163/100/5 164/101/5 162/6/5
f 165/107/6 167/108/6 166/109/6
f 167/108/6 168/30/6 166/109/6
f 169/33/1 171/110/1 170/111/1
f 171/110/1 172/112/1 170/111/1
f 173/113/2 175/114/2 174/115/2
f 175/114/2 176/116/2 174/115/2
f 177/117/3 179/118/3 178/117/3
f 179/118/3 180/118/3 178/117/3
f 181/118/4 183/117/4 182/118/4
f 183/117/4 184/117/4 182/118/4
f 185/118/5 187/119/5 186/118/5
f 187/119/5 188/119/5 186/118/5
f 189/118/6 191/119/6 190/118/6
f 191/119/6 192/119/6 190/118/6
f 193/44/1 195/120/1 194/94/1
f 195/120/1 196/121/1 194/94/1
f 197/120/2 199/122/2 198/121/2
f 199/122/2 200/123/2 198/121/2
f 201/83/11 203/124/11 202/97/11
f 203/124/11 204/46/11 202/97/11
f 205/125/12 207/85/12 206/124/12
f 207/85/12 208/83/12 206/124/12
f 209/34/13 211/126/13 210/79/13
f 211/126/13 212/127/13 210/79/13
f 213/32/14 215/105/14 214/34/14
f 215/105/14 216/126/14 214/34/14
f 217/125/1 219/85/1 218/128/1
f 219/85/1 220/87/1 218/128/1
f 221/122/2 223/59/2 222/17/2
f 223/59/2 224/62/2 222/17/2
f 225/129/3 227/130/3 226/131/3
f 227/130/3 228/132/3 226/131/3
f 229/129/4 231/133/4 230/131/4
f 231/133/4 232/33/4 230/131/4
f 233/134/5 235/124/5 234/135/5
f 235/124/5 236/136/5 234/135/5
f 237/118/6 239/48/6 238/137/6
f 239/48/6 240/138/6 238/137/6
