# Blender 5.0.1
# www.blender.org
mtllib lev.pkstock.mtl
o attachmentModel
v 0.769231 0.769231 2.307692
v 0.769231 0.769231 0.000000
v 0.769231 -0.769231 2.307692
v 0.769231 -0.769231 0.000000
v -0.769231 0.769231 0.000000
v -0.769231 0.769231 2.307692
v -0.769231 -0.769231 0.000000
v -0.769231 -0.769231 2.307692
v -0.769231 0.769231 0.000000
v 0.769231 0.769231 0.000000
v -0.769231 0.769231 2.307692
v 0.769231 0.769231 2.307692
v -0.769231 -0.769231 2.307692
v 0.769231 -0.769231 2.307692
v -0.769231 -0.769231 0.000000
v 0.769231 -0.769231 0.000000
v -0.769231 0.769231 2.307692
v 0.769231 0.769231 2.307692
v -0.769231 -0.769231 2.307692
v 0.769231 -0.769231 2.307692
v 0.769231 0.769231 0.000000
v -0.769231 0.769231 0.000000
v 0.769231 -0.769231 0.000000
v -0.769231 -0.769231 0.000000
v 0.576923 -1.153846 5.769231
v 0.576923 -1.153846 3.076923
v 0.576923 -1.923077 5.769231
v 0.576923 -1.923077 3.076923
v -0.576923 -1.153846 3.076923
v -0.576923 -1.153846 5.769231
v -0.576923 -1.923077 3.076923
v -0.576923 -1.923077 5.769231
v -0.576923 -1.153846 3.076923
v 0.576923 -1.153846 3.076923
v -0.576923 -1.153846 5.769231
v 0.576923 -1.153846 5.769231
v -0.576923 -1.923077 5.769231
v 0.576923 -1.923077 5.769231
v -0.576923 -1.923077 3.076923
v 0.576923 -1.923077 3.076923
v -0.576923 -1.153846 5.769231
v 0.576923 -1.153846 5.769231
v -0.576923 -1.923077 5.769231
v 0.576923 -1.923077 5.769231
v 0.576923 -1.153846 3.076923
v -0.576923 -1.153846 3.076923
v 0.576923 -1.923077 3.076923
v -0.576923 -1.923077 3.076923
v 0.576154 -1.505474 3.620854
v 0.576154 0.398275 1.717106
v 0.576154 -2.321367 2.804962
v 0.576154 -0.417617 0.901213
v -0.576154 0.398275 1.717106
v -0.576154 -1.505474 3.620854
v -0.576154 -0.417617 0.901213
v -0.576154 -2.321367 2.804962
v -0.576154 0.398275 1.717106
v 0.576154 0.398275 1.717106
v -0.576154 -1.505474 3.620854
v 0.576154 -1.505474 3.620854
v -0.576154 -2.321367 2.804962
v 0.576154 -2.321367 2.804962
v -0.576154 -0.417617 0.901213
v 0.576154 -0.417617 0.901213
v -0.576154 -1.505474 3.620854
v 0.576154 -1.505474 3.620854
v -0.576154 -2.321367 2.804962
v 0.576154 -2.321367 2.804962
v 0.576154 0.398275 1.717106
v -0.576154 0.398275 1.717106
v 0.576154 -0.417617 0.901213
v -0.576154 -0.417617 0.901213
v 0.576923 1.153846 7.307693
v 0.576923 1.153846 5.769231
v 0.576923 -2.307692 7.307693
v 0.576923 -2.307692 5.769231
v -0.576923 1.153846 5.769231
v -0.576923 1.153846 7.307693
v -0.576923 -2.307692 5.769231
v -0.576923 -2.307692 7.307693
v -0.576923 1.153846 5.769231
v 0.576923 1.153846 5.769231
v -0.576923 1.153846 7.307693
v 0.576923 1.153846 7.307693
v -0.576923 -2.307692 7.307693
v 0.576923 -2.307692 7.307693
v -0.576923 -2.307692 5.769231
v 0.576923 -2.307692 5.769231
v -0.576923 1.153846 7.307693
v 0.576923 1.153846 7.307693
v -0.576923 -2.307692 7.307693
v 0.576923 -2.307692 7.307693
v 0.576923 1.153846 5.769231
v -0.576923 1.153846 5.769231
v 0.576923 -2.307692 5.769231
v -0.576923 -2.307692 5.769231
v 0.576923 1.153846 5.769231
v 0.576923 1.153846 1.538462
v 0.576923 0.384615 5.769231
v 0.576923 0.384615 1.538462
v -0.576923 1.153846 1.538462
v -0.576923 1.153846 5.769231
v -0.576923 0.384615 1.538462
v -0.576923 0.384615 5.769231
v -0.576923 1.153846 1.538462
v 0.576923 1.153846 1.538462
v -0.576923 1.153846 5.769231
v 0.576923 1.153846 5.769231
v -0.576923 0.384615 5.769231
v 0.576923 0.384615 5.769231
v -0.576923 0.384615 1.538462
v 0.576923 0.384615 1.538462
v -0.576923 1.153846 5.769231
v 0.576923 1.153846 5.769231
v -0.576923 0.384615 5.769231
v 0.576923 0.384615 5.769231
v 0.576923 1.153846 1.538462
v -0.576923 1.153846 1.538462
v 0.576923 0.384615 1.538462
v -0.576923 0.384615 1.538462
vn 1.0000 -0.0000 -0.0000
vn -1.0000 -0.0000 -0.0000
vn -0.0000 1.0000 -0.0000
vn -0.0000 -1.0000 -0.0000
vn -0.0000 -0.0000 1.0000
vn -0.0000 -0.0000 -1.0000
vn -0.0000 0.7071 0.7071
vn -0.0000 -0.7071 -0.7071
vn -0.0000 -0.7071 0.7071
vn -0.0000 0.7071 -0.7071
vt 0.250000 0.625000
vt 0.250000 0.500000
vt 0.437500 0.625000
vt 0.437500 0.500000
vt 0.437500 0.687500
vt 0.437500 0.562500
vt 0.625000 0.687500
vt 0.625000 0.562500
vt 0.562500 0.375000
vt 0.562500 0.562500
vt 0.437500 0.375000
vt 0.625000 1.000000
vt 0.625000 0.812500
vt 0.500000 1.000000
vt 0.500000 0.812500
vt 0.687500 0.562500
vt 0.687500 0.437500
vt 0.812500 0.562500
vt 0.812500 0.437500
vt 0.000000 0.312500
vt 0.000000 0.187500
vt 0.125000 0.312500
vt 0.125000 0.187500
vt 0.625000 0.875000
vt 0.843750 0.875000
vt 0.843750 0.812500
vt 0.500000 0.312500
vt 0.500000 0.250000
vt 0.718750 0.312500
vt 0.718750 0.250000
vt 0.343750 0.281250
vt 0.343750 0.500000
vt 0.250000 0.281250
vt 0.656250 0.562500
vt 0.656250 0.343750
vt 0.562500 0.343750
vt 0.750000 0.250000
vt 0.750000 0.187500
vt 0.843750 0.250000
vt 0.843750 0.187500
vt 0.750000 0.312500
vt 0.843750 0.312500
vt 0.625000 0.906250
vt 0.843750 1.000000
vt 0.843750 0.906250
vt 0.625000 0.593750
vt 0.843750 0.687500
vt 0.843750 0.593750
vt 0.218750 0.156250
vt 0.218750 0.375000
vt 0.125000 0.156250
vt 0.125000 0.375000
vt 0.468750 0.375000
vt 0.468750 0.156250
vt 0.375000 0.375000
vt 0.375000 0.156250
vt 0.625000 0.250000
vt 0.625000 0.156250
vt 0.718750 0.156250
vt 0.500000 0.156250
vt 0.593750 0.250000
vt 0.593750 0.156250
vt 0.000000 1.000000
vt 0.000000 0.718750
vt 0.125000 1.000000
vt 0.125000 0.718750
vt 0.250000 1.000000
vt 0.250000 0.718750
vt 0.781250 0.312500
vt 0.781250 0.437500
vt 0.687500 0.312500
vt 0.343750 0.250000
vt 0.343750 0.125000
vt 0.250000 0.250000
vt 0.250000 0.125000
vt 0.375000 1.000000
vt 0.375000 0.718750
vt 0.468750 1.000000
vt 0.468750 0.718750
vt 0.125000 0.687500
vt 0.125000 0.406250
vt 0.218750 0.687500
vt 0.218750 0.406250
vt 0.500000 0.750000
vt 0.843750 0.750000
vt 0.500000 0.687500
vt 0.343750 0.656250
vt 0.343750 1.000000
vt 0.250000 0.656250
vt 0.093750 0.687500
vt 0.093750 0.343750
vt 0.000000 0.687500
vt 0.000000 0.343750
vt 0.812500 0.500000
vt 0.906250 0.562500
vt 0.906250 0.500000
vt 0.000000 0.125000
vt 0.093750 0.187500
vt 0.093750 0.125000
s 0
usemtl Material_0.002
f 1/1/1 3/2/1 2/3/1
f 3/2/1 4/4/1 2/3/1
f 5/5/2 7/6/2 6/7/2
f 7/6/2 8/8/2 6/7/2
f 9/9/3 11/10/3 10/11/3
f 11/10/3 12/6/3 10/11/3
f 13/12/4 15/13/4 14/14/4
f 15/13/4 16/15/4 14/14/4
f 17/16/5 19/17/5 18/18/5
f 19/17/5 20/19/5 18/18/5
f 21/20/6 23/21/6 22/22/6
f 23/21/6 24/23/6 22/22/6
f 25/24/1 27/13/1 26/25/1
f 27/13/1 28/26/1 26/25/1
f 29/27/2 31/28/2 30/29/2
f 31/28/2 32/30/2 30/29/2
f 33/31/3 35/32/3 34/33/3
f 35/32/3 36/2/3 34/33/3
f 37/34/4 39/35/4 38/10/4
f 39/35/4 40/36/4 38/10/4
f 41/37/5 43/38/5 42/39/5
f 43/38/5 44/40/5 42/39/5
f 45/41/6 47/37/6 46/42/6
f 47/37/6 48/39/6 46/42/6
f 49/12/1 51/43/1 50/44/1
f 51/43/1 52/45/1 50/44/1
f 53/7/2 55/46/2 54/47/2
f 55/46/2 56/48/2 54/47/2
f 57/49/7 59/50/7 58/51/7
f 59/50/7 60/52/7 58/51/7
f 61/53/8 63/54/8 62/55/8
f 63/54/8 64/56/8 62/55/8
f 65/57/9 67/58/9 66/30/9
f 67/58/9 68/59/9 66/30/9
f 69/28/10 71/60/10 70/61/10
f 71/60/10 72/62/10 70/61/10
f 73/63/1 75/64/1 74/65/1
f 75/64/1 76/66/1 74/65/1
f 77/65/2 79/66/2 78/67/2
f 79/66/2 80/68/2 78/67/2
f 81/69/3 83/70/3 82/71/3
f 83/70/3 84/17/3 82/71/3
f 85/72/4 87/73/4 86/74/4
f 87/73/4 88/75/4 86/74/4
f 89/76/5 91/77/5 90/78/5
f 91/77/5 92/79/5 90/78/5
f 93/80/6 95/81/6 94/82/6
f 95/81/6 96/83/6 94/82/6
f 97/15/1 99/84/1 98/26/1
f 99/84/1 100/85/1 98/26/1
f 101/84/2 103/86/2 102/85/2
f 103/86/2 104/47/2 102/85/2
f 105/87/3 107/88/3 106/89/3
f 107/88/3 108/67/3 106/89/3
f 109/90/4 111/91/4 110/92/4
f 111/91/4 112/93/4 110/92/4
f 113/18/5 115/94/5 114/95/5
f 115/94/5 116/96/5 114/95/5
f 117/21/6 119/97/6 118/98/6
f 119/97/6 120/99/6 118/98/6
