# Blender 4.3.2
# www.blender.org
mtllib lev.svdsstock.mtl
o attachmentModel
v -1.538461 0.576923 0.576923
v 0.000000 0.576923 0.576923
v -1.538461 -0.576923 0.576923
v 0.000000 -0.576923 0.576923
v -0.000000 0.576923 -0.576923
v -1.538461 0.576923 -0.576923
v -0.000000 -0.576923 -0.576923
v -1.538461 -0.576923 -0.576923
v -0.000000 0.576923 -0.576923
v 0.000000 0.576923 0.576923
v -1.538461 0.576923 -0.576923
v -1.538461 0.576923 0.576923
v -1.538461 -0.576923 -0.576923
v -1.538461 -0.576923 0.576923
v -0.000000 -0.576923 -0.576923
v 0.000000 -0.576923 0.576923
v -1.538461 0.576923 -0.576923
v -1.538461 0.576923 0.576923
v -1.538461 -0.576923 -0.576923
v -1.538461 -0.576923 0.576923
v 0.000000 0.576923 0.576923
v -0.000000 0.576923 -0.576923
v 0.000000 -0.576923 0.576923
v -0.000000 -0.576923 -0.576923
v -5.000000 0.192308 0.384616
v -1.538461 0.192308 0.384615
v -5.000000 -0.576923 0.384616
v -1.538461 -0.576923 0.384615
v -1.538461 0.192308 -0.384615
v -5.000000 0.192308 -0.384615
v -1.538461 -0.576923 -0.384615
v -5.000000 -0.576923 -0.384615
v -1.538461 0.192308 -0.384615
v -1.538461 0.192308 0.384615
v -5.000000 0.192308 -0.384615
v -5.000000 0.192308 0.384616
v -5.000000 -0.576923 -0.384615
v -5.000000 -0.576923 0.384616
v -1.538461 -0.576923 -0.384615
v -1.538461 -0.576923 0.384615
v -5.000000 0.192308 -0.384615
v -5.000000 0.192308 0.384616
v -5.000000 -0.576923 -0.384615
v -5.000000 -0.576923 0.384616
v -1.538461 0.192308 0.384615
v -1.538461 0.192308 -0.384615
v -1.538461 -0.576923 0.384615
v -1.538461 -0.576923 -0.384615
v -6.063602 -2.173939 0.383846
v -0.378190 0.181036 0.383846
v -5.769230 -2.884616 0.383846
v -0.083818 -0.529640 0.383846
v -0.378190 0.181036 -0.383846
v -6.063602 -2.173939 -0.383846
v -0.083818 -0.529640 -0.383846
v -5.769230 -2.884616 -0.383846
v -0.378190 0.181036 -0.383846
v -0.378190 0.181036 0.383846
v -6.063602 -2.173939 -0.383846
v -6.063602 -2.173939 0.383846
v -5.769230 -2.884616 -0.383846
v -5.769230 -2.884616 0.383846
v -0.083818 -0.529640 -0.383846
v -0.083818 -0.529640 0.383846
v -6.063602 -2.173939 -0.383846
v -6.063602 -2.173939 0.383846
v -5.769230 -2.884616 -0.383846
v -5.769230 -2.884616 0.383846
v -0.378190 0.181036 0.383846
v -0.378190 0.181036 -0.383846
v -0.083818 -0.529640 0.383846
v -0.083818 -0.529640 -0.383846
v -6.923077 0.576923 0.576923
v -5.000000 0.576923 0.576923
v -6.923077 -0.576923 0.576923
v -5.000000 -0.576923 0.576923
v -5.000000 0.576923 -0.576923
v -6.923077 0.576923 -0.576923
v -5.000000 -0.576923 -0.576923
v -6.923077 -0.576923 -0.576923
v -5.000000 0.576923 -0.576923
v -5.000000 0.576923 0.576923
v -6.923077 0.576923 -0.576923
v -6.923077 0.576923 0.576923
v -6.923077 -0.576923 -0.576923
v -6.923077 -0.576923 0.576923
v -5.000000 -0.576923 -0.576923
v -5.000000 -0.576923 0.576923
v -6.923077 0.576923 -0.576923
v -6.923077 0.576923 0.576923
v -6.923077 -0.576923 -0.576923
v -6.923077 -0.576923 0.576923
v -5.000000 0.576923 0.576923
v -5.000000 0.576923 -0.576923
v -5.000000 -0.576923 0.576923
v -5.000000 -0.576923 -0.576923
v -6.923077 -0.576923 0.769231
v -4.615384 -0.576923 0.769231
v -6.923077 -1.346154 0.769231
v -4.615384 -1.346154 0.769231
v -4.615384 -0.576923 0.000000
v -6.923077 -0.576923 0.000000
v -4.615384 -1.346154 0.000000
v -6.923077 -1.346154 0.000000
v -4.615384 -0.576923 0.000000
v -4.615384 -0.576923 0.769231
v -6.923077 -0.576923 0.000000
v -6.923077 -0.576923 0.769231
v -6.923077 -1.346154 0.000000
v -6.923077 -1.346154 0.769231
v -4.615384 -1.346154 0.000000
v -4.615384 -1.346154 0.769231
v -6.923077 -0.576923 0.000000
v -6.923077 -0.576923 0.769231
v -6.923077 -1.346154 0.000000
v -6.923077 -1.346154 0.769231
v -4.615384 -0.576923 0.769231
v -4.615384 -0.576923 0.000000
v -4.615384 -1.346154 0.769231
v -4.615384 -1.346154 0.000000
v -7.692307 0.576923 0.576923
v -6.923077 0.576923 0.576923
v -7.692307 -2.884615 0.576923
v -6.923077 -2.884615 0.576923
v -6.923077 0.576923 -0.576923
v -7.692307 0.576923 -0.576923
v -6.923077 -2.884615 -0.576923
v -7.692307 -2.884615 -0.576923
v -6.923077 0.576923 -0.576923
v -6.923077 0.576923 0.576923
v -7.692307 0.576923 -0.576923
v -7.692307 0.576923 0.576923
v -7.692307 -2.884615 -0.576923
v -7.692307 -2.884615 0.576923
v -6.923077 -2.884615 -0.576923
v -6.923077 -2.884615 0.576923
v -7.692307 0.576923 -0.576923
v -7.692307 0.576923 0.576923
v -7.692307 -2.884615 -0.576923
v -7.692307 -2.884615 0.576923
v -6.923077 0.576923 0.576923
v -6.923077 0.576923 -0.576923
v -6.923077 -2.884615 0.576923
v -6.923077 -2.884615 -0.576923
v -6.923077 -2.115385 0.576923
v -5.769230 -2.115385 0.576923
v -6.923077 -2.884615 0.576923
v -5.769230 -2.884615 0.576923
v -5.769230 -2.115385 -0.576923
v -6.923077 -2.115385 -0.576923
v -5.769230 -2.884615 -0.576923
v -6.923077 -2.884615 -0.576923
v -5.769230 -2.115385 -0.576923
v -5.769230 -2.115385 0.576923
v -6.923077 -2.115385 -0.576923
v -6.923077 -2.115385 0.576923
v -6.923077 -2.884615 -0.576923
v -6.923077 -2.884615 0.576923
v -5.769230 -2.884615 -0.576923
v -5.769230 -2.884615 0.576923
v -6.923077 -2.115385 -0.576923
v -6.923077 -2.115385 0.576923
v -6.923077 -2.884615 -0.576923
v -6.923077 -2.884615 0.576923
v -5.769230 -2.115385 0.576923
v -5.769230 -2.115385 -0.576923
v -5.769230 -2.884615 0.576923
v -5.769230 -2.884615 -0.576923
v -4.807692 0.735692 0.159857
v -1.730769 0.735692 0.159857
v -4.807692 -0.352164 -0.928000
v -1.730769 -0.352164 -0.928000
v -1.730769 0.736236 0.159313
v -4.807692 0.736236 0.159313
v -1.730769 -0.351620 -0.928544
v -4.807692 -0.351620 -0.928544
v -1.730769 0.736236 0.159313
v -1.730769 0.735692 0.159857
v -4.807692 0.736236 0.159313
v -4.807692 0.735692 0.159857
v -4.807692 -0.351620 -0.928544
v -4.807692 -0.352164 -0.928000
v -1.730769 -0.351620 -0.928544
v -1.730769 -0.352164 -0.928000
v -4.807692 0.736236 0.159313
v -4.807692 0.735692 0.159857
v -4.807692 -0.351620 -0.928544
v -4.807692 -0.352164 -0.928000
v -1.730769 0.735692 0.159857
v -1.730769 0.736236 0.159313
v -1.730769 -0.352164 -0.928000
v -1.730769 -0.351620 -0.928544
vn -0.0000 -0.0000 1.0000
vn -0.0000 -0.0000 -1.0000
vn -0.0000 1.0000 -0.0000
vn -0.0000 -1.0000 -0.0000
vn -1.0000 -0.0000 -0.0000
vn 1.0000 -0.0000 -0.0000
vn -0.3827 0.9239 -0.0000
vn 0.3827 -0.9239 -0.0000
vn -0.9239 -0.3827 -0.0000
vn 0.9239 0.3827 -0.0000
vn -0.0000 -0.7071 0.7071
vn -0.0000 0.7071 -0.7071
vn -0.0000 0.7071 0.7071
vn -0.0000 -0.7072 -0.7071
vn -0.0000 -0.7071 -0.7071
vt 0.375000 1.000000
vt 0.375000 0.953125
vt 0.437500 1.000000
vt 0.437500 0.953125
vt 0.375000 0.781250
vt 0.375000 0.734375
vt 0.437500 0.781250
vt 0.437500 0.734375
vt 0.390625 0.531250
vt 0.390625 0.593750
vt 0.343750 0.531250
vt 0.343750 0.593750
vt 0.453125 0.593750
vt 0.453125 0.531250
vt 0.406250 0.593750
vt 0.406250 0.531250
vt 0.437500 0.656250
vt 0.437500 0.609375
vt 0.484375 0.656250
vt 0.484375 0.609375
vt 0.484375 0.781250
vt 0.484375 0.734375
vt 0.328125 0.718750
vt 0.328125 0.687500
vt 0.468750 0.718750
vt 0.468750 0.687500
vt 0.281250 0.687500
vt 0.281250 0.656250
vt 0.421875 0.687500
vt 0.421875 0.656250
vt 0.250000 0.562500
vt 0.250000 0.703125
vt 0.218750 0.562500
vt 0.218750 0.703125
vt 0.312500 0.609375
vt 0.312500 0.468750
vt 0.281250 0.609375
vt 0.281250 0.468750
vt 0.187500 0.500000
vt 0.187500 0.468750
vt 0.218750 0.500000
vt 0.218750 0.468750
vt 0.156250 0.500000
vt 0.156250 0.468750
vt 0.250000 0.937500
vt 0.250000 0.906250
vt 0.500000 0.937500
vt 0.500000 0.906250
vt 0.250000 0.875000
vt 0.500000 0.875000
vt 0.156250 0.750000
vt 0.125000 0.500000
vt 0.125000 0.750000
vt 0.281250 0.875000
vt 0.281250 0.625000
vt 0.250000 0.625000
vt 0.468750 0.500000
vt 0.468750 0.468750
vt 0.500000 0.500000
vt 0.500000 0.468750
vt 0.500000 0.625000
vt 0.500000 0.593750
vt 0.531250 0.625000
vt 0.531250 0.593750
vt 0.343750 0.656250
vt 0.343750 0.609375
vt 0.421875 0.609375
vt 0.000000 0.625000
vt 0.000000 0.578125
vt 0.078125 0.625000
vt 0.078125 0.578125
vt 0.421875 0.796875
vt 0.421875 0.875000
vt 0.375000 0.796875
vt 0.375000 0.875000
vt 0.203125 0.593750
vt 0.203125 0.515625
vt 0.156250 0.593750
vt 0.156250 0.515625
vt 0.062500 0.531250
vt 0.062500 0.484375
vt 0.109375 0.531250
vt 0.109375 0.484375
vt 0.000000 0.531250
vt 0.000000 0.484375
vt 0.046875 0.531250
vt 0.046875 0.484375
vt 0.000000 0.562500
vt 0.093750 0.562500
vt 0.093750 0.531250
vt 0.437500 0.968750
vt 0.531250 1.000000
vt 0.531250 0.968750
vt 0.125000 0.531250
vt 0.125000 0.625000
vt 0.093750 0.625000
vt 0.281250 0.531250
vt 0.250000 0.531250
vt 0.500000 0.656250
vt 0.531250 0.656250
vt 0.312500 0.500000
vt 0.343750 0.500000
vt 0.343750 0.468750
vt 0.343750 0.875000
vt 0.343750 0.734375
vt 0.312500 0.656250
vt 0.312500 0.515625
vt 0.343750 0.515625
vt 0.484375 0.937500
vt 0.484375 0.968750
vt 0.437500 0.937500
vt 0.515625 0.812500
vt 0.515625 0.781250
vt 0.468750 0.812500
vt 0.468750 0.781250
vt 0.281250 0.734375
vt 0.328125 0.875000
vt 0.328125 0.734375
vt 0.156250 0.609375
vt 0.203125 0.750000
vt 0.203125 0.609375
vt 0.468750 0.562500
vt 0.468750 0.531250
vt 0.515625 0.562500
vt 0.515625 0.531250
vt 0.500000 0.968750
vt 0.546875 0.968750
vt 0.546875 0.937500
vt 0.515625 0.828125
vt 0.515625 0.875000
vt 0.468750 0.828125
vt 0.468750 0.875000
vt 0.515625 0.718750
vt 0.515625 0.671875
vt 0.468750 0.671875
vt 0.515625 0.500000
vt 0.468750 0.593750
vt 0.515625 0.593750
vt 0.375000 0.937500
vt 0.250000 1.000000
vt 0.000000 0.875000
vt 0.000000 1.000000
vt 0.000000 0.937500
s 0
usemtl Material_0
f 1/1/1 3/2/1 2/3/1
f 3/2/1 4/4/1 2/3/1
f 5/5/2 7/6/2 6/7/2
f 7/6/2 8/8/2 6/7/2
f 9/9/3 11/10/3 10/11/3
f 11/10/3 12/12/3 10/11/3
f 13/13/4 15/14/4 14/15/4
f 15/14/4 16/16/4 14/15/4
f 17/17/5 19/18/5 18/19/5
f 19/18/5 20/20/5 18/19/5
f 21/7/6 23/8/6 22/21/6
f 23/8/6 24/22/6 22/21/6
f 25/23/1 27/24/1 26/25/1
f 27/24/1 28/26/1 26/25/1
f 29/27/2 31/28/2 30/29/2
f 31/28/2 32/30/2 30/29/2
f 33/31/3 35/32/3 34/33/3
f 35/32/3 36/34/3 34/33/3
f 37/35/4 39/36/4 38/37/4
f 39/36/4 40/38/4 38/37/4
f 41/39/5 43/40/5 42/41/5
f 43/40/5 44/42/5 42/41/5
f 45/43/6 47/44/6 46/39/6
f 47/44/6 48/40/6 46/39/6
f 49/45/1 51/46/1 50/47/1
f 51/46/1 52/48/1 50/47/1
f 53/46/2 55/49/2 54/48/2
f 55/49/2 56/50/2 54/48/2
f 57/43/7 59/51/7 58/52/7
f 59/51/7 60/53/7 58/52/7
f 61/54/8 63/55/8 62/49/8
f 63/55/8 64/56/8 62/49/8
f 65/57/9 67/58/9 66/59/9
f 67/58/9 68/60/9 66/59/9
f 69/61/10 71/62/10 70/63/10
f 71/62/10 72/64/10 70/63/10
f 73/65/1 75/66/1 74/30/1
f 75/66/1 76/67/1 74/30/1
f 77/68/2 79/69/2 78/70/2
f 79/69/2 80/71/2 78/70/2
f 81/72/3 83/73/3 82/74/3
f 83/73/3 84/75/3 82/74/3
f 85/76/4 87/77/4 86/78/4
f 87/77/4 88/79/4 86/78/4
f 89/80/5 91/81/5 90/82/5
f 91/81/5 92/83/5 90/82/5
f 93/84/6 95/85/6 94/86/6
f 95/85/6 96/87/6 94/86/6
f 97/88/1 99/84/1 98/89/1
f 99/84/1 100/90/1 98/89/1
f 101/3/2 103/91/2 102/92/2
f 103/91/2 104/93/2 102/92/2
f 105/94/3 107/95/3 106/90/3
f 107/95/3 108/96/3 106/90/3
f 109/55/4 111/97/4 110/56/4
f 111/97/4 112/98/4 110/56/4
f 113/99/5 115/61/5 114/100/5
f 115/61/5 116/63/5 114/100/5
f 117/101/6 119/36/6 118/102/6
f 119/36/6 120/103/6 118/102/6
f 121/104/1 123/105/1 122/75/1
f 123/105/1 124/6/1 122/75/1
f 125/106/2 127/107/2 126/65/2
f 127/107/2 128/108/2 126/65/2
f 129/109/3 131/110/3 130/111/3
f 131/110/3 132/91/3 130/111/3
f 133/112/4 135/113/4 134/114/4
f 135/113/4 136/115/4 134/114/4
f 137/54/5 139/116/5 138/117/5
f 139/116/5 140/118/5 138/117/5
f 141/51/6 143/119/6 142/120/6
f 143/119/6 144/121/6 142/120/6
f 145/122/1 147/123/1 146/124/1
f 147/123/1 148/125/1 146/124/1
f 149/126/2 151/47/2 150/127/2
f 151/47/2 152/128/2 150/127/2
f 153/129/3 155/130/3 154/131/3
f 155/130/3 156/132/3 154/131/3
f 157/133/4 159/134/4 158/25/4
f 159/134/4 160/135/4 158/25/4
f 161/123/5 163/57/5 162/125/5
f 163/57/5 164/136/5 162/125/5
f 165/137/6 167/122/6 166/138/6
f 167/122/6 168/124/6 166/138/6
f 169/1/11 171/139/11 170/140/11
f 171/139/11 172/45/11 170/140/11
f 173/140/12 175/45/12 174/1/12
f 175/45/12 176/139/12 174/1/12
f 177/141/13 179/142/13 178/141/13
f 179/142/13 180/142/13 178/141/13
f 181/142/14 183/141/14 182/142/14
f 183/141/15 184/141/15 182/142/15
f 185/142/5 187/143/5 186/142/5
f 187/143/5 188/143/5 186/142/5
f 189/142/6 191/143/6 190/142/6
f 191/143/6 192/143/6 190/142/6
