# Blender 4.4.0
# www.blender.org
mtllib lev.akstock.mtl
o attachmentModel
v 0.769231 0.769231 0.769231
v 0.769231 0.769231 0.000000
v 0.769231 -0.769231 0.769231
v 0.769231 -0.769231 0.000000
v -0.769231 0.769231 0.000000
v -0.769231 0.769231 0.769231
v -0.769231 -0.769231 0.000000
v -0.769231 -0.769231 0.769231
v -0.769231 0.769231 0.000000
v 0.769231 0.769231 0.000000
v -0.769231 0.769231 0.769231
v 0.769231 0.769231 0.769231
v -0.769231 -0.769231 0.769231
v 0.769231 -0.769231 0.769231
v -0.769231 -0.769231 0.000000
v 0.769231 -0.769231 0.000000
v -0.769231 0.769231 0.769231
v 0.769231 0.769231 0.769231
v -0.769231 -0.769231 0.769231
v 0.769231 -0.769231 0.769231
v 0.769231 0.769231 0.000000
v -0.769231 0.769231 0.000000
v 0.769231 -0.769231 0.000000
v -0.769231 -0.769231 0.000000
v 0.576154 -0.555443 3.967275
v 0.576154 0.769231 0.769231
v 0.576154 -1.976796 3.378531
v 0.576154 -0.652122 0.180487
v -0.576154 0.769231 0.769231
v -0.576154 -0.555443 3.967275
v -0.576154 -0.652122 0.180487
v -0.576154 -1.976796 3.378531
v -0.576154 0.769231 0.769231
v 0.576154 0.769231 0.769231
v -0.576154 -0.555443 3.967275
v 0.576154 -0.555443 3.967275
v -0.576154 -1.976796 3.378531
v 0.576154 -1.976796 3.378531
v -0.576154 -0.652122 0.180487
v 0.576154 -0.652122 0.180487
v -0.576154 -0.555443 3.967275
v 0.576154 -0.555443 3.967275
v -0.576154 -1.976796 3.378531
v 0.576154 -1.976796 3.378531
v 0.576154 0.769231 0.769231
v -0.576154 0.769231 0.769231
v 0.576154 -0.652122 0.180487
v -0.576154 -0.652122 0.180487
v 0.576923 -0.438331 6.455454
v 0.576923 -0.438331 3.378531
v 0.576923 -1.976792 6.455454
v 0.576923 -1.976792 3.378531
v -0.576923 -0.438331 3.378531
v -0.576923 -0.438331 6.455454
v -0.576923 -1.976792 3.378531
v -0.576923 -1.976792 6.455454
v -0.576923 -0.438331 3.378531
v 0.576923 -0.438331 3.378531
v -0.576923 -0.438331 6.455454
v 0.576923 -0.438331 6.455454
v -0.576923 -1.976792 6.455454
v 0.576923 -1.976792 6.455454
v -0.576923 -1.976792 3.378531
v 0.576923 -1.976792 3.378531
v -0.576923 -0.438331 6.455454
v 0.576923 -0.438331 6.455454
v -0.576923 -1.976792 6.455454
v 0.576923 -1.976792 6.455454
v 0.576923 -0.438331 3.378531
v -0.576923 -0.438331 3.378531
v 0.576923 -1.976792 3.378531
v -0.576923 -1.976792 3.378531
v 0.576923 0.715515 6.455454
v 0.576923 0.715515 1.840069
v 0.576923 -0.438331 6.455454
v 0.576923 -0.438331 1.840069
v -0.576923 0.715515 1.840069
v -0.576923 0.715515 6.455454
v -0.576923 -0.438331 1.840069
v -0.576923 -0.438331 6.455454
v -0.576923 0.715515 1.840069
v 0.576923 0.715515 1.840069
v -0.576923 0.715515 6.455454
v 0.576923 0.715515 6.455454
v -0.576923 -0.438331 6.455454
v 0.576923 -0.438331 6.455454
v -0.576923 -0.438331 1.840069
v 0.576923 -0.438331 1.840069
v -0.576923 0.715515 6.455454
v 0.576923 0.715515 6.455454
v -0.576923 -0.438331 6.455454
v 0.576923 -0.438331 6.455454
v 0.576923 0.715515 1.840069
v -0.576923 0.715515 1.840069
v 0.576923 -0.438331 1.840069
v -0.576923 -0.438331 1.840069
vn 1.0000 -0.0000 -0.0000
vn -1.0000 -0.0000 -0.0000
vn -0.0000 1.0000 -0.0000
vn -0.0000 -1.0000 -0.0000
vn -0.0000 -0.0000 1.0000
vn -0.0000 -0.0000 -1.0000
vn -0.0000 0.9239 0.3827
vn -0.0000 -0.9239 -0.3827
vn -0.0000 -0.3827 0.9239
vn -0.0000 0.3827 -0.9239
vt 0.000000 0.250000
vt 0.000000 0.125000
vt 0.062500 0.250000
vt 0.062500 0.125000
vt 0.125000 0.250000
vt 0.125000 0.125000
vt 0.250000 0.187500
vt 0.250000 0.250000
vt 0.125000 0.187500
vt 0.875000 0.750000
vt 0.875000 0.687500
vt 0.750000 0.750000
vt 0.750000 0.687500
vt 0.562500 0.875000
vt 0.562500 0.750000
vt 0.687500 0.875000
vt 0.687500 0.750000
vt 0.375000 0.750000
vt 0.375000 0.625000
vt 0.500000 0.750000
vt 0.500000 0.625000
vt 0.281250 0.875000
vt 0.281250 0.750000
vt 0.000000 0.875000
vt 0.000000 0.750000
vt 0.343750 0.218750
vt 0.343750 0.500000
vt 0.250000 0.218750
vt 0.250000 0.500000
vt 0.593750 0.750000
vt 0.593750 0.468750
vt 0.500000 0.468750
vt 0.625000 0.625000
vt 0.625000 0.500000
vt 0.718750 0.625000
vt 0.718750 0.500000
vt 0.625000 0.750000
vt 0.718750 0.750000
vt 0.500000 0.500000
vt 0.250000 0.625000
vt 0.468750 0.250000
vt 0.468750 0.500000
vt 0.375000 0.250000
vt 0.375000 0.500000
vt 0.593750 0.437500
vt 0.593750 0.187500
vt 0.500000 0.437500
vt 0.500000 0.187500
vt 0.625000 0.375000
vt 0.625000 0.250000
vt 0.718750 0.375000
vt 0.718750 0.250000
vt 0.687500 1.000000
vt 0.687500 0.906250
vt 0.312500 1.000000
vt 0.312500 0.906250
vt 0.093750 0.250000
vt 0.093750 0.625000
vt 0.000000 0.625000
vt 0.218750 0.625000
vt 0.218750 0.250000
vt 0.125000 0.625000
vt 0.687500 0.781250
vt 0.781250 0.875000
vt 0.781250 0.781250
vt 0.781250 1.000000
vt 0.781250 0.906250
s 0
usemtl Material_0.001
f 1/1/1 3/2/1 2/3/1
f 3/2/1 4/4/1 2/3/1
f 5/3/2 7/4/2 6/5/2
f 7/4/2 8/6/2 6/5/2
f 9/7/3 11/8/3 10/9/3
f 11/8/3 12/5/3 10/9/3
f 13/10/4 15/11/4 14/12/4
f 15/11/4 16/13/4 14/12/4
f 17/14/5 19/15/5 18/16/5
f 19/15/5 20/17/5 18/16/5
f 21/18/6 23/19/6 22/20/6
f 23/19/6 24/21/6 22/20/6
f 25/22/1 27/23/1 26/24/1
f 27/23/1 28/25/1 26/24/1
f 29/24/2 31/25/2 30/22/2
f 31/25/2 32/23/2 30/22/2
f 33/26/7 35/27/7 34/28/7
f 35/27/7 36/29/7 34/28/7
f 37/30/8 39/31/8 38/20/8
f 39/31/8 40/32/8 38/20/8
f 41/33/9 43/34/9 42/35/9
f 43/34/9 44/36/9 42/35/9
f 45/37/10 47/33/10 46/38/10
f 47/33/10 48/35/10 46/38/10
f 49/21/1 51/39/1 50/40/1
f 51/39/1 52/29/1 50/40/1
f 53/40/2 55/29/2 54/21/2
f 55/29/2 56/39/2 54/21/2
f 57/41/3 59/42/3 58/43/3
f 59/42/3 60/44/3 58/43/3
f 61/45/4 63/46/4 62/47/4
f 63/46/4 64/48/4 62/47/4
f 65/49/5 67/50/5 66/51/5
f 67/50/5 68/52/5 66/51/5
f 69/34/6 71/49/6 70/36/6
f 71/49/6 72/51/6 70/36/6
f 73/53/1 75/54/1 74/55/1
f 75/54/1 76/56/1 74/55/1
f 77/55/2 79/56/2 78/53/2
f 79/56/2 80/54/2 78/53/2
f 81/57/3 83/58/3 82/1/3
f 83/58/3 84/59/3 82/1/3
f 85/60/4 87/61/4 86/62/4
f 87/61/4 88/5/4 86/62/4
f 89/16/5 91/63/5 90/64/5
f 91/63/5 92/65/5 90/64/5
f 93/53/6 95/54/6 94/66/6
f 95/54/6 96/67/6 94/66/6
