# Blender 4.2.3 LTS
# www.blender.org
mtllib lev.okp.mtl
o attachmentModel
v 0.384615 0.384615 0.576923
v 1.153846 0.384615 0.576923
v 0.384615 0.000000 0.576923
v 1.153846 0.000000 0.576923
v 1.153846 0.384615 -0.576923
v 0.384616 0.384615 -0.576923
v 1.153846 -0.000000 -0.576923
v 0.384616 -0.000000 -0.576923
v 1.153846 0.384615 -0.576923
v 1.153846 0.384615 0.576923
v 0.384616 0.384615 -0.576923
v 0.384615 0.384615 0.576923
v 0.384616 -0.000000 -0.576923
v 0.384615 0.000000 0.576923
v 1.153846 -0.000000 -0.576923
v 1.153846 0.000000 0.576923
v 0.384616 0.384615 -0.576923
v 0.384615 0.384615 0.576923
v 0.384616 -0.000000 -0.576923
v 0.384615 0.000000 0.576923
v 1.153846 0.384615 0.576923
v 1.153846 0.384615 -0.576923
v 1.153846 0.000000 0.576923
v 1.153846 -0.000000 -0.576923
v 1.153077 0.456072 -0.000000
v 1.153847 0.456072 -0.000000
v 1.153077 0.184108 -0.271964
v 1.153847 0.184108 -0.271964
v 1.153847 1.000000 -0.543928
v 1.153077 1.000000 -0.543928
v 1.153847 0.728036 -0.815893
v 1.153077 0.728036 -0.815893
v 1.153847 1.000000 -0.543928
v 1.153847 0.456072 -0.000000
v 1.153077 1.000000 -0.543928
v 1.153077 0.456072 -0.000000
v 1.153077 0.728036 -0.815893
v 1.153077 0.184108 -0.271964
v 1.153847 0.728036 -0.815893
v 1.153847 0.184108 -0.271964
v 1.153077 1.000000 -0.543928
v 1.153077 0.456072 -0.000000
v 1.153077 0.728036 -0.815893
v 1.153077 0.184108 -0.271964
v 1.153847 0.456072 -0.000000
v 1.153847 1.000000 -0.543928
v 1.153847 0.184108 -0.271964
v 1.153847 0.728036 -0.815893
v 0.769231 0.769231 -0.576923
v 1.538462 0.769231 -0.576923
v 0.769231 -0.000000 -0.576923
v 1.538462 -0.000000 -0.576923
v 1.538462 0.769231 -0.961538
v 0.769231 0.769231 -0.961538
v 1.538462 -0.000000 -0.961538
v 0.769231 -0.000000 -0.961538
v 1.538462 0.769231 -0.961538
v 1.538462 0.769231 -0.576923
v 0.769231 0.769231 -0.961538
v 0.769231 0.769231 -0.576923
v 0.769231 -0.000000 -0.961538
v 0.769231 -0.000000 -0.576923
v 1.538462 -0.000000 -0.961538
v 1.538462 -0.000000 -0.576923
v 0.769231 0.769231 -0.961538
v 0.769231 0.769231 -0.576923
v 0.769231 -0.000000 -0.961538
v 0.769231 -0.000000 -0.576923
v 1.538462 0.769231 -0.576923
v 1.538462 0.769231 -0.961538
v 1.538462 -0.000000 -0.576923
v 1.538462 -0.000000 -0.961538
v -2.307692 0.769231 -0.576924
v 0.769231 0.769231 -0.576923
v -2.307692 -0.000000 -0.576924
v 0.769231 -0.000000 -0.576923
v 0.769231 0.769231 -1.346154
v -2.307692 0.769231 -1.346154
v 0.769231 -0.000000 -1.346154
v -2.307692 -0.000000 -1.346154
v 0.769231 0.769231 -1.346154
v 0.769231 0.769231 -0.576923
v -2.307692 0.769231 -1.346154
v -2.307692 0.769231 -0.576924
v -2.307692 -0.000000 -1.346154
v -2.307692 -0.000000 -0.576924
v 0.769231 -0.000000 -1.346154
v 0.769231 -0.000000 -0.576923
v -2.307692 0.769231 -1.346154
v -2.307692 0.769231 -0.576924
v -2.307692 -0.000000 -1.346154
v -2.307692 -0.000000 -0.576924
v 0.769231 0.769231 -0.576923
v 0.769231 0.769231 -1.346154
v 0.769231 -0.000000 -0.576923
v 0.769231 -0.000000 -1.346154
v -1.923077 0.384615 0.576923
v -1.153846 0.384615 0.576923
v -1.923077 0.000000 0.576923
v -1.153846 0.000000 0.576923
v -1.153846 0.384615 -0.576923
v -1.923077 0.384615 -0.576923
v -1.153846 -0.000000 -0.576923
v -1.923077 -0.000000 -0.576923
v -1.153846 0.384615 -0.576923
v -1.153846 0.384615 0.576923
v -1.923077 0.384615 -0.576923
v -1.923077 0.384615 0.576923
v -1.923077 -0.000000 -0.576923
v -1.923077 0.000000 0.576923
v -1.153846 -0.000000 -0.576923
v -1.153846 0.000000 0.576923
v -1.923077 0.384615 -0.576923
v -1.923077 0.384615 0.576923
v -1.923077 -0.000000 -0.576923
v -1.923077 0.000000 0.576923
v -1.153846 0.384615 0.576923
v -1.153846 0.384615 -0.576923
v -1.153846 0.000000 0.576923
v -1.153846 -0.000000 -0.576923
v 0.769231 1.320805 0.723998
v 1.538462 1.320805 0.723998
v 0.769231 1.320095 0.723703
v 1.538462 1.320095 0.723703
v 1.538462 1.762363 -0.342017
v 0.769231 1.762363 -0.342017
v 1.538462 1.761653 -0.342312
v 0.769231 1.761653 -0.342312
v 1.538462 1.762363 -0.342017
v 1.538462 1.320805 0.723998
v 0.769231 1.762363 -0.342017
v 0.769231 1.320805 0.723998
v 0.769231 1.761653 -0.342312
v 0.769231 1.320095 0.723703
v 1.538462 1.761653 -0.342312
v 1.538462 1.320095 0.723703
v 0.769231 1.762363 -0.342017
v 0.769231 1.320805 0.723998
v 0.769231 1.761653 -0.342312
v 0.769231 1.320095 0.723703
v 1.538462 1.320805 0.723998
v 1.538462 1.762363 -0.342017
v 1.538462 1.320095 0.723703
v 1.538462 1.761653 -0.342312
v 0.769231 1.761358 -0.341601
v 1.538462 1.761358 -0.341601
v 0.769231 0.695343 -0.783159
v 1.538462 0.695343 -0.783159
v 1.538462 1.761653 -0.342312
v 0.769231 1.761653 -0.342312
v 1.538462 0.695638 -0.783870
v 0.769231 0.695638 -0.783870
v 1.538462 1.761653 -0.342312
v 1.538462 1.761358 -0.341601
v 0.769231 1.761653 -0.342312
v 0.769231 1.761358 -0.341601
v 0.769231 0.695638 -0.783870
v 0.769231 0.695343 -0.783159
v 1.538462 0.695638 -0.783870
v 1.538462 0.695343 -0.783159
v 0.769231 1.761653 -0.342312
v 0.769231 1.761358 -0.341601
v 0.769231 0.695638 -0.783870
v 0.769231 0.695343 -0.783159
v 1.538462 1.761358 -0.341601
v 1.538462 1.761653 -0.342312
v 1.538462 0.695343 -0.783159
v 1.538462 0.695638 -0.783870
v 0.769231 1.319800 0.724414
v 1.538462 1.319800 0.724414
v 0.769231 0.609124 0.430042
v 1.538462 0.609124 0.430042
v 1.538462 1.320095 0.723703
v 0.769231 1.320095 0.723703
v 1.538462 0.609418 0.429331
v 0.769231 0.609418 0.429331
v 1.538462 1.320095 0.723703
v 1.538462 1.319800 0.724414
v 0.769231 1.320095 0.723703
v 0.769231 1.319800 0.724414
v 0.769231 0.609418 0.429331
v 0.769231 0.609124 0.430042
v 1.538462 0.609418 0.429331
v 1.538462 0.609124 0.430042
v 0.769231 1.320095 0.723703
v 0.769231 1.319800 0.724414
v 0.769231 0.609418 0.429331
v 0.769231 0.609124 0.430042
v 1.538462 1.319800 0.724414
v 1.538462 1.320095 0.723703
v 1.538462 0.609124 0.430042
v 1.538462 0.609418 0.429331
v -1.731539 0.456072 -0.000000
v -1.730769 0.456072 -0.000000
v -1.731539 0.184108 -0.271965
v -1.730769 0.184108 -0.271965
v -1.730769 1.000000 -0.543929
v -1.731538 1.000000 -0.543929
v -1.730769 0.728036 -0.815893
v -1.731538 0.728036 -0.815893
v -1.730769 1.000000 -0.543929
v -1.730769 0.456072 -0.000000
v -1.731538 1.000000 -0.543929
v -1.731539 0.456072 -0.000000
v -1.731538 0.728036 -0.815893
v -1.731539 0.184108 -0.271965
v -1.730769 0.728036 -0.815893
v -1.730769 0.184108 -0.271965
v -1.731538 1.000000 -0.543929
v -1.731539 0.456072 -0.000000
v -1.731538 0.728036 -0.815893
v -1.731539 0.184108 -0.271965
v -1.730769 0.456072 -0.000000
v -1.730769 1.000000 -0.543929
v -1.730769 0.184108 -0.271965
v -1.730769 0.728036 -0.815893
v -0.847000 1.291413 0.703534
v -0.846231 1.291413 0.703534
v -0.847000 0.296466 0.291413
v -0.846231 0.296466 0.291413
v -0.846231 1.703534 -0.291413
v -0.846231 1.291413 0.703534
v -0.847000 1.703534 -0.291413
v -0.847000 1.291413 0.703534
v -0.847000 0.708587 -0.703534
v -0.847000 0.296466 0.291413
v -0.846231 0.708587 -0.703534
v -0.846231 0.296466 0.291413
v 0.152308 1.291413 0.703534
v 0.153077 1.291413 0.703534
v 0.152308 0.296466 0.291413
v 0.153077 0.296466 0.291413
v 0.153077 1.703534 -0.291413
v 0.152308 1.703534 -0.291413
v 0.153077 0.708587 -0.703534
v 0.152308 0.708587 -0.703534
v 0.153077 1.703534 -0.291413
v 0.153077 1.291413 0.703534
v 0.152308 1.703534 -0.291413
v 0.152308 1.291413 0.703534
v 0.152308 0.708587 -0.703534
v 0.152308 0.296466 0.291413
v 0.153077 0.708587 -0.703534
v 0.153077 0.296466 0.291413
vn -0.0000 -0.0000 1.0000
vn -0.0000 -0.0000 -1.0000
vn -0.0000 1.0000 -0.0000
vn -0.0000 -1.0000 -0.0000
vn -1.0000 -0.0000 -0.0000
vn 1.0000 -0.0000 -0.0000
vn -0.0000 -0.7071 0.7071
vn -0.0000 -0.7072 0.7070
vn -0.0000 0.7072 -0.7070
vn -0.0000 0.7071 -0.7071
vn -0.0000 0.7072 0.7070
vn -0.0000 0.7071 0.7071
vn -0.0000 -0.7070 -0.7072
vn -0.0000 -0.7072 -0.7070
vn -0.0000 -0.3827 0.9239
vn -0.0000 0.3827 -0.9239
vn -0.0000 0.9239 0.3827
vn -0.0000 -0.9239 -0.3827
vn -1.0000 -0.0001 -0.0000
vn -1.0000 0.0001 -0.0000
vn 1.0000 -0.0001 -0.0000
vn 1.0000 -0.0004 -0.0000
vn -0.0000 0.9238 0.3830
vn -0.0000 0.9239 0.3826
vn -0.0000 -0.9239 -0.3826
vn 1.0000 0.0001 -0.0000
vn -0.0000 0.9240 0.3824
vn -0.0000 -0.9241 -0.3821
vn -0.0000 -0.7070 0.7072
vn -0.0000 -0.7071 -0.7071
vt 0.062500 0.500000
vt 0.062500 0.468750
vt 0.125000 0.500000
vt 0.125000 0.468750
vt 0.500000 0.937500
vt 0.500000 0.906250
vt 0.562500 0.937500
vt 0.562500 0.906250
vt 0.343750 0.687500
vt 0.343750 0.750000
vt 0.250000 0.687500
vt 0.250000 0.750000
vt 0.406250 0.875000
vt 0.406250 0.812500
vt 0.312500 0.875000
vt 0.312500 0.812500
vt 0.437500 0.750000
vt 0.437500 0.718750
vt 0.531250 0.750000
vt 0.531250 0.718750
vt 0.437500 0.812500
vt 0.437500 0.781250
vt 0.531250 0.812500
vt 0.531250 0.781250
vt 0.000000 1.000000
vt 0.000000 0.906250
vt 0.062500 1.000000
vt 0.187500 0.687500
vt 0.187500 0.656250
vt 0.250000 0.656250
vt 0.125000 0.687500
vt 0.125000 0.656250
vt 0.000000 0.562500
vt 0.000000 0.500000
vt 0.062500 0.562500
vt 0.437500 1.000000
vt 0.437500 0.937500
vt 0.500000 1.000000
vt 0.031250 0.437500
vt 0.031250 0.500000
vt 0.000000 0.437500
vt 0.531250 1.000000
vt 0.531250 0.937500
vt 0.437500 0.562500
vt 0.437500 0.500000
vt 0.468750 0.562500
vt 0.468750 0.500000
vt 0.187500 0.562500
vt 0.187500 0.500000
vt 0.218750 0.562500
vt 0.218750 0.500000
vt 0.000000 0.937500
vt 0.250000 1.000000
vt 0.250000 0.937500
vt 0.000000 0.875000
vt 0.250000 0.875000
vt 0.062500 0.625000
vt 0.062500 0.875000
vt 0.000000 0.625000
vt 0.125000 0.875000
vt 0.125000 0.625000
vt 0.437500 0.875000
vt 0.500000 0.875000
vt 0.125000 0.562500
vt 0.187500 0.468750
vt 0.500000 0.843750
vt 0.562500 0.875000
vt 0.562500 0.843750
vt 0.406250 0.750000
vt 0.312500 0.750000
vt 0.343750 0.625000
vt 0.250000 0.625000
vt 0.437500 0.625000
vt 0.437500 0.593750
vt 0.531250 0.625000
vt 0.531250 0.593750
vt 0.437500 0.687500
vt 0.437500 0.656250
vt 0.531250 0.687500
vt 0.531250 0.656250
vt 0.093750 0.562500
vt 0.093750 0.625000
vt 0.218750 0.625000
vt 0.093750 1.000000
vt 0.250000 0.531250
vt 0.312500 0.625000
vt 0.312500 0.531250
vt 0.375000 0.750000
vt 0.375000 0.656250
vt 0.500000 0.812500
s 0
usemtl Material_0.002
f 1/1/1 3/2/1 2/3/1
f 3/2/1 4/4/1 2/3/1
f 5/5/2 7/6/2 6/7/2
f 7/6/2 8/8/2 6/7/2
f 9/9/3 11/10/3 10/11/3
f 11/10/3 12/12/3 10/11/3
f 13/13/4 15/14/4 14/15/4
f 15/14/4 16/16/4 14/15/4
f 17/17/5 19/18/5 18/19/5
f 19/18/5 20/20/5 18/19/5
f 21/21/6 23/22/6 22/23/6
f 23/22/6 24/24/6 22/23/6
f 25/25/7 27/26/7 26/25/7
f 27/26/8 28/26/8 26/25/8
f 29/25/9 31/26/9 30/25/9
f 31/26/10 32/26/10 30/25/10
f 33/27/11 35/27/11 34/25/11
f 35/27/12 36/25/12 34/25/12
f 37/27/13 39/27/13 38/25/13
f 39/27/14 40/25/14 38/25/14
f 41/28/5 43/29/5 42/11/5
f 43/29/5 44/30/5 42/11/5
f 45/31/6 47/32/6 46/28/6
f 47/32/6 48/29/6 46/28/6
f 49/33/1 51/34/1 50/35/1
f 51/34/1 52/1/1 50/35/1
f 53/36/2 55/37/2 54/38/2
f 55/37/2 56/5/2 54/38/2
f 57/39/3 59/40/3 58/41/3
f 59/40/3 60/34/3 58/41/3
f 61/42/4 63/43/4 62/38/4
f 63/43/4 64/5/4 62/38/4
f 65/44/5 67/45/5 66/46/5
f 67/45/5 68/47/5 66/46/5
f 69/48/6 71/49/6 70/50/6
f 71/49/6 72/51/6 70/50/6
f 73/25/1 75/52/1 74/53/1
f 75/52/1 76/54/1 74/53/1
f 77/52/2 79/55/2 78/54/2
f 79/55/2 80/56/2 78/54/2
f 81/57/3 83/58/3 82/59/3
f 83/58/3 84/55/3 82/59/3
f 85/60/4 87/61/4 86/58/4
f 87/61/4 88/57/4 86/58/4
f 89/37/5 91/62/5 90/5/5
f 91/62/5 92/63/5 90/5/5
f 93/35/6 95/1/6 94/64/6
f 95/1/6 96/3/6 94/64/6
f 97/3/1 99/4/1 98/49/1
f 99/4/1 100/65/1 98/49/1
f 101/63/2 103/66/2 102/67/2
f 103/66/2 104/68/2 102/67/2
f 105/69/3 107/14/3 106/70/3
f 107/14/3 108/16/3 106/70/3
f 109/9/4 111/71/4 110/11/4
f 111/71/4 112/72/4 110/11/4
f 113/73/5 115/74/5 114/75/5
f 115/74/5 116/76/5 114/75/5
f 117/77/6 119/78/6 118/79/6
f 119/78/6 120/80/6 118/79/6
f 121/25/15 123/25/15 122/27/15
f 123/25/15 124/27/15 122/27/15
f 125/25/16 127/25/16 126/27/16
f 127/25/16 128/27/16 126/27/16
f 129/81/17 131/82/17 130/33/17
f 131/82/17 132/59/17 130/33/17
f 133/83/18 135/50/18 134/61/18
f 135/50/18 136/64/18 134/61/18
f 137/25/19 139/25/19 138/84/19
f 139/25/20 140/84/20 138/84/20
f 141/25/21 143/25/21 142/84/21
f 143/25/22 144/84/22 142/84/22
f 145/72/15 147/85/15 146/86/15
f 147/85/15 148/87/15 146/86/15
f 149/88/16 151/89/16 150/17/16
f 151/89/16 152/78/16 150/17/16
f 153/52/23 155/25/23 154/52/23
f 155/25/24 156/25/24 154/52/24
f 157/25/25 159/52/25 158/25/25
f 159/52/25 160/52/25 158/25/25
f 161/25/5 163/26/5 162/25/5
f 163/26/5 164/26/5 162/25/5
f 165/25/21 167/26/21 166/25/21
f 167/26/26 168/26/26 166/25/26
f 169/64/15 171/3/15 170/48/15
f 171/3/15 172/49/15 170/48/15
f 173/62/16 175/21/16 174/63/16
f 175/21/16 176/90/16 174/63/16
f 177/52/24 179/25/24 178/52/24
f 179/25/27 180/25/27 178/52/27
f 181/25/18 183/52/18 182/25/18
f 183/52/28 184/52/28 182/25/28
f 185/25/5 187/52/5 186/25/5
f 187/52/5 188/52/5 186/25/5
f 189/25/6 191/52/6 190/25/6
f 191/52/6 192/52/6 190/25/6
f 193/25/8 195/26/8 194/25/8
f 195/26/29 196/26/29 194/25/29
f 197/25/10 199/26/10 198/25/10
f 199/26/10 200/26/10 198/25/10
f 201/27/12 203/27/12 202/25/12
f 203/27/12 204/25/12 202/25/12
f 205/27/14 207/27/14 206/25/14
f 207/27/30 208/25/30 206/25/30
f 209/28/5 211/29/5 210/11/5
f 211/29/5 212/30/5 210/11/5
f 213/31/6 215/32/6 214/28/6
f 215/32/6 216/29/6 214/28/6
l 217 218
l 219 220
l 221 223
l 222 224
l 225 227
l 226 228
l 229 230
l 231 232
l 233 234
l 235 236
l 237 239
l 238 240
l 241 243
l 242 244
o overlaySolidModel
v 1.552308 1.703534 -0.319898
v 1.552308 1.291413 0.675049
v 1.552308 0.708587 -0.732019
v 1.552308 0.296466 0.262928
v 1.553077 1.291413 0.675049
v 1.553077 1.703534 -0.319898
v 1.553077 0.296466 0.262928
v 1.553077 0.708587 -0.732019
vn -1.0000 -0.0000 -0.0000
vn 1.0000 -0.0000 -0.0000
vt 0.937500 0.062500
vt 0.937500 0.000000
vt 1.000000 0.062500
vt 1.000000 0.000000
s 0
usemtl Material_0.002
f 245/91/31 247/92/31 246/93/31
f 247/92/31 248/94/31 246/93/31
f 249/91/32 251/92/32 250/93/32
f 251/92/32 252/94/32 250/93/32
o scopeModel
v 1.553000 1.703534 -0.319898
v 1.553000 1.291413 0.675049
v 1.553000 0.708587 -0.732019
v 1.553000 0.296466 0.262928
v 1.553769 1.291413 0.675049
v 1.553769 1.703534 -0.319898
v 1.553769 0.296466 0.262928
v 1.553769 0.708587 -0.732019
vn -1.0000 -0.0000 -0.0000
vn 1.0000 -0.0000 -0.0000
vt 0.937500 0.062500
vt 0.937500 0.000000
vt 1.000000 0.062500
vt 1.000000 0.000000
s 0
usemtl Material_0.002
f 253/95/33 255/96/33 254/97/33
f 255/96/33 256/98/33 254/97/33
f 257/95/34 259/96/34 258/97/34
f 259/96/34 260/98/34 258/97/34
