# Blender 4.3.2
# www.blender.org
mtllib lev.hk417comp.mtl
o attachmentModel
v 0.384615 0.384615 -0.383846
v 2.692307 0.384615 -0.383847
v 0.384615 -0.384615 -0.383846
v 2.692307 -0.384615 -0.383847
v 2.692307 0.384615 -0.384616
v 0.384615 0.384615 -0.384615
v 2.692307 -0.384615 -0.384616
v 0.384615 -0.384615 -0.384615
v 2.692307 0.384615 -0.384616
v 2.692307 0.384615 -0.383847
v 0.384615 0.384615 -0.384615
v 0.384615 0.384615 -0.383846
v 0.384615 -0.384615 -0.384615
v 0.384615 -0.384615 -0.383846
v 2.692307 -0.384615 -0.384616
v 2.692307 -0.384615 -0.383847
v 0.384615 0.384615 -0.384615
v 0.384615 0.384615 -0.383846
v 0.384615 -0.384615 -0.384615
v 0.384615 -0.384615 -0.383846
v 2.692307 0.384615 -0.383847
v 2.692307 0.384615 -0.384616
v 2.692307 -0.384615 -0.383847
v 2.692307 -0.384615 -0.384616
v 0.384615 0.384615 0.385385
v 2.692307 0.384615 0.385384
v 0.384615 -0.384615 0.385385
v 2.692307 -0.384615 0.385384
v 2.692307 0.384615 0.384615
v 0.384615 0.384615 0.384615
v 2.692307 -0.384615 0.384615
v 0.384615 -0.384615 0.384615
v 2.692307 0.384615 0.384615
v 2.692307 0.384615 0.385384
v 0.384615 0.384615 0.384615
v 0.384615 0.384615 0.385385
v 0.384615 -0.384615 0.384615
v 0.384615 -0.384615 0.385385
v 2.692307 -0.384615 0.384615
v 2.692307 -0.384615 0.385384
v 0.384615 0.384615 0.384615
v 0.384615 0.384615 0.385385
v 0.384615 -0.384615 0.384615
v 0.384615 -0.384615 0.385385
v 2.692307 0.384615 0.385384
v 2.692307 0.384615 0.384615
v 2.692307 -0.384615 0.385384
v 2.692307 -0.384615 0.384615
v 0.384615 0.385385 0.384615
v 2.692307 0.385385 0.384615
v 0.384615 0.384615 0.384615
v 2.692307 0.384615 0.384615
v 2.692307 0.385385 -0.384616
v 0.384615 0.385385 -0.384615
v 2.692307 0.384615 -0.384616
v 0.384615 0.384615 -0.384615
v 2.692307 0.385385 -0.384616
v 2.692307 0.385385 0.384615
v 0.384615 0.385385 -0.384615
v 0.384615 0.385385 0.384615
v 0.384615 0.384615 -0.384615
v 0.384615 0.384615 0.384615
v 2.692307 0.384615 -0.384616
v 2.692307 0.384615 0.384615
v 0.384615 0.385385 -0.384615
v 0.384615 0.385385 0.384615
v 0.384615 0.384615 -0.384615
v 0.384615 0.384615 0.384615
v 2.692307 0.385385 0.384615
v 2.692307 0.385385 -0.384616
v 2.692307 0.384615 0.384615
v 2.692307 0.384615 -0.384616
v 0.384615 -0.383846 0.384615
v 2.692307 -0.383846 0.384615
v 0.384615 -0.384615 0.384615
v 2.692307 -0.384615 0.384615
v 2.692307 -0.383846 -0.384616
v 0.384615 -0.383846 -0.384615
v 2.692307 -0.384615 -0.384616
v 0.384615 -0.384615 -0.384615
v 2.692307 -0.383846 -0.384616
v 2.692307 -0.383846 0.384615
v 0.384615 -0.383846 -0.384615
v 0.384615 -0.383846 0.384615
v 0.384615 -0.384615 -0.384615
v 0.384615 -0.384615 0.384615
v 2.692307 -0.384615 -0.384616
v 2.692307 -0.384615 0.384615
v 0.384615 -0.383846 -0.384615
v 0.384615 -0.383846 0.384615
v 0.384615 -0.384615 -0.384615
v 0.384615 -0.384615 0.384615
v 2.692307 -0.383846 0.384615
v 2.692307 -0.383846 -0.384616
v 2.692307 -0.384615 0.384615
v 2.692307 -0.384615 -0.384616
v 0.000000 0.385385 0.384615
v 0.384615 0.385385 0.384615
v 0.000000 -0.384615 0.384615
v 0.384615 -0.384615 0.384615
v 0.384615 0.385385 -0.384615
v -0.000000 0.385385 -0.384615
v 0.384615 -0.384615 -0.384615
v -0.000000 -0.384615 -0.384615
v 0.384615 0.385385 -0.384615
v 0.384615 0.385385 0.384615
v -0.000000 0.385385 -0.384615
v 0.000000 0.385385 0.384615
v -0.000000 -0.384615 -0.384615
v 0.000000 -0.384615 0.384615
v 0.384615 -0.384615 -0.384615
v 0.384615 -0.384615 0.384615
v -0.000000 0.385385 -0.384615
v 0.000000 0.385385 0.384615
v -0.000000 -0.384615 -0.384615
v 0.000000 -0.384615 0.384615
v 0.384615 0.385385 0.384615
v 0.384615 0.385385 -0.384615
v 0.384615 -0.384615 0.384615
v 0.384615 -0.384615 -0.384615
v 2.692307 0.384615 0.384615
v 3.076923 0.384615 0.384615
v 2.692307 -0.384615 0.384615
v 3.076923 -0.384615 0.384615
v 3.076923 0.384615 -0.384616
v 2.692307 0.384615 -0.384616
v 3.076923 -0.384615 -0.384616
v 2.692307 -0.384615 -0.384616
v 3.076923 0.384615 -0.384616
v 3.076923 0.384615 0.384615
v 2.692307 0.384615 -0.384616
v 2.692307 0.384615 0.384615
v 2.692307 -0.384615 -0.384616
v 2.692307 -0.384615 0.384615
v 3.076923 -0.384615 -0.384616
v 3.076923 -0.384615 0.384615
v 2.692307 0.384615 -0.384616
v 2.692307 0.384615 0.384615
v 2.692307 -0.384615 -0.384616
v 2.692307 -0.384615 0.384615
v 3.076923 0.384615 0.384615
v 3.076923 0.384615 -0.384616
v 3.076923 -0.384615 0.384615
v 3.076923 -0.384615 -0.384616
vn -0.0000 -0.0000 1.0000
vn -0.0000 -0.0000 -1.0000
vn -0.0000 1.0000 -0.0000
vn -0.0000 -1.0000 -0.0000
vn -1.0000 -0.0000 -0.0000
vn 1.0000 -0.0000 -0.0000
vt 0.375000 0.750000
vt 0.375000 0.875000
vt 0.000000 0.750000
vt 0.000000 0.875000
vt 0.000000 0.625000
vt 0.000000 1.000000
vt 0.375000 0.625000
vt 0.375000 1.000000
vt 0.500000 0.625000
vt 0.500000 1.000000
vt 0.125000 1.000000
vt 0.625000 0.625000
vt 0.625000 1.000000
vt 0.750000 0.812500
vt 0.750000 0.875000
vt 0.625000 0.812500
vt 0.625000 0.875000
vt 0.625000 0.750000
vt 0.687500 0.750000
vt 0.687500 0.625000
vt 0.625000 0.500000
vt 0.687500 0.500000
vt 0.625000 0.312500
vt 0.625000 0.375000
vt 0.500000 0.312500
vt 0.500000 0.375000
vt 0.750000 0.500000
vt 0.750000 0.437500
vt 0.625000 0.437500
vt 0.500000 0.500000
s 0
usemtl Material_0
f 1/1/1 3/2/1 2/3/1
f 3/2/1 4/4/1 2/3/1
f 5/3/2 7/4/2 6/1/2
f 7/4/2 8/2/2 6/1/2
f 9/5/3 11/6/3 10/5/3
f 11/6/3 12/6/3 10/5/3
f 13/6/4 15/5/4 14/6/4
f 15/5/4 16/5/4 14/6/4
f 17/6/5 19/4/5 18/6/5
f 19/4/5 20/4/5 18/6/5
f 21/6/6 23/4/6 22/6/6
f 23/4/6 24/4/6 22/6/6
f 25/5/1 27/3/1 26/7/1
f 27/3/1 28/1/1 26/7/1
f 29/7/2 31/1/2 30/5/2
f 31/1/2 32/3/2 30/5/2
f 33/5/3 35/6/3 34/5/3
f 35/6/3 36/6/3 34/5/3
f 37/6/4 39/5/4 38/6/4
f 39/5/4 40/5/4 38/6/4
f 41/6/5 43/4/5 42/6/5
f 43/4/5 44/4/5 42/6/5
f 45/6/6 47/4/6 46/6/6
f 47/4/6 48/4/6 46/6/6
f 49/6/1 51/6/1 50/8/1
f 51/6/1 52/8/1 50/8/1
f 53/6/2 55/6/2 54/8/2
f 55/6/2 56/8/2 54/8/2
f 57/7/3 59/8/3 58/9/3
f 59/8/3 60/10/3 58/9/3
f 61/8/4 63/7/4 62/10/4
f 63/7/4 64/9/4 62/10/4
f 65/6/5 67/6/5 66/11/5
f 67/6/5 68/11/5 66/11/5
f 69/6/6 71/6/6 70/11/6
f 71/6/6 72/11/6 70/11/6
f 73/6/1 75/6/1 74/8/1
f 75/6/1 76/8/1 74/8/1
f 77/6/2 79/6/2 78/8/2
f 79/6/2 80/8/2 78/8/2
f 81/9/3 83/10/3 82/12/3
f 83/10/3 84/13/3 82/12/3
f 85/10/4 87/9/4 86/13/4
f 87/9/4 88/12/4 86/13/4
f 89/6/5 91/6/5 90/11/5
f 91/6/5 92/11/5 90/11/5
f 93/6/6 95/6/6 94/11/6
f 95/6/6 96/11/6 94/11/6
f 97/14/1 99/15/1 98/16/1
f 99/15/1 100/17/1 98/16/1
f 101/14/2 103/15/2 102/16/2
f 103/15/2 104/17/2 102/16/2
f 105/14/3 107/15/3 106/16/3
f 107/15/3 108/17/3 106/16/3
f 109/14/4 111/15/4 110/16/4
f 111/15/4 112/17/4 110/16/4
f 113/14/5 115/15/5 114/16/5
f 115/15/5 116/17/5 114/16/5
f 117/14/6 119/15/6 118/16/6
f 119/15/6 120/17/6 118/16/6
f 121/18/1 123/12/1 122/19/1
f 123/12/1 124/20/1 122/19/1
f 125/12/2 127/21/2 126/20/2
f 127/21/2 128/22/2 126/20/2
f 129/23/3 131/24/3 130/25/3
f 131/24/3 132/26/3 130/25/3
f 133/27/4 135/28/4 134/21/4
f 135/28/4 136/29/4 134/21/4
f 137/30/5 139/26/5 138/21/5
f 139/26/5 140/24/5 138/21/5
f 141/9/6 143/30/6 142/12/6
f 143/30/6 144/21/6 142/12/6
