# Blender 5.0.1
# www.blender.org
mtllib lev.moestock.mtl
o attachmentModel
v -0.000000 0.543928 0.769231
v -0.000000 0.543928 0.000000
v 0.543928 0.000000 0.769231
v 0.543928 0.000000 0.000000
v -0.543928 -0.000000 0.000000
v -0.543928 -0.000000 0.769231
v 0.000000 -0.543928 0.000000
v 0.000000 -0.543928 0.769231
v -0.543928 -0.000000 0.000000
v -0.000000 0.543928 0.000000
v -0.543928 -0.000000 0.769231
v -0.000000 0.543928 0.769231
v 0.000000 -0.543928 0.769231
v 0.543928 0.000000 0.769231
v 0.000000 -0.543928 0.000000
v 0.543928 0.000000 0.000000
v -0.543928 -0.000000 0.769231
v -0.000000 0.543928 0.769231
v 0.000000 -0.543928 0.769231
v 0.543928 0.000000 0.769231
v -0.000000 0.543928 0.000000
v -0.543928 -0.000000 0.000000
v 0.543928 0.000000 0.000000
v 0.000000 -0.543928 0.000000
v 0.000769 -0.384615 3.076923
v 0.000769 -0.384615 1.923077
v 0.000769 -1.153846 3.076923
v 0.000769 -1.153846 1.923077
v 0.000000 -0.384615 1.923077
v 0.000000 -0.384615 3.076923
v -0.000000 -1.153846 1.923077
v -0.000000 -1.153846 3.076923
v 0.000000 -0.384615 1.923077
v 0.000769 -0.384615 1.923077
v 0.000000 -0.384615 3.076923
v 0.000769 -0.384615 3.076923
v -0.000000 -1.153846 3.076923
v 0.000769 -1.153846 3.076923
v -0.000000 -1.153846 1.923077
v 0.000769 -1.153846 1.923077
v 0.000000 -0.384615 3.076923
v 0.000769 -0.384615 3.076923
v -0.000000 -1.153846 3.076923
v 0.000769 -1.153846 3.076923
v 0.000769 -0.384615 1.923077
v 0.000000 -0.384615 1.923077
v 0.000769 -1.153846 1.923077
v -0.000000 -1.153846 1.923077
v 0.376923 -2.270368 4.854414
v 0.376923 -0.798508 1.301032
v 0.376923 -2.625706 4.707229
v 0.376923 -1.153846 1.153846
v -0.376923 -0.798508 1.301032
v -0.376923 -2.270368 4.854414
v -0.376923 -1.153846 1.153846
v -0.376923 -2.625706 4.707229
v -0.376923 -0.798508 1.301032
v 0.376923 -0.798508 1.301032
v -0.376923 -2.270368 4.854414
v 0.376923 -2.270368 4.854414
v -0.376923 -2.625706 4.707229
v 0.376923 -2.625706 4.707229
v -0.376923 -1.153846 1.153846
v 0.376923 -1.153846 1.153846
v -0.376923 -2.270368 4.854414
v 0.376923 -2.270368 4.854414
v -0.376923 -2.625706 4.707229
v 0.376923 -2.625706 4.707229
v 0.376923 -0.798508 1.301032
v -0.376923 -0.798508 1.301032
v 0.376923 -1.153846 1.153846
v -0.376923 -1.153846 1.153846
v 0.576923 0.576923 5.384615
v 0.576923 0.576923 0.769231
v 0.576923 -0.576923 5.384615
v 0.576923 -0.576923 0.769231
v -0.576923 0.576923 0.769231
v -0.576923 0.576923 5.384615
v -0.576923 -0.576923 0.769231
v -0.576923 -0.576923 5.384615
v -0.576923 0.576923 0.769231
v 0.576923 0.576923 0.769231
v -0.576923 0.576923 5.384615
v 0.576923 0.576923 5.384615
v -0.576923 -0.576923 5.384615
v 0.576923 -0.576923 5.384615
v -0.576923 -0.576923 0.769231
v 0.576923 -0.576923 0.769231
v -0.576923 0.576923 5.384615
v 0.576923 0.576923 5.384615
v -0.576923 -0.576923 5.384615
v 0.576923 -0.576923 5.384615
v 0.576923 0.576923 0.769231
v -0.576923 0.576923 0.769231
v 0.576923 -0.576923 0.769231
v -0.576923 -0.576923 0.769231
v 0.576923 -0.576923 5.384615
v 0.576923 -0.576923 4.615385
v 0.576923 -2.884616 5.384615
v 0.576923 -2.884616 4.615385
v -0.576923 -0.576923 4.615385
v -0.576923 -0.576923 5.384615
v -0.576923 -2.884615 4.615385
v -0.576923 -2.884615 5.384615
v -0.576923 -0.576923 4.615385
v 0.576923 -0.576923 4.615385
v -0.576923 -0.576923 5.384615
v 0.576923 -0.576923 5.384615
v -0.576923 -2.884615 5.384615
v 0.576923 -2.884616 5.384615
v -0.576923 -2.884615 4.615385
v 0.576923 -2.884616 4.615385
v -0.576923 -0.576923 5.384615
v 0.576923 -0.576923 5.384615
v -0.576923 -2.884615 5.384615
v 0.576923 -2.884616 5.384615
v 0.576923 -0.576923 4.615385
v -0.576923 -0.576923 4.615385
v 0.576923 -2.884616 4.615385
v -0.576923 -2.884615 4.615385
v 0.384615 -0.384615 1.923077
v 0.384615 -0.384615 0.769231
v 0.384615 -1.153846 1.923077
v 0.384615 -1.153846 0.769231
v -0.384615 -0.384615 0.769231
v -0.384615 -0.384615 1.923077
v -0.384615 -1.153846 0.769231
v -0.384615 -1.153846 1.923077
v -0.384615 -0.384615 0.769231
v 0.384615 -0.384615 0.769231
v -0.384615 -0.384615 1.923077
v 0.384615 -0.384615 1.923077
v -0.384615 -1.153846 1.923077
v 0.384615 -1.153846 1.923077
v -0.384615 -1.153846 0.769231
v 0.384615 -1.153846 0.769231
v -0.384615 -0.384615 1.923077
v 0.384615 -0.384615 1.923077
v -0.384615 -1.153846 1.923077
v 0.384615 -1.153846 1.923077
v 0.384615 -0.384615 0.769231
v -0.384615 -0.384615 0.769231
v 0.384615 -1.153846 0.769231
v -0.384615 -1.153846 0.769231
v 0.384615 -0.384615 4.615385
v 0.384615 -0.384615 1.923077
v 0.384615 -0.769231 4.615385
v 0.384615 -0.769231 1.923077
v -0.384615 -0.384615 1.923077
v -0.384615 -0.384615 4.615385
v -0.384615 -0.769231 1.923077
v -0.384615 -0.769231 4.615385
v -0.384615 -0.384615 1.923077
v 0.384615 -0.384615 1.923077
v -0.384615 -0.384615 4.615385
v 0.384615 -0.384615 4.615385
v -0.384615 -0.769231 4.615385
v 0.384615 -0.769231 4.615385
v -0.384615 -0.769231 1.923077
v 0.384615 -0.769231 1.923077
v -0.384615 -0.384615 4.615385
v 0.384615 -0.384615 4.615385
v -0.384615 -0.769231 4.615385
v 0.384615 -0.769231 4.615385
v 0.384615 -0.384615 1.923077
v -0.384615 -0.384615 1.923077
v 0.384615 -0.769231 1.923077
v -0.384615 -0.769231 1.923077
v 0.384615 -0.769231 4.615385
v 0.384615 -0.769231 4.230769
v 0.384615 -2.115385 4.615385
v 0.384615 -2.115385 4.230769
v -0.384615 -0.769231 4.230769
v -0.384615 -0.769231 4.615385
v -0.384615 -2.115385 4.230769
v -0.384615 -2.115385 4.615385
v -0.384615 -0.769231 4.230769
v 0.384615 -0.769231 4.230769
v -0.384615 -0.769231 4.615385
v 0.384615 -0.769231 4.615385
v -0.384615 -2.115385 4.615385
v 0.384615 -2.115385 4.615385
v -0.384615 -2.115385 4.230769
v 0.384615 -2.115385 4.230769
v -0.384615 -0.769231 4.615385
v 0.384615 -0.769231 4.615385
v -0.384615 -2.115385 4.615385
v 0.384615 -2.115385 4.615385
v 0.384615 -0.769231 4.230769
v -0.384615 -0.769231 4.230769
v 0.384615 -2.115385 4.230769
v -0.384615 -2.115385 4.230769
v 0.384615 -2.115385 4.615385
v 0.384615 -2.115385 3.846154
v 0.384615 -2.884616 4.615385
v 0.384615 -2.884616 3.846154
v -0.384615 -2.115385 3.846154
v -0.384615 -2.115385 4.615385
v -0.384615 -2.884616 3.846154
v -0.384615 -2.884616 4.615385
v -0.384615 -2.115385 3.846154
v 0.384615 -2.115385 3.846154
v -0.384615 -2.115385 4.615385
v 0.384615 -2.115385 4.615385
v -0.384615 -2.884616 4.615385
v 0.384615 -2.884616 4.615385
v -0.384615 -2.884616 3.846154
v 0.384615 -2.884616 3.846154
v -0.384615 -2.115385 4.615385
v 0.384615 -2.115385 4.615385
v -0.384615 -2.884616 4.615385
v 0.384615 -2.884616 4.615385
v 0.384615 -2.115385 3.846154
v -0.384615 -2.115385 3.846154
v 0.384615 -2.884616 3.846154
v -0.384615 -2.884616 3.846154
vn 0.7071 0.7071 -0.0000
vn -0.7071 -0.7071 -0.0000
vn -0.7071 0.7071 -0.0000
vn 0.7071 -0.7071 -0.0000
vn -0.0000 -0.0000 1.0000
vn -0.0000 -0.0000 -1.0000
vn 1.0000 -0.0000 -0.0000
vn -1.0000 -0.0000 -0.0000
vn -0.0001 1.0000 -0.0000
vn -0.0000 1.0000 -0.0000
vn -0.0000 -1.0000 -0.0000
vn -0.0003 0.0003 1.0000
vn -0.0000 0.9239 0.3827
vn -0.0000 -0.9239 -0.3827
vn -0.0000 -0.3827 0.9239
vn -0.0000 0.3827 -0.9239
vt 0.625000 0.437500
vt 0.625000 0.375000
vt 0.687500 0.437500
vt 0.687500 0.375000
vt 0.000000 0.312500
vt 0.000000 0.250000
vt 0.062500 0.312500
vt 0.062500 0.250000
vt 0.750000 0.937500
vt 0.750000 1.000000
vt 0.687500 0.937500
vt 0.687500 1.000000
vt 0.125000 0.312500
vt 0.125000 0.250000
vt 0.625000 0.312500
vt 0.687500 0.312500
vt 0.562500 0.375000
vt 0.562500 0.312500
vt 0.437500 0.375000
vt 0.437500 0.312500
vt 0.531250 0.375000
vt 0.531250 0.312500
vt 0.625000 0.500000
vt 0.718750 0.500000
vt 0.718750 0.437500
vt 0.000000 0.906250
vt 0.000000 1.000000
vt 0.000000 0.937500
vt 0.500000 0.625000
vt 0.500000 0.593750
vt 0.812500 0.625000
vt 0.812500 0.593750
vt 0.500000 0.562500
vt 0.500000 0.531250
vt 0.812500 0.562500
vt 0.812500 0.531250
vt 0.312500 0.437500
vt 0.312500 0.750000
vt 0.250000 0.437500
vt 0.250000 0.750000
vt 0.375000 0.750000
vt 0.375000 0.437500
vt 0.687500 0.281250
vt 0.750000 0.312500
vt 0.750000 0.281250
vt 0.687500 0.343750
vt 0.750000 0.375000
vt 0.750000 0.343750
vt 0.375000 1.000000
vt 0.375000 0.906250
vt 0.000000 0.875000
vt 0.000000 0.781250
vt 0.375000 0.875000
vt 0.375000 0.781250
vt 0.093750 0.375000
vt 0.093750 0.750000
vt 0.000000 0.375000
vt 0.000000 0.750000
vt 0.218750 0.750000
vt 0.218750 0.375000
vt 0.125000 0.750000
vt 0.125000 0.375000
vt 0.562500 1.000000
vt 0.562500 0.906250
vt 0.656250 1.000000
vt 0.656250 0.906250
vt 0.500000 0.500000
vt 0.500000 0.406250
vt 0.593750 0.500000
vt 0.593750 0.406250
vt 0.500000 1.000000
vt 0.500000 0.812500
vt 0.562500 0.812500
vt 0.562500 0.625000
vt 0.093750 0.312500
vt 0.218750 0.312500
vt 0.375000 0.812500
vt 0.375000 0.625000
vt 0.468750 0.812500
vt 0.468750 0.625000
vt 0.468750 1.000000
vt 0.625000 0.875000
vt 0.625000 0.812500
vt 0.718750 0.875000
vt 0.718750 0.812500
vt 0.625000 0.750000
vt 0.718750 0.750000
vt 0.375000 0.343750
vt 0.312500 0.343750
vt 0.437500 0.281250
vt 0.375000 0.375000
vt 0.375000 0.281250
vt 0.187500 0.312500
vt 0.187500 0.250000
vt 0.687500 0.875000
vt 0.750000 0.875000
vt 0.562500 0.750000
vt 0.562500 0.718750
vt 0.781250 0.750000
vt 0.781250 0.718750
vt 0.562500 0.687500
vt 0.562500 0.656250
vt 0.781250 0.687500
vt 0.781250 0.656250
vt 0.437500 0.406250
vt 0.437500 0.625000
vt 0.375000 0.406250
vt 0.750000 0.968750
vt 0.812500 1.000000
vt 0.812500 0.968750
vt 0.000000 0.218750
vt 0.062500 0.218750
vt 0.187500 0.187500
vt 0.218750 0.187500
vt 0.250000 0.312500
vt 0.250000 0.187500
vt 0.281250 0.312500
vt 0.281250 0.187500
vt 0.125000 0.218750
vt 0.812500 0.937500
vt 0.812500 0.906250
vt 0.750000 0.906250
vt 0.312500 0.312500
vt 0.562500 0.875000
vt 0.437500 0.250000
vt 0.500000 0.312500
vt 0.500000 0.250000
vt 0.562500 0.250000
vt 0.625000 0.250000
vt 0.750000 0.437500
vt 0.687500 0.250000
vt 0.312500 0.250000
vt 0.375000 0.312500
vt 0.375000 0.250000
s 0
usemtl Material_0.001
f 1/1/1 3/2/1 2/3/1
f 3/2/1 4/4/1 2/3/1
f 5/5/2 7/6/2 6/7/2
f 7/6/2 8/8/2 6/7/2
f 9/9/3 11/10/3 10/11/3
f 11/10/3 12/12/3 10/11/3
f 13/13/4 15/14/4 14/7/4
f 15/14/4 16/8/4 14/7/4
f 17/2/5 19/15/5 18/4/5
f 19/15/5 20/16/5 18/4/5
f 21/17/6 23/18/6 22/2/6
f 23/18/6 24/15/6 22/2/6
f 25/19/7 27/20/7 26/21/7
f 27/20/7 28/22/7 26/21/7
f 29/23/8 31/1/8 30/24/8
f 31/1/8 32/25/8 30/24/8
f 33/26/9 35/27/9 34/26/9
f 35/27/10 36/27/10 34/26/10
f 37/27/11 39/26/11 38/27/11
f 39/26/11 40/26/11 38/27/11
f 41/27/12 43/28/12 42/27/12
f 43/28/5 44/28/5 42/27/5
f 45/27/6 47/28/6 46/27/6
f 47/28/6 48/28/6 46/27/6
f 49/29/7 51/30/7 50/31/7
f 51/30/7 52/32/7 50/31/7
f 53/33/8 55/34/8 54/35/8
f 55/34/8 56/36/8 54/35/8
f 57/37/13 59/38/13 58/39/13
f 59/38/13 60/40/13 58/39/13
f 61/41/14 63/42/14 62/38/14
f 63/42/14 64/37/14 62/38/14
f 65/16/15 67/43/15 66/44/15
f 67/43/15 68/45/15 66/44/15
f 69/4/16 71/46/16 70/47/16
f 71/46/16 72/48/16 70/47/16
f 73/27/7 75/26/7 74/49/7
f 75/26/7 76/50/7 74/49/7
f 77/51/8 79/52/8 78/53/8
f 79/52/8 80/54/8 78/53/8
f 81/55/10 83/56/10 82/57/10
f 83/56/10 84/58/10 82/57/10
f 85/59/11 87/60/11 86/61/11
f 87/60/11 88/62/11 86/61/11
f 89/63/5 91/64/5 90/65/5
f 91/64/5 92/66/5 90/65/5
f 93/67/6 95/68/6 94/69/6
f 95/68/6 96/70/6 94/69/6
f 97/71/7 99/72/7 98/63/7
f 99/72/7 100/73/7 98/63/7
f 101/72/8 103/29/8 102/73/8
f 103/29/8 104/74/8 102/73/8
f 105/75/10 107/55/10 106/5/10
f 107/55/10 108/57/10 106/5/10
f 109/60/11 111/76/11 110/62/11
f 111/76/11 112/13/11 110/62/11
f 113/77/5 115/78/5 114/79/5
f 115/78/5 116/80/5 114/79/5
f 117/49/6 119/77/6 118/81/6
f 119/77/6 120/79/6 118/81/6
f 121/82/7 123/83/7 122/84/7
f 123/83/7 124/85/7 122/84/7
f 125/83/8 127/86/8 126/85/8
f 127/86/8 128/87/8 126/85/8
f 129/88/10 131/42/10 130/89/10
f 131/42/10 132/37/10 130/89/10
f 133/19/11 135/90/11 134/91/11
f 135/90/11 136/92/11 134/91/11
f 137/13/5 139/14/5 138/93/5
f 139/14/5 140/94/5 138/93/5
f 141/11/6 143/95/6 142/9/6
f 143/95/6 144/96/6 142/9/6
f 145/97/7 147/98/7 146/99/7
f 147/98/7 148/100/7 146/99/7
f 149/101/8 151/102/8 150/103/8
f 151/102/8 152/104/8 150/103/8
f 153/105/10 155/106/10 154/107/10
f 155/106/10 156/78/10 154/107/10
f 157/29/11 159/68/11 158/106/11
f 159/68/11 160/105/11 158/106/11
f 161/10/5 163/108/5 162/109/5
f 163/108/5 164/110/5 162/109/5
f 165/6/6 167/111/6 166/8/6
f 167/111/6 168/112/6 166/8/6
f 169/93/7 171/113/7 170/76/7
f 171/113/7 172/114/7 170/76/7
f 173/115/8 175/116/8 174/117/8
f 175/116/8 176/118/8 174/117/8
f 177/119/10 179/14/10 178/112/10
f 179/14/10 180/8/10 178/112/10
f 181/120/11 183/121/11 182/9/11
f 183/121/11 184/122/11 182/9/11
f 185/39/5 187/115/5 186/37/5
f 187/115/5 188/123/5 186/37/5
f 189/124/6 191/97/6 190/82/6
f 191/97/6 192/86/6 190/82/6
f 193/20/7 195/125/7 194/126/7
f 195/125/7 196/127/7 194/126/7
f 197/18/8 199/128/8 198/15/8
f 199/128/8 200/129/8 198/15/8
f 201/47/10 203/130/10 202/4/10
f 203/130/10 204/3/10 202/4/10
f 205/16/11 207/131/11 206/15/11
f 207/131/11 208/129/11 206/15/11
f 209/126/5 211/127/5 210/18/5
f 211/127/5 212/128/5 210/18/5
f 213/123/6 215/132/6 214/133/6
f 215/132/6 216/134/6 214/133/6
