# Blender 5.1.0
# www.blender.org
mtllib lev.armsonoeg.mtl
o attachmentModel
v -1.538461 1.923077 0.576923
v 1.538461 1.923077 0.576923
v -1.538461 0.769231 0.576923
v 1.538461 0.769231 0.576923
v 1.538461 1.923077 -0.576923
v -1.538461 1.923077 -0.576923
v 1.538461 0.769231 -0.576923
v -1.538461 0.769231 -0.576923
v 1.538461 1.923077 -0.576923
v 1.538461 1.923077 0.576923
v -1.538461 1.923077 -0.576923
v -1.538461 1.923077 0.576923
v -1.538461 0.769231 -0.576923
v -1.538461 0.769231 0.576923
v 1.538461 0.769231 -0.576923
v 1.538461 0.769231 0.576923
v -1.538461 1.923077 -0.576923
v -1.538461 1.923077 0.576923
v -1.538461 0.769231 -0.576923
v -1.538461 0.769231 0.576923
v 1.538461 1.923077 0.576923
v 1.538461 1.923077 -0.576923
v 1.538461 0.769231 0.576923
v 1.538461 0.769231 -0.576923
v -1.538461 0.769231 0.384615
v 1.538461 0.769231 0.384615
v -1.538461 0.000000 0.384615
v 1.538461 0.000000 0.384615
v 1.538461 0.769231 -0.384615
v -1.538461 0.769231 -0.384615
v 1.538461 0.000000 -0.384615
v -1.538461 0.000000 -0.384615
v 1.538461 0.769231 -0.384615
v 1.538461 0.769231 0.384615
v -1.538461 0.769231 -0.384615
v -1.538461 0.769231 0.384615
v -1.538461 0.000000 -0.384615
v -1.538461 0.000000 0.384615
v 1.538461 0.000000 -0.384615
v 1.538461 0.000000 0.384615
v -1.538461 0.769231 -0.384615
v -1.538461 0.769231 0.384615
v -1.538461 0.000000 -0.384615
v -1.538461 0.000000 0.384615
v 1.538461 0.769231 0.384615
v 1.538461 0.769231 -0.384615
v 1.538461 0.000000 0.384615
v 1.538461 0.000000 -0.384615
v -0.192308 0.000000 0.000769
v 0.192308 0.000000 0.000769
v -0.192308 -0.769231 0.000769
v 0.192308 -0.769231 0.000769
v 0.192308 0.000000 -0.000000
v -0.192308 0.000000 0.000000
v 0.192308 -0.769231 -0.000000
v -0.192308 -0.769231 0.000000
v 0.192308 0.000000 -0.000000
v 0.192308 0.000000 0.000769
v -0.192308 0.000000 0.000000
v -0.192308 0.000000 0.000769
v -0.192308 -0.769231 0.000000
v -0.192308 -0.769231 0.000769
v 0.192308 -0.769231 -0.000000
v 0.192308 -0.769231 0.000769
v -0.192308 0.000000 0.000000
v -0.192308 0.000000 0.000769
v -0.192308 -0.769231 0.000000
v -0.192308 -0.769231 0.000769
v 0.192308 0.000000 0.000769
v 0.192308 0.000000 -0.000000
v 0.192308 -0.769231 0.000769
v 0.192308 -0.769231 -0.000000
v 3.846153 0.961538 -0.384615
v 3.076923 0.961538 -0.384615
v 3.846153 1.730769 -0.384615
v 3.076923 1.730769 -0.384615
v 3.076923 0.961538 0.384615
v 3.846153 0.961538 0.384615
v 3.076923 1.730769 0.384615
v 3.846153 1.730769 0.384615
v 3.076923 0.961538 0.384615
v 3.076923 0.961538 -0.384615
v 3.846153 0.961538 0.384615
v 3.846153 0.961538 -0.384615
v 3.846153 1.730769 0.384615
v 3.846153 1.730769 -0.384615
v 3.076923 1.730769 0.384615
v 3.076923 1.730769 -0.384615
v 3.846153 0.961538 0.384615
v 3.846153 0.961538 -0.384615
v 3.846153 1.730769 0.384615
v 3.846153 1.730769 -0.384615
v 3.076923 0.961538 -0.384615
v 3.076923 0.961538 0.384615
v 3.076923 1.730769 -0.384615
v 3.076923 1.730769 0.384615
v 2.884615 1.538462 0.000769
v 3.653846 1.538462 0.000769
v 2.884615 1.153846 0.000769
v 3.653846 1.153846 0.000769
v 3.653846 1.538462 -0.000000
v 2.884615 1.538462 -0.000000
v 3.653846 1.153846 -0.000000
v 2.884615 1.153846 -0.000000
v 3.653846 1.538462 -0.000000
v 3.653846 1.538462 0.000769
v 2.884615 1.538462 -0.000000
v 2.884615 1.538462 0.000769
v 2.884615 1.153846 -0.000000
v 2.884615 1.153846 0.000769
v 3.653846 1.153846 -0.000000
v 3.653846 1.153846 0.000769
v 2.884615 1.538462 -0.000000
v 2.884615 1.538462 0.000769
v 2.884615 1.153846 -0.000000
v 2.884615 1.153846 0.000769
v 3.653846 1.538462 0.000769
v 3.653846 1.538462 -0.000000
v 3.653846 1.153846 0.000769
v 3.653846 1.153846 -0.000000
v 1.538461 2.019231 0.673077
v 3.076923 2.019231 0.673077
v 1.538461 0.673077 0.673077
v 3.076923 0.673077 0.673077
v 3.076923 2.019231 -0.673077
v 1.538461 2.019231 -0.673077
v 3.076923 0.673077 -0.673077
v 1.538461 0.673077 -0.673077
v 3.076923 2.019231 -0.673077
v 3.076923 2.019231 0.673077
v 1.538461 2.019231 -0.673077
v 1.538461 2.019231 0.673077
v 1.538461 0.673077 -0.673077
v 1.538461 0.673077 0.673077
v 3.076923 0.673077 -0.673077
v 3.076923 0.673077 0.673077
v 1.538461 2.019231 -0.673077
v 1.538461 2.019231 0.673077
v 1.538461 0.673077 -0.673077
v 1.538461 0.673077 0.673077
v 3.076923 2.019231 0.673077
v 3.076923 2.019231 -0.673077
v 3.076923 0.673077 0.673077
v 3.076923 0.673077 -0.673077
v 2.115384 1.519231 0.865385
v 2.500000 1.519231 0.865385
v 2.115384 1.134615 0.865385
v 2.500000 1.134615 0.865385
v 2.500000 1.519231 0.480769
v 2.115384 1.519231 0.480769
v 2.500000 1.134615 0.480769
v 2.115384 1.134615 0.480769
v 2.500000 1.519231 0.480769
v 2.500000 1.519231 0.865385
v 2.115384 1.519231 0.480769
v 2.115384 1.519231 0.865385
v 2.115384 1.134615 0.480769
v 2.115384 1.134615 0.865385
v 2.500000 1.134615 0.480769
v 2.500000 1.134615 0.865385
v 2.115384 1.519231 0.480769
v 2.115384 1.519231 0.865385
v 2.115384 1.134615 0.480769
v 2.115384 1.134615 0.865385
v 2.500000 1.519231 0.865385
v 2.500000 1.519231 0.480769
v 2.500000 1.134615 0.865385
v 2.500000 1.134615 0.480769
v 2.115384 2.211539 0.192308
v 2.500000 2.211539 0.192308
v 2.115384 1.826923 0.192308
v 2.500000 1.826923 0.192308
v 2.500000 2.211539 -0.192308
v 2.115384 2.211539 -0.192308
v 2.500000 1.826923 -0.192308
v 2.115384 1.826923 -0.192308
v 2.500000 2.211539 -0.192308
v 2.500000 2.211539 0.192308
v 2.115384 2.211539 -0.192308
v 2.115384 2.211539 0.192308
v 2.115384 1.826923 -0.192308
v 2.115384 1.826923 0.192308
v 2.500000 1.826923 -0.192308
v 2.500000 1.826923 0.192308
v 2.115384 2.211539 -0.192308
v 2.115384 2.211539 0.192308
v 2.115384 1.826923 -0.192308
v 2.115384 1.826923 0.192308
v 2.500000 2.211539 0.192308
v 2.500000 2.211539 -0.192308
v 2.500000 1.826923 0.192308
v 2.500000 1.826923 -0.192308
v -2.692307 2.019231 0.673077
v -1.538461 2.019231 0.673077
v -2.692307 0.673077 0.673077
v -1.538461 0.673077 0.673077
v -1.538461 2.019231 -0.673077
v -2.692307 2.019231 -0.673077
v -1.538461 0.673077 -0.673077
v -2.692307 0.673077 -0.673077
v -1.538461 2.019231 -0.673077
v -1.538461 2.019231 0.673077
v -2.692307 2.019231 -0.673077
v -2.692307 2.019231 0.673077
v -2.692307 0.673077 -0.673077
v -2.692307 0.673077 0.673077
v -1.538461 0.673077 -0.673077
v -1.538461 0.673077 0.673077
v -2.692307 2.019231 -0.673077
v -2.692307 2.019231 0.673077
v -2.692307 0.673077 -0.673077
v -2.692307 0.673077 0.673077
v -1.538461 2.019231 0.673077
v -1.538461 2.019231 -0.673077
v -1.538461 0.673077 0.673077
v -1.538461 0.673077 -0.673077
vn -0.0000 -0.0000 1.0000
vn -0.0000 -0.0000 -1.0000
vn -0.0000 1.0000 -0.0000
vn -0.0000 -1.0000 -0.0000
vn -1.0000 -0.0000 -0.0000
vn 1.0000 -0.0000 -0.0000
vt 0.000000 1.000000
vt 0.000000 0.906250
vt 0.250000 1.000000
vt 0.250000 0.906250
vt 0.000000 0.875000
vt 0.000000 0.781250
vt 0.250000 0.875000
vt 0.250000 0.781250
vt 0.093750 0.500000
vt 0.093750 0.750000
vt 0.000000 0.500000
vt 0.000000 0.750000
vt 0.343750 1.000000
vt 0.343750 0.750000
vt 0.250000 0.750000
vt 0.562500 0.625000
vt 0.562500 0.531250
vt 0.656250 0.625000
vt 0.656250 0.531250
vt 0.562500 0.875000
vt 0.562500 0.781250
vt 0.656250 0.875000
vt 0.656250 0.781250
vt 0.125000 0.750000
vt 0.125000 0.687500
vt 0.375000 0.750000
vt 0.375000 0.687500
vt 0.125000 0.625000
vt 0.375000 0.625000
vt 0.437500 0.750000
vt 0.437500 1.000000
vt 0.375000 1.000000
vt 0.187500 0.625000
vt 0.187500 0.375000
vt 0.125000 0.375000
vt 0.562500 0.437500
vt 0.562500 0.375000
vt 0.625000 0.437500
vt 0.625000 0.375000
vt 0.562500 0.500000
vt 0.625000 0.500000
vt 0.000000 0.375000
vt 0.000000 0.312500
vt 0.062500 0.375000
vt 0.062500 0.312500
vt 0.125000 0.312500
vt 0.000000 0.937500
vt 0.187500 0.312500
vt 0.250000 0.375000
vt 0.250000 0.312500
vt 0.625000 0.750000
vt 0.625000 0.687500
vt 0.687500 0.750000
vt 0.687500 0.687500
vt 0.375000 0.312500
vt 0.375000 0.375000
vt 0.312500 0.312500
vt 0.312500 0.375000
vt 0.687500 0.625000
vt 0.625000 0.625000
vt 0.375000 0.343750
vt 0.437500 0.375000
vt 0.437500 0.343750
vt 0.500000 0.375000
vt 0.500000 0.343750
vt 0.000000 0.968750
vt 0.500000 0.750000
vt 0.500000 0.625000
vt 0.437500 0.875000
vt 0.562500 1.000000
vt 0.562500 0.750000
vt 0.437500 0.625000
vt 0.437500 0.500000
vt 0.312500 0.625000
vt 0.312500 0.500000
vt 0.187500 0.500000
vt 0.187500 0.593750
vt 0.218750 0.625000
vt 0.218750 0.593750
vt 0.468750 0.843750
vt 0.468750 0.875000
vt 0.437500 0.843750
vt 0.593750 0.750000
vt 0.593750 0.625000
vt 0.406250 0.500000
vt 0.406250 0.375000
vt 0.562500 0.406250
vt 0.437500 0.406250
vt 0.687500 1.000000
vt 0.687500 0.906250
vt 0.562500 0.906250
vt 0.125000 0.500000
s 0
usemtl Material_0.001
f 1/1/1 3/2/1 2/3/1
f 3/2/1 4/4/1 2/3/1
f 5/5/2 7/6/2 6/7/2
f 7/6/2 8/8/2 6/7/2
f 9/9/3 11/10/3 10/11/3
f 11/10/3 12/12/3 10/11/3
f 13/13/4 15/14/4 14/3/4
f 15/14/4 16/15/4 14/3/4
f 17/16/5 19/17/5 18/18/5
f 19/17/5 20/19/5 18/18/5
f 21/20/6 23/21/6 22/22/6
f 23/21/6 24/23/6 22/22/6
f 25/24/1 27/25/1 26/26/1
f 27/25/1 28/27/1 26/26/1
f 29/25/2 31/28/2 30/27/2
f 31/28/2 32/29/2 30/27/2
f 33/30/3 35/31/3 34/26/3
f 35/31/3 36/32/3 34/26/3
f 37/33/4 39/34/4 38/28/4
f 39/34/4 40/35/4 38/28/4
f 41/36/5 43/37/5 42/38/5
f 43/37/5 44/39/5 42/38/5
f 45/40/6 47/36/6 46/41/6
f 47/36/6 48/38/6 46/41/6
f 49/42/1 51/43/1 50/44/1
f 51/43/1 52/45/1 50/44/1
f 53/44/2 55/45/2 54/35/2
f 55/45/2 56/46/2 54/35/2
f 57/47/3 59/1/3 58/47/3
f 59/1/3 60/1/3 58/47/3
f 61/1/4 63/47/4 62/1/4
f 63/47/4 64/47/4 62/1/4
f 65/1/5 67/47/5 66/1/5
f 67/47/5 68/47/5 66/1/5
f 69/1/6 71/47/6 70/1/6
f 71/47/6 72/47/6 70/1/6
f 73/34/1 75/48/1 74/49/1
f 75/48/1 76/50/1 74/49/1
f 77/51/2 79/52/2 78/53/2
f 79/52/2 80/54/2 78/53/2
f 81/55/3 83/56/3 82/57/3
f 83/56/3 84/58/3 82/57/3
f 85/54/4 87/59/4 86/52/4
f 87/59/4 88/60/4 86/52/4
f 89/49/5 91/50/5 90/58/5
f 91/50/5 92/57/5 90/58/5
f 93/35/6 95/46/6 94/34/6
f 95/46/6 96/48/6 94/34/6
f 97/56/1 99/61/1 98/62/1
f 99/61/1 100/63/1 98/62/1
f 101/62/2 103/63/2 102/64/2
f 103/63/2 104/65/2 102/64/2
f 105/47/3 107/1/3 106/47/3
f 107/1/3 108/1/3 106/47/3
f 109/1/4 111/47/4 110/1/4
f 111/47/4 112/47/4 110/1/4
f 113/1/5 115/66/5 114/1/5
f 115/66/5 116/66/5 114/1/5
f 117/1/6 119/66/6 118/1/6
f 119/66/6 120/66/6 118/1/6
f 121/26/1 123/29/1 122/67/1
f 123/29/1 124/68/1 122/67/1
f 125/31/2 127/69/2 126/70/2
f 127/69/2 128/20/2 126/70/2
f 129/71/3 131/20/3 130/30/3
f 131/20/3 132/69/3 130/30/3
f 133/16/4 135/40/4 134/72/4
f 135/40/4 136/73/4 134/72/4
f 137/74/5 139/75/5 138/72/5
f 139/75/5 140/73/5 138/72/5
f 141/33/6 143/76/6 142/74/6
f 143/76/6 144/75/6 142/74/6
f 145/33/1 147/77/1 146/78/1
f 147/77/1 148/79/1 146/78/1
f 149/33/2 151/77/2 150/78/2
f 151/77/2 152/79/2 150/78/2
f 153/33/3 155/77/3 154/78/3
f 155/77/3 156/79/3 154/78/3
f 157/33/4 159/77/4 158/78/4
f 159/77/4 160/79/4 158/78/4
f 161/33/5 163/77/5 162/78/5
f 163/77/5 164/79/5 162/78/5
f 165/33/6 167/77/6 166/78/6
f 167/77/6 168/79/6 166/78/6
f 169/80/1 171/81/1 170/82/1
f 171/81/1 172/69/1 170/82/1
f 173/80/2 175/81/2 174/82/2
f 175/81/2 176/69/2 174/82/2
f 177/80/3 179/81/3 178/82/3
f 179/81/3 180/69/3 178/82/3
f 181/80/4 183/81/4 182/82/4
f 183/81/4 184/69/4 182/82/4
f 185/80/5 187/81/5 186/82/5
f 187/81/5 188/69/5 186/82/5
f 189/80/6 191/81/6 190/82/6
f 191/81/6 192/69/6 190/82/6
f 193/67/1 195/68/1 194/83/1
f 195/68/1 196/84/1 194/83/1
f 197/75/2 199/58/2 198/85/2
f 199/58/2 200/86/2 198/85/2
f 201/87/3 203/40/3 202/88/3
f 203/40/3 204/73/3 202/88/3
f 205/89/4 207/90/4 206/70/4
f 207/90/4 208/91/4 206/70/4
f 209/76/5 211/34/5 210/75/5
f 211/34/5 212/58/5 210/75/5
f 213/11/6 215/42/6 214/92/6
f 215/42/6 216/35/6 214/92/6
