# Blender 5.0.0
# www.blender.org
mtllib lev.6b45.mtl
o armorModel
v -4.827586 -1.091954 3.103448
v -4.827586 -1.091954 -3.103448
v -4.827586 13.160919 3.103448
v -4.827586 13.160919 -3.103448
v 4.827586 -1.091954 -3.103448
v 4.827586 -1.091954 3.103448
v 4.827586 13.160919 -3.103448
v 4.827586 13.160919 3.103448
v 4.827586 -1.091954 -3.103448
v -4.827586 -1.091954 -3.103448
v 4.827586 -1.091954 3.103448
v -4.827586 -1.091954 3.103448
v 4.827586 13.160919 3.103448
v -4.827586 13.160919 3.103448
v 4.827586 13.160919 -3.103448
v -4.827586 13.160919 -3.103448
v 4.827586 -1.091954 3.103448
v -4.827586 -1.091954 3.103448
v 4.827586 13.160919 3.103448
v -4.827586 13.160919 3.103448
v -4.827586 -1.091954 -3.103448
v 4.827586 -1.091954 -3.103448
v -4.827586 13.160919 -3.103448
v 4.827586 13.160919 -3.103448
v 4.826437 13.159771 -3.102299
v 4.826437 13.159771 3.102299
v 4.826437 -1.090805 -3.102299
v 4.826437 -1.090805 3.102299
v -4.826437 13.159771 3.102299
v -4.826437 13.159771 -3.102299
v -4.826437 -1.090805 3.102299
v -4.826437 -1.090805 -3.102299
v -4.826437 13.159771 3.102299
v 4.826437 13.159771 3.102299
v -4.826437 13.159771 -3.102299
v 4.826437 13.159771 -3.102299
v -4.826437 -1.090805 -3.102299
v 4.826437 -1.090805 -3.102299
v -4.826437 -1.090805 3.102299
v 4.826437 -1.090805 3.102299
v -4.826437 13.159771 -3.102299
v 4.826437 13.159771 -3.102299
v -4.826437 -1.090805 -3.102299
v 4.826437 -1.090805 -3.102299
v 4.826437 13.159771 3.102299
v -4.826437 13.159771 3.102299
v 4.826437 -1.090805 3.102299
v -4.826437 -1.090805 3.102299
v -4.597701 -0.862069 2.873563
v -4.597701 -0.862069 -2.873563
v -4.597701 12.931034 2.873563
v -4.597701 12.931034 -2.873563
v 4.597701 -0.862069 -2.873563
v 4.597701 -0.862069 2.873563
v 4.597701 12.931034 -2.873563
v 4.597701 12.931034 2.873563
v 4.597701 -0.862069 -2.873563
v -4.597701 -0.862069 -2.873563
v 4.597701 -0.862069 2.873563
v -4.597701 -0.862069 2.873563
v 4.597701 12.931034 2.873563
v -4.597701 12.931034 2.873563
v 4.597701 12.931034 -2.873563
v -4.597701 12.931034 -2.873563
v 4.597701 -0.862069 2.873563
v -4.597701 -0.862069 2.873563
v 4.597701 12.931034 2.873563
v -4.597701 12.931034 2.873563
v -4.597701 -0.862069 -2.873563
v 4.597701 -0.862069 -2.873563
v -4.597701 12.931034 -2.873563
v 4.597701 12.931034 -2.873563
v 4.586207 12.919540 -2.862069
v 4.586207 12.919540 2.862069
v 4.586207 -0.850575 -2.862069
v 4.586207 -0.850575 2.862069
v -4.586207 12.919540 2.862069
v -4.586207 12.919540 -2.862069
v -4.586207 -0.850575 2.862069
v -4.586207 -0.850575 -2.862069
v -4.586207 12.919540 2.862069
v 4.586207 12.919540 2.862069
v -4.586207 12.919540 -2.862069
v 4.586207 12.919540 -2.862069
v -4.586207 -0.850575 -2.862069
v 4.586207 -0.850575 -2.862069
v -4.586207 -0.850575 2.862069
v 4.586207 -0.850575 2.862069
v -4.586207 12.919540 -2.862069
v 4.586207 12.919540 -2.862069
v -4.586207 -0.850575 -2.862069
v 4.586207 -0.850575 -2.862069
v 4.586207 12.919540 2.862069
v -4.586207 12.919540 2.862069
v 4.586207 -0.850575 2.862069
v -4.586207 -0.850575 2.862069
v -3.448276 -2.985928 1.706475
v -3.448276 -0.786597 -3.603178
v -3.448276 -0.862067 2.586207
v -3.448276 1.337264 -2.723445
v 3.448276 -0.786597 -3.603178
v 3.448276 -2.985928 1.706475
v 3.448276 1.337264 -2.723445
v 3.448276 -0.862067 2.586207
v 3.448276 -0.786597 -3.603178
v -3.448276 -0.786597 -3.603178
v 3.448276 -2.985928 1.706475
v -3.448276 -2.985928 1.706475
v 3.448276 -0.862067 2.586207
v -3.448276 -0.862067 2.586207
v 3.448276 1.337264 -2.723445
v -3.448276 1.337264 -2.723445
v 3.448276 -2.985928 1.706475
v -3.448276 -2.985928 1.706475
v 3.448276 -0.862067 2.586207
v -3.448276 -0.862067 2.586207
v -3.448276 -0.786597 -3.603178
v 3.448276 -0.786597 -3.603178
v -3.448276 1.337264 -2.723445
v 3.448276 1.337264 -2.723445
v -5.459770 -0.287356 -2.011494
v -5.459770 -0.287356 -3.160919
v -5.459770 3.160919 -2.011494
v -5.459770 3.160919 -3.160919
v -4.310345 -0.287356 -3.160919
v -4.310345 -0.287356 -2.011494
v -4.310345 3.160919 -3.160919
v -4.310345 3.160919 -2.011494
v -4.310345 -0.287356 -3.160919
v -5.459770 -0.287356 -3.160919
v -4.310345 -0.287356 -2.011494
v -5.459770 -0.287356 -2.011494
v -4.310345 3.160919 -2.011494
v -5.459770 3.160919 -2.011494
v -4.310345 3.160919 -3.160919
v -5.459770 3.160919 -3.160919
v -4.310345 -0.287356 -2.011494
v -5.459770 -0.287356 -2.011494
v -4.310345 3.160919 -2.011494
v -5.459770 3.160919 -2.011494
v -5.459770 -0.287356 -3.160919
v -4.310345 -0.287356 -3.160919
v -5.459770 3.160919 -3.160919
v -4.310345 3.160919 -3.160919
v 4.310345 -0.287356 -2.011494
v 4.310345 -0.287356 -3.160919
v 4.310345 3.160919 -2.011494
v 4.310345 3.160919 -3.160919
v 5.459770 -0.287356 -3.160919
v 5.459770 -0.287356 -2.011494
v 5.459770 3.160919 -3.160919
v 5.459770 3.160919 -2.011494
v 5.459770 -0.287356 -3.160919
v 4.310345 -0.287356 -3.160919
v 5.459770 -0.287356 -2.011494
v 4.310345 -0.287356 -2.011494
v 5.459770 3.160919 -2.011494
v 4.310345 3.160919 -2.011494
v 5.459770 3.160919 -3.160919
v 4.310345 3.160919 -3.160919
v 5.459770 -0.287356 -2.011494
v 4.310345 -0.287356 -2.011494
v 5.459770 3.160919 -2.011494
v 4.310345 3.160919 -2.011494
v 4.310345 -0.287356 -3.160919
v 5.459770 -0.287356 -3.160919
v 4.310345 3.160919 -3.160919
v 5.459770 3.160919 -3.160919
vn -1.0000 -0.0000 -0.0000
vn 1.0000 -0.0000 -0.0000
vn -0.0000 -1.0000 -0.0000
vn -0.0000 1.0000 -0.0000
vn -0.0000 -0.0000 1.0000
vn -0.0000 -0.0000 -1.0000
vn -0.0000 -0.9239 -0.3827
vn -0.0000 0.9239 0.3827
vn -0.0000 -0.3827 0.9239
vn -0.0000 0.3827 -0.9239
vt 0.250000 1.000000
vt 0.250000 0.812500
vt 0.328125 1.000000
vt 0.328125 0.812500
vt 0.250000 0.625000
vt 0.328125 0.625000
vt 0.125000 0.546875
vt 0.125000 0.625000
vt 0.000000 0.546875
vt 0.000000 0.625000
vt 0.250000 0.546875
vt 0.125000 1.000000
vt 0.125000 0.812500
vt 0.000000 1.000000
vt 0.000000 0.812500
vt 0.375000 0.546875
vt 0.375000 0.625000
vt 0.406250 1.000000
vt 0.406250 0.812500
vt 0.406250 0.625000
vt 0.500000 0.546875
vt 0.500000 0.625000
vt 0.531250 1.000000
vt 0.531250 0.921875
vt 0.406250 0.921875
vt 0.531250 0.843750
vt 0.406250 0.843750
vt 0.000000 0.515625
vt 0.078125 0.546875
vt 0.078125 0.515625
vt 0.156250 0.546875
vt 0.156250 0.515625
vt 0.500000 0.765625
vt 0.500000 0.843750
vt 0.406250 0.765625
vt 0.500000 0.687500
vt 0.406250 0.687500
vt 0.406250 0.656250
vt 0.500000 0.656250
vt 0.000000 0.468750
vt 0.015625 0.515625
vt 0.015625 0.468750
vt 0.000000 0.500000
vt 0.015625 0.500000
vt 0.000000 0.484375
vt 0.015625 0.484375
s 0
usemtl Material_0.007
f 1/1/1 3/2/1 2/3/1
f 3/2/1 4/4/1 2/3/1
f 5/5/2 7/2/2 6/6/2
f 7/2/2 8/4/2 6/6/2
f 9/7/3 11/8/3 10/9/3
f 11/8/3 12/10/3 10/9/3
f 13/5/4 15/11/4 14/8/4
f 15/11/4 16/7/4 14/8/4
f 17/12/5 19/13/5 18/1/5
f 19/13/5 20/2/5 18/1/5
f 21/14/6 23/15/6 22/12/6
f 23/15/6 24/13/6 22/12/6
f 25/2/1 27/5/1 26/4/1
f 27/5/1 28/6/1 26/4/1
f 29/2/2 31/1/2 30/4/2
f 31/1/2 32/3/2 30/4/2
f 33/16/3 35/17/3 34/11/3
f 35/17/3 36/5/3 34/11/3
f 37/9/4 39/10/4 38/7/4
f 39/10/4 40/8/4 38/7/4
f 41/15/5 43/14/5 42/13/5
f 43/14/5 44/12/5 42/13/5
f 45/13/6 47/12/6 46/2/6
f 47/12/6 48/1/6 46/2/6
f 49/3/1 51/4/1 50/18/1
f 51/4/1 52/19/1 50/18/1
f 53/4/2 55/6/2 54/19/2
f 55/6/2 56/20/2 54/19/2
f 57/21/3 59/22/3 58/16/3
f 59/22/3 60/17/3 58/16/3
f 61/23/4 63/24/4 62/18/4
f 63/24/4 64/25/4 62/18/4
f 65/13/5 67/8/5 66/2/5
f 67/8/5 68/5/5 66/2/5
f 69/15/6 71/10/6 70/13/6
f 71/10/6 72/8/6 70/13/6
f 73/6/1 75/4/1 74/20/1
f 75/4/1 76/19/1 74/20/1
f 77/4/2 79/3/2 78/19/2
f 79/3/2 80/18/2 78/19/2
f 81/26/3 83/24/3 82/27/3
f 83/24/3 84/25/3 82/27/3
f 85/16/4 87/17/4 86/21/4
f 87/17/4 88/22/4 86/21/4
f 89/10/5 91/15/5 90/8/5
f 91/15/5 92/13/5 90/8/5
f 93/8/6 95/13/6 94/5/6
f 95/13/6 96/2/6 94/5/6
f 97/9/1 99/28/1 98/29/1
f 99/28/1 100/30/1 98/29/1
f 101/29/2 103/30/2 102/31/2
f 103/30/2 104/32/2 102/31/2
f 105/33/7 107/34/7 106/35/7
f 107/34/7 108/27/7 106/35/7
f 109/33/8 111/36/8 110/35/8
f 111/36/8 112/37/8 110/35/8
f 113/38/9 115/20/9 114/39/9
f 115/20/9 116/22/9 114/39/9
f 117/37/10 119/38/10 118/36/10
f 119/38/10 120/39/10 118/36/10
f 121/28/1 123/40/1 122/41/1
f 123/40/1 124/42/1 122/41/1
f 125/28/2 127/40/2 126/41/2
f 127/40/2 128/42/2 126/41/2
f 129/28/3 131/43/3 130/41/3
f 131/43/3 132/44/3 130/41/3
f 133/45/4 135/40/4 134/46/4
f 135/40/4 136/42/4 134/46/4
f 137/28/5 139/40/5 138/41/5
f 139/40/5 140/42/5 138/41/5
f 141/28/6 143/40/6 142/41/6
f 143/40/6 144/42/6 142/41/6
f 145/28/1 147/40/1 146/41/1
f 147/40/1 148/42/1 146/41/1
f 149/28/2 151/40/2 150/41/2
f 151/40/2 152/42/2 150/41/2
f 153/28/3 155/43/3 154/41/3
f 155/43/3 156/44/3 154/41/3
f 157/45/4 159/40/4 158/46/4
f 159/40/4 160/42/4 158/46/4
f 161/28/5 163/40/5 162/41/5
f 163/40/5 164/42/5 162/41/5
f 165/28/6 167/40/6 166/41/6
f 167/40/6 168/42/6 166/41/6
