# Blender 4.1.1
# www.blender.org
mtllib gorka.mtl
o bodyModel
v -4.500000 -0.500000 2.499999
v -4.500000 -0.500000 -2.500001
v -4.500000 12.500000 2.499997
v -4.500000 12.500000 -2.500003
v 4.500000 -0.500000 -2.499999
v 4.500000 -0.500000 2.500001
v 4.500000 12.500000 -2.500001
v 4.500000 12.500000 2.499999
v 4.500000 -0.500000 -2.499999
v -4.500000 -0.500000 -2.500001
v 4.500000 -0.500000 2.500001
v -4.500000 -0.500000 2.499999
v 4.500000 12.500000 2.499999
v -4.500000 12.500000 2.499997
v 4.500000 12.500000 -2.500001
v -4.500000 12.500000 -2.500003
v 4.500000 -0.500000 2.500001
v -4.500000 -0.500000 2.499999
v 4.500000 12.500000 2.499999
v -4.500000 12.500000 2.499997
v -4.500000 -0.500000 -2.500001
v 4.500000 -0.500000 -2.499999
v -4.500000 12.500000 -2.500003
v 4.500000 12.500000 -2.500001
v -4.300001 -0.300000 2.299999
v -4.300000 -0.300000 -2.300001
v -4.300001 12.300000 2.299997
v -4.300000 12.300000 -2.300003
v 4.300001 -0.300000 -2.299999
v 4.300000 -0.300000 2.300001
v 4.300001 12.300000 -2.300001
v 4.300000 12.300000 2.299999
v 4.300001 -0.300000 -2.299999
v -4.300000 -0.300000 -2.300001
v 4.300000 -0.300000 2.300001
v -4.300001 -0.300000 2.299999
v 4.300000 12.300000 2.299999
v -4.300001 12.300000 2.299997
v 4.300001 12.300000 -2.300001
v -4.300000 12.300000 -2.300003
v 4.300000 -0.300000 2.300001
v -4.300001 -0.300000 2.299999
v 4.300000 12.300000 2.299999
v -4.300001 12.300000 2.299997
v -4.300000 -0.300000 -2.300001
v 4.300001 -0.300000 -2.299999
v -4.300000 12.300000 -2.300003
v 4.300001 12.300000 -2.300001
vn -1.0000 -0.0000 -0.0000
vn 1.0000 -0.0000 -0.0000
vn -0.0000 -1.0000 -0.0000
vn -0.0000 1.0000 -0.0000
vn -0.0000 -0.0000 1.0000
vn -0.0000 -0.0000 -1.0000
vt 0.250244 0.437256
vt 0.250244 0.250244
vt 0.312256 0.437256
vt 0.312256 0.250244
vt 0.437744 0.437256
vt 0.437744 0.250244
vt 0.499756 0.437256
vt 0.499756 0.250244
vt 0.437256 0.437744
vt 0.437256 0.499756
vt 0.312744 0.437744
vt 0.312744 0.499756
vt 0.562256 0.499756
vt 0.562256 0.437744
vt 0.437744 0.499756
vt 0.437744 0.437744
vt 0.500244 0.437256
vt 0.500244 0.250244
vt 0.624756 0.437256
vt 0.624756 0.250244
vt 0.312744 0.437256
vt 0.312744 0.250244
vt 0.437256 0.437256
vt 0.437256 0.250244
vt 0.250244 0.687256
vt 0.250244 0.500244
vt 0.312256 0.687256
vt 0.312256 0.500244
vt 0.437744 0.687256
vt 0.437744 0.500244
vt 0.499756 0.687256
vt 0.499756 0.500244
vt 0.437256 0.687744
vt 0.437256 0.749756
vt 0.312744 0.687744
vt 0.312744 0.749756
vt 0.562256 0.749756
vt 0.562256 0.687744
vt 0.437744 0.749756
vt 0.437744 0.687744
vt 0.500244 0.687256
vt 0.500244 0.500244
vt 0.624756 0.687256
vt 0.624756 0.500244
vt 0.312744 0.687256
vt 0.312744 0.500244
vt 0.437256 0.687256
vt 0.437256 0.500244
s 0
usemtl Material_0.001
f 1/1/1 3/2/1 2/3/1
f 3/2/1 4/4/1 2/3/1
f 5/5/2 7/6/2 6/7/2
f 7/6/2 8/8/2 6/7/2
f 9/9/3 11/10/3 10/11/3
f 11/10/3 12/12/3 10/11/3
f 13/13/4 15/14/4 14/15/4
f 15/14/4 16/16/4 14/15/4
f 17/17/5 19/18/5 18/19/5
f 19/18/5 20/20/5 18/19/5
f 21/21/6 23/22/6 22/23/6
f 23/22/6 24/24/6 22/23/6
f 25/25/1 27/26/1 26/27/1
f 27/26/1 28/28/1 26/27/1
f 29/29/2 31/30/2 30/31/2
f 31/30/2 32/32/2 30/31/2
f 33/33/3 35/34/3 34/35/3
f 35/34/3 36/36/3 34/35/3
f 37/37/4 39/38/4 38/39/4
f 39/38/4 40/40/4 38/39/4
f 41/41/5 43/42/5 42/43/5
f 43/42/5 44/44/5 42/43/5
f 45/45/6 47/46/6 46/47/6
f 47/46/6 48/48/6 46/47/6
o leftLegModel
v -0.600000 11.500000 2.499998
v -0.600000 11.500000 -2.500002
v -0.600000 24.500000 2.499996
v -0.600000 24.500000 -2.500004
v 4.400001 11.500000 -2.500001
v 4.400000 11.500000 2.499999
v 4.400001 24.500000 -2.500003
v 4.400000 24.500000 2.499997
v 4.400001 11.500000 -2.500001
v -0.600000 11.500000 -2.500002
v 4.400000 11.500000 2.499999
v -0.600000 11.500000 2.499998
v 4.400000 24.500000 2.499997
v -0.600000 24.500000 2.499996
v 4.400001 24.500000 -2.500003
v -0.600000 24.500000 -2.500004
v 4.400000 11.500000 2.499999
v -0.600000 11.500000 2.499998
v 4.400000 24.500000 2.499997
v -0.600000 24.500000 2.499996
v -0.600000 11.500000 -2.500002
v 4.400001 11.500000 -2.500001
v -0.600000 24.500000 -2.500004
v 4.400001 24.500000 -2.500003
v -0.390000 11.710000 2.289998
v -0.390000 11.710000 -2.290002
v -0.390000 24.290001 2.289996
v -0.390000 24.290001 -2.290004
v 4.190001 11.710000 -2.290001
v 4.190000 11.710000 2.289999
v 4.190001 24.290001 -2.290003
v 4.190000 24.290001 2.289997
v 4.190001 11.710000 -2.290001
v -0.390000 11.710000 -2.290002
v 4.190000 11.710000 2.289999
v -0.390000 11.710000 2.289998
v 4.190000 24.290001 2.289997
v -0.390000 24.290001 2.289996
v 4.190001 24.290001 -2.290003
v -0.390000 24.290001 -2.290004
v 4.190000 11.710000 2.289999
v -0.390000 11.710000 2.289998
v 4.190000 24.290001 2.289997
v -0.390000 24.290001 2.289996
v -0.390000 11.710000 -2.290002
v 4.190001 11.710000 -2.290001
v -0.390000 24.290001 -2.290004
v 4.190001 24.290001 -2.290003
vn -1.0000 -0.0000 -0.0000
vn 1.0000 -0.0000 -0.0000
vn -0.0000 -1.0000 -0.0000
vn -0.0000 1.0000 -0.0000
vn -0.0000 -0.0000 1.0000
vn -0.0000 -0.0000 -1.0000
vt 0.000244 0.187256
vt 0.000244 0.000244
vt 0.062256 0.187256
vt 0.062256 0.000244
vt 0.125244 0.187256
vt 0.125244 0.000244
vt 0.187256 0.187256
vt 0.187256 0.000244
vt 0.124756 0.187744
vt 0.124756 0.249756
vt 0.062744 0.187744
vt 0.062744 0.249756
vt 0.187256 0.249756
vt 0.187256 0.187744
vt 0.125244 0.249756
vt 0.125244 0.187744
vt 0.187744 0.187256
vt 0.187744 0.000244
vt 0.249756 0.187256
vt 0.249756 0.000244
vt 0.062744 0.187256
vt 0.062744 0.000244
vt 0.124756 0.187256
vt 0.124756 0.000244
vt 0.250244 0.187256
vt 0.250244 0.000244
vt 0.312256 0.187256
vt 0.312256 0.000244
vt 0.375244 0.187256
vt 0.375244 0.000244
vt 0.437256 0.187256
vt 0.437256 0.000244
vt 0.374756 0.187744
vt 0.374756 0.249756
vt 0.312744 0.187744
vt 0.312744 0.249756
vt 0.437256 0.249756
vt 0.437256 0.187744
vt 0.375244 0.249756
vt 0.375244 0.187744
vt 0.437744 0.187256
vt 0.437744 0.000244
vt 0.499756 0.187256
vt 0.499756 0.000244
vt 0.312744 0.187256
vt 0.312744 0.000244
vt 0.374756 0.187256
vt 0.374756 0.000244
s 0
usemtl Material_0.001
f 49/49/7 51/50/7 50/51/7
f 51/50/7 52/52/7 50/51/7
f 53/53/8 55/54/8 54/55/8
f 55/54/8 56/56/8 54/55/8
f 57/57/9 59/58/9 58/59/9
f 59/58/9 60/60/9 58/59/9
f 61/61/10 63/62/10 62/63/10
f 63/62/10 64/64/10 62/63/10
f 65/65/11 67/66/11 66/67/11
f 67/66/11 68/68/11 66/67/11
f 69/69/12 71/70/12 70/71/12
f 71/70/12 72/72/12 70/71/12
f 73/73/7 75/74/7 74/75/7
f 75/74/7 76/76/7 74/75/7
f 77/77/8 79/78/8 78/79/8
f 79/78/8 80/80/8 78/79/8
f 81/81/9 83/82/9 82/83/9
f 83/82/9 84/84/9 82/83/9
f 85/85/10 87/86/10 86/87/10
f 87/86/10 88/88/10 86/87/10
f 89/89/11 91/90/11 90/91/11
f 91/90/11 92/92/11 90/91/11
f 93/93/12 95/94/12 94/95/12
f 95/94/12 96/96/12 94/95/12
o rightLegModel
v -4.190001 11.710000 2.289998
v -4.190000 11.710000 -2.290002
v -4.190001 24.290001 2.289996
v -4.190000 24.290001 -2.290004
v 0.390000 11.710000 -2.290002
v 0.390000 11.710000 2.289998
v 0.390000 24.290001 -2.290004
v 0.390000 24.290001 2.289996
v 0.390000 11.710000 -2.290002
v -4.190000 11.710000 -2.290002
v 0.390000 11.710000 2.289998
v -4.190001 11.710000 2.289998
v 0.390000 24.290001 2.289996
v -4.190001 24.290001 2.289996
v 0.390000 24.290001 -2.290004
v -4.190000 24.290001 -2.290004
v 0.390000 11.710000 2.289998
v -4.190001 11.710000 2.289998
v 0.390000 24.290001 2.289996
v -4.190001 24.290001 2.289996
v -4.190000 11.710000 -2.290002
v 0.390000 11.710000 -2.290002
v -4.190000 24.290001 -2.290004
v 0.390000 24.290001 -2.290004
v -4.400001 11.500000 2.499998
v -4.400000 11.500000 -2.500002
v -4.400001 24.500000 2.499995
v -4.400000 24.500000 -2.500005
v 0.600000 11.500000 -2.500002
v 0.600000 11.500000 2.499998
v 0.600000 24.500000 -2.500004
v 0.600000 24.500000 2.499996
v 0.600000 11.500000 -2.500002
v -4.400000 11.500000 -2.500002
v 0.600000 11.500000 2.499998
v -4.400001 11.500000 2.499998
v 0.600000 24.500000 2.499996
v -4.400001 24.500000 2.499995
v 0.600000 24.500000 -2.500004
v -4.400000 24.500000 -2.500005
v 0.600000 11.500000 2.499998
v -4.400001 11.500000 2.499998
v 0.600000 24.500000 2.499996
v -4.400001 24.500000 2.499995
v -4.400000 11.500000 -2.500002
v 0.600000 11.500000 -2.500002
v -4.400000 24.500000 -2.500005
v 0.600000 24.500000 -2.500004
vn -1.0000 -0.0000 -0.0000
vn 1.0000 -0.0000 -0.0000
vn -0.0000 -1.0000 -0.0000
vn -0.0000 1.0000 -0.0000
vn -0.0000 -0.0000 1.0000
vn -0.0000 -0.0000 -1.0000
vt 0.437256 0.187256
vt 0.437256 0.000244
vt 0.375244 0.187256
vt 0.375244 0.000244
vt 0.312256 0.187256
vt 0.312256 0.000244
vt 0.250244 0.187256
vt 0.250244 0.000244
vt 0.312744 0.187744
vt 0.312744 0.249756
vt 0.374756 0.187744
vt 0.374756 0.249756
vt 0.375244 0.249756
vt 0.375244 0.187744
vt 0.437256 0.249756
vt 0.437256 0.187744
vt 0.499756 0.187256
vt 0.499756 0.000244
vt 0.437744 0.187256
vt 0.437744 0.000244
vt 0.374756 0.187256
vt 0.374756 0.000244
vt 0.312744 0.187256
vt 0.312744 0.000244
vt 0.187256 0.187256
vt 0.187256 0.000244
vt 0.125244 0.187256
vt 0.125244 0.000244
vt 0.062256 0.187256
vt 0.062256 0.000244
vt 0.000244 0.187256
vt 0.000244 0.000244
vt 0.062744 0.187744
vt 0.062744 0.249756
vt 0.124756 0.187744
vt 0.124756 0.249756
vt 0.125244 0.249756
vt 0.125244 0.187744
vt 0.187256 0.249756
vt 0.187256 0.187744
vt 0.249756 0.187256
vt 0.249756 0.000244
vt 0.187744 0.187256
vt 0.187744 0.000244
vt 0.124756 0.187256
vt 0.124756 0.000244
vt 0.062744 0.187256
vt 0.062744 0.000244
s 0
usemtl Material_0.001
f 97/97/13 99/98/13 98/99/13
f 99/98/13 100/100/13 98/99/13
f 101/101/14 103/102/14 102/103/14
f 103/102/14 104/104/14 102/103/14
f 105/105/15 107/106/15 106/107/15
f 107/106/15 108/108/15 106/107/15
f 109/109/16 111/110/16 110/111/16
f 111/110/16 112/112/16 110/111/16
f 113/113/17 115/114/17 114/115/17
f 115/114/17 116/116/17 114/115/17
f 117/117/18 119/118/18 118/119/18
f 119/118/18 120/120/18 118/119/18
f 121/121/13 123/122/13 122/123/13
f 123/122/13 124/124/13 122/123/13
f 125/125/14 127/126/14 126/127/14
f 127/126/14 128/128/14 126/127/14
f 129/129/15 131/130/15 130/131/15
f 131/130/15 132/132/15 130/131/15
f 133/133/16 135/134/16 134/135/16
f 135/134/16 136/136/16 134/135/16
f 137/137/17 139/138/17 138/139/17
f 139/138/17 140/140/17 138/139/17
f 141/141/18 143/142/18 142/143/18
f 143/142/18 144/144/18 142/143/18
o rightArmModel
v -8.290000 -0.290000 2.289999
v -8.290000 -0.290000 -2.290001
v -8.290000 12.290000 2.289997
v -8.290000 12.290000 -2.290003
v -3.710000 -0.290000 -2.290000
v -3.710000 -0.290000 2.289999
v -3.710000 12.290000 -2.290002
v -3.710000 12.290000 2.289998
v -3.710000 -0.290000 -2.290000
v -8.290000 -0.290000 -2.290001
v -3.710000 -0.290000 2.289999
v -8.290000 -0.290000 2.289999
v -3.710000 12.290000 2.289998
v -8.290000 12.290000 2.289997
v -3.710000 12.290000 -2.290002
v -8.290000 12.290000 -2.290003
v -3.710000 -0.290000 2.289999
v -8.290000 -0.290000 2.289999
v -3.710000 12.290000 2.289998
v -8.290000 12.290000 2.289997
v -8.290000 -0.290000 -2.290001
v -3.710000 -0.290000 -2.290000
v -8.290000 12.290000 -2.290003
v -3.710000 12.290000 -2.290002
v -8.500000 -0.500000 2.499999
v -8.500000 -0.500000 -2.500001
v -8.500000 12.500000 2.499997
v -8.500000 12.500000 -2.500003
v -3.500000 -0.500000 -2.500000
v -3.500000 -0.500000 2.500000
v -3.500000 12.500000 -2.500002
v -3.500000 12.500000 2.499998
v -3.500000 -0.500000 -2.500000
v -8.500000 -0.500000 -2.500001
v -3.500000 -0.500000 2.500000
v -8.500000 -0.500000 2.499999
v -3.500000 12.500000 2.499998
v -8.500000 12.500000 2.499997
v -3.500000 12.500000 -2.500002
v -8.500000 12.500000 -2.500003
v -3.500000 -0.500000 2.500000
v -8.500000 -0.500000 2.499999
v -3.500000 12.500000 2.499998
v -8.500000 12.500000 2.499997
v -8.500000 -0.500000 -2.500001
v -3.500000 -0.500000 -2.500000
v -8.500000 12.500000 -2.500003
v -3.500000 12.500000 -2.500002
vn -1.0000 -0.0000 -0.0000
vn 1.0000 -0.0000 -0.0000
vn -0.0000 -1.0000 -0.0000
vn -0.0000 1.0000 -0.0000
vn -0.0000 -0.0000 1.0000
vn -0.0000 -0.0000 -1.0000
vt 0.687256 0.187256
vt 0.687256 0.000244
vt 0.625244 0.187256
vt 0.625244 0.000244
vt 0.562256 0.187256
vt 0.562256 0.000244
vt 0.500244 0.187256
vt 0.500244 0.000244
vt 0.562744 0.187744
vt 0.562744 0.249756
vt 0.624756 0.187744
vt 0.624756 0.249756
vt 0.625244 0.249756
vt 0.625244 0.187744
vt 0.687256 0.249756
vt 0.687256 0.187744
vt 0.749756 0.187256
vt 0.749756 0.000244
vt 0.687744 0.187256
vt 0.687744 0.000244
vt 0.624756 0.187256
vt 0.624756 0.000244
vt 0.562744 0.187256
vt 0.562744 0.000244
vt 0.937256 0.187256
vt 0.937256 0.000244
vt 0.875244 0.187256
vt 0.875244 0.000244
vt 0.812256 0.187256
vt 0.812256 0.000244
vt 0.750244 0.187256
vt 0.750244 0.000244
vt 0.812744 0.187744
vt 0.812744 0.249756
vt 0.874756 0.187744
vt 0.874756 0.249756
vt 0.875244 0.249756
vt 0.875244 0.187744
vt 0.937256 0.249756
vt 0.937256 0.187744
vt 0.999756 0.187256
vt 0.999756 0.000244
vt 0.937744 0.187256
vt 0.937744 0.000244
vt 0.874756 0.187256
vt 0.874756 0.000244
vt 0.812744 0.187256
vt 0.812744 0.000244
s 0
usemtl Material_0.001
f 145/145/19 147/146/19 146/147/19
f 147/146/19 148/148/19 146/147/19
f 149/149/20 151/150/20 150/151/20
f 151/150/20 152/152/20 150/151/20
f 153/153/21 155/154/21 154/155/21
f 155/154/21 156/156/21 154/155/21
f 157/157/22 159/158/22 158/159/22
f 159/158/22 160/160/22 158/159/22
f 161/161/23 163/162/23 162/163/23
f 163/162/23 164/164/23 162/163/23
f 165/165/24 167/166/24 166/167/24
f 167/166/24 168/168/24 166/167/24
f 169/169/19 171/170/19 170/171/19
f 171/170/19 172/172/19 170/171/19
f 173/173/20 175/174/20 174/175/20
f 175/174/20 176/176/20 174/175/20
f 177/177/21 179/178/21 178/179/21
f 179/178/21 180/180/21 178/179/21
f 181/181/22 183/182/22 182/183/22
f 183/182/22 184/184/22 182/183/22
f 185/185/23 187/186/23 186/187/23
f 187/186/23 188/188/23 186/187/23
f 189/189/24 191/190/24 190/191/24
f 191/190/24 192/192/24 190/191/24
o leftArmModel
v 3.710000 -0.290000 2.290000
v 3.710000 -0.290000 -2.289999
v 3.710000 12.290000 2.289999
v 3.710000 12.290000 -2.290001
v 8.290000 -0.290000 -2.289999
v 8.290000 -0.290000 2.290001
v 8.290000 12.290000 -2.290001
v 8.290000 12.290000 2.289999
v 8.290000 -0.290000 -2.289999
v 3.710000 -0.290000 -2.289999
v 8.290000 -0.290000 2.290001
v 3.710000 -0.290000 2.290000
v 8.290000 12.290000 2.289999
v 3.710000 12.290000 2.289999
v 8.290000 12.290000 -2.290001
v 3.710000 12.290000 -2.290001
v 8.290000 -0.290000 2.290001
v 3.710000 -0.290000 2.290000
v 8.290000 12.290000 2.289999
v 3.710000 12.290000 2.289999
v 3.710000 -0.290000 -2.289999
v 8.290000 -0.290000 -2.289999
v 3.710000 12.290000 -2.290001
v 8.290000 12.290000 -2.290001
v 3.500000 -0.500000 2.500000
v 3.500000 -0.500000 -2.500000
v 3.500000 12.500000 2.499999
v 3.500000 12.500000 -2.500001
v 8.500000 -0.500000 -2.499999
v 8.500000 -0.500000 2.500001
v 8.500000 12.500000 -2.500001
v 8.500000 12.500000 2.499999
v 8.500000 -0.500000 -2.499999
v 3.500000 -0.500000 -2.500000
v 8.500000 -0.500000 2.500001
v 3.500000 -0.500000 2.500000
v 8.500000 12.500000 2.499999
v 3.500000 12.500000 2.499999
v 8.500000 12.500000 -2.500001
v 3.500000 12.500000 -2.500001
v 8.500000 -0.500000 2.500001
v 3.500000 -0.500000 2.500000
v 8.500000 12.500000 2.499999
v 3.500000 12.500000 2.499999
v 3.500000 -0.500000 -2.500000
v 8.500000 -0.500000 -2.499999
v 3.500000 12.500000 -2.500001
v 8.500000 12.500000 -2.500001
vn -1.0000 -0.0000 -0.0000
vn 1.0000 -0.0000 -0.0000
vn -0.0000 -1.0000 -0.0000
vn -0.0000 1.0000 -0.0000
vn -0.0000 -0.0000 1.0000
vn -0.0000 -0.0000 -1.0000
vt 0.500244 0.187256
vt 0.500244 0.000244
vt 0.562256 0.187256
vt 0.562256 0.000244
vt 0.625244 0.187256
vt 0.625244 0.000244
vt 0.687256 0.187256
vt 0.687256 0.000244
vt 0.624756 0.187744
vt 0.624756 0.249756
vt 0.562744 0.187744
vt 0.562744 0.249756
vt 0.687256 0.249756
vt 0.687256 0.187744
vt 0.625244 0.249756
vt 0.625244 0.187744
vt 0.687744 0.187256
vt 0.687744 0.000244
vt 0.749756 0.187256
vt 0.749756 0.000244
vt 0.562744 0.187256
vt 0.562744 0.000244
vt 0.624756 0.187256
vt 0.624756 0.000244
vt 0.750244 0.187256
vt 0.750244 0.000244
vt 0.812256 0.187256
vt 0.812256 0.000244
vt 0.875244 0.187256
vt 0.875244 0.000244
vt 0.937256 0.187256
vt 0.937256 0.000244
vt 0.874756 0.187744
vt 0.874756 0.249756
vt 0.812744 0.187744
vt 0.812744 0.249756
vt 0.937256 0.249756
vt 0.937256 0.187744
vt 0.875244 0.249756
vt 0.875244 0.187744
vt 0.937744 0.187256
vt 0.937744 0.000244
vt 0.999756 0.187256
vt 0.999756 0.000244
vt 0.812744 0.187256
vt 0.812744 0.000244
vt 0.874756 0.187256
vt 0.874756 0.000244
s 0
usemtl Material_0.001
f 193/193/25 195/194/25 194/195/25
f 195/194/25 196/196/25 194/195/25
f 197/197/26 199/198/26 198/199/26
f 199/198/26 200/200/26 198/199/26
f 201/201/27 203/202/27 202/203/27
f 203/202/27 204/204/27 202/203/27
f 205/205/28 207/206/28 206/207/28
f 207/206/28 208/208/28 206/207/28
f 209/209/29 211/210/29 210/211/29
f 211/210/29 212/212/29 210/211/29
f 213/213/30 215/214/30 214/215/30
f 215/214/30 216/216/30 214/215/30
f 217/217/25 219/218/25 218/219/25
f 219/218/25 220/220/25 218/219/25
f 221/221/26 223/222/26 222/223/26
f 223/222/26 224/224/26 222/223/26
f 225/225/27 227/226/27 226/227/27
f 227/226/27 228/228/27 226/227/27
f 229/229/28 231/230/28 230/231/28
f 231/230/28 232/232/28 230/231/28
f 233/233/29 235/234/29 234/235/29
f 235/234/29 236/236/29 234/235/29
f 237/237/30 239/238/30 238/239/30
f 239/238/30 240/240/30 238/239/30
