# Blender 4.5.3 LTS
# www.blender.org
mtllib lev.afganka.mtl
o bodyModel
v -4.500000 -0.500000 2.500000
v -4.500000 -0.500000 -2.500000
v -4.500000 12.500000 2.500000
v -4.500000 12.500000 -2.500000
v 4.500000 -0.500000 -2.500000
v 4.500000 -0.500000 2.500000
v 4.500000 12.500000 -2.500000
v 4.500000 12.500000 2.500000
v 4.500000 -0.500000 -2.500000
v -4.500000 -0.500000 -2.500000
v 4.500000 -0.500000 2.500000
v -4.500000 -0.500000 2.500000
v 4.500000 12.500000 2.500000
v -4.500000 12.500000 2.500000
v 4.500000 12.500000 -2.500000
v -4.500000 12.500000 -2.500000
v 4.500000 -0.500000 2.500000
v -4.500000 -0.500000 2.500000
v 4.500000 12.500000 2.500000
v -4.500000 12.500000 2.500000
v -4.500000 -0.500000 -2.500000
v 4.500000 -0.500000 -2.500000
v -4.500000 12.500000 -2.500000
v 4.500000 12.500000 -2.500000
v -4.300000 -0.300000 2.300000
v -4.300000 -0.300000 -2.300000
v -4.300000 12.300000 2.300000
v -4.300000 12.300000 -2.300000
v 4.300000 -0.300000 -2.300000
v 4.300000 -0.300000 2.300000
v 4.300000 12.300000 -2.300000
v 4.300000 12.300000 2.300000
v 4.300000 -0.300000 -2.300000
v -4.300000 -0.300000 -2.300000
v 4.300000 -0.300000 2.300000
v -4.300000 -0.300000 2.300000
v 4.300000 12.300000 2.300000
v -4.300000 12.300000 2.300000
v 4.300000 12.300000 -2.300000
v -4.300000 12.300000 -2.300000
v 4.300000 -0.300000 2.300000
v -4.300000 -0.300000 2.300000
v 4.300000 12.300000 2.300000
v -4.300000 12.300000 2.300000
v -4.300000 -0.300000 -2.300000
v 4.300000 -0.300000 -2.300000
v -4.300000 12.300000 -2.300000
v 4.300000 12.300000 -2.300000
vn -1.0000 -0.0000 -0.0000
vn 1.0000 -0.0000 -0.0000
vn -0.0000 -1.0000 -0.0000
vn -0.0000 1.0000 -0.0000
vn -0.0000 -0.0000 1.0000
vn -0.0000 -0.0000 -1.0000
vt 0.250000 0.437500
vt 0.250000 0.250000
vt 0.312500 0.437500
vt 0.312500 0.250000
vt 0.437500 0.437500
vt 0.437500 0.250000
vt 0.500000 0.437500
vt 0.500000 0.250000
vt 0.437500 0.500000
vt 0.312500 0.500000
vt 0.562500 0.500000
vt 0.562500 0.437500
vt 0.625000 0.437500
vt 0.625000 0.250000
vt 0.250000 0.687500
vt 0.250000 0.500000
vt 0.312500 0.687500
vt 0.437500 0.687500
vt 0.500000 0.687500
vt 0.500000 0.500000
vt 0.437500 0.750000
vt 0.312500 0.750000
vt 0.562500 0.750000
vt 0.562500 0.687500
vt 0.625000 0.687500
vt 0.625000 0.500000
s 0
usemtl Material_0.002
f 1/1/1 3/2/1 2/3/1
f 3/2/1 4/4/1 2/3/1
f 5/5/2 7/6/2 6/7/2
f 7/6/2 8/8/2 6/7/2
f 9/5/3 11/9/3 10/3/3
f 11/9/3 12/10/3 10/3/3
f 13/11/4 15/12/4 14/9/4
f 15/12/4 16/5/4 14/9/4
f 17/7/5 19/8/5 18/13/5
f 19/8/5 20/14/5 18/13/5
f 21/3/6 23/4/6 22/5/6
f 23/4/6 24/6/6 22/5/6
f 25/15/1 27/16/1 26/17/1
f 27/16/1 28/10/1 26/17/1
f 29/18/2 31/9/2 30/19/2
f 31/9/2 32/20/2 30/19/2
f 33/18/3 35/21/3 34/17/3
f 35/21/3 36/22/3 34/17/3
f 37/23/4 39/24/4 38/21/4
f 39/24/4 40/18/4 38/21/4
f 41/19/5 43/20/5 42/25/5
f 43/20/5 44/26/5 42/25/5
f 45/17/6 47/10/6 46/18/6
f 47/10/6 48/9/6 46/18/6
o rightArmModel
v -8.290000 -0.290000 2.290000
v -8.290000 -0.290000 -2.290000
v -8.290000 12.290000 2.290000
v -8.290000 12.290000 -2.290000
v -3.710000 -0.290000 -2.290000
v -3.710000 -0.290000 2.290000
v -3.710000 12.290000 -2.290000
v -3.710000 12.290000 2.290000
v -3.710000 -0.290000 -2.290000
v -8.290000 -0.290000 -2.290000
v -3.710000 -0.290000 2.290000
v -8.290000 -0.290000 2.290000
v -3.710000 12.290000 2.290000
v -8.290000 12.290000 2.290000
v -3.710000 12.290000 -2.290000
v -8.290000 12.290000 -2.290000
v -3.710000 -0.290000 2.290000
v -8.290000 -0.290000 2.290000
v -3.710000 12.290000 2.290000
v -8.290000 12.290000 2.290000
v -8.290000 -0.290000 -2.290000
v -3.710000 -0.290000 -2.290000
v -8.290000 12.290000 -2.290000
v -3.710000 12.290000 -2.290000
v -8.500000 -0.500000 2.500000
v -8.500000 -0.500000 -2.500000
v -8.500000 12.500000 2.500000
v -8.500000 12.500000 -2.500000
v -3.500000 -0.500000 -2.500000
v -3.500000 -0.500000 2.500000
v -3.500000 12.500000 -2.500000
v -3.500000 12.500000 2.500000
v -3.500000 -0.500000 -2.500000
v -8.500000 -0.500000 -2.500000
v -3.500000 -0.500000 2.500000
v -8.500000 -0.500000 2.500000
v -3.500000 12.500000 2.500000
v -8.500000 12.500000 2.500000
v -3.500000 12.500000 -2.500000
v -8.500000 12.500000 -2.500000
v -3.500000 -0.500000 2.500000
v -8.500000 -0.500000 2.500000
v -3.500000 12.500000 2.500000
v -8.500000 12.500000 2.500000
v -8.500000 -0.500000 -2.500000
v -3.500000 -0.500000 -2.500000
v -8.500000 12.500000 -2.500000
v -3.500000 12.500000 -2.500000
vn -1.0000 -0.0000 -0.0000
vn 1.0000 -0.0000 -0.0000
vn -0.0000 -1.0000 -0.0000
vn -0.0000 1.0000 -0.0000
vn -0.0000 -0.0000 1.0000
vn -0.0000 -0.0000 -1.0000
vt 0.687500 0.187500
vt 0.687500 0.000000
vt 0.625000 0.187500
vt 0.625000 0.000000
vt 0.562500 0.187500
vt 0.562500 0.000000
vt 0.500000 0.187500
vt 0.500000 0.000000
vt 0.562500 0.250000
vt 0.625000 0.250000
vt 0.687500 0.250000
vt 0.750000 0.187500
vt 0.750000 0.000000
vt 0.937500 0.187500
vt 0.937500 0.000000
vt 0.875000 0.187500
vt 0.875000 0.000000
vt 0.812500 0.187500
vt 0.812500 0.000000
vt 0.812500 0.250000
vt 0.875000 0.250000
vt 0.937500 0.250000
vt 1.000000 0.187500
vt 1.000000 0.000000
s 0
usemtl Material_0.002
f 49/27/7 51/28/7 50/29/7
f 51/28/7 52/30/7 50/29/7
f 53/31/8 55/32/8 54/33/8
f 55/32/8 56/34/8 54/33/8
f 57/31/9 59/35/9 58/29/9
f 59/35/9 60/36/9 58/29/9
f 61/36/10 63/29/10 62/37/10
f 63/29/10 64/27/10 62/37/10
f 65/38/11 67/39/11 66/27/11
f 67/39/11 68/28/11 66/27/11
f 69/29/12 71/30/12 70/31/12
f 71/30/12 72/32/12 70/31/12
f 73/40/7 75/41/7 74/42/7
f 75/41/7 76/43/7 74/42/7
f 77/44/8 79/45/8 78/38/8
f 79/45/8 80/39/8 78/38/8
f 81/44/9 83/46/9 82/42/9
f 83/46/9 84/47/9 82/42/9
f 85/47/10 87/42/10 86/48/10
f 87/42/10 88/40/10 86/48/10
f 89/49/11 91/50/11 90/40/11
f 91/50/11 92/41/11 90/40/11
f 93/42/12 95/43/12 94/44/12
f 95/43/12 96/45/12 94/44/12
o leftArmModel
v 3.500000 -0.500000 2.500000
v 3.500000 -0.500000 -2.500000
v 3.500000 12.500000 2.500000
v 3.500000 12.500000 -2.500000
v 8.500000 -0.500000 -2.500000
v 8.500000 -0.500000 2.500000
v 8.500000 12.500000 -2.500000
v 8.500000 12.500000 2.500000
v 8.500000 -0.500000 -2.500000
v 3.500000 -0.500000 -2.500000
v 8.500000 -0.500000 2.500000
v 3.500000 -0.500000 2.500000
v 8.500000 12.500000 2.500000
v 3.500000 12.500000 2.500000
v 8.500000 12.500000 -2.500000
v 3.500000 12.500000 -2.500000
v 8.500000 -0.500000 2.500000
v 3.500000 -0.500000 2.500000
v 8.500000 12.500000 2.500000
v 3.500000 12.500000 2.500000
v 3.500000 -0.500000 -2.500000
v 8.500000 -0.500000 -2.500000
v 3.500000 12.500000 -2.500000
v 8.500000 12.500000 -2.500000
v 3.710000 -0.290000 2.290000
v 3.710000 -0.290000 -2.290000
v 3.710000 12.290000 2.290000
v 3.710000 12.290000 -2.290000
v 8.290000 -0.290000 -2.290000
v 8.290000 -0.290000 2.290000
v 8.290000 12.290000 -2.290000
v 8.290000 12.290000 2.290000
v 8.290000 -0.290000 -2.290000
v 3.710000 -0.290000 -2.290000
v 8.290000 -0.290000 2.290000
v 3.710000 -0.290000 2.290000
v 8.290000 12.290000 2.290000
v 3.710000 12.290000 2.290000
v 8.290000 12.290000 -2.290000
v 3.710000 12.290000 -2.290000
v 8.290000 -0.290000 2.290000
v 3.710000 -0.290000 2.290000
v 8.290000 12.290000 2.290000
v 3.710000 12.290000 2.290000
v 3.710000 -0.290000 -2.290000
v 8.290000 -0.290000 -2.290000
v 3.710000 12.290000 -2.290000
v 8.290000 12.290000 -2.290000
vn -1.0000 -0.0000 -0.0000
vn 1.0000 -0.0000 -0.0000
vn -0.0000 -1.0000 -0.0000
vn -0.0000 1.0000 -0.0000
vn -0.0000 -0.0000 1.0000
vn -0.0000 -0.0000 -1.0000
vt 0.750000 0.187500
vt 0.750000 0.000000
vt 0.812500 0.187500
vt 0.812500 0.000000
vt 0.875000 0.187500
vt 0.875000 0.000000
vt 0.937500 0.187500
vt 0.937500 0.000000
vt 0.875000 0.250000
vt 0.812500 0.250000
vt 0.937500 0.250000
vt 1.000000 0.187500
vt 1.000000 0.000000
vt 0.500000 0.187500
vt 0.500000 0.000000
vt 0.562500 0.187500
vt 0.562500 0.000000
vt 0.625000 0.187500
vt 0.625000 0.000000
vt 0.687500 0.187500
vt 0.687500 0.000000
vt 0.625000 0.250000
vt 0.562500 0.250000
vt 0.687500 0.250000
s 0
usemtl Material_0.002
f 97/51/13 99/52/13 98/53/13
f 99/52/13 100/54/13 98/53/13
f 101/55/14 103/56/14 102/57/14
f 103/56/14 104/58/14 102/57/14
f 105/55/15 107/59/15 106/53/15
f 107/59/15 108/60/15 106/53/15
f 109/61/16 111/57/16 110/59/16
f 111/57/16 112/55/16 110/59/16
f 113/57/17 115/58/17 114/62/17
f 115/58/17 116/63/17 114/62/17
f 117/53/18 119/54/18 118/55/18
f 119/54/18 120/56/18 118/55/18
f 121/64/13 123/65/13 122/66/13
f 123/65/13 124/67/13 122/66/13
f 125/68/14 127/69/14 126/70/14
f 127/69/14 128/71/14 126/70/14
f 129/68/15 131/72/15 130/66/15
f 131/72/15 132/73/15 130/66/15
f 133/74/16 135/70/16 134/72/16
f 135/70/16 136/68/16 134/72/16
f 137/70/17 139/71/17 138/51/17
f 139/71/17 140/52/17 138/51/17
f 141/66/18 143/67/18 142/68/18
f 143/67/18 144/69/18 142/68/18
