# Blender 4.5.3 LTS
# www.blender.org
mtllib lev.6b47.mtl
o headModel
v -4.694118 0.576471 4.694118
v -4.694118 0.576471 -4.694118
v -4.694118 -8.811765 4.694118
v -4.694118 -8.811765 -4.694118
v 4.694118 0.576471 -4.694118
v 4.694118 0.576471 4.694118
v 4.694118 -8.811765 -4.694118
v 4.694118 -8.811765 4.694118
v 4.694118 0.576471 -4.694118
v -4.694118 0.576471 -4.694118
v 4.694118 0.576471 4.694118
v -4.694118 0.576471 4.694118
v 4.694118 -8.811765 4.694118
v -4.694118 -8.811765 4.694118
v 4.694118 -8.811765 -4.694118
v -4.694118 -8.811765 -4.694118
v 4.694118 0.576471 4.694118
v -4.694118 0.576471 4.694118
v 4.694118 -8.811765 4.694118
v -4.694118 -8.811765 4.694118
v -4.694118 0.576471 -4.694118
v 4.694118 0.576471 -4.694118
v -4.694118 -8.811765 -4.694118
v 4.694118 -8.811765 -4.694118
v 4.705871 -8.823529 -4.705871
v 4.705871 -8.823529 4.705883
v 4.705871 0.588235 -4.705871
v 4.705871 0.588235 4.705883
v -4.705883 -8.823529 4.705883
v -4.705883 -8.823529 -4.705871
v -4.705883 0.588235 4.705883
v -4.705883 0.588235 -4.705871
v -4.705883 -8.823529 4.705883
v 4.705871 -8.823529 4.705883
v -4.705883 -8.823529 -4.705871
v 4.705871 -8.823529 -4.705871
v -4.705883 0.588235 -4.705871
v 4.705871 0.588235 -4.705871
v -4.705883 0.588235 4.705883
v 4.705871 0.588235 4.705883
v -4.705883 -8.823529 -4.705871
v 4.705871 -8.823529 -4.705871
v -4.705883 0.588235 -4.705871
v 4.705871 0.588235 -4.705871
v 4.705871 -8.823529 4.705883
v -4.705883 -8.823529 4.705883
v 4.705871 0.588235 4.705883
v -4.705883 0.588235 4.705883
v 4.941164 -9.058824 -4.941164
v 4.941164 -9.058824 4.941176
v 4.941164 0.823529 -4.941164
v 4.941164 0.823529 4.941176
v -4.941176 -9.058824 4.941176
v -4.941176 -9.058824 -4.941164
v -4.941176 0.823529 4.941176
v -4.941176 0.823529 -4.941164
v -4.941176 -9.058824 4.941176
v 4.941164 -9.058824 4.941176
v -4.941176 -9.058824 -4.941164
v 4.941164 -9.058824 -4.941164
v -4.941176 0.823529 -4.941164
v 4.941164 0.823529 -4.941164
v -4.941176 0.823529 4.941176
v 4.941164 0.823529 4.941176
v -4.941176 -9.058824 -4.941164
v 4.941164 -9.058824 -4.941164
v -4.941176 0.823529 -4.941164
v 4.941164 0.823529 -4.941164
v 4.941164 -9.058824 4.941176
v -4.941176 -9.058824 4.941176
v 4.941164 0.823529 4.941176
v -4.941176 0.823529 4.941176
v -4.929412 0.813882 4.931541
v -4.929412 0.813882 -4.929412
v -4.929412 -9.047059 4.931541
v -4.929412 -9.047059 -4.929412
v 4.931541 0.813882 -4.929412
v 4.931541 0.813882 4.931541
v 4.931541 -9.047059 -4.929412
v 4.931541 -9.047059 4.931541
v 4.931541 0.813882 -4.929412
v -4.929412 0.813882 -4.929412
v 4.931541 0.813882 4.931541
v -4.929412 0.813882 4.931541
v 4.931541 -9.047059 4.931541
v -4.929412 -9.047059 4.931541
v 4.931541 -9.047059 -4.929412
v -4.929412 -9.047059 -4.929412
v 4.931541 0.813882 4.931541
v -4.929412 0.813882 4.931541
v 4.931541 -9.047059 4.931541
v -4.929412 -9.047059 4.931541
v -4.929412 0.813882 -4.929412
v 4.931541 0.813882 -4.929412
v -4.929412 -9.047059 -4.929412
v 4.931541 -9.047059 -4.929412
v -4.578600 0.460941 4.578600
v -4.578600 0.460941 -4.576471
v -4.578600 -8.694118 4.578600
v -4.578600 -8.694118 -4.576471
v 4.576471 0.460941 -4.576471
v 4.576471 0.460941 4.578600
v 4.576471 -8.694118 -4.576471
v 4.576471 -8.694118 4.578600
v 4.576471 0.460941 -4.576471
v -4.578600 0.460941 -4.576471
v 4.576471 0.460941 4.578600
v -4.578600 0.460941 4.578600
v 4.576471 -8.694118 4.578600
v -4.578600 -8.694118 4.578600
v 4.576471 -8.694118 -4.576471
v -4.578600 -8.694118 -4.576471
v 4.576471 0.460941 4.578600
v -4.578600 0.460941 4.578600
v 4.576471 -8.694118 4.578600
v -4.578600 -8.694118 4.578600
v -4.578600 0.460941 -4.576471
v 4.576471 0.460941 -4.576471
v -4.578600 -8.694118 -4.576471
v 4.576471 -8.694118 -4.576471
v 4.588223 -8.705882 -4.588223
v 4.588223 -8.705882 4.588235
v 4.588223 0.470588 -4.588223
v 4.588223 0.470588 4.588235
v -4.588235 -8.705882 4.588235
v -4.588235 -8.705882 -4.588223
v -4.588235 0.470588 4.588235
v -4.588235 0.470588 -4.588223
v -4.588235 -8.705882 4.588235
v 4.588223 -8.705882 4.588235
v -4.588235 -8.705882 -4.588223
v 4.588223 -8.705882 -4.588223
v -4.588235 0.470588 -4.588223
v 4.588223 0.470588 -4.588223
v -4.588235 0.470588 4.588235
v 4.588223 0.470588 4.588235
v -4.588235 -8.705882 -4.588223
v 4.588223 -8.705882 -4.588223
v -4.588235 0.470588 -4.588223
v 4.588223 0.470588 -4.588223
v 4.588223 -8.705882 4.588235
v -4.588235 -8.705882 4.588235
v 4.588223 0.470588 4.588235
v -4.588235 0.470588 4.588235
v 5.294117 -5.294117 0.000000
v 5.294117 -5.294117 3.529412
v 5.294117 -4.117647 0.000000
v 5.294117 -4.117647 3.529412
v 4.705883 -5.294117 3.529412
v 4.705883 -5.294117 0.000000
v 4.705883 -4.117647 3.529412
v 4.705883 -4.117647 0.000000
v 4.705883 -5.294117 3.529412
v 5.294117 -5.294117 3.529412
v 4.705883 -5.294117 0.000000
v 5.294117 -5.294117 0.000000
v 4.705883 -4.117647 0.000000
v 5.294117 -4.117647 0.000000
v 4.705883 -4.117647 3.529412
v 5.294117 -4.117647 3.529412
v 4.705883 -5.294117 0.000000
v 5.294117 -5.294117 0.000000
v 4.705883 -4.117647 0.000000
v 5.294117 -4.117647 0.000000
v 5.294117 -5.294117 3.529412
v 4.705883 -5.294117 3.529412
v 5.294117 -4.117647 3.529412
v 4.705883 -4.117647 3.529412
v -4.705883 -5.294117 0.000000
v -4.705883 -5.294117 3.529412
v -4.705883 -4.117647 0.000000
v -4.705883 -4.117647 3.529412
v -5.294117 -5.294117 3.529412
v -5.294117 -5.294117 0.000000
v -5.294117 -4.117647 3.529412
v -5.294117 -4.117647 0.000000
v -5.294117 -5.294117 3.529412
v -4.705883 -5.294117 3.529412
v -5.294117 -5.294117 0.000000
v -4.705883 -5.294117 0.000000
v -5.294117 -4.117647 0.000000
v -4.705883 -4.117647 0.000000
v -5.294117 -4.117647 3.529412
v -4.705883 -4.117647 3.529412
v -5.294117 -5.294117 0.000000
v -4.705883 -5.294117 0.000000
v -5.294117 -4.117647 0.000000
v -4.705883 -4.117647 0.000000
v -4.705883 -5.294117 3.529412
v -5.294117 -5.294117 3.529412
v -4.705883 -4.117647 3.529412
v -5.294117 -4.117647 3.529412
vn 1.0000 -0.0000 -0.0000
vn -1.0000 -0.0000 -0.0000
vn -0.0000 -1.0000 -0.0000
vn -0.0000 1.0000 -0.0000
vn -0.0000 -0.0000 -1.0000
vn -0.0000 -0.0000 1.0000
vt 0.000000 0.875000
vt 0.000000 0.750000
vt 0.125000 0.875000
vt 0.125000 0.750000
vt 0.250000 0.875000
vt 0.250000 0.750000
vt 0.125000 0.625000
vt 0.000000 0.625000
vt 0.375000 1.000000
vt 0.375000 0.875000
vt 0.250000 1.000000
vt 0.125000 1.000000
vt 0.000000 1.000000
vt 0.375000 0.750000
vt 0.000000 0.500000
vt 0.125000 0.500000
vt 0.500000 0.875000
vt 0.500000 1.000000
vt 0.250000 0.625000
vt 0.250000 0.500000
vt 0.375000 0.625000
vt 0.375000 0.500000
vt 0.500000 0.625000
vt 0.500000 0.500000
vt 0.125000 0.375000
vt 0.000000 0.375000
vt 0.625000 1.000000
vt 0.625000 0.875000
vt 0.500000 0.750000
vt 0.625000 0.750000
vt 0.625000 0.625000
vt 0.500000 0.375000
vt 0.375000 0.375000
vt 0.625000 0.500000
vt 0.250000 0.375000
vt 0.500000 0.484375
vt 0.546875 0.500000
vt 0.546875 0.484375
vt 0.500000 0.468750
vt 0.546875 0.468750
vt 0.515625 0.421875
vt 0.515625 0.468750
vt 0.500000 0.421875
vt 0.531250 0.468750
vt 0.531250 0.421875
vt 0.562500 0.484375
vt 0.562500 0.468750
vt 0.578125 0.484375
vt 0.578125 0.468750
vt 0.531250 0.453125
vt 0.578125 0.453125
vt 0.593750 0.500000
vt 0.593750 0.484375
vt 0.546875 0.406250
vt 0.546875 0.453125
vt 0.531250 0.406250
vt 0.562500 0.453125
vt 0.562500 0.406250
vt 0.562500 0.437500
vt 0.562500 0.421875
vt 0.578125 0.437500
vt 0.578125 0.421875
s 0
usemtl Material_0
f 1/1/1 3/2/1 2/3/1
f 3/2/1 4/4/1 2/3/1
f 5/3/2 7/4/2 6/5/2
f 7/4/2 8/6/2 6/5/2
f 9/7/3 11/4/3 10/8/3
f 11/4/3 12/2/3 10/8/3
f 13/9/4 15/10/4 14/11/4
f 15/10/4 16/5/4 14/11/4
f 17/12/5 19/3/5 18/11/5
f 19/3/5 20/5/5 18/11/5
f 21/13/6 23/1/6 22/12/6
f 23/1/6 24/3/6 22/12/6
f 25/5/1 27/6/1 26/10/1
f 27/6/1 28/14/1 26/10/1
f 29/8/2 31/15/2 30/7/2
f 31/15/2 32/16/2 30/7/2
f 33/17/3 35/18/3 34/10/3
f 35/18/3 36/9/3 34/10/3
f 37/19/4 39/20/4 38/7/4
f 39/20/4 40/16/4 38/7/4
f 41/6/5 43/19/5 42/14/5
f 43/19/5 44/21/5 42/14/5
f 45/4/6 47/7/6 46/6/6
f 47/7/6 48/19/6 46/6/6
f 49/19/1 51/20/1 50/21/1
f 51/20/1 52/22/1 50/21/1
f 53/21/2 55/22/2 54/23/2
f 55/22/2 56/24/2 54/23/2
f 57/25/3 59/16/3 58/26/3
f 59/16/3 60/15/3 58/26/3
f 61/27/4 63/28/4 62/18/4
f 63/28/4 64/17/4 62/18/4
f 65/14/5 67/21/5 66/29/5
f 67/21/5 68/23/5 66/29/5
f 69/10/6 71/14/6 70/17/6
f 71/14/6 72/29/6 70/17/6
f 73/22/1 75/21/1 74/24/1
f 75/21/1 76/23/1 74/24/1
f 77/20/2 79/19/2 78/22/2
f 79/19/2 80/21/2 78/22/2
f 81/27/3 83/28/3 82/18/3
f 83/28/3 84/17/3 82/18/3
f 85/26/4 87/15/4 86/25/4
f 87/15/4 88/16/4 86/25/4
f 89/14/5 91/10/5 90/29/5
f 91/10/5 92/17/5 90/29/5
f 93/21/6 95/14/6 94/23/6
f 95/14/6 96/29/6 94/23/6
f 97/17/1 99/29/1 98/28/1
f 99/29/1 100/30/1 98/28/1
f 101/29/2 103/23/2 102/30/2
f 103/23/2 104/31/2 102/30/2
f 105/32/3 107/24/3 106/33/3
f 107/24/3 108/22/3 106/33/3
f 109/31/4 111/34/4 110/23/4
f 111/34/4 112/24/4 110/23/4
f 113/20/5 115/35/5 114/22/5
f 115/35/5 116/33/5 114/22/5
f 117/16/6 119/25/6 118/20/6
f 119/25/6 120/35/6 118/20/6
f 121/23/1 123/29/1 122/31/1
f 123/29/1 124/30/1 122/31/1
f 125/29/2 127/17/2 126/30/2
f 127/17/2 128/28/2 126/30/2
f 129/23/3 131/24/3 130/31/3
f 131/24/3 132/34/3 130/31/3
f 133/33/4 135/22/4 134/32/4
f 135/22/4 136/24/4 134/32/4
f 137/25/5 139/16/5 138/35/5
f 139/16/5 140/20/5 138/35/5
f 141/35/6 143/20/6 142/33/6
f 143/20/6 144/22/6 142/33/6
f 145/24/1 147/36/1 146/37/1
f 147/36/1 148/38/1 146/37/1
f 149/36/2 151/39/2 150/38/2
f 151/39/2 152/40/2 150/38/2
f 153/41/3 155/42/3 154/43/3
f 155/42/3 156/39/3 154/43/3
f 157/44/4 159/45/4 158/42/4
f 159/45/4 160/41/4 158/42/4
f 161/46/5 163/47/5 162/48/5
f 163/47/5 164/49/5 162/48/5
f 165/38/6 167/40/6 166/46/6
f 167/40/6 168/47/6 166/46/6
f 169/44/1 171/50/1 170/49/1
f 171/50/1 172/51/1 170/49/1
f 173/37/2 175/38/2 174/52/2
f 175/38/2 176/53/2 174/52/2
f 177/54/3 179/55/3 178/56/3
f 179/55/3 180/50/3 178/56/3
f 181/57/4 183/58/4 182/55/4
f 183/58/4 184/54/4 182/55/4
f 185/59/5 187/60/5 186/61/5
f 187/60/5 188/62/5 186/61/5
f 189/57/6 191/59/6 190/51/6
f 191/59/6 192/61/6 190/51/6
