# Blender 5.1.1
# www.blender.org
mtllib lev.rkka_vest.mtl
o armorModel
v 1.609195 7.727417 -2.758621
v 1.609195 7.727417 -4.137931
v 1.609195 11.405579 -2.758621
v 1.609195 11.405579 -4.137931
v 4.137931 7.727417 -4.137931
v 4.137931 7.727417 -2.758621
v 4.137931 11.405579 -4.137931
v 4.137931 11.405579 -2.758621
v 4.137931 7.727417 -4.137931
v 1.609195 7.727417 -4.137931
v 4.137931 7.727417 -2.758621
v 1.609195 7.727417 -2.758621
v 4.137931 11.405579 -2.758621
v 1.609195 11.405579 -2.758621
v 4.137931 11.405579 -4.137931
v 1.609195 11.405579 -4.137931
v 4.137931 7.727417 -2.758621
v 1.609195 7.727417 -2.758621
v 4.137931 11.405579 -2.758621
v 1.609195 11.405579 -2.758621
v 1.609195 7.727417 -4.137931
v 4.137931 7.727417 -4.137931
v 1.609195 11.405579 -4.137931
v 4.137931 11.405579 -4.137931
v 1.724138 8.417072 -2.873563
v 1.724138 8.417072 -4.022988
v 1.724138 10.715923 -2.873563
v 1.724138 10.715923 -4.022988
v 4.022988 8.417072 -4.022988
v 4.022988 8.417072 -2.873563
v 4.022988 10.715923 -4.022988
v 4.022988 10.715923 -2.873563
v 4.022988 8.417072 -4.022988
v 1.724138 8.417072 -4.022988
v 4.022988 8.417072 -2.873563
v 1.724138 8.417072 -2.873563
v 4.022988 10.715923 -2.873563
v 1.724138 10.715923 -2.873563
v 4.022988 10.715923 -4.022988
v 1.724138 10.715923 -4.022988
v 4.022988 8.417072 -2.873563
v 1.724138 8.417072 -2.873563
v 4.022988 10.715923 -2.873563
v 1.724138 10.715923 -2.873563
v 1.724138 8.417072 -4.022988
v 4.022988 8.417072 -4.022988
v 1.724138 10.715923 -4.022988
v 4.022988 10.715923 -4.022988
v 2.298851 7.267647 -2.873563
v 2.298851 7.267647 -4.022988
v 2.298851 8.417072 -2.873563
v 2.298851 8.417072 -4.022988
v 3.448276 7.267647 -4.022988
v 3.448276 7.267647 -2.873563
v 3.448276 8.417072 -4.022988
v 3.448276 8.417072 -2.873563
v 3.448276 7.267647 -4.022988
v 2.298851 7.267647 -4.022988
v 3.448276 7.267647 -2.873563
v 2.298851 7.267647 -2.873563
v 3.448276 8.417072 -2.873563
v 2.298851 8.417072 -2.873563
v 3.448276 8.417072 -4.022988
v 2.298851 8.417072 -4.022988
v 3.448276 7.267647 -2.873563
v 2.298851 7.267647 -2.873563
v 3.448276 8.417072 -2.873563
v 2.298851 8.417072 -2.873563
v 2.298851 7.267647 -4.022988
v 3.448276 7.267647 -4.022988
v 2.298851 8.417072 -4.022988
v 3.448276 8.417072 -4.022988
v -4.972136 6.865348 -1.403785
v -5.499975 6.865348 -2.678102
v -4.972136 11.692935 -1.403785
v -5.499975 11.692935 -2.678102
v -2.101798 6.865348 -4.085673
v -1.573959 6.865348 -2.811357
v -2.101798 11.692935 -4.085673
v -1.573959 11.692935 -2.811357
v -2.101798 6.865348 -4.085673
v -5.499975 6.865348 -2.678102
v -1.573959 6.865348 -2.811357
v -4.972136 6.865348 -1.403785
v -1.573959 11.692935 -2.811357
v -4.972136 11.692935 -1.403785
v -2.101798 11.692935 -4.085673
v -5.499975 11.692935 -2.678102
v -1.573959 6.865348 -2.811357
v -4.972136 6.865348 -1.403785
v -1.573959 11.692935 -2.811357
v -4.972136 11.692935 -1.403785
v -5.499975 6.865348 -2.678102
v -2.101798 6.865348 -4.085673
v -5.499975 11.692935 -2.678102
v -2.101798 11.692935 -4.085673
v -4.909929 6.980290 -1.553965
v -5.349796 6.980290 -2.615896
v -4.909929 11.577992 -1.553965
v -5.349796 11.577992 -2.615896
v -2.164004 6.980290 -3.935494
v -1.724138 6.980290 -2.873563
v -2.164004 11.577992 -3.935494
v -1.724138 11.577992 -2.873563
v -2.164004 6.980290 -3.935494
v -5.349796 6.980290 -2.615896
v -1.724138 6.980290 -2.873563
v -4.909929 6.980290 -1.553965
v -1.724138 11.577992 -2.873563
v -4.909929 11.577992 -1.553965
v -2.164004 11.577992 -3.935494
v -5.349796 11.577992 -2.615896
v -1.724138 6.980290 -2.873563
v -4.909929 6.980290 -1.553965
v -1.724138 11.577992 -2.873563
v -4.909929 11.577992 -1.553965
v -5.349796 6.980290 -2.615896
v -2.164004 6.980290 -3.935494
v -5.349796 11.577992 -2.615896
v -2.164004 11.577992 -3.935494
v 4.482759 8.589486 2.701149
v 4.482759 8.589486 0.172414
v 4.482759 11.118222 2.701149
v 4.482759 11.118222 0.172414
v 5.862069 8.589486 0.172414
v 5.862069 8.589486 2.701149
v 5.862069 11.118222 0.172414
v 5.862069 11.118222 2.701149
v 5.862069 8.589486 0.172414
v 4.482759 8.589486 0.172414
v 5.862069 8.589486 2.701149
v 4.482759 8.589486 2.701149
v 5.862069 11.118222 2.701149
v 4.482759 11.118222 2.701149
v 5.862069 11.118222 0.172414
v 4.482759 11.118222 0.172414
v 5.862069 8.589486 2.701149
v 4.482759 8.589486 2.701149
v 5.862069 11.118222 2.701149
v 4.482759 11.118222 2.701149
v 4.482759 8.589486 0.172414
v 5.862069 8.589486 0.172414
v 4.482759 11.118222 0.172414
v 5.862069 11.118222 0.172414
v -5.862069 7.440061 2.126437
v -5.862069 7.440061 -0.402299
v -5.862069 11.118222 2.126437
v -5.862069 11.118222 -0.402299
v -4.482759 7.440061 -0.402299
v -4.482759 7.440061 2.126437
v -4.482759 11.118222 -0.402299
v -4.482759 11.118222 2.126437
v -4.482759 7.440061 -0.402299
v -5.862069 7.440061 -0.402299
v -4.482759 7.440061 2.126437
v -5.862069 7.440061 2.126437
v -4.482759 11.118222 2.126437
v -5.862069 11.118222 2.126437
v -4.482759 11.118222 -0.402299
v -5.862069 11.118222 -0.402299
v -4.482759 7.440061 2.126437
v -5.862069 7.440061 2.126437
v -4.482759 11.118222 2.126437
v -5.862069 11.118222 2.126437
v -5.862069 7.440061 -0.402299
v -4.482759 7.440061 -0.402299
v -5.862069 11.118222 -0.402299
v -4.482759 11.118222 -0.402299
v -5.747127 7.555003 2.011494
v -5.747127 7.555003 -0.287356
v -5.747127 11.003280 2.011494
v -5.747127 11.003280 -0.287356
v -4.597701 7.555003 -0.287356
v -4.597701 7.555003 2.011494
v -4.597701 11.003280 -0.287356
v -4.597701 11.003280 2.011494
v -4.597701 7.555003 -0.287356
v -5.747127 7.555003 -0.287356
v -4.597701 7.555003 2.011494
v -5.747127 7.555003 2.011494
v -4.597701 11.003280 2.011494
v -5.747127 11.003280 2.011494
v -4.597701 11.003280 -0.287356
v -5.747127 11.003280 -0.287356
v -4.597701 7.555003 2.011494
v -5.747127 7.555003 2.011494
v -4.597701 11.003280 2.011494
v -5.747127 11.003280 2.011494
v -5.747127 7.555003 -0.287356
v -4.597701 7.555003 -0.287356
v -5.747127 11.003280 -0.287356
v -4.597701 11.003280 -0.287356
v 4.597701 8.704429 2.586207
v 4.597701 8.704429 0.287356
v 4.597701 11.003280 2.586207
v 4.597701 11.003280 0.287356
v 5.747127 8.704429 0.287356
v 5.747127 8.704429 2.586207
v 5.747127 11.003280 0.287356
v 5.747127 11.003280 2.586207
v 5.747127 8.704429 0.287356
v 4.597701 8.704429 0.287356
v 5.747127 8.704429 2.586207
v 4.597701 8.704429 2.586207
v 5.747127 11.003280 2.586207
v 4.597701 11.003280 2.586207
v 5.747127 11.003280 0.287356
v 4.597701 11.003280 0.287356
v 5.747127 8.704429 2.586207
v 4.597701 8.704429 2.586207
v 5.747127 11.003280 2.586207
v 4.597701 11.003280 2.586207
v 4.597701 8.704429 0.287356
v 5.747127 8.704429 0.287356
v 4.597701 11.003280 0.287356
v 5.747127 11.003280 0.287356
v 4.597701 8.704429 -0.287356
v 4.597701 8.704429 -2.586207
v 4.597701 11.003280 -0.287356
v 4.597701 11.003280 -2.586207
v 5.747127 8.704429 -2.586207
v 5.747127 8.704429 -0.287356
v 5.747127 11.003280 -2.586207
v 5.747127 11.003280 -0.287356
v 5.747127 8.704429 -2.586207
v 4.597701 8.704429 -2.586207
v 5.747127 8.704429 -0.287356
v 4.597701 8.704429 -0.287356
v 5.747127 11.003280 -0.287356
v 4.597701 11.003280 -0.287356
v 5.747127 11.003280 -2.586207
v 4.597701 11.003280 -2.586207
v 5.747127 8.704429 -0.287356
v 4.597701 8.704429 -0.287356
v 5.747127 11.003280 -0.287356
v 4.597701 11.003280 -0.287356
v 4.597701 8.704429 -2.586207
v 5.747127 8.704429 -2.586207
v 4.597701 11.003280 -2.586207
v 5.747127 11.003280 -2.586207
v 4.482759 8.589486 -0.172414
v 4.482759 8.589486 -2.701149
v 4.482759 11.118222 -0.172414
v 4.482759 11.118222 -2.701149
v 5.862069 8.589486 -2.701149
v 5.862069 8.589486 -0.172414
v 5.862069 11.118222 -2.701149
v 5.862069 11.118222 -0.172414
v 5.862069 8.589486 -2.701149
v 4.482759 8.589486 -2.701149
v 5.862069 8.589486 -0.172414
v 4.482759 8.589486 -0.172414
v 5.862069 11.118222 -0.172414
v 4.482759 11.118222 -0.172414
v 5.862069 11.118222 -2.701149
v 4.482759 11.118222 -2.701149
v 5.862069 8.589486 -0.172414
v 4.482759 8.589486 -0.172414
v 5.862069 11.118222 -0.172414
v 4.482759 11.118222 -0.172414
v 4.482759 8.589486 -2.701149
v 5.862069 8.589486 -2.701149
v 4.482759 11.118222 -2.701149
v 5.862069 11.118222 -2.701149
v 4.482759 11.463049 0.689655
v 4.482759 11.463049 -2.988506
v 4.482759 15.141211 0.689655
v 4.482759 15.141211 -2.988506
v 5.862069 11.463049 -2.988506
v 5.862069 11.463049 0.689655
v 5.862069 15.141211 -2.988506
v 5.862069 15.141211 0.689655
v 5.862069 11.463049 -2.988506
v 4.482759 11.463049 -2.988506
v 5.862069 11.463049 0.689655
v 4.482759 11.463049 0.689655
v 5.862069 15.141211 0.689655
v 4.482759 15.141211 0.689655
v 5.862069 15.141211 -2.988506
v 4.482759 15.141211 -2.988506
v 5.862069 11.463049 0.689655
v 4.482759 11.463049 0.689655
v 5.862069 15.141211 0.689655
v 4.482759 15.141211 0.689655
v 4.482759 11.463049 -2.988506
v 5.862069 11.463049 -2.988506
v 4.482759 15.141211 -2.988506
v 5.862069 15.141211 -2.988506
v 4.597701 11.577992 0.574713
v 4.597701 11.577992 -2.873563
v 4.597701 15.026268 0.574713
v 4.597701 15.026268 -2.873563
v 5.747127 11.577992 -2.873563
v 5.747127 11.577992 0.574713
v 5.747127 15.026268 -2.873563
v 5.747127 15.026268 0.574713
v 5.747127 11.577992 -2.873563
v 4.597701 11.577992 -2.873563
v 5.747127 11.577992 0.574713
v 4.597701 11.577992 0.574713
v 5.747127 15.026268 0.574713
v 4.597701 15.026268 0.574713
v 5.747127 15.026268 -2.873563
v 4.597701 15.026268 -2.873563
v 5.747127 11.577992 0.574713
v 4.597701 11.577992 0.574713
v 5.747127 15.026268 0.574713
v 4.597701 15.026268 0.574713
v 4.597701 11.577992 -2.873563
v 5.747127 11.577992 -2.873563
v 4.597701 15.026268 -2.873563
v 5.747127 15.026268 -2.873563
v -4.597701 -0.490974 2.873563
v -4.597701 -0.490974 -2.873563
v -4.597701 13.302130 2.873563
v -4.597701 13.302130 -2.873563
v 4.597701 -0.490974 -2.873563
v 4.597701 -0.490974 2.873563
v 4.597701 13.302130 -2.873563
v 4.597701 13.302130 2.873563
v 4.597701 -0.490974 -2.873563
v -4.597701 -0.490974 -2.873563
v 4.597701 -0.490974 2.873563
v -4.597701 -0.490974 2.873563
v 4.597701 13.302130 2.873563
v -4.597701 13.302130 2.873563
v 4.597701 13.302130 -2.873563
v -4.597701 13.302130 -2.873563
v 4.597701 -0.490974 2.873563
v -4.597701 -0.490974 2.873563
v 4.597701 13.302130 2.873563
v -4.597701 13.302130 2.873563
v -4.597701 -0.490974 -2.873563
v 4.597701 -0.490974 -2.873563
v -4.597701 13.302130 -2.873563
v 4.597701 13.302130 -2.873563
v 4.586207 13.290635 -2.862069
v 4.586207 13.290635 2.862069
v 4.586207 -0.479479 -2.862069
v 4.586207 -0.479479 2.862069
v -4.586207 13.290635 2.862069
v -4.586207 13.290635 -2.862069
v -4.586207 -0.479479 2.862069
v -4.586207 -0.479479 -2.862069
v -4.586207 13.290635 2.862069
v 4.586207 13.290635 2.862069
v -4.586207 13.290635 -2.862069
v 4.586207 13.290635 -2.862069
v -4.586207 -0.479479 -2.862069
v 4.586207 -0.479479 -2.862069
v -4.586207 -0.479479 2.862069
v 4.586207 -0.479479 2.862069
v -4.586207 13.290635 -2.862069
v 4.586207 13.290635 -2.862069
v -4.586207 -0.479479 -2.862069
v 4.586207 -0.479479 -2.862069
v 4.586207 13.290635 2.862069
v -4.586207 13.290635 2.862069
v 4.586207 -0.479479 2.862069
v -4.586207 -0.479479 2.862069
v -4.827586 -0.720859 3.103448
v -4.827586 -0.720859 -3.103448
v -4.827586 13.532015 3.103448
v -4.827586 13.532015 -3.103448
v 4.827586 -0.720859 -3.103448
v 4.827586 -0.720859 3.103448
v 4.827586 13.532015 -3.103448
v 4.827586 13.532015 3.103448
v 4.827586 -0.720859 -3.103448
v -4.827586 -0.720859 -3.103448
v 4.827586 -0.720859 3.103448
v -4.827586 -0.720859 3.103448
v 4.827586 13.532015 3.103448
v -4.827586 13.532015 3.103448
v 4.827586 13.532015 -3.103448
v -4.827586 13.532015 -3.103448
v 4.827586 -0.720859 3.103448
v -4.827586 -0.720859 3.103448
v 4.827586 13.532015 3.103448
v -4.827586 13.532015 3.103448
v -4.827586 -0.720859 -3.103448
v 4.827586 -0.720859 -3.103448
v -4.827586 13.532015 -3.103448
v 4.827586 13.532015 -3.103448
v 4.826437 13.530866 -3.102299
v 4.826437 13.530866 3.102299
v 4.826437 -0.719709 -3.102299
v 4.826437 -0.719709 3.102299
v -4.826437 13.530866 3.102299
v -4.826437 13.530866 -3.102299
v -4.826437 -0.719709 3.102299
v -4.826437 -0.719709 -3.102299
v -4.826437 13.530866 3.102299
v 4.826437 13.530866 3.102299
v -4.826437 13.530866 -3.102299
v 4.826437 13.530866 -3.102299
v -4.826437 -0.719709 -3.102299
v 4.826437 -0.719709 -3.102299
v -4.826437 -0.719709 3.102299
v 4.826437 -0.719709 3.102299
v -4.826437 13.530866 -3.102299
v 4.826437 13.530866 -3.102299
v -4.826437 -0.719709 -3.102299
v 4.826437 -0.719709 -3.102299
v 4.826437 13.530866 3.102299
v -4.826437 13.530866 3.102299
v 4.826437 -0.719709 3.102299
v -4.826437 -0.719709 3.102299
vn -1.0000 -0.0000 -0.0000
vn 1.0000 -0.0000 -0.0000
vn -0.0000 -1.0000 -0.0000
vn -0.0000 1.0000 -0.0000
vn -0.0000 -0.0000 1.0000
vn -0.0000 -0.0000 -1.0000
vn -0.9239 -0.0000 0.3827
vn 0.9239 -0.0000 -0.3827
vn 0.3827 -0.0000 0.9239
vn -0.3827 -0.0000 -0.9239
vt 0.281250 0.484375
vt 0.281250 0.437500
vt 0.296875 0.484375
vt 0.296875 0.437500
vt 0.312500 0.484375
vt 0.312500 0.437500
vt 0.578125 0.984375
vt 0.578125 1.000000
vt 0.546875 0.984375
vt 0.546875 1.000000
vt 0.578125 0.968750
vt 0.546875 0.968750
vt 0.187500 0.546875
vt 0.187500 0.500000
vt 0.218750 0.546875
vt 0.218750 0.500000
vt 0.156250 0.546875
vt 0.156250 0.500000
vt 0.312500 0.421875
vt 0.328125 0.484375
vt 0.328125 0.421875
vt 0.343750 0.484375
vt 0.343750 0.421875
vt 0.578125 0.953125
vt 0.546875 0.953125
vt 0.578125 0.937500
vt 0.546875 0.937500
vt 0.250000 0.546875
vt 0.250000 0.484375
vt 0.281250 0.546875
vt 0.218750 0.484375
vt 0.625000 0.953125
vt 0.625000 0.968750
vt 0.609375 0.953125
vt 0.609375 0.968750
vt 0.406250 0.484375
vt 0.406250 0.421875
vt 0.421875 0.484375
vt 0.421875 0.421875
vt 0.437500 0.484375
vt 0.437500 0.421875
vt 0.593750 0.859375
vt 0.593750 0.875000
vt 0.546875 0.859375
vt 0.546875 0.875000
vt 0.578125 0.859375
vt 0.578125 0.843750
vt 0.546875 0.843750
vt 0.421875 0.390625
vt 0.421875 0.328125
vt 0.468750 0.390625
vt 0.468750 0.328125
vt 0.343750 0.406250
vt 0.343750 0.343750
vt 0.390625 0.406250
vt 0.390625 0.343750
vt 0.453125 0.484375
vt 0.453125 0.421875
vt 0.468750 0.484375
vt 0.468750 0.421875
vt 0.593750 0.828125
vt 0.593750 0.843750
vt 0.546875 0.828125
vt 0.593750 0.812500
vt 0.546875 0.812500
vt 0.000000 0.390625
vt 0.000000 0.328125
vt 0.046875 0.390625
vt 0.046875 0.328125
vt 0.515625 0.390625
vt 0.515625 0.328125
vt 0.500000 0.750000
vt 0.500000 0.718750
vt 0.531250 0.750000
vt 0.531250 0.718750
vt 0.500000 0.703125
vt 0.500000 0.671875
vt 0.531250 0.703125
vt 0.531250 0.671875
vt 0.562500 0.625000
vt 0.562500 0.656250
vt 0.546875 0.625000
vt 0.546875 0.656250
vt 0.562500 0.593750
vt 0.546875 0.593750
vt 0.531250 0.765625
vt 0.531250 0.734375
vt 0.546875 0.765625
vt 0.546875 0.734375
vt 0.531250 0.812500
vt 0.531250 0.781250
vt 0.546875 0.781250
vt 0.500000 0.656250
vt 0.500000 0.609375
vt 0.531250 0.656250
vt 0.531250 0.609375
vt 0.500000 0.562500
vt 0.531250 0.562500
vt 0.562500 0.562500
vt 0.546875 0.562500
vt 0.562500 0.531250
vt 0.546875 0.531250
vt 0.531250 0.625000
vt 0.546875 0.671875
vt 0.546875 0.718750
vt 0.500000 0.515625
vt 0.531250 0.515625
vt 0.500000 0.468750
vt 0.531250 0.468750
vt 0.562500 0.500000
vt 0.546875 0.500000
vt 0.562500 0.468750
vt 0.546875 0.468750
vt 0.531250 0.578125
vt 0.531250 0.531250
vt 0.546875 0.578125
vt 0.156250 0.484375
vt 0.156250 0.453125
vt 0.187500 0.484375
vt 0.187500 0.453125
vt 0.218750 0.453125
vt 0.562500 0.437500
vt 0.546875 0.437500
vt 0.171875 0.437500
vt 0.171875 0.406250
vt 0.156250 0.437500
vt 0.156250 0.406250
vt 0.500000 0.437500
vt 0.515625 0.468750
vt 0.515625 0.437500
vt 0.531250 0.500000
vt 0.562500 0.687500
vt 0.562500 0.640625
vt 0.609375 0.687500
vt 0.609375 0.640625
vt 0.406250 0.687500
vt 0.406250 0.640625
vt 0.453125 0.687500
vt 0.453125 0.640625
vt 0.500000 0.640625
vt 0.500000 0.687500
vt 0.484375 0.640625
vt 0.484375 0.687500
vt 0.468750 0.687500
vt 0.468750 0.640625
vt 0.109375 0.546875
vt 0.109375 0.500000
vt 0.062500 0.546875
vt 0.062500 0.500000
vt 0.125000 0.453125
vt 0.125000 0.500000
vt 0.109375 0.453125
vt 0.093750 0.500000
vt 0.093750 0.453125
vt 0.140625 0.500000
vt 0.140625 0.453125
vt 0.328125 1.000000
vt 0.328125 0.812500
vt 0.406250 1.000000
vt 0.406250 0.812500
vt 0.328125 0.625000
vt 0.406250 0.625000
vt 0.500000 0.546875
vt 0.500000 0.625000
vt 0.375000 0.546875
vt 0.375000 0.625000
vt 0.531250 1.000000
vt 0.531250 0.921875
vt 0.406250 0.921875
vt 0.125000 0.812500
vt 0.125000 0.625000
vt 0.250000 0.812500
vt 0.250000 0.625000
vt 0.000000 0.812500
vt 0.000000 0.625000
vt 0.531250 0.843750
vt 0.406250 0.843750
vt 0.250000 1.000000
vt 0.125000 0.546875
vt 0.000000 0.546875
vt 0.125000 1.000000
vt 0.000000 1.000000
s 0
usemtl Material_0.002
f 1/1/1 3/2/1 2/3/1
f 3/2/1 4/4/1 2/3/1
f 5/3/2 7/4/2 6/5/2
f 7/4/2 8/6/2 6/5/2
f 9/7/3 11/8/3 10/9/3
f 11/8/3 12/10/3 10/9/3
f 13/7/4 15/11/4 14/9/4
f 15/11/4 16/12/4 14/9/4
f 17/13/5 19/14/5 18/15/5
f 19/14/5 20/16/5 18/15/5
f 21/17/6 23/18/6 22/13/6
f 23/18/6 24/14/6 22/13/6
f 25/5/1 27/19/1 26/20/1
f 27/19/1 28/21/1 26/20/1
f 29/20/2 31/21/2 30/22/2
f 31/21/2 32/23/2 30/22/2
f 33/24/3 35/11/3 34/25/3
f 35/11/3 36/12/3 34/25/3
f 37/24/4 39/26/4 38/25/4
f 39/26/4 40/27/4 38/25/4
f 41/28/5 43/29/5 42/30/5
f 43/29/5 44/1/5 42/30/5
f 45/15/6 47/31/6 46/28/6
f 47/31/6 48/29/6 46/28/6
f 49/32/1 51/33/1 50/34/1
f 51/33/1 52/35/1 50/34/1
f 53/32/2 55/33/2 54/34/2
f 55/33/2 56/35/2 54/34/2
f 57/32/3 59/33/3 58/34/3
f 59/33/3 60/35/3 58/34/3
f 61/32/4 63/33/4 62/34/4
f 63/33/4 64/35/4 62/34/4
f 65/32/5 67/33/5 66/34/5
f 67/33/5 68/35/5 66/34/5
f 69/32/6 71/33/6 70/34/6
f 71/33/6 72/35/6 70/34/6
f 73/36/7 75/37/7 74/38/7
f 75/37/7 76/39/7 74/38/7
f 77/38/8 79/39/8 78/40/8
f 79/39/8 80/41/8 78/40/8
f 81/42/3 83/43/3 82/44/3
f 83/43/3 84/45/3 82/44/3
f 85/46/4 87/47/4 86/44/4
f 87/47/4 88/48/4 86/44/4
f 89/49/9 91/50/9 90/51/9
f 91/50/9 92/52/9 90/51/9
f 93/53/10 95/54/10 94/55/10
f 95/54/10 96/56/10 94/55/10
f 97/40/7 99/41/7 98/57/7
f 99/41/7 100/58/7 98/57/7
f 101/57/8 103/58/8 102/59/8
f 103/58/8 104/60/8 102/59/8
f 105/61/3 107/62/3 106/63/3
f 107/62/3 108/48/3 106/63/3
f 109/61/4 111/64/4 110/63/4
f 111/64/4 112/65/4 110/63/4
f 113/66/9 115/67/9 114/68/9
f 115/67/9 116/69/9 114/68/9
f 117/51/10 119/52/10 118/70/10
f 119/52/10 120/71/10 118/70/10
f 121/72/1 123/73/1 122/74/1
f 123/73/1 124/75/1 122/74/1
f 125/76/2 127/77/2 126/78/2
f 127/77/2 128/79/2 126/78/2
f 129/80/3 131/81/3 130/82/3
f 131/81/3 132/83/3 130/82/3
f 133/80/4 135/84/4 134/82/4
f 135/84/4 136/85/4 134/82/4
f 137/86/5 139/87/5 138/88/5
f 139/87/5 140/89/5 138/88/5
f 141/90/6 143/91/6 142/65/6
f 143/91/6 144/92/6 142/65/6
f 145/93/1 147/94/1 146/95/1
f 147/94/1 148/96/1 146/95/1
f 149/94/2 151/97/2 150/96/2
f 151/97/2 152/98/2 150/96/2
f 153/99/3 155/84/3 154/100/3
f 155/84/3 156/85/3 154/100/3
f 157/99/4 159/101/4 158/100/4
f 159/101/4 160/102/4 158/100/4
f 161/79/5 163/103/5 162/104/5
f 163/103/5 164/82/5 162/104/5
f 165/75/6 167/79/6 166/105/6
f 167/79/6 168/104/6 166/105/6
f 169/97/1 171/106/1 170/98/1
f 171/106/1 172/107/1 170/98/1
f 173/106/2 175/108/2 174/107/2
f 175/108/2 176/109/2 174/107/2
f 177/110/3 179/101/3 178/111/3
f 179/101/3 180/102/3 178/111/3
f 181/110/4 183/112/4 182/111/4
f 183/112/4 184/113/4 182/111/4
f 185/114/5 187/115/5 186/116/5
f 187/115/5 188/102/5 186/116/5
f 189/103/6 191/114/6 190/82/6
f 191/114/6 192/116/6 190/82/6
f 193/117/1 195/118/1 194/119/1
f 195/118/1 196/120/1 194/119/1
f 197/119/2 199/120/2 198/31/2
f 199/120/2 200/121/2 198/31/2
f 201/122/3 203/112/3 202/123/3
f 203/112/3 204/113/3 202/123/3
f 205/124/4 207/125/4 206/126/4
f 207/125/4 208/127/4 206/126/4
f 209/108/5 211/128/5 210/129/5
f 211/128/5 212/130/5 210/129/5
f 213/115/6 215/131/6 214/102/6
f 215/131/6 216/111/6 214/102/6
f 217/117/1 219/118/1 218/119/1
f 219/118/1 220/120/1 218/119/1
f 221/119/2 223/120/2 222/31/2
f 223/120/2 224/121/2 222/31/2
f 225/122/3 227/112/3 226/123/3
f 227/112/3 228/113/3 226/123/3
f 229/124/4 231/125/4 230/126/4
f 231/125/4 232/127/4 230/126/4
f 233/108/5 235/128/5 234/129/5
f 235/128/5 236/130/5 234/129/5
f 237/115/6 239/131/6 238/102/6
f 239/131/6 240/111/6 238/102/6
f 241/72/1 243/73/1 242/74/1
f 243/73/1 244/75/1 242/74/1
f 245/76/2 247/77/2 246/78/2
f 247/77/2 248/79/2 246/78/2
f 249/80/3 251/81/3 250/82/3
f 251/81/3 252/83/3 250/82/3
f 253/80/4 255/84/4 254/82/4
f 255/84/4 256/85/4 254/82/4
f 257/86/5 259/87/5 258/88/5
f 259/87/5 260/89/5 258/88/5
f 261/90/6 263/91/6 262/65/6
f 263/91/6 264/92/6 262/65/6
f 265/132/1 267/133/1 266/134/1
f 267/133/1 268/135/1 266/134/1
f 269/136/2 271/137/2 270/138/2
f 271/137/2 272/139/2 270/138/2
f 273/140/3 275/141/3 274/142/3
f 275/141/3 276/143/3 274/142/3
f 277/80/4 279/84/4 278/82/4
f 279/84/4 280/85/4 278/82/4
f 281/144/5 283/145/5 282/143/5
f 283/145/5 284/142/5 282/143/5
f 285/138/6 287/139/6 286/144/6
f 287/139/6 288/145/6 286/144/6
f 289/146/1 291/147/1 290/17/1
f 291/147/1 292/18/1 290/17/1
f 293/148/2 295/149/2 294/146/2
f 295/149/2 296/147/2 294/146/2
f 297/150/3 299/151/3 298/152/3
f 299/151/3 300/147/3 298/152/3
f 301/147/4 303/152/4 302/153/4
f 303/152/4 304/154/4 302/153/4
f 305/151/5 307/150/5 306/155/5
f 307/150/5 308/156/5 306/155/5
f 309/155/6 311/156/6 310/18/6
f 311/156/6 312/118/6 310/18/6
f 313/157/1 315/158/1 314/159/1
f 315/158/1 316/160/1 314/159/1
f 317/158/2 319/161/2 318/160/2
f 319/161/2 320/162/2 318/160/2
f 321/163/3 323/164/3 322/165/3
f 323/164/3 324/166/3 322/165/3
f 325/167/4 327/168/4 326/159/4
f 327/168/4 328/169/4 326/159/4
f 329/170/5 331/171/5 330/172/5
f 331/171/5 332/173/5 330/172/5
f 333/174/6 335/175/6 334/170/6
f 335/175/6 336/171/6 334/170/6
f 337/161/1 339/158/1 338/162/1
f 339/158/1 340/160/1 338/162/1
f 341/158/2 343/157/2 342/160/2
f 343/157/2 344/159/2 342/160/2
f 345/176/3 347/168/3 346/177/3
f 347/168/3 348/169/3 346/177/3
f 349/163/4 351/164/4 350/165/4
f 351/164/4 352/166/4 350/165/4
f 353/175/5 355/174/5 354/171/5
f 355/174/5 356/170/5 354/171/5
f 357/171/6 359/170/6 358/173/6
f 359/170/6 360/172/6 358/173/6
f 361/178/1 363/172/1 362/157/1
f 363/172/1 364/158/1 362/157/1
f 365/172/2 367/173/2 366/158/2
f 367/173/2 368/161/2 366/158/2
f 369/179/3 371/171/3 370/180/3
f 371/171/3 372/175/3 370/180/3
f 373/173/4 375/28/4 374/171/4
f 375/28/4 376/179/4 374/171/4
f 377/181/5 379/170/5 378/178/5
f 379/170/5 380/172/5 378/178/5
f 381/182/6 383/174/6 382/181/6
f 383/174/6 384/170/6 382/181/6
f 385/173/1 387/172/1 386/161/1
f 387/172/1 388/158/1 386/161/1
f 389/172/2 391/178/2 390/158/2
f 391/178/2 392/157/2 390/158/2
f 393/165/3 395/166/3 394/28/3
f 395/166/3 396/173/3 394/28/3
f 397/180/4 399/175/4 398/179/4
f 399/175/4 400/171/4 398/179/4
f 401/174/5 403/182/5 402/170/5
f 403/182/5 404/181/5 402/170/5
f 405/170/6 407/181/6 406/172/6
f 407/181/6 408/178/6 406/172/6
