# Blender 5.0.0
# www.blender.org
mtllib lev.6b47_6b50_2.mtl
o headModel
v 4.941164 -9.058824 -4.941164
v 4.941164 -9.058824 4.941176
v 4.941164 0.823529 -4.941164
v 4.941164 0.823529 4.941176
v -4.941176 -9.058824 4.941176
v -4.941176 -9.058824 -4.941164
v -4.941176 0.823529 4.941176
v -4.941176 0.823529 -4.941164
v -4.941176 -9.058824 4.941176
v 4.941164 -9.058824 4.941176
v -4.941176 -9.058824 -4.941164
v 4.941164 -9.058824 -4.941164
v -4.941176 0.823529 -4.941164
v 4.941164 0.823529 -4.941164
v -4.941176 0.823529 4.941176
v 4.941164 0.823529 4.941176
v -4.941176 -9.058824 -4.941164
v 4.941164 -9.058824 -4.941164
v -4.941176 0.823529 -4.941164
v 4.941164 0.823529 -4.941164
v 4.941164 -9.058824 4.941176
v -4.941176 -9.058824 4.941176
v 4.941164 0.823529 4.941176
v -4.941176 0.823529 4.941176
v 4.824706 -4.530588 -5.648235
v 4.824706 -4.530588 -4.351764
v 4.824706 -4.528235 -5.648235
v 4.824706 -4.528235 -4.351764
v -4.824706 -4.530588 -4.351764
v -4.824706 -4.530588 -5.648235
v -4.824706 -4.528235 -4.351764
v -4.824706 -4.528235 -5.648235
v -4.824706 -4.530588 -4.351764
v 4.824706 -4.530588 -4.351764
v -4.824706 -4.530588 -5.648235
v 4.824706 -4.530588 -5.648235
v -4.824706 -4.528235 -5.648235
v 4.824706 -4.528235 -5.648235
v -4.824706 -4.528235 -4.351764
v 4.824706 -4.528235 -4.351764
v -4.824706 -4.530588 -5.648235
v 4.824706 -4.530588 -5.648235
v -4.824706 -4.528235 -5.648235
v 4.824706 -4.528235 -5.648235
v 4.824706 -4.530588 -4.351764
v -4.824706 -4.530588 -4.351764
v 4.824706 -4.528235 -4.351764
v -4.824706 -4.528235 -4.351764
v 4.824706 -8.295294 -5.648235
v 4.824706 -8.295294 -4.351764
v 4.824706 -8.292941 -5.648235
v 4.824706 -8.292941 -4.351764
v -4.824706 -8.295294 -4.351764
v -4.824706 -8.295294 -5.648235
v -4.824706 -8.292941 -4.351764
v -4.824706 -8.292941 -5.648235
v -4.824706 -8.295294 -4.351764
v 4.824706 -8.295294 -4.351764
v -4.824706 -8.295294 -5.648235
v 4.824706 -8.295294 -5.648235
v -4.824706 -8.292941 -5.648235
v 4.824706 -8.292941 -5.648235
v -4.824706 -8.292941 -4.351764
v 4.824706 -8.292941 -4.351764
v -4.824706 -8.295294 -5.648235
v 4.824706 -8.295294 -5.648235
v -4.824706 -8.292941 -5.648235
v 4.824706 -8.292941 -5.648235
v 4.824706 -8.295294 -4.351764
v -4.824706 -8.295294 -4.351764
v 4.824706 -8.292941 -4.351764
v -4.824706 -8.292941 -4.351764
v 4.824706 -8.295294 -5.648235
v 4.824706 -8.295294 -4.351764
v 4.824706 -4.528235 -5.648235
v 4.824706 -4.528235 -4.351764
v 4.822353 -8.295294 -4.351764
v 4.822353 -8.295294 -5.648235
v 4.822353 -4.528235 -4.351764
v 4.822353 -4.528235 -5.648235
v 4.822353 -8.295294 -4.351764
v 4.824706 -8.295294 -4.351764
v 4.822353 -8.295294 -5.648235
v 4.824706 -8.295294 -5.648235
v 4.822353 -4.528235 -5.648235
v 4.824706 -4.528235 -5.648235
v 4.822353 -4.528235 -4.351764
v 4.824706 -4.528235 -4.351764
v 4.822353 -8.295294 -5.648235
v 4.824706 -8.295294 -5.648235
v 4.822353 -4.528235 -5.648235
v 4.824706 -4.528235 -5.648235
v 4.824706 -8.295294 -4.351764
v 4.822353 -8.295294 -4.351764
v 4.824706 -4.528235 -4.351764
v 4.822353 -4.528235 -4.351764
v -4.822353 -8.295294 -5.648235
v -4.822353 -8.295294 -4.351764
v -4.822353 -4.528235 -5.648235
v -4.822353 -4.528235 -4.351764
v -4.824706 -8.295294 -4.351764
v -4.824706 -8.295294 -5.648235
v -4.824706 -4.528235 -4.351764
v -4.824706 -4.528235 -5.648235
v -4.824706 -8.295294 -4.351764
v -4.822353 -8.295294 -4.351764
v -4.824706 -8.295294 -5.648235
v -4.822353 -8.295294 -5.648235
v -4.824706 -4.528235 -5.648235
v -4.822353 -4.528235 -5.648235
v -4.824706 -4.528235 -4.351764
v -4.822353 -4.528235 -4.351764
v -4.824706 -8.295294 -5.648235
v -4.822353 -8.295294 -5.648235
v -4.824706 -4.528235 -5.648235
v -4.822353 -4.528235 -5.648235
v -4.822353 -8.295294 -4.351764
v -4.824706 -8.295294 -4.351764
v -4.822353 -4.528235 -4.351764
v -4.824706 -4.528235 -4.351764
v 4.824706 -8.295294 -5.588235
v 4.824706 -8.295294 -5.587059
v 4.824706 -4.528235 -5.588235
v 4.824706 -4.528235 -5.587059
v -4.824706 -8.295294 -5.587059
v -4.824706 -8.295294 -5.588235
v -4.824706 -4.528235 -5.587059
v -4.824706 -4.528235 -5.588235
v -4.824706 -8.295294 -5.587059
v 4.824706 -8.295294 -5.587059
v -4.824706 -8.295294 -5.588235
v 4.824706 -8.295294 -5.588235
v -4.824706 -4.528235 -5.588235
v 4.824706 -4.528235 -5.588235
v -4.824706 -4.528235 -5.587059
v 4.824706 -4.528235 -5.587059
v -4.824706 -8.295294 -5.588235
v 4.824706 -8.295294 -5.588235
v -4.824706 -4.528235 -5.588235
v 4.824706 -4.528235 -5.588235
v 4.824706 -8.295294 -5.587059
v -4.824706 -8.295294 -5.587059
v 4.824706 -4.528235 -5.587059
v -4.824706 -4.528235 -5.587059
v 4.943530 -9.590589 -5.384706
v 4.943530 -9.590589 5.208236
v 4.943530 -4.527059 -5.384706
v 4.943530 -4.527059 5.208236
v -4.943530 -9.590589 5.208236
v -4.943530 -9.590589 -5.384706
v -4.943530 -4.527059 5.208236
v -4.943530 -4.527059 -5.384706
v -4.943530 -9.590589 5.208236
v 4.943530 -9.590589 5.208236
v -4.943530 -9.590589 -5.384706
v 4.943530 -9.590589 -5.384706
v -4.943530 -4.527059 -5.384706
v 4.943530 -4.527059 -5.384706
v -4.943530 -4.527059 5.208236
v 4.943530 -4.527059 5.208236
v -4.943530 -9.590589 -5.384706
v 4.943530 -9.590589 -5.384706
v -4.943530 -4.527059 -5.384706
v 4.943530 -4.527059 -5.384706
v 4.943530 -9.590589 5.208236
v -4.943530 -9.590589 5.208236
v 4.943530 -4.527059 5.208236
v -4.943530 -4.527059 5.208236
v -4.940000 -4.536470 5.175294
v -4.940000 -4.536470 -5.410588
v -4.940000 -9.592941 5.175294
v -4.940000 -9.592941 -5.410588
v 4.940000 -4.536470 -5.410588
v 4.940000 -4.536470 5.175294
v 4.940000 -9.592941 -5.410588
v 4.940000 -9.592941 5.175294
v 4.940000 -4.536470 -5.410588
v -4.940000 -4.536470 -5.410588
v 4.940000 -4.536470 5.175294
v -4.940000 -4.536470 5.175294
v 4.940000 -9.592941 5.175294
v -4.940000 -9.592941 5.175294
v 4.940000 -9.592941 -5.410588
v -4.940000 -9.592941 -5.410588
v 4.940000 -4.536470 5.175294
v -4.940000 -4.536470 5.175294
v 4.940000 -9.592941 5.175294
v -4.940000 -9.592941 5.175294
v -4.940000 -4.536470 -5.410588
v 4.940000 -4.536470 -5.410588
v -4.940000 -9.592941 -5.410588
v 4.940000 -9.592941 -5.410588
v -4.694118 0.576471 4.694118
v -4.694118 0.576471 -4.694118
v -4.694118 -8.811765 4.694118
v -4.694118 -8.811765 -4.694118
v 4.694118 0.576471 -4.694118
v 4.694118 0.576471 4.694118
v 4.694118 -8.811765 -4.694118
v 4.694118 -8.811765 4.694118
v 4.694118 0.576471 -4.694118
v -4.694118 0.576471 -4.694118
v 4.694118 0.576471 4.694118
v -4.694118 0.576471 4.694118
v 4.694118 -8.811765 4.694118
v -4.694118 -8.811765 4.694118
v 4.694118 -8.811765 -4.694118
v -4.694118 -8.811765 -4.694118
v 4.694118 0.576471 4.694118
v -4.694118 0.576471 4.694118
v 4.694118 -8.811765 4.694118
v -4.694118 -8.811765 4.694118
v -4.694118 0.576471 -4.694118
v 4.694118 0.576471 -4.694118
v -4.694118 -8.811765 -4.694118
v 4.694118 -8.811765 -4.694118
v 4.705871 -8.823529 -4.705871
v 4.705871 -8.823529 4.705883
v 4.705871 0.588235 -4.705871
v 4.705871 0.588235 4.705883
v -4.705883 -8.823529 4.705883
v -4.705883 -8.823529 -4.705871
v -4.705883 0.588235 4.705883
v -4.705883 0.588235 -4.705871
v -4.705883 -8.823529 4.705883
v 4.705871 -8.823529 4.705883
v -4.705883 -8.823529 -4.705871
v 4.705871 -8.823529 -4.705871
v -4.705883 0.588235 -4.705871
v 4.705871 0.588235 -4.705871
v -4.705883 0.588235 4.705883
v 4.705871 0.588235 4.705883
v -4.705883 -8.823529 -4.705871
v 4.705871 -8.823529 -4.705871
v -4.705883 0.588235 -4.705871
v 4.705871 0.588235 -4.705871
v 4.705871 -8.823529 4.705883
v -4.705883 -8.823529 4.705883
v 4.705871 0.588235 4.705883
v -4.705883 0.588235 4.705883
v -4.929412 0.813882 4.931541
v -4.929412 0.813882 -4.929412
v -4.929412 -9.047059 4.931541
v -4.929412 -9.047059 -4.929412
v 4.931541 0.813882 -4.929412
v 4.931541 0.813882 4.931541
v 4.931541 -9.047059 -4.929412
v 4.931541 -9.047059 4.931541
v 4.931541 0.813882 -4.929412
v -4.929412 0.813882 -4.929412
v 4.931541 0.813882 4.931541
v -4.929412 0.813882 4.931541
v 4.931541 -9.047059 4.931541
v -4.929412 -9.047059 4.931541
v 4.931541 -9.047059 -4.929412
v -4.929412 -9.047059 -4.929412
v 4.931541 0.813882 4.931541
v -4.929412 0.813882 4.931541
v 4.931541 -9.047059 4.931541
v -4.929412 -9.047059 4.931541
v -4.929412 0.813882 -4.929412
v 4.931541 0.813882 -4.929412
v -4.929412 -9.047059 -4.929412
v 4.931541 -9.047059 -4.929412
v -4.578600 0.460941 4.578600
v -4.578600 0.460941 -4.576471
v -4.578600 -8.694118 4.578600
v -4.578600 -8.694118 -4.576471
v 4.576471 0.460941 -4.576471
v 4.576471 0.460941 4.578600
v 4.576471 -8.694118 -4.576471
v 4.576471 -8.694118 4.578600
v 4.576471 0.460941 -4.576471
v -4.578600 0.460941 -4.576471
v 4.576471 0.460941 4.578600
v -4.578600 0.460941 4.578600
v 4.576471 -8.694118 4.578600
v -4.578600 -8.694118 4.578600
v 4.576471 -8.694118 -4.576471
v -4.578600 -8.694118 -4.576471
v 4.576471 0.460941 4.578600
v -4.578600 0.460941 4.578600
v 4.576471 -8.694118 4.578600
v -4.578600 -8.694118 4.578600
v -4.578600 0.460941 -4.576471
v 4.576471 0.460941 -4.576471
v -4.578600 -8.694118 -4.576471
v 4.576471 -8.694118 -4.576471
v 4.588223 -8.705882 -4.588223
v 4.588223 -8.705882 4.588235
v 4.588223 0.470588 -4.588223
v 4.588223 0.470588 4.588235
v -4.588235 -8.705882 4.588235
v -4.588235 -8.705882 -4.588223
v -4.588235 0.470588 4.588235
v -4.588235 0.470588 -4.588223
v -4.588235 -8.705882 4.588235
v 4.588223 -8.705882 4.588235
v -4.588235 -8.705882 -4.588223
v 4.588223 -8.705882 -4.588223
v -4.588235 0.470588 -4.588223
v 4.588223 0.470588 -4.588223
v -4.588235 0.470588 4.588235
v 4.588223 0.470588 4.588235
v -4.588235 -8.705882 -4.588223
v 4.588223 -8.705882 -4.588223
v -4.588235 0.470588 -4.588223
v 4.588223 0.470588 -4.588223
v 4.588223 -8.705882 4.588235
v -4.588235 -8.705882 4.588235
v 4.588223 0.470588 4.588235
v -4.588235 0.470588 4.588235
v 5.294117 -5.294117 0.000000
v 5.294117 -5.294117 3.529412
v 5.294117 -4.117647 0.000000
v 5.294117 -4.117647 3.529412
v 4.705883 -5.294117 3.529412
v 4.705883 -5.294117 0.000000
v 4.705883 -4.117647 3.529412
v 4.705883 -4.117647 0.000000
v 4.705883 -5.294117 3.529412
v 5.294117 -5.294117 3.529412
v 4.705883 -5.294117 0.000000
v 5.294117 -5.294117 0.000000
v 4.705883 -4.117647 0.000000
v 5.294117 -4.117647 0.000000
v 4.705883 -4.117647 3.529412
v 5.294117 -4.117647 3.529412
v 4.705883 -5.294117 0.000000
v 5.294117 -5.294117 0.000000
v 4.705883 -4.117647 0.000000
v 5.294117 -4.117647 0.000000
v 5.294117 -5.294117 3.529412
v 4.705883 -5.294117 3.529412
v 5.294117 -4.117647 3.529412
v 4.705883 -4.117647 3.529412
v -4.705883 -5.294117 0.000000
v -4.705883 -5.294117 3.529412
v -4.705883 -4.117647 0.000000
v -4.705883 -4.117647 3.529412
v -5.294117 -5.294117 3.529412
v -5.294117 -5.294117 0.000000
v -5.294117 -4.117647 3.529412
v -5.294117 -4.117647 0.000000
v -5.294117 -5.294117 3.529412
v -4.705883 -5.294117 3.529412
v -5.294117 -5.294117 0.000000
v -4.705883 -5.294117 0.000000
v -5.294117 -4.117647 0.000000
v -4.705883 -4.117647 0.000000
v -5.294117 -4.117647 3.529412
v -4.705883 -4.117647 3.529412
v -5.294117 -5.294117 0.000000
v -4.705883 -5.294117 0.000000
v -5.294117 -4.117647 0.000000
v -4.705883 -4.117647 0.000000
v -4.705883 -5.294117 3.529412
v -5.294117 -5.294117 3.529412
v -4.705883 -4.117647 3.529412
v -5.294117 -4.117647 3.529412
vn 1.0000 -0.0000 -0.0000
vn -1.0000 -0.0000 -0.0000
vn -0.0000 -1.0000 -0.0000
vn -0.0000 1.0000 -0.0000
vn -0.0000 -0.0000 -1.0000
vn -0.0000 -0.0000 1.0000
vt 0.250000 0.625000
vt 0.250000 0.500000
vt 0.375000 0.625000
vt 0.375000 0.500000
vt 0.500000 0.625000
vt 0.500000 0.500000
vt 0.125000 0.375000
vt 0.125000 0.500000
vt 0.000000 0.375000
vt 0.000000 0.500000
vt 0.625000 1.000000
vt 0.625000 0.875000
vt 0.500000 1.000000
vt 0.500000 0.875000
vt 0.375000 0.750000
vt 0.500000 0.750000
vt 0.375000 0.875000
vt 0.843750 0.046875
vt 0.843750 0.000000
vt 0.859375 0.046875
vt 0.859375 0.000000
vt 0.875000 0.046875
vt 0.875000 0.000000
vt 0.875000 0.062500
vt 1.000000 0.062500
vt 1.000000 0.046875
vt 0.875000 0.078125
vt 1.000000 0.078125
vt 1.000000 0.000000
vt 0.875000 0.125000
vt 1.000000 0.125000
vt 1.000000 0.234375
vt 1.000000 0.187500
vt 0.875000 0.234375
vt 0.875000 0.187500
vt 0.718750 0.062500
vt 0.718750 0.000000
vt 0.843750 0.062500
vt 0.585938 0.187500
vt 0.585938 0.062500
vt 0.718750 0.187500
vt 0.851562 0.187500
vt 0.851562 0.062500
vt 0.875000 0.250000
vt 1.000000 0.250000
vt 0.593750 0.062500
vt 0.593750 0.000000
vt 0.000000 0.875000
vt 0.000000 0.750000
vt 0.125000 0.875000
vt 0.125000 0.750000
vt 0.250000 0.875000
vt 0.250000 0.750000
vt 0.125000 0.625000
vt 0.000000 0.625000
vt 0.375000 1.000000
vt 0.250000 1.000000
vt 0.125000 1.000000
vt 0.000000 1.000000
vt 0.625000 0.750000
vt 0.625000 0.625000
vt 0.500000 0.375000
vt 0.375000 0.375000
vt 0.625000 0.500000
vt 0.250000 0.375000
vt 0.500000 0.484375
vt 0.546875 0.500000
vt 0.546875 0.484375
vt 0.500000 0.468750
vt 0.546875 0.468750
vt 0.515625 0.421875
vt 0.515625 0.468750
vt 0.500000 0.421875
vt 0.531250 0.468750
vt 0.531250 0.421875
vt 0.562500 0.484375
vt 0.562500 0.468750
vt 0.578125 0.484375
vt 0.578125 0.468750
vt 0.531250 0.453125
vt 0.578125 0.453125
vt 0.593750 0.500000
vt 0.593750 0.484375
vt 0.546875 0.406250
vt 0.546875 0.453125
vt 0.531250 0.406250
vt 0.562500 0.453125
vt 0.562500 0.406250
vt 0.562500 0.437500
vt 0.562500 0.421875
vt 0.578125 0.437500
vt 0.578125 0.421875
s 0
usemtl Material_0.012
f 1/1/1 3/2/1 2/3/1
f 3/2/1 4/4/1 2/3/1
f 5/3/2 7/4/2 6/5/2
f 7/4/2 8/6/2 6/5/2
f 9/7/3 11/8/3 10/9/3
f 11/8/3 12/10/3 10/9/3
f 13/11/4 15/12/4 14/13/4
f 15/12/4 16/14/4 14/13/4
f 17/15/5 19/3/5 18/16/5
f 19/3/5 20/5/5 18/16/5
f 21/17/6 23/15/6 22/14/6
f 23/15/6 24/16/6 22/14/6
f 25/18/1 27/19/1 26/20/1
f 27/19/1 28/21/1 26/20/1
f 29/20/2 31/21/2 30/22/2
f 31/21/2 32/23/2 30/22/2
f 33/24/3 35/22/3 34/25/3
f 35/22/3 36/26/3 34/25/3
f 37/27/4 39/24/4 38/28/4
f 39/24/4 40/25/4 38/28/4
f 41/22/5 43/23/5 42/26/5
f 43/23/5 44/29/5 42/26/5
f 45/30/6 47/27/6 46/31/6
f 47/27/6 48/28/6 46/31/6
f 49/18/1 51/19/1 50/20/1
f 51/19/1 52/21/1 50/20/1
f 53/20/2 55/21/2 54/22/2
f 55/21/2 56/23/2 54/22/2
f 57/24/3 59/22/3 58/25/3
f 59/22/3 60/26/3 58/25/3
f 61/27/4 63/24/4 62/28/4
f 63/24/4 64/25/4 62/28/4
f 65/22/5 67/23/5 66/26/5
f 67/23/5 68/29/5 66/26/5
f 69/30/6 71/27/6 70/31/6
f 71/27/6 72/28/6 70/31/6
f 73/18/1 75/19/1 74/20/1
f 75/19/1 76/21/1 74/20/1
f 77/20/2 79/21/2 78/22/2
f 79/21/2 80/23/2 78/22/2
f 81/24/3 83/22/3 82/25/3
f 83/22/3 84/26/3 82/25/3
f 85/27/4 87/24/4 86/28/4
f 87/24/4 88/25/4 86/28/4
f 89/22/5 91/23/5 90/26/5
f 91/23/5 92/29/5 90/26/5
f 93/30/6 95/27/6 94/31/6
f 95/27/6 96/28/6 94/31/6
f 97/18/1 99/19/1 98/20/1
f 99/19/1 100/21/1 98/20/1
f 101/20/2 103/21/2 102/22/2
f 103/21/2 104/23/2 102/22/2
f 105/24/3 107/22/3 106/25/3
f 107/22/3 108/26/3 106/25/3
f 109/27/4 111/24/4 110/28/4
f 111/24/4 112/25/4 110/28/4
f 113/22/5 115/23/5 114/26/5
f 115/23/5 116/29/5 114/26/5
f 117/30/6 119/27/6 118/31/6
f 119/27/6 120/28/6 118/31/6
f 121/18/1 123/19/1 122/20/1
f 123/19/1 124/21/1 122/20/1
f 125/20/2 127/21/2 126/22/2
f 127/21/2 128/23/2 126/22/2
f 129/24/3 131/22/3 130/25/3
f 131/22/3 132/26/3 130/25/3
f 133/27/4 135/24/4 134/28/4
f 135/24/4 136/25/4 134/28/4
f 137/22/5 139/23/5 138/26/5
f 139/23/5 140/29/5 138/26/5
f 141/32/6 143/33/6 142/34/6
f 143/33/6 144/35/6 142/34/6
f 145/36/1 147/37/1 146/38/1
f 147/37/1 148/19/1 146/38/1
f 149/38/2 151/19/2 150/36/2
f 151/19/2 152/37/2 150/36/2
f 153/39/3 155/40/3 154/41/3
f 155/40/3 156/36/3 154/41/3
f 157/41/4 159/36/4 158/42/4
f 159/36/4 160/43/4 158/42/4
f 161/44/5 163/35/5 162/45/5
f 163/35/5 164/33/5 162/45/5
f 165/46/6 167/47/6 166/36/6
f 167/47/6 168/37/6 166/36/6
f 169/19/1 171/38/1 170/37/1
f 171/38/1 172/36/1 170/37/1
f 173/37/2 175/36/2 174/19/2
f 175/36/2 176/38/2 174/19/2
f 177/42/3 179/43/3 178/41/3
f 179/43/3 180/36/3 178/41/3
f 181/41/4 183/36/4 182/39/4
f 183/36/4 184/40/4 182/39/4
f 185/47/5 187/46/5 186/37/5
f 187/46/5 188/36/5 186/37/5
f 189/35/6 191/44/6 190/33/6
f 191/44/6 192/45/6 190/33/6
f 193/48/1 195/49/1 194/50/1
f 195/49/1 196/51/1 194/50/1
f 197/50/2 199/51/2 198/52/2
f 199/51/2 200/53/2 198/52/2
f 201/54/3 203/51/3 202/55/3
f 203/51/3 204/49/3 202/55/3
f 205/56/4 207/17/4 206/57/4
f 207/17/4 208/52/4 206/57/4
f 209/58/5 211/50/5 210/57/5
f 211/50/5 212/52/5 210/57/5
f 213/59/6 215/48/6 214/58/6
f 215/48/6 216/50/6 214/58/6
f 217/52/1 219/53/1 218/17/1
f 219/53/1 220/15/1 218/17/1
f 221/55/2 223/10/2 222/54/2
f 223/10/2 224/8/2 222/54/2
f 225/14/3 227/13/3 226/17/3
f 227/13/3 228/56/3 226/17/3
f 229/1/4 231/2/4 230/54/4
f 231/2/4 232/8/4 230/54/4
f 233/53/5 235/1/5 234/15/5
f 235/1/5 236/3/5 234/15/5
f 237/51/6 239/54/6 238/53/6
f 239/54/6 240/1/6 238/53/6
f 241/4/1 243/3/1 242/6/1
f 243/3/1 244/5/1 242/6/1
f 245/2/2 247/1/2 246/4/2
f 247/1/2 248/3/2 246/4/2
f 249/11/3 251/12/3 250/13/3
f 251/12/3 252/14/3 250/13/3
f 253/9/4 255/10/4 254/7/4
f 255/10/4 256/8/4 254/7/4
f 257/15/5 259/17/5 258/16/5
f 259/17/5 260/14/5 258/16/5
f 261/3/6 263/15/6 262/5/6
f 263/15/6 264/16/6 262/5/6
f 265/14/1 267/16/1 266/12/1
f 267/16/1 268/60/1 266/12/1
f 269/16/2 271/5/2 270/60/2
f 271/5/2 272/61/2 270/60/2
f 273/62/3 275/6/3 274/63/3
f 275/6/3 276/4/3 274/63/3
f 277/61/4 279/64/4 278/5/4
f 279/64/4 280/6/4 278/5/4
f 281/2/5 283/65/5 282/4/5
f 283/65/5 284/63/5 282/4/5
f 285/8/6 287/7/6 286/2/6
f 287/7/6 288/65/6 286/2/6
f 289/5/1 291/16/1 290/61/1
f 291/16/1 292/60/1 290/61/1
f 293/16/2 295/14/2 294/60/2
f 295/14/2 296/12/2 294/60/2
f 297/5/3 299/6/3 298/61/3
f 299/6/3 300/64/3 298/61/3
f 301/63/4 303/4/4 302/62/4
f 303/4/4 304/6/4 302/62/4
f 305/7/5 307/8/5 306/65/5
f 307/8/5 308/2/5 306/65/5
f 309/65/6 311/2/6 310/63/6
f 311/2/6 312/4/6 310/63/6
f 313/6/1 315/66/1 314/67/1
f 315/66/1 316/68/1 314/67/1
f 317/66/2 319/69/2 318/68/2
f 319/69/2 320/70/2 318/68/2
f 321/71/3 323/72/3 322/73/3
f 323/72/3 324/69/3 322/73/3
f 325/74/4 327/75/4 326/72/4
f 327/75/4 328/71/4 326/72/4
f 329/76/5 331/77/5 330/78/5
f 331/77/5 332/79/5 330/78/5
f 333/68/6 335/70/6 334/76/6
f 335/70/6 336/77/6 334/76/6
f 337/74/1 339/80/1 338/79/1
f 339/80/1 340/81/1 338/79/1
f 341/67/2 343/68/2 342/82/2
f 343/68/2 344/83/2 342/82/2
f 345/84/3 347/85/3 346/86/3
f 347/85/3 348/80/3 346/86/3
f 349/87/4 351/88/4 350/85/4
f 351/88/4 352/84/4 350/85/4
f 353/89/5 355/90/5 354/91/5
f 355/90/5 356/92/5 354/91/5
f 357/87/6 359/89/6 358/81/6
f 359/89/6 360/91/6 358/81/6
