# Blender 5.0.0
# www.blender.org
mtllib lev.6b45_2.mtl
o armorModel
v -4.827586 -1.091954 3.103448
v -4.827586 -1.091954 -3.103448
v -4.827586 13.160919 3.103448
v -4.827586 13.160919 -3.103448
v 4.827586 -1.091954 -3.103448
v 4.827586 -1.091954 3.103448
v 4.827586 13.160919 -3.103448
v 4.827586 13.160919 3.103448
v 4.827586 -1.091954 -3.103448
v -4.827586 -1.091954 -3.103448
v 4.827586 -1.091954 3.103448
v -4.827586 -1.091954 3.103448
v 4.827586 13.160919 3.103448
v -4.827586 13.160919 3.103448
v 4.827586 13.160919 -3.103448
v -4.827586 13.160919 -3.103448
v 4.827586 -1.091954 3.103448
v -4.827586 -1.091954 3.103448
v 4.827586 13.160919 3.103448
v -4.827586 13.160919 3.103448
v -4.827586 -1.091954 -3.103448
v 4.827586 -1.091954 -3.103448
v -4.827586 13.160919 -3.103448
v 4.827586 13.160919 -3.103448
v 1.609195 4.770115 -2.758621
v 1.609195 4.770115 -4.137931
v 1.609195 9.597701 -2.758621
v 1.609195 9.597701 -4.137931
v 4.137931 4.770115 -4.137931
v 4.137931 4.770115 -2.758621
v 4.137931 9.597701 -4.137931
v 4.137931 9.597701 -2.758621
v 4.137931 4.770115 -4.137931
v 1.609195 4.770115 -4.137931
v 4.137931 4.770115 -2.758621
v 1.609195 4.770115 -2.758621
v 4.137931 9.597701 -2.758621
v 1.609195 9.597701 -2.758621
v 4.137931 9.597701 -4.137931
v 1.609195 9.597701 -4.137931
v 4.137931 4.770115 -2.758621
v 1.609195 4.770115 -2.758621
v 4.137931 9.597701 -2.758621
v 1.609195 9.597701 -2.758621
v 1.609195 4.770115 -4.137931
v 4.137931 4.770115 -4.137931
v 1.609195 9.597701 -4.137931
v 4.137931 9.597701 -4.137931
v 1.724138 4.885057 -2.873563
v 1.724138 4.885057 -4.022988
v 1.724138 9.482759 -2.873563
v 1.724138 9.482759 -4.022988
v 4.022988 4.885057 -4.022988
v 4.022988 4.885057 -2.873563
v 4.022988 9.482759 -4.022988
v 4.022988 9.482759 -2.873563
v 4.022988 4.885057 -4.022988
v 1.724138 4.885057 -4.022988
v 4.022988 4.885057 -2.873563
v 1.724138 4.885057 -2.873563
v 4.022988 9.482759 -2.873563
v 1.724138 9.482759 -2.873563
v 4.022988 9.482759 -4.022988
v 1.724138 9.482759 -4.022988
v 4.022988 4.885057 -2.873563
v 1.724138 4.885057 -2.873563
v 4.022988 9.482759 -2.873563
v 1.724138 9.482759 -2.873563
v 1.724138 4.885057 -4.022988
v 4.022988 4.885057 -4.022988
v 1.724138 9.482759 -4.022988
v 4.022988 9.482759 -4.022988
v 3.495628 5.459770 -2.808548
v 3.935494 5.459770 -3.870479
v 3.495628 8.908046 -2.808548
v 3.935494 8.908046 -3.870479
v 4.997424 5.459770 -3.430613
v 4.557558 5.459770 -2.368682
v 4.997424 8.908046 -3.430613
v 4.557558 8.908046 -2.368682
v 4.997424 5.459770 -3.430613
v 3.935494 5.459770 -3.870479
v 4.557558 5.459770 -2.368682
v 3.495628 5.459770 -2.808548
v 4.557558 8.908046 -2.368682
v 3.495628 8.908046 -2.808548
v 4.997424 8.908046 -3.430613
v 3.935494 8.908046 -3.870479
v 4.557558 5.459770 -2.368682
v 3.495628 5.459770 -2.808548
v 4.557558 8.908046 -2.368682
v 3.495628 8.908046 -2.808548
v 3.935494 5.459770 -3.870479
v 4.997424 5.459770 -3.430613
v 3.935494 8.908046 -3.870479
v 4.997424 8.908046 -3.430613
v -4.137931 4.770115 -2.758621
v -4.137931 4.770115 -4.137931
v -4.137931 9.597701 -2.758621
v -4.137931 9.597701 -4.137931
v -1.609196 4.770115 -4.137931
v -1.609196 4.770115 -2.758621
v -1.609196 9.597701 -4.137931
v -1.609196 9.597701 -2.758621
v -1.609196 4.770115 -4.137931
v -4.137931 4.770115 -4.137931
v -1.609196 4.770115 -2.758621
v -4.137931 4.770115 -2.758621
v -1.609196 9.597701 -2.758621
v -4.137931 9.597701 -2.758621
v -1.609196 9.597701 -4.137931
v -4.137931 9.597701 -4.137931
v -1.609196 4.770115 -2.758621
v -4.137931 4.770115 -2.758621
v -1.609196 9.597701 -2.758621
v -4.137931 9.597701 -2.758621
v -4.137931 4.770115 -4.137931
v -1.609196 4.770115 -4.137931
v -4.137931 9.597701 -4.137931
v -1.609196 9.597701 -4.137931
v -4.022989 4.885057 -2.873563
v -4.022989 4.885057 -4.022988
v -4.022989 9.482759 -2.873563
v -4.022989 9.482759 -4.022988
v -1.724138 4.885057 -4.022988
v -1.724138 4.885057 -2.873563
v -1.724138 9.482759 -4.022988
v -1.724138 9.482759 -2.873563
v -1.724138 4.885057 -4.022988
v -4.022989 4.885057 -4.022988
v -1.724138 4.885057 -2.873563
v -4.022989 4.885057 -2.873563
v -1.724138 9.482759 -2.873563
v -4.022989 9.482759 -2.873563
v -1.724138 9.482759 -4.022988
v -4.022989 9.482759 -4.022988
v -1.724138 4.885057 -2.873563
v -4.022989 4.885057 -2.873563
v -1.724138 9.482759 -2.873563
v -4.022989 9.482759 -2.873563
v -4.022989 4.885057 -4.022988
v -1.724138 4.885057 -4.022988
v -4.022989 9.482759 -4.022988
v -1.724138 9.482759 -4.022988
v -4.557559 5.459770 -2.368682
v -4.997425 5.459770 -3.430613
v -4.557559 8.908046 -2.368682
v -4.997425 8.908046 -3.430613
v -3.935494 5.459770 -3.870479
v -3.495628 5.459770 -2.808548
v -3.935494 8.908046 -3.870479
v -3.495628 8.908046 -2.808548
v -3.935494 5.459770 -3.870479
v -4.997425 5.459770 -3.430613
v -3.495628 5.459770 -2.808548
v -4.557559 5.459770 -2.368682
v -3.495628 8.908046 -2.808548
v -4.557559 8.908046 -2.368682
v -3.935494 8.908046 -3.870479
v -4.997425 8.908046 -3.430613
v -3.495628 5.459770 -2.808548
v -4.557559 5.459770 -2.368682
v -3.495628 8.908046 -2.808548
v -4.557559 8.908046 -2.368682
v -4.997425 5.459770 -3.430613
v -3.935494 5.459770 -3.870479
v -4.997425 8.908046 -3.430613
v -3.935494 8.908046 -3.870479
v -1.264368 5.344828 -2.758621
v -1.264368 5.344828 -4.137931
v -1.264368 10.172414 -2.758621
v -1.264368 10.172414 -4.137931
v 1.264368 5.344828 -4.137931
v 1.264368 5.344828 -2.758621
v 1.264368 10.172414 -4.137931
v 1.264368 10.172414 -2.758621
v 1.264368 5.344828 -4.137931
v -1.264368 5.344828 -4.137931
v 1.264368 5.344828 -2.758621
v -1.264368 5.344828 -2.758621
v 1.264368 10.172414 -2.758621
v -1.264368 10.172414 -2.758621
v 1.264368 10.172414 -4.137931
v -1.264368 10.172414 -4.137931
v 1.264368 5.344828 -2.758621
v -1.264368 5.344828 -2.758621
v 1.264368 10.172414 -2.758621
v -1.264368 10.172414 -2.758621
v -1.264368 5.344828 -4.137931
v 1.264368 5.344828 -4.137931
v -1.264368 10.172414 -4.137931
v 1.264368 10.172414 -4.137931
v -1.149425 5.459769 -2.873563
v -1.149425 5.459769 -4.022988
v -1.149425 10.057470 -2.873563
v -1.149425 10.057470 -4.022988
v 1.149426 5.459769 -4.022988
v 1.149426 5.459769 -2.873563
v 1.149426 10.057470 -4.022988
v 1.149426 10.057470 -2.873563
v 1.149426 5.459769 -4.022988
v -1.149425 5.459769 -4.022988
v 1.149426 5.459769 -2.873563
v -1.149425 5.459769 -2.873563
v 1.149426 10.057470 -2.873563
v -1.149425 10.057470 -2.873563
v 1.149426 10.057470 -4.022988
v -1.149425 10.057470 -4.022988
v 1.149426 5.459769 -2.873563
v -1.149425 5.459769 -2.873563
v 1.149426 10.057470 -2.873563
v -1.149425 10.057470 -2.873563
v -1.149425 5.459769 -4.022988
v 1.149426 5.459769 -4.022988
v -1.149425 10.057470 -4.022988
v 1.149426 10.057470 -4.022988
v 4.482759 8.218390 -0.172414
v 4.482759 8.218390 -2.701149
v 4.482759 11.896551 -0.172414
v 4.482759 11.896551 -2.701149
v 5.862069 8.218390 -2.701149
v 5.862069 8.218390 -0.172414
v 5.862069 11.896551 -2.701149
v 5.862069 11.896551 -0.172414
v 5.862069 8.218390 -2.701149
v 4.482759 8.218390 -2.701149
v 5.862069 8.218390 -0.172414
v 4.482759 8.218390 -0.172414
v 5.862069 11.896551 -0.172414
v 4.482759 11.896551 -0.172414
v 5.862069 11.896551 -2.701149
v 4.482759 11.896551 -2.701149
v 5.862069 8.218390 -0.172414
v 4.482759 8.218390 -0.172414
v 5.862069 11.896551 -0.172414
v 4.482759 11.896551 -0.172414
v 4.482759 8.218390 -2.701149
v 5.862069 8.218390 -2.701149
v 4.482759 11.896551 -2.701149
v 5.862069 11.896551 -2.701149
v 4.597701 8.333333 -0.287356
v 4.597701 8.333333 -2.586207
v 4.597701 11.781609 -0.287356
v 4.597701 11.781609 -2.586207
v 5.747127 8.333333 -2.586207
v 5.747127 8.333333 -0.287356
v 5.747127 11.781609 -2.586207
v 5.747127 11.781609 -0.287356
v 5.747127 8.333333 -2.586207
v 4.597701 8.333333 -2.586207
v 5.747127 8.333333 -0.287356
v 4.597701 8.333333 -0.287356
v 5.747127 11.781609 -0.287356
v 4.597701 11.781609 -0.287356
v 5.747127 11.781609 -2.586207
v 4.597701 11.781609 -2.586207
v 5.747127 8.333333 -0.287356
v 4.597701 8.333333 -0.287356
v 5.747127 11.781609 -0.287356
v 4.597701 11.781609 -0.287356
v 4.597701 8.333333 -2.586207
v 5.747127 8.333333 -2.586207
v 4.597701 11.781609 -2.586207
v 5.747127 11.781609 -2.586207
v -5.862069 8.218390 -0.172414
v -5.862069 8.218390 -2.701149
v -5.862069 11.896551 -0.172414
v -5.862069 11.896551 -2.701149
v -4.482759 8.218390 -2.701149
v -4.482759 8.218390 -0.172414
v -4.482759 11.896551 -2.701149
v -4.482759 11.896551 -0.172414
v -4.482759 8.218390 -2.701149
v -5.862069 8.218390 -2.701149
v -4.482759 8.218390 -0.172414
v -5.862069 8.218390 -0.172414
v -4.482759 11.896551 -0.172414
v -5.862069 11.896551 -0.172414
v -4.482759 11.896551 -2.701149
v -5.862069 11.896551 -2.701149
v -4.482759 8.218390 -0.172414
v -5.862069 8.218390 -0.172414
v -4.482759 11.896551 -0.172414
v -5.862069 11.896551 -0.172414
v -5.862069 8.218390 -2.701149
v -4.482759 8.218390 -2.701149
v -5.862069 11.896551 -2.701149
v -4.482759 11.896551 -2.701149
v 4.482759 8.218390 2.701149
v 4.482759 8.218390 0.172414
v 4.482759 11.896551 2.701149
v 4.482759 11.896551 0.172414
v 5.862069 8.218390 0.172414
v 5.862069 8.218390 2.701149
v 5.862069 11.896551 0.172414
v 5.862069 11.896551 2.701149
v 5.862069 8.218390 0.172414
v 4.482759 8.218390 0.172414
v 5.862069 8.218390 2.701149
v 4.482759 8.218390 2.701149
v 5.862069 11.896551 2.701149
v 4.482759 11.896551 2.701149
v 5.862069 11.896551 0.172414
v 4.482759 11.896551 0.172414
v 5.862069 8.218390 2.701149
v 4.482759 8.218390 2.701149
v 5.862069 11.896551 2.701149
v 4.482759 11.896551 2.701149
v 4.482759 8.218390 0.172414
v 5.862069 8.218390 0.172414
v 4.482759 11.896551 0.172414
v 5.862069 11.896551 0.172414
v -5.862069 8.218390 2.701149
v -5.862069 8.218390 0.172414
v -5.862069 11.896551 2.701149
v -5.862069 11.896551 0.172414
v -4.482759 8.218390 0.172414
v -4.482759 8.218390 2.701149
v -4.482759 11.896551 0.172414
v -4.482759 11.896551 2.701149
v -4.482759 8.218390 0.172414
v -5.862069 8.218390 0.172414
v -4.482759 8.218390 2.701149
v -5.862069 8.218390 2.701149
v -4.482759 11.896551 2.701149
v -5.862069 11.896551 2.701149
v -4.482759 11.896551 0.172414
v -5.862069 11.896551 0.172414
v -4.482759 8.218390 2.701149
v -5.862069 8.218390 2.701149
v -4.482759 11.896551 2.701149
v -5.862069 11.896551 2.701149
v -5.862069 8.218390 0.172414
v -4.482759 8.218390 0.172414
v -5.862069 11.896551 0.172414
v -4.482759 11.896551 0.172414
v -5.747126 8.333333 2.586207
v -5.747126 8.333333 0.287356
v -5.747126 11.781609 2.586207
v -5.747126 11.781609 0.287356
v -4.597701 8.333333 0.287356
v -4.597701 8.333333 2.586207
v -4.597701 11.781609 0.287356
v -4.597701 11.781609 2.586207
v -4.597701 8.333333 0.287356
v -5.747126 8.333333 0.287356
v -4.597701 8.333333 2.586207
v -5.747126 8.333333 2.586207
v -4.597701 11.781609 2.586207
v -5.747126 11.781609 2.586207
v -4.597701 11.781609 0.287356
v -5.747126 11.781609 0.287356
v -4.597701 8.333333 2.586207
v -5.747126 8.333333 2.586207
v -4.597701 11.781609 2.586207
v -5.747126 11.781609 2.586207
v -5.747126 8.333333 0.287356
v -4.597701 8.333333 0.287356
v -5.747126 11.781609 0.287356
v -4.597701 11.781609 0.287356
v 4.597701 8.333333 2.586207
v 4.597701 8.333333 0.287356
v 4.597701 11.781609 2.586207
v 4.597701 11.781609 0.287356
v 5.747127 8.333333 0.287356
v 5.747127 8.333333 2.586207
v 5.747127 11.781609 0.287356
v 5.747127 11.781609 2.586207
v 5.747127 8.333333 0.287356
v 4.597701 8.333333 0.287356
v 5.747127 8.333333 2.586207
v 4.597701 8.333333 2.586207
v 5.747127 11.781609 2.586207
v 4.597701 11.781609 2.586207
v 5.747127 11.781609 0.287356
v 4.597701 11.781609 0.287356
v 5.747127 8.333333 2.586207
v 4.597701 8.333333 2.586207
v 5.747127 11.781609 2.586207
v 4.597701 11.781609 2.586207
v 4.597701 8.333333 0.287356
v 5.747127 8.333333 0.287356
v 4.597701 11.781609 0.287356
v 5.747127 11.781609 0.287356
v 4.826437 13.159771 -3.102299
v 4.826437 13.159771 3.102299
v 4.826437 -1.090805 -3.102299
v 4.826437 -1.090805 3.102299
v -4.826437 13.159771 3.102299
v -4.826437 13.159771 -3.102299
v -4.826437 -1.090805 3.102299
v -4.826437 -1.090805 -3.102299
v -4.826437 13.159771 3.102299
v 4.826437 13.159771 3.102299
v -4.826437 13.159771 -3.102299
v 4.826437 13.159771 -3.102299
v -4.826437 -1.090805 -3.102299
v 4.826437 -1.090805 -3.102299
v -4.826437 -1.090805 3.102299
v 4.826437 -1.090805 3.102299
v -4.826437 13.159771 -3.102299
v 4.826437 13.159771 -3.102299
v -4.826437 -1.090805 -3.102299
v 4.826437 -1.090805 -3.102299
v 4.826437 13.159771 3.102299
v -4.826437 13.159771 3.102299
v 4.826437 -1.090805 3.102299
v -4.826437 -1.090805 3.102299
v -4.597701 -0.862069 2.873563
v -4.597701 -0.862069 -2.873563
v -4.597701 12.931034 2.873563
v -4.597701 12.931034 -2.873563
v 4.597701 -0.862069 -2.873563
v 4.597701 -0.862069 2.873563
v 4.597701 12.931034 -2.873563
v 4.597701 12.931034 2.873563
v 4.597701 -0.862069 -2.873563
v -4.597701 -0.862069 -2.873563
v 4.597701 -0.862069 2.873563
v -4.597701 -0.862069 2.873563
v 4.597701 12.931034 2.873563
v -4.597701 12.931034 2.873563
v 4.597701 12.931034 -2.873563
v -4.597701 12.931034 -2.873563
v 4.597701 -0.862069 2.873563
v -4.597701 -0.862069 2.873563
v 4.597701 12.931034 2.873563
v -4.597701 12.931034 2.873563
v -4.597701 -0.862069 -2.873563
v 4.597701 -0.862069 -2.873563
v -4.597701 12.931034 -2.873563
v 4.597701 12.931034 -2.873563
v 4.586207 12.919540 -2.862069
v 4.586207 12.919540 2.862069
v 4.586207 -0.850575 -2.862069
v 4.586207 -0.850575 2.862069
v -4.586207 12.919540 2.862069
v -4.586207 12.919540 -2.862069
v -4.586207 -0.850575 2.862069
v -4.586207 -0.850575 -2.862069
v -4.586207 12.919540 2.862069
v 4.586207 12.919540 2.862069
v -4.586207 12.919540 -2.862069
v 4.586207 12.919540 -2.862069
v -4.586207 -0.850575 -2.862069
v 4.586207 -0.850575 -2.862069
v -4.586207 -0.850575 2.862069
v 4.586207 -0.850575 2.862069
v -4.586207 12.919540 -2.862069
v 4.586207 12.919540 -2.862069
v -4.586207 -0.850575 -2.862069
v 4.586207 -0.850575 -2.862069
v 4.586207 12.919540 2.862069
v -4.586207 12.919540 2.862069
v 4.586207 -0.850575 2.862069
v -4.586207 -0.850575 2.862069
v -3.448276 -2.985928 1.706474
v -3.448276 -0.786597 -3.603179
v -3.448276 -0.862067 2.586206
v -3.448276 1.337264 -2.723446
v 3.448276 -0.786597 -3.603179
v 3.448276 -2.985928 1.706474
v 3.448276 1.337264 -2.723446
v 3.448276 -0.862067 2.586206
v 3.448276 -0.786597 -3.603179
v -3.448276 -0.786597 -3.603179
v 3.448276 -2.985928 1.706474
v -3.448276 -2.985928 1.706474
v 3.448276 -0.862067 2.586206
v -3.448276 -0.862067 2.586206
v 3.448276 1.337264 -2.723446
v -3.448276 1.337264 -2.723446
v 3.448276 -2.985928 1.706474
v -3.448276 -2.985928 1.706474
v 3.448276 -0.862067 2.586206
v -3.448276 -0.862067 2.586206
v -3.448276 -0.786597 -3.603179
v 3.448276 -0.786597 -3.603179
v -3.448276 1.337264 -2.723446
v 3.448276 1.337264 -2.723446
v -5.459770 -0.287356 -2.011494
v -5.459770 -0.287356 -3.160919
v -5.459770 3.160919 -2.011494
v -5.459770 3.160919 -3.160919
v -4.310345 -0.287356 -3.160919
v -4.310345 -0.287356 -2.011494
v -4.310345 3.160919 -3.160919
v -4.310345 3.160919 -2.011494
v -4.310345 -0.287356 -3.160919
v -5.459770 -0.287356 -3.160919
v -4.310345 -0.287356 -2.011494
v -5.459770 -0.287356 -2.011494
v -4.310345 3.160919 -2.011494
v -5.459770 3.160919 -2.011494
v -4.310345 3.160919 -3.160919
v -5.459770 3.160919 -3.160919
v -4.310345 -0.287356 -2.011494
v -5.459770 -0.287356 -2.011494
v -4.310345 3.160919 -2.011494
v -5.459770 3.160919 -2.011494
v -5.459770 -0.287356 -3.160919
v -4.310345 -0.287356 -3.160919
v -5.459770 3.160919 -3.160919
v -4.310345 3.160919 -3.160919
v 4.310345 -0.287356 -2.011494
v 4.310345 -0.287356 -3.160919
v 4.310345 3.160919 -2.011494
v 4.310345 3.160919 -3.160919
v 5.459770 -0.287356 -3.160919
v 5.459770 -0.287356 -2.011494
v 5.459770 3.160919 -3.160919
v 5.459770 3.160919 -2.011494
v 5.459770 -0.287356 -3.160919
v 4.310345 -0.287356 -3.160919
v 5.459770 -0.287356 -2.011494
v 4.310345 -0.287356 -2.011494
v 5.459770 3.160919 -2.011494
v 4.310345 3.160919 -2.011494
v 5.459770 3.160919 -3.160919
v 4.310345 3.160919 -3.160919
v 5.459770 -0.287356 -2.011494
v 4.310345 -0.287356 -2.011494
v 5.459770 3.160919 -2.011494
v 4.310345 3.160919 -2.011494
v 4.310345 -0.287356 -3.160919
v 5.459770 -0.287356 -3.160919
v 4.310345 3.160919 -3.160919
v 5.459770 3.160919 -3.160919
v -5.747126 8.333333 -0.287356
v -5.747126 8.333333 -2.586207
v -5.747126 11.781609 -0.287356
v -5.747126 11.781609 -2.586207
v -4.597701 8.333333 -2.586207
v -4.597701 8.333333 -0.287356
v -4.597701 11.781609 -2.586207
v -4.597701 11.781609 -0.287356
v -4.597701 8.333333 -2.586207
v -5.747126 8.333333 -2.586207
v -4.597701 8.333333 -0.287356
v -5.747126 8.333333 -0.287356
v -4.597701 11.781609 -0.287356
v -5.747126 11.781609 -0.287356
v -4.597701 11.781609 -2.586207
v -5.747126 11.781609 -2.586207
v -4.597701 8.333333 -0.287356
v -5.747126 8.333333 -0.287356
v -4.597701 11.781609 -0.287356
v -5.747126 11.781609 -0.287356
v -5.747126 8.333333 -2.586207
v -4.597701 8.333333 -2.586207
v -5.747126 11.781609 -2.586207
v -4.597701 11.781609 -2.586207
vn -1.0000 -0.0000 -0.0000
vn 1.0000 -0.0000 -0.0000
vn -0.0000 -1.0000 -0.0000
vn -0.0000 1.0000 -0.0000
vn -0.0000 -0.0000 1.0000
vn -0.0000 -0.0000 -1.0000
vn -0.9239 -0.0000 -0.3827
vn 0.9239 -0.0000 0.3827
vn -0.3827 -0.0000 0.9239
vn 0.3827 -0.0000 -0.9239
vn -0.9239 -0.0000 0.3827
vn 0.9239 -0.0000 -0.3827
vn 0.3827 -0.0000 0.9239
vn -0.3827 -0.0000 -0.9239
vn -0.0000 -0.9239 -0.3827
vn -0.0000 0.9239 0.3827
vn -0.0000 -0.3827 0.9239
vn -0.0000 0.3827 -0.9239
vt 0.250000 1.000000
vt 0.250000 0.812500
vt 0.328125 1.000000
vt 0.328125 0.812500
vt 0.250000 0.625000
vt 0.328125 0.625000
vt 0.125000 0.546875
vt 0.125000 0.625000
vt 0.000000 0.546875
vt 0.000000 0.625000
vt 0.250000 0.546875
vt 0.125000 1.000000
vt 0.125000 0.812500
vt 0.000000 1.000000
vt 0.000000 0.812500
vt 0.281250 0.484375
vt 0.281250 0.421875
vt 0.296875 0.484375
vt 0.296875 0.421875
vt 0.312500 0.484375
vt 0.312500 0.421875
vt 0.578125 0.984375
vt 0.578125 1.000000
vt 0.546875 0.984375
vt 0.546875 1.000000
vt 0.578125 0.968750
vt 0.546875 0.968750
vt 0.187500 0.546875
vt 0.187500 0.484375
vt 0.218750 0.546875
vt 0.218750 0.484375
vt 0.156250 0.546875
vt 0.156250 0.484375
vt 0.328125 0.484375
vt 0.328125 0.421875
vt 0.343750 0.484375
vt 0.343750 0.421875
vt 0.578125 0.953125
vt 0.546875 0.953125
vt 0.578125 0.937500
vt 0.546875 0.937500
vt 0.250000 0.484375
vt 0.281250 0.546875
vt 0.484375 0.484375
vt 0.484375 0.437500
vt 0.500000 0.484375
vt 0.500000 0.437500
vt 0.031250 0.468750
vt 0.031250 0.421875
vt 0.046875 0.468750
vt 0.046875 0.421875
vt 0.578125 0.796875
vt 0.578125 0.812500
vt 0.562500 0.796875
vt 0.562500 0.812500
vt 0.218750 0.437500
vt 0.218750 0.421875
vt 0.203125 0.437500
vt 0.203125 0.421875
vt 0.531250 1.000000
vt 0.531250 0.953125
vt 0.468750 0.484375
vt 0.468750 0.437500
vt 0.359375 0.484375
vt 0.359375 0.421875
vt 0.375000 0.484375
vt 0.375000 0.421875
vt 0.578125 0.921875
vt 0.546875 0.921875
vt 0.578125 0.906250
vt 0.546875 0.906250
vt 0.312500 0.546875
vt 0.343750 0.546875
vt 0.390625 0.484375
vt 0.390625 0.421875
vt 0.406250 0.484375
vt 0.406250 0.421875
vt 0.578125 0.890625
vt 0.546875 0.890625
vt 0.578125 0.875000
vt 0.546875 0.875000
vt 0.375000 0.546875
vt 0.406250 0.546875
vt 0.531250 0.906250
vt 0.078125 0.468750
vt 0.078125 0.421875
vt 0.093750 0.468750
vt 0.093750 0.421875
vt 0.578125 0.781250
vt 0.562500 0.781250
vt 0.234375 0.437500
vt 0.234375 0.421875
vt 0.062500 0.468750
vt 0.062500 0.421875
vt 0.421875 0.484375
vt 0.421875 0.421875
vt 0.437500 0.484375
vt 0.437500 0.421875
vt 0.578125 0.859375
vt 0.546875 0.859375
vt 0.578125 0.843750
vt 0.546875 0.843750
vt 0.437500 0.546875
vt 0.468750 0.546875
vt 0.453125 0.484375
vt 0.453125 0.421875
vt 0.468750 0.421875
vt 0.578125 0.828125
vt 0.546875 0.828125
vt 0.546875 0.812500
vt 0.000000 0.515625
vt 0.000000 0.453125
vt 0.031250 0.515625
vt 0.031250 0.453125
vt 0.500000 0.546875
vt 0.062500 0.515625
vt 0.093750 0.515625
vt 0.015625 0.421875
vt 0.015625 0.453125
vt 0.546875 0.781250
vt 0.531250 0.859375
vt 0.109375 0.468750
vt 0.109375 0.421875
vt 0.125000 0.515625
vt 0.125000 0.468750
vt 0.156250 0.515625
vt 0.156250 0.468750
vt 0.562500 0.750000
vt 0.546875 0.750000
vt 0.562500 0.718750
vt 0.546875 0.718750
vt 0.125000 0.421875
vt 0.140625 0.468750
vt 0.140625 0.421875
vt 0.500000 0.843750
vt 0.500000 0.796875
vt 0.531250 0.843750
vt 0.531250 0.796875
vt 0.500000 0.750000
vt 0.531250 0.750000
vt 0.562500 0.687500
vt 0.546875 0.687500
vt 0.562500 0.656250
vt 0.546875 0.656250
vt 0.531250 0.812500
vt 0.156250 0.421875
vt 0.500000 0.703125
vt 0.531250 0.703125
vt 0.500000 0.656250
vt 0.531250 0.656250
vt 0.562500 0.625000
vt 0.546875 0.625000
vt 0.562500 0.593750
vt 0.546875 0.593750
vt 0.531250 0.765625
vt 0.531250 0.718750
vt 0.546875 0.765625
vt 0.500000 0.609375
vt 0.531250 0.609375
vt 0.500000 0.562500
vt 0.531250 0.562500
vt 0.562500 0.562500
vt 0.546875 0.562500
vt 0.562500 0.531250
vt 0.546875 0.531250
vt 0.531250 0.671875
vt 0.531250 0.625000
vt 0.546875 0.671875
vt 0.500000 0.515625
vt 0.531250 0.515625
vt 0.500000 0.468750
vt 0.531250 0.468750
vt 0.562500 0.500000
vt 0.546875 0.500000
vt 0.562500 0.468750
vt 0.546875 0.468750
vt 0.531250 0.578125
vt 0.531250 0.531250
vt 0.546875 0.578125
vt 0.156250 0.437500
vt 0.187500 0.437500
vt 0.562500 0.437500
vt 0.546875 0.437500
vt 0.171875 0.437500
vt 0.171875 0.406250
vt 0.156250 0.406250
vt 0.500000 0.421875
vt 0.515625 0.468750
vt 0.515625 0.421875
vt 0.531250 0.484375
vt 0.546875 0.484375
vt 0.375000 0.625000
vt 0.406250 1.000000
vt 0.406250 0.812500
vt 0.406250 0.625000
vt 0.500000 0.625000
vt 0.531250 0.921875
vt 0.406250 0.921875
vt 0.406250 0.843750
vt 0.078125 0.546875
vt 0.078125 0.515625
vt 0.500000 0.765625
vt 0.406250 0.765625
vt 0.500000 0.687500
vt 0.406250 0.687500
vt 0.406250 0.656250
vt 0.531250 0.421875
vt 0.578125 0.765625
vt 0.562500 0.765625
vt 0.250000 0.437500
vt 0.250000 0.421875
vt 0.281250 0.437500
vt 0.187500 0.406250
vt 0.203125 0.406250
vt 0.000000 0.406250
vt 0.015625 0.406250
vt 0.531250 0.437500
s 0
usemtl Material_0.009
f 1/1/1 3/2/1 2/3/1
f 3/2/1 4/4/1 2/3/1
f 5/2/2 7/5/2 6/4/2
f 7/5/2 8/6/2 6/4/2
f 9/7/3 11/8/3 10/9/3
f 11/8/3 12/10/3 10/9/3
f 13/5/4 15/11/4 14/8/4
f 15/11/4 16/7/4 14/8/4
f 17/12/5 19/13/5 18/1/5
f 19/13/5 20/2/5 18/1/5
f 21/14/6 23/15/6 22/12/6
f 23/15/6 24/13/6 22/12/6
f 25/16/1 27/17/1 26/18/1
f 27/17/1 28/19/1 26/18/1
f 29/18/2 31/19/2 30/20/2
f 31/19/2 32/21/2 30/20/2
f 33/22/3 35/23/3 34/24/3
f 35/23/3 36/25/3 34/24/3
f 37/22/4 39/26/4 38/24/4
f 39/26/4 40/27/4 38/24/4
f 41/28/5 43/29/5 42/30/5
f 43/29/5 44/31/5 42/30/5
f 45/32/6 47/33/6 46/28/6
f 47/33/6 48/29/6 46/28/6
f 49/20/1 51/21/1 50/34/1
f 51/21/1 52/35/1 50/34/1
f 53/34/2 55/35/2 54/36/2
f 55/35/2 56/37/2 54/36/2
f 57/38/3 59/26/3 58/39/3
f 59/26/3 60/27/3 58/39/3
f 61/38/4 63/40/4 62/39/4
f 63/40/4 64/41/4 62/39/4
f 65/11/5 67/42/5 66/43/5
f 67/42/5 68/16/5 66/43/5
f 69/30/6 71/31/6 70/11/6
f 71/31/6 72/42/6 70/11/6
f 73/44/7 75/45/7 74/46/7
f 75/45/7 76/47/7 74/46/7
f 77/48/8 79/49/8 78/50/8
f 79/49/8 80/51/8 78/50/8
f 81/52/3 83/53/3 82/54/3
f 83/53/3 84/55/3 82/54/3
f 85/56/4 87/57/4 86/58/4
f 87/57/4 88/59/4 86/58/4
f 89/60/9 91/61/9 90/25/9
f 91/61/9 92/39/9 90/25/9
f 93/62/10 95/63/10 94/44/10
f 95/63/10 96/45/10 94/44/10
f 97/36/1 99/37/1 98/64/1
f 99/37/1 100/65/1 98/64/1
f 101/64/2 103/65/2 102/66/2
f 103/65/2 104/67/2 102/66/2
f 105/68/3 107/40/3 106/69/3
f 107/40/3 108/41/3 106/69/3
f 109/68/4 111/70/4 110/69/4
f 111/70/4 112/71/4 110/69/4
f 113/72/5 115/20/5 114/73/5
f 115/20/5 116/36/5 114/73/5
f 117/43/6 119/16/6 118/72/6
f 119/16/6 120/20/6 118/72/6
f 121/66/1 123/67/1 122/74/1
f 123/67/1 124/75/1 122/74/1
f 125/74/2 127/75/2 126/76/2
f 127/75/2 128/77/2 126/76/2
f 129/78/3 131/70/3 130/79/3
f 131/70/3 132/71/3 130/79/3
f 133/78/4 135/80/4 134/79/4
f 135/80/4 136/81/4 134/79/4
f 137/82/5 139/66/5 138/83/5
f 139/66/5 140/76/5 138/83/5
f 141/73/6 143/36/6 142/82/6
f 143/36/6 144/66/6 142/82/6
f 145/61/11 147/84/11 146/39/11
f 147/84/11 148/71/11 146/39/11
f 149/85/12 151/86/12 150/87/12
f 151/86/12 152/88/12 150/87/12
f 153/89/3 155/52/3 154/90/3
f 155/52/3 156/54/3 154/90/3
f 157/91/4 159/92/4 158/56/4
f 159/92/4 160/57/4 158/56/4
f 161/93/13 163/94/13 162/85/13
f 163/94/13 164/86/13 162/85/13
f 165/50/14 167/51/14 166/93/14
f 167/51/14 168/94/14 166/93/14
f 169/76/1 171/77/1 170/95/1
f 171/77/1 172/96/1 170/95/1
f 173/95/2 175/96/2 174/97/2
f 175/96/2 176/98/2 174/97/2
f 177/99/3 179/80/3 178/100/3
f 179/80/3 180/81/3 178/100/3
f 181/99/4 183/101/4 182/100/4
f 183/101/4 184/102/4 182/100/4
f 185/103/5 187/97/5 186/104/5
f 187/97/5 188/62/5 186/104/5
f 189/83/6 191/76/6 190/103/6
f 191/76/6 192/97/6 190/103/6
f 193/97/1 195/98/1 194/105/1
f 195/98/1 196/106/1 194/105/1
f 197/105/2 199/106/2 198/62/2
f 199/106/2 200/107/2 198/62/2
f 201/108/3 203/101/3 202/109/3
f 203/101/3 204/102/3 202/109/3
f 205/108/4 207/53/4 206/109/4
f 207/53/4 208/110/4 206/109/4
f 209/111/5 211/112/5 210/113/5
f 211/112/5 212/114/5 210/113/5
f 213/104/6 215/62/6 214/115/6
f 215/62/6 216/46/6 214/115/6
f 217/113/1 219/48/1 218/116/1
f 219/48/1 220/93/1 218/116/1
f 221/116/2 223/93/2 222/117/2
f 223/93/2 224/87/2 222/117/2
f 225/49/3 227/114/3 226/118/3
f 227/114/3 228/119/3 226/118/3
f 229/55/4 231/90/4 230/110/4
f 231/90/4 232/120/4 230/110/4
f 233/84/5 235/121/5 234/71/5
f 235/121/5 236/100/5 234/71/5
f 237/87/6 239/88/6 238/122/6
f 239/88/6 240/123/6 238/122/6
f 241/117/1 243/87/1 242/124/1
f 243/87/1 244/125/1 242/124/1
f 245/124/2 247/125/2 246/126/2
f 247/125/2 248/127/2 246/126/2
f 249/128/3 251/90/3 250/129/3
f 251/90/3 252/120/3 250/129/3
f 253/128/4 255/130/4 254/129/4
f 255/130/4 256/131/4 254/129/4
f 257/125/5 259/132/5 258/133/5
f 259/132/5 260/134/5 258/133/5
f 261/122/6 263/123/6 262/125/6
f 263/123/6 264/132/6 262/125/6
f 265/135/1 267/136/1 266/137/1
f 267/136/1 268/138/1 266/137/1
f 269/136/2 271/139/2 270/138/2
f 271/139/2 272/140/2 270/138/2
f 273/141/3 275/130/3 274/142/3
f 275/130/3 276/131/3 274/142/3
f 277/141/4 279/143/4 278/142/4
f 279/143/4 280/144/4 278/142/4
f 281/121/5 283/145/5 282/100/5
f 283/145/5 284/110/5 282/100/5
f 285/133/6 287/134/6 286/127/6
f 287/134/6 288/146/6 286/127/6
f 289/139/1 291/147/1 290/140/1
f 291/147/1 292/148/1 290/140/1
f 293/147/2 295/149/2 294/148/2
f 295/149/2 296/150/2 294/148/2
f 297/151/3 299/143/3 298/152/3
f 299/143/3 300/144/3 298/152/3
f 301/151/4 303/153/4 302/152/4
f 303/153/4 304/154/4 302/152/4
f 305/155/5 307/156/5 306/157/5
f 307/156/5 308/131/5 306/157/5
f 309/145/6 311/155/6 310/110/6
f 311/155/6 312/157/6 310/110/6
f 313/149/1 315/158/1 314/150/1
f 315/158/1 316/159/1 314/150/1
f 317/158/2 319/160/2 318/159/2
f 319/160/2 320/161/2 318/159/2
f 321/162/3 323/153/3 322/163/3
f 323/153/3 324/154/3 322/163/3
f 325/162/4 327/164/4 326/163/4
f 327/164/4 328/165/4 326/163/4
f 329/166/5 331/167/5 330/168/5
f 331/167/5 332/152/5 330/168/5
f 333/156/6 335/166/6 334/131/6
f 335/166/6 336/168/6 334/131/6
f 337/160/1 339/169/1 338/161/1
f 339/169/1 340/170/1 338/161/1
f 341/169/2 343/171/2 342/170/2
f 343/171/2 344/172/2 342/170/2
f 345/173/3 347/164/3 346/174/3
f 347/164/3 348/165/3 346/174/3
f 349/173/4 351/175/4 350/174/4
f 351/175/4 352/176/4 350/174/4
f 353/177/5 355/178/5 354/179/5
f 355/178/5 356/165/5 354/179/5
f 357/167/6 359/177/6 358/152/6
f 359/177/6 360/179/6 358/152/6
f 361/33/1 363/180/1 362/29/1
f 363/180/1 364/181/1 362/29/1
f 365/29/2 367/181/2 366/31/2
f 367/181/2 368/56/2 366/31/2
f 369/182/3 371/175/3 370/183/3
f 371/175/3 372/176/3 370/183/3
f 373/184/4 375/185/4 374/180/4
f 375/185/4 376/186/4 374/180/4
f 377/171/5 379/187/5 378/188/5
f 379/187/5 380/189/5 378/188/5
f 381/178/6 383/190/6 382/165/6
f 383/190/6 384/191/6 382/165/6
f 385/5/1 387/2/1 386/6/1
f 387/2/1 388/4/1 386/6/1
f 389/2/2 391/1/2 390/4/2
f 391/1/2 392/3/2 390/4/2
f 393/82/3 395/192/3 394/11/3
f 395/192/3 396/5/3 394/11/3
f 397/7/4 399/8/4 398/9/4
f 399/8/4 400/10/4 398/9/4
f 401/15/5 403/14/5 402/13/5
f 403/14/5 404/12/5 402/13/5
f 405/13/6 407/12/6 406/2/6
f 407/12/6 408/1/6 406/2/6
f 409/3/1 411/4/1 410/193/1
f 411/4/1 412/194/1 410/193/1
f 413/4/2 415/6/2 414/194/2
f 415/6/2 416/195/2 414/194/2
f 417/115/3 419/196/3 418/82/3
f 419/196/3 420/192/3 418/82/3
f 421/60/4 423/197/4 422/193/4
f 423/197/4 424/198/4 422/193/4
f 425/13/5 427/8/5 426/2/5
f 427/8/5 428/5/5 426/2/5
f 429/15/6 431/10/6 430/13/6
f 431/10/6 432/8/6 430/13/6
f 433/6/1 435/4/1 434/195/1
f 435/4/1 436/194/1 434/195/1
f 437/4/2 439/3/2 438/194/2
f 439/3/2 440/193/2 438/194/2
f 441/137/3 443/197/3 442/199/3
f 443/197/3 444/198/3 442/199/3
f 445/115/4 447/196/4 446/82/4
f 447/196/4 448/192/4 446/82/4
f 449/10/5 451/15/5 450/8/5
f 451/15/5 452/13/5 450/8/5
f 453/8/6 455/13/6 454/5/6
f 455/13/6 456/2/6 454/5/6
f 457/9/1 459/111/1 458/200/1
f 459/111/1 460/201/1 458/200/1
f 461/200/2 463/201/2 462/32/2
f 463/201/2 464/126/2 462/32/2
f 465/202/15 467/135/15 466/203/15
f 467/135/15 468/199/15 466/203/15
f 469/202/16 471/204/16 470/203/16
f 471/204/16 472/205/16 470/203/16
f 473/206/17 475/195/17 474/149/17
f 475/195/17 476/196/17 474/149/17
f 477/205/18 479/206/18 478/204/18
f 479/206/18 480/149/18 478/204/18
f 481/188/1 483/189/1 482/172/1
f 483/189/1 484/207/1 482/172/1
f 485/188/2 487/189/2 486/172/2
f 487/189/2 488/207/2 486/172/2
f 489/208/3 491/89/3 490/209/3
f 491/89/3 492/90/3 490/209/3
f 493/210/4 495/211/4 494/91/4
f 495/211/4 496/92/4 494/91/4
f 497/188/5 499/189/5 498/172/5
f 499/189/5 500/207/5 498/172/5
f 501/188/6 503/189/6 502/172/6
f 503/189/6 504/207/6 502/172/6
f 505/188/1 507/189/1 506/172/1
f 507/189/1 508/207/1 506/172/1
f 509/188/2 511/189/2 510/172/2
f 511/189/2 512/207/2 510/172/2
f 513/208/3 515/89/3 514/209/3
f 515/89/3 516/90/3 514/209/3
f 517/210/4 519/211/4 518/91/4
f 519/211/4 520/92/4 518/91/4
f 521/188/5 523/189/5 522/172/5
f 523/189/5 524/207/5 522/172/5
f 525/188/6 527/189/6 526/172/6
f 527/189/6 528/207/6 526/172/6
f 529/31/1 531/56/1 530/42/1
f 531/56/1 532/210/1 530/42/1
f 533/42/2 535/210/2 534/16/2
f 535/210/2 536/212/2 534/16/2
f 537/213/3 539/181/3 538/185/3
f 539/181/3 540/184/3 538/185/3
f 541/58/4 543/214/4 542/181/4
f 543/214/4 544/213/4 542/181/4
f 545/112/5 547/215/5 546/119/5
f 547/215/5 548/216/5 546/119/5
f 549/190/6 551/217/6 550/191/6
f 551/217/6 552/183/6 550/191/6
