# Blender 4.1.1
# www.blender.org
mtllib 6b3.mtl
o armorModel
v -4.830000 -0.980000 3.105000
v -4.829999 -0.980000 -3.105000
v -4.830000 13.280000 3.104997
v -4.829999 13.280000 -3.105003
v 4.830000 -0.980000 -3.104999
v 4.829999 -0.980000 3.105001
v 4.830000 13.280000 -3.105001
v 4.829999 13.280000 3.104999
v 4.830000 -0.980000 -3.104999
v -4.829999 -0.980000 -3.105000
v 4.829999 -0.980000 3.105001
v -4.830000 -0.980000 3.105000
v 4.829999 13.280000 3.104999
v -4.830000 13.280000 3.104997
v 4.830000 13.280000 -3.105001
v -4.829999 13.280000 -3.105003
v 4.829999 -0.980000 3.105001
v -4.830000 -0.980000 3.105000
v 4.829999 13.280000 3.104999
v -4.830000 13.280000 3.104997
v -4.829999 -0.980000 -3.105000
v 4.830000 -0.980000 -3.104999
v -4.829999 13.280000 -3.105003
v 4.830000 13.280000 -3.105001
v 4.828850 13.278850 -3.103851
v 4.828849 13.278850 3.103849
v 4.828850 -0.978850 -3.103849
v 4.828849 -0.978850 3.103851
v -4.828850 13.278850 3.103847
v -4.828849 13.278850 -3.103853
v -4.828850 -0.978850 3.103849
v -4.828849 -0.978850 -3.103850
v -4.828850 13.278850 3.103847
v 4.828849 13.278850 3.103849
v -4.828849 13.278850 -3.103853
v 4.828850 13.278850 -3.103851
v -4.828849 -0.978850 -3.103850
v 4.828850 -0.978850 -3.103849
v -4.828850 -0.978850 3.103849
v 4.828849 -0.978850 3.103851
v -4.828849 13.278850 -3.103853
v 4.828850 13.278850 -3.103851
v -4.828849 -0.978850 -3.103850
v 4.828850 -0.978850 -3.103849
v 4.828849 13.278850 3.103849
v -4.828850 13.278850 3.103847
v 4.828849 -0.978850 3.103851
v -4.828850 -0.978850 3.103849
v -3.450000 6.724999 -2.875001
v -3.449999 6.724999 -4.025002
v -3.450000 11.325000 -2.875002
v -3.449999 11.324999 -4.025002
v -1.149999 6.724999 -4.025001
v -1.149999 6.724999 -2.875001
v -1.149999 11.324999 -4.025002
v -1.149999 11.325000 -2.875002
v -1.149999 6.724999 -4.025001
v -3.449999 6.724999 -4.025002
v -1.149999 6.724999 -2.875001
v -3.450000 6.724999 -2.875001
v -1.149999 11.325000 -2.875002
v -3.450000 11.325000 -2.875002
v -1.149999 11.324999 -4.025002
v -3.449999 11.324999 -4.025002
v -1.149999 6.724999 -2.875001
v -3.450000 6.724999 -2.875001
v -1.149999 11.325000 -2.875002
v -3.450000 11.325000 -2.875002
v -3.449999 6.724999 -4.025002
v -1.149999 6.724999 -4.025001
v -3.449999 11.324999 -4.025002
v -1.149999 11.324999 -4.025002
v -4.788846 6.150000 -1.536155
v -5.602019 6.150000 -2.349329
v -4.788846 10.750000 -1.536156
v -5.602019 10.750000 -2.349329
v -3.975673 6.150000 -3.975674
v -3.162500 6.150000 -3.162501
v -3.975673 10.749999 -3.975675
v -3.162500 10.749999 -3.162502
v -3.975673 6.150000 -3.975674
v -5.602019 6.150000 -2.349329
v -3.162500 6.150000 -3.162501
v -4.788846 6.150000 -1.536155
v -3.162500 10.749999 -3.162502
v -4.788846 10.750000 -1.536156
v -3.975673 10.749999 -3.975675
v -5.602019 10.750000 -2.349329
v -3.162500 6.150000 -3.162501
v -4.788846 6.150000 -1.536155
v -3.162500 10.749999 -3.162502
v -4.788846 10.750000 -1.536156
v -5.602019 6.150000 -2.349329
v -3.975673 6.150000 -3.975674
v -5.602019 10.750000 -2.349329
v -3.975673 10.749999 -3.975675
v 3.162501 6.150000 -3.162500
v 3.975674 6.150000 -3.975673
v 3.162501 10.749999 -3.162501
v 3.975674 10.749999 -3.975673
v 5.602020 6.150000 -2.349327
v 4.788846 6.150000 -1.536154
v 5.602020 10.750000 -2.349327
v 4.788846 10.750000 -1.536155
v 5.602020 6.150000 -2.349327
v 3.975674 6.150000 -3.975673
v 4.788846 6.150000 -1.536154
v 3.162501 6.150000 -3.162500
v 4.788846 10.750000 -1.536155
v 3.162501 10.749999 -3.162501
v 5.602020 10.750000 -2.349327
v 3.975674 10.749999 -3.975673
v 4.788846 6.150000 -1.536154
v 3.162501 6.150000 -3.162500
v 4.788846 10.750000 -1.536155
v 3.162501 10.749999 -3.162501
v 3.975674 6.150000 -3.975673
v 5.602020 6.150000 -2.349327
v 3.975674 10.749999 -3.975673
v 5.602020 10.750000 -2.349327
v 1.150000 6.724999 -2.875001
v 1.150001 6.724999 -4.025001
v 1.150000 11.325000 -2.875001
v 1.150001 11.324999 -4.025002
v 3.450001 6.724999 -4.025001
v 3.450001 6.724999 -2.875000
v 3.450001 11.324999 -4.025002
v 3.450001 11.325000 -2.875001
v 3.450001 6.724999 -4.025001
v 1.150001 6.724999 -4.025001
v 3.450001 6.724999 -2.875000
v 1.150000 6.724999 -2.875001
v 3.450001 11.325000 -2.875001
v 1.150000 11.325000 -2.875001
v 3.450001 11.324999 -4.025002
v 1.150001 11.324999 -4.025002
v 3.450001 6.724999 -2.875000
v 1.150000 6.724999 -2.875001
v 3.450001 11.325000 -2.875001
v 1.150000 11.325000 -2.875001
v 1.150001 6.724999 -4.025001
v 3.450001 6.724999 -4.025001
v 1.150001 11.324999 -4.025002
v 3.450001 11.324999 -4.025002
v -4.600000 -0.750000 2.874999
v -4.599999 -0.750000 -2.875001
v -4.600000 13.050000 2.874997
v -4.599999 13.050000 -2.875003
v 4.600000 -0.750000 -2.874999
v 4.599999 -0.750000 2.875001
v 4.600000 13.050000 -2.875001
v 4.599999 13.050000 2.874999
v 4.600000 -0.750000 -2.874999
v -4.599999 -0.750000 -2.875001
v 4.599999 -0.750000 2.875001
v -4.600000 -0.750000 2.874999
v 4.599999 13.050000 2.874999
v -4.600000 13.050000 2.874997
v 4.600000 13.050000 -2.875001
v -4.599999 13.050000 -2.875003
v 4.599999 -0.750000 2.875001
v -4.600000 -0.750000 2.874999
v 4.599999 13.050000 2.874999
v -4.600000 13.050000 2.874997
v -4.599999 -0.750000 -2.875001
v 4.600000 -0.750000 -2.874999
v -4.599999 13.050000 -2.875003
v 4.600000 13.050000 -2.875001
v 4.611500 13.061500 -2.886501
v 4.611499 13.061500 2.886499
v 4.611500 -0.761500 -2.886499
v 4.611499 -0.761500 2.886501
v -4.611500 13.061500 2.886497
v -4.611499 13.061500 -2.886503
v -4.611500 -0.761500 2.886499
v -4.611499 -0.761500 -2.886501
v -4.611500 13.061500 2.886497
v 4.611499 13.061500 2.886499
v -4.611499 13.061500 -2.886503
v 4.611500 13.061500 -2.886501
v -4.611499 -0.761500 -2.886501
v 4.611500 -0.761500 -2.886499
v -4.611500 -0.761500 2.886499
v 4.611499 -0.761500 2.886501
v -4.611499 13.061500 -2.886503
v 4.611500 13.061500 -2.886501
v -4.611499 -0.761500 -2.886501
v 4.611500 -0.761500 -2.886499
v 4.611499 13.061500 2.886499
v -4.611500 13.061500 2.886497
v 4.611499 -0.761500 2.886501
v -4.611500 -0.761500 2.886499
v -5.574924 8.450000 3.144826
v -5.134838 8.450000 2.082364
v -5.574924 13.050000 3.144825
v -5.134838 13.050000 2.082364
v -3.009915 8.450000 2.962537
v -3.450001 8.450001 4.024998
v -3.009915 13.050000 2.962536
v -3.450001 13.050001 4.024997
v -3.009915 8.450000 2.962537
v -5.134838 8.450000 2.082364
v -3.450001 8.450001 4.024998
v -5.574924 8.450000 3.144826
v -3.450001 13.050001 4.024997
v -5.574924 13.050000 3.144825
v -3.009915 13.050000 2.962536
v -5.134838 13.050000 2.082364
v -3.450001 8.450001 4.024998
v -5.574924 8.450000 3.144826
v -3.450001 13.050001 4.024997
v -5.574924 13.050000 3.144825
v -5.134838 8.450000 2.082364
v -3.009915 8.450000 2.962537
v -5.134838 13.050000 2.082364
v -3.009915 13.050000 2.962536
v 3.450000 8.450001 4.024999
v 3.009914 8.450000 2.962538
v 3.450000 13.050001 4.024998
v 3.009914 13.050000 2.962537
v 5.134837 8.450000 2.082366
v 5.574923 8.450000 3.144828
v 5.134837 13.050000 2.082365
v 5.574923 13.050000 3.144827
v 5.134837 8.450000 2.082366
v 3.009914 8.450000 2.962538
v 5.574923 8.450000 3.144828
v 3.450000 8.450001 4.024999
v 5.574923 13.050000 3.144827
v 3.450000 13.050001 4.024998
v 5.134837 13.050000 2.082365
v 3.009914 13.050000 2.962537
v 5.574923 8.450000 3.144828
v 3.450000 8.450001 4.024999
v 5.574923 13.050000 3.144827
v 3.450000 13.050001 4.024998
v 3.009914 8.450000 2.962538
v 5.134837 8.450000 2.082366
v 3.009914 13.050000 2.962537
v 5.134837 13.050000 2.082365
vn -1.0000 -0.0000 -0.0000
vn 1.0000 -0.0000 -0.0000
vn -0.0000 -1.0000 -0.0000
vn -0.0000 1.0000 -0.0000
vn -0.0000 -0.0000 1.0000
vn -0.0000 -0.0000 -1.0000
vn -0.7071 -0.0000 0.7071
vn 0.7071 -0.0000 -0.7071
vn 0.7071 -0.0000 0.7071
vn -0.7071 -0.0000 -0.7071
vn -0.9239 -0.0000 -0.3827
vn 0.9239 -0.0000 0.3827
vn -0.3827 -0.0000 0.9239
vn 0.3827 -0.0000 -0.9239
vn -0.9239 -0.0000 0.3827
vn 0.9239 -0.0000 -0.3827
vn 0.3827 -0.0000 0.9239
vn -0.3827 -0.0000 -0.9239
vt 0.125000 0.625000
vt 0.125000 0.437500
vt 0.203125 0.625000
vt 0.203125 0.437500
vt 0.375000 0.812500
vt 0.375000 0.625000
vt 0.453125 0.812500
vt 0.453125 0.625000
vt 0.640625 0.546875
vt 0.640625 0.625000
vt 0.515625 0.546875
vt 0.515625 0.625000
vt 0.640625 0.468750
vt 0.515625 0.468750
vt 0.125000 1.000000
vt 0.125000 0.812500
vt 0.250000 1.000000
vt 0.250000 0.812500
vt 0.000000 1.000000
vt 0.000000 0.812500
vt 0.359375 0.625000
vt 0.359375 0.437500
vt 0.437500 0.625000
vt 0.437500 0.437500
vt 0.515625 0.437500
vt 0.640625 0.390625
vt 0.515625 0.390625
vt 0.125000 0.359375
vt 0.000000 0.437500
vt 0.000000 0.359375
vt 0.250000 0.625000
vt 0.375000 1.000000
vt 0.562500 0.390625
vt 0.562500 0.328125
vt 0.578125 0.390625
vt 0.578125 0.328125
vt 0.593750 0.390625
vt 0.593750 0.328125
vt 0.562500 0.640625
vt 0.562500 0.656250
vt 0.531250 0.640625
vt 0.531250 0.656250
vt 0.562500 0.625000
vt 0.531250 0.625000
vt 0.406250 0.437500
vt 0.406250 0.375000
vt 0.437500 0.375000
vt 0.375000 0.437500
vt 0.375000 0.375000
vt 0.609375 0.390625
vt 0.609375 0.328125
vt 0.625000 0.390625
vt 0.625000 0.328125
vt 0.593750 0.640625
vt 0.593750 0.656250
vt 0.593750 0.625000
vt 0.468750 0.437500
vt 0.468750 0.375000
vt 0.500000 0.437500
vt 0.500000 0.375000
vt 0.406250 0.312500
vt 0.421875 0.375000
vt 0.421875 0.312500
vt 0.437500 0.312500
vt 0.656250 0.640625
vt 0.656250 0.656250
vt 0.625000 0.640625
vt 0.625000 0.656250
vt 0.656250 0.625000
vt 0.625000 0.625000
vt 0.609375 1.000000
vt 0.609375 0.937500
vt 0.640625 1.000000
vt 0.640625 0.937500
vt 0.578125 0.875000
vt 0.578125 0.812500
vt 0.609375 0.875000
vt 0.609375 0.812500
vt 0.375000 0.312500
vt 0.390625 0.375000
vt 0.390625 0.312500
vt 0.578125 0.937500
vt 0.578125 1.000000
vt 0.281250 0.625000
vt 0.281250 0.437500
vt 0.656250 0.734375
vt 0.656250 0.812500
vt 0.531250 0.734375
vt 0.531250 0.812500
vt 0.000000 0.625000
vt 0.500000 1.000000
vt 0.500000 0.812500
vt 0.250000 0.359375
vt 0.250000 0.437500
vt 0.375000 0.359375
vt 0.453125 0.375000
vt 0.453125 0.312500
vt 0.468750 0.312500
vt 0.656250 0.375000
vt 0.656250 0.390625
vt 0.625000 0.375000
vt 0.656250 0.359375
vt 0.625000 0.359375
vt 0.640625 0.875000
vt 0.640625 0.812500
vt 0.484375 0.375000
vt 0.484375 0.312500
vt 0.500000 0.312500
vt 0.031250 0.343750
vt 0.031250 0.359375
vt 0.000000 0.343750
vt 0.671875 1.000000
vt 0.671875 0.984375
vt 0.640625 0.984375
vt 0.531250 0.390625
vt 0.531250 0.328125
vt 0.500000 0.390625
vt 0.500000 0.328125
s 0
usemtl Material_0.005
f 1/1/1 3/2/1 2/3/1
f 3/2/1 4/4/1 2/3/1
f 5/5/2 7/6/2 6/7/2
f 7/6/2 8/8/2 6/7/2
f 9/9/3 11/10/3 10/11/3
f 11/10/3 12/12/3 10/11/3
f 13/9/4 15/13/4 14/11/4
f 15/13/4 16/14/4 14/11/4
f 17/15/5 19/16/5 18/17/5
f 19/16/5 20/18/5 18/17/5
f 21/19/6 23/20/6 22/15/6
f 23/20/6 24/16/6 22/15/6
f 25/21/1 27/22/1 26/23/1
f 27/22/1 28/24/1 26/23/1
f 29/23/2 31/24/2 30/12/2
f 31/24/2 32/25/2 30/12/2
f 33/26/3 35/13/3 34/27/3
f 35/13/3 36/14/3 34/27/3
f 37/2/4 39/28/4 38/29/4
f 39/28/4 40/30/4 38/29/4
f 41/18/5 43/31/5 42/5/5
f 43/31/5 44/6/5 42/5/5
f 45/17/6 47/18/6 46/32/6
f 47/18/6 48/5/6 46/32/6
f 49/33/1 51/34/1 50/35/1
f 51/34/1 52/36/1 50/35/1
f 53/35/2 55/36/2 54/37/2
f 55/36/2 56/38/2 54/37/2
f 57/39/3 59/40/3 58/41/3
f 59/40/3 60/42/3 58/41/3
f 61/39/4 63/43/4 62/41/4
f 63/43/4 64/44/4 62/41/4
f 65/45/5 67/46/5 66/24/5
f 67/46/5 68/47/5 66/24/5
f 69/48/6 71/49/6 70/45/6
f 71/49/6 72/46/6 70/45/6
f 73/37/7 75/38/7 74/50/7
f 75/38/7 76/51/7 74/50/7
f 77/50/8 79/51/8 78/52/8
f 79/51/8 80/53/8 78/52/8
f 81/54/3 83/55/3 82/39/3
f 83/55/3 84/40/3 82/39/3
f 85/54/4 87/56/4 86/39/4
f 87/56/4 88/43/4 86/39/4
f 89/57/9 91/58/9 90/59/9
f 91/58/9 92/60/9 90/59/9
f 93/24/10 95/47/10 94/57/10
f 95/47/10 96/58/10 94/57/10
f 97/46/10 99/61/10 98/62/10
f 99/61/10 100/63/10 98/62/10
f 101/62/9 103/63/9 102/47/9
f 103/63/9 104/64/9 102/47/9
f 105/65/3 107/66/3 106/67/3
f 107/66/3 108/68/3 106/67/3
f 109/65/4 111/69/4 110/67/4
f 111/69/4 112/70/4 110/67/4
f 113/71/7 115/72/7 114/73/7
f 115/72/7 116/74/7 114/73/7
f 117/75/8 119/76/8 118/77/8
f 119/76/8 120/78/8 118/77/8
f 121/49/1 123/79/1 122/80/1
f 123/79/1 124/81/1 122/80/1
f 125/80/2 127/81/2 126/46/2
f 127/81/2 128/61/2 126/46/2
f 129/67/3 131/68/3 130/54/3
f 131/68/3 132/55/3 130/54/3
f 133/67/4 135/70/4 134/54/4
f 135/70/4 136/56/4 134/54/4
f 137/82/5 139/75/5 138/72/5
f 139/75/5 140/77/5 138/72/5
f 141/83/6 143/82/6 142/71/6
f 143/82/6 144/72/6 142/71/6
f 145/3/1 147/4/1 146/84/1
f 147/4/1 148/85/1 146/84/1
f 149/84/2 151/85/2 150/21/2
f 151/85/2 152/22/2 150/21/2
f 153/86/3 155/87/3 154/88/3
f 155/87/3 156/89/3 154/88/3
f 157/86/4 159/66/4 158/88/4
f 159/66/4 160/42/4 158/88/4
f 161/16/5 163/1/5 162/18/5
f 163/1/5 164/31/5 162/18/5
f 165/20/6 167/90/6 166/16/6
f 167/90/6 168/1/6 166/16/6
f 169/7/1 171/8/1 170/89/1
f 171/8/1 172/44/1 170/89/1
f 173/91/2 175/92/2 174/83/2
f 175/92/2 176/76/2 174/83/2
f 177/93/3 179/94/3 178/28/3
f 179/94/3 180/2/3 178/28/3
f 181/48/4 183/95/4 182/94/4
f 183/95/4 184/93/4 182/94/4
f 185/32/5 187/5/5 186/91/5
f 187/5/5 188/92/5 186/91/5
f 189/90/6 191/29/6 190/1/6
f 191/29/6 192/2/6 190/1/6
f 193/47/11 195/64/11 194/96/11
f 195/64/11 196/97/11 194/96/11
f 197/96/12 199/97/12 198/58/12
f 199/97/12 200/98/12 198/58/12
f 201/99/3 203/100/3 202/101/3
f 203/100/3 204/52/3 202/101/3
f 205/99/4 207/102/4 206/101/4
f 207/102/4 208/103/4 206/101/4
f 209/77/13 211/78/13 210/104/13
f 211/78/13 212/105/13 210/104/13
f 213/72/14 215/77/14 214/74/14
f 215/77/14 216/104/14 214/74/14
f 217/58/15 219/98/15 218/106/15
f 219/98/15 220/107/15 218/106/15
f 221/106/16 223/107/16 222/60/16
f 223/107/16 224/108/16 222/60/16
f 225/109/3 227/110/3 226/111/3
f 227/110/3 228/30/3 226/111/3
f 229/112/4 231/113/4 230/73/4
f 231/113/4 232/114/4 230/73/4
f 233/115/17 235/116/17 234/33/17
f 235/116/17 236/34/17 234/33/17
f 237/117/18 239/118/18 238/115/18
f 239/118/18 240/116/18 238/115/18
