# Blender 5.1.2
# www.blender.org
mtllib lev.pg7vr.mtl
o bulletModel
v 0.000000 0.056538 0.056538
v 0.075385 0.056538 0.056538
v 0.000000 -0.056538 0.056538
v 0.075385 -0.056538 0.056538
v 0.075385 0.056538 -0.056538
v -0.000000 0.056538 -0.056538
v 0.075385 -0.056538 -0.056538
v -0.000000 -0.056538 -0.056538
v 0.075385 0.056538 -0.056538
v 0.075385 0.056538 0.056538
v -0.000000 0.056538 -0.056538
v 0.000000 0.056538 0.056538
v -0.000000 -0.056538 -0.056538
v 0.000000 -0.056538 0.056538
v 0.075385 -0.056538 -0.056538
v 0.075385 -0.056538 0.056538
v -0.000000 0.056538 -0.056538
v 0.000000 0.056538 0.056538
v -0.000000 -0.056538 -0.056538
v 0.000000 -0.056538 0.056538
v 0.075385 0.056538 0.056538
v 0.075385 0.056538 -0.056538
v 0.075385 -0.056538 0.056538
v 0.075385 -0.056538 -0.056538
v 0.207308 0.094231 0.094231
v 0.508846 0.094231 0.094231
v 0.207308 -0.094231 0.094231
v 0.508846 -0.094231 0.094231
v 0.508846 0.094231 -0.094231
v 0.207308 0.094231 -0.094231
v 0.508846 -0.094231 -0.094231
v 0.207308 -0.094231 -0.094231
v 0.508846 0.094231 -0.094231
v 0.508846 0.094231 0.094231
v 0.207308 0.094231 -0.094231
v 0.207308 0.094231 0.094231
v 0.207308 -0.094231 -0.094231
v 0.207308 -0.094231 0.094231
v 0.508846 -0.094231 -0.094231
v 0.508846 -0.094231 0.094231
v 0.207308 0.094231 -0.094231
v 0.207308 0.094231 0.094231
v 0.207308 -0.094231 -0.094231
v 0.207308 -0.094231 0.094231
v 0.508846 0.094231 0.094231
v 0.508846 0.094231 -0.094231
v 0.508846 -0.094231 0.094231
v 0.508846 -0.094231 -0.094231
v 0.829231 0.093284 -0.000000
v 1.036538 0.093284 -0.000000
v 0.829231 0.000000 0.093284
v 1.036538 0.000000 0.093284
v 1.036538 -0.000000 -0.093284
v 0.829231 -0.000000 -0.093284
v 1.036538 -0.093284 -0.000000
v 0.829231 -0.093284 -0.000000
v 1.036538 -0.000000 -0.093284
v 1.036538 0.093284 -0.000000
v 0.829231 -0.000000 -0.093284
v 0.829231 0.093284 -0.000000
v 0.829231 -0.093284 -0.000000
v 0.829231 0.000000 0.093284
v 1.036538 -0.093284 -0.000000
v 1.036538 0.000000 0.093284
v 0.829231 -0.000000 -0.093284
v 0.829231 0.093284 -0.000000
v 0.829231 -0.093284 -0.000000
v 0.829231 0.000000 0.093284
v 1.036538 0.093284 -0.000000
v 1.036538 -0.000000 -0.093284
v 1.036538 0.000000 0.093284
v 1.036538 -0.093284 -0.000000
v -0.000075 0.075385 0.075385
v 0.000000 0.075385 0.075385
v -0.000075 -0.075385 0.075385
v 0.000000 -0.075385 0.075385
v -0.000000 0.075385 -0.075385
v -0.000075 0.075385 -0.075385
v -0.000000 -0.075385 -0.075385
v -0.000075 -0.075385 -0.075385
v -0.000000 0.075385 -0.075385
v 0.000000 0.075385 0.075385
v -0.000075 0.075385 -0.075385
v -0.000075 0.075385 0.075385
v -0.000075 -0.075385 -0.075385
v -0.000075 -0.075385 0.075385
v -0.000000 -0.075385 -0.075385
v 0.000000 -0.075385 0.075385
v -0.000075 0.075385 -0.075385
v -0.000075 0.075385 0.075385
v -0.000075 -0.075385 -0.075385
v -0.000075 -0.075385 0.075385
v 0.000000 0.075385 0.075385
v -0.000000 0.075385 -0.075385
v 0.000000 -0.075385 0.075385
v -0.000000 -0.075385 -0.075385
v -0.000075 0.106610 -0.000000
v -0.000000 0.106610 -0.000000
v -0.000075 0.000000 0.106610
v 0.000000 0.000000 0.106610
v -0.000000 -0.000000 -0.106610
v -0.000075 -0.000000 -0.106610
v 0.000000 -0.106610 0.000000
v -0.000075 -0.106610 0.000000
v -0.000000 -0.000000 -0.106610
v -0.000000 0.106610 -0.000000
v -0.000075 -0.000000 -0.106610
v -0.000075 0.106610 -0.000000
v -0.000075 -0.106610 0.000000
v -0.000075 0.000000 0.106610
v 0.000000 -0.106610 0.000000
v 0.000000 0.000000 0.106610
v -0.000075 -0.000000 -0.106610
v -0.000075 0.106610 -0.000000
v -0.000075 -0.106610 0.000000
v -0.000075 0.000000 0.106610
v -0.000000 0.106610 -0.000000
v -0.000000 -0.000000 -0.106610
v 0.000000 0.000000 0.106610
v 0.000000 -0.106610 0.000000
v 1.127000 0.037692 0.037692
v 1.202384 0.037692 0.037692
v 1.127000 -0.037692 0.037692
v 1.202384 -0.037692 0.037692
v 1.202384 0.037692 -0.037692
v 1.127000 0.037692 -0.037692
v 1.202384 -0.037692 -0.037692
v 1.127000 -0.037692 -0.037692
v 1.202384 0.037692 -0.037692
v 1.202384 0.037692 0.037692
v 1.127000 0.037692 -0.037692
v 1.127000 0.037692 0.037692
v 1.127000 -0.037692 -0.037692
v 1.127000 -0.037692 0.037692
v 1.202384 -0.037692 -0.037692
v 1.202384 -0.037692 0.037692
v 1.127000 0.037692 -0.037692
v 1.127000 0.037692 0.037692
v 1.127000 -0.037692 -0.037692
v 1.127000 -0.037692 0.037692
v 1.202384 0.037692 0.037692
v 1.202384 0.037692 -0.037692
v 1.202384 -0.037692 0.037692
v 1.202384 -0.037692 -0.037692
v -0.825461 0.074627 0.000000
v 1.127000 0.074627 -0.000000
v -0.825461 0.000000 0.074627
v 1.127000 0.000000 0.074627
v 1.127000 -0.000000 -0.074627
v -0.825461 -0.000000 -0.074627
v 1.127000 -0.074627 -0.000000
v -0.825461 -0.074627 0.000000
v 1.127000 -0.000000 -0.074627
v 1.127000 0.074627 -0.000000
v -0.825461 -0.000000 -0.074627
v -0.825461 0.074627 0.000000
v -0.825461 -0.074627 0.000000
v -0.825461 0.000000 0.074627
v 1.127000 -0.074627 -0.000000
v 1.127000 0.000000 0.074627
v -0.825461 -0.000000 -0.074627
v -0.825461 0.074627 0.000000
v -0.825461 -0.074627 0.000000
v -0.825461 0.000000 0.074627
v 1.127000 0.074627 -0.000000
v 1.127000 -0.000000 -0.074627
v 1.127000 0.000000 0.074627
v 1.127000 -0.074627 -0.000000
vn -0.0000 -0.0000 1.0000
vn -0.0000 -0.0000 -1.0000
vn -0.0000 1.0000 -0.0000
vn -0.0000 -1.0000 -0.0000
vn -1.0000 -0.0000 -0.0000
vn 1.0000 -0.0000 -0.0000
vn -0.0000 0.7071 0.7071
vn -0.0000 -0.7071 -0.7071
vn -0.0000 0.7071 -0.7071
vn -0.0000 -0.7071 0.7071
vt 0.218750 0.687500
vt 0.218750 0.640625
vt 0.250000 0.687500
vt 0.250000 0.640625
vt 0.187500 0.593750
vt 0.187500 0.546875
vt 0.218750 0.593750
vt 0.218750 0.546875
vt 0.484375 0.656250
vt 0.484375 0.687500
vt 0.437500 0.656250
vt 0.437500 0.687500
vt 0.234375 0.531250
vt 0.234375 0.500000
vt 0.187500 0.531250
vt 0.187500 0.500000
vt 0.281250 0.562500
vt 0.281250 0.515625
vt 0.328125 0.562500
vt 0.328125 0.515625
vt 0.437500 0.750000
vt 0.437500 0.703125
vt 0.484375 0.750000
vt 0.484375 0.703125
vt 0.125000 0.875000
vt 0.125000 0.796875
vt 0.250000 0.875000
vt 0.250000 0.796875
vt 0.125000 0.781250
vt 0.125000 0.703125
vt 0.250000 0.781250
vt 0.250000 0.703125
vt 0.328125 0.750000
vt 0.328125 0.875000
vt 0.250000 0.750000
vt 0.328125 0.625000
vt 0.250000 0.625000
vt 0.343750 0.875000
vt 0.343750 0.796875
vt 0.421875 0.875000
vt 0.421875 0.796875
vt 0.125000 0.687500
vt 0.125000 0.609375
vt 0.203125 0.687500
vt 0.203125 0.609375
vt 0.343750 0.781250
vt 0.343750 0.718750
vt 0.437500 0.781250
vt 0.437500 0.718750
vt 0.343750 0.656250
vt 0.406250 0.562500
vt 0.406250 0.656250
vt 0.343750 0.562500
vt 0.281250 0.625000
vt 0.281250 0.531250
vt 0.218750 0.625000
vt 0.218750 0.531250
vt 0.125000 0.593750
vt 0.125000 0.531250
vt 0.343750 0.625000
vt 0.000000 1.000000
vt 0.000000 0.937500
vt 0.062500 1.000000
vt 0.406250 0.593750
vt 0.406250 0.531250
vt 0.468750 0.593750
vt 0.468750 0.531250
vt 0.468750 0.656250
vt 0.437500 0.812500
vt 0.500000 0.812500
vt 0.500000 0.750000
vt 0.437500 0.875000
vt 0.500000 0.875000
vt 0.468750 0.625000
vt 0.500000 0.656250
vt 0.500000 0.625000
vt 0.406250 0.500000
vt 0.437500 0.531250
vt 0.437500 0.500000
vt 0.500000 0.562500
vt 0.500000 0.593750
vt 0.468750 0.562500
vt 0.468750 0.500000
vt 0.250000 0.531250
vt 0.250000 0.500000
vt 0.281250 0.500000
vt 0.000000 0.953125
vt 0.812500 1.000000
vt 0.812500 0.953125
vt 0.000000 0.890625
vt 0.812500 0.937500
vt 0.812500 0.890625
vt 0.046875 0.062500
vt 0.046875 0.875000
vt 0.000000 0.062500
vt 0.000000 0.875000
vt 0.109375 0.875000
vt 0.109375 0.062500
vt 0.062500 0.875000
vt 0.062500 0.062500
vt 0.125000 0.484375
vt 0.171875 0.531250
vt 0.171875 0.484375
vt 0.343750 0.515625
vt 0.390625 0.562500
vt 0.390625 0.515625
s 0
usemtl Material_0.007
f 1/1/1 3/2/1 2/3/1
f 3/2/1 4/4/1 2/3/1
f 5/5/2 7/6/2 6/7/2
f 7/6/2 8/8/2 6/7/2
f 9/9/3 11/10/3 10/11/3
f 11/10/3 12/12/3 10/11/3
f 13/13/4 15/14/4 14/15/4
f 15/14/4 16/16/4 14/15/4
f 17/17/5 19/18/5 18/19/5
f 19/18/5 20/20/5 18/19/5
f 21/21/6 23/22/6 22/23/6
f 23/22/6 24/24/6 22/23/6
f 25/25/1 27/26/1 26/27/1
f 27/26/1 28/28/1 26/27/1
f 29/29/2 31/30/2 30/31/2
f 31/30/2 32/32/2 30/31/2
f 33/33/3 35/34/3 34/35/3
f 35/34/3 36/27/3 34/35/3
f 37/33/4 39/36/4 38/35/4
f 39/36/4 40/37/4 38/35/4
f 41/38/5 43/39/5 42/40/5
f 43/39/5 44/41/5 42/40/5
f 45/42/6 47/43/6 46/44/6
f 47/43/6 48/45/6 46/44/6
f 49/46/7 51/47/7 50/48/7
f 51/47/7 52/49/7 50/48/7
f 53/47/8 55/50/8 54/49/8
f 55/50/8 56/11/8 54/49/8
f 57/51/9 59/52/9 58/53/9
f 59/52/9 60/50/9 58/53/9
f 61/54/10 63/55/10 62/56/10
f 63/55/10 64/57/10 62/56/10
f 65/58/5 67/59/5 66/5/5
f 67/59/5 68/15/5 66/5/5
f 69/54/6 71/17/6 70/60/6
f 71/17/6 72/53/6 70/60/6
f 73/61/1 75/62/1 74/61/1
f 75/62/1 76/62/1 74/61/1
f 77/61/2 79/62/2 78/61/2
f 79/62/2 80/62/2 78/61/2
f 81/63/3 83/63/3 82/61/3
f 83/63/3 84/61/3 82/61/3
f 85/63/4 87/63/4 86/61/4
f 87/63/4 88/61/4 86/61/4
f 89/64/5 91/65/5 90/66/5
f 91/65/5 92/67/5 90/66/5
f 93/52/6 95/64/6 94/68/6
f 95/64/6 96/66/6 94/68/6
f 97/61/7 99/62/7 98/61/7
f 99/62/7 100/62/7 98/61/7
f 101/61/8 103/62/8 102/61/8
f 103/62/8 104/62/8 102/61/8
f 105/63/9 107/63/9 106/61/9
f 107/63/9 108/61/9 106/61/9
f 109/63/10 111/63/10 110/61/10
f 111/63/10 112/61/10 110/61/10
f 113/69/5 115/21/5 114/70/5
f 115/21/5 116/71/5 114/70/5
f 117/72/6 119/69/6 118/73/6
f 119/69/6 120/70/6 118/73/6
f 121/68/1 123/74/1 122/75/1
f 123/74/1 124/76/1 122/75/1
f 125/65/2 127/77/2 126/78/2
f 127/77/2 128/79/2 126/78/2
f 129/80/3 131/81/3 130/82/3
f 131/81/3 132/66/3 130/82/3
f 133/67/4 135/83/4 134/78/4
f 135/83/4 136/79/4 134/78/4
f 137/74/5 139/66/5 138/76/5
f 139/66/5 140/81/5 138/76/5
f 141/84/6 143/85/6 142/55/6
f 143/85/6 144/86/6 142/55/6
f 145/61/7 147/87/7 146/88/7
f 147/87/7 148/89/7 146/88/7
f 149/62/8 151/90/8 150/91/8
f 151/90/8 152/92/8 150/91/8
f 153/93/9 155/94/9 154/95/9
f 155/94/9 156/96/9 154/95/9
f 157/97/10 159/98/10 158/99/10
f 159/98/10 160/100/10 158/99/10
f 161/59/5 163/101/5 162/102/5
f 163/101/5 164/103/5 162/102/5
f 165/53/6 167/104/6 166/105/6
f 167/104/6 168/106/6 166/105/6
