# Blender 5.1.0
# www.blender.org
mtllib lev.vgm93100.mtl
o bulletModel
v 0.769231 0.761538 0.761538
v 3.461538 0.761538 0.761538
v 0.769231 -0.761538 0.761538
v 3.461538 -0.761538 0.761538
v 3.461538 0.761538 -0.761539
v 0.769231 0.761538 -0.761538
v 3.461538 -0.761538 -0.761539
v 0.769231 -0.761538 -0.761538
v 3.461538 0.761538 -0.761539
v 3.461538 0.761538 0.761538
v 0.769231 0.761538 -0.761538
v 0.769231 0.761538 0.761538
v 0.769231 -0.761538 -0.761538
v 0.769231 -0.761538 0.761538
v 3.461538 -0.761538 -0.761539
v 3.461538 -0.761538 0.761538
v 0.769231 0.761538 -0.761538
v 0.769231 0.761538 0.761538
v 0.769231 -0.761538 -0.761538
v 0.769231 -0.761538 0.761538
v 3.461538 0.761538 0.761538
v 3.461538 0.761538 -0.761539
v 3.461538 -0.761538 0.761538
v 3.461538 -0.761538 -0.761539
v 0.384615 0.376923 0.376923
v 0.769231 0.376923 0.376923
v 0.384615 -0.376923 0.376923
v 0.769231 -0.376923 0.376923
v 0.769231 0.376923 -0.376923
v 0.384615 0.376923 -0.376923
v 0.769231 -0.376923 -0.376923
v 0.384615 -0.376923 -0.376923
v 0.769231 0.376923 -0.376923
v 0.769231 0.376923 0.376923
v 0.384615 0.376923 -0.376923
v 0.384615 0.376923 0.376923
v 0.384615 -0.376923 -0.376923
v 0.384615 -0.376923 0.376923
v 0.769231 -0.376923 -0.376923
v 0.769231 -0.376923 0.376923
v 0.384615 0.376923 -0.376923
v 0.384615 0.376923 0.376923
v 0.384615 -0.376923 -0.376923
v 0.384615 -0.376923 0.376923
v 0.769231 0.376923 0.376923
v 0.769231 0.376923 -0.376923
v 0.769231 -0.376923 0.376923
v 0.769231 -0.376923 -0.376923
v 3.269231 0.592308 0.576923
v 3.653846 0.592308 0.576923
v 3.269231 -0.561538 0.576923
v 3.653846 -0.561538 0.576923
v 3.653846 0.592308 -0.576923
v 3.269231 0.592308 -0.576923
v 3.653846 -0.561538 -0.576923
v 3.269231 -0.561538 -0.576923
v 3.653846 0.592308 -0.576923
v 3.653846 0.592308 0.576923
v 3.269231 0.592308 -0.576923
v 3.269231 0.592308 0.576923
v 3.269231 -0.561538 -0.576923
v 3.269231 -0.561538 0.576923
v 3.653846 -0.561538 -0.576923
v 3.653846 -0.561538 0.576923
v 3.269231 0.592308 -0.576923
v 3.269231 0.592308 0.576923
v 3.269231 -0.561538 -0.576923
v 3.269231 -0.561538 0.576923
v 3.653846 0.592308 0.576923
v 3.653846 0.592308 -0.576923
v 3.653846 -0.561538 0.576923
v 3.653846 -0.561538 -0.576923
vn -0.0000 -0.0000 1.0000
vn -0.0000 -0.0000 -1.0000
vn -0.0000 1.0000 -0.0000
vn -0.0000 -1.0000 -0.0000
vn -1.0000 -0.0000 -0.0000
vn 1.0000 -0.0000 -0.0000
vt 0.000000 1.000000
vt 0.000000 0.875000
vt 0.218750 1.000000
vt 0.218750 0.875000
vt 0.000000 0.750000
vt 0.218750 0.750000
vt 0.125000 0.531250
vt 0.125000 0.750000
vt 0.000000 0.531250
vt 0.375000 1.000000
vt 0.375000 0.781250
vt 0.250000 1.000000
vt 0.250000 0.781250
vt 0.250000 0.750000
vt 0.250000 0.625000
vt 0.375000 0.750000
vt 0.375000 0.625000
vt 0.125000 0.625000
vt 0.187500 0.500000
vt 0.187500 0.437500
vt 0.218750 0.500000
vt 0.218750 0.437500
vt 0.500000 0.812500
vt 0.500000 0.750000
vt 0.531250 0.812500
vt 0.531250 0.750000
vt 0.312500 0.468750
vt 0.312500 0.500000
vt 0.250000 0.468750
vt 0.250000 0.500000
vt 0.375000 0.500000
vt 0.375000 0.468750
vt 0.437500 0.562500
vt 0.437500 0.500000
vt 0.500000 0.562500
vt 0.500000 0.500000
vt 0.437500 0.625000
vt 0.500000 0.625000
vt 0.000000 0.500000
vt 0.000000 0.406250
vt 0.031250 0.500000
vt 0.031250 0.406250
vt 0.500000 1.000000
vt 0.500000 0.906250
vt 0.531250 1.000000
vt 0.531250 0.906250
vt 0.156250 0.468750
vt 0.156250 0.500000
vt 0.062500 0.468750
vt 0.062500 0.500000
vt 0.593750 0.875000
vt 0.593750 0.843750
vt 0.500000 0.875000
vt 0.500000 0.843750
vt 0.250000 0.531250
vt 0.343750 0.625000
vt 0.343750 0.531250
vt 0.375000 0.875000
vt 0.468750 0.875000
vt 0.468750 0.781250
s 0
usemtl Material_0.001
f 1/1/1 3/2/1 2/3/1
f 3/2/1 4/4/1 2/3/1
f 5/2/2 7/5/2 6/4/2
f 7/5/2 8/6/2 6/4/2
f 9/7/3 11/8/3 10/9/3
f 11/8/3 12/5/3 10/9/3
f 13/10/4 15/11/4 14/12/4
f 15/11/4 16/13/4 14/12/4
f 17/14/5 19/15/5 18/16/5
f 19/15/5 20/17/5 18/16/5
f 21/8/6 23/18/6 22/14/6
f 23/18/6 24/15/6 22/14/6
f 25/19/1 27/20/1 26/21/1
f 27/20/1 28/22/1 26/21/1
f 29/23/2 31/24/2 30/25/2
f 31/24/2 32/26/2 30/25/2
f 33/27/3 35/28/3 34/29/3
f 35/28/3 36/30/3 34/29/3
f 37/31/4 39/32/4 38/28/4
f 39/32/4 40/27/4 38/28/4
f 41/33/5 43/34/5 42/35/5
f 43/34/5 44/36/5 42/35/5
f 45/37/6 47/33/6 46/38/6
f 47/33/6 48/35/6 46/38/6
f 49/39/1 51/40/1 50/41/1
f 51/40/1 52/42/1 50/41/1
f 53/43/2 55/44/2 54/45/2
f 55/44/2 56/46/2 54/45/2
f 57/47/3 59/48/3 58/49/3
f 59/48/3 60/50/3 58/49/3
f 61/51/4 63/52/4 62/53/4
f 63/52/4 64/54/4 62/53/4
f 65/15/5 67/55/5 66/56/5
f 67/55/5 68/57/5 66/56/5
f 69/58/6 71/11/6 70/59/6
f 71/11/6 72/60/6 70/59/6
