# Blender 5.1.2
# www.blender.org
mtllib lev.pg7v.mtl
o bulletModel
v 0.000000 0.056538 0.056538
v 0.075385 0.056538 0.056538
v 0.000000 -0.056538 0.056538
v 0.075385 -0.056538 0.056538
v 0.075385 0.056538 -0.056538
v -0.000000 0.056538 -0.056538
v 0.075385 -0.056538 -0.056538
v -0.000000 -0.056538 -0.056538
v 0.075385 0.056538 -0.056538
v 0.075385 0.056538 0.056538
v -0.000000 0.056538 -0.056538
v 0.000000 0.056538 0.056538
v -0.000000 -0.056538 -0.056538
v 0.000000 -0.056538 0.056538
v 0.075385 -0.056538 -0.056538
v 0.075385 -0.056538 0.056538
v -0.000000 0.056538 -0.056538
v 0.000000 0.056538 0.056538
v -0.000000 -0.056538 -0.056538
v 0.000000 -0.056538 0.056538
v 0.075385 0.056538 0.056538
v 0.075385 0.056538 -0.056538
v 0.075385 -0.056538 0.056538
v 0.075385 -0.056538 -0.056538
v 0.207308 -0.094231 0.094231
v 0.433462 -0.094231 0.094231
v 0.207308 -0.094231 -0.094231
v 0.433462 -0.094231 -0.094231
v 0.433462 0.094231 0.094231
v 0.207308 0.094231 0.094231
v 0.433462 0.094231 -0.094231
v 0.207308 0.094231 -0.094231
v 0.433462 0.094231 0.094231
v 0.433462 -0.094231 0.094231
v 0.207308 0.094231 0.094231
v 0.207308 -0.094231 0.094231
v 0.207308 0.094231 -0.094231
v 0.207308 -0.094231 -0.094231
v 0.433462 0.094231 -0.094231
v 0.433462 -0.094231 -0.094231
v 0.207308 0.094231 0.094231
v 0.207308 -0.094231 0.094231
v 0.207308 0.094231 -0.094231
v 0.207308 -0.094231 -0.094231
v 0.433462 -0.094231 0.094231
v 0.433462 0.094231 0.094231
v 0.433462 -0.094231 -0.094231
v 0.433462 0.094231 -0.094231
v -0.000075 0.075385 0.075385
v 0.000000 0.075385 0.075385
v -0.000075 -0.075385 0.075385
v 0.000000 -0.075385 0.075385
v -0.000000 0.075385 -0.075385
v -0.000075 0.075385 -0.075385
v -0.000000 -0.075385 -0.075385
v -0.000075 -0.075385 -0.075385
v -0.000000 0.075385 -0.075385
v 0.000000 0.075385 0.075385
v -0.000075 0.075385 -0.075385
v -0.000075 0.075385 0.075385
v -0.000075 -0.075385 -0.075385
v -0.000075 -0.075385 0.075385
v -0.000000 -0.075385 -0.075385
v 0.000000 -0.075385 0.075385
v -0.000075 0.075385 -0.075385
v -0.000075 0.075385 0.075385
v -0.000075 -0.075385 -0.075385
v -0.000075 -0.075385 0.075385
v 0.000000 0.075385 0.075385
v -0.000000 0.075385 -0.075385
v 0.000000 -0.075385 0.075385
v -0.000000 -0.075385 -0.075385
v -0.000075 0.106610 -0.000000
v -0.000000 0.106610 -0.000000
v -0.000075 0.000000 0.106610
v 0.000000 0.000000 0.106610
v -0.000000 -0.000000 -0.106610
v -0.000075 -0.000000 -0.106610
v 0.000000 -0.106610 0.000000
v -0.000075 -0.106610 0.000000
v -0.000000 -0.000000 -0.106610
v -0.000000 0.106610 -0.000000
v -0.000075 -0.000000 -0.106610
v -0.000075 0.106610 -0.000000
v -0.000075 -0.106610 0.000000
v -0.000075 0.000000 0.106610
v 0.000000 -0.106610 0.000000
v 0.000000 0.000000 0.106610
v -0.000075 -0.000000 -0.106610
v -0.000075 0.106610 -0.000000
v -0.000075 -0.106610 0.000000
v -0.000075 0.000000 0.106610
v -0.000000 0.106610 -0.000000
v -0.000000 -0.000000 -0.106610
v 0.000000 0.000000 0.106610
v 0.000000 -0.106610 0.000000
v 0.599308 0.037692 0.037692
v 0.674692 0.037692 0.037692
v 0.599308 -0.037692 0.037692
v 0.674692 -0.037692 0.037692
v 0.674692 0.037692 -0.037692
v 0.599308 0.037692 -0.037692
v 0.674692 -0.037692 -0.037692
v 0.599308 -0.037692 -0.037692
v 0.674692 0.037692 -0.037692
v 0.674692 0.037692 0.037692
v 0.599308 0.037692 -0.037692
v 0.599308 0.037692 0.037692
v 0.599308 -0.037692 -0.037692
v 0.599308 -0.037692 0.037692
v 0.674692 -0.037692 -0.037692
v 0.674692 -0.037692 0.037692
v 0.599308 0.037692 -0.037692
v 0.599308 0.037692 0.037692
v 0.599308 -0.037692 -0.037692
v 0.599308 -0.037692 0.037692
v 0.674692 0.037692 0.037692
v 0.674692 0.037692 -0.037692
v 0.674692 -0.037692 0.037692
v 0.674692 -0.037692 -0.037692
v -0.825461 0.074627 0.000000
v 0.599308 0.074627 -0.000000
v -0.825461 0.000000 0.074627
v 0.599308 0.000000 0.074627
v 0.599308 -0.000000 -0.074627
v -0.825461 -0.000000 -0.074627
v 0.599308 -0.074627 -0.000000
v -0.825461 -0.074627 0.000000
v 0.599308 -0.000000 -0.074627
v 0.599308 0.074627 -0.000000
v -0.825461 -0.000000 -0.074627
v -0.825461 0.074627 0.000000
v -0.825461 -0.074627 0.000000
v -0.825461 0.000000 0.074627
v 0.599308 -0.074627 -0.000000
v 0.599308 0.000000 0.074627
v -0.825461 -0.000000 -0.074627
v -0.825461 0.074627 0.000000
v -0.825461 -0.074627 0.000000
v -0.825461 0.000000 0.074627
v 0.599308 0.074627 -0.000000
v 0.599308 -0.000000 -0.074627
v 0.599308 0.000000 0.074627
v 0.599308 -0.074627 -0.000000
vn -0.0000 -0.0000 1.0000
vn -0.0000 -0.0000 -1.0000
vn -0.0000 1.0000 -0.0000
vn -0.0000 -1.0000 -0.0000
vn -1.0000 -0.0000 -0.0000
vn 1.0000 -0.0000 -0.0000
vn -0.0000 0.7071 0.7071
vn -0.0000 -0.7071 -0.7071
vn -0.0000 0.7071 -0.7071
vn -0.0000 -0.7071 0.7071
vt 0.125000 0.593750
vt 0.125000 0.546875
vt 0.156250 0.593750
vt 0.156250 0.546875
vt 0.406250 0.875000
vt 0.406250 0.828125
vt 0.437500 0.875000
vt 0.437500 0.828125
vt 0.203125 0.562500
vt 0.203125 0.593750
vt 0.156250 0.562500
vt 0.453125 0.812500
vt 0.453125 0.781250
vt 0.406250 0.812500
vt 0.406250 0.781250
vt 0.218750 0.625000
vt 0.218750 0.578125
vt 0.265625 0.625000
vt 0.265625 0.578125
vt 0.343750 0.656250
vt 0.343750 0.609375
vt 0.390625 0.656250
vt 0.390625 0.609375
vt 0.125000 0.875000
vt 0.125000 0.796875
vt 0.218750 0.875000
vt 0.218750 0.796875
vt 0.125000 0.781250
vt 0.125000 0.703125
vt 0.218750 0.781250
vt 0.218750 0.703125
vt 0.296875 0.781250
vt 0.296875 0.875000
vt 0.296875 0.687500
vt 0.218750 0.687500
vt 0.312500 0.875000
vt 0.312500 0.796875
vt 0.390625 0.875000
vt 0.390625 0.796875
vt 0.125000 0.687500
vt 0.125000 0.609375
vt 0.203125 0.687500
vt 0.203125 0.609375
vt 0.000000 1.000000
vt 0.000000 0.937500
vt 0.062500 1.000000
vt 0.312500 0.781250
vt 0.312500 0.718750
vt 0.375000 0.781250
vt 0.375000 0.718750
vt 0.281250 0.687500
vt 0.281250 0.625000
vt 0.343750 0.718750
vt 0.406250 0.718750
vt 0.406250 0.656250
vt 0.343750 0.687500
vt 0.343750 0.625000
vt 0.406250 0.687500
vt 0.437500 0.718750
vt 0.437500 0.687500
vt 0.343750 0.593750
vt 0.343750 0.562500
vt 0.375000 0.593750
vt 0.375000 0.562500
vt 0.437500 0.625000
vt 0.437500 0.656250
vt 0.406250 0.625000
vt 0.406250 0.593750
vt 0.406250 0.562500
vt 0.312500 0.687500
vt 0.000000 0.953125
vt 0.593750 1.000000
vt 0.593750 0.953125
vt 0.000000 0.890625
vt 0.593750 0.937500
vt 0.593750 0.890625
vt 0.046875 0.281250
vt 0.046875 0.875000
vt 0.000000 0.281250
vt 0.000000 0.875000
vt 0.109375 0.875000
vt 0.109375 0.281250
vt 0.062500 0.875000
vt 0.062500 0.281250
vt 0.281250 0.578125
vt 0.328125 0.625000
vt 0.328125 0.578125
vt 0.375000 0.734375
vt 0.421875 0.781250
vt 0.421875 0.734375
s 0
usemtl Material_0.004
f 1/1/1 3/2/1 2/3/1
f 3/2/1 4/4/1 2/3/1
f 5/5/2 7/6/2 6/7/2
f 7/6/2 8/8/2 6/7/2
f 9/9/3 11/10/3 10/11/3
f 11/10/3 12/3/3 10/11/3
f 13/12/4 15/13/4 14/14/4
f 15/13/4 16/15/4 14/14/4
f 17/16/5 19/17/5 18/18/5
f 19/17/5 20/19/5 18/18/5
f 21/20/6 23/21/6 22/22/6
f 23/21/6 24/23/6 22/22/6
f 25/24/4 27/25/4 26/26/4
f 27/25/4 28/27/4 26/26/4
f 29/28/3 31/29/3 30/30/3
f 31/29/3 32/31/3 30/30/3
f 33/32/1 35/33/1 34/30/1
f 35/33/1 36/26/1 34/30/1
f 37/32/2 39/34/2 38/30/2
f 39/34/2 40/35/2 38/30/2
f 41/36/5 43/37/5 42/38/5
f 43/37/5 44/39/5 42/38/5
f 45/40/6 47/41/6 46/42/6
f 47/41/6 48/43/6 46/42/6
f 49/44/1 51/45/1 50/44/1
f 51/45/1 52/45/1 50/44/1
f 53/44/2 55/45/2 54/44/2
f 55/45/2 56/45/2 54/44/2
f 57/46/3 59/46/3 58/44/3
f 59/46/3 60/44/3 58/44/3
f 61/46/4 63/46/4 62/44/4
f 63/46/4 64/44/4 62/44/4
f 65/47/5 67/48/5 66/49/5
f 67/48/5 68/50/5 66/49/5
f 69/35/6 71/16/6 70/51/6
f 71/16/6 72/52/6 70/51/6
f 73/44/7 75/45/7 74/44/7
f 75/45/7 76/45/7 74/44/7
f 77/44/8 79/45/8 78/44/8
f 79/45/8 80/45/8 78/44/8
f 81/46/9 83/46/9 82/44/9
f 83/46/9 84/44/9 82/44/9
f 85/46/10 87/46/10 86/44/10
f 87/46/10 88/44/10 86/44/10
f 89/53/5 91/20/5 90/54/5
f 91/20/5 92/55/5 90/54/5
f 93/51/6 95/52/6 94/56/6
f 95/52/6 96/57/6 94/56/6
f 97/54/1 99/58/1 98/59/1
f 99/58/1 100/60/1 98/59/1
f 101/61/2 103/62/2 102/63/2
f 103/62/2 104/64/2 102/63/2
f 105/65/3 107/66/3 106/67/3
f 107/66/3 108/55/3 106/67/3
f 109/68/4 111/69/4 110/63/4
f 111/69/4 112/64/4 110/63/4
f 113/58/5 115/55/5 114/60/5
f 115/55/5 116/66/5 114/60/5
f 117/48/6 119/70/6 118/53/6
f 119/70/6 120/56/6 118/53/6
f 121/44/7 123/71/7 122/72/7
f 123/71/7 124/73/7 122/72/7
f 125/45/8 127/74/8 126/75/8
f 127/74/8 128/76/8 126/75/8
f 129/77/9 131/78/9 130/79/9
f 131/78/9 132/80/9 130/79/9
f 133/81/10 135/82/10 134/83/10
f 135/82/10 136/84/10 134/83/10
f 137/52/5 139/85/5 138/86/5
f 139/85/5 140/87/5 138/86/5
f 141/49/6 143/88/6 142/89/6
f 143/88/6 144/90/6 142/89/6
