# Blender 5.1.0
# www.blender.org
mtllib lev.vog25m.mtl
o bulletModel
v 0.061600 0.061477 0.061477
v 0.246092 0.061477 0.061477
v 0.061600 -0.061477 0.061477
v 0.246092 -0.061477 0.061477
v 0.246092 0.061477 -0.061477
v 0.061600 0.061477 -0.061477
v 0.246092 -0.061477 -0.061477
v 0.061600 -0.061477 -0.061477
v 0.246092 0.061477 -0.061477
v 0.246092 0.061477 0.061477
v 0.061600 0.061477 -0.061477
v 0.061600 0.061477 0.061477
v 0.061600 -0.061477 -0.061477
v 0.061600 -0.061477 0.061477
v 0.246092 -0.061477 -0.061477
v 0.246092 -0.061477 0.061477
v 0.061600 0.061477 -0.061477
v 0.061600 0.061477 0.061477
v 0.061600 -0.061477 -0.061477
v 0.061600 -0.061477 0.061477
v 0.246092 0.061477 0.061477
v 0.246092 0.061477 -0.061477
v 0.246092 -0.061477 0.061477
v 0.246092 -0.061477 -0.061477
v 0.000062 -0.000000 0.043427
v 0.061477 -0.000000 0.043427
v 0.000062 -0.043427 -0.000000
v 0.061477 -0.043427 -0.000000
v 0.061477 0.043427 0.000000
v 0.000062 0.043427 0.000000
v 0.061477 0.000000 -0.043427
v 0.000062 0.000000 -0.043427
v 0.061477 0.043427 0.000000
v 0.061477 -0.000000 0.043427
v 0.000062 0.043427 0.000000
v 0.000062 -0.000000 0.043427
v 0.000062 0.000000 -0.043427
v 0.000062 -0.043427 -0.000000
v 0.061477 0.000000 -0.043427
v 0.061477 -0.043427 -0.000000
v 0.000062 0.043427 0.000000
v 0.000062 -0.000000 0.043427
v 0.000062 0.000000 -0.043427
v 0.000062 -0.043427 -0.000000
v 0.061477 -0.000000 0.043427
v 0.061477 0.043427 0.000000
v 0.061477 -0.043427 -0.000000
v 0.061477 0.000000 -0.043427
v 0.230831 0.046092 0.046092
v 0.323015 0.046092 0.046092
v 0.230831 -0.046092 0.046092
v 0.323015 -0.046092 0.046092
v 0.323015 0.046092 -0.046092
v 0.230831 0.046092 -0.046092
v 0.323015 -0.046092 -0.046092
v 0.230831 -0.046092 -0.046092
v 0.323015 0.046092 -0.046092
v 0.323015 0.046092 0.046092
v 0.230831 0.046092 -0.046092
v 0.230831 0.046092 0.046092
v 0.230831 -0.046092 -0.046092
v 0.230831 -0.046092 0.046092
v 0.323015 -0.046092 -0.046092
v 0.323015 -0.046092 0.046092
v 0.230831 0.046092 -0.046092
v 0.230831 0.046092 0.046092
v 0.230831 -0.046092 -0.046092
v 0.230831 -0.046092 0.046092
v 0.323015 0.046092 0.046092
v 0.323015 0.046092 -0.046092
v 0.323015 -0.046092 0.046092
v 0.323015 -0.046092 -0.046092
vn -0.0000 -0.0000 1.0000
vn -0.0000 -0.0000 -1.0000
vn -0.0000 1.0000 -0.0000
vn -0.0000 -1.0000 -0.0000
vn -1.0000 -0.0000 -0.0000
vn 1.0000 -0.0000 -0.0000
vn -0.0000 -0.7071 0.7071
vn -0.0000 0.7071 -0.7071
vn -0.0000 0.7071 0.7071
vn -0.0000 -0.7071 -0.7071
vt 0.000000 1.000000
vt 0.000000 0.750000
vt 0.375000 1.000000
vt 0.375000 0.750000
vt 0.000000 0.500000
vt 0.375000 0.500000
vt 0.625000 0.625000
vt 0.625000 1.000000
vt 0.375000 0.625000
vt 0.625000 0.250000
vt 0.375000 0.250000
vt 0.625000 0.750000
vt 0.875000 1.000000
vt 0.875000 0.750000
vt 0.000000 0.250000
vt 0.250000 0.500000
vt 0.250000 0.250000
vt 0.250000 0.375000
vt 0.375000 0.375000
vt 0.875000 0.875000
vt 1.000000 0.875000
vt 1.000000 0.750000
vt 1.000000 0.625000
vt 0.875000 0.625000
vt 1.000000 0.500000
vt 0.875000 0.500000
vt 1.000000 1.000000
vt 0.625000 0.500000
vt 0.625000 0.312500
vt 0.812500 0.500000
vt 0.812500 0.312500
vt 0.250000 0.062500
vt 0.437500 0.250000
vt 0.437500 0.062500
vt 0.687500 0.062500
vt 0.687500 0.250000
vt 0.500000 0.062500
vt 0.500000 0.250000
vt 0.937500 0.250000
vt 0.937500 0.062500
vt 0.750000 0.250000
vt 0.750000 0.062500
vt 0.000000 0.062500
vt 0.187500 0.250000
vt 0.187500 0.062500
vt 0.625000 0.562500
vt 0.812500 0.750000
vt 0.812500 0.562500
s 0
usemtl Material_0.001
f 1/1/1 3/2/1 2/3/1
f 3/2/1 4/4/1 2/3/1
f 5/2/2 7/5/2 6/4/2
f 7/5/2 8/6/2 6/4/2
f 9/7/3 11/8/3 10/9/3
f 11/8/3 12/3/3 10/9/3
f 13/7/4 15/10/4 14/9/4
f 15/10/4 16/11/4 14/9/4
f 17/8/5 19/12/5 18/13/5
f 19/12/5 20/14/5 18/13/5
f 21/5/6 23/15/6 22/16/6
f 23/15/6 24/17/6 22/16/6
f 25/18/7 27/17/7 26/19/7
f 27/17/7 28/11/7 26/19/7
f 29/20/8 31/14/8 30/21/8
f 31/14/8 32/22/8 30/21/8
f 33/23/9 35/22/9 34/24/9
f 35/22/9 36/14/9 34/24/9
f 37/23/10 39/25/10 38/24/10
f 39/25/10 40/26/10 38/24/10
f 41/13/5 43/20/5 42/27/5
f 43/20/5 44/21/5 42/27/5
f 45/16/6 47/18/6 46/6/6
f 47/18/6 48/19/6 46/6/6
f 49/28/1 51/29/1 50/30/1
f 51/29/1 52/31/1 50/30/1
f 53/17/2 55/32/2 54/33/2
f 55/32/2 56/34/2 54/33/2
f 57/35/3 59/36/3 58/37/3
f 59/36/3 60/38/3 58/37/3
f 61/39/4 63/40/4 62/41/4
f 63/40/4 64/42/4 62/41/4
f 65/15/5 67/43/5 66/44/5
f 67/43/5 68/45/5 66/44/5
f 69/12/6 71/46/6 70/47/6
f 71/46/6 72/48/6 70/47/6
