# Blender 5.1.2
# www.blender.org
mtllib lev.pg7vl.mtl
o bulletModel
v 0.000000 0.056538 0.056538
v 0.075385 0.056538 0.056538
v 0.000000 -0.056538 0.056538
v 0.075385 -0.056538 0.056538
v 0.075385 0.056538 -0.056538
v -0.000000 0.056538 -0.056538
v 0.075385 -0.056538 -0.056538
v -0.000000 -0.056538 -0.056538
v 0.075385 0.056538 -0.056538
v 0.075385 0.056538 0.056538
v -0.000000 0.056538 -0.056538
v 0.000000 0.056538 0.056538
v -0.000000 -0.056538 -0.056538
v 0.000000 -0.056538 0.056538
v 0.075385 -0.056538 -0.056538
v 0.075385 -0.056538 0.056538
v -0.000000 0.056538 -0.056538
v 0.000000 0.056538 0.056538
v -0.000000 -0.056538 -0.056538
v 0.000000 -0.056538 0.056538
v 0.075385 0.056538 0.056538
v 0.075385 0.056538 -0.056538
v 0.075385 -0.056538 0.056538
v 0.075385 -0.056538 -0.056538
v 0.207308 -0.000000 0.133262
v 0.508846 -0.000000 0.133262
v 0.207308 -0.133262 -0.000000
v 0.508846 -0.133262 -0.000000
v 0.508846 0.133262 0.000000
v 0.207308 0.133262 0.000000
v 0.508846 0.000000 -0.133262
v 0.207308 0.000000 -0.133262
v 0.508846 0.133262 0.000000
v 0.508846 -0.000000 0.133262
v 0.207308 0.133262 0.000000
v 0.207308 -0.000000 0.133262
v 0.207308 0.000000 -0.133262
v 0.207308 -0.133262 -0.000000
v 0.508846 0.000000 -0.133262
v 0.508846 -0.133262 -0.000000
v 0.207308 0.133262 0.000000
v 0.207308 -0.000000 0.133262
v 0.207308 0.000000 -0.133262
v 0.207308 -0.133262 -0.000000
v 0.508846 -0.000000 0.133262
v 0.508846 0.133262 0.000000
v 0.508846 -0.133262 -0.000000
v 0.508846 0.000000 -0.133262
v -0.000075 0.075385 0.075385
v 0.000000 0.075385 0.075385
v -0.000075 -0.075385 0.075385
v 0.000000 -0.075385 0.075385
v -0.000000 0.075385 -0.075385
v -0.000075 0.075385 -0.075385
v -0.000000 -0.075385 -0.075385
v -0.000075 -0.075385 -0.075385
v -0.000000 0.075385 -0.075385
v 0.000000 0.075385 0.075385
v -0.000075 0.075385 -0.075385
v -0.000075 0.075385 0.075385
v -0.000075 -0.075385 -0.075385
v -0.000075 -0.075385 0.075385
v -0.000000 -0.075385 -0.075385
v 0.000000 -0.075385 0.075385
v -0.000075 0.075385 -0.075385
v -0.000075 0.075385 0.075385
v -0.000075 -0.075385 -0.075385
v -0.000075 -0.075385 0.075385
v 0.000000 0.075385 0.075385
v -0.000000 0.075385 -0.075385
v 0.000000 -0.075385 0.075385
v -0.000000 -0.075385 -0.075385
v -0.000075 0.106610 -0.000000
v -0.000000 0.106610 -0.000000
v -0.000075 0.000000 0.106610
v 0.000000 0.000000 0.106610
v -0.000000 -0.000000 -0.106610
v -0.000075 -0.000000 -0.106610
v 0.000000 -0.106610 0.000000
v -0.000075 -0.106610 0.000000
v -0.000000 -0.000000 -0.106610
v -0.000000 0.106610 -0.000000
v -0.000075 -0.000000 -0.106610
v -0.000075 0.106610 -0.000000
v -0.000075 -0.106610 0.000000
v -0.000075 0.000000 0.106610
v 0.000000 -0.106610 0.000000
v 0.000000 0.000000 0.106610
v -0.000075 -0.000000 -0.106610
v -0.000075 0.106610 -0.000000
v -0.000075 -0.106610 0.000000
v -0.000075 0.000000 0.106610
v -0.000000 0.106610 -0.000000
v -0.000000 -0.000000 -0.106610
v 0.000000 0.000000 0.106610
v 0.000000 -0.106610 0.000000
v 0.674692 0.037692 0.037692
v 0.750077 0.037692 0.037692
v 0.674692 -0.037692 0.037692
v 0.750077 -0.037692 0.037692
v 0.750077 0.037692 -0.037692
v 0.674692 0.037692 -0.037692
v 0.750077 -0.037692 -0.037692
v 0.674692 -0.037692 -0.037692
v 0.750077 0.037692 -0.037692
v 0.750077 0.037692 0.037692
v 0.674692 0.037692 -0.037692
v 0.674692 0.037692 0.037692
v 0.674692 -0.037692 -0.037692
v 0.674692 -0.037692 0.037692
v 0.750077 -0.037692 -0.037692
v 0.750077 -0.037692 0.037692
v 0.674692 0.037692 -0.037692
v 0.674692 0.037692 0.037692
v 0.674692 -0.037692 -0.037692
v 0.674692 -0.037692 0.037692
v 0.750077 0.037692 0.037692
v 0.750077 0.037692 -0.037692
v 0.750077 -0.037692 0.037692
v 0.750077 -0.037692 -0.037692
v -0.825461 0.074627 0.000000
v 0.674692 0.074627 -0.000000
v -0.825461 0.000000 0.074627
v 0.674692 0.000000 0.074627
v 0.674692 -0.000000 -0.074627
v -0.825461 -0.000000 -0.074627
v 0.674692 -0.074627 -0.000000
v -0.825461 -0.074627 0.000000
v 0.674692 -0.000000 -0.074627
v 0.674692 0.074627 -0.000000
v -0.825461 -0.000000 -0.074627
v -0.825461 0.074627 0.000000
v -0.825461 -0.074627 0.000000
v -0.825461 0.000000 0.074627
v 0.674692 -0.074627 -0.000000
v 0.674692 0.000000 0.074627
v -0.825461 -0.000000 -0.074627
v -0.825461 0.074627 0.000000
v -0.825461 -0.074627 0.000000
v -0.825461 0.000000 0.074627
v 0.674692 0.074627 -0.000000
v 0.674692 -0.000000 -0.074627
v 0.674692 0.000000 0.074627
v 0.674692 -0.074627 -0.000000
vn -0.0000 -0.0000 1.0000
vn -0.0000 -0.0000 -1.0000
vn -0.0000 1.0000 -0.0000
vn -0.0000 -1.0000 -0.0000
vn -1.0000 -0.0000 -0.0000
vn 1.0000 -0.0000 -0.0000
vn -0.0000 -0.7071 0.7071
vn -0.0000 0.7071 -0.7071
vn -0.0000 0.7071 0.7071
vn -0.0000 -0.7071 -0.7071
vt 0.218750 0.671875
vt 0.218750 0.625000
vt 0.250000 0.671875
vt 0.250000 0.625000
vt 0.281250 0.609375
vt 0.281250 0.562500
vt 0.312500 0.609375
vt 0.312500 0.562500
vt 0.171875 0.562500
vt 0.171875 0.593750
vt 0.125000 0.562500
vt 0.125000 0.593750
vt 0.468750 0.781250
vt 0.468750 0.750000
vt 0.421875 0.781250
vt 0.421875 0.750000
vt 0.343750 0.703125
vt 0.343750 0.656250
vt 0.390625 0.703125
vt 0.390625 0.656250
vt 0.343750 0.765625
vt 0.343750 0.718750
vt 0.390625 0.765625
vt 0.390625 0.718750
vt 0.125000 0.875000
vt 0.125000 0.796875
vt 0.250000 0.875000
vt 0.250000 0.796875
vt 0.125000 0.781250
vt 0.125000 0.703125
vt 0.250000 0.781250
vt 0.250000 0.703125
vt 0.328125 0.750000
vt 0.328125 0.875000
vt 0.250000 0.750000
vt 0.328125 0.625000
vt 0.343750 0.875000
vt 0.343750 0.796875
vt 0.421875 0.875000
vt 0.421875 0.796875
vt 0.125000 0.687500
vt 0.125000 0.609375
vt 0.203125 0.687500
vt 0.203125 0.609375
vt 0.687500 1.000000
vt 0.687500 0.937500
vt 0.750000 1.000000
vt 0.750000 0.937500
vt 0.187500 0.593750
vt 0.187500 0.562500
vt 0.218750 0.593750
vt 0.218750 0.562500
vt 0.406250 0.718750
vt 0.406250 0.687500
vt 0.437500 0.718750
vt 0.437500 0.687500
vt 0.343750 0.562500
vt 0.343750 0.593750
vt 0.312500 0.593750
vt 0.437500 0.656250
vt 0.406250 0.656250
vt 0.406250 0.750000
vt 0.437500 0.750000
vt 0.312500 0.625000
vt 0.343750 0.625000
vt 0.000000 1.000000
vt 0.000000 0.953125
vt 0.625000 1.000000
vt 0.625000 0.953125
vt 0.000000 0.937500
vt 0.000000 0.890625
vt 0.625000 0.937500
vt 0.625000 0.890625
vt 0.046875 0.218750
vt 0.046875 0.843750
vt 0.000000 0.218750
vt 0.000000 0.843750
vt 0.109375 0.843750
vt 0.109375 0.218750
vt 0.062500 0.843750
vt 0.062500 0.218750
vt 0.218750 0.578125
vt 0.265625 0.625000
vt 0.265625 0.578125
vt 0.343750 0.609375
vt 0.390625 0.609375
s 0
usemtl Material_0.002
f 1/1/1 3/2/1 2/3/1
f 3/2/1 4/4/1 2/3/1
f 5/5/2 7/6/2 6/7/2
f 7/6/2 8/8/2 6/7/2
f 9/9/3 11/10/3 10/11/3
f 11/10/3 12/12/3 10/11/3
f 13/13/4 15/14/4 14/15/4
f 15/14/4 16/16/4 14/15/4
f 17/17/5 19/18/5 18/19/5
f 19/18/5 20/20/5 18/19/5
f 21/21/6 23/22/6 22/23/6
f 23/22/6 24/24/6 22/23/6
f 25/25/7 27/26/7 26/27/7
f 27/26/7 28/28/7 26/27/7
f 29/29/8 31/30/8 30/31/8
f 31/30/8 32/32/8 30/31/8
f 33/33/9 35/34/9 34/35/9
f 35/34/9 36/27/9 34/35/9
f 37/33/10 39/36/10 38/35/10
f 39/36/10 40/4/10 38/35/10
f 41/37/5 43/38/5 42/39/5
f 43/38/5 44/40/5 42/39/5
f 45/41/6 47/42/6 46/43/6
f 47/42/6 48/44/6 46/43/6
f 49/45/1 51/46/1 50/47/1
f 51/46/1 52/48/1 50/47/1
f 53/45/2 55/46/2 54/47/2
f 55/46/2 56/48/2 54/47/2
f 57/45/3 59/46/3 58/47/3
f 59/46/3 60/48/3 58/47/3
f 61/45/4 63/46/4 62/47/4
f 63/46/4 64/48/4 62/47/4
f 65/47/5 67/48/5 66/45/5
f 67/48/5 68/46/5 66/45/5
f 69/45/6 71/46/6 70/47/6
f 71/46/6 72/48/6 70/47/6
f 73/45/9 75/46/9 74/47/9
f 75/46/9 76/48/9 74/47/9
f 77/45/10 79/46/10 78/47/10
f 79/46/10 80/48/10 78/47/10
f 81/45/8 83/46/8 82/47/8
f 83/46/8 84/48/8 82/47/8
f 85/45/7 87/46/7 86/47/7
f 87/46/7 88/48/7 86/47/7
f 89/47/5 91/48/5 90/45/5
f 91/48/5 92/46/5 90/45/5
f 93/45/6 95/46/6 94/47/6
f 95/46/6 96/48/6 94/47/6
f 97/49/1 99/50/1 98/51/1
f 99/50/1 100/52/1 98/51/1
f 101/53/2 103/54/2 102/55/2
f 103/54/2 104/56/2 102/55/2
f 105/57/3 107/58/3 106/8/3
f 107/58/3 108/59/3 106/8/3
f 109/56/4 111/60/4 110/54/4
f 111/60/4 112/61/4 110/54/4
f 113/62/5 115/53/5 114/63/5
f 115/53/5 116/55/5 114/63/5
f 117/64/6 119/59/6 118/65/6
f 119/59/6 120/58/6 118/65/6
f 121/66/9 123/67/9 122/68/9
f 123/67/9 124/69/9 122/68/9
f 125/70/10 127/71/10 126/72/10
f 127/71/10 128/73/10 126/72/10
f 129/74/8 131/75/8 130/76/8
f 131/75/8 132/77/8 130/76/8
f 133/78/7 135/79/7 134/80/7
f 135/79/7 136/81/7 134/80/7
f 137/2/5 139/82/5 138/83/5
f 139/82/5 140/84/5 138/83/5
f 141/18/6 143/85/6 142/20/6
f 143/85/6 144/86/6 142/20/6
