# Blender 4.4.3
# www.blender.org
mtllib lev.shovel.mtl
o bulletModel
v 0.538808 0.038184 0.027000
v 0.538808 0.038184 -0.027000
v 0.347889 -0.152735 0.027000
v 0.347889 -0.152735 -0.027000
v 0.424257 0.152735 -0.027000
v 0.424257 0.152735 0.027000
v 0.233338 -0.038184 -0.027000
v 0.233338 -0.038184 0.027000
v 0.424257 0.152735 -0.027000
v 0.538808 0.038184 -0.027000
v 0.424257 0.152735 0.027000
v 0.538808 0.038184 0.027000
v 0.233338 -0.038184 0.027000
v 0.347889 -0.152735 0.027000
v 0.233338 -0.038184 -0.027000
v 0.347889 -0.152735 -0.027000
v 0.424257 0.152735 0.027000
v 0.538808 0.038184 0.027000
v 0.233338 -0.038184 0.027000
v 0.347889 -0.152735 0.027000
v 0.538808 0.038184 -0.027000
v 0.424257 0.152735 -0.027000
v 0.347889 -0.152735 -0.027000
v 0.233338 -0.038184 -0.027000
v 0.386073 0.114551 0.027000
v 0.386073 0.114551 -0.027000
v 0.195154 -0.076368 0.027000
v 0.195154 -0.076368 -0.027000
v 0.347889 0.152735 -0.027000
v 0.347889 0.152735 0.027000
v 0.156970 -0.038184 -0.027000
v 0.156970 -0.038184 0.027000
v 0.347889 0.152735 -0.027000
v 0.386073 0.114551 -0.027000
v 0.347889 0.152735 0.027000
v 0.386073 0.114551 0.027000
v 0.156970 -0.038184 0.027000
v 0.195154 -0.076368 0.027000
v 0.156970 -0.038184 -0.027000
v 0.195154 -0.076368 -0.027000
v 0.347889 0.152735 0.027000
v 0.386073 0.114551 0.027000
v 0.156970 -0.038184 0.027000
v 0.195154 -0.076368 0.027000
v 0.386073 0.114551 -0.027000
v 0.347889 0.152735 -0.027000
v 0.195154 -0.076368 -0.027000
v 0.156970 -0.038184 -0.027000
v 0.538808 -0.038184 0.027000
v 0.538808 -0.038184 -0.027000
v 0.424257 -0.152735 0.027000
v 0.424257 -0.152735 -0.027000
v 0.500624 -0.000000 -0.027000
v 0.500624 -0.000000 0.027000
v 0.386073 -0.114551 -0.027000
v 0.386073 -0.114551 0.027000
v 0.500624 -0.000000 -0.027000
v 0.538808 -0.038184 -0.027000
v 0.500624 -0.000000 0.027000
v 0.538808 -0.038184 0.027000
v 0.386073 -0.114551 0.027000
v 0.424257 -0.152735 0.027000
v 0.386073 -0.114551 -0.027000
v 0.424257 -0.152735 -0.027000
v 0.500624 -0.000000 0.027000
v 0.538808 -0.038184 0.027000
v 0.386073 -0.114551 0.027000
v 0.424257 -0.152735 0.027000
v 0.538808 -0.038184 -0.027000
v 0.500624 -0.000000 -0.027000
v 0.424257 -0.152735 -0.027000
v 0.386073 -0.114551 -0.027000
v 0.309705 0.114551 0.027000
v 0.309705 0.114551 -0.027000
v 0.118786 -0.076368 0.027000
v 0.118786 -0.076368 -0.027000
v 0.271521 0.152735 -0.027000
v 0.271521 0.152735 0.027000
v 0.080603 -0.038184 -0.027000
v 0.080603 -0.038184 0.027000
v 0.271521 0.152735 -0.027000
v 0.309705 0.114551 -0.027000
v 0.271521 0.152735 0.027000
v 0.309705 0.114551 0.027000
v 0.080603 -0.038184 0.027000
v 0.118786 -0.076368 0.027000
v 0.080603 -0.038184 -0.027000
v 0.118786 -0.076368 -0.027000
v 0.271521 0.152735 0.027000
v 0.309705 0.114551 0.027000
v 0.080603 -0.038184 0.027000
v 0.118786 -0.076368 0.027000
v 0.309705 0.114551 -0.027000
v 0.271521 0.152735 -0.027000
v 0.118786 -0.076368 -0.027000
v 0.080603 -0.038184 -0.027000
v 0.233338 0.114551 0.027000
v 0.233338 0.114551 -0.027000
v 0.195154 0.076367 0.027000
v 0.195154 0.076367 -0.027000
v 0.195154 0.152735 -0.027000
v 0.195154 0.152735 0.027000
v 0.156970 0.114551 -0.027000
v 0.156970 0.114551 0.027000
v 0.195154 0.152735 -0.027000
v 0.233338 0.114551 -0.027000
v 0.195154 0.152735 0.027000
v 0.233338 0.114551 0.027000
v 0.156970 0.114551 0.027000
v 0.195154 0.076367 0.027000
v 0.156970 0.114551 -0.027000
v 0.195154 0.076367 -0.027000
v 0.195154 0.152735 0.027000
v 0.233338 0.114551 0.027000
v 0.156970 0.114551 0.027000
v 0.195154 0.076367 0.027000
v 0.233338 0.114551 -0.027000
v 0.195154 0.152735 -0.027000
v 0.195154 0.076367 -0.027000
v 0.156970 0.114551 -0.027000
v 0.156970 0.038184 0.027000
v 0.156970 0.038184 -0.027000
v 0.042419 -0.076368 0.027000
v 0.042419 -0.076368 -0.027000
v 0.118786 0.076368 -0.027000
v 0.118786 0.076368 0.027000
v 0.004235 -0.038184 -0.027000
v 0.004235 -0.038184 0.027000
v 0.118786 0.076368 -0.027000
v 0.156970 0.038184 -0.027000
v 0.118786 0.076368 0.027000
v 0.156970 0.038184 0.027000
v 0.004235 -0.038184 0.027000
v 0.042419 -0.076368 0.027000
v 0.004235 -0.038184 -0.027000
v 0.042419 -0.076368 -0.027000
v 0.118786 0.076368 0.027000
v 0.156970 0.038184 0.027000
v 0.004235 -0.038184 0.027000
v 0.042419 -0.076368 0.027000
v 0.156970 0.038184 -0.027000
v 0.118786 0.076368 -0.027000
v 0.042419 -0.076368 -0.027000
v 0.004235 -0.038184 -0.027000
v 0.309705 -0.114551 0.027000
v 0.309705 -0.114551 -0.027000
v 0.271521 -0.152735 0.027000
v 0.271521 -0.152735 -0.027000
v 0.233338 -0.038184 -0.027000
v 0.233338 -0.038184 0.027000
v 0.195154 -0.076368 -0.027000
v 0.195154 -0.076368 0.027000
v 0.233338 -0.038184 -0.027000
v 0.309705 -0.114551 -0.027000
v 0.233338 -0.038184 0.027000
v 0.309705 -0.114551 0.027000
v 0.195154 -0.076368 0.027000
v 0.271521 -0.152735 0.027000
v 0.195154 -0.076368 -0.027000
v 0.271521 -0.152735 -0.027000
v 0.233338 -0.038184 0.027000
v 0.309705 -0.114551 0.027000
v 0.195154 -0.076368 0.027000
v 0.271521 -0.152735 0.027000
v 0.309705 -0.114551 -0.027000
v 0.233338 -0.038184 -0.027000
v 0.271521 -0.152735 -0.027000
v 0.195154 -0.076368 -0.027000
v 0.080603 0.038184 0.027000
v 0.080603 0.038184 -0.027000
v -0.033949 -0.076368 0.027000
v -0.033949 -0.076368 -0.027000
v 0.042419 0.076368 -0.027000
v 0.042419 0.076368 0.027000
v -0.072132 -0.038184 -0.027000
v -0.072132 -0.038184 0.027000
v 0.042419 0.076368 -0.027000
v 0.080603 0.038184 -0.027000
v 0.042419 0.076368 0.027000
v 0.080603 0.038184 0.027000
v -0.072132 -0.038184 0.027000
v -0.033949 -0.076368 0.027000
v -0.072132 -0.038184 -0.027000
v -0.033949 -0.076368 -0.027000
v 0.042419 0.076368 0.027000
v 0.080603 0.038184 0.027000
v -0.072132 -0.038184 0.027000
v -0.033949 -0.076368 0.027000
v 0.080603 0.038184 -0.027000
v 0.042419 0.076368 -0.027000
v -0.033949 -0.076368 -0.027000
v -0.072132 -0.038184 -0.027000
v 0.233338 -0.114551 0.027000
v 0.233338 -0.114551 -0.027000
v 0.195154 -0.152735 0.027000
v 0.195154 -0.152735 -0.027000
v 0.195154 -0.076368 -0.027000
v 0.195154 -0.076368 0.027000
v 0.156970 -0.114551 -0.027000
v 0.156970 -0.114551 0.027000
v 0.195154 -0.076368 -0.027000
v 0.233338 -0.114551 -0.027000
v 0.195154 -0.076368 0.027000
v 0.233338 -0.114551 0.027000
v 0.156970 -0.114551 0.027000
v 0.195154 -0.152735 0.027000
v 0.156970 -0.114551 -0.027000
v 0.195154 -0.152735 -0.027000
v 0.195154 -0.076368 0.027000
v 0.233338 -0.114551 0.027000
v 0.156970 -0.114551 0.027000
v 0.195154 -0.152735 0.027000
v 0.233338 -0.114551 -0.027000
v 0.195154 -0.076368 -0.027000
v 0.195154 -0.152735 -0.027000
v 0.156970 -0.114551 -0.027000
v 0.004235 0.038184 0.027000
v 0.004235 0.038184 -0.027000
v -0.110316 -0.076368 0.027000
v -0.110316 -0.076368 -0.027000
v -0.033949 0.076368 -0.027000
v -0.033949 0.076368 0.027000
v -0.148500 -0.038184 -0.027000
v -0.148500 -0.038184 0.027000
v -0.033949 0.076368 -0.027000
v 0.004235 0.038184 -0.027000
v -0.033949 0.076368 0.027000
v 0.004235 0.038184 0.027000
v -0.148500 -0.038184 0.027000
v -0.110316 -0.076368 0.027000
v -0.148500 -0.038184 -0.027000
v -0.110316 -0.076368 -0.027000
v -0.033949 0.076368 0.027000
v 0.004235 0.038184 0.027000
v -0.148500 -0.038184 0.027000
v -0.110316 -0.076368 0.027000
v 0.004235 0.038184 -0.027000
v -0.033949 0.076368 -0.027000
v -0.110316 -0.076368 -0.027000
v -0.148500 -0.038184 -0.027000
v -0.072132 0.038184 0.027000
v -0.072132 0.038184 -0.027000
v -0.186684 -0.076368 0.027000
v -0.186684 -0.076368 -0.027000
v -0.110316 0.076368 -0.027000
v -0.110316 0.076368 0.027000
v -0.224868 -0.038184 -0.027000
v -0.224868 -0.038184 0.027000
v -0.110316 0.076368 -0.027000
v -0.072132 0.038184 -0.027000
v -0.110316 0.076368 0.027000
v -0.072132 0.038184 0.027000
v -0.224868 -0.038184 0.027000
v -0.186684 -0.076368 0.027000
v -0.224868 -0.038184 -0.027000
v -0.186684 -0.076368 -0.027000
v -0.110316 0.076368 0.027000
v -0.072132 0.038184 0.027000
v -0.224868 -0.038184 0.027000
v -0.186684 -0.076368 0.027000
v -0.072132 0.038184 -0.027000
v -0.110316 0.076368 -0.027000
v -0.186684 -0.076368 -0.027000
v -0.224868 -0.038184 -0.027000
v -0.148500 0.038184 0.027000
v -0.148500 0.038184 -0.027000
v -0.263051 -0.076367 0.027000
v -0.263051 -0.076367 -0.027000
v -0.186684 0.076368 -0.027000
v -0.186684 0.076368 0.027000
v -0.301235 -0.038184 -0.027000
v -0.301235 -0.038184 0.027000
v -0.186684 0.076368 -0.027000
v -0.148500 0.038184 -0.027000
v -0.186684 0.076368 0.027000
v -0.148500 0.038184 0.027000
v -0.301235 -0.038184 0.027000
v -0.263051 -0.076367 0.027000
v -0.301235 -0.038184 -0.027000
v -0.263051 -0.076367 -0.027000
v -0.186684 0.076368 0.027000
v -0.148500 0.038184 0.027000
v -0.301235 -0.038184 0.027000
v -0.263051 -0.076367 0.027000
v -0.148500 0.038184 -0.027000
v -0.186684 0.076368 -0.027000
v -0.263051 -0.076367 -0.027000
v -0.301235 -0.038184 -0.027000
v -0.224868 0.038184 0.027000
v -0.224868 0.038184 -0.027000
v -0.339419 -0.076367 0.027000
v -0.339419 -0.076367 -0.027000
v -0.263051 0.076368 -0.027000
v -0.263051 0.076368 0.027000
v -0.377603 -0.038184 -0.027000
v -0.377603 -0.038184 0.027000
v -0.263051 0.076368 -0.027000
v -0.224868 0.038184 -0.027000
v -0.263051 0.076368 0.027000
v -0.224868 0.038184 0.027000
v -0.377603 -0.038184 0.027000
v -0.339419 -0.076367 0.027000
v -0.377603 -0.038184 -0.027000
v -0.339419 -0.076367 -0.027000
v -0.263051 0.076368 0.027000
v -0.224868 0.038184 0.027000
v -0.377603 -0.038184 0.027000
v -0.339419 -0.076367 0.027000
v -0.224868 0.038184 -0.027000
v -0.263051 0.076368 -0.027000
v -0.339419 -0.076367 -0.027000
v -0.377603 -0.038184 -0.027000
v -0.301235 0.038184 0.027000
v -0.301235 0.038184 -0.027000
v -0.415786 -0.076367 0.027000
v -0.415786 -0.076367 -0.027000
v -0.339419 0.076368 -0.027000
v -0.339419 0.076368 0.027000
v -0.453970 -0.038184 -0.027000
v -0.453970 -0.038184 0.027000
v -0.339419 0.076368 -0.027000
v -0.301235 0.038184 -0.027000
v -0.339419 0.076368 0.027000
v -0.301235 0.038184 0.027000
v -0.453970 -0.038184 0.027000
v -0.415786 -0.076367 0.027000
v -0.453970 -0.038184 -0.027000
v -0.415786 -0.076367 -0.027000
v -0.339419 0.076368 0.027000
v -0.301235 0.038184 0.027000
v -0.453970 -0.038184 0.027000
v -0.415786 -0.076367 0.027000
v -0.301235 0.038184 -0.027000
v -0.339419 0.076368 -0.027000
v -0.415786 -0.076367 -0.027000
v -0.453970 -0.038184 -0.027000
v -0.377603 0.038184 0.027000
v -0.377603 0.038184 -0.027000
v -0.492154 -0.076367 0.027000
v -0.492154 -0.076367 -0.027000
v -0.415786 0.076368 -0.027000
v -0.415786 0.076368 0.027000
v -0.530338 -0.038184 -0.027000
v -0.530338 -0.038184 0.027000
v -0.415786 0.076368 -0.027000
v -0.377603 0.038184 -0.027000
v -0.415786 0.076368 0.027000
v -0.377603 0.038184 0.027000
v -0.530338 -0.038184 0.027000
v -0.492154 -0.076367 0.027000
v -0.530338 -0.038184 -0.027000
v -0.492154 -0.076367 -0.027000
v -0.415786 0.076368 0.027000
v -0.377603 0.038184 0.027000
v -0.530338 -0.038184 0.027000
v -0.492154 -0.076367 0.027000
v -0.377603 0.038184 -0.027000
v -0.415786 0.076368 -0.027000
v -0.492154 -0.076367 -0.027000
v -0.530338 -0.038184 -0.027000
v -0.453970 0.038184 0.027000
v -0.453970 0.038184 -0.027000
v -0.568521 -0.076367 0.027000
v -0.568521 -0.076367 -0.027000
v -0.492154 0.076368 -0.027000
v -0.492154 0.076368 0.027000
v -0.606705 -0.038184 -0.027000
v -0.606705 -0.038184 0.027000
v -0.492154 0.076368 -0.027000
v -0.453970 0.038184 -0.027000
v -0.492154 0.076368 0.027000
v -0.453970 0.038184 0.027000
v -0.606705 -0.038184 0.027000
v -0.568521 -0.076367 0.027000
v -0.606705 -0.038184 -0.027000
v -0.568521 -0.076367 -0.027000
v -0.492154 0.076368 0.027000
v -0.453970 0.038184 0.027000
v -0.606705 -0.038184 0.027000
v -0.568521 -0.076367 0.027000
v -0.453970 0.038184 -0.027000
v -0.492154 0.076368 -0.027000
v -0.568521 -0.076367 -0.027000
v -0.606705 -0.038184 -0.027000
v -0.530338 0.038184 0.027000
v -0.530338 0.038184 -0.027000
v -0.568521 0.000000 0.027000
v -0.568521 0.000000 -0.027000
v -0.568521 0.076368 -0.027000
v -0.568521 0.076368 0.027000
v -0.606705 0.038184 -0.027000
v -0.606705 0.038184 0.027000
v -0.568521 0.076368 -0.027000
v -0.530338 0.038184 -0.027000
v -0.568521 0.076368 0.027000
v -0.530338 0.038184 0.027000
v -0.606705 0.038184 0.027000
v -0.568521 0.000000 0.027000
v -0.606705 0.038184 -0.027000
v -0.568521 0.000000 -0.027000
v -0.568521 0.076368 0.027000
v -0.530338 0.038184 0.027000
v -0.606705 0.038184 0.027000
v -0.568521 0.000000 0.027000
v -0.530338 0.038184 -0.027000
v -0.568521 0.076368 -0.027000
v -0.568521 0.000000 -0.027000
v -0.606705 0.038184 -0.027000
vn 0.7071 -0.7071 -0.0000
vn -0.7071 0.7071 -0.0000
vn 0.7071 0.7071 -0.0000
vn -0.7071 -0.7071 -0.0000
vn -0.0000 -0.0000 1.0000
vn -0.0000 -0.0000 -1.0000
vt 0.875000 1.000000
vt 0.875000 0.687500
vt 0.937500 1.000000
vt 0.937500 0.687500
vt 0.750000 1.000000
vt 0.750000 0.687500
vt 0.812500 1.000000
vt 0.812500 0.687500
vt 0.750000 0.937500
vt 0.937500 0.937500
vt 0.750000 0.750000
vt 0.937500 0.750000
vt 0.687500 0.937500
vt 0.687500 0.625000
vt 0.750000 0.625000
vt 0.687500 0.875000
vt 0.750000 0.875000
vt 0.687500 0.687500
vt 1.000000 0.937500
vt 1.000000 0.750000
vt 0.937500 0.875000
vt 1.000000 0.875000
vt 0.937500 0.812500
vt 1.000000 0.812500
vt 0.625000 0.875000
vt 0.625000 0.562500
vt 0.687500 0.562500
vt 0.625000 0.812500
vt 0.687500 0.812500
vt 0.625000 0.625000
vt 0.562500 0.812500
vt 0.562500 0.750000
vt 0.625000 0.750000
vt 0.562500 0.687500
vt 0.562500 0.500000
vt 0.625000 0.687500
vt 0.625000 0.500000
vt 0.562500 0.625000
vt 0.562500 0.562500
vt 0.812500 0.625000
vt 0.875000 0.625000
vt 0.500000 0.625000
vt 0.500000 0.437500
vt 0.562500 0.437500
vt 0.500000 0.562500
vt 0.500000 0.500000
vt 0.750000 0.562500
vt 0.812500 0.562500
vt 0.437500 0.562500
vt 0.437500 0.375000
vt 0.500000 0.375000
vt 0.437500 0.500000
vt 0.437500 0.437500
vt 0.375000 0.500000
vt 0.375000 0.312500
vt 0.437500 0.312500
vt 0.375000 0.437500
vt 0.375000 0.375000
vt 0.312500 0.437500
vt 0.312500 0.250000
vt 0.375000 0.250000
vt 0.312500 0.375000
vt 0.312500 0.312500
vt 0.250000 0.375000
vt 0.250000 0.187500
vt 0.312500 0.187500
vt 0.250000 0.312500
vt 0.250000 0.250000
vt 0.187500 0.312500
vt 0.187500 0.125000
vt 0.250000 0.125000
vt 0.187500 0.250000
vt 0.187500 0.187500
vt 0.125000 0.250000
vt 0.125000 0.062500
vt 0.187500 0.062500
vt 0.125000 0.187500
vt 0.125000 0.125000
vt 0.062500 0.187500
vt 0.062500 0.000000
vt 0.125000 0.000000
vt 0.062500 0.125000
vt 0.062500 0.062500
vt 0.000000 0.125000
vt 0.000000 0.062500
s 0
usemtl Material_0.001
f 1/1/1 3/2/1 2/3/1
f 3/2/1 4/4/1 2/3/1
f 5/5/2 7/6/2 6/7/2
f 7/6/2 8/8/2 6/7/2
f 9/5/3 11/9/3 10/3/3
f 11/9/3 12/10/3 10/3/3
f 13/11/4 15/6/4 14/12/4
f 15/6/4 16/4/4 14/12/4
f 17/5/5 19/6/5 18/3/5
f 19/6/5 20/4/5 18/3/5
f 21/3/6 23/4/6 22/5/6
f 23/4/6 24/6/6 22/5/6
f 25/13/1 27/14/1 26/9/1
f 27/14/1 28/15/1 26/9/1
f 29/13/2 31/14/2 30/9/2
f 31/14/2 32/15/2 30/9/2
f 33/13/3 35/16/3 34/9/3
f 35/16/3 36/17/3 34/9/3
f 37/18/4 39/14/4 38/6/4
f 39/14/4 40/15/4 38/6/4
f 41/13/5 43/14/5 42/9/5
f 43/14/5 44/15/5 42/9/5
f 45/9/6 47/15/6 46/13/6
f 47/15/6 48/14/6 46/13/6
f 49/10/1 51/12/1 50/19/1
f 51/12/1 52/20/1 50/19/1
f 53/10/2 55/12/2 54/19/2
f 55/12/2 56/20/2 54/19/2
f 57/10/3 59/21/3 58/19/3
f 59/21/3 60/22/3 58/19/3
f 61/23/4 63/12/4 62/24/4
f 63/12/4 64/20/4 62/24/4
f 65/10/5 67/12/5 66/19/5
f 67/12/5 68/20/5 66/19/5
f 69/19/6 71/20/6 70/10/6
f 71/20/6 72/12/6 70/10/6
f 73/25/1 75/26/1 74/16/1
f 75/26/1 76/27/1 74/16/1
f 77/25/2 79/26/2 78/16/2
f 79/26/2 80/27/2 78/16/2
f 81/25/3 83/28/3 82/16/3
f 83/28/3 84/29/3 82/16/3
f 85/30/4 87/26/4 86/14/4
f 87/26/4 88/27/4 86/14/4
f 89/25/5 91/26/5 90/16/5
f 91/26/5 92/27/5 90/16/5
f 93/16/6 95/27/6 94/25/6
f 95/27/6 96/26/6 94/25/6
f 97/31/1 99/32/1 98/28/1
f 99/32/1 100/33/1 98/28/1
f 101/31/2 103/32/2 102/28/2
f 103/32/2 104/33/2 102/28/2
f 105/31/3 107/32/3 106/28/3
f 107/32/3 108/33/3 106/28/3
f 109/31/4 111/32/4 110/28/4
f 111/32/4 112/33/4 110/28/4
f 113/31/5 115/32/5 114/28/5
f 115/32/5 116/33/5 114/28/5
f 117/28/6 119/33/6 118/31/6
f 119/33/6 120/32/6 118/31/6
f 121/34/1 123/35/1 122/36/1
f 123/35/1 124/37/1 122/36/1
f 125/34/2 127/35/2 126/36/2
f 127/35/2 128/37/2 126/36/2
f 129/34/3 131/38/3 130/36/3
f 131/38/3 132/30/3 130/36/3
f 133/39/4 135/35/4 134/26/4
f 135/35/4 136/37/4 134/26/4
f 137/34/5 139/35/5 138/36/5
f 139/35/5 140/37/5 138/36/5
f 141/36/6 143/37/6 142/34/6
f 143/37/6 144/35/6 142/34/6
f 145/8/1 147/40/1 146/2/1
f 147/40/1 148/41/1 146/2/1
f 149/6/2 151/15/2 150/8/2
f 151/15/2 152/40/2 150/8/2
f 153/6/3 155/15/3 154/2/3
f 155/15/3 156/41/3 154/2/3
f 157/6/4 159/15/4 158/2/4
f 159/15/4 160/41/4 158/2/4
f 161/6/5 163/15/5 162/2/5
f 163/15/5 164/41/5 162/2/5
f 165/2/6 167/41/6 166/6/6
f 167/41/6 168/15/6 166/6/6
f 169/42/1 171/43/1 170/38/1
f 171/43/1 172/44/1 170/38/1
f 173/42/2 175/43/2 174/38/2
f 175/43/2 176/44/2 174/38/2
f 177/42/3 179/45/3 178/38/3
f 179/45/3 180/39/3 178/38/3
f 181/46/4 183/43/4 182/35/4
f 183/43/4 184/44/4 182/35/4
f 185/42/5 187/43/5 186/38/5
f 187/43/5 188/44/5 186/38/5
f 189/38/6 191/44/6 190/42/6
f 191/44/6 192/43/6 190/42/6
f 193/15/1 195/47/1 194/40/1
f 195/47/1 196/48/1 194/40/1
f 197/15/2 199/47/2 198/40/2
f 199/47/2 200/48/2 198/40/2
f 201/15/3 203/47/3 202/40/3
f 203/47/3 204/48/3 202/40/3
f 205/15/4 207/47/4 206/40/4
f 207/47/4 208/48/4 206/40/4
f 209/15/5 211/47/5 210/40/5
f 211/47/5 212/48/5 210/40/5
f 213/40/6 215/48/6 214/15/6
f 215/48/6 216/47/6 214/15/6
f 217/49/1 219/50/1 218/45/1
f 219/50/1 220/51/1 218/45/1
f 221/49/2 223/50/2 222/45/2
f 223/50/2 224/51/2 222/45/2
f 225/49/3 227/52/3 226/45/3
f 227/52/3 228/46/3 226/45/3
f 229/53/4 231/50/4 230/43/4
f 231/50/4 232/51/4 230/43/4
f 233/49/5 235/50/5 234/45/5
f 235/50/5 236/51/5 234/45/5
f 237/45/6 239/51/6 238/49/6
f 239/51/6 240/50/6 238/49/6
f 241/54/1 243/55/1 242/52/1
f 243/55/1 244/56/1 242/52/1
f 245/54/2 247/55/2 246/52/2
f 247/55/2 248/56/2 246/52/2
f 249/54/3 251/57/3 250/52/3
f 251/57/3 252/53/3 250/52/3
f 253/58/4 255/55/4 254/50/4
f 255/55/4 256/56/4 254/50/4
f 257/54/5 259/55/5 258/52/5
f 259/55/5 260/56/5 258/52/5
f 261/52/6 263/56/6 262/54/6
f 263/56/6 264/55/6 262/54/6
f 265/59/1 267/60/1 266/57/1
f 267/60/1 268/61/1 266/57/1
f 269/59/2 271/60/2 270/57/2
f 271/60/2 272/61/2 270/57/2
f 273/59/3 275/62/3 274/57/3
f 275/62/3 276/58/3 274/57/3
f 277/63/4 279/60/4 278/55/4
f 279/60/4 280/61/4 278/55/4
f 281/59/5 283/60/5 282/57/5
f 283/60/5 284/61/5 282/57/5
f 285/57/6 287/61/6 286/59/6
f 287/61/6 288/60/6 286/59/6
f 289/64/1 291/65/1 290/62/1
f 291/65/1 292/66/1 290/62/1
f 293/64/2 295/65/2 294/62/2
f 295/65/2 296/66/2 294/62/2
f 297/64/3 299/67/3 298/62/3
f 299/67/3 300/63/3 298/62/3
f 301/68/4 303/65/4 302/60/4
f 303/65/4 304/66/4 302/60/4
f 305/64/5 307/65/5 306/62/5
f 307/65/5 308/66/5 306/62/5
f 309/62/6 311/66/6 310/64/6
f 311/66/6 312/65/6 310/64/6
f 313/69/1 315/70/1 314/67/1
f 315/70/1 316/71/1 314/67/1
f 317/69/2 319/70/2 318/67/2
f 319/70/2 320/71/2 318/67/2
f 321/69/3 323/72/3 322/67/3
f 323/72/3 324/68/3 322/67/3
f 325/73/4 327/70/4 326/65/4
f 327/70/4 328/71/4 326/65/4
f 329/69/5 331/70/5 330/67/5
f 331/70/5 332/71/5 330/67/5
f 333/67/6 335/71/6 334/69/6
f 335/71/6 336/70/6 334/69/6
f 337/74/1 339/75/1 338/72/1
f 339/75/1 340/76/1 338/72/1
f 341/74/2 343/75/2 342/72/2
f 343/75/2 344/76/2 342/72/2
f 345/74/3 347/77/3 346/72/3
f 347/77/3 348/73/3 346/72/3
f 349/78/4 351/75/4 350/70/4
f 351/75/4 352/76/4 350/70/4
f 353/74/5 355/75/5 354/72/5
f 355/75/5 356/76/5 354/72/5
f 357/72/6 359/76/6 358/74/6
f 359/76/6 360/75/6 358/74/6
f 361/79/1 363/80/1 362/77/1
f 363/80/1 364/81/1 362/77/1
f 365/79/2 367/80/2 366/77/2
f 367/80/2 368/81/2 366/77/2
f 369/79/3 371/82/3 370/77/3
f 371/82/3 372/78/3 370/77/3
f 373/83/4 375/80/4 374/75/4
f 375/80/4 376/81/4 374/75/4
f 377/79/5 379/80/5 378/77/5
f 379/80/5 380/81/5 378/77/5
f 381/77/6 383/81/6 382/79/6
f 383/81/6 384/80/6 382/79/6
f 385/84/1 387/85/1 386/82/1
f 387/85/1 388/83/1 386/82/1
f 389/84/2 391/85/2 390/82/2
f 391/85/2 392/83/2 390/82/2
f 393/84/3 395/85/3 394/82/3
f 395/85/3 396/83/3 394/82/3
f 397/84/4 399/85/4 398/82/4
f 399/85/4 400/83/4 398/82/4
f 401/84/5 403/85/5 402/82/5
f 403/85/5 404/83/5 402/82/5
f 405/82/6 407/83/6 406/84/6
f 407/83/6 408/85/6 406/84/6
