# Blender 5.1.1
# www.blender.org
mtllib lev.m7266mm.mtl
o bulletModel
v 8.456249 0.768750 0.768750
v 9.993750 0.768750 0.768750
v 8.456249 -0.768750 0.768750
v 9.993750 -0.768750 0.768750
v 9.993750 0.768750 -0.768750
v 8.456249 0.768750 -0.768750
v 9.993750 -0.768750 -0.768750
v 8.456249 -0.768750 -0.768750
v 9.993750 0.768750 -0.768750
v 9.993750 0.768750 0.768750
v 8.456249 0.768750 -0.768750
v 8.456249 0.768750 0.768750
v 8.456249 -0.768750 -0.768750
v 8.456249 -0.768750 0.768750
v 9.993750 -0.768750 -0.768750
v 9.993750 -0.768750 0.768750
v 8.456249 0.768750 -0.768750
v 8.456249 0.768750 0.768750
v 8.456249 -0.768750 -0.768750
v 8.456249 -0.768750 0.768750
v 9.993750 0.768750 0.768750
v 9.993750 0.768750 -0.768750
v 9.993750 -0.768750 0.768750
v 9.993750 -0.768750 -0.768750
v 9.993750 -0.000000 1.358971
v 13.068749 -0.000000 1.358970
v 9.993750 -1.358971 -0.000001
v 13.068749 -1.358971 -0.000001
v 13.068749 1.358971 -0.000000
v 9.993750 1.358971 -0.000000
v 13.068749 0.000000 -1.358971
v 9.993750 0.000000 -1.358971
v 13.068749 1.358971 -0.000000
v 13.068749 -0.000000 1.358970
v 9.993750 1.358971 -0.000000
v 9.993750 -0.000000 1.358971
v 9.993750 0.000000 -1.358971
v 9.993750 -1.358971 -0.000001
v 13.068749 0.000000 -1.358971
v 13.068749 -1.358971 -0.000001
v 9.993750 1.358971 -0.000000
v 9.993750 -0.000000 1.358971
v 9.993750 0.000000 -1.358971
v 9.993750 -1.358971 -0.000001
v 13.068749 -0.000000 1.358970
v 13.068749 1.358971 -0.000000
v 13.068749 -1.358971 -0.000001
v 13.068749 0.000000 -1.358971
v 13.068749 0.768750 0.768749
v 14.606249 0.768750 0.768749
v 13.068749 -0.768750 0.768749
v 14.606249 -0.768750 0.768749
v 14.606249 0.768750 -0.768750
v 13.068749 0.768750 -0.768750
v 14.606249 -0.768750 -0.768750
v 13.068749 -0.768750 -0.768750
v 14.606249 0.768750 -0.768750
v 14.606249 0.768750 0.768749
v 13.068749 0.768750 -0.768750
v 13.068749 0.768750 0.768749
v 13.068749 -0.768750 -0.768750
v 13.068749 -0.768750 0.768749
v 14.606249 -0.768750 -0.768750
v 14.606249 -0.768750 0.768749
v 13.068749 0.768750 -0.768750
v 13.068749 0.768750 0.768749
v 13.068749 -0.768750 -0.768750
v 13.068749 -0.768750 0.768749
v 14.606249 0.768750 0.768749
v 14.606249 0.768750 -0.768750
v 14.606249 -0.768750 0.768749
v 14.606249 -0.768750 -0.768750
v 2.306250 0.543588 -0.000000
v 16.143749 0.543588 -0.000001
v 2.306250 0.000000 0.543588
v 16.143749 0.000000 0.543588
v 16.143749 -0.000000 -0.543589
v 2.306250 -0.000000 -0.543588
v 16.143749 -0.543588 -0.000000
v 2.306250 -0.543588 0.000000
v 16.143749 -0.000000 -0.543589
v 16.143749 0.543588 -0.000001
v 2.306250 -0.000000 -0.543588
v 2.306250 0.543588 -0.000000
v 2.306250 -0.543588 0.000000
v 2.306250 0.000000 0.543588
v 16.143749 -0.543588 -0.000000
v 16.143749 0.000000 0.543588
v 2.306250 -0.000000 -0.543588
v 2.306250 0.543588 -0.000000
v 2.306250 -0.543588 0.000000
v 2.306250 0.000000 0.543588
v 16.143749 0.543588 -0.000001
v 16.143749 -0.000000 -0.543589
v 16.143749 0.000000 0.543588
v 16.143749 -0.543588 -0.000000
v 0.000000 1.902015 1.903103
v 4.612500 1.902015 1.903103
v -0.000000 -1.903103 -1.902016
v 4.612500 -1.903103 -1.902016
v 4.612500 1.902559 1.902559
v 0.000000 1.902559 1.902560
v 4.612500 -1.902559 -1.902560
v -0.000000 -1.902559 -1.902560
v 4.612500 1.902559 1.902559
v 4.612500 1.902015 1.903103
v 0.000000 1.902559 1.902560
v 0.000000 1.902015 1.903103
v -0.000000 -1.902559 -1.902560
v -0.000000 -1.903103 -1.902016
v 4.612500 -1.902559 -1.902560
v 4.612500 -1.903103 -1.902016
v 0.000000 1.902559 1.902560
v 0.000000 1.902015 1.903103
v -0.000000 -1.902559 -1.902560
v -0.000000 -1.903103 -1.902016
v 4.612500 1.902015 1.903103
v 4.612500 1.902559 1.902559
v 4.612500 -1.903103 -1.902016
v 4.612500 -1.902559 -1.902560
v -0.000000 1.903103 -1.902016
v 4.612500 1.903103 -1.902016
v 0.000000 -1.902015 1.903103
v 4.612500 -1.902015 1.903103
v 4.612500 1.902559 -1.902560
v -0.000000 1.902559 -1.902560
v 4.612500 -1.902559 1.902559
v 0.000000 -1.902559 1.902560
v 4.612500 1.902559 -1.902560
v 4.612500 1.903103 -1.902016
v -0.000000 1.902559 -1.902560
v -0.000000 1.903103 -1.902016
v 0.000000 -1.902559 1.902560
v 0.000000 -1.902015 1.903103
v 4.612500 -1.902559 1.902559
v 4.612500 -1.902015 1.903103
v -0.000000 1.902559 -1.902560
v -0.000000 1.903103 -1.902016
v 0.000000 -1.902559 1.902560
v 0.000000 -1.902015 1.903103
v 4.612500 1.903103 -1.902016
v 4.612500 1.902559 -1.902560
v 4.612500 -1.902015 1.903103
v 4.612500 -1.902559 1.902559
vn -0.0000 -0.0000 1.0000
vn -0.0000 -0.0000 -1.0000
vn -0.0000 1.0000 -0.0000
vn -0.0000 -1.0000 -0.0000
vn -1.0000 -0.0000 -0.0000
vn 1.0000 -0.0000 -0.0000
vn -0.0000 -0.7071 0.7071
vn -0.0000 0.7071 -0.7071
vn -0.0000 0.7071 0.7071
vn -0.0000 -0.7071 -0.7071
vn -0.0000 0.7072 0.7070
vn -0.0000 0.7070 0.7072
vn -0.0000 -0.7072 -0.7070
vn -0.0000 -0.7070 -0.7072
vn -0.0000 0.7072 -0.7070
vn -0.0000 0.7070 -0.7072
vn -0.0000 -0.7072 0.7070
vn -0.0000 -0.7070 0.7072
vn 1.0000 0.0005 -0.0000
vt 0.437500 0.625000
vt 0.437500 0.562500
vt 0.500000 0.625000
vt 0.500000 0.562500
vt 0.312500 0.500000
vt 0.312500 0.437500
vt 0.375000 0.500000
vt 0.375000 0.437500
vt 0.562500 0.562500
vt 0.562500 0.625000
vt 0.500000 0.500000
vt 0.500000 0.437500
vt 0.437500 0.500000
vt 0.437500 0.437500
vt 0.312500 0.562500
vt 0.375000 0.562500
vt 0.000000 0.562500
vt 0.000000 0.484375
vt 0.125000 0.562500
vt 0.125000 0.484375
vt 0.437500 0.937500
vt 0.437500 0.859375
vt 0.562500 0.937500
vt 0.562500 0.859375
vt 0.203125 0.437500
vt 0.203125 0.562500
vt 0.125000 0.437500
vt 0.515625 0.843750
vt 0.515625 0.718750
vt 0.437500 0.843750
vt 0.437500 0.718750
vt 0.437500 0.640625
vt 0.515625 0.640625
vt 0.218750 0.562500
vt 0.218750 0.484375
vt 0.296875 0.562500
vt 0.296875 0.484375
vt 0.562500 0.500000
vt 0.562500 0.437500
vt 0.062500 0.468750
vt 0.062500 0.406250
vt 0.125000 0.468750
vt 0.125000 0.406250
vt 0.593750 0.781250
vt 0.593750 0.843750
vt 0.531250 0.781250
vt 0.531250 0.843750
vt 0.281250 0.468750
vt 0.281250 0.406250
vt 0.218750 0.468750
vt 0.218750 0.406250
vt 0.000000 0.468750
vt 0.000000 0.406250
vt 0.375000 1.000000
vt 0.375000 0.968750
vt 0.937500 1.000000
vt 0.937500 0.968750
vt 0.375000 0.937500
vt 0.937500 0.937500
vt 0.406250 0.375000
vt 0.406250 0.937500
vt 0.375000 0.375000
vt 0.437500 0.375000
vt 0.531250 0.750000
vt 0.531250 0.718750
vt 0.562500 0.750000
vt 0.562500 0.718750
vt 0.562500 0.781250
vt 0.375000 0.781250
vt 0.187500 0.781250
vt 0.187500 0.562500
vt 0.000000 0.812500
vt 0.000000 1.000000
vt 0.000000 0.781250
s 0
usemtl Material_0
f 1/1/1 3/2/1 2/3/1
f 3/2/1 4/4/1 2/3/1
f 5/5/2 7/6/2 6/7/2
f 7/6/2 8/8/2 6/7/2
f 9/9/3 11/10/3 10/4/3
f 11/10/3 12/3/3 10/4/3
f 13/11/4 15/12/4 14/13/4
f 15/12/4 16/14/4 14/13/4
f 17/2/5 19/13/5 18/4/5
f 19/13/5 20/11/5 18/4/5
f 21/15/6 23/5/6 22/16/6
f 23/5/6 24/7/6 22/16/6
f 25/17/7 27/18/7 26/19/7
f 27/18/7 28/20/7 26/19/7
f 29/21/8 31/22/8 30/23/8
f 31/22/8 32/24/8 30/23/8
f 33/25/9 35/26/9 34/27/9
f 35/26/9 36/19/9 34/27/9
f 37/28/10 39/29/10 38/30/10
f 39/29/10 40/31/10 38/30/10
f 41/31/5 43/32/5 42/29/5
f 43/32/5 44/33/5 42/29/5
f 45/34/6 47/35/6 46/36/6
f 47/35/6 48/37/6 46/36/6
f 49/11/1 51/12/1 50/38/1
f 51/12/1 52/39/1 50/38/1
f 53/40/2 55/41/2 54/42/2
f 55/41/2 56/43/2 54/42/2
f 57/44/3 59/45/3 58/46/3
f 59/45/3 60/47/3 58/46/3
f 61/48/4 63/49/4 62/50/4
f 63/49/4 64/51/4 62/50/4
f 65/52/5 67/53/5 66/40/5
f 67/53/5 68/41/5 66/40/5
f 69/4/6 71/11/6 70/9/6
f 71/11/6 72/38/6 70/9/6
f 73/54/9 75/55/9 74/56/9
f 75/55/9 76/57/9 74/56/9
f 77/55/10 79/58/10 78/57/10
f 79/58/10 80/59/10 78/57/10
f 81/60/8 83/61/8 82/62/8
f 83/61/8 84/58/8 82/62/8
f 85/21/7 87/63/7 86/61/7
f 87/63/7 88/60/7 86/61/7
f 89/64/5 91/65/5 90/66/5
f 91/65/5 92/67/5 90/66/5
f 93/46/6 95/64/6 94/68/6
f 95/64/6 96/66/6 94/68/6
f 97/69/7 99/16/7 98/70/7
f 99/16/7 100/71/7 98/70/7
f 101/70/8 103/71/8 102/69/8
f 103/71/8 104/16/8 102/69/8
f 105/72/11 107/73/11 106/72/11
f 107/73/12 108/73/12 106/72/12
f 109/73/13 111/72/13 110/73/13
f 111/72/14 112/72/14 110/73/14
f 113/73/5 115/74/5 114/73/5
f 115/74/5 116/74/5 114/73/5
f 117/73/6 119/74/6 118/73/6
f 119/74/6 120/74/6 118/73/6
f 121/69/9 123/16/9 122/70/9
f 123/16/9 124/71/9 122/70/9
f 125/70/10 127/71/10 126/69/10
f 127/71/10 128/16/10 126/69/10
f 129/72/15 131/73/15 130/72/15
f 131/73/16 132/73/16 130/72/16
f 133/73/17 135/72/17 134/73/17
f 135/72/18 136/72/18 134/73/18
f 137/73/5 139/74/5 138/73/5
f 139/74/5 140/74/5 138/73/5
f 141/73/19 143/74/19 142/73/19
f 143/74/6 144/74/6 142/73/6
