# Blender 5.1.0
# www.blender.org
mtllib lev.m381.mtl
o bulletModel
v 1.538461 0.761538 0.761538
v 3.076923 0.761538 0.761538
v 1.538461 -0.761538 0.761538
v 3.076923 -0.761538 0.761538
v 3.076923 0.761538 -0.761539
v 1.538461 0.761538 -0.761538
v 3.076923 -0.761538 -0.761539
v 1.538461 -0.761538 -0.761538
v 3.076923 0.761538 -0.761539
v 3.076923 0.761538 0.761538
v 1.538461 0.761538 -0.761538
v 1.538461 0.761538 0.761538
v 1.538461 -0.761538 -0.761538
v 1.538461 -0.761538 0.761538
v 3.076923 -0.761538 -0.761539
v 3.076923 -0.761538 0.761538
v 1.538461 0.761538 -0.761538
v 1.538461 0.761538 0.761538
v 1.538461 -0.761538 -0.761538
v 1.538461 -0.761538 0.761538
v 3.076923 0.761538 0.761538
v 3.076923 0.761538 -0.761539
v 3.076923 -0.761538 0.761538
v 3.076923 -0.761538 -0.761539
v 2.884615 0.592308 0.576923
v 3.653846 0.592308 0.576923
v 2.884615 -0.561538 0.576923
v 3.653846 -0.561538 0.576923
v 3.653846 0.592308 -0.576923
v 2.884615 0.592308 -0.576923
v 3.653846 -0.561538 -0.576923
v 2.884615 -0.561538 -0.576923
v 3.653846 0.592308 -0.576923
v 3.653846 0.592308 0.576923
v 2.884615 0.592308 -0.576923
v 2.884615 0.592308 0.576923
v 2.884615 -0.561538 -0.576923
v 2.884615 -0.561538 0.576923
v 3.653846 -0.561538 -0.576923
v 3.653846 -0.561538 0.576923
v 2.884615 0.592308 -0.576923
v 2.884615 0.592308 0.576923
v 2.884615 -0.561538 -0.576923
v 2.884615 -0.561538 0.576923
v 3.653846 0.592308 0.576923
v 3.653846 0.592308 -0.576923
v 3.653846 -0.561538 0.576923
v 3.653846 -0.561538 -0.576923
vn -0.0000 -0.0000 1.0000
vn -0.0000 -0.0000 -1.0000
vn -0.0000 1.0000 -0.0000
vn -0.0000 -1.0000 -0.0000
vn -1.0000 -0.0000 -0.0000
vn 1.0000 -0.0000 -0.0000
vt 0.000000 0.750000
vt 0.000000 0.500000
vt 0.250000 0.750000
vt 0.250000 0.500000
vt 0.500000 0.750000
vt 0.500000 0.500000
vt 0.250000 0.250000
vt 0.000000 0.250000
vt 0.750000 1.000000
vt 0.750000 0.750000
vt 0.500000 1.000000
vt 0.250000 1.000000
vt 0.000000 1.000000
vt 0.500000 0.312500
vt 0.625000 0.500000
vt 0.625000 0.312500
vt 0.750000 0.500000
vt 0.750000 0.312500
vt 0.187500 0.125000
vt 0.187500 0.250000
vt 0.000000 0.125000
vt 0.937500 1.000000
vt 0.937500 0.875000
vt 0.750000 0.875000
vt 0.500000 0.562500
vt 0.687500 0.750000
vt 0.687500 0.562500
vt 0.250000 0.312500
vt 0.437500 0.500000
vt 0.437500 0.312500
s 0
usemtl Material_0
f 1/1/1 3/2/1 2/3/1
f 3/2/1 4/4/1 2/3/1
f 5/3/2 7/4/2 6/5/2
f 7/4/2 8/6/2 6/5/2
f 9/7/3 11/4/3 10/8/3
f 11/4/3 12/2/3 10/8/3
f 13/9/4 15/10/4 14/11/4
f 15/10/4 16/5/4 14/11/4
f 17/12/5 19/3/5 18/11/5
f 19/3/5 20/5/5 18/11/5
f 21/13/6 23/1/6 22/12/6
f 23/1/6 24/3/6 22/12/6
f 25/6/1 27/14/1 26/15/1
f 27/14/1 28/16/1 26/15/1
f 29/15/2 31/16/2 30/17/2
f 31/16/2 32/18/2 30/17/2
f 33/19/3 35/20/3 34/21/3
f 35/20/3 36/8/3 34/21/3
f 37/22/4 39/23/4 38/9/4
f 39/23/4 40/24/4 38/9/4
f 41/5/5 43/25/5 42/26/5
f 43/25/5 44/27/5 42/26/5
f 45/4/6 47/28/6 46/29/6
f 47/28/6 48/30/6 46/29/6
