# Blender 5.1.0
# www.blender.org
mtllib lev.vfg25.mtl
o bulletModel
v 0.061600 0.061477 0.061477
v 0.276861 0.061477 0.061477
v 0.061600 -0.061477 0.061477
v 0.276861 -0.061477 0.061477
v 0.276861 0.061477 -0.061477
v 0.061600 0.061477 -0.061477
v 0.276861 -0.061477 -0.061477
v 0.061600 -0.061477 -0.061477
v 0.276861 0.061477 -0.061477
v 0.276861 0.061477 0.061477
v 0.061600 0.061477 -0.061477
v 0.061600 0.061477 0.061477
v 0.061600 -0.061477 -0.061477
v 0.061600 -0.061477 0.061477
v 0.276861 -0.061477 -0.061477
v 0.276861 -0.061477 0.061477
v 0.061600 0.061477 -0.061477
v 0.061600 0.061477 0.061477
v 0.061600 -0.061477 -0.061477
v 0.061600 -0.061477 0.061477
v 0.276861 0.061477 0.061477
v 0.276861 0.061477 -0.061477
v 0.276861 -0.061477 0.061477
v 0.276861 -0.061477 -0.061477
v 0.000062 -0.000000 0.043427
v 0.061477 -0.000000 0.043427
v 0.000062 -0.043427 -0.000000
v 0.061477 -0.043427 -0.000000
v 0.061477 0.043427 0.000000
v 0.000062 0.043427 0.000000
v 0.061477 0.000000 -0.043427
v 0.000062 0.000000 -0.043427
v 0.061477 0.043427 0.000000
v 0.061477 -0.000000 0.043427
v 0.000062 0.043427 0.000000
v 0.000062 -0.000000 0.043427
v 0.000062 0.000000 -0.043427
v 0.000062 -0.043427 -0.000000
v 0.061477 0.000000 -0.043427
v 0.061477 -0.043427 -0.000000
v 0.000062 0.043427 0.000000
v 0.000062 -0.000000 0.043427
v 0.000062 0.000000 -0.043427
v 0.000062 -0.043427 -0.000000
v 0.061477 -0.000000 0.043427
v 0.061477 0.043427 0.000000
v 0.061477 -0.043427 -0.000000
v 0.061477 0.000000 -0.043427
v 0.276985 0.046092 0.046092
v 0.369169 0.046092 0.046092
v 0.276985 -0.046092 0.046092
v 0.369169 -0.046092 0.046092
v 0.369169 0.046092 -0.046092
v 0.276985 0.046092 -0.046092
v 0.369169 -0.046092 -0.046092
v 0.276985 -0.046092 -0.046092
v 0.369169 0.046092 -0.046092
v 0.369169 0.046092 0.046092
v 0.276985 0.046092 -0.046092
v 0.276985 0.046092 0.046092
v 0.276985 -0.046092 -0.046092
v 0.276985 -0.046092 0.046092
v 0.369169 -0.046092 -0.046092
v 0.369169 -0.046092 0.046092
v 0.276985 0.046092 -0.046092
v 0.276985 0.046092 0.046092
v 0.276985 -0.046092 -0.046092
v 0.276985 -0.046092 0.046092
v 0.369169 0.046092 0.046092
v 0.369169 0.046092 -0.046092
v 0.369169 -0.046092 0.046092
v 0.369169 -0.046092 -0.046092
vn -0.0000 -0.0000 1.0000
vn -0.0000 -0.0000 -1.0000
vn -0.0000 1.0000 -0.0000
vn -0.0000 -1.0000 -0.0000
vn -1.0000 -0.0000 -0.0000
vn 1.0000 -0.0000 -0.0000
vn -0.0000 -0.7071 0.7071
vn -0.0000 0.7071 -0.7071
vn -0.0000 0.7071 0.7071
vn -0.0000 -0.7071 -0.7071
vt 0.000000 1.000000
vt 0.000000 0.875000
vt 0.218750 1.000000
vt 0.218750 0.875000
vt 0.000000 0.750000
vt 0.218750 0.750000
vt 0.125000 0.531250
vt 0.125000 0.750000
vt 0.000000 0.531250
vt 0.375000 1.000000
vt 0.375000 0.781250
vt 0.250000 1.000000
vt 0.250000 0.781250
vt 0.250000 0.750000
vt 0.250000 0.625000
vt 0.375000 0.750000
vt 0.375000 0.625000
vt 0.125000 0.625000
vt 0.500000 1.000000
vt 0.500000 0.937500
vt 0.562500 1.000000
vt 0.562500 0.937500
vt 0.500000 0.875000
vt 0.562500 0.875000
vt 0.187500 0.437500
vt 0.187500 0.500000
vt 0.125000 0.437500
vt 0.125000 0.500000
vt 0.562500 0.812500
vt 0.500000 0.812500
vt 0.062500 0.500000
vt 0.062500 0.437500
vt 0.000000 0.500000
vt 0.000000 0.437500
vt 0.218750 0.625000
vt 0.218750 0.531250
vt 0.250000 0.531250
vt 0.343750 0.625000
vt 0.343750 0.531250
vt 0.468750 0.656250
vt 0.468750 0.750000
vt 0.375000 0.656250
vt 0.468750 0.625000
vt 0.468750 0.531250
vt 0.375000 0.531250
vt 0.375000 0.875000
vt 0.468750 0.875000
vt 0.468750 0.781250
vt 0.375000 0.906250
vt 0.468750 1.000000
vt 0.468750 0.906250
s 0
usemtl Material_0.002
f 1/1/1 3/2/1 2/3/1
f 3/2/1 4/4/1 2/3/1
f 5/2/2 7/5/2 6/4/2
f 7/5/2 8/6/2 6/4/2
f 9/7/3 11/8/3 10/9/3
f 11/8/3 12/5/3 10/9/3
f 13/10/4 15/11/4 14/12/4
f 15/11/4 16/13/4 14/12/4
f 17/14/5 19/15/5 18/16/5
f 19/15/5 20/17/5 18/16/5
f 21/8/6 23/18/6 22/14/6
f 23/18/6 24/15/6 22/14/6
f 25/19/7 27/20/7 26/21/7
f 27/20/7 28/22/7 26/21/7
f 29/20/8 31/23/8 30/22/8
f 31/23/8 32/24/8 30/22/8
f 33/25/9 35/26/9 34/27/9
f 35/26/9 36/28/9 34/27/9
f 37/24/10 39/29/10 38/23/10
f 39/29/10 40/30/10 38/23/10
f 41/31/5 43/32/5 42/28/5
f 43/32/5 44/27/5 42/28/5
f 45/33/6 47/34/6 46/31/6
f 47/34/6 48/32/6 46/31/6
f 49/18/1 51/7/1 50/35/1
f 51/7/1 52/36/1 50/35/1
f 53/15/2 55/37/2 54/38/2
f 55/37/2 56/39/2 54/38/2
f 57/40/3 59/41/3 58/42/3
f 59/41/3 60/16/3 58/42/3
f 61/43/4 63/44/4 62/17/4
f 63/44/4 64/45/4 62/17/4
f 65/46/5 67/11/5 66/47/5
f 67/11/5 68/48/5 66/47/5
f 69/10/6 71/49/6 70/50/6
f 71/49/6 72/51/6 70/50/6
