# Blender 5.1.2
# www.blender.org
mtllib lev.og7v.mtl
o bulletModel
v 0.373154 0.037692 0.037692
v 0.448538 0.037692 0.037692
v 0.373154 -0.037692 0.037692
v 0.448538 -0.037692 0.037692
v 0.448538 0.037692 -0.037692
v 0.373154 0.037692 -0.037692
v 0.448538 -0.037692 -0.037692
v 0.373154 -0.037692 -0.037692
v 0.448538 0.037692 -0.037692
v 0.448538 0.037692 0.037692
v 0.373154 0.037692 -0.037692
v 0.373154 0.037692 0.037692
v 0.373154 -0.037692 -0.037692
v 0.373154 -0.037692 0.037692
v 0.448538 -0.037692 -0.037692
v 0.448538 -0.037692 0.037692
v 0.373154 0.037692 -0.037692
v 0.373154 0.037692 0.037692
v 0.373154 -0.037692 -0.037692
v 0.373154 -0.037692 0.037692
v 0.448538 0.037692 0.037692
v 0.448538 0.037692 -0.037692
v 0.448538 -0.037692 0.037692
v 0.448538 -0.037692 -0.037692
v -0.825461 0.074627 0.000000
v 0.373154 0.074627 -0.000000
v -0.825461 0.000000 0.074627
v 0.373154 0.000000 0.074627
v 0.373154 -0.000000 -0.074627
v -0.825461 -0.000000 -0.074627
v 0.373154 -0.074627 0.000000
v -0.825461 -0.074627 0.000000
v 0.373154 -0.000000 -0.074627
v 0.373154 0.074627 -0.000000
v -0.825461 -0.000000 -0.074627
v -0.825461 0.074627 0.000000
v -0.825461 -0.074627 0.000000
v -0.825461 0.000000 0.074627
v 0.373154 -0.074627 0.000000
v 0.373154 0.000000 0.074627
v -0.825461 -0.000000 -0.074627
v -0.825461 0.074627 0.000000
v -0.825461 -0.074627 0.000000
v -0.825461 0.000000 0.074627
v 0.373154 0.074627 -0.000000
v 0.373154 -0.000000 -0.074627
v 0.373154 0.000000 0.074627
v 0.373154 -0.074627 0.000000
vn -0.0000 -0.0000 1.0000
vn -0.0000 -0.0000 -1.0000
vn -0.0000 1.0000 -0.0000
vn -0.0000 -1.0000 -0.0000
vn -1.0000 -0.0000 -0.0000
vn 1.0000 -0.0000 -0.0000
vn -0.0000 0.7071 0.7071
vn -0.0000 -0.7071 -0.7071
vn -0.0000 0.7071 -0.7071
vn -0.0000 -0.7071 0.7071
vt 0.187500 0.843750
vt 0.187500 0.812500
vt 0.218750 0.843750
vt 0.218750 0.812500
vt 0.218750 0.875000
vt 0.250000 0.875000
vt 0.250000 0.843750
vt 0.250000 0.812500
vt 0.218750 0.781250
vt 0.218750 0.750000
vt 0.187500 0.781250
vt 0.187500 0.750000
vt 0.187500 0.875000
vt 0.000000 1.000000
vt 0.000000 0.953125
vt 0.500000 1.000000
vt 0.500000 0.953125
vt 0.000000 0.937500
vt 0.000000 0.890625
vt 0.500000 0.937500
vt 0.500000 0.890625
vt 0.046875 0.375000
vt 0.046875 0.875000
vt 0.000000 0.375000
vt 0.000000 0.875000
vt 0.109375 0.875000
vt 0.109375 0.375000
vt 0.062500 0.875000
vt 0.062500 0.375000
vt 0.125000 0.812500
vt 0.125000 0.765625
vt 0.171875 0.812500
vt 0.171875 0.765625
vt 0.125000 0.875000
vt 0.125000 0.828125
vt 0.171875 0.875000
vt 0.171875 0.828125
s 0
usemtl Material_0.003
f 1/1/1 3/2/1 2/3/1
f 3/2/1 4/4/1 2/3/1
f 5/5/2 7/3/2 6/6/2
f 7/3/2 8/7/2 6/6/2
f 9/8/3 11/7/3 10/4/3
f 11/7/3 12/3/3 10/4/3
f 13/9/4 15/10/4 14/11/4
f 15/10/4 16/12/4 14/11/4
f 17/2/5 19/11/5 18/4/5
f 19/11/5 20/9/5 18/4/5
f 21/13/6 23/1/6 22/5/6
f 23/1/6 24/3/6 22/5/6
f 25/14/7 27/15/7 26/16/7
f 27/15/7 28/17/7 26/16/7
f 29/18/8 31/19/8 30/20/8
f 31/19/8 32/21/8 30/20/8
f 33/22/9 35/23/9 34/24/9
f 35/23/9 36/25/9 34/24/9
f 37/26/10 39/27/10 38/28/10
f 39/27/10 40/29/10 38/28/10
f 41/30/5 43/31/5 42/32/5
f 43/31/5 44/33/5 42/32/5
f 45/34/6 47/35/6 46/36/6
f 47/35/6 48/37/6 46/36/6
