# Blender 5.1.2
# www.blender.org
mtllib lev.tgb7v.mtl
o bulletModel
v 0.000000 0.056538 0.056538
v 0.075385 0.056538 0.056538
v 0.000000 -0.056538 0.056538
v 0.075385 -0.056538 0.056538
v 0.075385 0.056538 -0.056538
v -0.000000 0.056538 -0.056538
v 0.075385 -0.056538 -0.056538
v -0.000000 -0.056538 -0.056538
v 0.075385 0.056538 -0.056538
v 0.075385 0.056538 0.056538
v -0.000000 0.056538 -0.056538
v 0.000000 0.056538 0.056538
v -0.000000 -0.056538 -0.056538
v 0.000000 -0.056538 0.056538
v 0.075385 -0.056538 -0.056538
v 0.075385 -0.056538 0.056538
v -0.000000 0.056538 -0.056538
v 0.000000 0.056538 0.056538
v -0.000000 -0.056538 -0.056538
v 0.000000 -0.056538 0.056538
v 0.075385 0.056538 0.056538
v 0.075385 0.056538 -0.056538
v 0.075385 -0.056538 0.056538
v 0.075385 -0.056538 -0.056538
v 0.207308 0.094231 0.094231
v 0.508846 0.094231 0.094231
v 0.207308 -0.094231 0.094231
v 0.508846 -0.094231 0.094231
v 0.508846 0.094231 -0.094231
v 0.207308 0.094231 -0.094231
v 0.508846 -0.094231 -0.094231
v 0.207308 -0.094231 -0.094231
v 0.508846 0.094231 -0.094231
v 0.508846 0.094231 0.094231
v 0.207308 0.094231 -0.094231
v 0.207308 0.094231 0.094231
v 0.207308 -0.094231 -0.094231
v 0.207308 -0.094231 0.094231
v 0.508846 -0.094231 -0.094231
v 0.508846 -0.094231 0.094231
v 0.207308 0.094231 -0.094231
v 0.207308 0.094231 0.094231
v 0.207308 -0.094231 -0.094231
v 0.207308 -0.094231 0.094231
v 0.508846 0.094231 0.094231
v 0.508846 0.094231 -0.094231
v 0.508846 -0.094231 0.094231
v 0.508846 -0.094231 -0.094231
v -0.000075 0.075385 0.075385
v 0.000000 0.075385 0.075385
v -0.000075 -0.075385 0.075385
v 0.000000 -0.075385 0.075385
v -0.000000 0.075385 -0.075385
v -0.000075 0.075385 -0.075385
v -0.000000 -0.075385 -0.075385
v -0.000075 -0.075385 -0.075385
v -0.000000 0.075385 -0.075385
v 0.000000 0.075385 0.075385
v -0.000075 0.075385 -0.075385
v -0.000075 0.075385 0.075385
v -0.000075 -0.075385 -0.075385
v -0.000075 -0.075385 0.075385
v -0.000000 -0.075385 -0.075385
v 0.000000 -0.075385 0.075385
v -0.000075 0.075385 -0.075385
v -0.000075 0.075385 0.075385
v -0.000075 -0.075385 -0.075385
v -0.000075 -0.075385 0.075385
v 0.000000 0.075385 0.075385
v -0.000000 0.075385 -0.075385
v 0.000000 -0.075385 0.075385
v -0.000000 -0.075385 -0.075385
v -0.000075 0.106610 -0.000000
v -0.000000 0.106610 -0.000000
v -0.000075 0.000000 0.106610
v 0.000000 0.000000 0.106610
v -0.000000 -0.000000 -0.106610
v -0.000075 -0.000000 -0.106610
v 0.000000 -0.106610 0.000000
v -0.000075 -0.106610 0.000000
v -0.000000 -0.000000 -0.106610
v -0.000000 0.106610 -0.000000
v -0.000075 -0.000000 -0.106610
v -0.000075 0.106610 -0.000000
v -0.000075 -0.106610 0.000000
v -0.000075 0.000000 0.106610
v 0.000000 -0.106610 0.000000
v 0.000000 0.000000 0.106610
v -0.000075 -0.000000 -0.106610
v -0.000075 0.106610 -0.000000
v -0.000075 -0.106610 0.000000
v -0.000075 0.000000 0.106610
v -0.000000 0.106610 -0.000000
v -0.000000 -0.000000 -0.106610
v 0.000000 0.000000 0.106610
v 0.000000 -0.106610 0.000000
v 0.599308 0.056538 0.056538
v 0.637000 0.056538 0.056538
v 0.599308 -0.056538 0.056538
v 0.637000 -0.056538 0.056538
v 0.637000 0.056538 -0.056538
v 0.599308 0.056538 -0.056538
v 0.637000 -0.056538 -0.056538
v 0.599308 -0.056538 -0.056538
v 0.637000 0.056538 -0.056538
v 0.637000 0.056538 0.056538
v 0.599308 0.056538 -0.056538
v 0.599308 0.056538 0.056538
v 0.599308 -0.056538 -0.056538
v 0.599308 -0.056538 0.056538
v 0.637000 -0.056538 -0.056538
v 0.637000 -0.056538 0.056538
v 0.599308 0.056538 -0.056538
v 0.599308 0.056538 0.056538
v 0.599308 -0.056538 -0.056538
v 0.599308 -0.056538 0.056538
v 0.637000 0.056538 0.056538
v 0.637000 0.056538 -0.056538
v 0.637000 -0.056538 0.056538
v 0.637000 -0.056538 -0.056538
v -0.825461 0.074627 0.000000
v 0.599308 0.074627 -0.000000
v -0.825461 0.000000 0.074627
v 0.599308 0.000000 0.074627
v 0.599308 -0.000000 -0.074627
v -0.825461 -0.000000 -0.074627
v 0.599308 -0.074627 -0.000000
v -0.825461 -0.074627 0.000000
v 0.599308 -0.000000 -0.074627
v 0.599308 0.074627 -0.000000
v -0.825461 -0.000000 -0.074627
v -0.825461 0.074627 0.000000
v -0.825461 -0.074627 0.000000
v -0.825461 0.000000 0.074627
v 0.599308 -0.074627 -0.000000
v 0.599308 0.000000 0.074627
v -0.825461 -0.000000 -0.074627
v -0.825461 0.074627 0.000000
v -0.825461 -0.074627 0.000000
v -0.825461 0.000000 0.074627
v 0.599308 0.074627 -0.000000
v 0.599308 -0.000000 -0.074627
v 0.599308 0.000000 0.074627
v 0.599308 -0.074627 -0.000000
vn -0.0000 -0.0000 1.0000
vn -0.0000 -0.0000 -1.0000
vn -0.0000 1.0000 -0.0000
vn -0.0000 -1.0000 -0.0000
vn -1.0000 -0.0000 -0.0000
vn 1.0000 -0.0000 -0.0000
vn -0.0000 0.7071 0.7071
vn -0.0000 -0.7071 -0.7071
vn -0.0000 0.7071 -0.7071
vn -0.0000 -0.7071 0.7071
vt 0.218750 0.687500
vt 0.218750 0.640625
vt 0.250000 0.687500
vt 0.250000 0.640625
vt 0.187500 0.593750
vt 0.187500 0.546875
vt 0.218750 0.593750
vt 0.218750 0.546875
vt 0.453125 0.562500
vt 0.453125 0.593750
vt 0.406250 0.562500
vt 0.406250 0.593750
vt 0.484375 0.875000
vt 0.484375 0.843750
vt 0.437500 0.875000
vt 0.437500 0.843750
vt 0.125000 0.593750
vt 0.125000 0.546875
vt 0.171875 0.593750
vt 0.171875 0.546875
vt 0.281250 0.625000
vt 0.281250 0.578125
vt 0.328125 0.625000
vt 0.328125 0.578125
vt 0.125000 0.875000
vt 0.125000 0.796875
vt 0.250000 0.875000
vt 0.250000 0.796875
vt 0.125000 0.781250
vt 0.125000 0.703125
vt 0.250000 0.781250
vt 0.250000 0.703125
vt 0.328125 0.750000
vt 0.328125 0.875000
vt 0.250000 0.750000
vt 0.250000 0.625000
vt 0.343750 0.875000
vt 0.343750 0.796875
vt 0.421875 0.875000
vt 0.421875 0.796875
vt 0.125000 0.687500
vt 0.125000 0.609375
vt 0.203125 0.687500
vt 0.203125 0.609375
vt 0.000000 1.000000
vt 0.000000 0.937500
vt 0.062500 1.000000
vt 0.343750 0.718750
vt 0.343750 0.656250
vt 0.406250 0.718750
vt 0.406250 0.656250
vt 0.343750 0.781250
vt 0.406250 0.781250
vt 0.218750 0.625000
vt 0.218750 0.562500
vt 0.281250 0.562500
vt 0.343750 0.593750
vt 0.437500 0.796875
vt 0.453125 0.843750
vt 0.453125 0.796875
vt 0.218750 0.515625
vt 0.234375 0.562500
vt 0.234375 0.515625
vt 0.296875 0.546875
vt 0.296875 0.562500
vt 0.250000 0.546875
vt 0.250000 0.562500
vt 0.453125 0.546875
vt 0.406250 0.546875
vt 0.406250 0.671875
vt 0.453125 0.718750
vt 0.453125 0.671875
vt 0.406250 0.734375
vt 0.453125 0.781250
vt 0.453125 0.734375
vt 0.000000 0.953125
vt 0.593750 1.000000
vt 0.593750 0.953125
vt 0.000000 0.890625
vt 0.593750 0.937500
vt 0.593750 0.890625
vt 0.046875 0.281250
vt 0.046875 0.875000
vt 0.000000 0.281250
vt 0.000000 0.875000
vt 0.109375 0.875000
vt 0.109375 0.281250
vt 0.062500 0.875000
vt 0.062500 0.281250
vt 0.406250 0.609375
vt 0.453125 0.656250
vt 0.453125 0.609375
vt 0.343750 0.546875
vt 0.390625 0.593750
vt 0.390625 0.546875
s 0
usemtl Material_0.006
f 1/1/1 3/2/1 2/3/1
f 3/2/1 4/4/1 2/3/1
f 5/5/2 7/6/2 6/7/2
f 7/6/2 8/8/2 6/7/2
f 9/9/3 11/10/3 10/11/3
f 11/10/3 12/12/3 10/11/3
f 13/13/4 15/14/4 14/15/4
f 15/14/4 16/16/4 14/15/4
f 17/17/5 19/18/5 18/19/5
f 19/18/5 20/20/5 18/19/5
f 21/21/6 23/22/6 22/23/6
f 23/22/6 24/24/6 22/23/6
f 25/25/1 27/26/1 26/27/1
f 27/26/1 28/28/1 26/27/1
f 29/29/2 31/30/2 30/31/2
f 31/30/2 32/32/2 30/31/2
f 33/33/3 35/34/3 34/35/3
f 35/34/3 36/27/3 34/35/3
f 37/33/4 39/23/4 38/35/4
f 39/23/4 40/36/4 38/35/4
f 41/37/5 43/38/5 42/39/5
f 43/38/5 44/40/5 42/39/5
f 45/41/6 47/42/6 46/43/6
f 47/42/6 48/44/6 46/43/6
f 49/45/1 51/46/1 50/45/1
f 51/46/1 52/46/1 50/45/1
f 53/45/2 55/46/2 54/45/2
f 55/46/2 56/46/2 54/45/2
f 57/47/3 59/47/3 58/45/3
f 59/47/3 60/45/3 58/45/3
f 61/47/4 63/47/4 62/45/4
f 63/47/4 64/45/4 62/45/4
f 65/48/5 67/49/5 66/50/5
f 67/49/5 68/51/5 66/50/5
f 69/52/6 71/48/6 70/53/6
f 71/48/6 72/50/6 70/53/6
f 73/45/7 75/46/7 74/45/7
f 75/46/7 76/46/7 74/45/7
f 77/45/8 79/46/8 78/45/8
f 79/46/8 80/46/8 78/45/8
f 81/47/9 83/47/9 82/45/9
f 83/47/9 84/45/9 82/45/9
f 85/47/10 87/47/10 86/45/10
f 87/47/10 88/45/10 86/45/10
f 89/54/5 91/55/5 90/21/5
f 91/55/5 92/56/5 90/21/5
f 93/49/6 95/57/6 94/51/6
f 95/57/6 96/12/6 94/51/6
f 97/16/1 99/58/1 98/59/1
f 99/58/1 100/60/1 98/59/1
f 101/55/2 103/61/2 102/62/2
f 103/61/2 104/63/2 102/62/2
f 105/64/3 107/65/3 106/66/3
f 107/65/3 108/67/3 106/66/3
f 109/9/4 111/68/4 110/11/4
f 111/68/4 112/69/4 110/11/4
f 113/50/5 115/70/5 114/71/5
f 115/70/5 116/72/5 114/71/5
f 117/53/6 119/73/6 118/74/6
f 119/73/6 120/75/6 118/74/6
f 121/45/7 123/76/7 122/77/7
f 123/76/7 124/78/7 122/77/7
f 125/46/8 127/79/8 126/80/8
f 127/79/8 128/81/8 126/80/8
f 129/82/9 131/83/9 130/84/9
f 131/83/9 132/85/9 130/84/9
f 133/86/10 135/87/10 134/88/10
f 135/87/10 136/89/10 134/88/10
f 137/51/5 139/90/5 138/91/5
f 139/90/5 140/92/5 138/91/5
f 141/57/6 143/93/6 142/94/6
f 143/93/6 144/95/6 142/94/6
