# Blender 5.1.2
# www.blender.org
mtllib lev.pg7vm.mtl
o bulletModel
v 0.000000 0.056538 0.056538
v 0.075385 0.056538 0.056538
v 0.000000 -0.056538 0.056538
v 0.075385 -0.056538 0.056538
v 0.075385 0.056538 -0.056538
v -0.000000 0.056538 -0.056538
v 0.075385 -0.056538 -0.056538
v -0.000000 -0.056538 -0.056538
v 0.075385 0.056538 -0.056538
v 0.075385 0.056538 0.056538
v -0.000000 0.056538 -0.056538
v 0.000000 0.056538 0.056538
v -0.000000 -0.056538 -0.056538
v 0.000000 -0.056538 0.056538
v 0.075385 -0.056538 -0.056538
v 0.075385 -0.056538 0.056538
v -0.000000 0.056538 -0.056538
v 0.000000 0.056538 0.056538
v -0.000000 -0.056538 -0.056538
v 0.000000 -0.056538 0.056538
v 0.075385 0.056538 0.056538
v 0.075385 0.056538 -0.056538
v 0.075385 -0.056538 0.056538
v 0.075385 -0.056538 -0.056538
v 0.207308 -0.000000 0.106610
v 0.433462 -0.000000 0.106610
v 0.207308 -0.106610 -0.000000
v 0.433462 -0.106610 -0.000000
v 0.433462 0.106610 0.000000
v 0.207308 0.106610 0.000000
v 0.433462 0.000000 -0.106610
v 0.207308 0.000000 -0.106610
v 0.433462 0.106610 0.000000
v 0.433462 -0.000000 0.106610
v 0.207308 0.106610 0.000000
v 0.207308 -0.000000 0.106610
v 0.207308 0.000000 -0.106610
v 0.207308 -0.106610 -0.000000
v 0.433462 0.000000 -0.106610
v 0.433462 -0.106610 -0.000000
v 0.207308 0.106610 0.000000
v 0.207308 -0.000000 0.106610
v 0.207308 0.000000 -0.106610
v 0.207308 -0.106610 -0.000000
v 0.433462 -0.000000 0.106610
v 0.433462 0.106610 0.000000
v 0.433462 -0.106610 -0.000000
v 0.433462 0.000000 -0.106610
v -0.000075 0.075385 0.075385
v 0.000000 0.075385 0.075385
v -0.000075 -0.075385 0.075385
v 0.000000 -0.075385 0.075385
v -0.000000 0.075385 -0.075385
v -0.000075 0.075385 -0.075385
v -0.000000 -0.075385 -0.075385
v -0.000075 -0.075385 -0.075385
v -0.000000 0.075385 -0.075385
v 0.000000 0.075385 0.075385
v -0.000075 0.075385 -0.075385
v -0.000075 0.075385 0.075385
v -0.000075 -0.075385 -0.075385
v -0.000075 -0.075385 0.075385
v -0.000000 -0.075385 -0.075385
v 0.000000 -0.075385 0.075385
v -0.000075 0.075385 -0.075385
v -0.000075 0.075385 0.075385
v -0.000075 -0.075385 -0.075385
v -0.000075 -0.075385 0.075385
v 0.000000 0.075385 0.075385
v -0.000000 0.075385 -0.075385
v 0.000000 -0.075385 0.075385
v -0.000000 -0.075385 -0.075385
v -0.000075 0.106610 -0.000000
v -0.000000 0.106610 -0.000000
v -0.000075 0.000000 0.106610
v 0.000000 0.000000 0.106610
v -0.000000 -0.000000 -0.106610
v -0.000075 -0.000000 -0.106610
v 0.000000 -0.106610 0.000000
v -0.000075 -0.106610 0.000000
v -0.000000 -0.000000 -0.106610
v -0.000000 0.106610 -0.000000
v -0.000075 -0.000000 -0.106610
v -0.000075 0.106610 -0.000000
v -0.000075 -0.106610 0.000000
v -0.000075 0.000000 0.106610
v 0.000000 -0.106610 0.000000
v 0.000000 0.000000 0.106610
v -0.000075 -0.000000 -0.106610
v -0.000075 0.106610 -0.000000
v -0.000075 -0.106610 0.000000
v -0.000075 0.000000 0.106610
v -0.000000 0.106610 -0.000000
v -0.000000 -0.000000 -0.106610
v 0.000000 0.000000 0.106610
v 0.000000 -0.106610 0.000000
v 0.599308 0.037692 0.037692
v 0.674692 0.037692 0.037692
v 0.599308 -0.037692 0.037692
v 0.674692 -0.037692 0.037692
v 0.674692 0.037692 -0.037692
v 0.599308 0.037692 -0.037692
v 0.674692 -0.037692 -0.037692
v 0.599308 -0.037692 -0.037692
v 0.674692 0.037692 -0.037692
v 0.674692 0.037692 0.037692
v 0.599308 0.037692 -0.037692
v 0.599308 0.037692 0.037692
v 0.599308 -0.037692 -0.037692
v 0.599308 -0.037692 0.037692
v 0.674692 -0.037692 -0.037692
v 0.674692 -0.037692 0.037692
v 0.599308 0.037692 -0.037692
v 0.599308 0.037692 0.037692
v 0.599308 -0.037692 -0.037692
v 0.599308 -0.037692 0.037692
v 0.674692 0.037692 0.037692
v 0.674692 0.037692 -0.037692
v 0.674692 -0.037692 0.037692
v 0.674692 -0.037692 -0.037692
v -0.825461 0.074627 0.000000
v 0.599308 0.074627 -0.000000
v -0.825461 0.000000 0.074627
v 0.599308 0.000000 0.074627
v 0.599308 -0.000000 -0.074627
v -0.825461 -0.000000 -0.074627
v 0.599308 -0.074627 -0.000000
v -0.825461 -0.074627 0.000000
v 0.599308 -0.000000 -0.074627
v 0.599308 0.074627 -0.000000
v -0.825461 -0.000000 -0.074627
v -0.825461 0.074627 0.000000
v -0.825461 -0.074627 0.000000
v -0.825461 0.000000 0.074627
v 0.599308 -0.074627 -0.000000
v 0.599308 0.000000 0.074627
v -0.825461 -0.000000 -0.074627
v -0.825461 0.074627 0.000000
v -0.825461 -0.074627 0.000000
v -0.825461 0.000000 0.074627
v 0.599308 0.074627 -0.000000
v 0.599308 -0.000000 -0.074627
v 0.599308 0.000000 0.074627
v 0.599308 -0.074627 -0.000000
vn -0.0000 -0.0000 1.0000
vn -0.0000 -0.0000 -1.0000
vn -0.0000 1.0000 -0.0000
vn -0.0000 -1.0000 -0.0000
vn -1.0000 -0.0000 -0.0000
vn 1.0000 -0.0000 -0.0000
vn -0.0000 -0.7071 0.7071
vn -0.0000 0.7071 -0.7071
vn -0.0000 0.7071 0.7071
vn -0.0000 -0.7071 -0.7071
vt 0.187500 0.750000
vt 0.187500 0.703125
vt 0.218750 0.750000
vt 0.218750 0.703125
vt 0.343750 0.750000
vt 0.343750 0.703125
vt 0.375000 0.750000
vt 0.375000 0.703125
vt 0.171875 0.593750
vt 0.171875 0.625000
vt 0.125000 0.593750
vt 0.125000 0.625000
vt 0.234375 0.625000
vt 0.234375 0.593750
vt 0.187500 0.625000
vt 0.187500 0.593750
vt 0.312500 0.687500
vt 0.312500 0.640625
vt 0.359375 0.687500
vt 0.359375 0.640625
vt 0.250000 0.687500
vt 0.250000 0.640625
vt 0.296875 0.687500
vt 0.296875 0.640625
vt 0.125000 0.875000
vt 0.125000 0.812500
vt 0.218750 0.875000
vt 0.218750 0.812500
vt 0.125000 0.750000
vt 0.281250 0.781250
vt 0.281250 0.875000
vt 0.218750 0.781250
vt 0.281250 0.687500
vt 0.218750 0.687500
vt 0.281250 0.812500
vt 0.343750 0.875000
vt 0.343750 0.812500
vt 0.125000 0.687500
vt 0.187500 0.687500
vt 0.000000 1.000000
vt 0.000000 0.937500
vt 0.062500 1.000000
vt 0.281250 0.750000
vt 0.343750 0.687500
vt 0.250000 0.625000
vt 0.375000 0.718750
vt 0.406250 0.750000
vt 0.406250 0.718750
vt 0.375000 0.687500
vt 0.406250 0.687500
vt 0.343750 0.593750
vt 0.343750 0.625000
vt 0.312500 0.593750
vt 0.312500 0.625000
vt 0.406250 0.656250
vt 0.375000 0.656250
vt 0.281250 0.625000
vt 0.281250 0.593750
vt 0.250000 0.593750
vt 0.000000 0.953125
vt 0.593750 1.000000
vt 0.593750 0.953125
vt 0.000000 0.890625
vt 0.593750 0.937500
vt 0.593750 0.890625
vt 0.046875 0.281250
vt 0.046875 0.875000
vt 0.000000 0.281250
vt 0.000000 0.875000
vt 0.109375 0.875000
vt 0.109375 0.281250
vt 0.062500 0.875000
vt 0.062500 0.281250
vt 0.343750 0.765625
vt 0.390625 0.812500
vt 0.390625 0.765625
vt 0.343750 0.828125
vt 0.390625 0.875000
vt 0.390625 0.828125
s 0
usemtl Material_0.005
f 1/1/1 3/2/1 2/3/1
f 3/2/1 4/4/1 2/3/1
f 5/5/2 7/6/2 6/7/2
f 7/6/2 8/8/2 6/7/2
f 9/9/3 11/10/3 10/11/3
f 11/10/3 12/12/3 10/11/3
f 13/13/4 15/14/4 14/15/4
f 15/14/4 16/16/4 14/15/4
f 17/17/5 19/18/5 18/19/5
f 19/18/5 20/20/5 18/19/5
f 21/21/6 23/22/6 22/23/6
f 23/22/6 24/24/6 22/23/6
f 25/25/7 27/26/7 26/27/7
f 27/26/7 28/28/7 26/27/7
f 29/26/8 31/29/8 30/28/8
f 31/29/8 32/3/8 30/28/8
f 33/30/9 35/31/9 34/32/9
f 35/31/9 36/27/9 34/32/9
f 37/30/10 39/33/10 38/32/10
f 39/33/10 40/34/10 38/32/10
f 41/31/5 43/35/5 42/36/5
f 43/35/5 44/37/5 42/36/5
f 45/29/6 47/38/6 46/1/6
f 47/38/6 48/39/6 46/1/6
f 49/40/1 51/41/1 50/40/1
f 51/41/1 52/41/1 50/40/1
f 53/40/2 55/41/2 54/40/2
f 55/41/2 56/41/2 54/40/2
f 57/42/3 59/42/3 58/40/3
f 59/42/3 60/40/3 58/40/3
f 61/42/4 63/42/4 62/40/4
f 63/42/4 64/40/4 62/40/4
f 65/43/5 67/33/5 66/5/5
f 67/33/5 68/44/5 66/5/5
f 69/35/6 71/43/6 70/37/6
f 71/43/6 72/5/6 70/37/6
f 73/40/9 75/41/9 74/40/9
f 75/41/9 76/41/9 74/40/9
f 77/40/10 79/41/10 78/40/10
f 79/41/10 80/41/10 78/40/10
f 81/42/8 83/42/8 82/40/8
f 83/42/8 84/40/8 82/40/8
f 85/42/7 87/42/7 86/40/7
f 87/42/7 88/40/7 86/40/7
f 89/39/5 91/15/5 90/21/5
f 91/15/5 92/45/5 90/21/5
f 93/38/6 95/12/6 94/39/6
f 95/12/6 96/15/6 94/39/6
f 97/7/1 99/46/1 98/47/1
f 99/46/1 100/48/1 98/47/1
f 101/46/2 103/49/2 102/48/2
f 103/49/2 104/50/2 102/48/2
f 105/51/3 107/52/3 106/53/3
f 107/52/3 108/54/3 106/53/3
f 109/50/4 111/55/4 110/49/4
f 111/55/4 112/56/4 110/49/4
f 113/57/5 115/58/5 114/54/5
f 115/58/5 116/53/5 114/54/5
f 117/45/6 119/59/6 118/57/6
f 119/59/6 120/58/6 118/57/6
f 121/40/9 123/60/9 122/61/9
f 123/60/9 124/62/9 122/61/9
f 125/41/10 127/63/10 126/64/10
f 127/63/10 128/65/10 126/64/10
f 129/66/8 131/67/8 130/68/8
f 131/67/8 132/69/8 130/68/8
f 133/70/7 135/71/7 134/72/7
f 135/71/7 136/73/7 134/72/7
f 137/37/5 139/74/5 138/75/5
f 139/74/5 140/76/5 138/75/5
f 141/36/6 143/77/6 142/78/6
f 143/77/6 144/79/6 142/78/6
