# Blender 4.2.2 LTS
# www.blender.org
mtllib lev.939_shell.mtl
o shellModel
v 1.687144 0.296788 -0.301308
v -0.232239 0.296788 -0.301308
v 1.687144 -0.297950 -0.301308
v -0.232239 -0.297950 -0.301308
v -0.232239 0.296788 0.293430
v 1.687144 0.296788 0.293431
v -0.232239 -0.297950 0.293430
v 1.687144 -0.297950 0.293431
v -0.232239 0.296788 0.293430
v -0.232239 0.296788 -0.301308
v 1.687144 0.296788 0.293431
v 1.687144 0.296788 -0.301308
v 1.687144 -0.297950 0.293431
v 1.687144 -0.297950 -0.301308
v -0.232239 -0.297950 0.293430
v -0.232239 -0.297950 -0.301308
v 1.687144 0.296788 0.293431
v 1.687144 0.296788 -0.301308
v 1.687144 -0.297950 0.293431
v 1.687144 -0.297950 -0.301308
v -0.232239 0.296788 -0.301308
v -0.232239 0.296788 0.293430
v -0.232239 -0.297950 -0.301308
v -0.232239 -0.297950 0.293430
vn -0.0000 -0.0000 -1.0000
vn -0.0000 -0.0000 1.0000
vn -0.0000 1.0000 -0.0000
vn -0.0000 -1.0000 -0.0000
vn 1.0000 -0.0000 -0.0000
vn -1.0000 -0.0000 -0.0000
vt 0.000000 1.000000
vt 0.000000 0.937500
vt 0.250000 1.000000
vt 0.250000 0.937500
vt 0.000000 0.875000
vt 0.000000 0.812500
vt 0.250000 0.875000
vt 0.250000 0.812500
vt 0.062500 0.500000
vt 0.062500 0.750000
vt 0.000000 0.500000
vt 0.000000 0.750000
vt 0.312500 1.000000
vt 0.312500 0.750000
vt 0.250000 0.750000
vt 0.250000 0.687500
vt 0.312500 0.687500
vt 0.125000 0.750000
vt 0.125000 0.687500
vt 0.187500 0.750000
vt 0.187500 0.687500
s 0
usemtl Material_0
f 1/1/1 3/2/1 2/3/1
f 3/2/1 4/4/1 2/3/1
f 5/5/2 7/6/2 6/7/2
f 7/6/2 8/8/2 6/7/2
f 9/9/3 11/10/3 10/11/3
f 11/10/3 12/12/3 10/11/3
f 13/13/4 15/14/4 14/3/4
f 15/14/4 16/15/4 14/3/4
f 17/15/5 19/16/5 18/14/5
f 19/16/5 20/17/5 18/14/5
f 21/18/6 23/19/6 22/20/6
f 23/19/6 24/21/6 22/20/6
