# Blender 4.1.1
# www.blender.org
mtllib 76251.mtl
o shellModel
v -0.202559 0.461196 0.339802
v 1.603617 0.461196 0.339802
v -0.202559 -0.216121 0.339802
v 1.603617 -0.216121 0.339802
v 1.603617 0.461196 -0.337514
v -0.202559 0.461196 -0.337514
v 1.603617 -0.216121 -0.337514
v -0.202559 -0.216121 -0.337514
v 1.603617 0.461196 -0.337514
v 1.603617 0.461196 0.339802
v -0.202559 0.461196 -0.337514
v -0.202559 0.461196 0.339802
v -0.202559 -0.216121 -0.337514
v -0.202559 -0.216121 0.339802
v 1.603617 -0.216121 -0.337514
v 1.603617 -0.216121 0.339802
v -0.202559 0.461196 -0.337514
v -0.202559 0.461196 0.339802
v -0.202559 -0.216121 -0.337514
v -0.202559 -0.216121 0.339802
v 1.603617 0.461196 0.339802
v 1.603617 0.461196 -0.337514
v 1.603617 -0.216121 0.339802
v 1.603617 -0.216121 -0.337514
vn -0.0000 -0.0000 1.0000
vn -0.0000 -0.0000 -1.0000
vn -0.0000 1.0000 -0.0000
vn -0.0000 -1.0000 -0.0000
vn -1.0000 -0.0000 -0.0000
vn 1.0000 -0.0000 -0.0000
vt 0.000000 1.000000
vt 0.000000 0.875000
vt 0.250000 1.000000
vt 0.250000 0.875000
vt 0.000000 0.750000
vt 0.250000 0.750000
vt 0.125000 0.500000
vt 0.125000 0.750000
vt 0.000000 0.500000
vt 0.375000 1.000000
vt 0.375000 0.750000
vt 0.250000 0.625000
vt 0.375000 0.625000
vt 0.125000 0.625000
s 0
usemtl Material_0
f 1/1/1 3/2/1 2/3/1
f 3/2/1 4/4/1 2/3/1
f 5/2/2 7/5/2 6/4/2
f 7/5/2 8/6/2 6/4/2
f 9/7/3 11/8/3 10/9/3
f 11/8/3 12/5/3 10/9/3
f 13/10/4 15/11/4 14/3/4
f 15/11/4 16/6/4 14/3/4
f 17/6/5 19/12/5 18/11/5
f 19/12/5 20/13/5 18/11/5
f 21/8/6 23/14/6 22/6/6
f 23/14/6 24/12/6 22/6/6
