# Blender 5.1.1
# www.blender.org
mtllib lev.79257_sell.mtl
o shellModel
v -0.201151 0.456327 0.340000
v 1.398849 0.456327 0.340000
v -0.201151 -0.223673 0.340000
v 1.398849 -0.223673 0.340000
v 1.398849 0.456327 -0.340000
v -0.201151 0.456327 -0.340000
v 1.398849 -0.223673 -0.340000
v -0.201151 -0.223673 -0.340000
v 1.398849 0.456327 -0.340000
v 1.398849 0.456327 0.340000
v -0.201151 0.456327 -0.340000
v -0.201151 0.456327 0.340000
v -0.201151 -0.223673 -0.340000
v -0.201151 -0.223673 0.340000
v 1.398849 -0.223673 -0.340000
v 1.398849 -0.223673 0.340000
v -0.201151 0.456327 -0.340000
v -0.201151 0.456327 0.340000
v -0.201151 -0.223673 -0.340000
v -0.201151 -0.223673 0.340000
v 1.398849 0.456327 0.340000
v 1.398849 0.456327 -0.340000
v 1.398849 -0.223673 0.340000
v 1.398849 -0.223673 -0.340000
v 0.798849 0.416327 0.300000
v 1.998849 0.416327 0.300000
v 0.798849 -0.183673 0.300000
v 1.998849 -0.183673 0.300000
v 1.998849 0.416327 -0.300000
v 0.798849 0.416327 -0.300000
v 1.998849 -0.183673 -0.300000
v 0.798849 -0.183673 -0.300000
v 1.998849 0.416327 -0.300000
v 1.998849 0.416327 0.300000
v 0.798849 0.416327 -0.300000
v 0.798849 0.416327 0.300000
v 0.798849 -0.183673 -0.300000
v 0.798849 -0.183673 0.300000
v 1.998849 -0.183673 -0.300000
v 1.998849 -0.183673 0.300000
v 0.798849 0.416327 -0.300000
v 0.798849 0.416327 0.300000
v 0.798849 -0.183673 -0.300000
v 0.798849 -0.183673 0.300000
v 1.998849 0.416327 0.300000
v 1.998849 0.416327 -0.300000
v 1.998849 -0.183673 0.300000
v 1.998849 -0.183673 -0.300000
vn -0.0000 -0.0000 1.0000
vn -0.0000 -0.0000 -1.0000
vn -0.0000 1.0000 -0.0000
vn -0.0000 -1.0000 -0.0000
vn -1.0000 -0.0000 -0.0000
vn 1.0000 -0.0000 -0.0000
vt 0.000000 1.000000
vt 0.000000 0.875000
vt 0.250000 1.000000
vt 0.250000 0.875000
vt 0.000000 0.750000
vt 0.250000 0.750000
vt 0.125000 0.500000
vt 0.125000 0.750000
vt 0.000000 0.500000
vt 0.375000 1.000000
vt 0.375000 0.750000
vt 0.375000 0.625000
vt 0.375000 0.500000
vt 0.500000 0.625000
vt 0.500000 0.500000
vt 0.250000 0.625000
vt 0.250000 0.500000
vt 0.125000 0.625000
vt 0.312500 0.750000
vt 0.312500 0.625000
vt 0.375000 0.875000
vt 0.562500 1.000000
vt 0.562500 0.875000
vt 0.250000 0.437500
vt 0.125000 0.437500
vt 0.500000 0.875000
vt 0.500000 0.687500
vt 0.375000 0.687500
vt 0.500000 0.750000
vt 0.625000 0.875000
vt 0.625000 0.750000
vt 0.000000 0.375000
vt 0.125000 0.375000
s 0
usemtl Material_0.001
f 1/1/1 3/2/1 2/3/1
f 3/2/1 4/4/1 2/3/1
f 5/2/2 7/5/2 6/4/2
f 7/5/2 8/6/2 6/4/2
f 9/7/3 11/8/3 10/9/3
f 11/8/3 12/5/3 10/9/3
f 13/10/4 15/11/4 14/3/4
f 15/11/4 16/6/4 14/3/4
f 17/12/5 19/13/5 18/14/5
f 19/13/5 20/15/5 18/14/5
f 21/16/6 23/17/6 22/12/6
f 23/17/6 24/13/6 22/12/6
f 25/8/1 27/18/1 26/19/1
f 27/18/1 28/20/1 26/19/1
f 29/10/2 31/21/2 30/22/2
f 31/21/2 32/23/2 30/22/2
f 33/24/3 35/16/3 34/25/3
f 35/16/3 36/18/3 34/25/3
f 37/26/4 39/27/4 38/21/4
f 39/27/4 40/28/4 38/21/4
f 41/26/5 43/29/5 42/30/5
f 43/29/5 44/31/5 42/30/5
f 45/9/6 47/32/6 46/7/6
f 47/32/6 48/33/6 46/7/6
