# Blender 4.5.2 LTS
# www.blender.org
mtllib lev.76225_shell.mtl
o shellModel
v -0.192722 0.282763 0.197656
v 0.436184 0.282763 0.197656
v -0.192722 -0.112550 0.197656
v 0.436184 -0.112550 0.197656
v 0.436184 0.282763 -0.197656
v -0.192722 0.282763 -0.197656
v 0.436184 -0.112550 -0.197656
v -0.192722 -0.112550 -0.197656
v 0.436184 0.282763 -0.197656
v 0.436184 0.282763 0.197656
v -0.192722 0.282763 -0.197656
v -0.192722 0.282763 0.197656
v -0.192722 -0.112550 -0.197656
v -0.192722 -0.112550 0.197656
v 0.436184 -0.112550 -0.197656
v 0.436184 -0.112550 0.197656
v -0.192722 0.282763 -0.197656
v -0.192722 0.282763 0.197656
v -0.192722 -0.112550 -0.197656
v -0.192722 -0.112550 0.197656
v 0.436184 0.282763 0.197656
v 0.436184 0.282763 -0.197656
v 0.436184 -0.112550 0.197656
v 0.436184 -0.112550 -0.197656
v 0.202590 0.246825 0.161719
v 0.526028 0.246825 0.161719
v 0.202590 -0.076612 0.161719
v 0.526028 -0.076612 0.161719
v 0.526028 0.246825 -0.161719
v 0.202590 0.246825 -0.161719
v 0.526028 -0.076612 -0.161719
v 0.202590 -0.076612 -0.161719
v 0.526028 0.246825 -0.161719
v 0.526028 0.246825 0.161719
v 0.202590 0.246825 -0.161719
v 0.202590 0.246825 0.161719
v 0.202590 -0.076612 -0.161719
v 0.202590 -0.076612 0.161719
v 0.526028 -0.076612 -0.161719
v 0.526028 -0.076612 0.161719
v 0.202590 0.246825 -0.161719
v 0.202590 0.246825 0.161719
v 0.202590 -0.076612 -0.161719
v 0.202590 -0.076612 0.161719
v 0.526028 0.246825 0.161719
v 0.526028 0.246825 -0.161719
v 0.526028 -0.076612 0.161719
v 0.526028 -0.076612 -0.161719
vn -0.0000 -0.0000 1.0000
vn -0.0000 -0.0000 -1.0000
vn -0.0000 1.0000 -0.0000
vn -0.0000 -1.0000 -0.0000
vn -1.0000 -0.0000 -0.0000
vn 1.0000 -0.0000 -0.0000
vt 0.000000 1.000000
vt 0.000000 0.937500
vt 0.125000 1.000000
vt 0.125000 0.937500
vt 0.000000 0.875000
vt 0.000000 0.812500
vt 0.125000 0.875000
vt 0.125000 0.812500
vt 0.187500 0.875000
vt 0.187500 1.000000
vt 0.187500 0.750000
vt 0.125000 0.750000
vt 0.250000 1.000000
vt 0.250000 0.937500
vt 0.312500 1.000000
vt 0.312500 0.937500
vt 0.000000 0.750000
vt 0.000000 0.687500
vt 0.062500 0.750000
vt 0.062500 0.687500
vt 0.250000 0.875000
vt 0.250000 0.812500
vt 0.312500 0.875000
vt 0.312500 0.812500
vt 0.000000 0.625000
vt 0.000000 0.562500
vt 0.062500 0.625000
vt 0.062500 0.562500
vt 0.437500 0.937500
vt 0.437500 1.000000
vt 0.375000 0.937500
vt 0.375000 1.000000
vt 0.187500 0.625000
vt 0.187500 0.562500
vt 0.125000 0.625000
vt 0.125000 0.562500
vt 0.250000 0.750000
vt 0.250000 0.687500
vt 0.312500 0.750000
vt 0.312500 0.687500
vt 0.125000 0.687500
vt 0.187500 0.687500
s 0
usemtl Material_0
f 1/1/1 3/2/1 2/3/1
f 3/2/1 4/4/1 2/3/1
f 5/5/2 7/6/2 6/7/2
f 7/6/2 8/8/2 6/7/2
f 9/9/3 11/10/3 10/7/3
f 11/10/3 12/3/3 10/7/3
f 13/9/4 15/11/4 14/7/4
f 15/11/4 16/12/4 14/7/4
f 17/13/5 19/14/5 18/15/5
f 19/14/5 20/16/5 18/15/5
f 21/17/6 23/18/6 22/19/6
f 23/18/6 24/20/6 22/19/6
f 25/21/1 27/22/1 26/23/1
f 27/22/1 28/24/1 26/23/1
f 29/25/2 31/26/2 30/27/2
f 31/26/2 32/28/2 30/27/2
f 33/29/3 35/30/3 34/31/3
f 35/30/3 36/32/3 34/31/3
f 37/33/4 39/34/4 38/35/4
f 39/34/4 40/36/4 38/35/4
f 41/37/5 43/38/5 42/39/5
f 43/38/5 44/40/5 42/39/5
f 45/12/6 47/41/6 46/11/6
f 47/41/6 48/42/6 46/11/6
