# Blender 5.1.0
# www.blender.org
mtllib lev.vgm93100_shell.mtl
o shellModel
v -0.761538 0.000000 0.761538
v -0.761538 0.769231 0.761538
v 0.761538 -0.000000 0.761538
v 0.761538 0.769231 0.761538
v -0.761538 0.769231 -0.761538
v -0.761538 0.000000 -0.761538
v 0.761538 0.769231 -0.761538
v 0.761538 -0.000000 -0.761538
v -0.761538 0.769231 -0.761538
v -0.761538 0.769231 0.761538
v -0.761538 0.000000 -0.761538
v -0.761538 0.000000 0.761538
v 0.761538 -0.000000 -0.761538
v 0.761538 -0.000000 0.761538
v 0.761538 0.769231 -0.761538
v 0.761538 0.769231 0.761538
v -0.761538 0.000000 -0.761538
v -0.761538 0.000000 0.761538
v 0.761538 -0.000000 -0.761538
v 0.761538 -0.000000 0.761538
v -0.761538 0.769231 0.761538
v -0.761538 0.769231 -0.761538
v 0.761538 0.769231 0.761538
v 0.761538 0.769231 -0.761538
vn -0.0000 -0.0000 1.0000
vn -0.0000 -0.0000 -1.0000
vn -1.0000 -0.0000 -0.0000
vn 1.0000 -0.0000 -0.0000
vn -0.0000 -1.0000 -0.0000
vn -0.0000 1.0000 -0.0000
vt 0.375000 0.750000
vt 0.375000 0.625000
vt 0.437500 0.750000
vt 0.437500 0.625000
vt 0.375000 0.500000
vt 0.437500 0.500000
vt 0.562500 0.687500
vt 0.562500 0.750000
vt 0.437500 0.687500
vt 0.562500 0.625000
vt 0.125000 0.625000
vt 0.125000 0.500000
vt 0.250000 0.625000
vt 0.250000 0.500000
vt 0.375000 1.000000
vt 0.375000 0.875000
vt 0.500000 1.000000
vt 0.500000 0.875000
s 0
usemtl Material_0.001
f 1/1/1 3/2/1 2/3/1
f 3/2/1 4/4/1 2/3/1
f 5/2/2 7/5/2 6/4/2
f 7/5/2 8/6/2 6/4/2
f 9/7/3 11/8/3 10/9/3
f 11/8/3 12/3/3 10/9/3
f 13/7/4 15/10/4 14/9/4
f 15/10/4 16/4/4 14/9/4
f 17/11/5 19/12/5 18/13/5
f 19/12/5 20/14/5 18/13/5
f 21/15/6 23/16/6 22/17/6
f 23/16/6 24/18/6 22/17/6
