# Blender 4.1.1
# www.blender.org
mtllib 921_shell.mtl
o shellModel
v 0.599463 0.365950 -0.250001
v -0.169767 0.365950 -0.250001
v 0.599463 -0.134050 -0.250001
v -0.169767 -0.134050 -0.250001
v -0.169767 0.365950 0.249998
v 0.599463 0.365950 0.249999
v -0.169767 -0.134050 0.249998
v 0.599463 -0.134050 0.249999
v -0.169767 0.365950 0.249998
v -0.169767 0.365950 -0.250001
v 0.599463 0.365950 0.249999
v 0.599463 0.365950 -0.250001
v 0.599463 -0.134050 0.249999
v 0.599463 -0.134050 -0.250001
v -0.169767 -0.134050 0.249998
v -0.169767 -0.134050 -0.250001
v 0.599463 0.365950 0.249999
v 0.599463 0.365950 -0.250001
v 0.599463 -0.134050 0.249999
v 0.599463 -0.134050 -0.250001
v -0.169767 0.365950 -0.250001
v -0.169767 0.365950 0.249998
v -0.169767 -0.134050 -0.250001
v -0.169767 -0.134050 0.249998
vn -0.0000 -0.0000 -1.0000
vn -0.0000 -0.0000 1.0000
vn -0.0000 1.0000 -0.0000
vn -0.0000 -1.0000 -0.0000
vn 1.0000 -0.0000 -0.0000
vn -1.0000 -0.0000 -0.0000
vt 0.000000 1.000000
vt 0.000000 0.937500
vt 0.125000 1.000000
vt 0.125000 0.937500
vt 0.000000 0.875000
vt 0.000000 0.812500
vt 0.125000 0.875000
vt 0.125000 0.812500
vt 0.187500 0.875000
vt 0.187500 1.000000
vt 0.187500 0.750000
vt 0.125000 0.750000
vt 0.250000 1.000000
vt 0.250000 0.937500
vt 0.312500 1.000000
vt 0.312500 0.937500
vt 0.000000 0.750000
vt 0.000000 0.687500
vt 0.062500 0.750000
vt 0.062500 0.687500
s 0
usemtl Material_0
f 1/1/1 3/2/1 2/3/1
f 3/2/1 4/4/1 2/3/1
f 5/5/2 7/6/2 6/7/2
f 7/6/2 8/8/2 6/7/2
f 9/9/3 11/10/3 10/7/3
f 11/10/3 12/3/3 10/7/3
f 13/9/4 15/11/4 14/7/4
f 15/11/4 16/12/4 14/7/4
f 17/13/5 19/14/5 18/15/5
f 19/14/5 20/16/5 18/15/5
f 21/17/6 23/18/6 22/19/6
f 23/18/6 24/20/6 22/19/6
