# Blender 5.2.0 LTS
# www.blender.org
mtllib lev.bramit.mtl
o attachmentModel
v 0.000000 0.576923 0.576923
v 5.769230 0.576923 0.576923
v 0.000000 -0.576923 0.576923
v 5.769230 -0.576923 0.576923
v 5.769230 0.576923 -0.576923
v -0.000000 0.576923 -0.576923
v 5.769230 -0.576923 -0.576923
v -0.000000 -0.576923 -0.576923
v 5.769230 0.576923 -0.576923
v 5.769230 0.576923 0.576923
v -0.000000 0.576923 -0.576923
v 0.000000 0.576923 0.576923
v -0.000000 -0.576923 -0.576923
v 0.000000 -0.576923 0.576923
v 5.769230 -0.576923 -0.576923
v 5.769230 -0.576923 0.576923
v -0.000000 0.576923 -0.576923
v 0.000000 0.576923 0.576923
v -0.000000 -0.576923 -0.576923
v 0.000000 -0.576923 0.576923
v 5.769230 0.576923 0.576923
v 5.769230 0.576923 -0.576923
v 5.769230 -0.576923 0.576923
v 5.769230 -0.576923 -0.576923
v 5.584615 -0.000000 0.543928
v 5.776923 -0.000000 0.543928
v 5.584615 -0.543928 -0.000000
v 5.776923 -0.543928 -0.000000
v 5.776923 0.543928 -0.000000
v 5.584615 0.543928 -0.000000
v 5.776923 0.000000 -0.543929
v 5.584615 0.000000 -0.543929
v 5.776923 0.543928 -0.000000
v 5.776923 -0.000000 0.543928
v 5.584615 0.543928 -0.000000
v 5.584615 -0.000000 0.543928
v 5.584615 0.000000 -0.543929
v 5.584615 -0.543928 -0.000000
v 5.776923 0.000000 -0.543929
v 5.776923 -0.543928 -0.000000
v 5.584615 0.543928 -0.000000
v 5.584615 -0.000000 0.543928
v 5.584615 0.000000 -0.543929
v 5.584615 -0.543928 -0.000000
v 5.776923 -0.000000 0.543928
v 5.776923 0.543928 -0.000000
v 5.776923 -0.543928 -0.000000
v 5.776923 0.000000 -0.543929
v -3.084615 -0.000000 0.554807
v 0.007692 -0.000000 0.554807
v -3.084615 -0.554807 0.000000
v 0.007692 -0.554807 -0.000000
v 0.007692 0.554807 0.000000
v -3.084615 0.554807 0.000000
v 0.007692 0.000000 -0.554807
v -3.084615 0.000000 -0.554807
v 0.007692 0.554807 0.000000
v 0.007692 -0.000000 0.554807
v -3.084615 0.554807 0.000000
v -3.084615 -0.000000 0.554807
v -3.084615 0.000000 -0.554807
v -3.084615 -0.554807 0.000000
v 0.007692 0.000000 -0.554807
v 0.007692 -0.554807 -0.000000
v -3.084615 0.554807 0.000000
v -3.084615 -0.000000 0.554807
v -3.084615 0.000000 -0.554807
v -3.084615 -0.554807 0.000000
v 0.007692 -0.000000 0.554807
v 0.007692 0.554807 0.000000
v 0.007692 -0.554807 -0.000000
v 0.007692 0.000000 -0.554807
v 0.006154 0.000000 -0.552631
v -3.083077 0.000000 -0.552631
v 0.006154 0.552631 0.000000
v -3.083077 0.552631 0.000000
v -3.083077 -0.552631 -0.000000
v 0.006154 -0.552631 -0.000000
v -3.083077 -0.000000 0.552631
v 0.006154 -0.000000 0.552631
v -3.083077 -0.552631 -0.000000
v -3.083077 0.000000 -0.552631
v 0.006154 -0.552631 -0.000000
v 0.006154 0.000000 -0.552631
v 0.006154 -0.000000 0.552631
v 0.006154 0.552631 0.000000
v -3.083077 -0.000000 0.552631
v -3.083077 0.552631 0.000000
v 0.006154 -0.552631 -0.000000
v 0.006154 0.000000 -0.552631
v 0.006154 -0.000000 0.552631
v 0.006154 0.552631 0.000000
v -3.083077 0.000000 -0.552631
v -3.083077 -0.552631 -0.000000
v -3.083077 0.552631 0.000000
v -3.083077 -0.000000 0.552631
vn -0.0000 -0.0000 1.0000
vn -0.0000 -0.0000 -1.0000
vn -0.0000 1.0000 -0.0000
vn -0.0000 -1.0000 -0.0000
vn -1.0000 -0.0000 -0.0000
vn 1.0000 -0.0000 -0.0000
vn -0.0000 -0.7071 0.7071
vn -0.0000 0.7071 -0.7071
vn -0.0000 0.7071 0.7071
vn -0.0000 -0.7071 -0.7071
vt 0.000000 1.000000
vt 0.000000 0.906250
vt 0.468750 1.000000
vt 0.468750 0.906250
vt 0.000000 0.875000
vt 0.000000 0.781250
vt 0.468750 0.875000
vt 0.468750 0.781250
vt 0.093750 0.281250
vt 0.093750 0.750000
vt 0.000000 0.281250
vt 0.000000 0.750000
vt 0.218750 0.750000
vt 0.218750 0.281250
vt 0.125000 0.750000
vt 0.125000 0.281250
vt 0.437500 0.500000
vt 0.437500 0.406250
vt 0.531250 0.500000
vt 0.531250 0.406250
vt 0.500000 0.750000
vt 0.500000 0.656250
vt 0.593750 0.750000
vt 0.593750 0.656250
vt 0.625000 1.000000
vt 0.625000 0.937500
vt 0.656250 1.000000
vt 0.656250 0.937500
vt 0.625000 0.875000
vt 0.656250 0.875000
vt 0.687500 0.843750
vt 0.687500 0.875000
vt 0.625000 0.843750
vt 0.687500 0.812500
vt 0.687500 0.781250
vt 0.625000 0.812500
vt 0.625000 0.781250
vt 0.562500 0.937500
vt 0.562500 0.875000
vt 0.562500 1.000000
vt 0.250000 0.750000
vt 0.250000 0.687500
vt 0.500000 0.687500
vt 0.250000 0.625000
vt 0.500000 0.625000
vt 0.312500 0.375000
vt 0.312500 0.625000
vt 0.250000 0.375000
vt 0.375000 0.625000
vt 0.375000 0.375000
vt 0.562500 0.812500
vt 0.562500 0.750000
vt 0.625000 0.750000
vt 0.375000 0.562500
vt 0.625000 0.625000
vt 0.625000 0.562500
vt 0.375000 0.500000
vt 0.625000 0.500000
vt 0.500000 1.000000
vt 0.437500 0.250000
vt 0.375000 0.250000
vt 0.562500 0.437500
vt 0.562500 0.375000
vt 0.625000 0.437500
vt 0.625000 0.375000
vt 0.562500 0.500000
s 0
usemtl Material_0.002
f 1/1/1 3/2/1 2/3/1
f 3/2/1 4/4/1 2/3/1
f 5/5/2 7/6/2 6/7/2
f 7/6/2 8/8/2 6/7/2
f 9/9/3 11/10/3 10/11/3
f 11/10/3 12/12/3 10/11/3
f 13/13/4 15/14/4 14/15/4
f 15/14/4 16/16/4 14/15/4
f 17/17/5 19/18/5 18/19/5
f 19/18/5 20/20/5 18/19/5
f 21/21/6 23/22/6 22/23/6
f 23/22/6 24/24/6 22/23/6
f 25/25/7 27/26/7 26/27/7
f 27/26/7 28/28/7 26/27/7
f 29/26/8 31/29/8 30/28/8
f 31/29/8 32/30/8 30/28/8
f 33/31/9 35/32/9 34/33/9
f 35/32/9 36/29/9 34/33/9
f 37/34/10 39/35/10 38/36/10
f 39/35/10 40/37/10 38/36/10
f 41/38/5 43/39/5 42/26/5
f 43/39/5 44/29/5 42/26/5
f 45/40/6 47/38/6 46/25/6
f 47/38/6 48/26/6 46/25/6
f 49/41/7 51/42/7 50/21/7
f 51/42/7 52/43/7 50/21/7
f 53/42/8 55/44/8 54/43/8
f 55/44/8 56/45/8 54/43/8
f 57/46/9 59/47/9 58/48/9
f 59/47/9 60/44/9 58/48/9
f 61/49/10 63/50/10 62/47/10
f 63/50/10 64/46/10 62/47/10
f 65/51/5 67/52/5 66/36/5
f 67/52/5 68/53/5 66/36/5
f 69/39/6 71/51/6 70/29/6
f 71/51/6 72/36/6 70/29/6
f 73/49/7 75/54/7 74/55/7
f 75/54/7 76/56/7 74/55/7
f 77/54/8 79/57/8 78/56/8
f 79/57/8 80/58/8 78/56/8
f 81/52/9 83/40/9 82/21/9
f 83/40/9 84/59/9 82/21/9
f 85/17/10 87/60/10 86/57/10
f 87/60/10 88/61/10 86/57/10
f 89/62/5 91/63/5 90/64/5
f 91/63/5 92/65/5 90/64/5
f 93/66/6 95/62/6 94/58/6
f 95/62/6 96/64/6 94/58/6
