# Blender 4.2.3 LTS
# www.blender.org
mtllib lev.perst3.mtl
o attachmentModel
v -1.538461 0.961538 0.769231
v 1.538462 0.961538 0.769230
v -1.538461 -0.961538 0.769231
v 1.538462 -0.961538 0.769230
v 1.538461 0.961538 -0.000000
v -1.538461 0.961538 0.000000
v 1.538461 -0.961538 -0.000000
v -1.538461 -0.961538 0.000000
v 1.538461 0.961538 -0.000000
v 1.538462 0.961538 0.769230
v -1.538461 0.961538 0.000000
v -1.538461 0.961538 0.769231
v -1.538461 -0.961538 0.000000
v -1.538461 -0.961538 0.769231
v 1.538461 -0.961538 -0.000000
v 1.538462 -0.961538 0.769230
v -1.538461 0.961538 0.000000
v -1.538461 0.961538 0.769231
v -1.538461 -0.961538 0.000000
v -1.538461 -0.961538 0.769231
v 1.538462 0.961538 0.769230
v 1.538461 0.961538 -0.000000
v 1.538462 -0.961538 0.769230
v 1.538461 -0.961538 -0.000000
v 1.538462 0.961538 0.769230
v 2.307692 0.961538 0.769230
v 1.538462 0.192308 0.769230
v 2.307692 0.192308 0.769230
v 2.307692 0.961538 -0.000000
v 1.538461 0.961538 -0.000000
v 2.307692 0.192308 -0.000000
v 1.538461 0.192308 -0.000000
v 2.307692 0.961538 -0.000000
v 2.307692 0.961538 0.769230
v 1.538461 0.961538 -0.000000
v 1.538462 0.961538 0.769230
v 1.538461 0.192308 -0.000000
v 1.538462 0.192308 0.769230
v 2.307692 0.192308 -0.000000
v 2.307692 0.192308 0.769230
v 1.538461 0.961538 -0.000000
v 1.538462 0.961538 0.769230
v 1.538461 0.192308 -0.000000
v 1.538462 0.192308 0.769230
v 2.307692 0.961538 0.769230
v 2.307692 0.961538 -0.000000
v 2.307692 0.192308 0.769230
v 2.307692 0.192308 -0.000000
v 1.538462 -0.032995 0.384615
v 1.923077 -0.032995 0.384615
v 1.538462 -0.576923 0.928543
v 1.923077 -0.576923 0.928543
v 1.923077 -0.576923 -0.159313
v 1.538461 -0.576923 -0.159313
v 1.923077 -1.120851 0.384615
v 1.538462 -1.120851 0.384615
v 1.923077 -0.576923 -0.159313
v 1.923077 -0.032995 0.384615
v 1.538461 -0.576923 -0.159313
v 1.538462 -0.032995 0.384615
v 1.538462 -1.120851 0.384615
v 1.538462 -0.576923 0.928543
v 1.923077 -1.120851 0.384615
v 1.923077 -0.576923 0.928543
v 1.538461 -0.576923 -0.159313
v 1.538462 -0.032995 0.384615
v 1.538462 -1.120851 0.384615
v 1.538462 -0.576923 0.928543
v 1.923077 -0.032995 0.384615
v 1.923077 -0.576923 -0.159313
v 1.923077 -0.576923 0.928543
v 1.923077 -1.120851 0.384615
v -1.923077 0.769231 0.769231
v -1.538461 0.769231 0.769231
v -1.923077 0.000000 0.769231
v -1.538461 0.000000 0.769231
v -1.538461 0.769231 0.000000
v -1.923077 0.769231 0.000000
v -1.538461 0.000000 0.000000
v -1.923077 0.000000 0.000000
v -1.538461 0.769231 0.000000
v -1.538461 0.769231 0.769231
v -1.923077 0.769231 0.000000
v -1.923077 0.769231 0.769231
v -1.923077 0.000000 0.000000
v -1.923077 0.000000 0.769231
v -1.538461 0.000000 0.000000
v -1.538461 0.000000 0.769231
v -1.923077 0.769231 0.000000
v -1.923077 0.769231 0.769231
v -1.923077 0.000000 0.000000
v -1.923077 0.000000 0.769231
v -1.538461 0.769231 0.769231
v -1.538461 0.769231 0.000000
v -1.538461 0.000000 0.769231
v -1.538461 0.000000 0.000000
v -1.923077 -0.960769 0.384616
v -1.538461 -0.960769 0.384616
v -1.923077 -0.961538 0.384616
v -1.538461 -0.961538 0.384616
v -1.538461 -0.960769 0.000000
v -1.923077 -0.960769 0.000000
v -1.538461 -0.961538 0.000000
v -1.923077 -0.961538 0.000000
v -1.538461 -0.960769 0.000000
v -1.538461 -0.960769 0.384616
v -1.923077 -0.960769 0.000000
v -1.923077 -0.960769 0.384616
v -1.923077 -0.961538 0.000000
v -1.923077 -0.961538 0.384616
v -1.538461 -0.961538 0.000000
v -1.538461 -0.961538 0.384616
v -1.923077 -0.960769 0.000000
v -1.923077 -0.960769 0.384616
v -1.923077 -0.961538 0.000000
v -1.923077 -0.961538 0.384616
v -1.538461 -0.960769 0.384616
v -1.538461 -0.960769 0.000000
v -1.538461 -0.961538 0.384616
v -1.538461 -0.961538 0.000000
v 0.961538 -0.961538 0.576923
v 1.346154 -0.961538 0.576923
v 0.961538 -1.153846 0.576923
v 1.346154 -1.153846 0.576923
v 1.346154 -0.961538 0.192307
v 0.961538 -0.961538 0.192307
v 1.346154 -1.153846 0.192307
v 0.961538 -1.153846 0.192307
v 1.346154 -0.961538 0.192307
v 1.346154 -0.961538 0.576923
v 0.961538 -0.961538 0.192307
v 0.961538 -0.961538 0.576923
v 0.961538 -1.153846 0.192307
v 0.961538 -1.153846 0.576923
v 1.346154 -1.153846 0.192307
v 1.346154 -1.153846 0.576923
v 0.961538 -0.961538 0.192307
v 0.961538 -0.961538 0.576923
v 0.961538 -1.153846 0.192307
v 0.961538 -1.153846 0.576923
v 1.346154 -0.961538 0.576923
v 1.346154 -0.961538 0.192307
v 1.346154 -1.153846 0.576923
v 1.346154 -1.153846 0.192307
v 0.961539 -0.384615 0.961538
v 1.346154 -0.384615 0.961538
v 0.961539 -0.769231 0.961538
v 1.346154 -0.769231 0.961538
v 1.346154 -0.384615 0.769230
v 0.961539 -0.384615 0.769231
v 1.346154 -0.769231 0.769230
v 0.961539 -0.769231 0.769231
v 1.346154 -0.384615 0.769230
v 1.346154 -0.384615 0.961538
v 0.961539 -0.384615 0.769231
v 0.961539 -0.384615 0.961538
v 0.961539 -0.769231 0.769231
v 0.961539 -0.769231 0.961538
v 1.346154 -0.769231 0.769230
v 1.346154 -0.769231 0.961538
v 0.961539 -0.384615 0.769231
v 0.961539 -0.384615 0.961538
v 0.961539 -0.769231 0.769231
v 0.961539 -0.769231 0.961538
v 1.346154 -0.384615 0.961538
v 1.346154 -0.384615 0.769230
v 1.346154 -0.769231 0.961538
v 1.346154 -0.769231 0.769230
v -0.769231 -0.032995 0.777692
v -0.225302 -0.576923 0.777692
v -1.313159 -0.576923 0.777692
v -0.769231 -1.120851 0.777692
v -0.225302 -0.576923 0.776923
v -0.769231 -0.032995 0.776923
v -0.769231 -1.120851 0.776923
v -1.313159 -0.576923 0.776923
v -0.225302 -0.576923 0.776923
v -0.225302 -0.576923 0.777692
v -0.769231 -0.032995 0.776923
v -0.769231 -0.032995 0.777692
v -1.313159 -0.576923 0.776923
v -1.313159 -0.576923 0.777692
v -0.769231 -1.120851 0.776923
v -0.769231 -1.120851 0.777692
v -0.769231 -0.032995 0.776923
v -0.769231 -0.032995 0.777692
v -1.313159 -0.576923 0.776923
v -1.313159 -0.576923 0.777692
v -0.225302 -0.576923 0.777692
v -0.225302 -0.576923 0.776923
v -0.769231 -1.120851 0.777692
v -0.769231 -1.120851 0.776923
vn -0.0000 -0.0000 1.0000
vn -0.0000 -0.0000 -1.0000
vn -0.0000 1.0000 -0.0000
vn -0.0000 -1.0000 -0.0000
vn -1.0000 -0.0000 -0.0000
vn 1.0000 -0.0000 -0.0000
vn -0.0000 0.7071 0.7071
vn -0.0000 -0.7071 -0.7071
vn -0.0000 0.7071 -0.7071
vn -0.0000 -0.7071 0.7071
vn 0.7071 0.7071 -0.0000
vn -0.7071 -0.7071 -0.0000
vn -0.7071 0.7071 -0.0000
vn 0.7071 -0.7071 -0.0000
vt 0.000000 1.000000
vt 0.000000 0.843750
vt 0.250000 1.000000
vt 0.250000 0.843750
vt 0.000000 0.812500
vt 0.000000 0.656250
vt 0.250000 0.812500
vt 0.250000 0.656250
vt 0.312500 0.750000
vt 0.312500 1.000000
vt 0.250000 0.750000
vt 0.312500 0.500000
vt 0.250000 0.500000
vt 0.312500 0.812500
vt 0.312500 0.656250
vt 0.375000 0.812500
vt 0.375000 0.656250
vt 0.312500 0.843750
vt 0.375000 1.000000
vt 0.375000 0.843750
vt 0.375000 0.937500
vt 0.375000 0.875000
vt 0.437500 0.937500
vt 0.437500 0.875000
vt 0.437500 0.812500
vt 0.250000 0.562500
vt 0.250000 0.625000
vt 0.187500 0.562500
vt 0.187500 0.625000
vt 0.437500 0.750000
vt 0.375000 0.750000
vt 0.125000 0.625000
vt 0.125000 0.562500
vt 0.062500 0.625000
vt 0.062500 0.562500
vt 0.125000 0.500000
vt 0.156250 0.562500
vt 0.156250 0.500000
vt 0.468750 0.875000
vt 0.468750 0.812500
vt 0.250000 0.531250
vt 0.187500 0.531250
vt 0.500000 0.812500
vt 0.500000 0.781250
vt 0.437500 0.781250
vt 0.375000 0.625000
vt 0.375000 0.562500
vt 0.437500 0.625000
vt 0.437500 0.562500
vt 0.375000 0.687500
vt 0.437500 0.687500
vt 0.000000 0.562500
vt 0.000000 0.500000
vt 0.031250 0.562500
vt 0.031250 0.500000
vt 0.437500 1.000000
vt 0.468750 1.000000
vt 0.468750 0.937500
vt 0.125000 0.531250
vt 0.062500 0.531250
vt 0.500000 0.937500
vt 0.500000 0.906250
vt 0.437500 0.906250
vt 0.312500 0.625000
vt 0.312500 0.562500
vt 0.031250 1.000000
vt 0.218750 0.468750
vt 0.218750 0.500000
vt 0.187500 0.468750
vt 0.187500 0.500000
vt 0.531250 0.812500
vt 0.531250 0.781250
vt 0.500000 1.000000
vt 0.500000 0.968750
vt 0.531250 1.000000
vt 0.531250 0.968750
vt 0.531250 0.937500
vt 0.531250 0.906250
vt 0.156250 0.468750
vt 0.125000 0.468750
vt 0.531250 0.875000
vt 0.531250 0.843750
vt 0.500000 0.875000
vt 0.500000 0.843750
vt 0.062500 0.500000
vt 0.062500 0.468750
vt 0.093750 0.500000
vt 0.093750 0.468750
vt 0.000000 0.468750
vt 0.031250 0.468750
vt 0.312500 0.531250
vt 0.343750 0.562500
vt 0.343750 0.531250
vt 0.375000 0.531250
vt 0.406250 0.562500
vt 0.406250 0.531250
vt 0.468750 0.593750
vt 0.468750 0.625000
vt 0.437500 0.593750
vt 0.468750 0.562500
vt 0.468750 0.531250
vt 0.437500 0.531250
vt 0.437500 0.656250
vt 0.468750 0.687500
vt 0.468750 0.656250
vt 0.437500 0.718750
vt 0.468750 0.750000
vt 0.468750 0.718750
vt 0.000000 0.625000
vt 0.000000 0.937500
s 0
usemtl Material_0
f 1/1/1 3/2/1 2/3/1
f 3/2/1 4/4/1 2/3/1
f 5/5/2 7/6/2 6/7/2
f 7/6/2 8/8/2 6/7/2
f 9/9/3 11/10/3 10/11/3
f 11/10/3 12/3/3 10/11/3
f 13/9/4 15/12/4 14/11/4
f 15/12/4 16/13/4 14/11/4
f 17/14/5 19/15/5 18/16/5
f 19/15/5 20/17/5 18/16/5
f 21/10/6 23/18/6 22/19/6
f 23/18/6 24/20/6 22/19/6
f 25/21/1 27/22/1 26/23/1
f 27/22/1 28/24/1 26/23/1
f 29/22/2 31/16/2 30/24/2
f 31/16/2 32/25/2 30/24/2
f 33/26/3 35/27/3 34/28/3
f 35/27/3 36/29/3 34/28/3
f 37/25/4 39/30/4 38/16/4
f 39/30/4 40/31/4 38/16/4
f 41/32/5 43/33/5 42/29/5
f 43/33/5 44/28/5 42/29/5
f 45/34/6 47/35/6 46/32/6
f 47/35/6 48/33/6 46/32/6
f 49/33/7 51/36/7 50/37/7
f 51/36/7 52/38/7 50/37/7
f 53/24/8 55/25/8 54/39/8
f 55/25/8 56/40/8 54/39/8
f 57/41/9 59/26/9 58/42/9
f 59/26/9 60/28/9 58/42/9
f 61/43/10 63/44/10 62/25/10
f 63/44/10 64/45/10 62/25/10
f 65/46/5 67/47/5 66/48/5
f 67/47/5 68/49/5 66/48/5
f 69/50/6 71/46/6 70/51/6
f 71/46/6 72/48/6 70/51/6
f 73/52/1 75/53/1 74/54/1
f 75/53/1 76/55/1 74/54/1
f 77/56/2 79/23/2 78/57/2
f 79/23/2 80/58/2 78/57/2
f 81/59/3 83/33/3 82/60/3
f 83/33/3 84/35/3 82/60/3
f 85/61/4 87/62/4 86/23/4
f 87/62/4 88/63/4 86/23/4
f 89/64/5 91/65/5 90/46/5
f 91/65/5 92/47/5 90/46/5
f 93/31/6 95/50/6 94/30/6
f 95/50/6 96/51/6 94/30/6
f 97/1/1 99/1/1 98/66/1
f 99/1/1 100/66/1 98/66/1
f 101/1/2 103/1/2 102/66/2
f 103/1/2 104/66/2 102/66/2
f 105/67/3 107/68/3 106/69/3
f 107/68/3 108/70/3 106/69/3
f 109/71/4 111/72/4 110/43/4
f 111/72/4 112/44/4 110/43/4
f 113/1/5 115/1/5 114/66/5
f 115/1/5 116/66/5 114/66/5
f 117/1/6 119/1/6 118/66/6
f 119/1/6 120/66/6 118/66/6
f 121/73/1 123/74/1 122/75/1
f 123/74/1 124/76/1 122/75/1
f 125/61/2 127/62/2 126/77/2
f 127/62/2 128/78/2 126/77/2
f 129/79/3 131/38/3 130/80/3
f 131/38/3 132/36/3 130/80/3
f 133/81/4 135/82/4 134/83/4
f 135/82/4 136/84/4 134/83/4
f 137/85/5 139/86/5 138/87/5
f 139/86/5 140/88/5 138/87/5
f 141/53/6 143/89/6 142/55/6
f 143/89/6 144/90/6 142/55/6
f 145/65/1 147/91/1 146/92/1
f 147/91/1 148/93/1 146/92/1
f 149/47/2 151/94/2 150/95/2
f 151/94/2 152/96/2 150/95/2
f 153/97/3 155/98/3 154/99/3
f 155/98/3 156/48/3 154/99/3
f 157/100/4 159/101/4 158/49/4
f 159/101/4 160/102/4 158/49/4
f 161/51/5 163/103/5 162/104/5
f 163/103/5 164/105/5 162/104/5
f 165/30/6 167/106/6 166/107/6
f 167/106/6 168/108/6 166/107/6
f 169/109/1 171/52/1 170/34/1
f 171/52/1 172/35/1 170/34/1
f 173/19/2 175/21/2 174/56/2
f 175/21/2 176/23/2 174/56/2
f 177/110/11 179/1/11 178/110/11
f 179/1/11 180/1/11 178/110/11
f 181/1/12 183/110/12 182/1/12
f 183/110/12 184/110/12 182/1/12
f 185/1/13 187/110/13 186/1/13
f 187/110/13 188/110/13 186/1/13
f 189/1/14 191/110/14 190/1/14
f 191/110/14 192/110/14 190/1/14
o laserModel
v 1.889271 -0.493665 0.385384
v 26.696960 -0.493665 0.385379
v 1.889271 -0.685973 0.385384
v 26.696960 -0.685973 0.385379
v 26.696960 -0.493665 0.384610
v 1.889271 -0.493665 0.384615
v 26.696960 -0.685973 0.384610
v 1.889271 -0.685973 0.384615
v 26.696960 -0.493665 0.384610
v 26.696960 -0.493665 0.385379
v 1.889271 -0.493665 0.384615
v 1.889271 -0.493665 0.385384
v 1.889271 -0.685973 0.384615
v 1.889271 -0.685973 0.385384
v 26.696960 -0.685973 0.384610
v 26.696960 -0.685973 0.385379
v 1.889271 -0.493665 0.384615
v 1.889271 -0.493665 0.385384
v 1.889271 -0.685973 0.384615
v 1.889271 -0.685973 0.385384
v 26.696960 -0.493665 0.385379
v 26.696960 -0.493665 0.384610
v 26.696960 -0.685973 0.385379
v 26.696960 -0.685973 0.384610
vn -0.0000 -0.0000 1.0000
vn -0.0000 -0.0000 -1.0000
vn -0.0000 1.0000 -0.0000
vn -0.0000 -1.0000 -0.0000
vn -1.0000 -0.0000 -0.0000
vn 1.0000 -0.0000 -0.0000
vt 0.000000 1.000000
vt 0.000000 0.984375
vt 1.000000 1.000000
vt 1.000000 0.984375
vt 0.000000 0.000000
s 0
usemtl Material_1.001
f 193/111/15 195/112/15 194/113/15
f 195/112/15 196/114/15 194/113/15
f 197/111/16 199/112/16 198/113/16
f 199/112/16 200/114/16 198/113/16
f 201/111/17 203/115/17 202/111/17
f 203/115/17 204/115/17 202/111/17
f 205/111/18 207/115/18 206/111/18
f 207/115/18 208/115/18 206/111/18
f 209/111/19 211/112/19 210/111/19
f 211/112/19 212/112/19 210/111/19
f 213/111/20 215/112/20 214/111/20
f 215/112/20 216/112/20 214/111/20
