# Blender 5.0.1
# www.blender.org
mtllib lev.falstock.mtl
o attachmentModel
v 0.576923 0.769231 0.769231
v 0.576923 0.769231 0.000000
v 0.576923 -0.769231 0.769231
v 0.576923 -0.769231 0.000000
v -0.576923 0.769231 0.000000
v -0.576923 0.769231 0.769231
v -0.576923 -0.769231 0.000000
v -0.576923 -0.769231 0.769231
v -0.576923 0.769231 0.000000
v 0.576923 0.769231 0.000000
v -0.576923 0.769231 0.769231
v 0.576923 0.769231 0.769231
v -0.576923 -0.769231 0.769231
v 0.576923 -0.769231 0.769231
v -0.576923 -0.769231 0.000000
v 0.576923 -0.769231 0.000000
v -0.576923 0.769231 0.769231
v 0.576923 0.769231 0.769231
v -0.576923 -0.769231 0.769231
v 0.576923 -0.769231 0.769231
v 0.576923 0.769231 0.000000
v -0.576923 0.769231 0.000000
v 0.576923 -0.769231 0.000000
v -0.576923 -0.769231 0.000000
v 0.376923 0.065989 1.857091
v 0.376923 1.153846 0.769235
v 0.376923 -0.205975 1.585127
v 0.376923 0.881882 0.497270
v -0.376923 1.153846 0.769235
v -0.376923 0.065989 1.857091
v -0.376923 0.881882 0.497270
v -0.376923 -0.205975 1.585127
v -0.376923 1.153846 0.769235
v 0.376923 1.153846 0.769235
v -0.376923 0.065989 1.857091
v 0.376923 0.065989 1.857091
v -0.376923 -0.205975 1.585127
v 0.376923 -0.205975 1.585127
v -0.376923 0.881882 0.497270
v 0.376923 0.881882 0.497270
v -0.376923 0.065989 1.857091
v 0.376923 0.065989 1.857091
v -0.376923 -0.205975 1.585127
v 0.376923 -0.205975 1.585127
v 0.376923 1.153846 0.769235
v -0.376923 1.153846 0.769235
v 0.376923 0.881882 0.497270
v -0.376923 0.881882 0.497270
v 0.384615 1.153846 0.769231
v 0.384615 1.153846 0.000000
v 0.384615 0.769231 0.769231
v 0.384615 0.769231 0.000000
v -0.384615 1.153846 0.000000
v -0.384615 1.153846 0.769231
v -0.384615 0.769231 0.000000
v -0.384615 0.769231 0.769231
v -0.384615 1.153846 0.000000
v 0.384615 1.153846 0.000000
v -0.384615 1.153846 0.769231
v 0.384615 1.153846 0.769231
v -0.384615 0.769231 0.769231
v 0.384615 0.769231 0.769231
v -0.384615 0.769231 0.000000
v 0.384615 0.769231 0.000000
v -0.384615 1.153846 0.769231
v 0.384615 1.153846 0.769231
v -0.384615 0.769231 0.769231
v 0.384615 0.769231 0.769231
v 0.384615 1.153846 0.000000
v -0.384615 1.153846 0.000000
v 0.384615 0.769231 0.000000
v -0.384615 0.769231 0.000000
v 0.576923 0.769231 5.000000
v 0.576923 0.769231 0.769231
v 0.576923 -0.769231 5.000000
v 0.576923 -0.769231 0.769231
v -0.576923 0.769231 0.769231
v -0.576923 0.769231 5.000000
v -0.576923 -0.769231 0.769231
v -0.576923 -0.769231 5.000000
v -0.576923 0.769231 0.769231
v 0.576923 0.769231 0.769231
v -0.576923 0.769231 5.000000
v 0.576923 0.769231 5.000000
v -0.576923 -0.769231 5.000000
v 0.576923 -0.769231 5.000000
v -0.576923 -0.769231 0.769231
v 0.576923 -0.769231 0.769231
v -0.576923 0.769231 5.000000
v 0.576923 0.769231 5.000000
v -0.576923 -0.769231 5.000000
v 0.576923 -0.769231 5.000000
v 0.576923 0.769231 0.769231
v -0.576923 0.769231 0.769231
v 0.576923 -0.769231 0.769231
v -0.576923 -0.769231 0.769231
v 0.576923 0.961538 7.307693
v 0.576923 0.961538 6.538462
v 0.576923 -2.500000 7.307693
v 0.576923 -2.500000 6.538462
v -0.576923 0.961538 6.538462
v -0.576923 0.961538 7.307693
v -0.576923 -2.500000 6.538462
v -0.576923 -2.500000 7.307693
v -0.576923 0.961538 6.538462
v 0.576923 0.961538 6.538462
v -0.576923 0.961538 7.307693
v 0.576923 0.961538 7.307693
v -0.576923 -2.500000 7.307693
v 0.576923 -2.500000 7.307693
v -0.576923 -2.500000 6.538462
v 0.576923 -2.500000 6.538462
v -0.576923 0.961538 7.307693
v 0.576923 0.961538 7.307693
v -0.576923 -2.500000 7.307693
v 0.576923 -2.500000 7.307693
v 0.576923 0.961538 6.538462
v -0.576923 0.961538 6.538462
v 0.576923 -2.500000 6.538462
v -0.576923 -2.500000 6.538462
v 0.576923 0.961538 6.538462
v 0.576923 0.961538 5.000000
v 0.576923 -1.346154 6.538462
v 0.576923 -1.346154 5.000000
v -0.576923 0.961538 5.000000
v -0.576923 0.961538 6.538462
v -0.576923 -1.346154 5.000000
v -0.576923 -1.346154 6.538462
v -0.576923 0.961538 5.000000
v 0.576923 0.961538 5.000000
v -0.576923 0.961538 6.538462
v 0.576923 0.961538 6.538462
v -0.576923 -1.346154 6.538462
v 0.576923 -1.346154 6.538462
v -0.576923 -1.346154 5.000000
v 0.576923 -1.346154 5.000000
v -0.576923 0.961538 6.538462
v 0.576923 0.961538 6.538462
v -0.576923 -1.346154 6.538462
v 0.576923 -1.346154 6.538462
v 0.576923 0.961538 5.000000
v -0.576923 0.961538 5.000000
v 0.576923 -1.346154 5.000000
v -0.576923 -1.346154 5.000000
v 0.569231 -1.433987 6.980021
v 0.569231 0.332245 2.715962
v 0.569231 -2.500002 6.538463
v 0.569231 -0.733770 2.274404
v -0.569231 0.332245 2.715962
v -0.569231 -1.433987 6.980021
v -0.569231 -0.733770 2.274404
v -0.569231 -2.500002 6.538463
v -0.569231 0.332245 2.715962
v 0.569231 0.332245 2.715962
v -0.569231 -1.433987 6.980021
v 0.569231 -1.433987 6.980021
v -0.569231 -2.500002 6.538463
v 0.569231 -2.500002 6.538463
v -0.569231 -0.733770 2.274404
v 0.569231 -0.733770 2.274404
v -0.569231 -1.433987 6.980021
v 0.569231 -1.433987 6.980021
v -0.569231 -2.500002 6.538463
v 0.569231 -2.500002 6.538463
v 0.569231 0.332245 2.715962
v -0.569231 0.332245 2.715962
v 0.569231 -0.733770 2.274404
v -0.569231 -0.733770 2.274404
vn 1.0000 -0.0000 -0.0000
vn -1.0000 -0.0000 -0.0000
vn -0.0000 1.0000 -0.0000
vn -0.0000 -1.0000 -0.0000
vn -0.0000 -0.0000 1.0000
vn -0.0000 -0.0000 -1.0000
vn -0.0000 0.7071 0.7071
vn -0.0000 -0.7071 -0.7071
vn -0.0000 -0.7071 0.7071
vn -0.0000 0.7071 -0.7071
vn -0.0000 0.9239 0.3827
vn -0.0000 -0.9239 -0.3827
vn -0.0000 -0.3827 0.9239
vn -0.0000 0.3827 -0.9239
vt 0.187500 0.187500
vt 0.187500 0.062500
vt 0.250000 0.187500
vt 0.250000 0.062500
vt 0.312500 0.187500
vt 0.312500 0.062500
vt 0.906250 0.562500
vt 0.906250 0.625000
vt 0.812500 0.562500
vt 0.812500 0.625000
vt 0.906250 0.500000
vt 0.812500 0.500000
vt 0.687500 0.687500
vt 0.687500 0.562500
vt 0.781250 0.687500
vt 0.781250 0.562500
vt 0.687500 0.812500
vt 0.781250 0.812500
vt 0.812500 0.468750
vt 0.937500 0.500000
vt 0.937500 0.468750
vt 0.625000 0.187500
vt 0.625000 0.156250
vt 0.750000 0.187500
vt 0.750000 0.156250
vt 0.125000 0.062500
vt 0.125000 0.187500
vt 0.875000 0.875000
vt 0.875000 0.750000
vt 0.812500 0.875000
vt 0.812500 0.750000
vt 0.812500 0.187500
vt 0.812500 0.156250
vt 0.875000 0.187500
vt 0.875000 0.156250
vt 0.062500 0.125000
vt 0.062500 0.093750
vt 0.125000 0.125000
vt 0.125000 0.093750
vt 0.875000 0.812500
vt 0.875000 0.781250
vt 0.937500 0.812500
vt 0.937500 0.781250
vt 0.750000 0.375000
vt 0.750000 0.437500
vt 0.687500 0.375000
vt 0.687500 0.437500
vt 0.375000 0.187500
vt 0.375000 0.125000
vt 0.312500 0.125000
vt 0.875000 0.843750
vt 0.937500 0.875000
vt 0.937500 0.843750
vt 0.000000 0.125000
vt 0.000000 0.093750
vt 0.000000 1.000000
vt 0.000000 0.875000
vt 0.343750 1.000000
vt 0.343750 0.875000
vt 0.000000 0.750000
vt 0.343750 0.750000
vt 0.093750 0.156250
vt 0.093750 0.500000
vt 0.000000 0.156250
vt 0.000000 0.500000
vt 0.593750 1.000000
vt 0.593750 0.656250
vt 0.500000 1.000000
vt 0.500000 0.656250
vt 0.375000 0.250000
vt 0.468750 0.250000
vt 0.468750 0.125000
vt 0.781250 0.437500
vt 0.625000 1.000000
vt 0.625000 0.718750
vt 0.687500 1.000000
vt 0.687500 0.718750
vt 0.625000 0.687500
vt 0.625000 0.406250
vt 0.687500 0.406250
vt 0.906250 0.687500
vt 0.906250 0.750000
vt 0.812500 0.687500
vt 0.250000 0.500000
vt 0.250000 0.218750
vt 0.343750 0.500000
vt 0.343750 0.218750
vt 0.125000 0.500000
vt 0.125000 0.218750
vt 0.218750 0.500000
vt 0.218750 0.218750
vt 0.500000 0.625000
vt 0.500000 0.437500
vt 0.625000 0.625000
vt 0.625000 0.437500
vt 0.500000 0.250000
vt 0.625000 0.250000
vt 0.593750 0.125000
vt 0.593750 0.250000
vt 0.500000 0.125000
vt 0.843750 0.437500
vt 0.843750 0.312500
vt 0.750000 0.312500
vt 0.781250 1.000000
vt 0.625000 0.375000
vt 0.718750 0.375000
vt 0.718750 0.187500
vt 0.000000 0.656250
vt 0.375000 0.750000
vt 0.375000 0.656250
vt 0.000000 0.625000
vt 0.000000 0.531250
vt 0.375000 0.625000
vt 0.375000 0.531250
vt 0.468750 0.625000
vt 0.468750 1.000000
vt 0.375000 1.000000
vt 0.812500 1.000000
vt 0.812500 0.906250
vt 0.906250 1.000000
vt 0.906250 0.906250
vt 0.750000 0.218750
vt 0.843750 0.218750
s 0
usemtl Material_0.003
f 1/1/1 3/2/1 2/3/1
f 3/2/1 4/4/1 2/3/1
f 5/3/2 7/4/2 6/5/2
f 7/4/2 8/6/2 6/5/2
f 9/7/3 11/8/3 10/9/3
f 11/8/3 12/10/3 10/9/3
f 13/7/4 15/11/4 14/9/4
f 15/11/4 16/12/4 14/9/4
f 17/13/5 19/14/5 18/15/5
f 19/14/5 20/16/5 18/15/5
f 21/17/6 23/13/6 22/18/6
f 23/13/6 24/15/6 22/18/6
f 25/12/1 27/19/1 26/20/1
f 27/19/1 28/21/1 26/20/1
f 29/22/2 31/23/2 30/24/2
f 31/23/2 32/25/2 30/24/2
f 33/2/7 35/1/7 34/26/7
f 35/1/7 36/27/7 34/26/7
f 37/28/8 39/29/8 38/30/8
f 39/29/8 40/31/8 38/30/8
f 41/32/9 43/33/9 42/34/9
f 43/33/9 44/35/9 42/34/9
f 45/24/10 47/25/10 46/32/10
f 47/25/10 48/33/10 46/32/10
f 49/36/1 51/37/1 50/38/1
f 51/37/1 52/39/1 50/38/1
f 53/40/2 55/41/2 54/42/2
f 55/41/2 56/43/2 54/42/2
f 57/44/3 59/45/3 58/46/3
f 59/45/3 60/47/3 58/46/3
f 61/48/4 63/49/4 62/5/4
f 63/49/4 64/50/4 62/5/4
f 65/28/5 67/51/5 66/52/5
f 67/51/5 68/53/5 66/52/5
f 69/54/6 71/55/6 70/36/6
f 71/55/6 72/37/6 70/36/6
f 73/56/1 75/57/1 74/58/1
f 75/57/1 76/59/1 74/58/1
f 77/57/2 79/60/2 78/59/2
f 79/60/2 80/61/2 78/59/2
f 81/62/3 83/63/3 82/64/3
f 83/63/3 84/65/3 82/64/3
f 85/66/4 87/67/4 86/68/4
f 87/67/4 88/69/4 86/68/4
f 89/70/5 91/49/5 90/71/5
f 91/49/5 92/72/5 90/71/5
f 93/14/6 95/47/6 94/16/6
f 95/47/6 96/73/6 94/16/6
f 97/74/1 99/75/1 98/76/1
f 99/75/1 100/77/1 98/76/1
f 101/78/2 103/79/2 102/13/2
f 103/79/2 104/80/2 102/13/2
f 105/81/3 107/82/3 106/83/3
f 107/82/3 108/31/3 106/83/3
f 109/81/4 111/8/4 110/83/4
f 111/8/4 112/10/4 110/83/4
f 113/84/5 115/85/5 114/86/5
f 115/85/5 116/87/5 114/86/5
f 117/88/6 119/89/6 118/90/6
f 119/89/6 120/91/6 118/90/6
f 121/92/1 123/93/1 122/94/1
f 123/93/1 124/95/1 122/94/1
f 125/93/2 127/96/2 126/95/2
f 127/96/2 128/97/2 126/95/2
f 129/98/3 131/99/3 130/100/3
f 131/99/3 132/96/3 130/100/3
f 133/101/4 135/102/4 134/45/4
f 135/102/4 136/103/4 134/45/4
f 137/76/5 139/17/5 138/104/5
f 139/17/5 140/18/5 138/104/5
f 141/105/6 143/22/6 142/106/6
f 143/22/6 144/107/6 142/106/6
f 145/60/1 147/108/1 146/109/1
f 147/108/1 148/110/1 146/109/1
f 149/111/2 151/112/2 150/113/2
f 151/112/2 152/114/2 150/113/2
f 153/115/11 155/116/11 154/113/11
f 155/116/11 156/117/11 154/113/11
f 157/115/12 159/71/12 158/113/12
f 159/71/12 160/70/12 158/113/12
f 161/118/13 163/119/13 162/120/13
f 163/119/13 164/121/13 162/120/13
f 165/103/14 167/122/14 166/102/14
f 167/122/14 168/123/14 166/102/14
