# Blender 4.3.2
# www.blender.org
mtllib lev.kedrbstock.mtl
o attachmentModel
v -5.846029 -1.926852 -0.576155
v -0.515954 0.280938 -0.576154
v -5.551657 -2.637528 -0.576155
v -0.221582 -0.429739 -0.576154
v -0.515954 0.280938 -0.576923
v -5.846029 -1.926852 -0.576924
v -0.221582 -0.429739 -0.576923
v -5.551657 -2.637528 -0.576924
v -0.515954 0.280938 -0.576923
v -0.515954 0.280938 -0.576154
v -5.846029 -1.926852 -0.576924
v -5.846029 -1.926852 -0.576155
v -5.551657 -2.637528 -0.576924
v -5.551657 -2.637528 -0.576155
v -0.221582 -0.429739 -0.576923
v -0.221582 -0.429739 -0.576154
v -5.846029 -1.926852 -0.576924
v -5.846029 -1.926852 -0.576155
v -5.551657 -2.637528 -0.576924
v -5.551657 -2.637528 -0.576155
v -0.515954 0.280938 -0.576154
v -0.515954 0.280938 -0.576923
v -0.221582 -0.429739 -0.576154
v -0.221582 -0.429739 -0.576923
v -5.846029 -1.926852 0.577692
v -0.515954 0.280938 0.577692
v -5.551657 -2.637528 0.577692
v -0.221582 -0.429738 0.577692
v -0.515954 0.280938 0.576923
v -5.846029 -1.926852 0.576923
v -0.221582 -0.429738 0.576923
v -5.551657 -2.637528 0.576923
v -0.515954 0.280938 0.576923
v -0.515954 0.280938 0.577692
v -5.846029 -1.926852 0.576923
v -5.846029 -1.926852 0.577692
v -5.551657 -2.637528 0.576923
v -5.551657 -2.637528 0.577692
v -0.221582 -0.429738 0.576923
v -0.221582 -0.429738 0.577692
v -5.846029 -1.926852 0.576923
v -5.846029 -1.926852 0.577692
v -5.551657 -2.637528 0.576923
v -5.551657 -2.637528 0.577692
v -0.515954 0.280938 0.577692
v -0.515954 0.280938 0.576923
v -0.221582 -0.429738 0.577692
v -0.221582 -0.429738 0.576923
v -5.846032 0.380846 0.769230
v -4.307570 0.380846 0.769230
v -5.846032 -1.926846 0.769230
v -4.307570 -1.926846 0.769230
v -4.307570 0.380846 0.768461
v -5.846032 0.380846 0.768461
v -4.307570 -1.926846 0.768461
v -5.846032 -1.926846 0.768461
v -4.307570 0.380846 0.768461
v -4.307570 0.380846 0.769230
v -5.846032 0.380846 0.768461
v -5.846032 0.380846 0.769230
v -5.846032 -1.926846 0.768461
v -5.846032 -1.926846 0.769230
v -4.307570 -1.926846 0.768461
v -4.307570 -1.926846 0.769230
v -5.846032 0.380846 0.768461
v -5.846032 0.380846 0.769230
v -5.846032 -1.926846 0.768461
v -5.846032 -1.926846 0.769230
v -4.307570 0.380846 0.769230
v -4.307570 0.380846 0.768461
v -4.307570 -1.926846 0.769230
v -4.307570 -1.926846 0.768461
v -5.846032 0.380846 -0.767693
v -4.307570 0.380846 -0.767693
v -5.846032 -1.926846 -0.767693
v -4.307570 -1.926846 -0.767693
v -4.307570 0.380846 -0.768462
v -5.846032 0.380846 -0.768462
v -4.307570 -1.926846 -0.768462
v -5.846032 -1.926846 -0.768463
v -4.307570 0.380846 -0.768462
v -4.307570 0.380846 -0.767693
v -5.846032 0.380846 -0.768462
v -5.846032 0.380846 -0.767693
v -5.846032 -1.926846 -0.768463
v -5.846032 -1.926846 -0.767693
v -4.307570 -1.926846 -0.768462
v -4.307570 -1.926846 -0.767693
v -5.846032 0.380846 -0.768462
v -5.846032 0.380846 -0.767693
v -5.846032 -1.926846 -0.768463
v -5.846032 -1.926846 -0.767693
v -4.307570 0.380846 -0.767693
v -4.307570 0.380846 -0.768462
v -4.307570 -1.926846 -0.767693
v -4.307570 -1.926846 -0.768462
v -5.846801 0.380846 0.769230
v -5.846032 0.380846 0.769230
v -5.846801 -1.926846 0.769230
v -5.846032 -1.926846 0.769230
v -5.846032 0.380846 -0.769231
v -5.846801 0.380846 -0.769231
v -5.846032 -1.926846 -0.769231
v -5.846801 -1.926846 -0.769231
v -5.846032 0.380846 -0.769231
v -5.846032 0.380846 0.769230
v -5.846801 0.380846 -0.769231
v -5.846801 0.380846 0.769230
v -5.846801 -1.926846 -0.769231
v -5.846801 -1.926846 0.769230
v -5.846032 -1.926846 -0.769231
v -5.846032 -1.926846 0.769230
v -5.846801 0.380846 -0.769231
v -5.846801 0.380846 0.769230
v -5.846801 -1.926846 -0.769231
v -5.846801 -1.926846 0.769230
v -5.846032 0.380846 0.769230
v -5.846032 0.380846 -0.769231
v -5.846032 -1.926846 0.769230
v -5.846032 -1.926846 -0.769231
v -0.515954 0.280938 0.576154
v -0.160616 0.428124 0.576154
v -0.221582 -0.429738 0.576154
v 0.133756 -0.282552 0.576154
v -0.160616 0.428124 -0.576154
v -0.515954 0.280938 -0.576154
v 0.133756 -0.282552 -0.576154
v -0.221582 -0.429738 -0.576154
v -0.160616 0.428124 -0.576154
v -0.160616 0.428124 0.576154
v -0.515954 0.280938 -0.576154
v -0.515954 0.280938 0.576154
v -0.221582 -0.429738 -0.576154
v -0.221582 -0.429738 0.576154
v 0.133756 -0.282552 -0.576154
v 0.133756 -0.282552 0.576154
v -0.515954 0.280938 -0.576154
v -0.515954 0.280938 0.576154
v -0.221582 -0.429738 -0.576154
v -0.221582 -0.429738 0.576154
v -0.160616 0.428124 0.576154
v -0.160616 0.428124 -0.576154
v 0.133756 -0.282552 0.576154
v 0.133756 -0.282552 -0.576154
v -5.846740 -1.927146 0.576923
v -5.846029 -1.926852 0.576923
v -5.552368 -2.637822 0.576923
v -5.551657 -2.637528 0.576923
v -5.846029 -1.926852 -0.576924
v -5.846740 -1.927146 -0.576924
v -5.551657 -2.637528 -0.576924
v -5.552368 -2.637822 -0.576924
v -5.846029 -1.926852 -0.576924
v -5.846029 -1.926852 0.576923
v -5.846740 -1.927146 -0.576924
v -5.846740 -1.927146 0.576923
v -5.552368 -2.637822 -0.576924
v -5.552368 -2.637822 0.576923
v -5.551657 -2.637528 -0.576924
v -5.551657 -2.637528 0.576923
v -5.846740 -1.927146 -0.576924
v -5.846740 -1.927146 0.576923
v -5.552368 -2.637822 -0.576924
v -5.552368 -2.637822 0.576923
v -5.846029 -1.926852 0.576923
v -5.846029 -1.926852 -0.576924
v -5.551657 -2.637528 0.576923
v -5.551657 -2.637528 -0.576924
v -5.551951 -2.636817 0.576923
v -0.221877 -0.429028 0.576923
v -5.551657 -2.637528 0.576923
v -0.221582 -0.429738 0.576923
v -0.221877 -0.429028 -0.576923
v -5.551951 -2.636817 -0.576924
v -0.221582 -0.429738 -0.576923
v -5.551657 -2.637528 -0.576924
v -0.221877 -0.429028 -0.576923
v -0.221877 -0.429028 0.576923
v -5.551951 -2.636817 -0.576924
v -5.551951 -2.636817 0.576923
v -5.551657 -2.637528 -0.576924
v -5.551657 -2.637528 0.576923
v -0.221582 -0.429738 -0.576923
v -0.221582 -0.429738 0.576923
v -5.551951 -2.636817 -0.576924
v -5.551951 -2.636817 0.576923
v -5.551657 -2.637528 -0.576924
v -5.551657 -2.637528 0.576923
v -0.221877 -0.429028 0.576923
v -0.221877 -0.429028 -0.576923
v -0.221582 -0.429738 0.576923
v -0.221582 -0.429738 -0.576923
v -5.846031 -1.926077 -0.576155
v -4.692185 -1.926077 -0.576155
v -5.846032 -1.926846 -0.576155
v -4.692185 -1.926846 -0.576155
v -4.692185 -1.926077 -0.768462
v -5.846031 -1.926077 -0.768463
v -4.692185 -1.926846 -0.768462
v -5.846032 -1.926846 -0.768463
v -4.692185 -1.926077 -0.768462
v -4.692185 -1.926077 -0.576155
v -5.846031 -1.926077 -0.768463
v -5.846031 -1.926077 -0.576155
v -5.846032 -1.926846 -0.768463
v -5.846032 -1.926846 -0.576155
v -4.692185 -1.926846 -0.768462
v -4.692185 -1.926846 -0.576155
v -5.846031 -1.926077 -0.768463
v -5.846031 -1.926077 -0.576155
v -5.846032 -1.926846 -0.768463
v -5.846032 -1.926846 -0.576155
v -4.692185 -1.926077 -0.576155
v -4.692185 -1.926077 -0.768462
v -4.692185 -1.926846 -0.576155
v -4.692185 -1.926846 -0.768462
v -5.846031 -1.926077 0.770000
v -4.692185 -1.926077 0.770000
v -5.846032 -1.926846 0.770000
v -4.692185 -1.926846 0.770000
v -4.692185 -1.926077 0.577692
v -5.846031 -1.926077 0.577692
v -4.692185 -1.926846 0.577692
v -5.846032 -1.926846 0.577692
v -4.692185 -1.926077 0.577692
v -4.692185 -1.926077 0.770000
v -5.846031 -1.926077 0.577692
v -5.846031 -1.926077 0.770000
v -5.846032 -1.926846 0.577692
v -5.846032 -1.926846 0.770000
v -4.692185 -1.926846 0.577692
v -4.692185 -1.926846 0.770000
v -5.846031 -1.926077 0.577692
v -5.846031 -1.926077 0.770000
v -5.846032 -1.926846 0.577692
v -5.846032 -1.926846 0.770000
v -4.692185 -1.926077 0.770000
v -4.692185 -1.926077 0.577692
v -4.692185 -1.926846 0.770000
v -4.692185 -1.926846 0.577692
vn -0.0000 -0.0000 1.0000
vn -0.0000 -0.0000 -1.0000
vn -0.3827 0.9239 -0.0000
vn 0.3827 -0.9239 -0.0000
vn -0.9239 -0.3827 -0.0000
vn 0.9239 0.3827 -0.0000
vn -0.0000 1.0000 -0.0000
vn 0.0001 1.0000 -0.0000
vn -0.0000 -1.0000 -0.0000
vn -0.0001 -1.0000 -0.0000
vn -1.0000 -0.0000 -0.0000
vn 1.0000 -0.0000 -0.0000
vn -0.0001 -0.0001 1.0000
vn 0.0001 0.0001 1.0000
vn 0.0001 0.0001 -1.0000
vn -0.0001 -0.0001 -1.0000
vn 0.0002 1.0000 -0.0000
vn -0.0002 -1.0000 -0.0000
vn 0.0001 -0.0000 -1.0000
vn -1.0000 -0.0006 -0.0000
vn -1.0000 0.0009 -0.0000
vn 1.0000 -0.0001 -0.0000
vn 1.0000 -0.0009 -0.0000
vn -0.0001 -0.0000 -1.0000
vt 0.250000 1.000000
vt 0.250000 0.937500
vt 0.718750 1.000000
vt 0.718750 0.937500
vt 0.250000 0.875000
vt 0.718750 0.875000
vt 0.000000 0.531250
vt 0.000000 1.000000
vt 0.000000 0.937500
vt 0.250000 0.812500
vt 0.718750 0.812500
vt 0.250000 0.750000
vt 0.718750 0.750000
vt 0.000000 0.500000
vt 0.000000 0.312500
vt 0.125000 0.500000
vt 0.125000 0.312500
vt 0.250000 0.500000
vt 0.250000 0.312500
vt 0.000000 0.875000
vt 0.000000 0.812500
vt 0.250000 0.562500
vt 0.375000 0.750000
vt 0.375000 0.562500
vt 0.500000 0.750000
vt 0.500000 0.562500
vt 0.125000 1.000000
vt 0.375000 0.375000
vt 0.500000 0.375000
vt 0.250000 0.375000
vt 0.625000 0.625000
vt 0.625000 0.562500
vt 0.656250 0.625000
vt 0.656250 0.562500
vt 0.437500 0.375000
vt 0.437500 0.312500
vt 0.468750 0.375000
vt 0.468750 0.312500
vt 0.593750 0.468750
vt 0.593750 0.500000
vt 0.500000 0.468750
vt 0.500000 0.500000
vt 0.593750 0.437500
vt 0.593750 0.406250
vt 0.500000 0.437500
vt 0.500000 0.406250
vt 0.500000 0.687500
vt 0.500000 0.625000
vt 0.593750 0.687500
vt 0.593750 0.625000
vt 0.593750 0.750000
vt 0.093750 1.000000
vt 0.593750 0.562500
vt 0.468750 1.000000
vt 0.093750 0.531250
vt 0.218750 1.000000
vt 0.218750 0.531250
vt 0.125000 0.531250
vt 0.281250 0.281250
vt 0.281250 0.375000
vt 0.250000 0.281250
vt 0.656250 0.750000
vt 0.656250 0.656250
vt 0.625000 0.750000
vt 0.625000 0.656250
vt 0.031250 1.000000
vt 0.343750 0.281250
vt 0.343750 0.375000
vt 0.312500 0.281250
vt 0.312500 0.375000
vt 0.406250 0.375000
vt 0.406250 0.281250
vt 0.375000 0.281250
s 0
usemtl Material_0.002
f 1/1/1 3/2/1 2/3/1
f 3/2/1 4/4/1 2/3/1
f 5/2/2 7/5/2 6/4/2
f 7/5/2 8/6/2 6/4/2
f 9/7/3 11/8/3 10/7/3
f 11/8/3 12/8/3 10/7/3
f 13/8/4 15/7/4 14/8/4
f 15/7/4 16/7/4 14/8/4
f 17/8/5 19/9/5 18/8/5
f 19/9/5 20/9/5 18/8/5
f 21/8/6 23/9/6 22/8/6
f 23/9/6 24/9/6 22/8/6
f 25/5/1 27/10/1 26/6/1
f 27/10/1 28/11/1 26/6/1
f 29/10/2 31/12/2 30/11/2
f 31/12/2 32/13/2 30/11/2
f 33/7/3 35/8/3 34/7/3
f 35/8/3 36/8/3 34/7/3
f 37/8/4 39/7/4 38/8/4
f 39/7/4 40/7/4 38/8/4
f 41/8/5 43/9/5 42/8/5
f 43/9/5 44/9/5 42/8/5
f 45/8/6 47/9/6 46/8/6
f 47/9/6 48/9/6 46/8/6
f 49/14/1 51/15/1 50/16/1
f 51/15/1 52/17/1 50/16/1
f 53/16/2 55/17/2 54/18/2
f 55/17/2 56/19/2 54/18/2
f 57/20/7 59/8/7 58/20/7
f 59/8/8 60/8/8 58/20/8
f 61/8/9 63/20/9 62/8/9
f 63/20/10 64/20/10 62/8/10
f 65/8/11 67/21/11 66/8/11
f 67/21/11 68/21/11 66/8/11
f 69/8/12 71/21/12 70/8/12
f 71/21/12 72/21/12 70/8/12
f 73/12/1 75/22/1 74/23/1
f 75/22/1 76/24/1 74/23/1
f 77/23/2 79/24/2 78/25/2
f 79/24/2 80/26/2 78/25/2
f 81/20/7 83/8/7 82/20/7
f 83/8/7 84/8/7 82/20/7
f 85/8/9 87/20/9 86/8/9
f 87/20/9 88/20/9 86/8/9
f 89/8/11 91/21/11 90/8/11
f 91/21/11 92/21/11 90/8/11
f 93/8/12 95/21/12 94/8/12
f 95/21/12 96/21/12 94/8/12
f 97/8/13 99/21/13 98/8/13
f 99/21/14 100/21/14 98/8/14
f 101/8/15 103/21/15 102/8/15
f 103/21/16 104/21/16 102/8/16
f 105/27/17 107/27/17 106/8/17
f 107/27/17 108/8/17 106/8/17
f 109/27/18 111/27/18 110/8/18
f 111/27/18 112/8/18 110/8/18
f 113/24/11 115/28/11 114/26/11
f 115/28/11 116/29/11 114/26/11
f 117/22/12 119/30/12 118/24/12
f 119/30/12 120/28/12 118/24/12
f 121/31/1 123/32/1 122/33/1
f 123/32/1 124/34/1 122/33/1
f 125/35/2 127/36/2 126/37/2
f 127/36/2 128/38/2 126/37/2
f 129/39/3 131/40/3 130/41/3
f 131/40/3 132/42/3 130/41/3
f 133/43/4 135/44/4 134/45/4
f 135/44/4 136/46/4 134/45/4
f 137/47/5 139/48/5 138/49/5
f 139/48/5 140/50/5 138/49/5
f 141/25/6 143/47/6 142/51/6
f 143/47/6 144/49/6 142/51/6
f 145/8/1 147/9/1 146/8/1
f 147/9/1 148/9/1 146/8/1
f 149/8/2 151/9/2 150/8/2
f 151/9/2 152/9/2 150/8/2
f 153/52/3 155/52/3 154/8/3
f 155/52/3 156/8/3 154/8/3
f 157/52/4 159/52/4 158/8/4
f 159/52/4 160/8/4 158/8/4
f 161/26/5 163/42/5 162/53/5
f 163/42/5 164/40/5 162/53/5
f 165/48/6 167/26/6 166/50/6
f 167/26/6 168/53/6 166/50/6
f 169/8/1 171/8/1 170/54/1
f 171/8/1 172/54/1 170/54/1
f 173/8/2 175/8/2 174/54/2
f 175/8/2 176/54/2 174/54/2
f 177/55/3 179/52/3 178/7/3
f 179/52/3 180/8/3 178/7/3
f 181/56/4 183/57/4 182/27/4
f 183/57/4 184/58/4 182/27/4
f 185/8/5 187/8/5 186/52/5
f 187/8/5 188/52/5 186/52/5
f 189/8/6 191/8/6 190/52/6
f 191/8/6 192/52/6 190/52/6
f 193/8/1 195/8/1 194/52/1
f 195/8/1 196/52/1 194/52/1
f 197/8/19 199/8/19 198/52/19
f 199/8/2 200/52/2 198/52/2
f 201/59/7 203/60/7 202/61/7
f 203/60/7 204/30/7 202/61/7
f 205/62/9 207/63/9 206/64/9
f 207/63/9 208/65/9 206/64/9
f 209/8/20 211/8/20 210/66/20
f 211/8/21 212/66/21 210/66/21
f 213/8/22 215/8/22 214/66/22
f 215/8/23 216/66/23 214/66/23
f 217/8/1 219/8/1 218/52/1
f 219/8/1 220/52/1 218/52/1
f 221/8/24 223/8/24 222/52/24
f 223/8/2 224/52/2 222/52/2
f 225/67/7 227/68/7 226/69/7
f 227/68/7 228/70/7 226/69/7
f 229/71/9 231/72/9 230/28/9
f 231/72/9 232/73/9 230/28/9
f 233/8/20 235/8/20 234/66/20
f 235/8/21 236/66/21 234/66/21
f 237/8/22 239/8/22 238/66/22
f 239/8/23 240/66/23 238/66/23
