# Blender 4.2.1 LTS
# www.blender.org
mtllib lev.pu.mtl
o attachmentModel
v -1.538298 0.769231 -0.022432
v 1.538298 0.769231 0.022432
v -1.538298 0.000000 -0.022432
v 1.538298 0.000000 0.022432
v 1.549514 0.769231 -0.746717
v -1.527082 0.769231 -0.791581
v 1.549514 0.000000 -0.746717
v -1.527082 0.000000 -0.791581
v 1.549514 0.769231 -0.746717
v 1.538298 0.769231 0.022432
v -1.527082 0.769231 -0.791581
v -1.538298 0.769231 -0.022432
v -1.527082 0.000000 -0.791581
v -1.538298 0.000000 -0.022432
v 1.549514 0.000000 -0.746717
v 1.538298 0.000000 0.022432
v -1.527082 0.769231 -0.791581
v -1.538298 0.769231 -0.022432
v -1.527082 0.000000 -0.791581
v -1.538298 0.000000 -0.022432
v 1.538298 0.769231 0.022432
v 1.549514 0.769231 -0.746717
v 1.538298 0.000000 0.022432
v 1.549514 0.000000 -0.746717
v -3.859765 2.884615 0.905356
v 1.524278 2.884615 0.983868
v -3.859765 1.730769 0.905356
v 1.524278 1.730769 0.983868
v 1.541102 2.884615 -0.169855
v -3.842941 2.884615 -0.248368
v 1.541102 1.730769 -0.169855
v -3.842941 1.730769 -0.248368
v 1.541102 2.884615 -0.169855
v 1.524278 2.884615 0.983868
v -3.842941 2.884615 -0.248368
v -3.859765 2.884615 0.905356
v -3.842941 1.730769 -0.248368
v -3.859765 1.730769 0.905356
v 1.541102 1.730769 -0.169855
v 1.524278 1.730769 0.983868
v -3.842941 2.884615 -0.248368
v -3.859765 2.884615 0.905356
v -3.842941 1.730769 -0.248368
v -3.859765 1.730769 0.905356
v 1.524278 2.884615 0.983868
v 1.541102 2.884615 -0.169855
v 1.524278 1.730769 0.983868
v 1.541102 1.730769 -0.169855
v -2.304643 2.692308 -0.225936
v -1.535494 2.692308 -0.214719
v -2.304643 1.923077 -0.225936
v -1.535494 1.923077 -0.214719
v -1.529886 2.692308 -0.599294
v -2.299035 2.692308 -0.610510
v -1.529886 1.923077 -0.599294
v -2.299035 1.923077 -0.610510
v -1.529886 2.692308 -0.599294
v -1.535494 2.692308 -0.214719
v -2.299035 2.692308 -0.610510
v -2.304643 2.692308 -0.225936
v -2.299035 1.923077 -0.610510
v -2.304643 1.923077 -0.225936
v -1.529886 1.923077 -0.599294
v -1.535494 1.923077 -0.214719
v -2.299035 2.692308 -0.610510
v -2.304643 2.692308 -0.225936
v -2.299035 1.923077 -0.610510
v -2.304643 1.923077 -0.225936
v -1.535494 2.692308 -0.214719
v -1.529886 2.692308 -0.599294
v -1.535494 1.923077 -0.214719
v -1.529886 1.923077 -0.599294
v -1.148115 2.692308 -0.401399
v -0.378966 2.692308 -0.390183
v -1.148115 1.923077 -0.401399
v -0.378966 1.923077 -0.390183
v -0.373358 2.692308 -0.774757
v -1.142507 2.692308 -0.785973
v -0.373358 1.923077 -0.774757
v -1.142507 1.923077 -0.785973
v -0.373358 2.692308 -0.774757
v -0.378966 2.692308 -0.390183
v -1.142507 2.692308 -0.785973
v -1.148115 2.692308 -0.401399
v -1.142507 1.923077 -0.785973
v -1.148115 1.923077 -0.401399
v -0.373358 1.923077 -0.774757
v -0.378966 1.923077 -0.390183
v -1.142507 2.692308 -0.785973
v -1.148115 2.692308 -0.401399
v -1.142507 1.923077 -0.785973
v -1.148115 1.923077 -0.401399
v -0.378966 2.692308 -0.390183
v -0.373358 2.692308 -0.774757
v -0.378966 1.923077 -0.390183
v -0.373358 1.923077 -0.774757
v 0.390183 2.692308 -0.378966
v 1.159332 2.692308 -0.367750
v 0.390183 1.923077 -0.378966
v 1.159332 1.923077 -0.367750
v 1.164940 2.692308 -0.752325
v 0.395791 2.692308 -0.763541
v 1.164940 1.923077 -0.752325
v 0.395791 1.923077 -0.763541
v 1.164940 2.692308 -0.752325
v 1.159332 2.692308 -0.367750
v 0.395791 2.692308 -0.763541
v 0.390183 2.692308 -0.378966
v 0.395791 1.923077 -0.763541
v 0.390183 1.923077 -0.378966
v 1.164940 1.923077 -0.752325
v 1.159332 1.923077 -0.367750
v 0.395791 2.692308 -0.763541
v 0.390183 2.692308 -0.378966
v 0.395791 1.923077 -0.763541
v 0.390183 1.923077 -0.378966
v 1.159332 2.692308 -0.367750
v 1.164940 2.692308 -0.752325
v 1.159332 1.923077 -0.367750
v 1.164940 1.923077 -0.752325
v -2.318663 3.269231 0.735501
v -1.549514 3.269231 0.746717
v -2.318663 2.884615 0.735501
v -1.549514 2.884615 0.746717
v -1.538298 3.269231 -0.022432
v -2.307447 3.269231 -0.033648
v -1.538298 2.884615 -0.022432
v -2.307447 2.884615 -0.033648
v -1.538298 3.269231 -0.022432
v -1.549514 3.269231 0.746717
v -2.307447 3.269231 -0.033648
v -2.318663 3.269231 0.735501
v -2.307447 2.884615 -0.033648
v -2.318663 2.884615 0.735501
v -1.538298 2.884615 -0.022432
v -1.549514 2.884615 0.746717
v -2.307447 3.269231 -0.033648
v -2.318663 3.269231 0.735501
v -2.307447 2.884615 -0.033648
v -2.318663 2.884615 0.735501
v -1.549514 3.269231 0.746717
v -1.538298 3.269231 -0.022432
v -1.549514 2.884615 0.746717
v -1.538298 2.884615 -0.022432
v -3.837348 2.876923 0.897990
v -3.836578 2.876923 0.898001
v -3.837348 1.738461 0.897990
v -3.836578 1.738461 0.898001
v -3.819979 2.876923 -0.240340
v -3.820748 2.876923 -0.240351
v -3.819979 1.738461 -0.240340
v -3.820748 1.738461 -0.240351
v -3.819979 2.876923 -0.240340
v -3.836578 2.876923 0.898001
v -3.820748 2.876923 -0.240351
v -3.837348 2.876923 0.897990
v -3.820748 1.738461 -0.240351
v -3.837348 1.738461 0.897990
v -3.819979 1.738461 -0.240340
v -3.836578 1.738461 0.898001
v -3.820748 2.876923 -0.240351
v -3.837348 2.876923 0.897990
v -3.820748 1.738461 -0.240351
v -3.837348 1.738461 0.897990
v -3.836578 2.876923 0.898001
v -3.819979 2.876923 -0.240340
v -3.836578 1.738461 0.898001
v -3.819979 1.738461 -0.240340
v -3.845393 2.884615 -0.133007
v -3.844624 2.884615 -0.132995
v -3.845393 1.730769 -0.133007
v -3.844624 1.730769 -0.132995
v -3.842941 2.884615 -0.248368
v -3.843710 2.884615 -0.248379
v -3.842941 1.730769 -0.248368
v -3.843710 1.730769 -0.248379
v -3.842941 2.884615 -0.248368
v -3.844624 2.884615 -0.132995
v -3.843710 2.884615 -0.248379
v -3.845393 2.884615 -0.133007
v -3.843710 1.730769 -0.248379
v -3.845393 1.730769 -0.133007
v -3.842941 1.730769 -0.248368
v -3.844624 1.730769 -0.132995
v -3.843710 2.884615 -0.248379
v -3.845393 2.884615 -0.133007
v -3.843710 1.730769 -0.248379
v -3.845393 1.730769 -0.133007
v -3.844624 2.884615 -0.132995
v -3.842941 2.884615 -0.248368
v -3.844624 1.730769 -0.132995
v -3.842941 1.730769 -0.248368
v -3.860534 2.884615 0.905345
v -3.859765 2.884615 0.905356
v -3.860534 1.730769 0.905345
v -3.859765 1.730769 0.905356
v -3.858083 2.884615 0.789983
v -3.858852 2.884615 0.789972
v -3.858083 1.730769 0.789983
v -3.858852 1.730769 0.789972
v -3.858083 2.884615 0.789983
v -3.859765 2.884615 0.905356
v -3.858852 2.884615 0.789972
v -3.860534 2.884615 0.905345
v -3.858852 1.730769 0.789972
v -3.860534 1.730769 0.905345
v -3.858083 1.730769 0.789983
v -3.859765 1.730769 0.905356
v -3.858852 2.884615 0.789972
v -3.860534 2.884615 0.905345
v -3.858852 1.730769 0.789972
v -3.860534 1.730769 0.905345
v -3.859765 2.884615 0.905356
v -3.858083 2.884615 0.789983
v -3.859765 1.730769 0.905356
v -3.858083 1.730769 0.789983
v -3.858852 1.846154 0.789972
v -3.858083 1.846154 0.789983
v -3.858852 1.730769 0.789972
v -3.858083 1.730769 0.789983
v -3.844624 1.846154 -0.132995
v -3.845393 1.846154 -0.133007
v -3.844624 1.730769 -0.132995
v -3.845393 1.730769 -0.133007
v -3.844624 1.846154 -0.132995
v -3.858083 1.846154 0.789983
v -3.845393 1.846154 -0.133007
v -3.858852 1.846154 0.789972
v -3.845393 1.730769 -0.133007
v -3.858852 1.730769 0.789972
v -3.844624 1.730769 -0.132995
v -3.858083 1.730769 0.789983
v -3.845393 1.846154 -0.133007
v -3.858852 1.846154 0.789972
v -3.845393 1.730769 -0.133007
v -3.858852 1.730769 0.789972
v -3.858083 1.846154 0.789983
v -3.844624 1.846154 -0.132995
v -3.858083 1.730769 0.789983
v -3.844624 1.730769 -0.132995
v -3.858852 2.884615 0.789972
v -3.858083 2.884615 0.789983
v -3.858852 2.769231 0.789972
v -3.858083 2.769231 0.789983
v -3.844624 2.884615 -0.132995
v -3.845393 2.884615 -0.133007
v -3.844624 2.769231 -0.132995
v -3.845393 2.769231 -0.133007
v -3.844624 2.884615 -0.132995
v -3.858083 2.884615 0.789983
v -3.845393 2.884615 -0.133007
v -3.858852 2.884615 0.789972
v -3.845393 2.769231 -0.133007
v -3.858852 2.769231 0.789972
v -3.844624 2.769231 -0.132995
v -3.858083 2.769231 0.789983
v -3.845393 2.884615 -0.133007
v -3.858852 2.884615 0.789972
v -3.845393 2.769231 -0.133007
v -3.858852 2.769231 0.789972
v -3.858083 2.884615 0.789983
v -3.844624 2.884615 -0.132995
v -3.858083 2.769231 0.789983
v -3.844624 2.769231 -0.132995
v 0.367750 3.076923 1.159332
v 1.136899 3.076923 1.170548
v 0.367750 1.538462 1.159332
v 1.136899 1.538462 1.170548
v 1.159332 3.076923 -0.367750
v 0.390183 3.076923 -0.378966
v 1.159332 1.538462 -0.367750
v 0.390183 1.538462 -0.378966
v 1.159332 3.076923 -0.367750
v 1.136899 3.076923 1.170548
v 0.390183 3.076923 -0.378966
v 0.367750 3.076923 1.159332
v 0.390183 1.538462 -0.378966
v 0.367750 1.538462 1.159332
v 1.159332 1.538462 -0.367750
v 1.136899 1.538462 1.170548
v 0.390183 3.076923 -0.378966
v 0.367750 3.076923 1.159332
v 0.390183 1.538462 -0.378966
v 0.367750 1.538462 1.159332
v 1.136899 3.076923 1.170548
v 1.159332 3.076923 -0.367750
v 1.136899 1.538462 1.170548
v 1.159332 1.538462 -0.367750
v -1.170548 3.076923 1.136899
v -0.401399 3.076923 1.148115
v -1.170548 1.538462 1.136899
v -0.401399 1.538462 1.148115
v -0.378966 3.076923 -0.390183
v -1.148115 3.076923 -0.401399
v -0.378966 1.538462 -0.390183
v -1.148115 1.538462 -0.401399
v -0.378966 3.076923 -0.390183
v -0.401399 3.076923 1.148115
v -1.148115 3.076923 -0.401399
v -1.170548 3.076923 1.136899
v -1.148115 1.538462 -0.401399
v -1.170548 1.538462 1.136899
v -0.378966 1.538462 -0.390183
v -0.401399 1.538462 1.148115
v -1.148115 3.076923 -0.401399
v -1.170548 3.076923 1.136899
v -1.148115 1.538462 -0.401399
v -1.170548 1.538462 1.136899
v -0.401399 3.076923 1.148115
v -0.378966 3.076923 -0.390183
v -0.401399 1.538462 1.148115
v -0.378966 1.538462 -0.390183
v -0.757944 2.307692 -0.779596
v 1.164928 2.307692 -0.751556
v -0.757944 0.769231 -0.779596
v 1.164928 0.769231 -0.751556
v 1.164940 2.307692 -0.752325
v -0.757933 2.307692 -0.780365
v 1.164940 0.769231 -0.752325
v -0.757933 0.769231 -0.780365
v 1.164940 2.307692 -0.752325
v 1.164928 2.307692 -0.751556
v -0.757933 2.307692 -0.780365
v -0.757944 2.307692 -0.779596
v -0.757933 0.769231 -0.780365
v -0.757944 0.769231 -0.779596
v 1.164940 0.769231 -0.752325
v 1.164928 0.769231 -0.751556
v -0.757933 2.307692 -0.780365
v -0.757944 2.307692 -0.779596
v -0.757933 0.769231 -0.780365
v -0.757944 0.769231 -0.779596
v 1.164928 2.307692 -0.751556
v 1.164940 2.307692 -0.752325
v 1.164928 0.769231 -0.751556
v 1.164940 0.769231 -0.752325
vn -0.0146 -0.0000 0.9999
vn 0.0146 -0.0000 -0.9999
vn -0.0000 1.0000 -0.0000
vn -0.0000 -1.0000 -0.0000
vn -0.9999 -0.0000 -0.0146
vn 0.9999 -0.0000 0.0146
vt 0.437500 1.000000
vt 0.437500 0.937500
vt 0.687500 1.000000
vt 0.687500 0.937500
vt 0.437500 0.875000
vt 0.687500 0.875000
vt 0.500000 0.625000
vt 0.500000 0.875000
vt 0.437500 0.625000
vt 0.500000 0.375000
vt 0.437500 0.375000
vt 0.000000 0.250000
vt 0.000000 0.187500
vt 0.062500 0.250000
vt 0.062500 0.187500
vt 0.687500 0.312500
vt 0.687500 0.250000
vt 0.750000 0.312500
vt 0.750000 0.250000
vt 0.000000 1.000000
vt 0.000000 0.906250
vt 0.437500 0.906250
vt 0.000000 0.875000
vt 0.000000 0.781250
vt 0.437500 0.781250
vt 0.093750 0.312500
vt 0.093750 0.750000
vt 0.000000 0.312500
vt 0.000000 0.750000
vt 0.218750 0.750000
vt 0.218750 0.312500
vt 0.125000 0.750000
vt 0.125000 0.312500
vt 0.625000 0.875000
vt 0.625000 0.781250
vt 0.718750 0.875000
vt 0.718750 0.781250
vt 0.500000 0.500000
vt 0.500000 0.406250
vt 0.593750 0.500000
vt 0.593750 0.406250
vt 0.125000 0.250000
vt 0.125000 0.187500
vt 0.750000 0.875000
vt 0.750000 0.812500
vt 0.812500 0.875000
vt 0.812500 0.812500
vt 0.718750 0.187500
vt 0.718750 0.250000
vt 0.687500 0.187500
vt 0.781250 0.312500
vt 0.781250 0.250000
vt 0.625000 0.250000
vt 0.625000 0.187500
vt 0.656250 0.250000
vt 0.656250 0.187500
vt 0.562500 0.250000
vt 0.562500 0.187500
vt 0.593750 0.250000
vt 0.593750 0.187500
vt 0.750000 0.750000
vt 0.812500 0.750000
vt 0.250000 0.250000
vt 0.250000 0.187500
vt 0.312500 0.250000
vt 0.312500 0.187500
vt 0.843750 0.937500
vt 0.843750 1.000000
vt 0.812500 0.937500
vt 0.812500 1.000000
vt 0.093750 0.187500
vt 0.093750 0.125000
vt 0.062500 0.125000
vt 0.000000 0.125000
vt 0.031250 0.187500
vt 0.031250 0.125000
vt 0.750000 0.187500
vt 0.781250 0.187500
vt 0.750000 0.687500
vt 0.812500 0.687500
vt 0.375000 0.250000
vt 0.375000 0.187500
vt 0.843750 0.812500
vt 0.843750 0.875000
vt 0.218750 0.187500
vt 0.218750 0.125000
vt 0.187500 0.187500
vt 0.187500 0.125000
vt 0.125000 0.125000
vt 0.156250 0.187500
vt 0.156250 0.125000
vt 0.250000 0.156250
vt 0.312500 0.156250
vt 0.375000 0.156250
vt 0.812500 0.625000
vt 0.750000 0.625000
vt 0.437500 0.250000
vt 0.437500 0.187500
vt 0.812500 0.718750
vt 0.875000 0.750000
vt 0.875000 0.718750
vt 0.812500 0.781250
vt 0.875000 0.812500
vt 0.875000 0.781250
vt 0.093750 1.000000
vt 0.625000 0.750000
vt 0.625000 0.656250
vt 0.718750 0.750000
vt 0.718750 0.656250
vt 0.250000 0.375000
vt 0.250000 0.281250
vt 0.343750 0.375000
vt 0.343750 0.281250
vt 0.031250 1.000000
vt 0.437500 0.156250
vt 0.468750 0.250000
vt 0.468750 0.156250
vt 0.750000 0.531250
vt 0.781250 0.625000
vt 0.781250 0.531250
vt 0.750000 0.500000
vt 0.750000 0.406250
vt 0.781250 0.500000
vt 0.781250 0.406250
vt 0.500000 0.250000
vt 0.500000 0.156250
vt 0.531250 0.250000
vt 0.531250 0.156250
vt 0.000000 0.968750
vt 0.062500 1.000000
vt 0.812500 0.656250
vt 0.875000 0.687500
vt 0.875000 0.656250
vt 0.812500 0.562500
vt 0.812500 0.531250
vt 0.875000 0.562500
vt 0.875000 0.531250
vt 0.812500 0.593750
vt 0.875000 0.625000
vt 0.875000 0.593750
vt 0.375000 0.500000
vt 0.375000 0.375000
vt 0.437500 0.500000
vt 0.625000 0.375000
vt 0.687500 0.375000
vt 0.250000 0.500000
vt 0.500000 0.750000
vt 0.187500 0.312500
vt 0.250000 0.312500
vt 0.812500 0.375000
vt 0.812500 0.312500
vt 0.625000 0.625000
vt 0.625000 0.500000
vt 0.250000 0.750000
vt 0.250000 0.625000
vt 0.406250 0.750000
vt 0.406250 0.625000
vt 0.406250 0.500000
vt 0.000000 0.843750
s 0
usemtl Material_0.004
f 1/1/1 3/2/1 2/3/1
f 3/2/1 4/4/1 2/3/1
f 5/2/2 7/5/2 6/4/2
f 7/5/2 8/6/2 6/4/2
f 9/7/3 11/8/3 10/9/3
f 11/8/3 12/5/3 10/9/3
f 13/7/4 15/10/4 14/9/4
f 15/10/4 16/11/4 14/9/4
f 17/12/5 19/13/5 18/14/5
f 19/13/5 20/15/5 18/14/5
f 21/16/6 23/17/6 22/18/6
f 23/17/6 24/19/6 22/18/6
f 25/20/1 27/21/1 26/1/1
f 27/21/1 28/22/1 26/1/1
f 29/23/2 31/24/2 30/5/2
f 31/24/2 32/25/2 30/5/2
f 33/26/3 35/27/3 34/28/3
f 35/27/3 36/29/3 34/28/3
f 37/30/4 39/31/4 38/32/4
f 39/31/4 40/33/4 38/32/4
f 41/34/5 43/35/5 42/36/5
f 43/35/5 44/37/5 42/36/5
f 45/38/6 47/39/6 46/40/6
f 47/39/6 48/41/6 46/40/6
f 49/14/1 51/15/1 50/42/1
f 51/15/1 52/43/1 50/42/1
f 53/44/2 55/45/2 54/46/2
f 55/45/2 56/47/2 54/46/2
f 57/48/3 59/49/3 58/50/3
f 59/49/3 60/17/3 58/50/3
f 61/51/4 63/52/4 62/18/4
f 63/52/4 64/19/4 62/18/4
f 65/53/5 67/54/5 66/55/5
f 67/54/5 68/56/5 66/55/5
f 69/57/6 71/58/6 70/59/6
f 71/58/6 72/60/6 70/59/6
f 73/45/1 75/61/1 74/47/1
f 75/61/1 76/62/1 74/47/1
f 77/63/2 79/64/2 78/65/2
f 79/64/2 80/66/2 78/65/2
f 81/67/3 83/68/3 82/69/3
f 83/68/3 84/70/3 82/69/3
f 85/71/4 87/72/4 86/15/4
f 87/72/4 88/73/4 86/15/4
f 89/13/5 91/74/5 90/75/5
f 91/74/5 92/76/5 90/75/5
f 93/19/6 95/77/6 94/52/6
f 95/77/6 96/78/6 94/52/6
f 97/61/1 99/79/1 98/62/1
f 99/79/1 100/80/1 98/62/1
f 101/65/2 103/66/2 102/81/2
f 103/66/2 104/82/2 102/81/2
f 105/83/3 107/84/3 106/47/3
f 107/84/3 108/46/3 106/47/3
f 109/85/4 111/86/4 110/87/4
f 111/86/4 112/88/4 110/87/4
f 113/43/5 115/89/5 114/90/5
f 115/89/5 116/91/5 114/90/5
f 117/69/6 119/46/6 118/67/6
f 119/46/6 120/84/6 118/67/6
f 121/64/1 123/92/1 122/66/1
f 123/92/1 124/93/1 122/66/1
f 125/66/2 127/93/2 126/82/2
f 127/93/2 128/94/2 126/82/2
f 129/95/3 131/80/3 130/96/3
f 131/80/3 132/79/3 130/96/3
f 133/97/4 135/98/4 134/81/4
f 135/98/4 136/82/4 134/81/4
f 137/62/5 139/99/5 138/100/5
f 139/99/5 140/101/5 138/100/5
f 141/47/6 143/102/6 142/103/6
f 143/102/6 144/104/6 142/103/6
f 145/20/1 147/21/1 146/20/1
f 147/21/1 148/21/1 146/20/1
f 149/20/2 151/21/2 150/20/2
f 151/21/2 152/21/2 150/20/2
f 153/105/3 155/105/3 154/20/3
f 155/105/3 156/20/3 154/20/3
f 157/105/4 159/105/4 158/20/4
f 159/105/4 160/20/4 158/20/4
f 161/106/5 163/107/5 162/108/5
f 163/107/5 164/109/5 162/108/5
f 165/110/6 167/111/6 166/112/6
f 167/111/6 168/113/6 166/112/6
f 169/20/1 171/21/1 170/20/1
f 171/21/1 172/21/1 170/20/1
f 173/20/2 175/21/2 174/20/2
f 175/21/2 176/21/2 174/20/2
f 177/114/3 179/114/3 178/20/3
f 179/114/3 180/20/3 178/20/3
f 181/114/4 183/114/4 182/20/4
f 183/114/4 184/20/4 182/20/4
f 185/97/5 187/115/5 186/116/5
f 187/115/5 188/117/5 186/116/5
f 189/96/6 191/118/6 190/119/6
f 191/118/6 192/120/6 190/119/6
f 193/20/1 195/21/1 194/20/1
f 195/21/1 196/21/1 194/20/1
f 197/20/2 199/21/2 198/20/2
f 199/21/2 200/21/2 198/20/2
f 201/114/3 203/114/3 202/20/3
f 203/114/3 204/20/3 202/20/3
f 205/114/4 207/114/4 206/20/4
f 207/114/4 208/20/4 206/20/4
f 209/121/5 211/122/5 210/123/5
f 211/122/5 212/124/5 210/123/5
f 213/125/6 215/126/6 214/127/6
f 215/126/6 216/128/6 214/127/6
f 217/20/1 219/129/1 218/20/1
f 219/129/1 220/129/1 218/20/1
f 221/20/2 223/129/2 222/20/2
f 223/129/2 224/129/2 222/20/2
f 225/130/3 227/130/3 226/20/3
f 227/130/3 228/20/3 226/20/3
f 229/130/4 231/130/4 230/20/4
f 231/130/4 232/20/4 230/20/4
f 233/82/5 235/94/5 234/98/5
f 235/94/5 236/115/5 234/98/5
f 237/80/6 239/131/6 238/132/6
f 239/131/6 240/133/6 238/132/6
f 241/20/1 243/129/1 242/20/1
f 243/129/1 244/129/1 242/20/1
f 245/20/2 247/129/2 246/20/2
f 247/129/2 248/129/2 246/20/2
f 249/130/3 251/130/3 250/20/3
f 251/130/3 252/20/3 250/20/3
f 253/130/4 255/130/4 254/20/4
f 255/130/4 256/20/4 254/20/4
f 257/134/5 259/135/5 258/136/5
f 259/135/5 260/137/5 258/136/5
f 261/95/6 263/138/6 262/139/6
f 263/138/6 264/140/6 262/139/6
f 265/141/1 267/142/1 266/143/1
f 267/142/1 268/11/1 266/143/1
f 269/144/2 271/53/2 270/145/2
f 271/53/2 272/17/2 270/145/2
f 273/42/3 275/33/3 274/12/3
f 275/33/3 276/28/3 274/12/3
f 277/70/4 279/69/4 278/3/4
f 279/69/4 280/4/4 278/3/4
f 281/146/5 283/110/5 282/141/5
f 283/110/5 284/142/5 282/141/5
f 285/8/6 287/147/6 286/34/6
f 287/147/6 288/106/6 286/34/6
f 289/33/1 291/43/1 290/148/1
f 291/43/1 292/87/1 290/148/1
f 293/148/2 295/87/2 294/149/2
f 295/87/2 296/64/2 294/149/2
f 297/46/3 299/69/3 298/6/3
f 299/69/3 300/4/3 298/6/3
f 301/150/4 303/151/4 302/145/4
f 303/151/4 304/16/4 302/145/4
f 305/7/5 307/38/5 306/152/5
f 307/38/5 308/153/5 306/152/5
f 309/147/6 311/7/6 310/106/6
f 311/7/6 312/152/6 310/106/6
f 313/154/1 315/155/1 314/156/1
f 315/155/1 316/157/1 314/156/1
f 317/155/2 319/146/2 318/157/2
f 319/146/2 320/158/2 318/157/2
f 321/159/3 323/20/3 322/159/3
f 323/20/3 324/20/3 322/159/3
f 325/20/4 327/159/4 326/20/4
f 327/159/4 328/159/4 326/20/4
f 329/20/5 331/23/5 330/20/5
f 331/23/5 332/23/5 330/20/5
f 333/20/6 335/23/6 334/20/6
f 335/23/6 336/23/6 334/20/6
o overlaySolidModel
v -3.852731 2.876923 0.897765
v -3.851961 2.876923 0.897776
v -3.852731 1.738461 0.897765
v -3.851961 1.738461 0.897776
v -3.835362 2.876923 -0.240564
v -3.836131 2.876923 -0.240575
v -3.835362 1.738461 -0.240564
v -3.836131 1.738461 -0.240575
v -3.835362 2.876923 -0.240564
v -3.851961 2.876923 0.897776
v -3.836131 2.876923 -0.240575
v -3.852731 2.876923 0.897765
v -3.836131 1.738461 -0.240575
v -3.852731 1.738461 0.897765
v -3.835362 1.738461 -0.240564
v -3.851961 1.738461 0.897776
v -3.836131 2.876923 -0.240575
v -3.852731 2.876923 0.897765
v -3.836131 1.738461 -0.240575
v -3.852731 1.738461 0.897765
v -3.851961 2.876923 0.897776
v -3.835362 2.876923 -0.240564
v -3.851961 1.738461 0.897776
v -3.835362 1.738461 -0.240564
vn -0.0146 -0.0000 0.9999
vn 0.0146 -0.0000 -0.9999
vn -0.0000 1.0000 -0.0000
vn -0.0000 -1.0000 -0.0000
vn -0.9999 -0.0000 -0.0146
vn 0.9999 -0.0000 0.0146
vt 0.000000 1.000000
vt 0.000000 0.906250
vt 0.093750 1.000000
vt 0.906250 0.093750
vt 0.906250 0.000000
vt 1.000000 0.093750
vt 1.000000 0.000000
s 0
usemtl Material_0.004
f 337/160/7 339/161/7 338/160/7
f 339/161/7 340/161/7 338/160/7
f 341/160/8 343/161/8 342/160/8
f 343/161/8 344/161/8 342/160/8
f 345/162/9 347/162/9 346/160/9
f 347/162/9 348/160/9 346/160/9
f 349/162/10 351/162/10 350/160/10
f 351/162/10 352/160/10 350/160/10
f 353/163/11 355/164/11 354/165/11
f 355/164/11 356/166/11 354/165/11
f 357/163/12 359/164/12 358/165/12
f 359/164/12 360/166/12 358/165/12
o scopeModel
v -3.845039 2.876923 0.897877
v -3.844270 2.876923 0.897889
v -3.845039 1.738461 0.897877
v -3.844270 1.738461 0.897889
v -3.827670 2.876923 -0.240452
v -3.828439 2.876923 -0.240463
v -3.827670 1.738461 -0.240452
v -3.828439 1.738461 -0.240463
v -3.827670 2.876923 -0.240452
v -3.844270 2.876923 0.897889
v -3.828439 2.876923 -0.240463
v -3.845039 2.876923 0.897877
v -3.828439 1.738461 -0.240463
v -3.845039 1.738461 0.897877
v -3.827670 1.738461 -0.240452
v -3.844270 1.738461 0.897889
v -3.828439 2.876923 -0.240463
v -3.845039 2.876923 0.897877
v -3.828439 1.738461 -0.240463
v -3.845039 1.738461 0.897877
v -3.844270 2.876923 0.897889
v -3.827670 2.876923 -0.240452
v -3.844270 1.738461 0.897889
v -3.827670 1.738461 -0.240452
vn -0.0146 -0.0000 0.9999
vn 0.0146 -0.0000 -0.9999
vn -0.0000 1.0000 -0.0000
vn -0.0000 -1.0000 -0.0000
vn -0.9999 -0.0000 -0.0146
vn 0.9999 -0.0000 0.0146
vt 0.000000 1.000000
vt 0.000000 0.906250
vt 0.093750 1.000000
vt 0.500000 0.093750
vt 0.500000 0.000000
vt 0.593750 0.093750
vt 0.593750 0.000000
s 0
usemtl Material_0.004
f 361/167/13 363/168/13 362/167/13
f 363/168/13 364/168/13 362/167/13
f 365/167/14 367/168/14 366/167/14
f 367/168/14 368/168/14 366/167/14
f 369/169/15 371/169/15 370/167/15
f 371/169/15 372/167/15 370/167/15
f 373/169/16 375/169/16 374/167/16
f 375/169/16 376/167/16 374/167/16
f 377/170/17 379/171/17 378/172/17
f 379/171/17 380/173/17 378/172/17
f 381/170/18 383/171/18 382/172/18
f 383/171/18 384/173/18 382/172/18
