# Blender 4.4.3
# www.blender.org
mtllib lev.pgo7v.mtl
o attachmentModel
v -2.289231 3.076923 -0.192307
v -2.288461 3.076923 -0.192307
v -2.289231 1.923077 -0.192307
v -2.288461 1.923077 -0.192307
v -2.288461 3.076923 -1.346153
v -2.289231 3.076923 -1.346153
v -2.288461 1.923077 -1.346153
v -2.289231 1.923077 -1.346153
v -2.288461 3.076923 -1.346153
v -2.288461 3.076923 -0.192307
v -2.289231 3.076923 -1.346153
v -2.289231 3.076923 -0.192307
v -2.289231 1.923077 -1.346153
v -2.289231 1.923077 -0.192307
v -2.288461 1.923077 -1.346153
v -2.288461 1.923077 -0.192307
v -2.289231 3.076923 -1.346153
v -2.289231 3.076923 -0.192307
v -2.289231 1.923077 -1.346153
v -2.289231 1.923077 -0.192307
v -2.288461 3.076923 -0.192307
v -2.288461 3.076923 -1.346153
v -2.288461 1.923077 -0.192307
v -2.288461 1.923077 -1.346153
v -1.346154 0.384615 0.000000
v 1.346154 0.384615 -0.000000
v -1.346154 -0.384615 0.000000
v 1.346154 -0.384615 -0.000000
v 1.346154 0.384615 -0.769231
v -1.346154 0.384615 -0.769230
v 1.346154 -0.384615 -0.769231
v -1.346154 -0.384615 -0.769230
v 1.346154 0.384615 -0.769231
v 1.346154 0.384615 -0.000000
v -1.346154 0.384615 -0.769230
v -1.346154 0.384615 0.000000
v -1.346154 -0.384615 -0.769230
v -1.346154 -0.384615 0.000000
v 1.346154 -0.384615 -0.769231
v 1.346154 -0.384615 -0.000000
v -1.346154 0.384615 -0.769230
v -1.346154 0.384615 0.000000
v -1.346154 -0.384615 -0.769230
v -1.346154 -0.384615 0.000000
v 1.346154 0.384615 -0.000000
v 1.346154 0.384615 -0.769231
v 1.346154 -0.384615 -0.000000
v 1.346154 -0.384615 -0.769231
v 0.192308 -0.384615 -0.384615
v 1.258322 -0.384615 -0.826173
v 0.192308 -0.385385 -0.384615
v 1.258322 -0.385385 -0.826173
v 1.111136 -0.384615 -1.181512
v 0.045122 -0.384615 -0.739954
v 1.111136 -0.385385 -1.181512
v 0.045122 -0.385385 -0.739954
v 1.111136 -0.384615 -1.181512
v 1.258322 -0.384615 -0.826173
v 0.045122 -0.384615 -0.739954
v 0.192308 -0.384615 -0.384615
v 0.045122 -0.385385 -0.739954
v 0.192308 -0.385385 -0.384615
v 1.111136 -0.385385 -1.181512
v 1.258322 -0.385385 -0.826173
v 0.045122 -0.384615 -0.739954
v 0.192308 -0.384615 -0.384615
v 0.045122 -0.385385 -0.739954
v 0.192308 -0.385385 -0.384615
v 1.258322 -0.384615 -0.826173
v 1.111136 -0.384615 -1.181512
v 1.258322 -0.385385 -0.826173
v 1.111136 -0.385385 -1.181512
v -0.769231 1.923077 -0.768461
v 0.769231 1.923077 -0.768462
v -0.769231 0.384615 -0.768461
v 0.769231 0.384615 -0.768462
v 0.769231 1.923077 -0.769231
v -0.769231 1.923077 -0.769231
v 0.769231 0.384615 -0.769231
v -0.769231 0.384615 -0.769231
v 0.769231 1.923077 -0.769231
v 0.769231 1.923077 -0.768462
v -0.769231 1.923077 -0.769231
v -0.769231 1.923077 -0.768461
v -0.769231 0.384615 -0.769231
v -0.769231 0.384615 -0.768461
v 0.769231 0.384615 -0.769231
v 0.769231 0.384615 -0.768462
v -0.769231 1.923077 -0.769231
v -0.769231 1.923077 -0.768461
v -0.769231 0.384615 -0.769231
v -0.769231 0.384615 -0.768461
v 0.769231 1.923077 -0.768462
v 0.769231 1.923077 -0.769231
v 0.769231 0.384615 -0.768462
v 0.769231 0.384615 -0.769231
v 0.768461 1.923077 -0.000000
v 0.769231 1.923077 -0.000000
v 0.768461 0.384615 -0.000000
v 0.769231 0.384615 -0.000000
v 0.769231 1.923077 -0.769231
v 0.768461 1.923077 -0.769231
v 0.769231 0.384615 -0.769231
v 0.768461 0.384615 -0.769231
v 0.769231 1.923077 -0.769231
v 0.769231 1.923077 -0.000000
v 0.768461 1.923077 -0.769231
v 0.768461 1.923077 -0.000000
v 0.768461 0.384615 -0.769231
v 0.768461 0.384615 -0.000000
v 0.769231 0.384615 -0.769231
v 0.769231 0.384615 -0.000000
v 0.768461 1.923077 -0.769231
v 0.768461 1.923077 -0.000000
v 0.768461 0.384615 -0.769231
v 0.768461 0.384615 -0.000000
v 0.769231 1.923077 -0.000000
v 0.769231 1.923077 -0.769231
v 0.769231 0.384615 -0.000000
v 0.769231 0.384615 -0.769231
v -0.000769 1.923077 0.000000
v 0.000000 1.923077 0.000000
v -0.000769 0.384615 0.000000
v 0.000000 0.384615 0.000000
v -0.000000 1.923077 -0.769231
v -0.000769 1.923077 -0.769231
v -0.000000 0.384615 -0.769231
v -0.000769 0.384615 -0.769231
v -0.000000 1.923077 -0.769231
v 0.000000 1.923077 0.000000
v -0.000769 1.923077 -0.769231
v -0.000769 1.923077 0.000000
v -0.000769 0.384615 -0.769231
v -0.000769 0.384615 0.000000
v -0.000000 0.384615 -0.769231
v 0.000000 0.384615 0.000000
v -0.000769 1.923077 -0.769231
v -0.000769 1.923077 0.000000
v -0.000769 0.384615 -0.769231
v -0.000769 0.384615 0.000000
v 0.000000 1.923077 0.000000
v -0.000000 1.923077 -0.769231
v 0.000000 0.384615 0.000000
v -0.000000 0.384615 -0.769231
v -1.923077 3.076923 -0.192307
v 0.769231 3.076923 -0.192308
v -1.923077 1.923077 -0.192307
v 0.769231 1.923077 -0.192308
v 0.769230 3.076923 -1.346154
v -1.923077 3.076923 -1.346153
v 0.769230 1.923077 -1.346154
v -1.923077 1.923077 -1.346153
v 0.769230 3.076923 -1.346154
v 0.769231 3.076923 -0.192308
v -1.923077 3.076923 -1.346153
v -1.923077 3.076923 -0.192307
v -1.923077 1.923077 -1.346153
v -1.923077 1.923077 -0.192307
v 0.769230 1.923077 -1.346154
v 0.769231 1.923077 -0.192308
v -1.923077 3.076923 -1.346153
v -1.923077 3.076923 -0.192307
v -1.923077 1.923077 -1.346153
v -1.923077 1.923077 -0.192307
v 0.769231 3.076923 -0.192308
v 0.769230 3.076923 -1.346154
v 0.769231 1.923077 -0.192308
v 0.769230 1.923077 -1.346154
v -2.307692 1.731538 0.000000
v -1.538461 1.731538 0.000000
v -2.307692 1.730769 0.000000
v -1.538461 1.730769 0.000000
v -1.538462 1.731538 -1.538461
v -2.307692 1.731538 -1.538461
v -1.538462 1.730769 -1.538461
v -2.307692 1.730769 -1.538461
v -1.538462 1.731538 -1.538461
v -1.538461 1.731538 0.000000
v -2.307692 1.731538 -1.538461
v -2.307692 1.731538 0.000000
v -2.307692 1.730769 -1.538461
v -2.307692 1.730769 0.000000
v -1.538462 1.730769 -1.538461
v -1.538461 1.730769 0.000000
v -2.307692 1.731538 -1.538461
v -2.307692 1.731538 0.000000
v -2.307692 1.730769 -1.538461
v -2.307692 1.730769 0.000000
v -1.538461 1.731538 0.000000
v -1.538462 1.731538 -1.538461
v -1.538461 1.730769 0.000000
v -1.538462 1.730769 -1.538461
v -0.023331 1.730769 -1.171710
v 0.384615 1.730769 -0.763764
v -0.023331 0.576923 -1.171710
v 0.384615 0.576923 -0.763764
v 0.792562 1.730769 -1.171710
v 0.384615 1.730769 -1.579657
v 0.792562 0.576923 -1.171710
v 0.384615 0.576923 -1.579657
v 0.792562 1.730769 -1.171710
v 0.384615 1.730769 -0.763764
v 0.384615 1.730769 -1.579657
v -0.023331 1.730769 -1.171710
v 0.384615 0.576923 -1.579657
v -0.023331 0.576923 -1.171710
v 0.792562 0.576923 -1.171710
v 0.384615 0.576923 -0.763764
v 0.384615 1.730769 -1.579657
v -0.023331 1.730769 -1.171710
v 0.384615 0.576923 -1.579657
v -0.023331 0.576923 -1.171710
v 0.384615 1.730769 -0.763764
v 0.792562 1.730769 -1.171710
v 0.384615 0.576923 -0.763764
v 0.792562 0.576923 -1.171710
v -0.768461 1.730769 0.000000
v -0.000769 1.730769 0.000000
v -0.768461 0.576923 0.000000
v -0.000769 0.576923 0.000000
v -0.000769 1.730769 -0.961538
v -0.768462 1.730769 -0.961538
v -0.000769 0.576923 -0.961538
v -0.768462 0.576923 -0.961538
v -0.000769 1.730769 -0.961538
v -0.000769 1.730769 0.000000
v -0.768462 1.730769 -0.961538
v -0.768461 1.730769 0.000000
v -0.768462 0.576923 -0.961538
v -0.768461 0.576923 0.000000
v -0.000769 0.576923 -0.961538
v -0.000769 0.576923 0.000000
v -0.768462 1.730769 -0.961538
v -0.768461 1.730769 0.000000
v -0.768462 0.576923 -0.961538
v -0.768461 0.576923 0.000000
v -0.000769 1.730769 0.000000
v -0.000769 1.730769 -0.961538
v -0.000769 0.576923 0.000000
v -0.000769 0.576923 -0.961538
v 0.769231 4.230769 -0.192308
v 1.538461 4.230769 -0.192308
v 0.769231 3.076923 -0.192308
v 1.538461 3.076923 -0.192308
v 1.538461 4.230769 -1.346154
v 0.769230 4.230769 -1.346154
v 1.538461 3.076923 -1.346154
v 0.769230 3.076923 -1.346154
v 1.538461 4.230769 -1.346154
v 1.538461 4.230769 -0.192308
v 0.769230 4.230769 -1.346154
v 0.769231 4.230769 -0.192308
v 0.769230 3.076923 -1.346154
v 0.769231 3.076923 -0.192308
v 1.538461 3.076923 -1.346154
v 1.538461 3.076923 -0.192308
v 0.769230 4.230769 -1.346154
v 0.769231 4.230769 -0.192308
v 0.769230 3.076923 -1.346154
v 0.769231 3.076923 -0.192308
v 1.538461 4.230769 -0.192308
v 1.538461 4.230769 -1.346154
v 1.538461 3.076923 -0.192308
v 1.538461 3.076923 -1.346154
v 1.538461 4.197775 -0.769232
v 1.923077 4.197775 -0.769232
v 1.538461 3.653846 -0.225303
v 1.923077 3.653846 -0.225304
v 1.923077 3.653846 -1.313160
v 1.538461 3.653846 -1.313160
v 1.923077 3.109918 -0.769232
v 1.538461 3.109918 -0.769232
v 1.923077 3.653846 -1.313160
v 1.923077 4.197775 -0.769232
v 1.538461 3.653846 -1.313160
v 1.538461 4.197775 -0.769232
v 1.538461 3.109918 -0.769232
v 1.538461 3.653846 -0.225303
v 1.923077 3.109918 -0.769232
v 1.923077 3.653846 -0.225304
v 1.538461 3.653846 -1.313160
v 1.538461 4.197775 -0.769232
v 1.538461 3.109918 -0.769232
v 1.538461 3.653846 -0.225303
v 1.923077 4.197775 -0.769232
v 1.923077 3.653846 -1.313160
v 1.923077 3.653846 -0.225304
v 1.923077 3.109918 -0.769232
v 0.769231 3.076923 -0.384616
v 1.538461 3.076923 -0.384616
v 0.769231 2.692308 -0.384616
v 1.538461 2.692308 -0.384616
v 1.538461 3.076923 -1.153846
v 0.769230 3.076923 -1.153846
v 1.538461 2.692308 -1.153846
v 0.769230 2.692308 -1.153846
v 1.538461 3.076923 -1.153846
v 1.538461 3.076923 -0.384616
v 0.769230 3.076923 -1.153846
v 0.769231 3.076923 -0.384616
v 0.769230 2.692308 -1.153846
v 0.769231 2.692308 -0.384616
v 1.538461 2.692308 -1.153846
v 1.538461 2.692308 -0.384616
v 0.769230 3.076923 -1.153846
v 0.769231 3.076923 -0.384616
v 0.769230 2.692308 -1.153846
v 0.769231 2.692308 -0.384616
v 1.538461 3.076923 -0.384616
v 1.538461 3.076923 -1.153846
v 1.538461 2.692308 -0.384616
v 1.538461 2.692308 -1.153846
v 0.769230 4.038462 -1.346154
v 1.538461 4.038462 -1.346154
v 0.769230 3.269231 -1.346154
v 1.538461 3.269231 -1.346154
v 1.538461 4.038462 -1.730770
v 0.769230 4.038462 -1.730769
v 1.538461 3.269231 -1.730770
v 0.769230 3.269231 -1.730769
v 1.538461 4.038462 -1.730770
v 1.538461 4.038462 -1.346154
v 0.769230 4.038462 -1.730769
v 0.769230 4.038462 -1.346154
v 0.769230 3.269231 -1.730769
v 0.769230 3.269231 -1.346154
v 1.538461 3.269231 -1.730770
v 1.538461 3.269231 -1.346154
v 0.769230 4.038462 -1.730769
v 0.769230 4.038462 -1.346154
v 0.769230 3.269231 -1.730769
v 0.769230 3.269231 -1.346154
v 1.538461 4.038462 -1.346154
v 1.538461 4.038462 -1.730770
v 1.538461 3.269231 -1.346154
v 1.538461 3.269231 -1.730770
v -0.770000 1.923077 0.000000
v -0.769231 1.923077 0.000000
v -0.770000 0.384615 0.000000
v -0.769231 0.384615 0.000000
v -0.769231 1.923077 -0.769231
v -0.770000 1.923077 -0.769231
v -0.769231 0.384615 -0.769231
v -0.770000 0.384615 -0.769231
v -0.769231 1.923077 -0.769231
v -0.769231 1.923077 0.000000
v -0.770000 1.923077 -0.769231
v -0.770000 1.923077 0.000000
v -0.770000 0.384615 -0.769231
v -0.770000 0.384615 0.000000
v -0.769231 0.384615 -0.769231
v -0.769231 0.384615 0.000000
v -0.770000 1.923077 -0.769231
v -0.770000 1.923077 0.000000
v -0.770000 0.384615 -0.769231
v -0.770000 0.384615 0.000000
v -0.769231 1.923077 0.000000
v -0.769231 1.923077 -0.769231
v -0.769231 0.384615 0.000000
v -0.769231 0.384615 -0.769231
v -0.000000 3.846154 -0.384615
v 0.769231 3.846154 -0.384616
v -0.000000 3.076923 -0.384615
v 0.769231 3.076923 -0.384616
v 0.769230 3.846154 -1.153846
v -0.000000 3.846154 -1.153846
v 0.769230 3.076923 -1.153846
v -0.000000 3.076923 -1.153846
v 0.769230 3.846154 -1.153846
v 0.769231 3.846154 -0.384616
v -0.000000 3.846154 -1.153846
v -0.000000 3.846154 -0.384615
v -0.000000 3.076923 -1.153846
v -0.000000 3.076923 -0.384615
v 0.769230 3.076923 -1.153846
v 0.769231 3.076923 -0.384616
v -0.000000 3.846154 -1.153846
v -0.000000 3.846154 -0.384615
v -0.000000 3.076923 -1.153846
v -0.000000 3.076923 -0.384615
v 0.769231 3.846154 -0.384616
v 0.769230 3.846154 -1.153846
v 0.769231 3.076923 -0.384616
v 0.769230 3.076923 -1.153846
v -0.000000 3.846154 -0.385385
v 0.888345 4.214119 -0.385385
v 0.294372 3.135477 -0.385385
v 1.182717 3.503442 -0.385385
v 0.888345 4.214119 -1.153077
v -0.000000 3.846154 -1.153077
v 1.182717 3.503442 -1.153077
v 0.294371 3.135477 -1.153077
v 0.888345 4.214119 -1.153077
v 0.888345 4.214119 -0.385385
v -0.000000 3.846154 -1.153077
v -0.000000 3.846154 -0.385385
v 0.294371 3.135477 -1.153077
v 0.294372 3.135477 -0.385385
v 1.182717 3.503442 -1.153077
v 1.182717 3.503442 -0.385385
v -0.000000 3.846154 -1.153077
v -0.000000 3.846154 -0.385385
v 0.294371 3.135477 -1.153077
v 0.294372 3.135477 -0.385385
v 0.888345 4.214119 -0.385385
v 0.888345 4.214119 -1.153077
v 1.182717 3.503442 -0.385385
v 1.182717 3.503442 -1.153077
v -1.730769 4.230769 -0.768461
v -0.576923 4.230769 -0.768461
v -1.730769 3.076923 -0.768461
v -0.576923 3.076923 -0.768461
v -0.576923 4.230769 -0.769231
v -1.730769 4.230769 -0.769230
v -0.576923 3.076923 -0.769231
v -1.730769 3.076923 -0.769230
v -0.576923 4.230769 -0.769231
v -0.576923 4.230769 -0.768461
v -1.730769 4.230769 -0.769230
v -1.730769 4.230769 -0.768461
v -1.730769 3.076923 -0.769230
v -1.730769 3.076923 -0.768461
v -0.576923 3.076923 -0.769231
v -0.576923 3.076923 -0.768461
v -1.730769 4.230769 -0.769230
v -1.730769 4.230769 -0.768461
v -1.730769 3.076923 -0.769230
v -1.730769 3.076923 -0.768461
v -0.576923 4.230769 -0.768461
v -0.576923 4.230769 -0.769231
v -0.576923 3.076923 -0.768461
v -0.576923 3.076923 -0.769231
v -1.731538 4.423077 0.192308
v -1.730769 4.423077 0.192308
v -1.731538 3.653846 0.192308
v -1.730769 3.653846 0.192308
v -1.730770 4.423077 -1.730769
v -1.731539 4.423077 -1.730769
v -1.730770 3.653846 -1.730769
v -1.731539 3.653846 -1.730769
v -1.730770 4.423077 -1.730769
v -1.730769 4.423077 0.192308
v -1.731539 4.423077 -1.730769
v -1.731538 4.423077 0.192308
v -1.731539 3.653846 -1.730769
v -1.731538 3.653846 0.192308
v -1.730770 3.653846 -1.730769
v -1.730769 3.653846 0.192308
v -1.731539 4.423077 -1.730769
v -1.731538 4.423077 0.192308
v -1.731539 3.653846 -1.730769
v -1.731538 3.653846 0.192308
v -1.730769 4.423077 0.192308
v -1.730770 4.423077 -1.730769
v -1.730769 3.653846 0.192308
v -1.730770 3.653846 -1.730769
v -0.385385 1.017864 -0.553592
v -0.384615 1.017864 -0.553592
v -0.385385 0.745900 -0.825556
v -0.384616 0.745900 -0.825556
v -0.384616 1.561793 -1.097520
v -0.385385 1.561793 -1.097520
v -0.384616 1.289829 -1.369484
v -0.385385 1.289829 -1.369484
v -0.384616 1.561793 -1.097520
v -0.384615 1.017864 -0.553592
v -0.385385 1.561793 -1.097520
v -0.385385 1.017864 -0.553592
v -0.385385 1.289829 -1.369484
v -0.385385 0.745900 -0.825556
v -0.384616 1.289829 -1.369484
v -0.384616 0.745900 -0.825556
v -0.385385 1.561793 -1.097520
v -0.385385 1.017864 -0.553592
v -0.385385 1.289829 -1.369484
v -0.385385 0.745900 -0.825556
v -0.384615 1.017864 -0.553592
v -0.384616 1.561793 -1.097520
v -0.384616 0.745900 -0.825556
v -0.384616 1.289829 -1.369484
v -1.539231 3.269231 0.000000
v -1.538461 3.269231 0.000000
v -1.539231 1.730769 0.000000
v -1.538461 1.730769 0.000000
v -1.538462 3.269231 -1.538461
v -1.539231 3.269231 -1.538461
v -1.538462 1.730769 -1.538461
v -1.539231 1.730769 -1.538461
v -1.538462 3.269231 -1.538461
v -1.538461 3.269231 0.000000
v -1.539231 3.269231 -1.538461
v -1.539231 3.269231 0.000000
v -1.539231 1.730769 -1.538461
v -1.539231 1.730769 0.000000
v -1.538462 1.730769 -1.538461
v -1.538461 1.730769 0.000000
v -1.539231 3.269231 -1.538461
v -1.539231 3.269231 0.000000
v -1.539231 1.730769 -1.538461
v -1.539231 1.730769 0.000000
v -1.538461 3.269231 0.000000
v -1.538462 3.269231 -1.538461
v -1.538461 1.730769 0.000000
v -1.538462 1.730769 -1.538461
v -2.307692 3.270000 0.000000
v -1.538461 3.270000 0.000000
v -2.307692 3.269231 0.000000
v -1.538461 3.269231 0.000000
v -1.538462 3.270000 -1.538461
v -2.307692 3.270000 -1.538461
v -1.538462 3.269231 -1.538461
v -2.307692 3.269231 -1.538461
v -1.538462 3.270000 -1.538461
v -1.538461 3.270000 0.000000
v -2.307692 3.270000 -1.538461
v -2.307692 3.270000 0.000000
v -2.307692 3.269231 -1.538461
v -2.307692 3.269231 0.000000
v -1.538462 3.269231 -1.538461
v -1.538461 3.269231 0.000000
v -2.307692 3.270000 -1.538461
v -2.307692 3.270000 0.000000
v -2.307692 3.269231 -1.538461
v -2.307692 3.269231 0.000000
v -1.538461 3.270000 0.000000
v -1.538462 3.270000 -1.538461
v -1.538461 3.269231 0.000000
v -1.538462 3.269231 -1.538461
v -2.307692 3.269231 -1.537692
v -1.538462 3.269231 -1.537692
v -2.307692 1.730769 -1.537692
v -1.538462 1.730769 -1.537692
v -1.538462 3.269231 -1.538461
v -2.307692 3.269231 -1.538461
v -1.538462 1.730769 -1.538461
v -2.307692 1.730769 -1.538461
v -1.538462 3.269231 -1.538461
v -1.538462 3.269231 -1.537692
v -2.307692 3.269231 -1.538461
v -2.307692 3.269231 -1.537692
v -2.307692 1.730769 -1.538461
v -2.307692 1.730769 -1.537692
v -1.538462 1.730769 -1.538461
v -1.538462 1.730769 -1.537692
v -2.307692 3.269231 -1.538461
v -2.307692 3.269231 -1.537692
v -2.307692 1.730769 -1.538461
v -2.307692 1.730769 -1.537692
v -1.538462 3.269231 -1.537692
v -1.538462 3.269231 -1.538461
v -1.538462 1.730769 -1.537692
v -1.538462 1.730769 -1.538461
v -2.307692 3.269231 0.000770
v -1.538461 3.269231 0.000770
v -2.307692 1.730769 0.000770
v -1.538461 1.730769 0.000770
v -1.538461 3.269231 0.000000
v -2.307692 3.269231 0.000000
v -1.538461 1.730769 0.000000
v -2.307692 1.730769 0.000000
v -1.538461 3.269231 0.000000
v -1.538461 3.269231 0.000770
v -2.307692 3.269231 0.000000
v -2.307692 3.269231 0.000770
v -2.307692 1.730769 0.000000
v -2.307692 1.730769 0.000770
v -1.538461 1.730769 0.000000
v -1.538461 1.730769 0.000770
v -2.307692 3.269231 0.000000
v -2.307692 3.269231 0.000770
v -2.307692 1.730769 0.000000
v -2.307692 1.730769 0.000770
v -1.538461 3.269231 0.000770
v -1.538461 3.269231 0.000000
v -1.538461 1.730769 0.000770
v -1.538461 1.730769 0.000000
v -2.308461 2.115385 0.000000
v -2.307692 2.115385 0.000000
v -2.308461 1.730769 0.000000
v -2.307692 1.730769 0.000000
v -2.307692 2.115385 -1.538461
v -2.308461 2.115385 -1.538461
v -2.307692 1.730769 -1.538461
v -2.308461 1.730769 -1.538461
v -2.307692 2.115385 -1.538461
v -2.307692 2.115385 0.000000
v -2.308461 2.115385 -1.538461
v -2.308461 2.115385 0.000000
v -2.308461 1.730769 -1.538461
v -2.308461 1.730769 0.000000
v -2.307692 1.730769 -1.538461
v -2.307692 1.730769 0.000000
v -2.308461 2.115385 -1.538461
v -2.308461 2.115385 0.000000
v -2.308461 1.730769 -1.538461
v -2.308461 1.730769 0.000000
v -2.307692 2.115385 0.000000
v -2.307692 2.115385 -1.538461
v -2.307692 1.730769 0.000000
v -2.307692 1.730769 -1.538461
v -2.308461 3.269231 0.000000
v -2.307692 3.269231 0.000000
v -2.308461 2.884615 0.000000
v -2.307692 2.884615 0.000000
v -2.307692 3.269231 -1.538461
v -2.308461 3.269231 -1.538461
v -2.307692 2.884615 -1.538461
v -2.308461 2.884615 -1.538461
v -2.307692 3.269231 -1.538461
v -2.307692 3.269231 0.000000
v -2.308461 3.269231 -1.538461
v -2.308461 3.269231 0.000000
v -2.308461 2.884615 -1.538461
v -2.308461 2.884615 0.000000
v -2.307692 2.884615 -1.538461
v -2.307692 2.884615 0.000000
v -2.308461 3.269231 -1.538461
v -2.308461 3.269231 0.000000
v -2.308461 2.884615 -1.538461
v -2.308461 2.884615 0.000000
v -2.307692 3.269231 0.000000
v -2.307692 3.269231 -1.538461
v -2.307692 2.884615 0.000000
v -2.307692 2.884615 -1.538461
v -2.308461 2.884615 -1.153846
v -2.307692 2.884615 -1.153846
v -2.308461 2.115385 -1.153846
v -2.307692 2.115385 -1.153846
v -2.307692 2.884615 -1.538461
v -2.308461 2.884615 -1.538461
v -2.307692 2.115385 -1.538461
v -2.308461 2.115385 -1.538461
v -2.307692 2.884615 -1.538461
v -2.307692 2.884615 -1.153846
v -2.308461 2.884615 -1.538461
v -2.308461 2.884615 -1.153846
v -2.308461 2.115385 -1.538461
v -2.308461 2.115385 -1.153846
v -2.307692 2.115385 -1.538461
v -2.307692 2.115385 -1.153846
v -2.308461 2.884615 -1.538461
v -2.308461 2.884615 -1.153846
v -2.308461 2.115385 -1.538461
v -2.308461 2.115385 -1.153846
v -2.307692 2.884615 -1.153846
v -2.307692 2.884615 -1.538461
v -2.307692 2.115385 -1.153846
v -2.307692 2.115385 -1.538461
v -2.308461 2.884615 0.000000
v -2.307692 2.884615 0.000000
v -2.308461 2.115385 0.000000
v -2.307692 2.115385 0.000000
v -2.307692 2.884615 -0.384615
v -2.308461 2.884615 -0.384615
v -2.307692 2.115385 -0.384615
v -2.308461 2.115385 -0.384615
v -2.307692 2.884615 -0.384615
v -2.307692 2.884615 0.000000
v -2.308461 2.884615 -0.384615
v -2.308461 2.884615 0.000000
v -2.308461 2.115385 -0.384615
v -2.308461 2.115385 0.000000
v -2.307692 2.115385 -0.384615
v -2.307692 2.115385 0.000000
v -2.308461 2.884615 -0.384615
v -2.308461 2.884615 0.000000
v -2.308461 2.115385 -0.384615
v -2.308461 2.115385 0.000000
v -2.307692 2.884615 0.000000
v -2.307692 2.884615 -0.384615
v -2.307692 2.115385 0.000000
v -2.307692 2.115385 -0.384615
vn -0.0000 -0.0000 1.0000
vn -0.0000 -0.0000 -1.0000
vn -0.0000 1.0000 -0.0000
vn -0.0000 -1.0000 -0.0000
vn -1.0000 -0.0000 -0.0000
vn 1.0000 -0.0000 -0.0000
vn 0.3827 -0.0000 0.9239
vn -0.3827 -0.0000 -0.9239
vn -0.9239 -0.0000 0.3827
vn 0.9239 -0.0000 -0.3827
vn -0.7071 -0.0000 0.7071
vn 0.7071 -0.0000 -0.7071
vn -0.7071 -0.0000 -0.7071
vn 0.7071 -0.0000 0.7071
vn -0.0000 0.7071 0.7071
vn -0.0000 -0.7071 -0.7071
vn -0.0000 0.7071 -0.7071
vn -0.0000 -0.7071 0.7071
vn -0.3827 0.9239 -0.0000
vn 0.3827 -0.9239 -0.0000
vn -0.9239 -0.3827 -0.0000
vn 0.9239 0.3827 -0.0000
vt 0.000000 1.000000
vt 0.000000 0.906250
vt 0.093750 1.000000
vt 0.125000 0.500000
vt 0.125000 0.406250
vt 0.218750 0.500000
vt 0.218750 0.406250
vt 0.500000 1.000000
vt 0.500000 0.906250
vt 0.593750 1.000000
vt 0.593750 0.906250
vt 0.375000 0.875000
vt 0.375000 0.812500
vt 0.593750 0.875000
vt 0.593750 0.812500
vt 0.375000 0.750000
vt 0.593750 0.750000
vt 0.312500 0.406250
vt 0.312500 0.625000
vt 0.250000 0.406250
vt 0.250000 0.625000
vt 0.437500 0.750000
vt 0.437500 0.531250
vt 0.375000 0.531250
vt 0.812500 0.500000
vt 0.812500 0.437500
vt 0.875000 0.500000
vt 0.875000 0.437500
vt 0.375000 0.187500
vt 0.375000 0.125000
vt 0.437500 0.187500
vt 0.437500 0.125000
vt 0.468750 0.031250
vt 0.468750 0.125000
vt 0.437500 0.031250
vt 0.906250 0.562500
vt 0.906250 0.468750
vt 0.875000 0.562500
vt 0.875000 0.468750
vt 0.031250 1.000000
vt 0.375000 1.000000
vt 0.500000 0.875000
vt 0.125000 0.625000
vt 0.250000 0.500000
vt 0.000000 0.875000
vt 0.062500 1.000000
vt 0.687500 0.437500
vt 0.687500 0.312500
vt 0.750000 0.437500
vt 0.750000 0.312500
vt 0.562500 0.312500
vt 0.562500 0.187500
vt 0.625000 0.312500
vt 0.625000 0.187500
vt 0.000000 0.250000
vt 0.000000 0.125000
vt 0.062500 0.250000
vt 0.062500 0.125000
vt 0.687500 0.187500
vt 0.750000 0.187500
vt 0.218750 1.000000
vt 0.218750 0.906250
vt 0.000000 0.781250
vt 0.218750 0.875000
vt 0.218750 0.781250
vt 0.093750 0.531250
vt 0.093750 0.750000
vt 0.000000 0.531250
vt 0.000000 0.750000
vt 0.343750 1.000000
vt 0.343750 0.781250
vt 0.250000 1.000000
vt 0.250000 0.781250
vt 0.000000 0.500000
vt 0.000000 0.406250
vt 0.093750 0.500000
vt 0.093750 0.406250
vt 0.437500 0.625000
vt 0.531250 0.625000
vt 0.531250 0.531250
vt 0.500000 0.312500
vt 0.500000 0.375000
vt 0.375000 0.312500
vt 0.375000 0.375000
vt 0.625000 0.375000
vt 0.125000 1.000000
vt 0.750000 0.343750
vt 0.812500 0.343750
vt 0.750000 0.218750
vt 0.812500 0.312500
vt 0.812500 0.218750
vt 0.937500 0.625000
vt 0.937500 0.687500
vt 0.875000 0.625000
vt 0.875000 0.687500
vt 0.937500 0.562500
vt 0.625000 0.250000
vt 0.625000 0.156250
vt 0.687500 0.250000
vt 0.687500 0.156250
vt 0.500000 0.250000
vt 0.500000 0.156250
vt 0.562500 0.250000
vt 0.562500 0.156250
vt 0.812500 1.000000
vt 0.812500 0.906250
vt 0.875000 1.000000
vt 0.875000 0.906250
vt 0.812500 0.875000
vt 0.812500 0.781250
vt 0.875000 0.875000
vt 0.875000 0.781250
vt 0.843750 0.500000
vt 0.843750 0.562500
vt 0.750000 0.500000
vt 0.750000 0.562500
vt 0.281250 0.187500
vt 0.281250 0.125000
vt 0.187500 0.187500
vt 0.187500 0.125000
vt 0.593750 0.656250
vt 0.750000 0.750000
vt 0.750000 0.656250
vt 0.687500 0.750000
vt 0.687500 0.656250
vt 0.125000 0.250000
vt 0.125000 0.156250
vt 0.187500 0.250000
vt 0.187500 0.156250
vt 0.750000 0.875000
vt 0.750000 0.781250
vt 0.281250 0.250000
vt 0.843750 0.750000
vt 0.843750 0.687500
vt 0.750000 0.687500
vt 0.625000 0.875000
vt 0.625000 0.781250
vt 0.718750 0.875000
vt 0.718750 0.781250
vt 0.125000 0.375000
vt 0.125000 0.281250
vt 0.218750 0.375000
vt 0.218750 0.281250
vt 0.875000 0.250000
vt 0.875000 0.187500
vt 0.906250 0.250000
vt 0.906250 0.187500
vt 0.812500 0.125000
vt 0.812500 0.062500
vt 0.843750 0.125000
vt 0.843750 0.062500
vt 0.937500 0.156250
vt 0.937500 0.187500
vt 0.875000 0.156250
vt 0.937500 0.125000
vt 0.937500 0.093750
vt 0.875000 0.125000
vt 0.875000 0.093750
vt 0.875000 0.812500
vt 0.937500 0.875000
vt 0.937500 0.812500
vt 0.125000 0.125000
vt 0.125000 0.062500
vt 0.187500 0.062500
vt 0.562500 0.125000
vt 0.562500 0.093750
vt 0.625000 0.125000
vt 0.625000 0.093750
vt 0.687500 0.125000
vt 0.687500 0.093750
vt 0.062500 0.062500
vt 0.000000 0.062500
vt 0.937500 1.000000
vt 0.937500 0.937500
vt 0.875000 0.937500
vt 0.875000 0.406250
vt 0.937500 0.437500
vt 0.937500 0.406250
vt 0.500000 0.125000
vt 0.500000 0.093750
vt 0.906250 0.312500
vt 0.875000 0.312500
vt 0.781250 0.125000
vt 0.781250 0.062500
vt 0.750000 0.125000
vt 0.750000 0.062500
vt 0.687500 0.062500
vt 0.718750 0.125000
vt 0.718750 0.062500
vt 0.875000 0.375000
vt 0.906250 0.375000
vt 0.750000 1.000000
vt 0.812500 0.375000
vt 0.812500 0.250000
vt 0.812500 0.187500
vt 0.750000 0.625000
vt 0.843750 0.625000
vt 0.375000 0.156250
vt 0.375000 0.250000
vt 0.312500 0.156250
vt 0.312500 0.250000
vt 0.437500 0.250000
vt 0.437500 0.156250
vt 0.000000 0.375000
vt 0.000000 0.281250
vt 0.093750 0.375000
vt 0.093750 0.281250
vt 0.625000 1.000000
vt 0.625000 0.906250
vt 0.718750 1.000000
vt 0.718750 0.906250
vt 0.000000 0.937500
vt 0.156250 1.000000
vt 0.437500 0.687500
vt 0.593750 0.687500
vt 0.593750 0.625000
vt 0.000000 0.968750
vt 0.937500 0.843750
vt 1.000000 0.875000
vt 1.000000 0.843750
vt 0.125000 0.031250
vt 0.187500 0.031250
vt 0.250000 0.750000
vt 0.375000 0.625000
vt 0.125000 0.750000
vt 0.437500 0.312500
vt 0.687500 0.500000
vt 0.687500 0.625000
vt 0.312500 0.500000
vt 0.375000 0.500000
vt 0.687500 0.375000
vt 1.000000 0.812500
vt 1.000000 0.781250
vt 0.187500 0.093750
vt 0.312500 0.125000
vt 0.312500 0.093750
vt 0.437500 0.093750
vt 0.875000 0.750000
vt 0.875000 0.718750
vt 1.000000 0.750000
vt 1.000000 0.718750
vt 0.968750 1.000000
vt 0.968750 0.937500
vt 0.000000 0.000000
vt 0.031250 0.062500
vt 0.031250 0.000000
vt 0.968750 0.875000
vt 0.062500 0.000000
vt 0.093750 0.062500
vt 0.093750 0.000000
s 0
usemtl Material_0
f 1/1/1 3/2/1 2/1/1
f 3/2/1 4/2/1 2/1/1
f 5/1/2 7/2/2 6/1/2
f 7/2/2 8/2/2 6/1/2
f 9/3/3 11/3/3 10/1/3
f 11/3/3 12/1/3 10/1/3
f 13/3/4 15/3/4 14/1/4
f 15/3/4 16/1/4 14/1/4
f 17/4/5 19/5/5 18/6/5
f 19/5/5 20/7/5 18/6/5
f 21/8/6 23/9/6 22/10/6
f 23/9/6 24/11/6 22/10/6
f 25/12/1 27/13/1 26/14/1
f 27/13/1 28/15/1 26/14/1
f 29/13/2 31/16/2 30/15/2
f 31/16/2 32/17/2 30/15/2
f 33/18/3 35/19/3 34/20/3
f 35/19/3 36/21/3 34/20/3
f 37/22/4 39/23/4 38/16/4
f 39/23/4 40/24/4 38/16/4
f 41/25/5 43/26/5 42/27/5
f 43/26/5 44/28/5 42/27/5
f 45/29/6 47/30/6 46/31/6
f 47/30/6 48/32/6 46/31/6
f 49/1/7 51/1/7 50/3/7
f 51/1/7 52/3/7 50/3/7
f 53/1/8 55/1/8 54/3/8
f 55/1/8 56/3/8 54/3/8
f 57/33/3 59/34/3 58/35/3
f 59/34/3 60/32/3 58/35/3
f 61/36/4 63/37/4 62/38/4
f 63/37/4 64/39/4 62/38/4
f 65/1/9 67/1/9 66/40/9
f 67/1/9 68/40/9 66/40/9
f 69/1/10 71/1/10 70/40/10
f 71/1/10 72/40/10 70/40/10
f 73/41/1 75/12/1 74/8/1
f 75/12/1 76/42/1 74/8/1
f 77/43/2 79/4/2 78/21/2
f 79/4/2 80/44/2 78/21/2
f 81/45/3 83/1/3 82/45/3
f 83/1/3 84/1/3 82/45/3
f 85/1/4 87/45/4 86/1/4
f 87/45/4 88/45/4 86/1/4
f 89/1/5 91/45/5 90/1/5
f 91/45/5 92/45/5 90/1/5
f 93/1/6 95/45/6 94/1/6
f 95/45/6 96/45/6 94/1/6
f 97/1/1 99/45/1 98/1/1
f 99/45/1 100/45/1 98/1/1
f 101/1/2 103/45/2 102/1/2
f 103/45/2 104/45/2 102/1/2
f 105/46/3 107/46/3 106/1/3
f 107/46/3 108/1/3 106/1/3
f 109/46/4 111/46/4 110/1/4
f 111/46/4 112/1/4 110/1/4
f 113/47/5 115/48/5 114/49/5
f 115/48/5 116/50/5 114/49/5
f 117/51/6 119/52/6 118/53/6
f 119/52/6 120/54/6 118/53/6
f 121/1/1 123/45/1 122/1/1
f 123/45/1 124/45/1 122/1/1
f 125/1/2 127/45/2 126/1/2
f 127/45/2 128/45/2 126/1/2
f 129/46/3 131/46/3 130/1/3
f 131/46/3 132/1/3 130/1/3
f 133/46/4 135/46/4 134/1/4
f 135/46/4 136/1/4 134/1/4
f 137/55/5 139/56/5 138/57/5
f 139/56/5 140/58/5 138/57/5
f 141/48/6 143/59/6 142/50/6
f 143/59/6 144/60/6 142/50/6
f 145/1/1 147/2/1 146/61/1
f 147/2/1 148/62/1 146/61/1
f 149/45/2 151/63/2 150/64/2
f 151/63/2 152/65/2 150/64/2
f 153/66/3 155/67/3 154/68/3
f 155/67/3 156/69/3 154/68/3
f 157/70/4 159/71/4 158/72/4
f 159/71/4 160/73/4 158/72/4
f 161/74/5 163/75/5 162/76/5
f 163/75/5 164/77/5 162/76/5
f 165/78/6 167/23/6 166/79/6
f 167/23/6 168/80/6 166/79/6
f 169/1/1 171/1/1 170/46/1
f 171/1/1 172/46/1 170/46/1
f 173/1/2 175/1/2 174/46/2
f 175/1/2 176/46/2 174/46/2
f 177/81/3 179/82/3 178/83/3
f 179/82/3 180/84/3 178/83/3
f 181/85/4 183/53/4 182/82/4
f 183/53/4 184/81/4 182/82/4
f 185/1/5 187/1/5 186/86/5
f 187/1/5 188/86/5 186/86/5
f 189/1/6 191/1/6 190/86/6
f 191/1/6 192/86/6 190/86/6
f 193/49/11 195/87/11 194/26/11
f 195/87/11 196/88/11 194/26/11
f 197/50/12 199/89/12 198/90/12
f 199/89/12 200/91/12 198/90/12
f 201/92/3 203/93/3 202/94/3
f 203/93/3 204/95/3 202/94/3
f 205/92/4 207/96/4 206/94/4
f 207/96/4 208/38/4 206/94/4
f 209/97/13 211/98/13 210/99/13
f 211/98/13 212/100/13 210/99/13
f 213/101/14 215/102/14 214/103/14
f 215/102/14 216/104/14 214/103/14
f 217/105/1 219/106/1 218/107/1
f 219/106/1 220/108/1 218/107/1
f 221/109/2 223/110/2 222/111/2
f 223/110/2 224/112/2 222/111/2
f 225/113/3 227/114/3 226/115/3
f 227/114/3 228/116/3 226/115/3
f 229/117/4 231/118/4 230/119/4
f 231/118/4 232/120/4 230/119/4
f 233/17/5 235/121/5 234/122/5
f 235/121/5 236/123/5 234/122/5
f 237/124/6 239/125/6 238/17/6
f 239/125/6 240/121/6 238/17/6
f 241/126/1 243/127/1 242/128/1
f 243/127/1 244/129/1 242/128/1
f 245/130/2 247/131/2 246/109/2
f 247/131/2 248/110/2 246/109/2
f 249/117/3 251/132/3 250/119/3
f 251/132/3 252/128/3 250/119/3
f 253/133/4 255/134/4 254/122/4
f 255/134/4 256/135/4 254/122/4
f 257/136/5 259/137/5 258/138/5
f 259/137/5 260/139/5 258/138/5
f 261/140/6 263/141/6 262/142/6
f 263/141/6 264/143/6 262/142/6
f 265/144/15 267/145/15 266/146/15
f 267/145/15 268/147/15 266/146/15
f 269/148/16 271/149/16 270/150/16
f 271/149/16 272/151/16 270/150/16
f 273/152/17 275/153/17 274/154/17
f 275/153/17 276/145/17 274/154/17
f 277/155/18 279/156/18 278/157/18
f 279/156/18 280/158/18 278/157/18
f 281/111/5 283/159/5 282/160/5
f 283/159/5 284/161/5 282/160/5
f 285/162/6 287/163/6 286/120/6
f 287/163/6 288/164/6 286/120/6
f 289/165/1 291/166/1 290/167/1
f 291/166/1 292/168/1 290/167/1
f 293/167/2 295/168/2 294/169/2
f 295/168/2 296/170/2 294/169/2
f 297/171/3 299/58/3 298/172/3
f 299/58/3 300/56/3 298/172/3
f 301/173/4 303/174/4 302/107/4
f 303/174/4 304/175/4 302/107/4
f 305/28/5 307/176/5 306/177/5
f 307/176/5 308/178/5 306/177/5
f 309/179/6 311/180/6 310/165/6
f 311/180/6 312/166/6 310/165/6
f 313/58/1 315/171/1 314/162/1
f 315/171/1 316/163/1 314/162/1
f 317/175/2 319/111/2 318/174/2
f 319/111/2 320/160/2 318/174/2
f 321/146/3 323/181/3 322/144/3
f 323/181/3 324/182/3 322/144/3
f 325/183/4 327/184/4 326/185/4
f 327/184/4 328/186/4 326/185/4
f 329/169/5 331/187/5 330/188/5
f 331/187/5 332/189/5 330/188/5
f 333/190/6 335/182/6 334/191/6
f 335/182/6 336/181/6 334/191/6
f 337/1/1 339/45/1 338/1/1
f 339/45/1 340/45/1 338/1/1
f 341/1/2 343/45/2 342/1/2
f 343/45/2 344/45/2 342/1/2
f 345/46/3 347/46/3 346/1/3
f 347/46/3 348/1/3 346/1/3
f 349/46/4 351/46/4 350/1/4
f 351/46/4 352/1/4 350/1/4
f 353/57/5 355/58/5 354/126/5
f 355/58/5 356/162/5 354/126/5
f 357/192/6 359/130/6 358/105/6
f 359/130/6 360/109/6 358/105/6
f 361/26/1 363/193/1 362/28/1
f 363/193/1 364/190/1 362/28/1
f 365/59/2 367/169/2 366/60/2
f 367/169/2 368/185/2 366/60/2
f 369/144/3 371/182/3 370/194/3
f 371/182/3 372/90/3 370/194/3
f 373/195/4 375/148/4 374/60/4
f 375/148/4 376/185/4 374/60/4
f 377/193/5 379/90/5 378/190/5
f 379/90/5 380/182/5 378/190/5
f 381/52/6 383/165/6 382/54/6
f 383/165/6 384/167/6 382/54/6
f 385/135/1 387/196/1 386/134/1
f 387/196/1 388/197/1 386/134/1
f 389/196/2 391/116/2 390/197/2
f 391/116/2 392/114/2 390/197/2
f 393/198/19 395/199/19 394/200/19
f 395/199/19 396/201/19 394/200/19
f 397/101/20 399/102/20 398/202/20
f 399/102/20 400/203/20 398/202/20
f 401/195/21 403/148/21 402/145/21
f 403/148/21 404/157/21 402/145/21
f 405/194/22 407/195/22 406/144/22
f 407/195/22 408/145/22 406/144/22
f 409/204/1 411/205/1 410/206/1
f 411/205/1 412/207/1 410/206/1
f 413/208/2 415/209/2 414/210/2
f 415/209/2 416/211/2 414/210/2
f 417/2/3 419/1/3 418/2/3
f 419/1/3 420/1/3 418/2/3
f 421/1/4 423/2/4 422/1/4
f 423/2/4 424/2/4 422/1/4
f 425/1/5 427/2/5 426/1/5
f 427/2/5 428/2/5 426/1/5
f 429/1/6 431/2/6 430/1/6
f 431/2/6 432/2/6 430/1/6
f 433/1/1 435/212/1 434/1/1
f 435/212/1 436/212/1 434/1/1
f 437/1/2 439/212/2 438/1/2
f 439/212/2 440/212/2 438/1/2
f 441/213/3 443/213/3 442/1/3
f 443/213/3 444/1/3 442/1/3
f 445/213/4 447/213/4 446/1/4
f 447/213/4 448/1/4 446/1/4
f 449/214/5 451/78/5 450/215/5
f 451/78/5 452/216/5 450/215/5
f 453/22/6 455/214/6 454/17/6
f 455/214/6 456/215/6 454/17/6
f 457/1/18 459/217/18 458/1/18
f 459/217/18 460/217/18 458/1/18
f 461/1/17 463/217/17 462/1/17
f 463/217/17 464/217/17 462/1/17
f 465/46/15 467/46/15 466/1/15
f 467/46/15 468/1/15 466/1/15
f 469/46/16 471/46/16 470/1/16
f 471/46/16 472/1/16 470/1/16
f 473/160/5 475/218/5 474/219/5
f 475/218/5 476/220/5 474/219/5
f 477/163/6 479/221/6 478/164/6
f 479/221/6 480/222/6 478/164/6
f 481/1/1 483/45/1 482/1/1
f 483/45/1 484/45/1 482/1/1
f 485/1/2 487/45/2 486/1/2
f 487/45/2 488/45/2 486/1/2
f 489/86/3 491/86/3 490/1/3
f 491/86/3 492/1/3 490/1/3
f 493/86/4 495/86/4 494/1/4
f 495/86/4 496/1/4 494/1/4
f 497/223/5 499/21/5 498/16/5
f 499/21/5 500/224/5 498/16/5
f 501/225/6 503/43/6 502/223/6
f 503/43/6 504/21/6 502/223/6
f 505/1/1 507/1/1 506/46/1
f 507/1/1 508/46/1 506/46/1
f 509/1/2 511/1/2 510/46/2
f 511/1/2 512/46/2 510/46/2
f 513/103/3 515/51/3 514/202/3
f 515/51/3 516/226/3 514/202/3
f 517/25/4 519/26/4 518/227/4
f 519/26/4 520/47/4 518/227/4
f 521/1/5 523/1/5 522/86/5
f 523/1/5 524/86/5 522/86/5
f 525/1/6 527/1/6 526/86/6
f 527/1/6 528/86/6 526/86/6
f 529/83/1 531/29/1 530/226/1
f 531/29/1 532/31/1 530/226/1
f 533/228/2 535/227/2 534/196/2
f 535/227/2 536/115/2 534/196/2
f 537/212/3 539/1/3 538/212/3
f 539/1/3 540/1/3 538/212/3
f 541/1/4 543/212/4 542/1/4
f 543/212/4 544/212/4 542/1/4
f 545/1/5 547/45/5 546/1/5
f 547/45/5 548/45/5 546/1/5
f 549/1/6 551/45/6 550/1/6
f 551/45/6 552/45/6 550/1/6
f 553/19/1 555/229/1 554/224/1
f 555/229/1 556/230/1 554/224/1
f 557/85/2 559/97/2 558/231/2
f 559/97/2 560/99/2 558/231/2
f 561/212/3 563/1/3 562/212/3
f 563/1/3 564/1/3 562/212/3
f 565/1/4 567/212/4 566/1/4
f 567/212/4 568/212/4 566/1/4
f 569/1/5 571/45/5 570/1/5
f 571/45/5 572/45/5 570/1/5
f 573/1/6 575/45/6 574/1/6
f 575/45/6 576/45/6 574/1/6
f 577/1/1 579/217/1 578/1/1
f 579/217/1 580/217/1 578/1/1
f 581/1/2 583/217/2 582/1/2
f 583/217/2 584/217/2 582/1/2
f 585/86/3 587/86/3 586/1/3
f 587/86/3 588/1/3 586/1/3
f 589/86/4 591/86/4 590/1/4
f 591/86/4 592/1/4 590/1/4
f 593/159/5 595/112/5 594/232/5
f 595/112/5 596/233/5 594/232/5
f 597/120/6 599/234/6 598/235/6
f 599/234/6 600/236/6 598/235/6
f 601/1/1 603/217/1 602/1/1
f 603/217/1 604/217/1 602/1/1
f 605/1/2 607/217/2 606/1/2
f 607/217/2 608/217/2 606/1/2
f 609/86/3 611/86/3 610/1/3
f 611/86/3 612/1/3 610/1/3
f 613/86/4 615/86/4 614/1/4
f 615/86/4 616/1/4 614/1/4
f 617/235/5 619/236/5 618/32/5
f 619/236/5 620/237/5 618/32/5
f 621/238/6 623/239/6 622/240/6
f 623/239/6 624/241/6 622/240/6
f 625/1/1 627/212/1 626/1/1
f 627/212/1 628/212/1 626/1/1
f 629/1/2 631/212/2 630/1/2
f 631/212/2 632/212/2 630/1/2
f 633/40/3 635/40/3 634/1/3
f 635/40/3 636/1/3 634/1/3
f 637/40/4 639/40/4 638/1/4
f 639/40/4 640/1/4 638/1/4
f 641/173/5 643/174/5 642/242/5
f 643/174/5 644/243/5 642/242/5
f 645/172/6 647/244/6 646/245/6
f 647/244/6 648/246/6 646/245/6
f 649/1/1 651/212/1 650/1/1
f 651/212/1 652/212/1 650/1/1
f 653/1/2 655/212/2 654/1/2
f 655/212/2 656/212/2 654/1/2
f 657/40/3 659/40/3 658/1/3
f 659/40/3 660/1/3 658/1/3
f 661/40/4 663/40/4 662/1/4
f 663/40/4 664/1/4 662/1/4
f 665/174/5 667/160/5 666/243/5
f 667/160/5 668/247/5 666/243/5
f 669/171/6 671/248/6 670/249/6
f 671/248/6 672/250/6 670/249/6
o scopeModel
v -2.293077 3.076923 -0.192307
v -2.292307 3.076923 -0.192307
v -2.293077 1.923077 -0.192307
v -2.292307 1.923077 -0.192307
v -2.292308 3.076923 -1.346153
v -2.293077 3.076923 -1.346153
v -2.292308 1.923077 -1.346153
v -2.293077 1.923077 -1.346153
v -2.292308 3.076923 -1.346153
v -2.292307 3.076923 -0.192307
v -2.293077 3.076923 -1.346153
v -2.293077 3.076923 -0.192307
v -2.293077 1.923077 -1.346153
v -2.293077 1.923077 -0.192307
v -2.292308 1.923077 -1.346153
v -2.292307 1.923077 -0.192307
v -2.293077 3.076923 -1.346153
v -2.293077 3.076923 -0.192307
v -2.293077 1.923077 -1.346153
v -2.293077 1.923077 -0.192307
v -2.292307 3.076923 -0.192307
v -2.292308 3.076923 -1.346153
v -2.292307 1.923077 -0.192307
v -2.292308 1.923077 -1.346153
vn -0.0000 -0.0000 1.0000
vn -0.0000 -0.0000 -1.0000
vn -0.0000 1.0000 -0.0000
vn -0.0000 -1.0000 -0.0000
vn -1.0000 -0.0000 -0.0000
vn 1.0000 -0.0000 -0.0000
vt 0.906250 0.093750
vt 0.906250 0.000000
vt 1.000000 0.093750
vt 1.000000 0.000000
s 0
usemtl Material_0
f 673/251/23 675/252/23 674/253/23
f 675/252/23 676/254/23 674/253/23
f 677/251/24 679/252/24 678/253/24
f 679/252/24 680/254/24 678/253/24
f 681/251/25 683/252/25 682/253/25
f 683/252/25 684/254/25 682/253/25
f 685/251/26 687/252/26 686/253/26
f 687/252/26 688/254/26 686/253/26
f 689/251/27 691/252/27 690/253/27
f 691/252/27 692/254/27 690/253/27
f 693/251/28 695/252/28 694/253/28
f 695/252/28 696/254/28 694/253/28
o overlaySolidModel
v -2.300769 3.076923 -0.192307
v -2.300000 3.076923 -0.192307
v -2.300769 1.923077 -0.192307
v -2.300000 1.923077 -0.192307
v -2.300000 3.076923 -1.346153
v -2.300769 3.076923 -1.346153
v -2.300000 1.923077 -1.346153
v -2.300769 1.923077 -1.346153
v -2.300000 3.076923 -1.346153
v -2.300000 3.076923 -0.192307
v -2.300769 3.076923 -1.346153
v -2.300769 3.076923 -0.192307
v -2.300769 1.923077 -1.346153
v -2.300769 1.923077 -0.192307
v -2.300000 1.923077 -1.346153
v -2.300000 1.923077 -0.192307
v -2.300769 3.076923 -1.346153
v -2.300769 3.076923 -0.192307
v -2.300769 1.923077 -1.346153
v -2.300769 1.923077 -0.192307
v -2.300000 3.076923 -0.192307
v -2.300000 3.076923 -1.346153
v -2.300000 1.923077 -0.192307
v -2.300000 1.923077 -1.346153
vn -0.0000 -0.0000 1.0000
vn -0.0000 -0.0000 -1.0000
vn -0.0000 1.0000 -0.0000
vn -0.0000 -1.0000 -0.0000
vn -1.0000 -0.0000 -0.0000
vn 1.0000 -0.0000 -0.0000
vt 0.906250 0.093750
vt 0.906250 0.000000
vt 1.000000 0.093750
vt 1.000000 0.000000
s 0
usemtl Material_0
f 697/255/29 699/256/29 698/257/29
f 699/256/29 700/258/29 698/257/29
f 701/255/30 703/256/30 702/257/30
f 703/256/30 704/258/30 702/257/30
f 705/255/31 707/256/31 706/257/31
f 707/256/31 708/258/31 706/257/31
f 709/255/32 711/256/32 710/257/32
f 711/256/32 712/258/32 710/257/32
f 713/255/33 715/256/33 714/257/33
f 715/256/33 716/258/33 714/257/33
f 717/255/34 719/256/34 718/257/34
f 719/256/34 720/258/34 718/257/34
