# Blender 4.1.1
# www.blender.org
mtllib sr1_s.mtl
o attachmentModel
v 0.000000 0.048750 0.046875
v 0.437500 0.048750 0.046875
v 0.000000 -0.045000 0.046875
v 0.437500 -0.045000 0.046875
v 0.437500 0.048750 -0.046875
v -0.000000 0.048750 -0.046875
v 0.437500 -0.045000 -0.046875
v -0.000000 -0.045000 -0.046875
v 0.437500 0.048750 -0.046875
v 0.437500 0.048750 0.046875
v -0.000000 0.048750 -0.046875
v 0.000000 0.048750 0.046875
v -0.000000 -0.045000 -0.046875
v 0.000000 -0.045000 0.046875
v 0.437500 -0.045000 -0.046875
v 0.437500 -0.045000 0.046875
v -0.000000 0.048750 -0.046875
v 0.000000 0.048750 0.046875
v -0.000000 -0.045000 -0.046875
v 0.000000 -0.045000 0.046875
v 0.437500 0.048750 0.046875
v 0.437500 0.048750 -0.046875
v 0.437500 -0.045000 0.046875
v 0.437500 -0.045000 -0.046875
v -0.062500 -0.029375 0.031250
v 0.031250 -0.029375 0.031250
v -0.062500 -0.060625 0.031250
v 0.031250 -0.060625 0.031250
v 0.031250 -0.029375 -0.031250
v -0.062500 -0.029375 -0.031250
v 0.031250 -0.060625 -0.031250
v -0.062500 -0.060625 -0.031250
v 0.031250 -0.029375 -0.031250
v 0.031250 -0.029375 0.031250
v -0.062500 -0.029375 -0.031250
v -0.062500 -0.029375 0.031250
v -0.062500 -0.060625 -0.031250
v -0.062500 -0.060625 0.031250
v 0.031250 -0.060625 -0.031250
v 0.031250 -0.060625 0.031250
v -0.062500 -0.029375 -0.031250
v -0.062500 -0.029375 0.031250
v -0.062500 -0.060625 -0.031250
v -0.062500 -0.060625 0.031250
v 0.031250 -0.029375 0.031250
v 0.031250 -0.029375 -0.031250
v 0.031250 -0.060625 0.031250
v 0.031250 -0.060625 -0.031250
v -0.125000 -0.060625 0.046875
v 0.000000 -0.060625 0.046875
v -0.125000 -0.091875 0.046875
v 0.000000 -0.091875 0.046875
v -0.000000 -0.060625 -0.046875
v -0.125000 -0.060625 -0.046875
v -0.000000 -0.091875 -0.046875
v -0.125000 -0.091875 -0.046875
v -0.000000 -0.060625 -0.046875
v 0.000000 -0.060625 0.046875
v -0.125000 -0.060625 -0.046875
v -0.125000 -0.060625 0.046875
v -0.125000 -0.091875 -0.046875
v -0.125000 -0.091875 0.046875
v -0.000000 -0.091875 -0.046875
v 0.000000 -0.091875 0.046875
v -0.125000 -0.060625 -0.046875
v -0.125000 -0.060625 0.046875
v -0.125000 -0.091875 -0.046875
v -0.125000 -0.091875 0.046875
v 0.000000 -0.060625 0.046875
v -0.000000 -0.060625 -0.046875
v 0.000000 -0.091875 0.046875
v -0.000000 -0.091875 -0.046875
v -0.187500 -0.060625 0.062500
v -0.125000 -0.060625 0.062500
v -0.187500 -0.091875 0.062500
v -0.125000 -0.091875 0.062500
v -0.125000 -0.060625 -0.062500
v -0.187500 -0.060625 -0.062500
v -0.125000 -0.091875 -0.062500
v -0.187500 -0.091875 -0.062500
v -0.125000 -0.060625 -0.062500
v -0.125000 -0.060625 0.062500
v -0.187500 -0.060625 -0.062500
v -0.187500 -0.060625 0.062500
v -0.187500 -0.091875 -0.062500
v -0.187500 -0.091875 0.062500
v -0.125000 -0.091875 -0.062500
v -0.125000 -0.091875 0.062500
v -0.187500 -0.060625 -0.062500
v -0.187500 -0.060625 0.062500
v -0.187500 -0.091875 -0.062500
v -0.187500 -0.091875 0.062500
v -0.125000 -0.060625 0.062500
v -0.125000 -0.060625 -0.062500
v -0.125000 -0.091875 0.062500
v -0.125000 -0.091875 -0.062500
vn -0.0000 -0.0000 1.0000
vn -0.0000 -0.0000 -1.0000
vn -0.0000 1.0000 -0.0000
vn -0.0000 -1.0000 -0.0000
vn -1.0000 -0.0000 -0.0000
vn 1.0000 -0.0000 -0.0000
vt 0.000000 1.000000
vt 0.000000 0.906250
vt 0.437500 1.000000
vt 0.437500 0.906250
vt 0.000000 0.875000
vt 0.000000 0.781250
vt 0.437500 0.875000
vt 0.437500 0.781250
vt 0.093750 0.312500
vt 0.093750 0.750000
vt 0.000000 0.312500
vt 0.000000 0.750000
vt 0.218750 0.750000
vt 0.218750 0.312500
vt 0.125000 0.750000
vt 0.125000 0.312500
vt 0.375000 0.625000
vt 0.375000 0.531250
vt 0.468750 0.625000
vt 0.468750 0.531250
vt 0.375000 0.750000
vt 0.375000 0.656250
vt 0.468750 0.750000
vt 0.468750 0.656250
vt 0.500000 0.500000
vt 0.500000 0.468750
vt 0.593750 0.500000
vt 0.593750 0.468750
vt 0.562500 1.000000
vt 0.562500 0.968750
vt 0.656250 1.000000
vt 0.656250 0.968750
vt 0.500000 0.781250
vt 0.500000 0.875000
vt 0.562500 0.875000
vt 0.562500 0.781250
vt 0.250000 0.437500
vt 0.250000 0.406250
vt 0.312500 0.437500
vt 0.312500 0.406250
vt 0.562500 0.812500
vt 0.625000 0.812500
vt 0.625000 0.781250
vt 0.500000 0.687500
vt 0.500000 0.656250
vt 0.625000 0.687500
vt 0.625000 0.656250
vt 0.375000 0.500000
vt 0.375000 0.468750
vt 0.343750 0.625000
vt 0.343750 0.750000
vt 0.250000 0.625000
vt 0.250000 0.750000
vt 0.343750 0.500000
vt 0.250000 0.500000
vt 0.500000 0.562500
vt 0.500000 0.531250
vt 0.593750 0.562500
vt 0.593750 0.531250
vt 0.500000 0.625000
vt 0.500000 0.593750
vt 0.593750 0.625000
vt 0.593750 0.593750
vt 0.562500 0.937500
vt 0.562500 0.906250
vt 0.625000 0.937500
vt 0.625000 0.906250
vt 0.562500 0.843750
vt 0.625000 0.875000
vt 0.625000 0.843750
vt 0.437500 0.937500
vt 0.500000 0.750000
vt 0.500000 0.718750
vt 0.625000 0.750000
vt 0.625000 0.718750
vt 0.250000 0.468750
s 0
usemtl Material_0
f 1/1/1 3/2/1 2/3/1
f 3/2/1 4/4/1 2/3/1
f 5/5/2 7/6/2 6/7/2
f 7/6/2 8/8/2 6/7/2
f 9/9/3 11/10/3 10/11/3
f 11/10/3 12/12/3 10/11/3
f 13/13/4 15/14/4 14/15/4
f 15/14/4 16/16/4 14/15/4
f 17/17/5 19/18/5 18/19/5
f 19/18/5 20/20/5 18/19/5
f 21/21/6 23/22/6 22/23/6
f 23/22/6 24/24/6 22/23/6
f 25/25/1 27/26/1 26/27/1
f 27/26/1 28/28/1 26/27/1
f 29/29/2 31/30/2 30/31/2
f 31/30/2 32/32/2 30/31/2
f 33/33/3 35/34/3 34/8/3
f 35/34/3 36/7/3 34/8/3
f 37/35/4 39/36/4 38/34/4
f 39/36/4 40/33/4 38/34/4
f 41/37/5 43/38/5 42/39/5
f 43/38/5 44/40/5 42/39/5
f 45/41/6 47/36/6 46/42/6
f 47/36/6 48/43/6 46/42/6
f 49/44/1 51/45/1 50/46/1
f 51/45/1 52/47/1 50/46/1
f 53/48/2 55/49/2 54/25/2
f 55/49/2 56/26/2 54/25/2
f 57/50/3 59/51/3 58/52/3
f 59/51/3 60/53/3 58/52/3
f 61/50/4 63/54/4 62/52/4
f 63/54/4 64/55/4 62/52/4
f 65/56/5 67/57/5 66/58/5
f 67/57/5 68/59/5 66/58/5
f 69/60/6 71/61/6 70/62/6
f 71/61/6 72/63/6 70/62/6
f 73/64/1 75/65/1 74/66/1
f 75/65/1 76/67/1 74/66/1
f 77/35/2 79/68/2 78/69/2
f 79/68/2 80/70/2 78/69/2
f 81/64/3 83/29/3 82/71/3
f 83/29/3 84/3/3 82/71/3
f 85/64/4 87/35/4 86/71/4
f 87/35/4 88/7/4 86/71/4
f 89/72/5 91/73/5 90/74/5
f 91/73/5 92/75/5 90/74/5
f 93/55/6 95/76/6 94/48/6
f 95/76/6 96/49/6 94/48/6
