# Blender 4.2.3 LTS
# www.blender.org
mtllib lev.ak308comp.mtl
o attachmentModel
v 0.384615 0.384615 -0.383846
v 2.692307 0.384615 -0.383847
v 0.384615 -0.384615 -0.383846
v 2.692307 -0.384615 -0.383847
v 2.692307 0.384615 -0.384616
v 0.384615 0.384615 -0.384615
v 2.692307 -0.384615 -0.384616
v 0.384615 -0.384615 -0.384615
v 2.692307 0.384615 -0.384616
v 2.692307 0.384615 -0.383847
v 0.384615 0.384615 -0.384615
v 0.384615 0.384615 -0.383846
v 0.384615 -0.384615 -0.384615
v 0.384615 -0.384615 -0.383846
v 2.692307 -0.384615 -0.384616
v 2.692307 -0.384615 -0.383847
v 0.384615 0.384615 -0.384615
v 0.384615 0.384615 -0.383846
v 0.384615 -0.384615 -0.384615
v 0.384615 -0.384615 -0.383846
v 2.692307 0.384615 -0.383847
v 2.692307 0.384615 -0.384616
v 2.692307 -0.384615 -0.383847
v 2.692307 -0.384615 -0.384616
v 2.692307 0.384615 0.384615
v 3.076923 0.384615 0.384615
v 2.692307 -0.384615 0.384615
v 3.076923 -0.384615 0.384615
v 3.076923 0.384615 -0.384616
v 2.692307 0.384615 -0.384616
v 3.076923 -0.384615 -0.384616
v 2.692307 -0.384615 -0.384616
v 3.076923 0.384615 -0.384616
v 3.076923 0.384615 0.384615
v 2.692307 0.384615 -0.384616
v 2.692307 0.384615 0.384615
v 2.692307 -0.384615 -0.384616
v 2.692307 -0.384615 0.384615
v 3.076923 -0.384615 -0.384616
v 3.076923 -0.384615 0.384615
v 2.692307 0.384615 -0.384616
v 2.692307 0.384615 0.384615
v 2.692307 -0.384615 -0.384616
v 2.692307 -0.384615 0.384615
v 3.076923 0.384615 0.384615
v 3.076923 0.384615 -0.384616
v 3.076923 -0.384615 0.384615
v 3.076923 -0.384615 -0.384616
v 0.000000 0.385385 0.384615
v 0.384615 0.385385 0.384615
v 0.000000 -0.384615 0.384615
v 0.384615 -0.384615 0.384615
v 0.384615 0.385385 -0.384615
v -0.000000 0.385385 -0.384615
v 0.384615 -0.384615 -0.384615
v -0.000000 -0.384615 -0.384615
v 0.384615 0.385385 -0.384615
v 0.384615 0.385385 0.384615
v -0.000000 0.385385 -0.384615
v 0.000000 0.385385 0.384615
v -0.000000 -0.384615 -0.384615
v 0.000000 -0.384615 0.384615
v 0.384615 -0.384615 -0.384615
v 0.384615 -0.384615 0.384615
v -0.000000 0.385385 -0.384615
v 0.000000 0.385385 0.384615
v -0.000000 -0.384615 -0.384615
v 0.000000 -0.384615 0.384615
v 0.384615 0.385385 0.384615
v 0.384615 0.385385 -0.384615
v 0.384615 -0.384615 0.384615
v 0.384615 -0.384615 -0.384615
v 0.384615 0.384615 0.385385
v 2.692307 0.384615 0.385384
v 0.384615 -0.384615 0.385385
v 2.692307 -0.384615 0.385384
v 2.692307 0.384615 0.384615
v 0.384615 0.384615 0.384615
v 2.692307 -0.384615 0.384615
v 0.384615 -0.384615 0.384615
v 2.692307 0.384615 0.384615
v 2.692307 0.384615 0.385384
v 0.384615 0.384615 0.384615
v 0.384615 0.384615 0.385385
v 0.384615 -0.384615 0.384615
v 0.384615 -0.384615 0.385385
v 2.692307 -0.384615 0.384615
v 2.692307 -0.384615 0.385384
v 0.384615 0.384615 0.384615
v 0.384615 0.384615 0.385385
v 0.384615 -0.384615 0.384615
v 0.384615 -0.384615 0.385385
v 2.692307 0.384615 0.385384
v 2.692307 0.384615 0.384615
v 2.692307 -0.384615 0.385384
v 2.692307 -0.384615 0.384615
v 0.384615 0.385385 0.384615
v 2.692307 0.385385 0.384615
v 0.384615 0.384615 0.384615
v 2.692307 0.384615 0.384615
v 2.692307 0.385385 -0.384616
v 0.384615 0.385385 -0.384615
v 2.692307 0.384615 -0.384616
v 0.384615 0.384615 -0.384615
v 2.692307 0.385385 -0.384616
v 2.692307 0.385385 0.384615
v 0.384615 0.385385 -0.384615
v 0.384615 0.385385 0.384615
v 0.384615 0.384615 -0.384615
v 0.384615 0.384615 0.384615
v 2.692307 0.384615 -0.384616
v 2.692307 0.384615 0.384615
v 0.384615 0.385385 -0.384615
v 0.384615 0.385385 0.384615
v 0.384615 0.384615 -0.384615
v 0.384615 0.384615 0.384615
v 2.692307 0.385385 0.384615
v 2.692307 0.385385 -0.384616
v 2.692307 0.384615 0.384615
v 2.692307 0.384615 -0.384616
v 0.384615 -0.383846 0.384615
v 2.692307 -0.383846 0.384615
v 0.384615 -0.384615 0.384615
v 2.692307 -0.384615 0.384615
v 2.692307 -0.383846 -0.384616
v 0.384615 -0.383846 -0.384615
v 2.692307 -0.384615 -0.384616
v 0.384615 -0.384615 -0.384615
v 2.692307 -0.383846 -0.384616
v 2.692307 -0.383846 0.384615
v 0.384615 -0.383846 -0.384615
v 0.384615 -0.383846 0.384615
v 0.384615 -0.384615 -0.384615
v 0.384615 -0.384615 0.384615
v 2.692307 -0.384615 -0.384616
v 2.692307 -0.384615 0.384615
v 0.384615 -0.383846 -0.384615
v 0.384615 -0.383846 0.384615
v 0.384615 -0.384615 -0.384615
v 0.384615 -0.384615 0.384615
v 2.692307 -0.383846 0.384615
v 2.692307 -0.383846 -0.384616
v 2.692307 -0.384615 0.384615
v 2.692307 -0.384615 -0.384616
vn -0.0000 -0.0000 1.0000
vn -0.0000 -0.0000 -1.0000
vn -0.0000 1.0000 -0.0000
vn -0.0000 -1.0000 -0.0000
vn -1.0000 -0.0000 -0.0000
vn 1.0000 -0.0000 -0.0000
vt 0.000000 1.000000
vt 0.000000 0.875000
vt 0.375000 1.000000
vt 0.375000 0.875000
vt 0.000000 0.750000
vt 0.375000 0.750000
vt 0.000000 0.625000
vt 0.625000 0.750000
vt 0.625000 0.625000
vt 0.687500 0.750000
vt 0.687500 0.625000
vt 0.625000 0.500000
vt 0.687500 0.500000
vt 0.625000 0.312500
vt 0.625000 0.375000
vt 0.500000 0.312500
vt 0.500000 0.375000
vt 0.750000 0.500000
vt 0.750000 0.437500
vt 0.625000 0.437500
vt 0.500000 0.500000
vt 0.500000 0.625000
vt 0.750000 0.812500
vt 0.750000 0.875000
vt 0.625000 0.812500
vt 0.625000 0.875000
vt 0.375000 0.625000
vt 0.000000 0.500000
vt 0.375000 0.500000
vt 0.500000 1.000000
vt 0.500000 0.250000
vt 0.375000 0.250000
vt 0.125000 1.000000
vt 0.125000 0.125000
vt 0.125000 0.500000
vt 0.000000 0.125000
vt 0.625000 1.000000
s 0
usemtl Material_0
f 1/1/1 3/2/1 2/3/1
f 3/2/1 4/4/1 2/3/1
f 5/2/2 7/5/2 6/4/2
f 7/5/2 8/6/2 6/4/2
f 9/7/3 11/1/3 10/7/3
f 11/1/3 12/1/3 10/7/3
f 13/1/4 15/7/4 14/1/4
f 15/7/4 16/7/4 14/1/4
f 17/1/5 19/2/5 18/1/5
f 19/2/5 20/2/5 18/1/5
f 21/1/6 23/2/6 22/1/6
f 23/2/6 24/2/6 22/1/6
f 25/8/1 27/9/1 26/10/1
f 27/9/1 28/11/1 26/10/1
f 29/9/2 31/12/2 30/11/2
f 31/12/2 32/13/2 30/11/2
f 33/14/3 35/15/3 34/16/3
f 35/15/3 36/17/3 34/16/3
f 37/18/4 39/19/4 38/12/4
f 39/19/4 40/20/4 38/12/4
f 41/21/5 43/17/5 42/12/5
f 43/17/5 44/15/5 42/12/5
f 45/22/6 47/21/6 46/9/6
f 47/21/6 48/12/6 46/9/6
f 49/23/1 51/24/1 50/25/1
f 51/24/1 52/26/1 50/25/1
f 53/23/2 55/24/2 54/25/2
f 55/24/2 56/26/2 54/25/2
f 57/23/3 59/24/3 58/25/3
f 59/24/3 60/26/3 58/25/3
f 61/23/4 63/24/4 62/25/4
f 63/24/4 64/26/4 62/25/4
f 65/23/5 67/24/5 66/25/5
f 67/24/5 68/26/5 66/25/5
f 69/23/6 71/24/6 70/25/6
f 71/24/6 72/26/6 70/25/6
f 73/5/1 75/7/1 74/6/1
f 75/7/1 76/27/1 74/6/1
f 77/7/2 79/28/2 78/27/2
f 79/28/2 80/29/2 78/27/2
f 81/7/3 83/1/3 82/7/3
f 83/1/3 84/1/3 82/7/3
f 85/1/4 87/7/4 86/1/4
f 87/7/4 88/7/4 86/1/4
f 89/1/5 91/2/5 90/1/5
f 91/2/5 92/2/5 90/1/5
f 93/1/6 95/2/6 94/1/6
f 95/2/6 96/2/6 94/1/6
f 97/1/1 99/1/1 98/3/1
f 99/1/1 100/3/1 98/3/1
f 101/1/2 103/1/2 102/3/2
f 103/1/2 104/3/2 102/3/2
f 105/22/3 107/30/3 106/27/3
f 107/30/3 108/3/3 106/27/3
f 109/22/4 111/31/4 110/27/4
f 111/31/4 112/32/4 110/27/4
f 113/1/5 115/1/5 114/33/5
f 115/1/5 116/33/5 114/33/5
f 117/1/6 119/1/6 118/33/6
f 119/1/6 120/33/6 118/33/6
f 121/1/1 123/1/1 122/3/1
f 123/1/1 124/3/1 122/3/1
f 125/1/2 127/1/2 126/3/2
f 127/1/2 128/3/2 126/3/2
f 129/34/3 131/35/3 130/36/3
f 131/35/3 132/28/3 130/36/3
f 133/37/4 135/9/4 134/30/4
f 135/9/4 136/22/4 134/30/4
f 137/1/5 139/1/5 138/33/5
f 139/1/5 140/33/5 138/33/5
f 141/1/6 143/1/6 142/33/6
f 143/1/6 144/33/6 142/33/6
