# Blender 4.4.3
# www.blender.org
mtllib lev.mp5f5stock.mtl
o attachmentModel
v 0.583077 1.546923 0.769231
v 0.583077 1.546923 0.000000
v 0.583077 0.762308 0.769231
v 0.583077 0.762308 0.000000
v -0.578462 1.546923 0.000000
v -0.578462 1.546923 0.769231
v -0.578462 0.762308 0.000000
v -0.578462 0.762308 0.769231
v -0.578462 1.546923 0.000000
v 0.583077 1.546923 0.000000
v -0.578462 1.546923 0.769231
v 0.583077 1.546923 0.769231
v -0.578462 0.762308 0.769231
v 0.583077 0.762308 0.769231
v -0.578462 0.762308 0.000000
v 0.583077 0.762308 0.000000
v -0.578462 1.546923 0.769231
v 0.583077 1.546923 0.769231
v -0.578462 0.762308 0.769231
v 0.583077 0.762308 0.769231
v 0.583077 1.546923 0.000000
v -0.578462 1.546923 0.000000
v 0.583077 0.762308 0.000000
v -0.578462 0.762308 0.000000
v 0.775385 0.962308 0.769231
v 0.775385 0.962308 0.000000
v 0.775385 -0.193077 0.769231
v 0.775385 -0.193077 0.000000
v -0.770769 0.962308 0.000000
v -0.770769 0.962308 0.769231
v -0.770769 -0.193077 0.000000
v -0.770769 -0.193077 0.769231
v -0.770769 0.962308 0.000000
v 0.775385 0.962308 0.000000
v -0.770769 0.962308 0.769231
v 0.775385 0.962308 0.769231
v -0.770769 -0.193077 0.769231
v 0.775385 -0.193077 0.769231
v -0.770769 -0.193077 0.000000
v 0.775385 -0.193077 0.000000
v -0.770769 0.962308 0.769231
v 0.775385 0.962308 0.769231
v -0.770769 -0.193077 0.769231
v 0.775385 -0.193077 0.769231
v 0.775385 0.962308 0.000000
v -0.770769 0.962308 0.000000
v 0.775385 -0.193077 0.000000
v -0.770769 -0.193077 0.000000
v 0.576923 0.000769 5.769231
v 0.576923 0.000769 3.846154
v 0.576923 -1.153077 5.769231
v 0.576923 -1.153077 3.846154
v -0.576923 0.000769 3.846154
v -0.576923 0.000769 5.769231
v -0.576923 -1.153077 3.846154
v -0.576923 -1.153077 5.769231
v -0.576923 0.000769 3.846154
v 0.576923 0.000769 3.846154
v -0.576923 0.000769 5.769231
v 0.576923 0.000769 5.769231
v -0.576923 -1.153077 5.769231
v 0.576923 -1.153077 5.769231
v -0.576923 -1.153077 3.846154
v 0.576923 -1.153077 3.846154
v -0.576923 0.000769 5.769231
v 0.576923 0.000769 5.769231
v -0.576923 -1.153077 5.769231
v 0.576923 -1.153077 5.769231
v 0.576923 0.000769 3.846154
v -0.576923 0.000769 3.846154
v 0.576923 -1.153077 3.846154
v -0.576923 -1.153077 3.846154
v 0.576923 0.770000 6.538462
v 0.576923 0.770000 5.769231
v 0.576923 -3.076154 6.538462
v 0.576923 -3.076154 5.769231
v -0.576923 0.770000 5.769231
v -0.576923 0.770000 6.538462
v -0.576923 -3.076154 5.769231
v -0.576923 -3.076154 6.538462
v -0.576923 0.770000 5.769231
v 0.576923 0.770000 5.769231
v -0.576923 0.770000 6.538462
v 0.576923 0.770000 6.538462
v -0.576923 -3.076154 6.538462
v 0.576923 -3.076154 6.538462
v -0.576923 -3.076154 5.769231
v 0.576923 -3.076154 5.769231
v -0.576923 0.770000 6.538462
v 0.576923 0.770000 6.538462
v -0.576923 -3.076154 6.538462
v 0.576923 -3.076154 6.538462
v 0.576923 0.770000 5.769231
v -0.576923 0.770000 5.769231
v 0.576923 -3.076154 5.769231
v -0.576923 -3.076154 5.769231
v 0.576154 0.475567 6.479613
v 0.576154 0.769939 5.768936
v 0.576154 -0.412779 6.111648
v 0.576154 -0.118407 5.400971
v -0.576154 0.769939 5.768936
v -0.576154 0.475567 6.479613
v -0.576154 -0.118407 5.400971
v -0.576154 -0.412779 6.111648
v -0.576154 0.769939 5.768936
v 0.576154 0.769939 5.768936
v -0.576154 0.475567 6.479613
v 0.576154 0.475567 6.479613
v -0.576154 -0.412779 6.111648
v 0.576154 -0.412779 6.111648
v -0.576154 -0.118407 5.400971
v 0.576154 -0.118407 5.400971
v -0.576154 0.475567 6.479613
v 0.576154 0.475567 6.479613
v -0.576154 -0.412779 6.111648
v 0.576154 -0.412779 6.111648
v 0.576154 0.769939 5.768936
v -0.576154 0.769939 5.768936
v 0.576154 -0.118407 5.400971
v -0.576154 -0.118407 5.400971
v 0.583077 0.000000 0.769231
v 0.583077 0.000000 0.000000
v 0.583077 -1.169231 0.769231
v 0.583077 -1.169231 0.000000
v -0.578462 0.000000 0.000000
v -0.578462 0.000000 0.769231
v -0.578462 -1.169231 0.000000
v -0.578462 -1.169231 0.769231
v -0.578462 0.000000 0.000000
v 0.583077 0.000000 0.000000
v -0.578462 0.000000 0.769231
v 0.583077 0.000000 0.769231
v -0.578462 -1.169231 0.769231
v 0.583077 -1.169231 0.769231
v -0.578462 -1.169231 0.000000
v 0.583077 -1.169231 0.000000
v -0.578462 0.000000 0.769231
v 0.583077 0.000000 0.769231
v -0.578462 -1.169231 0.769231
v 0.583077 -1.169231 0.769231
v 0.583077 0.000000 0.000000
v -0.578462 0.000000 0.000000
v 0.583077 -1.169231 0.000000
v -0.578462 -1.169231 0.000000
v 0.576923 0.855494 1.456783
v 0.576923 1.546283 0.765994
v 0.576923 0.447548 1.048837
v 0.576923 1.138337 0.358048
v -0.576923 1.546283 0.765994
v -0.576923 0.855494 1.456783
v -0.576923 1.138337 0.358048
v -0.576923 0.447548 1.048837
v -0.576923 1.546283 0.765994
v 0.576923 1.546283 0.765994
v -0.576923 0.855494 1.456783
v 0.576923 0.855494 1.456783
v -0.576923 0.447548 1.048837
v 0.576923 0.447548 1.048837
v -0.576923 1.138337 0.358048
v 0.576923 1.138337 0.358048
v -0.576923 0.855494 1.456783
v 0.576923 0.855494 1.456783
v -0.576923 0.447548 1.048837
v 0.576923 0.447548 1.048837
v 0.576923 1.546283 0.765994
v -0.576923 1.546283 0.765994
v 0.576923 1.138337 0.358048
v -0.576923 1.138337 0.358048
v 0.583077 0.769231 1.538462
v 0.583077 0.769231 0.769231
v 0.583077 -1.169231 1.538462
v 0.583077 -1.169231 0.769231
v -0.578462 0.769231 0.769231
v -0.578462 0.769231 1.538462
v -0.578462 -1.169231 0.769231
v -0.578462 -1.169231 1.538462
v -0.578462 0.769231 0.769231
v 0.583077 0.769231 0.769231
v -0.578462 0.769231 1.538462
v 0.583077 0.769231 1.538462
v -0.578462 -1.169231 1.538462
v 0.583077 -1.169231 1.538462
v -0.578462 -1.169231 0.769231
v 0.583077 -1.169231 0.769231
v -0.578462 0.769231 1.538462
v 0.583077 0.769231 1.538462
v -0.578462 -1.169231 1.538462
v 0.583077 -1.169231 1.538462
v 0.583077 0.769231 0.769231
v -0.578462 0.769231 0.769231
v 0.583077 -1.169231 0.769231
v -0.578462 -1.169231 0.769231
v 0.000769 0.385385 6.153846
v 0.000769 0.385385 1.538462
v 0.000769 -1.153077 6.153846
v 0.000769 -1.153077 1.538462
v 0.000000 0.385385 1.538462
v 0.000000 0.385385 6.153846
v 0.000000 -1.153077 1.538462
v 0.000000 -1.153077 6.153846
v 0.000000 0.385385 1.538462
v 0.000769 0.385385 1.538462
v 0.000000 0.385385 6.153846
v 0.000769 0.385385 6.153846
v 0.000000 -1.153077 6.153846
v 0.000769 -1.153077 6.153846
v 0.000000 -1.153077 1.538462
v 0.000769 -1.153077 1.538462
v 0.000000 0.385385 6.153846
v 0.000769 0.385385 6.153846
v 0.000000 -1.153077 6.153846
v 0.000769 -1.153077 6.153846
v 0.000769 0.385385 1.538462
v 0.000000 0.385385 1.538462
v 0.000769 -1.153077 1.538462
v 0.000000 -1.153077 1.538462
v 0.576154 -0.649812 5.596497
v 0.576154 -0.944184 4.885821
v 0.576154 -2.781842 6.479613
v 0.576154 -3.076214 5.768937
v -0.576154 -0.944184 4.885821
v -0.576154 -0.649812 5.596497
v -0.576154 -3.076214 5.768937
v -0.576154 -2.781842 6.479613
v -0.576154 -0.944184 4.885821
v 0.576154 -0.944184 4.885821
v -0.576154 -0.649812 5.596497
v 0.576154 -0.649812 5.596497
v -0.576154 -2.781842 6.479613
v 0.576154 -2.781842 6.479613
v -0.576154 -3.076214 5.768937
v 0.576154 -3.076214 5.768937
v -0.576154 -0.649812 5.596497
v 0.576154 -0.649812 5.596497
v -0.576154 -2.781842 6.479613
v 0.576154 -2.781842 6.479613
v 0.576154 -0.944184 4.885821
v -0.576154 -0.944184 4.885821
v 0.576154 -3.076214 5.768937
v -0.576154 -3.076214 5.768937
v -0.576154 1.154615 4.807693
v -0.576154 1.154615 1.346154
v -0.576154 0.000769 4.807693
v -0.576154 0.000769 1.346154
v -0.576923 1.154615 1.346154
v -0.576923 1.154615 4.807693
v -0.576923 0.000769 1.346154
v -0.576923 0.000769 4.807693
v -0.576923 1.154615 1.346154
v -0.576154 1.154615 1.346154
v -0.576923 1.154615 4.807693
v -0.576154 1.154615 4.807693
v -0.576923 0.000769 4.807693
v -0.576154 0.000769 4.807693
v -0.576923 0.000769 1.346154
v -0.576154 0.000769 1.346154
v -0.576923 1.154615 4.807693
v -0.576154 1.154615 4.807693
v -0.576923 0.000769 4.807693
v -0.576154 0.000769 4.807693
v -0.576154 1.154615 1.346154
v -0.576923 1.154615 1.346154
v -0.576154 0.000769 1.346154
v -0.576923 0.000769 1.346154
v 0.576923 1.155385 4.807693
v 0.576923 1.155385 1.346154
v 0.576923 1.154615 4.807693
v 0.576923 1.154615 1.346154
v -0.576923 1.155385 1.346154
v -0.576923 1.155385 4.807693
v -0.576923 1.154615 1.346154
v -0.576923 1.154615 4.807693
v -0.576923 1.155385 1.346154
v 0.576923 1.155385 1.346154
v -0.576923 1.155385 4.807693
v 0.576923 1.155385 4.807693
v -0.576923 1.154615 4.807693
v 0.576923 1.154615 4.807693
v -0.576923 1.154615 1.346154
v 0.576923 1.154615 1.346154
v -0.576923 1.155385 4.807693
v 0.576923 1.155385 4.807693
v -0.576923 1.154615 4.807693
v 0.576923 1.154615 4.807693
v 0.576923 1.155385 1.346154
v -0.576923 1.155385 1.346154
v 0.576923 1.154615 1.346154
v -0.576923 1.154615 1.346154
v 0.577692 1.154615 4.807693
v 0.577692 1.154615 1.346154
v 0.577692 0.000769 4.807693
v 0.577692 0.000769 1.346154
v 0.576923 1.154615 1.346154
v 0.576923 1.154615 4.807693
v 0.576923 0.000769 1.346154
v 0.576923 0.000769 4.807693
v 0.576923 1.154615 1.346154
v 0.577692 1.154615 1.346154
v 0.576923 1.154615 4.807693
v 0.577692 1.154615 4.807693
v 0.576923 0.000769 4.807693
v 0.577692 0.000769 4.807693
v 0.576923 0.000769 1.346154
v 0.577692 0.000769 1.346154
v 0.576923 1.154615 4.807693
v 0.577692 1.154615 4.807693
v 0.576923 0.000769 4.807693
v 0.577692 0.000769 4.807693
v 0.577692 1.154615 1.346154
v 0.576923 1.154615 1.346154
v 0.577692 0.000769 1.346154
v 0.576923 0.000769 1.346154
v 0.576154 0.970000 4.615385
v 0.576154 0.970000 0.769231
v 0.576154 0.185385 4.615385
v 0.576154 0.185385 0.769231
v -0.576154 0.970000 0.769231
v -0.576154 0.970000 4.615385
v -0.576154 0.185385 0.769231
v -0.576154 0.185385 4.615385
v -0.576154 0.970000 0.769231
v 0.576154 0.970000 0.769231
v -0.576154 0.970000 4.615385
v 0.576154 0.970000 4.615385
v -0.576154 0.185385 4.615385
v 0.576154 0.185385 4.615385
v -0.576154 0.185385 0.769231
v 0.576154 0.185385 0.769231
v -0.576154 0.970000 4.615385
v 0.576154 0.970000 4.615385
v -0.576154 0.185385 4.615385
v 0.576154 0.185385 4.615385
v 0.576154 0.970000 0.769231
v -0.576154 0.970000 0.769231
v 0.576154 0.185385 0.769231
v -0.576154 0.185385 0.769231
v -0.578462 0.970000 0.961538
v -0.578462 0.970000 0.576923
v -0.578462 -0.583846 0.961538
v -0.578462 -0.583846 0.576923
v -0.963077 0.970000 0.576923
v -0.963077 0.970000 0.961538
v -0.963077 -0.583846 0.576923
v -0.963077 -0.583846 0.961538
v -0.963077 0.970000 0.576923
v -0.578462 0.970000 0.576923
v -0.963077 0.970000 0.961538
v -0.578462 0.970000 0.961538
v -0.963077 -0.583846 0.961538
v -0.578462 -0.583846 0.961538
v -0.963077 -0.583846 0.576923
v -0.578462 -0.583846 0.576923
v -0.963077 0.970000 0.961538
v -0.578462 0.970000 0.961538
v -0.963077 -0.583846 0.961538
v -0.578462 -0.583846 0.961538
v -0.578462 0.970000 0.576923
v -0.963077 0.970000 0.576923
v -0.578462 -0.583846 0.576923
v -0.963077 -0.583846 0.576923
v 0.576923 1.154615 4.808462
v 0.576923 1.154615 4.807693
v 0.576923 0.000769 4.808462
v 0.576923 0.000769 4.807693
v -0.576923 1.154615 4.807693
v -0.576923 1.154615 4.808462
v -0.576923 0.000769 4.807693
v -0.576923 0.000769 4.808462
v -0.576923 1.154615 4.807693
v 0.576923 1.154615 4.807693
v -0.576923 1.154615 4.808462
v 0.576923 1.154615 4.808462
v -0.576923 0.000769 4.808462
v 0.576923 0.000769 4.808462
v -0.576923 0.000769 4.807693
v 0.576923 0.000769 4.807693
v -0.576923 1.154615 4.808462
v 0.576923 1.154615 4.808462
v -0.576923 0.000769 4.808462
v 0.576923 0.000769 4.808462
v 0.576923 1.154615 4.807693
v -0.576923 1.154615 4.807693
v 0.576923 0.000769 4.807693
v -0.576923 0.000769 4.807693
vn 1.0000 -0.0000 -0.0000
vn -1.0000 -0.0000 -0.0000
vn -0.0000 1.0000 -0.0000
vn -0.0000 -1.0000 -0.0000
vn -0.0000 -0.0000 1.0000
vn -0.0000 -0.0000 -1.0000
vn -0.0000 0.9239 0.3827
vn -0.0000 -0.9239 -0.3827
vn -0.0000 -0.3827 0.9239
vn -0.0000 0.3827 -0.9239
vn -0.0000 0.7071 0.7071
vn -0.0000 -0.7071 -0.7071
vn -0.0000 -0.7071 0.7071
vn -0.0000 0.7071 -0.7071
vn -0.0000 0.9239 -0.3827
vn -0.0000 -0.9239 0.3827
vn -0.0000 0.3827 0.9239
vn -0.0000 -0.3827 -0.9239
vt 0.093750 0.468750
vt 0.093750 0.437500
vt 0.125000 0.468750
vt 0.125000 0.437500
vt 0.156250 0.468750
vt 0.156250 0.437500
vt 0.546875 0.593750
vt 0.546875 0.625000
vt 0.500000 0.593750
vt 0.500000 0.625000
vt 0.453125 0.500000
vt 0.453125 0.468750
vt 0.406250 0.500000
vt 0.406250 0.468750
vt 0.500000 0.656250
vt 0.546875 0.656250
vt 0.343750 0.500000
vt 0.343750 0.468750
vt 0.390625 0.500000
vt 0.390625 0.468750
vt 0.156250 0.562500
vt 0.156250 0.515625
vt 0.187500 0.562500
vt 0.187500 0.515625
vt 0.468750 0.906250
vt 0.468750 0.859375
vt 0.500000 0.906250
vt 0.500000 0.859375
vt 0.406250 0.843750
vt 0.406250 0.875000
vt 0.343750 0.843750
vt 0.343750 0.875000
vt 0.125000 0.531250
vt 0.125000 0.500000
vt 0.062500 0.531250
vt 0.062500 0.500000
vt 0.406250 0.781250
vt 0.406250 0.734375
vt 0.468750 0.781250
vt 0.468750 0.734375
vt 0.187500 0.593750
vt 0.187500 0.546875
vt 0.250000 0.593750
vt 0.250000 0.546875
vt 0.250000 0.656250
vt 0.250000 0.609375
vt 0.328125 0.656250
vt 0.328125 0.609375
vt 0.343750 0.656250
vt 0.343750 0.609375
vt 0.421875 0.656250
vt 0.421875 0.609375
vt 0.046875 0.546875
vt 0.046875 0.625000
vt 0.000000 0.546875
vt 0.000000 0.625000
vt 0.109375 0.625000
vt 0.109375 0.546875
vt 0.062500 0.625000
vt 0.062500 0.546875
vt 0.343750 0.593750
vt 0.343750 0.546875
vt 0.390625 0.593750
vt 0.390625 0.546875
vt 0.406250 0.718750
vt 0.406250 0.671875
vt 0.453125 0.718750
vt 0.453125 0.671875
vt 0.156250 0.718750
vt 0.187500 0.718750
vt 0.312500 1.000000
vt 0.312500 0.843750
vt 0.343750 1.000000
vt 0.515625 0.812500
vt 0.515625 0.843750
vt 0.468750 0.812500
vt 0.468750 0.843750
vt 0.234375 0.531250
vt 0.234375 0.500000
vt 0.187500 0.531250
vt 0.187500 0.500000
vt 0.062500 0.875000
vt 0.062500 0.718750
vt 0.109375 0.875000
vt 0.109375 0.718750
vt 0.000000 0.875000
vt 0.000000 0.718750
vt 0.046875 0.875000
vt 0.046875 0.718750
vt 0.125000 0.484375
vt 0.156250 0.531250
vt 0.156250 0.484375
vt 0.062500 0.453125
vt 0.093750 0.500000
vt 0.093750 0.453125
vt 0.546875 0.968750
vt 0.546875 1.000000
vt 0.500000 0.968750
vt 0.500000 1.000000
vt 0.546875 0.906250
vt 0.546875 0.875000
vt 0.500000 0.875000
vt 0.437500 0.656250
vt 0.437500 0.609375
vt 0.484375 0.656250
vt 0.484375 0.609375
vt 0.406250 0.593750
vt 0.406250 0.546875
vt 0.453125 0.593750
vt 0.453125 0.546875
vt 0.500000 0.500000
vt 0.500000 0.453125
vt 0.468750 0.500000
vt 0.468750 0.453125
vt 0.515625 0.718750
vt 0.515625 0.750000
vt 0.468750 0.718750
vt 0.468750 0.750000
vt 0.515625 0.687500
vt 0.468750 0.687500
vt 0.515625 0.781250
vt 0.156250 0.500000
vt 0.203125 0.500000
vt 0.203125 0.468750
vt 0.281250 0.500000
vt 0.281250 0.468750
vt 0.328125 0.500000
vt 0.328125 0.468750
vt 0.046875 0.484375
vt 0.046875 0.531250
vt 0.000000 0.484375
vt 0.000000 0.531250
vt 0.515625 0.968750
vt 0.515625 0.921875
vt 0.468750 0.968750
vt 0.468750 0.921875
vt 0.218750 0.500000
vt 0.218750 0.468750
vt 0.265625 0.500000
vt 0.265625 0.468750
vt 0.500000 0.843750
vt 0.546875 0.843750
vt 0.281250 0.593750
vt 0.281250 0.515625
vt 0.312500 0.593750
vt 0.312500 0.515625
vt 0.343750 0.515625
vt 0.515625 0.656250
vt 0.468750 0.656250
vt 0.390625 0.531250
vt 0.343750 0.531250
vt 0.406250 0.796875
vt 0.453125 0.875000
vt 0.453125 0.796875
vt 0.406250 0.968750
vt 0.406250 0.890625
vt 0.453125 0.968750
vt 0.453125 0.890625
vt 0.187500 0.937500
vt 0.187500 0.875000
vt 0.000000 0.937500
vt 0.000000 0.812500
vt 0.000000 1.000000
vt 0.125000 0.625000
vt 0.156250 0.625000
vt 0.250000 0.500000
vt 0.515625 0.531250
vt 0.515625 0.562500
vt 0.468750 0.531250
vt 0.468750 0.562500
vt 0.515625 0.500000
vt 0.343750 0.968750
vt 0.390625 0.968750
vt 0.390625 0.875000
vt 0.187500 0.687500
vt 0.234375 0.687500
vt 0.234375 0.593750
vt 0.390625 0.718750
vt 0.390625 0.671875
vt 0.250000 0.718750
vt 0.250000 0.671875
vt 0.000000 0.859375
vt 0.000000 0.953125
vt 0.140625 1.000000
vt 0.234375 0.703125
vt 0.234375 0.843750
vt 0.187500 0.703125
vt 0.187500 0.843750
vt 0.046875 1.000000
vt 0.250000 0.843750
vt 0.250000 0.796875
vt 0.390625 0.843750
vt 0.390625 0.796875
vt 0.000000 0.656250
vt 0.156250 0.656250
vt 0.171875 0.718750
vt 0.171875 0.875000
vt 0.125000 0.718750
vt 0.125000 0.875000
vt 0.234375 1.000000
vt 0.187500 1.000000
vt 0.468750 0.593750
vt 0.515625 0.593750
vt 0.406250 0.531250
vt 0.453125 0.531250
vt 0.000000 0.468750
vt 0.000000 0.406250
vt 0.015625 0.468750
vt 0.015625 0.406250
vt 0.531250 0.968750
vt 0.531250 0.906250
vt 0.171875 0.453125
vt 0.171875 0.468750
vt 0.156250 0.453125
vt 0.546875 0.828125
vt 0.531250 0.843750
vt 0.531250 0.828125
vt 0.031250 0.468750
vt 0.031250 0.406250
vt 0.046875 0.468750
vt 0.046875 0.406250
vt 0.500000 0.437500
vt 0.515625 0.437500
vt 0.046875 0.953125
s 0
usemtl Material_0.002
f 1/1/1 3/2/1 2/3/1
f 3/2/1 4/4/1 2/3/1
f 5/3/2 7/4/2 6/5/2
f 7/4/2 8/6/2 6/5/2
f 9/7/3 11/8/3 10/9/3
f 11/8/3 12/10/3 10/9/3
f 13/11/4 15/12/4 14/13/4
f 15/12/4 16/14/4 14/13/4
f 17/15/5 19/10/5 18/16/5
f 19/10/5 20/8/5 18/16/5
f 21/17/6 23/18/6 22/19/6
f 23/18/6 24/20/6 22/19/6
f 25/21/1 27/22/1 26/23/1
f 27/22/1 28/24/1 26/23/1
f 29/25/2 31/26/2 30/27/2
f 31/26/2 32/28/2 30/27/2
f 33/29/3 35/30/3 34/31/3
f 35/30/3 36/32/3 34/31/3
f 37/33/4 39/34/4 38/35/4
f 39/34/4 40/36/4 38/35/4
f 41/37/5 43/38/5 42/39/5
f 43/38/5 44/40/5 42/39/5
f 45/41/6 47/42/6 46/43/6
f 47/42/6 48/44/6 46/43/6
f 49/45/1 51/46/1 50/47/1
f 51/46/1 52/48/1 50/47/1
f 53/49/2 55/50/2 54/51/2
f 55/50/2 56/52/2 54/51/2
f 57/53/3 59/54/3 58/55/3
f 59/54/3 60/56/3 58/55/3
f 61/57/4 63/58/4 62/59/4
f 63/58/4 64/60/4 62/59/4
f 65/61/5 67/62/5 66/63/5
f 67/62/5 68/64/5 66/63/5
f 69/65/6 71/66/6 70/67/6
f 71/66/6 72/68/6 70/67/6
f 73/69/1 75/21/1 74/70/1
f 75/21/1 76/23/1 74/70/1
f 77/71/2 79/72/2 78/73/2
f 79/72/2 80/31/2 78/73/2
f 81/74/3 83/75/3 82/76/3
f 83/75/3 84/77/3 82/76/3
f 85/78/4 87/79/4 86/80/4
f 87/79/4 88/81/4 86/80/4
f 89/82/5 91/83/5 90/84/5
f 91/83/5 92/85/5 90/84/5
f 93/86/6 95/87/6 94/88/6
f 95/87/6 96/89/6 94/88/6
f 97/33/1 99/90/1 98/91/1
f 99/90/1 100/92/1 98/91/1
f 101/36/2 103/93/2 102/94/2
f 103/93/2 104/95/2 102/94/2
f 105/96/7 107/97/7 106/98/7
f 107/97/7 108/99/7 106/98/7
f 109/100/8 111/101/8 110/27/8
f 111/101/8 112/102/8 110/27/8
f 113/103/9 115/104/9 114/105/9
f 115/104/9 116/106/9 114/105/9
f 117/107/10 119/108/10 118/109/10
f 119/108/10 120/110/10 118/109/10
f 121/111/1 123/112/1 122/113/1
f 123/112/1 124/114/1 122/113/1
f 125/113/2 127/114/2 126/111/2
f 127/114/2 128/112/2 126/111/2
f 129/115/3 131/116/3 130/117/3
f 131/116/3 132/118/3 130/117/3
f 133/115/4 135/119/4 134/117/4
f 135/119/4 136/120/4 134/117/4
f 137/39/5 139/118/5 138/121/5
f 139/118/5 140/116/5 138/121/5
f 141/76/6 143/39/6 142/74/6
f 143/39/6 144/121/6 142/74/6
f 145/122/1 147/5/1 146/123/1
f 147/5/1 148/124/1 146/123/1
f 149/125/2 151/126/2 150/127/2
f 151/126/2 152/128/2 150/127/2
f 153/129/11 155/130/11 154/131/11
f 155/130/11 156/132/11 154/131/11
f 157/133/12 159/134/12 158/135/12
f 159/134/12 160/136/12 158/135/12
f 161/137/13 163/138/13 162/139/13
f 163/138/13 164/140/13 162/139/13
f 165/102/14 167/141/14 166/101/14
f 167/141/14 168/142/14 166/101/14
f 169/143/1 171/144/1 170/145/1
f 171/144/1 172/146/1 170/145/1
f 173/145/2 175/146/2 174/61/2
f 175/146/2 176/147/2 174/61/2
f 177/148/3 179/119/3 178/149/3
f 179/119/3 180/120/3 178/149/3
f 181/150/4 183/19/4 182/151/4
f 183/19/4 184/17/4 182/151/4
f 185/30/5 187/152/5 186/153/5
f 187/152/5 188/154/5 186/153/5
f 189/155/6 191/156/6 190/157/6
f 191/156/6 192/158/6 190/157/6
f 193/159/1 195/160/1 194/161/1
f 195/160/1 196/86/1 194/161/1
f 197/161/2 199/86/2 198/159/2
f 199/86/2 200/160/2 198/159/2
f 201/162/3 203/163/3 202/162/3
f 203/163/3 204/163/3 202/162/3
f 205/163/4 207/162/4 206/163/4
f 207/162/4 208/162/4 206/163/4
f 209/163/5 211/161/5 210/163/5
f 211/161/5 212/161/5 210/163/5
f 213/163/6 215/161/6 214/163/6
f 215/161/6 216/161/6 214/163/6
f 217/164/1 219/33/1 218/165/1
f 219/33/1 220/91/1 218/165/1
f 221/43/2 223/166/2 222/143/2
f 223/166/2 224/125/2 222/143/2
f 225/167/15 227/168/15 226/169/15
f 227/168/15 228/170/15 226/169/15
f 229/167/16 231/171/16 230/169/16
f 231/171/16 232/113/16 230/169/16
f 233/172/17 235/32/17 234/173/17
f 235/32/17 236/174/17 234/173/17
f 237/175/18 239/41/18 238/176/18
f 239/41/18 240/177/18 238/176/18
f 241/178/1 243/179/1 242/180/1
f 243/179/1 244/181/1 242/180/1
f 245/180/2 247/181/2 246/178/2
f 247/181/2 248/179/2 246/178/2
f 249/182/3 251/163/3 250/182/3
f 251/163/3 252/163/3 250/182/3
f 253/163/4 255/182/4 254/163/4
f 255/182/4 256/182/4 254/163/4
f 257/163/5 259/183/5 258/163/5
f 259/183/5 260/183/5 258/163/5
f 261/163/6 263/183/6 262/163/6
f 263/183/6 264/183/6 262/163/6
f 265/163/1 267/163/1 266/184/1
f 267/163/1 268/184/1 266/184/1
f 269/163/2 271/163/2 270/184/2
f 271/163/2 272/184/2 270/184/2
f 273/185/3 275/186/3 274/187/3
f 275/186/3 276/188/3 274/187/3
f 277/186/4 279/185/4 278/188/4
f 279/185/4 280/187/4 278/188/4
f 281/163/5 283/163/5 282/189/5
f 283/163/5 284/189/5 282/189/5
f 285/163/6 287/163/6 286/189/6
f 287/163/6 288/189/6 286/189/6
f 289/190/1 291/191/1 290/192/1
f 291/191/1 292/193/1 290/192/1
f 293/192/2 295/193/2 294/190/2
f 295/193/2 296/191/2 294/190/2
f 297/182/3 299/163/3 298/182/3
f 299/163/3 300/163/3 298/182/3
f 301/163/4 303/182/4 302/163/4
f 303/182/4 304/182/4 302/163/4
f 305/163/5 307/183/5 306/163/5
f 307/183/5 308/183/5 306/163/5
f 309/163/6 311/183/6 310/163/6
f 311/183/6 312/183/6 310/163/6
f 313/194/1 315/56/1 314/195/1
f 315/56/1 316/165/1 314/195/1
f 317/73/2 319/172/2 318/99/2
f 319/172/2 320/98/2 318/99/2
f 321/196/3 323/197/3 322/198/3
f 323/197/3 324/199/3 322/198/3
f 325/200/4 327/186/4 326/201/4
f 327/186/4 328/188/4 326/201/4
f 329/202/5 331/170/5 330/203/5
f 331/170/5 332/168/5 330/203/5
f 333/204/6 335/13/6 334/205/6
f 335/13/6 336/11/6 334/205/6
f 337/206/1 339/207/1 338/208/1
f 339/207/1 340/209/1 338/208/1
f 341/210/2 343/211/2 342/96/2
f 343/211/2 344/100/2 342/96/2
f 345/212/3 347/213/3 346/214/3
f 347/213/3 348/5/3 346/214/3
f 349/142/4 351/215/4 350/216/4
f 351/215/4 352/217/4 350/216/4
f 353/218/5 355/219/5 354/220/5
f 355/219/5 356/221/5 354/220/5
f 357/111/6 359/222/6 358/171/6
f 359/222/6 360/223/6 358/171/6
f 361/163/1 363/183/1 362/189/1
f 363/183/1 364/224/1 362/189/1
f 365/163/2 367/183/2 366/189/2
f 367/183/2 368/224/2 366/189/2
f 369/163/3 371/183/3 370/189/3
f 371/183/3 372/224/3 370/189/3
f 373/163/4 375/183/4 374/189/4
f 375/183/4 376/224/4 374/189/4
f 377/163/5 379/183/5 378/189/5
f 379/183/5 380/224/5 378/189/5
f 381/163/6 383/183/6 382/189/6
f 383/183/6 384/224/6 382/189/6
