# Blender 4.4.0
# www.blender.org
mtllib lev.mp7sup.mtl
o attachmentModel
v 0.769231 0.576923 0.576923
v 5.000000 0.576923 0.576922
v 0.769231 -0.576923 0.576923
v 5.000000 -0.576923 0.576922
v 5.000000 0.576923 -0.576924
v 0.769231 0.576923 -0.576923
v 5.000000 -0.576923 -0.576924
v 0.769231 -0.576923 -0.576923
v 5.000000 0.576923 -0.576924
v 5.000000 0.576923 0.576922
v 0.769231 0.576923 -0.576923
v 0.769231 0.576923 0.576923
v 0.769231 -0.576923 -0.576923
v 0.769231 -0.576923 0.576923
v 5.000000 -0.576923 -0.576924
v 5.000000 -0.576923 0.576922
v 0.769231 0.576923 -0.576923
v 0.769231 0.576923 0.576923
v 0.769231 -0.576923 -0.576923
v 0.769231 -0.576923 0.576923
v 5.000000 0.576923 0.576922
v 5.000000 0.576923 -0.576924
v 5.000000 -0.576923 0.576922
v 5.000000 -0.576923 -0.576924
v 0.000000 -0.000000 0.815892
v 0.769231 -0.000000 0.815892
v -0.000000 -0.815892 -0.000000
v 0.769231 -0.815892 -0.000000
v 0.769231 0.815892 -0.000000
v 0.000000 0.815892 0.000000
v 0.769231 0.000000 -0.815893
v -0.000000 0.000000 -0.815892
v 0.769231 0.815892 -0.000000
v 0.769231 -0.000000 0.815892
v 0.000000 0.815892 0.000000
v 0.000000 -0.000000 0.815892
v -0.000000 0.000000 -0.815892
v -0.000000 -0.815892 -0.000000
v 0.769231 0.000000 -0.815893
v 0.769231 -0.815892 -0.000000
v 0.000000 0.815892 0.000000
v 0.000000 -0.000000 0.815892
v -0.000000 0.000000 -0.815892
v -0.000000 -0.815892 -0.000000
v 0.769231 -0.000000 0.815892
v 0.769231 0.815892 -0.000000
v 0.769231 -0.815892 -0.000000
v 0.769231 0.000000 -0.815893
v 5.006922 0.384615 0.384614
v 5.007692 0.384615 0.384614
v 5.006922 -0.384615 0.384614
v 5.007692 -0.384615 0.384614
v 5.007692 0.384615 -0.384616
v 5.006922 0.384615 -0.384616
v 5.007692 -0.384615 -0.384616
v 5.006922 -0.384615 -0.384616
v 5.007692 0.384615 -0.384616
v 5.007692 0.384615 0.384614
v 5.006922 0.384615 -0.384616
v 5.006922 0.384615 0.384614
v 5.006922 -0.384615 -0.384616
v 5.006922 -0.384615 0.384614
v 5.007692 -0.384615 -0.384616
v 5.007692 -0.384615 0.384614
v 5.006922 0.384615 -0.384616
v 5.006922 0.384615 0.384614
v 5.006922 -0.384615 -0.384616
v 5.006922 -0.384615 0.384614
v 5.007692 0.384615 0.384614
v 5.007692 0.384615 -0.384616
v 5.007692 -0.384615 0.384614
v 5.007692 -0.384615 -0.384616
vn -0.0000 -0.0000 1.0000
vn -0.0000 -0.0000 -1.0000
vn -0.0000 1.0000 -0.0000
vn -0.0000 -1.0000 -0.0000
vn -1.0000 -0.0000 -0.0000
vn 1.0000 -0.0000 -0.0000
vn -0.0000 -0.7071 0.7071
vn -0.0000 0.7071 -0.7071
vn -0.0000 0.7071 0.7071
vn -0.0000 -0.7071 -0.7071
vt 0.000000 1.000000
vt 0.000000 0.906250
vt 0.343750 1.000000
vt 0.343750 0.906250
vt 0.000000 0.875000
vt 0.000000 0.781250
vt 0.343750 0.875000
vt 0.343750 0.781250
vt 0.093750 0.406250
vt 0.093750 0.750000
vt 0.000000 0.406250
vt 0.000000 0.750000
vt 0.218750 0.750000
vt 0.218750 0.406250
vt 0.125000 0.750000
vt 0.125000 0.406250
vt 0.250000 0.625000
vt 0.250000 0.531250
vt 0.343750 0.625000
vt 0.343750 0.531250
vt 0.375000 0.875000
vt 0.375000 0.781250
vt 0.468750 0.875000
vt 0.468750 0.781250
vt 0.375000 0.750000
vt 0.375000 0.656250
vt 0.437500 0.750000
vt 0.437500 0.656250
vt 0.375000 0.625000
vt 0.375000 0.531250
vt 0.437500 0.625000
vt 0.437500 0.531250
vt 0.531250 0.687500
vt 0.531250 0.750000
vt 0.437500 0.687500
vt 0.531250 0.625000
vt 0.375000 1.000000
vt 0.375000 0.906250
vt 0.468750 1.000000
vt 0.468750 0.906250
vt 0.250000 0.750000
vt 0.250000 0.656250
vt 0.343750 0.750000
vt 0.343750 0.656250
vt 0.000000 0.937500
vt 0.062500 1.000000
vt 0.437500 0.562500
vt 0.437500 0.500000
vt 0.500000 0.562500
vt 0.500000 0.500000
vt 0.500000 0.625000
s 0
usemtl Material_0.001
f 1/1/1 3/2/1 2/3/1
f 3/2/1 4/4/1 2/3/1
f 5/5/2 7/6/2 6/7/2
f 7/6/2 8/8/2 6/7/2
f 9/9/3 11/10/3 10/11/3
f 11/10/3 12/12/3 10/11/3
f 13/13/4 15/14/4 14/15/4
f 15/14/4 16/16/4 14/15/4
f 17/17/5 19/18/5 18/19/5
f 19/18/5 20/20/5 18/19/5
f 21/21/6 23/22/6 22/23/6
f 23/22/6 24/24/6 22/23/6
f 25/25/7 27/26/7 26/27/7
f 27/26/7 28/28/7 26/27/7
f 29/29/8 31/30/8 30/31/8
f 31/30/8 32/32/8 30/31/8
f 33/33/9 35/34/9 34/35/9
f 35/34/9 36/27/9 34/35/9
f 37/33/10 39/36/10 38/35/10
f 39/36/10 40/31/10 38/35/10
f 41/37/5 43/38/5 42/39/5
f 43/38/5 44/40/5 42/39/5
f 45/41/6 47/42/6 46/43/6
f 47/42/6 48/44/6 46/43/6
f 49/1/1 51/45/1 50/1/1
f 51/45/1 52/45/1 50/1/1
f 53/1/2 55/45/2 54/1/2
f 55/45/2 56/45/2 54/1/2
f 57/46/3 59/46/3 58/1/3
f 59/46/3 60/1/3 58/1/3
f 61/46/4 63/46/4 62/1/4
f 63/46/4 64/1/4 62/1/4
f 65/47/5 67/48/5 66/49/5
f 67/48/5 68/50/5 66/49/5
f 69/31/6 71/47/6 70/51/6
f 71/47/6 72/49/6 70/51/6
