# Blender 4.5.4 LTS
# www.blender.org
mtllib lev.m700promagarch.mtl
o attachmentModel
v 0.769231 0.000000 6.538462
v 0.769231 0.000000 0.384615
v 0.769231 -1.538462 6.538462
v 0.769231 -1.538462 0.384615
v -0.769231 0.000000 0.384615
v -0.769231 0.000000 6.538462
v -0.769231 -1.538462 0.384615
v -0.769231 -1.538462 6.538462
v -0.769231 0.000000 0.384615
v 0.769231 0.000000 0.384615
v -0.769231 0.000000 6.538462
v 0.769231 0.000000 6.538462
v -0.769231 -1.538462 6.538462
v 0.769231 -1.538462 6.538462
v -0.769231 -1.538462 0.384615
v 0.769231 -1.538462 0.384615
v -0.769231 0.000000 6.538462
v 0.769231 0.000000 6.538462
v -0.769231 -1.538462 6.538462
v 0.769231 -1.538462 6.538462
v 0.769231 0.000000 0.384615
v -0.769231 0.000000 0.384615
v 0.769231 -1.538462 0.384615
v -0.769231 -1.538462 0.384615
v 0.385326 -1.538167 -3.846154
v 0.385326 -1.538167 -5.000000
v 2.151558 -5.802227 -3.846154
v 2.151558 -5.802227 -5.000000
v 0.384616 -1.538461 -5.000000
v 0.384616 -1.538461 -3.846154
v 2.150847 -5.802521 -5.000000
v 2.150847 -5.802521 -3.846154
v 0.384616 -1.538461 -5.000000
v 0.385326 -1.538167 -5.000000
v 0.384616 -1.538461 -3.846154
v 0.385326 -1.538167 -3.846154
v 2.150847 -5.802521 -3.846154
v 2.151558 -5.802227 -3.846154
v 2.150847 -5.802521 -5.000000
v 2.151558 -5.802227 -5.000000
v 0.384616 -1.538461 -3.846154
v 0.385326 -1.538167 -3.846154
v 2.150847 -5.802521 -3.846154
v 2.151558 -5.802227 -3.846154
v 0.385326 -1.538167 -5.000000
v 0.384616 -1.538461 -5.000000
v 2.151558 -5.802227 -5.000000
v 2.150847 -5.802521 -5.000000
v -0.383905 -1.538755 -3.846154
v -0.383905 -1.538755 -5.000000
v -2.150137 -5.802815 -3.846154
v -2.150137 -5.802815 -5.000000
v -0.384616 -1.538461 -5.000000
v -0.384616 -1.538461 -3.846154
v -2.150847 -5.802521 -5.000000
v -2.150847 -5.802521 -3.846154
v -0.384616 -1.538461 -5.000000
v -0.383905 -1.538755 -5.000000
v -0.384616 -1.538461 -3.846154
v -0.383905 -1.538755 -3.846154
v -2.150847 -5.802521 -3.846154
v -2.150137 -5.802815 -3.846154
v -2.150847 -5.802521 -5.000000
v -2.150137 -5.802815 -5.000000
v -0.384616 -1.538461 -3.846154
v -0.383905 -1.538755 -3.846154
v -2.150847 -5.802521 -3.846154
v -2.150137 -5.802815 -3.846154
v -0.383905 -1.538755 -5.000000
v -0.384616 -1.538461 -5.000000
v -2.150137 -5.802815 -5.000000
v -2.150847 -5.802521 -5.000000
v 0.480000 -0.441556 7.604480
v 0.480000 -1.030300 6.183127
v 0.480000 -2.928924 8.634782
v 0.480000 -3.517668 7.213428
v -0.480000 -1.030300 6.183127
v -0.480000 -0.441556 7.604480
v -0.480000 -3.517668 7.213428
v -0.480000 -2.928924 8.634782
v -0.480000 -1.030300 6.183127
v 0.480000 -1.030300 6.183127
v -0.480000 -0.441556 7.604480
v 0.480000 -0.441556 7.604480
v -0.480000 -2.928924 8.634782
v 0.480000 -2.928924 8.634782
v -0.480000 -3.517668 7.213428
v 0.480000 -3.517668 7.213428
v -0.480000 -0.441556 7.604480
v 0.480000 -0.441556 7.604480
v -0.480000 -2.928924 8.634782
v 0.480000 -2.928924 8.634782
v 0.480000 -1.030300 6.183127
v -0.480000 -1.030300 6.183127
v 0.480000 -3.517668 7.213428
v -0.480000 -3.517668 7.213428
v 0.480769 -2.363823 8.751892
v 0.480769 -2.363823 7.213430
v 0.480769 -3.517669 8.751892
v 0.480769 -3.517669 7.213430
v -0.480769 -2.363823 7.213430
v -0.480769 -2.363823 8.751892
v -0.480769 -3.517669 7.213430
v -0.480769 -3.517669 8.751892
v -0.480769 -2.363823 7.213430
v 0.480769 -2.363823 7.213430
v -0.480769 -2.363823 8.751892
v 0.480769 -2.363823 8.751892
v -0.480769 -3.517669 8.751892
v 0.480769 -3.517669 8.751892
v -0.480769 -3.517669 7.213430
v 0.480769 -3.517669 7.213430
v -0.480769 -2.363823 8.751892
v 0.480769 -2.363823 8.751892
v -0.480769 -3.517669 8.751892
v 0.480769 -3.517669 8.751892
v 0.480769 -2.363823 7.213430
v -0.480769 -2.363823 7.213430
v 0.480769 -3.517669 7.213430
v -0.480769 -3.517669 7.213430
v 0.576923 -3.325361 8.751892
v 0.576923 -3.325361 6.828815
v 0.576923 -3.709977 8.751892
v 0.576923 -3.709977 6.828815
v -0.576923 -3.325361 6.828815
v -0.576923 -3.325361 8.751892
v -0.576923 -3.709977 6.828815
v -0.576923 -3.709977 8.751892
v -0.576923 -3.325361 6.828815
v 0.576923 -3.325361 6.828815
v -0.576923 -3.325361 8.751892
v 0.576923 -3.325361 8.751892
v -0.576923 -3.709977 8.751892
v 0.576923 -3.709977 8.751892
v -0.576923 -3.709977 6.828815
v 0.576923 -3.709977 6.828815
v -0.576923 -3.325361 8.751892
v 0.576923 -3.325361 8.751892
v -0.576923 -3.709977 8.751892
v 0.576923 -3.709977 8.751892
v 0.576923 -3.325361 6.828815
v -0.576923 -3.325361 6.828815
v 0.576923 -3.709977 6.828815
v -0.576923 -3.709977 6.828815
v 0.480000 -2.429814 9.839749
v 0.480000 -1.613921 9.023857
v 0.480000 -3.517671 8.751892
v 0.480000 -2.701778 7.936000
v -0.480000 -1.613921 9.023857
v -0.480000 -2.429814 9.839749
v -0.480000 -2.701778 7.936000
v -0.480000 -3.517671 8.751892
v -0.480000 -1.613921 9.023857
v 0.480000 -1.613921 9.023857
v -0.480000 -2.429814 9.839749
v 0.480000 -2.429814 9.839749
v -0.480000 -3.517671 8.751892
v 0.480000 -3.517671 8.751892
v -0.480000 -2.701778 7.936000
v 0.480000 -2.701778 7.936000
v -0.480000 -2.429814 9.839749
v 0.480000 -2.429814 9.839749
v -0.480000 -3.517671 8.751892
v 0.480000 -3.517671 8.751892
v 0.480000 -1.613921 9.023857
v -0.480000 -1.613921 9.023857
v 0.480000 -2.701778 7.936000
v -0.480000 -2.701778 7.936000
v 0.576923 -1.538462 -4.422308
v 0.576923 -1.538462 -4.423077
v 0.576923 -2.307692 -4.422308
v 0.576923 -2.307692 -4.423077
v -0.576923 -1.538462 -4.423077
v -0.576923 -1.538462 -4.422308
v -0.576923 -2.307692 -4.423077
v -0.576923 -2.307692 -4.422308
v -0.576923 -1.538462 -4.423077
v 0.576923 -1.538462 -4.423077
v -0.576923 -1.538462 -4.422308
v 0.576923 -1.538462 -4.422308
v -0.576923 -2.307692 -4.422308
v 0.576923 -2.307692 -4.422308
v -0.576923 -2.307692 -4.423077
v 0.576923 -2.307692 -4.423077
v -0.576923 -1.538462 -4.422308
v 0.576923 -1.538462 -4.422308
v -0.576923 -2.307692 -4.422308
v 0.576923 -2.307692 -4.422308
v 0.576923 -1.538462 -4.423077
v -0.576923 -1.538462 -4.423077
v 0.576923 -2.307692 -4.423077
v -0.576923 -2.307692 -4.423077
v 0.769231 -0.769231 0.384615
v 0.769231 -0.769231 -5.769231
v 0.769231 -1.538462 0.384615
v 0.769231 -1.538462 -5.769231
v -0.769231 -0.769231 -5.769231
v -0.769231 -0.769231 0.384615
v -0.769231 -1.538462 -5.769231
v -0.769231 -1.538462 0.384615
v -0.769231 -0.769231 -5.769231
v 0.769231 -0.769231 -5.769231
v -0.769231 -0.769231 0.384615
v 0.769231 -0.769231 0.384615
v -0.769231 -1.538462 0.384615
v 0.769231 -1.538462 0.384615
v -0.769231 -1.538462 -5.769231
v 0.769231 -1.538462 -5.769231
v -0.769231 -0.769231 0.384615
v 0.769231 -0.769231 0.384615
v -0.769231 -1.538462 0.384615
v 0.769231 -1.538462 0.384615
v 0.769231 -0.769231 -5.769231
v -0.769231 -0.769231 -5.769231
v 0.769231 -1.538462 -5.769231
v -0.769231 -1.538462 -5.769231
v 0.673077 0.000000 0.576923
v 0.673077 0.000000 -5.576923
v 0.673077 -0.769231 0.576923
v 0.673077 -0.769231 -5.576923
v -0.673077 0.000000 -5.576923
v -0.673077 0.000000 0.576923
v -0.673077 -0.769231 -5.576923
v -0.673077 -0.769231 0.576923
v -0.673077 0.000000 -5.576923
v 0.673077 0.000000 -5.576923
v -0.673077 0.000000 0.576923
v 0.673077 0.000000 0.576923
v -0.673077 -0.769231 0.576923
v 0.673077 -0.769231 0.576923
v -0.673077 -0.769231 -5.576923
v 0.673077 -0.769231 -5.576923
v -0.673077 0.000000 0.576923
v 0.673077 0.000000 0.576923
v -0.673077 -0.769231 0.576923
v 0.673077 -0.769231 0.576923
v 0.673077 0.000000 -5.576923
v -0.673077 0.000000 -5.576923
v 0.673077 -0.769231 -5.576923
v -0.673077 -0.769231 -5.576923
v 0.576923 -1.538462 4.423077
v 0.576923 -1.538462 1.730769
v 0.576923 -2.692308 4.423077
v 0.576923 -2.692308 1.730769
v -0.576923 -1.538462 1.730769
v -0.576923 -1.538462 4.423077
v -0.576923 -2.692308 1.730769
v -0.576923 -2.692308 4.423077
v -0.576923 -1.538462 1.730769
v 0.576923 -1.538462 1.730769
v -0.576923 -1.538462 4.423077
v 0.576923 -1.538462 4.423077
v -0.576923 -2.692308 4.423077
v 0.576923 -2.692308 4.423077
v -0.576923 -2.692308 1.730769
v 0.576923 -2.692308 1.730769
v -0.576923 -1.538462 4.423077
v 0.576923 -1.538462 4.423077
v -0.576923 -2.692308 4.423077
v 0.576923 -2.692308 4.423077
v 0.576923 -1.538462 1.730769
v -0.576923 -1.538462 1.730769
v 0.576923 -2.692308 1.730769
v -0.576923 -2.692308 1.730769
v 0.000769 -1.538462 6.923077
v 0.000769 -1.538462 4.230769
v 0.000769 -2.692308 6.923077
v 0.000769 -2.692308 4.230769
v 0.000000 -1.538462 4.230769
v 0.000000 -1.538462 6.923077
v 0.000000 -2.692308 4.230769
v 0.000000 -2.692308 6.923077
v 0.000000 -1.538462 4.230769
v 0.000769 -1.538462 4.230769
v 0.000000 -1.538462 6.923077
v 0.000769 -1.538462 6.923077
v 0.000000 -2.692308 6.923077
v 0.000769 -2.692308 6.923077
v 0.000000 -2.692308 4.230769
v 0.000769 -2.692308 4.230769
v 0.000000 -1.538462 6.923077
v 0.000769 -1.538462 6.923077
v 0.000000 -2.692308 6.923077
v 0.000769 -2.692308 6.923077
v 0.000769 -1.538462 4.230769
v 0.000000 -1.538462 4.230769
v 0.000769 -2.692308 4.230769
v 0.000000 -2.692308 4.230769
v 0.576154 -0.441558 7.604480
v 0.576154 0.000000 6.538465
v 0.576154 -1.862911 7.015736
v 0.576154 -1.421353 5.949721
v -0.576154 0.000000 6.538465
v -0.576154 -0.441558 7.604480
v -0.576154 -1.421353 5.949721
v -0.576154 -1.862911 7.015736
v -0.576154 0.000000 6.538465
v 0.576154 0.000000 6.538465
v -0.576154 -0.441558 7.604480
v 0.576154 -0.441558 7.604480
v -0.576154 -1.862911 7.015736
v 0.576154 -1.862911 7.015736
v -0.576154 -1.421353 5.949721
v 0.576154 -1.421353 5.949721
v -0.576154 -0.441558 7.604480
v 0.576154 -0.441558 7.604480
v -0.576154 -1.862911 7.015736
v 0.576154 -1.862911 7.015736
v 0.576154 0.000000 6.538465
v -0.576154 0.000000 6.538465
v 0.576154 -1.421353 5.949721
v -0.576154 -1.421353 5.949721
v 0.576923 -0.384615 14.615385
v 0.576923 -0.384615 13.076923
v 0.576923 -3.461539 14.615385
v 0.576923 -3.461539 13.076923
v -0.576923 -0.384615 13.076923
v -0.576923 -0.384615 14.615385
v -0.576923 -3.461539 13.076923
v -0.576923 -3.461539 14.615385
v -0.576923 -0.384615 13.076923
v 0.576923 -0.384615 13.076923
v -0.576923 -0.384615 14.615385
v 0.576923 -0.384615 14.615385
v -0.576923 -3.461539 14.615385
v 0.576923 -3.461539 14.615385
v -0.576923 -3.461539 13.076923
v 0.576923 -3.461539 13.076923
v -0.576923 -0.384615 14.615385
v 0.576923 -0.384615 14.615385
v -0.576923 -3.461539 14.615385
v 0.576923 -3.461539 14.615385
v 0.576923 -0.384615 13.076923
v -0.576923 -0.384615 13.076923
v 0.576923 -3.461539 13.076923
v -0.576923 -3.461539 13.076923
v -0.576154 -0.384615 12.307693
v -0.576154 -0.384615 8.461538
v -0.576154 -1.923077 12.307693
v -0.576154 -1.923077 8.461538
v -0.576923 -0.384615 8.461538
v -0.576923 -0.384615 12.307693
v -0.576923 -1.923077 8.461538
v -0.576923 -1.923077 12.307693
v -0.576923 -0.384615 8.461538
v -0.576154 -0.384615 8.461538
v -0.576923 -0.384615 12.307693
v -0.576154 -0.384615 12.307693
v -0.576923 -1.923077 12.307693
v -0.576154 -1.923077 12.307693
v -0.576923 -1.923077 8.461538
v -0.576154 -1.923077 8.461538
v -0.576923 -0.384615 12.307693
v -0.576154 -0.384615 12.307693
v -0.576923 -1.923077 12.307693
v -0.576154 -1.923077 12.307693
v -0.576154 -0.384615 8.461538
v -0.576923 -0.384615 8.461538
v -0.576154 -1.923077 8.461538
v -0.576923 -1.923077 8.461538
v 0.577692 -0.384615 12.307693
v 0.577692 -0.384615 8.461538
v 0.577692 -1.923077 12.307693
v 0.577692 -1.923077 8.461538
v 0.576923 -0.384615 8.461538
v 0.576923 -0.384615 12.307693
v 0.576923 -1.923077 8.461538
v 0.576923 -1.923077 12.307693
v 0.576923 -0.384615 8.461538
v 0.577692 -0.384615 8.461538
v 0.576923 -0.384615 12.307693
v 0.577692 -0.384615 12.307693
v 0.576923 -1.923077 12.307693
v 0.577692 -1.923077 12.307693
v 0.576923 -1.923077 8.461538
v 0.577692 -1.923077 8.461538
v 0.576923 -0.384615 12.307693
v 0.577692 -0.384615 12.307693
v 0.576923 -1.923077 12.307693
v 0.577692 -1.923077 12.307693
v 0.577692 -0.384615 8.461538
v 0.576923 -0.384615 8.461538
v 0.577692 -1.923077 8.461538
v 0.576923 -1.923077 8.461538
v 0.576923 -0.383846 12.307693
v 0.576923 -0.383846 8.461538
v 0.576923 -0.384615 12.307693
v 0.576923 -0.384615 8.461538
v -0.576923 -0.383846 8.461538
v -0.576923 -0.383846 12.307693
v -0.576923 -0.384615 8.461538
v -0.576923 -0.384615 12.307693
v -0.576923 -0.383846 8.461538
v 0.576923 -0.383846 8.461538
v -0.576923 -0.383846 12.307693
v 0.576923 -0.383846 12.307693
v -0.576923 -0.384615 12.307693
v 0.576923 -0.384615 12.307693
v -0.576923 -0.384615 8.461538
v 0.576923 -0.384615 8.461538
v -0.576923 -0.383846 12.307693
v 0.576923 -0.383846 12.307693
v -0.576923 -0.384615 12.307693
v 0.576923 -0.384615 12.307693
v 0.576923 -0.383846 8.461538
v -0.576923 -0.383846 8.461538
v 0.576923 -0.384615 8.461538
v -0.576923 -0.384615 8.461538
v 0.384615 -0.384614 13.076923
v 0.384615 -1.267730 10.944893
v 0.384615 -1.095291 13.371295
v 0.384615 -1.978406 11.239265
v -0.384615 -1.267730 10.944893
v -0.384615 -0.384614 13.076923
v -0.384615 -1.978406 11.239265
v -0.384615 -1.095291 13.371295
v -0.384615 -1.267730 10.944893
v 0.384615 -1.267730 10.944893
v -0.384615 -0.384614 13.076923
v 0.384615 -0.384614 13.076923
v -0.384615 -1.095291 13.371295
v 0.384615 -1.095291 13.371295
v -0.384615 -1.978406 11.239265
v 0.384615 -1.978406 11.239265
v -0.384615 -0.384614 13.076923
v 0.384615 -0.384614 13.076923
v -0.384615 -1.095291 13.371295
v 0.384615 -1.095291 13.371295
v 0.384615 -1.267730 10.944893
v -0.384615 -1.267730 10.944893
v 0.384615 -1.978406 11.239265
v -0.384615 -1.978406 11.239265
v 0.480769 -1.153846 13.076923
v 0.480769 -1.153846 8.846154
v 0.480769 -2.692308 13.076923
v 0.480769 -2.692308 8.846154
v -0.480769 -1.153846 8.846154
v -0.480769 -1.153846 13.076923
v -0.480769 -2.692308 8.846154
v -0.480769 -2.692308 13.076923
v -0.480769 -1.153846 8.846154
v 0.480769 -1.153846 8.846154
v -0.480769 -1.153846 13.076923
v 0.480769 -1.153846 13.076923
v -0.480769 -2.692308 13.076923
v 0.480769 -2.692308 13.076923
v -0.480769 -2.692308 8.846154
v 0.480769 -2.692308 8.846154
v -0.480769 -1.153846 13.076923
v 0.480769 -1.153846 13.076923
v -0.480769 -2.692308 13.076923
v 0.480769 -2.692308 13.076923
v 0.480769 -1.153846 8.846154
v -0.480769 -1.153846 8.846154
v 0.480769 -2.692308 8.846154
v -0.480769 -2.692308 8.846154
v 0.576923 -1.346154 13.076923
v 0.576923 -1.346154 12.692307
v 0.576923 -2.500000 13.076923
v 0.576923 -2.500000 12.692307
v -0.576923 -1.346154 12.692307
v -0.576923 -1.346154 13.076923
v -0.576923 -2.500000 12.692307
v -0.576923 -2.500000 13.076923
v -0.576923 -1.346154 12.692307
v 0.576923 -1.346154 12.692307
v -0.576923 -1.346154 13.076923
v 0.576923 -1.346154 13.076923
v -0.576923 -2.500000 13.076923
v 0.576923 -2.500000 13.076923
v -0.576923 -2.500000 12.692307
v 0.576923 -2.500000 12.692307
v -0.576923 -1.346154 13.076923
v 0.576923 -1.346154 13.076923
v -0.576923 -2.500000 13.076923
v 0.576923 -2.500000 13.076923
v 0.576923 -1.346154 12.692307
v -0.576923 -1.346154 12.692307
v 0.576923 -2.500000 12.692307
v -0.576923 -2.500000 12.692307
v 0.576923 -2.500000 10.769231
v 0.576923 -2.500000 9.615385
v 0.576923 -2.884615 10.769231
v 0.576923 -2.884615 9.615385
v -0.576923 -2.500000 9.615385
v -0.576923 -2.500000 10.769231
v -0.576923 -2.884615 9.615385
v -0.576923 -2.884615 10.769231
v -0.576923 -2.500000 9.615385
v 0.576923 -2.500000 9.615385
v -0.576923 -2.500000 10.769231
v 0.576923 -2.500000 10.769231
v -0.576923 -2.884615 10.769231
v 0.576923 -2.884615 10.769231
v -0.576923 -2.884615 9.615385
v 0.576923 -2.884615 9.615385
v -0.576923 -2.500000 10.769231
v 0.576923 -2.500000 10.769231
v -0.576923 -2.884615 10.769231
v 0.576923 -2.884615 10.769231
v 0.576923 -2.500000 9.615385
v -0.576923 -2.500000 9.615385
v 0.576923 -2.884615 9.615385
v -0.576923 -2.884615 9.615385
v 0.384615 -2.692308 13.076923
v 0.384615 -2.692308 11.538462
v 0.384615 -3.461539 13.076923
v 0.384615 -3.461539 11.538462
v -0.384615 -2.692308 11.538462
v -0.384615 -2.692308 13.076923
v -0.384615 -3.461539 11.538462
v -0.384615 -3.461539 13.076923
v -0.384615 -2.692308 11.538462
v 0.384615 -2.692308 11.538462
v -0.384615 -2.692308 13.076923
v 0.384615 -2.692308 13.076923
v -0.384615 -3.461539 13.076923
v 0.384615 -3.461539 13.076923
v -0.384615 -3.461539 11.538462
v 0.384615 -3.461539 11.538462
v -0.384615 -2.692308 13.076923
v 0.384615 -2.692308 13.076923
v -0.384615 -3.461539 13.076923
v 0.384615 -3.461539 13.076923
v 0.384615 -2.692308 11.538462
v -0.384615 -2.692308 11.538462
v 0.384615 -3.461539 11.538462
v -0.384615 -3.461539 11.538462
vn 1.0000 -0.0000 -0.0000
vn -1.0000 -0.0000 -0.0000
vn -0.0000 1.0000 -0.0000
vn -0.0000 -1.0000 -0.0000
vn -0.0000 -0.0000 1.0000
vn -0.0000 -0.0000 -1.0000
vn 0.9239 0.3827 -0.0000
vn -0.9239 -0.3827 -0.0000
vn -0.3828 0.9238 -0.0000
vn 0.3816 -0.9243 -0.0000
vn 0.3825 -0.9239 -0.0000
vn -0.0000 -0.0003 1.0000
vn 0.9239 -0.3827 -0.0000
vn -0.9239 0.3827 -0.0000
vn 0.3828 0.9238 -0.0000
vn 0.3825 0.9239 -0.0000
vn -0.3834 -0.9236 -0.0000
vn -0.0000 -0.0005 -1.0000
vn -0.0000 0.9239 -0.3827
vn -0.0000 -0.9239 0.3827
vn -0.0000 0.3827 0.9239
vn -0.0000 -0.3827 -0.9239
vn -0.0000 0.7071 0.7071
vn -0.0000 -0.7071 -0.7071
vn -0.0000 -0.7071 0.7071
vn -0.0000 0.7071 -0.7071
vn -0.0000 0.9239 0.3827
vn -0.0000 -0.9239 -0.3827
vn -0.0000 -0.3827 0.9239
vn -0.0000 0.3827 -0.9239
vt 0.000000 1.000000
vt 0.000000 0.937500
vt 0.250000 1.000000
vt 0.250000 0.937500
vt 0.000000 0.875000
vt 0.250000 0.875000
vt 0.062500 0.625000
vt 0.062500 0.875000
vt 0.000000 0.625000
vt 0.125000 0.875000
vt 0.125000 0.625000
vt 0.593750 0.843750
vt 0.593750 0.781250
vt 0.656250 0.843750
vt 0.656250 0.781250
vt 0.375000 0.437500
vt 0.375000 0.375000
vt 0.437500 0.437500
vt 0.437500 0.375000
vt 0.000000 0.437500
vt 0.046875 0.625000
vt 0.046875 0.437500
vt 0.062500 0.437500
vt 0.109375 0.625000
vt 0.109375 0.437500
vt 0.000000 0.953125
vt 0.000000 0.812500
vt 0.125000 0.437500
vt 0.171875 0.625000
vt 0.171875 0.437500
vt 0.187500 0.625000
vt 0.187500 0.437500
vt 0.234375 0.625000
vt 0.234375 0.437500
vt 0.500000 1.000000
vt 0.500000 0.890625
vt 0.562500 1.000000
vt 0.562500 0.890625
vt 0.531250 0.843750
vt 0.531250 0.734375
vt 0.593750 0.734375
vt 0.718750 0.437500
vt 0.718750 0.500000
vt 0.687500 0.437500
vt 0.687500 0.500000
vt 0.718750 0.375000
vt 0.687500 0.375000
vt 0.828125 1.000000
vt 0.828125 0.890625
vt 0.875000 1.000000
vt 0.875000 0.890625
vt 0.562500 0.406250
vt 0.562500 0.296875
vt 0.593750 0.406250
vt 0.593750 0.296875
vt 0.593750 0.687500
vt 0.593750 0.640625
vt 0.656250 0.687500
vt 0.656250 0.640625
vt 0.625000 1.000000
vt 0.625000 0.953125
vt 0.687500 1.000000
vt 0.687500 0.953125
vt 0.109375 0.312500
vt 0.109375 0.375000
vt 0.062500 0.312500
vt 0.062500 0.375000
vt 0.671875 0.937500
vt 0.671875 0.875000
vt 0.625000 0.937500
vt 0.625000 0.875000
vt 0.687500 0.937500
vt 0.687500 0.890625
vt 0.734375 0.937500
vt 0.734375 0.890625
vt 0.062500 0.265625
vt 0.109375 0.265625
vt 0.718750 0.312500
vt 0.718750 0.296875
vt 0.796875 0.312500
vt 0.796875 0.296875
vt 0.718750 0.281250
vt 0.718750 0.265625
vt 0.796875 0.281250
vt 0.796875 0.265625
vt 0.640625 0.703125
vt 0.640625 0.781250
vt 0.593750 0.703125
vt 0.484375 0.406250
vt 0.484375 0.328125
vt 0.437500 0.406250
vt 0.437500 0.328125
vt 0.750000 0.968750
vt 0.750000 0.953125
vt 0.796875 0.968750
vt 0.796875 0.953125
vt 0.031250 0.250000
vt 0.031250 0.234375
vt 0.078125 0.250000
vt 0.078125 0.234375
vt 0.125000 0.375000
vt 0.125000 0.312500
vt 0.171875 0.375000
vt 0.171875 0.312500
vt 0.375000 0.312500
vt 0.421875 0.375000
vt 0.421875 0.312500
vt 0.593750 0.234375
vt 0.593750 0.281250
vt 0.562500 0.234375
vt 0.562500 0.281250
vt 0.750000 0.437500
vt 0.750000 0.390625
vt 0.718750 0.390625
vt 0.687500 0.312500
vt 0.687500 0.250000
vt 0.718750 0.250000
vt 0.000000 0.968750
vt 0.046875 1.000000
vt 0.718750 0.343750
vt 0.765625 0.343750
vt 0.765625 0.312500
vt 0.765625 0.375000
vt 0.437500 0.625000
vt 0.437500 0.593750
vt 0.687500 0.625000
vt 0.687500 0.593750
vt 0.437500 0.562500
vt 0.687500 0.562500
vt 0.187500 0.875000
vt 0.250000 0.625000
vt 0.718750 0.843750
vt 0.718750 0.812500
vt 0.781250 0.843750
vt 0.781250 0.812500
vt 0.718750 0.875000
vt 0.781250 0.875000
vt 0.437500 0.531250
vt 0.687500 0.531250
vt 0.468750 0.875000
vt 0.468750 0.843750
vt 0.312500 0.750000
vt 0.312500 1.000000
vt 0.250000 0.750000
vt 0.312500 0.500000
vt 0.250000 0.500000
vt 0.718750 0.781250
vt 0.718750 0.750000
vt 0.781250 0.781250
vt 0.781250 0.750000
vt 0.468750 0.718750
vt 0.468750 0.671875
vt 0.578125 0.718750
vt 0.578125 0.671875
vt 0.062500 0.390625
vt 0.171875 0.390625
vt 0.234375 0.328125
vt 0.187500 0.328125
vt 0.359375 0.437500
vt 0.359375 0.328125
vt 0.312500 0.437500
vt 0.312500 0.328125
vt 0.187500 0.312500
vt 0.187500 0.265625
vt 0.234375 0.312500
vt 0.234375 0.265625
vt 0.125000 0.265625
vt 0.171875 0.265625
vt 0.562500 0.531250
vt 0.562500 0.484375
vt 0.671875 0.531250
vt 0.671875 0.484375
vt 0.562500 0.468750
vt 0.562500 0.421875
vt 0.671875 0.468750
vt 0.671875 0.421875
vt 0.000000 0.890625
vt 0.625000 0.406250
vt 0.625000 0.343750
vt 0.671875 0.406250
vt 0.671875 0.343750
vt 0.656250 0.718750
vt 0.703125 0.781250
vt 0.703125 0.718750
vt 0.359375 0.265625
vt 0.359375 0.312500
vt 0.312500 0.265625
vt 0.312500 0.312500
vt 0.421875 0.265625
vt 0.375000 0.265625
vt 0.703125 0.843750
vt 0.500000 0.375000
vt 0.500000 0.312500
vt 0.546875 0.375000
vt 0.546875 0.312500
vt 0.531250 0.718750
vt 0.500000 0.531250
vt 0.500000 0.406250
vt 0.296875 0.281250
vt 0.296875 0.343750
vt 0.250000 0.281250
vt 0.250000 0.343750
vt 0.703125 0.656250
vt 0.656250 0.656250
vt 0.562500 0.875000
vt 0.609375 1.000000
vt 0.609375 0.875000
vt 0.000000 0.312500
vt 0.046875 0.312500
vt 0.312500 0.875000
vt 0.312500 0.812500
vt 0.468750 0.812500
vt 0.468750 0.750000
vt 0.000000 0.843750
vt 0.312500 0.687500
vt 0.312500 0.625000
vt 0.468750 0.687500
vt 0.468750 0.625000
vt 0.156250 1.000000
vt 0.296875 0.500000
vt 0.546875 0.531250
vt 0.468750 0.656250
vt 0.562500 0.656250
vt 0.562500 0.625000
vt 0.656250 0.625000
vt 0.750000 0.656250
vt 0.750000 0.625000
vt 0.656250 0.250000
vt 0.656250 0.343750
vt 0.625000 0.250000
vt 0.687500 0.343750
vt 0.593750 0.250000
vt 0.625000 0.281250
vt 0.593750 0.656250
vt 0.593750 0.625000
vt 0.312500 0.937500
vt 0.484375 1.000000
vt 0.484375 0.937500
vt 0.484375 0.875000
vt 0.359375 0.453125
vt 0.359375 0.625000
vt 0.312500 0.453125
vt 0.421875 0.625000
vt 0.421875 0.453125
vt 0.375000 0.625000
vt 0.375000 0.453125
vt 0.734375 1.000000
vt 0.000000 0.250000
vt 0.046875 0.250000
vt 0.750000 0.937500
vt 0.750000 0.890625
vt 0.765625 0.937500
vt 0.765625 0.890625
vt 0.093750 0.250000
vt 0.093750 0.203125
vt 0.109375 0.250000
vt 0.109375 0.203125
vt 0.171875 0.234375
vt 0.171875 0.250000
vt 0.125000 0.234375
vt 0.125000 0.250000
vt 0.234375 0.250000
vt 0.234375 0.234375
vt 0.187500 0.250000
vt 0.187500 0.234375
vt 0.437500 0.312500
vt 0.437500 0.265625
vt 0.484375 0.312500
vt 0.484375 0.265625
vt 0.687500 0.578125
vt 0.734375 0.625000
vt 0.734375 0.578125
vt 0.750000 0.718750
vt 0.750000 0.703125
vt 0.796875 0.718750
vt 0.796875 0.703125
vt 0.750000 0.687500
vt 0.750000 0.671875
vt 0.796875 0.687500
vt 0.796875 0.671875
vt 0.734375 0.515625
vt 0.734375 0.562500
vt 0.687500 0.515625
vt 0.546875 0.265625
vt 0.500000 0.265625
vt 0.312500 0.250000
vt 0.312500 0.234375
vt 0.359375 0.250000
vt 0.359375 0.234375
vt 0.250000 0.250000
vt 0.250000 0.234375
vt 0.296875 0.250000
vt 0.296875 0.234375
vt 0.312500 0.281250
vt 0.718750 0.718750
vt 0.781250 0.718750
vt 0.718750 0.656250
vt 0.750000 0.500000
vt 0.750000 1.000000
vt 0.781250 1.000000
vt 0.781250 0.968750
vt 0.000000 0.218750
vt 0.031250 0.218750
s 0
usemtl Material_0.004
f 1/1/1 3/2/1 2/3/1
f 3/2/1 4/4/1 2/3/1
f 5/2/2 7/5/2 6/4/2
f 7/5/2 8/6/2 6/4/2
f 9/7/3 11/8/3 10/9/3
f 11/8/3 12/5/3 10/9/3
f 13/10/4 15/11/4 14/8/4
f 15/11/4 16/7/4 14/8/4
f 17/12/5 19/13/5 18/14/5
f 19/13/5 20/15/5 18/14/5
f 21/16/6 23/17/6 22/18/6
f 23/17/6 24/19/6 22/18/6
f 25/9/7 27/20/7 26/21/7
f 27/20/7 28/22/7 26/21/7
f 29/7/8 31/23/8 30/24/8
f 31/23/8 32/25/8 30/24/8
f 33/26/9 35/1/9 34/26/9
f 35/1/9 36/1/9 34/26/9
f 37/1/10 39/26/10 38/1/10
f 39/26/11 40/26/11 38/1/11
f 41/1/12 43/27/12 42/1/12
f 43/27/5 44/27/5 42/1/5
f 45/1/6 47/27/6 46/1/6
f 47/27/6 48/27/6 46/1/6
f 49/11/13 51/28/13 50/29/13
f 51/28/13 52/30/13 50/29/13
f 53/31/14 55/32/14 54/33/14
f 55/32/14 56/34/14 54/33/14
f 57/26/15 59/1/15 58/26/15
f 59/1/16 60/1/16 58/26/16
f 61/1/17 63/26/17 62/1/17
f 63/26/17 64/26/17 62/1/17
f 65/1/5 67/27/5 66/1/5
f 67/27/5 68/27/5 66/1/5
f 69/1/6 71/27/6 70/1/6
f 71/27/18 72/27/18 70/1/18
f 73/35/1 75/36/1 74/37/1
f 75/36/1 76/38/1 74/37/1
f 77/39/2 79/40/2 78/12/2
f 79/40/2 80/41/2 78/12/2
f 81/42/19 83/43/19 82/44/19
f 83/43/19 84/45/19 82/44/19
f 85/42/20 87/46/20 86/44/20
f 87/46/20 88/47/20 86/44/20
f 89/48/21 91/49/21 90/50/21
f 91/49/21 92/51/21 90/50/21
f 93/52/22 95/53/22 94/54/22
f 95/53/22 96/55/22 94/54/22
f 97/56/1 99/57/1 98/58/1
f 99/57/1 100/59/1 98/58/1
f 101/60/2 103/61/2 102/62/2
f 103/61/2 104/63/2 102/62/2
f 105/64/3 107/65/3 106/66/3
f 107/65/3 108/67/3 106/66/3
f 109/68/4 111/69/4 110/70/4
f 111/69/4 112/71/4 110/70/4
f 113/72/5 115/73/5 114/74/5
f 115/73/5 116/75/5 114/74/5
f 117/66/6 119/76/6 118/64/6
f 119/76/6 120/77/6 118/64/6
f 121/78/1 123/79/1 122/80/1
f 123/79/1 124/81/1 122/80/1
f 125/82/2 127/83/2 126/84/2
f 127/83/2 128/85/2 126/84/2
f 129/86/3 131/87/3 130/88/3
f 131/87/3 132/13/3 130/88/3
f 133/89/4 135/90/4 134/91/4
f 135/90/4 136/92/4 134/91/4
f 137/93/5 139/94/5 138/95/5
f 139/94/5 140/96/5 138/95/5
f 141/97/6 143/98/6 142/99/6
f 143/98/6 144/100/6 142/99/6
f 145/101/1 147/102/1 146/103/1
f 147/102/1 148/104/1 146/103/1
f 149/17/2 151/105/2 150/106/2
f 151/105/2 152/107/2 150/106/2
f 153/108/23 155/109/23 154/110/23
f 155/109/23 156/111/23 154/110/23
f 157/112/24 159/113/24 158/42/24
f 159/113/24 160/114/24 158/42/24
f 161/115/25 163/116/25 162/78/25
f 163/116/25 164/117/25 162/78/25
f 165/47/26 167/115/26 166/46/26
f 167/115/26 168/78/26 166/46/26
f 169/1/1 171/118/1 170/1/1
f 171/118/1 172/118/1 170/1/1
f 173/1/2 175/118/2 174/1/2
f 175/118/2 176/118/2 174/1/2
f 177/119/3 179/119/3 178/1/3
f 179/119/3 180/1/3 178/1/3
f 181/119/4 183/119/4 182/1/4
f 183/119/4 184/1/4 182/1/4
f 185/120/5 187/78/5 186/121/5
f 187/78/5 188/122/5 186/121/5
f 189/46/6 191/120/6 190/123/6
f 191/120/6 192/121/6 190/123/6
f 193/124/1 195/125/1 194/126/1
f 195/125/1 196/127/1 194/126/1
f 197/125/2 199/128/2 198/127/2
f 199/128/2 200/129/2 198/127/2
f 201/31/3 203/130/3 202/11/3
f 203/130/3 204/10/3 202/11/3
f 205/6/4 207/131/4 206/130/4
f 207/131/4 208/31/4 206/130/4
f 209/132/5 211/133/5 210/134/5
f 211/133/5 212/135/5 210/134/5
f 213/136/6 215/132/6 214/137/6
f 215/132/6 216/134/6 214/137/6
f 217/128/1 219/138/1 218/129/1
f 219/138/1 220/139/1 218/129/1
f 221/140/2 223/141/2 222/136/2
f 223/141/2 224/132/2 222/136/2
f 225/142/3 227/143/3 226/144/3
f 227/143/3 228/3/3 226/144/3
f 229/142/4 231/145/4 230/144/4
f 231/145/4 232/146/4 230/144/4
f 233/147/5 235/148/5 234/149/5
f 235/148/5 236/150/5 234/149/5
f 237/133/6 239/147/6 238/135/6
f 239/147/6 240/149/6 238/135/6
f 241/151/1 243/152/1 242/153/1
f 243/152/1 244/154/1 242/153/1
f 245/23/2 247/155/2 246/30/2
f 247/155/2 248/156/2 246/30/2
f 249/157/3 251/34/3 250/158/3
f 251/34/3 252/32/3 250/158/3
f 253/159/4 255/160/4 254/161/4
f 255/160/4 256/162/4 254/161/4
f 257/163/5 259/164/5 258/165/5
f 259/164/5 260/166/5 258/165/5
f 261/102/6 263/167/6 262/104/6
f 263/167/6 264/168/6 262/104/6
f 265/169/1 267/170/1 266/171/1
f 267/170/1 268/172/1 266/171/1
f 269/173/2 271/174/2 270/175/2
f 271/174/2 272/176/2 270/175/2
f 273/177/3 275/1/3 274/177/3
f 275/1/3 276/1/3 274/177/3
f 277/1/4 279/177/4 278/1/4
f 279/177/4 280/177/4 278/1/4
f 281/1/5 283/26/5 282/1/5
f 283/26/5 284/26/5 282/1/5
f 285/1/6 287/26/6 286/1/6
f 287/26/6 288/26/6 286/1/6
f 289/178/1 291/179/1 290/180/1
f 291/179/1 292/181/1 290/180/1
f 293/15/2 295/182/2 294/183/2
f 295/182/2 296/184/2 294/183/2
f 297/185/27 299/186/27 298/187/27
f 299/186/27 300/188/27 298/187/27
f 301/107/28 303/189/28 302/105/28
f 303/189/28 304/190/28 302/105/28
f 305/14/29 307/15/29 306/191/29
f 307/15/29 308/183/29 306/191/29
f 309/192/30 311/193/30 310/194/30
f 311/193/30 312/195/30 310/194/30
f 313/141/1 315/151/1 314/39/1
f 315/151/1 316/196/1 314/39/1
f 317/138/2 319/91/2 318/197/2
f 319/91/2 320/198/2 318/197/2
f 321/199/3 323/200/3 322/201/3
f 323/200/3 324/202/3 322/201/3
f 325/184/4 327/203/4 326/182/4
f 327/203/4 328/204/4 326/182/4
f 329/37/5 331/205/5 330/206/5
f 331/205/5 332/207/5 330/206/5
f 333/20/6 335/208/6 334/22/6
f 335/208/6 336/209/6 334/22/6
f 337/210/1 339/211/1 338/140/1
f 339/211/1 340/212/1 338/140/1
f 341/211/2 343/142/2 342/212/2
f 343/142/2 344/213/2 342/212/2
f 345/214/3 347/1/3 346/214/3
f 347/1/3 348/1/3 346/214/3
f 349/1/4 351/214/4 350/1/4
f 351/214/4 352/214/4 350/1/4
f 353/1/5 355/2/5 354/1/5
f 355/2/5 356/2/5 354/1/5
f 357/1/6 359/2/6 358/1/6
f 359/2/6 360/2/6 358/1/6
f 361/212/1 363/213/1 362/211/1
f 363/213/1 364/142/1 362/211/1
f 365/215/2 367/216/2 366/217/2
f 367/216/2 368/218/2 366/217/2
f 369/214/3 371/1/3 370/214/3
f 371/1/3 372/1/3 370/214/3
f 373/1/4 375/214/4 374/1/4
f 375/214/4 376/214/4 374/1/4
f 377/1/5 379/2/5 378/1/5
f 379/2/5 380/2/5 378/1/5
f 381/1/6 383/2/6 382/1/6
f 383/2/6 384/2/6 382/1/6
f 385/1/1 387/1/1 386/219/1
f 387/1/1 388/219/1 386/219/1
f 389/1/2 391/1/2 390/219/2
f 391/1/2 392/219/2 390/219/2
f 393/200/3 395/220/3 394/202/3
f 395/220/3 396/146/3 394/202/3
f 397/221/4 399/194/4 398/197/4
f 399/194/4 400/192/4 398/197/4
f 401/1/5 403/1/5 402/119/5
f 403/1/5 404/119/5 402/119/5
f 405/1/6 407/1/6 406/119/6
f 407/1/6 408/119/6 406/119/6
f 409/222/1 411/218/1 410/223/1
f 411/218/1 412/224/1 410/223/1
f 413/204/2 415/225/2 414/226/2
f 415/225/2 416/227/2 414/226/2
f 417/228/19 419/229/19 418/230/19
f 419/229/19 420/179/19 418/230/19
f 421/231/20 423/116/20 422/229/20
f 423/116/20 424/228/20 422/229/20
f 425/109/21 427/232/21 426/233/21
f 427/232/21 428/230/21 426/233/21
f 429/223/22 431/224/22 430/234/22
f 431/224/22 432/235/22 430/234/22
f 433/143/1 435/236/1 434/237/1
f 435/236/1 436/238/1 434/237/1
f 437/236/2 439/210/2 438/238/2
f 439/210/2 440/239/2 438/238/2
f 441/240/3 443/241/3 442/242/3
f 443/241/3 444/216/3 442/242/3
f 445/243/4 447/244/4 446/245/4
f 447/244/4 448/246/4 446/245/4
f 449/62/5 451/72/5 450/247/5
f 451/72/5 452/74/5 450/247/5
f 453/208/6 455/248/6 454/209/6
f 455/248/6 456/249/6 454/209/6
f 457/250/1 459/251/1 458/252/1
f 459/251/1 460/253/1 458/252/1
f 461/254/2 463/255/2 462/256/2
f 463/255/2 464/257/2 462/256/2
f 465/258/3 467/259/3 466/260/3
f 467/259/3 468/261/3 466/260/3
f 469/262/4 471/263/4 470/264/4
f 471/263/4 472/265/4 470/264/4
f 473/266/5 475/267/5 474/268/5
f 475/267/5 476/269/5 474/268/5
f 477/126/6 479/270/6 478/271/6
f 479/270/6 480/272/6 478/271/6
f 481/273/1 483/274/1 482/275/1
f 483/274/1 484/276/1 482/275/1
f 485/277/2 487/278/2 486/279/2
f 487/278/2 488/280/2 486/279/2
f 489/281/3 491/282/3 490/283/3
f 491/282/3 492/129/3 490/283/3
f 493/195/4 495/284/4 494/193/4
f 495/284/4 496/285/4 494/193/4
f 497/286/5 499/287/5 498/288/5
f 499/287/5 500/289/5 498/288/5
f 501/290/6 503/291/6 502/292/6
f 503/291/6 504/293/6 502/292/6
f 505/201/1 507/290/1 506/294/1
f 507/290/1 508/286/1 506/294/1
f 509/148/2 511/295/2 510/150/2
f 511/295/2 512/296/2 510/150/2
f 513/226/3 515/273/3 514/297/3
f 515/273/3 516/295/3 514/297/3
f 517/298/4 519/112/4 518/43/4
f 519/112/4 520/42/4 518/43/4
f 521/299/5 523/93/5 522/300/5
f 523/93/5 524/301/5 522/300/5
f 525/248/6 527/302/6 526/97/6
f 527/302/6 528/303/6 526/97/6
