# Blender 5.0.1
# www.blender.org
mtllib lev.socom556.mtl
o attachmentModel
v -0.000000 -0.576923 0.576923
v 1.153846 -0.576923 0.576923
v -0.000000 -0.576923 -0.576923
v 1.153846 -0.576923 -0.576923
v 1.153847 0.576923 0.576923
v 0.000000 0.576923 0.576923
v 1.153846 0.576923 -0.576923
v 0.000000 0.576923 -0.576923
v 1.153847 0.576923 0.576923
v 1.153846 -0.576923 0.576923
v 0.000000 0.576923 0.576923
v -0.000000 -0.576923 0.576923
v 0.000000 0.576923 -0.576923
v -0.000000 -0.576923 -0.576923
v 1.153846 0.576923 -0.576923
v 1.153846 -0.576923 -0.576923
v 0.000000 0.576923 0.576923
v -0.000000 -0.576923 0.576923
v 0.000000 0.576923 -0.576923
v -0.000000 -0.576923 -0.576923
v 1.153846 -0.576923 0.576923
v 1.153847 0.576923 0.576923
v 1.153846 -0.576923 -0.576923
v 1.153846 0.576923 -0.576923
v 1.153846 -0.000000 0.815892
v 6.153847 -0.000000 0.815892
v 1.153846 -0.815893 -0.000000
v 6.153847 -0.815893 -0.000000
v 6.153847 0.815893 -0.000000
v 1.153846 0.815893 -0.000000
v 6.153847 0.000000 -0.815893
v 1.153846 0.000000 -0.815893
v 6.153847 0.815893 -0.000000
v 6.153847 -0.000000 0.815892
v 1.153846 0.815893 -0.000000
v 1.153846 -0.000000 0.815892
v 1.153846 0.000000 -0.815893
v 1.153846 -0.815893 -0.000000
v 6.153847 0.000000 -0.815893
v 6.153847 -0.815893 -0.000000
v 1.153846 0.815893 -0.000000
v 1.153846 -0.000000 0.815892
v 1.153846 0.000000 -0.815893
v 1.153846 -0.815893 -0.000000
v 6.153847 -0.000000 0.815892
v 6.153847 0.815893 -0.000000
v 6.153847 -0.815893 -0.000000
v 6.153847 0.000000 -0.815893
v 6.153847 -0.815349 0.000543
v 6.538463 -0.815349 0.000543
v 6.153847 -0.815893 -0.000000
v 6.538463 -0.815893 -0.000000
v 6.538463 0.000544 -0.815349
v 6.153847 0.000544 -0.815349
v 6.538463 0.000000 -0.815893
v 6.153847 0.000000 -0.815893
v 6.538463 0.000544 -0.815349
v 6.538463 -0.815349 0.000543
v 6.153847 0.000544 -0.815349
v 6.153847 -0.815349 0.000543
v 6.153847 0.000000 -0.815893
v 6.153847 -0.815893 -0.000000
v 6.538463 0.000000 -0.815893
v 6.538463 -0.815893 -0.000000
v 6.153847 0.000544 -0.815349
v 6.153847 -0.815349 0.000543
v 6.153847 0.000000 -0.815893
v 6.153847 -0.815893 -0.000000
v 6.538463 -0.815349 0.000543
v 6.538463 0.000544 -0.815349
v 6.538463 -0.815893 -0.000000
v 6.538463 0.000000 -0.815893
v 6.153847 -0.000544 0.816436
v 6.538463 -0.000544 0.816436
v 6.153847 -0.816436 0.000543
v 6.538463 -0.816436 0.000543
v 6.538463 -0.000000 0.815892
v 6.153847 -0.000000 0.815892
v 6.538463 -0.815893 -0.000000
v 6.153847 -0.815893 -0.000000
v 6.538463 -0.000000 0.815892
v 6.538463 -0.000544 0.816436
v 6.153847 -0.000000 0.815892
v 6.153847 -0.000544 0.816436
v 6.153847 -0.815893 -0.000000
v 6.153847 -0.816436 0.000543
v 6.538463 -0.815893 -0.000000
v 6.538463 -0.816436 0.000543
v 6.153847 -0.000000 0.815892
v 6.153847 -0.000544 0.816436
v 6.153847 -0.815893 -0.000000
v 6.153847 -0.816436 0.000543
v 6.538463 -0.000544 0.816436
v 6.538463 -0.000000 0.815892
v 6.538463 -0.816436 0.000543
v 6.538463 -0.815893 -0.000000
v 6.153847 0.815349 0.000543
v 6.538463 0.815349 0.000543
v 6.153847 -0.000544 -0.815349
v 6.538463 -0.000544 -0.815349
v 6.538463 0.815893 -0.000000
v 6.153847 0.815893 -0.000000
v 6.538463 0.000000 -0.815893
v 6.153847 0.000000 -0.815893
v 6.538463 0.815893 -0.000000
v 6.538463 0.815349 0.000543
v 6.153847 0.815893 -0.000000
v 6.153847 0.815349 0.000543
v 6.153847 0.000000 -0.815893
v 6.153847 -0.000544 -0.815349
v 6.538463 0.000000 -0.815893
v 6.538463 -0.000544 -0.815349
v 6.153847 0.815893 -0.000000
v 6.153847 0.815349 0.000543
v 6.153847 0.000000 -0.815893
v 6.153847 -0.000544 -0.815349
v 6.538463 0.815349 0.000543
v 6.538463 0.815893 -0.000000
v 6.538463 -0.000544 -0.815349
v 6.538463 0.000000 -0.815893
v 6.153847 0.000544 0.816436
v 6.538463 0.000544 0.816436
v 6.153847 -0.000000 0.815892
v 6.538463 -0.000000 0.815892
v 6.538463 0.816436 0.000543
v 6.153847 0.816436 0.000543
v 6.538463 0.815893 -0.000000
v 6.153847 0.815893 -0.000000
v 6.538463 0.816436 0.000543
v 6.538463 0.000544 0.816436
v 6.153847 0.816436 0.000543
v 6.153847 0.000544 0.816436
v 6.153847 0.815893 -0.000000
v 6.153847 -0.000000 0.815892
v 6.538463 0.815893 -0.000000
v 6.538463 -0.000000 0.815892
v 6.153847 0.816436 0.000543
v 6.153847 0.000544 0.816436
v 6.153847 0.815893 -0.000000
v 6.153847 -0.000000 0.815892
v 6.538463 0.000544 0.816436
v 6.538463 0.816436 0.000543
v 6.538463 -0.000000 0.815892
v 6.538463 0.815893 -0.000000
v 5.961539 0.384615 -0.384616
v 6.346155 0.384615 -0.384616
v 5.961539 0.384615 0.384615
v 6.346155 0.384615 0.384615
v 6.346155 -0.384615 -0.384616
v 5.961539 -0.384615 -0.384616
v 6.346155 -0.384615 0.384615
v 5.961539 -0.384615 0.384615
v 6.346155 -0.384615 -0.384616
v 6.346155 0.384615 -0.384616
v 5.961539 -0.384615 -0.384616
v 5.961539 0.384615 -0.384616
v 5.961539 -0.384615 0.384615
v 5.961539 0.384615 0.384615
v 6.346155 -0.384615 0.384615
v 6.346155 0.384615 0.384615
v 5.961539 -0.384615 -0.384616
v 5.961539 0.384615 -0.384616
v 5.961539 -0.384615 0.384615
v 5.961539 0.384615 0.384615
v 6.346155 0.384615 -0.384616
v 6.346155 -0.384615 -0.384616
v 6.346155 0.384615 0.384615
v 6.346155 -0.384615 0.384615
vn -0.0000 -1.0000 -0.0000
vn -0.0000 1.0000 -0.0000
vn -0.0000 -0.0000 1.0000
vn -0.0000 -0.0000 -1.0000
vn -1.0000 -0.0000 -0.0000
vn 1.0000 -0.0000 -0.0000
vn -0.0000 -0.7071 0.7071
vn -0.0000 0.7071 -0.7071
vn -0.0000 0.7071 0.7071
vn -0.0000 -0.7071 -0.7071
vn -0.0000 0.7070 -0.7072
vn -1.0000 -0.0000 0.0002
vn 1.0000 -0.0000 -0.0001
vn -0.0000 0.7070 0.7072
vn -0.0000 -0.7070 -0.7072
vn -0.0000 -0.7070 0.7072
vn -1.0000 -0.0000 0.0007
vt 0.375000 0.625000
vt 0.375000 0.531250
vt 0.468750 0.625000
vt 0.468750 0.531250
vt 0.437500 0.875000
vt 0.437500 0.781250
vt 0.531250 0.875000
vt 0.531250 0.781250
vt 0.343750 0.406250
vt 0.343750 0.500000
vt 0.250000 0.406250
vt 0.250000 0.500000
vt 0.593750 0.750000
vt 0.593750 0.656250
vt 0.500000 0.750000
vt 0.500000 0.656250
vt 0.437500 1.000000
vt 0.437500 0.906250
vt 0.531250 1.000000
vt 0.531250 0.906250
vt 0.375000 0.750000
vt 0.375000 0.656250
vt 0.468750 0.750000
vt 0.468750 0.656250
vt 0.000000 1.000000
vt 0.000000 0.906250
vt 0.406250 1.000000
vt 0.406250 0.906250
vt 0.000000 0.875000
vt 0.000000 0.781250
vt 0.406250 0.875000
vt 0.406250 0.781250
vt 0.093750 0.343750
vt 0.093750 0.750000
vt 0.000000 0.343750
vt 0.000000 0.750000
vt 0.218750 0.750000
vt 0.218750 0.343750
vt 0.125000 0.750000
vt 0.125000 0.343750
vt 0.250000 0.625000
vt 0.250000 0.531250
vt 0.343750 0.625000
vt 0.343750 0.531250
vt 0.250000 0.750000
vt 0.250000 0.656250
vt 0.343750 0.750000
vt 0.343750 0.656250
vt 0.031250 1.000000
vt 0.531250 0.468750
vt 0.531250 0.500000
vt 0.437500 0.468750
vt 0.437500 0.500000
vt 0.593750 0.562500
vt 0.593750 0.531250
vt 0.500000 0.562500
vt 0.500000 0.531250
vt 0.093750 1.000000
vt 0.562500 1.000000
vt 0.562500 0.906250
vt 0.593750 1.000000
vt 0.593750 0.906250
vt 0.562500 0.875000
vt 0.562500 0.781250
vt 0.593750 0.875000
vt 0.593750 0.781250
vt 0.000000 0.968750
vt 0.375000 0.437500
vt 0.375000 0.343750
vt 0.406250 0.437500
vt 0.406250 0.343750
vt 0.437500 0.437500
vt 0.437500 0.343750
vt 0.468750 0.437500
vt 0.468750 0.343750
vt 0.656250 0.593750
vt 0.656250 0.625000
vt 0.562500 0.593750
vt 0.562500 0.625000
vt 0.593750 0.437500
vt 0.593750 0.406250
vt 0.500000 0.437500
vt 0.500000 0.406250
vt 0.562500 0.500000
vt 0.562500 0.437500
vt 0.593750 0.500000
vt 0.625000 1.000000
vt 0.625000 0.937500
vt 0.656250 1.000000
vt 0.656250 0.937500
vt 0.687500 0.906250
vt 0.687500 0.937500
vt 0.625000 0.906250
vt 0.687500 0.875000
vt 0.687500 0.843750
vt 0.625000 0.875000
vt 0.625000 0.843750
vt 0.500000 0.625000
vt 0.562500 0.562500
vt 0.375000 0.500000
s 0
usemtl Material_0
f 1/1/1 3/2/1 2/3/1
f 3/2/1 4/4/1 2/3/1
f 5/5/2 7/6/2 6/7/2
f 7/6/2 8/8/2 6/7/2
f 9/9/3 11/10/3 10/11/3
f 11/10/3 12/12/3 10/11/3
f 13/13/4 15/14/4 14/15/4
f 15/14/4 16/16/4 14/15/4
f 17/17/5 19/18/5 18/19/5
f 19/18/5 20/20/5 18/19/5
f 21/21/6 23/22/6 22/23/6
f 23/22/6 24/24/6 22/23/6
f 25/25/7 27/26/7 26/27/7
f 27/26/7 28/28/7 26/27/7
f 29/29/8 31/30/8 30/31/8
f 31/30/8 32/32/8 30/31/8
f 33/33/9 35/34/9 34/35/9
f 35/34/9 36/36/9 34/35/9
f 37/37/10 39/38/10 38/39/10
f 39/38/10 40/40/10 38/39/10
f 41/41/5 43/42/5 42/43/5
f 43/42/5 44/44/5 42/43/5
f 45/45/6 47/46/6 46/47/6
f 47/46/6 48/48/6 46/47/6
f 49/25/7 51/25/7 50/49/7
f 51/25/7 52/49/7 50/49/7
f 53/25/11 55/25/11 54/49/11
f 55/25/8 56/49/8 54/49/8
f 57/50/9 59/51/9 58/52/9
f 59/51/9 60/53/9 58/52/9
f 61/54/10 63/55/10 62/56/10
f 63/55/10 64/57/10 62/56/10
f 65/25/5 67/25/5 66/58/5
f 67/25/12 68/58/12 66/58/12
f 69/25/6 71/25/6 70/58/6
f 71/25/13 72/58/13 70/58/13
f 73/59/7 75/60/7 74/61/7
f 75/60/7 76/62/7 74/61/7
f 77/63/8 79/64/8 78/65/8
f 79/64/8 80/66/8 78/65/8
f 81/67/9 83/25/9 82/67/9
f 83/25/14 84/25/14 82/67/14
f 85/25/10 87/67/10 86/25/10
f 87/67/10 88/67/10 86/25/10
f 89/25/5 91/26/5 90/25/5
f 91/26/5 92/26/5 90/25/5
f 93/25/6 95/26/6 94/25/6
f 95/26/6 96/26/6 94/25/6
f 97/68/7 99/69/7 98/70/7
f 99/69/7 100/71/7 98/70/7
f 101/72/8 103/73/8 102/74/8
f 103/73/8 104/75/8 102/74/8
f 105/67/9 107/25/9 106/67/9
f 107/25/9 108/25/9 106/67/9
f 109/25/10 111/67/10 110/25/10
f 111/67/15 112/67/15 110/25/15
f 113/25/5 115/26/5 114/25/5
f 115/26/5 116/26/5 114/25/5
f 117/25/6 119/26/6 118/25/6
f 119/26/6 120/26/6 118/25/6
f 121/25/16 123/25/16 122/49/16
f 123/25/7 124/49/7 122/49/7
f 125/25/8 127/25/8 126/49/8
f 127/25/8 128/49/8 126/49/8
f 129/76/9 131/77/9 130/78/9
f 131/77/9 132/79/9 130/78/9
f 133/80/10 135/81/10 134/82/10
f 135/81/10 136/83/10 134/82/10
f 137/25/5 139/25/5 138/58/5
f 139/25/17 140/58/17 138/58/17
f 141/25/6 143/25/6 142/58/6
f 143/25/13 144/58/13 142/58/13
f 145/84/2 147/85/2 146/86/2
f 147/85/2 148/80/2 146/86/2
f 149/87/1 151/88/1 150/89/1
f 151/88/1 152/90/1 150/89/1
f 153/91/4 155/92/4 154/93/4
f 155/92/4 156/88/4 154/93/4
f 157/94/3 159/95/3 158/96/3
f 159/95/3 160/97/3 158/96/3
f 161/98/5 163/56/5 162/79/5
f 163/56/5 164/99/5 162/79/5
f 165/100/6 167/68/6 166/53/6
f 167/68/6 168/72/6 166/53/6
