# Blender 5.1.2
# www.blender.org
mtllib lev.svbrake.mtl
o attachmentModel
v 0.000000 0.384615 0.384615
v 1.153846 0.384615 0.384615
v 0.000000 -0.384615 0.384615
v 1.153846 -0.384615 0.384615
v 1.153846 0.384615 -0.384615
v -0.000000 0.384615 -0.384615
v 1.153846 -0.384615 -0.384615
v -0.000000 -0.384615 -0.384615
v 1.153846 0.384615 -0.384615
v 1.153846 0.384615 0.384615
v -0.000000 0.384615 -0.384615
v 0.000000 0.384615 0.384615
v -0.000000 -0.384615 -0.384615
v 0.000000 -0.384615 0.384615
v 1.153846 -0.384615 -0.384615
v 1.153846 -0.384615 0.384615
v -0.000000 0.384615 -0.384615
v 0.000000 0.384615 0.384615
v -0.000000 -0.384615 -0.384615
v 0.000000 -0.384615 0.384615
v 1.153846 0.384615 0.384615
v 1.153846 0.384615 -0.384615
v 1.153846 -0.384615 0.384615
v 1.153846 -0.384615 -0.384615
v 1.923077 0.384615 0.384615
v 2.307692 0.384615 0.384615
v 1.923077 -0.384615 0.384615
v 2.307692 -0.384615 0.384615
v 2.307692 0.384615 -0.384615
v 1.923077 0.384615 -0.384615
v 2.307692 -0.384615 -0.384615
v 1.923077 -0.384615 -0.384615
v 2.307692 0.384615 -0.384615
v 2.307692 0.384615 0.384615
v 1.923077 0.384615 -0.384615
v 1.923077 0.384615 0.384615
v 1.923077 -0.384615 -0.384615
v 1.923077 -0.384615 0.384615
v 2.307692 -0.384615 -0.384615
v 2.307692 -0.384615 0.384615
v 1.923077 0.384615 -0.384615
v 1.923077 0.384615 0.384615
v 1.923077 -0.384615 -0.384615
v 1.923077 -0.384615 0.384615
v 2.307692 0.384615 0.384615
v 2.307692 0.384615 -0.384615
v 2.307692 -0.384615 0.384615
v 2.307692 -0.384615 -0.384615
v 1.153846 -0.383846 0.384615
v 1.923077 -0.383846 0.384615
v 1.153846 -0.384615 0.384615
v 1.923077 -0.384615 0.384615
v 1.923077 -0.383846 -0.384615
v 1.153846 -0.383846 -0.384615
v 1.923077 -0.384615 -0.384615
v 1.153846 -0.384615 -0.384615
v 1.923077 -0.383846 -0.384615
v 1.923077 -0.383846 0.384615
v 1.153846 -0.383846 -0.384615
v 1.153846 -0.383846 0.384615
v 1.153846 -0.384615 -0.384615
v 1.153846 -0.384615 0.384615
v 1.923077 -0.384615 -0.384615
v 1.923077 -0.384615 0.384615
v 1.153846 -0.383846 -0.384615
v 1.153846 -0.383846 0.384615
v 1.153846 -0.384615 -0.384615
v 1.153846 -0.384615 0.384615
v 1.923077 -0.383846 0.384615
v 1.923077 -0.383846 -0.384615
v 1.923077 -0.384615 0.384615
v 1.923077 -0.384615 -0.384615
v 1.153846 0.385385 0.384615
v 1.923077 0.385385 0.384615
v 1.153846 0.384615 0.384615
v 1.923077 0.384615 0.384615
v 1.923077 0.385385 -0.384615
v 1.153846 0.385385 -0.384615
v 1.923077 0.384615 -0.384615
v 1.153846 0.384615 -0.384615
v 1.923077 0.385385 -0.384615
v 1.923077 0.385385 0.384615
v 1.153846 0.385385 -0.384615
v 1.153846 0.385385 0.384615
v 1.153846 0.384615 -0.384615
v 1.153846 0.384615 0.384615
v 1.923077 0.384615 -0.384615
v 1.923077 0.384615 0.384615
v 1.153846 0.385385 -0.384615
v 1.153846 0.385385 0.384615
v 1.153846 0.384615 -0.384615
v 1.153846 0.384615 0.384615
v 1.923077 0.385385 0.384615
v 1.923077 0.385385 -0.384615
v 1.923077 0.384615 0.384615
v 1.923077 0.384615 -0.384615
vn -0.0000 -0.0000 1.0000
vn -0.0000 -0.0000 -1.0000
vn -0.0000 1.0000 -0.0000
vn -0.0000 -1.0000 -0.0000
vn -1.0000 -0.0000 -0.0000
vn 1.0000 -0.0000 -0.0000
vt 0.000000 1.000000
vt 0.000000 0.875000
vt 0.187500 1.000000
vt 0.187500 0.875000
vt 0.000000 0.750000
vt 0.187500 0.750000
vt 0.125000 0.562500
vt 0.125000 0.750000
vt 0.000000 0.562500
vt 0.375000 1.000000
vt 0.375000 0.812500
vt 0.250000 1.000000
vt 0.250000 0.812500
vt 0.250000 0.750000
vt 0.250000 0.625000
vt 0.375000 0.750000
vt 0.375000 0.625000
vt 0.125000 0.625000
vt 0.000000 0.500000
vt 0.000000 0.375000
vt 0.062500 0.500000
vt 0.062500 0.375000
vt 0.500000 1.000000
vt 0.500000 0.875000
vt 0.562500 1.000000
vt 0.562500 0.875000
vt 0.250000 0.437500
vt 0.250000 0.500000
vt 0.125000 0.437500
vt 0.125000 0.500000
vt 0.625000 0.875000
vt 0.625000 0.812500
vt 0.500000 0.812500
vt 0.375000 0.875000
vt 0.125000 1.000000
vt 0.500000 0.750000
vt 0.375000 0.500000
vt 0.500000 0.625000
vt 0.500000 0.500000
s 0
usemtl Material_0.003
f 1/1/1 3/2/1 2/3/1
f 3/2/1 4/4/1 2/3/1
f 5/2/2 7/5/2 6/4/2
f 7/5/2 8/6/2 6/4/2
f 9/7/3 11/8/3 10/9/3
f 11/8/3 12/5/3 10/9/3
f 13/10/4 15/11/4 14/12/4
f 15/11/4 16/13/4 14/12/4
f 17/14/5 19/15/5 18/16/5
f 19/15/5 20/17/5 18/16/5
f 21/8/6 23/18/6 22/14/6
f 23/18/6 24/15/6 22/14/6
f 25/19/1 27/20/1 26/21/1
f 27/20/1 28/22/1 26/21/1
f 29/23/2 31/24/2 30/25/2
f 31/24/2 32/26/2 30/25/2
f 33/27/3 35/28/3 34/29/3
f 35/28/3 36/30/3 34/29/3
f 37/31/4 39/32/4 38/24/4
f 39/32/4 40/33/4 38/24/4
f 41/18/5 43/30/5 42/15/5
f 43/30/5 44/28/5 42/15/5
f 45/10/6 47/34/6 46/23/6
f 47/34/6 48/24/6 46/23/6
f 49/1/1 51/1/1 50/35/1
f 51/1/1 52/35/1 50/35/1
f 53/1/2 55/1/2 54/35/2
f 55/1/2 56/35/2 54/35/2
f 57/36/3 59/24/3 58/16/3
f 59/24/3 60/34/3 58/16/3
f 61/17/4 63/37/4 62/15/4
f 63/37/4 64/28/4 62/15/4
f 65/1/5 67/1/5 66/35/5
f 67/1/5 68/35/5 66/35/5
f 69/1/6 71/1/6 70/35/6
f 71/1/6 72/35/6 70/35/6
f 73/1/1 75/1/1 74/35/1
f 75/1/1 76/35/1 74/35/1
f 77/1/2 79/1/2 78/35/2
f 79/1/2 80/35/2 78/35/2
f 81/38/3 83/36/3 82/17/3
f 83/36/3 84/16/3 82/17/3
f 85/38/4 87/39/4 86/17/4
f 87/39/4 88/37/4 86/17/4
f 89/1/5 91/1/5 90/35/5
f 91/1/5 92/35/5 90/35/5
f 93/1/6 95/1/6 94/35/6
f 95/1/6 96/35/6 94/35/6
