# Blender 5.0.1
# www.blender.org
mtllib lev.falfh.mtl
o attachmentModel
v 3.461538 0.384615 0.384615
v 3.846153 0.384615 0.384615
v 3.461538 -0.384615 0.384615
v 3.846153 -0.384615 0.384615
v 3.846153 0.384615 -0.384615
v 3.461538 0.384615 -0.384615
v 3.846153 -0.384615 -0.384615
v 3.461538 -0.384615 -0.384615
v 3.846153 0.384615 -0.384615
v 3.846153 0.384615 0.384615
v 3.461538 0.384615 -0.384615
v 3.461538 0.384615 0.384615
v 3.461538 -0.384615 -0.384615
v 3.461538 -0.384615 0.384615
v 3.846153 -0.384615 -0.384615
v 3.846153 -0.384615 0.384615
v 3.461538 0.384615 -0.384615
v 3.461538 0.384615 0.384615
v 3.461538 -0.384615 -0.384615
v 3.461538 -0.384615 0.384615
v 3.846153 0.384615 0.384615
v 3.846153 0.384615 -0.384615
v 3.846153 -0.384615 0.384615
v 3.846153 -0.384615 -0.384615
v 0.000000 0.384615 0.384615
v 0.384615 0.384615 0.384615
v 0.000000 -0.384615 0.384615
v 0.384615 -0.384615 0.384615
v 0.384615 0.384615 -0.384615
v -0.000000 0.384615 -0.384615
v 0.384615 -0.384615 -0.384615
v -0.000000 -0.384615 -0.384615
v 0.384615 0.384615 -0.384615
v 0.384615 0.384615 0.384615
v -0.000000 0.384615 -0.384615
v 0.000000 0.384615 0.384615
v -0.000000 -0.384615 -0.384615
v 0.000000 -0.384615 0.384615
v 0.384615 -0.384615 -0.384615
v 0.384615 -0.384615 0.384615
v -0.000000 0.384615 -0.384615
v 0.000000 0.384615 0.384615
v -0.000000 -0.384615 -0.384615
v 0.000000 -0.384615 0.384615
v 0.384615 0.384615 0.384615
v 0.384615 0.384615 -0.384615
v 0.384615 -0.384615 0.384615
v 0.384615 -0.384615 -0.384615
v 0.384615 -0.383846 0.384615
v 3.461538 -0.383846 0.384615
v 0.384615 -0.384615 0.384615
v 3.461538 -0.384615 0.384615
v 3.461538 -0.383846 -0.384615
v 0.384615 -0.383846 -0.384615
v 3.461538 -0.384615 -0.384615
v 0.384615 -0.384615 -0.384615
v 3.461538 -0.383846 -0.384615
v 3.461538 -0.383846 0.384615
v 0.384615 -0.383846 -0.384615
v 0.384615 -0.383846 0.384615
v 0.384615 -0.384615 -0.384615
v 0.384615 -0.384615 0.384615
v 3.461538 -0.384615 -0.384615
v 3.461538 -0.384615 0.384615
v 0.384615 -0.383846 -0.384615
v 0.384615 -0.383846 0.384615
v 0.384615 -0.384615 -0.384615
v 0.384615 -0.384615 0.384615
v 3.461538 -0.383846 0.384615
v 3.461538 -0.383846 -0.384615
v 3.461538 -0.384615 0.384615
v 3.461538 -0.384615 -0.384615
v 0.384615 0.385385 0.384615
v 3.461538 0.385385 0.384615
v 0.384615 0.384615 0.384615
v 3.461538 0.384615 0.384615
v 3.461538 0.385385 -0.384615
v 0.384615 0.385385 -0.384615
v 3.461538 0.384615 -0.384615
v 0.384615 0.384615 -0.384615
v 3.461538 0.385385 -0.384615
v 3.461538 0.385385 0.384615
v 0.384615 0.385385 -0.384615
v 0.384615 0.385385 0.384615
v 0.384615 0.384615 -0.384615
v 0.384615 0.384615 0.384615
v 3.461538 0.384615 -0.384615
v 3.461538 0.384615 0.384615
v 0.384615 0.385385 -0.384615
v 0.384615 0.385385 0.384615
v 0.384615 0.384615 -0.384615
v 0.384615 0.384615 0.384615
v 3.461538 0.385385 0.384615
v 3.461538 0.385385 -0.384615
v 3.461538 0.384615 0.384615
v 3.461538 0.384615 -0.384615
v 0.384615 0.384615 0.385385
v 3.461538 0.384615 0.385384
v 0.384615 -0.384615 0.385385
v 3.461538 -0.384615 0.385384
v 3.461538 0.384615 0.384615
v 0.384615 0.384615 0.384615
v 3.461538 -0.384615 0.384615
v 0.384615 -0.384615 0.384615
v 3.461538 0.384615 0.384615
v 3.461538 0.384615 0.385384
v 0.384615 0.384615 0.384615
v 0.384615 0.384615 0.385385
v 0.384615 -0.384615 0.384615
v 0.384615 -0.384615 0.385385
v 3.461538 -0.384615 0.384615
v 3.461538 -0.384615 0.385384
v 0.384615 0.384615 0.384615
v 0.384615 0.384615 0.385385
v 0.384615 -0.384615 0.384615
v 0.384615 -0.384615 0.385385
v 3.461538 0.384615 0.385384
v 3.461538 0.384615 0.384615
v 3.461538 -0.384615 0.385384
v 3.461538 -0.384615 0.384615
v 0.384615 0.384615 -0.383846
v 3.461538 0.384615 -0.383846
v 0.384615 -0.384615 -0.383846
v 3.461538 -0.384615 -0.383846
v 3.461538 0.384615 -0.384615
v 0.384615 0.384615 -0.384615
v 3.461538 -0.384615 -0.384615
v 0.384615 -0.384615 -0.384615
v 3.461538 0.384615 -0.384615
v 3.461538 0.384615 -0.383846
v 0.384615 0.384615 -0.384615
v 0.384615 0.384615 -0.383846
v 0.384615 -0.384615 -0.384615
v 0.384615 -0.384615 -0.383846
v 3.461538 -0.384615 -0.384615
v 3.461538 -0.384615 -0.383846
v 0.384615 0.384615 -0.384615
v 0.384615 0.384615 -0.383846
v 0.384615 -0.384615 -0.384615
v 0.384615 -0.384615 -0.383846
v 3.461538 0.384615 -0.383846
v 3.461538 0.384615 -0.384615
v 3.461538 -0.384615 -0.383846
v 3.461538 -0.384615 -0.384615
vn -0.0000 -0.0000 1.0000
vn -0.0000 -0.0000 -1.0000
vn -0.0000 1.0000 -0.0000
vn -0.0000 -1.0000 -0.0000
vn -1.0000 -0.0000 -0.0000
vn 1.0000 -0.0000 -0.0000
vt 0.125000 0.500000
vt 0.125000 0.375000
vt 0.187500 0.500000
vt 0.187500 0.375000
vt 0.750000 0.812500
vt 0.750000 0.875000
vt 0.625000 0.812500
vt 0.625000 0.875000
vt 0.500000 0.875000
vt 0.500000 0.812500
vt 0.375000 0.750000
vt 0.375000 0.625000
vt 0.500000 0.750000
vt 0.500000 0.625000
vt 0.375000 0.875000
vt 0.250000 0.500000
vt 0.250000 0.375000
vt 0.312500 0.500000
vt 0.312500 0.375000
vt 0.562500 0.750000
vt 0.562500 0.625000
vt 0.500000 0.312500
vt 0.500000 0.375000
vt 0.375000 0.312500
vt 0.375000 0.375000
vt 0.625000 0.625000
vt 0.625000 0.562500
vt 0.500000 0.562500
vt 0.000000 0.500000
vt 0.000000 0.375000
vt 0.375000 0.500000
vt 0.500000 0.500000
vt 0.000000 1.000000
vt 0.500000 1.000000
vt 0.125000 1.000000
vt 0.250000 1.000000
vt 0.875000 0.500000
vt 0.875000 0.375000
vt 0.375000 1.000000
vt 0.875000 1.000000
vt 0.875000 0.875000
s 0
usemtl Material_0.001
f 1/1/1 3/2/1 2/3/1
f 3/2/1 4/4/1 2/3/1
f 5/1/2 7/2/2 6/3/2
f 7/2/2 8/4/2 6/3/2
f 9/5/3 11/6/3 10/7/3
f 11/6/3 12/8/3 10/7/3
f 13/9/4 15/10/4 14/8/4
f 15/10/4 16/7/4 14/8/4
f 17/11/5 19/12/5 18/13/5
f 19/12/5 20/14/5 18/13/5
f 21/15/6 23/11/6 22/9/6
f 23/11/6 24/13/6 22/9/6
f 25/16/1 27/17/1 26/18/1
f 27/17/1 28/19/1 26/18/1
f 29/13/2 31/14/2 30/20/2
f 31/14/2 32/21/2 30/20/2
f 33/22/3 35/23/3 34/24/3
f 35/23/3 36/25/3 34/24/3
f 37/26/4 39/27/4 38/14/4
f 39/27/4 40/28/4 38/14/4
f 41/29/5 43/30/5 42/1/5
f 43/30/5 44/2/5 42/1/5
f 45/12/6 47/31/6 46/14/6
f 47/31/6 48/32/6 46/14/6
f 49/33/1 51/33/1 50/34/1
f 51/33/1 52/34/1 50/34/1
f 53/33/2 55/33/2 54/34/2
f 55/33/2 56/34/2 54/34/2
f 57/29/3 59/33/3 58/1/3
f 59/33/3 60/35/3 58/1/3
f 61/33/4 63/29/4 62/35/4
f 63/29/4 64/1/4 62/35/4
f 65/9/5 67/10/5 66/8/5
f 67/10/5 68/7/5 66/8/5
f 69/9/6 71/10/6 70/8/6
f 71/10/6 72/7/6 70/8/6
f 73/33/1 75/33/1 74/34/1
f 75/33/1 76/34/1 74/34/1
f 77/33/2 79/33/2 78/34/2
f 79/33/2 80/34/2 78/34/2
f 81/16/3 83/36/3 82/1/3
f 83/36/3 84/35/3 82/1/3
f 85/36/4 87/16/4 86/35/4
f 87/16/4 88/1/4 86/35/4
f 89/9/5 91/10/5 90/8/5
f 91/10/5 92/7/5 90/8/5
f 93/9/6 95/10/6 94/8/6
f 95/10/6 96/7/6 94/8/6
f 97/31/1 99/25/1 98/37/1
f 99/25/1 100/38/1 98/37/1
f 101/37/2 103/38/2 102/31/2
f 103/38/2 104/25/2 102/31/2
f 105/29/3 107/33/3 106/29/3
f 107/33/3 108/33/3 106/29/3
f 109/33/4 111/29/4 110/33/4
f 111/29/4 112/29/4 110/33/4
f 113/1/5 115/2/5 114/3/5
f 115/2/5 116/4/5 114/3/5
f 117/1/6 119/2/6 118/3/6
f 119/2/6 120/4/6 118/3/6
f 121/39/1 123/15/1 122/40/1
f 123/15/1 124/41/1 122/40/1
f 125/40/2 127/41/2 126/39/2
f 127/41/2 128/15/2 126/39/2
f 129/33/3 131/29/3 130/33/3
f 131/29/3 132/29/3 130/33/3
f 133/33/4 135/29/4 134/33/4
f 135/29/4 136/29/4 134/33/4
f 137/1/5 139/2/5 138/3/5
f 139/2/5 140/4/5 138/3/5
f 141/1/6 143/2/6 142/3/6
f 143/2/6 144/4/6 142/3/6
