# Blender 5.1.2
# www.blender.org
mtllib lev.mts558comp.mtl
o attachmentModel
v 0.384615 0.576923 0.576923
v 2.692307 0.576923 0.576923
v 0.384615 -0.576923 0.576923
v 2.692307 -0.576923 0.576923
v 2.692307 0.576923 -0.576923
v 0.384615 0.576923 -0.576923
v 2.692307 -0.576923 -0.576923
v 0.384615 -0.576923 -0.576923
v 2.692307 0.576923 -0.576923
v 2.692307 0.576923 0.576923
v 0.384615 0.576923 -0.576923
v 0.384615 0.576923 0.576923
v 0.384615 -0.576923 -0.576923
v 0.384615 -0.576923 0.576923
v 2.692307 -0.576923 -0.576923
v 2.692307 -0.576923 0.576923
v 0.384615 0.576923 -0.576923
v 0.384615 0.576923 0.576923
v 0.384615 -0.576923 -0.576923
v 0.384615 -0.576923 0.576923
v 2.692307 0.576923 0.576923
v 2.692307 0.576923 -0.576923
v 2.692307 -0.576923 0.576923
v 2.692307 -0.576923 -0.576923
v 0.000000 0.576923 0.576923
v 0.384615 0.576923 0.576923
v 0.000000 -0.576923 0.576923
v 0.384615 -0.576923 0.576923
v 0.384615 0.576923 -0.576923
v -0.000000 0.576923 -0.576923
v 0.384615 -0.576923 -0.576923
v -0.000000 -0.576923 -0.576923
v 0.384615 0.576923 -0.576923
v 0.384615 0.576923 0.576923
v -0.000000 0.576923 -0.576923
v 0.000000 0.576923 0.576923
v -0.000000 -0.576923 -0.576923
v 0.000000 -0.576923 0.576923
v 0.384615 -0.576923 -0.576923
v 0.384615 -0.576923 0.576923
v -0.000000 0.576923 -0.576923
v 0.000000 0.576923 0.576923
v -0.000000 -0.576923 -0.576923
v 0.000000 -0.576923 0.576923
v 0.384615 0.576923 0.576923
v 0.384615 0.576923 -0.576923
v 0.384615 -0.576923 0.576923
v 0.384615 -0.576923 -0.576923
v 2.684615 -0.569231 -0.569231
v 0.392308 -0.569231 -0.569231
v 2.684615 0.569231 -0.569231
v 0.392308 0.569231 -0.569231
v 0.392308 -0.569231 0.569231
v 2.684615 -0.569231 0.569231
v 0.392308 0.569231 0.569231
v 2.684615 0.569231 0.569231
v 0.392308 -0.569231 0.569231
v 0.392308 -0.569231 -0.569231
v 2.684615 -0.569231 0.569231
v 2.684615 -0.569231 -0.569231
v 2.684615 0.569231 0.569231
v 2.684615 0.569231 -0.569231
v 0.392308 0.569231 0.569231
v 0.392308 0.569231 -0.569231
v 2.684615 -0.569231 0.569231
v 2.684615 -0.569231 -0.569231
v 2.684615 0.569231 0.569231
v 2.684615 0.569231 -0.569231
v 0.392308 -0.569231 -0.569231
v 0.392308 -0.569231 0.569231
v 0.392308 0.569231 -0.569231
v 0.392308 0.569231 0.569231
v 2.306923 0.576923 0.576923
v 2.307692 0.576923 0.576923
v 2.306923 -0.576923 0.576923
v 2.307692 -0.576923 0.576923
v 2.307692 0.576923 -0.576923
v 2.306923 0.576923 -0.576923
v 2.307692 -0.576923 -0.576923
v 2.306923 -0.576923 -0.576923
v 2.307692 0.576923 -0.576923
v 2.307692 0.576923 0.576923
v 2.306923 0.576923 -0.576923
v 2.306923 0.576923 0.576923
v 2.306923 -0.576923 -0.576923
v 2.306923 -0.576923 0.576923
v 2.307692 -0.576923 -0.576923
v 2.307692 -0.576923 0.576923
v 2.306923 0.576923 -0.576923
v 2.306923 0.576923 0.576923
v 2.306923 -0.576923 -0.576923
v 2.306923 -0.576923 0.576923
v 2.307692 0.576923 0.576923
v 2.307692 0.576923 -0.576923
v 2.307692 -0.576923 0.576923
v 2.307692 -0.576923 -0.576923
v 1.922308 0.576923 0.576923
v 1.923077 0.576923 0.576923
v 1.922308 -0.576923 0.576923
v 1.923077 -0.576923 0.576923
v 1.923077 0.576923 -0.576923
v 1.922308 0.576923 -0.576923
v 1.923077 -0.576923 -0.576923
v 1.922308 -0.576923 -0.576923
v 1.923077 0.576923 -0.576923
v 1.923077 0.576923 0.576923
v 1.922308 0.576923 -0.576923
v 1.922308 0.576923 0.576923
v 1.922308 -0.576923 -0.576923
v 1.922308 -0.576923 0.576923
v 1.923077 -0.576923 -0.576923
v 1.923077 -0.576923 0.576923
v 1.922308 0.576923 -0.576923
v 1.922308 0.576923 0.576923
v 1.922308 -0.576923 -0.576923
v 1.922308 -0.576923 0.576923
v 1.923077 0.576923 0.576923
v 1.923077 0.576923 -0.576923
v 1.923077 -0.576923 0.576923
v 1.923077 -0.576923 -0.576923
v 1.537692 0.576923 0.576923
v 1.538461 0.576923 0.576923
v 1.537692 -0.576923 0.576923
v 1.538461 -0.576923 0.576923
v 1.538461 0.576923 -0.576923
v 1.537692 0.576923 -0.576923
v 1.538461 -0.576923 -0.576923
v 1.537692 -0.576923 -0.576923
v 1.538461 0.576923 -0.576923
v 1.538461 0.576923 0.576923
v 1.537692 0.576923 -0.576923
v 1.537692 0.576923 0.576923
v 1.537692 -0.576923 -0.576923
v 1.537692 -0.576923 0.576923
v 1.538461 -0.576923 -0.576923
v 1.538461 -0.576923 0.576923
v 1.537692 0.576923 -0.576923
v 1.537692 0.576923 0.576923
v 1.537692 -0.576923 -0.576923
v 1.537692 -0.576923 0.576923
v 1.538461 0.576923 0.576923
v 1.538461 0.576923 -0.576923
v 1.538461 -0.576923 0.576923
v 1.538461 -0.576923 -0.576923
vn -0.0000 -0.0000 1.0000
vn -0.0000 -0.0000 -1.0000
vn -0.0000 1.0000 -0.0000
vn -0.0000 -1.0000 -0.0000
vn -1.0000 -0.0000 -0.0000
vn 1.0000 -0.0000 -0.0000
vt 0.000000 1.000000
vt 0.000000 0.906250
vt 0.187500 1.000000
vt 0.187500 0.906250
vt 0.000000 0.875000
vt 0.000000 0.781250
vt 0.187500 0.875000
vt 0.187500 0.781250
vt 0.281250 0.812500
vt 0.281250 1.000000
vt 0.187500 0.812500
vt 0.281250 0.625000
vt 0.187500 0.625000
vt 0.125000 0.625000
vt 0.125000 0.531250
vt 0.218750 0.625000
vt 0.218750 0.531250
vt 0.000000 0.625000
vt 0.000000 0.531250
vt 0.093750 0.625000
vt 0.093750 0.531250
vt 0.250000 0.625000
vt 0.250000 0.531250
vt 0.281250 0.531250
vt 0.500000 0.500000
vt 0.500000 0.406250
vt 0.531250 0.500000
vt 0.531250 0.406250
vt 0.656250 0.843750
vt 0.656250 0.875000
vt 0.562500 0.843750
vt 0.562500 0.875000
vt 0.656250 0.812500
vt 0.656250 0.781250
vt 0.562500 0.812500
vt 0.562500 0.781250
vt 0.437500 0.750000
vt 0.437500 0.656250
vt 0.531250 0.750000
vt 0.531250 0.656250
vt 0.437500 0.875000
vt 0.437500 0.781250
vt 0.531250 0.875000
vt 0.531250 0.781250
vt 0.000000 0.750000
vt 0.000000 0.656250
vt 0.187500 0.750000
vt 0.187500 0.656250
vt 0.312500 1.000000
vt 0.312500 0.906250
vt 0.500000 1.000000
vt 0.500000 0.906250
vt 0.406250 0.687500
vt 0.406250 0.875000
vt 0.312500 0.687500
vt 0.312500 0.875000
vt 0.406250 0.500000
vt 0.312500 0.500000
vt 0.000000 0.500000
vt 0.000000 0.406250
vt 0.093750 0.500000
vt 0.093750 0.406250
vt 0.437500 0.625000
vt 0.437500 0.531250
vt 0.531250 0.625000
vt 0.531250 0.531250
vt 0.093750 1.000000
vt 0.125000 0.500000
vt 0.125000 0.406250
vt 0.218750 0.500000
vt 0.218750 0.406250
vt 0.593750 1.000000
vt 0.593750 0.906250
vt 0.375000 0.500000
vt 0.375000 0.406250
vt 0.468750 0.500000
vt 0.468750 0.406250
vt 0.250000 0.500000
vt 0.250000 0.406250
vt 0.343750 0.500000
vt 0.343750 0.406250
s 0
usemtl Material_0.001
f 1/1/1 3/2/1 2/3/1
f 3/2/1 4/4/1 2/3/1
f 5/5/2 7/6/2 6/7/2
f 7/6/2 8/8/2 6/7/2
f 9/9/3 11/10/3 10/11/3
f 11/10/3 12/3/3 10/11/3
f 13/9/4 15/12/4 14/11/4
f 15/12/4 16/13/4 14/11/4
f 17/14/5 19/15/5 18/16/5
f 19/15/5 20/17/5 18/16/5
f 21/18/6 23/19/6 22/20/6
f 23/19/6 24/21/6 22/20/6
f 25/22/1 27/23/1 26/12/1
f 27/23/1 28/24/1 26/12/1
f 29/25/2 31/26/2 30/27/2
f 31/26/2 32/28/2 30/27/2
f 33/29/3 35/30/3 34/31/3
f 35/30/3 36/32/3 34/31/3
f 37/33/4 39/34/4 38/35/4
f 39/34/4 40/36/4 38/35/4
f 41/37/5 43/38/5 42/39/5
f 43/38/5 44/40/5 42/39/5
f 45/41/6 47/42/6 46/43/6
f 47/42/6 48/44/6 46/43/6
f 49/45/1 51/46/1 50/47/1
f 51/46/1 52/48/1 50/47/1
f 53/49/2 55/50/2 54/51/2
f 55/50/2 56/52/2 54/51/2
f 57/53/3 59/54/3 58/55/3
f 59/54/3 60/56/3 58/55/3
f 61/53/4 63/57/4 62/55/4
f 63/57/4 64/58/4 62/55/4
f 65/59/5 67/60/5 66/61/5
f 67/60/5 68/62/5 66/61/5
f 69/63/6 71/64/6 70/65/6
f 71/64/6 72/66/6 70/65/6
f 73/1/1 75/2/1 74/1/1
f 75/2/1 76/2/1 74/1/1
f 77/1/2 79/2/2 78/1/2
f 79/2/2 80/2/2 78/1/2
f 81/67/3 83/67/3 82/1/3
f 83/67/3 84/1/3 82/1/3
f 85/67/4 87/67/4 86/1/4
f 87/67/4 88/1/4 86/1/4
f 89/68/5 91/69/5 90/70/5
f 91/69/5 92/71/5 90/70/5
f 93/51/6 95/52/6 94/72/6
f 95/52/6 96/73/6 94/72/6
f 97/1/1 99/2/1 98/1/1
f 99/2/1 100/2/1 98/1/1
f 101/1/2 103/2/2 102/1/2
f 103/2/2 104/2/2 102/1/2
f 105/67/3 107/67/3 106/1/3
f 107/67/3 108/1/3 106/1/3
f 109/67/4 111/67/4 110/1/4
f 111/67/4 112/1/4 110/1/4
f 113/74/5 115/75/5 114/76/5
f 115/75/5 116/77/5 114/76/5
f 117/78/6 119/79/6 118/80/6
f 119/79/6 120/81/6 118/80/6
f 121/1/1 123/2/1 122/1/1
f 123/2/1 124/2/1 122/1/1
f 125/1/2 127/2/2 126/1/2
f 127/2/2 128/2/2 126/1/2
f 129/67/3 131/67/3 130/1/3
f 131/67/3 132/1/3 130/1/3
f 133/67/4 135/67/4 134/1/4
f 135/67/4 136/1/4 134/1/4
f 137/74/5 139/75/5 138/76/5
f 139/75/5 140/77/5 138/76/5
f 141/78/6 143/79/6 142/80/6
f 143/79/6 144/81/6 142/80/6
