# Blender 4.2.3 LTS
# www.blender.org
mtllib lev.akcomp.mtl
o attachmentModel
v 0.000000 0.384615 0.384615
v 2.307692 0.384615 0.384615
v 0.000000 -0.384615 0.384615
v 2.307692 -0.384615 0.384615
v 2.307692 0.384615 -0.384616
v -0.000000 0.384615 -0.384615
v 2.307692 -0.384615 -0.384616
v -0.000000 -0.384615 -0.384615
v 2.307692 0.384615 -0.384616
v 2.307692 0.384615 0.384615
v -0.000000 0.384615 -0.384615
v 0.000000 0.384615 0.384615
v -0.000000 -0.384615 -0.384615
v 0.000000 -0.384615 0.384615
v 2.307692 -0.384615 -0.384616
v 2.307692 -0.384615 0.384615
v -0.000000 0.384615 -0.384615
v 0.000000 0.384615 0.384615
v -0.000000 -0.384615 -0.384615
v 0.000000 -0.384615 0.384615
v 2.307692 0.384615 0.384615
v 2.307692 0.384615 -0.384616
v 2.307692 -0.384615 0.384615
v 2.307692 -0.384615 -0.384616
v 2.692307 0.384615 0.384615
v 3.076923 0.384615 0.384615
v 2.692307 -0.384615 0.384615
v 3.076923 -0.384615 0.384615
v 3.076923 0.384615 -0.384616
v 2.692307 0.384615 -0.384616
v 3.076923 -0.384615 -0.384616
v 2.692307 -0.384615 -0.384616
v 3.076923 0.384615 -0.384616
v 3.076923 0.384615 0.384615
v 2.692307 0.384615 -0.384616
v 2.692307 0.384615 0.384615
v 2.692307 -0.384615 -0.384616
v 2.692307 -0.384615 0.384615
v 3.076923 -0.384615 -0.384616
v 3.076923 -0.384615 0.384615
v 2.692307 0.384615 -0.384616
v 2.692307 0.384615 0.384615
v 2.692307 -0.384615 -0.384616
v 2.692307 -0.384615 0.384615
v 3.076923 0.384615 0.384615
v 3.076923 0.384615 -0.384616
v 3.076923 -0.384615 0.384615
v 3.076923 -0.384615 -0.384616
v 2.307692 0.385385 0.384615
v 2.692307 0.385385 0.384615
v 2.307692 0.384615 0.384615
v 2.692307 0.384615 0.384615
v 2.692307 0.385385 -0.384616
v 2.307692 0.385385 -0.384616
v 2.692307 0.384615 -0.384616
v 2.307692 0.384615 -0.384616
v 2.692307 0.385385 -0.384616
v 2.692307 0.385385 0.384615
v 2.307692 0.385385 -0.384616
v 2.307692 0.385385 0.384615
v 2.307692 0.384615 -0.384616
v 2.307692 0.384615 0.384615
v 2.692307 0.384615 -0.384616
v 2.692307 0.384615 0.384615
v 2.307692 0.385385 -0.384616
v 2.307692 0.385385 0.384615
v 2.307692 0.384615 -0.384616
v 2.307692 0.384615 0.384615
v 2.692307 0.385385 0.384615
v 2.692307 0.385385 -0.384616
v 2.692307 0.384615 0.384615
v 2.692307 0.384615 -0.384616
v 2.307692 -0.383846 0.384615
v 2.692307 -0.383846 0.384615
v 2.307692 -0.384615 0.384615
v 2.692307 -0.384615 0.384615
v 2.692307 -0.383846 -0.384616
v 2.307692 -0.383846 -0.384616
v 2.692307 -0.384615 -0.384616
v 2.307692 -0.384615 -0.384616
v 2.692307 -0.383846 -0.384616
v 2.692307 -0.383846 0.384615
v 2.307692 -0.383846 -0.384616
v 2.307692 -0.383846 0.384615
v 2.307692 -0.384615 -0.384616
v 2.307692 -0.384615 0.384615
v 2.692307 -0.384615 -0.384616
v 2.692307 -0.384615 0.384615
v 2.307692 -0.383846 -0.384616
v 2.307692 -0.383846 0.384615
v 2.307692 -0.384615 -0.384616
v 2.307692 -0.384615 0.384615
v 2.692307 -0.383846 0.384615
v 2.692307 -0.383846 -0.384616
v 2.692307 -0.384615 0.384615
v 2.692307 -0.384615 -0.384616
vn -0.0000 -0.0000 1.0000
vn -0.0000 -0.0000 -1.0000
vn -0.0000 1.0000 -0.0000
vn -0.0000 -1.0000 -0.0000
vn -1.0000 -0.0000 -0.0000
vn 1.0000 -0.0000 -0.0000
vt 0.000000 1.000000
vt 0.000000 0.875000
vt 0.375000 1.000000
vt 0.375000 0.875000
vt 0.000000 0.750000
vt 0.375000 0.750000
vt 0.125000 0.375000
vt 0.125000 0.750000
vt 0.000000 0.375000
vt 0.250000 0.750000
vt 0.250000 0.375000
vt 0.500000 1.000000
vt 0.500000 0.875000
vt 0.250000 0.625000
vt 0.375000 0.625000
vt 0.250000 0.500000
vt 0.312500 0.500000
vt 0.312500 0.375000
vt 0.500000 0.750000
vt 0.500000 0.625000
vt 0.562500 0.750000
vt 0.562500 0.625000
vt 0.500000 0.437500
vt 0.500000 0.500000
vt 0.375000 0.437500
vt 0.375000 0.500000
vt 0.625000 0.625000
vt 0.625000 0.562500
vt 0.500000 0.562500
vt 0.062500 1.000000
vt 0.625000 0.937500
vt 0.625000 1.000000
vt 0.500000 0.937500
vt 0.625000 0.875000
vt 0.625000 0.812500
vt 0.500000 0.812500
vt 0.125000 1.000000
vt 0.500000 0.687500
vt 0.375000 0.687500
vt 0.375000 0.562500
s 0
usemtl Material_0.003
f 1/1/1 3/2/1 2/3/1
f 3/2/1 4/4/1 2/3/1
f 5/2/2 7/5/2 6/4/2
f 7/5/2 8/6/2 6/4/2
f 9/7/3 11/8/3 10/9/3
f 11/8/3 12/5/3 10/9/3
f 13/10/4 15/11/4 14/8/4
f 15/11/4 16/7/4 14/8/4
f 17/3/5 19/4/5 18/12/5
f 19/4/5 20/13/5 18/12/5
f 21/10/6 23/14/6 22/6/6
f 23/14/6 24/15/6 22/6/6
f 25/16/1 27/11/1 26/17/1
f 27/11/1 28/18/1 26/17/1
f 29/19/2 31/20/2 30/21/2
f 31/20/2 32/22/2 30/21/2
f 33/23/3 35/24/3 34/25/3
f 35/24/3 36/26/3 34/25/3
f 37/27/4 39/28/4 38/20/4
f 39/28/4 40/29/4 38/20/4
f 41/14/5 43/16/5 42/15/5
f 43/16/5 44/26/5 42/15/5
f 45/4/6 47/6/6 46/13/6
f 47/6/6 48/19/6 46/13/6
f 49/1/1 51/1/1 50/30/1
f 51/1/1 52/30/1 50/30/1
f 53/1/2 55/1/2 54/30/2
f 55/1/2 56/30/2 54/30/2
f 57/31/3 59/32/3 58/33/3
f 59/32/3 60/12/3 58/33/3
f 61/34/4 63/35/4 62/13/4
f 63/35/4 64/36/4 62/13/4
f 65/1/5 67/1/5 66/37/5
f 67/1/5 68/37/5 66/37/5
f 69/1/6 71/1/6 70/37/6
f 71/1/6 72/37/6 70/37/6
f 73/1/1 75/1/1 74/30/1
f 75/1/1 76/30/1 74/30/1
f 77/1/2 79/1/2 78/30/2
f 79/1/2 80/30/2 78/30/2
f 81/38/3 83/19/3 82/39/3
f 83/19/3 84/6/3 82/39/3
f 85/20/4 87/29/4 86/15/4
f 87/29/4 88/40/4 86/15/4
f 89/1/5 91/1/5 90/37/5
f 91/1/5 92/37/5 90/37/5
f 93/1/6 95/1/6 94/37/6
f 95/1/6 96/37/6 94/37/6
