# Blender 4.2.3 LTS
# www.blender.org
mtllib lev.apsstock.mtl
o attachmentModel
v -7.692307 0.769231 0.576925
v 0.000000 0.769231 0.576923
v -7.692307 -0.769231 0.576925
v 0.000000 -0.769231 0.576923
v -0.000000 0.769231 -0.576923
v -7.692307 0.769231 -0.576921
v -0.000000 -0.769231 -0.576923
v -7.692307 -0.769231 -0.576921
v -0.000000 0.769231 -0.576923
v 0.000000 0.769231 0.576923
v -7.692307 0.769231 -0.576921
v -7.692307 0.769231 0.576925
v -7.692307 -0.769231 -0.576921
v -7.692307 -0.769231 0.576925
v -0.000000 -0.769231 -0.576923
v 0.000000 -0.769231 0.576923
v -7.692307 0.769231 -0.576921
v -7.692307 0.769231 0.576925
v -7.692307 -0.769231 -0.576921
v -7.692307 -0.769231 0.576925
v 0.000000 0.769231 0.576923
v -0.000000 0.769231 -0.576923
v 0.000000 -0.769231 0.576923
v -0.000000 -0.769231 -0.576923
v -7.692307 1.923077 0.576925
v -4.615384 1.923077 0.576924
v -7.692307 0.769231 0.576925
v -4.615384 0.769231 0.576924
v -4.615384 1.923077 -0.576922
v -7.692307 1.923077 -0.576921
v -4.615384 0.769231 -0.576922
v -7.692307 0.769231 -0.576921
v -4.615384 1.923077 -0.576922
v -4.615384 1.923077 0.576924
v -7.692307 1.923077 -0.576921
v -7.692307 1.923077 0.576925
v -7.692307 0.769231 -0.576921
v -7.692307 0.769231 0.576925
v -4.615384 0.769231 -0.576922
v -4.615384 0.769231 0.576924
v -7.692307 1.923077 -0.576921
v -7.692307 1.923077 0.576925
v -7.692307 0.769231 -0.576921
v -7.692307 0.769231 0.576925
v -4.615384 1.923077 0.576924
v -4.615384 1.923077 -0.576922
v -4.615384 0.769231 0.576924
v -4.615384 0.769231 -0.576922
v -4.615384 1.923077 0.569231
v -3.255564 0.563256 0.569231
v -5.431277 1.107185 0.569232
v -4.071456 -0.252636 0.569231
v -3.255564 0.563256 -0.569230
v -4.615384 1.923077 -0.569230
v -4.071456 -0.252636 -0.569230
v -5.431277 1.107185 -0.569230
v -3.255564 0.563256 -0.569230
v -3.255564 0.563256 0.569231
v -4.615384 1.923077 -0.569230
v -4.615384 1.923077 0.569231
v -5.431277 1.107185 -0.569230
v -5.431277 1.107185 0.569232
v -4.071456 -0.252636 -0.569230
v -4.071456 -0.252636 0.569231
v -4.615384 1.923077 -0.569230
v -4.615384 1.923077 0.569231
v -5.431277 1.107185 -0.569230
v -5.431277 1.107185 0.569232
v -3.255564 0.563256 0.569231
v -3.255564 0.563256 -0.569230
v -4.071456 -0.252636 0.569231
v -4.071456 -0.252636 -0.569230
v -6.538461 0.961538 0.769232
v -4.230769 0.961538 0.769232
v -6.538461 0.192308 0.769232
v -4.230769 0.192308 0.769232
v -4.230769 0.961538 0.576924
v -6.538461 0.961538 0.576924
v -4.230769 0.192308 0.576924
v -6.538461 0.192308 0.576924
v -4.230769 0.961538 0.576924
v -4.230769 0.961538 0.769232
v -6.538461 0.961538 0.576924
v -6.538461 0.961538 0.769232
v -6.538461 0.192308 0.576924
v -6.538461 0.192308 0.769232
v -4.230769 0.192308 0.576924
v -4.230769 0.192308 0.769232
v -6.538461 0.961538 0.576924
v -6.538461 0.961538 0.769232
v -6.538461 0.192308 0.576924
v -6.538461 0.192308 0.769232
v -4.230769 0.961538 0.769232
v -4.230769 0.961538 0.576924
v -4.230769 0.192308 0.769232
v -4.230769 0.192308 0.576924
vn -0.0000 -0.0000 1.0000
vn -0.0000 -0.0000 -1.0000
vn -0.0000 1.0000 -0.0000
vn -0.0000 -1.0000 -0.0000
vn -1.0000 -0.0000 -0.0000
vn 1.0000 -0.0000 -0.0000
vn 0.7071 0.7071 -0.0000
vn -0.7071 -0.7071 -0.0000
vn -0.7071 0.7071 -0.0000
vn 0.7071 -0.7071 -0.0000
vt 0.625000 0.750000
vt 0.625000 0.875000
vt 0.000000 0.750000
vt 0.000000 0.875000
vt 0.625000 1.000000
vt 0.000000 1.000000
vt 0.125000 0.125000
vt 0.125000 0.750000
vt 0.218750 0.125000
vt 0.218750 0.750000
vt 0.000000 0.125000
vt 0.093750 0.750000
vt 0.093750 0.125000
vt 0.718750 0.500000
vt 0.718750 0.625000
vt 0.625000 0.500000
vt 0.625000 0.625000
vt 0.468750 0.250000
vt 0.468750 0.375000
vt 0.375000 0.250000
vt 0.375000 0.375000
vt 0.500000 0.531250
vt 0.500000 0.625000
vt 0.250000 0.531250
vt 0.250000 0.625000
vt 0.500000 0.656250
vt 0.500000 0.750000
vt 0.250000 0.656250
vt 0.250000 0.750000
vt 0.500000 0.500000
vt 0.593750 0.500000
vt 0.593750 0.750000
vt 0.250000 0.500000
vt 0.250000 0.250000
vt 0.343750 0.500000
vt 0.343750 0.250000
vt 0.843750 0.906250
vt 0.843750 1.000000
vt 0.750000 0.906250
vt 0.750000 1.000000
vt 0.781250 0.281250
vt 0.781250 0.375000
vt 0.687500 0.281250
vt 0.687500 0.375000
vt 0.718750 0.406250
vt 0.562500 0.406250
vt 0.562500 0.500000
vt 0.531250 0.406250
vt 0.531250 0.500000
vt 0.375000 0.406250
vt 0.375000 0.500000
vt 0.625000 0.656250
vt 0.625000 0.812500
vt 0.718750 0.656250
vt 0.718750 0.812500
vt 0.625000 0.843750
vt 0.718750 1.000000
vt 0.718750 0.843750
vt 0.343750 0.156250
vt 0.250000 0.156250
vt 0.843750 0.781250
vt 0.843750 0.875000
vt 0.750000 0.781250
vt 0.750000 0.875000
vt 0.687500 0.250000
vt 0.687500 0.312500
vt 0.500000 0.250000
vt 0.500000 0.312500
vt 0.500000 0.375000
vt 0.375000 0.062500
vt 0.406250 0.062500
vt 0.406250 0.250000
vt 0.750000 0.750000
vt 0.750000 0.562500
vt 0.781250 0.750000
vt 0.781250 0.562500
vt 0.781250 0.500000
vt 0.750000 0.500000
vt 0.468750 0.187500
vt 0.437500 0.187500
vt 0.437500 0.250000
s 0
usemtl Material_0
f 1/1/1 3/2/1 2/3/1
f 3/2/1 4/4/1 2/3/1
f 5/2/2 7/5/2 6/4/2
f 7/5/2 8/6/2 6/4/2
f 9/7/3 11/8/3 10/9/3
f 11/8/3 12/10/3 10/9/3
f 13/3/4 15/11/4 14/12/4
f 15/11/4 16/13/4 14/12/4
f 17/14/5 19/15/5 18/16/5
f 19/15/5 20/17/5 18/16/5
f 21/18/6 23/19/6 22/20/6
f 23/19/6 24/21/6 22/20/6
f 25/22/1 27/23/1 26/24/1
f 27/23/1 28/25/1 26/24/1
f 29/26/2 31/27/2 30/28/2
f 31/27/2 32/29/2 30/28/2
f 33/30/3 35/27/3 34/31/3
f 35/27/3 36/32/3 34/31/3
f 37/33/4 39/34/4 38/35/4
f 39/34/4 40/36/4 38/35/4
f 41/37/5 43/38/5 42/39/5
f 43/38/5 44/40/5 42/39/5
f 45/41/6 47/42/6 46/43/6
f 47/42/6 48/44/6 46/43/6
f 49/45/1 51/14/1 50/46/1
f 51/14/1 52/47/1 50/46/1
f 53/48/2 55/49/2 54/50/2
f 55/49/2 56/51/2 54/50/2
f 57/52/7 59/53/7 58/54/7
f 59/53/7 60/55/7 58/54/7
f 61/5/8 63/56/8 62/57/8
f 63/56/8 64/58/8 62/57/8
f 65/59/9 67/36/9 66/60/9
f 67/36/9 68/34/9 66/60/9
f 69/61/10 71/62/10 70/63/10
f 71/62/10 72/64/10 70/63/10
f 73/65/1 75/66/1 74/67/1
f 75/66/1 76/68/1 74/67/1
f 77/66/2 79/44/2 78/68/2
f 79/44/2 80/69/2 78/68/2
f 81/70/3 83/20/3 82/71/3
f 83/20/3 84/72/3 82/71/3
f 85/73/4 87/74/4 86/75/4
f 87/74/4 88/76/4 86/75/4
f 89/77/5 91/76/5 90/78/5
f 91/76/5 92/74/5 90/78/5
f 93/79/6 95/18/6 94/80/6
f 95/18/6 96/81/6 94/80/6
