# Blender 4.2.3 LTS
# www.blender.org
mtllib lev.okplh.mtl
o attachmentModel
v -1.153846 0.384615 -0.000000
v 1.153846 0.384615 -0.000000
v -1.153846 -0.384615 0.000000
v 1.153846 -0.384615 0.000000
v 1.153846 0.384615 -0.384616
v -1.153846 0.384615 -0.384615
v 1.153846 -0.384615 -0.384616
v -1.153846 -0.384615 -0.384615
v 1.153846 0.384615 -0.384616
v 1.153846 0.384615 -0.000000
v -1.153846 0.384615 -0.384615
v -1.153846 0.384615 -0.000000
v -1.153846 -0.384615 -0.384615
v -1.153846 -0.384615 0.000000
v 1.153846 -0.384615 -0.384616
v 1.153846 -0.384615 0.000000
v -1.153846 0.384615 -0.384615
v -1.153846 0.384615 -0.000000
v -1.153846 -0.384615 -0.384615
v -1.153846 -0.384615 0.000000
v 1.153846 0.384615 -0.000000
v 1.153846 0.384615 -0.384616
v 1.153846 -0.384615 0.000000
v 1.153846 -0.384615 -0.384616
v 1.537693 1.609918 0.769230
v 1.538462 1.609918 0.769230
v 1.537693 1.337954 0.497266
v 1.538462 1.337954 0.497266
v 1.538462 2.153846 0.225302
v 1.537692 2.153846 0.225302
v 1.538462 1.881882 -0.046662
v 1.537692 1.881882 -0.046662
v 1.538462 2.153846 0.225302
v 1.538462 1.609918 0.769230
v 1.537692 2.153846 0.225302
v 1.537693 1.609918 0.769230
v 1.537692 1.881882 -0.046662
v 1.537693 1.337954 0.497266
v 1.538462 1.881882 -0.046662
v 1.538462 1.337954 0.497266
v 1.537692 2.153846 0.225302
v 1.537693 1.609918 0.769230
v 1.537692 1.881882 -0.046662
v 1.537693 1.337954 0.497266
v 1.538462 1.609918 0.769230
v 1.538462 2.153846 0.225302
v 1.538462 1.337954 0.497266
v 1.538462 1.881882 -0.046662
v 1.153846 1.923077 0.192308
v 1.923077 1.923077 0.192307
v 1.153846 1.153846 0.192308
v 1.923077 1.153846 0.192307
v 1.923077 1.923077 -0.192308
v 1.153846 1.923077 -0.192308
v 1.923077 1.153846 -0.192308
v 1.153846 1.153846 -0.192308
v 1.923077 1.923077 -0.192308
v 1.923077 1.923077 0.192307
v 1.153846 1.923077 -0.192308
v 1.153846 1.923077 0.192308
v 1.153846 1.153846 -0.192308
v 1.153846 1.153846 0.192308
v 1.923077 1.153846 -0.192308
v 1.923077 1.153846 0.192307
v 1.153846 1.923077 -0.192308
v 1.153846 1.923077 0.192308
v 1.153846 1.153846 -0.192308
v 1.153846 1.153846 0.192308
v 1.923077 1.923077 0.192307
v 1.923077 1.923077 -0.192308
v 1.923077 1.153846 0.192307
v 1.923077 1.153846 -0.192308
v -1.923077 1.923077 0.192308
v 1.153846 1.923077 0.192307
v -1.923077 1.153846 0.192308
v 1.153846 1.153846 0.192307
v 1.153846 1.923077 -0.576923
v -1.923077 1.923077 -0.576922
v 1.153846 1.153846 -0.576923
v -1.923077 1.153846 -0.576922
v 1.153846 1.923077 -0.576923
v 1.153846 1.923077 0.192307
v -1.923077 1.923077 -0.576922
v -1.923077 1.923077 0.192308
v -1.923077 1.153846 -0.576922
v -1.923077 1.153846 0.192308
v 1.153846 1.153846 -0.576923
v 1.153846 1.153846 0.192307
v -1.923077 1.923077 -0.576922
v -1.923077 1.923077 0.192308
v -1.923077 1.153846 -0.576922
v -1.923077 1.153846 0.192308
v 1.153846 1.923077 0.192307
v 1.153846 1.923077 -0.576923
v 1.153846 1.153846 0.192307
v 1.153846 1.153846 -0.576923
v 1.153847 2.474651 1.493228
v 1.923077 2.474651 1.493228
v 1.153847 2.473941 1.492934
v 1.923077 2.473941 1.492933
v 1.923077 2.916209 0.427213
v 1.153846 2.916209 0.427213
v 1.923077 2.915499 0.426919
v 1.153846 2.915499 0.426919
v 1.923077 2.916209 0.427213
v 1.923077 2.474651 1.493228
v 1.153846 2.916209 0.427213
v 1.153847 2.474651 1.493228
v 1.153846 2.915499 0.426919
v 1.153847 2.473941 1.492934
v 1.923077 2.915499 0.426919
v 1.923077 2.473941 1.492933
v 1.153846 2.916209 0.427213
v 1.153847 2.474651 1.493228
v 1.153846 2.915499 0.426919
v 1.153847 2.473941 1.492934
v 1.923077 2.474651 1.493228
v 1.923077 2.916209 0.427213
v 1.923077 2.473941 1.492933
v 1.923077 2.915499 0.426919
v 1.153846 2.915204 0.427629
v 1.923077 2.915204 0.427629
v 1.153846 1.849190 -0.013928
v 1.923077 1.849190 -0.013929
v 1.923077 2.915499 0.426919
v 1.153846 2.915499 0.426919
v 1.923077 1.849484 -0.014639
v 1.153846 1.849484 -0.014639
v 1.923077 2.915499 0.426919
v 1.923077 2.915204 0.427629
v 1.153846 2.915499 0.426919
v 1.153846 2.915204 0.427629
v 1.153846 1.849484 -0.014639
v 1.153846 1.849190 -0.013928
v 1.923077 1.849484 -0.014639
v 1.923077 1.849190 -0.013929
v 1.153846 2.915499 0.426919
v 1.153846 2.915204 0.427629
v 1.153846 1.849484 -0.014639
v 1.153846 1.849190 -0.013928
v 1.923077 2.915204 0.427629
v 1.923077 2.915499 0.426919
v 1.923077 1.849190 -0.013929
v 1.923077 1.849484 -0.014639
v 1.153847 2.473646 1.493644
v 1.923077 2.473646 1.493644
v 1.153846 1.762970 1.199272
v 1.923077 1.762970 1.199272
v 1.923077 2.473941 1.492933
v 1.153847 2.473941 1.492934
v 1.923077 1.763264 1.198561
v 1.153846 1.763264 1.198562
v 1.923077 2.473941 1.492933
v 1.923077 2.473646 1.493644
v 1.153847 2.473941 1.492934
v 1.153847 2.473646 1.493644
v 1.153846 1.763264 1.198562
v 1.153846 1.762970 1.199272
v 1.923077 1.763264 1.198561
v 1.923077 1.762970 1.199272
v 1.153847 2.473941 1.492934
v 1.153847 2.473646 1.493644
v 1.153846 1.763264 1.198562
v 1.153846 1.762970 1.199272
v 1.923077 2.473646 1.493644
v 1.923077 2.473941 1.492933
v 1.923077 1.762970 1.199272
v 1.923077 1.763264 1.198561
v -1.153846 1.153846 -0.191538
v 1.153846 1.153846 -0.191539
v -1.153846 0.384615 -0.191538
v 1.153846 0.384615 -0.191539
v 1.153846 1.153846 -0.192308
v -1.153846 1.153846 -0.192308
v 1.153846 0.384615 -0.192308
v -1.153846 0.384615 -0.192308
v 1.153846 1.153846 -0.192308
v 1.153846 1.153846 -0.191539
v -1.153846 1.153846 -0.192308
v -1.153846 1.153846 -0.191538
v -1.153846 0.384615 -0.192308
v -1.153846 0.384615 -0.191538
v 1.153846 0.384615 -0.192308
v 1.153846 0.384615 -0.191539
v -1.153846 1.153846 -0.192308
v -1.153846 1.153846 -0.191538
v -1.153846 0.384615 -0.192308
v -1.153846 0.384615 -0.191538
v 1.153846 1.153846 -0.191539
v 1.153846 1.153846 -0.192308
v 1.153846 0.384615 -0.191539
v 1.153846 0.384615 -0.192308
v -1.346923 1.609918 0.769231
v -1.346153 1.609918 0.769231
v -1.346923 1.337954 0.497267
v -1.346153 1.337954 0.497267
v -1.346153 2.153846 0.225303
v -1.346923 2.153846 0.225303
v -1.346153 1.881882 -0.046661
v -1.346923 1.881882 -0.046661
v -1.346153 2.153846 0.225303
v -1.346153 1.609918 0.769231
v -1.346923 2.153846 0.225303
v -1.346923 1.609918 0.769231
v -1.346923 1.881882 -0.046661
v -1.346923 1.337954 0.497267
v -1.346153 1.881882 -0.046661
v -1.346153 1.337954 0.497267
v -1.346923 2.153846 0.225303
v -1.346923 1.609918 0.769231
v -1.346923 1.881882 -0.046661
v -1.346923 1.337954 0.497267
v -1.346153 1.609918 0.769231
v -1.346153 2.153846 0.225303
v -1.346153 1.337954 0.497267
v -1.346153 1.881882 -0.046661
v 0.536924 2.445260 1.472764
v 0.537693 2.445260 1.472764
v 0.536923 1.450312 1.060644
v 0.537693 1.450312 1.060644
v 0.537693 2.857380 0.477818
v 0.536923 2.857380 0.477818
v 0.537692 1.862433 0.065697
v 0.536923 1.862433 0.065697
v 0.537693 2.857380 0.477818
v 0.537693 2.445260 1.472764
v 0.536923 2.857380 0.477818
v 0.536924 2.445260 1.472764
v 0.536923 1.862433 0.065697
v 0.536923 1.450312 1.060644
v 0.537692 1.862433 0.065697
v 0.537693 1.450312 1.060644
vn -0.0000 -0.0000 1.0000
vn -0.0000 -0.0000 -1.0000
vn -0.0000 1.0000 -0.0000
vn -0.0000 -1.0000 -0.0000
vn -1.0000 -0.0000 -0.0000
vn 1.0000 -0.0000 -0.0000
vn -0.0000 -0.7072 0.7070
vn -0.0000 -0.7070 0.7072
vn -0.0000 0.7071 -0.7071
vn -0.0000 0.7071 0.7071
vn -0.0000 0.7070 0.7072
vn -0.0000 -0.7071 -0.7071
vn -0.0000 -0.3825 0.9240
vn -0.0000 -0.3836 0.9235
vn -0.0000 0.3827 -0.9239
vn -0.0000 0.3828 -0.9238
vn -0.0000 0.9239 0.3827
vn -0.0000 -0.9239 -0.3827
vn -1.0000 0.0002 -0.0000
vn 1.0000 -0.0002 -0.0000
vn -0.0000 -0.3827 0.9239
vn -0.0000 0.9237 0.3831
vn -0.0000 -0.9240 -0.3823
vn -0.0000 -0.9240 -0.3824
vn -0.0000 0.9236 0.3833
vn -0.0000 0.9240 0.3825
vn -0.0000 -0.9239 -0.3825
vn -1.0000 -0.0001 -0.0000
vn -1.0000 0.0001 -0.0000
vn -0.0000 -0.7071 0.7071
vn -0.0000 0.7072 -0.7070
vn -0.0000 0.7070 -0.7072
vn -0.0000 0.7072 0.7070
vn -0.0000 -0.7072 -0.7070
vt 0.125000 0.875000
vt 0.125000 0.812500
vt 0.312500 0.875000
vt 0.312500 0.812500
vt 0.125000 0.750000
vt 0.312500 0.750000
vt 0.343750 0.437500
vt 0.343750 0.625000
vt 0.312500 0.437500
vt 0.312500 0.625000
vt 0.406250 0.625000
vt 0.406250 0.437500
vt 0.375000 0.625000
vt 0.375000 0.437500
vt 0.250000 0.500000
vt 0.250000 0.437500
vt 0.281250 0.500000
vt 0.281250 0.437500
vt 0.187500 0.500000
vt 0.187500 0.437500
vt 0.218750 0.500000
vt 0.218750 0.437500
vt 0.000000 1.000000
vt 0.000000 0.906250
vt 0.062500 1.000000
vt 0.187500 0.687500
vt 0.187500 0.656250
vt 0.250000 0.687500
vt 0.250000 0.656250
vt 0.125000 0.687500
vt 0.125000 0.656250
vt 0.000000 0.562500
vt 0.000000 0.500000
vt 0.062500 0.562500
vt 0.062500 0.500000
vt 0.437500 1.000000
vt 0.437500 0.937500
vt 0.500000 1.000000
vt 0.500000 0.937500
vt 0.031250 0.437500
vt 0.031250 0.500000
vt 0.000000 0.437500
vt 0.531250 1.000000
vt 0.531250 0.937500
vt 0.437500 0.562500
vt 0.437500 0.500000
vt 0.468750 0.562500
vt 0.468750 0.500000
vt 0.187500 0.562500
vt 0.218750 0.562500
vt 0.000000 0.937500
vt 0.250000 1.000000
vt 0.250000 0.937500
vt 0.000000 0.875000
vt 0.250000 0.875000
vt 0.062500 0.625000
vt 0.062500 0.875000
vt 0.000000 0.625000
vt 0.125000 0.625000
vt 0.437500 0.875000
vt 0.500000 0.875000
vt 0.125000 0.562500
vt 0.125000 0.500000
vt 0.093750 0.562500
vt 0.093750 0.625000
vt 0.218750 0.625000
vt 0.093750 1.000000
vt 0.250000 0.625000
vt 0.250000 0.531250
vt 0.312500 0.531250
vt 0.375000 0.750000
vt 0.375000 0.656250
vt 0.437500 0.750000
vt 0.437500 0.656250
vt 0.437500 0.812500
vt 0.500000 0.812500
vt 0.000000 0.812500
s 0
usemtl Material_0.001
f 1/1/1 3/2/1 2/3/1
f 3/2/1 4/4/1 2/3/1
f 5/2/2 7/5/2 6/4/2
f 7/5/2 8/6/2 6/4/2
f 9/7/3 11/8/3 10/9/3
f 11/8/3 12/10/3 10/9/3
f 13/11/4 15/12/4 14/13/4
f 15/12/4 16/14/4 14/13/4
f 17/15/5 19/16/5 18/17/5
f 19/16/5 20/18/5 18/17/5
f 21/19/6 23/20/6 22/21/6
f 23/20/6 24/22/6 22/21/6
f 25/23/7 27/24/7 26/23/7
f 27/24/8 28/24/8 26/23/8
f 29/23/9 31/24/9 30/23/9
f 31/24/9 32/24/9 30/23/9
f 33/25/10 35/25/10 34/23/10
f 35/25/11 36/23/11 34/23/11
f 37/25/12 39/25/12 38/23/12
f 39/25/12 40/23/12 38/23/12
f 41/26/5 43/27/5 42/28/5
f 43/27/5 44/29/5 42/28/5
f 45/30/6 47/31/6 46/26/6
f 47/31/6 48/27/6 46/26/6
f 49/32/1 51/33/1 50/34/1
f 51/33/1 52/35/1 50/34/1
f 53/36/2 55/37/2 54/38/2
f 55/37/2 56/39/2 54/38/2
f 57/40/3 59/41/3 58/42/3
f 59/41/3 60/33/3 58/42/3
f 61/43/4 63/44/4 62/38/4
f 63/44/4 64/39/4 62/38/4
f 65/45/5 67/46/5 66/47/5
f 67/46/5 68/48/5 66/47/5
f 69/49/6 71/19/6 70/50/6
f 71/19/6 72/21/6 70/50/6
f 73/23/1 75/51/1 74/52/1
f 75/51/1 76/53/1 74/52/1
f 77/51/2 79/54/2 78/53/2
f 79/54/2 80/55/2 78/53/2
f 81/56/3 83/57/3 82/58/3
f 83/57/3 84/54/3 82/58/3
f 85/1/4 87/59/4 86/57/4
f 87/59/4 88/56/4 86/57/4
f 89/37/5 91/60/5 90/39/5
f 91/60/5 92/61/5 90/39/5
f 93/34/6 95/35/6 94/62/6
f 95/35/6 96/63/6 94/62/6
f 97/23/13 99/23/13 98/25/13
f 99/23/14 100/25/14 98/25/14
f 101/23/15 103/23/15 102/25/15
f 103/23/16 104/25/16 102/25/16
f 105/64/17 107/65/17 106/32/17
f 107/65/17 108/58/17 106/32/17
f 109/66/18 111/50/18 110/59/18
f 111/50/18 112/62/18 110/59/18
f 113/23/5 115/23/5 114/67/5
f 115/23/19 116/67/19 114/67/19
f 117/23/6 119/23/6 118/67/6
f 119/23/20 120/67/20 118/67/20
f 121/68/21 123/69/21 122/10/21
f 123/69/21 124/70/21 122/10/21
f 125/71/15 127/72/15 126/73/15
f 127/72/15 128/74/15 126/73/15
f 129/51/17 131/23/17 130/51/17
f 131/23/22 132/23/22 130/51/22
f 133/23/23 135/51/23 134/23/23
f 135/51/24 136/51/24 134/23/24
f 137/23/5 139/24/5 138/23/5
f 139/24/5 140/24/5 138/23/5
f 141/23/6 143/24/6 142/23/6
f 143/24/6 144/24/6 142/23/6
f 145/62/21 147/63/21 146/49/21
f 147/63/21 148/19/21 146/49/21
f 149/60/15 151/75/15 150/61/15
f 151/75/15 152/76/15 150/61/15
f 153/51/25 155/23/25 154/51/25
f 155/23/26 156/23/26 154/51/26
f 157/23/24 159/51/24 158/23/24
f 159/51/27 160/51/27 158/23/27
f 161/23/28 163/51/28 162/23/28
f 163/51/29 164/51/29 162/23/29
f 165/23/6 167/51/6 166/23/6
f 167/51/6 168/51/6 166/23/6
f 169/52/1 171/53/1 170/36/1
f 171/53/1 172/37/1 170/36/1
f 173/53/2 175/55/2 174/37/2
f 175/55/2 176/60/2 174/37/2
f 177/77/3 179/23/3 178/77/3
f 179/23/3 180/23/3 178/77/3
f 181/23/4 183/77/4 182/23/4
f 183/77/4 184/77/4 182/23/4
f 185/23/5 187/51/5 186/23/5
f 187/51/5 188/51/5 186/23/5
f 189/23/6 191/51/6 190/23/6
f 191/51/6 192/51/6 190/23/6
f 193/23/30 195/24/30 194/23/30
f 195/24/7 196/24/7 194/23/7
f 197/23/31 199/24/31 198/23/31
f 199/24/32 200/24/32 198/23/32
f 201/25/33 203/25/33 202/23/33
f 203/25/10 204/23/10 202/23/10
f 205/25/12 207/25/12 206/23/12
f 207/25/34 208/23/34 206/23/34
f 209/26/5 211/27/5 210/28/5
f 211/27/5 212/29/5 210/28/5
f 213/30/6 215/31/6 214/26/6
f 215/31/6 216/27/6 214/26/6
l 217 218
l 219 220
l 221 222
l 223 224
l 225 227
l 226 228
l 229 231
l 230 232
o overlaySolidModel
v 1.936923 2.857380 0.449333
v 1.936924 2.445260 1.444279
v 1.936923 1.862433 0.037212
v 1.936924 1.450312 1.032159
v 1.937693 2.445260 1.444279
v 1.937693 2.857380 0.449333
v 1.937693 1.450312 1.032159
v 1.937692 1.862433 0.037212
vn -1.0000 -0.0000 -0.0000
vn 1.0000 -0.0000 -0.0000
vt 0.937500 0.062500
vt 0.937500 0.000000
vt 1.000000 0.062500
vt 1.000000 0.000000
s 0
usemtl Material_0.001
f 233/78/35 235/79/35 234/80/35
f 235/79/35 236/81/35 234/80/35
f 237/78/36 239/79/36 238/80/36
f 239/79/36 240/81/36 238/80/36
o scopeModel
v 1.937616 2.857380 0.449333
v 1.937616 2.445260 1.444280
v 1.937616 1.862433 0.037212
v 1.937616 1.450312 1.032159
v 1.938385 2.445260 1.444280
v 1.938385 2.857380 0.449333
v 1.938385 1.450312 1.032159
v 1.938385 1.862433 0.037212
vn -1.0000 -0.0000 -0.0000
vn 1.0000 -0.0000 -0.0000
vt 0.937500 0.062500
vt 0.937500 0.000000
vt 1.000000 0.062500
vt 1.000000 0.000000
s 0
usemtl Material_0.001
f 241/82/37 243/83/37 242/84/37
f 243/83/37 244/85/37 242/84/37
f 245/82/38 247/83/38 246/84/38
f 247/83/38 248/85/38 246/84/38
