# Blender 4.5.4 LTS
# www.blender.org
mtllib lev.pt1stock.mtl
o attachmentModel
v 0.576923 0.576923 0.769231
v 0.576923 0.576923 0.000000
v 0.576923 -0.576923 0.769231
v 0.576923 -0.576923 0.000000
v -0.576923 0.576923 0.000000
v -0.576923 0.576923 0.769231
v -0.576923 -0.576923 0.000000
v -0.576923 -0.576923 0.769231
v -0.576923 0.576923 0.000000
v 0.576923 0.576923 0.000000
v -0.576923 0.576923 0.769231
v 0.576923 0.576923 0.769231
v -0.576923 -0.576923 0.769231
v 0.576923 -0.576923 0.769231
v -0.576923 -0.576923 0.000000
v 0.576923 -0.576923 0.000000
v -0.576923 0.576923 0.769231
v 0.576923 0.576923 0.769231
v -0.576923 -0.576923 0.769231
v 0.576923 -0.576923 0.769231
v 0.576923 0.576923 0.000000
v -0.576923 0.576923 0.000000
v 0.576923 -0.576923 0.000000
v -0.576923 -0.576923 0.000000
v 0.576923 0.577692 5.384615
v 0.576923 0.577692 0.769231
v 0.576923 0.576923 5.384615
v 0.576923 0.576923 0.769231
v -0.192308 0.577692 0.769231
v -0.192308 0.577692 5.384615
v -0.192308 0.576923 0.769231
v -0.192308 0.576923 5.384615
v -0.192308 0.577692 0.769231
v 0.576923 0.577692 0.769231
v -0.192308 0.577692 5.384615
v 0.576923 0.577692 5.384615
v -0.192308 0.576923 5.384615
v 0.576923 0.576923 5.384615
v -0.192308 0.576923 0.769231
v 0.576923 0.576923 0.769231
v -0.192308 0.577692 5.384615
v 0.576923 0.577692 5.384615
v -0.192308 0.576923 5.384615
v 0.576923 0.576923 5.384615
v 0.576923 0.577692 0.769231
v -0.192308 0.577692 0.769231
v 0.576923 0.576923 0.769231
v -0.192308 0.576923 0.769231
v 0.576923 -0.576154 5.384615
v 0.576923 -0.576154 0.769231
v 0.576923 -0.576923 5.384615
v 0.576923 -0.576923 0.769231
v -0.192308 -0.576154 0.769231
v -0.192308 -0.576154 5.384615
v -0.192308 -0.576923 0.769231
v -0.192308 -0.576923 5.384615
v -0.192308 -0.576154 0.769231
v 0.576923 -0.576154 0.769231
v -0.192308 -0.576154 5.384615
v 0.576923 -0.576154 5.384615
v -0.192308 -0.576923 5.384615
v 0.576923 -0.576923 5.384615
v -0.192308 -0.576923 0.769231
v 0.576923 -0.576923 0.769231
v -0.192308 -0.576154 5.384615
v 0.576923 -0.576154 5.384615
v -0.192308 -0.576923 5.384615
v 0.576923 -0.576923 5.384615
v 0.576923 -0.576154 0.769231
v -0.192308 -0.576154 0.769231
v 0.576923 -0.576923 0.769231
v -0.192308 -0.576923 0.769231
v 0.577692 0.576923 5.384615
v 0.577692 0.576923 0.769231
v 0.577692 -0.576923 5.384615
v 0.577692 -0.576923 0.769231
v 0.576923 0.576923 0.769231
v 0.576923 0.576923 5.384615
v 0.576923 -0.576923 0.769231
v 0.576923 -0.576923 5.384615
v 0.576923 0.576923 0.769231
v 0.577692 0.576923 0.769231
v 0.576923 0.576923 5.384615
v 0.577692 0.576923 5.384615
v 0.576923 -0.576923 5.384615
v 0.577692 -0.576923 5.384615
v 0.576923 -0.576923 0.769231
v 0.577692 -0.576923 0.769231
v 0.576923 0.576923 5.384615
v 0.577692 0.576923 5.384615
v 0.576923 -0.576923 5.384615
v 0.577692 -0.576923 5.384615
v 0.577692 0.576923 0.769231
v 0.576923 0.576923 0.769231
v 0.577692 -0.576923 0.769231
v 0.576923 -0.576923 0.769231
v -0.191538 0.576923 5.384615
v -0.191538 0.576923 0.769231
v -0.191538 -0.576923 5.384615
v -0.191538 -0.576923 0.769231
v -0.192308 0.576923 0.769231
v -0.192308 0.576923 5.384615
v -0.192308 -0.576923 0.769231
v -0.192308 -0.576923 5.384615
v -0.192308 0.576923 0.769231
v -0.191538 0.576923 0.769231
v -0.192308 0.576923 5.384615
v -0.191538 0.576923 5.384615
v -0.192308 -0.576923 5.384615
v -0.191538 -0.576923 5.384615
v -0.192308 -0.576923 0.769231
v -0.191538 -0.576923 0.769231
v -0.192308 0.576923 5.384615
v -0.191538 0.576923 5.384615
v -0.192308 -0.576923 5.384615
v -0.191538 -0.576923 5.384615
v -0.191538 0.576923 0.769231
v -0.192308 0.576923 0.769231
v -0.191538 -0.576923 0.769231
v -0.192308 -0.576923 0.769231
v 0.579231 0.961538 5.192307
v 0.579231 0.961538 1.730769
v 0.579231 -0.576923 5.192307
v 0.579231 -0.576923 1.730769
v 0.578462 0.961538 1.730769
v 0.578462 0.961538 5.192307
v 0.578462 -0.576923 1.730769
v 0.578462 -0.576923 5.192307
v 0.578462 0.961538 1.730769
v 0.579231 0.961538 1.730769
v 0.578462 0.961538 5.192307
v 0.579231 0.961538 5.192307
v 0.578462 -0.576923 5.192307
v 0.579231 -0.576923 5.192307
v 0.578462 -0.576923 1.730769
v 0.579231 -0.576923 1.730769
v 0.578462 0.961538 5.192307
v 0.579231 0.961538 5.192307
v 0.578462 -0.576923 5.192307
v 0.579231 -0.576923 5.192307
v 0.579231 0.961538 1.730769
v 0.578462 0.961538 1.730769
v 0.579231 -0.576923 1.730769
v 0.578462 -0.576923 1.730769
v 0.578462 1.346154 5.192307
v 0.578462 1.346154 0.961538
v 0.578462 0.961538 5.192307
v 0.578462 0.961538 0.961538
v -0.575385 1.346154 0.961538
v -0.575385 1.346154 5.192307
v -0.575385 0.961538 0.961538
v -0.575385 0.961538 5.192307
v -0.575385 1.346154 0.961538
v 0.578462 1.346154 0.961538
v -0.575385 1.346154 5.192307
v 0.578462 1.346154 5.192307
v -0.575385 0.961538 5.192307
v 0.578462 0.961538 5.192307
v -0.575385 0.961538 0.961538
v 0.578462 0.961538 0.961538
v -0.575385 1.346154 5.192307
v 0.578462 1.346154 5.192307
v -0.575385 0.961538 5.192307
v 0.578462 0.961538 5.192307
v 0.578462 1.346154 0.961538
v -0.575385 1.346154 0.961538
v 0.578462 0.961538 0.961538
v -0.575385 0.961538 0.961538
v 0.576923 0.961538 5.769231
v 0.576923 0.961538 5.384615
v 0.576923 -2.115385 5.769231
v 0.576923 -2.115385 5.384615
v -0.576923 0.961538 5.384615
v -0.576923 0.961538 5.769231
v -0.576923 -2.115385 5.384615
v -0.576923 -2.115385 5.769231
v -0.576923 0.961538 5.384615
v 0.576923 0.961538 5.384615
v -0.576923 0.961538 5.769231
v 0.576923 0.961538 5.769231
v -0.576923 -2.115385 5.769231
v 0.576923 -2.115385 5.769231
v -0.576923 -2.115385 5.384615
v 0.576923 -2.115385 5.384615
v -0.576923 0.961538 5.769231
v 0.576923 0.961538 5.769231
v -0.576923 -2.115385 5.769231
v 0.576923 -2.115385 5.769231
v 0.576923 0.961538 5.384615
v -0.576923 0.961538 5.384615
v 0.576923 -2.115385 5.384615
v -0.576923 -2.115385 5.384615
v 0.576923 1.153846 6.538462
v 0.576923 1.153846 5.769231
v 0.576923 -2.307692 6.538462
v 0.576923 -2.307692 5.769231
v -0.576923 1.153846 5.769231
v -0.576923 1.153846 6.538462
v -0.576923 -2.307692 5.769231
v -0.576923 -2.307692 6.538462
v -0.576923 1.153846 5.769231
v 0.576923 1.153846 5.769231
v -0.576923 1.153846 6.538462
v 0.576923 1.153846 6.538462
v -0.576923 -2.307692 6.538462
v 0.576923 -2.307692 6.538462
v -0.576923 -2.307692 5.769231
v 0.576923 -2.307692 5.769231
v -0.576923 1.153846 6.538462
v 0.576923 1.153846 6.538462
v -0.576923 -2.307692 6.538462
v 0.576923 -2.307692 6.538462
v 0.576923 1.153846 5.769231
v -0.576923 1.153846 5.769231
v 0.576923 -2.307692 5.769231
v -0.576923 -2.307692 5.769231
vn 1.0000 -0.0000 -0.0000
vn -1.0000 -0.0000 -0.0000
vn -0.0000 1.0000 -0.0000
vn -0.0000 -1.0000 -0.0000
vn -0.0000 -0.0000 1.0000
vn -0.0000 -0.0000 -1.0000
vt 0.375000 0.750000
vt 0.375000 0.703125
vt 0.406250 0.750000
vt 0.406250 0.703125
vt 0.375000 0.625000
vt 0.375000 0.578125
vt 0.406250 0.625000
vt 0.406250 0.578125
vt 0.109375 0.562500
vt 0.109375 0.593750
vt 0.062500 0.562500
vt 0.062500 0.593750
vt 0.171875 0.593750
vt 0.171875 0.562500
vt 0.125000 0.593750
vt 0.125000 0.562500
vt 0.375000 0.937500
vt 0.375000 0.890625
vt 0.421875 0.937500
vt 0.421875 0.890625
vt 0.375000 1.000000
vt 0.375000 0.953125
vt 0.421875 1.000000
vt 0.421875 0.953125
vt 0.000000 1.000000
vt 0.187500 1.000000
vt 0.281250 0.687500
vt 0.281250 0.875000
vt 0.250000 0.687500
vt 0.250000 0.875000
vt 0.312500 0.875000
vt 0.312500 0.687500
vt 0.031250 1.000000
vt 0.343750 0.687500
vt 0.343750 0.875000
vt 0.218750 0.687500
vt 0.218750 0.500000
vt 0.187500 0.687500
vt 0.187500 0.500000
vt 0.000000 0.953125
vt 0.187500 0.953125
vt 0.000000 0.937500
vt 0.000000 0.890625
vt 0.187500 0.937500
vt 0.187500 0.890625
vt 0.000000 0.812500
vt 0.000000 0.875000
vt 0.000000 0.828125
vt 0.187500 0.875000
vt 0.187500 0.828125
vt 0.000000 0.765625
vt 0.187500 0.812500
vt 0.187500 0.765625
vt 0.328125 1.000000
vt 0.328125 0.937500
vt 0.328125 0.875000
vt 0.000000 0.859375
vt 0.343750 0.671875
vt 0.515625 0.687500
vt 0.515625 0.671875
vt 0.343750 0.656250
vt 0.343750 0.640625
vt 0.515625 0.656250
vt 0.515625 0.640625
vt 0.234375 0.703125
vt 0.234375 0.875000
vt 0.187500 0.703125
vt 0.046875 0.750000
vt 0.046875 0.578125
vt 0.000000 0.750000
vt 0.000000 0.578125
vt 0.406250 0.781250
vt 0.406250 0.765625
vt 0.453125 0.781250
vt 0.453125 0.765625
vt 0.406250 0.812500
vt 0.406250 0.796875
vt 0.453125 0.812500
vt 0.453125 0.796875
vt 0.375000 0.875000
vt 0.390625 0.875000
vt 0.390625 0.750000
vt 0.343750 0.625000
vt 0.343750 0.500000
vt 0.359375 0.625000
vt 0.359375 0.500000
vt 0.453125 0.734375
vt 0.453125 0.750000
vt 0.406250 0.734375
vt 0.453125 0.718750
vt 0.453125 0.703125
vt 0.406250 0.718750
vt 0.281250 0.562500
vt 0.328125 0.687500
vt 0.328125 0.562500
vt 0.218750 0.562500
vt 0.265625 0.687500
vt 0.265625 0.562500
vt 0.343750 1.000000
vt 0.343750 0.859375
vt 0.375000 0.859375
vt 0.343750 0.843750
vt 0.343750 0.703125
vt 0.375000 0.843750
vt 0.453125 0.843750
vt 0.453125 0.875000
vt 0.406250 0.843750
vt 0.406250 0.875000
vt 0.125000 0.750000
vt 0.125000 0.609375
vt 0.171875 0.750000
vt 0.171875 0.609375
vt 0.062500 0.750000
vt 0.062500 0.609375
vt 0.109375 0.750000
vt 0.109375 0.609375
s 0
usemtl Material_0.001
f 1/1/1 3/2/1 2/3/1
f 3/2/1 4/4/1 2/3/1
f 5/5/2 7/6/2 6/7/2
f 7/6/2 8/8/2 6/7/2
f 9/9/3 11/10/3 10/11/3
f 11/10/3 12/12/3 10/11/3
f 13/13/4 15/14/4 14/15/4
f 15/14/4 16/16/4 14/15/4
f 17/17/5 19/18/5 18/19/5
f 19/18/5 20/20/5 18/19/5
f 21/21/6 23/22/6 22/23/6
f 23/22/6 24/24/6 22/23/6
f 25/25/1 27/25/1 26/26/1
f 27/25/1 28/26/1 26/26/1
f 29/25/2 31/25/2 30/26/2
f 31/25/2 32/26/2 30/26/2
f 33/27/3 35/28/3 34/29/3
f 35/28/3 36/30/3 34/29/3
f 37/31/4 39/32/4 38/28/4
f 39/32/4 40/27/4 38/28/4
f 41/25/5 43/25/5 42/33/5
f 43/25/5 44/33/5 42/33/5
f 45/25/6 47/25/6 46/33/6
f 47/25/6 48/33/6 46/33/6
f 49/25/1 51/25/1 50/26/1
f 51/25/1 52/26/1 50/26/1
f 53/25/2 55/25/2 54/26/2
f 55/25/2 56/26/2 54/26/2
f 57/34/3 59/35/3 58/32/3
f 59/35/3 60/31/3 58/32/3
f 61/36/4 63/37/4 62/38/4
f 63/37/4 64/39/4 62/38/4
f 65/25/5 67/25/5 66/33/5
f 67/25/5 68/33/5 66/33/5
f 69/25/6 71/25/6 70/33/6
f 71/25/6 72/33/6 70/33/6
f 73/25/1 75/40/1 74/26/1
f 75/40/1 76/41/1 74/26/1
f 77/42/2 79/43/2 78/44/2
f 79/43/2 80/45/2 78/44/2
f 81/46/3 83/25/3 82/46/3
f 83/25/3 84/25/3 82/46/3
f 85/25/4 87/46/4 86/25/4
f 87/46/4 88/46/4 86/25/4
f 89/25/5 91/40/5 90/25/5
f 91/40/5 92/40/5 90/25/5
f 93/25/6 95/40/6 94/25/6
f 95/40/6 96/40/6 94/25/6
f 97/47/1 99/48/1 98/49/1
f 99/48/1 100/50/1 98/49/1
f 101/46/2 103/51/2 102/52/2
f 103/51/2 104/53/2 102/52/2
f 105/46/3 107/25/3 106/46/3
f 107/25/3 108/25/3 106/46/3
f 109/25/4 111/46/4 110/25/4
f 111/46/4 112/46/4 110/25/4
f 113/25/5 115/40/5 114/25/5
f 115/40/5 116/40/5 114/25/5
f 117/25/6 119/40/6 118/25/6
f 119/40/6 120/40/6 118/25/6
f 121/26/1 123/44/1 122/54/1
f 123/44/1 124/55/1 122/54/1
f 125/44/2 127/49/2 126/55/2
f 127/49/2 128/56/2 126/55/2
f 129/57/3 131/25/3 130/57/3
f 131/25/3 132/25/3 130/57/3
f 133/25/4 135/57/4 134/25/4
f 135/57/4 136/57/4 134/25/4
f 137/25/5 139/42/5 138/25/5
f 139/42/5 140/42/5 138/25/5
f 141/25/6 143/42/6 142/25/6
f 143/42/6 144/42/6 142/25/6
f 145/34/1 147/58/1 146/59/1
f 147/58/1 148/60/1 146/59/1
f 149/61/2 151/62/2 150/63/2
f 151/62/2 152/64/2 150/63/2
f 153/65/3 155/66/3 154/67/3
f 155/66/3 156/49/3 154/67/3
f 157/68/4 159/69/4 158/70/4
f 159/69/4 160/71/4 158/70/4
f 161/72/5 163/73/5 162/74/5
f 163/73/5 164/75/5 162/74/5
f 165/76/6 167/77/6 166/78/6
f 167/77/6 168/79/6 166/78/6
f 169/80/1 171/1/1 170/81/1
f 171/1/1 172/82/1 170/81/1
f 173/83/2 175/84/2 174/85/2
f 175/84/2 176/86/2 174/85/2
f 177/87/3 179/88/3 178/89/3
f 179/88/3 180/3/3 178/89/3
f 181/90/4 183/91/4 182/92/4
f 183/91/4 184/4/4 182/92/4
f 185/27/5 187/93/5 186/94/5
f 187/93/5 188/95/5 186/94/5
f 189/36/6 191/96/6 190/97/6
f 191/96/6 192/98/6 190/97/6
f 193/99/1 195/100/1 194/21/1
f 195/100/1 196/101/1 194/21/1
f 197/102/2 199/103/2 198/104/2
f 199/103/2 200/2/2 198/104/2
f 201/105/3 203/106/3 202/107/3
f 203/106/3 204/108/3 202/107/3
f 205/105/4 207/78/4 206/107/4
f 207/78/4 208/76/4 206/107/4
f 209/109/5 211/110/5 210/111/5
f 211/110/5 212/112/5 210/111/5
f 213/113/6 215/114/6 214/115/6
f 215/114/6 216/116/6 214/115/6
