# Blender 4.5.2 LTS
# www.blender.org
mtllib lev.m82comp.mtl
o attachmentModel
v 0.000000 0.576923 0.576923
v 3.076923 0.576923 0.576923
v 0.000000 -0.576923 0.576923
v 3.076923 -0.576923 0.576923
v 3.076923 0.576923 -0.576923
v -0.000000 0.576923 -0.576923
v 3.076923 -0.576923 -0.576923
v -0.000000 -0.576923 -0.576923
v 3.076923 0.576923 -0.576923
v 3.076923 0.576923 0.576923
v -0.000000 0.576923 -0.576923
v 0.000000 0.576923 0.576923
v -0.000000 -0.576923 -0.576923
v 0.000000 -0.576923 0.576923
v 3.076923 -0.576923 -0.576923
v 3.076923 -0.576923 0.576923
v -0.000000 0.576923 -0.576923
v 0.000000 0.576923 0.576923
v -0.000000 -0.576923 -0.576923
v 0.000000 -0.576923 0.576923
v 3.076923 0.576923 0.576923
v 3.076923 0.576923 -0.576923
v 3.076923 -0.576923 0.576923
v 3.076923 -0.576923 -0.576923
v 0.305056 0.576154 0.000000
v 1.936841 0.576154 1.631785
v 0.305056 -0.576154 0.000000
v 1.936841 -0.576154 1.631785
v 3.568626 0.576154 0.000001
v 1.936841 0.576154 -1.631785
v 3.568626 -0.576154 0.000001
v 1.936841 -0.576154 -1.631785
v 3.568626 0.576154 0.000001
v 1.936841 0.576154 1.631785
v 1.936841 0.576154 -1.631785
v 0.305056 0.576154 0.000000
v 1.936841 -0.576154 -1.631785
v 0.305056 -0.576154 0.000000
v 3.568626 -0.576154 0.000001
v 1.936841 -0.576154 1.631785
v 1.936841 0.576154 -1.631785
v 0.305056 0.576154 0.000000
v 1.936841 -0.576154 -1.631785
v 0.305056 -0.576154 0.000000
v 1.936841 0.576154 1.631785
v 3.568626 0.576154 0.000001
v 1.936841 -0.576154 1.631785
v 3.568626 -0.576154 0.000001
vn -0.0000 -0.0000 1.0000
vn -0.0000 -0.0000 -1.0000
vn -0.0000 1.0000 -0.0000
vn -0.0000 -1.0000 -0.0000
vn -1.0000 -0.0000 -0.0000
vn 1.0000 -0.0000 -0.0000
vn -0.7071 -0.0000 0.7071
vn 0.7071 -0.0000 -0.7071
vn -0.7071 -0.0000 -0.7071
vn 0.7071 -0.0000 0.7071
vt 0.187500 1.000000
vt 0.187500 0.906250
vt 0.437500 1.000000
vt 0.437500 0.906250
vt 0.187500 0.875000
vt 0.187500 0.781250
vt 0.437500 0.875000
vt 0.437500 0.781250
vt 0.281250 0.500000
vt 0.281250 0.750000
vt 0.187500 0.500000
vt 0.187500 0.750000
vt 0.406250 0.750000
vt 0.406250 0.500000
vt 0.312500 0.750000
vt 0.312500 0.500000
vt 0.000000 0.500000
vt 0.000000 0.406250
vt 0.093750 0.500000
vt 0.093750 0.406250
vt 0.437500 0.625000
vt 0.437500 0.531250
vt 0.531250 0.625000
vt 0.531250 0.531250
vt 0.625000 1.000000
vt 0.625000 0.906250
vt 0.437500 0.750000
vt 0.437500 0.656250
vt 0.625000 0.750000
vt 0.625000 0.656250
vt 0.187500 0.812500
vt 0.000000 0.812500
vt 0.000000 1.000000
vt 0.187500 0.625000
vt 0.000000 0.625000
vt 0.625000 0.875000
vt 0.625000 0.781250
vt 0.000000 0.531250
vt 0.187500 0.531250
s 0
usemtl Material_0.001
f 1/1/1 3/2/1 2/3/1
f 3/2/1 4/4/1 2/3/1
f 5/5/2 7/6/2 6/7/2
f 7/6/2 8/8/2 6/7/2
f 9/9/3 11/10/3 10/11/3
f 11/10/3 12/12/3 10/11/3
f 13/13/4 15/14/4 14/15/4
f 15/14/4 16/16/4 14/15/4
f 17/17/5 19/18/5 18/19/5
f 19/18/5 20/20/5 18/19/5
f 21/21/6 23/22/6 22/23/6
f 23/22/6 24/24/6 22/23/6
f 25/3/7 27/4/7 26/25/7
f 27/4/7 28/26/7 26/25/7
f 29/27/8 31/28/8 30/29/8
f 31/28/8 32/30/8 30/29/8
f 33/31/3 35/1/3 34/32/3
f 35/1/3 36/33/3 34/32/3
f 37/31/4 39/34/4 38/32/4
f 39/34/4 40/35/4 38/32/4
f 41/7/9 43/8/9 42/36/9
f 43/8/9 44/37/9 42/36/9
f 45/35/10 47/38/10 46/34/10
f 47/38/10 48/39/10 46/34/10
