# Blender 4.4.0
# www.blender.org
mtllib lev.fortis_shift.mtl
o attachmentModel
v -0.769231 0.000000 0.769231
v 0.769231 0.000000 0.769231
v -0.769231 -0.384615 0.769231
v 0.769231 -0.384615 0.769231
v 0.769231 0.000000 -0.769231
v -0.769231 0.000000 -0.769231
v 0.769231 -0.384615 -0.769231
v -0.769231 -0.384615 -0.769231
v 0.769231 0.000000 -0.769231
v 0.769231 0.000000 0.769231
v -0.769231 0.000000 -0.769231
v -0.769231 0.000000 0.769231
v -0.769231 -0.384615 -0.769231
v -0.769231 -0.384615 0.769231
v 0.769231 -0.384615 -0.769231
v 0.769231 -0.384615 0.769231
v -0.769231 0.000000 -0.769231
v -0.769231 0.000000 0.769231
v -0.769231 -0.384615 -0.769231
v -0.769231 -0.384615 0.769231
v 0.769231 0.000000 0.769231
v 0.769231 0.000000 -0.769231
v 0.769231 -0.384615 0.769231
v 0.769231 -0.384615 -0.769231
v -0.652124 0.204126 -0.576154
v 0.769229 -0.384618 -0.576154
v -0.799310 -0.151212 -0.576154
v 0.622043 -0.739956 -0.576154
v 0.769229 -0.384618 -0.576923
v -0.652124 0.204126 -0.576923
v 0.622043 -0.739956 -0.576923
v -0.799310 -0.151212 -0.576923
v 0.769229 -0.384618 -0.576923
v 0.769229 -0.384618 -0.576154
v -0.652124 0.204126 -0.576923
v -0.652124 0.204126 -0.576154
v -0.799310 -0.151212 -0.576923
v -0.799310 -0.151212 -0.576154
v 0.622043 -0.739956 -0.576923
v 0.622043 -0.739956 -0.576154
v -0.652124 0.204126 -0.576923
v -0.652124 0.204126 -0.576154
v -0.799310 -0.151212 -0.576923
v -0.799310 -0.151212 -0.576154
v 0.769229 -0.384618 -0.576154
v 0.769229 -0.384618 -0.576923
v 0.622043 -0.739956 -0.576154
v 0.622043 -0.739956 -0.576923
v -0.652124 0.204126 0.577692
v 0.769229 -0.384618 0.577692
v -0.799310 -0.151212 0.577692
v 0.622043 -0.739956 0.577692
v 0.769229 -0.384618 0.576923
v -0.652124 0.204126 0.576923
v 0.622043 -0.739956 0.576923
v -0.799310 -0.151212 0.576923
v 0.769229 -0.384618 0.576923
v 0.769229 -0.384618 0.577692
v -0.652124 0.204126 0.576923
v -0.652124 0.204126 0.577692
v -0.799310 -0.151212 0.576923
v -0.799310 -0.151212 0.577692
v 0.622043 -0.739956 0.576923
v 0.622043 -0.739956 0.577692
v -0.652124 0.204126 0.576923
v -0.652124 0.204126 0.577692
v -0.799310 -0.151212 0.576923
v -0.799310 -0.151212 0.577692
v 0.769229 -0.384618 0.577692
v 0.769229 -0.384618 0.576923
v 0.622043 -0.739956 0.577692
v 0.622043 -0.739956 0.576923
v 0.768518 -0.384323 0.576923
v 0.769229 -0.384618 0.576923
v 0.621332 -0.739662 0.576923
v 0.622043 -0.739956 0.576923
v 0.769229 -0.384618 -0.576923
v 0.768518 -0.384323 -0.576923
v 0.622043 -0.739956 -0.576923
v 0.621332 -0.739662 -0.576923
v 0.769229 -0.384618 -0.576923
v 0.769229 -0.384618 0.576923
v 0.768518 -0.384323 -0.576923
v 0.768518 -0.384323 0.576923
v 0.621332 -0.739662 -0.576923
v 0.621332 -0.739662 0.576923
v 0.622043 -0.739956 -0.576923
v 0.622043 -0.739956 0.576923
v 0.768518 -0.384323 -0.576923
v 0.768518 -0.384323 0.576923
v 0.621332 -0.739662 -0.576923
v 0.621332 -0.739662 0.576923
v 0.769229 -0.384618 0.576923
v 0.769229 -0.384618 -0.576923
v 0.622043 -0.739956 0.576923
v 0.622043 -0.739956 -0.576923
v -0.799016 -0.150501 0.576923
v 0.622337 -0.739245 0.576923
v -0.799310 -0.151212 0.576923
v 0.622043 -0.739956 0.576923
v 0.622337 -0.739245 -0.576923
v -0.799016 -0.150501 -0.576923
v 0.622043 -0.739956 -0.576923
v -0.799310 -0.151212 -0.576923
v 0.622337 -0.739245 -0.576923
v 0.622337 -0.739245 0.576923
v -0.799016 -0.150501 -0.576923
v -0.799016 -0.150501 0.576923
v -0.799310 -0.151212 -0.576923
v -0.799310 -0.151212 0.576923
v 0.622043 -0.739956 -0.576923
v 0.622043 -0.739956 0.576923
v -0.799016 -0.150501 -0.576923
v -0.799016 -0.150501 0.576923
v -0.799310 -0.151212 -0.576923
v -0.799310 -0.151212 0.576923
v 0.622337 -0.739245 0.576923
v 0.622337 -0.739245 -0.576923
v 0.622043 -0.739956 0.576923
v 0.622043 -0.739956 -0.576923
v -0.799310 -0.151212 -0.576154
v -0.088634 -0.445584 -0.576154
v -0.946496 -0.506550 -0.576154
v -0.235820 -0.800922 -0.576154
v -0.088634 -0.445584 -0.576923
v -0.799310 -0.151212 -0.576923
v -0.235820 -0.800922 -0.576923
v -0.946496 -0.506550 -0.576923
v -0.088634 -0.445584 -0.576923
v -0.088634 -0.445584 -0.576154
v -0.799310 -0.151212 -0.576923
v -0.799310 -0.151212 -0.576154
v -0.946496 -0.506550 -0.576923
v -0.946496 -0.506550 -0.576154
v -0.235820 -0.800922 -0.576923
v -0.235820 -0.800922 -0.576154
v -0.799310 -0.151212 -0.576923
v -0.799310 -0.151212 -0.576154
v -0.946496 -0.506550 -0.576923
v -0.946496 -0.506550 -0.576154
v -0.088634 -0.445584 -0.576154
v -0.088634 -0.445584 -0.576923
v -0.235820 -0.800922 -0.576154
v -0.235820 -0.800922 -0.576923
v -0.799310 -0.151212 0.577692
v -0.088634 -0.445584 0.577692
v -0.946496 -0.506550 0.577692
v -0.235820 -0.800922 0.577692
v -0.088634 -0.445584 0.576923
v -0.799310 -0.151212 0.576923
v -0.235820 -0.800922 0.576923
v -0.946496 -0.506550 0.576923
v -0.088634 -0.445584 0.576923
v -0.088634 -0.445584 0.577692
v -0.799310 -0.151212 0.576923
v -0.799310 -0.151212 0.577692
v -0.946496 -0.506550 0.576923
v -0.946496 -0.506550 0.577692
v -0.235820 -0.800922 0.576923
v -0.235820 -0.800922 0.577692
v -0.799310 -0.151212 0.576923
v -0.799310 -0.151212 0.577692
v -0.946496 -0.506550 0.576923
v -0.946496 -0.506550 0.577692
v -0.088634 -0.445584 0.577692
v -0.088634 -0.445584 0.576923
v -0.235820 -0.800922 0.577692
v -0.235820 -0.800922 0.576923
v -0.089344 -0.445290 0.576923
v -0.088634 -0.445584 0.576923
v -0.236530 -0.800628 0.576923
v -0.235820 -0.800922 0.576923
v -0.088634 -0.445584 -0.576923
v -0.089344 -0.445290 -0.576923
v -0.235820 -0.800922 -0.576923
v -0.236530 -0.800628 -0.576923
v -0.088634 -0.445584 -0.576923
v -0.088634 -0.445584 0.576923
v -0.089344 -0.445290 -0.576923
v -0.089344 -0.445290 0.576923
v -0.236530 -0.800628 -0.576923
v -0.236530 -0.800628 0.576923
v -0.235820 -0.800922 -0.576923
v -0.235820 -0.800922 0.576923
v -0.089344 -0.445290 -0.576923
v -0.089344 -0.445290 0.576923
v -0.236530 -0.800628 -0.576923
v -0.236530 -0.800628 0.576923
v -0.088634 -0.445584 0.576923
v -0.088634 -0.445584 -0.576923
v -0.235820 -0.800922 0.576923
v -0.235820 -0.800922 -0.576923
v -0.946496 -0.506550 -0.576154
v 0.119519 -0.948108 -0.576154
v -1.682426 -2.283242 -0.576154
v -0.616411 -2.724800 -0.576154
v 0.119519 -0.948108 -0.576923
v -0.946496 -0.506550 -0.576923
v -0.616411 -2.724800 -0.576923
v -1.682426 -2.283242 -0.576923
v 0.119519 -0.948108 -0.576923
v 0.119519 -0.948108 -0.576154
v -0.946496 -0.506550 -0.576923
v -0.946496 -0.506550 -0.576154
v -1.682426 -2.283242 -0.576923
v -1.682426 -2.283242 -0.576154
v -0.616411 -2.724800 -0.576923
v -0.616411 -2.724800 -0.576154
v -0.946496 -0.506550 -0.576923
v -0.946496 -0.506550 -0.576154
v -1.682426 -2.283242 -0.576923
v -1.682426 -2.283242 -0.576154
v 0.119519 -0.948108 -0.576154
v 0.119519 -0.948108 -0.576923
v -0.616411 -2.724800 -0.576154
v -0.616411 -2.724800 -0.576923
v -1.682132 -2.282531 0.576923
v -0.616117 -2.724089 0.576923
v -1.682426 -2.283242 0.576923
v -0.616411 -2.724800 0.576923
v -0.616117 -2.724089 -0.576923
v -1.682132 -2.282531 -0.576923
v -0.616411 -2.724800 -0.576923
v -1.682426 -2.283242 -0.576923
v -0.616117 -2.724089 -0.576923
v -0.616117 -2.724089 0.576923
v -1.682132 -2.282531 -0.576923
v -1.682132 -2.282531 0.576923
v -1.682426 -2.283242 -0.576923
v -1.682426 -2.283242 0.576923
v -0.616411 -2.724800 -0.576923
v -0.616411 -2.724800 0.576923
v -1.682132 -2.282531 -0.576923
v -1.682132 -2.282531 0.576923
v -1.682426 -2.283242 -0.576923
v -1.682426 -2.283242 0.576923
v -0.616117 -2.724089 0.576923
v -0.616117 -2.724089 -0.576923
v -0.616411 -2.724800 0.576923
v -0.616411 -2.724800 -0.576923
v -0.946496 -0.506550 0.577692
v 0.119519 -0.948108 0.577692
v -1.682426 -2.283242 0.577692
v -0.616411 -2.724800 0.577692
v 0.119519 -0.948108 0.576923
v -0.946496 -0.506550 0.576923
v -0.616411 -2.724800 0.576923
v -1.682426 -2.283242 0.576923
v 0.119519 -0.948108 0.576923
v 0.119519 -0.948108 0.577692
v -0.946496 -0.506550 0.576923
v -0.946496 -0.506550 0.577692
v -1.682426 -2.283242 0.576923
v -1.682426 -2.283242 0.577692
v -0.616411 -2.724800 0.576923
v -0.616411 -2.724800 0.577692
v -0.946496 -0.506550 0.576923
v -0.946496 -0.506550 0.577692
v -1.682426 -2.283242 0.576923
v -1.682426 -2.283242 0.577692
v 0.119519 -0.948108 0.577692
v 0.119519 -0.948108 0.576923
v -0.616411 -2.724800 0.577692
v -0.616411 -2.724800 0.576923
v -0.652835 0.204421 0.576923
v -0.652124 0.204126 0.576923
v -1.683137 -2.282948 0.576923
v -1.682426 -2.283242 0.576923
v -0.652124 0.204126 -0.576923
v -0.652835 0.204421 -0.576923
v -1.682426 -2.283242 -0.576923
v -1.683137 -2.282948 -0.576923
v -0.652124 0.204126 -0.576923
v -0.652124 0.204126 0.576923
v -0.652835 0.204421 -0.576923
v -0.652835 0.204421 0.576923
v -1.683137 -2.282948 -0.576923
v -1.683137 -2.282948 0.576923
v -1.682426 -2.283242 -0.576923
v -1.682426 -2.283242 0.576923
v -0.652835 0.204421 -0.576923
v -0.652835 0.204421 0.576923
v -1.683137 -2.282948 -0.576923
v -1.683137 -2.282948 0.576923
v -0.652124 0.204126 0.576923
v -0.652124 0.204126 -0.576923
v -1.682426 -2.283242 0.576923
v -1.682426 -2.283242 -0.576923
v -0.946202 -0.505840 0.576923
v 0.119813 -0.947397 0.576923
v -0.946496 -0.506550 0.576923
v 0.119519 -0.948108 0.576923
v 0.119813 -0.947397 -0.576923
v -0.946202 -0.505840 -0.576923
v 0.119519 -0.948108 -0.576923
v -0.946496 -0.506550 -0.576923
v 0.119813 -0.947397 -0.576923
v 0.119813 -0.947397 0.576923
v -0.946202 -0.505840 -0.576923
v -0.946202 -0.505840 0.576923
v -0.946496 -0.506550 -0.576923
v -0.946496 -0.506550 0.576923
v 0.119519 -0.948108 -0.576923
v 0.119519 -0.948108 0.576923
v -0.946202 -0.505840 -0.576923
v -0.946202 -0.505840 0.576923
v -0.946496 -0.506550 -0.576923
v -0.946496 -0.506550 0.576923
v 0.119813 -0.947397 0.576923
v 0.119813 -0.947397 -0.576923
v 0.119519 -0.948108 0.576923
v 0.119519 -0.948108 -0.576923
v 0.118808 -0.947814 0.576923
v 0.119519 -0.948108 0.576923
v -0.617122 -2.724505 0.576923
v -0.616411 -2.724800 0.576923
v 0.119519 -0.948108 -0.576923
v 0.118808 -0.947814 -0.576923
v -0.616411 -2.724800 -0.576923
v -0.617122 -2.724505 -0.576923
v 0.119519 -0.948108 -0.576923
v 0.119519 -0.948108 0.576923
v 0.118808 -0.947814 -0.576923
v 0.118808 -0.947814 0.576923
v -0.617122 -2.724505 -0.576923
v -0.617122 -2.724505 0.576923
v -0.616411 -2.724800 -0.576923
v -0.616411 -2.724800 0.576923
v 0.118808 -0.947814 -0.576923
v 0.118808 -0.947814 0.576923
v -0.617122 -2.724505 -0.576923
v -0.617122 -2.724505 0.576923
v 0.119519 -0.948108 0.576923
v 0.119519 -0.948108 -0.576923
v -0.616411 -2.724800 0.576923
v -0.616411 -2.724800 -0.576923
vn -0.0000 -0.0000 1.0000
vn -0.0000 -0.0000 -1.0000
vn -0.0000 1.0000 -0.0000
vn -0.0000 -1.0000 -0.0000
vn -1.0000 -0.0000 -0.0000
vn 1.0000 -0.0000 -0.0000
vn 0.3827 0.9239 -0.0000
vn -0.3827 -0.9239 -0.0000
vn -0.9239 0.3827 -0.0000
vn 0.9239 -0.3827 -0.0000
vn -0.0001 -0.0000 1.0000
vn -0.0001 -0.0000 -1.0000
vn -0.3826 -0.9239 -0.0000
vn 0.0001 -0.0000 -1.0000
vn -0.9240 0.3823 -0.0000
vn 0.9239 -0.3825 -0.0000
vn 0.9239 -0.3826 -0.0000
vn -0.9239 0.3826 -0.0000
vn -0.3824 -0.9240 -0.0000
vn 0.0001 -0.0000 1.0000
vn -0.9240 0.3825 -0.0000
vn -0.3828 -0.9238 -0.0000
vt 0.500000 0.625000
vt 0.500000 0.593750
vt 0.625000 0.625000
vt 0.625000 0.593750
vt 0.500000 0.500000
vt 0.500000 0.468750
vt 0.625000 0.500000
vt 0.625000 0.468750
vt 0.125000 0.625000
vt 0.125000 0.750000
vt 0.000000 0.625000
vt 0.000000 0.750000
vt 0.375000 1.000000
vt 0.375000 0.875000
vt 0.250000 1.000000
vt 0.250000 0.875000
vt 0.500000 0.562500
vt 0.500000 0.531250
vt 0.625000 0.562500
vt 0.625000 0.531250
vt 0.375000 0.500000
vt 0.375000 0.468750
vt 0.000000 0.437500
vt 0.000000 0.406250
vt 0.125000 0.437500
vt 0.125000 0.406250
vt 0.250000 0.437500
vt 0.250000 0.406250
vt 0.000000 0.875000
vt 0.000000 1.000000
vt 0.000000 0.968750
vt 0.375000 0.437500
vt 0.375000 0.406250
vt 0.500000 0.437500
vt 0.500000 0.406250
vt 0.625000 0.437500
vt 0.625000 0.406250
vt 0.093750 1.000000
vt 0.625000 1.000000
vt 0.625000 0.968750
vt 0.718750 1.000000
vt 0.718750 0.968750
vt 0.000000 0.375000
vt 0.000000 0.343750
vt 0.093750 0.375000
vt 0.093750 0.343750
vt 0.125000 1.000000
vt 0.468750 0.500000
vt 0.468750 0.625000
vt 0.375000 0.625000
vt 0.218750 0.562500
vt 0.218750 0.437500
vt 0.125000 0.562500
vt 0.625000 0.875000
vt 0.625000 0.843750
vt 0.687500 0.875000
vt 0.687500 0.843750
vt 0.625000 0.812500
vt 0.625000 0.781250
vt 0.687500 0.812500
vt 0.687500 0.781250
vt 0.000000 0.937500
vt 0.250000 0.375000
vt 0.250000 0.343750
vt 0.312500 0.375000
vt 0.312500 0.343750
vt 0.625000 0.750000
vt 0.625000 0.718750
vt 0.687500 0.750000
vt 0.687500 0.718750
vt 0.125000 0.375000
vt 0.125000 0.343750
vt 0.218750 0.375000
vt 0.218750 0.343750
vt 0.625000 0.937500
vt 0.625000 0.906250
vt 0.718750 0.937500
vt 0.718750 0.906250
vt 0.125000 0.593750
vt 0.218750 0.750000
vt 0.218750 0.593750
vt 0.250000 0.718750
vt 0.343750 0.875000
vt 0.343750 0.718750
vt 0.000000 0.906250
vt 0.000000 0.843750
vt 0.593750 0.906250
vt 0.593750 1.000000
vt 0.500000 0.906250
vt 0.500000 1.000000
vt 0.593750 0.875000
vt 0.593750 0.781250
vt 0.500000 0.875000
vt 0.500000 0.781250
vt 0.000000 0.781250
vt 0.125000 0.781250
vt 0.218750 1.000000
vt 0.218750 0.781250
vt 0.093750 0.781250
vt 0.343750 0.406250
vt 0.343750 0.500000
vt 0.250000 0.500000
vt 0.593750 0.750000
vt 0.593750 0.656250
vt 0.500000 0.750000
vt 0.500000 0.656250
vt 0.375000 0.812500
vt 0.375000 0.656250
vt 0.468750 0.812500
vt 0.468750 0.656250
vt 0.375000 0.843750
vt 0.468750 1.000000
vt 0.468750 0.843750
s 0
usemtl Material_0.004
f 1/1/1 3/2/1 2/3/1
f 3/2/1 4/4/1 2/3/1
f 5/5/2 7/6/2 6/7/2
f 7/6/2 8/8/2 6/7/2
f 9/9/3 11/10/3 10/11/3
f 11/10/3 12/12/3 10/11/3
f 13/13/4 15/14/4 14/15/4
f 15/14/4 16/16/4 14/15/4
f 17/17/5 19/18/5 18/19/5
f 19/18/5 20/20/5 18/19/5
f 21/21/6 23/22/6 22/5/6
f 23/22/6 24/6/6 22/5/6
f 25/23/1 27/24/1 26/25/1
f 27/24/1 28/26/1 26/25/1
f 29/25/2 31/26/2 30/27/2
f 31/26/2 32/28/2 30/27/2
f 33/29/7 35/30/7 34/29/7
f 35/30/7 36/30/7 34/29/7
f 37/30/8 39/29/8 38/30/8
f 39/29/8 40/29/8 38/30/8
f 41/30/9 43/31/9 42/30/9
f 43/31/9 44/31/9 42/30/9
f 45/30/10 47/31/10 46/30/10
f 47/31/10 48/31/10 46/30/10
f 49/32/1 51/33/1 50/34/1
f 51/33/1 52/35/1 50/34/1
f 53/34/2 55/35/2 54/36/2
f 55/35/2 56/37/2 54/36/2
f 57/29/7 59/30/7 58/29/7
f 59/30/7 60/30/7 58/29/7
f 61/30/8 63/29/8 62/30/8
f 63/29/8 64/29/8 62/30/8
f 65/30/9 67/31/9 66/30/9
f 67/31/9 68/31/9 66/30/9
f 69/30/10 71/31/10 70/30/10
f 71/31/10 72/31/10 70/30/10
f 73/30/11 75/31/11 74/30/11
f 75/31/1 76/31/1 74/30/1
f 77/30/2 79/31/2 78/30/2
f 79/31/12 80/31/12 78/30/12
f 81/38/7 83/38/7 82/30/7
f 83/38/7 84/30/7 82/30/7
f 85/38/13 87/38/13 86/30/13
f 87/38/8 88/30/8 86/30/8
f 89/39/9 91/40/9 90/41/9
f 91/40/9 92/42/9 90/41/9
f 93/43/10 95/44/10 94/45/10
f 95/44/10 96/46/10 94/45/10
f 97/30/11 99/30/11 98/47/11
f 99/30/1 100/47/1 98/47/1
f 101/30/2 103/30/2 102/47/2
f 103/30/2 104/47/2 102/47/2
f 105/48/7 107/49/7 106/21/7
f 107/49/7 108/50/7 106/21/7
f 109/51/8 111/52/8 110/53/8
f 111/52/8 112/25/8 110/53/8
f 113/30/9 115/30/9 114/38/9
f 115/30/9 116/38/9 114/38/9
f 117/30/10 119/30/10 118/38/10
f 119/30/10 120/38/10 118/38/10
f 121/54/1 123/55/1 122/56/1
f 123/55/1 124/57/1 122/56/1
f 125/58/2 127/59/2 126/60/2
f 127/59/2 128/61/2 126/60/2
f 129/62/7 131/30/7 130/62/7
f 131/30/7 132/30/7 130/62/7
f 133/30/8 135/62/8 134/30/8
f 135/62/8 136/62/8 134/30/8
f 137/30/9 139/31/9 138/30/9
f 139/31/9 140/31/9 138/30/9
f 141/30/10 143/31/10 142/30/10
f 143/31/10 144/31/10 142/30/10
f 145/63/1 147/64/1 146/65/1
f 147/64/1 148/66/1 146/65/1
f 149/67/2 151/68/2 150/69/2
f 151/68/2 152/70/2 150/69/2
f 153/62/7 155/30/7 154/62/7
f 155/30/7 156/30/7 154/62/7
f 157/30/8 159/62/8 158/30/8
f 159/62/8 160/62/8 158/30/8
f 161/30/9 163/31/9 162/30/9
f 163/31/9 164/31/9 162/30/9
f 165/30/10 167/31/10 166/30/10
f 167/31/10 168/31/10 166/30/10
f 169/30/1 171/31/1 170/30/1
f 171/31/1 172/31/1 170/30/1
f 173/30/12 175/31/12 174/30/12
f 175/31/14 176/31/14 174/30/14
f 177/38/7 179/38/7 178/30/7
f 179/38/7 180/30/7 178/30/7
f 181/38/8 183/38/8 182/30/8
f 183/38/8 184/30/8 182/30/8
f 185/71/9 187/72/9 186/73/9
f 187/72/9 188/74/9 186/73/9
f 189/75/10 191/76/10 190/77/10
f 191/76/10 192/78/10 190/77/10
f 193/10/1 195/79/1 194/80/1
f 195/79/1 196/81/1 194/80/1
f 197/16/2 199/82/2 198/83/2
f 199/82/2 200/84/2 198/83/2
f 201/85/7 203/30/7 202/85/7
f 203/30/7 204/30/7 202/85/7
f 205/30/8 207/85/8 206/30/8
f 207/85/8 208/85/8 206/30/8
f 209/30/9 211/86/9 210/30/9
f 211/86/9 212/86/9 210/30/9
f 213/30/10 215/86/10 214/30/10
f 215/86/10 216/86/10 214/30/10
f 217/30/1 219/30/1 218/38/1
f 219/30/1 220/38/1 218/38/1
f 221/30/14 223/30/14 222/38/14
f 223/30/2 224/38/2 222/38/2
f 225/87/7 227/88/7 226/89/7
f 227/88/7 228/90/7 226/89/7
f 229/91/8 231/92/8 230/93/8
f 231/92/8 232/94/8 230/93/8
f 233/30/15 235/30/15 234/38/15
f 235/30/9 236/38/9 234/38/9
f 237/30/16 239/30/16 238/38/16
f 239/30/17 240/38/17 238/38/17
f 241/83/1 243/84/1 242/16/1
f 243/84/1 244/82/1 242/16/1
f 245/80/2 247/81/2 246/10/2
f 247/81/2 248/79/2 246/10/2
f 249/85/7 251/30/7 250/85/7
f 251/30/7 252/30/7 250/85/7
f 253/30/8 255/85/8 254/30/8
f 255/85/8 256/85/8 254/30/8
f 257/30/18 259/86/18 258/30/18
f 259/86/9 260/86/9 258/30/9
f 261/30/10 263/86/10 262/30/10
f 263/86/17 264/86/17 262/30/17
f 265/30/1 267/95/1 266/30/1
f 267/95/1 268/95/1 266/30/1
f 269/30/2 271/95/2 270/30/2
f 271/95/2 272/95/2 270/30/2
f 273/38/7 275/38/7 274/30/7
f 275/38/7 276/30/7 274/30/7
f 277/38/13 279/38/13 278/30/13
f 279/38/19 280/30/19 278/30/19
f 281/47/9 283/96/9 282/97/9
f 283/96/9 284/98/9 282/97/9
f 285/30/10 287/95/10 286/38/10
f 287/95/10 288/99/10 286/38/10
f 289/30/20 291/30/20 290/38/20
f 291/30/11 292/38/11 290/38/11
f 293/30/2 295/30/2 294/38/2
f 295/30/2 296/38/2 294/38/2
f 297/100/7 299/101/7 298/28/7
f 299/101/7 300/102/7 298/28/7
f 301/103/8 303/104/8 302/105/8
f 303/104/8 304/106/8 302/105/8
f 305/30/21 307/30/21 306/38/21
f 307/30/9 308/38/9 306/38/9
f 309/30/10 311/30/10 310/38/10
f 311/30/10 312/38/10 310/38/10
f 313/30/1 315/86/1 314/30/1
f 315/86/1 316/86/1 314/30/1
f 317/30/2 319/86/2 318/30/2
f 319/86/2 320/86/2 318/30/2
f 321/38/7 323/38/7 322/30/7
f 323/38/7 324/30/7 322/30/7
f 325/38/8 327/38/8 326/30/8
f 327/38/22 328/30/22 326/30/22
f 329/107/9 331/108/9 330/109/9
f 331/108/9 332/110/9 330/109/9
f 333/13/10 335/111/10 334/112/10
f 335/111/10 336/113/10 334/112/10
