# Blender 5.2.0 LTS
# www.blender.org
mtllib lev.tppmosin.mtl
o attachmentModel
v 0.000000 0.384615 0.384615
v 1.923077 0.384615 0.384615
v 0.000000 -0.384615 0.384615
v 1.923077 -0.384615 0.384615
v 1.923077 0.384615 -0.384615
v -0.000000 0.384615 -0.384615
v 1.923077 -0.384615 -0.384615
v -0.000000 -0.384615 -0.384615
v 1.923077 0.384615 -0.384615
v 1.923077 0.384615 0.384615
v -0.000000 0.384615 -0.384615
v 0.000000 0.384615 0.384615
v -0.000000 -0.384615 -0.384615
v 0.000000 -0.384615 0.384615
v 1.923077 -0.384615 -0.384615
v 1.923077 -0.384615 0.384615
v -0.000000 0.384615 -0.384615
v 0.000000 0.384615 0.384615
v -0.000000 -0.384615 -0.384615
v 0.000000 -0.384615 0.384615
v 1.923077 0.384615 0.384615
v 1.923077 0.384615 -0.384615
v 1.923077 -0.384615 0.384615
v 1.923077 -0.384615 -0.384615
v 0.007692 0.326061 -0.090243
v 1.915385 0.326061 -0.090244
v 0.007692 -0.384615 -0.384615
v 1.915385 -0.384615 -0.384615
v 1.915385 0.473247 -0.445582
v 0.007692 0.473247 -0.445582
v 1.915385 -0.237429 -0.739954
v 0.007692 -0.237429 -0.739954
v 1.915385 0.473247 -0.445582
v 1.915385 0.326061 -0.090244
v 0.007692 0.473247 -0.445582
v 0.007692 0.326061 -0.090243
v 0.007692 -0.237429 -0.739954
v 0.007692 -0.384615 -0.384615
v 1.915385 -0.237429 -0.739954
v 1.915385 -0.384615 -0.384615
v 0.007692 0.473247 -0.445582
v 0.007692 0.326061 -0.090243
v 0.007692 -0.237429 -0.739954
v 0.007692 -0.384615 -0.384615
v 1.915385 0.326061 -0.090244
v 1.915385 0.473247 -0.445582
v 1.915385 -0.384615 -0.384615
v 1.915385 -0.237429 -0.739954
v 0.007692 0.473247 0.445582
v 1.915385 0.473247 0.445582
v 0.007692 -0.237429 0.739954
v 1.915385 -0.237429 0.739954
v 1.915385 0.326061 0.090243
v 0.007692 0.326061 0.090243
v 1.915385 -0.384615 0.384615
v 0.007692 -0.384615 0.384615
v 1.915385 0.326061 0.090243
v 1.915385 0.473247 0.445582
v 0.007692 0.326061 0.090243
v 0.007692 0.473247 0.445582
v 0.007692 -0.384615 0.384615
v 0.007692 -0.237429 0.739954
v 1.915385 -0.384615 0.384615
v 1.915385 -0.237429 0.739954
v 0.007692 0.326061 0.090243
v 0.007692 0.473247 0.445582
v 0.007692 -0.384615 0.384615
v 0.007692 -0.237429 0.739954
v 1.915385 0.473247 0.445582
v 1.915385 0.326061 0.090243
v 1.915385 -0.237429 0.739954
v 1.915385 -0.384615 0.384615
v -1.930769 -0.000000 0.554807
v 0.007692 -0.000000 0.554807
v -1.930769 -0.554807 -0.000000
v 0.007692 -0.554807 -0.000000
v 0.007692 0.554807 0.000000
v -1.930769 0.554807 0.000000
v 0.007692 0.000000 -0.554807
v -1.930769 0.000000 -0.554807
v 0.007692 0.554807 0.000000
v 0.007692 -0.000000 0.554807
v -1.930769 0.554807 0.000000
v -1.930769 -0.000000 0.554807
v -1.930769 0.000000 -0.554807
v -1.930769 -0.554807 -0.000000
v 0.007692 0.000000 -0.554807
v 0.007692 -0.554807 -0.000000
v -1.930769 0.554807 0.000000
v -1.930769 -0.000000 0.554807
v -1.930769 0.000000 -0.554807
v -1.930769 -0.554807 -0.000000
v 0.007692 -0.000000 0.554807
v 0.007692 0.554807 0.000000
v 0.007692 -0.554807 -0.000000
v 0.007692 0.000000 -0.554807
v 0.009231 0.000000 -0.552631
v -1.929231 0.000000 -0.552631
v 0.009231 0.552631 0.000000
v -1.929231 0.552631 0.000000
v -1.929231 -0.552631 -0.000000
v 0.009231 -0.552631 -0.000000
v -1.929231 -0.000000 0.552631
v 0.009231 -0.000000 0.552631
v -1.929231 -0.552631 -0.000000
v -1.929231 0.000000 -0.552631
v 0.009231 -0.552631 -0.000000
v 0.009231 0.000000 -0.552631
v 0.009231 -0.000000 0.552631
v 0.009231 0.552631 0.000000
v -1.929231 -0.000000 0.552631
v -1.929231 0.552631 0.000000
v 0.009231 -0.552631 -0.000000
v 0.009231 0.000000 -0.552631
v 0.009231 -0.000000 0.552631
v 0.009231 0.552631 0.000000
v -1.929231 0.000000 -0.552631
v -1.929231 -0.552631 -0.000000
v -1.929231 0.552631 0.000000
v -1.929231 -0.000000 0.552631
vn -0.0000 -0.0000 1.0000
vn -0.0000 -0.0000 -1.0000
vn -0.0000 1.0000 -0.0000
vn -0.0000 -1.0000 -0.0000
vn -1.0000 -0.0000 -0.0000
vn 1.0000 -0.0000 -0.0000
vn -0.0000 -0.3827 0.9239
vn -0.0000 0.3827 -0.9239
vn -0.0000 0.9239 0.3827
vn -0.0000 -0.9239 -0.3827
vn -0.0000 0.3827 0.9239
vn -0.0000 -0.3827 -0.9239
vn -0.0000 0.9239 -0.3827
vn -0.0000 -0.9239 0.3827
vn -0.0000 -0.7071 0.7071
vn -0.0000 0.7071 -0.7071
vn -0.0000 0.7071 0.7071
vn -0.0000 -0.7071 -0.7071
vt 0.000000 1.000000
vt 0.000000 0.937500
vt 0.156250 1.000000
vt 0.156250 0.937500
vt 0.000000 0.875000
vt 0.156250 0.875000
vt 0.062500 0.718750
vt 0.062500 0.875000
vt 0.000000 0.718750
vt 0.125000 0.875000
vt 0.125000 0.718750
vt 0.375000 0.750000
vt 0.375000 0.687500
vt 0.437500 0.750000
vt 0.437500 0.687500
vt 0.375000 0.812500
vt 0.437500 0.812500
vt 0.125000 0.812500
vt 0.281250 0.875000
vt 0.281250 0.812500
vt 0.187500 1.000000
vt 0.187500 0.937500
vt 0.343750 1.000000
vt 0.343750 0.937500
vt 0.343750 0.468750
vt 0.343750 0.625000
vt 0.312500 0.468750
vt 0.312500 0.625000
vt 0.406250 0.625000
vt 0.406250 0.468750
vt 0.375000 0.625000
vt 0.375000 0.468750
vt 0.437500 0.625000
vt 0.437500 0.562500
vt 0.468750 0.625000
vt 0.468750 0.562500
vt 0.468750 0.687500
vt 0.187500 0.875000
vt 0.343750 0.875000
vt 0.125000 0.750000
vt 0.281250 0.750000
vt 0.031250 0.406250
vt 0.031250 0.562500
vt 0.000000 0.406250
vt 0.000000 0.562500
vt 0.468750 1.000000
vt 0.468750 0.843750
vt 0.437500 1.000000
vt 0.437500 0.843750
vt 0.500000 1.000000
vt 0.500000 0.937500
vt 0.531250 1.000000
vt 0.531250 0.937500
vt 0.437500 0.500000
vt 0.468750 0.500000
vt 0.125000 0.687500
vt 0.281250 0.687500
vt 0.000000 0.687500
vt 0.000000 0.625000
vt 0.156250 0.687500
vt 0.156250 0.625000
vt 0.375000 0.718750
vt 0.375000 0.875000
vt 0.312500 0.718750
vt 0.312500 0.875000
vt 0.250000 0.687500
vt 0.250000 0.531250
vt 0.187500 0.687500
vt 0.187500 0.531250
vt 0.125000 0.562500
vt 0.125000 0.500000
vt 0.187500 0.562500
vt 0.187500 0.500000
vt 0.062500 0.562500
vt 0.062500 0.500000
vt 0.250000 0.625000
vt 0.406250 0.687500
vt 0.156250 0.562500
vt 0.375000 0.843750
vt 0.375000 1.000000
vt 0.250000 0.468750
vt 0.500000 0.750000
vt 0.500000 0.687500
vt 0.500000 0.812500
s 0
usemtl Material_0.001
f 1/1/1 3/2/1 2/3/1
f 3/2/1 4/4/1 2/3/1
f 5/2/2 7/5/2 6/4/2
f 7/5/2 8/6/2 6/4/2
f 9/7/3 11/8/3 10/9/3
f 11/8/3 12/5/3 10/9/3
f 13/10/4 15/11/4 14/8/4
f 15/11/4 16/7/4 14/8/4
f 17/12/5 19/13/5 18/14/5
f 19/13/5 20/15/5 18/14/5
f 21/16/6 23/12/6 22/17/6
f 23/12/6 24/14/6 22/17/6
f 25/10/7 27/18/7 26/19/7
f 27/18/7 28/20/7 26/19/7
f 29/21/8 31/22/8 30/23/8
f 31/22/8 32/24/8 30/23/8
f 33/25/9 35/26/9 34/27/9
f 35/26/9 36/28/9 34/27/9
f 37/29/10 39/30/10 38/31/10
f 39/30/10 40/32/10 38/31/10
f 41/33/5 43/34/5 42/35/5
f 43/34/5 44/36/5 42/35/5
f 45/15/6 47/33/6 46/37/6
f 47/33/6 48/35/6 46/37/6
f 49/22/11 51/38/11 50/24/11
f 51/38/11 52/39/11 50/24/11
f 53/18/12 55/40/12 54/20/12
f 55/40/12 56/41/12 54/20/12
f 57/42/13 59/43/13 58/44/13
f 59/43/13 60/45/13 58/44/13
f 61/46/14 63/47/14 62/48/14
f 63/47/14 64/49/14 62/48/14
f 65/50/5 67/51/5 66/52/5
f 67/51/5 68/53/5 66/52/5
f 69/34/6 71/54/6 70/36/6
f 71/54/6 72/55/6 70/36/6
f 73/40/15 75/56/15 74/41/15
f 75/56/15 76/57/15 74/41/15
f 77/58/16 79/59/16 78/60/16
f 79/59/16 80/61/16 78/60/16
f 81/62/17 83/63/17 82/64/17
f 83/63/17 84/65/17 82/64/17
f 85/66/18 87/67/18 86/68/18
f 87/67/18 88/69/18 86/68/18
f 89/70/5 91/71/5 90/72/5
f 91/71/5 92/73/5 90/72/5
f 93/74/6 95/75/6 94/70/6
f 95/75/6 96/71/6 94/70/6
f 97/66/15 99/76/15 98/77/15
f 99/76/15 100/29/15 98/77/15
f 101/59/16 103/45/16 102/61/16
f 103/45/16 104/78/16 102/61/16
f 105/49/17 107/48/17 106/79/17
f 107/48/17 108/80/17 106/79/17
f 109/28/18 111/27/18 110/76/18
f 111/27/18 112/81/18 110/76/18
f 113/14/5 115/15/5 114/82/5
f 115/15/5 116/83/5 114/82/5
f 117/17/6 119/14/6 118/84/6
f 119/14/6 120/82/6 118/84/6
