# Blender 5.0.1
# www.blender.org
mtllib lev.salvo12.mtl
o attachmentModel
v 0.384615 0.519231 0.961538
v 9.230768 0.519231 0.961538
v 0.384615 -1.788462 0.961538
v 9.230768 -1.788462 0.961538
v 9.230768 0.519231 -0.961539
v 0.384615 0.519231 -0.961538
v 9.230768 -1.788462 -0.961539
v 0.384615 -1.788462 -0.961538
v 9.230768 0.519231 -0.961539
v 9.230768 0.519231 0.961538
v 0.384615 0.519231 -0.961538
v 0.384615 0.519231 0.961538
v 0.384615 -1.788462 -0.961538
v 0.384615 -1.788462 0.961538
v 9.230768 -1.788462 -0.961539
v 9.230768 -1.788462 0.961538
v 0.384615 0.519231 -0.961538
v 0.384615 0.519231 0.961538
v 0.384615 -1.788462 -0.961538
v 0.384615 -1.788462 0.961538
v 9.230768 0.519231 0.961538
v 9.230768 0.519231 -0.961539
v 9.230768 -1.788462 0.961538
v 9.230768 -1.788462 -0.961539
v 0.000000 0.000968 0.818230
v 0.384615 0.000968 0.818230
v 0.000000 -0.814924 0.002337
v 0.384615 -0.814924 0.002337
v 0.384615 0.816861 0.002338
v 0.000000 0.816861 0.002338
v 0.384615 0.000968 -0.813555
v -0.000000 0.000968 -0.813555
v 0.384615 0.816861 0.002338
v 0.384615 0.000968 0.818230
v 0.000000 0.816861 0.002338
v 0.000000 0.000968 0.818230
v -0.000000 0.000968 -0.813555
v 0.000000 -0.814924 0.002337
v 0.384615 0.000968 -0.813555
v 0.384615 -0.814924 0.002337
v 0.000000 0.816861 0.002338
v 0.000000 0.000968 0.818230
v -0.000000 0.000968 -0.813555
v 0.000000 -0.814924 0.002337
v 0.384615 0.000968 0.818230
v 0.384615 0.816861 0.002338
v 0.384615 -0.814924 0.002337
v 0.384615 0.000968 -0.813555
v 9.241537 -0.000000 0.543928
v 9.242307 -0.000000 0.543928
v 9.241537 -0.543928 -0.000000
v 9.242307 -0.543928 -0.000000
v 9.242307 0.543928 -0.000000
v 9.241537 0.543928 -0.000000
v 9.242307 0.000000 -0.543929
v 9.241537 0.000000 -0.543929
v 9.242307 0.543928 -0.000000
v 9.242307 -0.000000 0.543928
v 9.241537 0.543928 -0.000000
v 9.241537 -0.000000 0.543928
v 9.241537 0.000000 -0.543929
v 9.241537 -0.543928 -0.000000
v 9.242307 0.000000 -0.543929
v 9.242307 -0.543928 -0.000000
v 9.241537 0.543928 -0.000000
v 9.241537 -0.000000 0.543928
v 9.241537 0.000000 -0.543929
v 9.241537 -0.543928 -0.000000
v 9.242307 -0.000000 0.543928
v 9.242307 0.543928 -0.000000
v 9.242307 -0.543928 -0.000000
v 9.242307 0.000000 -0.543929
v -1.396153 -0.000000 0.467778
v 8.496153 -0.000000 0.467778
v -1.396153 -0.467778 -0.000000
v 8.496153 -0.467778 -0.000000
v 8.496153 0.467778 -0.000000
v -1.396153 0.467778 0.000000
v 8.496153 0.000000 -0.467779
v -1.396153 0.000000 -0.467778
v 8.496153 0.467778 -0.000000
v 8.496153 -0.000000 0.467778
v -1.396153 0.467778 0.000000
v -1.396153 -0.000000 0.467778
v -1.396153 0.000000 -0.467778
v -1.396153 -0.467778 -0.000000
v 8.496153 0.000000 -0.467779
v 8.496153 -0.467778 -0.000000
v -1.396153 0.467778 0.000000
v -1.396153 -0.000000 0.467778
v -1.396153 0.000000 -0.467778
v -1.396153 -0.467778 -0.000000
v 8.496153 -0.000000 0.467778
v 8.496153 0.467778 -0.000000
v 8.496153 -0.467778 -0.000000
v 8.496153 0.000000 -0.467779
v 0.384615 0.903846 0.769231
v 9.230768 0.903846 0.769230
v 0.384615 0.519231 0.769231
v 9.230768 0.519231 0.769230
v 9.230768 0.903846 -0.769231
v 0.384615 0.903846 -0.769231
v 9.230768 0.519231 -0.769231
v 0.384615 0.519231 -0.769231
v 9.230768 0.903846 -0.769231
v 9.230768 0.903846 0.769230
v 0.384615 0.903846 -0.769231
v 0.384615 0.903846 0.769231
v 0.384615 0.519231 -0.769231
v 0.384615 0.519231 0.769231
v 9.230768 0.519231 -0.769231
v 9.230768 0.519231 0.769230
v 0.384615 0.903846 -0.769231
v 0.384615 0.903846 0.769231
v 0.384615 0.519231 -0.769231
v 0.384615 0.519231 0.769231
v 9.230768 0.903846 0.769230
v 9.230768 0.903846 -0.769231
v 9.230768 0.519231 0.769230
v 9.230768 0.519231 -0.769231
vn -0.0000 -0.0000 1.0000
vn -0.0000 -0.0000 -1.0000
vn -0.0000 1.0000 -0.0000
vn -0.0000 -1.0000 -0.0000
vn -1.0000 -0.0000 -0.0000
vn 1.0000 -0.0000 -0.0000
vn -0.0000 -0.7071 0.7071
vn -0.0000 0.7071 -0.7071
vn -0.0000 0.7071 0.7071
vn -0.0000 -0.7071 -0.7071
vn -0.0000 0.7080 0.7063
vn -0.0000 0.7063 0.7079
vn -0.0000 -0.7063 -0.7079
vn -0.0000 -0.7080 -0.7063
vt 0.359375 0.906250
vt 0.359375 0.812500
vt 0.000000 0.906250
vt 0.000000 0.812500
vt 0.078125 0.453125
vt 0.078125 0.812500
vt 0.000000 0.453125
vt 0.171875 0.812500
vt 0.171875 0.453125
vt 0.093750 0.812500
vt 0.093750 0.453125
vt 0.375000 0.906250
vt 0.375000 0.812500
vt 0.453125 0.906250
vt 0.453125 0.812500
vt 0.375000 1.000000
vt 0.453125 1.000000
vt 0.437500 0.593750
vt 0.437500 0.546875
vt 0.453125 0.593750
vt 0.453125 0.546875
vt 0.468750 1.000000
vt 0.468750 0.953125
vt 0.484375 1.000000
vt 0.484375 0.953125
vt 0.515625 0.921875
vt 0.515625 0.937500
vt 0.468750 0.921875
vt 0.468750 0.937500
vt 0.515625 0.906250
vt 0.515625 0.890625
vt 0.468750 0.906250
vt 0.468750 0.890625
vt 0.375000 0.625000
vt 0.375000 0.578125
vt 0.421875 0.625000
vt 0.421875 0.578125
vt 0.375000 0.687500
vt 0.375000 0.640625
vt 0.421875 0.687500
vt 0.421875 0.640625
vt 0.312500 0.812500
vt 0.312500 0.781250
vt 0.750000 0.812500
vt 0.750000 0.781250
vt 0.312500 0.750000
vt 0.750000 0.750000
vt 0.343750 0.312500
vt 0.343750 0.750000
vt 0.312500 0.312500
vt 0.375000 0.750000
vt 0.375000 0.312500
vt 0.437500 0.656250
vt 0.437500 0.625000
vt 0.468750 0.656250
vt 0.468750 0.625000
vt 0.437500 0.687500
vt 0.468750 0.687500
vt 0.531250 0.687500
vt 0.531250 0.656250
vt 0.562500 0.687500
vt 0.562500 0.656250
vt 0.734375 0.718750
vt 0.734375 0.703125
vt 0.375000 0.718750
vt 0.375000 0.703125
vt 0.250000 0.453125
vt 0.250000 0.812500
vt 0.187500 0.453125
vt 0.187500 0.812500
vt 0.312500 0.453125
vt 0.437500 0.609375
vt 0.500000 0.625000
vt 0.500000 0.609375
vt 0.375000 0.562500
vt 0.375000 0.546875
vt 0.437500 0.562500
s 0
usemtl Material_0.002
f 1/1/1 3/2/1 2/3/1
f 3/2/1 4/4/1 2/3/1
f 5/3/2 7/4/2 6/1/2
f 7/4/2 8/2/2 6/1/2
f 9/5/3 11/6/3 10/7/3
f 11/6/3 12/4/3 10/7/3
f 13/8/4 15/9/4 14/10/4
f 15/9/4 16/11/4 14/10/4
f 17/12/5 19/13/5 18/14/5
f 19/13/5 20/15/5 18/14/5
f 21/16/6 23/12/6 22/17/6
f 23/12/6 24/14/6 22/17/6
f 25/18/7 27/19/7 26/20/7
f 27/19/7 28/21/7 26/20/7
f 29/22/8 31/23/8 30/24/8
f 31/23/8 32/25/8 30/24/8
f 33/26/9 35/27/9 34/28/9
f 35/27/9 36/29/9 34/28/9
f 37/30/10 39/31/10 38/32/10
f 39/31/10 40/33/10 38/32/10
f 41/34/5 43/35/5 42/36/5
f 43/35/5 44/37/5 42/36/5
f 45/38/6 47/39/6 46/40/6
f 47/39/6 48/41/6 46/40/6
f 49/42/7 51/43/7 50/44/7
f 51/43/7 52/45/7 50/44/7
f 53/43/8 55/46/8 54/45/8
f 55/46/8 56/47/8 54/45/8
f 57/48/11 59/49/11 58/50/11
f 59/49/12 60/46/12 58/50/12
f 61/51/13 63/52/13 62/49/13
f 63/52/14 64/48/14 62/49/14
f 65/53/5 67/54/5 66/55/5
f 67/54/5 68/56/5 66/55/5
f 69/57/6 71/53/6 70/58/6
f 71/53/6 72/55/6 70/58/6
f 73/42/7 75/43/7 74/44/7
f 75/43/7 76/45/7 74/44/7
f 77/43/8 79/46/8 78/45/8
f 79/46/8 80/47/8 78/45/8
f 81/48/9 83/49/9 82/50/9
f 83/49/9 84/46/9 82/50/9
f 85/51/10 87/52/10 86/49/10
f 87/52/10 88/48/10 86/49/10
f 89/53/5 91/54/5 90/55/5
f 91/54/5 92/56/5 90/55/5
f 93/59/6 95/60/6 94/61/6
f 95/60/6 96/62/6 94/61/6
f 97/63/1 99/64/1 98/65/1
f 99/64/1 100/66/1 98/65/1
f 101/65/2 103/66/2 102/63/2
f 103/66/2 104/64/2 102/63/2
f 105/67/3 107/68/3 106/69/3
f 107/68/3 108/70/3 106/69/3
f 109/42/4 111/71/4 110/68/4
f 111/71/4 112/67/4 110/68/4
f 113/54/5 115/72/5 114/73/5
f 115/72/5 116/74/5 114/73/5
f 117/75/6 119/76/6 118/77/6
f 119/76/6 120/19/6 118/77/6
